<?xml version="1.0" standalone="no"?>
<!DOCTYPE svg PUBLIC "-//W3C//DTD SVG 1.1//EN" "http://www.w3.org/Graphics/SVG/1.1/DTD/svg11.dtd">
<svg xmlns="http://www.w3.org/2000/svg"><metadata>This SVG WebFont was generated by YouWorkForThem.
Copyright Â© 2018 by Jonathan Hill. All rights reserved.</metadata><defs><font horiz-adv-x="1228" id="ywftsvg"><font-face ascent="1530" bbox="-739 -545 1354 1925" cap-height="1290" descent="-518" font-family="" font-stretch="normal" font-weight="800" panose-1="0 0 9 0 0 0 0 0 0 0" underline-position="0" underline-thickness="0" unicode-range="U+0020-25CA" units-per-em="2048" x-height="1024"/><missing-glyph d="M205 61v1229h819v-1229h-819zM348 205h533v942h-533v-942z"/><glyph d="M205 61v1229h819v-1229h-819zM348 205h533v942h-533v-942z" glyph-name=".notdef"/><glyph glyph-name="glyph1" horiz-adv-x="0"/><glyph glyph-name="glyph2" horiz-adv-x="681"/><glyph glyph-name="space" unicode=" "/><glyph d="M487 465l-53 491v334h359v-334l-52 -491h-254zM438 0v348h353v-348h-353z" glyph-name="exclam" unicode="!"/><glyph d="M543 1393l-43 -537h-230l-43 537h316zM1001 1393l-43 -537h-229l-43 537h315z" glyph-name="quotedbl" unicode="&quot;"/><glyph d="M1143 795h-160l-47 -281h162l-43 -235h-158l-45 -279h-252l45 279h-194l-48 -279h-249l45 279h-154l41 235h152l47 281h-156l43 235h152l43 262h251l-43 -262h195l43 262h252l-43 -262h162zM684 514l47 281h-194l-48 -281h195z" glyph-name="numbersign" unicode="#"/><glyph d="M1067 350q0 -305 -336 -356v-281h-227v269q-176 4 -352 32l24 277q199 -25 356 -25q180 0 181 82q0 49 -68 88l-311 172q-160 86 -160 318q0 160 84 237.5t246 98.5v229h227v-219q143 -2 305 -37l-24 -277q-180 33 -316 33q-170 0 -170 -78q0 -51 58 -82l301 -167 q182 -101 182 -314z" glyph-name="dollar" unicode="$"/><glyph d="M283 551q-131 0 -181.5 92t-50.5 285q0 217 57.5 299t176.5 82q133 0 182 -91.5t49 -283.5q0 -219 -56 -301t-177 -82zM199 0l614 1290h215l-614 -1290h-215zM285 727q8 0 13 7t9 29.5t5 60.5t1 106q0 129 -5 167t-23.5 38t-23.5 -37t-5 -168q0 -125 6.5 -164t22.5 -39z M948 -18q-133 0 -183 91t-50 283q0 219 57 301t176 82q131 0 180.5 -92t49.5 -282q0 -219 -56.5 -301t-173.5 -82zM944 158q10 0 15.5 7t9.5 28.5t6 60.5t2 106q0 125 -6 165t-27 40q-16 0 -20 -38t-4 -167q0 -127 4 -164.5t20 -37.5z" glyph-name="percent" unicode="%"/><glyph d="M1225 0h-398l-51 68q-88 -86 -268 -86q-246 0 -335 82.5t-89 269.5q0 164 96 254l119 100l-43 57q-100 133 -100 261q0 170 96 236.5t270 66.5q203 0 282 -71t79 -210q0 -188 -119 -268l-105 -74l70 -84l88 156h318l-201 -406zM520 1069q-29 0 -40 -16.5t-11 -61.5 q0 -76 12 -88l37 -45l37 53q18 29 18 78q0 47 -10 63.5t-43 16.5zM557 295l18 33l-118 155l-23 -41q-23 -39 -22 -86q0 -63 14 -84.5t63 -21.5q27 0 39.5 9t28.5 36z" glyph-name="ampersand" unicode="&amp;"/><glyph d="M772 1393l-43 -537h-229l-43 537h315z" glyph-name="quotesingle" unicode="'"/><glyph d="M1032 -410q-420 51 -627.5 263.5t-207.5 652.5t207.5 652t627.5 263v-254q-268 -41 -371.5 -195.5t-103.5 -465.5t103.5 -466t371.5 -196v-254z" glyph-name="parenleft" unicode="("/><glyph d="M197 -410v254q268 41 371.5 196t103.5 466t-103.5 465.5t-371.5 195.5v254q420 -51 627.5 -263t207.5 -652t-207.5 -652.5t-627.5 -263.5z" glyph-name="parenright" unicode=")"/><glyph d="M1069 1008l-285 -56l189 -190l-205 -144l-152 230l-153 -230l-209 144l190 190l-284 56l80 233l272 -106l-25 258h258l-26 -258l272 106z" glyph-name="asterisk" unicode="*"/><glyph d="M1061 641v-272h-311v-336h-271v336h-313v272h313v334h271v-334h311z" glyph-name="plus" unicode="+"/><glyph d="M438 348h350v-348l-182 -412h-217l162 412h-113v348z" glyph-name="comma" unicode=","/><glyph d="M166 641h895v-272h-895v272z" glyph-name="hyphen" unicode="-"/><glyph d="M438 0v348h353v-348h-353z" glyph-name="period" unicode="."/><glyph d="M111 -125l735 1518h272l-731 -1518h-276z" glyph-name="slash" unicode="/"/><glyph d="M616 -18q-279 0 -384 156.5t-105 488.5q0 190 31.5 317t97.5 198.5t152 100.5t208 29q276 0 381 -158t105 -487q0 -190 -31 -318.5t-96.5 -199t-150.5 -99t-208 -28.5zM614 258q68 0 92.5 72.5t24.5 296.5q0 221 -23.5 294.5t-93.5 73.5q-68 0 -93 -72.5t-25 -295.5 q0 -219 24 -294t94 -75zM616 532q-41 0 -69.5 29t-28.5 68t30 67.5t68.5 28.5t67.5 -28.5t29 -67.5t-29 -68t-68 -29z" glyph-name="zero" unicode="0"/><glyph d="M807 283h276v-283h-944v283h303v678l-280 -60l-51 283l331 69h365v-970z" glyph-name="one" unicode="1"/><glyph d="M625 434q-49 -35 -65.5 -48t-33 -41t-16.5 -62h567v-283h-948v248q0 115 52 197.5t196 179.5l274 186q57 37 57.5 88t-40.5 70.5t-150 19.5q-111 0 -291 -22l-26 278q207 27 362 27q264 0 389 -85t125 -257q0 -195 -155 -297z" glyph-name="two" unicode="2"/><glyph d="M885 664q102 -33 143 -99.5t41 -173.5q0 -231 -138 -320t-425 -89q-217 0 -387 47l26 290q152 -45 363 -45q115 0 151.5 25t36.5 98q0 78 -36.5 103.5t-149.5 25.5h-211v252h193q104 0 135.5 20.5t31.5 86.5q0 68 -34.5 89t-141.5 21q-164 0 -309 -37l-24 273 q178 41 346 41q291 0 413.5 -79t122.5 -259q0 -201 -147 -264v-6z" glyph-name="three" unicode="3"/><glyph d="M1128 500v-287h-118v-213h-344v213h-541v319l303 721h356l-284 -721v-32h166v338h344v-338h118z" glyph-name="four" unicode="4"/><glyph d="M582 793q295 0 401.5 -90.5t106.5 -296.5q0 -242 -138.5 -333t-416.5 -91q-215 0 -375 45l14 292q170 -37 350 -36q123 0 160 23.5t37 103.5q0 76 -35 99t-151 23h-326l27 721h802v-284h-479l-6 -176h29z" glyph-name="five" unicode="5"/><glyph d="M741 809q197 0 285 -98.5t88 -307.5q0 -242 -118.5 -331.5t-368.5 -89.5q-285 0 -392.5 98t-107.5 313q0 293 184 576q84 133 248 284h399q-195 -188 -303 -335q-45 -61 -82 -130h5q63 21 163 21zM623 262q84 0 110.5 30t26.5 130q0 88 -25.5 115.5t-109.5 27.5 q-88 0 -116 -28.5t-28 -120.5t28 -123t114 -31z" glyph-name="six" unicode="6"/><glyph d="M131 1253h959v-301l-541 -952h-361l537 954v15h-594v284z" glyph-name="seven" unicode="7"/><glyph d="M887 655q123 -35 172 -109.5t49 -189.5q0 -211 -124 -292.5t-368 -81.5q-279 0 -387 94t-108 280q0 242 223 299q-186 63 -186 279q0 193 115.5 265.5t342.5 72.5q258 0 356.5 -88t98.5 -258q0 -210 -184 -271zM614.5 1008q-71.5 0 -94 -25t-22.5 -96q0 -78 21.5 -102.5 t96.5 -24.5q74 0 95.5 25.5t21.5 101.5q0 72 -23.5 96.5t-95 24.5zM614.5 260q75.5 0 103 27.5t27.5 101.5q0 86 -25.5 112.5t-105 26.5t-104.5 -27.5t-25 -111.5q0 -76 27 -102.5t102.5 -26.5z" glyph-name="eight" unicode="8"/><glyph d="M600 1272q289 0 395.5 -98.5t106.5 -311.5q0 -319 -180 -575q-100 -143 -246 -287h-406q174 166 303 338q57 80 84 127h-14q-63 -18 -156 -19q-197 0 -284.5 98.5t-87.5 307.5q0 240 117.5 330t367.5 90zM469 834q0 -88 25.5 -115t113.5 -27q86 0 113 28t27 120 t-28 121.5t-114 29.5q-84 0 -110.5 -29.5t-26.5 -127.5z" glyph-name="nine" unicode="9"/><glyph d="M438 659v349h353v-349h-353zM438 0v348h353v-348h-353z" glyph-name="colon" unicode=":"/><glyph d="M438 1008h353v-349h-353v349zM438 0v348h350v-348l-182 -412h-217l162 412h-113z" glyph-name="semicolon" unicode=";"/><glyph d="M1063 731l-565 -184v-84l565 -184v-287l-895 315v393l895 320v-289z" glyph-name="less" unicode="&lt;"/><glyph d="M166 854h895v-272h-895v272zM166 428h895v-272h-895v272z" glyph-name="equal" unicode="="/><glyph d="M168 1020l895 -320v-393l-895 -315v287l565 184v84l-565 184v289z" glyph-name="greater" unicode=">"/><glyph d="M344 465v61q0 55 1 75t9 54.5t26.5 53t52.5 45t89 57.5l111 61q59 33 59 64q0 43 -40 57.5t-154 14.5q-111 0 -308 -19l-26 293q225 27 387 27q272 0 401 -78t129 -238q0 -92 -42 -150.5t-128 -107.5l-100 -57q-84 -47 -116.5 -80t-32.5 -86v-47h-318zM330 0v348h350 v-348h-350z" glyph-name="question" unicode="?"/><glyph d="M600 1309q340 0 478.5 -208t138.5 -603q0 -279 -78 -388.5t-228 -109.5q-139 0 -274 123l-8 72h-25q-33 -76 -86 -76q-102 0 -139 91t-37 290q0 387 178 387q68 0 92 -49h9v49h235v-682q18 -12 33 -12q51 0 68.5 61t17.5 246q0 330 -76 466t-281 136q-197 0 -277.5 -131 t-80.5 -473q0 -334 80 -483.5t276 -149.5q109 0 191 53l16 -217q-92 -43 -217 -43q-170 0 -289.5 63.5t-184 181t-92.5 260t-28 326.5q0 238 42 402t124 253t183.5 127t238.5 38zM596 698q-16 0 -16 -194q0 -193 18 -193q23 0 23 49v287q0 51 -25 51z" glyph-name="at" unicode="@"/><glyph d="M805 0l-47 283h-283l-47 -283h-377l289 1290h549l289 -1290h-373zM524 567h185l-74 439h-37z" glyph-name="A" unicode="A"/><glyph d="M940 668q92 -33 133 -106t41 -202q0 -207 -109.5 -283.5t-332.5 -76.5h-522v1290h493q248 0 345 -72.5t97 -232.5q0 -225 -145 -299v-18zM600 1038h-82v-272h82q72 0 97.5 28.5t25.5 108.5t-25.5 107.5t-97.5 27.5zM598 252q86 0 113.5 26.5t27.5 118.5q0 86 -32.5 120 t-108.5 34h-80v-299h80z" glyph-name="B" unicode="B"/><glyph d="M725 -18q-180 0 -302 44t-187.5 133t-92 201.5t-26.5 274.5q0 201 39 335t119.5 207.5t184 102.5t255.5 29q193 0 307 -45l-25 -293q-119 37 -239 37q-154 0 -211.5 -73t-57.5 -290q0 -215 59.5 -288.5t209.5 -73.5q143 0 237 39l52 -291q-132 -49 -322 -49z" glyph-name="C" unicode="C"/><glyph d="M655 1290q254 0 356.5 -156.5t102.5 -488.5q0 -348 -113.5 -496.5t-345.5 -148.5h-505v1290h505zM614 289q72 0 99.5 70.5t27.5 285.5q0 213 -24.5 284.5t-102.5 71.5h-96v-712h96z" glyph-name="D" unicode="D"/><glyph d="M518 285h559v-285h-927v1290h903v-284h-535v-197h498v-285h-498v-239z" glyph-name="E" unicode="E"/><glyph d="M1079 1006h-561v-232h520v-282h-520v-492h-368v1290h929v-284z" glyph-name="F" unicode="F"/><glyph d="M1071 776v-770l-291 -24l-20 127h-12q-78 -127 -248 -127q-217 0 -300 171t-83 504q0 201 33.5 331t106.5 199.5t167 95.5t235 26q213 0 330 -41l-26 -305q-129 45 -295 45q-72 0 -107 -25t-53.5 -103.5t-18.5 -238.5q0 -217 28 -287.5t116 -70.5q53 0 82.5 38.5 t29.5 139.5v43h-110v272h436z" glyph-name="G" unicode="G"/><glyph d="M711 1290h368v-1290h-368v528h-193v-528h-368v1290h368v-475h193v475z" glyph-name="H" unicode="H"/><glyph d="M1059 1006h-260v-721h260v-285h-889v285h260v721h-260v284h889v-284z" glyph-name="I" unicode="I"/><glyph d="M1067 1290v-975q0 -205 -110.5 -269t-438.5 -64q-129 0 -274 24l26 287q154 -10 203 -10q131 0 178 22.5t47 87.5v613h-379v284h748z" glyph-name="J" unicode="J"/><glyph d="M772 0l-170 520h-84v-520h-368v1290h368v-469h86l187 469h378l-284 -604l307 -686h-420z" glyph-name="K" unicode="K"/><glyph d="M518 285h598v-285h-966v1290h368v-1005z" glyph-name="L" unicode="L"/><glyph d="M1128 1292v-1292h-321v723l-100 -399h-185l-98 397v-721h-322v1292h379v-32l133 -553l146 585h368z" glyph-name="M" unicode="M"/><glyph d="M772 1292h307v-1292h-426l-194 842h-2v-842h-307v1292h428l194 -837v837z" glyph-name="N" unicode="N"/><glyph d="M614 -18q-283 0 -390 161.5t-107 501.5q0 258 59.5 406.5t163.5 203t274 54.5q285 0 392.5 -162t107.5 -502q0 -379 -122 -521t-378 -142zM614 283q74 0 100.5 70.5t26.5 291.5q0 217 -24.5 290t-102.5 73q-76 0 -100.5 -70t-24.5 -293q0 -219 23.5 -290.5t101.5 -71.5z " glyph-name="O" unicode="O"/><glyph d="M629 1290q246 0 342 -111.5t96 -326.5q0 -152 -31.5 -253t-94 -152.5t-135.5 -71t-177 -19.5h-113v-356h-371v1290h484zM588 659q47 0 76.5 45.5t29.5 131.5q0 76 -30.5 114.5t-75.5 38.5h-72v-330h72z" glyph-name="P" unicode="P"/><glyph d="M854 -139q66 0 113 24l20 -229q-96 -33 -225 -33q-176 0 -239.5 77t-63.5 255v41q-193 43 -267.5 200.5t-74.5 448.5q0 258 59.5 406.5t163.5 203t274 54.5q285 0 392.5 -162t107.5 -502q0 -311 -83 -459.5t-251 -187.5v-39q0 -55 14.5 -76.5t59.5 -21.5zM614 1008 q-76 0 -100.5 -70t-24.5 -293q0 -219 24 -290.5t101 -71.5q74 0 100.5 70.5t26.5 291.5q0 217 -24.5 290t-102.5 73z" glyph-name="Q" unicode="Q"/><glyph d="M776 0l-176 465h-82v-465h-368v1290h436q279 0 380 -92t101 -305q0 -229 -156 -342l258 -551h-393zM518 1034v-334h62q74 0 100.5 34t26.5 134q0 96 -26 131t-101 35h-62z" glyph-name="R" unicode="R"/><glyph d="M543 -18q-188 0 -391 32l24 287q205 -31 334 -31q190 0 190 97q0 49 -73 96l-293 188q-160 98 -160 301q0 205 130 281t384 76q168 0 348 -37l-24 -287q-176 35 -293 35q-96 0 -137 -20.5t-41 -63.5q0 -45 61 -86l283 -180q182 -117 182 -310q0 -207 -132 -292.5 t-392 -85.5z" glyph-name="S" unicode="S"/><glyph d="M1114 1290v-301h-313v-989h-369v989h-317v301h999z" glyph-name="T" unicode="T"/><glyph d="M625 -18q-272 0 -377 122.5t-105 378.5v807h369v-823q0 -111 22.5 -147.5t83.5 -36.5q57 0 78 35.5t21 148.5v823h368v-807q0 -285 -114.5 -393t-345.5 -108z" glyph-name="U" unicode="U"/><glyph d="M795 1290h381l-281 -1290h-559l-281 1290h381l164 -1007h31z" glyph-name="V" unicode="V"/><glyph d="M838 1290h354l-76 -1290h-446l-45 489h-21l-45 -489h-446l-76 1290h354l-16 -979h18l51 488h338l54 -488h18z" glyph-name="W" unicode="W"/><glyph d="M768 0l-147 403h-11l-147 -403h-387l291 674l-275 616h383l133 -393h13l135 393h381l-277 -616l291 -674h-383z" glyph-name="X" unicode="X"/><glyph d="M1178 1290l-383 -856v-434h-371v446l-373 844h383l170 -520h19l176 520h379z" glyph-name="Y" unicode="Y"/><glyph d="M215 1290h887v-329l-580 -650v-26h563v-285h-940v336l580 657v13h-510v284z" glyph-name="Z" unicode="Z"/><glyph d="M1069 1149h-420v-1294h420v-244h-774v1782h774v-244z" glyph-name="bracketleft" unicode="["/><glyph d="M1118 -125h-276l-731 1518h272z" glyph-name="backslash" unicode="\"/><glyph d="M934 1393v-1782h-772v244h418v1294h-418v244h772z" glyph-name="bracketright" unicode="]"/><glyph d="M827 573l-192 574h-37l-195 -574h-309l326 820h391l324 -820h-308z" glyph-name="asciicircum" unicode="^"/><glyph d="M-6 -102h1241v-185h-1241v185z" glyph-name="underscore" unicode="_"/><glyph d="M563 1176l-311 411h407l193 -411h-289z" glyph-name="grave" unicode="`"/><glyph d="M727 1040q193 0 274.5 -83t81.5 -263v-682l-311 -24l-22 112h-19q-74 -119 -270 -118q-334 0 -334 297q0 315 385 315h217v45q0 123 -137 123q-88 0 -318 -49l-47 258q322 69 500 69zM489 311q0 -111 103 -110q137 0 137 174v53h-125q-115 0 -115 -117z" glyph-name="a" unicode="a"/><glyph d="M715 1040q201 0 289 -124.5t88 -403.5q0 -281 -83 -405.5t-280 -124.5q-160 0 -221 120h-12l-21 -114l-315 24v1381h354v-430h12q60 77 189 77zM625 240q66 0 86 53t20 219q0 164 -21.5 216t-88.5 52q-59 0 -83 -35.5t-24 -138.5v-192q0 -100 24 -137t87 -37z" glyph-name="b" unicode="b"/><glyph d="M748 -18q-156 0 -260.5 21.5t-188.5 78.5t-123 162.5t-39 267.5q0 156 40 261.5t123 162.5t190.5 80.5t263.5 23.5q131 0 250 -24l-25 -256q-100 23 -193 22q-172 0 -230 -50t-58 -220q0 -160 61.5 -216t226.5 -56q106 0 207 22l23 -254q-100 -26 -268 -26z" glyph-name="c" unicode="c"/><glyph d="M715 1393h354v-1381l-315 -24l-21 114h-12q-57 -121 -219 -120q-199 0 -282 124.5t-83 405.5q0 279 88 403.5t289 124.5q129 0 188 -77h13v430zM498 512q0 -166 20.5 -219t85.5 -53q63 0 87 36.5t24 137.5v192q0 102 -24.5 138t-84.5 36q-66 0 -87 -52t-21 -216z" glyph-name="d" unicode="d"/><glyph d="M496 412q10 -96 47 -134t114 -38q135 0 359 43l41 -238q-244 -63 -414 -63q-506 0 -506 536q0 295 128 408.5t372 113.5q143 0 234.5 -32.5t140.5 -104.5t66.5 -162t17.5 -229q0 -66 -6 -100h-594zM639 805q-74 0 -106.5 -38t-40.5 -151h270q-2 113 -27.5 151t-95.5 38z " glyph-name="e" unicode="e"/><glyph d="M948 1176q-109 0 -147.5 -31t-40.5 -121h301v-242h-301v-782h-357v782h-258v242h258v35q0 207 106.5 284.5t377.5 77.5q158 0 239 -16l-22 -240q-56 11 -156 11z" glyph-name="f" unicode="f"/><glyph d="M754 1034l315 -24v-1012q0 -109 -13.5 -175.5t-45 -115.5t-96 -72.5t-153.5 -34t-233 -10.5q-168 0 -307 21l25 250q166 -12 303 -13q96 0 131 26t35 114v67h-13q-61 -74 -188 -73q-201 0 -289 125.5t-88 404.5q0 281 83 404.5t282 123.5q162 0 217 -120h14zM498 512 q0 -164 21.5 -217t86.5 -53q61 0 85 35.5t24 138.5v192q0 100 -23.5 137t-87.5 37q-66 0 -86 -53t-20 -217z" glyph-name="g" unicode="g"/><glyph d="M778 1040q178 0 241.5 -85t63.5 -296v-659h-354v639q0 76 -21.5 109.5t-82.5 33.5q-55 0 -83 -30.5t-28 -110.5v-641h-354v1393h354v-467h2q72 114 262 114z" glyph-name="h" unicode="h"/><glyph d="M864 1401v-291h-354v291h354zM862 242h287v-242h-973v242h332v540h-313v242h667v-782z" glyph-name="i" unicode="i"/><glyph d="M598 1401h354v-291h-354v291zM952 1024v-1016q0 -111 -14 -178.5t-50 -118.5t-108.5 -74.5t-174 -35t-263.5 -11.5q-104 0 -248 21l25 252q133 -14 241 -15q145 0 190.5 29t45.5 121v784h-408v242h764z" glyph-name="j" unicode="j"/><glyph d="M782 0l-192 449h-62v-449h-354v1393h354v-719h70l180 350h387l-297 -457l310 -567h-396z" glyph-name="k" unicode="k"/><glyph d="M1100 256l22 -252q-113 -23 -243 -22q-297 0 -401.5 80.5t-104.5 287.5v799h-293v244h647v-1043q0 -66 33 -88t135 -22q78 0 205 16z" glyph-name="l" unicode="l"/><glyph d="M987 1040q121 0 165 -86t44 -297v-657h-332v713q0 70 -45 69q-23 0 -35 -19.5t-12 -43.5v-2v-717h-313v713q0 70 -45 69q-20 0 -33.5 -20.5t-13.5 -44.5v-717h-326v1010l301 24l12 -112h25q68 119 205 118q141 0 172 -129h20q57 129 211 129z" glyph-name="m" unicode="m"/><glyph d="M770 1040q178 0 242.5 -86t64.5 -295v-659h-354v639q0 76 -21.5 109.5t-83.5 33.5q-57 0 -84.5 -30.5t-27.5 -110.5v-641h-354v1012l319 26l18 -112h19q72 114 262 114z" glyph-name="n" unicode="n"/><glyph d="M614 -18q-258 0 -367.5 123.5t-109.5 406.5q0 274 107.5 401t369.5 127q258 0 368 -123.5t110 -404.5q0 -276 -108 -403t-370 -127zM614 240q72 0 94.5 52t22.5 220q0 166 -21.5 218t-95.5 52q-72 0 -94 -51t-22 -219q0 -166 21 -219t95 -53z" glyph-name="o" unicode="o"/><glyph d="M729 1040q197 0 280 -124.5t83 -403.5t-88.5 -404.5t-288.5 -125.5q-129 0 -191 77h-10v-448h-354v1399l315 24l21 -114h14q57 120 219 120zM621 242q68 0 89 52t21 218q0 164 -20.5 217t-85.5 53q-63 0 -87 -36.5t-24 -137.5v-192q0 -102 24 -138t83 -36z" glyph-name="p" unicode="p"/><glyph d="M754 1034l315 -24v-1399h-354v448h-13q-59 -78 -190 -77q-199 0 -287 125.5t-88 404.5t83 403.5t282 124.5q162 0 219 -120h12zM498 512q0 -164 21.5 -217t86.5 -53q59 0 84 35.5t25 138.5v192q0 100 -23.5 137t-87.5 37q-66 0 -86 -53t-20 -217z" glyph-name="q" unicode="q"/><glyph d="M1135 1042h45l-31 -313q-90 23 -168 23q-170 0 -237.5 -41t-67.5 -172v-539h-354v782h-238v242h389l152 12l32 -133h19q113 139 459 139z" glyph-name="r" unicode="r"/><glyph d="M567 -18q-180 0 -395 30l23 252q203 -25 307 -24q106 0 143 13t37 52q0 20 -12.5 31.5t-51.5 30.5l-303 137q-139 59 -139 237q0 168 122 234.5t345 66.5q166 0 385 -30l-27 -254q-203 27 -299 26q-80 0 -108.5 -13t-28.5 -44q0 -20 10.5 -29.5t40.5 -23.5l261 -117 q102 -47 150 -106.5t48 -153.5q0 -170 -131 -242.5t-377 -72.5z" glyph-name="s" unicode="s"/><glyph d="M1006 252l22 -250q-109 -20 -246 -20q-240 0 -327.5 71.5t-87.5 231.5v497h-230v242h230v240h354v-240h301v-242h-301v-436q0 -61 30.5 -83.5t112.5 -22.5q68 0 142 12z" glyph-name="t" unicode="t"/><glyph d="M723 1024h354v-1012l-319 -26l-19 114h-18q-68 -117 -262 -116q-178 0 -242.5 86t-64.5 295v659h354v-639q0 -76 22.5 -109.5t81.5 -33.5q57 0 85 30.5t28 110.5v641z" glyph-name="u" unicode="u"/><glyph d="M770 1024h379l-258 -1024h-553l-258 1024h379l133 -778h45z" glyph-name="v" unicode="v"/><glyph d="M909 1024h332l-111 -1024h-471l-38 451h-11l-39 -451h-469l-114 1024h334l30 -776h31l41 452h381l43 -452h29z" glyph-name="w" unicode="w"/><glyph d="M784 0l-145 305h-47l-148 -305h-378l299 530l-281 494h379l131 -268h43l129 268h381l-283 -496l301 -528h-381z" glyph-name="x" unicode="x"/><glyph d="M774 1024h371l-291 -1096q-51 -188 -163.5 -263t-297.5 -75q-109 0 -219 25l21 242q117 -18 188 -19q94 0 136 28t59 120l2 10l-228 4l-266 1024h371l143 -778h27z" glyph-name="y" unicode="y"/><glyph d="M506 244h573v-244h-936v289l555 473v18h-518v244h875v-289l-549 -489v-2z" glyph-name="z" unicode="z"/><glyph d="M834 -174q109 0 186 18l22 -229q-152 -25 -262 -25q-246 0 -340 61.5t-94 242.5v366q0 92 -30.5 122t-131.5 30v190q100 0 131 30t31 124v362q0 180 93 241.5t339 61.5q156 0 264 -20l-22 -232q-86 16 -186 17q-90 0 -120 -24.5t-30 -98.5v-322q0 -96 -33 -149t-116 -80 v-12q84 -27 116.5 -80t32.5 -148v-321q0 -76 30 -100.5t120 -24.5z" glyph-name="braceleft" unicode="{"/><glyph d="M780 1393v-1782h-331v1782h331z" glyph-name="bar" unicode="|"/><glyph d="M881 756q0 -94 30.5 -124t130.5 -30v-190q-100 0 -130.5 -30t-30.5 -122v-366q0 -180 -94.5 -242t-340.5 -62q-111 0 -262 25l23 229q76 -18 186 -18q90 0 120 24.5t30 100.5v321q0 96 32.5 149.5t116.5 78.5v12q-84 27 -116.5 80t-32.5 149v322q0 74 -30 98.5t-120 24.5 q-100 0 -186 -17l-23 232q109 20 265 20q246 0 339 -61.5t93 -241.5v-362z" glyph-name="braceright" unicode="}"/><glyph d="M360 322l-192 63q0 137 77 230.5t199 93.5q82 0 164 -54l123 -77q27 -14 49 -15q66 0 88 121l195 -63q-4 -139 -84 -230.5t-199 -91.5q-82 0 -164 51l-127 80q-16 12 -45 12q-66 1 -84 -120z" glyph-name="asciitilde" unicode="~"/><glyph glyph-name="uni00A0" unicode=" "/><glyph d="M791 1024v-348h-353v348h353zM741 559l54 -493v-455h-359v455l51 493h254z" glyph-name="exclamdown" unicode="¡"/><glyph d="M1016 8q-76 -18 -187 -24v-260h-227v264q-238 20 -351.5 136t-113.5 388q0 264 115 382t350 140v217h227v-213q98 -6 175 -22l-25 -256q-80 18 -150 20v-538q80 4 164 20zM498 512q0 -104 23.5 -161.5t80.5 -82.5v492q-57 -23 -80.5 -79t-23.5 -169z" glyph-name="cent" unicode="¢"/><glyph d="M584 283h526v-283h-948v283q139 55 162 272h-154v238h158q-4 82 -4 116q0 219 98 309.5t311 90.5q143 0 320 -27l-25 -299q-131 25 -207 25t-103.5 -37t-27.5 -146v-32h287v-238h-295q-23 -178 -98 -262v-10z" glyph-name="sterling" unicode="£"/><glyph d="M1044 608q0 -98 -43 -190l148 -139l-186 -187l-134 141q-98 -57 -217 -57q-115 0 -213 57l-133 -141l-186 187l147 139q-45 90 -45 190q0 117 58 215l-160 152l186 186l156 -166q90 45 190.5 45t194.5 -45l156 166l186 -186l-162 -152q57 -98 57 -215zM612 414 q82 0 138.5 56t56.5 138t-56.5 138.5t-138.5 56.5t-138 -56.5t-56 -138.5t56 -138t138 -56z" glyph-name="currency" unicode="¤"/><glyph d="M786 653v-16h250v-182h-250v-86h250v-181h-250v-188h-358v188h-254v181h254v86h-254v182h254v12l-356 641h377l163 -391h4l162 391h379z" glyph-name="yen" unicode="¥"/><glyph d="M449 666v727h331v-727h-331zM449 -389v729h331v-729h-331z" glyph-name="brokenbar" unicode="¦"/><glyph d="M942 184q90 -88 90 -231q0 -362 -485 -363q-160 0 -391 29l20 258q213 -27 323.5 -27t147.5 23t37 72q0 63 -66 94l-274 139q-164 80 -164 287q0 182 148 244v28q-109 88 -109 244q0 186 126 258t357 72q172 0 324 -23l-18 -250q-158 16 -258 17q-111 0 -145 -14.5 t-34 -63.5t52 -76l258 -129q113 -59 152.5 -133t39.5 -168q0 -176 -131 -252v-35zM510 479q0 -55 55 -82l97 -49q84 18 83 98q0 37 -15 56.5t-54 42.5l-37 20q-72 -2 -100.5 -22.5t-28.5 -63.5z" glyph-name="section" unicode="§"/><glyph d="M188 1516h363v-314h-363v314zM680 1516h362v-314h-362v314z" glyph-name="dieresis" unicode="¨"/><glyph d="M616 -18q-268 0 -437 189t-169 474t169 475.5t437 190.5q266 0 434.5 -190.5t168.5 -475.5q0 -283 -168.5 -473t-434.5 -190zM614.5 145q188.5 0 310.5 141.5t122 358.5q0 221 -122 361.5t-310.5 140.5t-310.5 -140.5t-122 -361.5q0 -217 122 -358.5t310.5 -141.5z M647 293q-160 0 -219 85t-59 261q0 201 65.5 280.5t206.5 79.5q88 0 150 -26l-15 -156q-43 25 -104 25q-49 0 -67.5 -40t-18.5 -159q0 -115 17.5 -152.5t68.5 -37.5q66 0 102 22l31 -153q-68 -29 -158 -29z" glyph-name="copyright" unicode="©"/><glyph d="M705 1403q158 0 213 -65.5t55 -198.5v-514l-285 -23l-14 96h-8q-53 -100 -207 -100q-139 0 -194.5 59.5t-55.5 165.5q0 129 78 182.5t227 53.5h150v28q0 94 -91 95q-45 0 -233 -37l-45 207q248 51 410 51zM516 854q0 -88 64 -88q84 0 84 135v37h-66q-82 0 -82 -84z" glyph-name="ordfeminine" unicode="ª"/><glyph d="M98 350v307l445 340v-254l-240 -239l240 -242v-256zM686 350v307l444 340v-254l-239 -239l239 -242v-256z" glyph-name="guillemotleft" unicode="«"/><glyph d="M1061 852v-698h-268v430h-627v268h895z" glyph-name="logicalnot" unicode="¬"/><glyph d="M616 1311q266 0 434.5 -190.5t168.5 -475.5q0 -283 -168 -473t-435 -190q-268 0 -437 189t-169 474t169 475.5t437 190.5zM614.5 145q188.5 0 310.5 141.5t122 358.5q0 221 -122 361.5t-310.5 140.5t-310.5 -140.5t-122 -361.5q0 -217 122 -358.5t310.5 -141.5zM795 592 l133 -289h-223l-93 252h-45v-252h-207v688h256q156 0 213.5 -51t57.5 -166q0 -123 -92 -182zM567 842v-140h29q55 0 73.5 13.5t18.5 56.5q0 39 -19.5 54.5t-72.5 15.5h-29z" glyph-name="registered" unicode="®"/><glyph d="M242 1470h747v-249h-747v249z" glyph-name="macron" unicode="¯"/><glyph d="M279 1063q0 137 98 237.5t237 100.5q137 0 237.5 -100.5t100.5 -237.5q0 -139 -99 -237.5t-238.5 -98.5t-237.5 98.5t-98 237.5zM481 1063q0 -55 39 -94t94.5 -39t95.5 39t40 94t-40 95t-95.5 40t-94.5 -40t-39 -95z" glyph-name="degree" unicode="°"/><glyph d="M750 967h311v-273h-311v-336h-271v336h-313v273h313v333h271v-333zM166 0v272h895v-272h-895z" glyph-name="plusminus" unicode="±"/><glyph d="M666 1176h-289l194 411h406z" glyph-name="acute" unicode="´"/><glyph d="M723 1024h354v-1012l-319 -26l-19 114h-14q-59 -115 -166 -114q-20 0 -53 4v-379h-354v1413h354v-662q0 -92 20.5 -118.5t83.5 -26.5q57 0 85 32t28 111v664z" glyph-name="uni00B5" unicode="µ"/><glyph d="M1153 1290v-1679h-227v1466h-140v-1466h-227v776h-86q-225 0 -329.5 114.5t-104.5 379.5q0 219 92 314t342 95h680z" glyph-name="paragraph" unicode="¶"/><glyph d="M438 330v348h353v-348h-353z" glyph-name="periodcentered" unicode="·"/><glyph d="M668 -80q252 -8 252 -151q0 -92 -88.5 -135.5t-219.5 -43.5q-162 0 -252 23l17 131q53 -16 121 -16q47 0 74.5 14t27.5 35q0 14 -1 18t-8 10.5t-22.5 7.5t-46.5 1h-76l31 198h207z" glyph-name="cedilla" unicode="¸"/><glyph d="M616 598q-231 0 -320 102.5t-89 298.5q0 227 104.5 315.5t304.5 88.5q229 0 318.5 -102.5t89.5 -301.5q0 -225 -104.5 -313t-303.5 -88zM616 807q47 0 64.5 39t17.5 153q0 119 -16 157t-66 38q-51 0 -68.5 -39t-17.5 -156q0 -113 18.5 -152.5t67.5 -39.5z" glyph-name="ordmasculine" unicode="º"/><glyph d="M543 350l-445 -344v256l240 242l-240 239v254l445 -340v-307zM1130 350l-444 -344v256l240 242l-240 239v254l444 -340v-307z" glyph-name="guillemotright" unicode="»"/><glyph d="M682 1255h192l-294 -1257h-191zM473 625v-199h-453v199h113v422l-100 -35l-33 194l133 47h242v-628h98zM1223 336v-203h-45v-133h-201v133h-262v225l114 469h207l-98 -417v-74h39v205h201v-205h45z" glyph-name="onequarter" unicode="¼"/><glyph d="M682 1255h192l-294 -1257h-191zM473 625v-199h-453v199h113v422l-100 -35l-33 194l133 47h242v-628h98zM1036 330q-51 -72 -57 -107q-2 -10 -2 -24h205v-199h-455v168l2 2q0 80 12.5 127t59.5 102l125 150q20 29 20 53q0 37 -35 37q-39 0 -118 -14l-17 198q115 18 182 19 q88 0 156 -57.5t68 -170.5q0 -84 -76 -186z" glyph-name="onehalf" unicode="½"/><glyph d="M471 688q0 -154 -65.5 -214t-192.5 -60q-106 0 -184 30l16 207q68 -31 139 -30q41 0 41 69q0 76 -37 76h-71v180h63q29 0 29 62q0 41 -5 52t-26 11q-49 0 -117 -22l-14 192q82 27 154 27q256 0 256 -228q0 -119 -60 -166v-10q74 -39 74 -176zM682 1255h192l-294 -1257 h-191zM1223 336v-203h-45v-133h-201v133h-262v225l114 469h207l-98 -417v-74h39v205h201v-205h45z" glyph-name="threequarters" unicode="¾"/><glyph d="M899 1024v-375h-350v375h350zM885 520v-84q0 -121 -25.5 -169t-152.5 -126l-111 -69q-59 -37 -59 -80q0 -45 40.5 -62.5t153.5 -17.5q98 0 307 16l27 -290q-225 -27 -387 -27q-270 0 -400.5 78t-130.5 237q0 100 41 158.5t129 112.5l101 65q82 53 115.5 91t33.5 100v67 h318z" glyph-name="questiondown" unicode="¿"/><glyph d="M852 1405h-289l-311 412h407zM805 0l-47 283h-283l-47 -283h-377l289 1290h549l289 -1290h-373zM524 567h185l-74 439h-37z" glyph-name="Agrave" unicode="À"/><glyph d="M977 1817l-311 -412h-289l194 412h406zM805 0l-47 283h-283l-47 -283h-377l289 1290h549l289 -1290h-373zM524 567h185l-74 439h-37z" glyph-name="Aacute" unicode="Á"/><glyph d="M614 1624l-188 -209h-309l284 412h426l287 -412h-311zM805 0l-47 283h-283l-47 -283h-377l289 1290h549l289 -1290h-373zM524 567h185l-74 439h-37z" glyph-name="Acircumflex" unicode="Â"/><glyph d="M461 1499q-61 0 -78 -90h-207q0 158 80 255t213 97q94 0 180 -55l66 -39q39 -25 67 -25q47 0 68 91h205q0 -170 -77 -260.5t-214 -90.5q-102 0 -174 52l-64 45q-30 20 -65 20zM805 0l-47 283h-283l-47 -283h-377l289 1290h549l289 -1290h-373zM524 567h185l-74 439h-37z " glyph-name="Atilde" unicode="Ã"/><glyph d="M551 1745v-313h-363v313h363zM1042 1745v-313h-362v313h362zM805 0l-47 283h-283l-47 -283h-377l289 1290h549l289 -1290h-373zM524 567h185l-74 439h-37z" glyph-name="Adieresis" unicode="Ä"/><glyph d="M614 1350q-319 0 -319 268t319 268q315 0 315 -268t-315 -268zM614 1722q-127 0 -127 -104q0 -106 127 -107q125 0 125 107q0 104 -125 104zM805 0l-47 283h-283l-47 -283h-377l289 1290h549l289 -1290h-373zM524 567h185l-74 439h-37z" glyph-name="Aring" unicode="Å"/><glyph d="M905 283h275v-283h-635v283h-189l-77 -283h-342l395 1292h831v-282h-258v-195h228v-287h-228v-245zM436 565h109v396z" glyph-name="AE" unicode="Æ"/><glyph d="M719 -80q252 -8 252 -151q0 -92 -88 -135.5t-219 -43.5q-162 0 -252 23l16 131q53 -16 121 -16q47 0 74.5 14t27.5 35q0 14 -1 18t-8 10.5t-22.5 7.5t-46.5 1h-75l28 184q-231 45 -320 201.5t-89 435.5q0 201 39 335t119.5 207.5t184 102.5t255.5 29q193 0 307 -45 l-25 -293q-119 37 -239 37q-154 0 -211.5 -73t-57.5 -290q0 -215 59.5 -288.5t209.5 -73.5q143 0 237 39l52 -291q-127 -49 -318 -49z" glyph-name="Ccedilla" unicode="Ç"/><glyph d="M850 1405h-289l-311 412h407zM518 285h559v-285h-927v1290h903v-284h-535v-197h498v-285h-498v-239z" glyph-name="Egrave" unicode="È"/><glyph d="M975 1817l-311 -412h-289l194 412h406zM518 285h559v-285h-927v1290h903v-284h-535v-197h498v-285h-498v-239z" glyph-name="Eacute" unicode="É"/><glyph d="M612 1624l-188 -209h-309l284 412h426l287 -412h-311zM518 524v-239h559v-285h-927v1290h903v-284h-535v-197h498v-285h-498z" glyph-name="Ecircumflex" unicode="Ê"/><glyph d="M549 1745v-313h-363v313h363zM1040 1745v-313h-362v313h362zM518 285h559v-285h-927v1290h903v-284h-535v-197h498v-285h-498v-239z" glyph-name="Edieresis" unicode="Ë"/><glyph d="M852 1405h-289l-311 412h407zM1059 1006h-260v-721h260v-285h-889v285h260v721h-260v284h889v-284z" glyph-name="Igrave" unicode="Ì"/><glyph d="M977 1817l-311 -412h-289l194 412h406zM1059 1006h-260v-721h260v-285h-889v285h260v721h-260v284h889v-284z" glyph-name="Iacute" unicode="Í"/><glyph d="M614 1624l-188 -209h-309l284 412h426l287 -412h-311zM1059 1290v-284h-260v-721h260v-285h-889v285h260v721h-260v284h889z" glyph-name="Icircumflex" unicode="Î"/><glyph d="M551 1745v-313h-363v313h363zM1042 1745v-313h-362v313h362zM1059 1006h-260v-721h260v-285h-889v285h260v721h-260v284h889v-284z" glyph-name="Idieresis" unicode="Ï"/><glyph d="M655 1290q254 0 356.5 -156.5t102.5 -488.5q0 -348 -113.5 -496.5t-345.5 -148.5h-505v524h-84v285h84v481h505zM614 289q72 0 99.5 70.5t27.5 285.5q0 213 -24.5 284.5t-102.5 71.5h-96v-192h160v-285h-160v-235h96z" glyph-name="Eth" unicode="Ð"/><glyph d="M461 1499q-61 0 -78 -90h-207q0 158 80 255t213 97q94 0 180 -55l66 -39q39 -25 67 -25q47 0 68 91h205q0 -170 -77 -260.5t-214 -90.5q-102 0 -174 52l-64 45q-30 20 -65 20zM772 1292h307v-1292h-426l-194 842h-2v-842h-307v1292h428l194 -837v837z" glyph-name="Ntilde" unicode="Ñ"/><glyph d="M563 1405l-311 412h407l193 -412h-289zM614 -18q-283 0 -390 161.5t-107 501.5q0 258 59.5 406.5t163.5 203t274 54.5q285 0 392.5 -162t107.5 -502q0 -379 -122 -521t-378 -142zM614 283q74 0 100.5 70.5t26.5 291.5q0 217 -24.5 290t-102.5 73q-76 0 -100.5 -70 t-24.5 -293q0 -219 23.5 -290.5t101.5 -71.5z" glyph-name="Ograve" unicode="Ò"/><glyph d="M666 1405h-289l194 412h406zM614 -18q-283 0 -390 161.5t-107 501.5q0 258 59.5 406.5t163.5 203t274 54.5q285 0 392.5 -162t107.5 -502q0 -379 -122 -521t-378 -142zM614 283q74 0 100.5 70.5t26.5 291.5q0 217 -24.5 290t-102.5 73q-76 0 -100.5 -70t-24.5 -293 q0 -219 23.5 -290.5t101.5 -71.5z" glyph-name="Oacute" unicode="Ó"/><glyph d="M614 1624l-188 -209h-309l284 412h426l287 -412h-311zM614 1309q285 0 392.5 -162t107.5 -502q0 -379 -122 -521t-378 -142q-283 0 -390 161.5t-107 501.5q0 258 59.5 406.5t163.5 203t274 54.5zM614 283q74 0 100.5 70.5t26.5 291.5q0 217 -24.5 290t-102.5 73 q-76 0 -100.5 -70t-24.5 -293q0 -219 23.5 -290.5t101.5 -71.5z" glyph-name="Ocircumflex" unicode="Ô"/><glyph d="M764 1382q-102 0 -174 52l-64 45q-31 20 -65 20q-61 0 -78 -90h-207q0 158 80 255t213 97q94 0 180 -55l66 -39q39 -25 67 -25q47 0 68 91h205q0 -170 -77 -260.5t-214 -90.5zM614 -18q-283 0 -390 161.5t-107 501.5q0 258 59.5 406.5t163.5 203t274 54.5 q285 0 392.5 -162t107.5 -502q0 -379 -122 -521t-378 -142zM614 283q74 0 100.5 70.5t26.5 291.5q0 217 -24.5 290t-102.5 73q-76 0 -100.5 -70t-24.5 -293q0 -219 23.5 -290.5t101.5 -71.5z" glyph-name="Otilde" unicode="Õ"/><glyph d="M188 1745h363v-313h-363v313zM680 1745h362v-313h-362v313zM614 -18q-283 0 -390 161.5t-107 501.5q0 258 59.5 406.5t163.5 203t274 54.5q285 0 392.5 -162t107.5 -502q0 -379 -122 -521t-378 -142zM614 283q74 0 100.5 70.5t26.5 291.5q0 217 -24.5 290t-102.5 73 q-76 0 -100.5 -70t-24.5 -293q0 -219 23.5 -290.5t101.5 -71.5z" glyph-name="Odieresis" unicode="Ö"/><glyph d="M1059 760l-254 -254l254 -256l-191 -191l-254 256l-256 -256l-188 191l254 254l-254 256l190 190l254 -256l256 256z" glyph-name="multiply" unicode="×"/><glyph d="M967 1194q147 -145 147 -549q0 -379 -122 -521t-378 -142q-102 0 -176 20l-47 -104h-217l88 200q-145 145 -145 547q0 258 59.5 406.5t163.5 203t274 54.5q102 0 177 -21l47 105h217zM489 645v-37l175 391q-18 8 -50 9q-76 0 -100.5 -70t-24.5 -293zM614 283 q74 0 100.5 70.5t26.5 291.5v41l-176 -395q18 -8 49 -8z" glyph-name="Oslash" unicode="Ø"/><glyph d="M563 1405l-311 412h407l193 -412h-289zM625 -18q-272 0 -377 122.5t-105 378.5v807h369v-823q0 -111 22.5 -147.5t83.5 -36.5q57 0 78 35.5t21 148.5v823h368v-807q0 -285 -114.5 -393t-345.5 -108z" glyph-name="Ugrave" unicode="Ù"/><glyph d="M666 1405h-289l194 412h406zM625 -18q-272 0 -377 122.5t-105 378.5v807h369v-823q0 -111 22.5 -147.5t83.5 -36.5q57 0 78 35.5t21 148.5v823h368v-807q0 -285 -114.5 -393t-345.5 -108z" glyph-name="Uacute" unicode="Ú"/><glyph d="M614 1624l-188 -209h-309l284 412h426l287 -412h-311zM717 467v823h368v-807q0 -285 -114.5 -393t-345.5 -108q-272 0 -377 122.5t-105 378.5v807h369v-823q0 -111 22.5 -147.5t83.5 -36.5q57 0 78 35.5t21 148.5z" glyph-name="Ucircumflex" unicode="Û"/><glyph d="M188 1745h363v-313h-363v313zM680 1745h362v-313h-362v313zM625 -18q-272 0 -377 122.5t-105 378.5v807h369v-823q0 -111 22.5 -147.5t83.5 -36.5q57 0 78 35.5t21 148.5v823h368v-807q0 -285 -114.5 -393t-345.5 -108z" glyph-name="Udieresis" unicode="Ü"/><glyph d="M983 1817l-311 -412h-289l195 412h405zM1178 1290l-383 -856v-434h-371v446l-373 844h383l170 -520h19l176 520h379z" glyph-name="Yacute" unicode="Ý"/><glyph d="M852 -18q-143 0 -295 30l21 252q117 -25 176 -24q47 0 47 73q0 39 -23 62l-133 121q-80 74 -80 200q0 72 16.5 111t77.5 108q53 61 67.5 87t14.5 65q0 96 -102 96q-72 0 -98.5 -54t-26.5 -181v-928h-354v952q0 254 128 361.5t374 107.5q258 0 356 -84t98 -258 q0 -82 -27.5 -137t-109.5 -137q-51 -53 -51 -84q0 -27 20 -43l111 -117q45 -47 67.5 -74.5t41 -76t18.5 -107.5q0 -321 -334 -321z" glyph-name="germandbls" unicode="ß"/><glyph d="M881 1176h-289l-311 411h407zM727 1040q193 0 274.5 -83t81.5 -263v-682l-311 -24l-22 112h-19q-74 -119 -270 -118q-334 0 -334 297q0 315 385 315h217v45q0 123 -137 123q-88 0 -318 -49l-47 258q322 69 500 69zM489 311q0 -111 103 -110q137 0 137 174v53h-125 q-115 0 -115 -117z" glyph-name="agrave" unicode="à"/><glyph d="M1006 1587l-312 -411h-288l194 411h406zM727 1040q193 0 274.5 -83t81.5 -263v-682l-311 -24l-22 112h-19q-74 -119 -270 -118q-334 0 -334 297q0 315 385 315h217v45q0 123 -137 123q-88 0 -318 -49l-47 258q322 69 500 69zM489 311q0 -111 103 -110q137 0 137 174v53 h-125q-115 0 -115 -117z" glyph-name="aacute" unicode="á"/><glyph d="M643 1395l-188 -209h-310l285 411h426l287 -411h-312zM727 1040q193 0 274.5 -83t81.5 -263v-682l-311 -24l-22 112h-19q-74 -119 -270 -118q-334 0 -334 297q0 315 385 315h217v45q0 123 -137 123q-88 0 -318 -49l-47 258q322 69 500 69zM489 311q0 -111 103 -110 q137 0 137 174v53h-125q-115 0 -115 -117z" glyph-name="acircumflex" unicode="â"/><glyph d="M489 1270q-61 0 -77 -90h-207q0 158 80 255t213 97q94 0 180 -55l65 -39q39 -25 68 -25q47 0 68 90h204q0 -170 -76.5 -260t-213.5 -90q-102 0 -175 51l-63 45q-31 21 -66 21zM727 1040q193 0 274.5 -83t81.5 -263v-682l-311 -24l-22 112h-19q-74 -119 -270 -118 q-334 0 -334 297q0 315 385 315h217v45q0 123 -137 123q-88 0 -318 -49l-47 258q322 69 500 69zM489 311q0 -111 103 -110q137 0 137 174v53h-125q-115 0 -115 -117z" glyph-name="atilde" unicode="ã"/><glyph d="M580 1516v-314h-363v314h363zM1071 1516v-314h-362v314h362zM727 1040q193 0 274.5 -83t81.5 -263v-682l-311 -24l-22 112h-19q-74 -119 -270 -118q-334 0 -334 297q0 315 385 315h217v45q0 123 -137 123q-88 0 -318 -49l-47 258q322 69 500 69zM489 311q0 -111 103 -110 q137 0 137 174v53h-125q-115 0 -115 -117z" glyph-name="adieresis" unicode="ä"/><glyph d="M643 1120q-319 0 -319 268.5t319 268.5q315 0 315 -268.5t-315 -268.5zM643 1493q-127 0 -127 -104q0 -106 127 -107q125 0 125 107q0 104 -125 104zM727 1040q193 0 274.5 -83t81.5 -263v-682l-311 -24l-22 112h-19q-74 -119 -270 -118q-334 0 -334 297q0 315 385 315 h217v45q0 123 -137 123q-88 0 -318 -49l-47 258q322 69 500 69zM489 311q0 -111 103 -110q137 0 137 174v53h-125q-115 0 -115 -117z" glyph-name="aring" unicode="å"/><glyph d="M793 424v-35q4 -84 17 -116.5t46 -32.5q109 0 281 45l39 -240q-190 -63 -326 -63q-197 0 -293 127h-2q-86 -127 -252 -127q-135 0 -209 81.5t-74 215.5q0 313 293 313h125v49q0 121 -49 121q-94 0 -235 -47l-50 256q244 72 426 71q92 0 146 -26q72 27 168 26 q219 0 291.5 -124.5t72.5 -409.5q0 -10 -6 -84h-409zM854 809q-31 0 -44 -32t-17 -122v-63h102q-2 131 -9 174t-32 43zM397 201q25 0 33 39t8 129v55h-18q-23 0 -41.5 -29.5t-18.5 -85.5q0 -108 37 -108z" glyph-name="ae" unicode="æ"/><glyph d="M756 -80q252 -8 252 -151q0 -92 -88.5 -135.5t-219.5 -43.5q-162 0 -251 23l16 131q53 -16 121 -16q47 0 74.5 14t27.5 35q0 14 -1 18t-8 10.5t-22.5 7.5t-46.5 1h-75l26 178q-215 27 -319.5 143.5t-104.5 376.5q0 156 40 261.5t123 162.5t190.5 80.5t263.5 23.5 q131 0 250 -24l-25 -256q-100 23 -193 22q-172 0 -230 -50t-58 -220q0 -160 61.5 -216t226.5 -56q106 0 207 22l23 -254q-92 -23 -250 -26z" glyph-name="ccedilla" unicode="ç"/><glyph d="M852 1120h-289l-311 412h407zM496 412q10 -96 47 -134t114 -38q135 0 359 43l41 -238q-244 -63 -414 -63q-506 0 -506 536q0 295 128 408.5t372 113.5q143 0 234.5 -32.5t140.5 -104.5t66.5 -162t17.5 -229q0 -66 -6 -100h-594zM639 805q-74 0 -106.5 -38t-40.5 -151h270 q-2 113 -27.5 151t-95.5 38z" glyph-name="egrave" unicode="è"/><glyph d="M977 1532l-311 -412h-289l194 412h406zM496 412q10 -96 47 -134t114 -38q135 0 359 43l41 -238q-244 -63 -414 -63q-506 0 -506 536q0 295 128 408.5t372 113.5q143 0 234.5 -32.5t140.5 -104.5t66.5 -162t17.5 -229q0 -66 -6 -100h-594zM639 805q-74 0 -106.5 -38 t-40.5 -151h270q-2 113 -27.5 151t-95.5 38z" glyph-name="eacute" unicode="é"/><glyph d="M614 1339l-188 -209h-309l284 412h426l287 -412h-311zM637 1040q143 0 234.5 -32.5t140.5 -104.5t66.5 -162t17.5 -229q0 -66 -6 -100h-594q10 -96 47 -134t114 -38q135 0 359 43l41 -238q-244 -63 -414 -63q-506 0 -506 536q0 295 128 408.5t372 113.5zM639 805 q-74 0 -106.5 -38t-40.5 -151h270q-2 113 -27.5 151t-95.5 38z" glyph-name="ecircumflex" unicode="ê"/><glyph d="M551 1460v-313h-363v313h363zM1042 1460v-313h-362v313h362zM496 412q10 -96 47 -134t114 -38q135 0 359 43l41 -238q-244 -63 -414 -63q-506 0 -506 536q0 295 128 408.5t372 113.5q143 0 234.5 -32.5t140.5 -104.5t66.5 -162t17.5 -229q0 -66 -6 -100h-594zM639 805 q-74 0 -106.5 -38t-40.5 -151h270q-2 113 -27.5 151t-95.5 38z" glyph-name="edieresis" unicode="ë"/><glyph d="M834 1176h-289l-312 411h408zM862 242h287v-242h-973v242h332v540h-313v242h667v-782z" glyph-name="igrave" unicode="ì"/><glyph d="M958 1587l-311 -411h-289l195 411h405zM862 242h287v-242h-973v242h332v540h-313v242h667v-782z" glyph-name="iacute" unicode="í"/><glyph d="M596 1395l-188 -209h-310l285 411h426l287 -411h-312zM862 242h287v-242h-973v242h332v540h-313v242h667v-782z" glyph-name="icircumflex" unicode="î"/><glyph d="M532 1516v-314h-362v314h362zM1024 1516v-314h-362v314h362zM862 242h287v-242h-973v242h332v540h-313v242h667v-782z" glyph-name="idieresis" unicode="ï"/><glyph d="M961 1075q156 -252 155 -590q0 -287 -121 -395t-366 -108q-299 0 -406.5 116.5t-107.5 388.5q0 268 96 373t295 105q82 0 137 -21l31 -2q-16 35 -45 82q-20 33 -33 49l-258 -63l-70 200l187 45q-20 25 -65.5 75t-59.5 67h377l61 -68l229 55l68 -198l-154 -37 q27 -37 50 -74zM614 240q80 0 109 50t29 195q0 49 -4 136q-10 68 -46 94t-100 26q-80 0 -103.5 -49t-23.5 -205q0 -150 27.5 -198.5t111.5 -48.5z" glyph-name="eth" unicode="ð"/><glyph d="M461 1270q-61 0 -78 -90h-207q0 158 80 255t213 97q94 0 180 -55l66 -39q39 -25 67 -25q47 0 68 90h205q0 -170 -77 -260t-214 -90q-102 0 -174 51l-64 45q-30 21 -65 21zM770 1040q178 0 242.5 -86t64.5 -295v-659h-354v639q0 76 -21.5 109.5t-83.5 33.5 q-57 0 -84.5 -30.5t-27.5 -110.5v-641h-354v1012l319 26l18 -112h19q72 114 262 114z" glyph-name="ntilde" unicode="ñ"/><glyph d="M563 1176l-311 411h407l193 -411h-289zM614 -18q-258 0 -367.5 123.5t-109.5 406.5q0 274 107.5 401t369.5 127q258 0 368 -123.5t110 -404.5q0 -276 -108 -403t-370 -127zM614 240q72 0 94.5 52t22.5 220q0 166 -21.5 218t-95.5 52q-72 0 -94 -51t-22 -219 q0 -166 21 -219t95 -53z" glyph-name="ograve" unicode="ò"/><glyph d="M666 1176h-289l194 411h406zM614 -18q-258 0 -367.5 123.5t-109.5 406.5q0 274 107.5 401t369.5 127q258 0 368 -123.5t110 -404.5q0 -276 -108 -403t-370 -127zM614 240q72 0 94.5 52t22.5 220q0 166 -21.5 218t-95.5 52q-72 0 -94 -51t-22 -219q0 -166 21 -219t95 -53z " glyph-name="oacute" unicode="ó"/><glyph d="M614 1395l-188 -209h-309l284 411h426l287 -411h-311zM614 1040q258 0 368 -123.5t110 -404.5q0 -276 -107.5 -403t-370.5 -127q-258 0 -367.5 123.5t-109.5 406.5q0 274 107.5 401t369.5 127zM614 240q72 0 94.5 52t22.5 220q0 166 -21.5 218t-95.5 52q-72 0 -94 -51 t-22 -219q0 -166 21 -219t95 -53z" glyph-name="ocircumflex" unicode="ô"/><glyph d="M764 1153q-102 0 -174 51l-64 45q-31 20 -65 21q-61 0 -78 -90h-207q0 158 80 255t213 97q94 0 180 -55l66 -39q39 -25 67 -25q47 0 68 90h205q0 -170 -77 -260t-214 -90zM614 -18q-258 0 -367.5 123.5t-109.5 406.5q0 274 107.5 401t369.5 127q258 0 368 -123.5 t110 -404.5q0 -276 -108 -403t-370 -127zM614 240q72 0 94.5 52t22.5 220q0 166 -21.5 218t-95.5 52q-72 0 -94 -51t-22 -219q0 -166 21 -219t95 -53z" glyph-name="otilde" unicode="õ"/><glyph d="M188 1516h363v-314h-363v314zM680 1516h362v-314h-362v314zM614 -18q-258 0 -367.5 123.5t-109.5 406.5q0 274 107.5 401t369.5 127q258 0 368 -123.5t110 -404.5q0 -276 -108 -403t-370 -127zM614 240q72 0 94.5 52t22.5 220q0 166 -21.5 218t-95.5 52q-72 0 -94 -51 t-22 -219q0 -166 21 -219t95 -53z" glyph-name="odieresis" unicode="ö"/><glyph d="M459 745v312h311v-312h-311zM166 641h895v-272h-895v272zM459 -47v309h311v-309h-311z" glyph-name="divide" unicode="÷"/><glyph d="M948 948q143 -121 144 -436q0 -276 -107.5 -403t-370.5 -127q-100 0 -180 18l-55 -102h-205l98 182q-135 121 -135 432q0 274 107.5 401t369.5 127q92 0 170 -16l66 119h205zM498 512v-18l155 284q-25 4 -39 4q-72 0 -94 -51t-22 -219zM614 240q72 0 94.5 52t22.5 220v35 l-164 -301q20 -6 47 -6z" glyph-name="oslash" unicode="ø"/><glyph d="M852 1176h-289l-311 411h407zM723 1024h354v-1012l-319 -26l-19 114h-18q-68 -117 -262 -116q-178 0 -242.5 86t-64.5 295v659h354v-639q0 -76 22.5 -109.5t81.5 -33.5q57 0 85 30.5t28 110.5v641z" glyph-name="ugrave" unicode="ù"/><glyph d="M977 1587l-311 -411h-289l194 411h406zM723 1024h354v-1012l-319 -26l-19 114h-18q-68 -117 -262 -116q-178 0 -242.5 86t-64.5 295v659h354v-639q0 -76 22.5 -109.5t81.5 -33.5q57 0 85 30.5t28 110.5v641z" glyph-name="uacute" unicode="ú"/><glyph d="M614 1395l-188 -209h-309l284 411h426l287 -411h-311zM723 383v641h354v-1012l-319 -26l-19 114h-18q-68 -117 -262 -116q-178 0 -242.5 86t-64.5 295v659h354v-639q0 -76 22.5 -109.5t81.5 -33.5q57 0 85 30.5t28 110.5z" glyph-name="ucircumflex" unicode="û"/><glyph d="M551 1516v-314h-363v314h363zM1042 1516v-314h-362v314h362zM723 1024h354v-1012l-319 -26l-19 114h-18q-68 -117 -262 -116q-178 0 -242.5 86t-64.5 295v659h354v-639q0 -76 22.5 -109.5t81.5 -33.5q57 0 85 30.5t28 110.5v641z" glyph-name="udieresis" unicode="ü"/><glyph d="M977 1587l-311 -411h-289l194 411h406zM774 1024h371l-291 -1096q-51 -188 -163.5 -263t-297.5 -75q-109 0 -219 25l21 242q117 -18 188 -19q94 0 136 28t59 120l2 10l-228 4l-266 1024h371l143 -778h27z" glyph-name="yacute" unicode="ý"/><glyph d="M551 1516v-314h-363v314h363zM1042 1516v-314h-362v314h362zM774 1024h371l-291 -1096q-51 -188 -163.5 -263t-297.5 -75q-109 0 -219 25l21 242q117 -18 188 -19q94 0 136 28t59 120l2 10l-228 4l-266 1024h371l143 -778h27z" glyph-name="ydieresis" unicode="ÿ"/><glyph d="M989 1700v-250h-747v250h747zM805 0l-47 283h-283l-47 -283h-377l289 1290h549l289 -1290h-373zM524 567h185l-74 439h-37z" glyph-name="Amacron" unicode="Ā"/><glyph d="M1018 1470v-249h-748v249h748zM727 1040q193 0 274.5 -83t81.5 -263v-682l-311 -24l-22 112h-19q-74 -119 -270 -118q-334 0 -334 297q0 315 385 315h217v45q0 123 -137 123q-88 0 -318 -49l-47 258q322 69 500 69zM489 311q0 -111 103 -110q137 0 137 174v53h-125 q-115 0 -115 -117z" glyph-name="amacron" unicode="ā"/><glyph d="M614 1421q-193 0 -298 91.5t-105 246.5v45h250v-22q0 -66 37 -86.5t116.5 -20.5t115.5 21.5t36 85.5v22h252v-45q0 -152 -103.5 -245t-300.5 -93zM805 0l-47 283h-283l-47 -283h-377l289 1290h549l289 -1290h-373zM524 567h185l-74 439h-37z" glyph-name="Abreve" unicode="Ă"/><glyph d="M643 1192q-193 0 -298 91t-105 247v45h249v-23q0 -66 37 -86t117 -20t116 21.5t36 84.5v23h252v-45q0 -152 -103.5 -245t-300.5 -93zM727 1040q193 0 274.5 -83t81.5 -263v-682l-311 -24l-22 112h-19q-74 -119 -270 -118q-334 0 -334 297q0 315 385 315h217v45 q0 123 -137 123q-88 0 -318 -49l-47 258q322 69 500 69zM489 311q0 -111 103 -110q137 0 137 174v53h-125q-115 0 -115 -117z" glyph-name="abreve" unicode="ă"/><glyph d="M1221 -205l41 -198q-74 -6 -138 -7q-383 0 -383 228q0 98 103 182h-39l-47 283h-283l-47 -283h-377l289 1290h549l289 -1290h-41q-82 -53 -82 -109q0 -53 52.5 -74.5t113.5 -21.5zM524 567h185l-74 439h-37z" glyph-name="Aogonek" unicode="Ą"/><glyph d="M1149 -205l41 -198q-74 -6 -137 -7q-383 0 -383 228q0 100 100 180l-20 102h-19q-74 -119 -270 -118q-334 0 -334 297q0 315 385 315h217v45q0 123 -137 123q-88 0 -318 -49l-47 258q322 70 500 69q193 0 274.5 -83t81.5 -263v-682h2q-102 -59 -102 -121 q0 -53 52.5 -74.5t113.5 -21.5zM489 311q0 -111 103 -110q137 0 137 174v53h-125q-115 0 -115 -117z" glyph-name="aogonek" unicode="ą"/><glyph d="M711 1405h-289l194 412h406zM725 -18q-180 0 -302 44t-187.5 133t-92 201.5t-26.5 274.5q0 201 39 335t119.5 207.5t184 102.5t255.5 29q193 0 307 -45l-25 -293q-119 37 -239 37q-154 0 -211.5 -73t-57.5 -290q0 -215 59.5 -288.5t209.5 -73.5q143 0 237 39l52 -291 q-132 -49 -322 -49z" glyph-name="Cacute" unicode="Ć"/><glyph d="M752 1176h-289l194 411h406zM748 -18q-156 0 -260.5 21.5t-188.5 78.5t-123 162.5t-39 267.5q0 156 40 261.5t123 162.5t190.5 80.5t263.5 23.5q131 0 250 -24l-25 -256q-100 23 -193 22q-172 0 -230 -50t-58 -220q0 -160 61.5 -216t226.5 -56q106 0 207 22l23 -254 q-100 -26 -268 -26z" glyph-name="cacute" unicode="ć"/><glyph d="M659 1624l-188 -209h-309l284 412h426l287 -412h-311zM758 283q143 0 237 39l52 -291q-131 -49 -322 -49q-180 0 -302 44t-187.5 133t-92 201.5t-26.5 274.5q0 201 39 335t119.5 207.5t184 102.5t255.5 29q193 0 307 -45l-25 -293q-119 37 -239 37q-154 0 -211.5 -73 t-57.5 -290q0 -215 59.5 -288.5t209.5 -73.5z" glyph-name="Ccircumflex" unicode="Ĉ"/><glyph d="M700 1395l-188 -209h-309l284 411h426l287 -411h-311zM786 240q106 0 207 22l23 -254q-100 -27 -268 -26q-156 0 -260.5 21.5t-188.5 78.5t-123 162.5t-39 267.5q0 156 40 261.5t123 162.5t190.5 80.5t263.5 23.5q131 0 250 -24l-25 -256q-100 23 -193 22 q-172 0 -230 -50t-58 -220q0 -160 61 -216t227 -56z" glyph-name="ccircumflex" unicode="ĉ"/><glyph d="M477 1745h365v-313h-365v313zM725 -18q-180 0 -302 44t-187.5 133t-92 201.5t-26.5 274.5q0 201 39 335t119.5 207.5t184 102.5t255.5 29q193 0 307 -45l-25 -293q-119 37 -239 37q-154 0 -211.5 -73t-57.5 -290q0 -215 59.5 -288.5t209.5 -73.5q143 0 237 39l52 -291 q-132 -49 -322 -49z" glyph-name="Cdotaccent" unicode="Ċ"/><glyph d="M518 1516h365v-314h-365v314zM748 -18q-156 0 -260.5 21.5t-188.5 78.5t-123 162.5t-39 267.5q0 156 40 261.5t123 162.5t190.5 80.5t263.5 23.5q131 0 250 -24l-25 -256q-100 23 -193 22q-172 0 -230 -50t-58 -220q0 -160 61.5 -216t226.5 -56q106 0 207 22l23 -254 q-100 -26 -268 -26z" glyph-name="cdotaccent" unicode="ċ"/><glyph d="M449 1415l-287 412h311l189 -209l188 209h309l-282 -412h-428zM758 283q143 0 237 39l52 -291q-131 -49 -322 -49q-180 0 -302 44t-187.5 133t-92 201.5t-26.5 274.5q0 201 39 335t119.5 207.5t184 102.5t255.5 29q193 0 307 -45l-25 -293q-119 37 -239 37 q-154 0 -211.5 -73t-57.5 -290q0 -215 59.5 -288.5t209.5 -73.5z" glyph-name="Ccaron" unicode="Č"/><glyph d="M489 1186l-286 411h311l188 -208l189 208h309l-282 -411h-429zM786 240q106 0 207 22l23 -254q-100 -27 -268 -26q-156 0 -260.5 21.5t-188.5 78.5t-123 162.5t-39 267.5q0 156 40 261.5t123 162.5t190.5 80.5t263.5 23.5q131 0 250 -24l-25 -256q-100 23 -193 22 q-172 0 -230 -50t-58 -220q0 -160 61 -216t227 -56z" glyph-name="ccaron" unicode="č"/><glyph d="M420 1415l-287 412h311l189 -209l188 209h309l-282 -412h-428zM655 1290q254 0 356.5 -156.5t102.5 -488.5q0 -348 -113.5 -496.5t-345.5 -148.5h-505v1290h505zM614 289q72 0 99.5 70.5t27.5 285.5q0 213 -24.5 284.5t-102.5 71.5h-96v-712h96z" glyph-name="Dcaron" unicode="Ď"/><glyph d="M637 963v430h354v-1381l-315 -24l-21 114h-12q-57 -121 -219 -120q-199 0 -282 124.5t-83 405.5q0 279 88.5 403.5t288.5 124.5q129 0 189 -77h12zM1073 1393h191v-310l-97 -360h-120l86 360h-60v310zM420 512q0 -166 20.5 -219t85.5 -53q63 0 87 36.5t24 137.5v192 q0 102 -24.5 138t-84.5 36q-66 0 -87 -52t-21 -216z" glyph-name="dcaron" unicode="ď"/><glyph d="M655 1290q254 0 356.5 -156.5t102.5 -488.5q0 -348 -113.5 -496.5t-345.5 -148.5h-505v524h-84v285h84v481h505zM614 289q72 0 99.5 70.5t27.5 285.5q0 213 -24.5 284.5t-102.5 71.5h-96v-192h160v-285h-160v-235h96z" glyph-name="Dcroat" unicode="Đ"/><glyph d="M1239 1335v-241h-170v-1082l-315 -24l-21 114h-12q-57 -121 -219 -120q-199 0 -282 124.5t-83 405.5q0 279 88 403.5t289 124.5q129 0 188 -77h13v131h-320v241h320v58h354v-58h170zM498 512q0 -166 20.5 -219t85.5 -53q63 0 87 36.5t24 137.5v192q0 102 -24.5 138 t-84.5 36q-66 0 -87 -52t-21 -216z" glyph-name="dcroat" unicode="đ"/><glyph d="M987 1700v-250h-747v250h747zM518 285h559v-285h-927v1290h903v-284h-535v-197h498v-285h-498v-239z" glyph-name="Emacron" unicode="Ē"/><glyph d="M989 1415v-250h-747v250h747zM496 412q10 -96 47 -134t114 -38q135 0 359 43l41 -238q-244 -63 -414 -63q-506 0 -506 536q0 295 128 408.5t372 113.5q143 0 234.5 -32.5t140.5 -104.5t66.5 -162t17.5 -229q0 -66 -6 -100h-594zM639 805q-74 0 -106.5 -38t-40.5 -151h270 q-2 113 -27.5 151t-95.5 38z" glyph-name="emacron" unicode="ē"/><glyph d="M612 1421q-193 0 -298 91.5t-105 246.5v45h250v-22q0 -66 36.5 -86.5t116.5 -20.5t116 21.5t36 85.5v22h252v-45q0 -152 -103.5 -245t-300.5 -93zM518 285h559v-285h-927v1290h903v-284h-535v-197h498v-285h-498v-239z" glyph-name="Ebreve" unicode="Ĕ"/><glyph d="M614 1137q-193 0 -298 91t-105 247v45h250v-23q0 -66 37 -86t116.5 -20t115.5 21.5t36 84.5v23h252v-45q0 -152 -103.5 -245t-300.5 -93zM496 412q10 -96 47 -134t114 -38q135 0 359 43l41 -238q-244 -63 -414 -63q-506 0 -506 536q0 295 128 408.5t372 113.5 q143 0 234.5 -32.5t140.5 -104.5t66.5 -162t17.5 -229q0 -66 -6 -100h-594zM639 805q-74 0 -106.5 -38t-40.5 -151h270q-2 113 -27.5 151t-95.5 38z" glyph-name="ebreve" unicode="ĕ"/><glyph d="M795 1745v-313h-365v313h365zM518 285h559v-285h-927v1290h903v-284h-535v-197h498v-285h-498v-239z" glyph-name="Edotaccent" unicode="Ė"/><glyph d="M797 1460v-313h-365v313h365zM496 412q10 -96 47 -134t114 -38q135 0 359 43l41 -238q-244 -63 -414 -63q-506 0 -506 536q0 295 128 408.5t372 113.5q143 0 234.5 -32.5t140.5 -104.5t66.5 -162t17.5 -229q0 -66 -6 -100h-594zM639 805q-74 0 -106.5 -38t-40.5 -151h270 q-2 113 -27.5 151t-95.5 38z" glyph-name="edotaccent" unicode="ė"/><glyph d="M1096 -205l41 -198q-74 -6 -138 -7q-383 0 -383 228q0 98 103 182h-569v1290h903v-284h-535v-197h498v-285h-498v-239h559v-285h-65q-82 -53 -82 -109q0 -53 52.5 -74.5t113.5 -21.5z" glyph-name="Eogonek" unicode="Ę"/><glyph d="M496 412q10 -96 47 -134t114 -38q135 0 359 43l41 -238q-47 -12 -142 -33q-102 -59 -102 -121q0 -53 52.5 -74.5t113.5 -21.5l41 -198q-74 -6 -137 -7q-383 0 -383 228q0 92 84 166q-446 31 -447 534q0 295 128 408.5t372 113.5q143 0 234.5 -32.5t140.5 -104.5 t66.5 -162t17.5 -229q0 -66 -6 -100h-594zM639 805q-74 0 -106.5 -38t-40.5 -151h270q-2 113 -27.5 151t-95.5 38z" glyph-name="eogonek" unicode="ę"/><glyph d="M401 1415l-286 412h311l188 -209l189 209h309l-283 -412h-428zM518 524v-239h559v-285h-927v1290h903v-284h-535v-197h498v-285h-498z" glyph-name="Ecaron" unicode="Ě"/><glyph d="M403 1130l-286 412h311l188 -209l189 209h309l-283 -412h-428zM637 1040q143 0 234.5 -32.5t140.5 -104.5t66.5 -162t17.5 -229q0 -66 -6 -100h-594q10 -96 47 -134t114 -38q135 0 359 43l41 -238q-244 -63 -414 -63q-506 0 -506 536q0 295 128 408.5t372 113.5zM639 805 q-74 0 -106.5 -38t-40.5 -151h270q-2 113 -27.5 151t-95.5 38z" glyph-name="ecaron" unicode="ě"/><glyph d="M629 1624l-189 -209h-309l285 412h426l286 -412h-311zM1071 776v-770l-291 -24l-20 127h-12q-78 -127 -248 -127q-217 0 -300 171t-83 504q0 201 33.5 331t106.5 199.5t167 95.5t235 26q213 0 330 -41l-26 -305q-129 45 -295 45q-72 0 -107 -25t-53.5 -103.5 t-18.5 -238.5q0 -217 28 -287.5t116 -70.5q53 0 82.5 38.5t29.5 139.5v43h-110v272h436z" glyph-name="Gcircumflex" unicode="Ĝ"/><glyph d="M602 1395l-188 -209h-310l285 411h426l287 -411h-311zM733 920l21 114l315 -24v-1012q0 -109 -13.5 -175.5t-45 -115.5t-96 -72.5t-153.5 -34t-233 -10.5q-168 0 -307 21l25 250q166 -12 303 -13q96 0 131 26t35 114v67h-13q-61 -74 -188 -73q-201 0 -289 125.5 t-88 404.5q0 281 83 404.5t282 123.5q162 0 217 -120h14zM498 512q0 -164 21.5 -217t86.5 -53q61 0 85 35.5t24 138.5v192q0 100 -23.5 137t-87.5 37q-66 0 -86 -53t-20 -217z" glyph-name="gcircumflex" unicode="ĝ"/><glyph d="M629 1421q-193 0 -298.5 91.5t-105.5 246.5v45h250v-22q0 -66 37 -86.5t117 -20.5t115.5 21.5t35.5 85.5v22h252v-45q0 -152 -103 -245t-300 -93zM1071 776v-770l-291 -24l-20 127h-12q-78 -127 -248 -127q-217 0 -300 171t-83 504q0 201 33.5 331t106.5 199.5t167 95.5 t235 26q213 0 330 -41l-26 -305q-129 45 -295 45q-72 0 -107 -25t-53.5 -103.5t-18.5 -238.5q0 -217 28 -287.5t116 -70.5q53 0 82.5 38.5t29.5 139.5v43h-110v272h436z" glyph-name="Gbreve" unicode="Ğ"/><glyph d="M602 1192q-193 0 -298 91t-105 247v45h250v-23q0 -66 36.5 -86t116.5 -20t116 21.5t36 84.5v23h252v-45q0 -152 -103.5 -245t-300.5 -93zM754 1034l315 -24v-1012q0 -109 -13.5 -175.5t-45 -115.5t-96 -72.5t-153.5 -34t-233 -10.5q-168 0 -307 21l25 250 q166 -12 303 -13q96 0 131 26t35 114v67h-13q-61 -74 -188 -73q-201 0 -289 125.5t-88 404.5q0 281 83 404.5t282 123.5q162 0 217 -120h14zM498 512q0 -164 21.5 -217t86.5 -53q61 0 85 35.5t24 138.5v192q0 100 -23.5 137t-87.5 37q-66 0 -86 -53t-20 -217z" glyph-name="gbreve" unicode="ğ"/><glyph d="M811 1745v-313h-365v313h365zM1071 776v-770l-291 -24l-20 127h-12q-78 -127 -248 -127q-217 0 -300 171t-83 504q0 201 33.5 331t106.5 199.5t167 95.5t235 26q213 0 330 -41l-26 -305q-129 45 -295 45q-72 0 -107 -25t-53.5 -103.5t-18.5 -238.5q0 -217 28 -287.5 t116 -70.5q53 0 82.5 38.5t29.5 139.5v43h-110v272h436z" glyph-name="Gdotaccent" unicode="Ġ"/><glyph d="M784 1516v-314h-364v314h364zM754 1034l315 -24v-1012q0 -109 -13.5 -175.5t-45 -115.5t-96 -72.5t-153.5 -34t-233 -10.5q-168 0 -307 21l25 250q166 -12 303 -13q96 0 131 26t35 114v67h-13q-61 -74 -188 -73q-201 0 -289 125.5t-88 404.5q0 281 83 404.5t282 123.5 q162 0 217 -120h14zM498 512q0 -164 21.5 -217t86.5 -53q61 0 85 35.5t24 138.5v192q0 100 -23.5 137t-87.5 37q-66 0 -86 -53t-20 -217z" glyph-name="gdotaccent" unicode="ġ"/><glyph d="M1071 776v-770l-291 -24l-20 127h-12q-78 -127 -248 -127q-217 0 -300 171t-83 504q0 201 33.5 331t106.5 199.5t167 95.5t235 26q213 0 330 -41l-26 -305q-129 45 -295 45q-72 0 -107 -25t-53.5 -103.5t-18.5 -238.5q0 -217 28 -287.5t116 -70.5q53 0 82.5 38.5 t29.5 139.5v43h-110v272h436zM420 -348v260h305v-260l-96 -197h-191l82 197h-100z" glyph-name="Gcommaaccent" unicode="Ģ"/><glyph d="M735 1440v-260h-305v260l129 264h191l-115 -264h100zM754 1034l315 -24v-1012q0 -109 -13.5 -175.5t-45 -115.5t-96 -72.5t-153.5 -34t-233 -10.5q-168 0 -307 21l25 250q166 -12 303 -13q96 0 131 26t35 114v67h-13q-61 -74 -188 -73q-201 0 -289 125.5t-88 404.5 q0 281 83 404.5t282 123.5q162 0 217 -120h14zM498 512q0 -164 21.5 -217t86.5 -53q61 0 85 35.5t24 138.5v192q0 100 -23.5 137t-87.5 37q-66 0 -86 -53t-20 -217z" glyph-name="gcommaaccent" unicode="ģ"/><glyph d="M616 1624l-188 -209h-309l284 412h426l287 -412h-311zM711 815v475h368v-1290h-368v528h-193v-528h-368v1290h368v-475h193z" glyph-name="Hcircumflex" unicode="Ĥ"/><glyph d="M526 1513l-188 209l-188 -209h-310l285 412h426l287 -412h-312zM778 1040q178 0 241.5 -85t63.5 -296v-659h-354v639q0 76 -21.5 109.5t-82.5 33.5q-55 0 -83 -30.5t-28 -110.5v-641h-354v1393h354v-467h2q72 114 262 114z" glyph-name="hcircumflex" unicode="ĥ"/><glyph d="M1188 1178v-246h-109v-932h-368v528h-193v-528h-368v932h-109v246h109v112h368v-112h193v112h368v-112h109zM711 815v117h-193v-117h193z" glyph-name="Hbar" unicode="Ħ"/><glyph d="M778 1040q178 0 241.5 -85t63.5 -296v-659h-354v639q0 76 -21.5 109.5t-82.5 33.5q-55 0 -83 -30.5t-28 -110.5v-641h-354v1094h-170v241h170v58h354v-58h320v-241h-320v-168h2q72 114 262 114z" glyph-name="hbar" unicode="ħ"/><glyph d="M461 1499q-61 0 -78 -90h-207q0 158 80 255t213 97q94 0 180 -55l66 -39q39 -25 67 -25q47 0 68 91h205q0 -170 -77 -260.5t-214 -90.5q-102 0 -174 52l-64 45q-30 20 -65 20zM1059 1006h-260v-721h260v-285h-889v285h260v721h-260v284h889v-284z" glyph-name="Itilde" unicode="Ĩ"/><glyph d="M442 1270q-61 0 -77 -90h-207q0 158 79.5 255t213.5 97q94 0 180 -55l65 -39q39 -25 68 -25q47 0 67 90h205q0 -170 -76.5 -260t-214.5 -90q-102 0 -174 51l-63 45q-31 21 -66 21zM862 242h287v-242h-973v242h332v540h-313v242h667v-782z" glyph-name="itilde" unicode="ĩ"/><glyph d="M989 1700v-250h-747v250h747zM1059 1006h-260v-721h260v-285h-889v285h260v721h-260v284h889v-284z" glyph-name="Imacron" unicode="Ī"/><glyph d="M971 1470v-249h-748v249h748zM862 242h287v-242h-973v242h332v540h-313v242h667v-782z" glyph-name="imacron" unicode="ī"/><glyph d="M1059 1006h-260v-721h260v-285h-301q-82 -53 -82 -109q0 -53 52 -74.5t114 -21.5l41 -198q-74 -6 -138 -7q-383 0 -383 228q0 98 103 182h-295v285h260v721h-260v284h889v-284z" glyph-name="Iogonek" unicode="Į"/><glyph d="M864 1401v-291h-354v291h354zM836 0q-82 -53 -82 -109q0 -53 52 -74.5t114 -21.5l41 -198q-74 -6 -138 -7q-383 0 -383 228q0 98 103 182h-367v242h332v540h-313v242h667v-782h287v-242h-313z" glyph-name="iogonek" unicode="į"/><glyph d="M797 1745v-313h-365v313h365zM1059 1006h-260v-721h260v-285h-889v285h260v721h-260v284h889v-284z" glyph-name="Idotaccent" unicode="İ"/><glyph d="M862 242h287v-242h-973v242h332v540h-313v242h667v-782z" glyph-name="dotlessi" unicode="ı"/><glyph d="M659 1624l-188 -209h-309l284 412h426l287 -412h-311zM1067 1290v-975q0 -205 -110.5 -269t-438.5 -64q-129 0 -274 24l26 287q154 -10 203 -10q131 0 178 22.5t47 87.5v613h-379v284h748z" glyph-name="Jcircumflex" unicode="Ĵ"/><glyph d="M633 1395l-189 -209h-309l285 411h426l287 -411h-312zM952 1024v-1016q0 -111 -14 -178.5t-50 -118.5t-108.5 -74.5t-174 -35t-263.5 -11.5q-104 0 -248 21l25 252q133 -14 241 -15q145 0 190.5 29t45.5 121v784h-408v242h764z" glyph-name="jcircumflex" unicode="ĵ"/><glyph d="M518 520v-520h-368v1290h368v-469h86l187 469h378l-284 -604l307 -686h-420l-170 520h-84zM471 -348v260h305v-260l-96 -197h-191l82 197h-100z" glyph-name="Kcommaaccent" unicode="Ķ"/><glyph d="M528 449v-449h-354v1393h354v-719h70l180 350h387l-297 -457l310 -567h-396l-192 449h-62zM498 -348v260h305v-260l-96 -197h-191l82 197h-100z" glyph-name="kcommaaccent" unicode="ķ"/><glyph d="M696 1817l-311 -412h-289l195 412h405zM518 285h598v-285h-966v1290h368v-1005z" glyph-name="Lacute" unicode="Ĺ"/><glyph d="M922 1915l-312 -412h-288l194 412h406zM1100 256l22 -252q-113 -23 -243 -22q-297 0 -401.5 80.5t-104.5 287.5v799h-293v244h647v-1043q0 -66 33 -88t135 -22q78 0 205 16z" glyph-name="lacute" unicode="ĺ"/><glyph d="M518 285h598v-285h-966v1290h368v-1005zM457 -348v260h305v-260l-96 -197h-191l82 197h-100z" glyph-name="Lcommaaccent" unicode="Ļ"/><glyph d="M1122 4q-113 -23 -243 -22q-297 0 -401.5 80.5t-104.5 287.5v799h-293v244h647v-1043q0 -66 33 -88t135 -22q78 0 205 16zM643 -348v260h305v-260l-96 -197h-190l81 197h-100z" glyph-name="lcommaaccent" unicode="ļ"/><glyph d="M924 723h-195l143 360h-98v310h307v-310zM518 285h598v-285h-966v1290h368v-1005z" glyph-name="Lcaron" unicode="Ľ"/><glyph d="M895 240q78 0 205 16l22 -252q-113 -23 -243 -22q-297 0 -401.5 80.5t-104.5 287.5v799h-293v244h647v-1043q0 -66 33 -88t135 -22zM891 1393h307v-310l-158 -360h-194l143 360h-98v310z" glyph-name="lcaron" unicode="ľ"/><glyph d="M518 1290v-1005h598v-285h-966v1290h368zM780 815h353v-348h-353v348z" glyph-name="Ldot" unicode="Ŀ"/><glyph d="M895 240q78 0 205 16l22 -252q-113 -23 -243 -22q-297 0 -401.5 80.5t-104.5 287.5v799h-293v244h647v-1043q0 -66 33 -88t135 -22zM987 883h352v-348h-352v348z" glyph-name="ldot" unicode="ŀ"/><glyph d="M518 285h598v-285h-966v287l-148 -148v350l148 148v653h368v-284l252 251v-350l-252 -252v-370z" glyph-name="Lslash" unicode="Ł"/><glyph d="M1100 256l22 -252q-113 -23 -243 -22q-297 0 -401.5 80.5t-104.5 287.5l-223 -223v338l223 223v461h-293v244h647v-351l186 187v-336l-186 -186v-357q0 -66 33 -88t135 -22q78 0 205 16z" glyph-name="lslash" unicode="ł"/><glyph d="M977 1817l-311 -412h-289l194 412h406zM772 1292h307v-1292h-426l-194 842h-2v-842h-307v1292h428l194 -837v837z" glyph-name="Nacute" unicode="Ń"/><glyph d="M977 1587l-311 -411h-289l194 411h406zM770 1040q178 0 242.5 -86t64.5 -295v-659h-354v639q0 76 -21.5 109.5t-83.5 33.5q-57 0 -84.5 -30.5t-27.5 -110.5v-641h-354v1012l319 26l18 -112h19q72 114 262 114z" glyph-name="nacute" unicode="ń"/><glyph d="M772 1292h307v-1292h-426l-194 842h-2v-842h-307v1292h428l194 -837v837zM459 -348v260h305v-260l-96 -197h-191l82 197h-100z" glyph-name="Ncommaaccent" unicode="Ņ"/><glyph d="M770 1040q178 0 242.5 -86t64.5 -295v-659h-354v639q0 76 -21.5 109.5t-83.5 33.5q-57 0 -84.5 -30.5t-27.5 -110.5v-641h-354v1012l319 26l18 -112h19q72 114 262 114zM459 -348v260h305v-260l-96 -197h-191l82 197h-100z" glyph-name="ncommaaccent" unicode="ņ"/><glyph d="M403 1415l-286 412h311l188 -209l189 209h309l-283 -412h-428zM772 455v837h307v-1292h-426l-194 842h-2v-842h-307v1292h428z" glyph-name="Ncaron" unicode="Ň"/><glyph d="M403 1186l-286 411h311l188 -208l189 208h309l-283 -411h-428zM770 1040q178 0 242.5 -86t64.5 -295v-659h-354v639q0 76 -21.5 109.5t-83.5 33.5q-57 0 -84.5 -30.5t-27.5 -110.5v-641h-354v1012l319 26l18 -112h19q72 114 262 114z" glyph-name="ncaron" unicode="ň"/><glyph d="M242 1700h747v-250h-747v250zM614 -18q-283 0 -390 161.5t-107 501.5q0 258 59.5 406.5t163.5 203t274 54.5q285 0 392.5 -162t107.5 -502q0 -379 -122 -521t-378 -142zM614 283q74 0 100.5 70.5t26.5 291.5q0 217 -24.5 290t-102.5 73q-76 0 -100.5 -70t-24.5 -293 q0 -219 23.5 -290.5t101.5 -71.5z" glyph-name="Omacron" unicode="Ō"/><glyph d="M242 1470h747v-249h-747v249zM614 -18q-258 0 -367.5 123.5t-109.5 406.5q0 274 107.5 401t369.5 127q258 0 368 -123.5t110 -404.5q0 -276 -108 -403t-370 -127zM614 240q72 0 94.5 52t22.5 220q0 166 -21.5 218t-95.5 52q-72 0 -94 -51t-22 -219q0 -166 21 -219t95 -53 z" glyph-name="omacron" unicode="ō"/><glyph d="M614 1421q-193 0 -298 91.5t-105 246.5v45h250v-22q0 -66 37 -86.5t116.5 -20.5t115.5 21.5t36 85.5v22h252v-45q0 -152 -103.5 -245t-300.5 -93zM614 -18q-283 0 -390 161.5t-107 501.5q0 258 59.5 406.5t163.5 203t274 54.5q285 0 392.5 -162t107.5 -502 q0 -379 -122 -521t-378 -142zM614 283q74 0 100.5 70.5t26.5 291.5q0 217 -24.5 290t-102.5 73q-76 0 -100.5 -70t-24.5 -293q0 -219 23.5 -290.5t101.5 -71.5z" glyph-name="Obreve" unicode="Ŏ"/><glyph d="M614 1192q-193 0 -298 91t-105 247v45h250v-23q0 -66 37 -86t116.5 -20t115.5 21.5t36 84.5v23h252v-45q0 -152 -103.5 -245t-300.5 -93zM614 -18q-258 0 -367.5 123.5t-109.5 406.5q0 274 107.5 401t369.5 127q258 0 368 -123.5t110 -404.5q0 -276 -108 -403t-370 -127z M614 240q72 0 94.5 52t22.5 220q0 166 -21.5 218t-95.5 52q-72 0 -94 -51t-22 -219q0 -166 21 -219t95 -53z" glyph-name="obreve" unicode="ŏ"/><glyph d="M258 1423l182 412h404l-312 -412h-274zM772 1423l178 412h404l-310 -412h-272zM614 -18q-283 0 -390 161.5t-107 501.5q0 258 59.5 406.5t163.5 203t274 54.5q285 0 392.5 -162t107.5 -502q0 -379 -122 -521t-378 -142zM614 283q74 0 100.5 70.5t26.5 291.5 q0 217 -24.5 290t-102.5 73q-76 0 -100.5 -70t-24.5 -293q0 -219 23.5 -290.5t101.5 -71.5z" glyph-name="Ohungarumlaut" unicode="Ő"/><glyph d="M258 1194l182 412h404l-312 -412h-274zM772 1194l178 412h404l-310 -412h-272zM614 -18q-258 0 -367.5 123.5t-109.5 406.5q0 274 107.5 401t369.5 127q258 0 368 -123.5t110 -404.5q0 -276 -108 -403t-370 -127zM614 240q72 0 94.5 52t22.5 220q0 166 -21.5 218 t-95.5 52q-72 0 -94 -51t-22 -219q0 -166 21 -219t95 -53z" glyph-name="ohungarumlaut" unicode="ő"/><glyph d="M903 283h297v-283h-584q-72 -18 -157 -18q-135 0 -224.5 42t-136.5 132t-65.5 204.5t-18.5 284.5q0 197 27 327t85 203.5t137 103.5t196 30q90 0 153 -19h572v-282h-281v-197h248v-283h-248v-245zM459 283q47 0 62.5 68.5t15.5 293.5q0 219 -14.5 291t-63.5 72t-64.5 -69 t-15.5 -294q0 -223 14.5 -292.5t65.5 -69.5z" glyph-name="OE" unicode="Œ"/><glyph d="M786 414q4 -100 15.5 -137t42.5 -37q80 0 276 45l39 -240q-190 -63 -323 -63q-121 0 -203 53q-78 -53 -219 -53q-117 0 -194 35.5t-115.5 110.5t-53 163t-14.5 221q0 303 91 416.5t286 113.5q133 0 211 -47q80 47 209 47q213 0 285.5 -125.5t72.5 -404.5q0 -57 -8 -98 h-398zM836 811q-27 0 -37.5 -38t-12.5 -155h93q-2 115 -10 154t-33 39zM414 240q20 0 27.5 42t9.5 167q-2 23 -2 71.5t2 73.5q-2 115 -9.5 152.5t-27.5 37.5q-23 0 -31 -53t-8 -219t7 -219t32 -53z" glyph-name="oe" unicode="œ"/><glyph d="M975 1817l-311 -412h-289l194 412h406zM776 0l-176 465h-82v-465h-368v1290h436q279 0 380 -92t101 -305q0 -229 -156 -342l258 -551h-393zM518 1034v-334h62q74 0 100.5 34t26.5 134q0 96 -26 131t-101 35h-62z" glyph-name="Racute" unicode="Ŕ"/><glyph d="M1063 1587l-311 -411h-289l194 411h406zM1135 1042h45l-31 -313q-90 23 -168 23q-170 0 -237.5 -41t-67.5 -172v-539h-354v782h-238v242h389l152 12l32 -133h19q113 139 459 139z" glyph-name="racute" unicode="ŕ"/><glyph d="M518 465v-465h-368v1290h436q279 0 380 -92t101 -305q0 -229 -156 -342l258 -551h-393l-176 465h-82zM580 1034h-62v-334h62q74 0 100.5 34t26.5 134q0 96 -25.5 131t-101.5 35zM502 -348v260h305v-260l-96 -197h-191l82 197h-100z" glyph-name="Rcommaaccent" unicode="Ŗ"/><glyph d="M1135 1042h45l-31 -313q-90 23 -168 23q-170 0 -237.5 -41t-67.5 -172v-539h-354v782h-238v242h389l152 12l32 -133h19q113 139 459 139zM344 -348v260h305v-260l-96 -197h-191l82 197h-100z" glyph-name="rcommaaccent" unicode="ŗ"/><glyph d="M401 1415l-286 412h311l188 -209l189 209h309l-283 -412h-428zM776 0l-176 465h-82v-465h-368v1290h436q279 0 380 -92t101 -305q0 -229 -156 -342l258 -551h-393zM518 1034v-334h62q74 0 100.5 34t26.5 134q0 96 -26 131t-101 35h-62z" glyph-name="Rcaron" unicode="Ř"/><glyph d="M489 1186l-286 411h311l188 -208l189 208h309l-282 -411h-429zM1135 1042h45l-31 -313q-90 23 -168 23q-170 0 -237.5 -41t-67.5 -172v-539h-354v782h-238v242h389l152 12l32 -133h19q113 139 459 139z" glyph-name="rcaron" unicode="ř"/><glyph d="M705 1405h-289l194 412h406zM543 -18q-188 0 -391 32l24 287q205 -31 334 -31q190 0 190 97q0 49 -73 96l-293 188q-160 98 -160 301q0 205 130 281t384 76q168 0 348 -37l-24 -287q-176 35 -293 35q-96 0 -137 -20.5t-41 -63.5q0 -45 61 -86l283 -180q182 -117 182 -310 q0 -207 -132 -292.5t-392 -85.5z" glyph-name="Sacute" unicode="Ś"/><glyph d="M686 1167h-289l195 412h405zM567 -18q-180 0 -395 30l23 252q203 -25 307 -24q106 0 143 13t37 52q0 20 -12.5 31.5t-51.5 30.5l-303 137q-139 59 -139 237q0 168 122 234.5t345 66.5q166 0 385 -30l-27 -254q-203 27 -299 26q-80 0 -108.5 -13t-28.5 -44 q0 -20 10.5 -29.5t40.5 -23.5l261 -117q102 -47 150 -106.5t48 -153.5q0 -170 -131 -242.5t-377 -72.5z" glyph-name="sacute" unicode="ś"/><glyph d="M653 1624l-188 -209h-309l284 412h426l287 -412h-311zM885 670q182 -117 182 -310q0 -207 -132 -292.5t-392 -85.5q-188 0 -391 32l24 287q205 -31 334 -31q190 0 190 97q0 49 -73 96l-293 188q-160 98 -160 301q0 205 130 281t384 76q168 0 348 -37l-24 -287 q-176 35 -293 35q-96 0 -137 -20.5t-41 -63.5q0 -45 61 -86z" glyph-name="Scircumflex" unicode="Ŝ"/><glyph d="M635 1386l-189 -208h-309l285 411h426l287 -411h-312zM877 557q102 -47 150 -106.5t48 -153.5q0 -170 -131 -242.5t-377 -72.5q-180 0 -395 30l23 252q203 -25 307 -24q106 0 143 13t37 52q0 20 -12.5 31.5t-51.5 30.5l-303 137q-139 59 -139 237q0 168 122 234.5 t345 66.5q166 0 385 -30l-27 -254q-203 27 -299 26q-80 0 -108.5 -13t-28.5 -44q0 -20 10.5 -29.5t40.5 -23.5z" glyph-name="scircumflex" unicode="ŝ"/><glyph d="M1067 360q0 -186 -107.5 -274t-318.5 -102l-12 -64q252 -8 252 -151q0 -92 -88 -135.5t-220 -43.5q-162 0 -251 23l16 131q53 -16 121 -16q47 0 74.5 14t27.5 35q0 14 -1 18t-8 10.5t-22.5 7.5t-46.5 1h-75l26 170q-174 12 -282 30l24 287q205 -31 334 -31q190 0 190 97 q0 49 -73 96l-293 188q-160 98 -160 301q0 205 130 281t384 76q168 0 348 -37l-24 -287q-176 35 -293 35q-96 0 -137 -20.5t-41 -63.5q0 -45 61 -86l283 -180q182 -117 182 -310z" glyph-name="Scedilla" unicode="Ş"/><glyph d="M1075 297q0 -291 -422 -313l-12 -64q252 -8 252 -151q0 -92 -88 -135.5t-219 -43.5q-162 0 -252 23l16 131q53 -16 121 -16q47 0 74.5 14t27.5 35q0 14 -1 18t-8 10.5t-22.5 7.5t-45.5 1h-76l26 172q-141 6 -274 26l23 252q203 -25 307 -24q106 0 143 13t37 52 q0 20 -12.5 31.5t-51.5 30.5l-303 137q-139 59 -139 237q0 168 122 234.5t345 66.5q166 0 385 -30l-27 -254q-203 27 -299 26q-80 0 -108.5 -13t-28.5 -44q0 -20 10.5 -29.5t40.5 -23.5l261 -117q102 -47 150 -106.5t48 -153.5z" glyph-name="scedilla" unicode="ş"/><glyph d="M442 1415l-286 412h311l188 -209l189 209h309l-283 -412h-428zM885 670q182 -117 182 -310q0 -207 -132 -292.5t-392 -85.5q-188 0 -391 32l24 287q205 -31 334 -31q190 0 190 97q0 49 -73 96l-293 188q-160 98 -160 301q0 205 130 281t384 76q168 0 348 -37l-24 -287 q-176 35 -293 35q-96 0 -137 -20.5t-41 -63.5q0 -45 61 -86z" glyph-name="Scaron" unicode="Š"/><glyph d="M424 1178l-287 411h312l188 -209l188 209h310l-283 -411h-428zM877 557q102 -47 150 -106.5t48 -153.5q0 -170 -131 -242.5t-377 -72.5q-180 0 -395 30l23 252q203 -25 307 -24q106 0 143 13t37 52q0 20 -12.5 31.5t-51.5 30.5l-303 137q-139 59 -139 237 q0 168 122 234.5t345 66.5q166 0 385 -30l-27 -254q-203 27 -299 26q-80 0 -108.5 -13t-28.5 -44q0 -20 10.5 -29.5t40.5 -23.5z" glyph-name="scaron" unicode="š"/><glyph d="M403 1415l-286 412h311l188 -209l189 209h309l-283 -412h-428zM1114 1290v-301h-313v-989h-369v989h-317v301h999z" glyph-name="Tcaron" unicode="Ť"/><glyph d="M817 1427h285v-206l-94 -160h-174l75 160h-92v206zM864 240q68 0 142 12l22 -250q-109 -20 -246 -20q-240 0 -327.5 71.5t-87.5 231.5v497h-230v242h230v240h354v-240h301v-242h-301v-436q0 -61 30.5 -83.5t112.5 -22.5z" glyph-name="tcaron" unicode="ť"/><glyph d="M1114 989h-313v-180h237v-285h-237v-524h-369v524h-242v285h242v180h-317v301h999v-301z" glyph-name="Tbar" unicode="Ŧ"/><glyph d="M1006 252l22 -250q-109 -20 -246 -20q-240 0 -327.5 71.5t-87.5 231.5v106h-230v244h230v147h-230v242h230v240h354v-240h301v-242h-301v-147h301v-244h-301v-45q0 -61 30.5 -83.5t112.5 -22.5q68 0 142 12z" glyph-name="tbar" unicode="ŧ"/><glyph d="M764 1382q-102 0 -174 52l-64 45q-31 20 -65 20q-61 0 -78 -90h-207q0 158 80 255t213 97q94 0 180 -55l66 -39q39 -25 67 -25q47 0 68 91h205q0 -170 -77 -260.5t-214 -90.5zM625 -18q-272 0 -377 122.5t-105 378.5v807h369v-823q0 -111 22.5 -147.5t83.5 -36.5 q57 0 78 35.5t21 148.5v823h368v-807q0 -285 -114.5 -393t-345.5 -108z" glyph-name="Utilde" unicode="Ũ"/><glyph d="M461 1270q-61 0 -78 -90h-207q0 158 80 255t213 97q94 0 180 -55l66 -39q39 -25 67 -25q47 0 68 90h205q0 -170 -77 -260t-214 -90q-102 0 -174 51l-64 45q-30 21 -65 21zM723 1024h354v-1012l-319 -26l-19 114h-18q-68 -117 -262 -116q-178 0 -242.5 86t-64.5 295v659 h354v-639q0 -76 22.5 -109.5t81.5 -33.5q57 0 85 30.5t28 110.5v641z" glyph-name="utilde" unicode="ũ"/><glyph d="M242 1700h747v-250h-747v250zM625 -18q-272 0 -377 122.5t-105 378.5v807h369v-823q0 -111 22.5 -147.5t83.5 -36.5q57 0 78 35.5t21 148.5v823h368v-807q0 -285 -114.5 -393t-345.5 -108z" glyph-name="Umacron" unicode="Ū"/><glyph d="M989 1470v-249h-747v249h747zM723 1024h354v-1012l-319 -26l-19 114h-18q-68 -117 -262 -116q-178 0 -242.5 86t-64.5 295v659h354v-639q0 -76 22.5 -109.5t81.5 -33.5q57 0 85 30.5t28 110.5v641z" glyph-name="umacron" unicode="ū"/><glyph d="M614 1421q-193 0 -298 91.5t-105 246.5v45h250v-22q0 -66 37 -86.5t116.5 -20.5t115.5 21.5t36 85.5v22h252v-45q0 -152 -103.5 -245t-300.5 -93zM625 -18q-272 0 -377 122.5t-105 378.5v807h369v-823q0 -111 22.5 -147.5t83.5 -36.5q57 0 78 35.5t21 148.5v823h368v-807 q0 -285 -114.5 -393t-345.5 -108z" glyph-name="Ubreve" unicode="Ŭ"/><glyph d="M614 1192q-193 0 -298 91t-105 247v45h250v-23q0 -66 37 -86t116.5 -20t115.5 21.5t36 84.5v23h252v-45q0 -152 -103.5 -245t-300.5 -93zM723 1024h354v-1012l-319 -26l-19 114h-18q-68 -117 -262 -116q-178 0 -242.5 86t-64.5 295v659h354v-639q0 -76 22.5 -109.5 t81.5 -33.5q57 0 85 30.5t28 110.5v641z" glyph-name="ubreve" unicode="ŭ"/><glyph d="M614 1350q-319 0 -319 268t319 268q315 0 315 -268t-315 -268zM614 1511q125 0 125 107q0 104 -125 104q-127 0 -127 -104q0 -107 127 -107zM625 -18q-272 0 -377 122.5t-105 378.5v807h369v-823q0 -111 22.5 -147.5t83.5 -36.5q57 0 78 35.5t21 148.5v823h368v-807 q0 -285 -114.5 -393t-345.5 -108z" glyph-name="Uring" unicode="Ů"/><glyph d="M614 1120q-319 0 -319 268.5t319 268.5q315 0 315 -268.5t-315 -268.5zM614 1493q-127 0 -127 -104q0 -106 127 -107q125 0 125 107q0 104 -125 104zM723 1024h354v-1012l-319 -26l-19 114h-18q-68 -117 -262 -116q-178 0 -242.5 86t-64.5 295v659h354v-639 q0 -76 22.5 -109.5t81.5 -33.5q57 0 85 30.5t28 110.5v641z" glyph-name="uring" unicode="ů"/><glyph d="M258 1423l182 412h404l-312 -412h-274zM772 1423l178 412h404l-310 -412h-272zM625 -18q-272 0 -377 122.5t-105 378.5v807h369v-823q0 -111 22.5 -147.5t83.5 -36.5q57 0 78 35.5t21 148.5v823h368v-807q0 -285 -114.5 -393t-345.5 -108z" glyph-name="Uhungarumlaut" unicode="Ű"/><glyph d="M844 1606l-312 -412h-274l182 412h404zM1044 1194h-272l178 412h404zM723 383v641h354v-1012l-319 -26l-19 114h-18q-68 -117 -262 -116q-178 0 -242.5 86t-64.5 295v659h354v-639q0 -76 22.5 -109.5t81.5 -33.5q57 0 85 30.5t28 110.5z" glyph-name="uhungarumlaut" unicode="ű"/><glyph d="M717 1290h368v-807q0 -215 -66.5 -327.5t-197.5 -151.5q-90 -57 -90 -113q0 -53 52.5 -74.5t113.5 -21.5l41 -198q-74 -6 -137 -7q-383 0 -383 228q0 92 88 170q-203 27 -283 147.5t-80 347.5v807h369v-823q0 -111 22.5 -147.5t83.5 -36.5q57 0 78 35.5t21 148.5v823z " glyph-name="Uogonek" unicode="Ų"/><glyph d="M1143 -205l41 -198q-74 -6 -137 -7q-383 0 -383 228q0 92 92 174l-17 108h-18q-68 -117 -262 -116q-178 0 -242.5 86t-64.5 295v659h354v-639q0 -76 22.5 -109.5t81.5 -33.5q57 0 85 30.5t28 110.5v641h354v-1012h2q-102 -59 -102 -121q0 -53 52.5 -74.5t113.5 -21.5z " glyph-name="uogonek" unicode="ų"/><glyph d="M614 1624l-188 -209h-309l284 412h426l287 -412h-311zM838 1290h354l-76 -1290h-446l-45 489h-21l-45 -489h-446l-76 1290h354l-16 -979h18l51 488h338l54 -488h18z" glyph-name="Wcircumflex" unicode="Ŵ"/><glyph d="M614 1395l-188 -209h-309l284 411h426l287 -411h-311zM909 1024h332l-111 -1024h-471l-38 451h-11l-39 -451h-469l-114 1024h334l30 -776h31l41 452h381l43 -452h29z" glyph-name="wcircumflex" unicode="ŵ"/><glyph d="M621 1624l-189 -209h-309l285 412h426l286 -412h-311zM1178 1290l-383 -856v-434h-371v446l-373 844h383l170 -520h19l176 520h379z" glyph-name="Ycircumflex" unicode="Ŷ"/><glyph d="M614 1395l-188 -209h-309l284 411h426l287 -411h-311zM774 1024h371l-291 -1096q-51 -188 -163.5 -263t-297.5 -75q-109 0 -219 25l21 242q117 -18 188 -19q94 0 136 28t59 120l2 10l-228 4l-266 1024h371l143 -778h27z" glyph-name="ycircumflex" unicode="ŷ"/><glyph d="M557 1745v-313h-362v313h362zM1049 1745v-313h-363v313h363zM1178 1290l-383 -856v-434h-371v446l-373 844h383l170 -520h19l176 520h379z" glyph-name="Ydieresis" unicode="Ÿ"/><glyph d="M977 1817l-311 -412h-289l194 412h406zM215 1290h887v-329l-580 -650v-26h563v-285h-940v336l580 657v13h-510v284z" glyph-name="Zacute" unicode="Ź"/><glyph d="M977 1587l-311 -411h-289l194 411h406zM506 244h573v-244h-936v289l555 473v18h-518v244h875v-289l-549 -489v-2z" glyph-name="zacute" unicode="ź"/><glyph d="M797 1745v-313h-365v313h365zM215 1290h887v-329l-580 -650v-26h563v-285h-940v336l580 657v13h-510v284z" glyph-name="Zdotaccent" unicode="Ż"/><glyph d="M797 1516v-314h-365v314h365zM506 244h573v-244h-936v289l555 473v18h-518v244h875v-289l-549 -489v-2z" glyph-name="zdotaccent" unicode="ż"/><glyph d="M403 1415l-286 412h311l188 -209l189 209h309l-283 -412h-428zM215 1006v284h887v-329l-580 -650v-26h563v-285h-940v336l580 657v13h-510z" glyph-name="Zcaron" unicode="Ž"/><glyph d="M403 1186l-286 411h311l188 -208l189 208h309l-283 -411h-428zM506 246v-2h573v-244h-936v289l555 473v18h-518v244h875v-289z" glyph-name="zcaron" unicode="ž"/><glyph d="M866 1151q-104 0 -139 -35t-35 -137v-162h281v-229h-281v-649q0 -195 -91 -262.5t-320 -67.5q-111 0 -179 12l25 240q10 -2 66 -2q90 0 119.5 28.5t29.5 114.5v586h-229v229h229v217q0 207 99.5 285t357.5 78q145 0 231 -19l-22 -239q-68 12 -142 12z" glyph-name="florin" unicode="ƒ"/><glyph d="M885 670q182 -117 182 -310q0 -207 -132 -292.5t-392 -85.5q-188 0 -391 32l24 287q205 -31 334 -31q190 0 190 97q0 49 -73 96l-293 188q-160 98 -160 301q0 205 130 281t384 76q168 0 348 -37l-24 -287q-176 35 -293 35q-96 0 -137 -20.5t-41 -63.5q0 -45 61 -86z M420 -348v260h305v-260l-96 -197h-191l82 197h-100z" glyph-name="Scommaaccent" unicode="Ș"/><glyph d="M877 557q102 -47 150 -106.5t48 -153.5q0 -170 -131 -242.5t-377 -72.5q-180 0 -395 30l23 252q203 -25 307 -24q106 0 143 13t37 52q0 20 -12.5 31.5t-51.5 30.5l-303 137q-139 59 -139 237q0 168 122 234.5t345 66.5q166 0 385 -30l-27 -254q-203 27 -299 26 q-80 0 -108.5 -13t-28.5 -44q0 -20 10.5 -29.5t40.5 -23.5zM432 -348v260h305v-260l-96 -197h-190l81 197h-100z" glyph-name="scommaaccent" unicode="ș"/><glyph d="M1114 1290v-301h-313v-989h-369v989h-317v301h999zM457 -348v260h305v-260l-96 -197h-191l82 197h-100z" glyph-name="uni021A" unicode="Ț"/><glyph d="M1028 2q-109 -20 -246 -20q-240 0 -327.5 71.5t-87.5 231.5v497h-230v242h230v240h354v-240h301v-242h-301v-436q0 -61 30.5 -83.5t112.5 -22.5q68 0 142 12zM604 -348v260h305v-260l-96 -197h-190l82 197h-101z" glyph-name="uni021B" unicode="ț"/><glyph d="M952 1024v-1016q0 -111 -14 -178.5t-50 -118.5t-108.5 -74.5t-174 -35t-263.5 -11.5q-104 0 -248 21l25 252q133 -14 241 -15q145 0 190.5 29t45.5 121v784h-408v242h764z" glyph-name="uni0237" unicode="ȷ"/><glyph d="M772 1393l-43 -537h-229l-43 537h315z" glyph-name="uni02B9" unicode="ʹ"/><glyph d="M543 1393l-43 -537h-230l-43 537h316zM1001 1393l-43 -537h-229l-43 537h315z" glyph-name="uni02BA" unicode="ʺ"/><glyph d="M1114 1186h-311l-189 209l-188 -209h-309l284 411h426z" glyph-name="circumflex" unicode="ˆ"/><glyph d="M805 1597h309l-283 -411h-428l-286 411h311l188 -208z" glyph-name="caron" unicode="ˇ"/><glyph d="M614 1192q-193 0 -298 91t-105 247v45h250v-23q0 -66 37 -86t116.5 -20t115.5 21.5t36 84.5v23h252v-45q0 -152 -103.5 -245t-300.5 -93z" glyph-name="breve" unicode="˘"/><glyph d="M432 1516h365v-314h-365v314z" glyph-name="dotaccent" unicode="˙"/><glyph d="M614 1120q-319 0 -319 268.5t319 268.5q315 0 315 -268.5t-315 -268.5zM614 1282q125 0 125 107q0 104 -125 104q-127 0 -127 -104q0 -107 127 -107z" glyph-name="ring" unicode="˚"/><glyph d="M745 -410q-383 0 -383 228q0 117 156 221l260 -27q-102 -59 -102 -121q0 -53 52 -74.5t114 -21.5l41 -198q-75 -7 -138 -7z" glyph-name="ogonek" unicode="˛"/><glyph d="M764 1153q-102 0 -174 51l-64 45q-31 20 -65 21q-61 0 -78 -90h-207q0 158 80 255t213 97q94 0 180 -55l66 -39q39 -25 67 -25q47 0 68 90h205q0 -170 -77 -260t-214 -90z" glyph-name="tilde" unicode="˜"/><glyph d="M258 1194l182 412h404l-312 -412h-274zM772 1194l178 412h404l-310 -412h-272z" glyph-name="hungarumlaut" unicode="˝"/><glyph d="M-51 1176l-311 411h407l193 -411h-289z" glyph-name="gravecomb" horiz-adv-x="0" unicode="̀"/><glyph d="M51 1176h-289l195 411h405z" glyph-name="acutecomb" horiz-adv-x="0" unicode="́"/><glyph d="M500 1186h-312l-188 209l-188 -209h-310l285 411h426z" glyph-name="uni0302" horiz-adv-x="0" unicode="̂"/><glyph d="M150 1153q-102 0 -175 51l-63 45q-31 20 -66 21q-61 0 -77 -90h-207q0 158 79.5 255t213.5 97q94 0 180 -55l65 -39q39 -25 68 -25q47 0 68 90h204q0 -170 -76.5 -260t-213.5 -90z" glyph-name="tildecomb" horiz-adv-x="0" unicode="̃"/><glyph d="M-373 1470h748v-249h-748v249z" glyph-name="uni0304" horiz-adv-x="0" unicode="̄"/><glyph d="M0 1192q-193 0 -298 91t-105 247v45h249v-23q0 -66 37 -86t117 -20t116 21.5t36 84.5v23h251v-45q0 -152 -103 -245t-300 -93z" glyph-name="uni0306" horiz-adv-x="0" unicode="̆"/><glyph d="M-182 1516h364v-314h-364v314z" glyph-name="uni0307" horiz-adv-x="0" unicode="̇"/><glyph d="M-426 1516h363v-314h-363v314zM66 1516h362v-314h-362v314z" glyph-name="uni0308" horiz-adv-x="0" unicode="̈"/><glyph d="M0 1120q-319 0 -319 268.5t319 268.5q315 0 315 -268.5t-315 -268.5zM0 1282q125 0 125 107q0 104 -125 104q-127 0 -127 -104q0 -107 127 -107z" glyph-name="uni030A" horiz-adv-x="0" unicode="̊"/><glyph d="M-356 1194l182 412h403l-311 -412h-274zM158 1194l178 412h403l-309 -412h-272z" glyph-name="uni030B" horiz-adv-x="0" unicode="̋"/><glyph d="M190 1597h310l-283 -411h-428l-287 411h312l188 -208z" glyph-name="uni030C" horiz-adv-x="0" unicode="̌"/><glyph d="M-158 1194h-272l-309 412h403zM356 1194h-274l-311 412h403z" glyph-name="uni030F" horiz-adv-x="0" unicode="̏"/><glyph d="M0 1575q197 0 300 -93t103 -243v-47h-251v22q0 63 -37 86t-115 23q-80 0 -117 -20.5t-37 -88.5v-22h-249v47q0 154 105 245t298 91z" glyph-name="uni0311" horiz-adv-x="0" unicode="̑"/><glyph d="M147 1704l-114 -264h100v-260h-305v260l129 264h190z" glyph-name="uni0312" horiz-adv-x="0" unicode="̒"/><glyph d="M-182 -121h364v-313h-364v313z" glyph-name="dotbelowcomb" horiz-adv-x="0" unicode="̣"/><glyph d="M-156 -88h306v-260l-97 -197h-190l82 197h-101v260z" glyph-name="uni0326" horiz-adv-x="0" unicode="̦"/><glyph d="M53 -80q252 -8 252 -151q0 -92 -88 -135.5t-219 -43.5q-162 0 -252 23l16 131q53 -16 121 -16q47 0 75 14t28 35q0 14 -1 18t-8.5 10.5t-22.5 7.5t-46 1h-76l31 198h207z" glyph-name="uni0327" horiz-adv-x="0" unicode="̧"/><glyph d="M131 -410q-383 0 -383 228q0 117 156 221l260 -27q-102 -59 -103 -121q0 -53 52.5 -74.5t113.5 -21.5l41 -198q-74 -7 -137 -7z" glyph-name="uni0328" horiz-adv-x="0" unicode="̨"/><glyph d="M893 1290l274 -1075v-215h-1106v215l275 1075h557zM797 285l-148 721h-71l-164 -721h383z" glyph-name="Delta" unicode="Δ"/><glyph d="M1038 272h117v-272h-489v225l18 6q35 31 46 127.5t11 300.5q0 211 -25.5 280t-99.5 69q-78 0 -102.5 -71t-24.5 -278q0 -375 60 -428l16 -6v-225h-489v272h114v43q-74 133 -73 359q0 319 108.5 477t390.5 158q170 0 274.5 -53.5t164 -194.5t59.5 -387q0 -229 -76 -361 v-41z" glyph-name="Omega" unicode="Ω"/><glyph d="M723 1024h354v-1012l-319 -26l-19 114h-14q-59 -115 -166 -114q-20 0 -53 4v-379h-354v1413h354v-662q0 -92 20.5 -118.5t83.5 -26.5q57 0 85 32t28 111v664z" glyph-name="mu" unicode="μ"/><glyph d="M1208 780h-147v-467q0 -59 41 -59q33 0 74 10l26 -248q-121 -37 -252 -36q-150 0 -196.5 85t-46.5 291v424h-185v-780h-354v780h-160v123l254 121h946v-244z" glyph-name="pi" unicode="π"/><glyph d="M852 1405h-289l-311 412h407zM838 1290h354l-76 -1290h-446l-45 489h-21l-45 -489h-446l-76 1290h354l-16 -979h18l51 488h338l54 -488h18z" glyph-name="Wgrave" unicode="Ẁ"/><glyph d="M852 1176h-289l-311 411h407zM909 1024h332l-111 -1024h-471l-38 451h-11l-39 -451h-469l-114 1024h334l30 -776h31l41 452h381l43 -452h29z" glyph-name="wgrave" unicode="ẁ"/><glyph d="M977 1817l-311 -412h-289l194 412h406zM838 1290h354l-76 -1290h-446l-45 489h-21l-45 -489h-446l-76 1290h354l-16 -979h18l51 488h338l54 -488h18z" glyph-name="Wacute" unicode="Ẃ"/><glyph d="M977 1587l-311 -411h-289l194 411h406zM909 1024h332l-111 -1024h-471l-38 451h-11l-39 -451h-469l-114 1024h334l30 -776h31l41 452h381l43 -452h29z" glyph-name="wacute" unicode="ẃ"/><glyph d="M551 1745v-313h-363v313h363zM1042 1745v-313h-362v313h362zM838 1290h354l-76 -1290h-446l-45 489h-21l-45 -489h-446l-76 1290h354l-16 -979h18l51 488h338l54 -488h18z" glyph-name="Wdieresis" unicode="Ẅ"/><glyph d="M551 1516v-314h-363v314h363zM1042 1516v-314h-362v314h362zM909 1024h332l-111 -1024h-471l-38 451h-11l-39 -451h-469l-114 1024h334l30 -776h31l41 452h381l43 -452h29z" glyph-name="wdieresis" unicode="ẅ"/><glyph d="M965 690q84 -82 118.5 -154.5t34.5 -175.5q0 -379 -379 -378q-106 0 -164 14l25 287q43 -10 88 -11q82 0 82 90q0 66 -37 103l-133 123v192l94 219q-27 18 -84 19q-53 0 -72.5 -22.5t-19.5 -84.5v-911h-368v948q0 199 106 281t360 82q217 0 385 -76v-266l-75 -166v-74z " glyph-name="uni1E9E" unicode="ẞ"/><glyph d="M858 1405h-289l-311 412h408zM1178 1290l-383 -856v-434h-371v446l-373 844h383l170 -520h19l176 520h379z" glyph-name="Ygrave" unicode="Ỳ"/><glyph d="M852 1176h-289l-311 411h407zM774 1024h371l-291 -1096q-51 -188 -163.5 -263t-297.5 -75q-109 0 -219 25l21 242q117 -18 188 -19q94 0 136 28t59 120l2 10l-228 4l-266 1024h371l143 -778h27z" glyph-name="ygrave" unicode="ỳ"/><glyph d="M166 641h895v-272h-895v272z" glyph-name="endash" unicode="–"/><glyph d="M-6 641h1241v-272h-1241v272z" glyph-name="emdash" unicode="—"/><glyph d="M844 1421l-162 -411h111v-348h-349v348l183 411h217z" glyph-name="quoteleft" unicode="‘"/><glyph d="M438 1393h350v-349l-182 -411h-217l162 411h-113v349z" glyph-name="quoteright" unicode="’"/><glyph d="M438 348h350v-348l-182 -412h-217l162 412h-113v348z" glyph-name="quotesinglbase" unicode="‚"/><glyph d="M350 1421h217l-161 -411h110v-348h-348v348zM1118 1421l-162 -411h111v-348h-348v348l182 411h217z" glyph-name="quotedblleft" unicode="“"/><glyph d="M190 1044v349h351v-349l-183 -411h-217l162 411h-113zM739 1393h351v-349l-183 -411h-217l162 411h-113v349z" glyph-name="quotedblright" unicode="”"/><glyph d="M190 0v348h351v-348l-183 -412h-217l162 412h-113zM739 348h351v-348l-183 -412h-217l162 412h-113v348z" glyph-name="quotedblbase" unicode="„"/><glyph d="M1137 891v-297h-357v-983h-331v983h-357v297h357v399h331v-399h357z" glyph-name="dagger" unicode="†"/><glyph d="M1137 594h-357v-287h357v-297h-357v-399h-331v399h-357v297h357v287h-357v297h357v399h331v-399h357v-297z" glyph-name="daggerdbl" unicode="‡"/><glyph d="M614 367q-135 0 -232 98t-97 233q0 137 96 233.5t233.5 96.5t234.5 -96t97 -234q0 -135 -97.5 -233t-234.5 -98z" glyph-name="bullet" unicode="•"/><glyph d="M55 0v295h299v-295h-299zM465 0v295h299v-295h-299zM874 0v295h300v-295h-300z" glyph-name="ellipsis" unicode="…"/><glyph d="M188 672q-106 0 -147 77.5t-41 237.5q0 182 46 252t140 70q109 0 148 -76t39 -238q0 -186 -45.5 -254.5t-139.5 -68.5zM47 0l551 1290h174l-545 -1290h-180zM186 819q14 0 15 170q0 125 -2 148.5t-13 23.5q-16 0 -16 -172q0 -59 1 -93t3 -51.5t4 -21.5t8 -4zM641 -18 q-106 0 -148 76.5t-42 236.5q0 184 46 253.5t142 69.5q106 0 146 -76.5t40 -236.5q0 -184 -46 -253.5t-138 -69.5zM1038 -18q-106 0 -145 76.5t-39 236.5q0 186 45 254.5t141 68.5q104 0 145.5 -76.5t41.5 -236.5q0 -186 -46.5 -254.5t-142.5 -68.5zM639 129q18 0 18 172 q0 61 -1 94t-3 50.5t-5 21.5t-9 4q-14 0 -14 -170v-95t2 -50.5t4 -22.5t8 -4zM1038 129q20 0 21 172q0 170 -19 170q-12 0 -12 -170q0 -125 1 -148.5t9 -23.5z" glyph-name="perthousand" unicode="‰"/><glyph d="M369 352v307l491 340v-256l-287 -237l287 -240v-258z" glyph-name="guilsinglleft" unicode="‹"/><glyph d="M860 352l-491 -344v258l286 240l-286 237v256l491 -340v-307z" glyph-name="guilsinglright" unicode="›"/><glyph d="M217 465l-53 491v334h358v-334l-51 -491h-254zM758 465l-53 491v334h358v-334l-51 -491h-254zM168 0v348h352v-348h-352zM709 0v348h352v-348h-352z" glyph-name="exclamdbl" unicode="‼"/><glyph d="M371 -2l293 1255h194l-293 -1255h-194z" glyph-name="fraction" unicode="⁄"/><glyph d="M770 1403q160 0 217 -64.5t57 -224.5v-506h-309v488q0 43 -31.5 67.5t-82.5 24.5q-123 0 -123 -88v-492h-310v770l279 23l16 -82h35q78 84 252 84z" glyph-name="uni207F" unicode="ⁿ"/><glyph d="M1169 670q27 -82 27 -166q0 -233 -221 -368.5t-629 -135.5h-176v459l-147 -53v192l147 53v97l-147 -54v193l147 53v350h369v-215l325 119v-190l-325 -119v-99l325 119v-192l-325 -119v-299q66 8 114.5 20.5t103 38t83 71.5t28.5 112q0 43 -6 67z" glyph-name="lira" unicode="₤"/><glyph d="M1157 1059h-170q8 -31 12 -66h158v-231h-168q-33 -133 -139 -211l258 -551h-393l-176 465h-252v231h231q90 0 115 66h-344v231h342q-25 66 -113 66h-229v231h868v-231z" glyph-name="uni20A8" unicode="₨"/><glyph d="M997 322l50 -291q-115 -49 -299 -49q-258 0 -378 109.5t-149 336.5h-131v178h119v31v61h-119v179h133q37 244 161 338t357 94q170 0 285 -45l-29 -293q-94 37 -213 37q-80 0 -119.5 -28t-56.5 -103h314v-179h-332v-53v-39h272v-178h-260q16 -84 57 -114.5t125 -30.5 q127 0 213 39z" glyph-name="Euro" unicode="€"/><glyph d="M856 240q111 0 227 22l37 -252q-143 -29 -280 -28q-244 0 -357.5 68.5t-138.5 211.5q-51 -20 -149 -57l-89 237q115 39 228 90v398q0 244 123 367.5t305 123.5q166 0 262 -80.5t96 -234.5q0 -381 -432 -664v-51q0 -74 37 -112.5t131 -38.5zM762 1165q-37 0 -55.5 -29.5 t-18.5 -127.5v-232q131 147 131 316q0 33 -15 53t-42 20z" glyph-name="afii61289" unicode="ℓ"/><glyph d="M1004 555q-131 0 -180.5 94t-49.5 279q0 207 60.5 289.5t169.5 82.5q127 0 178 -95t51 -277q0 -207 -59 -290t-170 -83zM465 508v782h274v-1290h-340l-135 788v-788h-272v1290h344zM1004 1098q-18 0 -22.5 -31t-4.5 -139q0 -111 4 -140.5t23 -29.5q16 0 21 31.5t5 138.5 q1 170 -26 170zM774 274v201h459v-201h-459z" glyph-name="afii61352" unicode="№"/><glyph d="M438 1290v-143h-108v-504h-183v504h-112v143h403zM1069 1290v-647h-162v395l-57 -227v-16h-143v8l-60 231v-391h-164v647h213l80 -311l80 311h213z" glyph-name="trademark" unicode="™"/><glyph d="M1038 272h117v-272h-489v225l18 6q35 31 46 127.5t11 300.5q0 211 -25.5 280t-99.5 69q-78 0 -102.5 -71t-24.5 -278q0 -375 60 -428l16 -6v-225h-489v272h114v43q-74 133 -73 359q0 319 108.5 477t390.5 158q170 0 274.5 -53.5t164 -194.5t59.5 -387q0 -229 -76 -361 v-41z" glyph-name="uni2126" unicode="Ω"/><glyph d="M682 1255h192l-294 -1257h-191zM473 625v-199h-453v199h113v422l-100 -35l-33 194l133 47h242v-628h98zM784 827h445v-206l-193 -621h-235l186 578v51h-203v198z" glyph-name="uni2150" unicode="⅐"/><glyph d="M670 1255h192l-293 -1257h-192zM473 625v-199h-453v199h113v422l-100 -35l-33 194l133 47h242v-628h98zM975 840q150 0 205 -64.5t55 -210.5q0 -309 -184 -565h-256q106 166 161 299q-25 -4 -43 -4q-84 0 -137 63.5t-53 202.5q0 160 59.5 219.5t192.5 59.5zM981 641 q-27 0 -27 -90q0 -82 25 -82q27 0 27 84q0 88 -25 88z" glyph-name="uni2151" unicode="⅑"/><glyph d="M682 1255h192l-294 -1257h-191zM473 625v-199h-453v199h113v422l-100 -35l-33 194l133 47h242v-628h98zM1143 436q74 -37 74 -176q0 -154 -65 -213t-194 -59q-113 0 -184 30l17 207q74 -33 139 -32q41 0 41 71q0 76 -37 76h-72v180h64q29 0 28 62q0 41 -5 52t-25 11 q-49 0 -117 -22l-14 192q82 27 153 27q256 0 256 -228q0 -121 -59 -168v-10z" glyph-name="onethird" unicode="⅓"/><glyph d="M471 625v-199h-455v166v2q0 57 2 85t18.5 67.5t51.5 78.5l125 150q20 29 20 53q0 37 -34 37q-39 0 -119 -14l-14 198q111 18 182 19q88 0 155.5 -57.5t67.5 -170.5q0 -53 -18.5 -92t-59.5 -94l-67 -98q-27 -35 -35 -48.5t-17.5 -35t-9.5 -47.5h207zM682 1255h192 l-294 -1257h-191zM1143 436q74 -37 74 -176q0 -154 -65 -213t-194 -59q-113 0 -184 30l17 207q74 -33 139 -32q41 0 41 71q0 76 -37 76h-72v180h64q29 0 28 62q0 41 -5 52t-25 11q-49 0 -117 -22l-14 192q82 27 153 27q256 0 256 -228q0 -121 -59 -168v-10z" glyph-name="twothirds" unicode="⅔"/><glyph d="M682 1255h192l-294 -1257h-191zM473 625v-199h-453v199h113v422l-100 -35l-33 194l133 47h242v-628h98zM1022 532q129 0 174 -61t45 -199q0 -160 -72.5 -222t-210.5 -62q-115 0 -190 30l12 209q63 -25 162 -24q51 0 51 69q0 72 -26 72h-174l12 483h418v-198h-222l-2 -97 h23z" glyph-name="uni2155" unicode="⅕"/><glyph d="M471 625v-199h-455v166v2q0 57 2 85t18.5 67.5t51.5 78.5l125 150q20 29 20 53q0 37 -34 37q-39 0 -119 -14l-14 198q111 18 182 19q88 0 155.5 -57.5t67.5 -170.5q0 -53 -18.5 -92t-59.5 -94l-67 -98q-27 -35 -35 -48.5t-17.5 -35t-9.5 -47.5h207zM682 1255h192 l-294 -1257h-191zM1016 532q129 0 175 -61t46 -199q0 -160 -73.5 -222t-209.5 -62q-115 0 -190 30l10 209q63 -25 164 -24q51 0 51 69q0 72 -28 72h-175l13 483h418v-198h-220l-4 -97h23z" glyph-name="uni2156" unicode="⅖"/><glyph d="M471 688q0 -154 -65.5 -214t-192.5 -60q-106 0 -184 30l16 207q68 -31 139 -30q41 0 41 69q0 76 -37 76h-71v180h63q29 0 29 62q0 41 -5 52t-26 11q-49 0 -117 -22l-14 192q82 27 154 27q256 0 256 -228q0 -119 -60 -166v-10q74 -39 74 -176zM682 1255h192l-294 -1257 h-191zM1016 532q131 0 176 -61t45 -199q0 -160 -73.5 -222t-209.5 -62q-115 0 -190 30l10 209q63 -25 164 -24q51 0 51 69q0 72 -28 72h-175l13 483h418v-198h-220l-4 -97h23z" glyph-name="uni2157" unicode="⅗"/><glyph d="M686 1255h193l-293 -1257h-193zM457 426h-201v133h-262v225l115 469h206l-96 -409v-82h37v205h201v-205h45v-203h-45v-133zM1016 532q131 0 176 -61t45 -199q0 -160 -73.5 -222t-209.5 -62q-115 0 -190 30l10 209q63 -25 164 -24q51 0 51 69q0 72 -28 72h-175l13 483h418 v-198h-220l-4 -97h23z" glyph-name="uni2158" unicode="⅘"/><glyph d="M682 1255h192l-294 -1257h-191zM473 625v-199h-453v199h113v422l-100 -35l-33 194l133 47h242v-628h98zM1024 532q84 0 136 -63t52 -203q0 -160 -58 -219t-193 -59q-150 0 -205.5 64.5t-55.5 209.5q0 309 185 565h256q-106 -166 -162 -299q25 4 45 4zM956 186 q16 0 21.5 19.5t5.5 70.5q0 82 -25 82q-27 0 -26 -84q-1 -88 24 -88z" glyph-name="uni2159" unicode="⅙"/><glyph d="M682 1255h192l-294 -1257h-191zM494 698q0 -160 -73 -222t-210 -62q-113 0 -191 30l13 209q63 -25 162 -24q51 0 51 69q0 72 -27 72h-174l12 483h418v-198h-219l-4 -97h22q129 0 174.5 -61.5t45.5 -198.5zM1024 532q84 0 136 -63t52 -203q0 -160 -58 -219t-193 -59 q-150 0 -205.5 64.5t-55.5 209.5q0 309 185 565h256q-106 -166 -162 -299q25 4 45 4zM956 186q16 0 21.5 19.5t5.5 70.5q0 82 -25 82q-27 0 -26 -84q-1 -88 24 -88z" glyph-name="uni215A" unicode="⅚"/><glyph d="M670 1255h192l-293 -1257h-192zM473 625v-199h-453v199h113v422l-100 -35l-33 194l133 47h242v-628h98zM1126 430q111 -43 111 -197q0 -141 -62.5 -193t-197.5 -52q-152 0 -207 60.5t-55 184.5q0 158 108 199v4q-88 45 -88 180q0 129 60.5 177.5t181.5 48.5 q135 0 187.5 -58.5t52.5 -171.5q0 -131 -91 -176v-6zM956 588q0 -51 2.5 -63.5t18.5 -12.5q14 0 14 76v24v22.5t-1 13.5t-4 7t-9 2q-14 0 -17.5 -13t-3.5 -56zM977 172q27 0 27 76q0 47 -5.5 63.5t-21.5 16.5q-18 0 -24.5 -16.5t-6.5 -63.5t5.5 -61.5t25.5 -14.5z" glyph-name="oneeighth" unicode="⅛"/><glyph d="M471 688q0 -154 -65.5 -214t-192.5 -60q-106 0 -184 30l16 207q68 -31 139 -30q41 0 41 69q0 76 -37 76h-71v180h63q29 0 29 62q0 41 -5 52t-26 11q-49 0 -117 -22l-14 192q82 27 154 27q256 0 256 -228q0 -119 -60 -166v-10q74 -39 74 -176zM664 1255h192l-293 -1257 h-192zM1126 430q111 -43 111 -197q0 -141 -62.5 -193t-197.5 -52q-152 0 -207 60.5t-55 184.5q0 158 108 199v4q-88 45 -88 180q0 129 60.5 177.5t181.5 48.5q135 0 187.5 -58.5t52.5 -171.5q0 -131 -91 -176v-6zM956 588q0 -51 2.5 -63.5t18.5 -12.5q14 0 14 76v24v22.5 t-1 13.5t-4 7t-9 2q-14 0 -17.5 -13t-3.5 -56zM977 172q27 0 27 76q0 47 -5.5 63.5t-21.5 16.5q-18 0 -24.5 -16.5t-6.5 -63.5t5.5 -61.5t25.5 -14.5z" glyph-name="threeeighths" unicode="⅜"/><glyph d="M659 1255h193l-293 -1257h-192zM494 698q0 -160 -73 -222t-210 -62q-113 0 -191 30l13 209q63 -25 162 -24q51 0 51 69q0 72 -27 72h-174l12 483h418v-198h-219l-4 -97h22q129 0 174.5 -61.5t45.5 -198.5zM1126 430q111 -43 111 -197q0 -141 -62.5 -193t-197.5 -52 q-152 0 -207 60.5t-55 184.5q0 158 108 199v4q-88 45 -88 180q0 129 60.5 177.5t181.5 48.5q135 0 187.5 -58.5t52.5 -171.5q0 -131 -91 -176v-6zM956 588q0 -51 2.5 -63.5t18.5 -12.5q14 0 14 76v24v22.5t-1 13.5t-4 7t-9 2q-14 0 -17.5 -13t-3.5 -56zM977 172q27 0 27 76 q0 47 -5.5 63.5t-21.5 16.5q-18 0 -24.5 -16.5t-6.5 -63.5t5.5 -61.5t25.5 -14.5z" glyph-name="fiveeighths" unicode="⅝"/><glyph d="M633 1255h192l-293 -1257h-192zM475 1047l-192 -621h-236l189 592h-3v37h-202v198h444v-206zM1126 430q111 -43 111 -197q0 -141 -62.5 -193t-197.5 -52q-152 0 -207 60.5t-55 184.5q0 158 108 199v4q-88 45 -88 180q0 129 60.5 177.5t181.5 48.5q135 0 187.5 -58.5 t52.5 -171.5q0 -131 -91 -176v-6zM956 588q0 -51 2.5 -63.5t18.5 -12.5q14 0 14 76v24v22.5t-1 13.5t-4 7t-9 2q-14 0 -17.5 -13t-3.5 -56zM977 172q27 0 27 76q0 47 -5.5 63.5t-21.5 16.5q-18 0 -24.5 -16.5t-6.5 -63.5t5.5 -61.5t25.5 -14.5z" glyph-name="seveneighths" unicode="⅞"/><glyph d="M578 1421q258 0 407.5 -177t149.5 -531q0 -319 -149.5 -525t-393.5 -206q-233 0 -365.5 115.5t-132.5 310.5q0 178 127 292.5t318 114.5q125 0 252 -55q-8 188 -67.5 284.5t-148.5 96.5q-84 0 -169 -80l-205 223q55 41 97 66.5t118 48t162 22.5zM592 266q117 0 170 203 q-84 61 -205 61q-55 0 -87 -32.5t-32 -89.5q0 -61 41 -101.5t113 -40.5z" glyph-name="partialdiff" unicode="∂"/><glyph d="M1210 1006l-137 -138q96 -141 96 -317q0 -231 -160.5 -391t-394.5 -160q-172 0 -315 94l-137 -137l-142 141l138 138q-96 141 -97 315q0 231 161 393t392 162q176 0 318 -96l137 137zM319 551q0 -68 29 -125l393 393q-61 29 -127 29q-121 0 -208 -87t-87 -210zM911 551 q0 66 -28 127l-391 -391q59 -27 122 -27q123 0 210 84t87 207z" glyph-name="emptyset" unicode="∅"/><glyph d="M893 1290l274 -1075v-215h-1106v215l275 1075h557zM797 285l-148 721h-71l-164 -721h383z" glyph-name="uni2206" unicode="∆"/><glyph d="M1161 1360v-1639h-368v1326h-357v-1326h-368v1639h1093z" glyph-name="product" unicode="∏"/><glyph d="M113 -279v189l397 633l-375 628v189h944v-309h-438l303 -508l-319 -512h489v-310h-1001z" glyph-name="summation" unicode="∑"/><glyph d="M166 641h895v-272h-895v272z" glyph-name="minus" unicode="−"/><glyph d="M111 -125l735 1518h272l-731 -1518h-276z" glyph-name="uni2215" unicode="∕"/><glyph d="M506 -279l-256 764l-156 -69l-100 233l457 203l77 -231l105 -418l76 413l239 979h320l-469 -1874h-293z" glyph-name="radical" unicode="√"/><glyph d="M838 829q129 0 210.5 -95t81.5 -236q0 -137 -83.5 -228.5t-206.5 -91.5q-133 0 -228 101q-86 -100 -213 -101q-139 0 -218 89t-79 230.5t81 236.5t210 95q123 0 219 -114q89 114 226 114zM399 406q29 0 84 92q-53 104 -90 104q-49 0 -49 -104q0 -92 55 -92zM840 406 q47 0 47 92q0 49 -14.5 76.5t-34.5 27.5q-27 0 -88 -104q61 -92 90 -92z" glyph-name="infinity" unicode="∞"/><glyph d="M416 -410q-147 0 -275 58l99 233q68 -27 122 -26q98 0 99 106v1104q0 158 99 257t253 99q147 0 274 -57l-90 -229q-57 23 -114 22q-53 0 -82 -28.5t-29 -77.5v-1104q0 -164 -99 -260.5t-257 -96.5z" glyph-name="integral" unicode="∫"/><glyph d="M360 557l-192 64q0 137 77 230t199 93q82 0 164 -53l123 -78q27 -14 49 -14q66 0 88 121l195 -64q-4 -139 -84 -230t-199 -91q-82 0 -164 51l-127 80q-16 12 -45 12q-66 0 -84 -121zM360 86l-192 64q0 137 77 230t199 93q82 0 164 -53l123 -78q27 -14 49 -14q66 0 88 121 l195 -64q-4 -139 -84 -230.5t-199 -91.5q-82 0 -164 52l-127 80q-16 12 -45 12q-66 0 -84 -121z" glyph-name="approxequal" unicode="≈"/><glyph d="M1061 582h-299l-47 -154h346v-272h-428l-58 -193h-251l57 193h-215v272h299l45 154h-344v272h426l59 195h250l-57 -195h217v-272z" glyph-name="notequal" unicode="≠"/><glyph d="M1063 1057l-565 -185v-84l565 -184v-287l-895 316v393l895 320v-289zM166 0v272h895v-272h-895z" glyph-name="lessequal" unicode="≤"/><glyph d="M168 1346l895 -320v-393l-895 -316v287l565 184v84l-565 185v289zM166 0v272h895v-272h-895z" glyph-name="greaterequal" unicode="≥"/><glyph d="M756 1393l389 -697l-391 -696h-271l-399 696l403 697h269zM616 424l154 274l-152 271l-155 -277z" glyph-name="lozenge" unicode="◊"/><glyph d="M616 1272q276 0 381 -158t105 -487q0 -190 -31 -318.5t-96.5 -199t-150.5 -99t-208 -28.5q-279 0 -384 156.5t-105 488.5q0 190 31.5 317t97.5 198.5t151.5 100.5t208.5 29zM614 995q-68 0 -93 -72.5t-25 -295.5v-43l170 399q-23 12 -52 12zM614 258q68 0 92.5 72.5 t24.5 296.5v35l-168 -392q22 -12 51 -12z" glyph-name="zero.ss01"/><glyph d="M614 840q205 0 283 -104.5t78 -321.5q0 -244 -88 -335t-273 -91q-207 0 -284.5 103.5t-77.5 322.5q0 242 88 334t274 92zM614 639q-47 0 -63 -43t-16 -182v-35l112 254q-13 6 -33 6zM614 188q45 0 62.5 43t17.5 183v37l-112 -256q12 -7 32 -7z" glyph-name="zero.dnom.ss01"/><glyph d="M614 1266q205 0 283 -104.5t78 -321.5q0 -244 -88 -335t-273 -91q-207 0 -284.5 103.5t-77.5 322.5q0 242 88 334t274 92zM614 1065q-47 0 -63 -43t-16 -182v-35l112 254q-13 6 -33 6zM614 614q45 0 62.5 43t17.5 183v37l-112 -256q12 -7 32 -7z" glyph-name="zero.numr.ss01"/><glyph d="M614 -12q-207 0 -284.5 103.5t-77.5 322.5q0 242 88 334t274 92q205 0 283 -104.5t78 -321.5q0 -244 -88.5 -335t-272.5 -91zM614 188q45 0 62.5 43t17.5 183q0 133 -16 179t-63.5 46t-63.5 -43t-16 -182q0 -133 16 -179.5t63 -46.5zM614.5 352q-28.5 0 -49 18.5 t-20.5 45.5q0 25 21.5 44t47.5 19q29 0 50.5 -19.5t21.5 -43.5q0 -27 -21.5 -45.5t-50 -18.5z" glyph-name="zero.dnom"/><glyph d="M762 205h196v-205h-692v205h219v409l-202 -39l-41 205l243 47h277v-622z" glyph-name="one.dnom"/><glyph d="M629 295q-68 -39 -78 -57q-8 -14 -8 -33h411v-205h-700v176q0 74 39 129t145 119l199 117q39 23 39 47q0 27 -29 37t-104 10q-82 0 -211 -19l-23 205q160 18 266 19q379 0 379 -228q0 -125 -112 -192z" glyph-name="two.dnom"/><glyph d="M813 440q137 -39 137 -178q0 -154 -100 -214t-303 -60q-168 0 -299 30l20 213q111 -31 277 -30q76 0 99.5 12t23.5 53q0 45 -26 59.5t-103 14.5h-158v182h143q74 0 96.5 10.5t22.5 47t-20.5 48t-79.5 11.5q-174 0 -254 -23l-17 197q104 27 279 27q199 0 286 -52.5 t87 -173.5q0 -131 -111 -174z" glyph-name="three.dnom"/><glyph d="M993 338v-209h-84v-129h-262v129h-393v227l217 471h268l-202 -471h2v-18h108v211h262v-211h84z" glyph-name="four.dnom"/><glyph d="M590 528q217 0 296 -60t79 -198q0 -160 -100.5 -221t-299.5 -61q-178 0 -284 30l10 213q119 -25 268 -24q82 0 104.5 12t22.5 57q0 39 -22.5 51.5t-104.5 12.5h-246l21 487h594v-206h-353l-4 -93h19z" glyph-name="five.dnom"/><glyph d="M709 539q145 0 208.5 -64.5t63.5 -206.5q0 -162 -87 -221t-271 -59q-211 0 -290 64.5t-79 209.5q0 209 133 383q72 92 182 182h301q-119 -98 -221 -215q-35 -41 -61 -84h16q52 11 105 11zM621 190q59 0 76.5 16.5t17.5 76.5q0 47 -17.5 62t-74.5 15q-63 0 -82 -14 t-19 -67.5t19 -71t80 -17.5z" glyph-name="six.dnom"/><glyph d="M258 827h707v-213l-396 -614h-270l389 616v5h-430v206z" glyph-name="seven.dnom"/><glyph d="M815 432q166 -41 166 -196q0 -141 -92 -194.5t-275 -53.5q-207 0 -285.5 62.5t-78.5 185.5q0 160 166 198q-139 43 -140 182q0 127 85 175.5t253 48.5q193 0 264.5 -58.5t71.5 -171.5q0 -137 -135 -178zM614 651q-49 0 -65.5 -14t-16.5 -55q0 -43 15.5 -56.5t67 -13.5 t66.5 13.5t15 56.5q0 41 -17.5 55t-64.5 14zM614 176q51 0 71 15.5t20 56.5q0 47 -16.5 62.5t-74 15.5t-74 -14.5t-16.5 -63.5q0 -45 17.5 -58.5t72.5 -13.5z" glyph-name="eight.dnom"/><glyph d="M602 840q213 0 293 -64.5t80 -208.5q0 -217 -135 -385q-84 -106 -178 -182h-306q117 94 224 219q37 45 59 80h-25q-39 -8 -94 -8q-145 0 -209.5 63.5t-64.5 206.5q0 160 86 219.5t270 59.5zM512 547q0 -49 17.5 -63.5t79 -14.5t80 14.5t18.5 67.5t-18.5 68.5t-82.5 15.5 q-59 0 -76.5 -15.5t-17.5 -72.5z" glyph-name="nine.dnom"/><glyph d="M614 414q-207 0 -284.5 103.5t-77.5 322.5q0 242 88 334t274 92q205 0 283 -104.5t78 -321.5q0 -244 -88.5 -335t-272.5 -91zM614 614q45 0 62.5 43t17.5 183q0 133 -16 179t-63.5 46t-63.5 -43t-16 -182q0 -133 16 -179.5t63 -46.5zM614.5 778q-28.5 0 -49 18.5 t-20.5 45.5q0 25 21.5 44t47.5 19q29 0 50.5 -19.5t21.5 -43.5q0 -27 -21.5 -45.5t-50 -18.5z" glyph-name="zero.numr"/><glyph d="M762 631h196v-205h-692v205h219v409l-202 -39l-41 205l243 47h277v-622z" glyph-name="one.numr"/><glyph d="M629 721q-68 -39 -78 -57q-8 -14 -8 -33h411v-205h-700v176q0 74 39 129t145 119l199 117q39 23 39 47q0 27 -29 37t-104 10q-82 0 -211 -19l-23 205q160 18 266 19q379 0 379 -228q0 -125 -112 -192z" glyph-name="two.numr"/><glyph d="M813 866q137 -39 137 -178q0 -154 -100 -214t-303 -60q-168 0 -299 30l20 213q111 -31 277 -30q76 0 99.5 12t23.5 53q0 45 -26 59.5t-103 14.5h-158v182h143q74 0 96.5 10.5t22.5 47t-20.5 48t-79.5 11.5q-174 0 -254 -23l-17 197q104 27 279 27q199 0 286 -52.5 t87 -173.5q0 -131 -111 -174z" glyph-name="three.numr"/><glyph d="M993 764v-209h-84v-129h-262v129h-393v227l217 471h268l-202 -471h2v-18h108v211h262v-211h84z" glyph-name="four.numr"/><glyph d="M590 954q217 0 296 -60t79 -198q0 -160 -100.5 -221t-299.5 -61q-178 0 -284 30l10 213q119 -25 268 -24q82 0 104.5 12t22.5 57q0 39 -22.5 51.5t-104.5 12.5h-246l21 487h594v-206h-353l-4 -93h19z" glyph-name="five.numr"/><glyph d="M709 965q145 0 208.5 -64.5t63.5 -206.5q0 -162 -87 -221t-271 -59q-211 0 -290 64.5t-79 209.5q0 209 133 383q72 92 182 182h301q-119 -98 -221 -215q-35 -41 -61 -84h16q52 11 105 11zM621 616q59 0 76.5 16.5t17.5 76.5q0 47 -17.5 62t-74.5 15q-63 0 -82 -14 t-19 -67.5t19 -71t80 -17.5z" glyph-name="six.numr"/><glyph d="M258 1253h707v-213l-396 -614h-270l389 616v5h-430v206z" glyph-name="seven.numr"/><glyph d="M815 858q166 -41 166 -196q0 -141 -92 -194.5t-275 -53.5q-207 0 -285.5 62.5t-78.5 185.5q0 160 166 198q-139 43 -140 182q0 127 85 175.5t253 48.5q193 0 264.5 -58.5t71.5 -171.5q0 -137 -135 -178zM614 1077q-49 0 -65.5 -14t-16.5 -55q0 -43 15.5 -56.5t67 -13.5 t66.5 13.5t15 56.5q0 41 -17.5 55t-64.5 14zM614 602q51 0 71 15.5t20 56.5q0 47 -16.5 62.5t-74 15.5t-74 -14.5t-16.5 -63.5q0 -45 17.5 -58.5t72.5 -13.5z" glyph-name="eight.numr"/><glyph d="M602 1266q213 0 293 -64.5t80 -208.5q0 -217 -135 -385q-84 -106 -178 -182h-306q117 94 224 219q37 45 59 80h-25q-39 -8 -94 -8q-145 0 -209.5 63.5t-64.5 206.5q0 160 86 219.5t270 59.5zM512 973q0 -49 17.5 -63.5t79 -14.5t80 14.5t18.5 67.5t-18.5 68.5t-82.5 15.5 q-59 0 -76.5 -15.5t-17.5 -72.5z" glyph-name="nine.numr"/><glyph d="M471 625v-199h-455v166v2q0 57 2 85t18.5 67.5t51.5 78.5l125 150q20 29 20 53q0 37 -34 37q-39 0 -119 -14l-14 198q111 18 182 19q88 0 155.5 -57.5t67.5 -170.5q0 -53 -18.5 -92t-59.5 -94l-67 -98q-27 -35 -35 -48.5t-17.5 -35t-9.5 -47.5h207zM682 1255h192 l-294 -1257h-191zM784 827h445v-206l-193 -621h-235l186 578v51h-203v198z" glyph-name="two.numr_fraction_seven.dnom.frac"/><glyph d="M471 688q0 -154 -65.5 -214t-192.5 -60q-106 0 -184 30l16 207q68 -31 139 -30q41 0 41 69q0 76 -37 76h-71v180h63q29 0 29 62q0 41 -5 52t-26 11q-49 0 -117 -22l-14 192q82 27 154 27q256 0 256 -228q0 -119 -60 -166v-10q74 -39 74 -176zM682 1255h192l-294 -1257 h-191zM784 827h445v-206l-193 -621h-235l186 578v51h-203v198z" glyph-name="three.numr_fraction_seven.dnom.frac"/><glyph d="M686 1255h193l-293 -1257h-193zM457 426h-201v133h-262v225l115 469h206l-96 -409v-82h37v205h201v-205h45v-203h-45v-133zM784 827h445v-206l-193 -621h-235l186 578v51h-203v198z" glyph-name="four.numr_fraction_seven.dnom.frac"/><glyph d="M682 1255h192l-294 -1257h-191zM494 698q0 -160 -73 -222t-210 -62q-113 0 -191 30l13 209q63 -25 162 -24q51 0 51 69q0 72 -27 72h-174l12 483h418v-198h-219l-4 -97h22q129 0 174.5 -61.5t45.5 -198.5zM784 827h445v-206l-193 -621h-235l186 578v51h-203v198z" glyph-name="five.numr_fraction_seven.dnom.frac"/><glyph d="M682 1255h192l-294 -1257h-191zM512 692q0 -160 -59.5 -219t-192.5 -59q-150 0 -205 64.5t-55 209.5q0 309 184 565h256q-106 -166 -161 -299q25 4 43 4q84 0 137 -63.5t53 -202.5zM784 827h445v-206l-193 -621h-235l186 578v51h-203v198zM256 612q27 0 27 90 q0 82 -25 82q-27 0 -27 -84q0 -88 25 -88z" glyph-name="six.numr_fraction_seven.dnom.frac"/><glyph d="M471 625v-199h-455v166v2q0 57 2 85t18.5 67.5t51.5 78.5l125 150q20 29 20 53q0 37 -34 37q-39 0 -119 -14l-14 198q111 18 182 19q88 0 155.5 -57.5t67.5 -170.5q0 -53 -18.5 -92t-59.5 -94l-67 -98q-27 -35 -35 -48.5t-17.5 -35t-9.5 -47.5h207zM670 1255h192 l-293 -1257h-192zM975 840q150 0 205 -64.5t55 -210.5q0 -309 -184 -565h-256q106 166 161 299q-25 -4 -43 -4q-84 0 -137 63.5t-53 202.5q0 160 59.5 219.5t192.5 59.5zM981 641q-27 0 -27 -90q0 -82 25 -82q27 0 27 84q0 88 -25 88z" glyph-name="two.numr_fraction_nine.dnom.frac"/><glyph d="M670 1255h192l-293 -1257h-192zM457 426h-201v133h-262v225l115 469h206l-96 -409v-82h37v205h201v-205h45v-203h-45v-133zM975 840q150 0 205 -64.5t55 -210.5q0 -309 -184 -565h-256q106 166 161 299q-25 -4 -43 -4q-84 0 -137 63.5t-53 202.5q0 160 59.5 219.5 t192.5 59.5zM981 641q-27 0 -27 -90q0 -82 25 -82q27 0 27 84q0 88 -25 88z" glyph-name="four.numr_fraction_nine.dnom.frac"/><glyph d="M657 1255h193l-293 -1257h-192zM494 698q0 -160 -73 -222t-210 -62q-113 0 -191 30l13 209q63 -25 162 -24q51 0 51 69q0 72 -27 72h-174l12 483h418v-198h-219l-4 -97h22q129 0 174.5 -61.5t45.5 -198.5zM975 840q150 0 205 -64.5t55 -210.5q0 -309 -184 -565h-256 q106 166 161 299q-25 -4 -43 -4q-84 0 -137 63.5t-53 202.5q0 160 59.5 219.5t192.5 59.5zM981 641q-27 0 -27 -90q0 -82 25 -82q27 0 27 84q0 88 -25 88z" glyph-name="five.numr_fraction_nine.dnom.frac"/><glyph d="M633 1255h192l-293 -1257h-192zM475 1047l-192 -621h-236l189 592h-3v37h-202v198h444v-206zM975 840q150 0 205 -64.5t55 -210.5q0 -309 -184 -565h-256q106 166 161 299q-25 -4 -43 -4q-84 0 -137 63.5t-53 202.5q0 160 59.5 219.5t192.5 59.5zM981 641q-27 0 -27 -90 q0 -82 25 -82q27 0 27 84q0 88 -25 88z" glyph-name="seven.numr_fraction_nine.dnom.frac"/><glyph d="M514 659q0 -141 -62.5 -193t-197.5 -52q-152 0 -207 60.5t-55 184.5q0 156 108 199v6q-88 43 -88 178q0 129 60.5 177.5t181.5 48.5q135 0 187.5 -57.5t52.5 -172.5q0 -135 -91 -176v-6q111 -39 111 -197zM674 1255h192l-293 -1257h-192zM233 1014q0 -51 2.5 -63.5 t18.5 -12.5t16 76v22v23.5t-1 14.5t-5 7t-10 2q-21 1 -21 -69zM975 840q150 0 205 -64.5t55 -210.5q0 -309 -184 -565h-256q106 166 161 299q-25 -4 -43 -4q-84 0 -137 63.5t-53 202.5q0 160 59.5 219.5t192.5 59.5zM254 598q29 0 29 76q0 47 -5.5 63.5t-23.5 16.5 q-29 0 -29 -80q0 -47 5.5 -61.5t23.5 -14.5zM981 641q-27 0 -27 -90q0 -82 25 -82q27 0 27 84q0 88 -25 88z" glyph-name="eight.numr_fraction_nine.dnom.frac"/></font>
</defs>
</svg>
