<?xml version="1.0" standalone="no"?>
<!DOCTYPE svg PUBLIC "-//W3C//DTD SVG 1.1//EN" "http://www.w3.org/Graphics/SVG/1.1/DTD/svg11.dtd">
<svg xmlns="http://www.w3.org/2000/svg"><metadata>This SVG WebFont was generated by YouWorkForThem.
Copyright Â© 2017 by Jonathan Hill. All rights reserved.</metadata><defs><font horiz-adv-x="0" id="ywftsvg"><font-face ascent="1604" bbox="-946 -492 2896 2458" cap-height="1434" descent="-444" font-family="" font-stretch="normal" font-weight="300" panose-1="0 0 4 0 0 0 0 0 0 0" underline-position="0" underline-thickness="0" unicode-range="U+0020-277E" units-per-em="2048" x-height="1126"/><missing-glyph d="M205 61v1229h819v-1229h-819zM348 205h533v942h-533v-942z" horiz-adv-x="1228"/><glyph d="M961 1458q-92 0 -123 -48t-31 -193v-91h256v-88h-256v-1038h-102v1038h-396v-1038h-102v1038h-205v88h205v91q0 199 55 265t219 66q70 0 115 -16l-8 -88q-51 14 -125 14q-92 0 -123 -48t-31 -193v-91h396v91q0 199 55 265t219 66q70 0 115 -16l-7 -88q-54 14 -126 14z " glyph-name="f_f.liga" horiz-adv-x="1079" unicode="ff"/><glyph d="M1307 1126v-1126h-103v1038h-397v-1038h-102v1038h-396v-1038h-102v1038h-205v88h205v91q0 199 55 265t219 66q70 0 115 -16l-8 -88q-51 14 -125 14q-92 0 -123 -48t-31 -193v-91h396v91q0 199 55 265t219 66q70 0 115 -16l-7 -88q-55 14 -126 14q-92 0 -123 -48 t-31 -193v-91h500zM1190 1518h129v-129h-129v129z" glyph-name="f_f_i.liga" horiz-adv-x="1478" unicode="ffi"/><glyph d="M1554 82l9 -92q-47 -10 -117 -10q-137 0 -188.5 65.5t-51.5 216.5v776h-399v-1038h-102v1038h-396v-1038h-102v1038h-205v88h205v91q0 199 55 265t219 66q70 0 115 -16l-8 -88q-51 14 -125 14q-92 0 -123 -48t-31 -193v-91h396v91q0 199 55 265t219 66q70 0 115 -16 l-7 -88q-55 14 -126 14q-92 0 -123 -48t-31 -193v-91h399v410h103v-1274q0 -113 26.5 -152.5t91.5 -39.5q76 0 127 12z" glyph-name="f_f_l.liga" horiz-adv-x="1613" unicode="ffl"/><glyph d="M807 1126v-1126h-102v1038h-396v-1038h-102v1038h-205v88h205v91q0 199 55 265t219 66q70 0 115 -16l-8 -88q-51 14 -125 14q-92 0 -123 -48t-31 -193v-91h498zM690 1518h129v-129h-129v129z" glyph-name="f_i.liga" horiz-adv-x="966" unicode="fi"/><glyph d="M1055 82l8 -92q-43 -10 -115 -10q-139 0 -189 65.5t-50 216.5v776h-400v-1038h-102v1038h-205v88h205v91q0 199 55 265t219 66q70 0 115 -16l-8 -88q-51 14 -125 14q-92 0 -123 -48t-31 -193v-91h400v410h102v-1274q0 -113 26.5 -152.5t92.5 -39.5q76 0 125 12z" glyph-name="f_l.liga" horiz-adv-x="1114" unicode="fl"/><glyph d="M205 61v1229h819v-1229h-819zM348 205h533v942h-533v-942z" glyph-name=".notdef" horiz-adv-x="1228"/><glyph glyph-name="glyph1"/><glyph glyph-name="glyph2" horiz-adv-x="681"/><glyph glyph-name="space" horiz-adv-x="450" unicode=" "/><glyph d="M262 442l-29 992h115l-29 -992h-57zM225 0v129h129v-129h-129z" glyph-name="exclam" horiz-adv-x="579" unicode="!"/><glyph d="M342 1536l-25 -543h-61l-25 543h111zM612 1536l-24 -543h-62l-24 543h110z" glyph-name="quotedbl" horiz-adv-x="843" unicode="&quot;"/><glyph d="M985 977h-158l-79 -469h157l-14 -80h-156l-73 -428h-91l74 428h-307l-74 -428h-90l74 428h-168l14 80h166l80 469h-168l14 80h168l64 377h90l-64 -377h308l63 377h90l-63 -377h157zM657 508l80 469h-307l-80 -469h307z" glyph-name="numbersign" horiz-adv-x="1075" unicode="#"/><glyph d="M819 334q0 -299 -282 -346v-209h-107v201h-4q-139 0 -324 49l9 96q211 -51 331 -51q266 0 267 248q0 84 -22.5 131t-88.5 102l-365 307q-68 57 -95 115.5t-27 157.5q0 285 319 315v205h107v-201q104 -4 254 -27l-9 -94q-160 27 -268 27q-143 0 -218 -47t-75 -170 q0 -76 18.5 -117t71.5 -88l357 -297q84 -72 117.5 -137.5t33.5 -169.5z" glyph-name="dollar" horiz-adv-x="931" unicode="$"/><glyph d="M379 610q-145 0 -200.5 102.5t-55.5 319.5q0 242 62.5 332t193.5 90q145 0 200.5 -102.5t55.5 -319.5q0 -242 -62.5 -332t-193.5 -90zM301 -20l870 1474h101l-871 -1474h-100zM379 702q88 0 119.5 73t31.5 257q0 195 -33.5 263.5t-117.5 68.5q-88 0 -120 -73.5 t-32 -258.5q0 -193 34 -261.5t118 -68.5zM1202 -12q-145 0 -200.5 102.5t-55.5 319.5q0 242 62.5 331.5t193.5 89.5q145 0 200.5 -102t55.5 -319q0 -242 -62.5 -332t-193.5 -90zM1202 80q88 0 120 72.5t32 257.5q0 193 -34 262t-118 69q-88 0 -119.5 -73.5t-31.5 -257.5 q0 -193 33.5 -261.5t117.5 -68.5z" glyph-name="percent" horiz-adv-x="1581" unicode="%"/><glyph d="M1327 0h-147l-224 240l-30 -68q-51 -111 -132 -151.5t-225 -40.5q-238 0 -326.5 88t-88.5 286q0 104 24.5 165t75.5 106l190 166l-86 92q-104 113 -104 286q0 160 88 222.5t258 62.5q190 0 263 -66.5t73 -197.5q0 -150 -111 -250l-204 -188l309 -330l213 457h110 l-247 -537zM365 1171q0 -150 73 -227l123 -131l174 166q90 88 90 184q0 115 -54 156t-179 41q-131 0 -179 -44.5t-48 -144.5zM834 215l49 104l-377 406l-180 -172q-37 -35 -49.5 -78t-12.5 -121q0 -164 67.5 -222t237.5 -58q115 0 173.5 34.5t91.5 106.5z" glyph-name="ampersand" horiz-adv-x="1368" unicode="&amp;"/><glyph d="M342 1536l-25 -543h-61l-25 543h111z" glyph-name="quotesingle" horiz-adv-x="573" unicode="'"/><glyph d="M563 -328q-248 80 -344 317.5t-96 635.5q0 324 57.5 532.5t149.5 305t233 141.5v-68q-188 -70 -259 -285t-71 -614q0 -442 80 -639t250 -260v-66z" glyph-name="parenleft" horiz-adv-x="608" unicode="("/><glyph d="M45 -328v66q170 63 250 260t80 639q0 399 -71 614t-259 285v68q141 -45 233.5 -141.5t149.5 -305.5t57 -532q0 -397 -96 -635t-344 -318z" glyph-name="parenright" horiz-adv-x="608" unicode=")"/><glyph d="M963 1186l-367 -101l238 -294l-91 -66l-208 317l-207 -317l-90 66l235 294l-364 101l34 104l355 -133l-19 379h111l-17 -379l355 133z" glyph-name="asterisk" horiz-adv-x="1073" unicode="*"/><glyph d="M1032 621v-93h-373v-370h-92v370h-372v93h372v372h92v-372h373z" glyph-name="plus" horiz-adv-x="1228" unicode="+"/><glyph d="M244 154h143v-154l-78 -293h-76l72 293h-61v154z" glyph-name="comma" horiz-adv-x="630" unicode=","/><glyph d="M174 680h479v-92h-479v92z" glyph-name="hyphen" horiz-adv-x="827" unicode="-"/><glyph d="M244 0v154h143v-154h-143z" glyph-name="period" horiz-adv-x="630" unicode="."/><glyph d="M12 -102l547 1638h100l-546 -1638h-101z" glyph-name="slash" horiz-adv-x="671" unicode="/"/><glyph d="M592 -20q-248 0 -342 174t-94 540q0 281 53 441.5t144 219t239 58.5q248 0 341 -175t93 -544q0 -211 -27.5 -352t-86 -220t-135 -110.5t-185.5 -31.5zM592 74q188 0 255.5 138t67.5 482q0 250 -33.5 385t-101 187.5t-188.5 52.5q-190 0 -258 -138.5t-68 -486.5 q0 -248 34 -383t102.5 -186t189.5 -51z" glyph-name="zero" horiz-adv-x="1181" unicode="0"/><glyph d="M438 92h279v-92h-686v92h301v1215l-293 -78l-14 82l307 82h106v-1301z" glyph-name="one" horiz-adv-x="788" unicode="1"/><glyph d="M213 141v-49h686v-92h-797v141q0 123 44 203t135 154l405 325q102 82 102 234q0 150 -79.5 206t-247.5 56q-131 0 -309 -29l-9 94q184 29 312 29q250 0 347 -91t97 -265q0 -184 -139 -299l-426 -355q-121 -100 -121 -262z" glyph-name="two" horiz-adv-x="1021" unicode="2"/><glyph d="M688 715q100 -39 140 -120t40 -208q0 -238 -108.5 -322.5t-360.5 -84.5q-209 0 -317 49l8 94q104 -49 307 -49q217 0 289 71.5t72 257.5q0 162 -72 218.5t-254 56.5h-192v92h192q168 0 228.5 56.5t60.5 193.5q0 184 -63.5 241.5t-245.5 57.5q-190 0 -301 -45l-9 94 q104 45 299 45q139 0 226.5 -22.5t131.5 -72.5t58 -111.5t14 -157.5q0 -242 -143 -312v-22z" glyph-name="three" horiz-adv-x="1017" unicode="3"/><glyph d="M1004 479v-92h-211v-387h-107v387h-614v164l460 842h117l-471 -863v-51h508v500h107v-500h211z" glyph-name="four" horiz-adv-x="1064" unicode="4"/><glyph d="M356 823q279 0 379.5 -93t100.5 -310q0 -254 -103.5 -347t-341.5 -93q-199 0 -299 47l8 94q100 -47 287 -47q197 0 267.5 72.5t70.5 252.5q0 193 -77 262.5t-269 69.5h-229l22 662h608v-93h-499l-15 -477h90z" glyph-name="five" horiz-adv-x="968" unicode="5"/><glyph d="M608 850q199 0 276 -108.5t77 -317.5q0 -252 -104.5 -348t-305.5 -96q-240 0 -332 110.5t-92 325.5q0 270 188 592q117 199 293 385h140q-131 -137 -202 -226.5t-138 -205.5q-55 -96 -84 -162h26q96 51 258 51zM547 74q176 0 239.5 79.5t63.5 278.5q0 188 -66.5 256 t-232.5 68q-139 0 -208 -42t-91 -141q-14 -74 -14 -157q0 -201 68.5 -271.5t240.5 -70.5z" glyph-name="six" horiz-adv-x="1073" unicode="6"/><glyph d="M51 1393h729v-152l-549 -1241h-112l555 1247v53h-623v93z" glyph-name="seven" horiz-adv-x="841" unicode="7"/><glyph d="M854 719q182 -72 182 -326q0 -233 -111.5 -323t-330.5 -90q-252 0 -349.5 105t-97.5 308q0 254 183 326v14q-147 70 -148 303q0 215 100.5 296t311.5 81q233 0 320 -94t87 -293q0 -229 -147 -295v-12zM594 1319q-182 0 -246.5 -59.5t-64.5 -210.5q0 -162 69.5 -220.5 t241.5 -58.5q178 0 242.5 62.5t64.5 216.5q0 158 -67.5 214t-239.5 56zM594 74q195 0 263.5 65.5t68.5 229.5q0 180 -74 244.5t-258 64.5q-197 0 -266.5 -68.5t-69.5 -240.5t75 -233.5t261 -61.5z" glyph-name="eight" horiz-adv-x="1185" unicode="8"/><glyph d="M522 1413q240 0 332 -110.5t92 -325.5q0 -270 -188 -592q-119 -203 -295 -385h-137q131 137 200.5 225t139.5 207q55 96 84 162h-27q-96 -51 -258 -51q-199 0 -275.5 108.5t-76.5 317.5q0 252 104 348t305 96zM223 961q0 -188 66.5 -256t232.5 -68q139 0 209 44t92 144 q12 76 13 152q0 201 -69 271.5t-241 70.5q-176 0 -239.5 -79.5t-63.5 -278.5z" glyph-name="nine" horiz-adv-x="1073" unicode="9"/><glyph d="M244 973v153h143v-153h-143zM244 0v154h143v-154h-143z" glyph-name="colon" horiz-adv-x="630" unicode=":"/><glyph d="M244 1126h143v-153h-143v153zM244 0v154h143v-154l-78 -293h-76l72 293h-61z" glyph-name="semicolon" horiz-adv-x="630" unicode=";"/><glyph d="M1016 885l-699 -291v-31l699 -291v-92l-805 340v117l805 342v-94z" glyph-name="less" horiz-adv-x="1228" unicode="&lt;"/><glyph d="M207 707v92h813v-92h-813zM207 356v93h813v-93h-813z" glyph-name="equal" horiz-adv-x="1228" unicode="="/><glyph d="M211 979l805 -342v-117l-805 -340v92l698 291v31l-698 291v94z" glyph-name="greater" horiz-adv-x="1228" unicode=">"/><glyph d="M276 442l-2 66q-6 106 23 165.5t115 127.5l159 127q57 45 79 91t22 114q0 131 -68.5 179t-230.5 48q-94 0 -262 -25l-9 92q174 27 279 27q227 0 314 -81t87 -238q0 -154 -135 -263l-192 -151q-70 -53 -93.5 -97t-25.5 -122l-2 -60h-58zM242 0v129h129v-129h-129z" glyph-name="question" horiz-adv-x="874" unicode="?"/><glyph d="M872 1454q217 0 367 -62.5t230.5 -187.5t114.5 -280.5t34 -370.5q0 -311 -74 -432t-217 -121q-98 0 -221 78l-12 117h-13q-59 -121 -233 -121q-197 0 -272.5 119.5t-75.5 353.5q0 276 93 383.5t267 107.5q156 0 213 -96h12v96h103v-893q90 -49 149 -49q96 0 133 114 t37 343q0 236 -42 396.5t-128 248.5t-197.5 125t-267.5 37q-180 0 -299.5 -51.5t-184 -161t-89.5 -248.5t-25 -346q0 -238 39 -397.5t122 -248.5t190.5 -125t263.5 -36q170 0 289 57l8 -94q-131 -57 -307 -57q-209 0 -352.5 62.5t-221.5 185.5t-109.5 277.5t-31.5 367.5 q0 266 49 447.5t147.5 280.5t221 140t290.5 41zM854 164q119 0 175 54t56 196v284q0 143 -56 196.5t-173 53.5q-145 0 -198.5 -91t-53.5 -302q0 -225 58.5 -308t191.5 -83z" glyph-name="at" horiz-adv-x="1757" unicode="@"/><glyph d="M995 0l-116 424h-580l-117 -424h-110l411 1434h211l412 -1434h-111zM324 516h530l-227 825h-76z" glyph-name="A" horiz-adv-x="1177" unicode="A"/><glyph d="M809 743q117 -33 167 -113.5t50 -228.5q0 -227 -120 -314t-349 -87h-340v1434h297q279 0 378 -76t99 -266q0 -254 -182 -334v-15zM514 1343h-190v-552h190q217 0 292 60t75 220q0 162 -78 217t-289 55zM557 90q205 0 281.5 71.5t76.5 223.5q0 182 -81.5 248.5 t-276.5 66.5h-233v-610h233z" glyph-name="B" horiz-adv-x="1175" unicode="B"/><glyph d="M696 -20q-160 0 -269.5 50t-169.5 150.5t-85 226t-25 300.5q0 219 38 368.5t113 230t168 114.5t222 34q139 0 238 -39l-8 -96q-90 41 -224 41q-248 0 -342 -156.5t-94 -486.5q0 -190 27.5 -317.5t87 -198t135.5 -99t186 -28.5q137 0 232 45l16 -94q-92 -45 -246 -45z" glyph-name="C" horiz-adv-x="1054" unicode="C"/><glyph d="M614 1434q160 0 268.5 -50.5t167 -148.5t83 -222t24.5 -296q0 -209 -38 -352.5t-112.5 -221t-169 -110.5t-223.5 -33h-397v1434h397zM614 82q127 0 213 45t133.5 133t67 197.5t19.5 259.5q0 188 -30 316t-90.5 195.5t-134 95.5t-178.5 28h-290v-1270h290z" glyph-name="D" horiz-adv-x="1300" unicode="D"/><glyph d="M324 92h563v-92h-670v1434h645v-93h-538v-553h507v-92h-507v-604z" glyph-name="E" horiz-adv-x="995" unicode="E"/><glyph d="M842 1341h-518v-593h481v-93h-481v-655h-107v1434h625v-93z" glyph-name="F" horiz-adv-x="944" unicode="F"/><glyph d="M1061 776v-782l-80 -8l-12 137h-15q-98 -141 -336 -141q-262 0 -364 191.5t-102 559.5q0 211 38.5 355.5t115.5 223.5t173 111.5t230 32.5q170 0 305 -45l-8 -98q-154 49 -310 49q-240 0 -337 -159t-97 -470q0 -190 24.5 -320t75 -204t118 -105.5t163.5 -31.5 q164 0 239.5 67.5t75.5 251.5v293h-235v92h338z" glyph-name="G" horiz-adv-x="1210" unicode="G"/><glyph d="M993 1434h107v-1434h-107v696h-669v-696h-107v1434h107v-646h669v646z" glyph-name="H" horiz-adv-x="1316" unicode="H"/><glyph d="M324 1434v-1434h-107v1434h107z" glyph-name="I" horiz-adv-x="540" unicode="I"/><glyph d="M143 -20q-66 0 -123 16l9 94q61 -16 141 -16q78 0 113.5 46t35.5 171v1143h107v-1143q0 -152 -62.5 -231.5t-220.5 -79.5z" glyph-name="J" horiz-adv-x="636" unicode="J"/><glyph d="M932 0l-514 696h-94v-696h-107v1434h107v-646h86l481 646h123l-508 -686l547 -748h-121z" glyph-name="K" horiz-adv-x="1089" unicode="K"/><glyph d="M324 92h477v-92h-584v1434h107v-1342z" glyph-name="L" horiz-adv-x="872" unicode="L"/><glyph d="M1346 1434v-1434h-107v1341h-22l-347 -1007h-176l-348 1007h-22v-1341h-107v1434h207l346 -1008h23l348 1008h205z" glyph-name="M" horiz-adv-x="1562" unicode="M"/><glyph d="M1010 1434h106v-1434h-205l-561 1341h-26v-1341h-107v1434h205l561 -1342h27v1342z" glyph-name="N" horiz-adv-x="1333" unicode="N"/><glyph d="M684 -20q-156 0 -261.5 47t-163.5 146t-81.5 228t-23.5 316q0 217 33.5 363.5t104 227.5t164 113.5t228.5 32.5q301 0 413.5 -179t112.5 -558q0 -217 -33.5 -363.5t-104.5 -227.5t-163 -113.5t-225 -32.5zM684 74q240 0 328 149.5t88 493.5q0 254 -47 396t-133 194.5 t-236 52.5q-242 0 -331 -149.5t-89 -493.5q0 -254 47 -396.5t135 -194.5t238 -52z" glyph-name="O" horiz-adv-x="1363" unicode="O"/><glyph d="M530 1434q248 0 344.5 -96.5t96.5 -284.5q0 -250 -111.5 -346.5t-329.5 -96.5h-206v-610h-107v1434h313zM530 692q188 0 259 85t71 265q0 176 -80 243t-250 67h-206v-660h206z" glyph-name="P" horiz-adv-x="1073" unicode="P"/><glyph d="M1210 717q0 -207 -30.5 -349.5t-94 -224.5t-147.5 -118.5t-205 -42.5v-27q0 -127 31 -174t98 -47q74 0 144 20l8 -92q-80 -18 -131 -18q-150 0 -205 72.5t-55 238.5v27q-266 18 -367.5 197t-101.5 538q0 217 33.5 363.5t104 227.5t164 113.5t228.5 32.5q301 0 413.5 -179 t112.5 -558zM264 717q0 -254 47 -396.5t135.5 -194.5t237.5 -52q240 0 328 149.5t88 493.5q0 254 -47 396t-133 194.5t-236 52.5q-242 0 -331 -149.5t-89 -493.5z" glyph-name="Q" horiz-adv-x="1363" unicode="Q"/><glyph d="M1094 0h-123l-371 635q-74 -4 -119 -4h-157v-631h-107v1434h264q287 0 391.5 -90.5t104.5 -299.5q0 -180 -64.5 -272t-205.5 -123zM324 713h157q223 0 304 72.5t81 250.5q0 184 -86 250t-299 66h-157v-639z" glyph-name="R" horiz-adv-x="1144" unicode="R"/><glyph d="M426 -20q-139 0 -324 49l9 96q211 -51 331 -51q266 0 267 248q0 84 -22.5 131t-88.5 102l-365 307q-68 59 -95 116.5t-27 156.5q0 319 399 319q109 0 281 -27l-9 -92q-168 25 -268 25q-143 0 -218 -47t-75 -170q0 -76 18.5 -117t71.5 -88l357 -297q84 -72 117.5 -137.5 t33.5 -169.5q0 -354 -393 -354z" glyph-name="S" horiz-adv-x="931" unicode="S"/><glyph d="M811 1434v-93h-326v-1341h-106v1341h-328v93h760z" glyph-name="T" horiz-adv-x="862" unicode="T"/><glyph d="M643 -20q-254 0 -347 111.5t-93 369.5v973h106v-975q0 -225 73 -305t255 -80q190 0 258 86t68 299v975h106v-973q0 -279 -98.5 -380t-327.5 -101z" glyph-name="U" horiz-adv-x="1271" unicode="U"/><glyph d="M913 1434h111l-391 -1434h-170l-391 1434h110l348 -1342h35z" glyph-name="V" horiz-adv-x="1095" unicode="V"/><glyph d="M1546 1434h107l-285 -1434h-168l-323 1341h-29l-324 -1341h-168l-284 1434h106l254 -1342h33l313 1342h168l314 -1342h32z" glyph-name="W" horiz-adv-x="1732" unicode="W"/><glyph d="M897 0l-344 676h-33l-344 -676h-115l396 748l-363 686h115l309 -611h37l309 611h115l-363 -684l396 -750h-115z" glyph-name="X" horiz-adv-x="1073" unicode="X"/><glyph d="M1040 1434l-434 -871v-563h-106v555l-439 879h115l361 -748h28l361 748h114z" glyph-name="Y" horiz-adv-x="1101" unicode="Y"/><glyph d="M152 1434h749v-152l-702 -1151v-39h686v-92h-793v152l703 1151v38h-643v93z" glyph-name="Z" horiz-adv-x="1003" unicode="Z"/><glyph d="M578 1487h-263v-1723h263v-92h-369v1907h369v-92z" glyph-name="bracketleft" horiz-adv-x="628" unicode="["/><glyph d="M659 -102h-100l-547 1638h101z" glyph-name="backslash" horiz-adv-x="671" unicode="\"/><glyph d="M420 1579v-1907h-369v92h262v1723h-262v92h369z" glyph-name="bracketright" horiz-adv-x="628" unicode="]"/><glyph d="M766 567l-272 813h-17l-274 -813h-105l328 906h119l325 -906h-104z" glyph-name="asciicircum" horiz-adv-x="968" unicode="^"/><glyph d="M244 -166h901v-88h-901v88z" glyph-name="underscore" horiz-adv-x="1388" unicode="_"/><glyph d="M307 1296l-256 383h107l223 -383h-74z" glyph-name="grave" horiz-adv-x="446" unicode="`"/><glyph d="M485 1147q207 0 285 -97.5t78 -285.5v-768l-82 -8l-12 143h-15q-74 -152 -290 -151q-199 0 -276 83.5t-77 247.5q0 180 92.5 257t264.5 77h292v119q0 168 -64.5 230.5t-213.5 62.5q-94 0 -279 -35l-14 86q194 39 311 39zM451 70q154 0 224 80.5t70 289.5v115h-319 q-129 0 -177 -59.5t-48 -186.5q0 -135 63.5 -187t186.5 -52z" glyph-name="a" horiz-adv-x="1009" unicode="a"/><glyph d="M551 1147q213 0 323.5 -129t110.5 -465q0 -137 -18.5 -236.5t-64.5 -178.5t-130 -118.5t-207 -39.5q-209 0 -282 145h-15l-12 -139l-82 8v1542h102v-506h17q70 117 258 117zM567 70q168 0 241 103t73 388q0 266 -66.5 381t-249.5 115q-147 0 -218 -66.5t-71 -249.5v-356 q0 -178 70.5 -246.5t220.5 -68.5z" glyph-name="b" horiz-adv-x="1105" unicode="b"/><glyph d="M573 -20q-135 0 -226 39.5t-140 118.5t-69.5 177.5t-20.5 233.5q0 176 30.5 296t94 184.5t143.5 91t195 26.5q113 0 192 -27l-8 -90q-82 27 -203 27q-197 0 -268.5 -115t-71.5 -367q0 -207 40 -319.5t110.5 -149t193.5 -36.5q129 0 209 26l8 -90q-78 -26 -209 -26z" glyph-name="c" horiz-adv-x="890" unicode="c"/><glyph d="M829 1536h103v-1542l-82 -8l-12 139h-15q-74 -145 -282 -145q-123 0 -207 39.5t-130 118.5t-64.5 178.5t-18.5 236.5q0 336 110.5 465t323.5 129q188 0 258 -117h16v506zM537 70q150 0 221 68.5t71 246.5v356q0 182 -70.5 249t-217.5 67q-182 0 -249 -115t-67 -381 q0 -283 73 -387t239 -104z" glyph-name="d" horiz-adv-x="1105" unicode="d"/><glyph d="M221 524q6 -258 95.5 -356t269.5 -98q133 0 336 67l14 -88q-211 -70 -367 -69q-256 0 -354 148t-98 435q0 170 31.5 287t95 180.5t142.5 90t185 26.5q225 0 310.5 -142.5t85.5 -441.5v-39h-746zM571 1057q-193 0 -268.5 -103.5t-81.5 -341.5h643q-6 256 -73.5 350.5 t-219.5 94.5z" glyph-name="e" horiz-adv-x="1069" unicode="e"/><glyph d="M463 1458q-92 0 -123 -48t-31 -193v-91h254v-88h-254v-1038h-102v1038h-205v88h205v91q0 199 55 265t219 66q70 0 115 -16l-8 -88q-51 14 -125 14z" glyph-name="f" horiz-adv-x="581" unicode="f"/><glyph d="M567 203q276 0 380 -71t104 -220q0 -172 -117 -236.5t-367 -64.5q-272 0 -376.5 62.5t-104.5 199.5q0 186 164 242v14q-121 37 -121 156q0 70 82 139l39 35q-106 88 -107 293q0 223 99.5 309t292.5 86q113 0 188 -21h309v-47l-213 -39q121 -66 121 -268 q0 -223 -98.5 -308t-288.5 -85q-141 0 -231 39l-50 -43q-41 -33 -41 -84q0 -39 35 -63.5t101 -24.5h200zM547 1057q-174 0 -236.5 -65.5t-62.5 -229.5q0 -170 65.5 -231.5t229.5 -61.5q172 0 232.5 64.5t60.5 228.5q0 172 -63.5 233.5t-225.5 61.5zM575 -299q217 0 294 43 t77 166q0 119 -83 161t-294 42h-84q-170 -8 -233.5 -63.5t-61.5 -170.5q2 -98 80 -138t305 -40z" glyph-name="g" horiz-adv-x="1085" unicode="g"/><glyph d="M612 1147q203 0 277 -95.5t74 -328.5v-723h-103v719q0 197 -63.5 267.5t-221.5 70.5q-154 0 -226.5 -77t-72.5 -275v-705h-102v1536h102v-545h17q75 156 319 156z" glyph-name="h" horiz-adv-x="1124" unicode="h"/><glyph d="M160 1518h129v-129h-129v129zM276 1126v-1126h-102v1126h102z" glyph-name="i" horiz-adv-x="448" unicode="i"/><glyph d="M160 1389v129h129v-129h-129zM18 -389q-55 0 -104 12l8 90q51 -12 119 -12q80 0 106.5 45t26.5 176v1204h100v-1204q0 -172 -51 -241.5t-205 -69.5z" glyph-name="j" horiz-adv-x="448" unicode="j"/><glyph d="M801 0l-453 575h-72v-575h-102v1536h102v-872h72l414 462h115l-449 -508l490 -618h-117z" glyph-name="k" horiz-adv-x="917" unicode="k"/><glyph d="M408 -20q-139 0 -189.5 65.5t-50.5 216.5v1274h102v-1274q0 -113 27 -152.5t92 -39.5q76 0 125 12l8 -92q-42 -10 -114 -10z" glyph-name="l" horiz-adv-x="573" unicode="l"/><glyph d="M1251 1147q195 0 265.5 -95.5t70.5 -328.5v-723h-102v719q0 199 -59.5 268.5t-208.5 69.5q-145 0 -215 -77t-70 -275v-705h-103v719q0 199 -59 268.5t-209 69.5q-145 0 -215 -77t-70 -275v-705h-102v1130l82 9l14 -162h15q39 92 114.5 131t196.5 39q129 0 200.5 -40 t104.5 -130h14q45 92 127 131t209 39z" glyph-name="m" horiz-adv-x="1748" unicode="m"/><glyph d="M612 1147q203 0 277 -95.5t74 -328.5v-723h-103v719q0 197 -63.5 267.5t-221.5 70.5q-154 0 -226.5 -77t-72.5 -275v-705h-102v1130l82 9l14 -162h17q39 92 118.5 131t206.5 39z" glyph-name="n" horiz-adv-x="1124" unicode="n"/><glyph d="M573 -20q-258 0 -355 142t-97 441q0 172 28.5 288t90 180.5t140.5 90t193 25.5q254 0 351.5 -142.5t97.5 -441.5q0 -227 -55.5 -358t-148.5 -178t-245 -47zM573 70q201 0 273 109.5t72 383.5q0 289 -76 391.5t-269 102.5q-203 0 -275.5 -109.5t-72.5 -384.5 q0 -289 76.5 -391t271.5 -102z" glyph-name="o" horiz-adv-x="1142" unicode="o"/><glyph d="M565 1147q123 0 207 -40t130 -119t64.5 -178t18.5 -237q0 -336 -110.5 -464.5t-323.5 -128.5q-188 0 -258 116h-17v-465h-102v1502l82 8l12 -140h15q73 146 282 146zM565 70q182 0 249 114.5t67 380.5q0 285 -73 388.5t-241 103.5q-150 0 -220.5 -68.5t-70.5 -247.5v-356 q0 -182 71 -248.5t218 -66.5z" glyph-name="p" horiz-adv-x="1105" unicode="p"/><glyph d="M850 1141l82 -8v-1502h-103v465h-16q-70 -117 -258 -116q-213 0 -323.5 129t-110.5 464q0 137 18.5 236.5t64.5 178.5t130 119t207 40q209 0 282 -146h15zM541 70q147 0 217.5 66.5t70.5 248.5v356q0 178 -71.5 247t-220.5 69q-166 0 -239 -104.5t-73 -387.5 q0 -266 67 -380.5t249 -114.5z" glyph-name="q" horiz-adv-x="1052" unicode="q"/><glyph d="M612 1147q27 0 41 -2l-8 -113q-39 25 -115 25q-127 0 -190.5 -110.5t-63.5 -305.5v-641h-102v1130l82 9l14 -162h17q89 170 325 170z" glyph-name="r" horiz-adv-x="673" unicode="r"/><glyph d="M362 -20q-98 0 -260 22l9 92q143 -25 264 -24q141 0 193.5 45t52.5 139q0 109 -89 174l-319 236q-104 74 -104 217q0 150 83.5 208t245.5 58q98 0 246 -25l-8 -90q-143 25 -262 25q-115 0 -158 -43t-43 -133q0 -59 15.5 -91t62.5 -67l293 -213q141 -102 141 -250 q0 -160 -92.5 -220t-270.5 -60z" glyph-name="s" horiz-adv-x="817" unicode="s"/><glyph d="M578 1038h-261v-776q0 -113 26 -152.5t91 -39.5q74 0 127 12l8 -92q-43 -10 -110 -10q-141 0 -192.5 65.5t-51.5 216.5v776h-182v88h182v273h102v-273h261v-88z" glyph-name="t" horiz-adv-x="665" unicode="t"/><glyph d="M827 1126h103v-1130l-82 -8l-14 162h-15q-70 -170 -317 -170q-197 0 -268.5 95t-71.5 328v723h102v-718q0 -199 60.5 -268.5t214.5 -69.5q147 0 217.5 76.5t70.5 275.5v704z" glyph-name="u" horiz-adv-x="1103" unicode="u"/><glyph d="M791 1126h110l-348 -1126h-174l-348 1126h110l303 -1038h41z" glyph-name="v" horiz-adv-x="931" unicode="v"/><glyph d="M1438 1126h108l-286 -1126h-170l-299 1049h-3l-301 -1049h-170l-286 1126h108l252 -1048h27l299 1048h143l299 -1048h27z" glyph-name="w" horiz-adv-x="1576" unicode="w"/><glyph d="M811 0l-322 518h-14l-321 -518h-123l383 588l-340 538h121l282 -467h12l283 467h121l-340 -538l381 -588h-123z" glyph-name="x" horiz-adv-x="964" unicode="x"/><glyph d="M801 1126h110l-413 -1245q-45 -137 -127 -203.5t-224 -66.5q-25 0 -77 4l12 86q45 -4 65 -4q104 0 166 47t99 162l37 112h-60l-358 1108h110l316 -1020h18z" glyph-name="y" horiz-adv-x="942" unicode="y"/><glyph d="M184 88h576v-88h-678v141l559 867v30h-530v88h632v-137l-559 -866v-35z" glyph-name="z" horiz-adv-x="841" unicode="z"/><glyph d="M502 -238q76 0 135 25l8 -100q-53 -18 -129 -19q-135 0 -184 66.5t-49 216.5v473q0 100 -23.5 133t-95.5 35v94q72 0 95.5 33t23.5 135v465q0 150 49 215t184 65q82 0 129 -18l-8 -98q-61 23 -135 22q-66 0 -87.5 -36.5t-21.5 -149.5v-465q0 -160 -51 -213v-4 q51 -53 51 -213v-473q0 -113 21.5 -151t87.5 -38z" glyph-name="braceleft" horiz-adv-x="686" unicode="{"/><glyph d="M362 1653v-2042h-102v2042h102z" glyph-name="bar" horiz-adv-x="622" unicode="|"/><glyph d="M401 854q0 -100 25 -134t96 -34v-94q-72 -2 -96.5 -35t-24.5 -133v-473q0 -152 -49 -217.5t-182 -65.5q-76 0 -129 19l8 100q57 -25 135 -25q66 0 87.5 38t21.5 151v473q0 160 51 213v4q-51 53 -51 213v465q0 113 -21.5 149.5t-87.5 36.5q-74 0 -135 -22l-8 98 q45 18 129 18q135 0 183 -65.5t48 -214.5v-465z" glyph-name="braceright" horiz-adv-x="686" unicode="}"/><glyph d="M272 524l-75 25q0 100 61 161.5t154 61.5q74 0 145 -43l180 -106q55 -33 90 -33q92 0 125 151l78 -26q-2 -96 -58.5 -154.5t-148.5 -58.5q-57 0 -127 39l-180 104q-70 41 -106 41q-105 0 -138 -162z" glyph-name="asciitilde" horiz-adv-x="1228" unicode="~"/><glyph glyph-name="uni00A0" horiz-adv-x="450" unicode=" "/><glyph d="M225 1065h129v-129h-129v129zM262 623h57l29 -992h-115z" glyph-name="exclamdown" horiz-adv-x="579" unicode="¡"/><glyph d="M782 6q-80 -27 -194 -26v-185h-103v189q-207 25 -287.5 167t-80.5 398q0 305 92 439t276 155v188h103v-184q109 0 184 -27l-8 -90q-82 27 -203 27q-197 0 -268.5 -115t-71.5 -367q0 -207 40 -319.5t110.5 -149t193.5 -36.5q129 0 209 26z" glyph-name="cent" horiz-adv-x="890" unicode="¢"/><glyph d="M287 92h710v-92h-852v92q178 92 183 629h-183v92h183q-4 156 -4 209q0 250 84 341t278 91q113 0 256 -29l-10 -96q-168 31 -262 31q-137 0 -186.5 -75t-49.5 -263q0 -35 3 -110.5t3 -98.5h379v-92h-379q-2 -449 -153 -619v-10z" glyph-name="sterling" horiz-adv-x="1073" unicode="£"/><glyph d="M631 680v-27h323v-92h-323v-170h323v-92h-323v-299h-107v299h-321v92h321v170h-321v92h321v37l-426 744h115l354 -646h27l369 646h114z" glyph-name="yen" horiz-adv-x="1163" unicode="¥"/><glyph d="M260 879v774h102v-774h-102zM260 -389v774h102v-774h-102z" glyph-name="brokenbar" horiz-adv-x="622" unicode="¦"/><glyph d="M729 190q66 -53 92.5 -111.5t26.5 -146.5q0 -164 -102.5 -242.5t-278.5 -78.5q-137 0 -315 43l8 94q209 -45 321 -45q256 0 256 219q0 74 -21.5 116t-84.5 91l-350 268q-68 51 -94.5 105.5t-26.5 140.5q0 178 145 246v12l-24 19q-68 51 -94.5 104t-26.5 141 q0 289 389 289q113 0 270 -22l-8 -95q-166 25 -260 25q-139 0 -210 -42t-71 -149q0 -68 17.5 -104.5t70.5 -75.5l344 -262q82 -63 114 -121.5t32 -152.5q0 -174 -119 -254v-11zM270 651q0 -70 18.5 -105.5t71.5 -76.5l281 -213q96 51 96 188q0 76 -21.5 117t-84.5 90 l-228 174q-133 -35 -133 -174z" glyph-name="section" horiz-adv-x="1005" unicode="§"/><glyph d="M174 1518h127v-127h-127v127zM580 1518h127v-127h-127v127z" glyph-name="dieresis" horiz-adv-x="880" unicode="¨"/><glyph d="M854.5 -20q-319.5 0 -522.5 210.5t-203 526t203 526.5t522.5 211t523 -211t203.5 -526.5t-203.5 -526t-523 -210.5zM854 70q270 0 444.5 182t174.5 464.5t-174.5 465t-444.5 182.5q-268 0 -443 -182.5t-175 -465t175 -464.5t443 -182zM891 334q-162 0 -225.5 97 t-63.5 284q0 223 73 308t214 85q76 0 123 -21l-8 -96q-43 23 -113 23q-104 0 -142 -71t-38 -222q0 -168 44 -231.5t136 -63.5q72 0 115 25l16 -95q-49 -22 -131 -22z" glyph-name="copyright" horiz-adv-x="1712" unicode="©"/><glyph d="M416 1444q143 0 196.5 -66.5t53.5 -197.5v-531l-56 -4l-8 98h-10q-51 -104 -201 -104q-137 0 -190.5 58.5t-53.5 170.5q0 229 246 230h203v82q0 117 -45 159.5t-148 42.5q-63 0 -192 -24l-10 59q139 27 215 27zM391 700q106 0 155.5 56.5t49.5 199.5v80h-221 q-88 0 -122 -41t-34 -129q0 -94 44 -130t128 -36z" glyph-name="ordfeminine" horiz-adv-x="837" unicode="ª"/><glyph d="M446 891l-319 -316l319 -315v-129l-419 410v69l419 410v-129zM846 1020v-129l-320 -316l320 -315v-129l-420 410v69z" glyph-name="guillemotleft" horiz-adv-x="942" unicode="«"/><glyph d="M653 1444q211 0 347.5 -144.5t136.5 -353.5q0 -211 -136.5 -355.5t-347.5 -144.5t-347 144.5t-136 355.5q0 209 136 353.5t347 144.5zM653 508q180 0 296 124t116 314q0 188 -115.5 312t-296.5 124q-178 0 -294.5 -123.5t-116.5 -312.5q0 -190 116.5 -314t294.5 -124z M793 1063q0 -119 -95 -139l138 -228h-82l-129 222h-60v-222h-69v504h125q98 0 135 -31.5t37 -105.5zM565 1137v-156h64q53 0 73.5 17.5t20.5 62.5t-20.5 60.5t-73.5 15.5h-64z" glyph-name="registered" horiz-adv-x="1308" unicode="®"/><glyph d="M174 1493h494v-88h-494v88z" glyph-name="macron" horiz-adv-x="841" unicode="¯"/><glyph d="M512 909q-135 0 -221 86t-86 213q0 125 86 211t221 86t221 -86t86 -211q0 -127 -86 -213t-221 -86zM512 995q90 0 148.5 61.5t58.5 151.5t-58.5 151.5t-148.5 61.5t-148.5 -61.5t-58.5 -151.5t58.5 -151.5t148.5 -61.5z" glyph-name="degree" horiz-adv-x="1024" unicode="°"/><glyph d="M659 813h373v-92h-373v-334h-92v334h-372v92h372v334h92v-334zM195 115v92h837v-92h-837z" glyph-name="plusminus" horiz-adv-x="1228" unicode="±"/><glyph d="M188 735h418v-78h-518v97q0 84 29.5 138t95.5 107l236 191q57 45 57 129q0 82 -43 113.5t-139 31.5q-74 0 -197 -18l-6 82q129 18 198 18q154 0 219.5 -57t65.5 -168q0 -117 -88 -188l-248 -205q-80 -68 -80 -172v-21z" glyph-name="uni00B2" horiz-adv-x="714" unicode="²"/><glyph d="M477 1112q113 -49 113 -209q0 -145 -69.5 -200.5t-233.5 -55.5q-141 0 -209 31l8 82q63 -33 199 -33q125 0 166 40t41 148q0 94 -40 127t-149 33h-123v80h123q98 0 131 29.5t33 113.5q0 104 -35 136t-141 32q-135 0 -193 -30l-8 84q70 29 195 28q166 0 224 -54t58 -177 q0 -150 -90 -195v-10z" glyph-name="uni00B3" horiz-adv-x="712" unicode="³"/><glyph d="M66 1296l223 383h106l-256 -383h-73z" glyph-name="acute" horiz-adv-x="446" unicode="´"/><glyph d="M987 1434v-1803h-106v1710h-185v-1710h-106v951h-21q-258 0 -377.5 106.5t-119.5 355.5q0 209 104.5 299.5t392.5 90.5h418z" glyph-name="paragraph" horiz-adv-x="1247" unicode="¶"/><glyph d="M244 539v153h143v-153h-143z" glyph-name="periodcentered" horiz-adv-x="630" unicode="·"/><glyph d="M246 -129q111 -2 153.5 -45t42.5 -127q0 -90 -48 -140.5t-173 -50.5q-59 0 -108 17l8 86q51 -18 112.5 -18.5t89 22.5t27.5 86q0 90 -90 90h-104l53 262h84z" glyph-name="cedilla" horiz-adv-x="542" unicode="¸"/><glyph d="M362 739h175v-80h-459v80h188v723l-182 -49l-12 72l194 51h96v-797z" glyph-name="uni00B9" horiz-adv-x="587" unicode="¹"/><glyph d="M496 639q-176 0 -244 98.5t-68 302.5q0 231 76 317.5t236 86.5q176 0 242.5 -98.5t66.5 -305.5q0 -229 -75.5 -315t-233.5 -86zM496 700q139 0 188 76t49 264q0 199 -53 270.5t-184 71.5q-141 0 -190.5 -75.5t-49.5 -266.5q0 -199 53.5 -269.5t186.5 -70.5z" glyph-name="ordmasculine" horiz-adv-x="989" unicode="º"/><glyph d="M516 541l-420 -410v129l320 315l-320 316v129l420 -410v-69zM496 1020l419 -410v-69l-419 -410v129l319 315l-319 316v129z" glyph-name="guillemotright" horiz-adv-x="942" unicode="»"/><glyph d="M1030 1475h100l-595 -1516h-101zM465 637v-80h-445v80h181v723l-174 -49l-13 71l187 52h96v-797h168zM1579 313v-80h-123v-233h-96v233h-365v123l271 521h100l-274 -529v-35h268v308h96v-308h123z" glyph-name="onequarter" horiz-adv-x="1611" unicode="¼"/><glyph d="M1030 1475h100l-595 -1516h-101zM465 637v-80h-445v80h181v723l-174 -49l-13 71l187 52h96v-797h168zM1174 98v-18h391v-80h-492v98q0 86 30 141.5t97 112.5l215 185q51 45 51 129q0 82 -40 112.5t-128 30.5q-70 0 -184 -18l-8 81q121 18 188 19q272 0 273 -225 q0 -115 -84 -189l-228 -198q-81 -75 -81 -181z" glyph-name="onehalf" horiz-adv-x="1634" unicode="½"/><glyph d="M1004 1475h100l-596 -1516h-100zM537 801q0 -147 -70 -201.5t-223 -54.5q-131 0 -199 30l6 80q70 -29 193 -28q117 0 154.5 39t37.5 145q0 98 -37 131t-143 33h-109v80h109q96 0 128 29.5t32 113.5q0 102 -34 135t-136 33q-119 0 -180 -29l-9 82q63 29 185 29 q158 0 215 -54.5t57 -176.5q0 -152 -92 -197v-10q115 -45 115 -209zM1552 313v-80h-122v-233h-97v233h-364v123l270 521h100l-274 -529v-35h268v308h97v-308h122z" glyph-name="threequarters" horiz-adv-x="1585" unicode="¾"/><glyph d="M506 936v129h129v-129h-129zM496 -389q-227 0 -315.5 81t-88.5 238q0 156 137 263l193 151q68 53 91.5 97t25.5 122l2 60h57l4 -66q4 -106 -23.5 -164.5t-115.5 -128.5l-160 -127q-57 -45 -78.5 -91t-21.5 -114q0 -131 69.5 -179t231.5 -48q94 0 260 25l8 -92 q-174 -27 -276 -27z" glyph-name="questiondown" horiz-adv-x="874" unicode="¿"/><glyph d="M627 1604h-74l-256 383h106zM995 0l-116 424h-580l-117 -424h-110l411 1434h211l412 -1434h-111zM324 516h530l-227 825h-76z" glyph-name="Agrave" horiz-adv-x="1177" unicode="À"/><glyph d="M883 1987l-256 -383h-74l223 383h107zM995 0l-116 424h-580l-117 -424h-110l411 1434h211l412 -1434h-111zM324 516h530l-227 825h-76z" glyph-name="Aacute" horiz-adv-x="1177" unicode="Á"/><glyph d="M594 1915l-254 -320h-74l273 383h110l271 -383h-74zM995 0l-116 424h-580l-117 -424h-110l411 1434h211l412 -1434h-111zM324 516h530l-227 825h-76z" glyph-name="Acircumflex" horiz-adv-x="1177" unicode="Â"/><glyph d="M465 1790q-35 0 -57.5 -27.5t-32.5 -103.5h-70q0 92 42 147.5t114 55.5q63 0 117 -39l100 -74q25 -18 51 -18q72 0 90 133h70q0 -92 -43 -148.5t-115 -56.5q-53 0 -115 43l-98 70q-28 18 -53 18zM995 0l-116 424h-580l-117 -424h-110l411 1434h211l412 -1434h-111z M324 516h530l-227 825h-76z" glyph-name="Atilde" horiz-adv-x="1177" unicode="Ã"/><glyph d="M453 1825v-127h-127v127h127zM858 1825v-127h-127v127h127zM995 0l-116 424h-580l-117 -424h-110l411 1434h211l412 -1434h-111zM324 516h530l-227 825h-76z" glyph-name="Adieresis" horiz-adv-x="1177" unicode="Ä"/><glyph d="M594 1595q-125 0 -172 51.5t-47 149.5q0 111 56 155t163 44q125 0 172 -50.5t47 -148.5q0 -113 -56.5 -157t-162.5 -44zM594 1931q-74 0 -108.5 -29.5t-34.5 -105.5q0 -70 30.5 -102.5t112.5 -32.5q74 0 108.5 28.5t34.5 106.5q0 70 -30.5 102.5t-112.5 32.5zM995 0 l-116 424h-580l-117 -424h-110l411 1434h211l412 -1434h-111zM324 516h530l-227 825h-76z" glyph-name="Aring" horiz-adv-x="1177" unicode="Å"/><glyph d="M731 92h561v-92h-667v424h-367l-135 -424h-105l467 1434h783v-93h-537v-553h506v-92h-506v-604zM287 516h338v825h-76z" glyph-name="AE" horiz-adv-x="1400" unicode="Æ"/><glyph d="M530 -129q111 -2 154 -45t43 -127q0 -90 -48 -140.5t-173 -50.5q-59 0 -109 17l9 86q51 -18 112.5 -18.5t89 22.5t27.5 86q0 90 -90 90h-105l45 217q-186 59 -262 234.5t-76 464.5q0 219 38 368.5t113 230t168 114.5t222 34q139 0 238 -39l-8 -96q-90 41 -224 41 q-248 0 -342 -156.5t-94 -486.5q0 -190 27.5 -317.5t87 -198t135.5 -99t186 -28.5q137 0 232 45l16 -94q-92 -45 -246 -45q-68 0 -135 10z" glyph-name="Ccedilla" horiz-adv-x="1054" unicode="Ç"/><glyph d="M584 1604h-74l-256 383h106zM324 92h563v-92h-670v1434h645v-93h-538v-553h507v-92h-507v-604z" glyph-name="Egrave" horiz-adv-x="995" unicode="È"/><glyph d="M840 1987l-256 -383h-74l223 383h107zM324 92h563v-92h-670v1434h645v-93h-538v-553h507v-92h-507v-604z" glyph-name="Eacute" horiz-adv-x="995" unicode="É"/><glyph d="M551 1915l-254 -320h-74l273 383h110l271 -383h-74zM324 92h563v-92h-670v1434h645v-93h-538v-553h507v-92h-507v-604z" glyph-name="Ecircumflex" horiz-adv-x="995" unicode="Ê"/><glyph d="M410 1825v-127h-127v127h127zM815 1825v-127h-127v127h127zM324 92h563v-92h-670v1434h645v-93h-538v-553h507v-92h-507v-604z" glyph-name="Edieresis" horiz-adv-x="995" unicode="Ë"/><glyph d="M229 1604l-256 383h107l223 -383h-74zM324 1434v-1434h-107v1434h107z" glyph-name="Igrave" horiz-adv-x="540" unicode="Ì"/><glyph d="M229 1604l224 383h106l-256 -383h-74zM324 1434v-1434h-107v1434h107z" glyph-name="Iacute" horiz-adv-x="540" unicode="Í"/><glyph d="M326 1978l270 -383h-74l-252 320l-254 -320h-73l272 383h111zM217 0v1434h107v-1434h-107z" glyph-name="Icircumflex" horiz-adv-x="540" unicode="Î"/><glyph d="M2 1825h127v-127h-127v127zM408 1825h127v-127h-127v127zM324 1434v-1434h-107v1434h107z" glyph-name="Idieresis" horiz-adv-x="540" unicode="Ï"/><glyph d="M614 1434q160 0 268.5 -50.5t167 -148.5t83 -222t24.5 -296q0 -209 -38 -352.5t-112.5 -221t-169 -110.5t-223.5 -33h-397v670h-156v92h156v672h397zM614 82q127 0 213 45t133.5 133t67 197.5t19.5 259.5q0 188 -30 316t-90.5 195.5t-134 95.5t-178.5 28h-290v-590h362 v-92h-362v-588h290z" glyph-name="Eth" horiz-adv-x="1300" unicode="Ð"/><glyph d="M539 1790q-35 0 -57.5 -27.5t-32.5 -103.5h-70q0 92 42 147.5t114 55.5q63 0 116 -39l101 -74q25 -18 51 -18q72 0 90 133h70q0 -92 -43 -148.5t-115 -56.5q-53 0 -115 43l-98 70q-28 18 -53 18zM1010 1434h106v-1434h-205l-561 1341h-26v-1341h-107v1434h205l561 -1342 h27v1342z" glyph-name="Ntilde" horiz-adv-x="1333" unicode="Ñ"/><glyph d="M641 1604l-256 383h107l223 -383h-74zM684 -20q-156 0 -261.5 47t-163.5 146t-81.5 228t-23.5 316q0 217 33.5 363.5t104 227.5t164 113.5t228.5 32.5q301 0 413.5 -179t112.5 -558q0 -217 -33.5 -363.5t-104.5 -227.5t-163 -113.5t-225 -32.5zM684 74q240 0 328 149.5 t88 493.5q0 254 -47 396t-133 194.5t-236 52.5q-242 0 -331 -149.5t-89 -493.5q0 -254 47 -396.5t135 -194.5t238 -52z" glyph-name="Ograve" horiz-adv-x="1363" unicode="Ò"/><glyph d="M641 1604l223 383h107l-256 -383h-74zM684 -20q-156 0 -261.5 47t-163.5 146t-81.5 228t-23.5 316q0 217 33.5 363.5t104 227.5t164 113.5t228.5 32.5q301 0 413.5 -179t112.5 -558q0 -217 -33.5 -363.5t-104.5 -227.5t-163 -113.5t-225 -32.5zM684 74q240 0 328 149.5 t88 493.5q0 254 -47 396t-133 194.5t-236 52.5q-242 0 -331 -149.5t-89 -493.5q0 -254 47 -396.5t135 -194.5t238 -52z" glyph-name="Oacute" horiz-adv-x="1363" unicode="Ó"/><glyph d="M682 1915l-254 -320h-74l273 383h110l271 -383h-74zM684 1454q301 0 413.5 -179t112.5 -558q0 -217 -33.5 -363.5t-104.5 -227.5t-163 -113.5t-225 -32.5q-156 0 -261.5 47t-163.5 146t-81.5 228t-23.5 316q0 217 33.5 363.5t104 227.5t164 113.5t228.5 32.5zM684 74 q240 0 328 149.5t88 493.5q0 254 -47 396t-133 194.5t-236 52.5q-242 0 -331 -149.5t-89 -493.5q0 -254 47 -396.5t135 -194.5t238 -52z" glyph-name="Ocircumflex" horiz-adv-x="1363" unicode="Ô"/><glyph d="M819 1659q-53 0 -114 43l-99 70q-27 18 -53 18q-35 0 -57.5 -27.5t-32.5 -103.5h-70q0 92 42 147.5t114 55.5q63 0 117 -39l100 -74q25 -18 51 -18q72 0 90 133h70q0 -92 -43 -148.5t-115 -56.5zM684 -20q-156 0 -261.5 47t-163.5 146t-81.5 228t-23.5 316 q0 217 33.5 363.5t104 227.5t164 113.5t228.5 32.5q301 0 413.5 -179t112.5 -558q0 -217 -33.5 -363.5t-104.5 -227.5t-163 -113.5t-225 -32.5zM684 74q240 0 328 149.5t88 493.5q0 254 -47 396t-133 194.5t-236 52.5q-242 0 -331 -149.5t-89 -493.5q0 -254 47 -396.5 t135 -194.5t238 -52z" glyph-name="Otilde" horiz-adv-x="1363" unicode="Õ"/><glyph d="M414 1825h127v-127h-127v127zM819 1825h127v-127h-127v127zM684 -20q-156 0 -261.5 47t-163.5 146t-81.5 228t-23.5 316q0 217 33.5 363.5t104 227.5t164 113.5t228.5 32.5q301 0 413.5 -179t112.5 -558q0 -217 -33.5 -363.5t-104.5 -227.5t-163 -113.5t-225 -32.5z M684 74q240 0 328 149.5t88 493.5q0 254 -47 396t-133 194.5t-236 52.5q-242 0 -331 -149.5t-89 -493.5q0 -254 47 -396.5t135 -194.5t238 -52z" glyph-name="Odieresis" horiz-adv-x="1363" unicode="Ö"/><glyph d="M973 868l-293 -293l293 -292l-66 -66l-293 293l-292 -293l-66 66l293 292l-293 293l66 66l292 -293l293 293z" glyph-name="multiply" horiz-adv-x="1228" unicode="×"/><glyph d="M987 1382q123 -78 173 -240.5t50 -424.5q0 -217 -33.5 -363.5t-104.5 -227.5t-163 -113.5t-225 -32.5q-125 0 -223 32l-45 -114h-99l60 155q-123 78 -173 241t-50 423q0 217 33.5 363.5t104 227.5t164 113.5t228.5 32.5q129 0 219 -33l45 115h99zM264 717 q0 -438 152 -565l454 1179q-74 29 -186 29q-242 0 -331 -149.5t-89 -493.5zM684 74q240 0 328 149.5t88 493.5q0 438 -150 567l-454 -1182q73 -28 188 -28z" glyph-name="Oslash" horiz-adv-x="1363" unicode="Ø"/><glyph d="M596 1604l-256 383h106l224 -383h-74zM643 -20q-254 0 -347 111.5t-93 369.5v973h106v-975q0 -225 73 -305t255 -80q190 0 258 86t68 299v975h106v-973q0 -279 -98.5 -380t-327.5 -101z" glyph-name="Ugrave" horiz-adv-x="1271" unicode="Ù"/><glyph d="M596 1604l223 383h107l-256 -383h-74zM643 -20q-254 0 -347 111.5t-93 369.5v973h106v-975q0 -225 73 -305t255 -80q190 0 258 86t68 299v975h106v-973q0 -279 -98.5 -380t-327.5 -101z" glyph-name="Uacute" horiz-adv-x="1271" unicode="Ú"/><glyph d="M637 1915l-254 -320h-74l273 383h110l271 -383h-74zM963 1434h106v-973q0 -279 -98.5 -380t-327.5 -101q-254 0 -347 111.5t-93 369.5v973h106v-975q0 -225 73 -305t255 -80q190 0 258 86t68 299v975z" glyph-name="Ucircumflex" horiz-adv-x="1271" unicode="Û"/><glyph d="M369 1825h127v-127h-127v127zM774 1825h127v-127h-127v127zM643 -20q-254 0 -347 111.5t-93 369.5v973h106v-975q0 -225 73 -305t255 -80q190 0 258 86t68 299v975h106v-973q0 -279 -98.5 -380t-327.5 -101z" glyph-name="Udieresis" horiz-adv-x="1271" unicode="Ü"/><glyph d="M840 1987l-256 -383h-74l223 383h107zM1040 1434l-434 -871v-563h-106v555l-439 879h115l361 -748h28l361 748h114z" glyph-name="Yacute" horiz-adv-x="1101" unicode="Ý"/><glyph d="M530 1161q248 0 344.5 -97t96.5 -284q0 -250 -111.5 -346t-329.5 -96h-206v-338h-107v1434h107v-273h206zM530 420q188 0 259 85t71 263q0 176 -81 243.5t-249 67.5h-206v-659h206z" glyph-name="Thorn" horiz-adv-x="1073" unicode="Þ"/><glyph d="M743 -20q-98 0 -256 22l9 92q137 -25 258 -24q135 0 186 45t51 139q0 92 -82 174l-164 160q-59 57 -79.5 107t-20.5 116q0 59 25.5 106.5t87 108.5t82 100t20.5 97q0 236 -264 235q-180 0 -250 -88t-70 -258v-1112h-102v1112q0 436 414 436q174 0 274.5 -79.5 t100.5 -237.5q0 -55 -20.5 -104.5t-47.5 -83t-88 -105.5q-57 -66 -57 -127q0 -57 12 -89t47 -67l152 -145q135 -131 135 -250q0 -160 -89.5 -220t-263.5 -60z" glyph-name="germandbls" horiz-adv-x="1198" unicode="ß"/><glyph d="M553 1296h-74l-256 383h107zM485 1147q207 0 285 -97.5t78 -285.5v-768l-82 -8l-12 143h-15q-74 -152 -290 -151q-199 0 -276 83.5t-77 247.5q0 180 92.5 257t264.5 77h292v119q0 168 -64.5 230.5t-213.5 62.5q-94 0 -279 -35l-14 86q194 39 311 39zM451 70 q154 0 224 80.5t70 289.5v115h-319q-129 0 -177 -59.5t-48 -186.5q0 -135 63.5 -187t186.5 -52z" glyph-name="agrave" horiz-adv-x="1009" unicode="à"/><glyph d="M809 1679l-256 -383h-74l223 383h107zM485 1147q207 0 285 -97.5t78 -285.5v-768l-82 -8l-12 143h-15q-74 -152 -290 -151q-199 0 -276 83.5t-77 247.5q0 180 92.5 257t264.5 77h292v119q0 168 -64.5 230.5t-213.5 62.5q-94 0 -279 -35l-14 86q194 39 311 39zM451 70 q154 0 224 80.5t70 289.5v115h-319q-129 0 -177 -59.5t-48 -186.5q0 -135 63.5 -187t186.5 -52z" glyph-name="aacute" horiz-adv-x="1009" unicode="á"/><glyph d="M520 1608l-254 -320h-73l272 383h110l271 -383h-74zM485 1147q207 0 285 -97.5t78 -285.5v-768l-82 -8l-12 143h-15q-74 -152 -290 -151q-199 0 -276 83.5t-77 247.5q0 180 92.5 257t264.5 77h292v119q0 168 -64.5 230.5t-213.5 62.5q-94 0 -279 -35l-14 86 q194 39 311 39zM451 70q154 0 224 80.5t70 289.5v115h-319q-129 0 -177 -59.5t-48 -186.5q0 -135 63.5 -187t186.5 -52z" glyph-name="acircumflex" horiz-adv-x="1009" unicode="â"/><glyph d="M391 1483q-35 0 -57.5 -28t-32.5 -103h-70q0 92 42 147t114 55q63 0 117 -38l100 -74q25 -18 51 -19q72 0 90 133h70q0 -92 -43 -148t-115 -56q-53 0 -114 43l-99 69q-26 19 -53 19zM485 1147q207 0 285 -97.5t78 -285.5v-768l-82 -8l-12 143h-15q-74 -152 -290 -151 q-199 0 -276 83.5t-77 247.5q0 180 92.5 257t264.5 77h292v119q0 168 -64.5 230.5t-213.5 62.5q-94 0 -279 -35l-14 86q194 39 311 39zM451 70q154 0 224 80.5t70 289.5v115h-319q-129 0 -177 -59.5t-48 -186.5q0 -135 63.5 -187t186.5 -52z" glyph-name="atilde" horiz-adv-x="1009" unicode="ã"/><glyph d="M379 1518v-127h-127v127h127zM784 1518v-127h-127v127h127zM485 1147q207 0 285 -97.5t78 -285.5v-768l-82 -8l-12 143h-15q-74 -152 -290 -151q-199 0 -276 83.5t-77 247.5q0 180 92.5 257t264.5 77h292v119q0 168 -64.5 230.5t-213.5 62.5q-94 0 -279 -35l-14 86 q194 39 311 39zM451 70q154 0 224 80.5t70 289.5v115h-319q-129 0 -177 -59.5t-48 -186.5q0 -135 63.5 -187t186.5 -52z" glyph-name="adieresis" horiz-adv-x="1009" unicode="ä"/><glyph d="M520 1288q-125 0 -172 51.5t-47 149.5q0 111 56.5 155t162.5 44q125 0 172 -50.5t47 -148.5q0 -113 -56.5 -157t-162.5 -44zM520 1624q-74 0 -108.5 -29.5t-34.5 -105.5q0 -70 30.5 -102.5t112.5 -32.5q74 0 109 28.5t35 106.5q0 70 -31 102.5t-113 32.5zM485 1147 q207 0 285 -97.5t78 -285.5v-768l-82 -8l-12 143h-15q-74 -152 -290 -151q-199 0 -276 83.5t-77 247.5q0 180 92.5 257t264.5 77h292v119q0 168 -64.5 230.5t-213.5 62.5q-94 0 -279 -35l-14 86q194 39 311 39zM451 70q154 0 224 80.5t70 289.5v115h-319q-129 0 -177 -59.5 t-48 -186.5q0 -135 63.5 -187t186.5 -52z" glyph-name="aring" horiz-adv-x="1009" unicode="å"/><glyph d="M819 524q6 -258 95.5 -356t269.5 -98q133 0 336 67l14 -88q-211 -70 -367 -69q-309 0 -403 241h-14q-59 -242 -332 -241q-199 0 -275.5 83.5t-76.5 247.5q0 180 92 257t264 77h293v119q0 168 -64.5 230.5t-214.5 62.5q-94 0 -278 -35l-15 86q195 39 312 39 q270 0 336 -189q104 188 380 189q225 0 309.5 -141.5t84.5 -442.5v-39h-746zM1171 1057q-195 0 -270.5 -103.5t-81.5 -341.5h643q-6 256 -73.5 350.5t-217.5 94.5zM420 70q154 0 224.5 80.5t70.5 289.5v115h-320q-129 0 -177 -59.5t-48 -186.5q0 -135 63.5 -187t186.5 -52z " glyph-name="ae" horiz-adv-x="1667" unicode="æ"/><glyph d="M485 -129q111 -2 154 -45t43 -127q0 -90 -48 -140.5t-173 -50.5q-59 0 -109 17l8 86q51 -18 113 -18.5t89.5 22.5t27.5 86q0 90 -90 90h-105l41 201q-123 27 -195.5 105.5t-98 186t-25.5 265.5q0 176 30.5 296t94 184.5t143.5 91t195 26.5q113 0 192 -27l-8 -90 q-82 27 -203 27q-197 0 -268.5 -115t-71.5 -367q0 -207 40 -319.5t110.5 -149t193.5 -36.5q129 0 209 26l8 -90q-78 -27 -209 -26q-41 0 -59 2z" glyph-name="ccedilla" horiz-adv-x="890" unicode="ç"/><glyph d="M573 1296h-73l-256 383h106zM221 524q6 -258 95.5 -356t269.5 -98q133 0 336 67l14 -88q-211 -70 -367 -69q-256 0 -354 148t-98 435q0 170 31.5 287t95 180.5t142.5 90t185 26.5q225 0 310.5 -142.5t85.5 -441.5v-39h-746zM571 1057q-193 0 -268.5 -103.5t-81.5 -341.5 h643q-6 256 -73.5 350.5t-219.5 94.5z" glyph-name="egrave" horiz-adv-x="1069" unicode="è"/><glyph d="M829 1679l-256 -383h-73l223 383h106zM221 524q6 -258 95.5 -356t269.5 -98q133 0 336 67l14 -88q-211 -70 -367 -69q-256 0 -354 148t-98 435q0 170 31.5 287t95 180.5t142.5 90t185 26.5q225 0 310.5 -142.5t85.5 -441.5v-39h-746zM571 1057q-193 0 -268.5 -103.5 t-81.5 -341.5h643q-6 256 -73.5 350.5t-219.5 94.5z" glyph-name="eacute" horiz-adv-x="1069" unicode="é"/><glyph d="M541 1608l-254 -320h-74l272 383h111l270 -383h-73zM221 524q6 -258 95.5 -356t269.5 -98q133 0 336 67l14 -88q-211 -70 -367 -69q-256 0 -354 148t-98 435q0 170 31.5 287t95 180.5t142.5 90t185 26.5q225 0 310.5 -142.5t85.5 -441.5v-39h-746zM571 1057 q-193 0 -268.5 -103.5t-81.5 -341.5h643q-6 256 -73.5 350.5t-219.5 94.5z" glyph-name="ecircumflex" horiz-adv-x="1069" unicode="ê"/><glyph d="M399 1518v-127h-127v127h127zM805 1518v-127h-127v127h127zM221 524q6 -258 95.5 -356t269.5 -98q133 0 336 67l14 -88q-211 -70 -367 -69q-256 0 -354 148t-98 435q0 170 31.5 287t95 180.5t142.5 90t185 26.5q225 0 310.5 -142.5t85.5 -441.5v-39h-746zM571 1057 q-193 0 -268.5 -103.5t-81.5 -341.5h643q-6 256 -73.5 350.5t-219.5 94.5z" glyph-name="edieresis" horiz-adv-x="1069" unicode="ë"/><glyph d="M186 1296l-256 383h107l223 -383h-74zM276 1126v-1126h-102v1126h102z" glyph-name="igrave" horiz-adv-x="448" unicode="ì"/><glyph d="M186 1296l224 383h106l-256 -383h-74zM276 1126v-1126h-102v1126h102z" glyph-name="iacute" horiz-adv-x="448" unicode="í"/><glyph d="M283 1671l270 -383h-74l-252 320l-254 -320h-73l272 383h111zM174 0v1126h102v-1126h-102z" glyph-name="icircumflex" horiz-adv-x="448" unicode="î"/><glyph d="M-41 1518h127v-127h-127v127zM365 1518h127v-127h-127v127zM276 1126v-1126h-102v1126h102z" glyph-name="idieresis" horiz-adv-x="448" unicode="ï"/><glyph d="M811 1192q150 -281 150 -655q0 -217 -51.5 -342t-137.5 -170t-225 -45q-250 0 -343 130t-93 400q0 217 51 343t136 171t222 45q166 0 248 -65h18q-33 78 -55 116q-47 86 -100 156l-297 -76l-29 86l268 70q-88 115 -155 194h145q74 -92 125 -164l186 48l31 -86l-162 -41 q43 -68 68 -115zM539 70q190 0 253.5 89t63.5 378q0 170 -18 274q-29 94 -101.5 131t-204.5 37q-188 0 -252.5 -90t-64.5 -367q0 -274 65.5 -363t258.5 -89z" glyph-name="eth" horiz-adv-x="1091" unicode="ð"/><glyph d="M434 1483q-35 0 -57.5 -28t-32.5 -103h-70q0 92 42 147t114 55q63 0 117 -38l100 -74q25 -18 51 -19q72 0 90 133h70q0 -92 -43 -148t-115 -56q-53 0 -114 43l-99 69q-26 19 -53 19zM612 1147q203 0 277 -95.5t74 -328.5v-723h-103v719q0 197 -63.5 267.5t-221.5 70.5 q-154 0 -226.5 -77t-72.5 -275v-705h-102v1130l82 9l14 -162h17q39 92 118.5 131t206.5 39z" glyph-name="ntilde" horiz-adv-x="1124" unicode="ñ"/><glyph d="M532 1296l-256 383h107l223 -383h-74zM573 -20q-258 0 -355 142t-97 441q0 172 28.5 288t90 180.5t140.5 90t193 25.5q254 0 351.5 -142.5t97.5 -441.5q0 -227 -55.5 -358t-148.5 -178t-245 -47zM573 70q201 0 273 109.5t72 383.5q0 289 -76 391.5t-269 102.5 q-203 0 -275.5 -109.5t-72.5 -384.5q0 -289 76.5 -391t271.5 -102z" glyph-name="ograve" horiz-adv-x="1142" unicode="ò"/><glyph d="M532 1296l224 383h106l-256 -383h-74zM573 -20q-258 0 -355 142t-97 441q0 172 28.5 288t90 180.5t140.5 90t193 25.5q254 0 351.5 -142.5t97.5 -441.5q0 -227 -55.5 -358t-148.5 -178t-245 -47zM573 70q201 0 273 109.5t72 383.5q0 289 -76 391.5t-269 102.5 q-203 0 -275.5 -109.5t-72.5 -384.5q0 -289 76.5 -391t271.5 -102z" glyph-name="oacute" horiz-adv-x="1142" unicode="ó"/><glyph d="M573 1608l-254 -320h-73l272 383h111l270 -383h-74zM573 1147q254 0 351.5 -142.5t97.5 -441.5q0 -227 -55.5 -358t-148.5 -178t-245 -47q-258 0 -355 142t-97 441q0 172 28.5 288t90 180.5t140 90t193.5 25.5zM573 70q201 0 273 109.5t72 383.5q0 289 -76 391.5 t-269 102.5q-203 0 -275.5 -109.5t-72.5 -384.5q0 -289 76.5 -391t271.5 -102z" glyph-name="ocircumflex" horiz-adv-x="1142" unicode="ô"/><glyph d="M711 1352q-53 0 -115 43l-98 69q-27 18 -54 19q-35 0 -57 -28t-33 -103h-69q0 92 42 147t113 55q63 0 117 -38l100 -74q25 -18 52 -19q72 0 90 133h69q0 -92 -42.5 -148t-114.5 -56zM573 -20q-258 0 -355 142t-97 441q0 172 28.5 288t90 180.5t140.5 90t193 25.5 q254 0 351.5 -142.5t97.5 -441.5q0 -227 -55.5 -358t-148.5 -178t-245 -47zM573 70q201 0 273 109.5t72 383.5q0 289 -76 391.5t-269 102.5q-203 0 -275.5 -109.5t-72.5 -384.5q0 -289 76.5 -391t271.5 -102z" glyph-name="otilde" horiz-adv-x="1142" unicode="õ"/><glyph d="M305 1518h127v-127h-127v127zM711 1518h127v-127h-127v127zM573 -20q-258 0 -355 142t-97 441q0 172 28.5 288t90 180.5t140.5 90t193 25.5q254 0 351.5 -142.5t97.5 -441.5q0 -227 -55.5 -358t-148.5 -178t-245 -47zM573 70q201 0 273 109.5t72 383.5q0 289 -76 391.5 t-269 102.5q-203 0 -275.5 -109.5t-72.5 -384.5q0 -289 76.5 -391t271.5 -102z" glyph-name="odieresis" horiz-adv-x="1142" unicode="ö"/><glyph d="M541 827v144h143v-144h-143zM195 528v93h837v-93h-837zM541 178v144h143v-144h-143z" glyph-name="divide" horiz-adv-x="1228" unicode="÷"/><glyph d="M825 1094q109 -61 153 -191.5t44 -339.5q0 -227 -55.5 -358t-148.5 -178t-245 -47q-100 0 -170 20l-38 -102h-99l53 137q-111 59 -154.5 189t-43.5 339q0 172 28.5 288t90 180.5t140.5 90t193 25.5q98 0 166 -21l39 103h99zM225 563q0 -186 30 -290.5t97 -151.5l355 921 q-55 14 -134 15q-203 0 -275.5 -110t-72.5 -384zM573 70q201 0 273 109.5t72 383.5q0 186 -30 290.5t-97 152.5l-355 -922q55 -14 137 -14z" glyph-name="oslash" horiz-adv-x="1142" unicode="ø"/><glyph d="M586 1296h-74l-256 383h106zM827 1126h103v-1130l-82 -8l-14 162h-15q-70 -170 -317 -170q-197 0 -268.5 95t-71.5 328v723h102v-718q0 -199 60.5 -268.5t214.5 -69.5q147 0 217.5 76.5t70.5 275.5v704z" glyph-name="ugrave" horiz-adv-x="1103" unicode="ù"/><glyph d="M842 1679l-256 -383h-74l223 383h107zM827 1126h103v-1130l-82 -8l-14 162h-15q-70 -170 -317 -170q-197 0 -268.5 95t-71.5 328v723h102v-718q0 -199 60.5 -268.5t214.5 -69.5q147 0 217.5 76.5t70.5 275.5v704z" glyph-name="uacute" horiz-adv-x="1103" unicode="ú"/><glyph d="M553 1608l-254 -320h-74l273 383h110l271 -383h-74zM827 1126h103v-1130l-82 -8l-14 162h-15q-70 -170 -317 -170q-197 0 -268.5 95t-71.5 328v723h102v-718q0 -199 60.5 -268.5t214.5 -69.5q147 0 217.5 76.5t70.5 275.5v704z" glyph-name="ucircumflex" horiz-adv-x="1103" unicode="û"/><glyph d="M412 1518v-127h-127v127h127zM817 1518v-127h-127v127h127zM827 1126h103v-1130l-82 -8l-14 162h-15q-70 -170 -317 -170q-197 0 -268.5 95t-71.5 328v723h102v-718q0 -199 60.5 -268.5t214.5 -69.5q147 0 217.5 76.5t70.5 275.5v704z" glyph-name="udieresis" horiz-adv-x="1103" unicode="ü"/><glyph d="M760 1679l-256 -383h-74l223 383h107zM801 1126h110l-413 -1245q-45 -137 -127 -203.5t-224 -66.5q-25 0 -77 4l12 86q45 -4 65 -4q104 0 166 47t99 162l37 112h-60l-358 1108h110l316 -1020h18z" glyph-name="yacute" horiz-adv-x="942" unicode="ý"/><glyph d="M565 1147q123 0 207 -40t130 -119t64.5 -178t18.5 -237q0 -336 -110.5 -464.5t-323.5 -128.5q-188 0 -258 116h-17v-465h-102v1905h102v-516h17q75 127 272 127zM565 70q182 0 249 114.5t67 380.5q0 285 -73 388.5t-241 103.5q-150 0 -220.5 -68.5t-70.5 -247.5v-356 q0 -182 71 -248.5t218 -66.5z" glyph-name="thorn" horiz-adv-x="1105" unicode="þ"/><glyph d="M330 1518v-127h-127v127h127zM735 1518v-127h-127v127h127zM801 1126h110l-413 -1245q-45 -137 -127 -203.5t-224 -66.5q-25 0 -77 4l12 86q45 -4 65 -4q104 0 166 47t99 162l37 112h-60l-358 1108h110l316 -1020h18z" glyph-name="ydieresis" horiz-adv-x="942" unicode="ÿ"/><glyph d="M842 1800v-88h-494v88h494zM995 0l-116 424h-580l-117 -424h-110l411 1434h211l412 -1434h-111zM324 516h530l-227 825h-76z" glyph-name="Amacron" horiz-adv-x="1177" unicode="Ā"/><glyph d="M768 1493v-88h-494v88h494zM485 1147q207 0 285 -97.5t78 -285.5v-768l-82 -8l-12 143h-15q-74 -152 -290 -151q-199 0 -276 83.5t-77 247.5q0 180 92.5 257t264.5 77h292v119q0 168 -64.5 230.5t-213.5 62.5q-94 0 -279 -35l-14 86q194 39 311 39zM451 70 q154 0 224 80.5t70 289.5v115h-319q-129 0 -177 -59.5t-48 -186.5q0 -135 63.5 -187t186.5 -52z" glyph-name="amacron" horiz-adv-x="1009" unicode="ā"/><glyph d="M596 1640q-164 0 -228.5 70t-64.5 205v27h84v-37q0 -197 207 -197q100 0 154.5 43t54.5 154v37h82v-27q0 -156 -74 -215.5t-215 -59.5zM995 0l-116 424h-580l-117 -424h-110l411 1434h211l412 -1434h-111zM324 516h530l-227 825h-76z" glyph-name="Abreve" horiz-adv-x="1177" unicode="Ă"/><glyph d="M522 1333q-164 0 -228.5 70t-64.5 205v26h84v-37q0 -197 207 -196q100 0 154.5 43t54.5 153v37h82v-26q0 -156 -74 -215.5t-215 -59.5zM485 1147q207 0 285 -97.5t78 -285.5v-768l-82 -8l-12 143h-15q-74 -152 -290 -151q-199 0 -276 83.5t-77 247.5q0 180 92.5 257 t264.5 77h292v119q0 168 -64.5 230.5t-213.5 62.5q-94 0 -279 -35l-14 86q194 39 311 39zM451 70q154 0 224 80.5t70 289.5v115h-319q-129 0 -177 -59.5t-48 -186.5q0 -135 63.5 -187t186.5 -52z" glyph-name="abreve" horiz-adv-x="1009" unicode="ă"/><glyph d="M1186 -328l6 -82q-96 0 -168 29q-55 20 -92 70.5t-37 124.5q0 115 98 194l-114 416h-580l-117 -424h-110l411 1434h211l412 -1434h-16q-96 -84 -97 -176q0 -59 42 -105.5t151 -46.5zM324 516h530l-227 825h-76z" glyph-name="Aogonek" horiz-adv-x="1177" unicode="Ą"/><glyph d="M938 -328l6 -82q-96 0 -168 29q-55 20 -92 70.5t-37 124.5q0 125 115 209h2l-10 108h-15q-74 -152 -290 -151q-199 0 -276 83.5t-77 247.5q0 180 92.5 257t264.5 77h292v119q0 168 -64.5 230.5t-213.5 62.5q-94 0 -279 -35l-14 86q195 39 311 39q207 0 285 -97.5 t78 -285.5v-758h2l-2 -2v-8l-12 -2q-90 -80 -91 -170q0 -59 42 -105.5t151 -46.5zM451 70q154 0 224 80.5t70 289.5v115h-319q-129 0 -177 -59.5t-48 -186.5q0 -135 63.5 -187t186.5 -52z" glyph-name="aogonek" horiz-adv-x="1009" unicode="ą"/><glyph d="M539 1604l223 383h106l-256 -383h-73zM696 -20q-160 0 -269.5 50t-169.5 150.5t-85 226t-25 300.5q0 219 38 368.5t113 230t168 114.5t222 34q139 0 238 -39l-8 -96q-90 41 -224 41q-248 0 -342 -156.5t-94 -486.5q0 -190 27.5 -317.5t87 -198t135.5 -99t186 -28.5 q137 0 232 45l16 -94q-92 -45 -246 -45z" glyph-name="Cacute" horiz-adv-x="1054" unicode="Ć"/><glyph d="M442 1296l224 383h106l-256 -383h-74zM573 -20q-135 0 -226 39.5t-140 118.5t-69.5 177.5t-20.5 233.5q0 176 30.5 296t94 184.5t143.5 91t195 26.5q113 0 192 -27l-8 -90q-82 27 -203 27q-197 0 -268.5 -115t-71.5 -367q0 -207 40 -319.5t110.5 -149t193.5 -36.5 q129 0 209 26l8 -90q-78 -26 -209 -26z" glyph-name="cacute" horiz-adv-x="890" unicode="ć"/><glyph d="M516 1825h127v-127h-127v127zM696 -20q-160 0 -269.5 50t-169.5 150.5t-85 226t-25 300.5q0 219 38 368.5t113 230t168 114.5t222 34q139 0 238 -39l-8 -96q-90 41 -224 41q-248 0 -342 -156.5t-94 -486.5q0 -190 27.5 -317.5t87 -198t135.5 -99t186 -28.5q137 0 232 45 l16 -94q-92 -45 -246 -45z" glyph-name="Cdotaccent" horiz-adv-x="1054" unicode="Ċ"/><glyph d="M420 1518h127v-127h-127v127zM573 -20q-135 0 -226 39.5t-140 118.5t-69.5 177.5t-20.5 233.5q0 176 30.5 296t94 184.5t143.5 91t195 26.5q113 0 192 -27l-8 -90q-82 27 -203 27q-197 0 -268.5 -115t-71.5 -367q0 -207 40 -319.5t110.5 -149t193.5 -36.5q129 0 209 26 l8 -90q-78 -26 -209 -26z" glyph-name="cdotaccent" horiz-adv-x="890" unicode="ċ"/><glyph d="M524 1595l-272 383h74l254 -319l251 319h74l-270 -383h-111zM926 119l16 -94q-92 -45 -246 -45q-160 0 -269.5 50t-169.5 150.5t-85 226t-25 300.5q0 219 38 368.5t113 230t168 114.5t222 34q139 0 238 -39l-8 -96q-90 41 -224 41q-248 0 -342 -156.5t-94 -486.5 q0 -190 27.5 -317.5t87 -198t135.5 -99t186 -28.5q138 0 232 45z" glyph-name="Ccaron" horiz-adv-x="1054" unicode="Č"/><glyph d="M428 1288l-272 383h73l254 -319l252 319h74l-270 -383h-111zM565 70q129 0 209 26l8 -90q-78 -27 -209 -26q-135 0 -226 39.5t-140 118.5t-69.5 177.5t-20.5 233.5q0 176 30.5 296t94 184.5t143.5 91t195 26.5q113 0 192 -27l-8 -90q-82 27 -203 27q-197 0 -268.5 -115 t-71.5 -367q0 -207 40 -319.5t110.5 -149t193.5 -36.5z" glyph-name="ccaron" horiz-adv-x="890" unicode="č"/><glyph d="M553 1595l-272 383h73l254 -319l252 319h74l-270 -383h-111zM614 1434q160 0 268.5 -50.5t167 -148.5t83 -222t24.5 -296q0 -209 -38 -352.5t-112.5 -221t-169 -110.5t-223.5 -33h-397v1434h397zM614 82q127 0 213 45t133.5 133t67 197.5t19.5 259.5q0 188 -30 316 t-90.5 195.5t-134 95.5t-178.5 28h-290v-1270h290z" glyph-name="Dcaron" horiz-adv-x="1300" unicode="Ď"/><glyph d="M829 1030v506h103v-1542l-82 -8l-12 139h-15q-74 -145 -282 -145q-123 0 -207 39.5t-130 118.5t-64.5 178.5t-18.5 236.5q0 336 110.5 465t323.5 129q188 0 258 -117h16zM1104 1536h127v-127l-49 -186h-76l43 186h-45v127zM537 70q150 0 221 68.5t71 246.5v356 q0 182 -70.5 249t-217.5 67q-182 0 -249 -115t-67 -381q0 -283 73 -387t239 -104z" glyph-name="dcaron" horiz-adv-x="1105" unicode="ď"/><glyph d="M614 1434q160 0 268.5 -50.5t167 -148.5t83 -222t24.5 -296q0 -209 -38 -352.5t-112.5 -221t-169 -110.5t-223.5 -33h-397v670h-156v92h156v672h397zM614 82q127 0 213 45t133.5 133t67 197.5t19.5 259.5q0 188 -30 316t-90.5 195.5t-134 95.5t-178.5 28h-290v-590h362 v-92h-362v-588h290z" glyph-name="Dcroat" horiz-adv-x="1300" unicode="Đ"/><glyph d="M1161 1360v-88h-229v-1278l-82 -8l-12 139h-15q-74 -145 -282 -145q-123 0 -207 39.5t-130 118.5t-64.5 178.5t-18.5 236.5q0 336 110.5 465t323.5 129q188 0 258 -117h16v242h-245v88h245v176h103v-176h229zM537 70q150 0 221 68.5t71 246.5v356q0 182 -70.5 249 t-217.5 67q-182 0 -249 -115t-67 -381q0 -283 73 -387t239 -104z" glyph-name="dcroat" horiz-adv-x="1103" unicode="đ"/><glyph d="M799 1800v-88h-494v88h494zM324 92h563v-92h-670v1434h645v-93h-538v-553h507v-92h-507v-604z" glyph-name="Emacron" horiz-adv-x="995" unicode="Ē"/><glyph d="M788 1493v-88h-493v88h493zM221 524q6 -258 95.5 -356t269.5 -98q133 0 336 67l14 -88q-211 -70 -367 -69q-256 0 -354 148t-98 435q0 170 31.5 287t95 180.5t142.5 90t185 26.5q225 0 310.5 -142.5t85.5 -441.5v-39h-746zM571 1057q-193 0 -268.5 -103.5t-81.5 -341.5 h643q-6 256 -73.5 350.5t-219.5 94.5z" glyph-name="emacron" horiz-adv-x="1069" unicode="ē"/><glyph d="M614 1825v-127h-127v127h127zM324 92h563v-92h-670v1434h645v-93h-538v-553h507v-92h-507v-604z" glyph-name="Edotaccent" horiz-adv-x="995" unicode="Ė"/><glyph d="M604 1518v-127h-127v127h127zM221 524q6 -258 95.5 -356t269.5 -98q133 0 336 67l14 -88q-211 -70 -367 -69q-256 0 -354 148t-98 435q0 170 31.5 287t95 180.5t142.5 90t185 26.5q225 0 310.5 -142.5t85.5 -441.5v-39h-746zM571 1057q-193 0 -268.5 -103.5t-81.5 -341.5 h643q-6 256 -73.5 350.5t-219.5 94.5z" glyph-name="edotaccent" horiz-adv-x="1069" unicode="ė"/><glyph d="M784 0q-96 -84 -96 -176q0 -59 42 -105.5t151 -46.5l6 -82q-96 0 -168 29q-55 20 -92 70.5t-37 124.5q0 102 88 186h-461v1434h645v-93h-538v-553h507v-92h-507v-604h563v-92h-103z" glyph-name="Eogonek" horiz-adv-x="995" unicode="Ę"/><glyph d="M221 524q6 -258 95.5 -356t269.5 -98q133 0 336 67l14 -88q-16 -6 -96 -29q-96 -84 -97 -176q0 -59 42 -105t151 -46l6 -82q-96 0 -168 29q-55 20 -92 70t-37 124q0 82 60 156q-61 -10 -136 -10q-256 0 -354 148t-98 435q0 170 31.5 287t95 180.5t142.5 90t185 26.5 q225 0 310.5 -142.5t85.5 -441.5v-39h-746zM571 1057q-193 0 -268.5 -103.5t-81.5 -341.5h643q-6 256 -73.5 350.5t-219.5 94.5z" glyph-name="eogonek" horiz-adv-x="1069" unicode="ę"/><glyph d="M496 1595l-273 383h74l254 -319l252 319h74l-271 -383h-110zM324 92h563v-92h-670v1434h645v-93h-538v-553h507v-92h-507v-604z" glyph-name="Ecaron" horiz-adv-x="995" unicode="Ě"/><glyph d="M485 1288l-272 383h74l254 -319l252 319h73l-270 -383h-111zM221 524q6 -258 95.5 -356t269.5 -98q133 0 336 67l14 -88q-211 -70 -367 -69q-256 0 -354 148t-98 435q0 170 31.5 287t95 180.5t142.5 90t185 26.5q225 0 310.5 -142.5t85.5 -441.5v-39h-746zM571 1057 q-193 0 -268.5 -103.5t-81.5 -341.5h643q-6 256 -73.5 350.5t-219.5 94.5z" glyph-name="ecaron" horiz-adv-x="1069" unicode="ě"/><glyph d="M653 1915l-254 -320h-73l272 383h111l270 -383h-74zM1061 776v-782l-80 -8l-12 137h-15q-98 -141 -336 -141q-262 0 -364 191.5t-102 559.5q0 211 38.5 355.5t115.5 223.5t173 111.5t230 32.5q170 0 305 -45l-8 -98q-154 49 -310 49q-240 0 -337 -159t-97 -470 q0 -190 24.5 -320t75 -204t118 -105.5t163.5 -31.5q164 0 239.5 67.5t75.5 251.5v293h-235v92h338z" glyph-name="Gcircumflex" horiz-adv-x="1210" unicode="Ĝ"/><glyph d="M543 1608l-254 -320h-74l272 383h111l270 -383h-73zM567 203q276 0 380 -71t104 -220q0 -172 -117 -236.5t-367 -64.5q-272 0 -376.5 62.5t-104.5 199.5q0 186 164 242v14q-121 37 -121 156q0 70 82 139l39 35q-106 88 -107 293q0 223 99.5 309t292.5 86q113 0 188 -21 h309v-47l-213 -39q121 -66 121 -268q0 -223 -98.5 -308t-288.5 -85q-141 0 -231 39l-50 -43q-41 -33 -41 -84q0 -39 35 -63.5t101 -24.5h200zM547 1057q-174 0 -236.5 -65.5t-62.5 -229.5q0 -170 65.5 -231.5t229.5 -61.5q172 0 232.5 64.5t60.5 228.5q0 172 -63.5 233.5 t-225.5 61.5zM575 -299q217 0 294 43t77 166q0 119 -83 161t-294 42h-84q-170 -8 -233.5 -63.5t-61.5 -170.5q2 -98 80 -138t305 -40z" glyph-name="gcircumflex" horiz-adv-x="1085" unicode="ĝ"/><glyph d="M655 1640q-164 0 -228.5 70t-64.5 205v27h84v-37q0 -197 207 -197q100 0 154.5 43t54.5 154v37h82v-27q0 -156 -74 -215.5t-215 -59.5zM1061 776v-782l-80 -8l-12 137h-15q-98 -141 -336 -141q-262 0 -364 191.5t-102 559.5q0 211 38.5 355.5t115.5 223.5t173 111.5 t230 32.5q170 0 305 -45l-8 -98q-154 49 -310 49q-240 0 -337 -159t-97 -470q0 -190 24.5 -320t75 -204t118 -105.5t163.5 -31.5q164 0 239.5 67.5t75.5 251.5v293h-235v92h338z" glyph-name="Gbreve" horiz-adv-x="1210" unicode="Ğ"/><glyph d="M545 1333q-164 0 -228.5 70t-64.5 205v26h84v-37q0 -197 207 -196q100 0 154.5 43t54.5 153v37h82v-26q0 -156 -74 -215.5t-215 -59.5zM567 203q276 0 380 -71t104 -220q0 -172 -117 -236.5t-367 -64.5q-272 0 -376.5 62.5t-104.5 199.5q0 186 164 242v14 q-121 37 -121 156q0 70 82 139l39 35q-106 88 -107 293q0 223 99.5 309t292.5 86q113 0 188 -21h309v-47l-213 -39q121 -66 121 -268q0 -223 -98.5 -308t-288.5 -85q-141 0 -231 39l-50 -43q-41 -33 -41 -84q0 -39 35 -63.5t101 -24.5h200zM547 1057q-174 0 -236.5 -65.5 t-62.5 -229.5q0 -170 65.5 -231.5t229.5 -61.5q172 0 232.5 64.5t60.5 228.5q0 172 -63.5 233.5t-225.5 61.5zM575 -299q217 0 294 43t77 166q0 119 -83 161t-294 42h-84q-170 -8 -233.5 -63.5t-61.5 -170.5q2 -98 80 -138t305 -40z" glyph-name="gbreve" horiz-adv-x="1085" unicode="ğ"/><glyph d="M717 1825v-127h-127v127h127zM1061 776v-782l-80 -8l-12 137h-15q-98 -141 -336 -141q-262 0 -364 191.5t-102 559.5q0 211 38.5 355.5t115.5 223.5t173 111.5t230 32.5q170 0 305 -45l-8 -98q-154 49 -310 49q-240 0 -337 -159t-97 -470q0 -190 24.5 -320t75 -204 t118 -105.5t163.5 -31.5q164 0 239.5 67.5t75.5 251.5v293h-235v92h338z" glyph-name="Gdotaccent" horiz-adv-x="1210" unicode="Ġ"/><glyph d="M606 1518v-127h-127v127h127zM567 203q276 0 380 -71t104 -220q0 -172 -117 -236.5t-367 -64.5q-272 0 -376.5 62.5t-104.5 199.5q0 186 164 242v14q-121 37 -121 156q0 70 82 139l39 35q-106 88 -107 293q0 223 99.5 309t292.5 86q113 0 188 -21h309v-47l-213 -39 q121 -66 121 -268q0 -223 -98.5 -308t-288.5 -85q-141 0 -231 39l-50 -43q-41 -33 -41 -84q0 -39 35 -63.5t101 -24.5h200zM547 1057q-174 0 -236.5 -65.5t-62.5 -229.5q0 -170 65.5 -231.5t229.5 -61.5q172 0 232.5 64.5t60.5 228.5q0 172 -63.5 233.5t-225.5 61.5z M575 -299q217 0 294 43t77 166q0 119 -83 161t-294 42h-84q-170 -8 -233.5 -63.5t-61.5 -170.5q2 -98 80 -138t305 -40z" glyph-name="gdotaccent" horiz-adv-x="1085" unicode="ġ"/><glyph d="M1061 776v-782l-80 -8l-12 137h-15q-98 -141 -336 -141q-262 0 -364 191.5t-102 559.5q0 211 38.5 355.5t115.5 223.5t173 111.5t230 32.5q170 0 305 -45l-8 -98q-154 49 -310 49q-240 0 -337 -159t-97 -470q0 -190 24.5 -320t75 -204t118 -105.5t163.5 -31.5 q164 0 239.5 67.5t75.5 251.5v293h-235v92h338zM594 -279v127h127v-127l-51 -188h-76l45 188h-45z" glyph-name="Gcommaaccent" horiz-adv-x="1210" unicode="Ģ"/><glyph d="M606 1520v-127h-127v127l51 186h74l-43 -186h45zM567 203q276 0 380 -71t104 -220q0 -172 -117 -236.5t-367 -64.5q-272 0 -376.5 62.5t-104.5 199.5q0 186 164 242v14q-121 37 -121 156q0 70 82 139l39 35q-106 88 -107 293q0 223 99.5 309t292.5 86q113 0 188 -21h309 v-47l-213 -39q121 -66 121 -268q0 -223 -98.5 -308t-288.5 -85q-141 0 -231 39l-50 -43q-41 -33 -41 -84q0 -39 35 -63.5t101 -24.5h200zM547 1057q-174 0 -236.5 -65.5t-62.5 -229.5q0 -170 65.5 -231.5t229.5 -61.5q172 0 232.5 64.5t60.5 228.5q0 172 -63.5 233.5 t-225.5 61.5zM575 -299q217 0 294 43t77 166q0 119 -83 161t-294 42h-84q-170 -8 -233.5 -63.5t-61.5 -170.5q2 -98 80 -138t305 -40z" glyph-name="gcommaaccent" horiz-adv-x="1085" unicode="ģ"/><glyph d="M657 1915l-254 -320h-73l272 383h111l270 -383h-74zM993 1434h107v-1434h-107v696h-669v-696h-107v1434h107v-646h669v646z" glyph-name="Hcircumflex" horiz-adv-x="1316" unicode="Ĥ"/><glyph d="M494 1647l-252 319l-254 -319h-74l272 383h111l270 -383h-73zM612 1147q203 0 277 -95.5t74 -328.5v-723h-103v719q0 197 -63.5 267.5t-221.5 70.5q-154 0 -226.5 -77t-72.5 -275v-705h-102v1536h102v-545h17q75 156 319 156z" glyph-name="hcircumflex" horiz-adv-x="1124" unicode="ĥ"/><glyph d="M1315 1174v-93h-215v-1081h-107v696h-669v-696h-107v1081h-217v93h217v260h107v-260h669v260h107v-260h215zM993 788v293h-669v-293h669z" glyph-name="Hbar" horiz-adv-x="1316" unicode="Ħ"/><glyph d="M612 1147q203 0 277 -95.5t74 -328.5v-723h-103v719q0 197 -63.5 267.5t-221.5 70.5q-154 0 -226.5 -77t-72.5 -275v-705h-102v1274h-194v88h194v174h102v-174h328v-88h-328v-283h17q75 156 319 156z" glyph-name="hbar" horiz-adv-x="1124" unicode="ħ"/><glyph d="M408 1659q-53 0 -115 43l-98 70q-29 18 -54 18q-35 0 -57.5 -27.5t-32.5 -103.5h-69q0 92 42 147.5t113 55.5q63 0 117 -39l100 -74q25 -18 52 -18q72 0 90 133h69q0 -92 -42.5 -148.5t-114.5 -56.5zM324 1434v-1434h-107v1434h107z" glyph-name="Itilde" horiz-adv-x="540" unicode="Ĩ"/><glyph d="M365 1352q-53 0 -115 43l-98 69q-29 18 -54 19q-35 0 -57.5 -28t-32.5 -103h-69q0 92 42 147t113 55q63 0 117 -38l100 -74q25 -18 51 -19q72 0 91 133h69q0 -92 -42.5 -148t-114.5 -56zM276 1126v-1126h-102v1126h102z" glyph-name="itilde" horiz-adv-x="448" unicode="ĩ"/><glyph d="M25 1800h493v-88h-493v88zM324 1434v-1434h-107v1434h107z" glyph-name="Imacron" horiz-adv-x="540" unicode="Ī"/><glyph d="M-18 1493h493v-88h-493v88zM276 1126v-1126h-102v1126h102z" glyph-name="imacron" horiz-adv-x="448" unicode="ī"/><glyph d="M272 1640q-164 0 -228 70t-64 205v27h83v-37q0 -197 207 -197q100 0 154.5 43t54.5 154v37h82v-27q0 -156 -74 -215.5t-215 -59.5zM324 1434v-1434h-107v1434h107z" glyph-name="Ibreve" horiz-adv-x="540" unicode="Ĭ"/><glyph d="M229 1333q-164 0 -228 70t-64 205v26h83v-37q0 -197 207 -196q100 0 154.5 43t54.5 153v37h82v-26q0 -156 -74 -215.5t-215 -59.5zM276 1126v-1126h-102v1126h102z" glyph-name="ibreve" horiz-adv-x="448" unicode="ĭ"/><glyph d="M414 -328l6 -82q-96 0 -168 29q-55 20 -92 70.5t-37 124.5q0 109 94 192v1428h107v-1428h2l-2 -2v-4h-7q-96 -84 -96 -176q0 -59 42 -105.5t151 -46.5z" glyph-name="Iogonek" horiz-adv-x="540" unicode="Į"/><glyph d="M289 1518v-129h-129v129h129zM362 -328l7 -82q-96 0 -168 29q-55 20 -92 70.5t-37 124.5q0 115 102 198v1114h102v-1126h-10q-96 -84 -96 -176q0 -59 41.5 -105.5t150.5 -46.5z" glyph-name="iogonek" horiz-adv-x="448" unicode="į"/><glyph d="M207 1825h127v-127h-127v127zM324 1434v-1434h-107v1434h107z" glyph-name="Idotaccent" horiz-adv-x="540" unicode="İ"/><glyph d="M276 1126v-1126h-102v1126h102z" glyph-name="dotlessi" horiz-adv-x="448" unicode="ı"/><glyph d="M324 1434v-1434h-107v1434h107zM684 -20q-66 0 -123 16l8 94q61 -16 142 -16q78 0 113.5 46t35.5 171v1143h107v-1143q0 -152 -62.5 -231.5t-220.5 -79.5z" glyph-name="IJ" horiz-adv-x="1177" unicode="Ĳ"/><glyph d="M160 1518h129v-129h-129v129zM657 1389v129h129v-129h-129zM276 1126v-1126h-102v1126h102zM516 -389q-55 0 -104 12l8 90q51 -12 119 -12q80 0 106.5 45t26.5 176v1204h100v-1204q0 -172 -51 -241.5t-205 -69.5z" glyph-name="ij" horiz-adv-x="946" unicode="ĳ"/><glyph d="M430 1978l270 -383h-73l-252 320l-254 -320h-74l272 383h111zM319 291v1143h107v-1143q0 -152 -62.5 -231.5t-220.5 -79.5q-66 0 -123 16l9 94q61 -16 141 -16q78 0 113.5 46t35.5 171z" glyph-name="Jcircumflex" horiz-adv-x="636" unicode="Ĵ"/><glyph d="M279 1671l270 -383h-74l-252 320l-254 -320h-73l272 383h111zM174 -78v1204h100v-1204q0 -172 -51 -241.5t-205 -69.5q-55 0 -104 12l8 90q51 -12 119 -12q80 0 106.5 45t26.5 176z" glyph-name="jcircumflex" horiz-adv-x="448" unicode="ĵ"/><glyph d="M506 748l547 -748h-121l-514 696h-94v-696h-107v1434h107v-646h86l481 646h123zM549 -279v127h127v-127l-51 -188h-76l45 188h-45z" glyph-name="Kcommaaccent" horiz-adv-x="1089" unicode="Ķ"/><glyph d="M428 618l490 -618h-117l-453 575h-72v-575h-102v1536h102v-872h72l414 462h115zM471 -279v127h127v-127l-51 -188h-76l45 188h-45z" glyph-name="kcommaaccent" horiz-adv-x="917" unicode="ķ"/><glyph d="M567 1987l-256 -383h-73l223 383h106zM324 92h477v-92h-584v1434h107v-1342z" glyph-name="Lacute" horiz-adv-x="872" unicode="Ĺ"/><glyph d="M182 1706l224 383h106l-256 -383h-74zM408 -20q-139 0 -189.5 65.5t-50.5 216.5v1274h102v-1274q0 -113 27 -152.5t92 -39.5q76 0 125 12l8 -92q-42 -10 -114 -10z" glyph-name="lacute" horiz-adv-x="573" unicode="ĺ"/><glyph d="M324 92h477v-92h-584v1434h107v-1342zM397 -279v127h127v-127l-51 -188h-76l45 188h-45z" glyph-name="Lcommaaccent" horiz-adv-x="872" unicode="Ļ"/><glyph d="M514 82l8 -92q-43 -10 -114 -10q-139 0 -189.5 65.5t-50.5 216.5v1274h102v-1274q0 -113 27 -152.5t92 -39.5q76 0 125 12zM240 -279v127h127v-127l-52 -188h-75l45 188h-45z" glyph-name="lcommaaccent" horiz-adv-x="573" unicode="ļ"/><glyph d="M324 92h477v-92h-584v1434h107v-1342zM588 1120h-76l45 187h-45v127h127v-127z" glyph-name="Lcaron" horiz-adv-x="872" unicode="Ľ"/><glyph d="M389 70q76 0 125 12l8 -92q-43 -10 -114 -10q-139 0 -189.5 65.5t-50.5 216.5v1274h102v-1274q0 -113 26.5 -152.5t92.5 -39.5zM449 1536h126v-127l-49 -186h-75l43 186h-45v127z" glyph-name="lcaron" horiz-adv-x="573" unicode="ľ"/><glyph d="M324 92h477v-92h-584v1434h107v-1342zM635 864v-153h-143v153h143z" glyph-name="Ldot" horiz-adv-x="872" unicode="Ŀ"/><glyph d="M408 -20q-139 0 -189.5 65.5t-50.5 216.5v1274h102v-1274q0 -113 27 -152.5t92 -39.5q76 0 125 12l8 -92q-42 -10 -114 -10zM412 711v153h143v-153h-143z" glyph-name="ldot" horiz-adv-x="608" unicode="ŀ"/><glyph d="M324 92h477v-92h-584v633l-205 -98v94l205 96v709h107v-658l284 135v-92l-284 -135v-592z" glyph-name="Lslash" horiz-adv-x="872" unicode="Ł"/><glyph d="M514 82l8 -92q-43 -10 -114 -10q-139 0 -189.5 65.5t-50.5 216.5v443l-168 -91v91l168 92v739h102v-684l224 121v-92l-224 -121v-498q0 -113 27 -152.5t92 -39.5q76 0 125 12z" glyph-name="lslash" horiz-adv-x="573" unicode="ł"/><glyph d="M956 1987l-256 -383h-73l223 383h106zM1010 1434h106v-1434h-205l-561 1341h-26v-1341h-107v1434h205l561 -1342h27v1342z" glyph-name="Nacute" horiz-adv-x="1333" unicode="Ń"/><glyph d="M852 1679l-256 -383h-74l223 383h107zM612 1147q203 0 277 -95.5t74 -328.5v-723h-103v719q0 197 -63.5 267.5t-221.5 70.5q-154 0 -226.5 -77t-72.5 -275v-705h-102v1130l82 9l14 -162h17q39 92 118.5 131t206.5 39z" glyph-name="nacute" horiz-adv-x="1124" unicode="ń"/><glyph d="M1010 1434h106v-1434h-205l-561 1341h-26v-1341h-107v1434h205l561 -1342h27v1342zM608 -279v127h127v-127l-51 -188h-76l45 188h-45z" glyph-name="Ncommaaccent" horiz-adv-x="1333" unicode="Ņ"/><glyph d="M612 1147q203 0 277 -95.5t74 -328.5v-723h-103v719q0 197 -63.5 267.5t-221.5 70.5q-154 0 -226.5 -77t-72.5 -275v-705h-102v1130l82 9l14 -162h17q39 92 118.5 131t206.5 39zM504 -279v127h127v-127l-51 -188h-76l45 188h-45z" glyph-name="ncommaaccent" horiz-adv-x="1124" unicode="ņ"/><glyph d="M612 1595l-272 383h74l254 -319l252 319h73l-270 -383h-111zM1010 1434h106v-1434h-205l-561 1341h-26v-1341h-107v1434h205l561 -1342h27v1342z" glyph-name="Ncaron" horiz-adv-x="1333" unicode="Ň"/><glyph d="M508 1288l-272 383h73l254 -319l252 319h74l-271 -383h-110zM612 1147q203 0 277 -95.5t74 -328.5v-723h-103v719q0 197 -63.5 267.5t-221.5 70.5q-154 0 -226.5 -77t-72.5 -275v-705h-102v1130l82 9l14 -162h17q39 92 118.5 131t206.5 39z" glyph-name="ncaron" horiz-adv-x="1124" unicode="ň"/><glyph d="M1010 1434h106v-1512q0 -152 -62.5 -231.5t-219.5 -79.5q-63 0 -123 16l10 94q61 -16 139 -16t114 46t36 171v78h-99l-561 1341h-26v-1341h-107v1434h205l561 -1342h27v1342z" glyph-name="Eng" horiz-adv-x="1333" unicode="Ŋ"/><glyph d="M612 1147q203 0 277 -95.5t74 -328.5v-801q0 -172 -51.5 -241.5t-204.5 -69.5q-55 0 -107 12l8 90q55 -12 121 -12q80 0 105.5 44t25.5 177v797q0 197 -63.5 267.5t-221.5 70.5q-154 0 -226.5 -77t-72.5 -275v-705h-102v1130l82 9l14 -162h17q39 92 118.5 131t206.5 39z " glyph-name="eng" horiz-adv-x="1124" unicode="ŋ"/><glyph d="M436 1800h494v-88h-494v88zM684 -20q-156 0 -261.5 47t-163.5 146t-81.5 228t-23.5 316q0 217 33.5 363.5t104 227.5t164 113.5t228.5 32.5q301 0 413.5 -179t112.5 -558q0 -217 -33.5 -363.5t-104.5 -227.5t-163 -113.5t-225 -32.5zM684 74q240 0 328 149.5t88 493.5 q0 254 -47 396t-133 194.5t-236 52.5q-242 0 -331 -149.5t-89 -493.5q0 -254 47 -396.5t135 -194.5t238 -52z" glyph-name="Omacron" horiz-adv-x="1363" unicode="Ō"/><glyph d="M328 1493h493v-88h-493v88zM573 -20q-258 0 -355 142t-97 441q0 172 28.5 288t90 180.5t140.5 90t193 25.5q254 0 351.5 -142.5t97.5 -441.5q0 -227 -55.5 -358t-148.5 -178t-245 -47zM573 70q201 0 273 109.5t72 383.5q0 289 -76 391.5t-269 102.5q-203 0 -275.5 -109.5 t-72.5 -384.5q0 -289 76.5 -391t271.5 -102z" glyph-name="omacron" horiz-adv-x="1142" unicode="ō"/><glyph d="M684 1640q-164 0 -228.5 70t-64.5 205v27h84v-37q0 -197 207 -197q100 0 154.5 43t54.5 154v37h82v-27q0 -156 -74 -215.5t-215 -59.5zM684 -20q-156 0 -261.5 47t-163.5 146t-81.5 228t-23.5 316q0 217 33.5 363.5t104 227.5t164 113.5t228.5 32.5q301 0 413.5 -179 t112.5 -558q0 -217 -33.5 -363.5t-104.5 -227.5t-163 -113.5t-225 -32.5zM684 74q240 0 328 149.5t88 493.5q0 254 -47 396t-133 194.5t-236 52.5q-242 0 -331 -149.5t-89 -493.5q0 -254 47 -396.5t135 -194.5t238 -52z" glyph-name="Obreve" horiz-adv-x="1363" unicode="Ŏ"/><glyph d="M575 1333q-164 0 -228 70t-64 205v26h84v-37q0 -197 206 -196q100 0 154.5 43t54.5 153v37h82v-26q0 -156 -74 -215.5t-215 -59.5zM573 -20q-258 0 -355 142t-97 441q0 172 28.5 288t90 180.5t140.5 90t193 25.5q254 0 351.5 -142.5t97.5 -441.5q0 -227 -55.5 -358 t-148.5 -178t-245 -47zM573 70q201 0 273 109.5t72 383.5q0 289 -76 391.5t-269 102.5q-203 0 -275.5 -109.5t-72.5 -384.5q0 -289 76.5 -391t271.5 -102z" glyph-name="obreve" horiz-adv-x="1142" unicode="ŏ"/><glyph d="M494 1604l223 383h106l-256 -383h-73zM805 1604l223 383h107l-256 -383h-74zM684 -20q-156 0 -261.5 47t-163.5 146t-81.5 228t-23.5 316q0 217 33.5 363.5t104 227.5t164 113.5t228.5 32.5q301 0 413.5 -179t112.5 -558q0 -217 -33.5 -363.5t-104.5 -227.5t-163 -113.5 t-225 -32.5zM684 74q240 0 328 149.5t88 493.5q0 254 -47 396t-133 194.5t-236 52.5q-242 0 -331 -149.5t-89 -493.5q0 -254 47 -396.5t135 -194.5t238 -52z" glyph-name="Ohungarumlaut" horiz-adv-x="1363" unicode="Ő"/><glyph d="M385 1296l223 383h107l-256 -383h-74zM696 1296l224 383h106l-256 -383h-74zM573 -20q-258 0 -355 142t-97 441q0 172 28.5 288t90 180.5t140.5 90t193 25.5q254 0 351.5 -142.5t97.5 -441.5q0 -227 -55.5 -358t-148.5 -178t-245 -47zM573 70q201 0 273 109.5t72 383.5 q0 289 -76 391.5t-269 102.5q-203 0 -275.5 -109.5t-72.5 -384.5q0 -289 76.5 -391t271.5 -102z" glyph-name="ohungarumlaut" horiz-adv-x="1142" unicode="ő"/><glyph d="M1206 92h563v-92h-669v172q-115 -193 -416 -192q-156 0 -261.5 47t-163.5 146t-81.5 228t-23.5 316q0 217 33.5 363.5t104 227.5t164 113.5t228.5 32.5q297 0 416 -190v170h645v-93h-539v-553h508v-92h-508v-604zM684 74q240 0 328 149.5t88 493.5q0 254 -47 396 t-133 194.5t-236 52.5q-242 0 -331 -149.5t-89 -493.5q0 -254 47 -396.5t135 -194.5t238 -52z" glyph-name="OE" horiz-adv-x="1878" unicode="Œ"/><glyph d="M1022 524q6 -258 95 -356t269 -98q133 0 336 67l15 -88q-211 -70 -367 -69q-301 0 -399 229q-49 -127 -146.5 -178t-251.5 -51q-258 0 -355 142t-97 441q0 172 28.5 288t90 180.5t140.5 90t193 25.5q307 0 400 -232q96 231 399 232q227 0 311 -141.5t84 -442.5v-39h-745z M573 70q201 0 273 109.5t72 383.5q0 289 -76 391.5t-269 102.5q-203 0 -275.5 -109.5t-72.5 -384.5q0 -289 76.5 -391t271.5 -102zM1372 1057q-193 0 -268.5 -103.5t-81.5 -341.5h643q-6 256 -73.5 350.5t-219.5 94.5z" glyph-name="oe" horiz-adv-x="1869" unicode="œ"/><glyph d="M860 1987l-256 -383h-74l224 383h106zM1094 0h-123l-371 635q-74 -4 -119 -4h-157v-631h-107v1434h264q287 0 391.5 -90.5t104.5 -299.5q0 -180 -64.5 -272t-205.5 -123zM324 713h157q223 0 304 72.5t81 250.5q0 184 -86 250t-299 66h-157v-639z" glyph-name="Racute" horiz-adv-x="1144" unicode="Ŕ"/><glyph d="M655 1679l-256 -383h-73l223 383h106zM287 977q90 170 325 170q27 0 41 -2l-8 -113q-39 25 -115 25q-127 0 -190.5 -110.5t-63.5 -305.5v-641h-102v1130l82 9l14 -162h17z" glyph-name="racute" horiz-adv-x="673" unicode="ŕ"/><glyph d="M707 649l387 -649h-123l-371 635q-74 -4 -119 -4h-157v-631h-107v1434h264q287 0 391.5 -90.5t104.5 -299.5q0 -180 -64.5 -272t-205.5 -123zM324 713h157q223 0 304 72.5t81 250.5q0 184 -86 250t-299 66h-157v-639zM512 -279v127h127v-127l-51 -188h-76l45 188h-45z " glyph-name="Rcommaaccent" horiz-adv-x="1144" unicode="Ŗ"/><glyph d="M612 1147q27 0 41 -2l-8 -113q-39 25 -115 25q-127 0 -190.5 -110.5t-63.5 -305.5v-641h-102v1130l82 9l14 -162h17q89 170 325 170zM307 -279v127h127v-127l-51 -188h-76l45 188h-45z" glyph-name="rcommaaccent" horiz-adv-x="673" unicode="ŗ"/><glyph d="M516 1595l-272 383h73l254 -319l252 319h74l-270 -383h-111zM1094 0h-123l-371 635q-74 -4 -119 -4h-157v-631h-107v1434h264q287 0 391.5 -90.5t104.5 -299.5q0 -180 -64.5 -272t-205.5 -123zM324 713h157q223 0 304 72.5t81 250.5q0 184 -86 250t-299 66h-157v-639z " glyph-name="Rcaron" horiz-adv-x="1144" unicode="Ř"/><glyph d="M311 1288l-272 383h74l254 -319l251 319h74l-270 -383h-111zM287 977q90 170 325 170q27 0 41 -2l-8 -113q-39 25 -115 25q-127 0 -190.5 -110.5t-63.5 -305.5v-641h-102v1130l82 9l14 -162h17z" glyph-name="rcaron" horiz-adv-x="673" unicode="ř"/><glyph d="M408 1604l223 383h106l-256 -383h-73zM426 -20q-139 0 -324 49l9 96q211 -51 331 -51q266 0 267 248q0 84 -22.5 131t-88.5 102l-365 307q-68 59 -95 116.5t-27 156.5q0 319 399 319q109 0 281 -27l-9 -92q-168 25 -268 25q-143 0 -218 -47t-75 -170q0 -76 18.5 -117 t71.5 -88l357 -297q84 -72 117.5 -137.5t33.5 -169.5q0 -354 -393 -354z" glyph-name="Sacute" horiz-adv-x="931" unicode="Ś"/><glyph d="M373 1296l223 383h106l-256 -383h-73zM362 -20q-98 0 -260 22l9 92q143 -25 264 -24q141 0 193.5 45t52.5 139q0 109 -89 174l-319 236q-104 74 -104 217q0 150 83.5 208t245.5 58q98 0 246 -25l-8 -90q-143 25 -262 25q-115 0 -158 -43t-43 -133q0 -59 15.5 -91 t62.5 -67l293 -213q141 -102 141 -250q0 -160 -92.5 -220t-270.5 -60z" glyph-name="sacute" horiz-adv-x="817" unicode="ś"/><glyph d="M449 1915l-254 -320h-74l272 383h111l270 -383h-74zM668 641q84 -72 117.5 -137.5t33.5 -169.5q0 -354 -393 -354q-139 0 -324 49l9 96q211 -51 331 -51q266 0 267 248q0 84 -22.5 131t-88.5 102l-365 307q-68 59 -95 116.5t-27 156.5q0 319 399 319q109 0 281 -27 l-9 -92q-168 25 -268 25q-143 0 -218 -47t-75 -170q0 -76 18.5 -117t71.5 -88z" glyph-name="Scircumflex" horiz-adv-x="931" unicode="Ŝ"/><glyph d="M414 1608l-254 -320h-74l272 383h111l270 -383h-73zM584 510q141 -102 141 -250q0 -160 -92 -220t-271 -60q-98 0 -260 22l9 92q143 -25 264 -24q141 0 193.5 45t52.5 139q0 109 -89 174l-319 236q-104 74 -104 217q0 150 83.5 208t245.5 58q98 0 246 -25l-8 -90 q-143 25 -262 25q-115 0 -158 -43t-43 -133q0 -59 15.5 -91t62.5 -67z" glyph-name="scircumflex" horiz-adv-x="817" unicode="ŝ"/><glyph d="M819 334q0 -328 -340 -352l-28 -111q111 -2 153.5 -45t42.5 -127q0 -90 -48 -140.5t-173 -50.5q-59 0 -109 17l9 86q51 -18 112.5 -18.5t89 22.5t27.5 86q0 90 -90 90h-105l39 189q-135 6 -297 49l9 96q211 -51 331 -51q266 0 267 248q0 84 -22.5 131t-88.5 102l-365 307 q-68 59 -95 116.5t-27 156.5q0 319 399 319q109 0 281 -27l-9 -92q-168 25 -268 25q-143 0 -218 -47t-75 -170q0 -76 18.5 -117t71.5 -88l357 -297q84 -72 117.5 -137.5t33.5 -169.5z" glyph-name="Scedilla" horiz-adv-x="931" unicode="Ş"/><glyph d="M725 260q0 -139 -71.5 -201.5t-209.5 -74.5l-28 -113q111 -2 153.5 -45t42.5 -127q0 -90 -48 -140.5t-173 -50.5q-59 0 -108 17l8 86q51 -18 112.5 -18.5t89 22.5t27.5 86q0 90 -90 90h-104l39 189h-3q-98 0 -260 22l9 92q143 -25 264 -24q141 0 193.5 45t52.5 139 q0 109 -89 174l-319 236q-104 74 -104 217q0 150 83.5 208t245.5 58q98 0 246 -25l-8 -90q-143 25 -262 25q-115 0 -158 -43t-43 -133q0 -59 15.5 -91t62.5 -67l293 -213q141 -103 141 -250z" glyph-name="scedilla" horiz-adv-x="817" unicode="ş"/><glyph d="M393 1595l-272 383h74l254 -319l251 319h74l-270 -383h-111zM668 641q84 -72 117.5 -137.5t33.5 -169.5q0 -354 -393 -354q-139 0 -324 49l9 96q211 -51 331 -51q266 0 267 248q0 84 -22.5 131t-88.5 102l-365 307q-68 59 -95 116.5t-27 156.5q0 319 399 319 q109 0 281 -27l-9 -92q-168 25 -268 25q-143 0 -218 -47t-75 -170q0 -76 18.5 -117t71.5 -88z" glyph-name="Scaron" horiz-adv-x="931" unicode="Š"/><glyph d="M358 1288l-272 383h74l254 -319l252 319h73l-270 -383h-111zM584 510q141 -102 141 -250q0 -160 -92 -220t-271 -60q-98 0 -260 22l9 92q143 -25 264 -24q141 0 193.5 45t52.5 139q0 109 -89 174l-319 236q-104 74 -104 217q0 150 83.5 208t245.5 58q98 0 246 -25l-8 -90 q-143 25 -262 25q-115 0 -158 -43t-43 -133q0 -59 15.5 -91t62.5 -67z" glyph-name="scaron" horiz-adv-x="817" unicode="š"/><glyph d="M485 0h-20l-33 -129q111 -2 154 -45t43 -127q0 -90 -48.5 -140.5t-172.5 -50.5q-59 0 -109 17l8 86q51 -18 112.5 -18.5t89.5 22.5t28 86q0 90 -91 90h-104l43 209h-6v1341h-328v93h760v-93h-326v-1341z" glyph-name="Tcommaaccent" horiz-adv-x="862" unicode="Ţ"/><glyph d="M578 1038h-261v-776q0 -113 26 -152.5t91 -39.5q74 0 127 12l8 -92q-43 -10 -110 -10q-53 0 -86 8l-31 -117q111 -2 154 -45t43 -127q0 -90 -48.5 -140.5t-173.5 -50.5q-59 0 -108 17l8 86q51 -18 112.5 -18.5t89 22.5t27.5 86q0 90 -90 90h-104l45 225q-82 57 -82 246 v776h-182v88h182v273h102v-273h261v-88z" glyph-name="tcommaaccent" horiz-adv-x="665" unicode="ţ"/><glyph d="M375 1595l-273 383h74l254 -319l252 319h74l-271 -383h-110zM811 1434v-93h-326v-1341h-106v1341h-328v93h760z" glyph-name="Tcaron" horiz-adv-x="862" unicode="Ť"/><glyph d="M494 1536h127v-127l-50 -186h-75l43 186h-45v127zM317 1399v-273h261v-88h-261v-776q0 -113 26 -152.5t91 -39.5q74 0 127 12l8 -92q-43 -10 -110 -10q-141 0 -192.5 65.5t-51.5 216.5v776h-182v88h182v273h102z" glyph-name="tcaron" horiz-adv-x="665" unicode="ť"/><glyph d="M811 1341h-326v-579h258v-92h-258v-670h-106v670h-260v92h260v579h-328v93h760v-93z" glyph-name="Tbar" horiz-adv-x="862" unicode="Ŧ"/><glyph d="M578 1038h-261v-352h261v-92h-261v-332q0 -113 26 -152.5t91 -39.5q74 0 127 12l8 -92q-43 -10 -110 -10q-141 0 -192.5 65.5t-51.5 216.5v332h-182v92h182v352h-182v88h182v273h102v-273h261v-88z" glyph-name="tbar" horiz-adv-x="665" unicode="ŧ"/><glyph d="M774 1659q-53 0 -115 43l-98 70q-29 18 -53 18q-35 0 -57.5 -27.5t-32.5 -103.5h-70q0 92 42 147.5t114 55.5q63 0 117 -39l100 -74q25 -18 51 -18q72 0 90 133h70q0 -92 -43 -148.5t-115 -56.5zM643 -20q-254 0 -347 111.5t-93 369.5v973h106v-975q0 -225 73 -305 t255 -80q190 0 258 86t68 299v975h106v-973q0 -279 -98.5 -380t-327.5 -101z" glyph-name="Utilde" horiz-adv-x="1271" unicode="Ũ"/><glyph d="M424 1483q-35 0 -57.5 -28t-32.5 -103h-70q0 92 42 147t114 55q63 0 117 -38l100 -74q25 -18 51 -19q72 0 90 133h70q0 -92 -43 -148t-115 -56q-53 0 -115 43l-98 69q-26 19 -53 19zM827 1126h103v-1130l-82 -8l-14 162h-15q-70 -170 -317 -170q-197 0 -268.5 95 t-71.5 328v723h102v-718q0 -199 60.5 -268.5t214.5 -69.5q147 0 217.5 76.5t70.5 275.5v704z" glyph-name="utilde" horiz-adv-x="1103" unicode="ũ"/><glyph d="M391 1800h494v-88h-494v88zM643 -20q-254 0 -347 111.5t-93 369.5v973h106v-975q0 -225 73 -305t255 -80q190 0 258 86t68 299v975h106v-973q0 -279 -98.5 -380t-327.5 -101z" glyph-name="Umacron" horiz-adv-x="1271" unicode="Ū"/><glyph d="M801 1493v-88h-494v88h494zM827 1126h103v-1130l-82 -8l-14 162h-15q-70 -170 -317 -170q-197 0 -268.5 95t-71.5 328v723h102v-718q0 -199 60.5 -268.5t214.5 -69.5q147 0 217.5 76.5t70.5 275.5v704z" glyph-name="umacron" horiz-adv-x="1103" unicode="ū"/><glyph d="M639 1640q-164 0 -228.5 70t-64.5 205v27h84v-37q0 -197 207 -197q100 0 154.5 43t54.5 154v37h82v-27q0 -156 -74 -215.5t-215 -59.5zM643 -20q-254 0 -347 111.5t-93 369.5v973h106v-975q0 -225 73 -305t255 -80q190 0 258 86t68 299v975h106v-973q0 -279 -98.5 -380 t-327.5 -101z" glyph-name="Ubreve" horiz-adv-x="1271" unicode="Ŭ"/><glyph d="M555 1333q-164 0 -228.5 70t-64.5 205v26h84v-37q0 -197 207 -196q100 0 154.5 43t54.5 153v37h82v-26q0 -156 -74 -215.5t-215 -59.5zM827 1126h103v-1130l-82 -8l-14 162h-15q-70 -170 -317 -170q-197 0 -268.5 95t-71.5 328v723h102v-718q0 -199 60.5 -268.5 t214.5 -69.5q147 0 217.5 76.5t70.5 275.5v704z" glyph-name="ubreve" horiz-adv-x="1103" unicode="ŭ"/><glyph d="M637 1595q-125 0 -172 51.5t-47 149.5q0 111 56 155t163 44q125 0 172 -50.5t47 -148.5q0 -113 -56.5 -157t-162.5 -44zM637 1661q74 0 108.5 28.5t34.5 106.5q0 70 -30.5 102.5t-112.5 32.5q-74 0 -108.5 -29.5t-34.5 -105.5q0 -70 30.5 -102.5t112.5 -32.5zM643 -20 q-254 0 -347 111.5t-93 369.5v973h106v-975q0 -225 73 -305t255 -80q190 0 258 86t68 299v975h106v-973q0 -279 -98.5 -380t-327.5 -101z" glyph-name="Uring" horiz-adv-x="1271" unicode="Ů"/><glyph d="M553 1288q-125 0 -172 51.5t-47 149.5q0 111 56 155t163 44q125 0 172 -50.5t47 -148.5q0 -113 -56.5 -157t-162.5 -44zM553 1624q-74 0 -108.5 -29.5t-34.5 -105.5q0 -70 30.5 -102.5t112.5 -32.5q74 0 108.5 28.5t34.5 106.5q0 70 -30.5 102.5t-112.5 32.5zM827 1126 h103v-1130l-82 -8l-14 162h-15q-70 -170 -317 -170q-197 0 -268.5 95t-71.5 328v723h102v-718q0 -199 60.5 -268.5t214.5 -69.5q147 0 217.5 76.5t70.5 275.5v704z" glyph-name="uring" horiz-adv-x="1103" unicode="ů"/><glyph d="M449 1604l223 383h106l-256 -383h-73zM760 1604l223 383h107l-256 -383h-74zM643 -20q-254 0 -347 111.5t-93 369.5v973h106v-975q0 -225 73 -305t255 -80q190 0 258 86t68 299v975h106v-973q0 -279 -98.5 -380t-327.5 -101z" glyph-name="Uhungarumlaut" horiz-adv-x="1271" unicode="Ű"/><glyph d="M694 1679l-256 -383h-73l223 383h106zM750 1296h-74l223 383h107zM827 422v704h103v-1130l-82 -8l-14 162h-15q-70 -170 -317 -170q-197 0 -268.5 95t-71.5 328v723h102v-718q0 -199 60.5 -268.5t214.5 -69.5q147 0 217.5 76.5t70.5 275.5z" glyph-name="uhungarumlaut" horiz-adv-x="1103" unicode="ű"/><glyph d="M963 1434h106v-973q0 -258 -86 -363.5t-278 -115.5q-76 -76 -76 -158q0 -59 42 -105.5t150 -46.5l6 -82q-96 0 -168 29q-55 20 -92 70.5t-37 124.5q0 92 68 166q-227 10 -311 122.5t-84 358.5v973h106v-975q0 -225 73 -305t255 -80q190 0 258 86t68 299v975z" glyph-name="Uogonek" horiz-adv-x="1271" unicode="Ų"/><glyph d="M1018 -328l6 -82q-96 0 -168 29q-55 20 -92 70.5t-37 124.5q0 125 115 209h4l-12 127h-15q-70 -170 -317 -170q-197 0 -268.5 95t-71.5 328v723h102v-718q0 -199 60.5 -268.5t214.5 -69.5q147 0 217.5 76.5t70.5 275.5v704h103v-1130l-15 -2q-90 -80 -90 -170 q0 -59 42 -105.5t151 -46.5z" glyph-name="uogonek" horiz-adv-x="1103" unicode="ų"/><glyph d="M866 1915l-254 -320h-73l272 383h111l270 -383h-74zM1546 1434h107l-285 -1434h-168l-323 1341h-29l-324 -1341h-168l-284 1434h106l254 -1342h33l313 1342h168l314 -1342h32z" glyph-name="Wcircumflex" horiz-adv-x="1732" unicode="Ŵ"/><glyph d="M791 1608l-254 -320h-74l272 383h111l270 -383h-74zM1438 1126h108l-286 -1126h-170l-299 1049h-3l-301 -1049h-170l-286 1126h108l252 -1048h27l299 1048h143l299 -1048h27z" glyph-name="wcircumflex" horiz-adv-x="1576" unicode="ŵ"/><glyph d="M551 1915l-254 -320h-74l273 383h110l271 -383h-74zM1040 1434l-434 -871v-563h-106v555l-439 879h115l361 -748h28l361 748h114z" glyph-name="Ycircumflex" horiz-adv-x="1101" unicode="Ŷ"/><glyph d="M471 1608l-254 -320h-74l273 383h110l271 -383h-74zM801 1126h110l-413 -1245q-45 -137 -127 -203.5t-224 -66.5q-25 0 -77 4l12 86q45 -4 65 -4q104 0 166 47t99 162l37 112h-60l-358 1108h110l316 -1020h18z" glyph-name="ycircumflex" horiz-adv-x="942" unicode="ŷ"/><glyph d="M410 1825v-127h-127v127h127zM815 1825v-127h-127v127h127zM1040 1434l-434 -871v-563h-106v555l-439 879h115l361 -748h28l361 748h114z" glyph-name="Ydieresis" horiz-adv-x="1101" unicode="Ÿ"/><glyph d="M791 1987l-256 -383h-74l223 383h107zM152 1434h749v-152l-702 -1151v-39h686v-92h-793v152l703 1151v38h-643v93z" glyph-name="Zacute" horiz-adv-x="1003" unicode="Ź"/><glyph d="M711 1679l-256 -383h-74l223 383h107zM184 88h576v-88h-678v141l559 867v30h-530v88h632v-137l-559 -866v-35z" glyph-name="zacute" horiz-adv-x="841" unicode="ź"/><glyph d="M565 1825v-127h-127v127h127zM152 1434h749v-152l-702 -1151v-39h686v-92h-793v152l703 1151v38h-643v93z" glyph-name="Zdotaccent" horiz-adv-x="1003" unicode="Ż"/><glyph d="M485 1518v-127h-127v127h127zM184 88h576v-88h-678v141l559 867v30h-530v88h632v-137l-559 -866v-35z" glyph-name="zdotaccent" horiz-adv-x="841" unicode="ż"/><glyph d="M446 1595l-272 383h74l254 -319l252 319h73l-270 -383h-111zM152 1434h749v-152l-702 -1151v-39h686v-92h-793v152l703 1151v38h-643v93z" glyph-name="Zcaron" horiz-adv-x="1003" unicode="Ž"/><glyph d="M367 1288l-273 383h74l254 -319l252 319h74l-271 -383h-110zM184 88h576v-88h-678v141l559 867v30h-530v88h632v-137l-559 -866v-35z" glyph-name="zcaron" horiz-adv-x="841" unicode="ž"/><glyph d="M481 1548q70 0 115 -16l-8 -88q-51 14 -125 14q-92 0 -123 -48t-31 -193v-1217h-102v1038h-205v88h205v91q0 199 55 265t219 66z" glyph-name="longs" horiz-adv-x="581" unicode="ſ"/><glyph d="M580 1458q-92 0 -123 -48t-31 -193v-353h256v-88h-256v-854q0 -172 -51 -241.5t-205 -69.5q-25 0 -57 4l8 90q49 -4 72 -4q80 0 105.5 44t25.5 177v854h-205v88h205v353q0 199 55 265t219 66q70 0 115 -16l-8 -88q-51 14 -125 14z" glyph-name="florin" horiz-adv-x="780" unicode="ƒ"/><glyph d="M1264 1628h84v-180q0 -236 -201 -268q63 -160 63 -463q0 -217 -33.5 -363.5t-104.5 -227.5t-163 -113.5t-225 -32.5q-156 0 -261.5 47t-163.5 146t-81.5 228t-23.5 316q0 217 33.5 363.5t104 227.5t164 113.5t228.5 32.5q313 0 432 -209q147 20 148 193v190zM684 74 q240 0 328 149.5t88 493.5q0 254 -47 396t-133 194.5t-236 52.5q-242 0 -331 -149.5t-89 -493.5q0 -254 47 -396.5t135 -194.5t238 -52z" glyph-name="Ohorn" horiz-adv-x="1363" unicode="Ơ"/><glyph d="M1092 1374h84v-180q0 -131 -52.5 -192.5t-154.5 -75.5q53 -129 53 -363q0 -227 -55.5 -358t-148.5 -178t-245 -47q-258 0 -355 142t-97 441q0 172 28.5 288t90 180.5t140.5 90t193 25.5q260 0 361 -158q158 20 158 195v190zM573 70q201 0 273 109.5t72 383.5 q0 289 -76 391.5t-269 102.5q-203 0 -275.5 -109.5t-72.5 -384.5q0 -289 76.5 -391t271.5 -102z" glyph-name="ohorn" horiz-adv-x="1142" unicode="ơ"/><glyph d="M1247 1821h84v-181q0 -147 -66.5 -208.5t-195.5 -65.5v-905q0 -279 -98.5 -380t-327.5 -101q-254 0 -347 111.5t-93 369.5v973h106v-975q0 -225 73 -305t255 -80q190 0 258 86t68 299v975h77q98 0 152.5 43t54.5 153v191z" glyph-name="Uhorn" horiz-adv-x="1271" unicode="Ư"/><glyph d="M1112 1513h84v-180q0 -147 -67.5 -208.5t-198.5 -65.5v-1063l-82 -8l-14 162h-15q-70 -170 -317 -170q-197 0 -268.5 95t-71.5 328v723h102v-718q0 -199 60.5 -268.5t214.5 -69.5q147 0 217.5 76.5t70.5 275.5v704h78q98 0 152.5 43t54.5 154v190z" glyph-name="uhorn" horiz-adv-x="1103" unicode="ư"/><glyph d="M1675 1595l-272 383h74l254 -319l251 319h74l-270 -383h-111zM614 1434q160 0 268.5 -50.5t167 -148.5t83 -222t24.5 -296q0 -209 -38 -352.5t-112.5 -221t-169 -110.5t-223.5 -33h-397v1434h397zM1380 1434h750v-152l-703 -1151v-39h687v-92h-793v152l702 1151v38h-643 v93zM614 82q127 0 213 45t133.5 133t67 197.5t19.5 259.5q0 188 -30 316t-90.5 195.5t-134 95.5t-178.5 28h-290v-1270h290z" glyph-name="uni01C4" horiz-adv-x="2232" unicode="Ǆ"/><glyph d="M1636 1288l-272 383h74l254 -319l252 319h73l-270 -383h-111zM614 1434q160 0 268.5 -50.5t167 -148.5t83 -222t24.5 -296q0 -209 -38 -352.5t-112.5 -221t-169 -110.5t-223.5 -33h-397v1434h397zM614 82q127 0 213 45t133.5 133t67 197.5t19.5 259.5q0 188 -30 316 t-90.5 195.5t-134 95.5t-178.5 28h-290v-1270h290zM1454 88h576v-88h-678v141l559 867v30h-531v88h633v-137l-559 -866v-35z" glyph-name="uni01C5" horiz-adv-x="2111" unicode="ǅ"/><glyph d="M1503 1288l-272 383h74l254 -319l251 319h74l-270 -383h-111zM829 1030v506h103v-1542l-82 -8l-12 139h-15q-74 -145 -282 -145q-123 0 -207 39.5t-130 118.5t-64.5 178.5t-18.5 236.5q0 336 110.5 465t323.5 129q188 0 258 -117h16zM1321 88h575v-88h-677v141l559 867 v30h-531v88h633v-137l-559 -866v-35zM537 70q150 0 221 68.5t71 246.5v356q0 182 -70.5 249t-217.5 67q-182 0 -249 -115t-67 -381q0 -283 73 -387t239 -104z" glyph-name="uni01C6" horiz-adv-x="1978" unicode="ǆ"/><glyph d="M324 1434v-1342h477v-92h-584v1434h107zM1192 1434h106v-1143q0 -152 -62 -231.5t-220 -79.5q-66 0 -123 16l8 94q61 -16 141 -16q78 0 114 46t36 171v1143z" glyph-name="uni01C7" horiz-adv-x="1509" unicode="Ǉ"/><glyph d="M1032 1518h129v-129h-129v129zM801 92v-92h-584v1434h107v-1342h477zM1047 -78v1204h100v-1204q0 -172 -51.5 -241.5t-204.5 -69.5q-55 0 -105 12l9 90q53 -12 118 -12q80 0 107 45t27 176z" glyph-name="uni01C8" horiz-adv-x="1320" unicode="ǈ"/><glyph d="M408 -20q-139 0 -189.5 65.5t-50.5 216.5v1274h102v-1274q0 -113 27 -152.5t92 -39.5q76 0 125 12l8 -92q-42 -10 -114 -10zM733 1389v129h129v-129h-129zM592 -389q-55 0 -105 12l9 90q53 -12 118 -12q80 0 107 45t27 176v1204h100v-1204q0 -172 -51 -241.5t-205 -69.5z " glyph-name="uni01C9" horiz-adv-x="1021" unicode="ǉ"/><glyph d="M1010 92v1342h106v-1434h-205l-561 1341h-26v-1341h-107v1434h205l561 -1342h27zM1653 1434h106v-1143q0 -152 -62.5 -231.5t-219.5 -79.5q-66 0 -123 16l8 94q61 -16 141 -16q78 0 114 46t36 171v1143z" glyph-name="uni01CA" horiz-adv-x="1970" unicode="Ǌ"/><glyph d="M1493 1518h129v-129h-129v129zM1010 92v1342h106v-1434h-205l-561 1341h-26v-1341h-107v1434h205l561 -1342h27zM1507 -78v1204h101v-1204q0 -172 -51.5 -241.5t-204.5 -69.5q-55 0 -105 12l8 90q51 -12 119 -12q80 0 106.5 45t26.5 176z" glyph-name="uni01CB" horiz-adv-x="1781" unicode="ǋ"/><glyph d="M1346 1518h129v-129h-129v129zM612 1147q203 0 277 -95.5t74 -328.5v-723h-103v719q0 197 -63.5 267.5t-221.5 70.5q-154 0 -226.5 -77t-72.5 -275v-705h-102v1130l82 9l14 -162h17q39 92 118.5 131t206.5 39zM1360 -78v1204h100v-1204q0 -172 -51 -241.5t-205 -69.5 q-55 0 -104 12l8 90q53 -12 119 -12q80 0 106.5 45t26.5 176z" glyph-name="uni01CC" horiz-adv-x="1634" unicode="ǌ"/><glyph d="M539 1595l-273 383h74l254 -319l252 319h74l-271 -383h-110zM995 0l-116 424h-580l-117 -424h-110l411 1434h211l412 -1434h-111zM324 516h530l-227 825h-76z" glyph-name="uni01CD" horiz-adv-x="1177" unicode="Ǎ"/><glyph d="M465 1288l-272 383h73l254 -319l252 319h74l-271 -383h-110zM485 1147q207 0 285 -97.5t78 -285.5v-768l-82 -8l-12 143h-15q-74 -152 -290 -151q-199 0 -276 83.5t-77 247.5q0 180 92.5 257t264.5 77h292v119q0 168 -64.5 230.5t-213.5 62.5q-94 0 -279 -35l-14 86 q194 39 311 39zM451 70q154 0 224 80.5t70 289.5v115h-319q-129 0 -177 -59.5t-48 -186.5q0 -135 63.5 -187t186.5 -52z" glyph-name="uni01CE" horiz-adv-x="1009" unicode="ǎ"/><glyph d="M522 1978h74l-270 -383h-111l-272 383h73l254 -319zM217 0v1434h107v-1434h-107z" glyph-name="uni01CF" horiz-adv-x="540" unicode="Ǐ"/><glyph d="M479 1671h74l-270 -383h-111l-272 383h73l254 -319zM174 0v1126h102v-1126h-102z" glyph-name="uni01D0" horiz-adv-x="448" unicode="ǐ"/><glyph d="M627 1595l-273 383h74l254 -319l252 319h74l-271 -383h-110zM684 1454q301 0 413.5 -179t112.5 -558q0 -217 -33.5 -363.5t-104.5 -227.5t-163 -113.5t-225 -32.5q-156 0 -261.5 47t-163.5 146t-81.5 228t-23.5 316q0 217 33.5 363.5t104 227.5t164 113.5t228.5 32.5z M684 74q240 0 328 149.5t88 493.5q0 254 -47 396t-133 194.5t-236 52.5q-242 0 -331 -149.5t-89 -493.5q0 -254 47 -396.5t135 -194.5t238 -52z" glyph-name="uni01D1" horiz-adv-x="1363" unicode="Ǒ"/><glyph d="M518 1288l-272 383h73l254 -319l252 319h74l-270 -383h-111zM573 1147q254 0 351.5 -142.5t97.5 -441.5q0 -227 -55.5 -358t-148.5 -178t-245 -47q-258 0 -355 142t-97 441q0 172 28.5 288t90 180.5t140 90t193.5 25.5zM573 70q201 0 273 109.5t72 383.5q0 289 -76 391.5 t-269 102.5q-203 0 -275.5 -109.5t-72.5 -384.5q0 -289 76.5 -391t271.5 -102z" glyph-name="uni01D2" horiz-adv-x="1142" unicode="ǒ"/><glyph d="M582 1595l-273 383h74l254 -319l252 319h74l-271 -383h-110zM963 1434h106v-973q0 -279 -98.5 -380t-327.5 -101q-254 0 -347 111.5t-93 369.5v973h106v-975q0 -225 73 -305t255 -80q190 0 258 86t68 299v975z" glyph-name="uni01D3" horiz-adv-x="1271" unicode="Ǔ"/><glyph d="M498 1288l-273 383h74l254 -319l252 319h74l-271 -383h-110zM827 1126h103v-1130l-82 -8l-14 162h-15q-70 -170 -317 -170q-197 0 -268.5 95t-71.5 328v723h102v-718q0 -199 60.5 -268.5t214.5 -69.5q147 0 217.5 76.5t70.5 275.5v704z" glyph-name="uni01D4" horiz-adv-x="1103" unicode="ǔ"/><glyph d="M385 2116h494v-88h-494v88zM369 1825h127v-127h-127v127zM774 1825h127v-127h-127v127zM643 -20q-254 0 -347 111.5t-93 369.5v973h106v-975q0 -225 73 -305t255 -80q190 0 258 86t68 299v975h106v-973q0 -279 -98.5 -380t-327.5 -101z" glyph-name="uni01D5" horiz-adv-x="1271" unicode="Ǖ"/><glyph d="M795 1808v-88h-494v88h494zM412 1518v-127h-127v127h127zM690 1391v127h127v-127h-127zM827 1126h103v-1130l-82 -8l-14 162h-15q-70 -170 -317 -170q-197 0 -268.5 95t-71.5 328v723h102v-718q0 -199 60.5 -268.5t214.5 -69.5q147 0 217.5 76.5t70.5 275.5v704z" glyph-name="uni01D6" horiz-adv-x="1103" unicode="ǖ"/><glyph d="M600 1960l221 383h107l-254 -383h-74zM369 1825h127v-127h-127v127zM774 1825h127v-127h-127v127zM643 -20q-254 0 -347 111.5t-93 369.5v973h106v-975q0 -225 73 -305t255 -80q190 0 258 86t68 299v975h106v-973q0 -279 -98.5 -380t-327.5 -101z" glyph-name="uni01D7" horiz-adv-x="1271" unicode="Ǘ"/><glyph d="M844 2036l-254 -383h-74l221 383h107zM412 1518v-127h-127v127h127zM817 1391h-127v127h127v-127zM827 1126h103v-1130l-82 -8l-14 162h-15q-70 -170 -317 -170q-197 0 -268.5 95t-71.5 328v723h102v-718q0 -199 60.5 -268.5t214.5 -69.5q147 0 217.5 76.5t70.5 275.5 v704z" glyph-name="uni01D8" horiz-adv-x="1103" unicode="ǘ"/><glyph d="M582 1960l-271 383h72l254 -320l254 320h74l-273 -383h-110zM496 1698h-127v127h127v-127zM901 1698h-127v127h127v-127zM963 1434h106v-973q0 -279 -98.5 -380t-327.5 -101q-254 0 -347 111.5t-93 369.5v973h106v-975q0 -225 73 -305t255 -80q190 0 258 86t68 299v975z " glyph-name="uni01D9" horiz-adv-x="1271" unicode="Ǚ"/><glyph d="M498 1653l-271 383h72l254 -320l254 320h74l-273 -383h-110zM412 1391h-127v127h127v-127zM817 1391h-127v127h127v-127zM827 1126h103v-1130l-82 -8l-14 162h-15q-70 -170 -317 -170q-197 0 -268.5 95t-71.5 328v723h102v-718q0 -199 60.5 -268.5t214.5 -69.5 q147 0 217.5 76.5t70.5 275.5v704z" glyph-name="uni01DA" horiz-adv-x="1103" unicode="ǚ"/><glyph d="M606 1960l-256 383h107l221 -383h-72zM369 1698v127h127v-127h-127zM774 1698v127h127v-127h-127zM643 -20q-254 0 -347 111.5t-93 369.5v973h106v-975q0 -225 73 -305t255 -80q190 0 258 86t68 299v975h106v-973q0 -279 -98.5 -380t-327.5 -101z" glyph-name="uni01DB" horiz-adv-x="1271" unicode="Ǜ"/><glyph d="M594 1653h-72l-256 383h107zM412 1391h-127v127h127v-127zM817 1518v-127h-127v127h127zM827 1126h103v-1130l-82 -8l-14 162h-15q-70 -170 -317 -170q-197 0 -268.5 95t-71.5 328v723h102v-718q0 -199 60.5 -268.5t214.5 -69.5q147 0 217.5 76.5t70.5 275.5v704z" glyph-name="uni01DC" horiz-adv-x="1103" unicode="ǜ"/><glyph d="M1053 1800v-88h-494v88h494zM731 92h561v-92h-667v424h-367l-135 -424h-105l467 1434h783v-93h-537v-553h506v-92h-506v-604zM287 516h338v825h-76z" glyph-name="uni01E2" horiz-adv-x="1400" unicode="Ǣ"/><glyph d="M598 1595l-272 383h73l254 -319l252 319h74l-270 -383h-111zM1061 776v-782l-80 -8l-12 137h-15q-98 -141 -336 -141q-262 0 -364 191.5t-102 559.5q0 211 38.5 355.5t115.5 223.5t173 111.5t230 32.5q170 0 305 -45l-8 -98q-154 49 -310 49q-240 0 -337 -159t-97 -470 q0 -190 24.5 -320t75 -204t118 -105.5t163.5 -31.5q164 0 239.5 67.5t75.5 251.5v293h-235v92h338z" glyph-name="Gcaron" horiz-adv-x="1210" unicode="Ǧ"/><glyph d="M487 1288l-272 383h74l254 -319l252 319h73l-270 -383h-111zM567 203q276 0 380 -71t104 -220q0 -172 -117 -236.5t-367 -64.5q-272 0 -376.5 62.5t-104.5 199.5q0 186 164 242v14q-121 37 -121 156q0 70 82 139l39 35q-106 88 -107 293q0 223 99.5 309t292.5 86 q113 0 188 -21h309v-47l-213 -39q121 -66 121 -268q0 -223 -98.5 -308t-288.5 -85q-141 0 -231 39l-50 -43q-41 -33 -41 -84q0 -39 35 -63.5t101 -24.5h200zM547 1057q-174 0 -236.5 -65.5t-62.5 -229.5q0 -170 65.5 -231.5t229.5 -61.5q172 0 232.5 64.5t60.5 228.5 q0 172 -63.5 233.5t-225.5 61.5zM575 -299q217 0 294 43t77 166q0 119 -83 161t-294 42h-84q-170 -8 -233.5 -63.5t-61.5 -170.5q2 -98 80 -138t305 -40z" glyph-name="gcaron" horiz-adv-x="1085" unicode="ǧ"/><glyph d="M553 1595l-272 383h73l254 -319l252 319h74l-270 -383h-111zM932 0l-514 696h-94v-696h-107v1434h107v-646h86l481 646h123l-508 -686l547 -748h-121z" glyph-name="uni01E8" horiz-adv-x="1089" unicode="Ǩ"/><glyph d="M186 1647l-272 383h74l254 -320l252 320h73l-270 -383h-111zM801 0l-453 575h-72v-575h-102v1536h102v-872h72l414 462h115l-449 -508l490 -618h-117z" glyph-name="uni01E9" horiz-adv-x="917" unicode="ǩ"/><glyph d="M614 1434q160 0 268.5 -50.5t167 -148.5t83 -222t24.5 -296q0 -209 -38 -352.5t-112.5 -221t-169 -110.5t-223.5 -33h-397v1434h397zM1380 1434h750v-152l-703 -1151v-39h687v-92h-793v152l702 1151v38h-643v93zM614 82q127 0 213 45t133.5 133t67 197.5t19.5 259.5 q0 188 -30 316t-90.5 195.5t-134 95.5t-178.5 28h-290v-1270h290z" glyph-name="uni01F1" horiz-adv-x="2232" unicode="Ǳ"/><glyph d="M614 1434q160 0 268.5 -50.5t167 -148.5t83 -222t24.5 -296q0 -209 -38 -352.5t-112.5 -221t-169 -110.5t-223.5 -33h-397v1434h397zM614 82q127 0 213 45t133.5 133t67 197.5t19.5 259.5q0 188 -30 316t-90.5 195.5t-134 95.5t-178.5 28h-290v-1270h290zM1454 88h576 v-88h-678v141l559 867v30h-531v88h633v-137l-559 -866v-35z" glyph-name="uni01F2" horiz-adv-x="2111" unicode="ǲ"/><glyph d="M829 1030v506h103v-1542l-82 -8l-12 139h-15q-74 -145 -282 -145q-123 0 -207 39.5t-130 118.5t-64.5 178.5t-18.5 236.5q0 336 110.5 465t323.5 129q188 0 258 -117h16zM1321 88h575v-88h-677v141l559 867v30h-531v88h633v-137l-559 -866v-35zM537 70q150 0 221 68.5 t71 246.5v356q0 182 -70.5 249t-217.5 67q-182 0 -249 -115t-67 -381q0 -283 73 -387t239 -104z" glyph-name="uni01F3" horiz-adv-x="1978" unicode="ǳ"/><glyph d="M942 1987l-256 -383h-74l224 383h106zM1061 776v-782l-80 -8l-12 137h-15q-98 -141 -336 -141q-262 0 -364 191.5t-102 559.5q0 211 38.5 355.5t115.5 223.5t173 111.5t230 32.5q170 0 305 -45l-8 -98q-154 49 -310 49q-240 0 -337 -159t-97 -470q0 -190 24.5 -320 t75 -204t118 -105.5t163.5 -31.5q164 0 239.5 67.5t75.5 251.5v293h-235v92h338z" glyph-name="uni01F4" horiz-adv-x="1210" unicode="Ǵ"/><glyph d="M831 1679l-256 -383h-73l223 383h106zM567 203q276 0 380 -71t104 -220q0 -172 -117 -236.5t-367 -64.5q-272 0 -376.5 62.5t-104.5 199.5q0 186 164 242v14q-121 37 -121 156q0 70 82 139l39 35q-106 88 -107 293q0 223 99.5 309t292.5 86q113 0 188 -21h309v-47 l-213 -39q121 -66 121 -268q0 -223 -98.5 -308t-288.5 -85q-141 0 -231 39l-50 -43q-41 -33 -41 -84q0 -39 35 -63.5t101 -24.5h200zM547 1057q-174 0 -236.5 -65.5t-62.5 -229.5q0 -170 65.5 -231.5t229.5 -61.5q172 0 232.5 64.5t60.5 228.5q0 172 -63.5 233.5 t-225.5 61.5zM575 -299q217 0 294 43t77 166q0 119 -83 161t-294 42h-84q-170 -8 -233.5 -63.5t-61.5 -170.5q2 -98 80 -138t305 -40z" glyph-name="uni01F5" horiz-adv-x="1085" unicode="ǵ"/><glyph d="M887 2458l-256 -383h-74l223 383h107zM594 1595q-125 0 -172 51.5t-47 149.5q0 111 56 155t163 44q125 0 172 -50.5t47 -148.5q0 -113 -56.5 -157t-162.5 -44zM594 1931q-74 0 -108.5 -29.5t-34.5 -105.5q0 -70 30.5 -102.5t112.5 -32.5q74 0 108.5 28.5t34.5 106.5 q0 70 -30.5 102.5t-112.5 32.5zM995 0l-116 424h-580l-117 -424h-110l411 1434h211l412 -1434h-111zM324 516h530l-227 825h-76z" glyph-name="Aringacute" horiz-adv-x="1177" unicode="Ǻ"/><glyph d="M813 2150l-256 -383h-74l224 383h106zM520 1288q-125 0 -172 51.5t-47 149.5q0 111 56.5 155t162.5 44q125 0 172 -50.5t47 -148.5q0 -113 -56.5 -157t-162.5 -44zM520 1624q-74 0 -108.5 -29.5t-34.5 -105.5q0 -70 30.5 -102.5t112.5 -32.5q74 0 109 28.5t35 106.5 q0 70 -31 102.5t-113 32.5zM485 1147q207 0 285 -97.5t78 -285.5v-768l-82 -8l-12 143h-15q-74 -152 -290 -151q-199 0 -276 83.5t-77 247.5q0 180 92.5 257t264.5 77h292v119q0 168 -64.5 230.5t-213.5 62.5q-94 0 -279 -35l-14 86q194 39 311 39zM451 70q154 0 224 80.5 t70 289.5v115h-319q-129 0 -177 -59.5t-48 -186.5q0 -135 63.5 -187t186.5 -52z" glyph-name="aringacute" horiz-adv-x="1009" unicode="ǻ"/><glyph d="M1094 1987l-256 -383h-74l223 383h107zM731 92h561v-92h-667v424h-367l-135 -424h-105l467 1434h783v-93h-537v-553h506v-92h-506v-604zM287 516h338v825h-76z" glyph-name="AEacute" horiz-adv-x="1400" unicode="Ǽ"/><glyph d="M981 1987l-256 -383h-74l223 383h107zM987 1382q123 -78 173 -240.5t50 -424.5q0 -217 -33.5 -363.5t-104.5 -227.5t-163 -113.5t-225 -32.5q-125 0 -223 32l-45 -114h-99l60 155q-123 78 -173 241t-50 423q0 217 33.5 363.5t104 227.5t164 113.5t228.5 32.5 q129 0 219 -33l45 115h99zM264 717q0 -438 152 -565l454 1179q-74 29 -186 29q-242 0 -331 -149.5t-89 -493.5zM684 74q240 0 328 149.5t88 493.5q0 438 -150 567l-454 -1182q73 -28 188 -28z" glyph-name="Oslashacute" horiz-adv-x="1363" unicode="Ǿ"/><glyph d="M879 1679l-256 -383h-74l223 383h107zM825 1094q109 -61 153 -191.5t44 -339.5q0 -227 -55.5 -358t-148.5 -178t-245 -47q-100 0 -170 20l-38 -102h-99l53 137q-111 59 -154.5 189t-43.5 339q0 172 28.5 288t90 180.5t140.5 90t193 25.5q98 0 166 -21l39 103h99zM225 563 q0 -186 30 -290.5t97 -151.5l355 921q-55 14 -134 15q-203 0 -275.5 -110t-72.5 -384zM573 70q201 0 273 109.5t72 383.5q0 186 -30 290.5t-97 152.5l-355 -922q55 -14 137 -14z" glyph-name="oslashacute" horiz-adv-x="1142" unicode="ǿ"/><glyph d="M471 1604h-74l-256 383h107zM782 1604h-73l-256 383h106zM995 0l-116 424h-580l-117 -424h-110l411 1434h211l412 -1434h-111zM324 516h530l-227 825h-76z" glyph-name="uni0200" horiz-adv-x="1177" unicode="Ȁ"/><glyph d="M397 1296h-73l-256 383h106zM709 1296h-74l-256 383h106zM485 1147q207 0 285 -97.5t78 -285.5v-768l-82 -8l-12 143h-15q-74 -152 -290 -151q-199 0 -276 83.5t-77 247.5q0 180 92.5 257t264.5 77h292v119q0 168 -64.5 230.5t-213.5 62.5q-94 0 -279 -35l-14 86 q194 39 311 39zM451 70q154 0 224 80.5t70 289.5v115h-319q-129 0 -177 -59.5t-48 -186.5q0 -135 63.5 -187t186.5 -52z" glyph-name="uni0201" horiz-adv-x="1009" unicode="ȁ"/><glyph d="M387 1677v-37h-84v27q0 135 64.5 205t228.5 70q141 0 215 -59.5t74 -215.5v-27h-82v37q0 111 -54.5 154t-154.5 43q-207 0 -207 -197zM995 0l-116 424h-580l-117 -424h-110l411 1434h211l412 -1434h-111zM324 516h530l-227 825h-76z" glyph-name="uni0202" horiz-adv-x="1177" unicode="Ȃ"/><glyph d="M313 1370v-37h-84v27q0 135 64.5 204.5t228.5 69.5q141 0 215 -59t74 -215v-27h-82v37q0 111 -54 154t-155 43q-207 0 -207 -197zM485 1147q207 0 285 -97.5t78 -285.5v-768l-82 -8l-12 143h-15q-74 -152 -290 -151q-199 0 -276 83.5t-77 247.5q0 180 92.5 257t264.5 77 h292v119q0 168 -64.5 230.5t-213.5 62.5q-94 0 -279 -35l-14 86q194 39 311 39zM451 70q154 0 224 80.5t70 289.5v115h-319q-129 0 -177 -59.5t-48 -186.5q0 -135 63.5 -187t186.5 -52z" glyph-name="uni0203" horiz-adv-x="1009" unicode="ȃ"/><glyph d="M428 1604h-74l-256 383h107zM739 1604h-73l-256 383h106zM324 92h563v-92h-670v1434h645v-93h-538v-553h507v-92h-507v-604z" glyph-name="uni0204" horiz-adv-x="995" unicode="Ȅ"/><glyph d="M418 1296h-74l-256 383h107zM729 1296h-74l-256 383h107zM221 524q6 -258 95.5 -356t269.5 -98q133 0 336 67l14 -88q-211 -70 -367 -69q-256 0 -354 148t-98 435q0 170 31.5 287t95 180.5t142.5 90t185 26.5q225 0 310.5 -142.5t85.5 -441.5v-39h-746zM571 1057 q-193 0 -268.5 -103.5t-81.5 -341.5h643q-6 256 -73.5 350.5t-219.5 94.5z" glyph-name="uni0205" horiz-adv-x="1069" unicode="ȅ"/><glyph d="M344 1677v-37h-84v27q0 135 64.5 205t228.5 70q141 0 215 -59.5t74 -215.5v-27h-82v37q0 111 -54.5 154t-154.5 43q-207 0 -207 -197zM324 92h563v-92h-670v1434h645v-93h-538v-553h507v-92h-507v-604z" glyph-name="uni0206" horiz-adv-x="995" unicode="Ȇ"/><glyph d="M334 1370v-37h-84v27q0 135 64.5 204.5t228.5 69.5q141 0 214.5 -59t73.5 -215v-27h-81v37q0 111 -54.5 154t-154.5 43q-207 0 -207 -197zM221 524q6 -258 95.5 -356t269.5 -98q133 0 336 67l14 -88q-211 -70 -367 -69q-256 0 -354 148t-98 435q0 170 31.5 287t95 180.5 t142.5 90t185 26.5q225 0 310.5 -142.5t85.5 -441.5v-39h-746zM571 1057q-193 0 -268.5 -103.5t-81.5 -341.5h643q-6 256 -73.5 350.5t-219.5 94.5z" glyph-name="uni0207" horiz-adv-x="1069" unicode="ȇ"/><glyph d="M74 1604l-256 383h106l223 -383h-73zM385 1604l-256 383h107l223 -383h-74zM324 1434v-1434h-107v1434h107z" glyph-name="uni0208" horiz-adv-x="540" unicode="Ȉ"/><glyph d="M31 1296l-256 383h106l223 -383h-73zM342 1296l-256 383h107l223 -383h-74zM276 1126v-1126h-102v1126h102z" glyph-name="uni0209" horiz-adv-x="448" unicode="ȉ"/><glyph d="M-20 1640v27q0 135 64.5 205t227.5 70q141 0 215 -59.5t74 -215.5v-27h-82v37q0 111 -54 154t-155 43q-207 0 -207 -197v-37h-83zM324 1434v-1434h-107v1434h107z" glyph-name="uni020A" horiz-adv-x="540" unicode="Ȋ"/><glyph d="M-63 1333v27q0 135 64.5 204.5t227.5 69.5q141 0 215 -59t74 -215v-27h-82v37q0 111 -54 154t-155 43q-207 0 -207 -197v-37h-83zM276 1126v-1126h-102v1126h102z" glyph-name="uni020B" horiz-adv-x="448" unicode="ȋ"/><glyph d="M485 1604l-256 383h107l223 -383h-74zM797 1604l-256 383h106l223 -383h-73zM684 -20q-156 0 -261.5 47t-163.5 146t-81.5 228t-23.5 316q0 217 33.5 363.5t104 227.5t164 113.5t228.5 32.5q301 0 413.5 -179t112.5 -558q0 -217 -33.5 -363.5t-104.5 -227.5t-163 -113.5 t-225 -32.5zM684 74q240 0 328 149.5t88 493.5q0 254 -47 396t-133 194.5t-236 52.5q-242 0 -331 -149.5t-89 -493.5q0 -254 47 -396.5t135 -194.5t238 -52z" glyph-name="uni020C" horiz-adv-x="1363" unicode="Ȍ"/><glyph d="M377 1296l-256 383h106l224 -383h-74zM688 1296l-256 383h107l223 -383h-74zM573 -20q-258 0 -355 142t-97 441q0 172 28.5 288t90 180.5t140.5 90t193 25.5q254 0 351.5 -142.5t97.5 -441.5q0 -227 -55.5 -358t-148.5 -178t-245 -47zM573 70q201 0 273 109.5t72 383.5 q0 289 -76 391.5t-269 102.5q-203 0 -275.5 -109.5t-72.5 -384.5q0 -289 76.5 -391t271.5 -102z" glyph-name="uni020D" horiz-adv-x="1142" unicode="ȍ"/><glyph d="M391 1640v27q0 135 64.5 205t228.5 70q141 0 215 -59.5t74 -215.5v-27h-82v37q0 111 -54.5 154t-154.5 43q-207 0 -207 -197v-37h-84zM684 -20q-156 0 -261.5 47t-163.5 146t-81.5 228t-23.5 316q0 217 33.5 363.5t104 227.5t164 113.5t228.5 32.5q301 0 413.5 -179 t112.5 -558q0 -217 -33.5 -363.5t-104.5 -227.5t-163 -113.5t-225 -32.5zM684 74q240 0 328 149.5t88 493.5q0 254 -47 396t-133 194.5t-236 52.5q-242 0 -331 -149.5t-89 -493.5q0 -254 47 -396.5t135 -194.5t238 -52z" glyph-name="uni020E" horiz-adv-x="1363" unicode="Ȏ"/><glyph d="M283 1333v27q0 135 64.5 204.5t227.5 69.5q141 0 215 -59t74 -215v-27h-82v37q0 111 -54 154t-155 43q-207 0 -206 -197v-37h-84zM573 -20q-258 0 -355 142t-97 441q0 172 28.5 288t90 180.5t140.5 90t193 25.5q254 0 351.5 -142.5t97.5 -441.5q0 -227 -55.5 -358 t-148.5 -178t-245 -47zM573 70q201 0 273 109.5t72 383.5q0 289 -76 391.5t-269 102.5q-203 0 -275.5 -109.5t-72.5 -384.5q0 -289 76.5 -391t271.5 -102z" glyph-name="uni020F" horiz-adv-x="1142" unicode="ȏ"/><glyph d="M449 1604h-74l-256 383h106zM760 1604h-74l-256 383h107zM1094 0h-123l-371 635q-74 -4 -119 -4h-157v-631h-107v1434h264q287 0 391.5 -90.5t104.5 -299.5q0 -180 -64.5 -272t-205.5 -123zM324 713h157q223 0 304 72.5t81 250.5q0 184 -86 250t-299 66h-157v-639z" glyph-name="uni0210" horiz-adv-x="1144" unicode="Ȑ"/><glyph d="M20 1679l224 -383h-74l-256 383h106zM555 1296h-74l-256 383h107zM612 1147q27 0 41 -2l-8 -113q-39 25 -115 25q-127 0 -190.5 -110.5t-63.5 -305.5v-641h-102v1130l82 9l14 -162h17q89 170 325 170z" glyph-name="uni0211" horiz-adv-x="673" unicode="ȑ"/><glyph d="M365 1677v-37h-84v27q0 135 64.5 205t227.5 70q141 0 215 -59.5t74 -215.5v-27h-82v37q0 111 -54 154t-155 43q-206 0 -206 -197zM1094 0h-123l-371 635q-74 -4 -119 -4h-157v-631h-107v1434h264q287 0 391.5 -90.5t104.5 -299.5q0 -180 -64.5 -272t-205.5 -123zM324 713 h157q223 0 304 72.5t81 250.5q0 184 -86 250t-299 66h-157v-639z" glyph-name="uni0212" horiz-adv-x="1144" unicode="Ȓ"/><glyph d="M369 1634q141 0 214.5 -59t73.5 -215v-27h-82v37q0 111 -54 154t-154 43q-207 0 -207 -197v-37h-84v27q0 135 64.5 204.5t228.5 69.5zM287 977q90 170 325 170q27 0 41 -2l-8 -113q-39 25 -115 25q-127 0 -190.5 -110.5t-63.5 -305.5v-641h-102v1130l82 9l14 -162h17z " glyph-name="uni0213" horiz-adv-x="673" unicode="ȓ"/><glyph d="M440 1604l-256 383h107l223 -383h-74zM752 1604l-256 383h106l223 -383h-73zM643 -20q-254 0 -347 111.5t-93 369.5v973h106v-975q0 -225 73 -305t255 -80q190 0 258 86t68 299v975h106v-973q0 -279 -98.5 -380t-327.5 -101z" glyph-name="uni0214" horiz-adv-x="1271" unicode="Ȕ"/><glyph d="M430 1296h-74l-256 383h107zM741 1296h-73l-256 383h106zM827 1126h103v-1130l-82 -8l-14 162h-15q-70 -170 -317 -170q-197 0 -268.5 95t-71.5 328v723h102v-718q0 -199 60.5 -268.5t214.5 -69.5q147 0 217.5 76.5t70.5 275.5v704z" glyph-name="uni0215" horiz-adv-x="1103" unicode="ȕ"/><glyph d="M346 1640v27q0 135 64.5 205t228.5 70q141 0 215 -59.5t74 -215.5v-27h-82v37q0 111 -54.5 154t-154.5 43q-207 0 -207 -197v-37h-84zM643 -20q-254 0 -347 111.5t-93 369.5v973h106v-975q0 -225 73 -305t255 -80q190 0 258 86t68 299v975h106v-973q0 -279 -98.5 -380 t-327.5 -101z" glyph-name="uni0216" horiz-adv-x="1271" unicode="Ȗ"/><glyph d="M346 1370v-37h-84v27q0 135 64.5 204.5t228.5 69.5q141 0 215 -59t74 -215v-27h-82v37q0 111 -54.5 154t-154.5 43q-207 0 -207 -197zM827 1126h103v-1130l-82 -8l-14 162h-15q-70 -170 -317 -170q-197 0 -268.5 95t-71.5 328v723h102v-718q0 -199 60.5 -268.5 t214.5 -69.5q147 0 217.5 76.5t70.5 275.5v704z" glyph-name="uni0217" horiz-adv-x="1103" unicode="ȗ"/><glyph d="M668 641q84 -72 117.5 -137.5t33.5 -169.5q0 -354 -393 -354q-139 0 -324 49l9 96q211 -51 331 -51q266 0 267 248q0 84 -22.5 131t-88.5 102l-365 307q-68 59 -95 116.5t-27 156.5q0 319 399 319q109 0 281 -27l-9 -92q-168 25 -268 25q-143 0 -218 -47t-75 -170 q0 -76 18.5 -117t71.5 -88zM389 -279v127h127v-127l-51 -188h-76l45 188h-45z" glyph-name="Scommaaccent" horiz-adv-x="931" unicode="Ș"/><glyph d="M584 510q141 -102 141 -250q0 -160 -92 -220t-271 -60q-98 0 -260 22l9 92q143 -25 264 -24q141 0 193.5 45t52.5 139q0 109 -89 174l-319 236q-104 74 -104 217q0 150 83.5 208t245.5 58q98 0 246 -25l-8 -90q-143 25 -262 25q-115 0 -158 -43t-43 -133q0 -59 15.5 -91 t62.5 -67zM354 -279v127h127v-127l-51 -188h-76l45 188h-45z" glyph-name="scommaaccent" horiz-adv-x="817" unicode="ș"/><glyph d="M811 1434v-93h-326v-1341h-106v1341h-328v93h760zM371 -279v127h127v-127l-52 -188h-75l45 188h-45z" glyph-name="uni021A" horiz-adv-x="862" unicode="Ț"/><glyph d="M578 1038h-261v-776q0 -113 26 -152.5t91 -39.5q74 0 127 12l8 -92q-43 -10 -110 -10q-141 0 -192.5 65.5t-51.5 216.5v776h-182v88h182v273h102v-273h261v-88zM281 -279v127h127v-127l-52 -188h-75l45 188h-45z" glyph-name="uni021B" horiz-adv-x="665" unicode="ț"/><glyph d="M602 1595l-272 383h73l254 -319l252 319h74l-270 -383h-111zM993 1434h107v-1434h-107v696h-669v-696h-107v1434h107v-646h669v646z" glyph-name="uni021E" horiz-adv-x="1316" unicode="Ȟ"/><glyph d="M186 1647l-272 383h74l254 -320l252 320h73l-270 -383h-111zM612 1147q203 0 277 -95.5t74 -328.5v-723h-103v719q0 197 -63.5 267.5t-221.5 70.5q-154 0 -226.5 -77t-72.5 -275v-705h-102v1536h102v-545h17q75 156 319 156z" glyph-name="uni021F" horiz-adv-x="1124" unicode="ȟ"/><glyph d="M799 1800v-88h-494v88h494zM1040 1434l-434 -871v-563h-106v555l-439 879h115l361 -748h28l361 748h114z" glyph-name="uni0232" horiz-adv-x="1101" unicode="Ȳ"/><glyph d="M719 1493v-88h-494v88h494zM801 1126h110l-413 -1245q-45 -137 -127 -203.5t-224 -66.5q-25 0 -77 4l12 86q45 -4 65 -4q104 0 166 47t99 162l37 112h-60l-358 1108h110l316 -1020h18z" glyph-name="uni0233" horiz-adv-x="942" unicode="ȳ"/><glyph d="M18 -389q-55 0 -104 12l8 90q51 -12 119 -12q80 0 106.5 45t26.5 176v1204h100v-1204q0 -172 -51 -241.5t-205 -69.5z" glyph-name="uni0237" horiz-adv-x="448" unicode="ȷ"/><glyph d="M694 1288h-73l-252 320l-254 -320h-74l272 383h111z" glyph-name="circumflex" horiz-adv-x="735" unicode="ˆ"/><glyph d="M623 1671h73l-270 -383h-111l-272 383h74l254 -319z" glyph-name="caron" horiz-adv-x="739" unicode="ˇ"/><glyph d="M428 1333q-164 0 -228.5 70t-64.5 205v26h84v-37q0 -197 207 -196q100 0 154.5 43t54.5 153v37h82v-26q0 -156 -74 -215.5t-215 -59.5z" glyph-name="breve" horiz-adv-x="851" unicode="˘"/><glyph d="M174 1518h127v-127h-127v127z" glyph-name="dotaccent" horiz-adv-x="475" unicode="˙"/><glyph d="M365 1288q-125 0 -172.5 51.5t-47.5 149.5q0 111 56.5 155t163.5 44q125 0 172 -50.5t47 -148.5q0 -113 -56.5 -157t-162.5 -44zM365 1354q74 0 108.5 28.5t34.5 106.5q0 70 -31 102.5t-112 32.5q-74 0 -109 -29.5t-35 -105.5q0 -70 31 -102.5t113 -32.5z" glyph-name="ring" horiz-adv-x="731" unicode="˚"/><glyph d="M422 -410q-96 0 -168 29q-55 20 -92 70.5t-37 124.5q0 125 115 209l88 -17q-104 -86 -105 -182q0 -59 42 -105.5t151 -46.5z" glyph-name="ogonek" horiz-adv-x="501" unicode="˛"/><glyph d="M569 1352q-53 0 -114 43l-99 69q-29 18 -53 19q-35 0 -57.5 -28t-32.5 -103h-70q0 92 42 147t114 55q63 0 117 -38l100 -74q25 -18 51 -19q72 0 90 133h70q0 -92 -43 -148t-115 -56z" glyph-name="tilde" horiz-adv-x="870" unicode="˜"/><glyph d="M66 1296l223 383h106l-256 -383h-73zM377 1296l223 383h107l-256 -383h-74z" glyph-name="hungarumlaut" horiz-adv-x="757" unicode="˝"/><glyph d="M-141 1296l-256 383h106l223 -383h-73z" glyph-name="gravecomb" unicode="̀"/><glyph d="M-383 1296l223 383h107l-256 -383h-74z" glyph-name="acutecomb" unicode="́"/><glyph d="M-43 1288h-74l-252 320l-254 -320h-73l272 383h111z" glyph-name="uni0302" unicode="̂"/><glyph d="M-307 1352q-53 0 -115 43l-98 69q-29 18 -53 19q-35 0 -57.5 -28t-33.5 -103h-69q0 92 42 147t113 55q63 0 117 -38l101 -74q25 -18 51 -19q72 0 90 133h69q0 -92 -42.5 -148t-114.5 -56z" glyph-name="tildecomb" unicode="̃"/><glyph d="M-670 1493h494v-88h-494v88z" glyph-name="uni0304" unicode="̄"/><glyph d="M-426 1333q-164 0 -228.5 70t-64.5 205v26h84v-37q0 -197 207 -196q100 0 154.5 43t54.5 153v37h82v-26q0 -156 -74 -215.5t-215 -59.5z" glyph-name="uni0306" unicode="̆"/><glyph d="M-303 1518h127v-127h-127v127z" glyph-name="uni0307" unicode="̇"/><glyph d="M-709 1518h127v-127h-127v127zM-303 1518h127v-127h-127v127z" glyph-name="uni0308" unicode="̈"/><glyph d="M-371 1311q0 47 10.5 72.5t49.5 54.5l53 41q33 25 33 65.5t-22.5 56t-78.5 15.5q-45 0 -104 -8l-6 65q70 10 121 10q92 0 131 -32.5t41 -98.5q0 -59 -56 -106l-61 -49q-49 -39 -49 -86h-62z" glyph-name="hookabovecomb" unicode="̉"/><glyph d="M-369 1288q-125 0 -172 51.5t-47 149.5q0 111 56.5 155t162.5 44q125 0 172 -50.5t47 -148.5q0 -113 -56.5 -157t-162.5 -44zM-369 1354q74 0 109 28.5t35 106.5q0 70 -31 102.5t-113 32.5q-74 0 -108.5 -29.5t-34.5 -105.5q0 -70 30.5 -102.5t112.5 -32.5z" glyph-name="uni030A" unicode="̊"/><glyph d="M-694 1296l223 383h106l-256 -383h-73zM-383 1296l223 383h107l-256 -383h-74z" glyph-name="uni030B" unicode="̋"/><glyph d="M-119 1671h74l-270 -383h-111l-272 383h73l254 -319z" glyph-name="uni030C" unicode="̌"/><glyph d="M-436 1296l-256 383h106l224 -383h-74zM-125 1296l-256 383h107l223 -383h-74z" glyph-name="uni030F" unicode="̏"/><glyph d="M-717 1333v27q0 135 64.5 204.5t228.5 69.5q141 0 215 -59t74 -215v-27h-82v37q0 111 -54.5 154t-154.5 43q-207 0 -207 -197v-37h-84z" glyph-name="uni0311" unicode="̑"/><glyph d="M-207 1520h45v-127h-127v127l51 186h74z" glyph-name="uni0312" unicode="̒"/><glyph d="M-426 1174v67q98 0 152.5 43t54.5 154v190h84v-180q0 -154 -74 -214t-217 -60z" glyph-name="uni031B" unicode="̛"/><glyph d="M-301 -152h127v-127h-127v127z" glyph-name="dotbelowcomb" unicode="̣"/><glyph d="M-283 -152h127v-127l-51 -188h-76l45 188h-45v127z" glyph-name="uni0326" unicode="̦"/><glyph d="M-299 -129q111 -2 154 -45t43 -127q0 -90 -48.5 -140.5t-173.5 -50.5q-59 0 -108 17l8 86q51 -18 112.5 -18.5t89 22.5t27.5 86q0 90 -90 90h-104l53 262h84z" glyph-name="uni0327" unicode="̧"/><glyph d="M-82 -410q-96 0 -168 29q-55 20 -92 70.5t-37 124.5q0 125 115 209l88 -17q-104 -86 -105 -182q0 -59 42 -105.5t151 -46.5z" glyph-name="uni0328" unicode="̨"/><glyph d="M-799 621h625v-93h-625v93z" glyph-name="uni0335" unicode="̵"/><glyph d="M-946 680h772v-92h-772v92z" glyph-name="uni0336" unicode="̶"/><glyph d="M-557 -102l444 1331h101l-445 -1331h-100z" glyph-name="uni0337" unicode="̷"/><glyph d="M-659 -102l546 1638h101l-547 -1638h-100z" glyph-name="uni0338" unicode="̸"/><glyph d="M651 1825v-127h-127v127h127zM809 743q117 -33 167 -113.5t50 -228.5q0 -227 -120 -314t-349 -87h-340v1434h297q279 0 378 -76t99 -266q0 -254 -182 -334v-15zM514 1343h-190v-552h190q217 0 292 60t75 220q0 162 -78 217t-289 55zM557 90q205 0 281.5 71.5t76.5 223.5 q0 182 -81.5 248.5t-276.5 66.5h-233v-610h233z" glyph-name="uni1E02" horiz-adv-x="1175" unicode="Ḃ"/><glyph d="M551 1147q213 0 323.5 -129t110.5 -465q0 -137 -18.5 -236.5t-64.5 -178.5t-130 -118.5t-207 -39.5q-209 0 -282 145h-15l-12 -139l-82 8v1542h102v-506h17q70 117 258 117zM614 1518v-127h-127v127h127zM567 70q168 0 241 103t73 388q0 266 -66.5 381t-249.5 115 q-147 0 -218 -66.5t-71 -249.5v-356q0 -178 70.5 -246.5t220.5 -68.5z" glyph-name="uni1E03" horiz-adv-x="1105" unicode="ḃ"/><glyph d="M590 1825v-127h-127v127h127zM842 1341h-518v-593h481v-93h-481v-655h-107v1434h625v-93z" glyph-name="uni1E1E" horiz-adv-x="944" unicode="Ḟ"/><glyph d="M465 1825v-127h-127v127h127zM463 1458q-92 0 -123 -48t-31 -193v-91h254v-88h-254v-1038h-102v1038h-205v88h205v91q0 199 55 265t219 66q70 0 115 -16l-8 -88q-51 14 -125 14z" glyph-name="uni1E1F" horiz-adv-x="581" unicode="ḟ"/><glyph d="M846 1825v-127h-127v127h127zM1346 1434v-1434h-107v1341h-22l-347 -1007h-176l-348 1007h-22v-1341h-107v1434h207l346 -1008h23l348 1008h205z" glyph-name="uni1E40" horiz-adv-x="1562" unicode="Ṁ"/><glyph d="M938 1518v-127h-127v127h127zM1251 1147q195 0 265.5 -95.5t70.5 -328.5v-723h-102v719q0 199 -59.5 268.5t-208.5 69.5q-145 0 -215 -77t-70 -275v-705h-103v719q0 199 -59 268.5t-209 69.5q-145 0 -215 -77t-70 -275v-705h-102v1130l82 9l14 -162h15q39 92 114.5 131 t196.5 39q129 0 200.5 -40t104.5 -130h14q45 92 127 131t209 39z" glyph-name="uni1E41" horiz-adv-x="1748" unicode="ṁ"/><glyph d="M600 1825v-127h-127v127h127zM530 1434q248 0 344.5 -96.5t96.5 -284.5q0 -250 -111.5 -346.5t-329.5 -96.5h-206v-610h-107v1434h313zM530 692q188 0 259 85t71 265q0 176 -80 243t-250 67h-206v-660h206z" glyph-name="uni1E56" horiz-adv-x="1073" unicode="Ṗ"/><glyph d="M616 1518v-127h-127v127h127zM565 1147q123 0 207 -40t130 -119t64.5 -178t18.5 -237q0 -336 -110.5 -464.5t-323.5 -128.5q-188 0 -258 116h-17v-465h-102v1502l82 8l12 -140h15q73 146 282 146zM565 70q182 0 249 114.5t67 380.5q0 285 -73 388.5t-241 103.5 q-150 0 -220.5 -68.5t-70.5 -247.5v-356q0 -182 71 -248.5t218 -66.5z" glyph-name="uni1E57" horiz-adv-x="1105" unicode="ṗ"/><glyph d="M385 1825h127v-127h-127v127zM426 -20q-139 0 -324 49l9 96q211 -51 331 -51q266 0 267 248q0 84 -22.5 131t-88.5 102l-365 307q-68 59 -95 116.5t-27 156.5q0 319 399 319q109 0 281 -27l-9 -92q-168 25 -268 25q-143 0 -218 -47t-75 -170q0 -76 18.5 -117t71.5 -88 l357 -297q84 -72 117.5 -137.5t33.5 -169.5q0 -354 -393 -354z" glyph-name="uni1E60" horiz-adv-x="931" unicode="Ṡ"/><glyph d="M350 1518h127v-127h-127v127zM362 -20q-98 0 -260 22l9 92q143 -25 264 -24q141 0 193.5 45t52.5 139q0 109 -89 174l-319 236q-104 74 -104 217q0 150 83.5 208t245.5 58q98 0 246 -25l-8 -90q-143 25 -262 25q-115 0 -158 -43t-43 -133q0 -59 15.5 -91t62.5 -67 l293 -213q141 -102 141 -250q0 -160 -92.5 -220t-270.5 -60z" glyph-name="uni1E61" horiz-adv-x="817" unicode="ṡ"/><glyph d="M494 1825v-127h-127v127h127zM811 1434v-93h-326v-1341h-106v1341h-328v93h760z" glyph-name="uni1E6A" horiz-adv-x="862" unicode="Ṫ"/><glyph d="M330 1620v-127h-127v127h127zM578 1038h-261v-776q0 -113 26 -152.5t91 -39.5q74 0 127 12l8 -92q-43 -10 -110 -10q-141 0 -192.5 65.5t-51.5 216.5v776h-182v88h182v273h102v-273h261v-88z" glyph-name="uni1E6B" horiz-adv-x="665" unicode="ṫ"/><glyph d="M899 1604h-74l-256 383h107zM1546 1434h107l-285 -1434h-168l-323 1341h-29l-324 -1341h-168l-284 1434h106l254 -1342h33l313 1342h168l314 -1342h32z" glyph-name="Wgrave" horiz-adv-x="1732" unicode="Ẁ"/><glyph d="M823 1296h-73l-256 383h106zM1438 1126h108l-286 -1126h-170l-299 1049h-3l-301 -1049h-170l-286 1126h108l252 -1048h27l299 1048h143l299 -1048h27z" glyph-name="wgrave" horiz-adv-x="1576" unicode="ẁ"/><glyph d="M1155 1987l-256 -383h-74l224 383h106zM1546 1434h107l-285 -1434h-168l-323 1341h-29l-324 -1341h-168l-284 1434h106l254 -1342h33l313 1342h168l314 -1342h32z" glyph-name="Wacute" horiz-adv-x="1732" unicode="Ẃ"/><glyph d="M1079 1679l-256 -383h-73l223 383h106zM1438 1126h108l-286 -1126h-170l-299 1049h-3l-301 -1049h-170l-286 1126h108l252 -1048h27l299 1048h143l299 -1048h27z" glyph-name="wacute" horiz-adv-x="1576" unicode="ẃ"/><glyph d="M725 1825v-127h-127v127h127zM1130 1825v-127h-126v127h126zM1546 1434h107l-285 -1434h-168l-323 1341h-29l-324 -1341h-168l-284 1434h106l254 -1342h33l313 1342h168l314 -1342h32z" glyph-name="Wdieresis" horiz-adv-x="1732" unicode="Ẅ"/><glyph d="M649 1518v-127h-127v127h127zM1055 1518v-127h-127v127h127zM1438 1126h108l-286 -1126h-170l-299 1049h-3l-301 -1049h-170l-286 1126h108l252 -1048h27l299 1048h143l299 -1048h27z" glyph-name="wdieresis" horiz-adv-x="1576" unicode="ẅ"/><glyph d="M1061 643q102 -68 138 -133.5t36 -175.5q0 -354 -389 -354q-135 0 -320 49l9 96q209 -51 327 -51q264 0 264 248q0 88 -26.5 136t-112.5 105l-332 215v49l349 476q-133 57 -328 57q-184 0 -271.5 -66.5t-87.5 -214.5v-1079h-106v1079q0 193 114.5 284t350.5 91 q279 0 436 -90v-92l-311 -422v-39z" glyph-name="uni1E9E" horiz-adv-x="1347" unicode="ẞ"/><glyph d="M1106 0h-111l-116 424h-580l-117 -424h-110l411 1434h211zM324 516h530l-227 825h-76zM530 -279v127h127v-127h-127z" glyph-name="uni1EA0" horiz-adv-x="1177" unicode="Ạ"/><glyph d="M485 1147q207 0 285 -97.5t78 -285.5v-768l-82 -8l-12 143h-15q-74 -152 -290 -151q-199 0 -276 83.5t-77 247.5q0 180 92.5 257t264.5 77h292v119q0 168 -64.5 230.5t-213.5 62.5q-94 0 -279 -35l-14 86q194 39 311 39zM451 70q154 0 224 80.5t70 289.5v115h-319 q-129 0 -177 -59.5t-48 -186.5q0 -135 63.5 -187t186.5 -52zM426 -279v127h127v-127h-127z" glyph-name="uni1EA1" horiz-adv-x="1009" unicode="ạ"/><glyph d="M608 1923q-45 0 -104 -8l-6 65q70 10 120 11q92 0 131 -33t42 -98q0 -59 -56 -107l-61 -49q-49 -39 -49 -86h-62q0 47 10.5 72.5t49.5 54.5l53 41q33 25 33 65.5t-23 56t-78 15.5zM995 0l-116 424h-580l-117 -424h-110l411 1434h211l412 -1434h-111zM324 516h530 l-227 825h-76z" glyph-name="uni1EA2" horiz-adv-x="1177" unicode="Ả"/><glyph d="M535 1616q-45 0 -105 -8l-6 65q70 10 121 10q92 0 131 -32.5t41 -98.5q0 -59 -55 -106l-62 -49q-49 -39 -49 -86h-62q0 47 10.5 72.5t49.5 54.5l53 41q33 25 33 65.5t-22.5 56t-77.5 15.5zM485 1147q207 0 285 -97.5t78 -285.5v-768l-82 -8l-12 143h-15 q-74 -152 -290 -151q-199 0 -276 83.5t-77 247.5q0 180 92.5 257t264.5 77h292v119q0 168 -64.5 230.5t-213.5 62.5q-94 0 -279 -35l-14 86q194 39 311 39zM451 70q154 0 224 80.5t70 289.5v115h-319q-129 0 -177 -59.5t-48 -186.5q0 -135 63.5 -187t186.5 -52z" glyph-name="uni1EA3" horiz-adv-x="1009" unicode="ả"/><glyph d="M1176 2226l-256 -383h-74l223 383h107zM594 1915l-254 -320h-74l273 383h110l271 -383h-74zM694 1434l412 -1434h-111l-116 424h-580l-117 -424h-110l411 1434h211zM324 516h530l-227 825h-76z" glyph-name="uni1EA4" horiz-adv-x="1177" unicode="Ấ"/><glyph d="M1102 1919l-256 -383h-74l223 383h107zM520 1608l-254 -320h-73l272 383h110l271 -383h-74zM485 1147q207 0 285 -97.5t78 -285.5v-768l-82 -8l-12 143h-15q-74 -152 -290 -151q-199 0 -276 83.5t-77 247.5q0 180 92.5 257t264.5 77h292v119q0 168 -64.5 230.5 t-213.5 62.5q-94 0 -279 -35l-14 86q194 39 311 39zM451 70q154 0 224 80.5t70 289.5v115h-319q-129 0 -177 -59.5t-48 -186.5q0 -135 63.5 -187t186.5 -52z" glyph-name="uni1EA5" horiz-adv-x="1009" unicode="ấ"/><glyph d="M963 1843h-74l-256 383h106zM594 1915l-254 -320h-74l273 383h110l271 -383h-74zM995 0l-116 424h-580l-117 -424h-110l411 1434h211l412 -1434h-111zM324 516h530l-227 825h-76z" glyph-name="uni1EA6" horiz-adv-x="1177" unicode="Ầ"/><glyph d="M889 1536h-74l-256 383h107zM520 1608l-254 -320h-73l272 383h110l271 -383h-74zM485 1147q207 0 285 -97.5t78 -285.5v-768l-82 -8l-12 143h-15q-74 -152 -290 -151q-199 0 -276 83.5t-77 247.5q0 180 92.5 257t264.5 77h292v119q0 168 -64.5 230.5t-213.5 62.5 q-94 0 -279 -35l-14 86q194 39 311 39zM451 70q154 0 224 80.5t70 289.5v115h-319q-129 0 -177 -59.5t-48 -186.5q0 -135 63.5 -187t186.5 -52z" glyph-name="uni1EA7" horiz-adv-x="1009" unicode="ầ"/><glyph d="M887 2148q-45 0 -105 -8l-6 66q66 10 121 10q92 0 131 -33t39 -98q0 -61 -55 -107l-62 -49q-49 -41 -49 -86h-61q0 47 10 73t49 54l53 41q33 25 33 66t-22.5 56t-75.5 15zM594 1915l-254 -320h-74l273 383h110l271 -383h-74zM995 0l-116 424h-580l-117 -424h-110 l411 1434h211l412 -1434h-111zM324 516h530l-227 825h-76z" glyph-name="uni1EA8" horiz-adv-x="1177" unicode="Ẩ"/><glyph d="M823 1909q92 0 131 -33t39 -98q0 -61 -55 -107l-61 -49q-49 -41 -50 -86h-61q0 47 10 72.5t49 54.5l54 41q33 25 32.5 65.5t-23 56t-75.5 15.5q-45 0 -104 -8l-7 65q66 11 121 11zM520 1608l-254 -320h-73l272 383h110l271 -383h-74zM485 1147q207 0 285 -97.5t78 -285.5 v-768l-82 -8l-12 143h-15q-74 -152 -290 -151q-199 0 -276 83.5t-77 247.5q0 180 92.5 257t264.5 77h292v119q0 168 -64.5 230.5t-213.5 62.5q-94 0 -279 -35l-14 86q194 39 311 39zM451 70q154 0 224 80.5t70 289.5v115h-319q-129 0 -177 -59.5t-48 -186.5 q0 -135 63.5 -187t186.5 -52z" glyph-name="uni1EA9" horiz-adv-x="1009" unicode="ẩ"/><glyph d="M457 2189q-72 0 -90 -133h-70q0 92 43 148.5t113 56.5q63 0 116 -39l101 -74q25 -18 51 -18q35 0 57.5 28.5t32.5 104.5h70q0 -92 -43 -148.5t-115 -56.5q-53 0 -115 43l-98 70q-26 18 -53 18zM594 1915l-254 -320h-74l273 383h110l271 -383h-74zM995 0l-116 424h-580 l-117 -424h-110l411 1434h211l412 -1434h-111zM324 516h530l-227 825h-76z" glyph-name="uni1EAA" horiz-adv-x="1177" unicode="Ẫ"/><glyph d="M383 1882q-72 0 -90 -133h-70q0 92 43 148.5t113 56.5q63 0 117 -39l100 -74q25 -18 51 -18q35 0 57.5 28.5t32.5 104.5h70q0 -92 -43 -148.5t-115 -56.5q-53 0 -114 43l-99 70q-26 18 -53 18zM520 1608l-254 -320h-73l272 383h110l271 -383h-74zM485 1147 q207 0 285 -97.5t78 -285.5v-768l-82 -8l-12 143h-15q-74 -152 -290 -151q-199 0 -276 83.5t-77 247.5q0 180 92.5 257t264.5 77h292v119q0 168 -64.5 230.5t-213.5 62.5q-94 0 -279 -35l-14 86q194 39 311 39zM451 70q154 0 224 80.5t70 289.5v115h-319q-129 0 -177 -59.5 t-48 -186.5q0 -135 63.5 -187t186.5 -52z" glyph-name="uni1EAB" horiz-adv-x="1009" unicode="ẫ"/><glyph d="M594 1915l-254 -320h-74l273 383h110l271 -383h-74zM1106 0h-111l-116 424h-580l-117 -424h-110l411 1434h211zM324 516h530l-227 825h-76zM530 -279v127h127v-127h-127z" glyph-name="uni1EAC" horiz-adv-x="1177" unicode="Ậ"/><glyph d="M520 1608l-254 -320h-73l272 383h110l271 -383h-74zM485 1147q207 0 285 -97.5t78 -285.5v-768l-82 -8l-12 143h-15q-74 -152 -290 -151q-199 0 -276 83.5t-77 247.5q0 180 92.5 257t264.5 77h292v119q0 168 -64.5 230.5t-213.5 62.5q-94 0 -279 -35l-14 86 q194 39 311 39zM451 70q154 0 224 80.5t70 289.5v115h-319q-129 0 -177 -59.5t-48 -186.5q0 -135 63.5 -187t186.5 -52zM426 -279v127h127v-127h-127z" glyph-name="uni1EAD" horiz-adv-x="1009" unicode="ậ"/><glyph d="M872 2290l-256 -383h-71l221 383h106zM596 1640q-164 0 -228.5 70t-64.5 205v27h84v-37q0 -197 207 -197q100 0 154.5 43t54.5 154v37h82v-27q0 -156 -74 -215.5t-215 -59.5zM995 0l-116 424h-580l-117 -424h-110l411 1434h211l412 -1434h-111zM324 516h530l-227 825h-76 z" glyph-name="uni1EAE" horiz-adv-x="1177" unicode="Ắ"/><glyph d="M799 1982l-256 -383h-72l221 383h107zM522 1333q-164 0 -228.5 70t-64.5 205v26h84v-37q0 -197 207 -196q100 0 154.5 43t54.5 153v37h82v-26q0 -156 -74 -215.5t-215 -59.5zM485 1147q207 0 285 -97.5t78 -285.5v-768l-82 -8l-12 143h-15q-74 -152 -290 -151 q-199 0 -276 83.5t-77 247.5q0 180 92.5 257t264.5 77h292v119q0 168 -64.5 230.5t-213.5 62.5q-94 0 -279 -35l-14 86q194 39 311 39zM451 70q154 0 224 80.5t70 289.5v115h-319q-129 0 -177 -59.5t-48 -186.5q0 -135 63.5 -187t186.5 -52z" glyph-name="uni1EAF" horiz-adv-x="1009" unicode="ắ"/><glyph d="M643 1905h-74l-256 383h107zM596 1640q-164 0 -228.5 70t-64.5 205v27h84v-37q0 -197 207 -197q100 0 154.5 43t54.5 154v37h82v-27q0 -156 -74 -215.5t-215 -59.5zM995 0l-116 424h-580l-117 -424h-110l411 1434h211l412 -1434h-111zM324 516h530l-227 825h-76z" glyph-name="uni1EB0" horiz-adv-x="1177" unicode="Ằ"/><glyph d="M569 1597h-73l-256 383h106zM522 1333q-164 0 -228.5 70t-64.5 205v26h84v-37q0 -197 207 -196q100 0 154.5 43t54.5 153v37h82v-26q0 -156 -74 -215.5t-215 -59.5zM485 1147q207 0 285 -97.5t78 -285.5v-768l-82 -8l-12 143h-15q-74 -152 -290 -151q-199 0 -276 83.5 t-77 247.5q0 180 92.5 257t264.5 77h292v119q0 168 -64.5 230.5t-213.5 62.5q-94 0 -279 -35l-14 86q194 39 311 39zM451 70q154 0 224 80.5t70 289.5v115h-319q-129 0 -177 -59.5t-48 -186.5q0 -135 63.5 -187t186.5 -52z" glyph-name="uni1EB1" horiz-adv-x="1009" unicode="ằ"/><glyph d="M594 2212q-29 0 -105 -10l-6 65q70 10 123 10q92 0 131 -32.5t39 -98.5q0 -61 -55 -106l-62 -49q-29 -25 -39 -40.5t-10 -45.5h-61q0 49 10 73.5t49 53.5l54 41q33 25 32 65q0 43 -22.5 58.5t-77.5 15.5zM596 1640q-164 0 -228.5 70t-64.5 205v27h84v-37q0 -197 207 -197 q100 0 154.5 43t54.5 154v37h82v-27q0 -156 -74 -215.5t-215 -59.5zM995 0l-116 424h-580l-117 -424h-110l411 1434h211l412 -1434h-111zM324 516h530l-227 825h-76z" glyph-name="uni1EB2" horiz-adv-x="1177" unicode="Ẳ"/><glyph d="M520 1905q-29 0 -104 -11l-6 66q70 10 122 10q92 0 131 -32.5t39 -98.5q0 -61 -55 -106l-61 -50q-29 -25 -39 -40t-10 -46h-62q0 49 10.5 74t49.5 53l53 41q33 25 33 66q0 43 -23 58.5t-78 15.5zM522 1333q-164 0 -228.5 70t-64.5 205v26h84v-37q0 -197 207 -196 q100 0 154.5 43t54.5 153v37h82v-26q0 -156 -74 -215.5t-215 -59.5zM485 1147q207 0 285 -97.5t78 -285.5v-768l-82 -8l-12 143h-15q-74 -152 -290 -151q-199 0 -276 83.5t-77 247.5q0 180 92.5 257t264.5 77h292v119q0 168 -64.5 230.5t-213.5 62.5q-94 0 -279 -35l-14 86 q194 39 311 39zM451 70q154 0 224 80.5t70 289.5v115h-319q-129 0 -177 -59.5t-48 -186.5q0 -135 63.5 -187t186.5 -52z" glyph-name="uni1EB3" horiz-adv-x="1009" unicode="ẳ"/><glyph d="M465 2171q-72 0 -90 -133h-70q0 92 43 148.5t113 56.5q59 0 117 -39l100 -74q25 -18 51 -19q35 0 57.5 29t32.5 105h70q0 -92 -43 -148.5t-115 -56.5q-57 0 -115 43l-98 69q-28 19 -53 19zM598 1640q-164 0 -228.5 70t-64.5 205v27h84v-37q0 -197 207 -197 q100 0 154.5 43t54.5 154v37h82v-27q0 -156 -74 -215.5t-215 -59.5zM995 0l-116 424h-580l-117 -424h-110l411 1434h211l412 -1434h-111zM324 516h530l-227 825h-76z" glyph-name="uni1EB4" horiz-adv-x="1177" unicode="Ẵ"/><glyph d="M391 1864q-72 0 -90 -133h-70q0 92 43 148t113 56q59 0 117 -39l100 -73q25 -18 51 -19q35 0 57.5 29t32.5 104h70q0 -92 -43 -148t-115 -56q-57 0 -114 43l-99 69q-28 19 -53 19zM524 1333q-164 0 -228.5 70t-64.5 205v26h84v-37q0 -197 207 -196q100 0 154.5 43 t54.5 153v37h82v-26q0 -156 -74 -215.5t-215 -59.5zM485 1147q207 0 285 -97.5t78 -285.5v-768l-82 -8l-12 143h-15q-74 -152 -290 -151q-199 0 -276 83.5t-77 247.5q0 180 92.5 257t264.5 77h292v119q0 168 -64.5 230.5t-213.5 62.5q-94 0 -279 -35l-14 86q194 39 311 39z M451 70q154 0 224 80.5t70 289.5v115h-319q-129 0 -177 -59.5t-48 -186.5q0 -135 63.5 -187t186.5 -52z" glyph-name="uni1EB5" horiz-adv-x="1009" unicode="ẵ"/><glyph d="M596 1640q-164 0 -228.5 70t-64.5 205v27h84v-37q0 -197 207 -197q100 0 154.5 43t54.5 154v37h82v-27q0 -156 -74 -215.5t-215 -59.5zM1106 0h-111l-116 424h-580l-117 -424h-110l411 1434h211zM324 516h530l-227 825h-76zM530 -279v127h127v-127h-127z" glyph-name="uni1EB6" horiz-adv-x="1177" unicode="Ặ"/><glyph d="M522 1333q-164 0 -228.5 70t-64.5 205v26h84v-37q0 -197 207 -196q100 0 154.5 43t54.5 153v37h82v-26q0 -156 -74 -215.5t-215 -59.5zM485 1147q207 0 285 -97.5t78 -285.5v-768l-82 -8l-12 143h-15q-74 -152 -290 -151q-199 0 -276 83.5t-77 247.5q0 180 92.5 257 t264.5 77h292v119q0 168 -64.5 230.5t-213.5 62.5q-94 0 -279 -35l-14 86q194 39 311 39zM451 70q154 0 224 80.5t70 289.5v115h-319q-129 0 -177 -59.5t-48 -186.5q0 -135 63.5 -187t186.5 -52zM426 -279v127h127v-127h-127z" glyph-name="uni1EB7" horiz-adv-x="1009" unicode="ặ"/><glyph d="M324 92h563v-92h-670v1434h645v-93h-538v-553h507v-92h-507v-604zM463 -279v127h127v-127h-127z" glyph-name="uni1EB8" horiz-adv-x="995" unicode="Ẹ"/><glyph d="M221 524q6 -258 95.5 -356t269.5 -98q133 0 336 67l14 -88q-211 -70 -367 -69q-256 0 -354 148t-98 435q0 170 31.5 287t95 180.5t142.5 90t185 26.5q225 0 310.5 -142.5t85.5 -441.5v-39h-746zM571 1057q-193 0 -268.5 -103.5t-81.5 -341.5h643q-6 256 -73.5 350.5 t-219.5 94.5zM475 -279v127h127v-127h-127z" glyph-name="uni1EB9" horiz-adv-x="1069" unicode="ẹ"/><glyph d="M565 1923q-45 0 -104 -8l-6 65q70 10 120 11q92 0 131 -33t42 -98q0 -59 -56 -107l-61 -49q-49 -39 -49 -86h-62q0 47 10.5 72.5t49.5 54.5l53 41q33 25 33 65.5t-23 56t-78 15.5zM324 92h563v-92h-670v1434h645v-93h-538v-553h507v-92h-507v-604z" glyph-name="uni1EBA" horiz-adv-x="995" unicode="Ẻ"/><glyph d="M555 1616q-45 0 -104 -8l-7 65q70 10 121 10q92 0 131 -32.5t41 -98.5q0 -59 -55 -106l-61 -49q-49 -39 -50 -86h-61q0 47 10 72.5t49 54.5l54 41q33 25 32.5 65.5t-23 56t-77.5 15.5zM221 524q6 -258 95.5 -356t269.5 -98q133 0 336 67l14 -88q-211 -70 -367 -69 q-256 0 -354 148t-98 435q0 170 31.5 287t95 180.5t142.5 90t185 26.5q225 0 310.5 -142.5t85.5 -441.5v-39h-746zM571 1057q-193 0 -268.5 -103.5t-81.5 -341.5h643q-6 256 -73.5 350.5t-219.5 94.5z" glyph-name="uni1EBB" horiz-adv-x="1069" unicode="ẻ"/><glyph d="M422 1790q-35 0 -57.5 -27.5t-32.5 -103.5h-70q0 92 42 147.5t114 55.5q63 0 117 -39l100 -74q25 -18 51 -18q72 0 90 133h70q0 -92 -43 -148.5t-115 -56.5q-53 0 -115 43l-98 70q-26 18 -53 18zM324 92h563v-92h-670v1434h645v-93h-538v-553h507v-92h-507v-604z" glyph-name="uni1EBC" horiz-adv-x="995" unicode="Ẽ"/><glyph d="M412 1483q-35 0 -57.5 -28t-32.5 -103h-70q0 92 42 147t114 55q63 0 116 -38l101 -74q25 -18 51 -19q72 0 90 133h70q0 -92 -43 -148t-115 -56q-53 0 -115 43l-98 69q-26 19 -53 19zM221 524q6 -258 95.5 -356t269.5 -98q133 0 336 67l14 -88q-211 -70 -367 -69 q-256 0 -354 148t-98 435q0 170 31.5 287t95 180.5t142.5 90t185 26.5q225 0 310.5 -142.5t85.5 -441.5v-39h-746zM571 1057q-193 0 -268.5 -103.5t-81.5 -341.5h643q-6 256 -73.5 350.5t-219.5 94.5z" glyph-name="uni1EBD" horiz-adv-x="1069" unicode="ẽ"/><glyph d="M1133 2226l-256 -383h-74l223 383h107zM551 1915l-254 -320h-74l273 383h110l271 -383h-74zM324 696v-604h563v-92h-670v1434h645v-93h-538v-553h507v-92h-507z" glyph-name="uni1EBE" horiz-adv-x="995" unicode="Ế"/><glyph d="M1122 1919l-256 -383h-73l223 383h106zM541 1608l-254 -320h-74l272 383h111l270 -383h-73zM571 1147q225 0 310.5 -142.5t85.5 -441.5v-39h-746q6 -258 95.5 -356t269.5 -98q133 0 336 67l14 -88q-211 -70 -367 -69q-256 0 -354 148t-98 435q0 170 31.5 287t95 180.5 t142.5 90t185 26.5zM571 1057q-193 0 -268.5 -103.5t-81.5 -341.5h643q-6 256 -73.5 350.5t-219.5 94.5z" glyph-name="uni1EBF" horiz-adv-x="1069" unicode="ế"/><glyph d="M920 1843h-74l-256 383h106zM551 1915l-254 -320h-74l273 383h110l271 -383h-74zM324 696v-604h563v-92h-670v1434h645v-93h-538v-553h507v-92h-507z" glyph-name="uni1EC0" horiz-adv-x="995" unicode="Ề"/><glyph d="M909 1536h-73l-256 383h106zM541 1608l-254 -320h-74l272 383h111l270 -383h-73zM221 524q6 -258 95.5 -356t269.5 -98q133 0 336 67l14 -88q-211 -70 -367 -69q-256 0 -354 148t-98 435q0 170 31.5 287t95 180.5t142.5 90t185 26.5q225 0 310.5 -142.5t85.5 -441.5v-39 h-746zM571 1057q-193 0 -268.5 -103.5t-81.5 -341.5h643q-6 256 -73.5 350.5t-219.5 94.5z" glyph-name="uni1EC1" horiz-adv-x="1069" unicode="ề"/><glyph d="M854 2216q92 0 131 -33t39 -98q0 -61 -55 -107l-62 -49q-49 -41 -49 -86h-61q0 47 10 73t49 54l53 41q33 25 33 66t-22.5 56t-75.5 15q-45 0 -105 -8l-6 66q66 10 121 10zM551 1915l-254 -320h-74l273 383h110l271 -383h-74zM324 696v-604h563v-92h-670v1434h645v-93 h-538v-553h507v-92h-507z" glyph-name="uni1EC2" horiz-adv-x="995" unicode="Ể"/><glyph d="M844 1909q92 0 131 -33t39 -98q0 -61 -56 -107l-61 -49q-49 -41 -49 -86h-62q0 47 10.5 72.5t49.5 54.5l53 41q33 25 33 65.5t-22.5 56t-75.5 15.5q-45 0 -105 -8l-6 65q66 11 121 11zM541 1608l-254 -320h-74l272 383h111l270 -383h-73zM571 1147q225 0 310.5 -142.5 t85.5 -441.5v-39h-746q6 -258 95.5 -356t269.5 -98q133 0 336 67l14 -88q-211 -70 -367 -69q-256 0 -354 148t-98 435q0 170 31.5 287t95 180.5t142.5 90t185 26.5zM571 1057q-193 0 -268.5 -103.5t-81.5 -341.5h643q-6 256 -73.5 350.5t-219.5 94.5z" glyph-name="uni1EC3" horiz-adv-x="1069" unicode="ể"/><glyph d="M414 2189q-72 0 -90 -133h-70q0 92 43 148.5t113 56.5q63 0 116 -39l101 -74q25 -18 51 -18q35 0 57.5 28.5t32.5 104.5h70q0 -92 -43 -148.5t-115 -56.5q-53 0 -115 43l-98 70q-28 18 -53 18zM551 1915l-254 -320h-74l273 383h110l271 -383h-74zM324 92h563v-92h-670 v1434h645v-93h-538v-553h507v-92h-507v-604z" glyph-name="uni1EC4" horiz-adv-x="995" unicode="Ễ"/><glyph d="M403 1882q-72 0 -90 -133h-69q0 92 43 148.5t112 56.5q63 0 117 -39l100 -74q25 -18 52 -18q35 0 57.5 28.5t32.5 104.5h69q0 -92 -43 -148.5t-114 -56.5q-53 0 -115 43l-98 70q-29 18 -54 18zM541 1608l-254 -320h-74l272 383h111l270 -383h-73zM221 524 q6 -258 95.5 -356t269.5 -98q133 0 336 67l14 -88q-211 -70 -367 -69q-256 0 -354 148t-98 435q0 170 31.5 287t95 180.5t142.5 90t185 26.5q225 0 310.5 -142.5t85.5 -441.5v-39h-746zM571 1057q-193 0 -268.5 -103.5t-81.5 -341.5h643q-6 256 -73.5 350.5t-219.5 94.5z " glyph-name="uni1EC5" horiz-adv-x="1069" unicode="ễ"/><glyph d="M551 1915l-254 -320h-74l273 383h110l271 -383h-74zM324 92h563v-92h-670v1434h645v-93h-538v-553h507v-92h-507v-604zM463 -279v127h127v-127h-127z" glyph-name="uni1EC6" horiz-adv-x="995" unicode="Ệ"/><glyph d="M541 1608l-254 -320h-74l272 383h111l270 -383h-73zM221 524q6 -258 95.5 -356t269.5 -98q133 0 336 67l14 -88q-211 -70 -367 -69q-256 0 -354 148t-98 435q0 170 31.5 287t95 180.5t142.5 90t185 26.5q225 0 310.5 -142.5t85.5 -441.5v-39h-746zM571 1057 q-193 0 -268.5 -103.5t-81.5 -341.5h643q-6 256 -73.5 350.5t-219.5 94.5zM475 -279v127h127v-127h-127z" glyph-name="uni1EC7" horiz-adv-x="1069" unicode="ệ"/><glyph d="M240 1618q0 47 10 72.5t49 54.5l53 41q33 25 33 65.5t-22.5 56t-77.5 15.5q-45 0 -105 -8l-6 65q70 10 121 11q92 0 131 -33t41 -98q0 -59 -55 -107l-62 -49q-49 -39 -49 -86h-61zM324 1434v-1434h-107v1434h107z" glyph-name="uni1EC8" horiz-adv-x="540" unicode="Ỉ"/><glyph d="M197 1311q0 47 10 72.5t49 54.5l53 41q33 25 33 65.5t-22.5 56t-77.5 15.5q-45 0 -105 -8l-6 65q70 10 121 10q92 0 131 -32.5t41 -98.5q0 -59 -55 -106l-62 -49q-49 -39 -49 -86h-61zM276 1126v-1126h-102v1126h102z" glyph-name="uni1EC9" horiz-adv-x="448" unicode="ỉ"/><glyph d="M324 1434v-1434h-107v1434h107zM207 -152h127v-127h-127v127z" glyph-name="uni1ECA" horiz-adv-x="540" unicode="Ị"/><glyph d="M160 1518h129v-129h-129v129zM276 1126v-1126h-102v1126h102zM162 -152h127v-127h-127v127z" glyph-name="uni1ECB" horiz-adv-x="448" unicode="ị"/><glyph d="M684 -20q-156 0 -261.5 47t-163.5 146t-81.5 228t-23.5 316q0 217 33.5 363.5t104 227.5t164 113.5t228.5 32.5q301 0 413.5 -179t112.5 -558q0 -217 -33.5 -363.5t-104.5 -227.5t-163 -113.5t-225 -32.5zM684 74q240 0 328 149.5t88 493.5q0 254 -47 396t-133 194.5 t-236 52.5q-242 0 -331 -149.5t-89 -493.5q0 -254 47 -396.5t135 -194.5t238 -52zM618 -152h127v-127h-127v127z" glyph-name="uni1ECC" horiz-adv-x="1363" unicode="Ọ"/><glyph d="M573 -20q-258 0 -355 142t-97 441q0 172 28.5 288t90 180.5t140.5 90t193 25.5q254 0 351.5 -142.5t97.5 -441.5q0 -227 -55.5 -358t-148.5 -178t-245 -47zM573 70q201 0 273 109.5t72 383.5q0 289 -76 391.5t-269 102.5q-203 0 -275.5 -109.5t-72.5 -384.5 q0 -289 76.5 -391t271.5 -102zM510 -152h127v-127h-127v127z" glyph-name="uni1ECD" horiz-adv-x="1142" unicode="ọ"/><glyph d="M651 1618q0 47 10.5 72.5t49.5 54.5l53 41q33 25 33 65.5t-22.5 56t-78.5 15.5q-45 0 -104 -8l-6 65q70 10 121 11q92 0 131 -33t41 -98q0 -59 -56 -107l-61 -49q-49 -39 -49 -86h-62zM684 -20q-156 0 -261.5 47t-163.5 146t-81.5 228t-23.5 316q0 217 33.5 363.5 t104 227.5t164 113.5t228.5 32.5q301 0 413.5 -179t112.5 -558q0 -217 -33.5 -363.5t-104.5 -227.5t-163 -113.5t-225 -32.5zM684 74q240 0 328 149.5t88 493.5q0 254 -47 396t-133 194.5t-236 52.5q-242 0 -331 -149.5t-89 -493.5q0 -254 47 -396.5t135 -194.5t238 -52z " glyph-name="uni1ECE" horiz-adv-x="1363" unicode="Ỏ"/><glyph d="M543 1311q0 47 10 72.5t49 54.5l53 41q33 25 33 65.5t-22.5 56t-77.5 15.5q-45 0 -105 -8l-6 65q70 10 121 10q92 0 131 -32.5t41 -98.5q0 -59 -55 -106l-62 -49q-49 -39 -49 -86h-61zM573 -20q-258 0 -355 142t-97 441q0 172 28.5 288t90 180.5t140.5 90t193 25.5 q254 0 351.5 -142.5t97.5 -441.5q0 -227 -55.5 -358t-148.5 -178t-245 -47zM573 70q201 0 273 109.5t72 383.5q0 289 -76 391.5t-269 102.5q-203 0 -275.5 -109.5t-72.5 -384.5q0 -289 76.5 -391t271.5 -102z" glyph-name="uni1ECF" horiz-adv-x="1142" unicode="ỏ"/><glyph d="M1264 2226l-256 -383h-74l223 383h107zM682 1915l-254 -320h-74l273 383h110l271 -383h-74zM684 1454q301 0 413.5 -179t112.5 -558q0 -217 -33.5 -363.5t-104.5 -227.5t-163 -113.5t-225 -32.5q-156 0 -261.5 47t-163.5 146t-81.5 228t-23.5 316q0 217 33.5 363.5 t104 227.5t164 113.5t228.5 32.5zM684 74q240 0 328 149.5t88 493.5q0 254 -47 396t-133 194.5t-236 52.5q-242 0 -331 -149.5t-89 -493.5q0 -254 47 -396.5t135 -194.5t238 -52z" glyph-name="uni1ED0" horiz-adv-x="1363" unicode="Ố"/><glyph d="M1155 1919l-256 -383h-74l224 383h106zM573 1608l-254 -320h-73l272 383h111l270 -383h-74zM573 1147q254 0 351.5 -142.5t97.5 -441.5q0 -227 -55.5 -358t-148.5 -178t-245 -47q-258 0 -355 142t-97 441q0 172 28.5 288t90 180.5t140 90t193.5 25.5zM573 70 q201 0 273 109.5t72 383.5q0 289 -76 391.5t-269 102.5q-203 0 -275.5 -109.5t-72.5 -384.5q0 -289 76.5 -391t271.5 -102z" glyph-name="uni1ED1" horiz-adv-x="1142" unicode="ố"/><glyph d="M1051 1843h-74l-256 383h106zM682 1915l-254 -320h-74l273 383h110l271 -383h-74zM684 1454q301 0 413.5 -179t112.5 -558q0 -217 -33.5 -363.5t-104.5 -227.5t-163 -113.5t-225 -32.5q-156 0 -261.5 47t-163.5 146t-81.5 228t-23.5 316q0 217 33.5 363.5t104 227.5 t164 113.5t228.5 32.5zM684 74q240 0 328 149.5t88 493.5q0 254 -47 396t-133 194.5t-236 52.5q-242 0 -331 -149.5t-89 -493.5q0 -254 47 -396.5t135 -194.5t238 -52z" glyph-name="uni1ED2" horiz-adv-x="1363" unicode="Ồ"/><glyph d="M942 1536h-74l-256 383h107zM573 1608l-254 -320h-73l272 383h111l270 -383h-74zM573 1147q254 0 351.5 -142.5t97.5 -441.5q0 -227 -55.5 -358t-148.5 -178t-245 -47q-258 0 -355 142t-97 441q0 172 28.5 288t90 180.5t140 90t193.5 25.5zM573 70q201 0 273 109.5 t72 383.5q0 289 -76 391.5t-269 102.5q-203 0 -275.5 -109.5t-72.5 -384.5q0 -289 76.5 -391t271.5 -102z" glyph-name="uni1ED3" horiz-adv-x="1142" unicode="ồ"/><glyph d="M975 2148q-45 0 -105 -8l-6 66q68 10 121 10q92 0 131 -33t39 -98q0 -61 -55 -107l-62 -49q-49 -41 -49 -86h-61q0 47 10 73t49 54l53 41q33 25 33 66t-22.5 56t-75.5 15zM682 1915l-254 -320h-74l273 383h110l271 -383h-74zM684 1454q301 0 413.5 -179t112.5 -558 q0 -217 -33.5 -363.5t-104.5 -227.5t-163 -113.5t-225 -32.5q-156 0 -261.5 47t-163.5 146t-81.5 228t-23.5 316q0 217 33.5 363.5t104 227.5t164 113.5t228.5 32.5zM684 74q240 0 328 149.5t88 493.5q0 254 -47 396t-133 194.5t-236 52.5q-242 0 -331 -149.5t-89 -493.5 q0 -254 47 -396.5t135 -194.5t238 -52z" glyph-name="uni1ED4" horiz-adv-x="1363" unicode="Ổ"/><glyph d="M866 1841q-45 0 -104 -8l-6 65q66 10 121 11q92 0 131 -33t39 -98q0 -61 -56 -107l-61 -49q-49 -41 -49 -86h-62q0 47 10.5 72.5t49.5 54.5l53 41q33 25 33 65.5t-23 56t-76 15.5zM573 1608l-254 -320h-73l272 383h111l270 -383h-74zM573 1147q254 0 351.5 -142.5 t97.5 -441.5q0 -227 -55.5 -358t-148.5 -178t-245 -47q-258 0 -355 142t-97 441q0 172 28.5 288t90 180.5t140 90t193.5 25.5zM573 70q201 0 273 109.5t72 383.5q0 289 -76 391.5t-269 102.5q-203 0 -275.5 -109.5t-72.5 -384.5q0 -289 76.5 -391t271.5 -102z" glyph-name="uni1ED5" horiz-adv-x="1142" unicode="ổ"/><glyph d="M545 2189q-72 0 -90 -133h-70q0 92 43 148.5t113 56.5q63 0 116 -39l101 -74q25 -18 51 -18q35 0 57.5 28.5t32.5 104.5h70q0 -92 -43 -148.5t-115 -56.5q-53 0 -115 43l-98 70q-28 18 -53 18zM682 1915l-254 -320h-74l273 383h110l271 -383h-74zM684 1454 q301 0 413.5 -179t112.5 -558q0 -217 -33.5 -363.5t-104.5 -227.5t-163 -113.5t-225 -32.5q-156 0 -261.5 47t-163.5 146t-81.5 228t-23.5 316q0 217 33.5 363.5t104 227.5t164 113.5t228.5 32.5zM684 74q240 0 328 149.5t88 493.5q0 254 -47 396t-133 194.5t-236 52.5 q-242 0 -331 -149.5t-89 -493.5q0 -254 47 -396.5t135 -194.5t238 -52z" glyph-name="uni1ED6" horiz-adv-x="1363" unicode="Ỗ"/><glyph d="M436 1882q-72 0 -90 -133h-70q0 92 43 148.5t113 56.5q63 0 117 -39l100 -74q25 -18 51 -18q35 0 57.5 28.5t33.5 104.5h69q0 -92 -43 -148.5t-115 -56.5q-53 0 -114 43l-99 70q-26 18 -53 18zM573 1608l-254 -320h-73l272 383h111l270 -383h-74zM573 1147 q254 0 351.5 -142.5t97.5 -441.5q0 -227 -55.5 -358t-148.5 -178t-245 -47q-258 0 -355 142t-97 441q0 172 28.5 288t90 180.5t140 90t193.5 25.5zM573 70q201 0 273 109.5t72 383.5q0 289 -76 391.5t-269 102.5q-203 0 -275.5 -109.5t-72.5 -384.5q0 -289 76.5 -391 t271.5 -102z" glyph-name="uni1ED7" horiz-adv-x="1142" unicode="ỗ"/><glyph d="M682 1915l-254 -320h-74l273 383h110l271 -383h-74zM684 1454q301 0 413.5 -179t112.5 -558q0 -217 -33.5 -363.5t-104.5 -227.5t-163 -113.5t-225 -32.5q-156 0 -261.5 47t-163.5 146t-81.5 228t-23.5 316q0 217 33.5 363.5t104 227.5t164 113.5t228.5 32.5zM684 74 q240 0 328 149.5t88 493.5q0 254 -47 396t-133 194.5t-236 52.5q-242 0 -331 -149.5t-89 -493.5q0 -254 47 -396.5t135 -194.5t238 -52zM618 -279v127h127v-127h-127z" glyph-name="uni1ED8" horiz-adv-x="1363" unicode="Ộ"/><glyph d="M573 1608l-254 -320h-73l272 383h111l270 -383h-74zM573 1147q254 0 351.5 -142.5t97.5 -441.5q0 -227 -55.5 -358t-148.5 -178t-245 -47q-258 0 -355 142t-97 441q0 172 28.5 288t90 180.5t140 90t193.5 25.5zM573 70q201 0 273 109.5t72 383.5q0 289 -76 391.5 t-269 102.5q-203 0 -275.5 -109.5t-72.5 -384.5q0 -289 76.5 -391t271.5 -102zM510 -279v127h127v-127h-127z" glyph-name="uni1ED9" horiz-adv-x="1142" unicode="ộ"/><glyph d="M971 1987l-256 -383h-74l223 383h107zM1264 1628h84v-180q0 -236 -201 -268q63 -160 63 -463q0 -217 -33.5 -363.5t-104.5 -227.5t-163 -113.5t-225 -32.5q-156 0 -261.5 47t-163.5 146t-81.5 228t-23.5 316q0 217 33.5 363.5t104 227.5t164 113.5t228.5 32.5 q313 0 432 -209q147 20 148 193v190zM684 74q240 0 328 149.5t88 493.5q0 254 -47 396t-133 194.5t-236 52.5q-242 0 -331 -149.5t-89 -493.5q0 -254 47 -396.5t135 -194.5t238 -52z" glyph-name="uni1EDA" horiz-adv-x="1363" unicode="Ớ"/><glyph d="M862 1679l-256 -383h-74l224 383h106zM1092 1374h84v-180q0 -131 -52.5 -192.5t-154.5 -75.5q53 -129 53 -363q0 -227 -55.5 -358t-148.5 -178t-245 -47q-258 0 -355 142t-97 441q0 172 28.5 288t90 180.5t140.5 90t193 25.5q260 0 361 -158q158 20 158 195v190zM573 70 q201 0 273 109.5t72 383.5q0 289 -76 391.5t-269 102.5q-203 0 -275.5 -109.5t-72.5 -384.5q0 -289 76.5 -391t271.5 -102z" glyph-name="uni1EDB" horiz-adv-x="1142" unicode="ớ"/><glyph d="M715 1604h-74l-256 383h107zM1264 1628h84v-180q0 -236 -201 -268q63 -160 63 -463q0 -217 -33.5 -363.5t-104.5 -227.5t-163 -113.5t-225 -32.5q-156 0 -261.5 47t-163.5 146t-81.5 228t-23.5 316q0 217 33.5 363.5t104 227.5t164 113.5t228.5 32.5q313 0 432 -209 q147 20 148 193v190zM684 74q240 0 328 149.5t88 493.5q0 254 -47 396t-133 194.5t-236 52.5q-242 0 -331 -149.5t-89 -493.5q0 -254 47 -396.5t135 -194.5t238 -52z" glyph-name="uni1EDC" horiz-adv-x="1363" unicode="Ờ"/><glyph d="M606 1296h-74l-256 383h107zM1092 1374h84v-180q0 -131 -52.5 -192.5t-154.5 -75.5q53 -129 53 -363q0 -227 -55.5 -358t-148.5 -178t-245 -47q-258 0 -355 142t-97 441q0 172 28.5 288t90 180.5t140.5 90t193 25.5q260 0 361 -158q158 20 158 195v190zM573 70 q201 0 273 109.5t72 383.5q0 289 -76 391.5t-269 102.5q-203 0 -275.5 -109.5t-72.5 -384.5q0 -289 76.5 -391t271.5 -102z" glyph-name="uni1EDD" horiz-adv-x="1142" unicode="ờ"/><glyph d="M696 1923q-45 0 -104 -8l-6 65q70 10 121 11q92 0 131 -33t41 -98q0 -59 -56 -107l-61 -49q-49 -39 -49 -86h-62q0 47 10.5 72.5t49.5 54.5l53 41q33 25 33 65.5t-23 56t-78 15.5zM1264 1628h84v-180q0 -236 -201 -268q63 -160 63 -463q0 -217 -33.5 -363.5 t-104.5 -227.5t-163 -113.5t-225 -32.5q-156 0 -261.5 47t-163.5 146t-81.5 228t-23.5 316q0 217 33.5 363.5t104 227.5t164 113.5t228.5 32.5q313 0 432 -209q147 20 148 193v190zM684 74q240 0 328 149.5t88 493.5q0 254 -47 396t-133 194.5t-236 52.5q-242 0 -331 -149.5 t-89 -493.5q0 -254 47 -396.5t135 -194.5t238 -52z" glyph-name="uni1EDE" horiz-adv-x="1363" unicode="Ở"/><glyph d="M588 1616q-45 0 -105 -8l-6 65q70 10 121 10q92 0 131 -32.5t41 -98.5q0 -59 -55 -106l-62 -49q-49 -39 -49 -86h-61q0 47 10 72.5t49 54.5l53 41q33 25 33 65.5t-22.5 56t-77.5 15.5zM1092 1374h84v-180q0 -131 -52.5 -192.5t-154.5 -75.5q53 -129 53 -363 q0 -227 -55.5 -358t-148.5 -178t-245 -47q-258 0 -355 142t-97 441q0 172 28.5 288t90 180.5t140.5 90t193 25.5q260 0 361 -158q158 20 158 195v190zM573 70q201 0 273 109.5t72 383.5q0 289 -76 391.5t-269 102.5q-203 0 -275.5 -109.5t-72.5 -384.5q0 -289 76.5 -391 t271.5 -102z" glyph-name="uni1EDF" horiz-adv-x="1142" unicode="ở"/><glyph d="M553 1790q-35 0 -57.5 -27.5t-32.5 -103.5h-70q0 92 42 147.5t114 55.5q63 0 117 -39l100 -74q25 -18 51 -18q72 0 90 133h70q0 -92 -43 -148.5t-115 -56.5q-53 0 -114 43l-99 70q-26 18 -53 18zM1264 1628h84v-180q0 -236 -201 -268q63 -160 63 -463 q0 -217 -33.5 -363.5t-104.5 -227.5t-163 -113.5t-225 -32.5q-156 0 -261.5 47t-163.5 146t-81.5 228t-23.5 316q0 217 33.5 363.5t104 227.5t164 113.5t228.5 32.5q313 0 432 -209q147 20 148 193v190zM684 74q240 0 328 149.5t88 493.5q0 254 -47 396t-133 194.5 t-236 52.5q-242 0 -331 -149.5t-89 -493.5q0 -254 47 -396.5t135 -194.5t238 -52z" glyph-name="uni1EE0" horiz-adv-x="1363" unicode="Ỡ"/><glyph d="M444 1483q-35 0 -57 -28t-33 -103h-69q0 92 42 147t113 55q63 0 117 -38l100 -74q25 -18 52 -19q72 0 90 133h69q0 -92 -43 -148t-114 -56q-53 0 -115 43l-98 69q-27 19 -54 19zM1092 1374h84v-180q0 -131 -52.5 -192.5t-154.5 -75.5q53 -129 53 -363q0 -227 -55.5 -358 t-148.5 -178t-245 -47q-258 0 -355 142t-97 441q0 172 28.5 288t90 180.5t140.5 90t193 25.5q260 0 361 -158q158 20 158 195v190zM573 70q201 0 273 109.5t72 383.5q0 289 -76 391.5t-269 102.5q-203 0 -275.5 -109.5t-72.5 -384.5q0 -289 76.5 -391t271.5 -102z" glyph-name="uni1EE1" horiz-adv-x="1142" unicode="ỡ"/><glyph d="M1264 1628h84v-180q0 -236 -201 -268q63 -160 63 -463q0 -217 -33.5 -363.5t-104.5 -227.5t-163 -113.5t-225 -32.5q-156 0 -261.5 47t-163.5 146t-81.5 228t-23.5 316q0 217 33.5 363.5t104 227.5t164 113.5t228.5 32.5q313 0 432 -209q147 20 148 193v190zM684 74 q240 0 328 149.5t88 493.5q0 254 -47 396t-133 194.5t-236 52.5q-242 0 -331 -149.5t-89 -493.5q0 -254 47 -396.5t135 -194.5t238 -52zM618 -279v127h127v-127h-127z" glyph-name="uni1EE2" horiz-adv-x="1363" unicode="Ợ"/><glyph d="M1092 1374h84v-180q0 -131 -52.5 -192.5t-154.5 -75.5q53 -129 53 -363q0 -227 -55.5 -358t-148.5 -178t-245 -47q-258 0 -355 142t-97 441q0 172 28.5 288t90 180.5t140.5 90t193 25.5q260 0 361 -158q158 20 158 195v190zM573 70q201 0 273 109.5t72 383.5 q0 289 -76 391.5t-269 102.5q-203 0 -275.5 -109.5t-72.5 -384.5q0 -289 76.5 -391t271.5 -102zM510 -279v127h127v-127h-127z" glyph-name="uni1EE3" horiz-adv-x="1142" unicode="ợ"/><glyph d="M643 -20q-254 0 -347 111.5t-93 369.5v973h106v-975q0 -225 73 -305t255 -80q190 0 258 86t68 299v975h106v-973q0 -279 -98.5 -380t-327.5 -101zM573 -152h127v-127h-127v127z" glyph-name="uni1EE4" horiz-adv-x="1271" unicode="Ụ"/><glyph d="M827 1126h103v-1130l-82 -8l-14 162h-15q-70 -170 -317 -170q-197 0 -268.5 95t-71.5 328v723h102v-718q0 -199 60.5 -268.5t214.5 -69.5q147 0 217.5 76.5t70.5 275.5v704zM489 -279v127h127v-127h-127z" glyph-name="uni1EE5" horiz-adv-x="1103" unicode="ụ"/><glyph d="M606 1618q0 47 10.5 72.5t49.5 54.5l53 41q33 25 33 65.5t-22.5 56t-78.5 15.5q-45 0 -104 -8l-6 65q70 10 121 11q92 0 130.5 -33t41.5 -98q0 -59 -56 -107l-61 -49q-49 -39 -49 -86h-62zM643 -20q-254 0 -347 111.5t-93 369.5v973h106v-975q0 -225 73 -305t255 -80 q190 0 258 86t68 299v975h106v-973q0 -279 -98.5 -380t-327.5 -101z" glyph-name="uni1EE6" horiz-adv-x="1271" unicode="Ủ"/><glyph d="M567 1616q-45 0 -104 -8l-6 65q70 10 121 10q92 0 131 -32.5t41 -98.5q0 -59 -56 -106l-61 -49q-49 -39 -49 -86h-62q0 47 10.5 72.5t49.5 54.5l53 41q33 25 33 65.5t-23 56t-78 15.5zM827 1126h103v-1130l-82 -8l-14 162h-15q-70 -170 -317 -170q-197 0 -268.5 95 t-71.5 328v723h102v-718q0 -199 60.5 -268.5t214.5 -69.5q147 0 217.5 76.5t70.5 275.5v704z" glyph-name="uni1EE7" horiz-adv-x="1103" unicode="ủ"/><glyph d="M926 1987l-256 -383h-74l223 383h107zM1247 1821h84v-181q0 -147 -66.5 -208.5t-195.5 -65.5v-905q0 -279 -98.5 -380t-327.5 -101q-254 0 -347 111.5t-93 369.5v973h106v-975q0 -225 73 -305t255 -80q190 0 258 86t68 299v975h77q98 0 152.5 43t54.5 153v191z" glyph-name="uni1EE8" horiz-adv-x="1271" unicode="Ứ"/><glyph d="M842 1679l-256 -383h-74l223 383h107zM1112 1513h84v-180q0 -147 -67.5 -208.5t-198.5 -65.5v-1063l-82 -8l-14 162h-15q-70 -170 -317 -170q-197 0 -268.5 95t-71.5 328v723h102v-718q0 -199 60.5 -268.5t214.5 -69.5q147 0 217.5 76.5t70.5 275.5v704h78q98 0 152.5 43 t54.5 154v190z" glyph-name="uni1EE9" horiz-adv-x="1103" unicode="ứ"/><glyph d="M670 1604h-74l-256 383h106zM1247 1821h84v-181q0 -147 -66.5 -208.5t-195.5 -65.5v-905q0 -279 -98.5 -380t-327.5 -101q-254 0 -347 111.5t-93 369.5v973h106v-975q0 -225 73 -305t255 -80q190 0 258 86t68 299v975h77q98 0 152.5 43t54.5 153v191z" glyph-name="uni1EEA" horiz-adv-x="1271" unicode="Ừ"/><glyph d="M586 1296h-74l-256 383h106zM1112 1513h84v-180q0 -147 -67.5 -208.5t-198.5 -65.5v-1063l-82 -8l-14 162h-15q-70 -170 -317 -170q-197 0 -268.5 95t-71.5 328v723h102v-718q0 -199 60.5 -268.5t214.5 -69.5q147 0 217.5 76.5t70.5 275.5v704h78q98 0 152.5 43t54.5 154 v190z" glyph-name="uni1EEB" horiz-adv-x="1103" unicode="ừ"/><glyph d="M651 1923q-45 0 -104 -8l-6 65q70 10 121 11q92 0 130.5 -33t41.5 -98q0 -59 -56 -107l-61 -49q-49 -39 -49 -86h-62q0 47 10.5 72.5t49.5 54.5l53 41q33 25 33 65.5t-23 56t-78 15.5zM1247 1821h84v-181q0 -147 -66.5 -208.5t-195.5 -65.5v-905q0 -279 -98.5 -380 t-327.5 -101q-254 0 -347 111.5t-93 369.5v973h106v-975q0 -225 73 -305t255 -80q190 0 258 86t68 299v975h77q98 0 152.5 43t54.5 153v191z" glyph-name="uni1EEC" horiz-adv-x="1271" unicode="Ử"/><glyph d="M567 1616q-45 0 -104 -8l-6 65q70 10 121 10q92 0 131 -32.5t41 -98.5q0 -59 -56 -106l-61 -49q-49 -39 -49 -86h-62q0 47 10.5 72.5t49.5 54.5l53 41q33 25 33 65.5t-23 56t-78 15.5zM1112 1513h84v-180q0 -147 -67.5 -208.5t-198.5 -65.5v-1063l-82 -8l-14 162h-15 q-70 -170 -317 -170q-197 0 -268.5 95t-71.5 328v723h102v-718q0 -199 60.5 -268.5t214.5 -69.5q147 0 217.5 76.5t70.5 275.5v704h78q98 0 152.5 43t54.5 154v190z" glyph-name="uni1EED" horiz-adv-x="1103" unicode="ử"/><glyph d="M508 1790q-35 0 -57.5 -27.5t-32.5 -103.5h-70q0 92 42 147.5t114 55.5q63 0 117 -39l100 -74q25 -18 51 -18q72 0 90 133h70q0 -92 -43 -148.5t-115 -56.5q-53 0 -115 43l-98 70q-28 18 -53 18zM1247 1821h84v-181q0 -147 -66.5 -208.5t-195.5 -65.5v-905 q0 -279 -98.5 -380t-327.5 -101q-254 0 -347 111.5t-93 369.5v973h106v-975q0 -225 73 -305t255 -80q190 0 258 86t68 299v975h77q98 0 152.5 43t54.5 153v191z" glyph-name="uni1EEE" horiz-adv-x="1271" unicode="Ữ"/><glyph d="M424 1483q-35 0 -57.5 -28t-32.5 -103h-70q0 92 42 147t114 55q63 0 117 -38l100 -74q25 -18 51 -19q72 0 90 133h70q0 -92 -43 -148t-115 -56q-53 0 -115 43l-98 69q-26 19 -53 19zM1112 1513h84v-180q0 -147 -67.5 -208.5t-198.5 -65.5v-1063l-82 -8l-14 162h-15 q-70 -170 -317 -170q-197 0 -268.5 95t-71.5 328v723h102v-718q0 -199 60.5 -268.5t214.5 -69.5q147 0 217.5 76.5t70.5 275.5v704h78q98 0 152.5 43t54.5 154v190z" glyph-name="uni1EEF" horiz-adv-x="1103" unicode="ữ"/><glyph d="M1247 1821h84v-181q0 -147 -66.5 -208.5t-195.5 -65.5v-905q0 -279 -98.5 -380t-327.5 -101q-254 0 -347 111.5t-93 369.5v973h106v-975q0 -225 73 -305t255 -80q190 0 258 86t68 299v975h77q98 0 152.5 43t54.5 153v191zM573 -279v127h127v-127h-127z" glyph-name="uni1EF0" horiz-adv-x="1271" unicode="Ự"/><glyph d="M1112 1513h84v-180q0 -147 -67.5 -208.5t-198.5 -65.5v-1063l-82 -8l-14 162h-15q-70 -170 -317 -170q-197 0 -268.5 95t-71.5 328v723h102v-718q0 -199 60.5 -268.5t214.5 -69.5q147 0 217.5 76.5t70.5 275.5v704h78q98 0 152.5 43t54.5 154v190zM489 -279v127h127v-127 h-127z" glyph-name="uni1EF1" horiz-adv-x="1103" unicode="ự"/><glyph d="M584 1604h-74l-256 383h106zM1040 1434l-434 -871v-563h-106v555l-439 879h115l361 -748h28l361 748h114z" glyph-name="Ygrave" horiz-adv-x="1101" unicode="Ỳ"/><glyph d="M504 1296h-74l-256 383h107zM801 1126h110l-413 -1245q-45 -137 -127 -203.5t-224 -66.5q-25 0 -77 4l12 86q45 -4 65 -4q104 0 166 47t99 162l37 112h-60l-358 1108h110l316 -1020h18z" glyph-name="ygrave" horiz-adv-x="942" unicode="ỳ"/><glyph d="M500 0v555l-439 879h115l361 -748h28l361 748h114l-434 -871v-563h-106zM489 -279v127h127v-127h-127z" glyph-name="uni1EF4" horiz-adv-x="1101" unicode="Ỵ"/><glyph d="M801 1126h110l-413 -1245q-45 -137 -127 -203.5t-224 -66.5q-20 0 -77 4l12 86q53 -4 65 -4q104 0 166 47t99 162l37 112h-60l-358 1108h110l316 -1020h18zM621 -279v127h127v-127h-127z" glyph-name="uni1EF5" horiz-adv-x="942" unicode="ỵ"/><glyph d="M565 1923q-45 0 -104 -8l-6 65q70 10 120 11q92 0 131 -33t42 -98q0 -59 -56 -107l-61 -49q-49 -39 -49 -86h-62q0 47 10.5 72.5t49.5 54.5l53 41q33 25 33 65.5t-23 56t-78 15.5zM1040 1434l-434 -871v-563h-106v555l-439 879h115l361 -748h28l361 748h114z" glyph-name="uni1EF6" horiz-adv-x="1101" unicode="Ỷ"/><glyph d="M485 1616q-45 0 -104 -8l-6 65q70 10 121 10q92 0 131 -32.5t41 -98.5q0 -59 -56 -106l-61 -49q-49 -39 -49 -86h-62q0 47 10.5 72.5t49.5 54.5l53 41q33 25 33 65.5t-23 56t-78 15.5zM801 1126h110l-413 -1245q-45 -137 -127 -203.5t-224 -66.5q-25 0 -77 4l12 86 q45 -4 65 -4q104 0 166 47t99 162l37 112h-60l-358 1108h110l316 -1020h18z" glyph-name="uni1EF7" horiz-adv-x="942" unicode="ỷ"/><glyph d="M422 1790q-35 0 -57.5 -27.5t-32.5 -103.5h-70q0 92 42 147.5t114 55.5q63 0 117 -39l100 -74q25 -18 51 -18q72 0 90 133h70q0 -92 -43 -148.5t-115 -56.5q-53 0 -115 43l-98 70q-26 18 -53 18zM1040 1434l-434 -871v-563h-106v555l-439 879h115l361 -748h28l361 748 h114z" glyph-name="uni1EF8" horiz-adv-x="1101" unicode="Ỹ"/><glyph d="M342 1483q-35 0 -57.5 -28t-32.5 -103h-70q0 92 42 147t114 55q63 0 117 -38l100 -74q25 -18 51 -19q72 0 90 133h70q0 -92 -43 -148t-115 -56q-53 0 -114 43l-99 69q-26 19 -53 19zM801 1126h110l-413 -1245q-45 -137 -127 -203.5t-224 -66.5q-25 0 -77 4l12 86 q45 -4 65 -4q104 0 166 47t99 162l37 112h-60l-358 1108h110l316 -1020h18z" glyph-name="uni1EF9" horiz-adv-x="942" unicode="ỹ"/><glyph glyph-name="uni2009" horiz-adv-x="204" unicode=" "/><glyph d="M174 680h772v-92h-772v92z" glyph-name="endash" horiz-adv-x="1120" unicode="–"/><glyph d="M174 680h1299v-92h-1299v92z" glyph-name="emdash" horiz-adv-x="1646" unicode="—"/><glyph d="M244 -86h901v-88h-901v88zM244 -301h901v-88h-901v88z" glyph-name="underscoredbl" horiz-adv-x="1388" unicode="‗"/><glyph d="M387 1495l-72 -293h62v-153h-144v153l78 293h76z" glyph-name="quoteleft" horiz-adv-x="630" unicode="‘"/><glyph d="M244 1495h143v-154l-78 -292h-76l72 292h-61v154z" glyph-name="quoteright" horiz-adv-x="630" unicode="’"/><glyph d="M244 154h143v-154l-78 -293h-76l72 293h-61v154z" glyph-name="quotesinglbase" horiz-adv-x="630" unicode="‚"/><glyph d="M311 1495h76l-72 -293h62v-153h-144v153zM643 1495l-72 -293h62v-153h-144v153l78 293h76z" glyph-name="quotedblleft" horiz-adv-x="778" unicode="“"/><glyph d="M195 1341v154h143v-154l-78 -292h-76l72 292h-61zM451 1495h143v-154l-78 -292h-76l72 292h-61v154z" glyph-name="quotedblright" horiz-adv-x="778" unicode="”"/><glyph d="M195 0v154h143v-154l-78 -293h-76l72 293h-61zM451 154h143v-154l-78 -293h-76l72 293h-61v154z" glyph-name="quotedblbase" horiz-adv-x="778" unicode="„"/><glyph d="M985 885v-92h-399v-1162h-107v1162h-397v92h397v596h107v-596h399z" glyph-name="dagger" horiz-adv-x="1067" unicode="†"/><glyph d="M977 811h-399v-510h399v-92h-399v-578h-107v578h-397v92h397v510h-397v92h397v578h107v-578h399v-92z" glyph-name="daggerdbl" horiz-adv-x="1050" unicode="‡"/><glyph d="M458.5 465q-110.5 0 -189.5 79t-79 189q0 113 79 190.5t189.5 77.5t189.5 -77.5t79 -190.5q0 -111 -79 -189.5t-189.5 -78.5z" glyph-name="bullet" horiz-adv-x="919" unicode="•"/><glyph d="M244 0v154h143v-154h-143zM793 0v154h143v-154h-143zM1339 0v154h144v-154h-144z" glyph-name="ellipsis" horiz-adv-x="1726" unicode="…"/><glyph d="M379 610q-145 0 -200.5 102.5t-55.5 319.5q0 242 62.5 332t193.5 90q145 0 200.5 -102.5t55.5 -319.5q0 -242 -62.5 -332t-193.5 -90zM301 -20l870 1474h101l-871 -1474h-100zM379 702q88 0 119.5 73t31.5 257q0 195 -33.5 263.5t-117.5 68.5q-88 0 -120 -73.5 t-32 -258.5q0 -193 34 -261.5t118 -68.5zM1202 -12q-145 0 -200.5 102.5t-55.5 319.5q0 242 62.5 331.5t193.5 89.5q145 0 200.5 -102t55.5 -319q0 -242 -62.5 -332t-193.5 -90zM1847 -12q-147 0 -202.5 102.5t-55.5 319.5q0 242 62.5 331.5t195.5 89.5q145 0 199.5 -102 t54.5 -319q0 -242 -62.5 -332t-191.5 -90zM1202 80q88 0 120 72.5t32 257.5q0 193 -34 262t-118 69q-88 0 -119.5 -73.5t-31.5 -257.5q0 -193 33.5 -261.5t117.5 -68.5zM1847 80q86 0 118 73.5t32 256.5q0 195 -33 263t-117 68q-90 0 -121.5 -73.5t-31.5 -257.5 q0 -193 33.5 -261.5t119.5 -68.5z" glyph-name="perthousand" horiz-adv-x="2209" unicode="‰"/><glyph d="M446 1020v-129l-319 -316l319 -315v-129l-419 410v69z" glyph-name="guilsinglleft" horiz-adv-x="542" unicode="‹"/><glyph d="M96 1020l420 -410v-69l-420 -410v129l320 315l-320 316v129z" glyph-name="guilsinglright" horiz-adv-x="542" unicode="›"/><glyph d="M92 -41l596 1516h100l-595 -1516h-101z" glyph-name="fraction" horiz-adv-x="880" unicode="⁄"/><glyph d="M1067 119l16 -94q-92 -45 -245 -45q-522 0 -584 561h-141v92h135q-2 25 -2 74q0 41 4 114h-137v92h145q39 299 187.5 420t383.5 121q139 0 238 -39l-10 -96q-90 41 -221 41q-213 0 -325 -111.5t-142 -335.5h516v-92h-527q-2 -33 -2 -104q0 -57 2 -84h473v-92h-466 q31 -260 150.5 -363.5t320.5 -103.5q137 0 231 45z" glyph-name="Euro" horiz-adv-x="1181" unicode="€"/><glyph d="M1745 606q-190 0 -263 103.5t-73 316.5q0 231 81 324.5t255 93.5q188 0 260 -102.5t72 -315.5q0 -236 -80 -328t-252 -92zM1010 92v1342h106v-1434h-205l-561 1341h-26v-1341h-107v1434h205l561 -1342h27zM1745 1362q-137 0 -184.5 -71.5t-47.5 -264.5 q0 -199 50.5 -267.5t181.5 -68.5q135 0 182 72t47 264q0 197 -50 266.5t-179 69.5zM1409 354v92h668v-92h-668z" glyph-name="afii61352" horiz-adv-x="2179" unicode="№"/><glyph d="M518 1434v-56h-162v-661h-67v661h-164v56h393zM1227 1434v-717h-66v657h-12l-162 -491h-100l-162 491h-10v-657h-68v717h123l162 -492h12l162 492h121z" glyph-name="trademark" horiz-adv-x="1486" unicode="™"/><glyph d="M1030 1475h100l-595 -1516h-101zM465 637v-80h-445v80h181v723l-174 -49l-13 71l187 52h96v-797h168zM1083 877h463v-113l-327 -764h-99l330 764v35h-367v78z" glyph-name="uni2150" horiz-adv-x="1581" unicode="⅐"/><glyph d="M1030 1475h100l-595 -1516h-101zM465 637v-80h-445v80h181v723l-174 -49l-13 71l187 52h96v-797h168zM1276 891q152 0 210 -68.5t58 -206.5q0 -178 -114 -374q-78 -135 -175 -242h-112q137 154 205 272q31 51 49 99h-13q-51 -29 -145 -29q-117 0 -170 65.5t-53 202.5 q0 158 64.5 219.5t195.5 61.5zM1114 606q0 -109 34 -145.5t128 -36.5q100 0 134 41t34 151q0 113 -35 153t-131 40t-130 -43t-34 -160z" glyph-name="uni2151" horiz-adv-x="1611" unicode="⅑"/><glyph d="M1030 1475h100l-595 -1516h-101zM465 637v-80h-445v80h181v723l-174 -49l-13 71l187 52h96v-797h168zM1892 891q156 0 215.5 -110.5t59.5 -342.5q0 -258 -66.5 -354t-208.5 -96q-156 0 -215 109.5t-59 340.5q0 258 66.5 355.5t207.5 97.5zM1356 877v-797h168v-80h-445v80 h181v723l-175 -49l-12 71l187 52h96zM1892 70q100 0 137 78.5t37 289.5q0 217 -37.5 294t-136.5 77q-100 0 -138 -80t-38 -291q0 -215 39 -291.5t137 -76.5z" glyph-name="uni2152" horiz-adv-x="2256" unicode="⅒"/><glyph d="M1030 1475h100l-595 -1516h-101zM465 637v-80h-445v80h181v723l-174 -49l-13 71l187 52h96v-797h168zM1462 453q115 -45 115 -209q0 -147 -69.5 -201.5t-223.5 -54.5q-131 0 -199 30l7 80q70 -29 192 -28q117 0 155 38.5t38 145.5q0 98 -37 131t-144 33h-108v80h108 q96 0 128 29.5t32 113.5q0 102 -33.5 135t-136.5 33q-119 0 -180 -29l-8 82q63 29 184 29q158 0 215 -54.5t57 -177.5q0 -152 -92 -196v-10z" glyph-name="onethird" horiz-adv-x="1662" unicode="⅓"/><glyph d="M1100 1475h100l-596 -1516h-100zM547 637v-80h-492v98q0 86 30 141.5t97 112.5l215 185q51 45 52 129q0 82 -40 112.5t-128 30.5q-72 0 -185 -18l-8 82q119 18 188 18q272 0 273 -225q0 -115 -84 -189l-227 -198q-82 -74 -82 -181v-18h391zM1532 453q115 -45 115 -209 q0 -147 -70 -201.5t-223 -54.5q-131 0 -199 30l6 80q70 -29 193 -28q117 0 154.5 38.5t37.5 145.5q0 98 -36.5 131t-143.5 33h-109v80h109q96 0 128 29.5t32 113.5q0 102 -34 135t-136 33q-119 0 -180 -29l-9 82q63 29 185 29q158 0 215 -54.5t57 -177.5q0 -152 -92 -196 v-10z" glyph-name="twothirds" horiz-adv-x="1732" unicode="⅔"/><glyph d="M1030 1475h100l-595 -1516h-101zM465 637v-80h-445v80h181v723l-174 -49l-13 71l187 52h96v-797h168zM1249 528q164 0 224.5 -61t60.5 -197q0 -164 -66.5 -223t-218.5 -59q-125 0 -192 28l6 82q59 -29 184 -28q115 0 152 40t37 148q0 115 -39 153t-148 38h-155l14 428 h395v-78h-299l-10 -271h55z" glyph-name="uni2155" horiz-adv-x="1607" unicode="⅕"/><glyph d="M1100 1475h100l-596 -1516h-100zM547 637v-80h-492v98q0 86 30 141.5t97 112.5l215 185q51 45 52 129q0 82 -40 112.5t-128 30.5q-72 0 -185 -18l-8 82q119 18 188 18q272 0 273 -225q0 -115 -84 -189l-227 -198q-82 -74 -82 -181v-18h391zM1319 528q164 0 224.5 -61 t60.5 -197q0 -164 -67 -223t-218 -59q-125 0 -193 28l7 82q59 -29 184 -28q115 0 151.5 40t36.5 148q0 115 -39 153t-147 38h-156l15 428h395v-78h-299l-10 -271h55z" glyph-name="uni2156" horiz-adv-x="1677" unicode="⅖"/><glyph d="M1004 1475h100l-596 -1516h-100zM537 801q0 -147 -70 -201.5t-223 -54.5q-131 0 -199 30l6 80q70 -29 193 -28q117 0 154.5 39t37.5 145q0 98 -37 131t-143 33h-109v80h109q96 0 128 29.5t32 113.5q0 102 -34 135t-136 33q-119 0 -180 -29l-9 82q63 29 185 29 q158 0 215 -54.5t57 -176.5q0 -152 -92 -197v-10q115 -45 115 -209zM1223 528q164 0 224 -61t60 -197q0 -164 -66.5 -223t-217.5 -59q-125 0 -193 28l6 82q59 -29 185 -28q115 0 151.5 40t36.5 148q0 115 -39 153t-147 38h-156l14 428h396v-78h-299l-11 -271h56z" glyph-name="uni2157" horiz-adv-x="1581" unicode="⅗"/><glyph d="M1100 1475h100l-596 -1516h-100zM625 791h-123v-234h-96v234h-365v122l270 521h101l-275 -529v-35h269v308h96v-308h123v-79zM1319 528q164 0 224.5 -61t60.5 -197q0 -164 -67 -223t-218 -59q-125 0 -193 28l7 82q59 -29 184 -28q115 0 151.5 40t36.5 148q0 115 -39 153 t-147 38h-156l15 428h395v-78h-299l-10 -271h55z" glyph-name="uni2158" horiz-adv-x="1677" unicode="⅘"/><glyph d="M1030 1475h100l-595 -1516h-101zM465 637v-80h-445v80h181v723l-174 -49l-13 71l187 52h96v-797h168zM1247 535q117 0 170 -64.5t53 -204.5q0 -158 -64.5 -218t-195.5 -60q-152 0 -210 68.5t-58 205.5q0 172 113 373q74 129 176 242h112q-125 -137 -204 -273 q-27 -43 -52 -98h13q55 29 147 29zM1208.5 70q96.5 0 129 42t32.5 158q0 109 -32.5 146t-127.5 37q-100 0 -135 -41t-35 -150q0 -113 36 -152.5t132.5 -39.5z" glyph-name="uni2159" horiz-adv-x="1529" unicode="⅙"/><glyph d="M1012 1475h100l-596 -1516h-100zM537 827q0 -164 -67 -223t-218 -59q-125 0 -193 28l7 82q59 -29 184 -28q115 0 151.5 40t36.5 148q0 115 -39 153t-147 38h-156l15 428h395v-78h-299l-10 -271h55q164 0 224.5 -61.5t60.5 -196.5zM1229 535q117 0 170 -64.5t53 -204.5 q0 -158 -64.5 -218t-195.5 -60q-152 0 -210 68.5t-58 205.5q0 172 112 373q74 129 176 242h113q-125 -137 -205 -273q-27 -43 -51 -98h12q56 29 148 29zM1190 70q96 0 129 42t33 158q0 109 -33 146t-127 37q-100 0 -135 -41t-35 -150q0 -113 36 -152.5t132 -39.5z" glyph-name="uni215A" horiz-adv-x="1511" unicode="⅚"/><glyph d="M1030 1475h100l-595 -1516h-101zM465 637v-80h-445v80h181v723l-174 -49l-13 71l187 52h96v-797h168zM1470 455q117 -45 117 -207q0 -147 -70.5 -203.5t-211.5 -56.5q-160 0 -221.5 65.5t-61.5 194.5q0 160 115 207v8q-92 45 -93 190q0 135 63.5 186.5t197.5 51.5 q150 0 205 -59.5t55 -184.5q0 -143 -95 -186v-6zM1305 809q-96 0 -130 -33t-34 -121q0 -96 32.5 -126.5t131.5 -30.5q100 0 131.5 32.5t31.5 124.5q0 90 -34.5 122t-128.5 32zM1304.5 70q106.5 0 144.5 36.5t38 133.5q0 106 -37 142t-145 36q-111 0 -148 -37t-37 -141 q0 -100 39 -135t145.5 -35z" glyph-name="oneeighth" horiz-adv-x="1673" unicode="⅛"/><glyph d="M1004 1475h100l-596 -1516h-100zM537 801q0 -147 -70 -201.5t-223 -54.5q-131 0 -199 30l6 80q70 -29 193 -28q117 0 154.5 39t37.5 145q0 98 -37 131t-143 33h-109v80h109q96 0 128 29.5t32 113.5q0 102 -34 135t-136 33q-119 0 -180 -29l-9 82q63 29 185 29 q158 0 215 -54.5t57 -176.5q0 -152 -92 -197v-10q115 -45 115 -209zM1444 455q117 -45 117 -207q0 -147 -71 -203.5t-212 -56.5q-160 0 -221.5 65.5t-61.5 194.5q0 160 115 207v8q-92 45 -92 190q0 135 63.5 186.5t196.5 51.5q150 0 205 -59.5t55 -184.5q0 -143 -94 -186v-6 zM1278 809q-96 0 -130 -33t-34 -121q0 -96 33 -126.5t131 -30.5q100 0 132 32.5t32 124.5q0 90 -35 122t-129 32zM1277.5 70q106.5 0 144.5 36.5t38 133.5q0 106 -37 142t-145 36q-111 0 -147.5 -37t-36.5 -141q0 -100 38.5 -135t145 -35z" glyph-name="threeeighths" horiz-adv-x="1646" unicode="⅜"/><glyph d="M1012 1475h100l-596 -1516h-100zM537 827q0 -164 -67 -223t-218 -59q-125 0 -193 28l7 82q59 -29 184 -28q115 0 151.5 40t36.5 148q0 115 -39 153t-147 38h-156l15 428h395v-78h-299l-10 -271h55q164 0 224.5 -61.5t60.5 -196.5zM1452 455q117 -45 117 -207 q0 -147 -71 -203.5t-212 -56.5q-160 0 -221 65.5t-61 194.5q0 160 114 207v8q-92 45 -92 190q0 135 63.5 186.5t196.5 51.5q150 0 205 -59.5t55 -184.5q0 -143 -94 -186v-6zM1286 809q-96 0 -130 -33t-34 -121q0 -96 33 -126.5t131 -30.5q100 0 132 32.5t32 124.5 q0 90 -35 122t-129 32zM1286.5 70q106.5 0 144 36.5t37.5 133.5q0 106 -36.5 142t-145.5 36q-111 0 -147.5 -37t-36.5 -141q0 -100 39 -135t145.5 -35z" glyph-name="fiveeighths" horiz-adv-x="1654" unicode="⅝"/><glyph d="M825 1475h101l-596 -1516h-101zM492 1321l-328 -764h-98l329 764v35h-366v78h463v-113zM1266 455q117 -45 116 -207q0 -147 -70.5 -203.5t-211.5 -56.5q-160 0 -221.5 65.5t-61.5 194.5q0 160 115 207v8q-92 45 -92 190q0 135 63.5 186.5t196.5 51.5q150 0 205 -59.5 t55 -184.5q0 -143 -94 -186v-6zM1100 809q-96 0 -130 -33t-34 -121q0 -96 32.5 -126.5t131.5 -30.5q100 0 132 32.5t32 124.5q0 90 -35 122t-129 32zM1099.5 70q106.5 0 144.5 36.5t38 133.5q0 106 -37 142t-145 36q-111 0 -148 -37t-37 -141q0 -100 39 -135t145.5 -35z" glyph-name="seveneighths" horiz-adv-x="1468" unicode="⅞"/><glyph d="M1030 1475h100l-595 -1516h-101zM465 637v-80h-445v80h181v723l-174 -49l-13 71l187 52h96v-797h168z" glyph-name="uni215F" horiz-adv-x="1222" unicode="⅟"/><glyph d="M195 621h837v-93h-837v93z" glyph-name="minus" horiz-adv-x="1228" unicode="−"/><glyph d="M272 649l-75 25q0 100 61 161.5t154 61.5q74 0 145 -43l180 -106q55 -33 90 -33q92 0 125 151l78 -26q-2 -96 -58.5 -154.5t-148.5 -58.5q-57 0 -127 39l-180 104q-70 41 -106 41q-105 0 -138 -162zM272 342l-75 25q0 100 61 161.5t154 61.5q74 0 145 -43l180 -107 q55 -33 90 -32q92 0 125 151l78 -27q-2 -96 -58.5 -154.5t-148.5 -58.5q-57 0 -127 39l-180 105q-70 41 -106 41q-105 0 -138 -162z" glyph-name="approxequal" horiz-adv-x="1228" unicode="≈"/><glyph d="M1020 707h-309l-97 -258h406v-93h-440l-113 -301h-98l112 301h-274v93h309l94 258h-403v92h438l113 301h100l-113 -301h275v-92z" glyph-name="notequal" horiz-adv-x="1228" unicode="≠"/><glyph d="M1016 1126l-699 -290v-31l699 -291v-94l-805 342v117l805 340v-93zM211 121v92h805v-92h-805z" glyph-name="lessequal" horiz-adv-x="1228" unicode="≤"/><glyph d="M211 1219l805 -340v-117l-805 -342v94l698 291v31l-698 290v93zM211 121v92h805v-92h-805z" glyph-name="greaterequal" horiz-adv-x="1228" unicode="≥"/><glyph d="M907.5 -20q-319.5 0 -527.5 206.5t-208 530t208 530.5t527.5 207t527 -207t207.5 -530.5t-207.5 -530t-527 -206.5zM907.5 70q278.5 0 457.5 181t179 465.5t-179 466t-457.5 181.5t-458 -181.5t-179.5 -466t179.5 -465.5t458 -181zM690 289v80h178v723l-174 -50l-12 72 l186 53h97v-798h168v-80h-443z" glyph-name="uni2460" horiz-adv-x="1814" unicode="①"/><glyph d="M907.5 -20q-319.5 0 -527.5 206.5t-208 530t208 530.5t527.5 207t527 -207t207.5 -530.5t-207.5 -530t-527 -206.5zM907.5 70q278.5 0 457.5 181t179 465.5t-179 466t-457.5 181.5t-458 -181.5t-179.5 -466t179.5 -465.5t458 -181zM662 291v98q0 86 29.5 141.5 t94.5 112.5l215 184q51 43 52 129q0 80 -40 111t-126 31t-185 -17l-8 82q125 18 189 19q270 0 270 -226q0 -117 -84 -188l-227 -199q-82 -74 -82 -180v-18h393v-80h-491z" glyph-name="uni2461" horiz-adv-x="1814" unicode="②"/><glyph d="M907.5 -20q-319.5 0 -527.5 206.5t-208 530t208 530.5t527.5 207t527 -207t207.5 -530.5t-207.5 -530t-527 -206.5zM907.5 70q278.5 0 457.5 181t179 465.5t-179 466t-457.5 181.5t-458 -181.5t-179.5 -466t179.5 -465.5t458 -181zM872 276q-123 0 -198 31l8 82 q59 -29 190 -29q119 0 156 38t37 147q0 98 -37 130t-143 32h-109v79h109q96 0 127.5 31t31.5 115q0 102 -33.5 134t-136.5 32q-125 0 -180 -27l-8 82q59 27 184 27q158 0 215.5 -54.5t57.5 -175.5q0 -152 -92 -196v-11q115 -47 114 -208q0 -147 -69.5 -203t-223.5 -56z" glyph-name="uni2462" horiz-adv-x="1814" unicode="③"/><glyph d="M907.5 -20q-319.5 0 -527.5 206.5t-208 530t208 530.5t527.5 207t527 -207t207.5 -530.5t-207.5 -530t-527 -206.5zM907.5 70q278.5 0 457.5 181t179 465.5t-179 466t-457.5 181.5t-458 -181.5t-179.5 -466t179.5 -465.5t458 -181zM942 291v233h-364v123l268 522h102 l-274 -528v-37h268v307h96v-307h121v-80h-121v-233h-96z" glyph-name="uni2463" horiz-adv-x="1814" unicode="④"/><glyph d="M907.5 -20q-319.5 0 -527.5 206.5t-208 530t208 530.5t527.5 207t527 -207t207.5 -530.5t-207.5 -530t-527 -206.5zM907.5 70q278.5 0 457.5 181t179 465.5t-179 466t-457.5 181.5t-458 -181.5t-179.5 -466t179.5 -465.5t458 -181zM860 279q-125 0 -192 28l8 82 q57 -29 182 -29q115 0 152 40t37 149q0 115 -39 152.5t-148 37.5h-153l14 428h393v-80h-299l-8 -268h53q166 0 226.5 -61.5t60.5 -196.5q0 -164 -67.5 -223t-219.5 -59z" glyph-name="uni2464" horiz-adv-x="1814" unicode="⑤"/><glyph d="M907.5 -20q-319.5 0 -527.5 206.5t-208 530t208 530.5t527.5 207t527 -207t207.5 -530.5t-207.5 -530t-527 -206.5zM907.5 70q278.5 0 457.5 181t179 465.5t-179 466t-457.5 181.5t-458 -181.5t-179.5 -466t179.5 -465.5t458 -181zM891 285q-154 0 -211 67.5t-57 204.5 q0 174 112 375q74 129 176 242h113q-131 -145 -205 -273q-27 -43 -51 -98h12q51 29 148 28q117 0 170 -65.5t53 -202.5q0 -158 -64.5 -218t-195.5 -60zM889 367q96 0 130 43t34 157q0 109 -34 146t-128 37q-100 0 -134 -40t-34 -151q0 -115 35 -153.5t131 -38.5z" glyph-name="uni2465" horiz-adv-x="1814" unicode="⑥"/><glyph d="M907.5 -20q-319.5 0 -527.5 206.5t-208 530t208 530.5t527.5 207t527 -207t207.5 -530.5t-207.5 -530t-527 -206.5zM907.5 70q278.5 0 457.5 181t179 465.5t-179 466t-457.5 181.5t-458 -181.5t-179.5 -466t179.5 -465.5t458 -181zM721 274l328 762v37h-365v78h461v-113 l-326 -764h-98z" glyph-name="uni2466" horiz-adv-x="1814" unicode="⑦"/><glyph d="M907.5 -20q-319.5 0 -527.5 206.5t-208 530t208 530.5t527.5 207t527 -207t207.5 -530.5t-207.5 -530t-527 -206.5zM907.5 70q278.5 0 457.5 181t179 465.5t-179 466t-457.5 181.5t-458 -181.5t-179.5 -466t179.5 -465.5t458 -181zM907 279q-160 0 -221 64.5t-61 195.5 q0 160 116 204v11q-94 41 -94 190q0 135 63.5 186.5t196.5 51.5q147 0 203.5 -59.5t56.5 -184.5q0 -141 -92 -186v-9q115 -45 115 -204q0 -147 -70 -203.5t-213 -56.5zM907 786q100 0 132 33t32 127q0 90 -35 121t-129 31q-96 0 -130 -32t-34 -120q0 -96 33 -128t131 -32z M907 360q109 0 146 36t37 132q0 109 -37 144t-146 35q-111 0 -146.5 -37t-35.5 -142q0 -100 39 -134t143 -34z" glyph-name="uni2467" horiz-adv-x="1814" unicode="⑧"/><glyph d="M907.5 -20q-319.5 0 -527.5 206.5t-208 530t208 530.5t527.5 207t527 -207t207.5 -530.5t-207.5 -530t-527 -206.5zM907.5 70q278.5 0 457.5 181t179 465.5t-179 466t-458 181.5q-274 0 -455.5 -182.5t-181.5 -464.5q0 -285 179.5 -466t458 -181zM770 287 q131 145 205 272q31 51 49 98h-12q-51 -29 -146 -28q-117 0 -170 65.5t-53 202.5q0 158 64.5 219.5t193.5 61.5q152 0 210 -69t58 -206q0 -174 -112 -375q-80 -139 -176 -241h-111zM903 709q98 0 133 41t35 151q0 113 -35 152t-131 39t-130 -43t-34 -158q0 -109 34 -145.5 t128 -36.5z" glyph-name="uni2468" horiz-adv-x="1814" unicode="⑨"/><glyph d="M907.5 -20q-319.5 0 -527.5 206.5t-208 530t208 530.5t527.5 207t527 -207t207.5 -530.5t-207.5 -530t-527 -206.5zM907.5 70q278.5 0 457.5 181t179 465.5t-179 466t-458 181.5q-274 0 -455.5 -182.5t-181.5 -464.5q0 -285 179.5 -466t458 -181zM907 279 q-156 0 -215 109.5t-59 340.5q0 258 66.5 355.5t207.5 97.5q156 0 215.5 -110.5t59.5 -342.5q0 -258 -67 -354t-208 -96zM907 360q100 0 137 79t37 290q0 217 -37.5 293t-136.5 76q-100 0 -137 -80t-37 -289q0 -217 38 -293t136 -76z" glyph-name="uni24EA" horiz-adv-x="1814" unicode="⓪"/><glyph d="M907.5 -20q-319.5 0 -527.5 206.5t-208 530t208 530.5t527.5 207t527 -207t207.5 -530.5t-207.5 -530t-527 -206.5zM907 279q141 0 208 96t67 354q0 231 -59.5 342t-215.5 111q-141 0 -207.5 -97.5t-66.5 -355.5q0 -231 59 -340.5t215 -109.5zM907 360q-98 0 -136 76 t-38 293q0 209 37 289t137 80q98 0 136 -76t38 -293q0 -211 -37 -290t-137 -79z" glyph-name="uni24FF" horiz-adv-x="1814" unicode="⓿"/><glyph d="M907.5 -20q-319.5 0 -527.5 206.5t-208 530t208 530.5t527.5 207t527 -207t207.5 -530.5t-207.5 -530t-527 -206.5zM690 289h443v80h-168v798h-97l-186 -53l12 -72l174 50v-723h-178v-80z" glyph-name="uni2776" horiz-adv-x="1814" unicode="❶"/><glyph d="M907.5 -20q-319.5 0 -527.5 206.5t-208 530t208 530.5t527.5 207t527 -207t207.5 -530.5t-207.5 -530t-527 -206.5zM662 291h491v80h-393v18q0 106 82 180l227 199q84 72 84 188q0 225 -270 226q-63 0 -189 -19l8 -82q98 16 184.5 16.5t126.5 -30.5t40 -111 q0 -86 -52 -129l-215 -184q-66 -57 -95 -112.5t-29 -141.5v-98z" glyph-name="uni2777" horiz-adv-x="1814" unicode="❷"/><glyph d="M907.5 -20q-319.5 0 -527.5 206.5t-208 530t208 530.5t527.5 207t527 -207t207.5 -530.5t-207.5 -530t-527 -206.5zM872 276q154 0 223.5 55.5t69.5 203.5q0 162 -114 208v11q92 45 92 196q0 121 -57.5 175.5t-215.5 54.5q-125 0 -184 -27l8 -82q55 27 180 27 q102 0 136 -32t34 -134q0 -84 -31.5 -115t-127.5 -31h-109v-79h109q106 0 143 -32t37 -130q0 -109 -37 -147t-156 -38q-131 0 -190 29l-8 -82q75 -31 198 -31z" glyph-name="uni2778" horiz-adv-x="1814" unicode="❸"/><glyph d="M907.5 -20q-319.5 0 -527.5 206.5t-208 530t208 530.5t527.5 207t527 -207t207.5 -530.5t-207.5 -530t-527 -206.5zM942 291h96v233h121v80h-121v307h-96v-307h-268v37l274 528h-102l-268 -522v-123h364v-233z" glyph-name="uni2779" horiz-adv-x="1814" unicode="❹"/><glyph d="M907.5 -20q-319.5 0 -527.5 206.5t-208 530t208 530.5t527.5 207t527 -207t207.5 -530.5t-207.5 -530t-527 -206.5zM860 279q152 0 219.5 59t67.5 223q0 135 -60.5 196.5t-226.5 61.5h-53l8 268h299v80h-393l-14 -428h153q109 0 148 -37.5t39 -152.5q0 -109 -37 -149 t-152 -40q-125 0 -182 29l-8 -82q67 -28 192 -28z" glyph-name="uni277A" horiz-adv-x="1814" unicode="❺"/><glyph d="M907.5 -20q-319.5 0 -527.5 206.5t-208 530t208 530.5t527.5 207t527 -207t207.5 -530.5t-207.5 -530t-527 -206.5zM891 285q131 0 195.5 60.5t64.5 217.5q0 137 -53.5 202.5t-169.5 65.5q-96 0 -148 -28h-12q25 55 51 98q74 127 205 273h-113q-102 -113 -176 -242 q-113 -201 -112 -375q0 -137 57 -204.5t211 -67.5zM889 367q-96 0 -131 38.5t-35 153.5q0 111 34 151t134 40q94 0 128 -37t34 -146q0 -115 -34 -157.5t-130 -42.5z" glyph-name="uni277B" horiz-adv-x="1814" unicode="❻"/><glyph d="M907.5 -20q-319.5 0 -527.5 206.5t-208 530t208 530.5t527.5 207t527 -207t207.5 -530.5t-207.5 -530t-527 -206.5zM721 289h98l326 764v112h-461v-78h365v-36z" glyph-name="uni277C" horiz-adv-x="1814" unicode="❼"/><glyph d="M907.5 -20q-319.5 0 -527.5 206.5t-208 530t208 530.5t527.5 207t527 -207t207.5 -530.5t-207.5 -530t-527 -206.5zM907 279q143 0 213 56t70 204q0 160 -115 204v9q92 45 92 186q0 125 -56 184.5t-204 59.5q-133 0 -196.5 -51.5t-63.5 -186.5q0 -150 94 -190v-11 q-117 -45 -116 -204q0 -131 61 -195.5t221 -64.5zM907 786q-98 0 -131 32t-33 128q0 88 34 120t130 32q94 0 129 -31t35 -121q0 -94 -32 -127t-132 -33zM907 360q-104 0 -143 34t-39 134q0 104 36 141.5t146 37.5q109 0 146 -35t37 -144q0 -96 -37 -132t-146 -36z" glyph-name="uni277D" horiz-adv-x="1814" unicode="❽"/><glyph d="M907.5 -20q-319.5 0 -527.5 206.5t-208 530t208 530.5t527.5 207t527 -207t207.5 -530.5t-207.5 -530t-527 -206.5zM770 285h111q96 102 176 241q113 201 112 375q0 137 -58 206t-210 69q-129 0 -193.5 -61.5t-64.5 -219.5q0 -137 53.5 -202.5t169.5 -65.5q94 0 146 28 h12q-18 -45 -49 -98q-74 -127 -205 -272zM903 709q-94 0 -128 36.5t-34 145.5q0 115 34 158t130 43t131 -39t35 -152q0 -111 -35 -151.5t-133 -40.5z" glyph-name="uni277E" horiz-adv-x="1814" unicode="❾"/><glyph d="M819 1126h103v-1132l-82 -8l-13 139h-14q-70 -145 -278 -145q-233 0 -323.5 145t-90.5 428q0 336 108.5 465t319.5 129q186 0 254 -117h16v96zM532 70q147 0 217 68.5t70 246.5v356q0 182 -69.5 249t-214.5 67q-178 0 -244 -115t-66 -381q0 -285 71.5 -388t235.5 -103z " glyph-name="a.ss01" horiz-adv-x="1095"/><glyph d="M831 1679l-256 -383h-73l223 383h106zM819 1126h103v-1132l-82 -8l-13 139h-14q-70 -145 -278 -145q-233 0 -323.5 145t-90.5 428q0 336 108.5 465t319.5 129q186 0 254 -117h16v96zM532 70q147 0 217 68.5t70 246.5v356q0 182 -69.5 249t-214.5 67q-178 0 -244 -115 t-66 -381q0 -285 71.5 -388t235.5 -103z" glyph-name="aacute.aalt" horiz-adv-x="1095"/><glyph d="M545 1333q-164 0 -228.5 70t-64.5 205v26h84v-37q0 -197 207 -196q100 0 154.5 43t54.5 153v37h82v-26q0 -156 -74 -215.5t-215 -59.5zM819 1126h103v-1132l-82 -8l-13 139h-14q-70 -145 -278 -145q-233 0 -323.5 145t-90.5 428q0 336 108.5 465t319.5 129 q186 0 254 -117h16v96zM532 70q147 0 217 68.5t70 246.5v356q0 182 -69.5 249t-214.5 67q-178 0 -244 -115t-66 -381q0 -285 71.5 -388t235.5 -103z" glyph-name="abreve.aalt" horiz-adv-x="1095"/><glyph d="M821 1982l-256 -383h-71l221 383h106zM545 1333q-164 0 -228.5 70t-64.5 205v26h84v-37q0 -197 207 -196q100 0 154.5 43t54.5 153v37h82v-26q0 -156 -74 -215.5t-215 -59.5zM819 1126h103v-1132l-82 -8l-13 139h-14q-70 -145 -278 -145q-233 0 -323.5 145t-90.5 428 q0 336 108.5 465t319.5 129q186 0 254 -117h16v96zM532 70q147 0 217 68.5t70 246.5v356q0 182 -69.5 249t-214.5 67q-178 0 -244 -115t-66 -381q0 -285 71.5 -388t235.5 -103z" glyph-name="uni1EAF.aalt" horiz-adv-x="1095"/><glyph d="M545 1333q-164 0 -228.5 70t-64.5 205v26h84v-37q0 -197 207 -196q100 0 154.5 43t54.5 153v37h82v-26q0 -156 -74 -215.5t-215 -59.5zM819 1126h103v-1132l-82 -8l-13 139h-14q-70 -145 -278 -145q-233 0 -323.5 145t-90.5 428q0 336 108.5 465t319.5 129 q186 0 254 -117h16v96zM532 70q147 0 217 68.5t70 246.5v356q0 182 -69.5 249t-214.5 67q-178 0 -244 -115t-66 -381q0 -285 71.5 -388t235.5 -103zM479 -279v127h127v-127h-127z" glyph-name="uni1EB7.aalt" horiz-adv-x="1095"/><glyph d="M592 1597h-74l-256 383h107zM545 1333q-164 0 -228.5 70t-64.5 205v26h84v-37q0 -197 207 -196q100 0 154.5 43t54.5 153v37h82v-26q0 -156 -74 -215.5t-215 -59.5zM819 1126h103v-1132l-82 -8l-13 139h-14q-70 -145 -278 -145q-233 0 -323.5 145t-90.5 428 q0 336 108.5 465t319.5 129q186 0 254 -117h16v96zM532 70q147 0 217 68.5t70 246.5v356q0 182 -69.5 249t-214.5 67q-178 0 -244 -115t-66 -381q0 -285 71.5 -388t235.5 -103z" glyph-name="uni1EB1.aalt" horiz-adv-x="1095"/><glyph d="M543 1905q-29 0 -105 -11l-6 66q70 10 123 10q92 0 131 -32.5t39 -98.5q0 -61 -55 -106l-62 -50q-29 -25 -39 -40t-10 -46h-61q0 49 10 74t49 53l53 41q33 25 33 66q0 43 -22.5 58.5t-77.5 15.5zM545 1333q-164 0 -228.5 70t-64.5 205v26h84v-37q0 -197 207 -196 q100 0 154.5 43t54.5 153v37h82v-26q0 -156 -74 -215.5t-215 -59.5zM819 1126h103v-1132l-82 -8l-13 139h-14q-70 -145 -278 -145q-233 0 -323.5 145t-90.5 428q0 336 108.5 465t319.5 129q186 0 254 -117h16v96zM532 70q147 0 217 68.5t70 246.5v356q0 182 -69.5 249 t-214.5 67q-178 0 -244 -115t-66 -381q0 -285 71.5 -388t235.5 -103z" glyph-name="uni1EB3.aalt" horiz-adv-x="1095"/><glyph d="M414 1864q-72 0 -90 -133h-70q0 92 43 148t113 56q59 0 116 -39l101 -73q25 -18 51 -19q35 0 57.5 29t32.5 104h70q0 -92 -43 -148t-115 -56q-57 0 -115 43l-98 69q-28 19 -53 19zM547 1333q-164 0 -228.5 70t-64.5 205v26h84v-37q0 -197 207 -196q100 0 154.5 43 t54.5 153v37h82v-26q0 -156 -74 -215.5t-215 -59.5zM819 1126h103v-1132l-82 -8l-13 139h-14q-70 -145 -278 -145q-233 0 -323.5 145t-90.5 428q0 336 108.5 465t319.5 129q186 0 254 -117h16v96zM532 70q147 0 217 68.5t70 246.5v356q0 182 -69.5 249t-214.5 67 q-178 0 -244 -115t-66 -381q0 -285 71.5 -388t235.5 -103z" glyph-name="uni1EB5.aalt" horiz-adv-x="1095"/><glyph d="M487 1288l-272 383h74l254 -319l252 319h73l-270 -383h-111zM819 1126h103v-1132l-82 -8l-13 139h-14q-70 -145 -278 -145q-233 0 -323.5 145t-90.5 428q0 336 108.5 465t319.5 129q186 0 254 -117h16v96zM532 70q147 0 217 68.5t70 246.5v356q0 182 -69.5 249t-214.5 67 q-178 0 -244 -115t-66 -381q0 -285 71.5 -388t235.5 -103z" glyph-name="uni01CE.aalt" horiz-adv-x="1095"/><glyph d="M543 1608l-254 -320h-74l272 383h111l270 -383h-73zM819 1126h103v-1132l-82 -8l-13 139h-14q-70 -145 -278 -145q-233 0 -323.5 145t-90.5 428q0 336 108.5 465t319.5 129q186 0 254 -117h16v96zM532 70q147 0 217 68.5t70 246.5v356q0 182 -69.5 249t-214.5 67 q-178 0 -244 -115t-66 -381q0 -285 71.5 -388t235.5 -103z" glyph-name="acircumflex.aalt" horiz-adv-x="1095"/><glyph d="M1124 1919l-256 -383h-73l223 383h106zM543 1608l-254 -320h-74l272 383h111l270 -383h-73zM819 1030v96h103v-1132l-82 -8l-13 139h-14q-70 -145 -278 -145q-233 0 -323.5 145t-90.5 428q0 336 108.5 465t319.5 129q186 0 254 -117h16zM532 70q147 0 217 68.5t70 246.5 v356q0 182 -69.5 249t-214.5 67q-178 0 -244 -115t-66 -381q0 -285 71.5 -388t235.5 -103z" glyph-name="uni1EA5.aalt" horiz-adv-x="1095"/><glyph d="M543 1608l-254 -320h-74l272 383h111l270 -383h-73zM819 1126h103v-1132l-82 -8l-13 139h-14q-70 -145 -278 -145q-233 0 -323.5 145t-90.5 428q0 336 108.5 465t319.5 129q186 0 254 -117h16v96zM532 70q147 0 217 68.5t70 246.5v356q0 182 -69.5 249t-214.5 67 q-178 0 -244 -115t-66 -381q0 -285 71.5 -388t235.5 -103zM479 -279v127h127v-127h-127z" glyph-name="uni1EAD.aalt" horiz-adv-x="1095"/><glyph d="M911 1536h-73l-256 383h106zM543 1608l-254 -320h-74l272 383h111l270 -383h-73zM819 1126h103v-1132l-82 -8l-13 139h-14q-70 -145 -278 -145q-233 0 -323.5 145t-90.5 428q0 336 108.5 465t319.5 129q186 0 254 -117h16v96zM532 70q147 0 217 68.5t70 246.5v356 q0 182 -69.5 249t-214.5 67q-178 0 -244 -115t-66 -381q0 -285 71.5 -388t235.5 -103z" glyph-name="uni1EA7.aalt" horiz-adv-x="1095"/><glyph d="M846 1909q92 0 131 -33t39 -98q0 -61 -55 -107l-62 -49q-49 -41 -49 -86h-62q0 47 10.5 72.5t49.5 54.5l53 41q33 25 33 65.5t-22.5 56t-75.5 15.5q-45 0 -105 -8l-6 65q68 11 121 11zM543 1608l-254 -320h-74l272 383h111l270 -383h-73zM819 1030v96h103v-1132l-82 -8 l-13 139h-14q-70 -145 -278 -145q-233 0 -323.5 145t-90.5 428q0 336 108.5 465t319.5 129q186 0 254 -117h16zM532 70q147 0 217 68.5t70 246.5v356q0 182 -69.5 249t-214.5 67q-178 0 -244 -115t-66 -381q0 -285 71.5 -388t235.5 -103z" glyph-name="uni1EA9.aalt" horiz-adv-x="1095"/><glyph d="M406 1882q-72 0 -91 -133h-69q0 92 43 148.5t112 56.5q63 0 117 -39l100 -74q25 -18 52 -18q35 0 57.5 28.5t32.5 104.5h69q0 -92 -43 -148.5t-114 -56.5q-53 0 -115 43l-98 70q-26 18 -53 18zM543 1608l-254 -320h-74l272 383h111l270 -383h-73zM819 1126h103v-1132 l-82 -8l-13 139h-14q-70 -145 -278 -145q-233 0 -323.5 145t-90.5 428q0 336 108.5 465t319.5 129q186 0 254 -117h16v96zM532 70q147 0 217 68.5t70 246.5v356q0 182 -69.5 249t-214.5 67q-178 0 -244 -115t-66 -381q0 -285 71.5 -388t235.5 -103z" glyph-name="uni1EAB.aalt" horiz-adv-x="1095"/><glyph d="M420 1296h-74l-256 383h107zM731 1296h-74l-256 383h107zM819 1126h103v-1132l-82 -8l-13 139h-14q-70 -145 -278 -145q-233 0 -323.5 145t-90.5 428q0 336 108.5 465t319.5 129q186 0 254 -117h16v96zM532 70q147 0 217 68.5t70 246.5v356q0 182 -69.5 249t-214.5 67 q-178 0 -244 -115t-66 -381q0 -285 71.5 -388t235.5 -103z" glyph-name="uni0201.aalt" horiz-adv-x="1095"/><glyph d="M401 1518v-127h-127v127h127zM807 1518v-127h-127v127h127zM819 1126h103v-1132l-82 -8l-13 139h-14q-70 -145 -278 -145q-233 0 -323.5 145t-90.5 428q0 336 108.5 465t319.5 129q186 0 254 -117h16v96zM532 70q147 0 217 68.5t70 246.5v356q0 182 -69.5 249t-214.5 67 q-178 0 -244 -115t-66 -381q0 -285 71.5 -388t235.5 -103z" glyph-name="adieresis.aalt" horiz-adv-x="1095"/><glyph d="M819 1126h103v-1132l-82 -8l-13 139h-14q-70 -145 -278 -145q-233 0 -323.5 145t-90.5 428q0 336 108.5 465t319.5 129q186 0 254 -117h16v96zM532 70q147 0 217 68.5t70 246.5v356q0 182 -69.5 249t-214.5 67q-178 0 -244 -115t-66 -381q0 -285 71.5 -388t235.5 -103z M479 -279v127h127v-127h-127z" glyph-name="uni1EA1.aalt" horiz-adv-x="1095"/><glyph d="M575 1296h-73l-256 383h106zM819 1126h103v-1132l-82 -8l-13 139h-14q-70 -145 -278 -145q-233 0 -323.5 145t-90.5 428q0 336 108.5 465t319.5 129q186 0 254 -117h16v96zM532 70q147 0 217 68.5t70 246.5v356q0 182 -69.5 249t-214.5 67q-178 0 -244 -115t-66 -381 q0 -285 71.5 -388t235.5 -103z" glyph-name="agrave.aalt" horiz-adv-x="1095"/><glyph d="M557 1616q-45 0 -104 -8l-7 65q70 10 121 10q92 0 131 -32.5t41 -98.5q0 -59 -55 -106l-61 -49q-49 -39 -50 -86h-61q0 47 10 72.5t49 54.5l54 41q33 25 32.5 65.5t-23 56t-77.5 15.5zM819 1126h103v-1132l-82 -8l-13 139h-14q-70 -145 -278 -145q-233 0 -323.5 145 t-90.5 428q0 336 108.5 465t319.5 129q186 0 254 -117h16v96zM532 70q147 0 217 68.5t70 246.5v356q0 182 -69.5 249t-214.5 67q-178 0 -244 -115t-66 -381q0 -285 71.5 -388t235.5 -103z" glyph-name="uni1EA3.aalt" horiz-adv-x="1095"/><glyph d="M336 1370v-37h-84v27q0 135 64.5 204.5t228.5 69.5q141 0 215 -59t74 -215v-27h-82v37q0 111 -54.5 154t-154.5 43q-207 0 -207 -197zM819 1126h103v-1132l-82 -8l-13 139h-14q-70 -145 -278 -145q-233 0 -323.5 145t-90.5 428q0 336 108.5 465t319.5 129q186 0 254 -117 h16v96zM532 70q147 0 217 68.5t70 246.5v356q0 182 -69.5 249t-214.5 67q-178 0 -244 -115t-66 -381q0 -285 71.5 -388t235.5 -103z" glyph-name="uni0203.aalt" horiz-adv-x="1095"/><glyph d="M791 1493v-88h-494v88h494zM819 1126h103v-1132l-82 -8l-13 139h-14q-70 -145 -278 -145q-233 0 -323.5 145t-90.5 428q0 336 108.5 465t319.5 129q186 0 254 -117h16v96zM532 70q147 0 217 68.5t70 246.5v356q0 182 -69.5 249t-214.5 67q-178 0 -244 -115t-66 -381 q0 -285 71.5 -388t235.5 -103z" glyph-name="amacron.aalt" horiz-adv-x="1095"/><glyph d="M1010 -328l6 -82q-96 0 -168 29q-55 20 -92 70.5t-37 124.5q0 125 115 209h2l-9 102h-14q-70 -145 -278 -145q-233 0 -323.5 145t-90.5 428q0 336 108.5 465t319.5 129q186 0 254 -117h16v96h103v-1132l-17 -2q-88 -78 -88 -168q0 -59 42 -105.5t151 -46.5zM532 70 q147 0 217 68.5t70 246.5v356q0 182 -69.5 249t-214.5 67q-178 0 -244 -115t-66 -381q0 -285 71.5 -388t235.5 -103z" glyph-name="aogonek.aalt" horiz-adv-x="1095"/><glyph d="M543 1288q-125 0 -172 51.5t-47 149.5q0 111 56 155t163 44q125 0 172 -50.5t47 -148.5q0 -113 -56.5 -157t-162.5 -44zM543 1624q-74 0 -109 -29.5t-35 -105.5q0 -70 31 -102.5t113 -32.5q74 0 108.5 28.5t34.5 106.5q0 70 -30.5 102.5t-112.5 32.5zM819 1126h103v-1132 l-82 -8l-13 139h-14q-70 -145 -278 -145q-233 0 -323.5 145t-90.5 428q0 336 108.5 465t319.5 129q186 0 254 -117h16v96zM532 70q147 0 217 68.5t70 246.5v356q0 182 -69.5 249t-214.5 67q-178 0 -244 -115t-66 -381q0 -285 71.5 -388t235.5 -103z" glyph-name="aring.aalt" horiz-adv-x="1095"/><glyph d="M836 2150l-256 -383h-74l223 383h107zM543 1288q-125 0 -172 51.5t-47 149.5q0 111 56 155t163 44q125 0 172 -50.5t47 -148.5q0 -113 -56.5 -157t-162.5 -44zM543 1624q-74 0 -109 -29.5t-35 -105.5q0 -70 31 -102.5t113 -32.5q74 0 108.5 28.5t34.5 106.5 q0 70 -30.5 102.5t-112.5 32.5zM819 1126h103v-1132l-82 -8l-13 139h-14q-70 -145 -278 -145q-233 0 -323.5 145t-90.5 428q0 336 108.5 465t319.5 129q186 0 254 -117h16v96zM532 70q147 0 217 68.5t70 246.5v356q0 182 -69.5 249t-214.5 67q-178 0 -244 -115t-66 -381 q0 -285 71.5 -388t235.5 -103z" glyph-name="aringacute.aalt" horiz-adv-x="1095"/><glyph d="M414 1483q-35 0 -57.5 -28t-32.5 -103h-70q0 92 42 147t114 55q63 0 116 -38l101 -74q25 -18 51 -19q72 0 90 133h70q0 -92 -43 -148t-115 -56q-53 0 -115 43l-98 69q-28 19 -53 19zM819 1126h103v-1132l-82 -8l-13 139h-14q-70 -145 -278 -145q-233 0 -323.5 145 t-90.5 428q0 336 108.5 465t319.5 129q186 0 254 -117h16v96zM532 70q147 0 217 68.5t70 246.5v356q0 182 -69.5 249t-214.5 67q-178 0 -244 -115t-66 -381q0 -285 71.5 -388t235.5 -103z" glyph-name="atilde.aalt" horiz-adv-x="1095"/><glyph d="M850 1141l82 -8v-1078q0 -252 -107.5 -348t-314.5 -96q-125 0 -330 43l15 88q211 -41 311 -41q184 0 253.5 83t69.5 257v131h-16q-70 -117 -258 -117q-246 0 -340 131t-94 387q0 137 18.5 236.5t64.5 178.5t130 119t207 40q209 0 282 -146h15zM541 145q147 0 217.5 67 t70.5 247v282q0 178 -71.5 247t-220.5 69q-166 0 -239 -104.5t-73 -387.5q0 -240 77 -330t239 -90z" glyph-name="g.aalt" horiz-adv-x="1105"/><glyph d="M842 1679l-256 -383h-74l223 383h107zM850 1141l82 -8v-1078q0 -252 -107.5 -348t-314.5 -96q-125 0 -330 43l15 88q211 -41 311 -41q184 0 253.5 83t69.5 257v131h-16q-70 -117 -258 -117q-246 0 -340 131t-94 387q0 137 18.5 236.5t64.5 178.5t130 119t207 40 q209 0 282 -146h15zM541 145q147 0 217.5 67t70.5 247v282q0 178 -71.5 247t-220.5 69q-166 0 -239 -104.5t-73 -387.5q0 -240 77 -330t239 -90z" glyph-name="uni01F5.aalt" horiz-adv-x="1105"/><glyph d="M555 1333q-164 0 -228.5 70t-64.5 205v26h84v-37q0 -197 207 -196q100 0 154.5 43t54.5 153v37h82v-26q0 -156 -74 -215.5t-215 -59.5zM850 1141l82 -8v-1078q0 -252 -107.5 -348t-314.5 -96q-125 0 -330 43l15 88q211 -41 311 -41q184 0 253.5 83t69.5 257v131h-16 q-70 -117 -258 -117q-246 0 -340 131t-94 387q0 137 18.5 236.5t64.5 178.5t130 119t207 40q209 0 282 -146h15zM541 145q147 0 217.5 67t70.5 247v282q0 178 -71.5 247t-220.5 69q-166 0 -239 -104.5t-73 -387.5q0 -240 77 -330t239 -90z" glyph-name="gbreve.aalt" horiz-adv-x="1105"/><glyph d="M498 1288l-273 383h74l254 -319l252 319h74l-271 -383h-110zM850 1141l82 -8v-1078q0 -252 -107.5 -348t-314.5 -96q-125 0 -330 43l15 88q211 -41 311 -41q184 0 253.5 83t69.5 257v131h-16q-70 -117 -258 -117q-246 0 -340 131t-94 387q0 137 18.5 236.5t64.5 178.5 t130 119t207 40q209 0 282 -146h15zM541 145q147 0 217.5 67t70.5 247v282q0 178 -71.5 247t-220.5 69q-166 0 -239 -104.5t-73 -387.5q0 -240 77 -330t239 -90z" glyph-name="gcaron.aalt" horiz-adv-x="1105"/><glyph d="M553 1608l-254 -320h-74l273 383h110l271 -383h-74zM850 1141l82 -8v-1078q0 -252 -107.5 -348t-314.5 -96q-125 0 -330 43l15 88q211 -41 311 -41q184 0 253.5 83t69.5 257v131h-16q-70 -117 -258 -117q-246 0 -340 131t-94 387q0 137 18.5 236.5t64.5 178.5t130 119 t207 40q209 0 282 -146h15zM541 145q147 0 217.5 67t70.5 247v282q0 178 -71.5 247t-220.5 69q-166 0 -239 -104.5t-73 -387.5q0 -240 77 -330t239 -90z" glyph-name="gcircumflex.aalt" horiz-adv-x="1105"/><glyph d="M616 1520v-127h-127v127l52 186h73l-43 -186h45zM850 1141l82 -8v-1078q0 -252 -107.5 -348t-314.5 -96q-125 0 -330 43l15 88q211 -41 311 -41q184 0 253.5 83t69.5 257v131h-16q-70 -117 -258 -117q-246 0 -340 131t-94 387q0 137 18.5 236.5t64.5 178.5t130 119 t207 40q209 0 282 -146h15zM541 145q147 0 217.5 67t70.5 247v282q0 178 -71.5 247t-220.5 69q-166 0 -239 -104.5t-73 -387.5q0 -240 77 -330t239 -90z" glyph-name="gcommaaccent.aalt" horiz-adv-x="1105"/><glyph d="M616 1518v-127h-127v127h127zM850 1141l82 -8v-1078q0 -252 -107.5 -348t-314.5 -96q-125 0 -330 43l15 88q211 -41 311 -41q184 0 253.5 83t69.5 257v131h-16q-70 -117 -258 -117q-246 0 -340 131t-94 387q0 137 18.5 236.5t64.5 178.5t130 119t207 40q209 0 282 -146 h15zM541 145q147 0 217.5 67t70.5 247v282q0 178 -71.5 247t-220.5 69q-166 0 -239 -104.5t-73 -387.5q0 -240 77 -330t239 -90z" glyph-name="gdotaccent.aalt" horiz-adv-x="1105"/><glyph d="M160 1518h129v-129h-129v129zM276 1126v-1126h-102v1126h102z" glyph-name="i.locl" horiz-adv-x="448"/><glyph d="M164 1518h127v-127h-127v127zM276 1126v-1126h-102v1126h102z" glyph-name="glyph627" horiz-adv-x="448"/><glyph d="M365 -381q-156 0 -215.5 109.5t-59.5 341.5q0 258 66.5 355t208.5 97q156 0 215 -110.5t59 -341.5q0 -258 -66.5 -354.5t-207.5 -96.5zM365 -299q100 0 137 79t37 290q0 217 -38 293.5t-136 76.5q-100 0 -138.5 -79.5t-38.5 -290.5q0 -215 39.5 -292t137.5 -77z" glyph-name="zero.sinf" horiz-adv-x="729"/><glyph d="M297 -289h168v-80h-445v80h181v723l-174 -49l-13 72l187 51h96v-797z" glyph-name="one.sinf" horiz-adv-x="505"/><glyph d="M156 -270v-19h391v-80h-492v99q0 86 30 141t97 113l215 184q51 45 52 129q0 82 -40 112.5t-128 30.5q-72 0 -185 -18l-8 82q121 18 188 18q272 0 273 -225q0 -115 -84 -188l-227 -199q-82 -74 -82 -180z" glyph-name="two.sinf" horiz-adv-x="616"/><glyph d="M422 84q115 -45 115 -209q0 -147 -70 -201.5t-223 -54.5q-131 0 -199 31l6 80q70 -29 193 -29q117 0 154.5 39t37.5 145q0 98 -37 131t-143 33h-109v80h109q96 0 128 29.5t32 113.5q0 102 -34 135t-136 33q-119 0 -180 -28l-9 82q63 29 185 28q158 0 215 -54t57 -177 q0 -152 -92 -197v-10z" glyph-name="three.sinf" horiz-adv-x="622"/><glyph d="M625 -55v-80h-123v-234h-96v234h-365v123l270 520h101l-275 -528v-35h269v307h96v-307h123z" glyph-name="four.sinf" horiz-adv-x="657"/><glyph d="M252 160q164 0 224.5 -61.5t60.5 -196.5q0 -164 -67 -223.5t-218 -59.5q-125 0 -193 29l7 82q59 -29 184 -29q115 0 151.5 40t36.5 148q0 115 -39 153t-147 38h-156l15 428h395v-78h-299l-10 -270h55z" glyph-name="five.sinf" horiz-adv-x="610"/><glyph d="M373 166q117 0 170 -64.5t53 -203.5q0 -158 -64.5 -218.5t-195.5 -60.5q-152 0 -210 68.5t-58 206.5q0 172 112 372q74 129 176 242h113q-125 -137 -205 -272q-27 -43 -51 -99h12q56 29 148 29zM334 -299q96 0 129 42t33 159q0 109 -33 145.5t-127 36.5q-100 0 -135 -41 t-35 -149q0 -113 36 -153t132 -40z" glyph-name="six.sinf" horiz-adv-x="655"/><glyph d="M29 508h463v-113l-328 -764h-98l329 764v35h-366v78z" glyph-name="seven.sinf" horiz-adv-x="526"/><glyph d="M535 86q117 -45 116 -207q0 -147 -70.5 -203.5t-211.5 -56.5q-160 0 -221.5 65.5t-61.5 194.5q0 160 115 207v8q-92 45 -92 191q0 135 63.5 186t196.5 51q150 0 205 -59.5t55 -183.5q0 -143 -94 -187v-6zM369 440q-96 0 -130 -32.5t-34 -120.5q0 -96 32.5 -127t131.5 -31 q100 0 131.5 33t31.5 125q0 90 -34.5 121.5t-128.5 31.5zM368.5 -299q106.5 0 144.5 37t38 133q0 106 -37 142t-145 36q-111 0 -148 -37t-37 -141q0 -100 39 -135t145.5 -35z" glyph-name="eight.sinf" horiz-adv-x="737"/><glyph d="M319 522q152 0 210.5 -68.5t58.5 -205.5q0 -178 -115 -375q-78 -135 -174 -242h-113q137 154 205 273q31 51 49 98h-12q-51 -29 -145 -29q-117 0 -170.5 65.5t-53.5 203.5q0 158 64.5 219t195.5 61zM158 238q0 -109 33.5 -146t127.5 -37q100 0 134 41t34 152 q0 113 -34.5 152.5t-131 39.5t-130 -42.5t-33.5 -159.5z" glyph-name="nine.sinf" horiz-adv-x="655"/><glyph d="M592 -20q-248 0 -342 179t-94 556q0 289 53 454.5t144 225t239 59.5q248 0 341 -180t93 -559q0 -217 -27.5 -362.5t-86 -226.5t-135 -113.5t-185.5 -32.5zM592 74q188 0 255.5 143t67.5 498q0 258 -33.5 398t-101 193.5t-188.5 53.5q-190 0 -258 -143.5t-68 -501.5 q0 -256 34 -395.5t102.5 -192.5t189.5 -53z" glyph-name="zero.case" horiz-adv-x="1181"/><glyph d="M438 92h279v-92h-686v92h301v1256l-293 -82l-14 84l307 84h106v-1342z" glyph-name="one.case" horiz-adv-x="788"/><glyph d="M213 145v-53h686v-92h-797v145q0 127 44 207t135 156l403 338q104 86 104 241.5t-79.5 214t-247.5 58.5q-131 0 -309 -29l-9 92q172 31 312 31q250 0 347 -93t97 -274q0 -190 -139 -309l-426 -364q-121 -105 -121 -269z" glyph-name="two.case" horiz-adv-x="1021"/><glyph d="M688 737q100 -43 140 -126t40 -214q0 -244 -108.5 -330.5t-360.5 -86.5q-209 0 -317 49l8 96q102 -51 307 -51q217 0 289 74.5t72 267.5q0 166 -72 225t-254 59h-192v93h192q170 0 229.5 57t59.5 201q0 190 -63.5 249.5t-245.5 59.5q-193 0 -301 -47l-9 96q104 45 299 45 q139 0 226.5 -23.5t131.5 -74.5t58 -113.5t14 -163.5q0 -248 -143 -321v-21z" glyph-name="three.case" horiz-adv-x="1017"/><glyph d="M1004 494v-93h-211v-401h-107v401h-614v166l460 867h117l-471 -889v-51h508v514h107v-514h211z" glyph-name="four.case" horiz-adv-x="1064"/><glyph d="M356 846q279 0 379.5 -95.5t100.5 -318.5q0 -262 -103.5 -357t-341.5 -95q-199 0 -299 47l8 96q98 -49 287 -49q197 0 267.5 75.5t70.5 262.5q0 199 -77 270.5t-269 71.5h-229l22 680h608v-93h-497l-19 -495h92z" glyph-name="five.case" horiz-adv-x="968"/><glyph d="M608 874q199 0 276 -112.5t77 -325.5q0 -258 -104.5 -357t-305.5 -99q-240 0 -332 113.5t-92 334.5q0 276 188 608q115 201 293 398h140q-131 -143 -201 -233.5t-139 -211.5q-55 -100 -84 -168h24q98 53 260 53zM547 74q176 0 239.5 83t63.5 287q0 195 -66.5 265.5 t-232.5 70.5q-137 0 -206 -43t-93 -141q-14 -80 -14 -168q0 -207 68.5 -280.5t240.5 -73.5z" glyph-name="six.case" horiz-adv-x="1073"/><glyph d="M51 1434h729v-93h-729v93zM674 1286v53h106v-59l-549 -1280h-112z" glyph-name="seven.case" horiz-adv-x="841"/><glyph d="M854 739q182 -74 182 -333q0 -242 -111.5 -334t-330.5 -92q-252 0 -349.5 108.5t-97.5 317.5q0 260 183 335v13q-147 72 -148 313q0 221 100.5 304t311.5 83q233 0 320 -96t87 -301q0 -236 -147 -305v-13zM594 1360q-182 0 -246.5 -62.5t-64.5 -218.5q0 -168 69.5 -227 t241.5 -59q180 0 243.5 64.5t63.5 221.5q0 164 -67.5 222.5t-239.5 58.5zM594 74q195 0 263.5 67.5t68.5 237.5q0 186 -74 253.5t-258 67.5q-197 0 -266.5 -71.5t-69.5 -249.5t75 -241.5t261 -63.5z" glyph-name="eight.case" horiz-adv-x="1185"/><glyph d="M522 1454q240 0 332 -113.5t92 -334.5q0 -289 -188 -611q-121 -207 -295 -395h-137q131 143 200.5 233.5t139.5 210.5q55 100 84 168h-25q-96 -53 -260 -53q-199 0 -275.5 111.5t-76.5 326.5q0 258 104 357.5t305 99.5zM223 987q0 -195 66.5 -264.5t232.5 -69.5 q137 0 207 44t92 143q14 78 15 166q0 207 -69 280.5t-241 73.5q-176 0 -239.5 -83t-63.5 -290z" glyph-name="nine.case" horiz-adv-x="1073"/><glyph d="M592 1454q248 0 341 -180t93 -559q0 -217 -27.5 -362.5t-86 -226.5t-135.5 -113.5t-185 -32.5q-248 0 -342 179t-94 556q0 289 53 454.5t144.5 225t238.5 59.5zM266 715q0 -403 88 -535l432 1120q-68 59 -194 60q-190 0 -258 -143.5t-68 -501.5zM592 74q188 0 255.5 142 t67.5 499q0 354 -63 493l-424 -1099q64 -35 164 -35z" glyph-name="zero.case.zero" horiz-adv-x="1181"/></font>
</defs>
</svg>
