<?xml version="1.0" standalone="no"?>
<!DOCTYPE svg PUBLIC "-//W3C//DTD SVG 1.1//EN" "http://www.w3.org/Graphics/SVG/1.1/DTD/svg11.dtd">
<svg xmlns="http://www.w3.org/2000/svg"><metadata>This SVG WebFont was generated by YouWorkForThem.
Copyright Â© 2017 by Jonathan Hill. All rights reserved.</metadata><defs><font horiz-adv-x="0" id="ywftsvg"><font-face ascent="1604" bbox="-991 -561 2879 2484" cap-height="1434" descent="-444" font-family="" font-stretch="normal" font-weight="400" panose-1="0 0 5 0 0 0 0 0 0 0" underline-position="0" underline-thickness="0" unicode-range="U+0020-277E" units-per-em="2048" x-height="1126"/><missing-glyph d="M205 61v1229h819v-1229h-819zM348 205h533v942h-533v-942z" horiz-adv-x="1228"/><glyph d="M1235 1425q-96 0 -139 -52t-68 -197l-8 -50h252l-23 -120h-252l-176 -1006h-157l176 1006h-396l-176 -1006h-157l176 1006h-201l23 120h200l10 64q37 209 112 283.5t257 74.5q74 0 135 -16l-24 -121q-49 14 -117 14q-96 0 -139 -52t-68 -197l-8 -50h395l10 64 q37 209 112 283.5t257 74.5q74 0 135 -16l-22 -121q-49 14 -119 14z" glyph-name="f_f.liga" horiz-adv-x="1191" unicode="ff"/><glyph d="M1575 1126l-199 -1126h-157l178 1006h-400l-176 -1006h-157l176 1006h-396l-176 -1006h-157l176 1006h-201l23 120h200l10 64q37 209 112 283.5t257 74.5q74 0 135 -16l-24 -121q-49 14 -117 14q-96 0 -139 -52t-68 -197l-8 -50h395l10 64q37 209 112 283.5t257 74.5 q74 0 135 -16l-22 -121q-49 14 -119 14q-96 0 -139 -52t-68 -197l-8 -50h555zM1477 1544h184l-33 -182h-182z" glyph-name="f_f_i.liga" horiz-adv-x="1642" unicode="ffi"/><glyph d="M1411 178q0 -45 18.5 -60.5t65.5 -15.5q53 0 111 13v-125q-49 -10 -121 -10q-125 0 -177.5 41.5t-52.5 142.5q0 55 13 129l125 713h-396l-176 -1006h-157l176 1006h-396l-176 -1006h-157l176 1006h-201l23 120h200l10 64q37 209 112 283.5t257 74.5q74 0 135 -16 l-24 -121q-49 14 -117 14q-96 0 -139 -52t-68 -197l-8 -50h395l10 64q37 209 112 283.5t257 74.5q74 0 135 -16l-22 -121q-49 14 -119 14q-96 0 -139 -52t-68 -197l-8 -50h395l72 410h158l-224 -1257q-10 -72 -10 -101z" glyph-name="f_f_l.liga" horiz-adv-x="1751" unicode="ffl"/><glyph d="M1020 1126l-199 -1126h-157l178 1006h-398l-176 -1006h-157l176 1006h-201l23 120h200l10 64q37 209 112 283.5t257 74.5q74 0 135 -16l-24 -121q-49 14 -117 14q-96 0 -139 -52t-68 -197l-8 -50h553zM922 1544h184l-33 -182h-184z" glyph-name="f_i.liga" horiz-adv-x="1075" unicode="fi"/><glyph d="M858 178q0 -45 18.5 -60.5t63.5 -15.5q55 0 113 13l-2 -125q-47 -10 -119 -10q-125 0 -177.5 41.5t-52.5 142.5q0 55 13 129l125 713h-396l-176 -1006h-157l176 1006h-201l23 120h200l10 64q37 209 112 283.5t257 74.5q74 0 135 -16l-24 -121q-49 14 -117 14 q-96 0 -139 -52t-68 -197l-8 -50h395l72 410h158l-224 -1257q-10 -72 -10 -101z" glyph-name="f_l.liga" horiz-adv-x="1198" unicode="fl"/><glyph d="M205 61v1229h819v-1229h-819zM348 205h533v942h-533v-942z" glyph-name=".notdef" horiz-adv-x="1228"/><glyph glyph-name="glyph1"/><glyph glyph-name="glyph2" horiz-adv-x="681"/><glyph glyph-name="space" horiz-adv-x="483" unicode=" "/><glyph d="M238 442l143 992h178l-207 -992h-114zM125 0l33 184h182l-33 -184h-182z" glyph-name="exclam" horiz-adv-x="630" unicode="!"/><glyph d="M565 1536l-121 -543h-114l67 543h168zM870 1536l-120 -543h-115l67 543h168z" glyph-name="quotedbl" horiz-adv-x="923" unicode="&quot;"/><glyph d="M1151 948h-170l-145 -418h172l-47 -131h-173l-139 -399h-145l139 399h-260l-139 -399h-146l140 399h-177l48 131h176l145 418h-178l49 129h174l125 357h145l-124 -357h260l125 357h145l-125 -357h174zM690 530l146 418h-261l-145 -418h260z" glyph-name="numbersign" horiz-adv-x="1193" unicode="#"/><glyph d="M729 1315q-324 0 -323 -252q0 -78 49 -125l301 -272q117 -109 116 -263q0 -162 -94 -271t-262 -140l-39 -219h-153l34 207q-150 4 -315 43l29 141q180 -45 315 -45q154 0 236 72.5t82 207.5q0 86 -64 148l-311 284q-94 88 -94 228q0 166 98 267t282 122l39 213h156 l-37 -207q125 -8 248 -29l-27 -137q-168 27 -266 27z" glyph-name="dollar" horiz-adv-x="1030" unicode="$"/><glyph d="M207 -20l1130 1474h154l-1131 -1474h-153zM426 606q-123 0 -176 61.5t-53 182.5q0 115 35.5 265.5t91.5 230.5q70 104 219 104q123 0 176 -60.5t53 -181.5q0 -115 -36 -266t-91 -233q-72 -103 -219 -103zM426 731q72 0 106 49q39 55 70 199.5t31 234.5q0 63 -22.5 87 t-69.5 24q-74 0 -107 -49q-39 -55 -69.5 -199.5t-30.5 -232.5q0 -63 22.5 -88t69.5 -25zM1163 -12q-123 0 -176 61.5t-53 181.5q0 113 36 263.5t91 232.5q72 104 221 104q123 0 176 -60t53 -181q0 -115 -35.5 -266.5t-93.5 -233.5q-67 -102 -219 -102zM1165 113q72 0 107 49 q39 55 69.5 199.5t30.5 234.5q0 63 -22.5 88t-69.5 25q-72 0 -106 -52q-39 -53 -70 -197.5t-31 -234.5q0 -63 22.5 -87.5t69.5 -24.5z" glyph-name="percent" horiz-adv-x="1648" unicode="%"/><glyph d="M1350 879l-336 -531l268 -348h-217l-147 197l-21 -31q-72 -113 -163 -149.5t-228 -36.5q-217 0 -307 64.5t-90 203.5q0 164 57 264q29 63 98 117l217 151l-69 92q-68 86 -68 205q0 147 70 244q92 133 346 133q178 0 251.5 -54t73.5 -161q0 -221 -165 -338l-218 -149 l213 -277l269 404h166zM557 1249q-47 -68 -47 -186q0 -66 31 -102l90 -119l172 151q113 96 112 219q0 59 -36.5 81t-122.5 22q-152 0 -199 -66zM756 238l61 92l-262 352l-184 -162q-33 -31 -54 -74q-39 -74 -38 -184q0 -82 48 -112.5t165 -30.5q113 0 167 26.5t97 92.5z" glyph-name="ampersand" horiz-adv-x="1433" unicode="&amp;"/><glyph d="M565 1536l-121 -543h-114l67 543h168z" glyph-name="quotesingle" horiz-adv-x="618" unicode="'"/><glyph d="M94 227q0 184 48 443.5t116 433.5q90 236 219 355.5t309 164.5l-16 -139q-127 -45 -216 -154.5t-153 -298.5q-53 -162 -98 -422t-45 -417q0 -176 49 -271.5t154 -138.5l-12 -129q-188 51 -271.5 195.5t-83.5 377.5z" glyph-name="parenleft" horiz-adv-x="649" unicode="("/><glyph d="M584 1049q0 -184 -49.5 -443.5t-116.5 -433.5q-90 -233 -219 -353t-310 -165l17 139q248 88 368 453q53 162 98.5 422t45.5 417q0 176 -49.5 271.5t-153.5 138.5l14 129q355 -98 355 -575z" glyph-name="parenright" horiz-adv-x="649" unicode=")"/><glyph d="M1083 1165l-354 -90l174 -272l-137 -90l-141 293l-242 -293l-109 90l267 272l-324 90l72 146l307 -125l45 350h152l-78 -350l346 125z" glyph-name="asterisk" horiz-adv-x="1091" unicode="*"/><glyph d="M1079 643l-24 -137h-371l-66 -371h-135l66 371h-375l25 137h372l66 373h137l-65 -373h370z" glyph-name="plus" horiz-adv-x="1251" unicode="+"/><glyph d="M178 209h195l-37 -209l-148 -334h-106l145 334h-86z" glyph-name="comma" horiz-adv-x="673" unicode=","/><glyph d="M197 702h510l-25 -137h-510z" glyph-name="hyphen" horiz-adv-x="851" unicode="-"/><glyph d="M141 0l37 209h195l-37 -209h-195z" glyph-name="period" horiz-adv-x="673" unicode="."/><glyph d="M-117 -102l836 1638h153l-835 -1638h-154z" glyph-name="slash" horiz-adv-x="698" unicode="/"/><glyph d="M524 -20q-205 0 -294 102t-89 307q0 199 61.5 455t159.5 393q127 176 381 176q205 0 292 -100.5t87 -304.5q0 -199 -59 -456t-158 -392q-125 -180 -381 -180zM520 119q168 0 248 117q80 111 135 365.5t55 426.5q0 137 -50 191.5t-160 54.5q-164 0 -244 -107 q-84 -109 -140.5 -365.5t-56.5 -432.5q0 -139 50 -194.5t163 -55.5z" glyph-name="zero" horiz-adv-x="1216" unicode="0"/><glyph d="M426 135h279l-25 -135h-743l24 135h301l199 1131l-303 -78v121l325 84h164z" glyph-name="one" horiz-adv-x="845" unicode="1"/><glyph d="M387 449q-90 -63 -136 -133t-61 -181h652l-25 -135h-823l29 166q25 141 89 230t193 182l406 284q61 43 95 111.5t34 140.5q0 92 -55.5 126t-176.5 34q-127 0 -319 -31l2 143q178 27 317 27q203 0 302.5 -70.5t99.5 -222.5q0 -225 -197 -366z" glyph-name="two" horiz-adv-x="1030" unicode="2"/><glyph d="M733 713q141 -57 141 -230q0 -82 -25.5 -177t-70.5 -161q-61 -92 -171.5 -128.5t-284.5 -36.5q-211 0 -336 51l28 135q113 -47 303 -47q246 0 316 102q35 51 56.5 137t21.5 150q0 88 -57.5 118.5t-202.5 30.5h-187l25 136h176q197 0 252 84q31 45 49 121.5t18 136.5 q0 84 -49 111.5t-176 27.5q-193 0 -328 -47l5 145q113 41 305 41q227 0 321 -64.5t94 -201.5q0 -180 -88 -313q-45 -70 -133 -105z" glyph-name="three" horiz-adv-x="1040" unicode="3"/><glyph d="M1034 502l-22 -137h-205l-64 -365h-165l63 365h-606l37 202l594 826h174l-609 -846l-6 -45h441l86 485h166l-87 -485h203z" glyph-name="four" horiz-adv-x="1099" unicode="4"/><glyph d="M973 1257h-500l-86 -411h84q227 0 322.5 -73t95.5 -224q0 -96 -31 -211t-82 -191q-63 -92 -170.5 -129.5t-275.5 -37.5q-199 0 -320 51l29 133q102 -45 283 -45q244 0 315 104q37 55 59.5 149.5t22.5 166.5q0 100 -57.5 135t-206.5 35h-267l146 684h661z" glyph-name="five" horiz-adv-x="1024" unicode="5"/><glyph d="M655 850q170 0 250 -69.5t80 -223.5q0 -109 -32.5 -230.5t-94.5 -199.5q-113 -147 -397 -147q-211 0 -299 77.5t-88 233.5q0 340 303 727q160 201 360 375h197q-244 -219 -418 -443q-53 -63 -102 -141h14q94 41 227 41zM733 223q37 57 60.5 158.5t23.5 175.5 q0 88 -48 121t-165 33q-199 0 -270 -93q-43 -55 -67.5 -153t-24.5 -176q0 -98 50 -134t169 -36q202 0 272 104z" glyph-name="six" horiz-adv-x="1093" unicode="6"/><glyph d="M195 1393h774l-33 -189l-756 -1204h-170l762 1212l8 45h-608z" glyph-name="seven" horiz-adv-x="878" unicode="7"/><glyph d="M920 715q145 -61 145 -244q0 -115 -48 -231.5t-138 -180.5q-115 -80 -373 -79q-211 0 -309.5 72.5t-98.5 226.5q0 117 41 227t125 170q45 33 98 47l3 16q-111 57 -111 213q0 109 43 218.5t127 168.5q102 74 340 74q188 0 284.5 -65.5t96.5 -219.5q0 -100 -37 -202.5 t-111 -159.5q-37 -27 -75 -41zM528 1229q-55 -37 -83.5 -125t-28.5 -164q0 -88 52 -117.5t177 -29.5q170 0 223 41q55 41 83 124.5t28 159.5q0 90 -51 122t-178 32q-159 0 -222 -43zM774 166q61 43 92 139t31 182q0 100 -57.5 134t-198.5 34q-182 0 -248 -47 q-63 -45 -93 -137t-30 -180q0 -102 56.5 -137t199.5 -35q180 0 248 47z" glyph-name="eight" horiz-adv-x="1230" unicode="8"/><glyph d="M678 1413q213 0 301 -78t88 -233q0 -340 -303 -727q-160 -201 -361 -375h-196q244 219 418 442q43 55 102 142h-14q-94 -41 -228 -41q-172 0 -250.5 69.5t-78.5 223.5q0 109 32.5 230.5t94.5 199.5q112 147 395 147zM807 774q41 55 65.5 153.5t24.5 176.5q0 98 -50 134 t-169 36q-203 0 -270 -105q-37 -57 -61.5 -159.5t-24.5 -173.5q0 -88 49 -121t166 -33q198 0 270 92z" glyph-name="nine" horiz-adv-x="1093" unicode="9"/><glyph d="M301 918l37 208h194l-36 -208h-195zM141 0l37 209h195l-37 -209h-195z" glyph-name="colon" horiz-adv-x="673" unicode=":"/><glyph d="M344 1126h195l-37 -208h-195zM141 0l37 209h195l-37 -209l-148 -334h-106l145 334h-86z" glyph-name="semicolon" horiz-adv-x="673" unicode=";"/><glyph d="M1104 883l-754 -289l-4 -27l649 -286l-24 -158l-781 360l33 195l907 362z" glyph-name="less" horiz-adv-x="1251" unicode="&lt;"/><glyph d="M221 688l23 135h856l-25 -135h-854zM158 332l24 135h856l-24 -135h-856z" glyph-name="equal" horiz-adv-x="1251" unicode="="/><glyph d="M287 1040l780 -362l-33 -195l-907 -360l25 158l753 286l6 27l-651 289z" glyph-name="greater" horiz-adv-x="1251" unicode=">"/><glyph d="M248 442l12 84q23 135 65 204t150 144l143 97q121 82 121 213q0 78 -47 104.5t-162 26.5q-90 0 -282 -27l-2 142q172 25 289 24q186 0 279 -62.5t93 -197.5q0 -201 -182 -326l-168 -114q-84 -57 -123 -106.5t-59 -143.5l-13 -62h-114zM135 0l33 184h184l-33 -184h-184z " glyph-name="question" horiz-adv-x="888" unicode="?"/><glyph d="M1055 1454q356 0 511.5 -152.5t155.5 -439.5q0 -178 -46 -396t-128 -335q-90 -131 -256 -131q-119 0 -252 78l4 100h-8q-74 -104 -239 -104q-293 0 -293 307q0 123 37 271.5t100 238.5q106 150 313 149q154 0 201 -92h10l17 92h155l-155 -878q57 -29 110 -29q76 0 125 70 q63 90 104.5 310t41.5 380q0 236 -119 336t-371 100q-389 0 -555 -237q-102 -145 -164.5 -400.5t-62.5 -458.5q0 -252 116.5 -354t364.5 -102q186 0 326 63l-4 -133q-143 -55 -324 -55q-344 0 -491.5 152.5t-147.5 443.5q0 217 67.5 476t182.5 427q115 166 283 234.5 t391 68.5zM827 190q111 0 167.5 53.5t76.5 170.5l53 299q4 23 4 63q0 84 -37.5 116t-117.5 32q-133 0 -195 -88q-49 -68 -82.5 -214.5t-33.5 -250.5q0 -100 39.5 -140.5t125.5 -40.5z" glyph-name="at" horiz-adv-x="1837" unicode="@"/><glyph d="M889 0l-37 401h-539l-178 -401h-176l662 1434h286l154 -1434h-172zM375 539h465l-68 759h-59z" glyph-name="A" horiz-adv-x="1218" unicode="A"/><glyph d="M895 737q160 -59 160 -235q0 -119 -41 -227.5t-109 -165.5q-121 -109 -420 -109h-370l252 1434h376q395 0 396 -260q0 -207 -115 -332q-49 -49 -125 -84zM510 1307l-86 -498h154q236 0 311 90q35 41 57.5 113.5t22.5 142.5q0 84 -55.5 118t-198.5 34h-205zM788 211 q45 43 72 122t27 167q0 100 -63.5 141t-219.5 41h-205l-96 -555h195q208 0 290 84z" glyph-name="B" horiz-adv-x="1220" unicode="B"/><glyph d="M596 -20q-231 0 -341 108.5t-110 335.5q0 262 80 515t189 364q152 152 420 151q147 0 247 -43l-28 -135q-80 39 -219 39q-205 0 -310 -119q-82 -98 -146.5 -322.5t-64.5 -441.5q0 -170 66.5 -241.5t228.5 -71.5q139 0 246 47l8 -141q-98 -45 -266 -45z" glyph-name="C" horiz-adv-x="1048" unicode="C"/><glyph d="M786 1434q229 0 339 -116t110 -355q0 -217 -68.5 -442.5t-171.5 -346.5q-150 -174 -448 -174h-432l252 1434h419zM868 258q82 106 142.5 316t60.5 393q0 180 -70.5 262t-224.5 82h-266l-207 -1188h256q200 0 309 135z" glyph-name="D" horiz-adv-x="1323" unicode="D"/><glyph d="M1042 1298h-534l-84 -487h502l-25 -137h-502l-94 -539h557l-24 -135h-723l252 1434h698z" glyph-name="E" horiz-adv-x="1044" unicode="E"/><glyph d="M1016 1298h-508l-92 -528h469l-23 -137h-471l-110 -633h-166l252 1434h671z" glyph-name="F" horiz-adv-x="983" unicode="F"/><glyph d="M854 1315q-211 0 -317 -107q-88 -90 -157 -330.5t-69 -451.5q0 -168 57.5 -238.5t192.5 -70.5q158 0 242 68.5t110 220.5l43 256h-235l24 135h394l-142 -799l-125 -12l5 135h-11q-115 -141 -334 -141q-385 0 -385 448q0 276 82 534.5t203 360.5q158 131 430 131 q184 0 314 -43l-29 -141q-127 45 -293 45z" glyph-name="G" horiz-adv-x="1247" unicode="G"/><glyph d="M1143 1434h166l-252 -1434h-166l119 674h-611l-118 -674h-166l252 1434h165l-108 -623h610z" glyph-name="H" horiz-adv-x="1368" unicode="H"/><glyph d="M532 1434l-251 -1434h-166l252 1434h165z" glyph-name="I" horiz-adv-x="591" unicode="I"/><glyph d="M80 -20q-86 0 -150 18l25 135q49 -14 121 -14q82 0 123 44t61 161l195 1110h166l-197 -1123q-33 -182 -104.5 -256.5t-239.5 -74.5z" glyph-name="J" horiz-adv-x="673" unicode="J"/><glyph d="M1245 1434l-614 -691l391 -743h-184l-346 674h-93l-118 -674h-166l252 1434h165l-108 -623h88l539 623h194z" glyph-name="K" horiz-adv-x="1155" unicode="K"/><glyph d="M305 135h465l-25 -135h-630l252 1434h165z" glyph-name="L" horiz-adv-x="911" unicode="L"/><glyph d="M1559 1434l-252 -1434h-166l227 1298h-18l-457 -964h-244l-117 964h-24l-227 -1298h-166l252 1434h299l116 -965h21l459 965h297z" glyph-name="M" horiz-adv-x="1617" unicode="M"/><glyph d="M1159 1434h166l-252 -1434h-307l-234 1298h-24l-227 -1298h-166l252 1434h309l231 -1299h25z" glyph-name="N" horiz-adv-x="1384" unicode="N"/><glyph d="M602 -20q-240 0 -347.5 111.5t-107.5 361.5q0 246 86 505t205 373q131 123 389 123q240 0 347.5 -110.5t107.5 -356.5q0 -240 -83 -499t-200 -375q-133 -133 -397 -133zM604 119q213 0 305 121q80 102 142.5 336.5t62.5 427.5q0 170 -65.5 240.5t-223.5 70.5 q-199 0 -290 -105q-86 -94 -153 -332.5t-67 -441.5q0 -174 65.5 -245.5t223.5 -71.5z" glyph-name="O" horiz-adv-x="1372" unicode="O"/><glyph d="M690 1434q227 0 326.5 -74t99.5 -242q0 -127 -50 -246.5t-128 -187.5q-125 -111 -389 -111h-168l-100 -573h-166l252 1434h323zM821 776q53 51 89 146.5t36 191.5q0 109 -59.5 153t-208.5 44h-168l-107 -615h156q178 0 262 80z" glyph-name="P" horiz-adv-x="1120" unicode="P"/><glyph d="M670 -18l-2 -7q-12 -78 -13 -114q0 -51 23.5 -72.5t83.5 -21.5q63 0 153 28v-127q-96 -25 -167 -24q-254 0 -254 204q0 45 14 136q-188 20 -274.5 132.5t-86.5 336.5q0 246 86 505t205 373q131 123 389 123q240 0 347.5 -110.5t107.5 -356.5q0 -240 -83 -499 t-199.5 -375.5t-329.5 -130.5zM315 436q0 -174 65.5 -245.5t223.5 -71.5q213 0 305 121q80 102 142.5 336.5t62.5 427.5q0 170 -65.5 240.5t-223.5 70.5q-199 0 -290 -105q-86 -94 -153 -332.5t-67 -441.5z" glyph-name="Q" horiz-adv-x="1372" unicode="Q"/><glyph d="M922 692q-53 -37 -140 -59l271 -633h-185l-241 610q-29 -2 -92 -2h-148l-106 -608h-166l252 1434h342q219 0 315 -75t96 -231q0 -123 -51 -248t-147 -188zM410 733h135q199 0 280 68q61 49 93 143t32 178q0 106 -59.5 147.5t-190.5 41.5h-190z" glyph-name="R" horiz-adv-x="1200" unicode="R"/><glyph d="M350 -20q-162 0 -342 43l29 141q180 -45 315 -45q154 0 236 72.5t82 207.5q0 86 -64 148l-311 284q-94 88 -94 228q0 188 126 291.5t361 103.5q135 0 299 -29l-26 -137q-168 27 -267 27q-324 0 -323 -252q0 -78 49 -125l301 -272q117 -109 117 -263q0 -195 -131.5 -309 t-356.5 -114z" glyph-name="S" horiz-adv-x="976" unicode="S"/><glyph d="M1020 1434l-25 -136h-329l-228 -1298h-166l228 1298h-330l25 136h825z" glyph-name="T" horiz-adv-x="905" unicode="T"/><glyph d="M584 -18q-227 0 -321.5 74.5t-94.5 244.5q0 86 22 215l160 920h166l-166 -947q-18 -121 -18 -172q0 -113 57 -154.5t195 -41.5q174 0 252.5 81t113.5 292l164 942h166l-166 -953q-51 -293 -169.5 -397t-360.5 -104z" glyph-name="U" horiz-adv-x="1323" unicode="U"/><glyph d="M1081 1434h176l-641 -1434h-264l-135 1434h170l105 -1299h28z" glyph-name="V" horiz-adv-x="1161" unicode="V"/><glyph d="M1706 1434h174l-518 -1434h-281l-28 1298h-39l-488 -1298h-280l-10 1434h170l-9 -1299h43l482 1299h268l24 -1299h43z" glyph-name="W" horiz-adv-x="1808" unicode="W"/><glyph d="M1192 1434l-481 -695l252 -739h-177l-196 633h-33l-418 -633h-186l520 748l-235 686h180l176 -574h35l379 574h184z" glyph-name="X" horiz-adv-x="1118" unicode="X"/><glyph d="M1255 1434l-606 -869l-98 -565h-166l100 575l-290 859h178l213 -684h26l457 684h186z" glyph-name="Y" horiz-adv-x="1138" unicode="Y"/><glyph d="M301 1434h768l-22 -136l-13 -65l-850 -1057l-8 -41h649l-24 -135h-813l24 135l13 70l849 1057l7 36h-605z" glyph-name="Z" horiz-adv-x="1013" unicode="Z"/><glyph d="M782 1458h-254l-288 -1651h254l-25 -135h-420l338 1921h420z" glyph-name="bracketleft" horiz-adv-x="671" unicode="["/><glyph d="M582 -102h-150l-258 1638h150z" glyph-name="backslash" horiz-adv-x="698" unicode="\"/><glyph d="M647 1593l-338 -1921h-418l25 135h254l289 1651h-254l24 135h418z" glyph-name="bracketright" horiz-adv-x="671" unicode="]"/><glyph d="M788 567l-116 781h-23l-393 -781h-156l480 906h200l158 -906h-150z" glyph-name="asciicircum" horiz-adv-x="1038" unicode="^"/><glyph d="M115 -150h977l-23 -120h-977z" glyph-name="underscore" horiz-adv-x="1456" unicode="_"/><glyph d="M436 1296l-184 396h162l145 -396h-123z" glyph-name="grave" horiz-adv-x="495" unicode="`"/><glyph d="M600 1147q315 0 315 -266q0 -55 -12 -123l-133 -760l-127 -12l6 137h-12q-98 -143 -305 -143q-299 0 -299 260q0 92 34.5 178t94.5 139q96 88 278 88h287l23 125q8 47 8 94q0 86 -44 123t-149 37q-98 0 -305 -45l-10 123q223 45 350 45zM362 102q139 0 218 74t106 230 l21 116h-271q-106 0 -162 -55q-35 -35 -58 -99.5t-23 -127.5q0 -72 39.5 -105t129.5 -33z" glyph-name="a" horiz-adv-x="1026" unicode="a"/><glyph d="M692 1147q184 0 270.5 -93t86.5 -294q0 -176 -55.5 -361.5t-137.5 -279.5q-117 -139 -338 -139q-209 0 -260 139h-20l-41 -133l-125 12l270 1538h158l-86 -498h10q86 109 268 109zM739 201q59 80 107.5 257t48.5 324q0 131 -50 186.5t-169 55.5q-139 0 -215 -70.5 t-103 -222.5l-61 -352q-10 -61 -10 -100q0 -94 49 -135.5t160 -41.5q169 1 243 99z" glyph-name="b" horiz-adv-x="1144" unicode="b"/><glyph d="M496 -20q-211 0 -306.5 86t-95.5 274q0 211 69.5 413.5t172.5 293.5q109 100 344 100q113 0 197 -29l-25 -119q-74 25 -178 25q-168 0 -242 -74q-72 -72 -127 -257t-55 -349q0 -135 53 -188.5t186 -53.5q121 0 211 29l-2 -127q-73 -24 -202 -24z" glyph-name="c" horiz-adv-x="897" unicode="c"/><glyph d="M989 1536h158l-273 -1538l-126 -12l8 155q-92 -162 -314 -161q-176 0 -261 90t-85 274q0 207 65.5 405.5t166.5 290.5q113 106 313 107q211 0 256 -141zM467 102q143 0 219 70t105 225l20 121h-39l10 57h-10l10 64h49l19 102q10 55 10 101q0 96 -48 139t-159 43 q-158 0 -227 -82q-68 -74 -121 -258t-53 -344q0 -131 48 -184.5t167 -53.5z" glyph-name="d" horiz-adv-x="1144" unicode="d"/><glyph d="M657 1147q184 0 272.5 -85t88.5 -263q0 -102 -29 -248l-8 -43h-719q-10 -78 -10 -135q0 -145 58.5 -208t195.5 -63q127 0 358 66l8 -121q-225 -68 -387 -67q-199 0 -295 100t-96 307q0 180 61.5 362.5t155.5 274.5q121 123 346 123zM285 629h559q20 129 20 188 q0 111 -48 159t-161 48q-158 0 -237 -92q-82 -92 -133 -303z" glyph-name="e" horiz-adv-x="1095" unicode="e"/><glyph d="M682 1425q-96 0 -139 -52t-68 -197l-8 -50h250l-23 -120h-250l-176 -1006h-157l176 1006h-201l23 120h200l10 64q37 209 112 283.5t257 74.5q74 0 135 -16l-24 -121q-49 14 -117 14z" glyph-name="f" horiz-adv-x="638" unicode="f"/><glyph d="M1147 1126l-12 -92l-183 -33q53 -53 54 -159q0 -94 -36 -195.5t-91 -159.5q-102 -109 -340 -108q-127 0 -213 29l-41 -33q-57 -45 -58 -82q0 -63 107 -64h180q231 0 337.5 -57t106.5 -184q0 -197 -130 -287t-414 -90q-236 0 -341.5 52t-105.5 167q0 227 205 293l2 14 q-88 43 -88 135q0 96 111 174l32 23q-66 66 -65 197q0 115 45 226.5t115 170.5q98 84 317 84q115 0 184 -21h322zM768 580q33 43 57.5 129t24.5 161q0 86 -45 120t-162 34q-160 0 -219 -59q-41 -41 -70.5 -130.5t-29.5 -172.5q0 -90 45 -125t163 -35q179 0 236 78zM498 104 q-195 0 -283 -61t-88 -197q0 -63 66.5 -87.5t234.5 -24.5q199 0 285 56t86 190q0 72 -63.5 98t-237.5 26z" glyph-name="g" horiz-adv-x="1114" unicode="g"/><glyph d="M743 1147q162 0 233 -59.5t71 -196.5q0 -70 -19 -174l-127 -717h-156l127 725q14 72 15 131q0 92 -45 130t-150 38q-150 0 -229.5 -73.5t-108.5 -235.5l-125 -715h-157l270 1536h158l-92 -520h14q98 131 321 131z" glyph-name="h" horiz-adv-x="1157" unicode="h"/><glyph d="M332 1544h182l-33 -182h-182zM428 1126l-199 -1126h-157l198 1126h158z" glyph-name="i" horiz-adv-x="495" unicode="i"/><glyph d="M299 1362l33 182h184l-33 -182h-184zM-119 -389q-63 0 -125 14l25 121q53 -12 108 -12q82 0 118 46t59 175l204 1171h156l-207 -1183q-37 -195 -103.5 -262.5t-234.5 -69.5z" glyph-name="j" horiz-adv-x="507" unicode="j"/><glyph d="M1073 1126l-541 -508l367 -618h-174l-324 559h-73l-99 -559h-157l270 1536h158l-152 -856h70l467 446h188z" glyph-name="k" horiz-adv-x="999" unicode="k"/><glyph d="M344 -20q-131 0 -185.5 40.5t-54.5 143.5q0 55 15 129l217 1243h158l-222 -1257q-12 -68 -12 -101q0 -43 17.5 -59.5t64.5 -16.5q63 0 113 13v-125q-56 -10 -111 -10z" glyph-name="l" horiz-adv-x="600" unicode="l"/><glyph d="M1360 1147q152 0 222.5 -62.5t70.5 -197.5q0 -63 -19 -170l-127 -717h-157l129 725q14 96 14 137q0 86 -42 124t-136 38q-137 0 -214 -73.5t-104 -229.5l-129 -721h-157l129 725q14 86 14 137q0 88 -41 125t-139 37q-139 0 -215 -71.5t-105 -231.5l-125 -721h-157 l198 1128l129 13l-8 -146h12q94 152 318 152q240 0 280 -156h17q102 156 342 156z" glyph-name="m" horiz-adv-x="1763" unicode="m"/><glyph d="M735 1147q162 0 237 -62.5t75 -199.5q0 -63 -19 -168l-127 -717h-156l127 725q14 74 15 131q0 92 -45 130t-154 38q-150 0 -227.5 -71.5t-106.5 -237.5l-125 -715h-157l198 1128l129 13l-8 -144h15q53 80 129.5 115t199.5 35z" glyph-name="n" horiz-adv-x="1157" unicode="n"/><glyph d="M494 -20q-207 0 -302.5 88t-95.5 278q0 217 70 418t176 289q109 94 328 94q207 0 302 -88t95 -277q0 -203 -64.5 -401.5t-160.5 -290.5q-112 -110 -348 -110zM496 102q168 0 241 76q68 70 121 257.5t53 346.5q0 135 -54 188.5t-189 53.5q-160 0 -236 -70 q-70 -68 -125 -255t-55 -353q0 -135 53.5 -189.5t190.5 -54.5z" glyph-name="o" horiz-adv-x="1161" unicode="o"/><glyph d="M705 1147q184 0 265 -95.5t81 -275.5q0 -168 -54.5 -362.5t-152.5 -300.5q-119 -133 -338 -133q-184 0 -240 104h-22l-80 -453h-158l264 1497l129 13l-6 -131h15q92 137 297 137zM735 201q72 88 116 274.5t44 323.5q0 127 -51 176t-166 49q-135 0 -214 -66.5t-108 -232.5 l-59 -330q-10 -66 -10 -108q0 -104 52 -144.5t153 -40.5q167 1 243 99z" glyph-name="p" horiz-adv-x="1144" unicode="p"/><glyph d="M950 1141l125 -13l-264 -1497h-158l80 453h-12q-84 -104 -262 -104q-176 0 -268.5 87t-92.5 298q0 172 55.5 368.5t159.5 298.5q115 115 316 115q205 0 260 -137h20zM848 735q10 51 10 107q0 102 -52 142t-155 40q-160 0 -233 -90q-74 -86 -120 -276.5t-46 -329.5 q0 -123 50 -174.5t169 -51.5q131 0 210 65.5t110 233.5z" glyph-name="q" horiz-adv-x="1120" unicode="q"/><glyph d="M748 1147q20 0 49 -4l-33 -148q-35 20 -102 21q-252 0 -318 -361l-115 -655h-157l198 1128l129 13l-6 -154h15q109 160 340 160z" glyph-name="r" horiz-adv-x="712" unicode="r"/><glyph d="M279 -20q-109 0 -275 24l25 123q147 -25 243 -25q145 0 203 52q70 59 70 163q0 61 -51 107l-261 219q-80 66 -79 176q0 168 116 258q92 70 273 70q109 0 260 -27l-25 -123q-154 27 -237 27q-115 0 -166 -47q-61 -55 -62 -160q0 -49 45 -88l236 -197q111 -92 111 -213 q0 -154 -113 -253q-100 -86 -313 -86z" glyph-name="s" horiz-adv-x="837" unicode="s"/><glyph d="M446 1006l-127 -727q-10 -72 -10 -101q0 -45 18.5 -60.5t63.5 -15.5q57 0 111 13v-125q-45 -10 -117 -10q-125 0 -178 41.5t-53 142.5q0 55 12 129l125 713h-185l23 120h184l47 273h156l-47 -273h244l-23 -120h-244z" glyph-name="t" horiz-adv-x="696" unicode="t"/><glyph d="M922 1126h155l-198 -1128l-127 -12l6 145h-15q-96 -152 -329 -151q-162 0 -231.5 60t-69.5 193q0 57 18 177l127 716h158l-129 -725q-14 -94 -15 -135q0 -90 45 -127t146 -37q139 0 222 71t112 239z" glyph-name="u" horiz-adv-x="1148" unicode="u"/><glyph d="M887 1126h170l-537 -1126h-256l-137 1126h164l102 -1003h35z" glyph-name="v" horiz-adv-x="978" unicode="v"/><glyph d="M1571 1126h168l-484 -1126h-243l-90 1008h-13l-446 -1008h-244l-84 1126h162l57 -1007h27l434 1007h238l77 -1007h29z" glyph-name="w" horiz-adv-x="1669" unicode="w"/><glyph d="M1055 1126l-445 -540l283 -586h-178l-213 489h-21l-383 -489h-184l496 594l-250 532h174l182 -428h23l329 428h187z" glyph-name="x" horiz-adv-x="1007" unicode="x"/><glyph d="M891 1126h168l-596 -1228q-70 -147 -170 -217t-252 -70q-51 0 -113 10l27 119q35 -6 84 -6q104 0 174 46t125 165l31 63h-80v2l-21 -2l-139 1118h164l104 -995h29z" glyph-name="y" horiz-adv-x="983" unicode="y"/><glyph d="M203 1126h686l-23 -122l-10 -58l-700 -784l-6 -39h579l-20 -123h-736l21 123l10 57l701 787l6 37h-531z" glyph-name="z" horiz-adv-x="878" unicode="z"/><glyph d="M676 1604q94 0 151 -23l-22 -123q-49 20 -123 21q-70 0 -99.5 -38t-50.5 -149l-73 -422q-16 -96 -46 -148t-85 -73l-4 -16q61 -39 61 -133q0 -41 -10 -109l-76 -424q-12 -66 -12 -102q0 -41 17.5 -56.5t60.5 -15.5q76 0 141 27l-2 -131q-61 -20 -150 -21q-123 0 -175 43 t-52 142q0 55 12 129l78 426q8 43 8 81q0 47 -21.5 63.5t-74.5 16.5l25 138q68 0 97.5 35.5t47.5 138.5l76 424q31 172 91 235.5t210 63.5z" glyph-name="braceleft" horiz-adv-x="692" unicode="{"/><glyph d="M594 1653l-361 -2042h-145l361 2042h145z" glyph-name="bar" horiz-adv-x="657" unicode="|"/><glyph d="M494 782q0 -45 21.5 -61t74.5 -19l-23 -137q-70 0 -99.5 -35.5t-47.5 -138.5l-76 -424q-31 -172 -91 -235.5t-210 -63.5q-94 0 -152 25l25 121q47 -20 123 -21q68 0 98.5 39t48.5 148l74 421q16 98 47 149.5t86 74.5l2 14q-59 37 -59 133q0 57 10 109l74 424 q12 68 12 102q0 41 -17.5 56.5t-60.5 15.5q-76 0 -141 -27l2 133q55 18 152 19q123 0 174 -43t51 -142q0 -55 -12 -129l-78 -424q-8 -47 -8 -84z" glyph-name="braceright" horiz-adv-x="692" unicode="}"/><glyph d="M287 496l-97 36q16 102 96.5 177t180.5 75q82 0 147 -47l144 -92q39 -27 76 -27q98 0 159 160l97 -39q-20 -98 -96 -172.5t-179 -74.5q-70 0 -139 45l-144 94q-45 29 -81 28q-103 1 -164 -163z" glyph-name="asciitilde" horiz-adv-x="1251" unicode="~"/><glyph glyph-name="uni00A0" horiz-adv-x="483" unicode=" "/><glyph d="M313 1065h183l-31 -184h-184zM270 623h113l-141 -992h-179z" glyph-name="exclamdown" horiz-adv-x="630" unicode="¡"/><glyph d="M702 1024q-168 0 -241 -74q-72 -72 -127 -257t-55 -349q0 -135 53 -188.5t186 -53.5q121 0 211 29l-2 -127q-72 -25 -197 -24l-32 -191h-146l35 201q-137 25 -200.5 109.5t-63.5 240.5q0 211 69.5 413.5t172.5 293.5q78 72 227 94l35 196h145l-33 -190q94 -2 166 -29 l-24 -119q-75 25 -179 25z" glyph-name="cent" horiz-adv-x="946" unicode="¢"/><glyph d="M850 1315q-121 0 -179.5 -67.5t-88.5 -237.5q-12 -66 -25 -174h375l-23 -138h-374q-80 -406 -246 -557l-2 -6h684l-25 -135h-891l23 135q195 88 282 563h-182l25 138h182q18 119 31 192q41 240 139 333t307 93q111 0 271 -31l-31 -139q-162 31 -252 31z" glyph-name="sterling" horiz-adv-x="1148" unicode="£"/><glyph d="M727 682l-2 -14h328l-23 -121h-325l-25 -141h326l-21 -121h-328l-49 -285h-166l52 285h-326l22 121h324l25 141h-324l21 121h325l6 34l-307 732h178l228 -590h20l447 590h186z" glyph-name="yen" horiz-adv-x="1257" unicode="¥"/><glyph d="M311 866l138 787h145l-137 -787h-146zM88 -389l139 786h146l-140 -786h-145z" glyph-name="brokenbar" horiz-adv-x="657" unicode="¦"/><glyph d="M727 1315q-188 0 -246 -82q-39 -61 -39 -141q0 -51 52 -95l284 -237q66 -53 94.5 -103.5t28.5 -115.5q0 -125 -70 -228q-37 -57 -104 -96l-2 -14q84 -78 84 -185q0 -133 -72 -239q-117 -168 -401 -168q-139 0 -338 41l27 139q201 -41 321 -41q182 0 244 94q49 70 49 170 q0 63 -64 113l-299 250q-96 76 -96 194q0 111 60 199q49 70 139 104l4 17l-14 10q-94 76 -95 189q0 127 62 215q109 150 401 149q115 0 287 -24l-29 -140q-153 25 -268 25zM731 537q0 61 -63 114l-156 129q-84 -16 -123 -71q-39 -57 -39 -138q0 -53 51 -98l205 -168 q45 20 76 62q49 70 49 170z" glyph-name="section" horiz-adv-x="1073" unicode="§"/><glyph d="M346 1544h180l-32 -180h-181zM772 1544h180l-32 -180h-181z" glyph-name="dieresis" horiz-adv-x="948" unicode="¨"/><glyph d="M811 -20q-295 0 -473 184t-178 473q0 338 232.5 577.5t576.5 239.5q295 0 473 -184.5t178 -472.5q0 -338 -233.5 -577.5t-575.5 -239.5zM825 86q289 0 479.5 207t190.5 495q0 250 -149.5 405t-393.5 155q-289 0 -479 -207t-190 -496q0 -250 149 -404.5t393 -154.5z M883 328q-139 0 -199.5 62.5t-60.5 184.5q0 102 30.5 226.5t81.5 195.5q80 113 250 113q86 0 139 -27l-18 -96q-35 23 -109 23q-113 0 -161 -68q-39 -55 -66 -173t-27 -197.5t34 -111.5t104 -32q63 0 125 31l8 -109q-55 -22 -131 -22z" glyph-name="copyright" horiz-adv-x="1726" unicode="©"/><glyph d="M565 1444q223 0 223 -191q0 -43 -8 -84l-92 -524l-92 -8l2 88h-6q-66 -92 -207 -92q-211 0 -211 196q0 123 74 196t209 73h196l15 84q6 39 6 67q0 57 -30 80t-95 23q-76 0 -219 -31l-8 90q151 33 243 33zM403 725q94 0 147.5 49t74.5 164l12 68h-186q-80 0 -120 -52.5 t-40 -126.5q0 -59 26.5 -80.5t85.5 -21.5z" glyph-name="ordfeminine" horiz-adv-x="837" unicode="ª"/><glyph d="M526 874l-348 -303l240 -297l-29 -174l-348 408l12 67l10 66l490 408zM991 1049l-26 -175l-349 -303l240 -297l-27 -174l-348 408l11 67l10 66z" glyph-name="guillemotleft" horiz-adv-x="1019" unicode="«"/><glyph d="M760 1444q197 0 315.5 -126t118.5 -317q0 -225 -156.5 -390t-384.5 -165q-197 0 -315.5 126t-118.5 319q0 225 157 389t384 164zM666 518q193 0 318.5 142.5t125.5 334.5q0 168 -99.5 272.5t-260.5 104.5q-193 0 -320 -142.5t-127 -332.5q0 -168 100.5 -273.5 t262.5 -105.5zM831 956q-23 -27 -69 -41l92 -219h-86l-86 213h-61l-37 -213h-80l90 508h121q162 0 162 -106q-1 -89 -46 -142zM770 1008q27 33 27 84q0 49 -82 49h-51l-31 -168h43q71 0 94 35z" glyph-name="registered" horiz-adv-x="1280" unicode="®"/><glyph d="M338 1509h561l-22 -120h-560z" glyph-name="macron" horiz-adv-x="901" unicode="¯"/><glyph d="M598 895q-131 0 -211 80t-80 203q0 145 105.5 244.5t255.5 99.5q131 0 210.5 -81t79.5 -204q0 -143 -105 -242.5t-255 -99.5zM612 1006q92 0 155.5 66.5t63.5 156.5q0 80 -48 131t-128 51q-92 0 -155.5 -66.5t-63.5 -158.5q0 -78 48 -129t128 -51z" glyph-name="degree" horiz-adv-x="1040" unicode="°"/><glyph d="M741 836h373l-24 -138h-373l-60 -331h-135l60 331h-373l24 138h371l60 331h137zM98 72l25 135h881l-25 -135h-881z" glyph-name="plusminus" horiz-adv-x="1251" unicode="±"/><glyph d="M360 938q-100 -70 -120 -180h401l-18 -107h-541l20 115q14 88 56.5 146.5t132.5 121.5l235 168q82 57 82 150q0 86 -123 86q-70 0 -215 -23l2 113q106 18 215 18q256 0 256 -194q0 -141 -125 -230z" glyph-name="uni00B2" horiz-adv-x="694" unicode="²"/><glyph d="M588 1100q82 -41 82 -148q0 -123 -62 -213q-72 -102 -295 -102q-143 0 -223 35l21 106q59 -35 188 -35q154 0 193 60q47 68 47 172q0 49 -32 64.5t-116 15.5h-129l19 106h120q111 0 142 45q39 59 39 150q0 47 -29 63.5t-104 16.5q-141 0 -205 -37l2 117q63 29 217 28 q135 0 196.5 -43t61.5 -135q0 -119 -53 -192q-27 -39 -78 -62z" glyph-name="uni00B3" horiz-adv-x="710" unicode="³"/><glyph d="M195 1296l286 396h168l-325 -396h-129z" glyph-name="acute" horiz-adv-x="495" unicode="´"/><glyph d="M1243 1434l-317 -1803h-148l295 1680h-162l-295 -1680h-147l160 906h-11q-231 0 -343.5 82.5t-112.5 267.5q0 98 26.5 206.5t75.5 176.5q121 164 502 164h477z" glyph-name="paragraph" horiz-adv-x="1345" unicode="¶"/><glyph d="M166 512l39 207h194l-39 -207h-194z" glyph-name="periodcentered" horiz-adv-x="544" unicode="·"/><glyph d="M158 -121q172 -10 172 -135q0 -109 -60 -168q-66 -68 -196 -68q-70 0 -137 27l16 94q53 -23 110 -22q70 0 103 33q35 33 35 96q0 47 -74 47h-109l109 280h117z" glyph-name="cedilla" horiz-adv-x="577" unicode="¸"/><glyph d="M420 758h174l-19 -107h-495l18 107h187l118 678l-184 -47v94l203 53h135z" glyph-name="uni00B9" horiz-adv-x="591" unicode="¹"/><glyph d="M522 633q-152 0 -217 65.5t-65 196.5q0 102 31.5 228t84.5 200q84 121 281 121q152 0 216.5 -65.5t64.5 -196.5q0 -102 -31 -227.5t-82 -198.5q-86 -123 -283 -123zM518 725q133 0 187 76q41 59 69.5 186t28.5 213q0 88 -38 120t-124 32q-133 0 -186 -76 q-41 -59 -70 -186t-29 -215.5t37 -119t125 -30.5z" glyph-name="ordmasculine" horiz-adv-x="989" unicode="º"/><glyph d="M535 573l-11 -65l-491 -408l28 174l349 304l-240 296l27 175l350 -408zM635 1049l350 -408l-10 -70l-12 -63l-492 -408l29 174l348 304l-240 296z" glyph-name="guillemotright" horiz-adv-x="1019" unicode="»"/><glyph d="M1161 1475h146l-863 -1516h-145zM481 557h-458l18 107h170l117 663l-170 -47v104l188 50h131l-135 -770h158zM1538 317l-20 -106h-107l-37 -211h-127l37 211h-362l26 143l334 523h129l-340 -545l-4 -15h236l51 287h127l-51 -287h108z" glyph-name="onequarter" horiz-adv-x="1611" unicode="¼"/><glyph d="M1161 1475h146l-863 -1516h-145zM481 557h-458l18 107h170l117 663l-170 -47v104l188 50h131l-135 -770h158zM1210 266q-76 -59 -90 -145l-2 -15h373l-18 -106h-512l22 125q14 76 48 127t104 104l243 181q80 61 80 157q0 53 -30.5 70.5t-100.5 17.5q-72 0 -186 -16v106 q109 18 198 19q137 0 196.5 -47t59.5 -142q0 -143 -122 -239z" glyph-name="onehalf" horiz-adv-x="1628" unicode="½"/><glyph d="M1159 1475h146l-863 -1516h-145zM528 643q-70 -98 -272 -98q-131 0 -211 35l18 102q63 -29 185 -29q125 0 168 62q47 72 47 166q0 51 -30 67.5t-101 16.5h-127l18 98h111q100 0 137 51q39 57 39 148q0 49 -25.5 65t-89.5 16q-102 0 -196 -32l2 110q82 27 196 27 q135 0 191.5 -42t56.5 -128q0 -123 -55 -201q-29 -37 -70 -55l-2 -18q76 -39 76 -136q0 -131 -66 -225zM1536 317l-20 -106h-107l-37 -211h-127l37 211h-362l26 143l334 523h129l-340 -545l-4 -15h235l52 287h127l-52 -287h109z" glyph-name="threequarters" horiz-adv-x="1609" unicode="¾"/><glyph d="M528 881l33 184h184l-32 -184h-185zM631 623l-13 -84q-20 -135 -62 -204t-150 -145l-146 -96q-119 -82 -119 -213q0 -78 47.5 -104.5t159.5 -26.5q88 0 285 27v-142q-172 -25 -289 -24q-373 0 -373 260q0 201 183 326l170 114q84 57 121.5 106.5t58.5 143.5l12 62h115z " glyph-name="questiondown" horiz-adv-x="888" unicode="¿"/><glyph d="M852 1604h-123l-184 395h162zM889 0l-37 401h-539l-178 -401h-176l662 1434h286l154 -1434h-172zM375 539h465l-68 759h-59z" glyph-name="Agrave" horiz-adv-x="1218" unicode="À"/><glyph d="M1184 1999l-326 -395h-129l287 395h168zM907 1434l154 -1434h-172l-37 401h-539l-178 -401h-176l662 1434h286zM375 539h465l-68 759h-59z" glyph-name="Aacute" horiz-adv-x="1218" unicode="Á"/><glyph d="M848 1886l-279 -291h-129l338 396h170l197 -396h-121zM907 1434l154 -1434h-172l-37 401h-539l-178 -401h-176l662 1434h286zM375 539h465l-68 759h-59z" glyph-name="Acircumflex" horiz-adv-x="1218" unicode="Â"/><glyph d="M1067 1874h100q-20 -109 -81.5 -176.5t-137.5 -67.5q-63 0 -117 45l-90 76q-23 16 -47 16q-72 0 -108 -122h-101q18 109 80 176t140 67q61 0 114 -43l92 -78q23 -18 45 -18q74 0 111 125zM907 1434l154 -1434h-172l-37 401h-539l-178 -401h-176l662 1434h286zM375 539 h465l-68 759h-59z" glyph-name="Atilde" horiz-adv-x="1218" unicode="Ã"/><glyph d="M717 1851l-33 -180h-180l33 180h180zM963 1851h180l-33 -180h-180zM907 1434l154 -1434h-172l-37 401h-539l-178 -401h-176l662 1434h286zM375 539h465l-68 759h-59z" glyph-name="Adieresis" horiz-adv-x="1218" unicode="Ä"/><glyph d="M811 1577q-123 0 -173 45t-50 133q0 111 47 174q61 84 215 84q123 0 172 -45t49 -133q0 -106 -45 -174q-59 -84 -215 -84zM723 1878q-27 -37 -27 -106q0 -55 28 -80t95 -25q86 0 117 47q27 37 27 107q0 53 -27 77.5t-94 24.5q-86 0 -119 -45zM907 1434l154 -1434h-172 l-37 401h-539l-178 -401h-176l662 1434h286zM375 539h465l-68 759h-59z" glyph-name="Aring" horiz-adv-x="1218" unicode="Å"/><glyph d="M1589 1298h-530l-84 -487h500l-25 -137h-500l-94 -539h555l-25 -135h-720l69 401h-416l-223 -401h-174l821 1434h871zM760 539l133 759h-72l-424 -759h363z" glyph-name="AE" horiz-adv-x="1593" unicode="Æ"/><glyph d="M834 1315q-205 0 -310 -119q-82 -98 -146.5 -322.5t-64.5 -441.5q0 -170 66.5 -241.5t228.5 -71.5q139 0 246 47l8 -141q-98 -45 -266 -45h-12l-47 -101q172 -10 172 -135q0 -109 -60 -168q-63 -68 -196 -68q-70 0 -138 27l17 94q53 -23 110 -22q70 0 103 33q35 33 35 96 q0 47 -74 47h-109l80 205q-332 51 -332 436q0 262 80 515t189 364q152 152 420 151q147 0 247 -43l-28 -135q-80 39 -219 39z" glyph-name="Ccedilla" horiz-adv-x="1048" unicode="Ç"/><glyph d="M803 1604h-123l-184 395h161zM1042 1298h-534l-84 -487h502l-25 -137h-502l-94 -539h557l-24 -135h-723l252 1434h698z" glyph-name="Egrave" horiz-adv-x="1044" unicode="È"/><glyph d="M1135 1999l-326 -395h-129l287 395h168zM1065 1434l-23 -136h-534l-84 -487h502l-25 -137h-502l-94 -539h557l-24 -135h-723l252 1434h698z" glyph-name="Eacute" horiz-adv-x="1044" unicode="É"/><glyph d="M799 1886l-279 -291h-129l338 396h170l197 -396h-121zM1065 1434l-23 -136h-534l-84 -487h502l-25 -137h-502l-94 -539h557l-24 -135h-723l252 1434h698z" glyph-name="Ecircumflex" horiz-adv-x="1044" unicode="Ê"/><glyph d="M668 1851l-33 -180h-180l32 180h181zM1094 1851l-33 -180h-180l32 180h181zM1065 1434l-23 -136h-534l-84 -487h502l-25 -137h-502l-94 -539h557l-24 -135h-723l252 1434h698z" glyph-name="Edieresis" horiz-adv-x="1044" unicode="Ë"/><glyph d="M414 1604l-185 395h162l146 -395h-123zM532 1434l-251 -1434h-166l252 1434h165z" glyph-name="Igrave" horiz-adv-x="591" unicode="Ì"/><glyph d="M414 1604l286 395h168l-325 -395h-129zM532 1434l-251 -1434h-166l252 1434h165z" glyph-name="Iacute" horiz-adv-x="591" unicode="Í"/><glyph d="M633 1991l196 -396h-120l-177 291l-278 -291h-129l338 396h170zM115 0l252 1434h165l-251 -1434h-166z" glyph-name="Icircumflex" horiz-adv-x="591" unicode="Î"/><glyph d="M221 1851h180l-32 -180h-181zM647 1851h180l-32 -180h-181zM532 1434l-251 -1434h-166l252 1434h165z" glyph-name="Idieresis" horiz-adv-x="591" unicode="Ï"/><glyph d="M786 1434q229 0 339 -116t110 -355q0 -217 -68.5 -442.5t-171.5 -346.5q-150 -174 -448 -174h-432l114 647h-166l25 137h164l115 650h419zM868 258q82 106 142.5 316t60.5 393q0 180 -70.5 262t-224.5 82h-266l-92 -527h348l-25 -137h-346l-92 -524h256q200 0 309 135z " glyph-name="Eth" horiz-adv-x="1323" unicode="Ð"/><glyph d="M774 1767q-72 0 -108 -122h-101q18 109 80 176t139 67q63 0 115 -43l92 -78q23 -18 45 -18q74 0 111 125h100q-20 -109 -81.5 -176.5t-137.5 -67.5q-63 0 -117 45l-90 76q-22 16 -47 16zM1159 1434h166l-252 -1434h-307l-234 1298h-24l-227 -1298h-166l252 1434h309 l231 -1299h25z" glyph-name="Ntilde" horiz-adv-x="1384" unicode="Ñ"/><glyph d="M805 1604l-184 395h161l146 -395h-123zM602 -20q-240 0 -347.5 111.5t-107.5 361.5q0 246 86 505t205 373q131 123 389 123q240 0 347.5 -110.5t107.5 -356.5q0 -240 -83 -499t-200 -375q-133 -133 -397 -133zM604 119q213 0 305 121q80 102 142.5 336.5t62.5 427.5 q0 170 -65.5 240.5t-223.5 70.5q-199 0 -290 -105q-86 -94 -153 -332.5t-67 -441.5q0 -174 65.5 -245.5t223.5 -71.5z" glyph-name="Ograve" horiz-adv-x="1372" unicode="Ò"/><glyph d="M805 1604l287 395h168l-326 -395h-129zM602 -20q-240 0 -347.5 111.5t-107.5 361.5q0 246 86 505t205 373q131 123 389 123q240 0 347.5 -110.5t107.5 -356.5q0 -240 -83 -499t-200 -375q-133 -133 -397 -133zM604 119q213 0 305 121q80 102 142.5 336.5t62.5 427.5 q0 170 -65.5 240.5t-223.5 70.5q-199 0 -290 -105q-86 -94 -153 -332.5t-67 -441.5q0 -174 65.5 -245.5t223.5 -71.5z" glyph-name="Oacute" horiz-adv-x="1372" unicode="Ó"/><glyph d="M924 1886l-279 -291h-129l338 396h170l197 -396h-121zM827 1454q240 0 347.5 -110.5t107.5 -356.5q0 -240 -83 -499t-200 -375q-133 -133 -397 -133q-240 0 -347.5 111.5t-107.5 361.5q0 246 86 505t205 373q131 123 389 123zM909 240q80 102 142.5 336.5t62.5 427.5 q0 170 -65.5 240.5t-223.5 70.5q-199 0 -290 -105q-86 -94 -153 -332.5t-67 -441.5q0 -174 65.5 -245.5t223.5 -71.5q213 0 305 121z" glyph-name="Ocircumflex" horiz-adv-x="1372" unicode="Ô"/><glyph d="M1024 1630q-63 0 -117 45l-90 76q-23 16 -47 16q-72 0 -108 -122h-101q18 109 79.5 176t139.5 67q63 0 115 -43l92 -78q20 -18 45 -18q74 0 111 125h100q-20 -109 -81.5 -176.5t-137.5 -67.5zM602 -20q-240 0 -347.5 111.5t-107.5 361.5q0 246 86 505t205 373 q131 123 389 123q240 0 347.5 -110.5t107.5 -356.5q0 -240 -83 -499t-200 -375q-133 -133 -397 -133zM604 119q213 0 305 121q80 102 142.5 336.5t62.5 427.5q0 170 -65.5 240.5t-223.5 70.5q-199 0 -290 -105q-86 -94 -153 -332.5t-67 -441.5q0 -174 65.5 -245.5 t223.5 -71.5z" glyph-name="Otilde" horiz-adv-x="1372" unicode="Õ"/><glyph d="M612 1851h181l-33 -180h-180zM1038 1851h181l-33 -180h-180zM602 -20q-240 0 -347.5 111.5t-107.5 361.5q0 246 86 505t205 373q131 123 389 123q240 0 347.5 -110.5t107.5 -356.5q0 -240 -83 -499t-200 -375q-133 -133 -397 -133zM604 119q213 0 305 121 q80 102 142.5 336.5t62.5 427.5q0 170 -65.5 240.5t-223.5 70.5q-199 0 -290 -105q-86 -94 -153 -332.5t-67 -441.5q0 -174 65.5 -245.5t223.5 -71.5z" glyph-name="Odieresis" horiz-adv-x="1372" unicode="Ö"/><glyph d="M1071 870l-346 -297l242 -292l-109 -97l-244 295l-346 -295l-84 97l348 297l-243 292l110 97l244 -295l346 295z" glyph-name="multiply" horiz-adv-x="1251" unicode="×"/><glyph d="M1153 1362q129 -109 129 -375q0 -240 -83 -499t-200 -375q-133 -133 -397 -133q-125 0 -209 28l-61 -110h-154l98 174q-129 111 -129 381q0 246 86 505t205 373q131 123 389 123q125 0 209 -29l62 111h153zM315 436q0 -145 43 -217l605 1077q-55 18 -138 19 q-199 0 -290 -105q-86 -94 -153 -332.5t-67 -441.5zM909 240q80 102 142.5 336.5t62.5 427.5q0 137 -43 210l-604 -1077q55 -18 137 -18q213 0 305 121z" glyph-name="Oslash" horiz-adv-x="1372" unicode="Ø"/><glyph d="M780 1604l-184 395h162l145 -395h-123zM584 -18q-227 0 -321.5 74.5t-94.5 244.5q0 86 22 215l160 920h166l-166 -947q-18 -121 -18 -172q0 -113 57 -154.5t195 -41.5q174 0 252.5 81t113.5 292l164 942h166l-166 -953q-51 -293 -169.5 -397t-360.5 -104z" glyph-name="Ugrave" horiz-adv-x="1323" unicode="Ù"/><glyph d="M780 1604l287 395h168l-326 -395h-129zM584 -18q-227 0 -321.5 74.5t-94.5 244.5q0 86 22 215l160 920h166l-166 -947q-18 -121 -18 -172q0 -113 57 -154.5t195 -41.5q174 0 252.5 81t113.5 292l164 942h166l-166 -953q-51 -293 -169.5 -397t-360.5 -104z" glyph-name="Uacute" horiz-adv-x="1323" unicode="Ú"/><glyph d="M899 1886l-278 -291h-129l337 396h170l197 -396h-121zM1114 1436h166l-166 -953q-51 -293 -170 -397t-360 -104q-227 0 -321.5 74.5t-94.5 244.5q0 86 22 215l160 920h166l-166 -947q-18 -121 -18 -172q0 -113 57 -154.5t195 -41.5q174 0 252.5 81t113.5 292z" glyph-name="Ucircumflex" horiz-adv-x="1323" unicode="Û"/><glyph d="M588 1851h180l-33 -180h-180zM1014 1851h180l-33 -180h-180zM584 -18q-227 0 -321.5 74.5t-94.5 244.5q0 86 22 215l160 920h166l-166 -947q-18 -121 -18 -172q0 -113 57 -154.5t195 -41.5q174 0 252.5 81t113.5 292l164 942h166l-166 -953q-51 -293 -169.5 -397 t-360.5 -104z" glyph-name="Udieresis" horiz-adv-x="1323" unicode="Ü"/><glyph d="M1139 1999l-326 -395h-129l287 395h168zM1255 1434l-606 -869l-98 -565h-166l100 575l-290 859h178l213 -684h26l457 684h186z" glyph-name="Yacute" horiz-adv-x="1138" unicode="Ý"/><glyph d="M645 1180q229 0 328.5 -74t99.5 -242q0 -127 -50 -246.5t-130 -187.5q-125 -111 -389 -111h-168l-55 -319h-166l252 1434h165l-45 -254h158zM778 522q53 51 89 146.5t36 191.5q0 109 -59.5 153t-208.5 44h-168l-109 -615h158q176 0 262 80z" glyph-name="Thorn" horiz-adv-x="1120" unicode="Þ"/><glyph d="M676 -20q-90 0 -266 24l24 123q145 -25 242 -25q147 0 207 58q59 55 59 153q0 61 -45 115l-141 162q-70 80 -70 176q0 127 117 233l74 68q57 55 83.5 99t26.5 104q0 156 -205 155q-168 0 -248.5 -88t-111.5 -260l-189 -1077h-161l192 1090q82 459 516 458 q170 0 266.5 -72.5t96.5 -218.5q0 -86 -35 -143t-121 -139l-82 -78q-63 -63 -63 -131q0 -49 32 -90l136 -154q92 -106 92 -211q0 -68 -31 -135t-84 -110q-102 -86 -311 -86z" glyph-name="germandbls" horiz-adv-x="1234" unicode="ß"/><glyph d="M692 1296h-123l-184 396h162zM600 1147q315 0 315 -266q0 -55 -12 -123l-133 -760l-127 -12l6 137h-12q-98 -143 -305 -143q-299 0 -299 260q0 92 34.5 178t94.5 139q96 88 278 88h287l23 125q8 47 8 94q0 86 -44 123t-149 37q-98 0 -305 -45l-10 123q223 45 350 45z M362 102q139 0 218 74t106 230l21 116h-271q-106 0 -162 -55q-35 -35 -58 -99.5t-23 -127.5q0 -72 39.5 -105t129.5 -33z" glyph-name="agrave" horiz-adv-x="1026" unicode="à"/><glyph d="M1024 1692l-326 -396h-129l287 396h168zM600 1147q315 0 315 -266q0 -55 -12 -123l-133 -760l-127 -12l6 137h-12q-98 -143 -305 -143q-299 0 -299 260q0 92 34.5 178t94.5 139q96 88 278 88h287l23 125q8 47 8 94q0 86 -44 123t-149 37q-98 0 -305 -45l-10 123 q223 45 350 45zM362 102q139 0 218 74t106 230l21 116h-271q-106 0 -162 -55q-35 -35 -58 -99.5t-23 -127.5q0 -72 39.5 -105t129.5 -33z" glyph-name="aacute" horiz-adv-x="1026" unicode="á"/><glyph d="M688 1579l-278 -291h-129l337 395h170l197 -395h-121zM600 1147q315 0 315 -266q0 -55 -12 -123l-133 -760l-127 -12l6 137h-12q-98 -143 -305 -143q-299 0 -299 260q0 92 34.5 178t94.5 139q96 88 278 88h287l23 125q8 47 8 94q0 86 -44 123t-149 37q-98 0 -305 -45 l-10 123q223 45 350 45zM362 102q139 0 218 74t106 230l21 116h-271q-106 0 -162 -55q-35 -35 -58 -99.5t-23 -127.5q0 -72 39.5 -105t129.5 -33z" glyph-name="acircumflex" horiz-adv-x="1026" unicode="â"/><glyph d="M907 1567h101q-20 -109 -82 -176.5t-138 -67.5q-63 0 -116 45l-90 76q-23 16 -47 16q-72 0 -109 -123h-100q18 109 79.5 176.5t139.5 67.5q61 0 114 -43l93 -78q20 -18 45 -18q73 0 110 125zM600 1147q315 0 315 -266q0 -55 -12 -123l-133 -760l-127 -12l6 137h-12 q-98 -143 -305 -143q-299 0 -299 260q0 92 34.5 178t94.5 139q96 88 278 88h287l23 125q8 47 8 94q0 86 -44 123t-149 37q-98 0 -305 -45l-10 123q223 45 350 45zM362 102q139 0 218 74t106 230l21 116h-271q-106 0 -162 -55q-35 -35 -58 -99.5t-23 -127.5q0 -72 39.5 -105 t129.5 -33z" glyph-name="atilde" horiz-adv-x="1026" unicode="ã"/><glyph d="M557 1544l-33 -180h-180l33 180h180zM803 1544h180l-33 -180h-180zM600 1147q315 0 315 -266q0 -55 -12 -123l-133 -760l-127 -12l6 137h-12q-98 -143 -305 -143q-299 0 -299 260q0 92 34.5 178t94.5 139q96 88 278 88h287l23 125q8 47 8 94q0 86 -44 123t-149 37 q-98 0 -305 -45l-10 123q223 45 350 45zM362 102q139 0 218 74t106 230l21 116h-271q-106 0 -162 -55q-35 -35 -58 -99.5t-23 -127.5q0 -72 39.5 -105t129.5 -33z" glyph-name="adieresis" horiz-adv-x="1026" unicode="ä"/><glyph d="M651 1270q-123 0 -173 45t-50 133q0 111 47 174q61 84 215 84q123 0 172 -45t49 -133q0 -106 -45 -174q-59 -84 -215 -84zM563 1571q-27 -37 -26 -107q0 -55 27.5 -79.5t94.5 -24.5q86 0 117 47q27 37 27 106q0 53 -26.5 78t-94.5 25q-86 0 -119 -45zM600 1147 q315 0 315 -266q0 -55 -12 -123l-133 -760l-127 -12l6 137h-12q-98 -143 -305 -143q-299 0 -299 260q0 92 34.5 178t94.5 139q96 88 278 88h287l23 125q8 47 8 94q0 86 -44 123t-149 37q-98 0 -305 -45l-10 123q223 45 350 45zM362 102q139 0 218 74t106 230l21 116h-271 q-106 0 -162 -55q-35 -35 -58 -99.5t-23 -127.5q0 -72 39.5 -105t129.5 -33z" glyph-name="aring" horiz-adv-x="1026" unicode="å"/><glyph d="M1257 1147q178 0 262.5 -79t84.5 -243q0 -102 -33 -290l-4 -27h-715q-12 -86 -12 -148q0 -137 58 -197.5t194 -60.5q131 0 358 66l8 -121q-227 -68 -389 -67q-289 0 -360 215h-21q-100 -215 -364 -215q-305 0 -306 251q0 205 121 316q109 98 287 98h287l22 125q8 49 8 94 q0 86 -44 123t-146 37q-113 0 -307 -45l-10 123q223 45 346 45q240 0 297 -152q136 152 378 152zM872 629h558q20 111 20 192q0 113 -45 158t-156 45q-158 0 -245 -90t-132 -305zM672 412l20 110h-270q-106 0 -162 -55q-35 -35 -58.5 -97.5t-23.5 -121.5q0 -78 39 -112 t127 -34q273 1 328 310z" glyph-name="ae" horiz-adv-x="1681" unicode="æ"/><glyph d="M674 1024q-168 0 -242 -74q-72 -72 -127 -257t-55 -349q0 -135 53 -188.5t186 -53.5q121 0 211 29l-2 -127q-74 -25 -202 -24q-45 0 -66 2l-49 -103q172 -10 172 -135q0 -109 -59 -168q-63 -68 -197 -68q-70 0 -137 27l16 94q53 -23 111 -22q70 0 102 33q35 33 35 96 q0 47 -74 47h-108l84 215q-231 55 -232 342q0 211 69.5 413.5t172.5 293.5q109 100 344 100q113 0 197 -29l-25 -119q-74 25 -178 25z" glyph-name="ccedilla" horiz-adv-x="897" unicode="ç"/><glyph d="M737 1296h-123l-184 396h162zM657 1147q184 0 272.5 -85t88.5 -263q0 -102 -29 -248l-8 -43h-719q-10 -78 -10 -135q0 -145 58.5 -208t195.5 -63q127 0 358 66l8 -121q-225 -68 -387 -67q-199 0 -295 100t-96 307q0 180 61.5 362.5t155.5 274.5q121 123 346 123zM285 629 h559q20 129 20 188q0 111 -48 159t-161 48q-158 0 -237 -92q-82 -92 -133 -303z" glyph-name="egrave" horiz-adv-x="1095" unicode="è"/><glyph d="M1069 1692l-326 -396h-129l287 396h168zM657 1147q184 0 272.5 -85t88.5 -263q0 -102 -29 -248l-8 -43h-719q-10 -78 -10 -135q0 -145 58.5 -208t195.5 -63q127 0 358 66l8 -121q-225 -68 -387 -67q-199 0 -295 100t-96 307q0 180 61.5 362.5t155.5 274.5 q121 123 346 123zM285 629h559q20 129 20 188q0 111 -48 159t-161 48q-158 0 -237 -92q-82 -92 -133 -303z" glyph-name="eacute" horiz-adv-x="1095" unicode="é"/><glyph d="M733 1579l-278 -291h-129l338 395h170l196 -395h-121zM657 1147q184 0 272.5 -85t88.5 -263q0 -102 -29 -248l-8 -43h-719q-10 -78 -10 -135q0 -145 58.5 -208t195.5 -63q127 0 358 66l8 -121q-225 -68 -387 -67q-199 0 -295 100t-96 307q0 180 61.5 362.5t155.5 274.5 q121 123 346 123zM285 629h559q20 129 20 188q0 111 -48 159t-161 48q-158 0 -237 -92q-82 -92 -133 -303z" glyph-name="ecircumflex" horiz-adv-x="1095" unicode="ê"/><glyph d="M602 1544l-33 -180h-180l33 180h180zM1028 1544l-33 -180h-180l33 180h180zM657 1147q184 0 272.5 -85t88.5 -263q0 -102 -29 -248l-8 -43h-719q-10 -78 -10 -135q0 -145 58.5 -208t195.5 -63q127 0 358 66l8 -121q-225 -68 -387 -67q-199 0 -295 100t-96 307 q0 180 61.5 362.5t155.5 274.5q121 123 346 123zM285 629h559q20 129 20 188q0 111 -48 159t-161 48q-158 0 -237 -92q-82 -92 -133 -303z" glyph-name="edieresis" horiz-adv-x="1095" unicode="ë"/><glyph d="M313 1296l-184 396h162l145 -396h-123zM428 1126l-199 -1126h-157l198 1126h158z" glyph-name="igrave" horiz-adv-x="495" unicode="ì"/><glyph d="M313 1296l287 396h168l-326 -396h-129zM428 1126l-199 -1126h-157l198 1126h158z" glyph-name="iacute" horiz-adv-x="495" unicode="í"/><glyph d="M729 1288h-121l-176 291l-278 -291h-129l337 395h170zM72 0l198 1126h158l-199 -1126h-157z" glyph-name="icircumflex" horiz-adv-x="495" unicode="î"/><glyph d="M121 1544h180l-33 -180h-180zM547 1544h180l-33 -180h-180zM428 1126l-199 -1126h-157l198 1126h158z" glyph-name="idieresis" horiz-adv-x="495" unicode="ï"/><glyph d="M893 1288q27 -53 43 -94q76 -180 76 -395q0 -199 -51.5 -389.5t-133.5 -290.5q-111 -139 -360 -139q-203 0 -296 81.5t-93 264.5q0 188 65.5 379.5t159.5 273.5q98 90 297 90q162 0 227 -68h21q-14 70 -55 170q-18 43 -39 84l-318 -77l-20 118l276 68q-49 76 -114 172 h167q59 -92 86 -137l236 57l23 -119zM727 219q47 80 89 252t42 281q0 106 -55 150t-187 44q-158 0 -219 -65q-61 -63 -111 -239.5t-50 -324.5q0 -123 48 -169t177 -46q196 0 266 117z" glyph-name="eth" horiz-adv-x="1118" unicode="ð"/><glyph d="M608 1460q-72 0 -108 -123h-101q18 109 80 176.5t139 67.5q63 0 115 -43l92 -78q23 -18 45 -18q74 0 111 125h100q-20 -109 -81.5 -176.5t-137.5 -67.5q-63 0 -117 45l-90 76q-22 16 -47 16zM735 1147q162 0 237 -62.5t75 -199.5q0 -63 -19 -168l-127 -717h-156l127 725 q14 74 15 131q0 92 -45 130t-154 38q-150 0 -227.5 -71.5t-106.5 -237.5l-125 -715h-157l198 1128l129 13l-8 -144h15q53 80 129.5 115t199.5 35z" glyph-name="ntilde" horiz-adv-x="1157" unicode="ñ"/><glyph d="M645 1296l-184 396h162l145 -396h-123zM494 -20q-207 0 -302.5 88t-95.5 278q0 217 70 418t176 289q109 94 328 94q207 0 302 -88t95 -277q0 -203 -64.5 -401.5t-160.5 -290.5q-112 -110 -348 -110zM496 102q168 0 241 76q68 70 121 257.5t53 346.5q0 135 -54 188.5 t-189 53.5q-160 0 -236 -70q-70 -68 -125 -255t-55 -353q0 -135 53.5 -189.5t190.5 -54.5z" glyph-name="ograve" horiz-adv-x="1161" unicode="ò"/><glyph d="M645 1296l287 396h168l-326 -396h-129zM494 -20q-207 0 -302.5 88t-95.5 278q0 217 70 418t176 289q109 94 328 94q207 0 302 -88t95 -277q0 -203 -64.5 -401.5t-160.5 -290.5q-112 -110 -348 -110zM496 102q168 0 241 76q68 70 121 257.5t53 346.5q0 135 -54 188.5 t-189 53.5q-160 0 -236 -70q-70 -68 -125 -255t-55 -353q0 -135 53.5 -189.5t190.5 -54.5z" glyph-name="oacute" horiz-adv-x="1161" unicode="ó"/><glyph d="M764 1579l-279 -291h-129l338 395h170l197 -395h-121zM670 1147q207 0 302 -88t95 -277q0 -203 -64.5 -401.5t-160.5 -290.5q-113 -111 -348 -110q-207 0 -302.5 88t-95.5 278q0 217 70 418t176 289q109 94 328 94zM737 178q68 70 121 257.5t53 346.5q0 135 -54 188.5 t-189 53.5q-160 0 -236 -70q-70 -68 -125 -255t-55 -353q0 -135 53 -189.5t191 -54.5q167 0 241 76z" glyph-name="ocircumflex" horiz-adv-x="1161" unicode="ô"/><glyph d="M864 1323q-63 0 -116 45l-91 76q-23 16 -47 16q-72 0 -108 -123h-101q18 109 80 176.5t140 67.5q63 0 114 -43l92 -78q20 -18 45 -18q74 0 111 125h100q-20 -109 -81.5 -176.5t-137.5 -67.5zM494 -20q-207 0 -302.5 88t-95.5 278q0 217 70 418t176 289q109 94 328 94 q207 0 302 -88t95 -277q0 -203 -64.5 -401.5t-160.5 -290.5q-112 -110 -348 -110zM496 102q168 0 241 76q68 70 121 257.5t53 346.5q0 135 -54 188.5t-189 53.5q-160 0 -236 -70q-70 -68 -125 -255t-55 -353q0 -135 53.5 -189.5t190.5 -54.5z" glyph-name="otilde" horiz-adv-x="1161" unicode="õ"/><glyph d="M453 1544h180l-33 -180h-180zM879 1544h180l-33 -180h-180zM494 -20q-207 0 -302.5 88t-95.5 278q0 217 70 418t176 289q109 94 328 94q207 0 302 -88t95 -277q0 -203 -64.5 -401.5t-160.5 -290.5q-112 -110 -348 -110zM496 102q168 0 241 76q68 70 121 257.5t53 346.5 q0 135 -54 188.5t-189 53.5q-160 0 -236 -70q-70 -68 -125 -255t-55 -353q0 -135 53.5 -189.5t190.5 -54.5z" glyph-name="odieresis" horiz-adv-x="1161" unicode="ö"/><glyph d="M575 827l35 191h191l-35 -191h-191zM174 506l25 137h880l-24 -137h-881zM453 131l34 191h191l-35 -191h-190z" glyph-name="divide" horiz-adv-x="1251" unicode="÷"/><glyph d="M948 1079q119 -86 119 -297q0 -203 -64.5 -401.5t-160.5 -290.5q-113 -111 -348 -110q-94 0 -154 16l-55 -98h-152l84 149q-121 88 -121 299q0 217 70 418t176 289q109 94 328 94q94 0 153 -14l56 96h153zM252 346q0 -117 37 -170l471 840q-35 8 -92 8q-160 0 -236 -70 q-70 -68 -125 -255t-55 -353zM737 178q68 70 121 257.5t53 346.5q0 115 -37 166l-471 -837q35 -8 93 -9q167 0 241 76z" glyph-name="oslash" horiz-adv-x="1161" unicode="ø"/><glyph d="M758 1296h-123l-184 396h161zM922 1126h155l-198 -1128l-127 -12l6 145h-15q-96 -152 -329 -151q-162 0 -231.5 60t-69.5 193q0 57 18 177l127 716h158l-129 -725q-14 -94 -15 -135q0 -90 45 -127t146 -37q139 0 222 71t112 239z" glyph-name="ugrave" horiz-adv-x="1148" unicode="ù"/><glyph d="M1090 1692l-326 -396h-129l287 396h168zM797 412l125 714h155l-198 -1128l-127 -12l6 145h-15q-96 -152 -329 -151q-162 0 -231.5 60t-69.5 193q0 57 18 177l127 716h158l-129 -725q-14 -94 -15 -135q0 -90 45 -127t146 -37q139 0 222 71t112 239z" glyph-name="uacute" horiz-adv-x="1148" unicode="ú"/><glyph d="M754 1579l-279 -291h-129l338 395h170l197 -395h-121zM922 1126h155l-198 -1128l-127 -12l6 145h-15q-96 -152 -329 -151q-162 0 -231.5 60t-69.5 193q0 57 18 177l127 716h158l-129 -725q-14 -94 -15 -135q0 -90 45 -127t146 -37q139 0 222 71t112 239z" glyph-name="ucircumflex" horiz-adv-x="1148" unicode="û"/><glyph d="M623 1544l-33 -180h-180l32 180h181zM1049 1544l-33 -180h-180l32 180h181zM922 1126h155l-198 -1128l-127 -12l6 145h-15q-96 -152 -329 -151q-162 0 -231.5 60t-69.5 193q0 57 18 177l127 716h158l-129 -725q-14 -94 -15 -135q0 -90 45 -127t146 -37q139 0 222 71 t112 239z" glyph-name="udieresis" horiz-adv-x="1148" unicode="ü"/><glyph d="M1012 1692l-326 -396h-129l287 396h168zM891 1126h168l-596 -1228q-70 -147 -170 -217t-252 -70q-51 0 -113 10l27 119q35 -6 84 -6q104 0 174 46t125 165l31 63h-80v2l-21 -2l-139 1118h164l104 -995h29z" glyph-name="yacute" horiz-adv-x="983" unicode="ý"/><glyph d="M705 1147q184 0 265 -95.5t81 -275.5q0 -168 -54.5 -362.5t-152.5 -300.5q-119 -133 -338 -133q-184 0 -240 104h-22l-80 -453h-158l336 1905h158l-90 -504h14q93 115 281 115zM735 201q72 88 116 274.5t44 323.5q0 127 -51 176t-166 49q-135 0 -214 -66.5t-108 -232.5 l-59 -330q-10 -66 -10 -108q0 -104 52 -144.5t153 -40.5q167 1 243 99z" glyph-name="thorn" horiz-adv-x="1144" unicode="þ"/><glyph d="M545 1544l-33 -180h-180l33 180h180zM971 1544l-33 -180h-180l33 180h180zM891 1126h168l-596 -1228q-70 -147 -170 -217t-252 -70q-51 0 -113 10l27 119q35 -6 84 -6q104 0 174 46t125 165l31 63h-80v2l-21 -2l-139 1118h164l104 -995h29z" glyph-name="ydieresis" horiz-adv-x="983" unicode="ÿ"/><glyph d="M553 1817h561l-22 -121h-560zM907 1434l154 -1434h-172l-37 401h-539l-178 -401h-176l662 1434h286zM375 539h465l-68 759h-59z" glyph-name="Amacron" horiz-adv-x="1218" unicode="Ā"/><glyph d="M393 1509h561l-22 -120h-559zM600 1147q315 0 315 -266q0 -55 -12 -123l-133 -760l-127 -12l6 137h-12q-98 -143 -305 -143q-299 0 -299 260q0 92 34.5 178t94.5 139q96 88 278 88h287l23 125q8 47 8 94q0 86 -44 123t-149 37q-98 0 -305 -45l-10 123q223 45 350 45z M362 102q139 0 218 74t106 230l21 116h-271q-106 0 -162 -55q-35 -35 -58 -99.5t-23 -127.5q0 -72 39.5 -105t129.5 -33z" glyph-name="amacron" horiz-adv-x="1026" unicode="ā"/><glyph d="M1047 1942h129l-9 -35q-29 -166 -116.5 -227.5t-239.5 -61.5q-285 0 -285 215q0 45 9 86l4 23h129l-9 -39q-6 -27 -6 -52q0 -121 162 -120q94 0 151.5 40.5t75.5 143.5zM907 1434l154 -1434h-172l-37 401h-539l-178 -401h-176l662 1434h286zM375 539h465l-68 759h-59z " glyph-name="Abreve" horiz-adv-x="1218" unicode="Ă"/><glyph d="M887 1634h129l-8 -35q-29 -166 -117 -227t-240 -61q-285 0 -284 215q0 45 8 86l4 22h129l-8 -39q-6 -27 -6 -51q0 -121 161 -121q94 0 151.5 41t76.5 144zM600 1147q315 0 315 -266q0 -55 -12 -123l-133 -760l-127 -12l6 137h-12q-98 -143 -305 -143q-299 0 -299 260 q0 92 34.5 178t94.5 139q96 88 278 88h287l23 125q8 47 8 94q0 86 -44 123t-149 37q-98 0 -305 -45l-10 123q223 45 350 45zM362 102q139 0 218 74t106 230l21 116h-271q-106 0 -162 -55q-35 -35 -58 -99.5t-23 -127.5q0 -72 39.5 -105t129.5 -33z" glyph-name="abreve" horiz-adv-x="1026" unicode="ă"/><glyph d="M1090 -322l6 -102q-55 -2 -99 12q-90 8 -145 54.5t-55 128.5q0 127 116 229h-24l-37 401h-539l-178 -401h-176l662 1434h286l154 -1434q-135 -100 -135 -207q0 -115 164 -115zM375 539h465l-68 759h-59z" glyph-name="Aogonek" horiz-adv-x="1218" unicode="Ą"/><glyph d="M770 -2q-113 -88 -129 -178q-23 -141 162 -142l6 -102q-55 -2 -98 12q-104 10 -159.5 67.5t-37.5 164.5q18 102 131 194l4 109h-12q-98 -143 -305 -143q-299 0 -299 260q0 92 34.5 178t94.5 139q96 88 278 88h287l23 125q8 47 8 94q0 86 -44 123t-149 37q-98 0 -305 -45 l-10 123q223 45 350 45q315 0 315 -266q0 -55 -12 -123zM362 102q139 0 218 74t106 230l21 116h-271q-106 0 -162 -55q-35 -35 -58 -99.5t-23 -127.5q0 -72 39.5 -105t129.5 -33z" glyph-name="aogonek" horiz-adv-x="1026" unicode="ą"/><glyph d="M715 1604l286 395h168l-325 -395h-129zM596 -20q-231 0 -341 108.5t-110 335.5q0 262 80 515t189 364q152 152 420 151q147 0 247 -43l-28 -135q-80 39 -219 39q-205 0 -310 -119q-82 -98 -146.5 -322.5t-64.5 -441.5q0 -170 66.5 -241.5t228.5 -71.5q139 0 246 47 l8 -141q-98 -45 -266 -45z" glyph-name="Cacute" horiz-adv-x="1048" unicode="Ć"/><glyph d="M545 1296l286 396h168l-325 -396h-129zM496 -20q-211 0 -306.5 86t-95.5 274q0 211 69.5 413.5t172.5 293.5q109 100 344 100q113 0 197 -29l-25 -119q-74 25 -178 25q-168 0 -242 -74q-72 -72 -127 -257t-55 -349q0 -135 53 -188.5t186 -53.5q121 0 211 29l-2 -127 q-73 -24 -202 -24z" glyph-name="cacute" horiz-adv-x="897" unicode="ć"/><glyph d="M735 1851h183l-33 -182h-183zM596 -20q-231 0 -341 108.5t-110 335.5q0 262 80 515t189 364q152 152 420 151q147 0 247 -43l-28 -135q-80 39 -219 39q-205 0 -310 -119q-82 -98 -146.5 -322.5t-64.5 -441.5q0 -170 66.5 -241.5t228.5 -71.5q139 0 246 47l8 -141 q-98 -45 -266 -45z" glyph-name="Cdotaccent" horiz-adv-x="1048" unicode="Ċ"/><glyph d="M565 1544h183l-33 -182h-183zM496 -20q-211 0 -306.5 86t-95.5 274q0 211 69.5 413.5t172.5 293.5q109 100 344 100q113 0 197 -29l-25 -119q-74 25 -178 25q-168 0 -242 -74q-72 -72 -127 -257t-55 -349q0 -135 53 -188.5t186 -53.5q121 0 211 29l-2 -127 q-73 -24 -202 -24z" glyph-name="cdotaccent" horiz-adv-x="897" unicode="ċ"/><glyph d="M698 1595l-198 396h123l174 -291l278 291h129l-336 -396h-170zM414 1303q152 152 420 151q147 0 247 -43l-28 -135q-80 39 -219 39q-205 0 -310 -119q-82 -98 -146.5 -322.5t-64.5 -441.5q0 -170 66.5 -241.5t228.5 -71.5q139 0 246 47l8 -141q-98 -45 -266 -45 q-231 0 -341 108.5t-110 335.5q0 262 80 515t189 364z" glyph-name="Ccaron" horiz-adv-x="1048" unicode="Č"/><glyph d="M528 1288l-198 395h123l174 -290l278 290h129l-336 -395h-170zM336 1047q109 100 344 100q113 0 197 -29l-25 -119q-74 25 -178 25q-168 0 -242 -74q-72 -72 -127 -257t-55 -349q0 -135 53 -188.5t186 -53.5q121 0 211 29l-2 -127q-74 -25 -202 -24q-211 0 -306.5 86 t-95.5 274q0 211 70 414t172 293z" glyph-name="ccaron" horiz-adv-x="897" unicode="č"/><glyph d="M735 1595l-198 396h122l175 -291l278 291h129l-336 -396h-170zM786 1434q229 0 339 -116t110 -355q0 -217 -68.5 -442.5t-171.5 -346.5q-150 -174 -448 -174h-432l252 1434h419zM868 258q82 106 142.5 316t60.5 393q0 180 -70.5 262t-224.5 82h-266l-207 -1188h256 q200 0 309 135z" glyph-name="Dcaron" horiz-adv-x="1323" unicode="Ď"/><glyph d="M897 1006l92 530h158l-273 -1538l-126 -12l8 155q-92 -162 -314 -161q-176 0 -261 90t-85 274q0 207 65.5 405.5t166.5 290.5q113 106 313 107q211 0 256 -141zM1497 1536l-33 -182h2l-104 -236h-107l103 236h-74l33 182h180zM467 102q143 0 219 70t105 225l20 121h-39 l10 57h-10l10 64h49l19 102q10 55 10 101q0 96 -48 139t-159 43q-158 0 -227 -82q-68 -74 -121 -258t-53 -344q0 -131 48 -184.5t167 -53.5z" glyph-name="dcaron" horiz-adv-x="1144" unicode="ď"/><glyph d="M786 1434q229 0 339 -116t110 -355q0 -217 -68.5 -442.5t-171.5 -346.5q-150 -174 -448 -174h-432l114 647h-166l25 137h164l115 650h419zM868 258q82 106 142.5 316t60.5 393q0 180 -70.5 262t-224.5 82h-266l-92 -527h348l-25 -137h-346l-92 -524h256q200 0 309 135z " glyph-name="Dcroat" horiz-adv-x="1323" unicode="Đ"/><glyph d="M1339 1368l-20 -121h-223l-222 -1249l-126 -12l8 155q-92 -162 -314 -161q-176 0 -261 90t-85 274q0 207 65.5 405.5t166.5 290.5q113 106 313 107q211 0 256 -141l43 241h-242l21 121h242l28 168h158l-31 -168h223zM467 102q143 0 219 70t105 225l20 121h-39l10 57h-10 l10 64h49l19 102q10 55 10 101q0 96 -48 139t-159 43q-158 0 -227 -82q-68 -74 -121 -258t-53 -344q0 -131 48 -184.5t167 -53.5z" glyph-name="dcroat" horiz-adv-x="1144" unicode="đ"/><glyph d="M1065 1817l-23 -121h-559l21 121h561zM1065 1434l-23 -136h-534l-84 -487h502l-25 -137h-502l-94 -539h557l-24 -135h-723l252 1434h698z" glyph-name="Emacron" horiz-adv-x="1044" unicode="Ē"/><glyph d="M999 1509l-22 -120h-559l20 120h561zM657 1147q184 0 272.5 -85t88.5 -263q0 -102 -29 -248l-8 -43h-719q-10 -78 -10 -135q0 -145 58.5 -208t195.5 -63q127 0 358 66l8 -121q-225 -68 -387 -67q-199 0 -295 100t-96 307q0 180 61.5 362.5t155.5 274.5q121 123 346 123z M285 629h559q20 129 20 188q0 111 -48 159t-161 48q-158 0 -237 -92q-82 -92 -133 -303z" glyph-name="emacron" horiz-adv-x="1095" unicode="ē"/><glyph d="M883 1851l-33 -182h-182l32 182h183zM1042 1298h-534l-84 -487h502l-25 -137h-502l-94 -539h557l-24 -135h-723l252 1434h698z" glyph-name="Edotaccent" horiz-adv-x="1044" unicode="Ė"/><glyph d="M817 1544l-33 -182h-182l33 182h182zM657 1147q184 0 272.5 -85t88.5 -263q0 -102 -29 -248l-8 -43h-719q-10 -78 -10 -135q0 -145 58.5 -208t195.5 -63q127 0 358 66l8 -121q-225 -68 -387 -67q-199 0 -295 100t-96 307q0 180 61.5 362.5t155.5 274.5q121 123 346 123z M285 629h559q20 129 20 188q0 111 -48 159t-161 48q-158 0 -237 -92q-82 -92 -133 -303z" glyph-name="edotaccent" horiz-adv-x="1095" unicode="ė"/><glyph d="M1042 1298h-534l-84 -487h502l-25 -137h-502l-94 -539h557l-24 -135h-109q-135 -100 -135 -207q0 -115 164 -115l6 -102q-55 -2 -98 12q-90 8 -145.5 54.5t-55.5 128.5q0 127 117 229h-467l252 1434h698z" glyph-name="Eogonek" horiz-adv-x="1044" unicode="Ę"/><glyph d="M657 1147q184 0 272.5 -85t88.5 -263q0 -102 -29 -248l-8 -43h-719q-10 -78 -10 -135q0 -145 58.5 -208t195.5 -63q127 0 358 66l8 -121q-74 -20 -108 -29q-113 -86 -127 -178q-10 -57 23.5 -99t138.5 -42l6 -102q-55 -4 -96 12q-104 10 -160.5 67.5t-38.5 163.5 q12 76 76 146q-53 -6 -101 -6q-199 0 -295 100t-96 307q0 180 61.5 362.5t155.5 274.5q121 123 346 123zM285 629h559q20 129 20 188q0 111 -48 159t-161 48q-158 0 -237 -92q-82 -92 -133 -303z" glyph-name="eogonek" horiz-adv-x="1095" unicode="ę"/><glyph d="M664 1595l-199 396h123l174 -291l278 291h129l-335 -396h-170zM1065 1434l-23 -136h-534l-84 -487h502l-25 -137h-502l-94 -539h557l-24 -135h-723l252 1434h698z" glyph-name="Ecaron" horiz-adv-x="1044" unicode="Ě"/><glyph d="M598 1288l-199 395h123l174 -290l279 290h129l-336 -395h-170zM657 1147q184 0 272.5 -85t88.5 -263q0 -102 -29 -248l-8 -43h-719q-10 -78 -10 -135q0 -145 58.5 -208t195.5 -63q127 0 358 66l8 -121q-225 -68 -387 -67q-199 0 -295 100t-96 307q0 180 61.5 362.5 t155.5 274.5q121 123 346 123zM285 629h559q20 129 20 188q0 111 -48 159t-161 48q-158 0 -237 -92q-82 -92 -133 -303z" glyph-name="ecaron" horiz-adv-x="1095" unicode="ě"/><glyph d="M885 1886l-279 -291h-129l338 396h170l197 -396h-121zM432 1323q158 131 430 131q184 0 314 -43l-29 -141q-127 45 -293 45q-211 0 -317 -107q-88 -90 -157 -330.5t-69 -451.5q0 -168 57.5 -238.5t192.5 -70.5q158 0 242 68.5t110 220.5l43 256h-235l24 135h394 l-142 -799l-125 -12l5 135h-11q-115 -141 -334 -141q-385 0 -385 448q0 276 82 534.5t203 360.5z" glyph-name="Gcircumflex" horiz-adv-x="1247" unicode="Ĝ"/><glyph d="M739 1579l-278 -291h-129l338 395h170l196 -395h-121zM1147 1126l-12 -92l-183 -33q53 -53 54 -159q0 -94 -36 -195.5t-91 -159.5q-102 -109 -340 -108q-127 0 -213 29l-41 -33q-57 -45 -58 -82q0 -63 107 -64h180q231 0 337.5 -57t106.5 -184q0 -197 -130 -287t-414 -90 q-236 0 -341.5 52t-105.5 167q0 227 205 293l2 14q-88 43 -88 135q0 96 111 174l32 23q-66 66 -65 197q0 115 45 226.5t115 170.5q98 84 317 84q115 0 184 -21h322zM768 580q33 43 57.5 129t24.5 161q0 86 -45 120t-162 34q-160 0 -219 -59q-41 -41 -70.5 -130.5 t-29.5 -172.5q0 -90 45 -125t163 -35q179 0 236 78zM498 104q-195 0 -283 -61t-88 -197q0 -63 66.5 -87.5t234.5 -24.5q199 0 285 56t86 190q0 72 -63.5 98t-237.5 26z" glyph-name="gcircumflex" horiz-adv-x="1114" unicode="ĝ"/><glyph d="M1083 1942h129l-8 -35q-29 -166 -117 -227.5t-239 -61.5q-285 0 -285 215q0 45 8 86l4 23h130l-9 -39q-6 -27 -6 -52q0 -121 162 -120q94 0 151.5 40.5t75.5 143.5zM432 1323q158 131 430 131q184 0 314 -43l-29 -141q-127 45 -293 45q-211 0 -317 -107 q-88 -90 -157 -330.5t-69 -451.5q0 -168 57.5 -238.5t192.5 -70.5q158 0 242 68.5t110 220.5l43 256h-235l24 135h394l-142 -799l-125 -12l5 135h-11q-115 -141 -334 -141q-385 0 -385 448q0 276 82 534.5t203 360.5z" glyph-name="Gbreve" horiz-adv-x="1247" unicode="Ğ"/><glyph d="M702 1311q-285 0 -284 215q0 45 8 86l4 22h129l-8 -39q-6 -27 -6 -51q0 -121 162 -121q94 0 151 41t76 144l4 26h129l-8 -35q-29 -166 -117 -227t-240 -61zM1147 1126l-12 -92l-183 -33q53 -53 54 -159q0 -94 -36 -195.5t-91 -159.5q-102 -109 -340 -108q-127 0 -213 29 l-41 -33q-57 -45 -58 -82q0 -63 107 -64h180q231 0 337.5 -57t106.5 -184q0 -197 -130 -287t-414 -90q-236 0 -341.5 52t-105.5 167q0 227 205 293l2 14q-88 43 -88 135q0 96 111 174l32 23q-66 66 -65 197q0 115 45 226.5t115 170.5q98 84 317 84q115 0 184 -21h322z M768 580q33 43 57.5 129t24.5 161q0 86 -45 120t-162 34q-160 0 -219 -59q-41 -41 -70.5 -130.5t-29.5 -172.5q0 -90 45 -125t163 -35q179 0 236 78zM498 104q-195 0 -283 -61t-88 -197q0 -63 66.5 -87.5t234.5 -24.5q199 0 285 56t86 190q0 72 -63.5 98t-237.5 26z" glyph-name="gbreve" horiz-adv-x="1114" unicode="ğ"/><glyph d="M969 1851l-33 -182h-182l32 182h183zM854 1315q-211 0 -317 -107q-88 -90 -157 -330.5t-69 -451.5q0 -168 57.5 -238.5t192.5 -70.5q158 0 242 68.5t110 220.5l43 256h-235l24 135h394l-142 -799l-125 -12l5 135h-11q-115 -141 -334 -141q-385 0 -385 448q0 276 82 534.5 t203 360.5q158 131 430 131q184 0 314 -43l-29 -141q-127 45 -293 45z" glyph-name="Gdotaccent" horiz-adv-x="1247" unicode="Ġ"/><glyph d="M823 1544l-32 -182h-183l33 182h182zM1147 1126l-12 -92l-183 -33q53 -53 54 -159q0 -94 -36 -195.5t-91 -159.5q-102 -109 -340 -108q-127 0 -213 29l-41 -33q-57 -45 -58 -82q0 -63 107 -64h180q231 0 337.5 -57t106.5 -184q0 -197 -130 -287t-414 -90 q-236 0 -341.5 52t-105.5 167q0 227 205 293l2 14q-88 43 -88 135q0 96 111 174l32 23q-66 66 -65 197q0 115 45 226.5t115 170.5q98 84 317 84q115 0 184 -21h322zM768 580q33 43 57.5 129t24.5 161q0 86 -45 120t-162 34q-160 0 -219 -59q-41 -41 -70.5 -130.5 t-29.5 -172.5q0 -90 45 -125t163 -35q179 0 236 78zM498 104q-195 0 -283 -61t-88 -197q0 -63 66.5 -87.5t234.5 -24.5q199 0 285 56t86 190q0 72 -63.5 98t-237.5 26z" glyph-name="gdotaccent" horiz-adv-x="1114" unicode="ġ"/><glyph d="M854 1315q-211 0 -317 -107q-88 -90 -157 -330.5t-69 -451.5q0 -168 57.5 -238.5t192.5 -70.5q158 0 242 68.5t110 220.5l43 256h-235l24 135h394l-142 -799l-125 -12l5 135h-11q-115 -141 -334 -141q-385 0 -385 448q0 276 82 534.5t203 360.5q158 131 430 131 q184 0 314 -43l-29 -141q-127 45 -293 45zM406 -324l30 183h182l-32 -183l-107 -237h-104l102 237h-71z" glyph-name="Gcommaaccent" horiz-adv-x="1247" unicode="Ģ"/><glyph d="M823 1544l-32 -180h-183l33 180l104 238h107l-102 -238h73zM1147 1126l-12 -92l-183 -33q53 -53 54 -159q0 -94 -36 -195.5t-91 -159.5q-102 -109 -340 -108q-127 0 -213 29l-41 -33q-57 -45 -58 -82q0 -63 107 -64h180q231 0 337.5 -57t106.5 -184q0 -197 -130 -287 t-414 -90q-236 0 -341.5 52t-105.5 167q0 227 205 293l2 14q-88 43 -88 135q0 96 111 174l32 23q-66 66 -65 197q0 115 45 226.5t115 170.5q98 84 317 84q115 0 184 -21h322zM768 580q33 43 57.5 129t24.5 161q0 86 -45 120t-162 34q-160 0 -219 -59q-41 -41 -70.5 -130.5 t-29.5 -172.5q0 -90 45 -125t163 -35q179 0 236 78zM498 104q-195 0 -283 -61t-88 -197q0 -63 66.5 -87.5t234.5 -24.5q199 0 285 56t86 190q0 72 -63.5 98t-237.5 26z" glyph-name="gcommaaccent" horiz-adv-x="1114" unicode="ģ"/><glyph d="M920 1886l-279 -291h-129l338 396h170l197 -396h-121zM1143 1434h166l-252 -1434h-166l119 674h-611l-118 -674h-166l252 1434h165l-108 -623h610z" glyph-name="Hcircumflex" horiz-adv-x="1368" unicode="Ĥ"/><glyph d="M532 1937l-278 -290h-129l338 395h170l196 -395h-120zM743 1147q162 0 233 -59.5t71 -196.5q0 -70 -19 -174l-127 -717h-156l127 725q14 72 15 131q0 92 -45 130t-150 38q-150 0 -229.5 -73.5t-108.5 -235.5l-125 -715h-157l270 1536h158l-92 -520h14q98 131 321 131z " glyph-name="hcircumflex" horiz-adv-x="1157" unicode="ĥ"/><glyph d="M1456 1196l-22 -137h-191l-186 -1059h-166l119 674h-611l-118 -674h-166l186 1059h-213l25 137h213l41 238h165l-40 -238h610l41 238h166l-41 -238h188zM1034 811l43 248h-610l-43 -248h610z" glyph-name="Hbar" horiz-adv-x="1345" unicode="Ħ"/><glyph d="M743 1147q162 0 233 -59.5t71 -196.5q0 -70 -19 -174l-127 -717h-156l127 725q14 72 15 131q0 92 -45 130t-150 38q-150 0 -229.5 -73.5t-108.5 -235.5l-125 -715h-157l219 1249h-191l21 121h192l29 166h158l-29 -166h328l-21 -121h-329l-41 -233h14q98 131 321 131z" glyph-name="hbar" horiz-adv-x="1157" unicode="ħ"/><glyph d="M633 1630q-63 0 -117 45l-90 76q-23 16 -47 16q-72 0 -109 -122h-100q18 109 79.5 176t139.5 67q61 0 115 -43l92 -78q23 -18 45 -18q74 0 111 125h100q-20 -109 -81.5 -176.5t-137.5 -67.5zM532 1434l-251 -1434h-166l252 1434h165z" glyph-name="Itilde" horiz-adv-x="591" unicode="Ĩ"/><glyph d="M532 1323q-63 0 -116 45l-90 76q-23 16 -47 16q-72 0 -109 -123h-100q18 109 79.5 176.5t139.5 67.5q63 0 114 -43l93 -78q23 -18 45 -18q74 0 110 125h101q-20 -109 -82 -176.5t-138 -67.5zM428 1126l-199 -1126h-157l198 1126h158z" glyph-name="itilde" horiz-adv-x="495" unicode="ĩ"/><glyph d="M238 1817h561l-23 -121h-559zM532 1434l-251 -1434h-166l252 1434h165z" glyph-name="Imacron" horiz-adv-x="591" unicode="Ī"/><glyph d="M137 1509h561l-22 -120h-559zM428 1126l-199 -1126h-157l198 1126h158z" glyph-name="imacron" horiz-adv-x="495" unicode="ī"/><glyph d="M496 1618q-285 0 -285 215q0 45 8 86l4 23h129l-8 -39q-6 -27 -6 -52q0 -121 162 -120q94 0 151.5 40.5t75.5 143.5l4 27h129l-8 -35q-29 -166 -116.5 -227.5t-239.5 -61.5zM532 1434l-251 -1434h-166l252 1434h165z" glyph-name="Ibreve" horiz-adv-x="591" unicode="Ĭ"/><glyph d="M395 1311q-285 0 -284 215q0 45 8 86l4 22h129l-8 -39q-6 -27 -6 -51q0 -121 161 -121q94 0 151.5 41t76.5 144l4 26h129l-8 -35q-29 -166 -117 -227t-240 -61zM428 1126l-199 -1126h-157l198 1126h158z" glyph-name="ibreve" horiz-adv-x="495" unicode="ĭ"/><glyph d="M145 -207q0 -115 164 -115l6 -102q-55 -2 -98 12q-90 8 -145.5 54.5t-55.5 128.5q0 127 117 229h-18l252 1434h165l-251 -1434q-136 -101 -136 -207z" glyph-name="Iogonek" horiz-adv-x="591" unicode="Į"/><glyph d="M332 1544h182l-33 -182h-182zM229 0q-135 -100 -135 -207q0 -115 164 -115l6 -102q-55 -2 -98 12q-90 8 -145.5 54.5t-55.5 128.5q0 127 117 229h-10l198 1126h158z" glyph-name="iogonek" horiz-adv-x="495" unicode="į"/><glyph d="M434 1851h182l-32 -182h-183zM532 1434l-251 -1434h-166l252 1434h165z" glyph-name="Idotaccent" horiz-adv-x="591" unicode="İ"/><glyph d="M428 1126l-199 -1126h-157l198 1126h158z" glyph-name="dotlessi" horiz-adv-x="495" unicode="ı"/><glyph d="M532 1434l-251 -1434h-166l252 1434h165zM672 -20q-86 0 -150 18l25 135q49 -14 121 -14q82 0 122.5 44t61.5 161l195 1110h165l-196 -1123q-33 -182 -104.5 -256.5t-239.5 -74.5z" glyph-name="IJ" horiz-adv-x="1265" unicode="Ĳ"/><glyph d="M332 1544h182l-33 -182h-182zM850 1362l33 182h184l-33 -182h-184zM428 1126l-199 -1126h-157l198 1126h158zM432 -389q-63 0 -125 14l25 121q51 -12 108 -12q82 0 118 46t58 175l205 1171h156l-207 -1183q-37 -195 -103.5 -262.5t-234.5 -69.5z" glyph-name="ij" horiz-adv-x="1058" unicode="ĳ"/><glyph d="M721 1991l197 -396h-121l-176 291l-279 -291h-129l338 396h170zM260 324l195 1110h166l-197 -1123q-33 -182 -104.5 -256.5t-239.5 -74.5q-86 0 -150 18l25 135q49 -14 121 -14q82 0 123 44t61 161z" glyph-name="Jcircumflex" horiz-adv-x="673" unicode="Ĵ"/><glyph d="M727 1288h-121l-176 291l-278 -291h-129l337 395h170zM66 -45l204 1171h156l-207 -1183q-37 -195 -103.5 -262.5t-234.5 -69.5q-63 0 -125 14l25 121q45 -12 108 -12q82 0 118 46t59 175z" glyph-name="jcircumflex" horiz-adv-x="507" unicode="ĵ"/><glyph d="M1245 1434l-614 -691l391 -743h-184l-346 674h-93l-118 -674h-166l252 1434h165l-108 -623h88l539 623h194zM391 -324l31 183h182l-33 -183l-106 -237h-105l103 237h-72z" glyph-name="Kcommaaccent" horiz-adv-x="1155" unicode="Ķ"/><glyph d="M1073 1126l-541 -508l367 -618h-174l-324 559h-73l-99 -559h-157l270 1536h158l-152 -856h70l467 446h188zM311 -324l31 183h182l-32 -183l-107 -237h-104l102 237h-72z" glyph-name="kcommaaccent" horiz-adv-x="999" unicode="ķ"/><glyph d="M874 1999l-325 -395h-129l287 395h167zM532 1434l-227 -1299h465l-25 -135h-630l252 1434h165z" glyph-name="Lacute" horiz-adv-x="911" unicode="Ĺ"/><glyph d="M383 1706l287 395h168l-326 -395h-129zM344 -20q-131 0 -185.5 40.5t-54.5 143.5q0 55 15 129l217 1243h158l-222 -1257q-12 -68 -12 -101q0 -43 17.5 -59.5t64.5 -16.5q63 0 113 13v-125q-56 -10 -111 -10z" glyph-name="lacute" horiz-adv-x="600" unicode="ĺ"/><glyph d="M305 135h465l-25 -135h-630l252 1434h165zM240 -324l30 183h183l-33 -183l-107 -237h-104l102 237h-71z" glyph-name="Lcommaaccent" horiz-adv-x="911" unicode="Ļ"/><glyph d="M260 178q0 -43 17.5 -59.5t64.5 -16.5q63 0 113 13v-125q-55 -10 -111 -10q-131 0 -185.5 40.5t-54.5 143.5q0 55 15 129l217 1243h158l-222 -1257q-12 -68 -12 -101zM68 -324l30 183h183l-33 -183l-107 -237h-104l102 237h-71z" glyph-name="lcommaaccent" horiz-adv-x="600" unicode="ļ"/><glyph d="M532 1434l-227 -1299h465l-25 -135h-630l252 1434h165zM705 1434h182l-33 -183l-104 -235h-105l103 235h-74z" glyph-name="Lcaron" horiz-adv-x="911" unicode="Ľ"/><glyph d="M494 1536l-222 -1257q-12 -68 -12 -101q0 -43 17.5 -59.5t64.5 -16.5q63 0 113 13v-125q-55 -10 -111 -10q-131 0 -185.5 40.5t-54.5 143.5q0 55 15 129l217 1243h158zM668 1536h180l-31 -182l-104 -236h-107l103 236h-74z" glyph-name="lcaron" horiz-adv-x="600" unicode="ľ"/><glyph d="M305 135h465l-25 -135h-630l252 1434h165zM709 680h-195l39 207h195z" glyph-name="Ldot" horiz-adv-x="911" unicode="Ŀ"/><glyph d="M344 -20q-131 0 -185.5 40.5t-54.5 143.5q0 55 15 129l217 1243h158l-222 -1257q-12 -68 -12 -101q0 -43 17.5 -59.5t64.5 -16.5q63 0 113 13v-125q-56 -10 -111 -10zM432 680l39 207h195l-39 -207h-195z" glyph-name="ldot" horiz-adv-x="688" unicode="ŀ"/><glyph d="M305 135h465l-25 -135h-630l104 594l-219 -96l25 143l219 96l123 697h165l-108 -617l301 133l-23 -143l-303 -133z" glyph-name="Lslash" horiz-adv-x="911" unicode="Ł"/><glyph d="M356 760l-84 -481q-12 -68 -12 -101q0 -43 17.5 -59.5t64.5 -16.5q63 0 113 13v-125q-55 -10 -111 -10q-131 0 -185.5 40.5t-54.5 143.5q0 55 15 129l67 383l-198 -98l22 139l201 98l125 721h158l-113 -635l272 133l-22 -139z" glyph-name="lslash" horiz-adv-x="600" unicode="ł"/><glyph d="M1264 1999l-326 -395h-129l287 395h168zM1159 1434h166l-252 -1434h-307l-234 1298h-24l-227 -1298h-166l252 1434h309l231 -1299h25z" glyph-name="Nacute" horiz-adv-x="1384" unicode="Ń"/><glyph d="M1098 1692l-326 -396h-129l287 396h168zM735 1147q162 0 237 -62.5t75 -199.5q0 -63 -19 -168l-127 -717h-156l127 725q14 74 15 131q0 92 -45 130t-154 38q-150 0 -227.5 -71.5t-106.5 -237.5l-125 -715h-157l198 1128l129 13l-8 -144h15q53 80 129.5 115t199.5 35z" glyph-name="nacute" horiz-adv-x="1157" unicode="ń"/><glyph d="M1159 1434h166l-252 -1434h-307l-234 1298h-24l-227 -1298h-166l252 1434h309l231 -1299h25zM449 -324l30 183h183l-33 -183l-107 -237h-104l102 237h-71z" glyph-name="Ncommaaccent" horiz-adv-x="1384" unicode="Ņ"/><glyph d="M735 1147q162 0 237 -62.5t75 -199.5q0 -63 -19 -168l-127 -717h-156l127 725q14 74 15 131q0 92 -45 130t-154 38q-150 0 -227.5 -71.5t-106.5 -237.5l-125 -715h-157l198 1128l129 13l-8 -144h15q53 80 129.5 115t199.5 35zM336 -324l31 183h182l-33 -183l-106 -237 h-105l103 237h-72z" glyph-name="ncommaaccent" horiz-adv-x="1157" unicode="ņ"/><glyph d="M793 1595l-199 396h123l174 -291l278 291h129l-335 -396h-170zM1159 1434h166l-252 -1434h-307l-234 1298h-24l-227 -1298h-166l252 1434h309l231 -1299h25z" glyph-name="Ncaron" horiz-adv-x="1384" unicode="Ň"/><glyph d="M627 1288l-199 395h123l174 -290l279 290h129l-336 -395h-170zM735 1147q162 0 237 -62.5t75 -199.5q0 -63 -19 -168l-127 -717h-156l127 725q14 74 15 131q0 92 -45 130t-154 38q-150 0 -227.5 -71.5t-106.5 -237.5l-125 -715h-157l198 1128l129 13l-8 -144h15 q53 80 129.5 115t199.5 35z" glyph-name="ncaron" horiz-adv-x="1157" unicode="ň"/><glyph d="M1159 1434h166l-262 -1491q-35 -184 -105.5 -258t-240.5 -74q-78 0 -146 18l27 135q49 -14 119 -14q82 0 123 44t61 161l8 45h-143l-234 1298h-24l-227 -1298h-166l252 1434h309l231 -1299h25z" glyph-name="Eng" horiz-adv-x="1384" unicode="Ŋ"/><glyph d="M735 1147q162 0 237 -62.5t75 -199.5q0 -78 -19 -168l-137 -774q-35 -195 -101.5 -263.5t-234.5 -68.5q-61 0 -127 14l23 121q53 -12 110 -12q82 0 118 45t58 176l135 770q14 72 15 131q0 92 -45 130t-154 38q-150 0 -227.5 -71.5t-106.5 -237.5l-125 -715h-157l198 1128 l129 13l-8 -144h15q53 80 129.5 115t199.5 35z" glyph-name="eng" horiz-adv-x="1157" unicode="ŋ"/><glyph d="M629 1817h561l-23 -121h-559zM602 -20q-240 0 -347.5 111.5t-107.5 361.5q0 246 86 505t205 373q131 123 389 123q240 0 347.5 -110.5t107.5 -356.5q0 -240 -83 -499t-200 -375q-133 -133 -397 -133zM604 119q213 0 305 121q80 102 142.5 336.5t62.5 427.5 q0 170 -65.5 240.5t-223.5 70.5q-199 0 -290 -105q-86 -94 -153 -332.5t-67 -441.5q0 -174 65.5 -245.5t223.5 -71.5z" glyph-name="Omacron" horiz-adv-x="1372" unicode="Ō"/><glyph d="M469 1509h561l-22 -120h-559zM494 -20q-207 0 -302.5 88t-95.5 278q0 217 70 418t176 289q109 94 328 94q207 0 302 -88t95 -277q0 -203 -64.5 -401.5t-160.5 -290.5q-112 -110 -348 -110zM496 102q168 0 241 76q68 70 121 257.5t53 346.5q0 135 -54 188.5t-189 53.5 q-160 0 -236 -70q-70 -68 -125 -255t-55 -353q0 -135 53.5 -189.5t190.5 -54.5z" glyph-name="omacron" horiz-adv-x="1161" unicode="ō"/><glyph d="M887 1618q-285 0 -285 215q0 45 8 86l4 23h129l-8 -39q-6 -27 -6 -52q0 -121 162 -120q94 0 151.5 40.5t75.5 143.5l4 27h129l-8 -35q-29 -166 -116.5 -227.5t-239.5 -61.5zM602 -20q-240 0 -347.5 111.5t-107.5 361.5q0 246 86 505t205 373q131 123 389 123 q240 0 347.5 -110.5t107.5 -356.5q0 -240 -83 -499t-200 -375q-133 -133 -397 -133zM604 119q213 0 305 121q80 102 142.5 336.5t62.5 427.5q0 170 -65.5 240.5t-223.5 70.5q-199 0 -290 -105q-86 -94 -153 -332.5t-67 -441.5q0 -174 65.5 -245.5t223.5 -71.5z" glyph-name="Obreve" horiz-adv-x="1372" unicode="Ŏ"/><glyph d="M727 1311q-285 0 -285 215q0 45 9 86l4 22h129l-9 -39q-6 -27 -6 -51q0 -121 162 -121q94 0 151.5 41t75.5 144l5 26h129l-9 -35q-29 -166 -116.5 -227t-239.5 -61zM494 -20q-207 0 -302.5 88t-95.5 278q0 217 70 418t176 289q109 94 328 94q207 0 302 -88t95 -277 q0 -203 -64.5 -401.5t-160.5 -290.5q-112 -110 -348 -110zM496 102q168 0 241 76q68 70 121 257.5t53 346.5q0 135 -54 188.5t-189 53.5q-160 0 -236 -70q-70 -68 -125 -255t-55 -353q0 -135 53.5 -189.5t190.5 -54.5z" glyph-name="obreve" horiz-adv-x="1161" unicode="ŏ"/><glyph d="M635 1597l289 408h170l-330 -408h-129zM987 1597l289 408h168l-328 -408h-129zM602 -20q-240 0 -347.5 111.5t-107.5 361.5q0 246 86 505t205 373q131 123 389 123q240 0 347.5 -110.5t107.5 -356.5q0 -240 -83 -499t-200 -375q-133 -133 -397 -133zM604 119 q213 0 305 121q80 102 142.5 336.5t62.5 427.5q0 170 -65.5 240.5t-223.5 70.5q-199 0 -290 -105q-86 -94 -153 -332.5t-67 -441.5q0 -174 65.5 -245.5t223.5 -71.5z" glyph-name="Ohungarumlaut" horiz-adv-x="1372" unicode="Ő"/><glyph d="M475 1290l289 408h170l-330 -408h-129zM827 1290l289 408h168l-328 -408h-129zM494 -20q-207 0 -302.5 88t-95.5 278q0 217 70 418t176 289q109 94 328 94q207 0 302 -88t95 -277q0 -203 -64.5 -401.5t-160.5 -290.5q-112 -110 -348 -110zM496 102q168 0 241 76 q68 70 121 257.5t53 346.5q0 135 -54 188.5t-189 53.5q-160 0 -236 -70q-70 -68 -125 -255t-55 -353q0 -135 53.5 -189.5t190.5 -54.5z" glyph-name="ohungarumlaut" horiz-adv-x="1161" unicode="ő"/><glyph d="M1882 1296h-534l-84 -487h501l-24 -135h-502l-94 -539h557l-25 -137h-721l17 96q-133 -115 -377 -114q-238 0 -342 111.5t-104 348.5q0 250 78.5 509t213.5 380q139 125 391 125t357 -129l18 107h697zM608 119q197 0 301 119q92 104 149.5 346.5t57.5 431.5 q0 168 -70.5 233.5t-220.5 65.5q-190 0 -288 -105q-96 -104 -159 -341.5t-63 -442.5q0 -168 69.5 -237.5t223.5 -69.5z" glyph-name="OE" horiz-adv-x="1884" unicode="Œ"/><glyph d="M1438 1147q188 0 271 -83t83 -255q0 -111 -31 -264l-8 -37h-717q-10 -88 -10 -143q0 -141 59.5 -202t194.5 -61q129 0 356 66l11 -121q-227 -68 -385 -67q-274 0 -357 186q-127 -186 -407 -186q-215 0 -307.5 92t-92.5 288q0 176 58.5 373t158.5 295q119 119 355 119 q297 0 370 -182q33 51 72 82q121 100 326 100zM766 217q61 84 104 263t43 321q0 123 -54 173t-181 50q-193 0 -268 -100q-66 -82 -112 -269.5t-46 -326.5q0 -127 54 -176.5t183 -49.5q197 0 277 115zM1059 629h557q20 115 20 196q0 111 -45 155t-155 44q-166 0 -246 -92 q-84 -96 -131 -303z" glyph-name="oe" horiz-adv-x="1867" unicode="œ"/><glyph d="M1169 1999l-325 -395h-129l286 395h168zM1120 1128q0 -123 -51 -247.5t-147 -188.5q-53 -37 -140 -59l271 -633h-185l-241 610q-29 -2 -92 -2h-148l-106 -608h-166l252 1434h342q219 0 315 -75t96 -231zM825 801q61 49 93 143t32 178q0 106 -59.5 147.5t-190.5 41.5h-190 l-100 -578h135q198 0 280 68z" glyph-name="Racute" horiz-adv-x="1200" unicode="Ŕ"/><glyph d="M907 1692l-325 -396h-129l286 396h168zM408 987q109 160 340 160q20 0 49 -4l-33 -148q-35 20 -102 21q-252 0 -318 -361l-115 -655h-157l198 1128l129 13l-6 -154h15z" glyph-name="racute" horiz-adv-x="712" unicode="ŕ"/><glyph d="M922 692q-53 -37 -140 -59l271 -633h-185l-241 610q-29 -2 -92 -2h-148l-106 -608h-166l252 1434h342q219 0 315 -75t96 -231q0 -123 -51 -248t-147 -188zM410 733h135q199 0 280 68q61 49 93 143t32 178q0 106 -59.5 147.5t-190.5 41.5h-190zM354 -324l31 183h182 l-32 -183l-107 -237h-104l102 237h-72z" glyph-name="Rcommaaccent" horiz-adv-x="1200" unicode="Ŗ"/><glyph d="M748 1147q20 0 49 -4l-33 -148q-35 20 -102 21q-252 0 -318 -361l-115 -655h-157l198 1128l129 13l-6 -154h15q109 160 340 160zM145 -324l31 183h182l-32 -183l-107 -237h-104l102 237h-72z" glyph-name="rcommaaccent" horiz-adv-x="712" unicode="ŗ"/><glyph d="M698 1595l-198 396h123l174 -291l278 291h129l-336 -396h-170zM1120 1128q0 -123 -51 -247.5t-147 -188.5q-53 -37 -140 -59l271 -633h-185l-241 610q-29 -2 -92 -2h-148l-106 -608h-166l252 1434h342q219 0 315 -75t96 -231zM825 801q61 49 93 143t32 178 q0 106 -59.5 147.5t-190.5 41.5h-190l-100 -578h135q198 0 280 68z" glyph-name="Rcaron" horiz-adv-x="1200" unicode="Ř"/><glyph d="M436 1288l-198 395h122l175 -290l278 290h129l-336 -395h-170zM408 987q109 160 340 160q20 0 49 -4l-33 -148q-35 20 -102 21q-252 0 -318 -361l-115 -655h-157l198 1128l129 13l-6 -154h15z" glyph-name="rcaron" horiz-adv-x="712" unicode="ř"/><glyph d="M590 1604l287 395h167l-325 -395h-129zM350 -20q-162 0 -342 43l29 141q180 -45 315 -45q154 0 236 72.5t82 207.5q0 86 -64 148l-311 284q-94 88 -94 228q0 188 126 291.5t361 103.5q135 0 299 -29l-26 -137q-168 27 -267 27q-324 0 -323 -252q0 -78 49 -125l301 -272 q117 -109 117 -263q0 -195 -131.5 -309t-356.5 -114z" glyph-name="Sacute" horiz-adv-x="976" unicode="Ś"/><glyph d="M487 1296l287 396h168l-326 -396h-129zM279 -20q-109 0 -275 24l25 123q147 -25 243 -25q145 0 203 52q70 59 70 163q0 61 -51 107l-261 219q-80 66 -79 176q0 168 116 258q92 70 273 70q109 0 260 -27l-25 -123q-154 27 -237 27q-115 0 -166 -47q-61 -55 -62 -160 q0 -49 45 -88l236 -197q111 -92 111 -213q0 -154 -113 -253q-100 -86 -313 -86z" glyph-name="sacute" horiz-adv-x="837" unicode="ś"/><glyph d="M709 1886l-279 -291h-129l338 396h170l197 -396h-121zM201 1059q0 188 126 291.5t361 103.5q135 0 299 -29l-26 -137q-168 27 -267 27q-324 0 -323 -252q0 -78 49 -125l301 -272q117 -109 117 -263q0 -195 -131.5 -309t-356.5 -114q-162 0 -342 43l29 141 q180 -45 315 -45q154 0 236 72.5t82 207.5q0 86 -64 148l-311 284q-94 89 -94 228z" glyph-name="Scircumflex" horiz-adv-x="976" unicode="Ŝ"/><glyph d="M606 1579l-278 -291h-129l338 395h170l196 -395h-121zM270 1077q92 70 273 70q109 0 260 -27l-25 -123q-154 27 -237 27q-115 0 -166 -47q-61 -55 -62 -160q0 -49 45 -88l236 -197q111 -92 111 -213q0 -154 -113 -253q-100 -86 -313 -86q-109 0 -275 24l25 123 q147 -25 243 -25q145 0 203 52q70 59 70 163q0 61 -51 107l-261 219q-80 66 -79 176q-1 168 116 258z" glyph-name="scircumflex" horiz-adv-x="837" unicode="ŝ"/><glyph d="M694 1315q-324 0 -323 -252q0 -78 49 -125l301 -272q117 -109 117 -263q0 -178 -112 -290.5t-306 -128.5l-49 -105q172 -10 172 -135q0 -109 -60 -168q-66 -68 -196 -68q-70 0 -137 27l16 94q53 -23 110 -22q70 0 103 33q35 33 35 96q0 47 -74 47h-109l76 197 q-143 6 -299 43l29 141q180 -45 315 -45q154 0 236 72.5t82 207.5q0 86 -64 148l-311 284q-94 88 -94 228q0 188 126 291.5t361 103.5q135 0 299 -29l-26 -137q-169 27 -267 27z" glyph-name="Scedilla" horiz-adv-x="976" unicode="Ş"/><glyph d="M375 977q-61 -55 -62 -160q0 -49 45 -88l236 -197q111 -92 111 -213q0 -154 -113 -253q-74 -66 -219 -82l-49 -105q172 -10 172 -135q0 -109 -60 -168q-63 -68 -196 -68q-70 0 -138 27l17 94q53 -23 110 -22q70 0 103 33q35 33 35 96q0 47 -74 47h-109l76 197 q-121 4 -256 24l25 123q147 -25 243 -25q145 0 203 52q70 59 70 163q0 61 -51 107l-261 219q-80 66 -79 176q0 168 116 258q92 70 273 70q109 0 260 -27l-25 -123q-154 27 -237 27q-115 0 -166 -47z" glyph-name="scedilla" horiz-adv-x="837" unicode="ş"/><glyph d="M573 1595l-198 396h123l174 -291l278 291h129l-336 -396h-170zM201 1059q0 188 126 291.5t361 103.5q135 0 299 -29l-26 -137q-168 27 -267 27q-324 0 -323 -252q0 -78 49 -125l301 -272q117 -109 117 -263q0 -195 -131.5 -309t-356.5 -114q-162 0 -342 43l29 141 q180 -45 315 -45q154 0 236 72.5t82 207.5q0 86 -64 148l-311 284q-94 89 -94 228z" glyph-name="Scaron" horiz-adv-x="976" unicode="Š"/><glyph d="M471 1288l-199 395h123l174 -290l279 290h129l-336 -395h-170zM270 1077q92 70 273 70q109 0 260 -27l-25 -123q-154 27 -237 27q-115 0 -166 -47q-61 -55 -62 -160q0 -49 45 -88l236 -197q111 -92 111 -213q0 -154 -113 -253q-100 -86 -313 -86q-109 0 -275 24l25 123 q147 -25 243 -25q145 0 203 52q70 59 70 163q0 61 -51 107l-261 219q-80 66 -79 176q-1 168 116 258z" glyph-name="scaron" horiz-adv-x="837" unicode="š"/><glyph d="M438 0h-28l-58 -121q172 -10 172 -135q0 -109 -59 -168q-63 -68 -197 -68q-70 0 -137 27l16 94q53 -23 111 -22q70 0 102 33q35 33 35 96q0 47 -73 47h-109l84 217h-25l228 1298h-330l25 136h825l-25 -136h-329z" glyph-name="Tcommaaccent" horiz-adv-x="905" unicode="Ţ"/><glyph d="M446 1006l-127 -727q-10 -72 -10 -101q0 -45 18.5 -60.5t63.5 -15.5q57 0 111 13v-125q-45 -10 -117 -10q-47 0 -84 6l-49 -107q172 -10 172 -135q0 -109 -59 -168q-66 -68 -197 -68q-70 0 -137 27l16 94q53 -23 111 -22q70 0 102 33q35 33 35 96q0 47 -74 47h-108 l92 240q-51 43 -51 141q0 55 12 129l125 713h-185l23 120h184l47 273h156l-47 -273h244l-23 -120h-244z" glyph-name="tcommaaccent" horiz-adv-x="696" unicode="ţ"/><glyph d="M553 1595l-199 396h123l174 -291l279 291h129l-336 -396h-170zM1020 1434l-25 -136h-329l-228 -1298h-166l228 1298h-330l25 136h825z" glyph-name="Tcaron" horiz-adv-x="905" unicode="Ť"/><glyph d="M717 1645h180l-31 -183l-102 -235h-109l103 235h-74zM516 1399l-47 -273h244l-23 -120h-244l-127 -727q-10 -72 -10 -101q0 -45 18.5 -60.5t63.5 -15.5q57 0 111 13v-125q-45 -10 -117 -10q-125 0 -178 41.5t-53 142.5q0 55 12 129l125 713h-185l23 120h184l47 273h156z " glyph-name="tcaron" horiz-adv-x="696" unicode="ť"/><glyph d="M995 1298h-329l-91 -514h261l-25 -137h-258l-115 -647h-166l115 647h-254l25 137h252l90 514h-330l25 136h825z" glyph-name="Tbar" horiz-adv-x="905" unicode="Ŧ"/><glyph d="M690 1006h-244l-51 -301h244l-25 -136h-243l-52 -290q-10 -72 -10 -101q0 -45 18.5 -60.5t63.5 -15.5q57 0 111 13v-125q-45 -10 -117 -10q-125 0 -178 41.5t-53 142.5q0 55 12 129l49 276h-184l22 136h185l53 301h-185l23 120h184l47 273h156l-47 -273h244z" glyph-name="tbar" horiz-adv-x="696" unicode="ŧ"/><glyph d="M999 1630q-63 0 -116 45l-90 76q-23 16 -48 16q-72 0 -108 -122h-100q18 109 79.5 176t139.5 67q63 0 114 -43l93 -78q23 -18 45 -18q74 0 110 125h101q-20 -109 -82 -176.5t-138 -67.5zM584 -18q-227 0 -321.5 74.5t-94.5 244.5q0 86 22 215l160 920h166l-166 -947 q-18 -121 -18 -172q0 -113 57 -154.5t195 -41.5q174 0 252.5 81t113.5 292l164 942h166l-166 -953q-51 -293 -169.5 -397t-360.5 -104z" glyph-name="Utilde" horiz-adv-x="1323" unicode="Ũ"/><glyph d="M600 1460q-72 0 -108 -123h-101q18 109 79.5 176.5t139.5 67.5q61 0 115 -43l92 -78q23 -18 45 -18q74 0 111 125h100q-20 -109 -81.5 -176.5t-137.5 -67.5q-63 0 -117 45l-90 76q-22 16 -47 16zM922 1126h155l-198 -1128l-127 -12l6 145h-15q-96 -152 -329 -151 q-162 0 -231.5 60t-69.5 193q0 57 18 177l127 716h158l-129 -725q-14 -94 -15 -135q0 -90 45 -127t146 -37q139 0 222 71t112 239z" glyph-name="utilde" horiz-adv-x="1148" unicode="ũ"/><glyph d="M604 1817h561l-22 -121h-559zM584 -18q-227 0 -321.5 74.5t-94.5 244.5q0 86 22 215l160 920h166l-166 -947q-18 -121 -18 -172q0 -113 57 -154.5t195 -41.5q174 0 252.5 81t113.5 292l164 942h166l-166 -953q-51 -293 -169.5 -397t-360.5 -104z" glyph-name="Umacron" horiz-adv-x="1323" unicode="Ū"/><glyph d="M1020 1509l-23 -120h-559l21 120h561zM922 1126h155l-198 -1128l-127 -12l6 145h-15q-96 -152 -329 -151q-162 0 -231.5 60t-69.5 193q0 57 18 177l127 716h158l-129 -725q-14 -94 -15 -135q0 -90 45 -127t146 -37q139 0 222 71t112 239z" glyph-name="umacron" horiz-adv-x="1148" unicode="ū"/><glyph d="M862 1618q-285 0 -284 215q0 45 8 86l4 23h129l-8 -39q-6 -27 -6 -52q0 -121 161 -120q94 0 151.5 40.5t76.5 143.5l4 27h129l-8 -35q-29 -166 -117 -227.5t-240 -61.5zM584 -18q-227 0 -321.5 74.5t-94.5 244.5q0 86 22 215l160 920h166l-166 -947q-18 -121 -18 -172 q0 -113 57 -154.5t195 -41.5q174 0 252.5 81t113.5 292l164 942h166l-166 -953q-51 -293 -169.5 -397t-360.5 -104z" glyph-name="Ubreve" horiz-adv-x="1323" unicode="Ŭ"/><glyph d="M717 1311q-285 0 -285 215q0 45 8 86l4 22h129l-8 -39q-6 -27 -6 -51q0 -121 162 -121q94 0 151.5 41t75.5 144l4 26h129l-8 -35q-29 -166 -116.5 -227t-239.5 -61zM797 412l125 714h155l-198 -1128l-127 -12l6 145h-15q-96 -152 -329 -151q-162 0 -231.5 60t-69.5 193 q0 57 18 177l127 716h158l-129 -725q-14 -94 -15 -135q0 -90 45 -127t146 -37q139 0 222 71t112 239z" glyph-name="ubreve" horiz-adv-x="1148" unicode="ŭ"/><glyph d="M862 1577q-123 0 -173 45t-50 133q0 111 47 174q61 84 215 84q123 0 172 -45t49 -133q0 -106 -45 -174q-59 -84 -215 -84zM870 1667q86 0 117 47q27 37 27 107q0 53 -26.5 77.5t-94.5 24.5q-86 0 -119 -45q-27 -37 -26 -106q0 -55 27 -80t95 -25zM584 -18 q-227 0 -321.5 74.5t-94.5 244.5q0 86 22 215l160 920h166l-166 -947q-18 -121 -18 -172q0 -113 57 -154.5t195 -41.5q174 0 252.5 81t113.5 292l164 942h166l-166 -953q-51 -293 -169.5 -397t-360.5 -104z" glyph-name="Uring" horiz-adv-x="1323" unicode="Ů"/><glyph d="M717 1270q-123 0 -173 45t-50 133q0 111 47 174q61 84 215 84q123 0 172 -45t49 -133q0 -106 -45 -174q-59 -84 -215 -84zM629 1571q-27 -37 -27 -107q0 -55 27.5 -79.5t95.5 -24.5q86 0 117 47q27 37 26 106q0 53 -26.5 78t-93.5 25q-86 0 -119 -45zM922 1126h155 l-198 -1128l-127 -12l6 145h-15q-96 -152 -329 -151q-162 0 -231.5 60t-69.5 193q0 57 18 177l127 716h158l-129 -725q-14 -94 -15 -135q0 -90 45 -127t146 -37q139 0 222 71t112 239z" glyph-name="uring" horiz-adv-x="1148" unicode="ů"/><glyph d="M610 1597l289 408h170l-330 -408h-129zM963 1597l288 408h168l-327 -408h-129zM584 -18q-227 0 -321.5 74.5t-94.5 244.5q0 86 22 215l160 920h166l-166 -947q-18 -121 -18 -172q0 -113 57 -154.5t195 -41.5q174 0 252.5 81t113.5 292l164 942h166l-166 -953 q-51 -293 -169.5 -397t-360.5 -104z" glyph-name="Uhungarumlaut" horiz-adv-x="1323" unicode="Ű"/><glyph d="M924 1698l-330 -408h-129l289 408h170zM946 1290h-129l289 408h168zM797 412l125 714h155l-198 -1128l-127 -12l6 145h-15q-96 -152 -329 -151q-162 0 -231.5 60t-69.5 193q0 57 18 177l127 716h158l-129 -725q-14 -94 -15 -135q0 -90 45 -127t146 -37q139 0 222 71 t112 239z" glyph-name="uhungarumlaut" horiz-adv-x="1148" unicode="ű"/><glyph d="M1114 1436h166l-166 -953q-41 -231 -122 -341.5t-222 -141.5q-133 -102 -133 -207q0 -115 164 -115l6 -102q-55 -2 -98 12q-90 8 -145.5 54.5t-55.5 128.5q0 119 96 211h-20q-227 0 -321.5 74.5t-94.5 244.5q0 86 22 215l160 920h166l-166 -947q-18 -121 -18 -172 q0 -113 57 -154.5t195 -41.5q174 0 252.5 81t113.5 292z" glyph-name="Uogonek" horiz-adv-x="1323" unicode="Ų"/><glyph d="M750 -180q-10 -57 23.5 -99.5t137.5 -42.5l7 -102q-55 -2 -99 12q-104 10 -158.5 67.5t-35.5 164.5q16 104 129 192l4 119h-15q-96 -152 -329 -151q-162 0 -231.5 60t-69.5 193q0 57 18 177l127 716h158l-129 -725q-14 -94 -15 -135q0 -90 45 -127t146 -37q139 0 222 71 t112 239l125 714h155l-198 -1128q-117 -90 -129 -178z" glyph-name="uogonek" horiz-adv-x="1148" unicode="ų"/><glyph d="M1141 1886l-279 -291h-129l338 396h170l197 -396h-121zM1706 1434h174l-518 -1434h-281l-28 1298h-39l-488 -1298h-280l-10 1434h170l-9 -1299h43l482 1299h268l24 -1299h43z" glyph-name="Wcircumflex" horiz-adv-x="1808" unicode="Ŵ"/><glyph d="M1018 1579l-279 -291h-129l338 395h170l197 -395h-121zM1571 1126h168l-484 -1126h-243l-90 1008h-13l-446 -1008h-244l-84 1126h162l57 -1007h27l434 1007h238l77 -1007h29z" glyph-name="wcircumflex" horiz-adv-x="1669" unicode="ŵ"/><glyph d="M803 1886l-279 -291h-129l338 396h170l197 -396h-121zM1255 1434l-606 -869l-98 -565h-166l100 575l-290 859h178l213 -684h26l457 684h186z" glyph-name="Ycircumflex" horiz-adv-x="1138" unicode="Ŷ"/><glyph d="M676 1579l-279 -291h-129l338 395h170l197 -395h-121zM891 1126h168l-596 -1228q-70 -147 -170 -217t-252 -70q-51 0 -113 10l27 119q35 -6 84 -6q104 0 174 46t125 165l31 63h-80v2l-21 -2l-139 1118h164l104 -995h29z" glyph-name="ycircumflex" horiz-adv-x="983" unicode="ŷ"/><glyph d="M672 1851l-33 -180h-180l33 180h180zM1098 1851l-33 -180h-180l33 180h180zM1255 1434l-606 -869l-98 -565h-166l100 575l-290 859h178l213 -684h26l457 684h186z" glyph-name="Ydieresis" horiz-adv-x="1138" unicode="Ÿ"/><glyph d="M1079 1999l-325 -395h-129l286 395h168zM276 1298l25 136h768l-22 -136l-13 -65l-850 -1057l-8 -41h649l-24 -135h-813l24 135l13 70l849 1057l7 36h-605z" glyph-name="Zacute" horiz-adv-x="1013" unicode="Ź"/><glyph d="M956 1692l-325 -396h-129l286 396h168zM180 1004l23 122h686l-23 -122l-10 -58l-700 -784l-6 -39h579l-20 -123h-736l21 123l10 57l701 787l6 37h-531z" glyph-name="zacute" horiz-adv-x="878" unicode="ź"/><glyph d="M827 1851l-32 -182h-183l33 182h182zM301 1434h768l-22 -136l-13 -65l-850 -1057l-8 -41h649l-24 -135h-813l24 135l13 70l849 1057l7 36h-605z" glyph-name="Zdotaccent" horiz-adv-x="1013" unicode="Ż"/><glyph d="M705 1544l-33 -182h-183l33 182h183zM203 1126h686l-23 -122l-10 -58l-700 -784l-6 -39h579l-20 -123h-736l21 123l10 57l701 787l6 37h-531z" glyph-name="zdotaccent" horiz-adv-x="878" unicode="ż"/><glyph d="M608 1595l-198 396h122l175 -291l278 291h129l-336 -396h-170zM276 1298l25 136h768l-22 -136l-13 -65l-850 -1057l-8 -41h649l-24 -135h-813l24 135l13 70l849 1057l7 36h-605z" glyph-name="Zcaron" horiz-adv-x="1013" unicode="Ž"/><glyph d="M485 1288l-198 395h123l174 -290l278 290h129l-336 -395h-170zM180 1004l23 122h686l-23 -122l-10 -58l-700 -784l-6 -39h579l-20 -123h-736l21 123l10 57l701 787l6 37h-531z" glyph-name="zcaron" horiz-adv-x="878" unicode="ž"/><glyph d="M688 1548q74 0 135 -16l-24 -121q-49 14 -117 14q-96 0 -139 -52t-68 -197l-207 -1176h-157l176 1006h-201l23 120h200l10 64q37 209 112 283.5t257 74.5z" glyph-name="longs" horiz-adv-x="638" unicode="ſ"/><glyph d="M805 1548q74 0 135 -16l-25 -121q-49 14 -116 14q-96 0 -139.5 -52t-67.5 -197l-55 -312h249l-18 -121h-252l-141 -800q-35 -193 -102.5 -262.5t-231.5 -69.5q-23 0 -84 6l23 121q41 -4 57 -4q90 0 124 44t58 177l139 788h-200l20 121h201l57 326q37 209 112 283.5 t257 74.5z" glyph-name="florin" horiz-adv-x="860" unicode="ƒ"/><glyph d="M1432 1649h129l-33 -191q-23 -137 -90.5 -201.5t-175.5 -78.5q20 -80 20 -191q0 -240 -83 -499t-200 -375q-133 -133 -397 -133q-240 0 -347.5 111.5t-107.5 361.5q0 246 86 505t205 373q131 123 389 123q295 0 392 -170q154 20 182 182zM909 240q80 102 142.5 336.5 t62.5 427.5q0 170 -65.5 240.5t-223.5 70.5q-199 0 -290 -105q-86 -94 -153 -332.5t-67 -441.5q0 -174 65.5 -245.5t223.5 -71.5q213 0 305 121z" glyph-name="Ohorn" horiz-adv-x="1372" unicode="Ơ"/><glyph d="M1241 1358h129l-33 -191q-25 -141 -94 -205.5t-184 -76.5q8 -41 8 -103q0 -203 -64.5 -401.5t-160.5 -290.5q-113 -111 -348 -110q-207 0 -302.5 88t-95.5 278q0 217 70 418t176 289q109 94 328 94q270 0 354 -154q158 18 186 183zM737 178q68 70 121 257.5t53 346.5 q0 135 -54 188.5t-189 53.5q-160 0 -236 -70q-70 -68 -125 -255t-55 -353q0 -135 53 -189.5t191 -54.5q167 0 241 76z" glyph-name="ohorn" horiz-adv-x="1161" unicode="ơ"/><glyph d="M1489 1800h129l-33 -190q-27 -154 -107.5 -217.5t-217.5 -69.5l-146 -840q-51 -293 -170 -397t-360 -104q-227 0 -321.5 74.5t-94.5 244.5q0 86 22 215l160 920h166l-166 -947q-18 -121 -18 -172q0 -113 57 -154.5t195 -41.5q174 0 252.5 81t113.5 292l164 942h158 q156 16 186 182z" glyph-name="Uhorn" horiz-adv-x="1323" unicode="Ư"/><glyph d="M1284 1493h129l-33 -190q-27 -154 -106.5 -217.5t-214.5 -69.5l-180 -1018l-127 -12l6 145h-15q-96 -152 -329 -151q-162 0 -231.5 60t-69.5 193q0 57 18 177l127 716h158l-129 -725q-14 -94 -15 -135q0 -90 45 -127t146 -37q139 0 222 71t112 239l125 714h104 q193 0 227 185z" glyph-name="uhorn" horiz-adv-x="1148" unicode="ư"/><glyph d="M1872 1595l-199 396h123l174 -291l279 291h129l-336 -396h-170zM786 1434q229 0 339 -116t110 -355q0 -217 -68.5 -442.5t-171.5 -346.5q-150 -174 -448 -174h-432l252 1434h419zM1540 1298l25 136h768l-23 -136l-12 -65l-850 -1057l-8 -41h649l-25 -135h-813l25 135 l12 70l850 1057l6 36h-604zM868 258q82 106 142.5 316t60.5 393q0 180 -70.5 262t-224.5 82h-266l-207 -1188h256q200 0 309 135z" glyph-name="uni01C4" horiz-adv-x="2277" unicode="Ǆ"/><glyph d="M1772 1288l-199 395h123l174 -290l278 290h129l-335 -395h-170zM786 1434q229 0 339 -116t110 -355q0 -217 -68.5 -442.5t-171.5 -346.5q-150 -174 -448 -174h-432l252 1434h419zM868 258q82 106 142.5 316t60.5 393q0 180 -70.5 262t-224.5 82h-266l-207 -1188h256 q200 0 309 135zM1466 1004l23 122h686l-23 -122l-10 -58l-700 -784l-6 -39h579l-20 -123h-735l20 123l10 57l701 787l6 37h-531z" glyph-name="uni01C5" horiz-adv-x="2164" unicode="ǅ"/><glyph d="M1661 1288l-199 395h123l174 -290l279 290h129l-336 -395h-170zM897 1006l92 530h158l-273 -1538l-126 -12l8 155q-92 -162 -314 -161q-176 0 -261 90t-85 274q0 207 65.5 405.5t166.5 290.5q113 106 313 107q211 0 256 -141zM1356 1004l22 122h686l-22 -122l-10 -58 l-701 -784l-6 -39h580l-21 -123h-735l20 123l11 57l700 787l6 37h-530zM467 102q143 0 219 70t105 225l20 121h-39l10 57h-10l10 64h49l19 102q10 55 10 101q0 96 -48 139t-159 43q-158 0 -227 -82q-68 -74 -121 -258t-53 -344q0 -131 48 -184.5t167 -53.5z" glyph-name="uni01C6" horiz-adv-x="2054" unicode="ǆ"/><glyph d="M532 1434l-227 -1299h465l-25 -135h-630l252 1434h165zM1366 1434h166l-197 -1123q-33 -182 -104.5 -256.5t-239.5 -74.5q-86 0 -149 18l24 135q49 -14 121 -14q82 0 123 44t61 161z" glyph-name="uni01C7" horiz-adv-x="1585" unicode="Ǉ"/><glyph d="M1243 1544h184l-32 -182h-185zM770 135l-25 -135h-630l252 1434h165l-227 -1299h465zM977 -45l205 1171h155l-207 -1183q-37 -195 -103 -262.5t-234 -69.5q-63 0 -125 14l24 121q53 -12 109 -12q82 0 117.5 46t58.5 175z" glyph-name="uni01C8" horiz-adv-x="1419" unicode="ǈ"/><glyph d="M899 1362l33 182h184l-33 -182h-184zM344 -20q-131 0 -185.5 40.5t-54.5 143.5q0 55 15 129l217 1243h158l-222 -1257q-12 -68 -12 -101q0 -43 17.5 -59.5t64.5 -16.5q63 0 113 13v-125q-56 -10 -111 -10zM481 -389q-63 0 -125 14l25 121q53 -12 108 -12q82 0 118 46 t59 175l204 1171h156l-207 -1183q-37 -195 -103.5 -262.5t-234.5 -69.5z" glyph-name="uni01C9" horiz-adv-x="1107" unicode="ǉ"/><glyph d="M1159 1434h166l-252 -1434h-307l-234 1298h-24l-227 -1298h-166l252 1434h309l231 -1299h25zM1839 1434h166l-197 -1123q-33 -182 -104.5 -256.5t-239.5 -74.5q-84 0 -149 18l24 135q49 -14 121 -14q82 0 123 44t62 161z" glyph-name="uni01CA" horiz-adv-x="2058" unicode="Ǌ"/><glyph d="M1716 1544h185l-33 -182h-185zM1159 1434h166l-252 -1434h-307l-234 1298h-24l-227 -1298h-166l252 1434h309l231 -1299h25zM1450 -45l205 1171h155l-206 -1183q-37 -195 -103.5 -262.5t-234.5 -69.5q-63 0 -125 14l24 121q51 -12 109 -12q82 0 117.5 46t58.5 175z" glyph-name="uni01CB" horiz-adv-x="1892" unicode="ǋ"/><glyph d="M1507 1544h185l-33 -182h-184zM1047 885q0 -63 -19 -168l-127 -717h-156l127 725q14 74 15 131q0 92 -45 130t-154 38q-150 0 -227.5 -71.5t-106.5 -237.5l-125 -715h-157l198 1128l129 13l-8 -144h15q53 80 129.5 115t199.5 35q162 0 237 -62.5t75 -199.5zM1241 -45 l205 1171h156l-207 -1183q-37 -195 -103.5 -262.5t-234.5 -69.5q-63 0 -125 14l24 121q51 -12 109 -12q82 0 117.5 46t58.5 175z" glyph-name="uni01CC" horiz-adv-x="1683" unicode="ǌ"/><glyph d="M713 1595l-199 396h123l174 -291l279 291h129l-336 -396h-170zM907 1434l154 -1434h-172l-37 401h-539l-178 -401h-176l662 1434h286zM375 539h465l-68 759h-59z" glyph-name="uni01CD" horiz-adv-x="1218" unicode="Ǎ"/><glyph d="M553 1288l-199 395h123l174 -290l279 290h129l-336 -395h-170zM600 1147q315 0 315 -266q0 -55 -12 -123l-133 -760l-127 -12l6 137h-12q-98 -143 -305 -143q-299 0 -299 260q0 92 34.5 178t94.5 139q96 88 278 88h287l23 125q8 47 8 94q0 86 -44 123t-149 37 q-98 0 -305 -45l-10 123q223 45 350 45zM362 102q139 0 218 74t106 230l21 116h-271q-106 0 -162 -55q-35 -35 -58 -99.5t-23 -127.5q0 -72 39.5 -105t129.5 -33z" glyph-name="uni01CE" horiz-adv-x="1026" unicode="ǎ"/><glyph d="M774 1991h129l-336 -396h-170l-198 396h123l174 -291zM115 0l252 1434h165l-251 -1434h-166z" glyph-name="uni01CF" horiz-adv-x="591" unicode="Ǐ"/><glyph d="M674 1683h129l-336 -395h-170l-199 395h123l174 -290zM72 0l198 1126h158l-199 -1126h-157z" glyph-name="uni01D0" horiz-adv-x="495" unicode="ǐ"/><glyph d="M788 1595l-198 396h123l174 -291l278 291h129l-336 -396h-170zM827 1454q240 0 347.5 -110.5t107.5 -356.5q0 -240 -83 -499t-200 -375q-133 -133 -397 -133q-240 0 -347.5 111.5t-107.5 361.5q0 246 86 505t205 373q131 123 389 123zM909 240q80 102 142.5 336.5 t62.5 427.5q0 170 -65.5 240.5t-223.5 70.5q-199 0 -290 -105q-86 -94 -153 -332.5t-67 -441.5q0 -174 65.5 -245.5t223.5 -71.5q213 0 305 121z" glyph-name="uni01D1" horiz-adv-x="1372" unicode="Ǒ"/><glyph d="M629 1288l-199 395h123l174 -290l279 290h129l-336 -395h-170zM670 1147q207 0 302 -88t95 -277q0 -203 -64.5 -401.5t-160.5 -290.5q-113 -111 -348 -110q-207 0 -302.5 88t-95.5 278q0 217 70 418t176 289q109 94 328 94zM737 178q68 70 121 257.5t53 346.5 q0 135 -54 188.5t-189 53.5q-160 0 -236 -70q-70 -68 -125 -255t-55 -353q0 -135 53 -189.5t191 -54.5q167 0 241 76z" glyph-name="uni01D2" horiz-adv-x="1161" unicode="ǒ"/><glyph d="M764 1595l-199 396h123l174 -291l279 291h129l-336 -396h-170zM1114 1436h166l-166 -953q-51 -293 -170 -397t-360 -104q-227 0 -321.5 74.5t-94.5 244.5q0 86 22 215l160 920h166l-166 -947q-18 -121 -18 -172q0 -113 57 -154.5t195 -41.5q174 0 252.5 81t113.5 292z " glyph-name="uni01D3" horiz-adv-x="1323" unicode="Ǔ"/><glyph d="M618 1288l-198 395h123l174 -290l278 290h129l-336 -395h-170zM797 412l125 714h155l-198 -1128l-127 -12l6 145h-15q-96 -152 -329 -151q-162 0 -231.5 60t-69.5 193q0 57 18 177l127 716h158l-129 -725q-14 -94 -15 -135q0 -90 45 -127t146 -37q139 0 222 71t112 239z " glyph-name="uni01D4" horiz-adv-x="1148" unicode="ǔ"/><glyph d="M664 2173h561l-23 -121h-559zM588 1851h180l-33 -180h-180zM1014 1851h180l-33 -180h-180zM584 -18q-227 0 -321.5 74.5t-94.5 244.5q0 86 22 215l160 920h166l-166 -947q-18 -121 -18 -172q0 -113 57 -154.5t195 -41.5q174 0 252.5 81t113.5 292l164 942h166l-166 -953 q-51 -293 -169.5 -397t-360.5 -104z" glyph-name="uni01D5" horiz-adv-x="1323" unicode="Ǖ"/><glyph d="M1079 1866l-22 -121h-559l20 121h561zM623 1544l-33 -180h-180l32 180h181zM1016 1364h-180l32 180h181zM797 412l125 714h155l-198 -1128l-127 -12l6 145h-15q-96 -152 -329 -151q-162 0 -231.5 60t-69.5 193q0 57 18 177l127 716h158l-129 -725q-14 -94 -15 -135 q0 -90 45 -127t146 -37q139 0 222 71t112 239z" glyph-name="uni01D6" horiz-adv-x="1148" unicode="ǖ"/><glyph d="M858 1985l285 397h170l-326 -397h-129zM588 1851h180l-33 -180h-180zM1014 1851h180l-33 -180h-180zM584 -18q-227 0 -321.5 74.5t-94.5 244.5q0 86 22 215l160 920h166l-166 -947q-18 -121 -18 -172q0 -113 57 -154.5t195 -41.5q174 0 252.5 81t113.5 292l164 942h166 l-166 -953q-51 -293 -169.5 -397t-360.5 -104z" glyph-name="uni01D7" horiz-adv-x="1323" unicode="Ǘ"/><glyph d="M1167 2075l-325 -398h-129l284 398h170zM623 1544l-33 -180h-180l32 180h181zM1016 1364h-180l32 180h181zM797 412l125 714h155l-198 -1128l-127 -12l6 145h-15q-96 -152 -329 -151q-162 0 -231.5 60t-69.5 193q0 57 18 177l127 716h158l-129 -725q-14 -94 -15 -135 q0 -90 45 -127t146 -37q139 0 222 71t112 239z" glyph-name="uni01D8" horiz-adv-x="1148" unicode="ǘ"/><glyph d="M831 1985l3 2l-197 395h121l174 -291l276 291h131l-340 -397h-168zM768 1851l-33 -180h-180l33 180h180zM1161 1671h-180l33 180h180zM950 494l164 942h166l-166 -953q-51 -293 -170 -397t-360 -104q-227 0 -321.5 74.5t-94.5 244.5q0 86 22 215l160 920h166l-166 -947 q-18 -121 -18 -172q0 -113 57 -154.5t195 -41.5q174 0 252.5 81t113.5 292z" glyph-name="uni01D9" horiz-adv-x="1323" unicode="Ǚ"/><glyph d="M686 1677l2 2l-196 396h120l174 -291l277 291h131l-340 -398h-168zM623 1544l-33 -180h-180l32 180h181zM1016 1364h-180l32 180h181zM797 412l125 714h155l-198 -1128l-127 -12l6 145h-15q-96 -152 -329 -151q-162 0 -231.5 60t-69.5 193q0 57 18 177l127 716h158 l-129 -725q-14 -94 -15 -135q0 -90 45 -127t146 -37q139 0 222 71t112 239z" glyph-name="uni01DA" horiz-adv-x="1148" unicode="ǚ"/><glyph d="M856 1985l-186 397h161l146 -397h-121zM555 1671l33 180h180l-33 -180h-180zM981 1671l33 180h180l-33 -180h-180zM584 -18q-227 0 -321.5 74.5t-94.5 244.5q0 86 22 215l160 920h166l-166 -947q-18 -121 -18 -172q0 -113 57 -154.5t195 -41.5q174 0 252.5 81t113.5 292 l164 942h166l-166 -953q-51 -293 -169.5 -397t-360.5 -104z" glyph-name="uni01DB" horiz-adv-x="1323" unicode="Ǜ"/><glyph d="M831 1677h-120l-187 398h162zM623 1544l-33 -180h-180l32 180h181zM1049 1544l-33 -180h-180l32 180h181zM922 1126h155l-198 -1128l-127 -12l6 145h-15q-96 -152 -329 -151q-162 0 -231.5 60t-69.5 193q0 57 18 177l127 716h158l-129 -725q-14 -94 -15 -135 q0 -90 45 -127t146 -37q139 0 222 71t112 239z" glyph-name="uni01DC" horiz-adv-x="1148" unicode="ǜ"/><glyph d="M1450 1817l-23 -121h-559l21 121h561zM1589 1298h-530l-84 -487h500l-25 -137h-500l-94 -539h555l-25 -135h-720l69 401h-416l-223 -401h-174l821 1434h871zM760 539l133 759h-72l-424 -759h363z" glyph-name="uni01E2" horiz-adv-x="1593" unicode="Ǣ"/><glyph d="M750 1595l-199 396h123l174 -291l278 291h129l-335 -396h-170zM432 1323q158 131 430 131q184 0 314 -43l-29 -141q-127 45 -293 45q-211 0 -317 -107q-88 -90 -157 -330.5t-69 -451.5q0 -168 57.5 -238.5t192.5 -70.5q158 0 242 68.5t110 220.5l43 256h-235l24 135h394 l-142 -799l-125 -12l5 135h-11q-115 -141 -334 -141q-385 0 -385 448q0 276 82 534.5t203 360.5z" glyph-name="Gcaron" horiz-adv-x="1247" unicode="Ǧ"/><glyph d="M604 1288l-198 395h122l174 -290l279 290h129l-336 -395h-170zM1147 1126l-12 -92l-183 -33q53 -53 54 -159q0 -94 -36 -195.5t-91 -159.5q-102 -109 -340 -108q-127 0 -213 29l-41 -33q-57 -45 -58 -82q0 -63 107 -64h180q231 0 337.5 -57t106.5 -184q0 -197 -130 -287 t-414 -90q-236 0 -341.5 52t-105.5 167q0 227 205 293l2 14q-88 43 -88 135q0 96 111 174l32 23q-66 66 -65 197q0 115 45 226.5t115 170.5q98 84 317 84q115 0 184 -21h322zM768 580q33 43 57.5 129t24.5 161q0 86 -45 120t-162 34q-160 0 -219 -59q-41 -41 -70.5 -130.5 t-29.5 -172.5q0 -90 45 -125t163 -35q179 0 236 78zM498 104q-195 0 -283 -61t-88 -197q0 -63 66.5 -87.5t234.5 -24.5q199 0 285 56t86 190q0 72 -63.5 98t-237.5 26z" glyph-name="gcaron" horiz-adv-x="1114" unicode="ǧ"/><glyph d="M735 1595l-198 396h122l175 -291l278 291h129l-336 -396h-170zM1245 1434l-614 -691l391 -743h-184l-346 674h-93l-118 -674h-166l252 1434h165l-108 -623h88l539 623h194z" glyph-name="uni01E8" horiz-adv-x="1155" unicode="Ǩ"/><glyph d="M397 1647l-198 395h123l174 -291l278 291h129l-336 -395h-170zM1073 1126l-541 -508l367 -618h-174l-324 559h-73l-99 -559h-157l270 1536h158l-152 -856h70l467 446h188z" glyph-name="uni01E9" horiz-adv-x="999" unicode="ǩ"/><glyph d="M786 1434q229 0 339 -116t110 -355q0 -217 -68.5 -442.5t-171.5 -346.5q-150 -174 -448 -174h-432l252 1434h419zM1565 1434h768l-23 -136l-12 -65l-850 -1057l-8 -41h649l-25 -135h-813l25 135l12 70l850 1057l6 36h-604zM868 258q82 106 142.5 316t60.5 393 q0 180 -70.5 262t-224.5 82h-266l-207 -1188h256q200 0 309 135z" glyph-name="uni01F1" horiz-adv-x="2277" unicode="Ǳ"/><glyph d="M786 1434q229 0 339 -116t110 -355q0 -217 -68.5 -442.5t-171.5 -346.5q-150 -174 -448 -174h-432l252 1434h419zM868 258q82 106 142.5 316t60.5 393q0 180 -70.5 262t-224.5 82h-266l-207 -1188h256q200 0 309 135zM1489 1126h686l-23 -122l-10 -58l-700 -784l-6 -39 h579l-20 -123h-735l20 123l10 57l701 787l6 37h-531z" glyph-name="uni01F2" horiz-adv-x="2164" unicode="ǲ"/><glyph d="M897 1006l92 530h158l-273 -1538l-126 -12l8 155q-92 -162 -314 -161q-176 0 -261 90t-85 274q0 207 65.5 405.5t166.5 290.5q113 106 313 107q211 0 256 -141zM1378 1126h686l-22 -122l-10 -58l-701 -784l-6 -39h580l-21 -123h-735l20 123l11 57l700 787l6 37h-530z M467 102q143 0 219 70t105 225l20 121h-39l10 57h-10l10 64h49l19 102q10 55 10 101q0 96 -48 139t-159 43q-158 0 -227 -82q-68 -74 -121 -258t-53 -344q0 -131 48 -184.5t167 -53.5z" glyph-name="uni01F3" horiz-adv-x="2054" unicode="ǳ"/><glyph d="M1221 1999l-326 -395h-129l287 395h168zM432 1323q158 131 430 131q184 0 314 -43l-29 -141q-127 45 -293 45q-211 0 -317 -107q-88 -90 -157 -330.5t-69 -451.5q0 -168 57.5 -238.5t192.5 -70.5q158 0 242 68.5t110 220.5l43 256h-235l24 135h394l-142 -799l-125 -12 l5 135h-11q-115 -141 -334 -141q-385 0 -385 448q0 276 82 534.5t203 360.5z" glyph-name="uni01F4" horiz-adv-x="1247" unicode="Ǵ"/><glyph d="M1075 1692l-325 -396h-129l286 396h168zM1147 1126l-12 -92l-183 -33q53 -53 54 -159q0 -94 -36 -195.5t-91 -159.5q-102 -109 -340 -108q-127 0 -213 29l-41 -33q-57 -45 -58 -82q0 -63 107 -64h180q231 0 337.5 -57t106.5 -184q0 -197 -130 -287t-414 -90 q-236 0 -341.5 52t-105.5 167q0 227 205 293l2 14q-88 43 -88 135q0 96 111 174l32 23q-66 66 -65 197q0 115 45 226.5t115 170.5q98 84 317 84q115 0 184 -21h322zM768 580q33 43 57.5 129t24.5 161q0 86 -45 120t-162 34q-160 0 -219 -59q-41 -41 -70.5 -130.5 t-29.5 -172.5q0 -90 45 -125t163 -35q179 0 236 78zM498 104q-195 0 -283 -61t-88 -197q0 -63 66.5 -87.5t234.5 -24.5q199 0 285 56t86 190q0 72 -63.5 98t-237.5 26z" glyph-name="uni01F5" horiz-adv-x="1114" unicode="ǵ"/><glyph d="M1270 2484l-326 -395h-129l287 395h168zM850 2013q125 0 174 -45t49 -133q0 -109 -47 -174q-57 -84 -215 -84q-123 0 -172 45t-49 135q0 109 45 172q59 84 215 84zM936 1712q29 39 29 111q0 51 -28 75.5t-95 24.5q-84 0 -117 -45q-29 -39 -29 -109q0 -53 28 -77.5 t95 -24.5q80 0 117 45zM907 1434l154 -1434h-172l-37 401h-539l-178 -401h-176l662 1434h286zM375 539h465l-68 759h-59z" glyph-name="Aringacute" horiz-adv-x="1218" unicode="Ǻ"/><glyph d="M1110 2177l-326 -395h-129l287 395h168zM651 1270q-123 0 -172 45t-49 135q0 109 45 172q59 84 215 84q125 0 174 -45t49 -133q0 -109 -47 -174q-57 -84 -215 -84zM565 1571q-29 -39 -28 -109q0 -53 27.5 -77.5t94.5 -24.5q80 0 117 45q29 39 29 111q0 51 -27.5 75.5 t-95.5 24.5q-84 0 -117 -45zM600 1147q315 0 315 -266q0 -55 -12 -123l-133 -760l-127 -12l6 137h-12q-98 -143 -305 -143q-299 0 -299 260q0 92 34.5 178t94.5 139q96 88 278 88h287l23 125q8 47 8 94q0 86 -44 123t-149 37q-98 0 -305 -45l-10 123q223 45 350 45zM362 102 q139 0 218 74t106 230l21 116h-271q-106 0 -162 -55q-35 -35 -58 -99.5t-23 -127.5q0 -72 39.5 -105t129.5 -33z" glyph-name="aringacute" horiz-adv-x="1026" unicode="ǻ"/><glyph d="M1520 1999l-326 -395h-129l287 395h168zM1589 1298h-530l-84 -487h500l-25 -137h-500l-94 -539h555l-25 -135h-720l69 401h-416l-223 -401h-174l821 1434h871zM760 539l133 759h-72l-424 -759h363z" glyph-name="AEacute" horiz-adv-x="1593" unicode="Ǽ"/><glyph d="M1262 1999l-326 -395h-129l287 395h168zM1153 1362q129 -109 129 -375q0 -240 -83 -499t-200 -375q-133 -133 -397 -133q-125 0 -209 28l-61 -110h-154l98 174q-129 111 -129 381q0 246 86 505t205 373q131 123 389 123q125 0 209 -29l62 111h153zM315 436 q0 -145 43 -217l605 1077q-55 18 -138 19q-199 0 -290 -105q-86 -94 -153 -332.5t-67 -441.5zM909 240q80 102 142.5 336.5t62.5 427.5q0 137 -43 210l-604 -1077q55 -18 137 -18q213 0 305 121z" glyph-name="Oslashacute" horiz-adv-x="1372" unicode="Ǿ"/><glyph d="M1108 1692l-326 -396h-129l287 396h168zM948 1079q119 -86 119 -297q0 -203 -64.5 -401.5t-160.5 -290.5q-113 -111 -348 -110q-94 0 -154 16l-55 -98h-152l84 149q-121 88 -121 299q0 217 70 418t176 289q109 94 328 94q94 0 153 -14l56 96h153zM252 346q0 -117 37 -170 l471 840q-35 8 -92 8q-160 0 -236 -70q-70 -68 -125 -255t-55 -353zM737 178q68 70 121 257.5t53 346.5q0 115 -37 166l-471 -837q35 -8 93 -9q167 0 241 76z" glyph-name="oslashacute" horiz-adv-x="1161" unicode="ǿ"/><glyph d="M676 1597h-123l-184 408h161zM1026 1597h-123l-184 408h162zM889 0l-37 401h-539l-178 -401h-176l662 1434h286l154 -1434h-172zM375 539h465l-68 759h-59z" glyph-name="uni0200" horiz-adv-x="1218" unicode="Ȁ"/><glyph d="M516 1290h-123l-184 408h162zM866 1290h-123l-184 408h162zM600 1147q315 0 315 -266q0 -55 -12 -123l-133 -760l-127 -12l6 137h-12q-98 -143 -305 -143q-299 0 -299 260q0 92 34.5 178t94.5 139q96 88 278 88h287l23 125q8 47 8 94q0 86 -44 123t-149 37 q-98 0 -305 -45l-10 123q223 45 350 45zM362 102q139 0 218 74t106 230l21 116h-271q-106 0 -162 -55q-35 -35 -58 -99.5t-23 -127.5q0 -72 39.5 -105t129.5 -33z" glyph-name="uni0201" horiz-adv-x="1026" unicode="ȁ"/><glyph d="M850 1942q135 0 207.5 -48.5t72.5 -164.5q0 -45 -8 -89l-4 -22h-129l8 41q6 29 7 51q0 121 -162 121q-106 0 -158.5 -47t-67.5 -137l-6 -29h-129l6 37q27 143 105 215t258 72zM907 1434l154 -1434h-172l-37 401h-539l-178 -401h-176l662 1434h286zM375 539h465l-68 759 h-59z" glyph-name="uni0202" horiz-adv-x="1218" unicode="Ȃ"/><glyph d="M690 1634q135 0 208 -48t73 -165q0 -45 -8 -88l-5 -22h-129l9 41q6 29 6 51q0 121 -162 121q-106 0 -158.5 -47t-66.5 -138l-6 -28h-129l6 37q27 143 104.5 214.5t257.5 71.5zM600 1147q315 0 315 -266q0 -55 -12 -123l-133 -760l-127 -12l6 137h-12q-98 -143 -305 -143 q-299 0 -299 260q0 92 34.5 178t94.5 139q96 88 278 88h287l23 125q8 47 8 94q0 86 -44 123t-149 37q-98 0 -305 -45l-10 123q223 45 350 45zM362 102q139 0 218 74t106 230l21 116h-271q-106 0 -162 -55q-35 -35 -58 -99.5t-23 -127.5q0 -72 39.5 -105t129.5 -33z" glyph-name="uni0203" horiz-adv-x="1026" unicode="ȃ"/><glyph d="M627 1597h-123l-185 408h162zM977 1597h-123l-184 408h161zM1042 1298h-534l-84 -487h502l-25 -137h-502l-94 -539h557l-24 -135h-723l252 1434h698z" glyph-name="uni0204" horiz-adv-x="1044" unicode="Ȅ"/><glyph d="M561 1290h-123l-184 408h162zM911 1290h-123l-184 408h162zM657 1147q184 0 272.5 -85t88.5 -263q0 -102 -29 -248l-8 -43h-719q-10 -78 -10 -135q0 -145 58.5 -208t195.5 -63q127 0 358 66l8 -121q-225 -68 -387 -67q-199 0 -295 100t-96 307q0 180 61.5 362.5 t155.5 274.5q121 123 346 123zM285 629h559q20 129 20 188q0 111 -48 159t-161 48q-158 0 -237 -92q-82 -92 -133 -303z" glyph-name="uni0205" horiz-adv-x="1095" unicode="ȅ"/><glyph d="M801 1942q135 0 207.5 -48.5t72.5 -164.5q0 -45 -8 -89l-4 -22h-129l8 41q6 29 6 51q0 121 -161 121q-106 0 -158.5 -47t-67.5 -137l-6 -29h-129l6 37q27 143 105 215t258 72zM1065 1434l-23 -136h-534l-84 -487h502l-25 -137h-502l-94 -539h557l-24 -135h-723l252 1434 h698z" glyph-name="uni0206" horiz-adv-x="1044" unicode="Ȇ"/><glyph d="M502 1339l-6 -28h-129l6 37q27 143 104.5 214.5t257.5 71.5q135 0 208 -48t73 -165q0 -45 -8 -88l-4 -22h-130l9 41q6 29 6 51q0 121 -162 121q-106 0 -158.5 -47.5t-66.5 -137.5zM657 1147q184 0 272.5 -85t88.5 -263q0 -102 -29 -248l-8 -43h-719q-10 -78 -10 -135 q0 -145 58.5 -208t195.5 -63q127 0 358 66l8 -121q-225 -68 -387 -67q-199 0 -295 100t-96 307q0 180 61.5 362.5t155.5 274.5q121 123 346 123zM285 629h559q20 129 20 188q0 111 -48 159t-161 48q-158 0 -237 -92q-82 -92 -133 -303z" glyph-name="uni0207" horiz-adv-x="1095" unicode="ȇ"/><glyph d="M238 1597l-185 408h162l145 -408h-122zM588 1597l-185 408h162l146 -408h-123zM532 1434l-251 -1434h-166l252 1434h165z" glyph-name="uni0208" horiz-adv-x="591" unicode="Ȉ"/><glyph d="M137 1290l-184 408h162l145 -408h-123zM487 1290l-184 408h162l145 -408h-123zM428 1126l-199 -1126h-157l198 1126h158z" glyph-name="uni0209" horiz-adv-x="495" unicode="ȉ"/><glyph d="M166 1618l6 37q27 143 104.5 215t258.5 72q135 0 207.5 -48.5t72.5 -164.5q0 -45 -8 -89l-4 -22h-129l8 41q6 29 6 51q0 121 -162 121q-106 0 -158.5 -47t-66.5 -137l-6 -29h-129zM532 1434l-251 -1434h-166l252 1434h165z" glyph-name="uni020A" horiz-adv-x="591" unicode="Ȋ"/><glyph d="M66 1311l6 37q27 143 104.5 214.5t257.5 71.5q135 0 208 -48t73 -165q0 -45 -8 -88l-5 -22h-129l9 41q6 29 6 51q0 121 -162 121q-106 0 -158.5 -47t-66.5 -138l-6 -28h-129zM428 1126l-199 -1126h-157l198 1126h158z" glyph-name="uni020B" horiz-adv-x="495" unicode="ȋ"/><glyph d="M629 1597l-185 408h162l146 -408h-123zM979 1597l-184 408h161l146 -408h-123zM602 -20q-240 0 -347.5 111.5t-107.5 361.5q0 246 86 505t205 373q131 123 389 123q240 0 347.5 -110.5t107.5 -356.5q0 -240 -83 -499t-200 -375q-133 -133 -397 -133zM604 119 q213 0 305 121q80 102 142.5 336.5t62.5 427.5q0 170 -65.5 240.5t-223.5 70.5q-199 0 -290 -105q-86 -94 -153 -332.5t-67 -441.5q0 -174 65.5 -245.5t223.5 -71.5z" glyph-name="uni020C" horiz-adv-x="1372" unicode="Ȍ"/><glyph d="M469 1290l-184 408h161l146 -408h-123zM819 1290l-184 408h162l145 -408h-123zM494 -20q-207 0 -302.5 88t-95.5 278q0 217 70 418t176 289q109 94 328 94q207 0 302 -88t95 -277q0 -203 -64.5 -401.5t-160.5 -290.5q-112 -110 -348 -110zM496 102q168 0 241 76 q68 70 121 257.5t53 346.5q0 135 -54 188.5t-189 53.5q-160 0 -236 -70q-70 -68 -125 -255t-55 -353q0 -135 53.5 -189.5t190.5 -54.5z" glyph-name="uni020D" horiz-adv-x="1161" unicode="ȍ"/><glyph d="M557 1618l6 37q27 143 104.5 215t258.5 72q135 0 207.5 -48.5t72.5 -164.5q0 -45 -8 -89l-4 -22h-129l8 41q6 29 6 51q0 121 -161 121q-106 0 -158.5 -47t-67.5 -137l-6 -29h-129zM602 -20q-240 0 -347.5 111.5t-107.5 361.5q0 246 86 505t205 373q131 123 389 123 q240 0 347.5 -110.5t107.5 -356.5q0 -240 -83 -499t-200 -375q-133 -133 -397 -133zM604 119q213 0 305 121q80 102 142.5 336.5t62.5 427.5q0 170 -65.5 240.5t-223.5 70.5q-199 0 -290 -105q-86 -94 -153 -332.5t-67 -441.5q0 -174 65.5 -245.5t223.5 -71.5z" glyph-name="uni020E" horiz-adv-x="1372" unicode="Ȏ"/><glyph d="M397 1311l6 37q27 143 105 214.5t258 71.5q135 0 208 -48t73 -165q0 -45 -9 -88l-4 -22h-129l8 41q6 29 7 51q0 121 -162 121q-106 0 -158.5 -47t-67.5 -138l-6 -28h-129zM494 -20q-207 0 -302.5 88t-95.5 278q0 217 70 418t176 289q109 94 328 94q207 0 302 -88t95 -277 q0 -203 -64.5 -401.5t-160.5 -290.5q-112 -110 -348 -110zM496 102q168 0 241 76q68 70 121 257.5t53 346.5q0 135 -54 188.5t-189 53.5q-160 0 -236 -70q-70 -68 -125 -255t-55 -353q0 -135 53.5 -189.5t190.5 -54.5z" glyph-name="uni020F" horiz-adv-x="1161" unicode="ȏ"/><glyph d="M662 1597h-123l-185 408h162zM1012 1597h-123l-184 408h161zM922 692q-53 -37 -140 -59l271 -633h-185l-241 610q-29 -2 -92 -2h-148l-106 -608h-166l252 1434h342q219 0 315 -75t96 -231q0 -123 -51 -248t-147 -188zM410 733h135q199 0 280 68q61 49 93 143t32 178 q0 106 -59.5 147.5t-190.5 41.5h-190z" glyph-name="uni0210" horiz-adv-x="1200" unicode="Ȑ"/><glyph d="M399 1290h-123l-184 408h162zM750 1290h-123l-185 408h162zM748 1147q20 0 49 -4l-33 -148q-35 20 -102 21q-252 0 -318 -361l-115 -655h-157l198 1128l129 13l-6 -154h15q109 160 340 160z" glyph-name="uni0211" horiz-adv-x="712" unicode="ȑ"/><glyph d="M602 1647l-6 -29h-129l6 37q27 143 104.5 215t258.5 72q135 0 207.5 -48.5t72.5 -164.5q0 -45 -8 -89l-4 -22h-129l8 41q6 29 6 51q0 121 -162 121q-106 0 -158.5 -47t-66.5 -137zM922 692q-53 -37 -140 -59l271 -633h-185l-241 610q-29 -2 -92 -2h-148l-106 -608h-166 l252 1434h342q219 0 315 -75t96 -231q0 -123 -51 -248t-147 -188zM410 733h135q199 0 280 68q61 49 93 143t32 178q0 106 -59.5 147.5t-190.5 41.5h-190z" glyph-name="uni0212" horiz-adv-x="1200" unicode="Ȓ"/><glyph d="M573 1634q135 0 208 -48t73 -165q0 -45 -8 -88l-4 -22h-129l8 41q6 29 6 51q0 121 -162 121q-106 0 -158.5 -47t-66.5 -138l-6 -28h-129l6 37q27 143 104.5 214.5t257.5 71.5zM408 987q109 160 340 160q20 0 49 -4l-33 -148q-35 20 -102 21q-252 0 -318 -361l-115 -655 h-157l198 1128l129 13l-6 -154h15z" glyph-name="uni0213" horiz-adv-x="712" unicode="ȓ"/><glyph d="M604 1597l-184 408h162l145 -408h-123zM954 1597l-184 408h162l145 -408h-123zM584 -18q-227 0 -321.5 74.5t-94.5 244.5q0 86 22 215l160 920h166l-166 -947q-18 -121 -18 -172q0 -113 57 -154.5t195 -41.5q174 0 252.5 81t113.5 292l164 942h166l-166 -953 q-51 -293 -169.5 -397t-360.5 -104z" glyph-name="uni0214" horiz-adv-x="1323" unicode="Ȕ"/><glyph d="M582 1290h-123l-185 408h162zM932 1290h-123l-184 408h161zM922 1126h155l-198 -1128l-127 -12l6 145h-15q-96 -152 -329 -151q-162 0 -231.5 60t-69.5 193q0 57 18 177l127 716h158l-129 -725q-14 -94 -15 -135q0 -90 45 -127t146 -37q139 0 222 71t112 239z" glyph-name="uni0215" horiz-adv-x="1148" unicode="ȕ"/><glyph d="M532 1618l7 37q27 143 104.5 215t257.5 72q135 0 208 -48.5t73 -164.5q0 -45 -8 -89l-5 -22h-129l9 41q6 29 6 51q0 121 -162 121q-106 0 -158.5 -47t-66.5 -137l-6 -29h-130zM584 -18q-227 0 -321.5 74.5t-94.5 244.5q0 86 22 215l160 920h166l-166 -947 q-18 -121 -18 -172q0 -113 57 -154.5t195 -41.5q174 0 252.5 81t113.5 292l164 942h166l-166 -953q-51 -293 -169.5 -397t-360.5 -104z" glyph-name="uni0216" horiz-adv-x="1323" unicode="Ȗ"/><glyph d="M522 1339l-6 -28h-129l6 37q27 143 104.5 214.5t258.5 71.5q135 0 207.5 -48t72.5 -165q0 -45 -8 -88l-4 -22h-129l8 41q6 29 6 51q0 121 -161 121q-106 0 -159 -47.5t-67 -137.5zM922 1126h155l-198 -1128l-127 -12l6 145h-15q-96 -152 -329 -151q-162 0 -231.5 60 t-69.5 193q0 57 18 177l127 716h158l-129 -725q-14 -94 -15 -135q0 -90 45 -127t146 -37q139 0 222 71t112 239z" glyph-name="uni0217" horiz-adv-x="1148" unicode="ȗ"/><glyph d="M694 1315q-324 0 -323 -252q0 -78 49 -125l301 -272q117 -109 117 -263q0 -195 -131.5 -309t-356.5 -114q-162 0 -342 43l29 141q180 -45 315 -45q154 0 236 72.5t82 207.5q0 86 -64 148l-311 284q-94 88 -94 228q0 188 126 291.5t361 103.5q135 0 299 -29l-26 -137 q-169 27 -267 27zM227 -324l31 183h182l-32 -183l-107 -237h-104l102 237h-72z" glyph-name="Scommaaccent" horiz-adv-x="976" unicode="Ș"/><glyph d="M375 977q-61 -55 -62 -160q0 -49 45 -88l236 -197q111 -92 111 -213q0 -154 -113 -253q-100 -86 -313 -86q-109 0 -275 24l25 123q147 -25 243 -25q145 0 203 52q70 59 70 163q0 61 -51 107l-261 219q-80 66 -79 176q0 168 116 258q92 70 273 70q109 0 260 -27l-25 -123 q-154 27 -237 27q-115 0 -166 -47zM180 -324l31 183h182l-33 -183l-106 -237h-104l102 237h-72z" glyph-name="scommaaccent" horiz-adv-x="837" unicode="ș"/><glyph d="M1020 1434l-25 -136h-329l-228 -1298h-166l228 1298h-330l25 136h825zM209 -324l31 183h182l-33 -183l-106 -237h-105l103 237h-72z" glyph-name="uni021A" horiz-adv-x="905" unicode="Ț"/><glyph d="M446 1006l-127 -727q-10 -72 -10 -101q0 -45 18.5 -60.5t63.5 -15.5q57 0 111 13v-125q-45 -10 -117 -10q-125 0 -178 41.5t-53 142.5q0 55 12 129l125 713h-185l23 120h184l47 273h156l-47 -273h244l-23 -120h-244zM109 -324l30 183h183l-33 -183l-107 -237h-104 l102 237h-71z" glyph-name="uni021B" horiz-adv-x="696" unicode="ț"/><glyph d="M784 1595l-198 396h123l174 -291l278 291h129l-336 -396h-170zM1143 1434h166l-252 -1434h-166l119 674h-611l-118 -674h-166l252 1434h165l-108 -623h610z" glyph-name="uni021E" horiz-adv-x="1368" unicode="Ȟ"/><glyph d="M397 1647l-198 395h123l174 -291l278 291h129l-336 -395h-170zM743 1147q162 0 233 -59.5t71 -196.5q0 -70 -19 -174l-127 -717h-156l127 725q14 72 15 131q0 92 -45 130t-150 38q-150 0 -229.5 -73.5t-108.5 -235.5l-125 -715h-157l270 1536h158l-92 -520h14 q98 131 321 131z" glyph-name="uni021F" horiz-adv-x="1157" unicode="ȟ"/><glyph d="M1069 1817l-22 -121h-560l21 121h561zM1255 1434l-606 -869l-98 -565h-166l100 575l-290 859h178l213 -684h26l457 684h186z" glyph-name="uni0232" horiz-adv-x="1138" unicode="Ȳ"/><glyph d="M942 1509l-22 -120h-560l21 120h561zM891 1126h168l-596 -1228q-70 -147 -170 -217t-252 -70q-51 0 -113 10l27 119q35 -6 84 -6q104 0 174 46t125 165l31 63h-80v2l-21 -2l-139 1118h164l104 -995h29z" glyph-name="uni0233" horiz-adv-x="983" unicode="ȳ"/><glyph d="M-119 -389q-63 0 -125 14l25 121q45 -12 108 -12q82 0 118 46t59 175l204 1171h156l-207 -1183q-37 -195 -103.5 -262.5t-234.5 -69.5z" glyph-name="uni0237" horiz-adv-x="507" unicode="ȷ"/><glyph d="M872 1288h-120l-177 291l-278 -291h-129l338 395h170z" glyph-name="circumflex" horiz-adv-x="784" unicode="ˆ"/><glyph d="M819 1683h129l-336 -395h-170l-198 395h123l174 -290z" glyph-name="caron" horiz-adv-x="788" unicode="ˇ"/><glyph d="M594 1311q-285 0 -285 215q0 45 8 86l5 22h129l-9 -39q-6 -27 -6 -51q0 -121 162 -121q94 0 151.5 41t75.5 144l4 26h129l-8 -35q-29 -166 -116.5 -227t-239.5 -61z" glyph-name="breve" horiz-adv-x="899" unicode="˘"/><glyph d="M346 1544h182l-32 -182h-183z" glyph-name="dotaccent" horiz-adv-x="524" unicode="˙"/><glyph d="M524 1270q-123 0 -173 45t-50 133q0 111 47 174q61 84 215 84q123 0 172 -45t49 -133q0 -106 -45 -174q-59 -84 -215 -84zM532 1360q86 0 117 47q27 37 27 106q0 53 -26.5 78t-94.5 25q-86 0 -119 -45q-27 -37 -26 -107q0 -55 27 -79.5t95 -24.5z" glyph-name="ring" horiz-adv-x="759" unicode="˚"/><glyph d="M285 -424q-55 -2 -99 12q-90 8 -145 54.5t-55 128.5q0 143 153 258l111 -29q-135 -100 -135 -207q0 -115 164 -115z" glyph-name="ogonek" horiz-adv-x="528" unicode="˛"/><glyph d="M737 1323q-63 0 -116 45l-91 76q-23 16 -47 16q-72 0 -108 -123h-101q18 109 80 176.5t140 67.5q63 0 114 -43l92 -78q20 -18 45 -18q74 0 111 125h100q-20 -109 -81.5 -176.5t-137.5 -67.5z" glyph-name="tilde" horiz-adv-x="915" unicode="˜"/><glyph d="M193 1290l288 408h170l-329 -408h-129zM545 1290l289 408h167l-327 -408h-129z" glyph-name="hungarumlaut" horiz-adv-x="847" unicode="˝"/><glyph d="M-61 1296l-185 396h162l145 -396h-122z" glyph-name="gravecomb" unicode="̀"/><glyph d="M-303 1296l287 396h168l-326 -396h-129z" glyph-name="acutecomb" unicode="́"/><glyph d="M86 1288h-121l-176 291l-278 -291h-129l337 395h170z" glyph-name="uni0302" unicode="̂"/><glyph d="M-182 1323q-63 0 -117 45l-90 76q-23 16 -47 16q-72 0 -109 -123h-100q18 109 79.5 176.5t139.5 67.5q61 0 115 -43l92 -78q20 -18 45 -18q74 0 111 125h100q-20 -109 -81.5 -176.5t-137.5 -67.5z" glyph-name="tildecomb" unicode="̃"/><glyph d="M-565 1509h561l-23 -120h-559z" glyph-name="uni0304" unicode="̄"/><glyph d="M-307 1311q-285 0 -285 215q0 45 8 86l4 22h129l-8 -39q-6 -27 -6 -51q0 -121 162 -121q94 0 151.5 41t75.5 144l4 26h129l-8 -35q-29 -166 -116.5 -227t-239.5 -61z" glyph-name="uni0306" unicode="̆"/><glyph d="M-180 1544h182l-33 -182h-182z" glyph-name="uni0307" unicode="̇"/><glyph d="M-604 1544h180l-33 -180h-180zM-178 1544h180l-33 -180h-180z" glyph-name="uni0308" unicode="̈"/><glyph d="M-254 1303q12 63 25.5 91.5t52.5 53.5l53 37q27 18 39 33q12 18 12 42.5t-16 33t-62 8.5q-27 0 -102 -7v95q84 10 137 10q92 0 131 -27.5t39 -85.5q0 -59 -22 -92q-14 -23 -53 -55l-76 -51q-53 -37 -62 -86h-96z" glyph-name="hookabovecomb" unicode="̉"/><glyph d="M-238 1270q-123 0 -173 45t-50 133q0 111 47 174q61 84 215 84q123 0 172.5 -45t49.5 -133q0 -106 -46 -174q-59 -84 -215 -84zM-229 1360q86 0 116 47q27 37 27 106q0 53 -26.5 78t-94.5 25q-86 0 -119 -45q-27 -37 -26 -107q0 -55 27.5 -79.5t95.5 -24.5z" glyph-name="uni030A" unicode="̊"/><glyph d="M-657 1290l288 408h170l-329 -408h-129zM-305 1290l289 408h168l-328 -408h-129z" glyph-name="uni030B" unicode="̋"/><glyph d="M29 1683h129l-336 -395h-170l-199 395h123l174 -290z" glyph-name="uni030C" unicode="̌"/><glyph d="M-395 1290l-185 408h162l146 -408h-123zM-45 1290l-184 408h161l146 -408h-123z" glyph-name="uni030F" unicode="̏"/><glyph d="M-635 1311l6 37q27 143 105 214.5t258 71.5q135 0 207.5 -48t72.5 -165q0 -45 -8 -88l-4 -22h-129l8 41q6 29 6 51q0 121 -161 121q-106 0 -158.5 -47t-67.5 -138l-6 -28h-129z" glyph-name="uni0311" unicode="̑"/><glyph d="M49 1782l-102 -238h73l-32 -180h-183l33 180l105 238h106z" glyph-name="uni0312" unicode="̒"/><glyph d="M-336 1171l10 111q193 0 228 184l30 183h129l-32 -191q-29 -164 -119 -225.5t-246 -61.5z" glyph-name="uni031B" unicode="̛"/><glyph d="M-477 -141h184l-33 -183h-182z" glyph-name="dotbelowcomb" unicode="̣"/><glyph d="M-455 -141h183l-33 -183l-107 -237h-104l102 237h-71z" glyph-name="uni0326" unicode="̦"/><glyph d="M-422 -121q172 -10 172 -135q0 -109 -59 -168q-63 -68 -197 -68q-70 0 -137 27l16 94q53 -23 111 -22q70 0 102 33q35 33 35 96q0 47 -74 47h-108l108 280h117z" glyph-name="uni0327" unicode="̧"/><glyph d="M-246 -424q-55 -2 -98 12q-90 8 -145.5 54.5t-55.5 128.5q0 143 154 258l110 -29q-135 -100 -135 -207q0 -115 164 -115z" glyph-name="uni0328" unicode="̨"/><glyph d="M-834 643h678l-24 -137h-678z" glyph-name="uni0335" unicode="̵"/><glyph d="M-967 702h822l-25 -137h-821z" glyph-name="uni0336" unicode="̶"/><glyph d="M-713 -102l678 1331h156l-680 -1331h-154z" glyph-name="uni0337" unicode="̷"/><glyph d="M-815 -102l835 1638h154l-836 -1638h-153z" glyph-name="uni0338" unicode="̸"/><glyph d="M930 1851l-33 -182h-182l33 182h182zM895 737q160 -59 160 -235q0 -119 -41 -227.5t-109 -165.5q-121 -109 -420 -109h-370l252 1434h376q395 0 396 -260q0 -207 -115 -332q-49 -49 -125 -84zM510 1307l-86 -498h154q236 0 311 90q35 41 57.5 113.5t22.5 142.5 q0 84 -55.5 118t-198.5 34h-205zM788 211q45 43 72 122t27 167q0 100 -63.5 141t-219.5 41h-205l-96 -555h195q208 0 290 84z" glyph-name="uni1E02" horiz-adv-x="1220" unicode="Ḃ"/><glyph d="M864 1544l-33 -182h-182l33 182h182zM692 1147q184 0 270.5 -93t86.5 -294q0 -176 -55.5 -361.5t-137.5 -279.5q-117 -139 -338 -139q-209 0 -260 139h-20l-41 -133l-125 12l270 1538h158l-86 -498h10q86 109 268 109zM739 201q59 80 107.5 257t48.5 324q0 131 -50 186.5 t-169 55.5q-139 0 -215 -70.5t-103 -222.5l-61 -352q-10 -61 -10 -100q0 -94 49 -135.5t160 -41.5q169 1 243 99z" glyph-name="uni1E03" horiz-adv-x="1144" unicode="ḃ"/><glyph d="M866 1851l-32 -182h-183l33 182h182zM1016 1298h-508l-92 -528h469l-23 -137h-471l-110 -633h-166l252 1434h671z" glyph-name="uni1E1E" horiz-adv-x="983" unicode="Ḟ"/><glyph d="M752 1851l-33 -182h-182l32 182h183zM682 1425q-96 0 -139 -52t-68 -197l-8 -50h250l-23 -120h-250l-176 -1006h-157l176 1006h-201l23 120h200l10 64q37 209 112 283.5t257 74.5q74 0 135 -16l-24 -121q-49 14 -117 14z" glyph-name="uni1E1F" horiz-adv-x="638" unicode="ḟ"/><glyph d="M1128 1851l-32 -182h-183l33 182h182zM1559 1434l-252 -1434h-166l227 1298h-18l-457 -964h-244l-117 964h-24l-227 -1298h-166l252 1434h299l116 -965h21l459 965h297z" glyph-name="uni1E40" horiz-adv-x="1617" unicode="Ṁ"/><glyph d="M1149 1544l-33 -182h-182l33 182h182zM1360 1147q152 0 222.5 -62.5t70.5 -197.5q0 -63 -19 -170l-127 -717h-157l129 725q14 96 14 137q0 86 -42 124t-136 38q-137 0 -214 -73.5t-104 -229.5l-129 -721h-157l129 725q14 86 14 137q0 88 -41 125t-139 37 q-139 0 -215 -71.5t-105 -231.5l-125 -721h-157l198 1128l129 13l-8 -146h12q94 152 318 152q240 0 280 -156h17q102 156 342 156z" glyph-name="uni1E41" horiz-adv-x="1763" unicode="ṁ"/><glyph d="M881 1851l-33 -182h-182l32 182h183zM690 1434q227 0 326.5 -74t99.5 -242q0 -127 -50 -246.5t-128 -187.5q-125 -111 -389 -111h-168l-100 -573h-166l252 1434h323zM821 776q53 51 89 146.5t36 191.5q0 109 -59.5 153t-208.5 44h-168l-107 -615h156q178 0 262 80z" glyph-name="uni1E56" horiz-adv-x="1120" unicode="Ṗ"/><glyph d="M840 1544l-33 -182h-182l32 182h183zM705 1147q184 0 265 -95.5t81 -275.5q0 -168 -54.5 -362.5t-152.5 -300.5q-119 -133 -338 -133q-184 0 -240 104h-22l-80 -453h-158l264 1497l129 13l-6 -131h15q92 137 297 137zM735 201q72 88 116 274.5t44 323.5q0 127 -51 176 t-166 49q-135 0 -214 -66.5t-108 -232.5l-59 -330q-10 -66 -10 -108q0 -104 52 -144.5t153 -40.5q167 1 243 99z" glyph-name="uni1E57" horiz-adv-x="1144" unicode="ṗ"/><glyph d="M610 1851h183l-33 -182h-182zM350 -20q-162 0 -342 43l29 141q180 -45 315 -45q154 0 236 72.5t82 207.5q0 86 -64 148l-311 284q-94 88 -94 228q0 188 126 291.5t361 103.5q135 0 299 -29l-26 -137q-168 27 -267 27q-324 0 -323 -252q0 -78 49 -125l301 -272 q117 -109 117 -263q0 -195 -131.5 -309t-356.5 -114z" glyph-name="uni1E60" horiz-adv-x="976" unicode="Ṡ"/><glyph d="M508 1544h182l-33 -182h-182zM279 -20q-109 0 -275 24l25 123q147 -25 243 -25q145 0 203 52q70 59 70 163q0 61 -51 107l-261 219q-80 66 -79 176q0 168 116 258q92 70 273 70q109 0 260 -27l-25 -123q-154 27 -237 27q-115 0 -166 -47q-61 -55 -62 -160q0 -49 45 -88 l236 -197q111 -92 111 -213q0 -154 -113 -253q-100 -86 -313 -86z" glyph-name="uni1E61" horiz-adv-x="837" unicode="ṡ"/><glyph d="M772 1851l-33 -182h-182l33 182h182zM1020 1434l-25 -136h-329l-228 -1298h-166l228 1298h-330l25 136h825z" glyph-name="uni1E6A" horiz-adv-x="905" unicode="Ṫ"/><glyph d="M578 1673l-33 -182h-183l33 182h183zM446 1006l-127 -727q-10 -72 -10 -101q0 -45 18.5 -60.5t63.5 -15.5q57 0 111 13v-125q-45 -10 -117 -10q-125 0 -178 41.5t-53 142.5q0 55 12 129l125 713h-185l23 120h184l47 273h156l-47 -273h244l-23 -120h-244z" glyph-name="uni1E6B" horiz-adv-x="696" unicode="ṫ"/><glyph d="M1145 1604h-123l-184 395h161zM1706 1434h174l-518 -1434h-281l-28 1298h-39l-488 -1298h-280l-10 1434h170l-9 -1299h43l482 1299h268l24 -1299h43z" glyph-name="Wgrave" horiz-adv-x="1808" unicode="Ẁ"/><glyph d="M1022 1296h-123l-184 396h162zM1571 1126h168l-484 -1126h-243l-90 1008h-13l-446 -1008h-244l-84 1126h162l57 -1007h27l434 1007h238l77 -1007h29z" glyph-name="wgrave" horiz-adv-x="1669" unicode="ẁ"/><glyph d="M1477 1999l-326 -395h-129l287 395h168zM1706 1434h174l-518 -1434h-281l-28 1298h-39l-488 -1298h-280l-10 1434h170l-9 -1299h43l482 1299h268l24 -1299h43z" glyph-name="Wacute" horiz-adv-x="1808" unicode="Ẃ"/><glyph d="M1354 1692l-326 -396h-129l287 396h168zM1571 1126h168l-484 -1126h-243l-90 1008h-13l-446 -1008h-244l-84 1126h162l57 -1007h27l434 1007h238l77 -1007h29z" glyph-name="wacute" horiz-adv-x="1669" unicode="ẃ"/><glyph d="M1010 1851l-33 -180h-180l32 180h181zM1436 1851l-33 -180h-180l32 180h181zM1706 1434h174l-518 -1434h-281l-28 1298h-39l-488 -1298h-280l-10 1434h170l-9 -1299h43l482 1299h268l24 -1299h43z" glyph-name="Wdieresis" horiz-adv-x="1808" unicode="Ẅ"/><glyph d="M887 1544l-33 -180h-180l33 180h180zM1313 1544l-33 -180h-180l33 180h180zM1571 1126h168l-484 -1126h-243l-90 1008h-13l-446 -1008h-244l-84 1126h162l57 -1007h27l434 1007h238l77 -1007h29z" glyph-name="wdieresis" horiz-adv-x="1669" unicode="ẅ"/><glyph d="M1245 1229l-344 -371l-8 -47l188 -135q72 -53 108 -104.5t36 -135.5q0 -219 -133.5 -337.5t-358.5 -118.5q-125 0 -295 38l29 142q182 -41 270 -41q154 0 236 75.5t82 215.5q0 90 -84 149l-285 197l12 92l396 422q-94 47 -273 47q-160 0 -248 -61.5t-110 -190.5 l-189 -1065h-165l190 1079q33 193 165 284t374 91q268 0 424 -96z" glyph-name="uni1E9E" horiz-adv-x="1357" unicode="ẞ"/><glyph d="M1061 0h-172l-37 401h-539l-178 -401h-176l662 1434h286zM375 539h465l-68 759h-59zM367 -324l30 183h185l-33 -183h-182z" glyph-name="uni1EA0" horiz-adv-x="1218" unicode="Ạ"/><glyph d="M600 1147q315 0 315 -266q0 -55 -12 -123l-133 -760l-127 -12l6 137h-12q-98 -143 -305 -143q-299 0 -299 260q0 92 34.5 178t94.5 139q96 88 278 88h287l23 125q8 47 8 94q0 86 -44 123t-149 37q-98 0 -305 -45l-10 123q223 45 350 45zM362 102q139 0 218 74t106 230 l21 116h-271q-106 0 -162 -55q-35 -35 -58 -99.5t-23 -127.5q0 -72 39.5 -105t129.5 -33zM246 -324l30 183h185l-33 -183h-182z" glyph-name="uni1EA1" horiz-adv-x="1026" unicode="ạ"/><glyph d="M881 1792q27 18 39 33q12 18 12 42.5t-16.5 33t-61.5 8.5q-25 0 -102 -6v94q84 10 137 10q92 0 131 -27.5t39 -85.5q0 -59 -23 -92q-14 -23 -53 -55l-76 -51q-53 -37 -61 -86h-96q12 63 25 92t52 53zM889 0l-37 401h-539l-178 -401h-176l662 1434h286l154 -1434h-172z M375 539h465l-68 759h-59z" glyph-name="uni1EA2" horiz-adv-x="1218" unicode="Ả"/><glyph d="M721 1485q27 18 39 33q12 18 12 42.5t-16.5 33t-61.5 8.5q-27 0 -102 -7v95q84 10 137 10q92 0 131 -27.5t39 -85.5q0 -59 -22 -92q-14 -23 -54 -55l-75 -51q-53 -37 -62 -86h-96q12 63 25.5 91.5t52.5 53.5zM600 1147q315 0 315 -266q0 -55 -12 -123l-133 -760l-127 -12 l6 137h-12q-98 -143 -305 -143q-299 0 -299 260q0 92 34.5 178t94.5 139q96 88 278 88h287l23 125q8 47 8 94q0 86 -44 123t-149 37q-98 0 -305 -45l-10 123q223 45 350 45zM362 102q139 0 218 74t106 230l21 116h-271q-106 0 -162 -55q-35 -35 -58 -99.5t-23 -127.5 q0 -72 39.5 -105t129.5 -33z" glyph-name="uni1EA3" horiz-adv-x="1026" unicode="ả"/><glyph d="M1399 2238h168l-326 -395h-129zM948 1991l197 -396h-121l-176 291l-279 -291h-129l338 396h170zM907 1434l154 -1434h-172l-37 401h-539l-178 -401h-176l662 1434h286zM375 539h465l-68 759h-59z" glyph-name="uni1EA4" horiz-adv-x="1218" unicode="Ấ"/><glyph d="M1239 1931h168l-326 -395h-129zM788 1683l197 -395h-121l-176 291l-278 -291h-129l337 395h170zM600 1147q315 0 315 -266q0 -55 -12 -123l-133 -760l-127 -12l6 137h-12q-98 -143 -305 -143q-299 0 -299 260q0 92 34.5 178t94.5 139q96 88 278 88h287l23 125q8 47 8 94 q0 86 -44 123t-149 37q-98 0 -305 -45l-10 123q223 45 350 45zM362 102q139 0 218 74t106 230l21 116h-271q-106 0 -162 -55q-35 -35 -58 -99.5t-23 -127.5q0 -72 39.5 -105t129.5 -33z" glyph-name="uni1EA5" horiz-adv-x="1026" unicode="ấ"/><glyph d="M1141 2238l145 -395h-121l-186 395h162zM948 1991l197 -396h-121l-176 291l-279 -291h-129l338 396h170zM907 1434l154 -1434h-172l-37 401h-539l-178 -401h-176l662 1434h286zM375 539h465l-68 759h-59z" glyph-name="uni1EA6" horiz-adv-x="1218" unicode="Ầ"/><glyph d="M981 1931l145 -395h-120l-187 395h162zM788 1683l197 -395h-121l-176 291l-278 -291h-129l337 395h170zM600 1147q315 0 315 -266q0 -55 -12 -123l-133 -760l-127 -12l6 137h-12q-98 -143 -305 -143q-299 0 -299 260q0 92 34.5 178t94.5 139q96 88 278 88h287l23 125 q8 47 8 94q0 86 -44 123t-149 37q-98 0 -305 -45l-10 123q223 45 350 45zM362 102q139 0 218 74t106 230l21 116h-271q-106 0 -162 -55q-35 -35 -58 -99.5t-23 -127.5q0 -72 39.5 -105t129.5 -33z" glyph-name="uni1EA7" horiz-adv-x="1026" unicode="ầ"/><glyph d="M1251 2243q170 0 170 -115q0 -45 -14 -76q-18 -37 -64 -70l-73 -53q-53 -37 -64 -86h-94q12 66 25.5 93.5t50.5 52.5l55 36q27 18 39 39q10 16 10 39q0 25 -15 32t-60 7q-25 0 -103 -6l-2 94q84 13 139 13zM946 1991l197 -396h-121l-176 291l-279 -291h-129l338 396h170z M907 1434l154 -1434h-172l-37 401h-539l-178 -401h-176l662 1434h286zM375 539h465l-68 759h-59z" glyph-name="uni1EA8" horiz-adv-x="1218" unicode="Ẩ"/><glyph d="M1092 1935q170 0 170 -114q0 -45 -15 -76q-18 -37 -63 -70l-74 -53q-53 -37 -63 -86h-95q12 66 25.5 93.5t50.5 51.5l55 37q27 18 39 39q10 16 11 39q0 25 -15.5 32t-60.5 7q-25 0 -103 -6l-2 94q85 12 140 12zM786 1683l197 -395h-121l-176 291l-278 -291h-129l337 395 h170zM600 1147q315 0 315 -266q0 -55 -12 -123l-133 -760l-127 -12l6 137h-12q-98 -143 -305 -143q-299 0 -299 260q0 92 34.5 178t94.5 139q96 88 278 88h287l23 125q8 47 8 94q0 86 -44 123t-149 37q-98 0 -305 -45l-10 123q223 45 350 45zM362 102q139 0 218 74t106 230 l21 116h-271q-106 0 -162 -55q-35 -35 -58 -99.5t-23 -127.5q0 -72 39.5 -105t129.5 -33z" glyph-name="uni1EA9" horiz-adv-x="1026" unicode="ẩ"/><glyph d="M1139 2312l100 -4q-20 -106 -81.5 -174t-139.5 -68q-61 0 -115 45l-90 76q-23 16 -47 17q-72 0 -111 -127l-98 4q18 109 79.5 176t139.5 67q63 0 115 -43l92 -77q23 -18 47 -19q72 0 109 127zM946 1991l197 -396h-121l-176 291l-279 -291h-129l338 396h170zM907 1434 l154 -1434h-172l-37 401h-539l-178 -401h-176l662 1434h286zM375 539h465l-68 759h-59z" glyph-name="uni1EAA" horiz-adv-x="1218" unicode="Ẫ"/><glyph d="M979 2005l100 -4q-20 -106 -81.5 -174t-139.5 -68q-61 0 -115 45l-90 76q-23 16 -47 16q-72 0 -110 -127l-99 5q18 109 80 176t139 67q63 0 115 -43l92 -78q20 -18 47 -18q72 0 109 127zM786 1683l197 -395h-121l-176 291l-278 -291h-129l337 395h170zM600 1147 q315 0 315 -266q0 -55 -12 -123l-133 -760l-127 -12l6 137h-12q-98 -143 -305 -143q-299 0 -299 260q0 92 34.5 178t94.5 139q96 88 278 88h287l23 125q8 47 8 94q0 86 -44 123t-149 37q-98 0 -305 -45l-10 123q223 45 350 45zM362 102q139 0 218 74t106 230l21 116h-271 q-106 0 -162 -55q-35 -35 -58 -99.5t-23 -127.5q0 -72 39.5 -105t129.5 -33z" glyph-name="uni1EAB" horiz-adv-x="1026" unicode="ẫ"/><glyph d="M848 1886l-279 -291h-129l338 396h170l197 -396h-121zM907 1434l154 -1434h-172l-37 401h-539l-178 -401h-176l662 1434h286zM375 539h465l-68 759h-59zM367 -324l30 183h185l-33 -183h-182z" glyph-name="uni1EAC" horiz-adv-x="1218" unicode="Ậ"/><glyph d="M688 1579l-278 -291h-129l337 395h170l197 -395h-121zM600 1147q315 0 315 -266q0 -55 -12 -123l-133 -760l-127 -12l6 137h-12q-98 -143 -305 -143q-299 0 -299 260q0 92 34.5 178t94.5 139q96 88 278 88h287l23 125q8 47 8 94q0 86 -44 123t-149 37q-98 0 -305 -45 l-10 123q223 45 350 45zM362 102q139 0 218 74t106 230l21 116h-271q-106 0 -162 -55q-35 -35 -58 -99.5t-23 -127.5q0 -72 39.5 -105t129.5 -33zM246 -324l30 183h185l-33 -183h-182z" glyph-name="uni1EAD" horiz-adv-x="1026" unicode="ậ"/><glyph d="M1229 2304l-328 -395h-127l285 395h170zM1042 1915l5 27h129l-9 -35q-29 -166 -116.5 -227.5t-239.5 -61.5q-285 0 -285 215q0 45 9 86l4 23h129l-9 -39q-4 -20 -4 -56q0 -117 154 -116q198 0 233 184zM907 1434l154 -1434h-172l-37 401h-539l-178 -401h-176l662 1434 h286zM375 539h465l-68 759h-59z" glyph-name="uni1EAE" horiz-adv-x="1218" unicode="Ắ"/><glyph d="M1069 1997l-328 -395h-127l285 395h170zM883 1608l4 26h129l-8 -35q-29 -166 -117 -227t-240 -61q-285 0 -284 215q0 45 8 86l4 22h129l-8 -39q-4 -20 -4 -55q0 -117 153 -117q199 1 234 185zM600 1147q315 0 315 -266q0 -55 -12 -123l-133 -760l-127 -12l6 137h-12 q-98 -143 -305 -143q-299 0 -299 260q0 92 34.5 178t94.5 139q96 88 278 88h287l23 125q8 47 8 94q0 86 -44 123t-149 37q-98 0 -305 -45l-10 123q223 45 350 45zM362 102q139 0 218 74t106 230l21 116h-271q-106 0 -162 -55q-35 -35 -58 -99.5t-23 -127.5q0 -72 39.5 -105 t129.5 -33z" glyph-name="uni1EAF" horiz-adv-x="1026" unicode="ắ"/><glyph d="M924 1909h-123l-187 395h162zM1047 1942h129l-9 -35q-29 -166 -116.5 -227.5t-239.5 -61.5q-285 0 -285 215q0 45 9 86l4 23h129l-9 -39q-4 -20 -4 -56q0 -117 154 -116q199 0 233 184zM907 1434l154 -1434h-172l-37 401h-539l-178 -401h-176l662 1434h286zM375 539h465 l-68 759h-59z" glyph-name="uni1EB0" horiz-adv-x="1218" unicode="Ằ"/><glyph d="M764 1602h-123l-186 395h161zM887 1634h129l-8 -35q-29 -166 -117 -227t-240 -61q-285 0 -284 215q0 45 8 86l4 22h129l-8 -39q-4 -20 -4 -55q0 -117 153 -117q199 0 234 185zM600 1147q315 0 315 -266q0 -55 -12 -123l-133 -760l-127 -12l6 137h-12q-98 -143 -305 -143 q-299 0 -299 260q0 92 34.5 178t94.5 139q96 88 278 88h287l23 125q8 47 8 94q0 86 -44 123t-149 37q-98 0 -305 -45l-10 123q223 45 350 45zM362 102q139 0 218 74t106 230l21 116h-271q-106 0 -162 -55q-35 -35 -58 -99.5t-23 -127.5q0 -72 39.5 -105t129.5 -33z" glyph-name="uni1EB1" horiz-adv-x="1026" unicode="ằ"/><glyph d="M918 2091q27 18 38 39q10 16 11 39q0 25 -15.5 32t-60.5 7q-27 0 -103 -6l-2 94q84 12 140 12q170 0 170 -113q0 -47 -15 -77q-16 -37 -61 -70l-76 -53q-53 -37 -63 -86h-95q12 66 25.5 93.5t52.5 53.5zM1047 1942h129l-9 -35q-29 -166 -116.5 -227.5t-239.5 -61.5 q-285 0 -285 215q0 45 9 86l4 23h129l-9 -39q-4 -20 -4 -56q0 -117 154 -116q199 0 233 184zM907 1434l154 -1434h-172l-37 401h-539l-178 -401h-176l662 1434h286zM375 539h465l-68 759h-59z" glyph-name="uni1EB2" horiz-adv-x="1218" unicode="Ẳ"/><glyph d="M758 1784q27 18 39 39q10 16 10 39q0 25 -15.5 32t-60.5 7q-27 0 -102 -7l-2 95q84 12 139 12q170 0 170 -113q0 -47 -14 -78q-16 -37 -62 -69l-76 -53q-53 -37 -63 -86h-94q12 66 25.5 93t52.5 54zM887 1634h129l-8 -35q-29 -166 -117 -227t-240 -61q-285 0 -284 215 q0 45 8 86l4 22h129l-8 -39q-4 -20 -4 -55q0 -117 153 -117q199 0 234 185zM600 1147q315 0 315 -266q0 -55 -12 -123l-133 -760l-127 -12l6 137h-12q-98 -143 -305 -143q-299 0 -299 260q0 92 34.5 178t94.5 139q96 88 278 88h287l23 125q8 47 8 94q0 86 -44 123t-149 37 q-98 0 -305 -45l-10 123q223 45 350 45zM362 102q139 0 218 74t106 230l21 116h-271q-106 0 -162 -55q-35 -35 -58 -99.5t-23 -127.5q0 -72 39.5 -105t129.5 -33z" glyph-name="uni1EB3" horiz-adv-x="1026" unicode="ẳ"/><glyph d="M760 2152q-72 0 -109 -124h-98q18 111 79.5 178t139.5 67q61 0 115 -45l92 -78q18 -16 45 -16q72 0 111 125h98q-18 -109 -79.5 -177.5t-139.5 -68.5q-57 0 -115 47l-90 74q-24 18 -49 18zM1042 1915l5 27h127l-7 -35q-29 -166 -116.5 -227.5t-241.5 -61.5 q-285 0 -285 215q0 25 8 86l5 23h131l-9 -39q-6 -31 -6 -56q0 -59 37 -87.5t119 -28.5q198 0 233 184zM907 1434l154 -1434h-172l-37 401h-539l-178 -401h-176l662 1434h286zM375 539h465l-68 759h-59z" glyph-name="uni1EB4" horiz-adv-x="1218" unicode="Ẵ"/><glyph d="M600 1845q-72 0 -108 -125h-99q18 111 80 178.5t139 67.5q61 0 115 -45l92 -78q18 -16 45 -16q72 0 111 125h98q-18 -109 -79.5 -177.5t-139.5 -68.5q-57 0 -115 47l-90 74q-24 18 -49 18zM883 1608l4 26h127l-6 -35q-29 -166 -117 -227t-242 -61q-285 0 -284 215 q0 25 8 86l4 22h131l-8 -39q-6 -31 -6 -55q0 -59 36.5 -88t118.5 -29q199 1 234 185zM600 1147q315 0 315 -266q0 -55 -12 -123l-133 -760l-127 -12l6 137h-12q-98 -143 -305 -143q-299 0 -299 260q0 92 34.5 178t94.5 139q96 88 278 88h287l23 125q8 47 8 94q0 86 -44 123 t-149 37q-98 0 -305 -45l-10 123q223 45 350 45zM362 102q139 0 218 74t106 230l21 116h-271q-106 0 -162 -55q-35 -35 -58 -99.5t-23 -127.5q0 -72 39.5 -105t129.5 -33z" glyph-name="uni1EB5" horiz-adv-x="1026" unicode="ẵ"/><glyph d="M1047 1942h129l-9 -35q-29 -166 -116.5 -227.5t-239.5 -61.5q-285 0 -285 215q0 45 9 86l4 23h129l-9 -39q-6 -27 -6 -52q0 -121 162 -120q94 0 151.5 40.5t75.5 143.5zM907 1434l154 -1434h-172l-37 401h-539l-178 -401h-176l662 1434h286zM375 539h465l-68 759h-59z M367 -324l30 183h185l-33 -183h-182z" glyph-name="uni1EB6" horiz-adv-x="1218" unicode="Ặ"/><glyph d="M887 1634h129l-8 -35q-29 -166 -117 -227t-240 -61q-285 0 -284 215q0 45 8 86l4 22h129l-8 -39q-6 -27 -6 -51q0 -121 161 -121q94 0 151.5 41t76.5 144zM600 1147q315 0 315 -266q0 -55 -12 -123l-133 -760l-127 -12l6 137h-12q-98 -143 -305 -143q-299 0 -299 260 q0 92 34.5 178t94.5 139q96 88 278 88h287l23 125q8 47 8 94q0 86 -44 123t-149 37q-98 0 -305 -45l-10 123q223 45 350 45zM362 102q139 0 218 74t106 230l21 116h-271q-106 0 -162 -55q-35 -35 -58 -99.5t-23 -127.5q0 -72 39.5 -105t129.5 -33zM246 -324l30 183h185 l-33 -183h-182z" glyph-name="uni1EB7" horiz-adv-x="1026" unicode="ặ"/><glyph d="M1042 1298h-534l-84 -487h502l-25 -137h-502l-94 -539h557l-24 -135h-723l252 1434h698zM307 -324l31 183h184l-33 -183h-182z" glyph-name="uni1EB8" horiz-adv-x="1044" unicode="Ẹ"/><glyph d="M657 1147q184 0 272.5 -85t88.5 -263q0 -102 -29 -248l-8 -43h-719q-10 -78 -10 -135q0 -145 58.5 -208t195.5 -63q127 0 358 66l8 -121q-225 -68 -387 -67q-199 0 -295 100t-96 307q0 180 61.5 362.5t155.5 274.5q121 123 346 123zM285 629h559q20 129 20 188 q0 111 -48 159t-161 48q-158 0 -237 -92q-82 -92 -133 -303zM301 -324l31 183h184l-33 -183h-182z" glyph-name="uni1EB9" horiz-adv-x="1095" unicode="ẹ"/><glyph d="M831 1792q27 18 39 33q12 18 12.5 42.5t-16 33t-61.5 8.5q-27 0 -103 -6v94q84 10 138 10q92 0 131 -27.5t39 -85.5q0 -59 -23 -92q-14 -23 -53 -55l-76 -51q-53 -37 -61 -86h-97q12 63 25.5 92t52.5 53zM1042 1298h-534l-84 -487h502l-25 -137h-502l-94 -539h557 l-24 -135h-723l252 1434h698z" glyph-name="uni1EBA" horiz-adv-x="1044" unicode="Ẻ"/><glyph d="M766 1485q27 18 39 33q12 18 12 42.5t-16.5 33t-61.5 8.5q-27 0 -102 -7v95q84 10 137 10q92 0 131 -27.5t39 -85.5q0 -59 -22 -92q-14 -23 -54 -55l-75 -51q-53 -37 -62 -86h-96q12 63 25.5 91.5t52.5 53.5zM657 1147q184 0 272.5 -85t88.5 -263q0 -102 -29 -248l-8 -43 h-719q-10 -78 -10 -135q0 -145 58.5 -208t195.5 -63q127 0 358 66l8 -121q-225 -68 -387 -67q-199 0 -295 100t-96 307q0 180 61.5 362.5t155.5 274.5q121 123 346 123zM285 629h559q20 129 20 188q0 111 -48 159t-161 48q-158 0 -237 -92q-82 -92 -133 -303z" glyph-name="uni1EBB" horiz-adv-x="1095" unicode="ẻ"/><glyph d="M645 1767q-72 0 -108 -122h-101q18 109 80 176t139 67q61 0 115 -43l92 -78q23 -18 45 -18q74 0 111 125h100q-20 -109 -81.5 -176.5t-137.5 -67.5q-63 0 -117 45l-90 76q-22 16 -47 16zM1065 1434l-23 -136h-534l-84 -487h502l-25 -137h-502l-94 -539h557l-24 -135h-723 l252 1434h698z" glyph-name="uni1EBC" horiz-adv-x="1044" unicode="Ẽ"/><glyph d="M580 1460q-72 0 -109 -123h-100q18 109 79.5 176.5t139.5 67.5q61 0 115 -43l92 -78q23 -18 45 -18q74 0 110 125h101q-20 -109 -82 -176.5t-137 -67.5q-63 0 -117 45l-90 76q-22 16 -47 16zM657 1147q184 0 272.5 -85t88.5 -263q0 -102 -29 -248l-8 -43h-719 q-10 -78 -10 -135q0 -145 58.5 -208t195.5 -63q127 0 358 66l8 -121q-225 -68 -387 -67q-199 0 -295 100t-96 307q0 180 61.5 362.5t155.5 274.5q121 123 346 123zM285 629h559q20 129 20 188q0 111 -48 159t-161 48q-158 0 -237 -92q-82 -92 -133 -303z" glyph-name="uni1EBD" horiz-adv-x="1095" unicode="ẽ"/><glyph d="M1350 2238h168l-326 -395h-129zM899 1991l197 -396h-121l-176 291l-279 -291h-129l338 396h170zM1065 1434l-23 -136h-534l-84 -487h502l-25 -137h-502l-94 -539h557l-24 -135h-723l252 1434h698z" glyph-name="uni1EBE" horiz-adv-x="1044" unicode="Ế"/><glyph d="M1284 1931h168l-326 -395h-129zM834 1683l196 -395h-121l-176 291l-278 -291h-129l338 395h170zM657 1147q184 0 272.5 -85t88.5 -263q0 -102 -29 -248l-8 -43h-719q-10 -78 -10 -135q0 -145 58.5 -208t195.5 -63q127 0 358 66l8 -121q-225 -68 -387 -67q-199 0 -295 100 t-96 307q0 180 61.5 362.5t155.5 274.5q121 123 346 123zM285 629h559q20 129 20 188q0 111 -48 159t-161 48q-158 0 -237 -92q-82 -92 -133 -303z" glyph-name="uni1EBF" horiz-adv-x="1095" unicode="ế"/><glyph d="M1092 2238l145 -395h-121l-186 395h162zM899 1991l197 -396h-121l-176 291l-279 -291h-129l338 396h170zM1065 1434l-23 -136h-534l-84 -487h502l-25 -137h-502l-94 -539h557l-24 -135h-723l252 1434h698z" glyph-name="uni1EC0" horiz-adv-x="1044" unicode="Ề"/><glyph d="M1026 1931l145 -395h-120l-187 395h162zM834 1683l196 -395h-121l-176 291l-278 -291h-129l338 395h170zM657 1147q184 0 272.5 -85t88.5 -263q0 -102 -29 -248l-8 -43h-719q-10 -78 -10 -135q0 -145 58.5 -208t195.5 -63q127 0 358 66l8 -121q-225 -68 -387 -67 q-199 0 -295 100t-96 307q0 180 61.5 362.5t155.5 274.5q121 123 346 123zM285 629h559q20 129 20 188q0 111 -48 159t-161 48q-158 0 -237 -92q-82 -92 -133 -303z" glyph-name="uni1EC1" horiz-adv-x="1095" unicode="ề"/><glyph d="M1202 2243q170 0 170 -115q0 -45 -14 -76q-18 -37 -64 -70l-73 -53q-53 -37 -64 -86h-94q12 66 25.5 93.5t50.5 52.5l55 36q27 18 39 39q10 16 10 39q0 25 -15.5 32t-60.5 7q-25 0 -102 -6l-2 94q84 13 139 13zM897 1991l197 -396h-121l-176 291l-279 -291h-129l338 396 h170zM1065 1434l-23 -136h-534l-84 -487h502l-25 -137h-502l-94 -539h557l-24 -135h-723l252 1434h698z" glyph-name="uni1EC2" horiz-adv-x="1044" unicode="Ể"/><glyph d="M1137 1935q170 0 170 -114q0 -45 -15 -76q-18 -37 -63 -70l-74 -53q-53 -37 -63 -86h-95q12 66 25.5 93.5t50.5 51.5l55 37q27 18 39 39q10 16 11 39q0 25 -15.5 32t-60.5 7q-25 0 -103 -6l-2 94q85 12 140 12zM831 1683l197 -395h-121l-176 291l-278 -291h-129l338 395 h169zM657 1147q184 0 272.5 -85t88.5 -263q0 -102 -29 -248l-8 -43h-719q-10 -78 -10 -135q0 -145 58.5 -208t195.5 -63q127 0 358 66l8 -121q-225 -68 -387 -67q-199 0 -295 100t-96 307q0 180 61.5 362.5t155.5 274.5q121 123 346 123zM285 629h559q20 129 20 188 q0 111 -48 159t-161 48q-158 0 -237 -92q-82 -92 -133 -303z" glyph-name="uni1EC3" horiz-adv-x="1095" unicode="ể"/><glyph d="M1090 2312l100 -4q-20 -106 -81.5 -174t-139.5 -68q-61 0 -115 45l-90 76q-23 16 -47 17q-72 0 -111 -127l-98 4q18 109 79.5 176t139.5 67q63 0 115 -43l92 -77q23 -18 47 -19q72 0 109 127zM897 1991l197 -396h-121l-176 291l-279 -291h-129l338 396h170zM1065 1434 l-23 -136h-534l-84 -487h502l-25 -137h-502l-94 -539h557l-24 -135h-723l252 1434h698z" glyph-name="uni1EC4" horiz-adv-x="1044" unicode="Ễ"/><glyph d="M1024 2005l100 -4q-20 -106 -81.5 -174t-139.5 -68q-61 0 -115 45l-90 76q-23 16 -47 16q-72 0 -110 -127l-99 5q18 109 80 176t140 67q63 0 114 -43l92 -78q23 -18 47 -18q72 0 109 127zM831 1683l197 -395h-121l-176 291l-278 -291h-129l338 395h169zM657 1147 q184 0 272.5 -85t88.5 -263q0 -102 -29 -248l-8 -43h-719q-10 -78 -10 -135q0 -145 58.5 -208t195.5 -63q127 0 358 66l8 -121q-225 -68 -387 -67q-199 0 -295 100t-96 307q0 180 61.5 362.5t155.5 274.5q121 123 346 123zM285 629h559q20 129 20 188q0 111 -48 159t-161 48 q-158 0 -237 -92q-82 -92 -133 -303z" glyph-name="uni1EC5" horiz-adv-x="1095" unicode="ễ"/><glyph d="M799 1886l-279 -291h-129l338 396h170l197 -396h-121zM1065 1434l-23 -136h-534l-84 -487h502l-25 -137h-502l-94 -539h557l-24 -135h-723l252 1434h698zM307 -324l31 183h184l-33 -183h-182z" glyph-name="uni1EC6" horiz-adv-x="1044" unicode="Ệ"/><glyph d="M733 1579l-278 -291h-129l338 395h170l196 -395h-121zM657 1147q184 0 272.5 -85t88.5 -263q0 -102 -29 -248l-8 -43h-719q-10 -78 -10 -135q0 -145 58.5 -208t195.5 -63q127 0 358 66l8 -121q-225 -68 -387 -67q-199 0 -295 100t-96 307q0 180 61.5 362.5t155.5 274.5 q121 123 346 123zM285 629h559q20 129 20 188q0 111 -48 159t-161 48q-158 0 -237 -92q-82 -92 -133 -303zM301 -324l31 183h184l-33 -183h-182z" glyph-name="uni1EC7" horiz-adv-x="1095" unicode="ệ"/><glyph d="M434 1610q12 63 25.5 92t52.5 53l53 37q27 18 39 33q12 18 12 42.5t-16 33t-61 8.5q-27 0 -103 -6v94q84 10 137 10q92 0 131 -27.5t39 -85.5q0 -59 -22 -92q-14 -23 -53 -55l-76 -51q-53 -37 -62 -86h-96zM532 1434l-251 -1434h-166l252 1434h165z" glyph-name="uni1EC8" horiz-adv-x="591" unicode="Ỉ"/><glyph d="M334 1303q12 63 25.5 91.5t52.5 53.5l53 37q27 18 39 33q12 18 12 42.5t-16.5 33t-61.5 8.5q-27 0 -102 -7v95q84 10 137 10q92 0 131 -27.5t39 -85.5q0 -59 -22 -92q-14 -23 -54 -55l-75 -51q-53 -37 -62 -86h-96zM428 1126l-199 -1126h-157l198 1126h158z" glyph-name="uni1EC9" horiz-adv-x="495" unicode="ỉ"/><glyph d="M532 1434l-251 -1434h-166l252 1434h165zM82 -141h184l-33 -183h-182z" glyph-name="uni1ECA" horiz-adv-x="591" unicode="Ị"/><glyph d="M332 1544h182l-33 -182h-182zM428 1126l-199 -1126h-157l198 1126h158zM35 -141h184l-33 -183h-182z" glyph-name="uni1ECB" horiz-adv-x="495" unicode="ị"/><glyph d="M602 -20q-240 0 -347.5 111.5t-107.5 361.5q0 246 86 505t205 373q131 123 389 123q240 0 347.5 -110.5t107.5 -356.5q0 -240 -83 -499t-200 -375q-133 -133 -397 -133zM604 119q213 0 305 121q80 102 142.5 336.5t62.5 427.5q0 170 -65.5 240.5t-223.5 70.5 q-199 0 -290 -105q-86 -94 -153 -332.5t-67 -441.5q0 -174 65.5 -245.5t223.5 -71.5zM471 -141h184l-32 -183h-183z" glyph-name="uni1ECC" horiz-adv-x="1372" unicode="Ọ"/><glyph d="M494 -20q-207 0 -302.5 88t-95.5 278q0 217 70 418t176 289q109 94 328 94q207 0 302 -88t95 -277q0 -203 -64.5 -401.5t-160.5 -290.5q-112 -110 -348 -110zM496 102q168 0 241 76q68 70 121 257.5t53 346.5q0 135 -54 188.5t-189 53.5q-160 0 -236 -70 q-70 -68 -125 -255t-55 -353q0 -135 53.5 -189.5t190.5 -54.5zM367 -141h184l-33 -183h-182z" glyph-name="uni1ECD" horiz-adv-x="1161" unicode="ọ"/><glyph d="M825 1610q12 63 25.5 92t52.5 53l53 37q27 18 39 33q12 18 12.5 42.5t-16 33t-61.5 8.5q-25 0 -103 -6v94q84 10 138 10q92 0 131 -27.5t39 -85.5q0 -59 -23 -92q-14 -23 -53 -55l-76 -51q-53 -37 -61 -86h-97zM602 -20q-240 0 -347.5 111.5t-107.5 361.5q0 246 86 505 t205 373q131 123 389 123q240 0 347.5 -110.5t107.5 -356.5q0 -240 -83 -499t-200 -375q-133 -133 -397 -133zM604 119q213 0 305 121q80 102 142.5 336.5t62.5 427.5q0 170 -65.5 240.5t-223.5 70.5q-199 0 -290 -105q-86 -94 -153 -332.5t-67 -441.5q0 -174 65.5 -245.5 t223.5 -71.5z" glyph-name="uni1ECE" horiz-adv-x="1372" unicode="Ỏ"/><glyph d="M666 1303q12 63 25.5 91.5t51.5 53.5l54 37q27 18 39 33q12 18 12 42.5t-16.5 33t-61.5 8.5q-25 0 -102 -7v95q84 10 137 10q92 0 131 -27.5t39 -85.5q0 -59 -23 -92q-14 -23 -53 -55l-76 -51q-53 -37 -61 -86h-96zM494 -20q-207 0 -302.5 88t-95.5 278q0 217 70 418 t176 289q109 94 328 94q207 0 302 -88t95 -277q0 -203 -64.5 -401.5t-160.5 -290.5q-112 -110 -348 -110zM496 102q168 0 241 76q68 70 121 257.5t53 346.5q0 135 -54 188.5t-189 53.5q-160 0 -236 -70q-70 -68 -125 -255t-55 -353q0 -135 53.5 -189.5t190.5 -54.5z" glyph-name="uni1ECF" horiz-adv-x="1161" unicode="ỏ"/><glyph d="M1475 2238h167l-325 -395h-129zM924 1886l-279 -291h-129l338 396h170l197 -396h-121zM827 1454q240 0 347.5 -110.5t107.5 -356.5q0 -240 -83 -499t-200 -375q-133 -133 -397 -133q-240 0 -347.5 111.5t-107.5 361.5q0 246 86 505t205 373q131 123 389 123zM909 240 q80 102 142.5 336.5t62.5 427.5q0 170 -65.5 240.5t-223.5 70.5q-199 0 -290 -105q-86 -94 -153 -332.5t-67 -441.5q0 -174 65.5 -245.5t223.5 -71.5q213 0 305 121z" glyph-name="uni1ED0" horiz-adv-x="1372" unicode="Ố"/><glyph d="M1315 1931h168l-326 -395h-129zM764 1579l-279 -291h-129l338 395h170l197 -395h-121zM670 1147q207 0 302 -88t95 -277q0 -203 -64.5 -401.5t-160.5 -290.5q-113 -111 -348 -110q-207 0 -302.5 88t-95.5 278q0 217 70 418t176 289q109 94 328 94zM737 178 q68 70 121 257.5t53 346.5q0 135 -54 188.5t-189 53.5q-160 0 -236 -70q-70 -68 -125 -255t-55 -353q0 -135 53 -189.5t191 -54.5q167 0 241 76z" glyph-name="uni1ED1" horiz-adv-x="1161" unicode="ố"/><glyph d="M1362 1843h-121l-186 395h162zM924 1886l-279 -291h-129l338 396h170l197 -396h-121zM827 1454q240 0 347.5 -110.5t107.5 -356.5q0 -240 -83 -499t-200 -375q-133 -133 -397 -133q-240 0 -347.5 111.5t-107.5 361.5q0 246 86 505t205 373q131 123 389 123zM909 240 q80 102 142.5 336.5t62.5 427.5q0 170 -65.5 240.5t-223.5 70.5q-199 0 -290 -105q-86 -94 -153 -332.5t-67 -441.5q0 -174 65.5 -245.5t223.5 -71.5q213 0 305 121z" glyph-name="uni1ED2" horiz-adv-x="1372" unicode="Ồ"/><glyph d="M1057 1931l145 -395h-121l-186 395h162zM764 1579l-279 -291h-129l338 395h170l197 -395h-121zM670 1147q207 0 302 -88t95 -277q0 -203 -64.5 -401.5t-160.5 -290.5q-113 -111 -348 -110q-207 0 -302.5 88t-95.5 278q0 217 70 418t176 289q109 94 328 94zM737 178 q68 70 121 257.5t53 346.5q0 135 -54 188.5t-189 53.5q-160 0 -236 -70q-70 -68 -125 -255t-55 -353q0 -135 53 -189.5t191 -54.5q167 0 241 76z" glyph-name="uni1ED3" horiz-adv-x="1161" unicode="ồ"/><glyph d="M1327 2243q170 0 170 -115q0 -45 -14 -76q-18 -37 -64 -70l-73 -53q-53 -37 -64 -86h-94q12 66 25.5 93.5t50.5 52.5l55 36q27 18 39 39q10 16 10 39q0 25 -15.5 32t-60.5 7q-27 0 -102 -6l-2 94q84 13 139 13zM922 1886l-279 -291h-129l338 396h170l197 -396h-121z M827 1454q240 0 347.5 -110.5t107.5 -356.5q0 -240 -83 -499t-200 -375q-133 -133 -397 -133q-240 0 -347.5 111.5t-107.5 361.5q0 246 86 505t205 373q131 123 389 123zM909 240q80 102 142.5 336.5t62.5 427.5q0 170 -65.5 240.5t-223.5 70.5q-199 0 -290 -105 q-86 -94 -153 -332.5t-67 -441.5q0 -174 65.5 -245.5t223.5 -71.5q213 0 305 121z" glyph-name="uni1ED4" horiz-adv-x="1372" unicode="Ổ"/><glyph d="M1167 1935q170 0 170 -114q0 -45 -14 -76q-18 -37 -63 -70l-74 -53q-53 -37 -64 -86h-94q12 66 25.5 93.5t50.5 51.5l55 37q27 18 39 39q10 16 10 39q0 25 -15 32t-60 7q-27 0 -103 -6l-2 94q84 12 139 12zM762 1579l-279 -291h-129l338 395h170l197 -395h-121zM670 1147 q207 0 302 -88t95 -277q0 -203 -64.5 -401.5t-160.5 -290.5q-113 -111 -348 -110q-207 0 -302.5 88t-95.5 278q0 217 70 418t176 289q109 94 328 94zM737 178q68 70 121 257.5t53 346.5q0 135 -54 188.5t-189 53.5q-160 0 -236 -70q-70 -68 -125 -255t-55 -353 q0 -135 53 -189.5t191 -54.5q167 0 241 76z" glyph-name="uni1ED5" horiz-adv-x="1161" unicode="ổ"/><glyph d="M842 2204q-72 0 -111 -127l-98 4q18 109 79.5 176t139.5 67q63 0 115 -43l92 -77q20 -18 47 -19q72 0 108 127l101 -4q-20 -106 -82 -174t-139 -68q-61 0 -115 45l-90 76q-22 17 -47 17zM922 1886l-279 -291h-129l338 396h170l197 -396h-121zM827 1454 q240 0 347.5 -110.5t107.5 -356.5q0 -240 -83 -499t-200 -375q-133 -133 -397 -133q-240 0 -347.5 111.5t-107.5 361.5q0 246 86 505t205 373q131 123 389 123zM909 240q80 102 142.5 336.5t62.5 427.5q0 170 -65.5 240.5t-223.5 70.5q-199 0 -290 -105q-86 -94 -153 -332.5 t-67 -441.5q0 -174 65.5 -245.5t223.5 -71.5q213 0 305 121z" glyph-name="uni1ED6" horiz-adv-x="1372" unicode="Ỗ"/><glyph d="M682 1896q-72 0 -111 -127l-98 5q18 109 79.5 176t139.5 67q61 0 115 -43l92 -78q20 -18 47 -18q72 0 109 127l100 -4q-20 -106 -81.5 -174t-139.5 -68q-61 0 -115 45l-90 76q-22 16 -47 16zM762 1579l-279 -291h-129l338 395h170l197 -395h-121zM670 1147q207 0 302 -88 t95 -277q0 -203 -64.5 -401.5t-160.5 -290.5q-113 -111 -348 -110q-207 0 -302.5 88t-95.5 278q0 217 70 418t176 289q109 94 328 94zM737 178q68 70 121 257.5t53 346.5q0 135 -54 188.5t-189 53.5q-160 0 -236 -70q-70 -68 -125 -255t-55 -353q0 -135 53 -189.5t191 -54.5 q167 0 241 76z" glyph-name="uni1ED7" horiz-adv-x="1161" unicode="ỗ"/><glyph d="M924 1886l-279 -291h-129l338 396h170l197 -396h-121zM827 1454q240 0 347.5 -110.5t107.5 -356.5q0 -240 -83 -499t-200 -375q-133 -133 -397 -133q-240 0 -347.5 111.5t-107.5 361.5q0 246 86 505t205 373q131 123 389 123zM909 240q80 102 142.5 336.5t62.5 427.5 q0 170 -65.5 240.5t-223.5 70.5q-199 0 -290 -105q-86 -94 -153 -332.5t-67 -441.5q0 -174 65.5 -245.5t223.5 -71.5q213 0 305 121zM440 -324l31 183h184l-32 -183h-183z" glyph-name="uni1ED8" horiz-adv-x="1372" unicode="Ộ"/><glyph d="M764 1579l-279 -291h-129l338 395h170l197 -395h-121zM670 1147q207 0 302 -88t95 -277q0 -203 -64.5 -401.5t-160.5 -290.5q-113 -111 -348 -110q-207 0 -302.5 88t-95.5 278q0 217 70 418t176 289q109 94 328 94zM737 178q68 70 121 257.5t53 346.5q0 135 -54 188.5 t-189 53.5q-160 0 -236 -70q-70 -68 -125 -255t-55 -353q0 -135 53 -189.5t191 -54.5q167 0 241 76zM336 -324l31 183h184l-33 -183h-182z" glyph-name="uni1ED9" horiz-adv-x="1161" unicode="ộ"/><glyph d="M1260 1999l-326 -395h-129l287 395h168zM1432 1649h129l-33 -191q-23 -137 -90.5 -201.5t-175.5 -78.5q20 -80 20 -191q0 -240 -83 -499t-200 -375q-133 -133 -397 -133q-240 0 -347.5 111.5t-107.5 361.5q0 246 86 505t205 373q131 123 389 123q295 0 392 -170 q154 20 182 182zM909 240q80 102 142.5 336.5t62.5 427.5q0 170 -65.5 240.5t-223.5 70.5q-199 0 -290 -105q-86 -94 -153 -332.5t-67 -441.5q0 -174 65.5 -245.5t223.5 -71.5q213 0 305 121z" glyph-name="uni1EDA" horiz-adv-x="1372" unicode="Ớ"/><glyph d="M1100 1692l-326 -396h-129l287 396h168zM1241 1358h129l-33 -191q-25 -141 -94 -205.5t-184 -76.5q8 -41 8 -103q0 -203 -64.5 -401.5t-160.5 -290.5q-113 -111 -348 -110q-207 0 -302.5 88t-95.5 278q0 217 70 418t176 289q109 94 328 94q270 0 354 -154q158 18 186 183 zM737 178q68 70 121 257.5t53 346.5q0 135 -54 188.5t-189 53.5q-160 0 -236 -70q-70 -68 -125 -255t-55 -353q0 -135 53 -189.5t191 -54.5q167 0 241 76z" glyph-name="uni1EDB" horiz-adv-x="1161" unicode="ớ"/><glyph d="M928 1604h-123l-184 395h161zM1432 1649h129l-33 -191q-23 -137 -90.5 -201.5t-175.5 -78.5q20 -80 20 -191q0 -240 -83 -499t-200 -375q-133 -133 -397 -133q-240 0 -347.5 111.5t-107.5 361.5q0 246 86 505t205 373q131 123 389 123q295 0 392 -170q154 20 182 182z M909 240q80 102 142.5 336.5t62.5 427.5q0 170 -65.5 240.5t-223.5 70.5q-199 0 -290 -105q-86 -94 -153 -332.5t-67 -441.5q0 -174 65.5 -245.5t223.5 -71.5q213 0 305 121z" glyph-name="uni1EDC" horiz-adv-x="1372" unicode="Ờ"/><glyph d="M768 1296h-123l-184 396h162zM1241 1358h129l-33 -191q-25 -141 -94 -205.5t-184 -76.5q8 -41 8 -103q0 -203 -64.5 -401.5t-160.5 -290.5q-113 -111 -348 -110q-207 0 -302.5 88t-95.5 278q0 217 70 418t176 289q109 94 328 94q270 0 354 -154q158 18 186 183zM737 178 q68 70 121 257.5t53 346.5q0 135 -54 188.5t-189 53.5q-160 0 -236 -70q-70 -68 -125 -255t-55 -353q0 -135 53 -189.5t191 -54.5q167 0 241 76z" glyph-name="uni1EDD" horiz-adv-x="1161" unicode="ờ"/><glyph d="M956 1792q27 18 39 33q12 18 12.5 42.5t-16 33t-61.5 8.5q-25 0 -103 -6v94q84 10 138 10q92 0 131 -27.5t39 -85.5q0 -59 -23 -92q-14 -23 -53 -55l-76 -51q-53 -37 -61 -86h-97q12 63 25.5 92t52.5 53zM1432 1649h129l-33 -191q-23 -137 -90.5 -201.5t-175.5 -78.5 q20 -80 20 -191q0 -240 -83 -499t-200 -375q-133 -133 -397 -133q-240 0 -347.5 111.5t-107.5 361.5q0 246 86 505t205 373q131 123 389 123q295 0 392 -170q154 20 182 182zM909 240q80 102 142.5 336.5t62.5 427.5q0 170 -65.5 240.5t-223.5 70.5q-199 0 -290 -105 q-86 -94 -153 -332.5t-67 -441.5q0 -174 65.5 -245.5t223.5 -71.5q213 0 305 121z" glyph-name="uni1EDE" horiz-adv-x="1372" unicode="Ở"/><glyph d="M797 1485q27 18 39 33q12 18 12 42.5t-16.5 33t-61.5 8.5q-25 0 -102 -7v95q84 10 137 10q92 0 131 -27.5t39 -85.5q0 -59 -23 -92q-14 -23 -53 -55l-76 -51q-53 -37 -61 -86h-96q12 63 25.5 91.5t51.5 53.5zM1241 1358h129l-33 -191q-25 -141 -94 -205.5t-184 -76.5 q8 -41 8 -103q0 -203 -64.5 -401.5t-160.5 -290.5q-113 -111 -348 -110q-207 0 -302.5 88t-95.5 278q0 217 70 418t176 289q109 94 328 94q270 0 354 -154q158 18 186 183zM737 178q68 70 121 257.5t53 346.5q0 135 -54 188.5t-189 53.5q-160 0 -236 -70q-70 -68 -125 -255 t-55 -353q0 -135 53 -189.5t191 -54.5q167 0 241 76z" glyph-name="uni1EDF" horiz-adv-x="1161" unicode="ở"/><glyph d="M770 1767q-72 0 -108 -122h-101q18 109 79.5 176t139.5 67q63 0 115 -43l92 -78q20 -18 45 -18q74 0 111 125h100q-20 -109 -81.5 -176.5t-137.5 -67.5q-63 0 -117 45l-90 76q-22 16 -47 16zM1432 1649h129l-33 -191q-23 -137 -90.5 -201.5t-175.5 -78.5q20 -80 20 -191 q0 -240 -83 -499t-200 -375q-133 -133 -397 -133q-240 0 -347.5 111.5t-107.5 361.5q0 246 86 505t205 373q131 123 389 123q295 0 392 -170q154 20 182 182zM909 240q80 102 142.5 336.5t62.5 427.5q0 170 -65.5 240.5t-223.5 70.5q-199 0 -290 -105q-86 -94 -153 -332.5 t-67 -441.5q0 -174 65.5 -245.5t223.5 -71.5q213 0 305 121z" glyph-name="uni1EE0" horiz-adv-x="1372" unicode="Ỡ"/><glyph d="M610 1460q-72 0 -108 -123h-101q18 109 80 176.5t140 67.5q63 0 114 -43l92 -78q20 -18 45 -18q74 0 111 125h100q-20 -109 -81.5 -176.5t-137.5 -67.5q-63 0 -116 45l-91 76q-22 16 -47 16zM1241 1358h129l-33 -191q-25 -141 -94 -205.5t-184 -76.5q8 -41 8 -103 q0 -203 -64.5 -401.5t-160.5 -290.5q-113 -111 -348 -110q-207 0 -302.5 88t-95.5 278q0 217 70 418t176 289q109 94 328 94q270 0 354 -154q158 18 186 183zM737 178q68 70 121 257.5t53 346.5q0 135 -54 188.5t-189 53.5q-160 0 -236 -70q-70 -68 -125 -255t-55 -353 q0 -135 53 -189.5t191 -54.5q167 0 241 76z" glyph-name="uni1EE1" horiz-adv-x="1161" unicode="ỡ"/><glyph d="M1432 1649h129l-33 -191q-23 -137 -90.5 -201.5t-175.5 -78.5q20 -80 20 -191q0 -240 -83 -499t-200 -375q-133 -133 -397 -133q-240 0 -347.5 111.5t-107.5 361.5q0 246 86 505t205 373q131 123 389 123q295 0 392 -170q154 20 182 182zM909 240q80 102 142.5 336.5 t62.5 427.5q0 170 -65.5 240.5t-223.5 70.5q-199 0 -290 -105q-86 -94 -153 -332.5t-67 -441.5q0 -174 65.5 -245.5t223.5 -71.5q213 0 305 121zM440 -324l31 183h184l-32 -183h-183z" glyph-name="uni1EE2" horiz-adv-x="1372" unicode="Ợ"/><glyph d="M1241 1358h129l-33 -191q-25 -141 -94 -205.5t-184 -76.5q8 -41 8 -103q0 -203 -64.5 -401.5t-160.5 -290.5q-113 -111 -348 -110q-207 0 -302.5 88t-95.5 278q0 217 70 418t176 289q109 94 328 94q270 0 354 -154q158 18 186 183zM737 178q68 70 121 257.5t53 346.5 q0 135 -54 188.5t-189 53.5q-160 0 -236 -70q-70 -68 -125 -255t-55 -353q0 -135 53 -189.5t191 -54.5q167 0 241 76zM336 -324l31 183h184l-33 -183h-182z" glyph-name="uni1EE3" horiz-adv-x="1161" unicode="ợ"/><glyph d="M584 -18q-227 0 -321.5 74.5t-94.5 244.5q0 86 22 215l160 920h166l-166 -947q-18 -121 -18 -172q0 -113 57 -154.5t195 -41.5q174 0 252.5 81t113.5 292l164 942h166l-166 -953q-51 -293 -169.5 -397t-360.5 -104zM449 -141h184l-33 -183h-182z" glyph-name="uni1EE4" horiz-adv-x="1323" unicode="Ụ"/><glyph d="M922 1126h155l-198 -1128l-127 -12l6 145h-15q-96 -152 -329 -151q-162 0 -231.5 60t-69.5 193q0 57 18 177l127 716h158l-129 -725q-14 -94 -15 -135q0 -90 45 -127t146 -37q139 0 222 71t112 239zM326 -324l30 183h185l-33 -183h-182z" glyph-name="uni1EE5" horiz-adv-x="1148" unicode="ụ"/><glyph d="M801 1610q12 63 25.5 92t52.5 53l53 37q27 18 39 33q12 18 12 42.5t-16.5 33t-61.5 8.5q-25 0 -102 -6v94q84 10 137 10q92 0 131 -27.5t39 -85.5q0 -59 -23 -92q-14 -23 -53 -55l-76 -51q-53 -37 -61 -86h-96zM584 -18q-227 0 -321.5 74.5t-94.5 244.5q0 86 22 215 l160 920h166l-166 -947q-18 -121 -18 -172q0 -113 57 -154.5t195 -41.5q174 0 252.5 81t113.5 292l164 942h166l-166 -953q-51 -293 -169.5 -397t-360.5 -104z" glyph-name="uni1EE6" horiz-adv-x="1323" unicode="Ủ"/><glyph d="M786 1485q27 18 39 33q12 18 12.5 42.5t-16 33t-61.5 8.5q-27 0 -103 -7v95q84 10 138 10q92 0 131 -27.5t39 -85.5q0 -59 -23 -92q-14 -23 -53 -55l-76 -51q-53 -37 -61 -86h-97q12 63 25.5 91.5t52.5 53.5zM922 1126h155l-198 -1128l-127 -12l6 145h-15 q-96 -152 -329 -151q-162 0 -231.5 60t-69.5 193q0 57 18 177l127 716h158l-129 -725q-14 -94 -15 -135q0 -90 45 -127t146 -37q139 0 222 71t112 239z" glyph-name="uni1EE7" horiz-adv-x="1148" unicode="ủ"/><glyph d="M1235 1999l-326 -395h-129l287 395h168zM1489 1800h129l-33 -190q-27 -154 -107.5 -217.5t-217.5 -69.5l-146 -840q-51 -293 -170 -397t-360 -104q-227 0 -321.5 74.5t-94.5 244.5q0 86 22 215l160 920h166l-166 -947q-18 -121 -18 -172q0 -113 57 -154.5t195 -41.5 q174 0 252.5 81t113.5 292l164 942h158q156 16 186 182z" glyph-name="uni1EE8" horiz-adv-x="1323" unicode="Ứ"/><glyph d="M1090 1692l-326 -396h-129l287 396h168zM1284 1493h129l-33 -190q-27 -154 -106.5 -217.5t-214.5 -69.5l-180 -1018l-127 -12l6 145h-15q-96 -152 -329 -151q-162 0 -231.5 60t-69.5 193q0 57 18 177l127 716h158l-129 -725q-14 -94 -15 -135q0 -90 45 -127t146 -37 q139 0 222 71t112 239l125 714h104q193 0 227 185z" glyph-name="uni1EE9" horiz-adv-x="1148" unicode="ứ"/><glyph d="M903 1604h-123l-184 395h162zM1489 1800h129l-33 -190q-27 -154 -107.5 -217.5t-217.5 -69.5l-146 -840q-51 -293 -170 -397t-360 -104q-227 0 -321.5 74.5t-94.5 244.5q0 86 22 215l160 920h166l-166 -947q-18 -121 -18 -172q0 -113 57 -154.5t195 -41.5q174 0 252.5 81 t113.5 292l164 942h158q156 16 186 182z" glyph-name="uni1EEA" horiz-adv-x="1323" unicode="Ừ"/><glyph d="M758 1296h-123l-184 396h161zM1284 1493h129l-33 -190q-27 -154 -106.5 -217.5t-214.5 -69.5l-180 -1018l-127 -12l6 145h-15q-96 -152 -329 -151q-162 0 -231.5 60t-69.5 193q0 57 18 177l127 716h158l-129 -725q-14 -94 -15 -135q0 -90 45 -127t146 -37q139 0 222 71 t112 239l125 714h104q193 0 227 185z" glyph-name="uni1EEB" horiz-adv-x="1148" unicode="ừ"/><glyph d="M932 1792q27 18 39 33q12 18 12 42.5t-16.5 33t-61.5 8.5q-25 0 -102 -6v94q84 10 137 10q92 0 131 -27.5t39 -85.5q0 -59 -23 -92q-14 -23 -53 -55l-76 -51q-53 -37 -61 -86h-96q12 63 25.5 92t52.5 53zM1489 1800h129l-33 -190q-27 -154 -107.5 -217.5t-217.5 -69.5 l-146 -840q-51 -293 -170 -397t-360 -104q-227 0 -321.5 74.5t-94.5 244.5q0 86 22 215l160 920h166l-166 -947q-18 -121 -18 -172q0 -113 57 -154.5t195 -41.5q174 0 252.5 81t113.5 292l164 942h158q156 16 186 182z" glyph-name="uni1EEC" horiz-adv-x="1323" unicode="Ử"/><glyph d="M786 1485q27 18 39 33q12 18 12.5 42.5t-16 33t-61.5 8.5q-27 0 -103 -7v95q84 10 138 10q92 0 131 -27.5t39 -85.5q0 -59 -23 -92q-14 -23 -53 -55l-76 -51q-53 -37 -61 -86h-97q12 63 25.5 91.5t52.5 53.5zM1284 1493h129l-33 -190q-27 -154 -106.5 -217.5 t-214.5 -69.5l-180 -1018l-127 -12l6 145h-15q-96 -152 -329 -151q-162 0 -231.5 60t-69.5 193q0 57 18 177l127 716h158l-129 -725q-14 -94 -15 -135q0 -90 45 -127t146 -37q139 0 222 71t112 239l125 714h104q193 0 227 185z" glyph-name="uni1EED" horiz-adv-x="1148" unicode="ử"/><glyph d="M745 1767q-72 0 -108 -122h-100q18 109 79.5 176t139.5 67q63 0 114 -43l93 -78q23 -18 45 -18q74 0 110 125h101q-20 -109 -82 -176.5t-138 -67.5q-63 0 -116 45l-90 76q-23 16 -48 16zM1489 1800h129l-33 -190q-27 -154 -107.5 -217.5t-217.5 -69.5l-146 -840 q-51 -293 -170 -397t-360 -104q-227 0 -321.5 74.5t-94.5 244.5q0 86 22 215l160 920h166l-166 -947q-18 -121 -18 -172q0 -113 57 -154.5t195 -41.5q174 0 252.5 81t113.5 292l164 942h158q156 16 186 182z" glyph-name="uni1EEE" horiz-adv-x="1323" unicode="Ữ"/><glyph d="M600 1460q-72 0 -108 -123h-101q18 109 79.5 176.5t139.5 67.5q61 0 115 -43l92 -78q23 -18 45 -18q74 0 111 125h100q-20 -109 -81.5 -176.5t-137.5 -67.5q-63 0 -117 45l-90 76q-22 16 -47 16zM1284 1493h129l-33 -190q-27 -154 -106.5 -217.5t-214.5 -69.5l-180 -1018 l-127 -12l6 145h-15q-96 -152 -329 -151q-162 0 -231.5 60t-69.5 193q0 57 18 177l127 716h158l-129 -725q-14 -94 -15 -135q0 -90 45 -127t146 -37q139 0 222 71t112 239l125 714h104q193 0 227 185z" glyph-name="uni1EEF" horiz-adv-x="1148" unicode="ữ"/><glyph d="M1489 1800h129l-33 -190q-27 -154 -107.5 -217.5t-217.5 -69.5l-146 -840q-51 -293 -170 -397t-360 -104q-227 0 -321.5 74.5t-94.5 244.5q0 86 22 215l160 920h166l-166 -947q-18 -121 -18 -172q0 -113 57 -154.5t195 -41.5q174 0 252.5 81t113.5 292l164 942h158 q156 16 186 182zM418 -324l31 183h184l-33 -183h-182z" glyph-name="uni1EF0" horiz-adv-x="1323" unicode="Ự"/><glyph d="M1284 1493h129l-33 -190q-27 -154 -106.5 -217.5t-214.5 -69.5l-180 -1018l-127 -12l6 145h-15q-96 -152 -329 -151q-162 0 -231.5 60t-69.5 193q0 57 18 177l127 716h158l-129 -725q-14 -94 -15 -135q0 -90 45 -127t146 -37q139 0 222 71t112 239l125 714h104 q193 0 227 185zM326 -324l30 183h185l-33 -183h-182z" glyph-name="uni1EF1" horiz-adv-x="1148" unicode="ự"/><glyph d="M807 1604h-123l-184 395h162zM1255 1434l-606 -869l-98 -565h-166l100 575l-290 859h178l213 -684h26l457 684h186z" glyph-name="Ygrave" horiz-adv-x="1138" unicode="Ỳ"/><glyph d="M680 1296h-123l-184 396h162zM891 1126h168l-596 -1228q-70 -147 -170 -217t-252 -70q-51 0 -113 10l27 119q35 -6 84 -6q104 0 174 46t125 165l31 63h-80v2l-21 -2l-139 1118h164l104 -995h29z" glyph-name="ygrave" horiz-adv-x="983" unicode="ỳ"/><glyph d="M1255 1434l-606 -869l-98 -565h-166l100 575l-290 859h178l213 -684h26l457 684h186zM322 -324l30 183h185l-33 -183h-182z" glyph-name="uni1EF4" horiz-adv-x="1138" unicode="Ỵ"/><glyph d="M891 1126h168l-596 -1228q-70 -147 -170 -217t-252 -70q-51 0 -113 10l27 119q35 -6 84 -6q104 0 174 46t125 165l31 63h-80v2l-21 -2l-139 1118h164l104 -995h29zM532 -324l33 183h183l-33 -183h-183z" glyph-name="uni1EF5" horiz-adv-x="983" unicode="ỵ"/><glyph d="M836 1792q27 18 38 33q12 18 12.5 42.5t-16 33t-61.5 8.5q-27 0 -102 -6v94q84 10 137 10q92 0 131 -27.5t39 -85.5q0 -59 -23 -92q-14 -23 -53 -55l-76 -51q-53 -37 -61 -86h-96q12 63 25 92t52 53zM1255 1434l-606 -869l-98 -565h-166l100 575l-290 859h178l213 -684 h26l457 684h186z" glyph-name="uni1EF6" horiz-adv-x="1138" unicode="Ỷ"/><glyph d="M709 1485q27 18 39 33q12 18 12 42.5t-16.5 33t-61.5 8.5q-27 0 -102 -7v95q84 10 137 10q92 0 131 -27.5t39 -85.5q0 -59 -23 -92q-14 -23 -53 -55l-76 -51q-53 -37 -61 -86h-96q12 63 25 91.5t52 53.5zM891 1126h168l-596 -1228q-70 -147 -170 -217t-252 -70 q-51 0 -113 10l27 119q35 -6 84 -6q104 0 174 46t125 165l31 63h-80v2l-21 -2l-139 1118h164l104 -995h29z" glyph-name="uni1EF7" horiz-adv-x="983" unicode="ỷ"/><glyph d="M649 1767q-72 0 -108 -122h-101q18 109 80 176t139 67q61 0 115 -43l92 -78q20 -18 45 -18q74 0 111 125h100q-20 -109 -81.5 -176.5t-137.5 -67.5q-63 0 -117 45l-90 76q-22 16 -47 16zM1255 1434l-606 -869l-98 -565h-166l100 575l-290 859h178l213 -684h26l457 684 h186z" glyph-name="uni1EF8" horiz-adv-x="1138" unicode="Ỹ"/><glyph d="M522 1460q-72 0 -108 -123h-101q18 109 80 176.5t139 67.5q61 0 115 -43l92 -78q23 -18 45 -18q74 0 111 125h100q-20 -109 -81.5 -176.5t-137.5 -67.5q-63 0 -117 45l-90 76q-22 16 -47 16zM891 1126h168l-596 -1228q-70 -147 -170 -217t-252 -70q-51 0 -113 10l27 119 q35 -6 84 -6q104 0 174 46t125 165l31 63h-80v2l-21 -2l-139 1118h164l104 -995h29z" glyph-name="uni1EF9" horiz-adv-x="983" unicode="ỹ"/><glyph glyph-name="uni2009" horiz-adv-x="204" unicode=" "/><glyph d="M197 702h821l-25 -137h-821z" glyph-name="endash" horiz-adv-x="1163" unicode="–"/><glyph d="M197 702h1380l-23 -137h-1382z" glyph-name="emdash" horiz-adv-x="1722" unicode="—"/><glyph d="M129 -68h979l-23 -120h-976zM88 -297h979l-23 -121h-976z" glyph-name="underscoredbl" horiz-adv-x="1456" unicode="‗"/><glyph d="M598 1518l-145 -334h86l-39 -209h-195l39 209l148 334h106z" glyph-name="quoteleft" horiz-adv-x="673" unicode="‘"/><glyph d="M408 1518h194l-37 -209l-147 -334h-107l146 334h-86z" glyph-name="quoteright" horiz-adv-x="673" unicode="’"/><glyph d="M178 209h195l-37 -209l-148 -334h-106l145 334h-86z" glyph-name="quotesinglbase" horiz-adv-x="673" unicode="‚"/><glyph d="M461 1518h106l-145 -334h86l-39 -209h-195l39 209zM891 1518l-146 -334h86l-38 -209h-195l39 209l147 334h107z" glyph-name="quotedblleft" horiz-adv-x="880" unicode="“"/><glyph d="M315 1309l37 209h195l-37 -209l-148 -334h-106l145 334h-86zM676 1518h194l-36 -209l-148 -334h-106l145 334h-86z" glyph-name="quotedblright" horiz-adv-x="880" unicode="”"/><glyph d="M86 0l37 209h194l-36 -209l-148 -334h-106l145 334h-86zM446 209h195l-37 -209l-147 -334h-107l146 334h-86z" glyph-name="quotedblbase" horiz-adv-x="880" unicode="„"/><glyph d="M1087 899l-20 -121h-397l-203 -1147h-160l203 1147h-395l22 121h393l103 582h160l-103 -582h397z" glyph-name="dagger" horiz-adv-x="1103" unicode="†"/><glyph d="M1087 786h-397l-80 -460h398l-23 -123h-397l-101 -572h-159l100 572h-393l20 123h396l79 460h-393l23 123h393l100 572h160l-100 -572h397z" glyph-name="daggerdbl" horiz-adv-x="1144" unicode="‡"/><glyph d="M477 436q-113 0 -190.5 77t-77.5 189q0 133 98.5 231.5t231.5 98.5q117 0 193.5 -76.5t76.5 -191.5q0 -131 -99.5 -229.5t-232.5 -98.5z" glyph-name="bullet" horiz-adv-x="960" unicode="•"/><glyph d="M141 0l37 209h195l-37 -209h-195zM705 0l36 209h195l-37 -209h-194zM1270 0l37 209h194l-37 -209h-194z" glyph-name="ellipsis" horiz-adv-x="1802" unicode="…"/><glyph d="M207 -20l1130 1474h154l-1131 -1474h-153zM426 606q-123 0 -176 61.5t-53 182.5q0 115 35.5 265.5t91.5 230.5q70 104 219 104q123 0 176 -60.5t53 -181.5q0 -115 -36 -266t-91 -233q-72 -103 -219 -103zM426 731q72 0 106 49q39 55 70 199.5t31 234.5q0 63 -22.5 87 t-69.5 24q-74 0 -107 -49q-39 -55 -69.5 -199.5t-30.5 -232.5q0 -63 22.5 -88t69.5 -25zM1163 -12q-123 0 -176 61.5t-53 181.5q0 113 36 263.5t91 232.5q72 104 221 104q123 0 176 -60t53 -181q0 -115 -35.5 -266.5t-93.5 -233.5q-67 -102 -219 -102zM1819 -12 q-123 0 -176.5 61.5t-53.5 181.5q0 113 36 263.5t91 232.5q72 104 219 104q123 0 177.5 -60t54.5 -181q0 -115 -37 -266.5t-92 -233.5q-67 -102 -219 -102zM1165 113q72 0 107 49q39 55 69.5 199.5t30.5 234.5q0 63 -22.5 88t-69.5 25q-72 0 -106 -52q-39 -53 -70 -197.5 t-31 -234.5q0 -63 22.5 -87.5t69.5 -24.5zM1819 113q72 0 108 49q39 55 68.5 199.5t29.5 234.5q0 66 -21.5 89.5t-68.5 23.5q-72 0 -106 -52q-39 -53 -69.5 -197.5t-30.5 -234.5q0 -63 22.5 -87.5t67.5 -24.5z" glyph-name="perthousand" horiz-adv-x="2293" unicode="‰"/><glyph d="M555 1049l-27 -175l-348 -303l240 -297l-29 -174l-348 408l12 76l8 57z" glyph-name="guilsinglleft" horiz-adv-x="583" unicode="‹"/><glyph d="M197 1049l350 -408l-10 -59l-13 -74l-491 -408l28 174l349 304l-240 296z" glyph-name="guilsinglright" horiz-adv-x="583" unicode="›"/><glyph d="M-31 -41l862 1516h146l-862 -1516h-146z" glyph-name="fraction" horiz-adv-x="890" unicode="⁄"/><glyph d="M979 1315q-250 0 -367 -168q-55 -78 -98 -219h479l-22 -121h-492q-16 -74 -30 -160h436l-21 -121h-428q-4 -61 -4 -84q0 -182 77 -252.5t234 -70.5q137 0 248 47l8 -141q-100 -45 -245 -45q-262 0 -376 119.5t-114 353.5q0 47 2 73h-143l20 121h136q18 117 28 160h-135 l21 121h147q57 190 137 301q158 225 496 225q145 0 248 -43l-29 -135q-80 39 -213 39z" glyph-name="Euro" horiz-adv-x="1214" unicode="€"/><glyph d="M1806 608q-164 0 -233.5 68.5t-69.5 208.5q0 102 31 226t84 200q94 135 309 135q162 0 230.5 -68.5t68.5 -206.5q0 -106 -30.5 -230t-84.5 -200q-94 -133 -305 -133zM932 135l227 1299h166l-252 -1434h-307l-234 1298h-24l-227 -1298h-166l252 1434h309l231 -1299h25z M1755 1257q-41 -57 -68.5 -182t-27.5 -209q0 -80 33.5 -108.5t111.5 -28.5q125 0 172 68q39 55 67 181t28 208q0 80 -35 109.5t-113 29.5q-123 0 -168 -68zM1397 336l20 135h697l-23 -135h-694z" glyph-name="afii61352" horiz-adv-x="2232" unicode="№"/><glyph d="M653 1434l-12 -80h-162l-110 -637h-101l111 637h-162l12 80h424zM1386 1434l-124 -717h-99l109 626h-6l-217 -460h-129l-54 460h-12l-109 -626h-98l125 717h166l55 -465h8l220 465h165z" glyph-name="trademark" horiz-adv-x="1419" unicode="™"/><glyph d="M1161 1475h146l-863 -1516h-145zM481 557h-458l18 107h170l117 663l-170 -47v104l188 50h131l-135 -770h158zM1135 877h479l-23 -136l-438 -741h-137l446 752l4 18h-348z" glyph-name="uni2150" horiz-adv-x="1591" unicode="⅐"/><glyph d="M1161 1475h146l-863 -1516h-145zM481 557h-458l18 107h170l117 663l-170 -47v104l188 50h131l-135 -770h158zM1339 889q135 0 186.5 -51.5t51.5 -155.5q0 -203 -176 -446q-88 -123 -211 -236h-160q147 139 236 256q43 57 67 94h-8q-49 -20 -117 -20q-104 0 -148 45 t-44 137q0 68 21.5 147.5t58.5 133.5q65 96 243 96zM1395 483q25 35 40 96.5t15 110.5q0 53 -26.5 72.5t-84.5 19.5q-98 0 -139 -55q-55 -82 -55 -213q0 -51 23.5 -69.5t80.5 -18.5q103 0 146 57z" glyph-name="uni2151" horiz-adv-x="1617" unicode="⅑"/><glyph d="M1161 1475h146l-863 -1516h-145zM481 557h-458l18 107h170l117 663l-170 -47v104l188 50h131l-135 -770h158zM1927 891q127 0 182.5 -64.5t55.5 -191.5q0 -125 -39 -290t-98 -249q-74 -109 -232 -108q-127 0 -183.5 65.5t-56.5 194.5q0 125 38 286.5t100 245.5 q77 111 233 111zM1423 877l-135 -771h158l-19 -106h-458l18 106h170l117 664l-170 -47v104l188 50h131zM1921 147q43 61 77 230.5t34 273.5q0 76 -26 105.5t-83 29.5q-82 0 -123 -57q-45 -66 -78.5 -228.5t-33.5 -264.5q0 -82 27.5 -113t86.5 -31q78 0 119 55z" glyph-name="uni2152" horiz-adv-x="2238" unicode="⅒"/><glyph d="M1161 1475h146l-863 -1516h-145zM481 557h-458l18 107h170l117 663l-170 -47v104l188 50h131l-135 -770h158zM1446 446q76 -39 76 -135q0 -131 -66 -225q-70 -98 -272 -98q-131 0 -211 35l18 102q63 -29 185 -29q125 0 167 62q47 70 48 166q0 51 -30 67.5t-101 16.5h-127 l18 98h111q100 0 137 51q39 57 39 148q0 49 -26 65t-89 16q-102 0 -197 -32l2 110q82 27 197 27q135 0 191.5 -42t56.5 -128q0 -123 -55 -201q-29 -37 -70 -55z" glyph-name="onethird" horiz-adv-x="1638" unicode="⅓"/><glyph d="M1231 1475h145l-862 -1516h-145zM575 664l-18 -107h-512l23 125q14 76 48 127t103 104l244 181q80 61 80 157q0 53 -31 70.5t-100 17.5q-72 0 -187 -16v107q106 18 199 18q137 0 196.5 -47t59.5 -141q0 -143 -123 -240l-262 -197q-76 -59 -90 -145l-2 -14h372zM1516 446 q76 -39 75 -135q0 -131 -65 -225q-70 -98 -273 -98q-131 0 -211 35l19 102q63 -29 184 -29q125 0 168 62q47 70 47 166q0 51 -29.5 67.5t-101.5 16.5h-127l19 98h110q100 0 137 51q39 57 39 148q0 49 -25.5 65t-88.5 16q-102 0 -197 -32l2 110q82 27 197 27q135 0 191 -42 t56 -128q0 -123 -55 -201q-29 -37 -69 -55z" glyph-name="twothirds" horiz-adv-x="1708" unicode="⅔"/><glyph d="M1161 1475h146l-863 -1516h-145zM481 557h-458l18 107h170l117 663l-170 -47v104l188 50h131l-135 -770h158zM1548 770h-282l-52 -242h23q145 0 204.5 -44t59.5 -140q0 -154 -71 -256q-72 -100 -273 -100q-127 0 -194 30l14 107q53 -27 160 -27q139 0 182 64 q49 70 49 172q0 55 -31.5 74.5t-109.5 19.5h-168l94 449h414z" glyph-name="uni2155" horiz-adv-x="1605" unicode="⅕"/><glyph d="M1231 1475h145l-862 -1516h-145zM575 664l-18 -107h-512l23 125q14 76 48 127t103 104l244 181q80 61 80 157q0 53 -31 70.5t-100 17.5q-72 0 -187 -16v107q106 18 199 18q137 0 196.5 -47t59.5 -141q0 -143 -123 -240l-262 -197q-76 -59 -90 -145l-2 -14h372zM1618 770 h-283l-51 -242h23q145 0 204.5 -44t59.5 -140q0 -154 -72 -256q-72 -100 -272 -100q-127 0 -195 30l15 107q53 -27 159 -27q139 0 183 64q49 70 49 172q0 55 -32 74.5t-110 19.5h-168l95 449h413z" glyph-name="uni2156" horiz-adv-x="1675" unicode="⅖"/><glyph d="M1159 1475h146l-863 -1516h-145zM528 643q-70 -98 -272 -98q-131 0 -211 35l18 102q63 -29 185 -29q125 0 168 62q47 72 47 166q0 51 -30 67.5t-101 16.5h-127l18 98h111q100 0 137 51q39 57 39 148q0 49 -25.5 65t-89.5 16q-102 0 -196 -32l2 110q82 27 196 27 q135 0 191.5 -42t56.5 -128q0 -123 -55 -201q-29 -37 -70 -55l-2 -18q76 -39 76 -136q0 -131 -66 -225zM1546 770h-282l-52 -242h23q145 0 204.5 -44t59.5 -140q0 -154 -72 -256q-72 -100 -272 -100q-127 0 -194 30l14 107q53 -27 160 -27q139 0 182 64q49 70 49 172 q0 55 -31.5 74.5t-109.5 19.5h-168l94 449h414z" glyph-name="uni2157" horiz-adv-x="1603" unicode="⅗"/><glyph d="M1270 1475h145l-862 -1516h-145zM530 557h-127l37 211h-362l26 143l334 523h129l-340 -545l-4 -15h236l51 287h127l-51 -287h108l-20 -106h-107zM1657 770h-283l-51 -242h23q145 0 204.5 -44t59.5 -140q0 -154 -72 -256q-72 -100 -272 -100q-127 0 -195 30l14 107 q53 -27 160 -27q139 0 182 64q49 70 50 172q0 55 -32 74.5t-110 19.5h-168l95 449h413z" glyph-name="uni2158" horiz-adv-x="1714" unicode="⅘"/><glyph d="M1161 1475h146l-863 -1516h-145zM481 557h-458l18 107h170l117 663l-170 -47v104l188 50h131l-135 -770h158zM1251 547q104 0 148.5 -45t44.5 -137q0 -68 -21.5 -148t-58.5 -133q-66 -96 -244 -96q-135 0 -186 51t-51 156q0 203 176 446q88 123 211 236h160 q-154 -147 -236 -256q-43 -57 -68 -95h9q48 21 116 21zM1260 150q55 82 55 212q0 51 -23.5 70t-81.5 19q-102 0 -145 -58q-25 -35 -40 -96t-15 -111q0 -53 26.5 -72.5t83.5 -19.5q101 1 140 56z" glyph-name="uni2159" horiz-adv-x="1536" unicode="⅙"/><glyph d="M1159 1475h146l-863 -1516h-145zM526 645q-72 -100 -272 -100q-127 0 -195 30l15 107q53 -27 159 -27q139 0 183 64q49 70 49 172q0 55 -32 74.5t-109 19.5h-168l94 449h414l-19 -107h-283l-51 -242h23q145 0 204.5 -44t59.5 -140q0 -154 -72 -256zM1249 547 q104 0 148.5 -45t44.5 -137q0 -68 -21.5 -148t-58.5 -133q-66 -96 -244 -96q-135 0 -186 51t-51 156q0 203 176 446q88 123 211 236h159q-154 -147 -235 -256q-43 -57 -68 -95h9q48 21 116 21zM1257 150q55 82 56 212q0 51 -23.5 70t-81.5 19q-102 0 -145 -58 q-25 -35 -40 -96t-15 -111q0 -53 26.5 -72.5t83.5 -19.5q98 1 139 56z" glyph-name="uni215A" horiz-adv-x="1533" unicode="⅚"/><glyph d="M1161 1475h146l-863 -1516h-145zM481 557h-458l18 107h170l117 663l-170 -47v104l188 50h131l-135 -770h158zM1450 451q88 -39 88 -150q0 -125 -61 -211q-74 -102 -271 -102q-131 0 -192.5 45t-61.5 147q0 127 58 205q37 51 104 74l2 8q-68 37 -67 131q0 125 57 201 q66 92 246 92q238 0 237 -174q0 -121 -57 -201q-29 -41 -80 -59zM1206 741q-41 -57 -41 -159q0 -47 24.5 -63.5t88.5 -16.5q113 0 147 51q43 63 43 154q0 49 -26.5 65t-91.5 16q-113 0 -144 -47zM1364 147q43 66 43 168q0 55 -27.5 74t-95.5 19q-115 0 -156 -58 q-47 -63 -47 -168q0 -53 30 -71.5t99 -18.5q115 0 154 55z" glyph-name="oneeighth" horiz-adv-x="1656" unicode="⅛"/><glyph d="M1159 1475h146l-863 -1516h-145zM528 643q-70 -98 -272 -98q-131 0 -211 35l18 102q63 -29 185 -29q125 0 168 62q47 72 47 166q0 51 -30 67.5t-101 16.5h-127l18 98h111q100 0 137 51q39 57 39 148q0 49 -25.5 65t-89.5 16q-102 0 -196 -32l2 110q82 27 196 27 q135 0 191.5 -42t56.5 -128q0 -123 -55 -201q-29 -37 -70 -55l-2 -18q76 -39 76 -136q0 -131 -66 -225zM1448 451q88 -39 88 -150q0 -125 -61 -211q-74 -102 -271 -102q-131 0 -192.5 45t-61.5 147q0 127 58 205q37 51 104 74l2 8q-68 37 -67 131q0 125 57 201q66 92 246 92 q238 0 237 -174q0 -121 -57 -201q-29 -41 -80 -59zM1204 741q-41 -57 -41 -159q0 -47 24.5 -63.5t88.5 -16.5q113 0 147 51q43 63 43 154q0 49 -26.5 65t-91.5 16q-113 0 -144 -47zM1362 147q43 66 43 168q0 55 -27.5 74t-95.5 19q-115 0 -156 -58q-47 -63 -47 -168 q0 -53 30 -71.5t99 -18.5q115 0 154 55z" glyph-name="threeeighths" horiz-adv-x="1654" unicode="⅜"/><glyph d="M1159 1475h146l-863 -1516h-145zM526 645q-72 -100 -272 -100q-127 0 -195 30l15 107q53 -27 159 -27q139 0 183 64q49 70 49 172q0 55 -32 74.5t-109 19.5h-168l94 449h414l-19 -107h-283l-51 -242h23q145 0 204.5 -44t59.5 -140q0 -154 -72 -256zM1448 451 q88 -39 88 -150q0 -125 -61 -211q-74 -102 -271 -102q-131 0 -192.5 45t-61.5 147q0 127 58 205q37 51 104 74l2 8q-68 37 -67 131q0 125 57 201q66 92 246 92q238 0 237 -174q0 -121 -57 -201q-29 -41 -80 -59zM1204 741q-41 -57 -41 -159q0 -47 24.5 -63.5t88.5 -16.5 q113 0 147 51q43 63 43 154q0 49 -26.5 65t-91.5 16q-113 0 -144 -47zM1362 147q43 66 43 168q0 55 -27.5 74t-95.5 19q-115 0 -156 -58q-47 -63 -47 -168q0 -53 30 -71.5t99 -18.5q115 0 154 55z" glyph-name="fiveeighths" horiz-adv-x="1654" unicode="⅝"/><glyph d="M993 1475h146l-863 -1516h-145zM59 557l447 752l4 18h-348l16 107h479l-22 -136l-438 -741h-138zM1282 451q88 -39 88 -150q0 -125 -61 -211q-74 -102 -271 -102q-131 0 -192.5 45t-61.5 147q0 127 58 205q37 51 104 74l2 8q-68 37 -67 131q0 125 57 201q66 92 246 92 q238 0 237 -174q0 -121 -57 -201q-29 -41 -80 -59zM1038 741q-41 -57 -41 -159q0 -47 25 -63.5t88 -16.5q113 0 147 51q43 63 43 154q0 49 -26.5 65t-91.5 16q-113 0 -144 -47zM1196 147q43 66 43 168q0 55 -27.5 74t-95.5 19q-115 0 -155 -58q-47 -63 -48 -168 q0 -53 30 -71.5t99 -18.5q115 0 154 55z" glyph-name="seveneighths" horiz-adv-x="1488" unicode="⅞"/><glyph d="M1161 1475h146l-863 -1516h-145zM481 557h-458l18 107h170l117 663l-170 -47v104l188 50h131l-135 -770h158z" glyph-name="uni215F" horiz-adv-x="1220" unicode="⅟"/><glyph d="M199 643h880l-24 -137h-881z" glyph-name="minus" horiz-adv-x="1251" unicode="−"/><glyph d="M287 618l-97 37q16 102 96.5 177t180.5 75q82 0 147 -47l144 -92q39 -27 76 -27q98 0 159 160l97 -39q-20 -98 -96 -173t-179 -75q-70 0 -139 45l-144 95q-45 29 -81 28q-103 0 -164 -164zM287 285l-97 37q16 102 96.5 176.5t180.5 74.5q82 0 147 -47l144 -92 q39 -27 76 -26q98 0 159 159l97 -39q-20 -98 -96 -172.5t-179 -74.5q-70 0 -139 45l-144 94q-45 29 -81 29q-103 0 -164 -164z" glyph-name="approxequal" horiz-adv-x="1251" unicode="≈"/><glyph d="M1075 688h-311l-119 -221h393l-24 -135h-441l-145 -277h-154l146 277h-262l24 135h310l118 221h-389l23 135h438l145 277h154l-145 -277h264z" glyph-name="notequal" horiz-adv-x="1251" unicode="≠"/><glyph d="M1143 1100l-750 -266l-4 -29l653 -266l-26 -158l-785 336l33 205l905 335zM117 78l24 135h844l-24 -135h-844z" glyph-name="lessequal" horiz-adv-x="1251" unicode="≤"/><glyph d="M326 1257l784 -335l-35 -205l-903 -336l27 158l749 266l4 29l-653 266zM117 78l24 135h844l-24 -135h-844z" glyph-name="greaterequal" horiz-adv-x="1251" unicode="≥"/><glyph d="M850 -20q-297 0 -480.5 181t-183.5 476q0 342 233.5 579.5t581.5 237.5q297 0 480.5 -181t183.5 -476q0 -342 -233.5 -579.5t-581.5 -237.5zM860 82q297 0 491.5 207t194.5 499q0 254 -152.5 409t-402.5 155q-295 0 -491.5 -209t-196.5 -502q0 -252 153.5 -405.5 t403.5 -153.5zM625 291l18 106h170l117 662l-172 -45l2 102l190 51h131l-137 -770h158l-19 -106h-458z" glyph-name="uni2460" horiz-adv-x="1792" unicode="①"/><glyph d="M850 -20q-297 0 -480.5 181t-183.5 476q0 342 233.5 579.5t581.5 237.5q297 0 480.5 -181t183.5 -476q0 -342 -233.5 -579.5t-581.5 -237.5zM860 82q297 0 491.5 207t194.5 499q0 254 -152.5 409t-402.5 155q-295 0 -491.5 -209t-196.5 -502q0 -252 153.5 -405.5 t403.5 -153.5zM594 291l20 112q12 76 49 128.5t111 107.5l246 182q68 53 67 142q0 61 -37.5 85.5t-119.5 24.5q-70 0 -166 -16l18 104q109 20 195 21q139 0 195.5 -41t56.5 -127q0 -154 -133 -252l-260 -199q-66 -49 -80 -139l-4 -27h372l-20 -106h-510z" glyph-name="uni2461" horiz-adv-x="1792" unicode="②"/><glyph d="M850 -20q-297 0 -480.5 181t-183.5 476q0 342 233.5 579.5t581.5 237.5q297 0 480.5 -181t183.5 -476q0 -342 -233.5 -579.5t-581.5 -237.5zM860 82q297 0 491.5 207t194.5 499q0 254 -152.5 409t-402.5 155q-295 0 -491.5 -209t-196.5 -502q0 -252 153.5 -405.5 t403.5 -153.5zM817 279q-137 0 -207 34l37 109q63 -35 187 -35q119 0 155 53q39 53 39 154q0 59 -31.5 80.5t-103.5 21.5h-117l17 101h122q98 0 127 43q35 47 35 141q0 55 -32.5 74.5t-118.5 19.5q-109 0 -164 -24l16 100q78 31 203 31q127 0 182.5 -39t55.5 -117 q0 -131 -60 -205q-23 -33 -67 -59v-10q76 -37 75 -134q0 -137 -67 -233q-80 -106 -283 -106z" glyph-name="uni2462" horiz-adv-x="1792" unicode="③"/><glyph d="M850 -20q-297 0 -480.5 181t-183.5 476q0 342 233.5 579.5t581.5 237.5q297 0 480.5 -181t183.5 -476q0 -342 -233.5 -579.5t-581.5 -237.5zM860 82q297 0 491.5 207t194.5 499q0 254 -152.5 409t-402.5 155q-295 0 -491.5 -209t-196.5 -502q0 -252 153.5 -405.5 t403.5 -153.5zM889 295l37 209h-365l27 145l336 522h123l-336 -534l-4 -25h237l49 285h125l-49 -285h107l-19 -108h-108l-35 -209h-125z" glyph-name="uni2463" horiz-adv-x="1792" unicode="④"/><glyph d="M850 -20q-297 0 -480.5 181t-183.5 476q0 342 233.5 579.5t581.5 237.5q297 0 480.5 -181t183.5 -476q0 -342 -233.5 -579.5t-581.5 -237.5zM860 82q297 0 491.5 207t194.5 499q0 254 -152.5 409t-402.5 155q-295 0 -491.5 -209t-196.5 -502q0 -252 153.5 -405.5 t403.5 -153.5zM778 279q-119 0 -178 26l37 115q57 -31 176 -31t158 51q43 61 43 170q0 63 -34 86t-116 23h-155l94 448h414l-21 -106h-283l-51 -242h33q143 0 200.5 -39t57.5 -129q0 -145 -76 -258q-74 -114 -299 -114z" glyph-name="uni2464" horiz-adv-x="1792" unicode="⑤"/><glyph d="M850 -20q-297 0 -480.5 181t-183.5 476q0 342 233.5 579.5t581.5 237.5q297 0 480.5 -181t183.5 -476q0 -342 -233.5 -579.5t-581.5 -237.5zM860 82q297 0 491.5 207t194.5 499q0 254 -152.5 409t-402.5 155q-295 0 -491.5 -209t-196.5 -502q0 -252 153.5 -405.5 t403.5 -153.5zM825 287q-127 0 -178 46t-51 142q0 195 170 440q86 127 225 263h144q-131 -119 -199 -211q-35 -39 -109 -150h17q61 29 145 29q94 0 135 -40t41 -122q0 -68 -23.5 -151.5t-60.5 -137.5q-76 -108 -256 -108zM854 393q90 0 123 49q23 33 38 95.5t15 109.5 q0 59 -27.5 81t-95.5 22q-96 0 -127 -45q-23 -31 -37 -96.5t-14 -112.5q0 -57 28.5 -80t96.5 -23z" glyph-name="uni2465" horiz-adv-x="1792" unicode="⑥"/><glyph d="M850 -20q-297 0 -480.5 181t-183.5 476q0 342 233.5 579.5t581.5 237.5q297 0 480.5 -181t183.5 -476q0 -342 -233.5 -579.5t-581.5 -237.5zM860 82q297 0 491.5 207t194.5 499q0 254 -152.5 409t-402.5 155q-295 0 -491.5 -209t-196.5 -502q0 -252 153.5 -405.5 t403.5 -153.5zM655 272l443 744l6 28h-350l20 105h477l-24 -133l-443 -744h-129z" glyph-name="uni2466" horiz-adv-x="1792" unicode="⑦"/><glyph d="M850 -20q-297 0 -480.5 181t-183.5 476q0 342 233.5 579.5t581.5 237.5q297 0 480.5 -181t183.5 -476q0 -342 -233.5 -579.5t-581.5 -237.5zM860 82q297 0 491.5 207t194.5 499q0 254 -152.5 409t-402.5 155q-295 0 -491.5 -209t-196.5 -502q0 -252 153.5 -405.5 t403.5 -153.5zM840 279q-133 0 -189.5 44t-56.5 128q0 125 61 213q35 51 103 75v11q-68 31 -68 118q0 125 64 213q74 100 258 101q123 0 174 -39t51 -121q0 -119 -55 -199q-33 -47 -86 -69l2 -11q90 -37 90 -139q0 -119 -66 -213q-81 -112 -282 -112zM942 791q98 0 133 51 q37 55 37 141q0 53 -28.5 73.5t-98.5 20.5q-102 0 -131 -43q-41 -59 -41 -149q0 -51 30.5 -72.5t98.5 -21.5zM868 383q106 0 144 49q43 63 43 166q0 57 -33 78.5t-104 21.5q-106 0 -146 -55q-39 -57 -39 -156q0 -59 30.5 -81.5t104.5 -22.5z" glyph-name="uni2467" horiz-adv-x="1792" unicode="⑧"/><glyph d="M850 -20q-297 0 -480.5 181t-183.5 476q0 342 233.5 579.5t581.5 237.5q297 0 480.5 -181t183.5 -476q0 -342 -233.5 -579.5t-581.5 -237.5zM860 82q297 0 491.5 207t194.5 499q0 254 -152.5 409t-402.5 155q-295 0 -491.5 -209t-196.5 -502q0 -252 153.5 -405.5 t403.5 -153.5zM696 283q117 106 199 211q43 53 109 149h-17q-61 -29 -147 -29q-92 0 -133 40t-41 122q0 70 23.5 153t60.5 136q72 109 256 109q127 0 178 -46.5t51 -142.5q0 -201 -170 -440q-86 -127 -225 -262h-144zM924 711q96 0 127 45q20 31 34.5 97.5t14.5 111.5 q0 57 -28 79.5t-95 22.5q-90 0 -123 -49q-23 -33 -38 -95.5t-15 -109.5q0 -57 28.5 -79.5t94.5 -22.5z" glyph-name="uni2468" horiz-adv-x="1792" unicode="⑨"/><glyph d="M850 -20q-297 0 -480.5 181t-183.5 476q0 342 233.5 579.5t581.5 237.5q297 0 480.5 -181t183.5 -476q0 -342 -233.5 -579.5t-581.5 -237.5zM860 82q297 0 491.5 207t194.5 499q0 254 -152.5 409t-402.5 155q-295 0 -491.5 -209t-196.5 -502q0 -252 153.5 -405.5 t403.5 -153.5zM862 279q-129 0 -184 64.5t-55 195.5q0 125 36.5 285.5t98.5 246.5q78 111 235 111q127 0 181.5 -64.5t54.5 -193.5q0 -125 -38 -288t-97 -249q-74 -108 -232 -108zM860 383q84 0 125 59q47 66 82 230t35 268q0 76 -26.5 105.5t-82.5 29.5q-88 0 -127 -59 q-47 -66 -80.5 -229.5t-33.5 -266.5q0 -76 26.5 -106.5t81.5 -30.5z" glyph-name="uni24EA" horiz-adv-x="1792" unicode="⓪"/><glyph d="M850 -20q-297 0 -480.5 181t-183.5 476q0 342 233.5 579.5t581.5 237.5q297 0 480.5 -181t183.5 -476q0 -342 -233.5 -579.5t-581.5 -237.5zM842 279q168 0 250 120q61 90 101 255t40 288t-50 181.5t-171 58.5q-166 0 -254 -121q-61 -90 -101.5 -254t-40.5 -287 t51.5 -182t174.5 -59zM868 383q-61 0 -87.5 31.5t-26.5 111.5q0 102 33.5 265t78.5 229q37 55 119 55q59 0 87 -31.5t28 -109.5q0 -100 -34 -266t-79 -230q-41 -55 -119 -55z" glyph-name="uni24FF" horiz-adv-x="1792" unicode="⓿"/><glyph d="M850 -20q-297 0 -480.5 181t-183.5 476q0 342 233.5 579.5t581.5 237.5q297 0 480.5 -181t183.5 -476q0 -342 -233.5 -579.5t-581.5 -237.5zM625 291h458l19 106h-158l137 770h-131l-190 -51l-2 -102l172 45l-117 -662h-170z" glyph-name="uni2776" horiz-adv-x="1792" unicode="❶"/><glyph d="M850 -20q-297 0 -480.5 181t-183.5 476q0 342 233.5 579.5t581.5 237.5q297 0 480.5 -181t183.5 -476q0 -342 -233.5 -579.5t-581.5 -237.5zM594 291h510l20 106h-372l4 27q14 90 80 139l260 199q119 92 131 229q10 96 -46.5 143.5t-203.5 47.5q-86 0 -195 -21l-18 -104 q96 16 168 16q86 0 124 -27.5t29 -99.5q-6 -82 -65 -125l-246 -182q-74 -55 -110.5 -107.5t-49.5 -128.5z" glyph-name="uni2777" horiz-adv-x="1792" unicode="❷"/><glyph d="M850 -20q-297 0 -480.5 181t-183.5 476q0 342 233.5 579.5t581.5 237.5q297 0 480.5 -181t183.5 -476q0 -342 -233.5 -579.5t-581.5 -237.5zM827 279q193 0 271 108q72 98 71 227q0 96 -79 138l2 10q47 29 67 61q59 90 60 201q0 158 -234 158q-129 0 -207 -31l-16 -100 q55 25 182 24q72 0 102.5 -20.5t30.5 -75.5q0 -92 -35 -141q-27 -41 -127 -41h-122l-17 -101h117q72 0 103.5 -21.5t31.5 -78.5q0 -106 -39 -160q-35 -49 -153 -49q-125 0 -189 35l-37 -109q70 -34 217 -34z" glyph-name="uni2778" horiz-adv-x="1792" unicode="❸"/><glyph d="M850 -20q-297 0 -480.5 181t-183.5 476q0 342 233.5 579.5t581.5 237.5q297 0 480.5 -181t183.5 -476q0 -342 -233.5 -579.5t-581.5 -237.5zM889 295h125l35 209h108l19 108h-107l49 285h-125l-49 -285h-237l4 25l336 534h-123l-336 -522l-27 -145h365z" glyph-name="uni2779" horiz-adv-x="1792" unicode="❹"/><glyph d="M850 -20q-297 0 -480.5 181t-183.5 476q0 342 233.5 579.5t581.5 237.5q297 0 480.5 -181t183.5 -476q0 -342 -233.5 -579.5t-581.5 -237.5zM788 279q178 0 256 83q51 47 80 128t29 155q0 94 -57.5 134t-200.5 40h-33l51 242h283l21 106h-414l-94 -448h155 q84 0 117 -23.5t33 -87.5q0 -125 -56 -178q-41 -41 -145 -41q-117 0 -176 31l-37 -115q59 -26 188 -26z" glyph-name="uni277A" horiz-adv-x="1792" unicode="❺"/><glyph d="M850 -20q-297 0 -480.5 181t-183.5 476q0 342 233.5 579.5t581.5 237.5q297 0 480.5 -181t183.5 -476q0 -342 -233.5 -579.5t-581.5 -237.5zM829 287q123 0 193 49t106.5 147.5t36.5 190.5q0 172 -178 172q-82 0 -143 -29h-17q76 111 109 152q74 94 199 209h-144 q-127 -127 -184 -203q-211 -266 -211 -494q0 -96 54 -145t179 -49zM852 393q-66 0 -94.5 23.5t-28.5 83t19.5 131t56.5 98.5q29 20 104 21q66 0 93.5 -21.5t27.5 -83.5q0 -59 -20.5 -131t-57.5 -98q-34 -23 -100 -23z" glyph-name="uni277B" horiz-adv-x="1792" unicode="❻"/><glyph d="M850 -20q-297 0 -480.5 181t-183.5 476q0 342 233.5 579.5t581.5 237.5q297 0 480.5 -181t183.5 -476q0 -342 -233.5 -579.5t-581.5 -237.5zM659 289h129l441 741l24 135h-477l-18 -106h348l-4 -27z" glyph-name="uni277C" horiz-adv-x="1792" unicode="❼"/><glyph d="M850 -20q-297 0 -480.5 181t-183.5 476q0 342 233.5 579.5t581.5 237.5q297 0 480.5 -181t183.5 -476q0 -342 -233.5 -579.5t-581.5 -237.5zM840 279q143 0 223 57q59 41 92 113.5t33 146.5q0 109 -94 147l2 11q18 8 34 20q106 74 107 238q0 84 -52 127t-175 43 q-131 0 -203 -49q-57 -39 -87 -112t-30 -147q0 -92 70 -124l-2 -11q-29 -12 -53 -26q-53 -39 -81 -111t-28 -139q0 -90 55.5 -137t188.5 -47zM942 791q-68 0 -97.5 22.5t-29.5 75.5q0 125 64 168q29 20 110 20q68 0 95.5 -20.5t27.5 -75.5q0 -121 -63 -166q-37 -24 -107 -24 zM870 383q-74 0 -105.5 22.5t-31.5 83.5q0 135 70 185q37 25 117 24q72 0 103.5 -22.5t31.5 -81.5q0 -51 -17.5 -106.5t-50.5 -79.5q-37 -25 -117 -25z" glyph-name="uni277D" horiz-adv-x="1792" unicode="❽"/><glyph d="M850 -20q-297 0 -480.5 181t-183.5 476q0 342 233.5 579.5t581.5 237.5q297 0 480.5 -181t183.5 -476q0 -342 -233.5 -579.5t-581.5 -237.5zM696 285h144q113 109 184 200q211 276 211 494q0 96 -54.5 145.5t-179.5 49.5q-121 0 -192 -48q-70 -49 -106.5 -147t-36.5 -191 q0 -172 178 -172q82 0 143 29h17q-47 -74 -109 -151q-70 -94 -199 -209zM922 713q-66 0 -93.5 21.5t-27.5 82.5q0 59 20.5 131t57.5 99q29 20 100 20q66 0 93.5 -22.5t27.5 -82t-19.5 -132t-54.5 -97.5q-28 -20 -104 -20z" glyph-name="uni277E" horiz-adv-x="1792" unicode="❾"/><glyph d="M334 1544h182l-33 -182h-182zM428 1126l-199 -1126h-157l198 1126h158z" glyph-name="glyph593" horiz-adv-x="495"/><glyph d="M907 1126h158l-201 -1128l-127 -12l6 133h-12q-96 -139 -295 -139q-178 0 -260 93t-82 279q0 184 65.5 388t170.5 304q109 102 307 103q193 0 242 -119h12zM842 748q10 61 10 98q0 96 -50 137t-155 41q-150 0 -225 -82q-70 -80 -120 -271.5t-50 -340.5q0 -127 48 -177.5 t161 -50.5q135 0 214 70t105 225z" glyph-name="a.ss01" horiz-adv-x="1134"/><glyph d="M1075 1692l-325 -396h-129l286 396h168zM891 1028l16 98h158l-201 -1128l-127 -12l6 133h-12q-96 -139 -295 -139q-178 0 -260 93t-82 279q0 184 65.5 388t170.5 304q109 102 307 103q193 0 242 -119h12zM842 748q10 61 10 98q0 96 -50 137t-155 41q-150 0 -225 -82 q-70 -80 -120 -271.5t-50 -340.5q0 -127 48 -177.5t161 -50.5q135 0 214 70t105 225z" glyph-name="aacute.aalt" horiz-adv-x="1134"/><glyph d="M702 1311q-285 0 -284 215q0 45 8 86l4 22h129l-8 -39q-6 -27 -6 -51q0 -121 162 -121q94 0 151 41t76 144l4 26h129l-8 -35q-29 -166 -117 -227t-240 -61zM891 1028l16 98h158l-201 -1128l-127 -12l6 133h-12q-96 -139 -295 -139q-178 0 -260 93t-82 279q0 184 65.5 388 t170.5 304q109 102 307 103q193 0 242 -119h12zM842 748q10 61 10 98q0 96 -50 137t-155 41q-150 0 -225 -82q-70 -80 -120 -271.5t-50 -340.5q0 -127 48 -177.5t161 -50.5q135 0 214 70t105 225z" glyph-name="abreve.aalt" horiz-adv-x="1134"/><glyph d="M1120 1997l-327 -395h-127l284 395h170zM934 1608l4 26h129l-8 -35q-29 -166 -117 -227t-240 -61q-285 0 -284 215q0 45 8 86l4 22h129l-8 -39q-4 -20 -4 -55q0 -117 153 -117q199 1 234 185zM891 1028l16 98h158l-201 -1128l-127 -12l6 133h-12q-96 -139 -295 -139 q-178 0 -260 93t-82 279q0 184 65.5 388t170.5 304q109 102 307 103q193 0 242 -119h12zM842 748q10 61 10 98q0 96 -50 137t-155 41q-150 0 -225 -82q-70 -80 -120 -271.5t-50 -340.5q0 -127 48 -177.5t161 -50.5q135 0 214 70t105 225z" glyph-name="uni1EAF.aalt" horiz-adv-x="1134"/><glyph d="M702 1311q-285 0 -284 215q0 45 8 86l4 22h129l-8 -39q-6 -27 -6 -51q0 -121 162 -121q94 0 151 41t76 144l4 26h129l-8 -35q-29 -166 -117 -227t-240 -61zM891 1028l16 98h158l-201 -1128l-127 -12l6 133h-12q-96 -139 -295 -139q-178 0 -260 93t-82 279q0 184 65.5 388 t170.5 304q109 102 307 103q193 0 242 -119h12zM842 748q10 61 10 98q0 96 -50 137t-155 41q-150 0 -225 -82q-70 -80 -120 -271.5t-50 -340.5q0 -127 48 -177.5t161 -50.5q135 0 214 70t105 225zM311 -324l31 183h184l-32 -183h-183z" glyph-name="uni1EB7.aalt" horiz-adv-x="1134"/><glyph d="M815 1602h-123l-186 395h162zM702 1311q-285 0 -284 215q0 45 8 86l4 22h129l-8 -39q-4 -20 -4 -55q0 -117 153 -117q199 0 234 185l4 26h129l-8 -35q-29 -166 -117 -227t-240 -61zM891 1028l16 98h158l-201 -1128l-127 -12l6 133h-12q-96 -139 -295 -139q-178 0 -260 93 t-82 279q0 184 65.5 388t170.5 304q109 102 307 103q193 0 242 -119h12zM842 748q10 61 10 98q0 96 -50 137t-155 41q-150 0 -225 -82q-70 -80 -120 -271.5t-50 -340.5q0 -127 48 -177.5t161 -50.5q135 0 214 70t105 225z" glyph-name="uni1EB1.aalt" horiz-adv-x="1134"/><glyph d="M809 1784q27 18 39 39q10 16 10 39q0 25 -15.5 32t-60.5 7q-25 0 -102 -7l-2 95q84 12 139 12q170 0 170 -113q0 -47 -14 -78q-16 -37 -62 -69l-75 -53q-53 -37 -64 -86h-94q12 66 25.5 93t52.5 54zM702 1311q-285 0 -284 215q0 45 8 86l4 22h129l-8 -39q-4 -20 -4 -55 q0 -117 153 -117q199 0 234 185l4 26h129l-8 -35q-29 -166 -117 -227t-240 -61zM891 1028l16 98h158l-201 -1128l-127 -12l6 133h-12q-96 -139 -295 -139q-178 0 -260 93t-82 279q0 184 65.5 388t170.5 304q109 102 307 103q193 0 242 -119h12zM842 748q10 61 10 98 q0 96 -50 137t-155 41q-150 0 -225 -82q-70 -80 -120 -271.5t-50 -340.5q0 -127 48 -177.5t161 -50.5q135 0 214 70t105 225z" glyph-name="uni1EB3.aalt" horiz-adv-x="1134"/><glyph d="M651 1845q-72 0 -108 -125h-99q18 111 80 178.5t140 67.5q61 0 114 -45l92 -78q18 -16 45 -16q72 0 111 125h98q-18 -109 -79.5 -177.5t-139.5 -68.5q-57 0 -114 47l-91 74q-24 18 -49 18zM934 1608l4 26h127l-6 -35q-29 -166 -117 -227t-242 -61q-285 0 -284 215 q0 25 8 86l4 22h131l-8 -39q-6 -31 -6 -55q0 -59 36.5 -88t118.5 -29q199 1 234 185zM891 1028l16 98h158l-201 -1128l-127 -12l6 133h-12q-96 -139 -295 -139q-178 0 -260 93t-82 279q0 184 65.5 388t170.5 304q109 102 307 103q193 0 242 -119h12zM842 748q10 61 10 98 q0 96 -50 137t-155 41q-150 0 -225 -82q-70 -80 -120 -271.5t-50 -340.5q0 -127 48 -177.5t161 -50.5q135 0 214 70t105 225z" glyph-name="uni1EB5.aalt" horiz-adv-x="1134"/><glyph d="M604 1288l-198 395h122l174 -290l279 290h129l-336 -395h-170zM891 1028l16 98h158l-201 -1128l-127 -12l6 133h-12q-96 -139 -295 -139q-178 0 -260 93t-82 279q0 184 65.5 388t170.5 304q109 102 307 103q193 0 242 -119h12zM842 748q10 61 10 98q0 96 -50 137t-155 41 q-150 0 -225 -82q-70 -80 -120 -271.5t-50 -340.5q0 -127 48 -177.5t161 -50.5q135 0 214 70t105 225z" glyph-name="uni01CE.aalt" horiz-adv-x="1134"/></font>
</defs>
</svg>
