<?xml version="1.0" standalone="no"?>
<!DOCTYPE svg PUBLIC "-//W3C//DTD SVG 1.1//EN" "http://www.w3.org/Graphics/SVG/1.1/DTD/svg11.dtd">
<svg xmlns="http://www.w3.org/2000/svg"><metadata>This SVG WebFont was generated by YouWorkForThem.
Copyright Â© 2017 by Jonathan Hill. All rights reserved.</metadata><defs><font horiz-adv-x="0" id="ywftsvg"><font-face ascent="1604" bbox="-1169 -766 3277 2533" cap-height="1434" descent="-444" font-family="" font-stretch="normal" font-weight="900" panose-1="0 0 10 0 0 0 0 0 0 0" underline-position="0" underline-thickness="0" unicode-range="U+0020-277E" units-per-em="2048" x-height="1126"/><missing-glyph d="M205 61v1229h819v-1229h-819zM348 205h533v942h-533v-942z" horiz-adv-x="1228"/><glyph d="M1413 1245q-55 0 -78.5 -25.5t-25.5 -93.5h180v-276h-182v-850h-441v850h-262v-850h-440v850h-152v276h152v27q0 223 103.5 309t303.5 86q164 0 265 -22l-27 -291q-35 10 -96 10q-55 0 -79 -25.5t-28 -93.5h260v27q0 223 103.5 309t302.5 86q164 0 264 -22l-25 -291 q-39 10 -98 10z" glyph-name="f_f.liga" horiz-adv-x="1509" unicode="ff"/><glyph d="M1567 1569h440v-332h-440v332zM2007 1126v-1126h-440v850h-260v-850h-441v850h-262v-850h-440v850h-152v276h152v27q0 223 103.5 309t303.5 86q164 0 265 -22l-27 -291q-35 10 -96 10q-55 0 -79 -25.5t-28 -93.5h260v27q0 223 103.5 309t302.5 86q154 0 254 -22l-25 -291 q-39 10 -88 10q-55 0 -78.5 -25.5t-25.5 -93.5h698z" glyph-name="f_f_i.liga" horiz-adv-x="2086" unicode="ffi"/><glyph d="M2167 307l26 -305q-113 -23 -264 -22q-184 0 -255.5 82.5t-71.5 244.5v543h-295v-850h-441v850h-262v-850h-440v850h-152v276h152v27q0 223 103.5 309t303.5 86q164 0 265 -22l-27 -291q-35 10 -96 10q-55 0 -79 -25.5t-28 -93.5h260v27q0 223 103.5 309t302.5 86 q164 0 264 -22l-25 -291q-39 10 -98 10q-55 0 -78.5 -25.5t-25.5 -93.5h293v410h440v-1124q0 -68 13 -89.5t54 -21.5q33 0 58 6z" glyph-name="f_f_l.liga" horiz-adv-x="2197" unicode="ffl"/><glyph d="M866 1569h441v-332h-441v332zM1307 1126v-1126h-441v850h-262v-850h-440v850h-152v276h152v27q0 223 103.5 309t303.5 86q154 0 254 -22l-26 -291q-35 10 -86 10q-55 0 -79 -25.5t-28 -93.5h701z" glyph-name="f_i.liga" horiz-adv-x="1386" unicode="fi"/><glyph d="M1466 307l27 -305q-117 -23 -264 -22q-184 0 -256 82.5t-72 244.5v543h-297v-850h-440v850h-152v276h152v27q0 223 103.5 309t303.5 86q164 0 265 -22l-27 -291q-35 10 -96 10q-55 0 -79 -25.5t-28 -93.5h295v410h440v-1124q0 -68 13.5 -89.5t54.5 -21.5q32 0 57 6z" glyph-name="f_l.liga" horiz-adv-x="1497" unicode="fl"/><glyph d="M205 61v1229h819v-1229h-819zM348 205h533v942h-533v-942z" glyph-name=".notdef" horiz-adv-x="1228"/><glyph glyph-name="glyph1"/><glyph glyph-name="glyph2" horiz-adv-x="681"/><glyph glyph-name="space" horiz-adv-x="563" unicode=" "/><glyph d="M162 545l-53 889h507l-53 -889h-401zM129 0v387h467v-387h-467z" glyph-name="exclam" horiz-adv-x="722" unicode="!"/><glyph d="M446 1536l-43 -575h-245l-43 575h331zM879 1536l-43 -575h-246l-45 575h334z" glyph-name="quotedbl" horiz-adv-x="991" unicode="&quot;"/><glyph d="M1247 881h-186l-55 -314h186l-47 -266h-187l-53 -301h-295l54 301h-172l-54 -301h-295l54 301h-181l47 266h181l55 314h-180l47 266h180l51 287h295l-51 -287h172l51 287h295l-51 -287h186zM711 567l55 314h-172l-55 -314h172z" glyph-name="numbersign" horiz-adv-x="1310" unicode="#"/><glyph d="M932 408q0 -186 -78 -281.5t-229 -128.5v-231h-248v213q-174 8 -357 40l29 347q240 -33 303 -33q109 0 109 80q0 57 -45 98l-189 176q-182 172 -182 363q0 182 85 273t247 118v225h248v-215q123 -6 276 -31l-29 -338q-111 18 -237 19q-70 0 -94.5 -15.5t-24.5 -62.5 t41 -84l178 -168q197 -186 197 -364z" glyph-name="dollar" horiz-adv-x="950" unicode="$"/><glyph d="M283 -20l891 1474h278l-891 -1474h-278zM399 602q-186 0 -255.5 103.5t-69.5 318.5q0 240 79.5 331t245.5 91q184 0 254 -103.5t70 -318.5q0 -242 -79 -332t-245 -90zM399.5 797q34.5 0 47 45t12.5 182t-12.5 182t-47 45t-47 -45t-12.5 -182t12.5 -182t47 -45zM1341 -12 q-186 0 -255.5 102.5t-69.5 319.5q0 240 80 330.5t245 90.5q184 0 254 -103t70 -318q0 -242 -79 -332t-245 -90zM1341.5 182q34.5 0 47 45t12.5 182.5t-12.5 182.5t-47 45t-47 -45t-12.5 -182.5t12.5 -182.5t47 -45z" glyph-name="percent" horiz-adv-x="1738" unicode="%"/><glyph d="M1499 0h-491l-80 86q-117 -106 -361 -106q-315 0 -428.5 93t-113.5 304q0 197 122 287l152 112l-45 49q-135 125 -135 295q0 98 34.5 165t102.5 102.5t147.5 51t188.5 15.5q260 0 361.5 -78t101.5 -233q0 -203 -152 -297l-139 -88l104 -107l125 174h391l-260 -438z M592 1176q-49 0 -66.5 -18.5t-17.5 -63.5q0 -72 22 -95l54 -55l61 66q29 31 29 82q0 49 -18.5 66.5t-63.5 17.5zM651 348l17 25l-160 174l-43 -49q-37 -43 -37 -90q0 -63 24.5 -85t98.5 -22q67 0 100 47z" glyph-name="ampersand" horiz-adv-x="1497" unicode="&amp;"/><glyph d="M446 1536l-43 -575h-245l-43 575h331z" glyph-name="quotesingle" horiz-adv-x="559" unicode="'"/><glyph d="M674 -365q-139 27 -244.5 87.5t-172.5 146.5t-109 206t-58 252t-16 298q0 342 72.5 558t199.5 317.5t328 139.5v-286q-141 -51 -201.5 -217t-60.5 -500q0 -332 60 -498t202 -219v-285z" glyph-name="parenleft" horiz-adv-x="684" unicode="("/><glyph d="M10 -365v285q141 53 201.5 219t60.5 498q0 334 -60 500t-202 217v286q201 -39 328 -140t199.5 -317t72.5 -558q0 -211 -27.5 -368t-93 -290t-185.5 -216t-294 -116z" glyph-name="parenright" horiz-adv-x="684" unicode=")"/><glyph d="M969 1104l-279 -55l193 -209l-230 -166l-137 248l-139 -248l-230 166l193 209l-279 55l89 270l256 -119l-33 281h284l-32 -281l256 119z" glyph-name="asterisk" horiz-adv-x="1028" unicode="*"/><glyph d="M1188 739v-327h-371v-371h-328v371h-368v327h368v369h328v-369h371z" glyph-name="plus" horiz-adv-x="1310" unicode="+"/><glyph d="M139 424h467v-424l-160 -424h-278l156 424h-185v424z" glyph-name="comma" horiz-adv-x="743" unicode=","/><glyph d="M98 788h676v-307h-676v307z" glyph-name="hyphen" horiz-adv-x="872" unicode="-"/><glyph d="M139 0v424h467v-424h-467z" glyph-name="period" horiz-adv-x="743" unicode="."/><glyph d="M-25 -102l633 1638h277l-633 -1638h-277z" glyph-name="slash" horiz-adv-x="856" unicode="/"/><glyph d="M602 -20q-313 0 -433 174t-120 540q0 211 36 353.5t109.5 221.5t171 111.5t236.5 32.5q315 0 433 -175t118 -544q0 -211 -36 -352t-109.5 -220t-170 -110.5t-235.5 -31.5zM602 309q59 0 79.5 78t20.5 309.5t-20 309t-80 77.5q-61 0 -81.5 -77.5t-20.5 -309t20.5 -309.5 t81.5 -78z" glyph-name="zero" horiz-adv-x="1200" unicode="0"/><glyph d="M733 348h232v-348h-922v348h252v674l-223 -59l-62 354l285 76h438v-1045z" glyph-name="one" horiz-adv-x="993" unicode="1"/><glyph d="M494 350v-2h495v-348h-964v301q0 104 43 178t174 191l247 221q49 43 50 80q0 59 -32 78.5t-130 19.5q-102 0 -256 -22l-31 335q217 31 369 31q299 0 414.5 -97t115.5 -288q0 -102 -39 -175t-127 -151l-272 -239q-57 -52 -57 -113z" glyph-name="two" horiz-adv-x="1028" unicode="2"/><glyph d="M827 741q86 -37 121 -106.5t35 -181.5q0 -270 -138 -371.5t-431 -101.5q-258 0 -389 55l30 354q121 -53 363 -53q66 0 90 25.5t24 89.5q0 72 -25.5 97t-84.5 25h-238v299h205q66 0 88.5 20.5t22.5 76.5q0 68 -24.5 91t-92.5 23q-209 0 -295 -43l-29 328q111 45 353 45 q295 0 416.5 -88t121.5 -288.5t-123 -278.5v-17z" glyph-name="three" horiz-adv-x="1021" unicode="3"/><glyph d="M1176 555v-348h-107v-207h-414v207h-592v377l295 809h398l-271 -813v-25h170v346h414v-346h107z" glyph-name="four" horiz-adv-x="1210" unicode="4"/><glyph d="M559 872q281 -8 382 -103t101 -323q0 -262 -147 -364t-432 -102q-258 0 -389 49l12 360q123 -39 358 -39q88 0 118 22.5t30 86t-27.5 84t-111.5 20.5h-347l29 830h848v-349h-420z" glyph-name="five" horiz-adv-x="1079" unicode="5"/><glyph d="M723 913q209 0 288 -115.5t79 -340.5q0 -272 -126 -374.5t-389 -102.5q-158 0 -263 29.5t-163.5 91t-82 143.5t-23.5 202q0 365 178 656q88 141 228 291h489q-178 -186 -291 -355q-43 -61 -88 -143h12q66 18 152 18zM565 319q61 0 82 33t21 131q0 90 -20.5 120t-80.5 30 q-61 0 -81.5 -31t-20.5 -125t20.5 -126t79.5 -32z" glyph-name="six" horiz-adv-x="1122" unicode="6"/><glyph d="M25 1393h933v-359l-448 -1034h-438l448 1026v18h-495v349z" glyph-name="seven" horiz-adv-x="993" unicode="7"/><glyph d="M905 721q231 -72 232 -328q0 -233 -139.5 -323t-407.5 -90q-309 0 -430 105t-121 308q0 258 235 330v10q-193 72 -192 303q0 213 130 295t378 82q285 0 395.5 -98t110.5 -289q0 -223 -191 -295v-10zM590 1098q-63 0 -86 -28t-23 -95q0 -74 24.5 -101.5t84.5 -27.5 q61 0 83.5 28.5t22.5 100.5t-24.5 97.5t-81.5 25.5zM590 313q61 0 82.5 29t21.5 100q0 78 -24.5 105.5t-79.5 27.5q-61 0 -84 -29.5t-23 -103t24 -101.5t83 -28z" glyph-name="eight" horiz-adv-x="1173" unicode="8"/><glyph d="M549 1413q158 0 263.5 -29.5t163.5 -91t81.5 -143.5t23.5 -203q0 -365 -178 -655q-88 -141 -227 -291h-490q174 186 291 354q49 74 86 142h-18q-66 -16 -144 -17q-209 0 -287.5 116t-78.5 341q0 272 126 374.5t388 102.5zM457 909q0 -88 19.5 -118.5t78.5 -30.5 q63 0 83.5 30.5t20.5 125t-20.5 126t-81.5 31.5q-59 0 -79.5 -33t-20.5 -131z" glyph-name="nine" horiz-adv-x="1122" unicode="9"/><glyph d="M139 702v424h467v-424h-467zM139 0v424h467v-424h-467z" glyph-name="colon" horiz-adv-x="743" unicode=":"/><glyph d="M139 1126h467v-424h-467v424zM139 0v424h467v-424l-160 -424h-278l156 424h-185z" glyph-name="semicolon" horiz-adv-x="743" unicode=";"/><glyph d="M1116 793l-573 -193v-59l573 -191v-344l-921 334v463l921 334v-344z" glyph-name="less" horiz-adv-x="1310" unicode="&lt;"/><glyph d="M121 653v328h1067v-328h-1067zM121 188v328h1067v-328h-1067z" glyph-name="equal" horiz-adv-x="1310" unicode="="/><glyph d="M193 1137l923 -334v-463l-923 -334v344l575 191v59l-575 193v344z" glyph-name="greater" horiz-adv-x="1310" unicode=">"/><glyph d="M188 545l-2 53q-2 102 18.5 148.5t108.5 113.5l99 76q45 35 45 70q0 47 -29 62t-111 15q-76 0 -243 -16l-31 354q229 33 389 33q279 0 387.5 -92t108.5 -270q0 -102 -39 -166t-121 -133l-72 -62q-63 -55 -83.5 -84t-20.5 -63l-2 -39h-402zM156 0v387h467v-387h-467z" glyph-name="question" horiz-adv-x="950" unicode="?"/><glyph d="M918 1454q246 0 416.5 -62.5t266 -185.5t136.5 -280.5t41 -372.5q0 -162 -29 -272.5t-85 -171t-127 -85t-169 -24.5q-176 0 -369 158l-14 86h-12q-39 -90 -156 -90q-156 0 -216 101t-60 298q0 233 72.5 323.5t213.5 90.5q92 0 136 -56h10v56h307v-740q35 -14 66 -14 q76 0 101.5 67.5t25.5 274.5q0 360 -116 508.5t-419 148.5q-293 0 -412.5 -146t-119.5 -513q0 -369 121.5 -534.5t410.5 -165.5q160 0 283 55l18 -254q-135 -43 -313 -43q-193 0 -339.5 48t-237.5 130t-148.5 204t-80 255t-22.5 297q0 264 58.5 446.5t172 280.5t255 140 t334.5 42zM858 559.5q0 -110.5 11.5 -146.5t48.5 -36q35 0 45 22.5t10 94.5v133q0 70 -10.5 92t-44.5 22q-37 0 -48.5 -35.5t-11.5 -146z" glyph-name="at" horiz-adv-x="1875" unicode="@"/><glyph d="M907 0l-51 297h-340l-51 -297h-465l348 1434h676l348 -1434h-465zM578 645h217l-76 440h-66z" glyph-name="A" horiz-adv-x="1370" unicode="A"/><glyph d="M1042 743q115 -35 165 -115.5t50 -226.5q0 -227 -132 -314t-388 -87h-612v1434h577q295 0 408 -87t113 -255q0 -256 -181 -332v-17zM629 1126h-45v-272h45q90 0 120.5 27.5t30.5 111.5q0 80 -30.5 106.5t-120.5 26.5zM635 326q94 0 128 28.5t34 102.5q0 82 -36 111.5 t-126 29.5h-51v-272h51z" glyph-name="B" horiz-adv-x="1323" unicode="B"/><glyph d="M711 -20q-186 0 -312.5 47t-197 145t-99 225t-28.5 310q0 219 40 367.5t124 230t194.5 115.5t269.5 34q197 0 332 -49l-33 -363q-98 41 -239 41q-125 0 -171 -74.5t-46 -291.5t46 -292t171 -75q145 0 239 43l64 -358q-139 -55 -354 -55z" glyph-name="C" horiz-adv-x="1103" unicode="C"/><glyph d="M723 1434q168 0 281.5 -50.5t175 -148.5t87 -222t25.5 -296q0 -168 -27.5 -294t-74.5 -206t-120 -129t-157 -68.5t-190 -19.5h-598v1434h598zM672 350q90 0 119.5 74t29.5 293t-29.5 292.5t-119.5 73.5h-88v-733h88z" glyph-name="D" horiz-adv-x="1363" unicode="D"/><glyph d="M582 348h442v-348h-901v1434h876v-349h-417v-167h376v-349h-376v-221z" glyph-name="E" horiz-adv-x="1091" unicode="E"/><glyph d="M975 1085h-393v-208h356v-349h-356v-528h-459v1434h852v-349z" glyph-name="F" horiz-adv-x="1028" unicode="F"/><glyph d="M1233 868v-852l-361 -30l-22 135h-16q-98 -141 -302 -141q-258 0 -358 191t-100 560q0 176 28.5 304t79.5 209t136 128t181.5 64.5t231.5 17.5q250 0 393 -43l-32 -373q-145 45 -340 45q-125 0 -166 -73.5t-41 -294.5q0 -217 31.5 -291t125.5 -74q63 0 97.5 39t34.5 141 v11h-117v327h516z" glyph-name="G" horiz-adv-x="1312" unicode="G"/><glyph d="M858 1434h459v-1434h-459v569h-274v-569h-459v1434h459v-516h274v516z" glyph-name="H" horiz-adv-x="1439" unicode="H"/><glyph d="M584 1434v-1434h-459v1434h459z" glyph-name="I" horiz-adv-x="704" unicode="I"/><glyph d="M279 -20q-145 0 -263 24l33 354q27 -8 70 -8q47 0 62.5 22.5t15.5 88.5v973h458v-1092q0 -205 -96 -283.5t-280 -78.5z" glyph-name="J" horiz-adv-x="765" unicode="J"/><glyph d="M842 0l-207 569h-51v-569h-459v1434h459v-516h55l207 516h485l-344 -680l375 -754h-520z" glyph-name="K" horiz-adv-x="1359" unicode="K"/><glyph d="M584 348h303v-348h-762v1434h459v-1086z" glyph-name="L" horiz-adv-x="921" unicode="L"/><glyph d="M1618 1434v-1434h-412v856h-8l-158 -522h-338l-157 522h-8v-856h-412v1434h534l207 -637h11l206 637h535z" glyph-name="M" horiz-adv-x="1738" unicode="M"/><glyph d="M909 1434h396v-1434h-580l-188 838h-19v-838h-393v1434h584l184 -830h16v830z" glyph-name="N" horiz-adv-x="1425" unicode="N"/><glyph d="M713 -20q-186 0 -312.5 47t-197 146t-99 228t-28.5 316q0 217 41 363.5t126 227.5t196.5 113.5t273.5 32.5q188 0 314 -47t195.5 -146.5t97.5 -228.5t28 -315q0 -217 -41 -363.5t-126 -227.5t-196.5 -113.5t-271.5 -32.5zM713 350q98 0 131 74t33 293t-33 292.5 t-131 73.5q-100 0 -133 -73.5t-33 -292.5t33 -293t133 -74z" glyph-name="O" horiz-adv-x="1419" unicode="O"/><glyph d="M672 1434q315 0 436 -120t121 -353q0 -164 -39 -271.5t-119 -163t-173 -76t-226 -20.5h-88v-430h-459v1434h547zM627 745q88 0 119.5 44.5t31.5 154.5q0 102 -33.5 138t-117.5 36h-43v-373h43z" glyph-name="P" horiz-adv-x="1269" unicode="P"/><glyph d="M1346 717q0 -350 -108 -515t-327 -206q2 -74 21.5 -99.5t71.5 -25.5q76 0 133 23l24 -275q-115 -39 -274 -39q-213 0 -294 92t-81 269v55q-246 47 -342 223t-96 498q0 217 41 363.5t126 227.5t196.5 113.5t273.5 32.5q188 0 314 -47t195.5 -146.5t97.5 -228.5t28 -315z M711 1083q-100 0 -133 -73.5t-33 -292.5t32.5 -293t133.5 -74q98 0 130.5 74t32.5 293t-32.5 292.5t-130.5 73.5z" glyph-name="Q" horiz-adv-x="1417" unicode="Q"/><glyph d="M840 0l-189 502h-67v-502h-459v1434h506q227 0 354 -51.5t174 -145.5t47 -256q0 -240 -176 -373l293 -608h-483zM621 1120h-37v-340h37q84 0 112.5 34t28.5 134q0 102 -28.5 137t-112.5 35z" glyph-name="R" horiz-adv-x="1320" unicode="R"/><glyph d="M420 -20q-162 0 -395 40l30 347q238 -33 303 -33q106 0 107 80q0 57 -45 98l-187 176q-182 172 -182 363q0 227 130 315t384 88q129 0 342 -33l-28 -338q-111 18 -240 19q-70 0 -93.5 -15.5t-23.5 -62.5q0 -49 41 -84l176 -168q197 -184 197 -364q0 -242 -131 -335 t-385 -93z" glyph-name="S" horiz-adv-x="970" unicode="S"/><glyph d="M1020 1434v-349h-270v-1085h-459v1085h-275v349h1004z" glyph-name="T" horiz-adv-x="1036" unicode="T"/><glyph d="M676 -20q-170 0 -287 37.5t-179.5 113.5t-89 170t-26.5 225v908h459v-934q0 -90 23.5 -120t91.5 -30q66 0 88 30t22 120v934h459v-908q0 -309 -142.5 -427.5t-418.5 -118.5z" glyph-name="U" horiz-adv-x="1329" unicode="U"/><glyph d="M825 1434h465l-307 -1434h-676l-307 1434h465l158 -1086h45z" glyph-name="V" horiz-adv-x="1288" unicode="V"/><glyph d="M1421 1434h465l-217 -1434h-577l-138 1085h-24l-135 -1085h-580l-215 1434h465l90 -1086h25l116 1086h494l117 -1086h24z" glyph-name="W" horiz-adv-x="1884" unicode="W"/><glyph d="M823 0l-157 414h-19l-158 -414h-489l338 754l-320 680h486l143 -416h19l143 416h483l-317 -680l336 -754h-488z" glyph-name="X" horiz-adv-x="1308" unicode="X"/><glyph d="M1300 1434l-428 -990v-444h-458v477l-414 957h465l174 -582h23l176 582h462z" glyph-name="Y" horiz-adv-x="1298" unicode="Y"/><glyph d="M92 1434h912v-387l-521 -670v-29h508v-348h-966v389l520 668v28h-453v349z" glyph-name="Z" horiz-adv-x="1052" unicode="Z"/><glyph d="M664 1331h-207v-1382h207v-277h-545v1936h545v-277z" glyph-name="bracketleft" horiz-adv-x="673" unicode="["/><glyph d="M885 -102h-277l-633 1638h277z" glyph-name="backslash" horiz-adv-x="856" unicode="\"/><glyph d="M557 1608v-1936h-545v277h207v1382h-207v277h545z" glyph-name="bracketright" horiz-adv-x="673" unicode="]"/><glyph d="M727 567l-188 604h-23l-188 -604h-328l348 906h359l348 -906h-328z" glyph-name="asciicircum" horiz-adv-x="1052" unicode="^"/><glyph d="M139 -76h1209v-266h-1209v266z" glyph-name="underscore" horiz-adv-x="1484" unicode="_"/><glyph d="M291 1296l-266 408h362l160 -408h-256z" glyph-name="grave" horiz-adv-x="581" unicode="`"/><glyph d="M698 1147q205 0 279 -95.5t74 -287.5v-744l-402 -34l-20 129h-17q-70 -135 -258 -135q-178 0 -247.5 86t-69.5 239q0 193 100.5 266.5t294.5 73.5h178v37q0 66 -23.5 91.5t-66.5 25.5q-92 0 -313 -56l-62 322q354 82 553 82zM459 356q0 -117 71 -116q80 0 80 180v55h-55 q-41 0 -68.5 -32t-27.5 -87z" glyph-name="a" horiz-adv-x="1132" unicode="a"/><glyph d="M750 1147q96 0 166.5 -26.5t128 -91t86 -183.5t28.5 -293q0 -283 -87 -428t-310 -145q-170 0 -225 135h-15l-22 -129l-402 34v1516h443v-469h12q62 80 197 80zM620.5 301q51.5 0 68 51t16.5 209q0 160 -16.5 212t-70.5 52q-49 0 -63 -32.5t-14 -135.5v-188 q0 -102 14 -135t65.5 -33z" glyph-name="b" horiz-adv-x="1206" unicode="b"/><glyph d="M596 -20q-137 0 -233.5 26.5t-169 91t-108.5 179t-36 286.5q0 332 134 458t415 126q137 0 233 -27l-28 -313q-53 18 -135 18q-100 0 -133 -51t-33 -211q0 -158 32.5 -210t133.5 -52q90 0 147 18l27 -313q-94 -26 -246 -26z" glyph-name="c" horiz-adv-x="878" unicode="c"/><glyph d="M668 1536h440v-1516l-401 -34l-21 129h-14q-55 -135 -226 -135q-223 0 -310 145t-87 428q0 174 28.5 293t86 183.5t128 91t167.5 26.5q135 0 196 -80h13v469zM502 561q0 -156 17.5 -208t68.5 -52q49 0 64.5 33t15.5 135v188q0 102 -14.5 135t-63.5 33q-53 0 -70.5 -52 t-17.5 -212z" glyph-name="d" horiz-adv-x="1206" unicode="d"/><glyph d="M473 449q8 -86 31.5 -119t79.5 -33q133 0 374 47l52 -295q-248 -70 -437 -69q-250 0 -387 138t-137 460q0 166 37 279.5t109.5 176t161.5 88t210 25.5q150 0 246 -37t147.5 -116t70 -179t18.5 -252q0 -55 -7 -114h-569zM573 866q-53 0 -75.5 -39t-26.5 -143h186 q-4 104 -22.5 143t-61.5 39z" glyph-name="e" horiz-adv-x="1095" unicode="e"/><glyph d="M713 1245q-55 0 -79 -25.5t-28 -93.5h182v-276h-184v-850h-440v850h-152v276h152v27q0 223 103.5 309t303.5 86q164 0 265 -22l-27 -291q-35 10 -96 10z" glyph-name="f" horiz-adv-x="808" unicode="f"/><glyph d="M578 291q219 0 348 -44t175 -114t46 -178q0 -193 -149.5 -268.5t-434.5 -75.5q-313 0 -434 63.5t-121 188.5q0 164 180 205v24q-119 61 -118 170q0 96 112 193q-137 86 -137 297q0 223 122 309t357 86q135 0 224 -21h374l17 -188l-146 -27q31 -53 31 -139 q0 -223 -121 -308t-356 -85q-43 0 -109 4l-12 -10q-18 -18 -18 -43q0 -39 65 -39h105zM537 893q-51 0 -68.5 -27.5t-17.5 -103.5q0 -78 17 -103.5t69 -25.5q49 0 65 27.5t16 101.5q0 78 -17 104.5t-64 26.5zM563 -145q174 0 174 98q0 55 -41 75.5t-135 20.5h-80 q-84 -20 -84 -108q0 -86 166 -86z" glyph-name="g" horiz-adv-x="1157" unicode="g"/><glyph d="M834 1147q195 0 264 -95.5t69 -328.5v-723h-440v692q0 74 -19.5 103.5t-72.5 29.5q-49 0 -71.5 -28.5t-22.5 -104.5v-692h-443v1536h443v-496h18q76 107 275 107z" glyph-name="h" horiz-adv-x="1251" unicode="h"/><glyph d="M82 1569h467v-332h-467v332zM535 1126v-1126h-441v1126h441z" glyph-name="i" horiz-adv-x="628" unicode="i"/><glyph d="M45 1237v332h467v-332h-467zM133 -389q-158 0 -274 24l24 291q33 -8 86.5 -8t71.5 31t18 121v1056h441v-1153q0 -205 -93.5 -283.5t-273.5 -78.5z" glyph-name="j" horiz-adv-x="591" unicode="j"/><glyph d="M741 0l-145 481h-55v-481h-443v1536h443v-778h71l133 368h476l-273 -495l281 -631h-488z" glyph-name="k" horiz-adv-x="1234" unicode="k"/><glyph d="M418 -20q-184 0 -256 82.5t-72 244.5v1229h440v-1124q0 -66 13.5 -88.5t52.5 -22.5q35 0 59 6l27 -305q-117 -22 -264 -22z" glyph-name="l" horiz-adv-x="686" unicode="l"/><glyph d="M1417 1147q184 0 251 -95.5t67 -328.5v-723h-441v692q0 74 -16 103.5t-61 29.5q-41 0 -60.5 -28.5t-19.5 -104.5v-692h-441v692q0 74 -16 103.5t-59 29.5q-41 0 -60.5 -28.5t-19.5 -104.5v-692h-443v1106l404 35l22 -131h15q74 137 282 137q217 0 279 -148h16 q80 148 301 148z" glyph-name="m" horiz-adv-x="1820" unicode="m"/><glyph d="M834 1147q195 0 264 -95.5t69 -328.5v-723h-440v692q0 74 -19.5 103.5t-72.5 29.5q-49 0 -72.5 -28.5t-23.5 -104.5v-692h-441v1106l402 35l20 -129h21q74 135 293 135z" glyph-name="n" horiz-adv-x="1251" unicode="n"/><glyph d="M592 -20q-307 0 -425 148t-118 435q0 330 138.5 457t404.5 127q305 0 423 -148.5t118 -435.5q0 -330 -138.5 -456.5t-402.5 -126.5zM592 301q51 0 68.5 52.5t17.5 210t-17.5 209.5t-68.5 52q-53 0 -71.5 -53t-18.5 -208.5t18.5 -209t71.5 -53.5z" glyph-name="o" horiz-adv-x="1179" unicode="o"/><glyph d="M762 1147q119 0 198.5 -40t122.5 -120t59.5 -177t16.5 -237q0 -174 -28.5 -292.5t-86 -183t-128 -91t-166.5 -26.5q-133 0 -193 75h-16v-424h-443v1475l402 35l20 -117h23q55 123 219 123zM618 301q53 0 70 52.5t17 211.5q0 158 -16.5 209t-68 51t-65.5 -32.5t-14 -135.5 v-188q0 -102 14 -135t63 -33z" glyph-name="p" horiz-adv-x="1206" unicode="p"/><glyph d="M707 1141l401 -35v-1475h-440v424h-17q-59 -76 -192 -75q-96 0 -167 26.5t-128.5 91t-86 183t-28.5 292.5q0 139 16.5 236.5t59.5 177.5t123 120t198 40q160 0 220 -121h22zM502 565q0 -160 17.5 -212t70.5 -52q49 0 63.5 33t14.5 135v188q0 102 -15.5 135t-64.5 33 q-51 0 -68.5 -52t-17.5 -208z" glyph-name="q" horiz-adv-x="1206" unicode="q"/><glyph d="M821 1147q31 0 41 -2l-35 -385q-55 27 -147 26q-86 0 -112.5 -44t-26.5 -179v-563h-443v1106l406 35l24 -156h21q65 162 272 162z" glyph-name="r" horiz-adv-x="868" unicode="r"/><glyph d="M430 -20q-176 0 -387 36l27 310q137 -25 231 -25q49 0 63.5 10.5t14.5 42.5q0 29 -31 49l-180 123q-125 84 -125 278.5t100.5 268.5t296.5 74q150 0 389 -39l-26 -311q-150 29 -234 28q-31 0 -41 -9t-10 -34q0 -29 23 -45l151 -106q88 -63 129 -128t41 -167 q0 -201 -110.5 -278.5t-321.5 -77.5z" glyph-name="s" horiz-adv-x="884" unicode="s"/><glyph d="M752 850h-164v-444q0 -63 12 -84t51 -21q33 0 56 6l24 -307q-100 -20 -254 -20q-184 0 -255.5 82.5t-71.5 244.5v543h-138v276h138v273h438v-273h164v-276z" glyph-name="t" horiz-adv-x="798" unicode="t"/><glyph d="M684 1126h440v-1106l-403 -34l-21 129h-18q-70 -135 -279 -135q-184 0 -250.5 95t-66.5 328v723h442v-692q0 -74 15.5 -103.5t60.5 -29.5q41 0 60.5 28.5t19.5 104.5v692z" glyph-name="u" horiz-adv-x="1222" unicode="u"/><glyph d="M664 1126h460l-225 -1126h-672l-227 1126h461l84 -825h35z" glyph-name="v" horiz-adv-x="1122" unicode="v"/><glyph d="M1407 1126h463l-189 -1126h-626l-107 825h-28l-107 -825h-625l-188 1126h461l55 -825h33l108 825h553l109 -825h35z" glyph-name="w" horiz-adv-x="1867" unicode="w"/><glyph d="M721 0l-119 301h-22l-121 -301h-459l276 575l-268 551h461l113 -276h16l113 276h460l-268 -551l277 -575h-459z" glyph-name="x" horiz-adv-x="1177" unicode="x"/><glyph d="M664 1126h460l-254 -1126q-49 -223 -173 -306t-318 -83q-127 0 -277 35l25 291q141 -20 240 -21q92 0 127.5 28.5t46.5 121.5l2 20h-316l-227 1040h461l82 -739h35z" glyph-name="y" horiz-adv-x="1122" unicode="y"/><glyph d="M465 297h412v-297h-852v340l391 471v18h-357v297h793v-338l-387 -462v-29z" glyph-name="z" horiz-adv-x="911" unicode="z"/><glyph d="M586 -41q49 0 96 16l25 -278q-84 -25 -211 -25q-160 0 -243 72t-83 256v369q0 102 -23.5 135t-97.5 33v206q74 0 97.5 33t23.5 135v369q0 184 83 256t243 72q127 0 211 -25l-25 -278q-47 16 -96 16q-47 0 -62.5 -25.5t-15.5 -101.5v-307q0 -98 -26.5 -154.5t-90.5 -87.5 v-10q63 -31 90 -87t27 -155v-307q0 -76 15.5 -101.5t62.5 -25.5z" glyph-name="braceleft" horiz-adv-x="716" unicode="{"/><glyph d="M426 1653v-2042h-276v2042h276z" glyph-name="bar" horiz-adv-x="571" unicode="|"/><glyph d="M549 911q0 -100 24.5 -134t96.5 -34v-206q-72 0 -96.5 -34t-24.5 -134v-369q0 -184 -83 -256t-243 -72q-123 0 -211 25l25 278q47 -16 96 -16q47 0 62.5 25.5t15.5 101.5v307q0 98 25.5 154.5t89.5 85.5v14q-63 29 -89 85t-26 155v307q0 76 -15.5 101.5t-62.5 25.5 q-49 0 -96 -16l-25 278q88 25 211 25q160 0 243 -72t83 -256v-369z" glyph-name="braceright" horiz-adv-x="716" unicode="}"/><glyph d="M350 428l-237 78q0 166 93 267t243 101q98 0 194 -57l160 -96q29 -16 57 -16q74 0 98 122l238 -77q0 -170 -96 -269.5t-240 -99.5q-100 0 -194 57l-160 97q-31 16 -57 16q-74 0 -99 -123z" glyph-name="asciitilde" horiz-adv-x="1310" unicode="~"/><glyph glyph-name="uni00A0" horiz-adv-x="563" unicode=" "/><glyph d="M129 1065h467v-387h-467v387zM162 520h401l53 -889h-507z" glyph-name="exclamdown" horiz-adv-x="722" unicode="¡"/><glyph d="M817 6q-57 -16 -172 -24v-199h-235v207q-195 31 -290 162t-95 411.5t95 411.5t290 162v206h235v-198q92 -6 162 -25l-29 -313q-53 18 -135 18q-100 0 -133 -51t-33 -211q0 -158 33 -210t133 -52q90 0 148 18z" glyph-name="cent" horiz-adv-x="821" unicode="¢"/><glyph d="M565 348h535v-348h-1053v348q131 53 164 256h-152v277h164q0 25 -1 68.5t-1 62.5q0 250 117 346t336 96q162 0 370 -33l-34 -362q-131 25 -203 24q-84 0 -111.5 -41t-27.5 -161h278v-277h-293q-23 -162 -88 -246v-10z" glyph-name="sterling" horiz-adv-x="1148" unicode="£"/><glyph d="M844 719v-10h286v-205h-286v-103h286v-204h-286v-197h-438v197h-287v204h287v103h-287v205h287v10l-406 715h457l168 -410h20l168 410h457z" glyph-name="yen" horiz-adv-x="1267" unicode="¥"/><glyph d="M150 813v840h276v-840h-276zM150 -389v840h276v-840h-276z" glyph-name="brokenbar" horiz-adv-x="571" unicode="¦"/><glyph d="M864 213v-20q61 -86 62 -222q0 -225 -124 -321t-368 -96q-180 0 -387 32l21 305q229 -29 292 -28q90 0 124 21.5t34 68.5q0 68 -61 104l-224 133q-78 45 -118.5 111t-48 113t-7.5 116q0 205 138 279v12q-68 88 -68 246q0 215 124 301t363 86q156 0 332 -24l-20 -300 q-123 16 -221 17q-102 0 -136 -14.5t-34 -65.5q0 -53 47 -82l215 -129q117 -70 156.5 -157t39.5 -191q0 -213 -131 -295zM483 469l117 -74q25 25 25 74q0 39 -13.5 59.5t-50.5 42.5l-92 58q-33 -23 -33 -72q0 -35 9 -52.5t38 -35.5z" glyph-name="section" horiz-adv-x="1034" unicode="§"/><glyph d="M98 1604h328v-287h-328v287zM584 1604h327v-287h-327v287z" glyph-name="dieresis" horiz-adv-x="1007" unicode="¨"/><glyph d="M800.5 -20q-319.5 0 -523 210.5t-203.5 526t203.5 526.5t523 211t522.5 -211t203 -526.5t-203 -526t-522.5 -210.5zM801 162q231 0 381.5 155.5t150.5 399.5t-150.5 399.5t-381.5 155.5q-233 0 -383 -155.5t-150 -399.5t150 -399.5t383 -155.5zM842 330q-190 0 -262 93 t-72 288q0 225 80 309t250 84q109 0 174 -25l-17 -192q-49 23 -127 22q-66 0 -89 -39t-23 -153.5t23.5 -153.5t88.5 -39q82 0 127 23l33 -189q-67 -28 -186 -28z" glyph-name="copyright" horiz-adv-x="1597" unicode="©"/><glyph d="M514 1444q141 0 191.5 -65.5t50.5 -198.5v-512l-277 -25l-14 90h-10q-45 -94 -179 -94q-123 0 -171 59.5t-48 165.5q0 131 70 182.5t203 51.5h123v26q0 80 -61.5 80t-217.5 -39l-41 221q238 58 381 58zM348 899q0 -82 49 -82q55 0 56 125v37h-37q-31 0 -49.5 -21.5 t-18.5 -58.5z" glyph-name="ordfeminine" horiz-adv-x="864" unicode="ª"/><glyph d="M25 754l462 372v-286l-235 -267l235 -266v-287l-462 373v361zM1018 1126v-286l-238 -267l238 -266v-287l-463 373v361z" glyph-name="guillemotleft" horiz-adv-x="1067" unicode="«"/><glyph d="M524 1444q211 0 347.5 -144.5t136.5 -353.5q0 -211 -136.5 -355.5t-347.5 -144.5q-213 0 -349 144.5t-136 355.5q0 209 136 353.5t349 144.5zM524 569q154 0 254.5 106.5t100.5 270.5t-100.5 270.5t-254.5 106.5q-156 0 -256 -106.5t-100 -270.5t100 -270.5t256 -106.5z M700 1044q0 -82 -61 -131l102 -213h-170l-65 177h-25v-177h-162v502h179q117 0 159.5 -36t42.5 -122zM496 1094h-15v-119h15q29 0 39 11t10 46q0 37 -10 49.5t-39 12.5z" glyph-name="registered" horiz-adv-x="1044" unicode="®"/><glyph d="M98 1591h621v-286h-621v286z" glyph-name="macron" horiz-adv-x="815" unicode="¯"/><glyph d="M442.5 846q-163.5 0 -268 104.5t-104.5 258t104.5 258t268 104.5t269 -104.5t105.5 -258t-105.5 -258t-269 -104.5zM442.5 1065q61.5 0 100.5 41t39 102.5t-39 102.5t-101 41q-59 0 -99 -42t-40 -102q0 -61 39 -102t100.5 -41z" glyph-name="degree" horiz-adv-x="882" unicode="°"/><glyph d="M819 932h371v-328h-371v-297h-327v297h-371v328h371v295h327v-295zM121 -121v328h1069v-328h-1069z" glyph-name="plusminus" horiz-adv-x="1310" unicode="±"/><glyph d="M305 862v-2h309v-217h-602v188q0 68 27 115t108 123l156 141q31 29 31 54q0 39 -20.5 51t-82.5 12q-63 0 -157 -16l-21 213q139 18 232 18q186 0 257.5 -61.5t71.5 -184.5q0 -63 -24.5 -106t-77.5 -94l-170 -160q-37 -35 -37 -74z" glyph-name="uni00B2" horiz-adv-x="643" unicode="²"/><glyph d="M516 1112q100 -39 100 -184q0 -172 -87 -236.5t-269 -64.5q-164 0 -244 37l21 221q80 -35 225 -35q43 0 57.5 16.5t14.5 59.5q0 47 -15.5 63.5t-54.5 16.5h-147v190h129q39 0 53 13.5t14 47.5q0 45 -14 60.5t-57 15.5q-131 0 -185 -26l-18 204q72 29 219 29 q184 0 260 -56.5t76 -183.5q0 -129 -78 -178v-10z" glyph-name="uni00B3" horiz-adv-x="643" unicode="³"/><glyph d="M25 1296l159 408h363l-266 -408h-256z" glyph-name="acute" horiz-adv-x="581" unicode="´"/><glyph d="M1270 1434v-1803h-279v1545h-127v-1545h-278v799q-285 0 -417 126t-132 419q0 246 115.5 352.5t433.5 106.5h684z" glyph-name="paragraph" horiz-adv-x="1417" unicode="¶"/><glyph d="M147 403v424h467v-424h-467z" glyph-name="periodcentered" horiz-adv-x="759" unicode="·"/><glyph d="M305 -86q217 -12 217 -197q0 -117 -71.5 -173t-182.5 -56q-106 0 -233 41l12 141q55 -23 109 -22q80 0 80 71q0 57 -66 58h-90l55 295h215z" glyph-name="cedilla" horiz-adv-x="544" unicode="¸"/><glyph d="M465 862h143v-217h-575v217h157v443l-139 -37l-39 221l178 47h275v-674z" glyph-name="uni00B9" horiz-adv-x="618" unicode="¹"/><glyph d="M520 639q-211 0 -293 102.5t-82 298.5q0 227 95.5 315.5t279.5 88.5q209 0 291 -102.5t82 -301.5q0 -227 -95.5 -314t-277.5 -87zM520 860q35 0 47.5 37t12.5 143q0 109 -12.5 146t-47.5 37q-37 0 -49 -37t-12 -145.5t12 -144.5t49 -36z" glyph-name="ordmasculine" horiz-adv-x="1038" unicode="º"/><glyph d="M49 840v286l463 -372v-361l-463 -373v287l238 266zM580 1126l462 -372v-361l-462 -373v287l235 266l-235 267v286z" glyph-name="guillemotright" horiz-adv-x="1067" unicode="»"/><glyph d="M1059 1475h266l-596 -1516h-266zM614 557h-585v217h161v438l-145 -41l-37 211l182 52h277v-660h147v-217zM1753 360v-217h-74v-143h-235v143h-381v240l194 494h242l-176 -494h2v-23h119v220h235v-220h74z" glyph-name="onequarter" horiz-adv-x="1769" unicode="¼"/><glyph d="M1059 1475h266l-596 -1516h-266zM614 557h-585v217h161v438l-145 -41l-37 211l182 52h277v-660h147v-217zM1499 344q-39 -35 -54 -61.5t-18 -65.5h289v-217h-579v178q0 90 33.5 151.5t136.5 157.5l110 105q16 16 16.5 38.5t-11 32t-48.5 9.5q-51 0 -162 -19l-20 217 q129 20 215 21q309 0 309 -238q0 -109 -96 -196z" glyph-name="onehalf" horiz-adv-x="1742" unicode="½"/><glyph d="M1008 1475h266l-596 -1516h-266zM604 827q0 -160 -86 -221t-260 -61q-158 0 -240 33l19 221q74 -31 205 -31q80 0 80 63q0 49 -14.5 65.5t-57.5 16.5h-117v199h105q39 0 51 12.5t12 51.5q0 35 -14.5 46t-55.5 11q-125 0 -174 -25l-18 211q59 29 209 29q170 0 253 -55.5 t83 -182.5q0 -137 -90 -184v-6q110 -39 110 -193zM1702 360v-217h-74v-143h-235v143h-381v240l194 494h242l-176 -494h2v-23h119v220h235v-220h74z" glyph-name="threequarters" horiz-adv-x="1718" unicode="¾"/><glyph d="M330 680v385h467v-385h-467zM520 -389q-279 0 -387 92t-108 270q0 102 38.5 166t118.5 133l72 62q63 53 83.5 82.5t22.5 64.5l2 39h402l2 -53q2 -102 -18.5 -148.5t-108.5 -113.5l-98 -76q-45 -35 -45 -70q0 -47 27.5 -62t111.5 -15q76 0 244 16l30 -354 q-229 -33 -389 -33z" glyph-name="questiondown" horiz-adv-x="950" unicode="¿"/><glyph d="M797 1604h-256l-267 407h363zM907 0l-51 297h-340l-51 -297h-465l348 1434h676l348 -1434h-465zM578 645h217l-76 440h-66z" glyph-name="Agrave" horiz-adv-x="1370" unicode="À"/><glyph d="M1079 2011l-266 -407h-256l160 407h362zM907 0l-51 297h-340l-51 -297h-465l348 1434h676l348 -1434h-465zM578 645h217l-76 440h-66z" glyph-name="Aacute" horiz-adv-x="1370" unicode="Á"/><glyph d="M682 1810l-180 -215h-275l265 408h380l267 -408h-277zM907 0l-51 297h-340l-51 -297h-465l348 1434h676l348 -1434h-465zM578 645h217l-76 440h-66z" glyph-name="Acircumflex" horiz-adv-x="1370" unicode="Â"/><glyph d="M547 1696q-61 0 -76 -97h-168q0 150 67.5 240t182.5 90q80 0 160 -53l65 -43q37 -25 62 -25q51 0 69 97h166q0 -160 -65.5 -244t-182.5 -84q-90 0 -153 49l-68 49q-28 21 -59 21zM907 0l-51 297h-340l-51 -297h-465l348 1434h676l348 -1434h-465zM578 645h217l-76 440 h-66z" glyph-name="Atilde" horiz-adv-x="1370" unicode="Ã"/><glyph d="M604 1911v-287h-328v287h328zM1090 1911v-287h-328v287h328zM907 0l-51 297h-340l-51 -297h-465l348 1434h676l348 -1434h-465zM578 645h217l-76 440h-66z" glyph-name="Adieresis" horiz-adv-x="1370" unicode="Ä"/><glyph d="M682 1540q-160 0 -222.5 65.5t-62.5 192.5q0 145 73 201.5t212 56.5q160 0 221.5 -65.5t61.5 -192.5q0 -145 -72 -201.5t-211 -56.5zM682 1907q-57 0 -84 -23.5t-27 -85.5q0 -57 23.5 -83.5t87.5 -26.5q55 0 82 23.5t27 86.5q0 55 -24 82t-85 27zM907 0l-51 297h-340 l-51 -297h-465l348 1434h676l348 -1434h-465zM578 645h217l-76 440h-66z" glyph-name="Aring" horiz-adv-x="1370" unicode="Å"/><glyph d="M1350 348h442v-348h-901v297h-318l-108 -297h-465l594 1434h1173v-349h-417v-167h376v-349h-376v-221zM702 645h189v440h-27z" glyph-name="AE" horiz-adv-x="1859" unicode="Æ"/><glyph d="M715 -86q217 -12 217 -197q0 -117 -72 -173t-182 -56q-106 0 -234 41l13 141q55 -23 108 -22q80 0 80 71q0 57 -65 58h-91l41 217q-256 43 -356 218t-100 495q0 219 40 367.5t124 230t194.5 115.5t269.5 34q197 0 332 -49l-33 -363q-98 41 -239 41q-125 0 -171 -74.5 t-46 -291.5t46 -292t171 -75q145 0 239 43l64 -358q-127 -51 -332 -55z" glyph-name="Ccedilla" horiz-adv-x="1103" unicode="Ç"/><glyph d="M676 1604h-256l-266 407h362zM582 348h442v-348h-901v1434h876v-349h-417v-167h376v-349h-376v-221z" glyph-name="Egrave" horiz-adv-x="1091" unicode="È"/><glyph d="M958 2011l-266 -407h-256l160 407h362zM582 348h442v-348h-901v1434h876v-349h-417v-167h376v-349h-376v-221z" glyph-name="Eacute" horiz-adv-x="1091" unicode="É"/><glyph d="M561 1810l-180 -215h-275l265 408h381l266 -408h-277zM582 348h442v-348h-901v1434h876v-349h-417v-167h376v-349h-376v-221z" glyph-name="Ecircumflex" horiz-adv-x="1091" unicode="Ê"/><glyph d="M483 1911v-287h-327v287h327zM969 1911v-287h-328v287h328zM582 348h442v-348h-901v1434h876v-349h-417v-167h376v-349h-376v-221z" glyph-name="Edieresis" horiz-adv-x="1091" unicode="Ë"/><glyph d="M213 1604l-266 407h362l160 -407h-256zM584 1434v-1434h-459v1434h459z" glyph-name="Igrave" horiz-adv-x="704" unicode="Ì"/><glyph d="M229 1604l160 407h363l-267 -407h-256zM584 1434v-1434h-459v1434h459z" glyph-name="Iacute" horiz-adv-x="704" unicode="Í"/><glyph d="M354 1810l-180 -215h-274l264 408h381l266 -408h-276zM125 0v1434h459v-1434h-459z" glyph-name="Icircumflex" horiz-adv-x="704" unicode="Î"/><glyph d="M-51 1911h327v-287h-327v287zM434 1911h328v-287h-328v287zM584 1434v-1434h-459v1434h459z" glyph-name="Idieresis" horiz-adv-x="704" unicode="Ï"/><glyph d="M723 1434q168 0 281.5 -50.5t175 -148.5t87 -222t25.5 -296q0 -168 -27.5 -294t-74.5 -206t-120 -129t-157 -68.5t-190 -19.5h-598v573h-150v287h150v574h598zM672 350q90 0 119.5 74t29.5 293t-29.5 292.5t-119.5 73.5h-88v-223h166v-287h-166v-223h88z" glyph-name="Eth" horiz-adv-x="1363" unicode="Ð"/><glyph d="M580 1696q-61 0 -76 -97h-168q0 150 67.5 240t182.5 90q80 0 159 -53l66 -43q37 -25 61 -25q51 0 70 97h166q0 -160 -65.5 -244t-182.5 -84q-90 0 -153 49l-68 49q-28 21 -59 21zM909 1434h396v-1434h-580l-188 838h-19v-838h-393v1434h584l184 -830h16v830z" glyph-name="Ntilde" horiz-adv-x="1425" unicode="Ñ"/><glyph d="M569 1604l-266 407h363l159 -407h-256zM713 -20q-186 0 -312.5 47t-197 146t-99 228t-28.5 316q0 217 41 363.5t126 227.5t196.5 113.5t273.5 32.5q188 0 314 -47t195.5 -146.5t97.5 -228.5t28 -315q0 -217 -41 -363.5t-126 -227.5t-196.5 -113.5t-271.5 -32.5zM713 350 q98 0 131 74t33 293t-33 292.5t-131 73.5q-100 0 -133 -73.5t-33 -292.5t33 -293t133 -74z" glyph-name="Ograve" horiz-adv-x="1419" unicode="Ò"/><glyph d="M586 1604l159 407h363l-266 -407h-256zM713 -20q-186 0 -312.5 47t-197 146t-99 228t-28.5 316q0 217 41 363.5t126 227.5t196.5 113.5t273.5 32.5q188 0 314 -47t195.5 -146.5t97.5 -228.5t28 -315q0 -217 -41 -363.5t-126 -227.5t-196.5 -113.5t-271.5 -32.5zM713 350 q98 0 131 74t33 293t-33 292.5t-131 73.5q-100 0 -133 -73.5t-33 -292.5t33 -293t133 -74z" glyph-name="Oacute" horiz-adv-x="1419" unicode="Ó"/><glyph d="M711 1810l-181 -215h-274l264 408h381l266 -408h-276zM713 1454q188 0 314 -47t195.5 -146.5t97.5 -228.5t28 -315q0 -217 -41 -363.5t-126 -227.5t-197 -113.5t-271 -32.5q-186 0 -312.5 47t-197 146t-99 228t-28.5 316q0 217 41 363.5t126 227.5t196.5 113.5 t273.5 32.5zM713 350q98 0 131 74t33 293t-33 292.5t-131 73.5q-100 0 -133 -73.5t-33 -292.5t33 -293t133 -74z" glyph-name="Ocircumflex" horiz-adv-x="1419" unicode="Ô"/><glyph d="M856 1577q-90 0 -154 49l-67 49q-29 20 -60 21q-61 0 -75 -97h-168q0 150 67.5 240t182.5 90q80 0 159 -53l66 -43q37 -25 61 -25q51 0 70 97h166q0 -160 -65.5 -244t-182.5 -84zM713 -20q-186 0 -312.5 47t-197 146t-99 228t-28.5 316q0 217 41 363.5t126 227.5 t196.5 113.5t273.5 32.5q188 0 314 -47t195.5 -146.5t97.5 -228.5t28 -315q0 -217 -41 -363.5t-126 -227.5t-196.5 -113.5t-271.5 -32.5zM713 350q98 0 131 74t33 293t-33 292.5t-131 73.5q-100 0 -133 -73.5t-33 -292.5t33 -293t133 -74z" glyph-name="Otilde" horiz-adv-x="1419" unicode="Õ"/><glyph d="M305 1911h328v-287h-328v287zM791 1911h327v-287h-327v287zM713 -20q-186 0 -312.5 47t-197 146t-99 228t-28.5 316q0 217 41 363.5t126 227.5t196.5 113.5t273.5 32.5q188 0 314 -47t195.5 -146.5t97.5 -228.5t28 -315q0 -217 -41 -363.5t-126 -227.5t-196.5 -113.5 t-271.5 -32.5zM713 350q98 0 131 74t33 293t-33 292.5t-131 73.5q-100 0 -133 -73.5t-33 -292.5t33 -293t133 -74z" glyph-name="Odieresis" horiz-adv-x="1419" unicode="Ö"/><glyph d="M1186 874l-299 -299l299 -299l-232 -231l-299 299l-299 -299l-231 231l299 299l-299 299l231 232l299 -299l299 299z" glyph-name="multiply" horiz-adv-x="1310" unicode="×"/><glyph d="M1092 1374q141 -80 198.5 -241.5t57.5 -415.5q0 -217 -41 -363.5t-126 -227.5t-197 -113.5t-271 -32.5q-76 0 -154 10l-35 -92h-258l64 163q-141 80 -197.5 241t-56.5 415q0 217 41 363.5t126 227.5t196.5 113.5t273.5 32.5q90 0 149 -8l35 90h258zM547 717q0 -61 2 -88 l174 454h-10q-100 0 -133 -73.5t-33 -292.5zM713 350q98 0 131 74t33 293q0 63 -3 92l-176 -459h15z" glyph-name="Oslash" horiz-adv-x="1419" unicode="Ø"/><glyph d="M526 1604l-266 407h363l159 -407h-256zM676 -20q-170 0 -287 37.5t-179.5 113.5t-89 170t-26.5 225v908h459v-934q0 -90 23.5 -120t91.5 -30q66 0 88 30t22 120v934h459v-908q0 -309 -142.5 -427.5t-418.5 -118.5z" glyph-name="Ugrave" horiz-adv-x="1329" unicode="Ù"/><glyph d="M543 1604l159 407h363l-266 -407h-256zM676 -20q-170 0 -287 37.5t-179.5 113.5t-89 170t-26.5 225v908h459v-934q0 -90 23.5 -120t91.5 -30q66 0 88 30t22 120v934h459v-908q0 -309 -142.5 -427.5t-418.5 -118.5z" glyph-name="Uacute" horiz-adv-x="1329" unicode="Ú"/><glyph d="M668 1810l-181 -215h-274l264 408h381l266 -408h-276zM778 1434h459v-908q0 -309 -142.5 -427.5t-418.5 -118.5q-170 0 -287 37.5t-179.5 113.5t-89 170t-26.5 225v908h459v-934q0 -90 23.5 -120t91.5 -30q66 0 88 30t22 120v934z" glyph-name="Ucircumflex" horiz-adv-x="1329" unicode="Û"/><glyph d="M262 1911h328v-287h-328v287zM748 1911h327v-287h-327v287zM676 -20q-170 0 -287 37.5t-179.5 113.5t-89 170t-26.5 225v908h459v-934q0 -90 23.5 -120t91.5 -30q66 0 88 30t22 120v934h459v-908q0 -309 -142.5 -427.5t-418.5 -118.5z" glyph-name="Udieresis" horiz-adv-x="1329" unicode="Ü"/><glyph d="M1047 2011l-267 -407h-256l160 407h363zM1300 1434l-428 -990v-444h-458v477l-414 957h465l174 -582h23l176 582h462z" glyph-name="Yacute" horiz-adv-x="1298" unicode="Ý"/><glyph d="M670 1260q315 0 436 -121t121 -353q0 -164 -39 -272t-119 -162.5t-172 -75t-227 -20.5h-88v-256h-459v1434h459v-174h88zM625 571q88 0 119.5 44t31.5 155q0 102 -33.5 138t-117.5 36h-43v-373h43z" glyph-name="Thorn" horiz-adv-x="1273" unicode="Þ"/><glyph d="M985 -20q-172 0 -379 36l27 310q131 -25 219 -25q66 0 66 53q0 31 -29 49l-172 121q-100 72 -101 215q0 86 21.5 126t101.5 122q63 66 84 95.5t21 60.5q0 53 -34 72.5t-103 19.5q-96 0 -132 -53.5t-36 -175.5v-1006h-441v1042q0 285 162 395.5t473 110.5q170 0 286 -25.5 t178.5 -76.5t87 -114.5t24.5 -151.5q0 -94 -35 -158t-139 -158q-61 -57 -62 -82q0 -31 19 -45l143 -106q88 -63 127 -128t39 -167q0 -201 -106.5 -278.5t-309.5 -77.5z" glyph-name="germandbls" horiz-adv-x="1441" unicode="ß"/><glyph d="M698 1296h-256l-266 408h363zM698 1147q205 0 279 -95.5t74 -287.5v-744l-402 -34l-20 129h-17q-70 -135 -258 -135q-178 0 -247.5 86t-69.5 239q0 193 100.5 266.5t294.5 73.5h178v37q0 66 -23.5 91.5t-66.5 25.5q-92 0 -313 -56l-62 322q354 82 553 82zM459 356 q0 -117 71 -116q80 0 80 180v55h-55q-41 0 -68.5 -32t-27.5 -87z" glyph-name="agrave" horiz-adv-x="1132" unicode="à"/><glyph d="M981 1704l-266 -408h-256l159 408h363zM698 1147q205 0 279 -95.5t74 -287.5v-744l-402 -34l-20 129h-17q-70 -135 -258 -135q-178 0 -247.5 86t-69.5 239q0 193 100.5 266.5t294.5 73.5h178v37q0 66 -23.5 91.5t-66.5 25.5q-92 0 -313 -56l-62 322q354 82 553 82z M459 356q0 -117 71 -116q80 0 80 180v55h-55q-41 0 -68.5 -32t-27.5 -87z" glyph-name="aacute" horiz-adv-x="1132" unicode="á"/><glyph d="M584 1503l-181 -215h-274l264 408h381l266 -408h-276zM698 1147q205 0 279 -95.5t74 -287.5v-744l-402 -34l-20 129h-17q-70 -135 -258 -135q-178 0 -247.5 86t-69.5 239q0 193 100.5 266.5t294.5 73.5h178v37q0 66 -23.5 91.5t-66.5 25.5q-92 0 -313 -56l-62 322 q354 82 553 82zM459 356q0 -117 71 -116q80 0 80 180v55h-55q-41 0 -68.5 -32t-27.5 -87z" glyph-name="acircumflex" horiz-adv-x="1132" unicode="â"/><glyph d="M449 1389q-61 0 -76 -97h-168q0 150 67.5 240t182.5 90q80 0 159 -53l66 -43q37 -25 61 -25q51 0 70 96h166q0 -160 -65.5 -243.5t-182.5 -83.5q-90 0 -154 49l-67 49q-28 21 -59 21zM698 1147q205 0 279 -95.5t74 -287.5v-744l-402 -34l-20 129h-17q-70 -135 -258 -135 q-178 0 -247.5 86t-69.5 239q0 193 100.5 266.5t294.5 73.5h178v37q0 66 -23.5 91.5t-66.5 25.5q-92 0 -313 -56l-62 322q354 82 553 82zM459 356q0 -117 71 -116q80 0 80 180v55h-55q-41 0 -68.5 -32t-27.5 -87z" glyph-name="atilde" horiz-adv-x="1132" unicode="ã"/><glyph d="M506 1604v-287h-328v287h328zM991 1604v-287h-327v287h327zM698 1147q205 0 279 -95.5t74 -287.5v-744l-402 -34l-20 129h-17q-70 -135 -258 -135q-178 0 -247.5 86t-69.5 239q0 193 100.5 266.5t294.5 73.5h178v37q0 66 -23.5 91.5t-66.5 25.5q-92 0 -313 -56l-62 322 q354 82 553 82zM459 356q0 -117 71 -116q80 0 80 180v55h-55q-41 0 -68.5 -32t-27.5 -87z" glyph-name="adieresis" horiz-adv-x="1132" unicode="ä"/><glyph d="M584 1233q-160 0 -222.5 65.5t-62.5 192.5q0 145 72.5 201.5t212.5 56.5q160 0 221 -65.5t61 -192.5q0 -145 -71.5 -201.5t-210.5 -56.5zM584 1599q-57 0 -84 -23.5t-27 -84.5q0 -57 23.5 -84t87.5 -27q55 0 81.5 23.5t26.5 87.5q0 55 -23.5 81.5t-84.5 26.5zM698 1147 q205 0 279 -95.5t74 -287.5v-744l-402 -34l-20 129h-17q-70 -135 -258 -135q-178 0 -247.5 86t-69.5 239q0 193 100.5 266.5t294.5 73.5h178v37q0 66 -23.5 91.5t-66.5 25.5q-92 0 -313 -56l-62 322q354 82 553 82zM459 356q0 -117 71 -116q80 0 80 180v55h-55 q-41 0 -68.5 -32t-27.5 -87z" glyph-name="aring" horiz-adv-x="1132" unicode="å"/><glyph d="M1030 449q8 -86 31.5 -119t79.5 -33q133 0 377 47l49 -295q-248 -70 -437 -69q-254 0 -382 135h-25q-109 -135 -332 -135q-184 0 -281.5 90t-97.5 235q0 193 100.5 266.5t295.5 73.5h178v37q0 66 -23.5 91.5t-66.5 25.5q-92 0 -314 -56l-61 322q354 82 553 82 q121 0 203 -39q98 39 247.5 39t245.5 -37t147.5 -116t70 -179t18.5 -252q0 -63 -7 -114h-569zM1130 866q-53 0 -75.5 -39t-26.5 -143h186q-4 104 -22.5 143t-61.5 39zM506 240q80 0 80 180v55h-56q-41 0 -68.5 -31.5t-27.5 -87.5q0 -116 72 -116z" glyph-name="ae" horiz-adv-x="1640" unicode="æ"/><glyph d="M580 -86q217 -12 217 -197q0 -117 -72 -173t-182 -56q-106 0 -234 41l13 141q55 -23 108 -22q80 0 80 71q0 57 -66 58h-90l41 221q-174 37 -260 168t-86 397q0 332 134 458t415 126q137 0 233 -27l-28 -313q-53 18 -135 18q-100 0 -133 -51t-33 -211q0 -158 32.5 -210 t133.5 -52q90 0 147 18l27 -313q-94 -27 -244 -26z" glyph-name="ccedilla" horiz-adv-x="878" unicode="ç"/><glyph d="M672 1296h-256l-266 408h362zM473 449q8 -86 31.5 -119t79.5 -33q133 0 374 47l52 -295q-248 -70 -437 -69q-250 0 -387 138t-137 460q0 166 37 279.5t109.5 176t161.5 88t210 25.5q150 0 246 -37t147.5 -116t70 -179t18.5 -252q0 -55 -7 -114h-569zM573 866 q-53 0 -75.5 -39t-26.5 -143h186q-4 104 -22.5 143t-61.5 39z" glyph-name="egrave" horiz-adv-x="1095" unicode="è"/><glyph d="M954 1704l-266 -408h-256l160 408h362zM473 449q8 -86 31.5 -119t79.5 -33q133 0 374 47l52 -295q-248 -70 -437 -69q-250 0 -387 138t-137 460q0 166 37 279.5t109.5 176t161.5 88t210 25.5q150 0 246 -37t147.5 -116t70 -179t18.5 -252q0 -55 -7 -114h-569zM573 866 q-53 0 -75.5 -39t-26.5 -143h186q-4 104 -22.5 143t-61.5 39z" glyph-name="eacute" horiz-adv-x="1095" unicode="é"/><glyph d="M557 1503l-180 -215h-275l265 408h381l266 -408h-277zM473 449q8 -86 31.5 -119t79.5 -33q133 0 374 47l52 -295q-248 -70 -437 -69q-250 0 -387 138t-137 460q0 166 37 279.5t109.5 176t161.5 88t210 25.5q150 0 246 -37t147.5 -116t70 -179t18.5 -252q0 -55 -7 -114 h-569zM573 866q-53 0 -75.5 -39t-26.5 -143h186q-4 104 -22.5 143t-61.5 39z" glyph-name="ecircumflex" horiz-adv-x="1095" unicode="ê"/><glyph d="M479 1604v-287h-327v287h327zM965 1604v-287h-328v287h328zM473 449q8 -86 31.5 -119t79.5 -33q133 0 374 47l52 -295q-248 -70 -437 -69q-250 0 -387 138t-137 460q0 166 37 279.5t109.5 176t161.5 88t210 25.5q150 0 246 -37t147.5 -116t70 -179t18.5 -252 q0 -55 -7 -114h-569zM573 866q-53 0 -75.5 -39t-26.5 -143h186q-4 104 -22.5 143t-61.5 39z" glyph-name="edieresis" horiz-adv-x="1095" unicode="ë"/><glyph d="M174 1296l-266 408h362l160 -408h-256zM535 1126v-1126h-441v1126h441z" glyph-name="igrave" horiz-adv-x="628" unicode="ì"/><glyph d="M190 1296l160 408h363l-267 -408h-256zM535 1126v-1126h-441v1126h441z" glyph-name="iacute" horiz-adv-x="628" unicode="í"/><glyph d="M315 1503l-180 -215h-274l264 408h381l266 -408h-276zM94 0v1126h441v-1126h-441z" glyph-name="icircumflex" horiz-adv-x="628" unicode="î"/><glyph d="M-90 1604h328v-287h-328v287zM395 1604h328v-287h-328v287zM535 1126v-1126h-441v1126h441z" glyph-name="idieresis" horiz-adv-x="628" unicode="ï"/><glyph d="M979 1192q162 -287 162 -655q0 -317 -132 -437t-407 -120q-168 0 -280.5 34.5t-175 106.5t-87 164t-24.5 225q0 219 48 344t132 170t219 45q102 0 164 -31h12q-20 51 -51 103l-22 37l-254 -64l-82 234l184 47q-63 82 -127 155h455q18 -23 51 -59l221 55l82 -233l-141 -35 q20 -29 53 -86zM582 301q63 0 84.5 51t21.5 207q0 88 -4 129q-8 63 -32.5 88t-71.5 25q-63 0 -85 -50.5t-22 -201.5q0 -150 21.5 -199t87.5 -49z" glyph-name="eth" horiz-adv-x="1144" unicode="ð"/><glyph d="M492 1389q-61 0 -76 -97h-168q0 150 67.5 240t182.5 90q80 0 159 -53l66 -43q37 -25 61 -25q51 0 70 96h166q0 -160 -65.5 -243.5t-182.5 -83.5q-90 0 -154 49l-67 49q-28 21 -59 21zM834 1147q195 0 264 -95.5t69 -328.5v-723h-440v692q0 74 -19.5 103.5t-72.5 29.5 q-49 0 -72.5 -28.5t-23.5 -104.5v-692h-441v1106l402 35l20 -129h21q74 135 293 135z" glyph-name="ntilde" horiz-adv-x="1251" unicode="ñ"/><glyph d="M451 1296l-267 408h363l160 -408h-256zM592 -20q-307 0 -425 148t-118 435q0 330 138.5 457t404.5 127q305 0 423 -148.5t118 -435.5q0 -330 -138.5 -456.5t-402.5 -126.5zM592 301q51 0 68.5 52.5t17.5 210t-17.5 209.5t-68.5 52q-53 0 -71.5 -53t-18.5 -208.5 t18.5 -209t71.5 -53.5z" glyph-name="ograve" horiz-adv-x="1179" unicode="ò"/><glyph d="M467 1296l160 408h362l-266 -408h-256zM592 -20q-307 0 -425 148t-118 435q0 330 138.5 457t404.5 127q305 0 423 -148.5t118 -435.5q0 -330 -138.5 -456.5t-402.5 -126.5zM592 301q51 0 68.5 52.5t17.5 210t-17.5 209.5t-68.5 52q-53 0 -71.5 -53t-18.5 -208.5 t18.5 -209t71.5 -53.5z" glyph-name="oacute" horiz-adv-x="1179" unicode="ó"/><glyph d="M592 1503l-180 -215h-275l264 408h381l267 -408h-277zM592 1147q305 0 423 -148.5t118 -435.5q0 -330 -138.5 -456.5t-402.5 -126.5q-307 0 -425 148t-118 435q0 330 138.5 457t404.5 127zM592 301q51 0 68.5 52.5t17.5 210t-17.5 209.5t-68.5 52q-53 0 -71.5 -53 t-18.5 -208.5t18.5 -209t71.5 -53.5z" glyph-name="ocircumflex" horiz-adv-x="1179" unicode="ô"/><glyph d="M737 1270q-90 0 -153 49l-68 49q-29 20 -59 21q-61 0 -76 -97h-168q0 150 67.5 240t182.5 90q80 0 160 -53l65 -43q37 -25 62 -25q51 0 69 96h166q0 -160 -65.5 -243.5t-182.5 -83.5zM592 -20q-307 0 -425 148t-118 435q0 330 138.5 457t404.5 127q305 0 423 -148.5 t118 -435.5q0 -330 -138.5 -456.5t-402.5 -126.5zM592 301q51 0 68.5 52.5t17.5 210t-17.5 209.5t-68.5 52q-53 0 -71.5 -53t-18.5 -208.5t18.5 -209t71.5 -53.5z" glyph-name="otilde" horiz-adv-x="1179" unicode="õ"/><glyph d="M186 1604h328v-287h-328v287zM672 1604h327v-287h-327v287zM592 -20q-307 0 -425 148t-118 435q0 330 138.5 457t404.5 127q305 0 423 -148.5t118 -435.5q0 -330 -138.5 -456.5t-402.5 -126.5zM592 301q51 0 68.5 52.5t17.5 210t-17.5 209.5t-68.5 52q-53 0 -71.5 -53 t-18.5 -208.5t18.5 -209t71.5 -53.5z" glyph-name="odieresis" horiz-adv-x="1179" unicode="ö"/><glyph d="M455 850v303h399v-303h-399zM121 412v327h1067v-327h-1067zM455 -2v303h399v-303h-399z" glyph-name="divide" horiz-adv-x="1310" unicode="÷"/><glyph d="M920 1075q213 -123 213 -512q0 -330 -137.5 -456.5t-403.5 -126.5q-33 0 -94 4l-45 -119h-263l72 186q-213 123 -213 512q0 330 138.5 457t404.5 127q35 0 92 -4l45 119h262zM592 301q53 0 70.5 53.5t17.5 209t-17.5 208.5t-70.5 53t-70.5 -52t-17.5 -209.5t17.5 -210 t70.5 -52.5z" glyph-name="oslash" horiz-adv-x="1179" unicode="ø"/><glyph d="M725 1296h-256l-266 408h362zM684 1126h440v-1106l-403 -34l-21 129h-18q-70 -135 -279 -135q-184 0 -250.5 95t-66.5 328v723h442v-692q0 -74 15.5 -103.5t60.5 -29.5q41 0 60.5 28.5t19.5 104.5v692z" glyph-name="ugrave" horiz-adv-x="1222" unicode="ù"/><glyph d="M1008 1704l-267 -408h-256l160 408h363zM684 1126h440v-1106l-403 -34l-21 129h-18q-70 -135 -279 -135q-184 0 -250.5 95t-66.5 328v723h442v-692q0 -74 15.5 -103.5t60.5 -29.5q41 0 60.5 28.5t19.5 104.5v692z" glyph-name="uacute" horiz-adv-x="1222" unicode="ú"/><glyph d="M610 1503l-180 -215h-274l264 408h381l266 -408h-276zM684 1126h440v-1106l-403 -34l-21 129h-18q-70 -135 -279 -135q-184 0 -250.5 95t-66.5 328v723h442v-692q0 -74 15.5 -103.5t60.5 -29.5q41 0 60.5 28.5t19.5 104.5v692z" glyph-name="ucircumflex" horiz-adv-x="1222" unicode="û"/><glyph d="M532 1604v-287h-327v287h327zM1018 1604v-287h-328v287h328zM684 1126h440v-1106l-403 -34l-21 129h-18q-70 -135 -279 -135q-184 0 -250.5 95t-66.5 328v723h442v-692q0 -74 15.5 -103.5t60.5 -29.5q41 0 60.5 28.5t19.5 104.5v692z" glyph-name="udieresis" horiz-adv-x="1222" unicode="ü"/><glyph d="M961 1704l-267 -408h-256l160 408h363zM664 1126h460l-254 -1126q-49 -223 -173 -306t-318 -83q-127 0 -277 35l25 291q141 -20 240 -21q92 0 127.5 28.5t46.5 121.5l2 20h-316l-227 1040h461l82 -739h35z" glyph-name="yacute" horiz-adv-x="1122" unicode="ý"/><glyph d="M762 1147q119 0 198.5 -40t122.5 -120t59.5 -177t16.5 -237q0 -174 -28.5 -292.5t-86 -183t-128 -91t-166.5 -26.5q-133 0 -193 75h-16v-424h-443v1905h443v-489h14q60 100 207 100zM618 301q53 0 70 52.5t17 211.5q0 158 -16.5 209t-68 51t-65.5 -32.5t-14 -135.5v-188 q0 -102 14 -135t63 -33z" glyph-name="thorn" horiz-adv-x="1206" unicode="þ"/><glyph d="M485 1604v-287h-327v287h327zM971 1604v-287h-328v287h328zM664 1126h460l-254 -1126q-49 -223 -173 -306t-318 -83q-127 0 -277 35l25 291q141 -20 240 -21q92 0 127.5 28.5t46.5 121.5l2 20h-316l-227 1040h461l82 -739h35z" glyph-name="ydieresis" horiz-adv-x="1122" unicode="ÿ"/><glyph d="M993 1898v-286h-620v286h620zM907 0l-51 297h-340l-51 -297h-465l348 1434h676l348 -1434h-465zM578 645h217l-76 440h-66z" glyph-name="Amacron" horiz-adv-x="1370" unicode="Ā"/><glyph d="M895 1591v-286h-621v286h621zM698 1147q205 0 279 -95.5t74 -287.5v-744l-402 -34l-20 129h-17q-70 -135 -258 -135q-178 0 -247.5 86t-69.5 239q0 193 100.5 266.5t294.5 73.5h178v37q0 66 -23.5 91.5t-66.5 25.5q-92 0 -313 -56l-62 322q354 82 553 82zM459 356 q0 -117 71 -116q80 0 80 180v55h-55q-41 0 -68.5 -32t-27.5 -87z" glyph-name="amacron" horiz-adv-x="1132" unicode="ā"/><glyph d="M684 1559q-205 0 -283.5 82.5t-78.5 244.5v43h225v-24q0 -61 30.5 -87t104.5 -26q70 0 102.5 21.5t32.5 91.5v24h225v-43q0 -184 -91 -255.5t-267 -71.5zM907 0l-51 297h-340l-51 -297h-465l348 1434h676l348 -1434h-465zM578 645h217l-76 440h-66z" glyph-name="Abreve" horiz-adv-x="1370" unicode="Ă"/><glyph d="M586 1251q-205 0 -284 83t-79 245v43h226v-25q0 -61 30.5 -86.5t104.5 -25.5q70 0 102.5 21.5t32.5 90.5v25h225v-43q0 -184 -91 -256t-267 -72zM698 1147q205 0 279 -95.5t74 -287.5v-744l-402 -34l-20 129h-17q-70 -135 -258 -135q-178 0 -247.5 86t-69.5 239 q0 193 100.5 266.5t294.5 73.5h178v37q0 66 -23.5 91.5t-66.5 25.5q-92 0 -313 -56l-62 322q354 82 553 82zM459 356q0 -117 71 -116q80 0 80 180v55h-55q-41 0 -68.5 -32t-27.5 -87z" glyph-name="abreve" horiz-adv-x="1132" unicode="ă"/><glyph d="M1366 -279l39 -217q-59 -8 -129 -8q-365 0 -365 271q0 127 115 233h-119l-51 297h-340l-51 -297h-465l348 1434h676l348 -1434h-80q-98 -76 -98 -154q0 -68 52 -96.5t120 -28.5zM578 645h217l-76 440h-66z" glyph-name="Aogonek" horiz-adv-x="1370" unicode="Ą"/><glyph d="M1065 -258l39 -217q-59 -8 -129 -8q-365 0 -365 270q0 109 84 203l-45 -4l-20 129h-17q-70 -135 -258 -135q-178 0 -247.5 86t-69.5 239q0 193 100.5 266.5t294.5 73.5h178v37q0 66 -23.5 91.5t-66.5 25.5q-92 0 -313 -56l-62 322q354 82 553 82q205 0 279 -95.5 t74 -287.5v-744l-66 -6q-92 -70 -92 -147q0 -68 52 -96.5t120 -28.5zM459 356q0 -117 71 -116q80 0 80 180v55h-55q-41 0 -68.5 -32t-27.5 -87z" glyph-name="aogonek" horiz-adv-x="1132" unicode="ą"/><glyph d="M473 1604l160 407h362l-266 -407h-256zM711 -20q-186 0 -312.5 47t-197 145t-99 225t-28.5 310q0 219 40 367.5t124 230t194.5 115.5t269.5 34q197 0 332 -49l-33 -363q-98 41 -239 41q-125 0 -171 -74.5t-46 -291.5t46 -292t171 -75q145 0 239 43l64 -358 q-139 -55 -354 -55z" glyph-name="Cacute" horiz-adv-x="1103" unicode="Ć"/><glyph d="M422 1296l160 408h362l-266 -408h-256zM596 -20q-137 0 -233.5 26.5t-169 91t-108.5 179t-36 286.5q0 332 134 458t415 126q137 0 233 -27l-28 -313q-53 18 -135 18q-100 0 -133 -51t-33 -211q0 -158 32.5 -210t133.5 -52q90 0 147 18l27 -313q-94 -26 -246 -26z" glyph-name="cacute" horiz-adv-x="878" unicode="ć"/><glyph d="M434 1911h328v-287h-328v287zM711 -20q-186 0 -312.5 47t-197 145t-99 225t-28.5 310q0 219 40 367.5t124 230t194.5 115.5t269.5 34q197 0 332 -49l-33 -363q-98 41 -239 41q-125 0 -171 -74.5t-46 -291.5t46 -292t171 -75q145 0 239 43l64 -358q-139 -55 -354 -55z" glyph-name="Cdotaccent" horiz-adv-x="1103" unicode="Ċ"/><glyph d="M383 1604h328v-287h-328v287zM596 -20q-137 0 -233.5 26.5t-169 91t-108.5 179t-36 286.5q0 332 134 458t415 126q137 0 233 -27l-28 -313q-53 18 -135 18q-100 0 -133 -51t-33 -211q0 -158 32.5 -210t133.5 -52q90 0 147 18l27 -313q-94 -26 -246 -26z" glyph-name="cdotaccent" horiz-adv-x="878" unicode="ċ"/><glyph d="M403 1595l-264 408h275l180 -215l180 215h277l-267 -408h-381zM1001 393l64 -358q-139 -55 -354 -55q-186 0 -312.5 47t-197 145t-99 225t-28.5 310q0 219 40 367.5t124 230t194.5 115.5t269.5 34q197 0 332 -49l-33 -363q-98 41 -239 41q-125 0 -171 -74.5t-46 -291.5 t46 -292t171 -75q145 0 239 43z" glyph-name="Ccaron" horiz-adv-x="1103" unicode="Č"/><glyph d="M352 1288l-264 408h274l181 -215l180 215h276l-266 -408h-381zM668 301q90 0 147 18l27 -313q-94 -27 -246 -26q-137 0 -233.5 26.5t-169 91t-108.5 179t-36 286.5q0 332 134 458t415 126q137 0 233 -27l-28 -313q-53 18 -135 18q-100 0 -133 -51t-33 -211 q0 -158 33 -210t133 -52z" glyph-name="ccaron" horiz-adv-x="878" unicode="č"/><glyph d="M528 1595l-264 408h275l180 -215l180 215h277l-267 -408h-381zM723 1434q168 0 281.5 -50.5t175 -148.5t87 -222t25.5 -296q0 -168 -27.5 -294t-74.5 -206t-120 -129t-157 -68.5t-190 -19.5h-598v1434h598zM672 350q90 0 119.5 74t29.5 293t-29.5 292.5t-119.5 73.5h-88 v-733h88z" glyph-name="Dcaron" horiz-adv-x="1363" unicode="Ď"/><glyph d="M668 1067v469h440v-1516l-401 -34l-21 129h-14q-55 -135 -226 -135q-223 0 -310 145t-87 428q0 174 28.5 293t86 183.5t128 91t167.5 26.5q135 0 196 -80h13zM1208 1536h328v-287l-125 -331h-170l123 331h-156v287zM502 561q0 -156 17.5 -208t68.5 -52q49 0 64.5 33 t15.5 135v188q0 102 -14.5 135t-63.5 33q-53 0 -70.5 -52t-17.5 -212z" glyph-name="dcaron" horiz-adv-x="1206" unicode="ď"/><glyph d="M723 1434q168 0 281.5 -50.5t175 -148.5t87 -222t25.5 -296q0 -168 -27.5 -294t-74.5 -206t-120 -129t-157 -68.5t-190 -19.5h-598v573h-150v287h150v574h598zM672 350q90 0 119.5 74t29.5 293t-29.5 292.5t-119.5 73.5h-88v-223h166v-287h-166v-223h88z" glyph-name="Dcroat" horiz-adv-x="1363" unicode="Đ"/><glyph d="M1229 1409v-215h-121v-1174l-401 -34l-21 129h-14q-55 -135 -226 -135q-223 0 -310 145t-87 428q0 174 28.5 293t86 183.5t128 91t167.5 26.5q135 0 196 -80h13v127h-164v215h164v127h440v-127h121zM502 561q0 -156 17.5 -208t68.5 -52q49 0 64.5 33t15.5 135v188 q0 102 -14.5 135t-63.5 33q-53 0 -70.5 -52t-17.5 -212z" glyph-name="dcroat" horiz-adv-x="1204" unicode="đ"/><glyph d="M872 1898v-286h-620v286h620zM582 348h442v-348h-901v1434h876v-349h-417v-167h376v-349h-376v-221z" glyph-name="Emacron" horiz-adv-x="1091" unicode="Ē"/><glyph d="M868 1591v-286h-620v286h620zM473 449q8 -86 31.5 -119t79.5 -33q133 0 374 47l52 -295q-248 -70 -437 -69q-250 0 -387 138t-137 460q0 166 37 279.5t109.5 176t161.5 88t210 25.5q150 0 246 -37t147.5 -116t70 -179t18.5 -252q0 -55 -7 -114h-569zM573 866 q-53 0 -75.5 -39t-26.5 -143h186q-4 104 -22.5 143t-61.5 39z" glyph-name="emacron" horiz-adv-x="1095" unicode="ē"/><glyph d="M725 1911v-287h-328v287h328zM582 348h442v-348h-901v1434h876v-349h-417v-167h376v-349h-376v-221z" glyph-name="Edotaccent" horiz-adv-x="1091" unicode="Ė"/><glyph d="M721 1604v-287h-328v287h328zM473 449q8 -86 31.5 -119t79.5 -33q133 0 374 47l52 -295q-248 -70 -437 -69q-250 0 -387 138t-137 460q0 166 37 279.5t109.5 176t161.5 88t210 25.5q150 0 246 -37t147.5 -116t70 -179t18.5 -252q0 -55 -7 -114h-569zM573 866 q-53 0 -75.5 -39t-26.5 -143h186q-4 104 -22.5 143t-61.5 39z" glyph-name="edotaccent" horiz-adv-x="1095" unicode="ė"/><glyph d="M1004 -279l38 -217q-59 -8 -129 -8q-365 0 -364 271q0 127 115 233h-541v1434h876v-349h-417v-167h376v-349h-376v-221h442v-348h-94q-98 -76 -99 -154q0 -68 52.5 -96.5t120.5 -28.5z" glyph-name="Eogonek" horiz-adv-x="1091" unicode="Ę"/><glyph d="M473 449q8 -86 31.5 -119t79.5 -33q133 0 374 47l52 -295q-20 -6 -82 -20q-109 -80 -109 -162q0 -68 52.5 -96.5t119.5 -28.5l39 -217q-59 -8 -129 -8q-365 0 -364 270q0 104 75 193h-39q-250 0 -387 138t-137 460q0 166 37 279.5t109.5 176t161.5 88t210 25.5 q150 0 246 -37t147.5 -116t70 -179t18.5 -252q0 -55 -7 -114h-569zM573 866q-53 0 -75.5 -39t-26.5 -143h186q-4 104 -22.5 143t-61.5 39z" glyph-name="eogonek" horiz-adv-x="1095" unicode="ę"/><glyph d="M367 1595l-265 408h275l180 -215l180 215h277l-266 -408h-381zM582 348h442v-348h-901v1434h876v-349h-417v-167h376v-349h-376v-221z" glyph-name="Ecaron" horiz-adv-x="1091" unicode="Ě"/><glyph d="M362 1288l-264 408h275l180 -215l180 215h277l-267 -408h-381zM473 449q8 -86 31.5 -119t79.5 -33q133 0 374 47l52 -295q-248 -70 -437 -69q-250 0 -387 138t-137 460q0 166 37 279.5t109.5 176t161.5 88t210 25.5q150 0 246 -37t147.5 -116t70 -179t18.5 -252 q0 -55 -7 -114h-569zM573 866q-53 0 -75.5 -39t-26.5 -143h186q-4 104 -22.5 143t-61.5 39z" glyph-name="ecaron" horiz-adv-x="1095" unicode="ě"/><glyph d="M698 1810l-180 -215h-274l264 408h381l266 -408h-276zM1233 868v-852l-361 -30l-22 135h-16q-98 -141 -302 -141q-258 0 -358 191t-100 560q0 176 28.5 304t79.5 209t136 128t181.5 64.5t231.5 17.5q250 0 393 -43l-32 -373q-145 45 -340 45q-125 0 -166 -73.5 t-41 -294.5q0 -217 31.5 -291t125.5 -74q63 0 97.5 39t34.5 141v11h-117v327h516z" glyph-name="Gcircumflex" horiz-adv-x="1312" unicode="Ĝ"/><glyph d="M573 1503l-180 -215h-274l264 408h381l266 -408h-276zM578 291q219 0 348 -44t175 -114t46 -178q0 -193 -149.5 -268.5t-434.5 -75.5q-313 0 -434 63.5t-121 188.5q0 164 180 205v24q-119 61 -118 170q0 96 112 193q-137 86 -137 297q0 223 122 309t357 86q135 0 224 -21 h374l17 -188l-146 -27q31 -53 31 -139q0 -223 -121 -308t-356 -85q-43 0 -109 4l-12 -10q-18 -18 -18 -43q0 -39 65 -39h105zM537 893q-51 0 -68.5 -27.5t-17.5 -103.5q0 -78 17 -103.5t69 -25.5q49 0 65 27.5t16 101.5q0 78 -17 104.5t-64 26.5zM563 -145q174 0 174 98 q0 55 -41 75.5t-135 20.5h-80q-84 -20 -84 -108q0 -86 166 -86z" glyph-name="gcircumflex" horiz-adv-x="1157" unicode="ĝ"/><glyph d="M700 1559q-205 0 -283.5 82.5t-78.5 244.5v43h225v-24q0 -61 31 -87t104 -26q70 0 103 21.5t33 91.5v24h225v-43q0 -184 -91.5 -255.5t-267.5 -71.5zM1233 868v-852l-361 -30l-22 135h-16q-98 -141 -302 -141q-258 0 -358 191t-100 560q0 176 28.5 304t79.5 209t136 128 t181.5 64.5t231.5 17.5q250 0 393 -43l-32 -373q-145 45 -340 45q-125 0 -166 -73.5t-41 -294.5q0 -217 31.5 -291t125.5 -74q63 0 97.5 39t34.5 141v11h-117v327h516z" glyph-name="Gbreve" horiz-adv-x="1312" unicode="Ğ"/><glyph d="M575 1251q-205 0 -283.5 83t-78.5 245v43h225v-25q0 -61 31 -86.5t104 -25.5q70 0 103 21.5t33 90.5v25h225v-43q0 -184 -91.5 -256t-267.5 -72zM578 291q219 0 348 -44t175 -114t46 -178q0 -193 -149.5 -268.5t-434.5 -75.5q-313 0 -434 63.5t-121 188.5q0 164 180 205 v24q-119 61 -118 170q0 96 112 193q-137 86 -137 297q0 223 122 309t357 86q135 0 224 -21h374l17 -188l-146 -27q31 -53 31 -139q0 -223 -121 -308t-356 -85q-43 0 -109 4l-12 -10q-18 -18 -18 -43q0 -39 65 -39h105zM537 893q-51 0 -68.5 -27.5t-17.5 -103.5 q0 -78 17 -103.5t69 -25.5q49 0 65 27.5t16 101.5q0 78 -17 104.5t-64 26.5zM563 -145q174 0 174 98q0 55 -41 75.5t-135 20.5h-80q-84 -20 -84 -108q0 -86 166 -86z" glyph-name="gbreve" horiz-adv-x="1157" unicode="ğ"/><glyph d="M862 1911v-287h-327v287h327zM1233 868v-852l-361 -30l-22 135h-16q-98 -141 -302 -141q-258 0 -358 191t-100 560q0 176 28.5 304t79.5 209t136 128t181.5 64.5t231.5 17.5q250 0 393 -43l-32 -373q-145 45 -340 45q-125 0 -166 -73.5t-41 -294.5q0 -217 31.5 -291 t125.5 -74q63 0 97.5 39t34.5 141v11h-117v327h516z" glyph-name="Gdotaccent" horiz-adv-x="1312" unicode="Ġ"/><glyph d="M737 1604v-287h-327v287h327zM578 291q219 0 348 -44t175 -114t46 -178q0 -193 -149.5 -268.5t-434.5 -75.5q-313 0 -434 63.5t-121 188.5q0 164 180 205v24q-119 61 -118 170q0 96 112 193q-137 86 -137 297q0 223 122 309t357 86q135 0 224 -21h374l17 -188l-146 -27 q31 -53 31 -139q0 -223 -121 -308t-356 -85q-43 0 -109 4l-12 -10q-18 -18 -18 -43q0 -39 65 -39h105zM537 893q-51 0 -68.5 -27.5t-17.5 -103.5q0 -78 17 -103.5t69 -25.5q49 0 65 27.5t16 101.5q0 78 -17 104.5t-64 26.5zM563 -145q174 0 174 98q0 55 -41 75.5t-135 20.5 h-80q-84 -20 -84 -108q0 -86 166 -86z" glyph-name="gdotaccent" horiz-adv-x="1157" unicode="ġ"/><glyph d="M1233 868v-852l-361 -30l-22 135h-16q-98 -141 -302 -141q-258 0 -358 191t-100 560q0 176 28.5 304t79.5 209t136 128t181.5 64.5t231.5 17.5q250 0 393 -43l-32 -373q-145 45 -340 45q-125 0 -166 -73.5t-41 -294.5q0 -217 31.5 -291t125.5 -74q63 0 97.5 39t34.5 141 v11h-117v327h516zM535 -432v287h327v-287l-125 -334h-170l123 334h-155z" glyph-name="Gcommaaccent" horiz-adv-x="1312" unicode="Ģ"/><glyph d="M737 1604v-287h-327v287l125 331h170l-123 -331h155zM578 291q219 0 348 -44t175 -114t46 -178q0 -193 -149.5 -268.5t-434.5 -75.5q-313 0 -434 63.5t-121 188.5q0 164 180 205v24q-119 61 -118 170q0 96 112 193q-137 86 -137 297q0 223 122 309t357 86q135 0 224 -21 h374l17 -188l-146 -27q31 -53 31 -139q0 -223 -121 -308t-356 -85q-43 0 -109 4l-12 -10q-18 -18 -18 -43q0 -39 65 -39h105zM537 893q-51 0 -68.5 -27.5t-17.5 -103.5q0 -78 17 -103.5t69 -25.5q49 0 65 27.5t16 101.5q0 78 -17 104.5t-64 26.5zM563 -145q174 0 174 98 q0 55 -41 75.5t-135 20.5h-80q-84 -20 -84 -108q0 -86 166 -86z" glyph-name="gcommaaccent" horiz-adv-x="1157" unicode="ģ"/><glyph d="M721 1810l-180 -215h-275l264 408h381l267 -408h-277zM858 1434h459v-1434h-459v569h-274v-569h-459v1434h459v-516h274v516z" glyph-name="Hcircumflex" horiz-adv-x="1439" unicode="Ĥ"/><glyph d="M518 1862l-180 -215h-275l265 407h381l266 -407h-277zM834 1147q195 0 264 -95.5t69 -328.5v-723h-440v692q0 74 -19.5 103.5t-72.5 29.5q-49 0 -71.5 -28.5t-22.5 -104.5v-692h-443v1536h443v-496h18q76 107 275 107z" glyph-name="hcircumflex" horiz-adv-x="1251" unicode="ĥ"/><glyph d="M1448 1290v-246h-131v-1044h-459v569h-274v-569h-459v1044h-125v246h125v144h459v-144h274v144h459v-144h131zM858 918v126h-274v-126h274z" glyph-name="Hbar" horiz-adv-x="1447" unicode="Ħ"/><glyph d="M834 1147q195 0 264 -95.5t69 -328.5v-723h-440v692q0 74 -19.5 103.5t-72.5 29.5q-49 0 -71.5 -28.5t-22.5 -104.5v-692h-443v1194h-121v215h121v127h443v-127h250v-215h-250v-154h18q76 107 275 107z" glyph-name="hbar" horiz-adv-x="1251" unicode="ħ"/><glyph d="M500 1577q-90 0 -154 49l-67 49q-29 20 -60 21q-61 0 -76 -97h-168q0 150 68 240t182 90q80 0 160 -53l66 -43q37 -25 61 -25q51 0 70 97h166q0 -160 -65.5 -244t-182.5 -84zM584 1434v-1434h-459v1434h459z" glyph-name="Itilde" horiz-adv-x="704" unicode="Ĩ"/><glyph d="M461 1270q-90 0 -154 49l-67 49q-29 20 -60 21q-61 0 -76 -97h-167q0 150 67.5 240t181.5 90q80 0 160 -53l66 -43q37 -25 61 -25q51 0 70 96h166q0 -160 -65.5 -243.5t-182.5 -83.5zM535 1126v-1126h-441v1126h441z" glyph-name="itilde" horiz-adv-x="628" unicode="ĩ"/><glyph d="M45 1898h621v-286h-621v286zM584 1434v-1434h-459v1434h459z" glyph-name="Imacron" horiz-adv-x="704" unicode="Ī"/><glyph d="M6 1591h621v-286h-621v286zM535 1126v-1126h-441v1126h441z" glyph-name="imacron" horiz-adv-x="628" unicode="ī"/><glyph d="M356 1559q-205 0 -283.5 82.5t-78.5 244.5v43h225v-24q0 -61 31 -87t104 -26q70 0 102.5 21.5t32.5 91.5v24h226v-43q0 -184 -91.5 -255.5t-267.5 -71.5zM584 1434v-1434h-459v1434h459z" glyph-name="Ibreve" horiz-adv-x="704" unicode="Ĭ"/><glyph d="M317 1251q-205 0 -283.5 83t-78.5 245v43h225v-25q0 -61 31 -86.5t104 -25.5q70 0 103 21.5t33 90.5v25h225v-43q0 -184 -91.5 -256t-267.5 -72zM535 1126v-1126h-441v1126h441z" glyph-name="ibreve" horiz-adv-x="628" unicode="ĭ"/><glyph d="M563 -279l39 -217q-59 -8 -129 -8q-365 0 -364 271q0 127 114 233h-98v1434h459v-1434h-95q-98 -76 -98 -154q0 -68 52 -96.5t120 -28.5z" glyph-name="Iogonek" horiz-adv-x="704" unicode="Į"/><glyph d="M82 1569h467v-332h-467v332zM94 0v1126h441v-1126h-113q-98 -76 -98 -154q0 -68 52 -96.5t120 -28.5l39 -217q-59 -8 -129 -8q-365 0 -365 271q0 127 115 233h-62z" glyph-name="iogonek" horiz-adv-x="628" unicode="į"/><glyph d="M190 1911h328v-287h-328v287zM584 1434v-1434h-459v1434h459z" glyph-name="Idotaccent" horiz-adv-x="704" unicode="İ"/><glyph d="M535 1126v-1126h-441v1126h441z" glyph-name="dotlessi" horiz-adv-x="628" unicode="ı"/><glyph d="M584 1434v-1434h-459v1434h459zM983 -20q-145 0 -262 24l33 354q27 -8 69 -8q47 0 62.5 22.5t15.5 88.5v973h459v-1092q0 -205 -96.5 -283.5t-280.5 -78.5z" glyph-name="IJ" horiz-adv-x="1470" unicode="Ĳ"/><glyph d="M82 1569h467v-332h-467v332zM727 1237v332h467v-332h-467zM535 1126v-1126h-441v1126h441zM815 -389q-158 0 -274 24l24 291q33 -8 86.5 -8t71.5 31t18 121v1056h441v-1153q0 -205 -93.5 -283.5t-273.5 -78.5z" glyph-name="ij" horiz-adv-x="1273" unicode="ĳ"/><glyph d="M428 1810l-180 -215h-275l265 408h380l267 -408h-277zM197 461v973h458v-1092q0 -205 -96 -283.5t-280 -78.5q-145 0 -263 24l33 354q27 -8 70 -8q47 0 62.5 22.5t15.5 88.5z" glyph-name="Jcircumflex" horiz-adv-x="765" unicode="Ĵ"/><glyph d="M297 1503l-180 -215h-275l264 408h381l267 -408h-277zM59 70v1056h441v-1153q0 -205 -93.5 -283.5t-273.5 -78.5q-158 0 -274 24l24 291q33 -8 86.5 -8t71.5 31t18 121z" glyph-name="jcircumflex" horiz-adv-x="591" unicode="ĵ"/><glyph d="M584 569v-569h-459v1434h459v-516h55l207 516h485l-344 -680l375 -754h-520l-207 569h-51zM528 -432v287h328v-287l-125 -334h-170l123 334h-156z" glyph-name="Kcommaaccent" horiz-adv-x="1359" unicode="Ķ"/><glyph d="M541 481v-481h-443v1536h443v-778h71l133 368h476l-273 -495l281 -631h-488l-145 481h-55zM442 -432v287h328v-287l-125 -334h-170l123 334h-156z" glyph-name="kcommaaccent" horiz-adv-x="1234" unicode="ķ"/><glyph d="M752 2011l-267 -407h-256l160 407h363zM584 348h303v-348h-762v1434h459v-1086z" glyph-name="Lacute" horiz-adv-x="921" unicode="Ĺ"/><glyph d="M188 1706l160 408h363l-267 -408h-256zM418 -20q-184 0 -256 82.5t-72 244.5v1229h440v-1124q0 -66 13.5 -88.5t52.5 -22.5q35 0 59 6l27 -305q-117 -22 -264 -22z" glyph-name="lacute" horiz-adv-x="686" unicode="ĺ"/><glyph d="M584 348h303v-348h-762v1434h459v-1086zM377 -432v287h328v-287l-125 -334h-170l122 334h-155z" glyph-name="Lcommaaccent" horiz-adv-x="921" unicode="Ļ"/><glyph d="M682 2q-117 -23 -264 -22q-184 0 -256 82.5t-72 244.5v1229h440v-1124q0 -66 13.5 -88.5t52.5 -22.5q35 0 59 6zM197 -432v287h327v-287l-125 -334h-170l123 334h-155z" glyph-name="lcommaaccent" horiz-adv-x="686" unicode="ļ"/><glyph d="M584 1434v-1086h303v-348h-762v1434h459zM729 1434h328v-287l-125 -332h-170l123 332h-156v287z" glyph-name="Lcaron" horiz-adv-x="921" unicode="Ľ"/><glyph d="M596 301q35 0 59 6l27 -305q-117 -23 -264 -22q-184 0 -256 82.5t-72 244.5v1229h440v-1124q0 -66 13.5 -88.5t52.5 -22.5zM627 1536h327v-287l-125 -331h-167l120 331h-155v287z" glyph-name="lcaron" horiz-adv-x="686" unicode="ľ"/><glyph d="M584 1434v-1086h303v-348h-762v1434h459zM664 993h466v-424h-466v424z" glyph-name="Ldot" horiz-adv-x="1148" unicode="Ŀ"/><glyph d="M418 -20q-184 0 -256 82.5t-72 244.5v1229h440v-1124q0 -66 13.5 -88.5t52.5 -22.5q35 0 59 6l27 -305q-117 -22 -264 -22zM604 569v424h467v-424h-467z" glyph-name="ldot" horiz-adv-x="1089" unicode="ŀ"/><glyph d="M584 348h303v-348h-762v451l-125 -60v301l125 60v682h459v-465l239 114v-301l-239 -114v-320z" glyph-name="Lslash" horiz-adv-x="921" unicode="Ł"/><glyph d="M684 813l-154 -84v-317q0 -66 13.5 -88.5t52.5 -22.5q35 0 59 6l27 -305q-117 -23 -264 -22q-184 0 -256 82.5t-72 244.5v185l-90 -50v293l90 49v752h440v-514l154 84v-293z" glyph-name="lslash" horiz-adv-x="686" unicode="ł"/><glyph d="M1112 2011l-266 -407h-256l160 407h362zM909 1434h396v-1434h-580l-188 838h-19v-838h-393v1434h584l184 -830h16v830z" glyph-name="Nacute" horiz-adv-x="1425" unicode="Ń"/><glyph d="M1024 1704l-266 -408h-256l160 408h362zM834 1147q195 0 264 -95.5t69 -328.5v-723h-440v692q0 74 -19.5 103.5t-72.5 29.5q-49 0 -72.5 -28.5t-23.5 -104.5v-692h-441v1106l402 35l20 -129h21q74 135 293 135z" glyph-name="nacute" horiz-adv-x="1251" unicode="ń"/><glyph d="M909 1434h396v-1434h-580l-188 838h-19v-838h-393v1434h584l184 -830h16v830zM522 -432v287h328v-287l-125 -334h-170l123 334h-156z" glyph-name="Ncommaaccent" horiz-adv-x="1425" unicode="Ņ"/><glyph d="M834 1147q195 0 264 -95.5t69 -328.5v-723h-440v692q0 74 -19.5 103.5t-72.5 29.5q-49 0 -72.5 -28.5t-23.5 -104.5v-692h-441v1106l402 35l20 -129h21q74 135 293 135zM463 -432v287h328v-287l-125 -334h-170l122 334h-155z" glyph-name="ncommaaccent" horiz-adv-x="1251" unicode="ņ"/><glyph d="M520 1595l-264 408h274l181 -215l180 215h276l-266 -408h-381zM909 1434h396v-1434h-580l-188 838h-19v-838h-393v1434h584l184 -830h16v830z" glyph-name="Ncaron" horiz-adv-x="1425" unicode="Ň"/><glyph d="M432 1288l-264 408h274l181 -215l180 215h276l-266 -408h-381zM834 1147q195 0 264 -95.5t69 -328.5v-723h-440v692q0 74 -19.5 103.5t-72.5 29.5q-49 0 -72.5 -28.5t-23.5 -104.5v-692h-441v1106l402 35l20 -129h21q74 135 293 135z" glyph-name="ncaron" horiz-adv-x="1251" unicode="ň"/><glyph d="M909 1434h396v-1512q0 -176 -82 -243.5t-242 -67.5q-117 0 -225 20l22 254q37 -8 66 -8q39 0 52 18.5t13 75.5v29h-184l-188 838h-19v-838h-393v1434h584l184 -830h16v830z" glyph-name="Eng" horiz-adv-x="1425" unicode="Ŋ"/><glyph d="M834 1147q195 0 264 -95.5t69 -328.5v-750q0 -205 -92 -283.5t-272 -78.5q-162 0 -275 24l25 291q33 -8 84 -8t70.5 25.5t19.5 99.5v649q0 74 -19.5 103.5t-72.5 29.5q-49 0 -72.5 -28.5t-23.5 -104.5v-692h-441v1106l402 35l20 -129h21q74 135 293 135z" glyph-name="eng" horiz-adv-x="1251" unicode="ŋ"/><glyph d="M401 1898h621v-286h-621v286zM713 -20q-186 0 -312.5 47t-197 146t-99 228t-28.5 316q0 217 41 363.5t126 227.5t196.5 113.5t273.5 32.5q188 0 314 -47t195.5 -146.5t97.5 -228.5t28 -315q0 -217 -41 -363.5t-126 -227.5t-196.5 -113.5t-271.5 -32.5zM713 350 q98 0 131 74t33 293t-33 292.5t-131 73.5q-100 0 -133 -73.5t-33 -292.5t33 -293t133 -74z" glyph-name="Omacron" horiz-adv-x="1419" unicode="Ō"/><glyph d="M283 1591h620v-286h-620v286zM592 -20q-307 0 -425 148t-118 435q0 330 138.5 457t404.5 127q305 0 423 -148.5t118 -435.5q0 -330 -138.5 -456.5t-402.5 -126.5zM592 301q51 0 68.5 52.5t17.5 210t-17.5 209.5t-68.5 52q-53 0 -71.5 -53t-18.5 -208.5t18.5 -209 t71.5 -53.5z" glyph-name="omacron" horiz-adv-x="1179" unicode="ō"/><glyph d="M713 1559q-205 0 -284 82.5t-79 244.5v43h225v-24q0 -61 31 -87t105 -26q70 0 102.5 21.5t32.5 91.5v24h225v-43q0 -184 -91 -255.5t-267 -71.5zM713 -20q-186 0 -312.5 47t-197 146t-99 228t-28.5 316q0 217 41 363.5t126 227.5t196.5 113.5t273.5 32.5q188 0 314 -47 t195.5 -146.5t97.5 -228.5t28 -315q0 -217 -41 -363.5t-126 -227.5t-196.5 -113.5t-271.5 -32.5zM713 350q98 0 131 74t33 293t-33 292.5t-131 73.5q-100 0 -133 -73.5t-33 -292.5t33 -293t133 -74z" glyph-name="Obreve" horiz-adv-x="1419" unicode="Ŏ"/><glyph d="M594 1251q-205 0 -284 83t-79 245v43h226v-25q0 -61 30.5 -86.5t104.5 -25.5q70 0 102.5 21.5t32.5 90.5v25h225v-43q0 -184 -91 -256t-267 -72zM592 -20q-307 0 -425 148t-118 435q0 330 138.5 457t404.5 127q305 0 423 -148.5t118 -435.5q0 -330 -138.5 -456.5 t-402.5 -126.5zM592 301q51 0 68.5 52.5t17.5 210t-17.5 209.5t-68.5 52q-53 0 -71.5 -53t-18.5 -208.5t18.5 -209t71.5 -53.5z" glyph-name="obreve" horiz-adv-x="1179" unicode="ŏ"/><glyph d="M377 1604l170 407h360l-286 -407h-244zM842 1604l168 407h360l-285 -407h-243zM713 -20q-186 0 -312.5 47t-197 146t-99 228t-28.5 316q0 217 41 363.5t126 227.5t196.5 113.5t273.5 32.5q188 0 314 -47t195.5 -146.5t97.5 -228.5t28 -315q0 -217 -41 -363.5t-126 -227.5 t-196.5 -113.5t-271.5 -32.5zM713 350q98 0 131 74t33 293t-33 292.5t-131 73.5q-100 0 -133 -73.5t-33 -292.5t33 -293t133 -74z" glyph-name="Ohungarumlaut" horiz-adv-x="1419" unicode="Ő"/><glyph d="M258 1296l170 408h360l-286 -408h-244zM723 1296l168 408h360l-284 -408h-244zM592 -20q-307 0 -425 148t-118 435q0 330 138.5 457t404.5 127q305 0 423 -148.5t118 -435.5q0 -330 -138.5 -456.5t-402.5 -126.5zM592 301q51 0 68.5 52.5t17.5 210t-17.5 209.5t-68.5 52 q-53 0 -71.5 -53t-18.5 -208.5t18.5 -209t71.5 -53.5z" glyph-name="ohungarumlaut" horiz-adv-x="1179" unicode="ő"/><glyph d="M1305 348h440v-348h-852q-96 -20 -223 -20q-188 0 -314.5 47t-196 146t-98 228t-28.5 316q0 217 41 363.5t126 227.5t196.5 113.5t273.5 32.5q127 0 217 -20h833v-349h-415v-167h374v-349h-374v-221zM670 350q98 0 131 74t33 293t-33 292.5t-131 73.5q-100 0 -133 -73.5 t-33 -292.5t33 -293t133 -74z" glyph-name="OE" horiz-adv-x="1812" unicode="Œ"/><glyph d="M1104 449q8 -86 31.5 -119t78.5 -33q133 0 377 47l49 -295q-248 -70 -436 -69.5t-309 73.5q-125 -74 -336 -73q-307 0 -425 148t-118 435q0 330 138.5 457t404.5 127q203 0 326 -70q117 70 313 70q150 0 246 -37t147 -116t69.5 -179t18.5 -252q0 -63 -6 -114h-569z M1204 866q-53 0 -75.5 -39t-26.5 -143h186q-4 104 -22.5 143t-61.5 39zM559 301q53 0 70.5 53.5t17.5 209t-17.5 208.5t-70.5 53t-70.5 -52t-17.5 -209.5t17.5 -210t70.5 -52.5z" glyph-name="oe" horiz-adv-x="1714" unicode="œ"/><glyph d="M1059 2011l-266 -407h-256l159 407h363zM840 0l-189 502h-67v-502h-459v1434h506q227 0 354 -51.5t174 -145.5t47 -256q0 -240 -176 -373l293 -608h-483zM621 1120h-37v-340h37q84 0 112.5 34t28.5 134q0 102 -28.5 137t-112.5 35z" glyph-name="Racute" horiz-adv-x="1320" unicode="Ŕ"/><glyph d="M815 1704l-266 -408h-256l160 408h362zM821 1147q31 0 41 -2l-35 -385q-55 27 -147 26q-86 0 -112.5 -44t-26.5 -179v-563h-443v1106l406 35l24 -156h21q65 162 272 162z" glyph-name="racute" horiz-adv-x="868" unicode="ŕ"/><glyph d="M1030 608l293 -608h-483l-189 502h-67v-502h-459v1434h506q227 0 354 -51.5t174 -145.5t47 -256q0 -240 -176 -373zM621 1120h-37v-340h37q84 0 112.5 34t28.5 134q0 102 -28.5 137t-112.5 35zM498 -432v287h327v-287l-125 -334h-170l123 334h-155z" glyph-name="Rcommaaccent" horiz-adv-x="1320" unicode="Ŗ"/><glyph d="M821 1147q31 0 41 -2l-35 -385q-55 27 -147 26q-86 0 -112.5 -44t-26.5 -179v-563h-443v1106l406 35l24 -156h21q65 162 272 162zM254 -432v287h328v-287l-125 -334h-170l123 334h-156z" glyph-name="rcommaaccent" horiz-adv-x="868" unicode="ŗ"/><glyph d="M467 1595l-264 408h274l180 -215l181 215h276l-266 -408h-381zM840 0l-189 502h-67v-502h-459v1434h506q227 0 354 -51.5t174 -145.5t47 -256q0 -240 -176 -373l293 -608h-483zM621 1120h-37v-340h37q84 0 112.5 34t28.5 134q0 102 -28.5 137t-112.5 35z" glyph-name="Rcaron" horiz-adv-x="1320" unicode="Ř"/><glyph d="M223 1288l-264 408h274l181 -215l180 215h276l-266 -408h-381zM549 985q66 162 272 162q31 0 41 -2l-35 -385q-55 27 -147 26q-86 0 -112.5 -44t-26.5 -179v-563h-443v1106l406 35l24 -156h21z" glyph-name="rcaron" horiz-adv-x="868" unicode="ř"/><glyph d="M356 1604l160 407h363l-267 -407h-256zM420 -20q-162 0 -395 40l30 347q238 -33 303 -33q106 0 107 80q0 57 -45 98l-187 176q-182 172 -182 363q0 227 130 315t384 88q129 0 342 -33l-28 -338q-111 18 -240 19q-70 0 -93.5 -15.5t-23.5 -62.5q0 -49 41 -84l176 -168 q197 -184 197 -364q0 -242 -131 -335t-385 -93z" glyph-name="Sacute" horiz-adv-x="970" unicode="Ś"/><glyph d="M322 1296l159 408h363l-266 -408h-256zM430 -20q-176 0 -387 36l27 310q137 -25 231 -25q49 0 63.5 10.5t14.5 42.5q0 29 -31 49l-180 123q-125 84 -125 278.5t100.5 268.5t296.5 74q150 0 389 -39l-26 -311q-150 29 -234 28q-31 0 -41 -9t-10 -34q0 -29 23 -45l151 -106 q88 -63 129 -128t41 -167q0 -201 -110.5 -278.5t-321.5 -77.5z" glyph-name="sacute" horiz-adv-x="884" unicode="ś"/><glyph d="M481 1810l-180 -215h-274l264 408h381l266 -408h-276zM739 772q197 -184 197 -364q0 -242 -131 -335t-385 -93q-162 0 -395 40l30 347q238 -33 303 -33q106 0 107 80q0 57 -45 98l-187 176q-182 172 -182 363q0 227 130 315t384 88q129 0 342 -33l-28 -338 q-111 18 -240 19q-70 0 -93.5 -15.5t-23.5 -62.5q0 -49 41 -84z" glyph-name="Scircumflex" horiz-adv-x="970" unicode="Ŝ"/><glyph d="M446 1503l-180 -215h-274l264 408h381l266 -408h-276zM692 631q88 -63 129 -128t41 -167q0 -201 -110.5 -278.5t-321.5 -77.5q-176 0 -387 36l27 310q137 -25 231 -25q49 0 63.5 10.5t14.5 42.5q0 29 -31 49l-180 123q-125 84 -125 278.5t100.5 268.5t296.5 74 q150 0 389 -39l-26 -311q-150 29 -234 28q-31 0 -41 -9t-10 -34q0 -29 23 -45z" glyph-name="scircumflex" horiz-adv-x="884" unicode="ŝ"/><glyph d="M936 408q0 -203 -94 -300.5t-275 -119.5l-20 -74q217 -12 217 -197q0 -117 -71.5 -173t-182.5 -56q-106 0 -234 41l13 141q55 -23 108 -22q80 0 80 71q0 57 -65 58h-90l38 205q-158 6 -335 38l30 347q238 -33 303 -33q106 0 107 80q0 57 -45 98l-187 176 q-182 172 -182 363q0 227 130 315t384 88q129 0 342 -33l-28 -338q-111 18 -240 19q-70 0 -93.5 -15.5t-23.5 -62.5q0 -49 41 -84l176 -168q197 -184 197 -364z" glyph-name="Scedilla" horiz-adv-x="970" unicode="Ş"/><glyph d="M862 336q0 -170 -80 -251t-233 -99l-21 -72q217 -12 217 -197q0 -117 -71.5 -173t-181.5 -56q-106 0 -234 41l12 141q55 -23 109 -22q80 0 80 71q0 57 -66 58h-90l39 205q-139 6 -299 34l27 310q137 -25 231 -25q49 0 63.5 10.5t14.5 42.5q0 29 -31 49l-180 123 q-125 84 -125 278.5t100.5 268.5t296.5 74q150 0 389 -39l-26 -311q-150 29 -234 28q-31 0 -41 -9t-10 -34q0 -29 23 -45l151 -106q88 -63 129 -128t41 -167z" glyph-name="scedilla" horiz-adv-x="884" unicode="ş"/><glyph d="M287 1595l-264 408h274l180 -215l180 215h277l-266 -408h-381zM739 772q197 -184 197 -364q0 -242 -131 -335t-385 -93q-162 0 -395 40l30 347q238 -33 303 -33q106 0 107 80q0 57 -45 98l-187 176q-182 172 -182 363q0 227 130 315t384 88q129 0 342 -33l-28 -338 q-111 18 -240 19q-70 0 -93.5 -15.5t-23.5 -62.5q0 -49 41 -84z" glyph-name="Scaron" horiz-adv-x="970" unicode="Š"/><glyph d="M252 1288l-264 408h274l180 -215l181 215h276l-266 -408h-381zM692 631q88 -63 129 -128t41 -167q0 -201 -110.5 -278.5t-321.5 -77.5q-176 0 -387 36l27 310q137 -25 231 -25q49 0 63.5 10.5t14.5 42.5q0 29 -31 49l-180 123q-125 84 -125 278.5t100.5 268.5t296.5 74 q150 0 389 -39l-26 -311q-150 29 -234 28q-31 0 -41 -9t-10 -34q0 -29 23 -45z" glyph-name="scaron" horiz-adv-x="884" unicode="š"/><glyph d="M750 0h-129l-25 -86q217 -12 217 -197q0 -117 -71.5 -173t-182.5 -56q-106 0 -233 41l12 141q55 -23 108 -22q80 0 80 71q0 57 -65 58h-90l41 223h-121v1085h-275v349h1004v-349h-270v-1085z" glyph-name="Tcommaaccent" horiz-adv-x="1036" unicode="Ţ"/><glyph d="M752 850h-164v-444q0 -63 12 -84t51 -21q33 0 56 6l24 -307q-80 -16 -213 -20l-18 -66q217 -12 217 -197q0 -117 -72 -173t-182 -56q-106 0 -234 41l13 141q55 -23 108 -22q80 0 80 71q0 57 -65 58h-91l43 225q-168 59 -167 305v543h-138v276h138v273h438v-273h164v-276z " glyph-name="tcommaaccent" horiz-adv-x="798" unicode="ţ"/><glyph d="M324 1595l-265 408h275l180 -215l180 215h277l-266 -408h-381zM1020 1434v-349h-270v-1085h-459v1085h-275v349h1004z" glyph-name="Tcaron" horiz-adv-x="1036" unicode="Ť"/><glyph d="M670 1847h327v-286l-125 -334h-167l120 334h-155v286zM588 1399v-273h164v-276h-164v-444q0 -63 12 -84t51 -21q33 0 56 6l24 -307q-100 -20 -254 -20q-184 0 -255.5 82.5t-71.5 244.5v543h-138v276h138v273h438z" glyph-name="tcaron" horiz-adv-x="798" unicode="ť"/><glyph d="M1020 1085h-270v-225h180v-287h-180v-573h-459v573h-135v287h135v225h-275v349h1004v-349z" glyph-name="Tbar" horiz-adv-x="1036" unicode="Ŧ"/><glyph d="M752 850h-164v-107h147v-286h-147v-51q0 -63 12 -84t51 -21q33 0 56 6l24 -307q-100 -20 -254 -20q-184 0 -255.5 82.5t-71.5 244.5v150h-119v286h119v107h-138v276h138v273h438v-273h164v-276z" glyph-name="tbar" horiz-adv-x="798" unicode="ŧ"/><glyph d="M813 1577q-90 0 -154 49l-67 49q-29 20 -60 21q-61 0 -75 -97h-168q0 150 67.5 240t182.5 90q80 0 159 -53l66 -43q37 -25 61 -25q51 0 70 97h166q0 -160 -65.5 -244t-182.5 -84zM676 -20q-170 0 -287 37.5t-179.5 113.5t-89 170t-26.5 225v908h459v-934q0 -90 23.5 -120 t91.5 -30q66 0 88 30t22 120v934h459v-908q0 -309 -142.5 -427.5t-418.5 -118.5z" glyph-name="Utilde" horiz-adv-x="1329" unicode="Ũ"/><glyph d="M475 1389q-61 0 -76 -97h-168q0 150 68 240t182 90q80 0 160 -53l66 -43q37 -25 61 -25q51 0 70 96h166q0 -160 -66 -243.5t-182 -83.5q-90 0 -154 49l-67 49q-29 21 -60 21zM684 1126h440v-1106l-403 -34l-21 129h-18q-70 -135 -279 -135q-184 0 -250.5 95t-66.5 328 v723h442v-692q0 -74 15.5 -103.5t60.5 -29.5q41 0 60.5 28.5t19.5 104.5v692z" glyph-name="utilde" horiz-adv-x="1222" unicode="ũ"/><glyph d="M358 1898h621v-286h-621v286zM676 -20q-170 0 -287 37.5t-179.5 113.5t-89 170t-26.5 225v908h459v-934q0 -90 23.5 -120t91.5 -30q66 0 88 30t22 120v934h459v-908q0 -309 -142.5 -427.5t-418.5 -118.5z" glyph-name="Umacron" horiz-adv-x="1329" unicode="Ū"/><glyph d="M922 1591v-286h-621v286h621zM684 1126h440v-1106l-403 -34l-21 129h-18q-70 -135 -279 -135q-184 0 -250.5 95t-66.5 328v723h442v-692q0 -74 15.5 -103.5t60.5 -29.5q41 0 60.5 28.5t19.5 104.5v692z" glyph-name="umacron" horiz-adv-x="1222" unicode="ū"/><glyph d="M670 1559q-205 0 -284 82.5t-79 244.5v43h225v-24q0 -61 31 -87t105 -26q70 0 102.5 21.5t32.5 91.5v24h225v-43q0 -184 -91 -255.5t-267 -71.5zM676 -20q-170 0 -287 37.5t-179.5 113.5t-89 170t-26.5 225v908h459v-934q0 -90 23.5 -120t91.5 -30q66 0 88 30t22 120v934 h459v-908q0 -309 -142.5 -427.5t-418.5 -118.5z" glyph-name="Ubreve" horiz-adv-x="1329" unicode="Ŭ"/><glyph d="M612 1251q-205 0 -283.5 83t-78.5 245v43h225v-25q0 -61 31 -86.5t104 -25.5q70 0 102.5 21.5t32.5 90.5v25h226v-43q0 -184 -91.5 -256t-267.5 -72zM684 1126h440v-1106l-403 -34l-21 129h-18q-70 -135 -279 -135q-184 0 -250.5 95t-66.5 328v723h442v-692 q0 -74 15.5 -103.5t60.5 -29.5q41 0 60.5 28.5t19.5 104.5v692z" glyph-name="ubreve" horiz-adv-x="1222" unicode="ŭ"/><glyph d="M668 1540q-160 0 -222.5 65.5t-62.5 192.5q0 145 72.5 201.5t212.5 56.5q160 0 221 -65.5t61 -192.5q0 -145 -71.5 -201.5t-210.5 -56.5zM668 1688q55 0 81.5 23.5t26.5 86.5q0 55 -23.5 82t-84.5 27q-57 0 -84 -23.5t-27 -85.5q0 -57 24 -83.5t87 -26.5zM676 -20 q-170 0 -287 37.5t-179.5 113.5t-89 170t-26.5 225v908h459v-934q0 -90 23.5 -120t91.5 -30q66 0 88 30t22 120v934h459v-908q0 -309 -142.5 -427.5t-418.5 -118.5z" glyph-name="Uring" horiz-adv-x="1329" unicode="Ů"/><glyph d="M610 1233q-160 0 -222 65.5t-62 192.5q0 145 72.5 201.5t211.5 56.5q160 0 221.5 -65.5t61.5 -192.5q0 -145 -72 -201.5t-211 -56.5zM610 1599q-57 0 -83.5 -23.5t-26.5 -84.5q0 -57 23.5 -84t86.5 -27q55 0 82 23.5t27 87.5q0 55 -24 81.5t-85 26.5zM684 1126h440v-1106 l-403 -34l-21 129h-18q-70 -135 -279 -135q-184 0 -250.5 95t-66.5 328v723h442v-692q0 -74 15.5 -103.5t60.5 -29.5q41 0 60.5 28.5t19.5 104.5v692z" glyph-name="uring" horiz-adv-x="1222" unicode="ů"/><glyph d="M334 1604l170 407h360l-286 -407h-244zM799 1604l168 407h360l-285 -407h-243zM676 -20q-170 0 -287 37.5t-179.5 113.5t-89 170t-26.5 225v908h459v-934q0 -90 23.5 -120t91.5 -30q66 0 88 30t22 120v934h459v-908q0 -309 -142.5 -427.5t-418.5 -118.5z" glyph-name="Uhungarumlaut" horiz-adv-x="1329" unicode="Ű"/><glyph d="M807 1704l-287 -408h-244l170 408h361zM985 1296h-244l168 408h361zM684 434v692h440v-1106l-403 -34l-21 129h-18q-70 -135 -279 -135q-184 0 -250.5 95t-66.5 328v723h442v-692q0 -74 15.5 -103.5t60.5 -29.5q41 0 60.5 28.5t19.5 104.5z" glyph-name="uhungarumlaut" horiz-adv-x="1222" unicode="ű"/><glyph d="M778 1434h459v-908q0 -256 -99.5 -381t-289.5 -153q-88 -72 -88 -146q0 -68 52 -96.5t120 -28.5l39 -217q-59 -8 -129 -8q-365 0 -365 271q0 119 98 217q-270 23 -375.5 159t-105.5 383v908h459v-934q0 -90 23.5 -120t91.5 -30q66 0 88 30t22 120v934z" glyph-name="Uogonek" horiz-adv-x="1329" unicode="Ų"/><glyph d="M1153 -258l39 -217q-59 -8 -129 -8q-365 0 -365 270q0 113 86 205l-63 -6l-21 129h-18q-70 -135 -279 -135q-184 0 -250.5 95t-66.5 328v723h442v-692q0 -74 15.5 -103.5t60.5 -29.5q41 0 60.5 28.5t19.5 104.5v692h440v-1106l-51 -4q-92 -72 -92 -149q0 -68 52 -96.5 t120 -28.5z" glyph-name="uogonek" horiz-adv-x="1222" unicode="ų"/><glyph d="M942 1810l-180 -215h-275l265 408h381l266 -408h-277zM1421 1434h465l-217 -1434h-577l-138 1085h-24l-135 -1085h-580l-215 1434h465l90 -1086h25l116 1086h494l117 -1086h24z" glyph-name="Wcircumflex" horiz-adv-x="1884" unicode="Ŵ"/><glyph d="M940 1503l-180 -215h-275l265 408h380l267 -408h-277zM1407 1126h463l-189 -1126h-626l-107 825h-28l-107 -825h-625l-188 1126h461l55 -825h33l108 825h553l109 -825h35z" glyph-name="wcircumflex" horiz-adv-x="1867" unicode="ŵ"/><glyph d="M649 1810l-180 -215h-274l264 408h381l266 -408h-277zM1300 1434l-428 -990v-444h-458v477l-414 957h465l174 -582h23l176 582h462z" glyph-name="Ycircumflex" horiz-adv-x="1298" unicode="Ŷ"/><glyph d="M563 1503l-180 -215h-274l264 408h381l266 -408h-277zM664 1126h460l-254 -1126q-49 -223 -173 -306t-318 -83q-127 0 -277 35l25 291q141 -20 240 -21q92 0 127.5 28.5t46.5 121.5l2 20h-316l-227 1040h461l82 -739h35z" glyph-name="ycircumflex" horiz-adv-x="1122" unicode="ŷ"/><glyph d="M571 1911v-287h-327v287h327zM1057 1911v-287h-328v287h328zM1300 1434l-428 -990v-444h-458v477l-414 957h465l174 -582h23l176 582h462z" glyph-name="Ydieresis" horiz-adv-x="1298" unicode="Ÿ"/><glyph d="M924 2011l-267 -407h-256l160 407h363zM92 1434h912v-387l-521 -670v-29h508v-348h-966v389l520 668v28h-453v349z" glyph-name="Zacute" horiz-adv-x="1052" unicode="Ź"/><glyph d="M852 1704l-266 -408h-256l159 408h363zM465 297h412v-297h-852v340l391 471v18h-357v297h793v-338l-387 -462v-29z" glyph-name="zacute" horiz-adv-x="911" unicode="ź"/><glyph d="M690 1911v-287h-328v287h328zM92 1434h912v-387l-521 -670v-29h508v-348h-966v389l520 668v28h-453v349z" glyph-name="Zdotaccent" horiz-adv-x="1052" unicode="Ż"/><glyph d="M618 1604v-287h-327v287h327zM465 297h412v-297h-852v340l391 471v18h-357v297h793v-338l-387 -462v-29z" glyph-name="zdotaccent" horiz-adv-x="911" unicode="ż"/><glyph d="M332 1595l-264 408h274l180 -215l180 215h277l-266 -408h-381zM92 1434h912v-387l-521 -670v-29h508v-348h-966v389l520 668v28h-453v349z" glyph-name="Zcaron" horiz-adv-x="1052" unicode="Ž"/><glyph d="M260 1288l-264 408h274l181 -215l180 215h276l-266 -408h-381zM465 326v-29h412v-297h-852v340l391 471v18h-357v297h793v-338z" glyph-name="zcaron" horiz-adv-x="911" unicode="ž"/><glyph d="M571 1548q164 0 265 -22l-27 -291q-35 10 -96 10q-66 0 -87.5 -34.5t-21.5 -135.5v-1075h-440v850h-152v276h152v27q0 223 103 309t304 86z" glyph-name="longs" horiz-adv-x="808" unicode="ſ"/><glyph d="M694 1245q-66 0 -87 -34.5t-21 -135.5v-153h184v-277h-184v-672q0 -205 -92.5 -283.5t-272.5 -78.5q-125 0 -221 14l27 295q10 -2 28 -2q53 0 71.5 31t18.5 121v575h-131v277h131v231q0 223 103.5 309t302.5 86q166 0 266 -22l-26 -291q-38 10 -97 10z" glyph-name="florin" horiz-adv-x="790" unicode="ƒ"/><glyph d="M1266 1694h225v-228q0 -139 -50 -205.5t-167 -86.5q74 -156 74 -457q0 -217 -41 -363.5t-126 -227.5t-197 -113.5t-271 -32.5q-186 0 -312.5 47t-197 146t-99 228t-28.5 316q0 217 41 363.5t126 227.5t196.5 113.5t273.5 32.5q270 0 415 -102q80 2 109 27.5t29 86.5v228z M713 350q98 0 131 74t33 293t-33 292.5t-131 73.5q-100 0 -133 -73.5t-33 -292.5t33 -293t133 -74z" glyph-name="Ohorn" horiz-adv-x="1419" unicode="Ơ"/><glyph d="M1096 1370h225v-227q0 -143 -52 -209t-173 -84q37 -113 37 -287q0 -330 -138.5 -456.5t-402.5 -126.5q-307 0 -425 148t-118 435q0 330 138.5 457t404.5 127q262 0 391 -117q63 4 88 30.5t25 82.5v227zM592 301q51 0 68.5 52.5t17.5 210t-17.5 209.5t-68.5 52 q-53 0 -71.5 -53t-18.5 -208.5t18.5 -209t71.5 -53.5z" glyph-name="ohorn" horiz-adv-x="1179" unicode="ơ"/><glyph d="M1303 1776h225v-228q0 -158 -66.5 -224.5t-224.5 -76.5v-721q0 -309 -142.5 -427.5t-418.5 -118.5q-170 0 -287 37.5t-179.5 113.5t-89 170t-26.5 225v908h459v-934q0 -90 23.5 -120t91.5 -30q66 0 88 30t22 120v934h373q88 0 120 25.5t32 88.5v228z" glyph-name="Uhorn" horiz-adv-x="1329" unicode="Ư"/><glyph d="M1178 1468h225v-227q0 -156 -63.5 -222.5t-215.5 -76.5v-922l-403 -34l-21 129h-18q-70 -135 -279 -135q-184 0 -250.5 95t-66.5 328v723h442v-692q0 -74 15.5 -103.5t60.5 -29.5q41 0 60.5 28.5t19.5 104.5v692h342q88 0 120 26t32 89v227z" glyph-name="uhorn" horiz-adv-x="1222" unicode="ư"/><glyph d="M1686 1595l-265 408h275l180 -215l180 215h277l-267 -408h-380zM723 1434q168 0 281.5 -50.5t175 -148.5t87 -222t25.5 -296q0 -168 -27.5 -294t-74.5 -206t-120 -129t-157 -68.5t-190 -19.5h-598v1434h598zM1446 1434h911v-387l-520 -670v-29h508v-348h-967v389l520 668 v28h-452v349zM672 350q90 0 119.5 74t29.5 293t-29.5 292.5t-119.5 73.5h-88v-733h88z" glyph-name="uni01C4" horiz-adv-x="2406" unicode="Ǆ"/><glyph d="M1624 1288l-264 408h274l181 -215l180 215h276l-266 -408h-381zM723 1434q168 0 281.5 -50.5t175 -148.5t87 -222t25.5 -296q0 -168 -27.5 -294t-74.5 -206t-120 -129t-157 -68.5t-190 -19.5h-598v1434h598zM1829 326v-29h412v-297h-852v340l391 471v18h-357v297h793 v-338zM672 350q90 0 119.5 74t29.5 293t-29.5 292.5t-119.5 73.5h-88v-733h88z" glyph-name="uni01C5" horiz-adv-x="2275" unicode="ǅ"/><glyph d="M1497 1288l-264 408h274l181 -215l180 215h276l-266 -408h-381zM668 1067v469h440v-1516l-401 -34l-21 129h-14q-55 -135 -226 -135q-223 0 -310 145t-87 428q0 174 28.5 293t86 183.5t128 91t167.5 26.5q135 0 196 -80h13zM1702 326v-29h412v-297h-852v340l391 471v18 h-357v297h793v-338zM502 561q0 -156 17.5 -208t68.5 -52q49 0 64.5 33t15.5 135v188q0 102 -14.5 135t-63.5 33q-53 0 -70.5 -52t-17.5 -212z" glyph-name="uni01C6" horiz-adv-x="2148" unicode="ǆ"/><glyph d="M584 1434v-1086h303v-348h-762v1434h459zM1118 1434h459v-1092q0 -205 -96.5 -283.5t-280.5 -78.5q-145 0 -262 24l33 354q27 -8 69 -8q47 0 62.5 22.5t15.5 88.5v973z" glyph-name="uni01C7" horiz-adv-x="1687" unicode="Ǉ"/><glyph d="M967 1569h467v-332h-467v332zM887 348v-348h-762v1434h459v-1086h303zM981 70v1056h440v-1153q0 -205 -93 -283.5t-273 -78.5q-158 0 -275 24l25 291q33 -8 86 -8t71.5 31t18.5 121z" glyph-name="uni01C8" horiz-adv-x="1513" unicode="ǈ"/><glyph d="M731 1237v332h467v-332h-467zM418 -20q-184 0 -256 82.5t-72 244.5v1229h440v-1124q0 -66 13.5 -88.5t52.5 -22.5q35 0 59 6l27 -305q-117 -22 -264 -22zM819 -389q-158 0 -274 24l24 291q33 -8 86.5 -8t71.5 31t18 121v1056h441v-1153q0 -205 -93.5 -283.5t-273.5 -78.5 z" glyph-name="uni01C9" horiz-adv-x="1277" unicode="ǉ"/><glyph d="M909 604v830h396v-1434h-580l-188 838h-19v-838h-393v1434h584l184 -830h16zM1622 1434h459v-1092q0 -205 -96.5 -283.5t-280.5 -78.5q-145 0 -262 24l33 354q27 -8 69 -8q47 0 62.5 22.5t15.5 88.5v973z" glyph-name="uni01CA" horiz-adv-x="2191" unicode="Ǌ"/><glyph d="M1520 1569h467v-332h-467v332zM909 604v830h396v-1434h-580l-188 838h-19v-838h-393v1434h584l184 -830h16zM1534 70v1056h440v-1153q0 -205 -93 -283.5t-273 -78.5q-158 0 -275 24l25 291q33 -8 86 -8t71.5 31t18.5 121z" glyph-name="uni01CB" horiz-adv-x="2066" unicode="ǋ"/><glyph d="M1411 1569h467v-332h-467v332zM834 1147q195 0 264 -95.5t69 -328.5v-723h-440v692q0 74 -19.5 103.5t-72.5 29.5q-49 0 -72.5 -28.5t-23.5 -104.5v-692h-441v1106l402 35l20 -129h21q74 135 293 135zM1425 70v1056h441v-1153q0 -205 -93.5 -283.5t-273.5 -78.5 q-158 0 -274 24l24 291q33 -8 86.5 -8t71.5 31t18 121z" glyph-name="uni01CC" horiz-adv-x="1957" unicode="ǌ"/><glyph d="M487 1595l-264 408h275l180 -215l180 215h277l-267 -408h-381zM907 0l-51 297h-340l-51 -297h-465l348 1434h676l348 -1434h-465zM578 645h217l-76 440h-66z" glyph-name="uni01CD" horiz-adv-x="1370" unicode="Ǎ"/><glyph d="M389 1288l-264 408h274l181 -215l180 215h276l-266 -408h-381zM698 1147q205 0 279 -95.5t74 -287.5v-744l-402 -34l-20 129h-17q-70 -135 -258 -135q-178 0 -247.5 86t-69.5 239q0 193 100.5 266.5t294.5 73.5h178v37q0 66 -23.5 91.5t-66.5 25.5q-92 0 -313 -56 l-62 322q354 82 553 82zM459 356q0 -117 71 -116q80 0 80 180v55h-55q-41 0 -68.5 -32t-27.5 -87z" glyph-name="uni01CE" horiz-adv-x="1132" unicode="ǎ"/><glyph d="M160 1595l-264 408h274l180 -215l180 215h277l-266 -408h-381zM125 0v1434h459v-1434h-459z" glyph-name="uni01CF" horiz-adv-x="704" unicode="Ǐ"/><glyph d="M121 1288l-264 408h274l180 -215l181 215h276l-266 -408h-381zM94 0v1126h441v-1126h-441z" glyph-name="uni01D0" horiz-adv-x="628" unicode="ǐ"/><glyph d="M516 1595l-264 408h274l181 -215l180 215h276l-266 -408h-381zM713 1454q188 0 314 -47t195.5 -146.5t97.5 -228.5t28 -315q0 -217 -41 -363.5t-126 -227.5t-197 -113.5t-271 -32.5q-186 0 -312.5 47t-197 146t-99 228t-28.5 316q0 217 41 363.5t126 227.5t196.5 113.5 t273.5 32.5zM713 350q98 0 131 74t33 293t-33 292.5t-131 73.5q-100 0 -133 -73.5t-33 -292.5t33 -293t133 -74z" glyph-name="uni01D1" horiz-adv-x="1419" unicode="Ǒ"/><glyph d="M397 1288l-264 408h275l180 -215l180 215h276l-266 -408h-381zM592 1147q305 0 423 -148.5t118 -435.5q0 -330 -138.5 -456.5t-402.5 -126.5q-307 0 -425 148t-118 435q0 330 138.5 457t404.5 127zM592 301q51 0 68.5 52.5t17.5 210t-17.5 209.5t-68.5 52 q-53 0 -71.5 -53t-18.5 -208.5t18.5 -209t71.5 -53.5z" glyph-name="uni01D2" horiz-adv-x="1179" unicode="ǒ"/><glyph d="M473 1595l-264 408h274l181 -215l180 215h276l-266 -408h-381zM778 1434h459v-908q0 -309 -142.5 -427.5t-418.5 -118.5q-170 0 -287 37.5t-179.5 113.5t-89 170t-26.5 225v908h459v-934q0 -90 23.5 -120t91.5 -30q66 0 88 30t22 120v934z" glyph-name="uni01D3" horiz-adv-x="1329" unicode="Ǔ"/><glyph d="M416 1288l-264 408h274l180 -215l180 215h277l-266 -408h-381zM684 1126h440v-1106l-403 -34l-21 129h-18q-70 -135 -279 -135q-184 0 -250.5 95t-66.5 328v723h442v-692q0 -74 15.5 -103.5t60.5 -29.5q41 0 60.5 28.5t19.5 104.5v692z" glyph-name="uni01D4" horiz-adv-x="1222" unicode="ǔ"/><glyph d="M356 2370h619v-287h-619v287zM262 1911h328v-287h-328v287zM748 1911h327v-287h-327v287zM676 -20q-170 0 -287 37.5t-179.5 113.5t-89 170t-26.5 225v908h459v-934q0 -90 23.5 -120t91.5 -30q66 0 88 30t22 120v934h459v-908q0 -309 -142.5 -427.5t-418.5 -118.5z" glyph-name="uni01D5" horiz-adv-x="1329" unicode="Ǖ"/><glyph d="M918 2062v-286h-619v286h619zM532 1604v-287h-327v287h327zM690 1317v287h328v-287h-328zM684 1126h440v-1106l-403 -34l-21 129h-18q-70 -135 -279 -135q-184 0 -250.5 95t-66.5 328v723h442v-692q0 -74 15.5 -103.5t60.5 -29.5q41 0 60.5 28.5t19.5 104.5v692z" glyph-name="uni01D6" horiz-adv-x="1222" unicode="ǖ"/><glyph d="M549 2048l160 408h362l-266 -408h-256zM262 1911h328v-287h-328v287zM748 1911h327v-287h-327v287zM676 -20q-170 0 -287 37.5t-179.5 113.5t-89 170t-26.5 225v908h459v-934q0 -90 23.5 -120t91.5 -30q66 0 88 30t22 120v934h459v-908q0 -309 -142.5 -427.5 t-418.5 -118.5z" glyph-name="uni01D7" horiz-adv-x="1329" unicode="Ǘ"/><glyph d="M1014 2148l-266 -407h-256l159 407h363zM532 1604v-287h-327v287h327zM690 1317v287h328v-287h-328zM684 1126h440v-1106l-403 -34l-21 129h-18q-70 -135 -279 -135q-184 0 -250.5 95t-66.5 328v723h442v-692q0 -74 15.5 -103.5t60.5 -29.5q41 0 60.5 28.5t19.5 104.5 v692z" glyph-name="uni01D8" horiz-adv-x="1222" unicode="ǘ"/><glyph d="M475 2050l-264 408h274l183 -215l180 215h274l-264 -408h-383zM262 1624v287h328v-287h-328zM748 1624v287h327v-287h-327zM778 1434h459v-908q0 -309 -142.5 -427.5t-418.5 -118.5q-170 0 -287 37.5t-179.5 113.5t-89 170t-26.5 225v908h459v-934q0 -90 23.5 -120 t91.5 -30q66 0 88 30t22 120v934z" glyph-name="uni01D9" horiz-adv-x="1329" unicode="Ǚ"/><glyph d="M418 1743l-264 407h274l182 -215l181 215h274l-264 -407h-383zM205 1317v287h327v-287h-327zM690 1317v287h328v-287h-328zM684 1126h440v-1106l-403 -34l-21 129h-18q-70 -135 -279 -135q-184 0 -250.5 95t-66.5 328v723h442v-692q0 -74 15.5 -103.5t60.5 -29.5 q41 0 60.5 28.5t19.5 104.5v692z" glyph-name="uni01DA" horiz-adv-x="1222" unicode="ǚ"/><glyph d="M532 2048l-266 408h363l159 -408h-256zM262 1624v287h328v-287h-328zM748 1624v287h327v-287h-327zM676 -20q-170 0 -287 37.5t-179.5 113.5t-89 170t-26.5 225v908h459v-934q0 -90 23.5 -120t91.5 -30q66 0 88 30t22 120v934h459v-908q0 -309 -142.5 -427.5 t-418.5 -118.5z" glyph-name="uni01DB" horiz-adv-x="1329" unicode="Ǜ"/><glyph d="M731 1741h-256l-266 407h362zM532 1604v-287h-327v287h327zM690 1317v287h328v-287h-328zM684 1126h440v-1106l-403 -34l-21 129h-18q-70 -135 -279 -135q-184 0 -250.5 95t-66.5 328v723h442v-692q0 -74 15.5 -103.5t60.5 -29.5q41 0 60.5 28.5t19.5 104.5v692z" glyph-name="uni01DC" horiz-adv-x="1222" unicode="ǜ"/><glyph d="M1350 1898v-286h-621v286h621zM1350 348h442v-348h-901v297h-318l-108 -297h-465l594 1434h1173v-349h-417v-167h376v-349h-376v-221zM702 645h189v440h-27z" glyph-name="uni01E2" horiz-adv-x="1859" unicode="Ǣ"/><glyph d="M504 1595l-264 408h274l180 -215l180 215h277l-266 -408h-381zM1233 868v-852l-361 -30l-22 135h-16q-98 -141 -302 -141q-258 0 -358 191t-100 560q0 176 28.5 304t79.5 209t136 128t181.5 64.5t231.5 17.5q250 0 393 -43l-32 -373q-145 45 -340 45q-125 0 -166 -73.5 t-41 -294.5q0 -217 31.5 -291t125.5 -74q63 0 97.5 39t34.5 141v11h-117v327h516z" glyph-name="Gcaron" horiz-adv-x="1312" unicode="Ǧ"/><glyph d="M379 1288l-264 408h274l180 -215l181 215h276l-266 -408h-381zM578 291q219 0 348 -44t175 -114t46 -178q0 -193 -149.5 -268.5t-434.5 -75.5q-313 0 -434 63.5t-121 188.5q0 164 180 205v24q-119 61 -118 170q0 96 112 193q-137 86 -137 297q0 223 122 309t357 86 q135 0 224 -21h374l17 -188l-146 -27q31 -53 31 -139q0 -223 -121 -308t-356 -85q-43 0 -109 4l-12 -10q-18 -18 -18 -43q0 -39 65 -39h105zM537 893q-51 0 -68.5 -27.5t-17.5 -103.5q0 -78 17 -103.5t69 -25.5q49 0 65 27.5t16 101.5q0 78 -17 104.5t-64 26.5zM563 -145 q174 0 174 98q0 55 -41 75.5t-135 20.5h-80q-84 -20 -84 -108q0 -86 166 -86z" glyph-name="gcaron" horiz-adv-x="1157" unicode="ǧ"/><glyph d="M498 1595l-265 408h275l180 -215l180 215h277l-266 -408h-381zM842 0l-207 569h-51v-569h-459v1434h459v-516h55l207 516h485l-344 -680l375 -754h-520z" glyph-name="uni01E8" horiz-adv-x="1359" unicode="Ǩ"/><glyph d="M324 1647l-265 407h275l180 -215l180 215h277l-266 -407h-381zM741 0l-145 481h-55v-481h-443v1536h443v-778h71l133 368h476l-273 -495l281 -631h-488z" glyph-name="uni01E9" horiz-adv-x="1234" unicode="ǩ"/><glyph d="M723 1434q168 0 281.5 -50.5t175 -148.5t87 -222t25.5 -296q0 -168 -27.5 -294t-74.5 -206t-120 -129t-157 -68.5t-190 -19.5h-598v1434h598zM1446 1434h911v-387l-520 -670v-29h508v-348h-967v389l520 668v28h-452v349zM672 350q90 0 119.5 74t29.5 293t-29.5 292.5 t-119.5 73.5h-88v-733h88z" glyph-name="uni01F1" horiz-adv-x="2406" unicode="Ǳ"/><glyph d="M723 1434q168 0 281.5 -50.5t175 -148.5t87 -222t25.5 -296q0 -168 -27.5 -294t-74.5 -206t-120 -129t-157 -68.5t-190 -19.5h-598v1434h598zM1829 297h412v-297h-852v340l391 471v18h-357v297h793v-338l-387 -462v-29zM672 350q90 0 119.5 74t29.5 293t-29.5 292.5 t-119.5 73.5h-88v-733h88z" glyph-name="uni01F2" horiz-adv-x="2275" unicode="ǲ"/><glyph d="M668 1067v469h440v-1516l-401 -34l-21 129h-14q-55 -135 -226 -135q-223 0 -310 145t-87 428q0 174 28.5 293t86 183.5t128 91t167.5 26.5q135 0 196 -80h13zM1702 297h412v-297h-852v340l391 471v18h-357v297h793v-338l-387 -462v-29zM502 561q0 -156 17.5 -208 t68.5 -52q49 0 64.5 33t15.5 135v188q0 102 -14.5 135t-63.5 33q-53 0 -70.5 -52t-17.5 -212z" glyph-name="uni01F3" horiz-adv-x="2148" unicode="ǳ"/><glyph d="M1096 2011l-267 -407h-256l160 407h363zM1233 868v-852l-361 -30l-22 135h-16q-98 -141 -302 -141q-258 0 -358 191t-100 560q0 176 28.5 304t79.5 209t136 128t181.5 64.5t231.5 17.5q250 0 393 -43l-32 -373q-145 45 -340 45q-125 0 -166 -73.5t-41 -294.5 q0 -217 31.5 -291t125.5 -74q63 0 97.5 39t34.5 141v11h-117v327h516z" glyph-name="uni01F4" horiz-adv-x="1312" unicode="Ǵ"/><glyph d="M971 1704l-266 -408h-256l159 408h363zM578 291q219 0 348 -44t175 -114t46 -178q0 -193 -149.5 -268.5t-434.5 -75.5q-313 0 -434 63.5t-121 188.5q0 164 180 205v24q-119 61 -118 170q0 96 112 193q-137 86 -137 297q0 223 122 309t357 86q135 0 224 -21h374l17 -188 l-146 -27q31 -53 31 -139q0 -223 -121 -308t-356 -85q-43 0 -109 4l-12 -10q-18 -18 -18 -43q0 -39 65 -39h105zM537 893q-51 0 -68.5 -27.5t-17.5 -103.5q0 -78 17 -103.5t69 -25.5q49 0 65 27.5t16 101.5q0 78 -17 104.5t-64 26.5zM563 -145q174 0 174 98q0 55 -41 75.5 t-135 20.5h-80q-84 -20 -84 -108q0 -86 166 -86z" glyph-name="uni01F5" horiz-adv-x="1157" unicode="ǵ"/><glyph d="M1075 2533l-266 -407h-256l160 407h362zM682 1540q-160 0 -222.5 65.5t-62.5 192.5q0 145 73 201.5t212 56.5q160 0 221.5 -65.5t61.5 -192.5q0 -145 -72 -201.5t-211 -56.5zM682 1907q-57 0 -84 -23.5t-27 -85.5q0 -57 23.5 -83.5t87.5 -26.5q55 0 82 23.5t27 86.5 q0 55 -24 82t-85 27zM907 0l-51 297h-340l-51 -297h-465l348 1434h676l348 -1434h-465zM578 645h217l-76 440h-66z" glyph-name="Aringacute" horiz-adv-x="1370" unicode="Ǻ"/><glyph d="M977 2226l-266 -407h-256l159 407h363zM584 1233q-160 0 -222.5 65.5t-62.5 192.5q0 145 72.5 201.5t212.5 56.5q160 0 221 -65.5t61 -192.5q0 -145 -71.5 -201.5t-210.5 -56.5zM584 1599q-57 0 -84 -23.5t-27 -84.5q0 -57 23.5 -84t87.5 -27q55 0 81.5 23.5t26.5 87.5 q0 55 -23.5 81.5t-84.5 26.5zM698 1147q205 0 279 -95.5t74 -287.5v-744l-402 -34l-20 129h-17q-70 -135 -258 -135q-178 0 -247.5 86t-69.5 239q0 193 100.5 266.5t294.5 73.5h178v37q0 66 -23.5 91.5t-66.5 25.5q-92 0 -313 -56l-62 322q354 82 553 82zM459 356 q0 -117 71 -116q80 0 80 180v55h-55q-41 0 -68.5 -32t-27.5 -87z" glyph-name="aringacute" horiz-adv-x="1132" unicode="ǻ"/><glyph d="M1436 2011l-267 -407h-256l160 407h363zM1350 348h442v-348h-901v297h-318l-108 -297h-465l594 1434h1173v-349h-417v-167h376v-349h-376v-221zM702 645h189v440h-27z" glyph-name="AEacute" horiz-adv-x="1859" unicode="Ǽ"/><glyph d="M1100 2011l-266 -407h-256l159 407h363zM1092 1374q141 -80 198.5 -241.5t57.5 -415.5q0 -217 -41 -363.5t-126 -227.5t-197 -113.5t-271 -32.5q-76 0 -154 10l-35 -92h-258l64 163q-141 80 -197.5 241t-56.5 415q0 217 41 363.5t126 227.5t196.5 113.5t273.5 32.5 q90 0 149 -8l35 90h258zM547 717q0 -61 2 -88l174 454h-10q-100 0 -133 -73.5t-33 -292.5zM713 350q98 0 131 74t33 293q0 63 -3 92l-176 -459h15z" glyph-name="Oslashacute" horiz-adv-x="1419" unicode="Ǿ"/><glyph d="M1022 1704l-266 -408h-256l159 408h363zM920 1075q213 -123 213 -512q0 -330 -137.5 -456.5t-403.5 -126.5q-33 0 -94 4l-45 -119h-263l72 186q-213 123 -213 512q0 330 138.5 457t404.5 127q35 0 92 -4l45 119h262zM592 301q53 0 70.5 53.5t17.5 209t-17.5 208.5 t-70.5 53t-70.5 -52t-17.5 -209.5t17.5 -210t70.5 -52.5z" glyph-name="oslashacute" horiz-adv-x="1179" unicode="ǿ"/><glyph d="M553 1604h-244l-286 407h360zM1016 1604h-244l-285 407h361zM907 0l-51 297h-340l-51 -297h-465l348 1434h676l348 -1434h-465zM578 645h217l-76 440h-66z" glyph-name="uni0200" horiz-adv-x="1370" unicode="Ȁ"/><glyph d="M455 1296h-244l-287 408h361zM918 1296h-244l-285 408h361zM698 1147q205 0 279 -95.5t74 -287.5v-744l-402 -34l-20 129h-17q-70 -135 -258 -135q-178 0 -247.5 86t-69.5 239q0 193 100.5 266.5t294.5 73.5h178v37q0 66 -23.5 91.5t-66.5 25.5q-92 0 -313 -56l-62 322 q354 82 553 82zM459 356q0 -117 71 -116q80 0 80 180v55h-55q-41 0 -68.5 -32t-27.5 -87z" glyph-name="uni0201" horiz-adv-x="1132" unicode="ȁ"/><glyph d="M547 1581v-22h-225v43q0 162 78.5 244.5t283.5 82.5q176 0 267 -71.5t91 -255.5v-43h-225v22q0 72 -32.5 93.5t-102.5 21.5q-74 0 -104.5 -27t-30.5 -88zM907 0l-51 297h-340l-51 -297h-465l348 1434h676l348 -1434h-465zM578 645h217l-76 440h-66z" glyph-name="uni0202" horiz-adv-x="1370" unicode="Ȃ"/><glyph d="M449 1274v-23h-226v43q0 162 79 245t284 83q176 0 267 -71.5t91 -256.5v-43h-225v23q0 72 -33 93.5t-102 21.5q-74 0 -104.5 -27t-30.5 -88zM698 1147q205 0 279 -95.5t74 -287.5v-744l-402 -34l-20 129h-17q-70 -135 -258 -135q-178 0 -247.5 86t-69.5 239 q0 193 100.5 266.5t294.5 73.5h178v37q0 66 -23.5 91.5t-66.5 25.5q-92 0 -313 -56l-62 322q354 82 553 82zM459 356q0 -117 71 -116q80 0 80 180v55h-55q-41 0 -68.5 -32t-27.5 -87z" glyph-name="uni0203" horiz-adv-x="1132" unicode="ȃ"/><glyph d="M432 1604h-244l-286 407h360zM895 1604h-244l-284 407h360zM582 348h442v-348h-901v1434h876v-349h-417v-167h376v-349h-376v-221z" glyph-name="uni0204" horiz-adv-x="1091" unicode="Ȅ"/><glyph d="M428 1296h-244l-286 408h360zM891 1296h-244l-285 408h361zM473 449q8 -86 31.5 -119t79.5 -33q133 0 374 47l52 -295q-248 -70 -437 -69q-250 0 -387 138t-137 460q0 166 37 279.5t109.5 176t161.5 88t210 25.5q150 0 246 -37t147.5 -116t70 -179t18.5 -252 q0 -55 -7 -114h-569zM573 866q-53 0 -75.5 -39t-26.5 -143h186q-4 104 -22.5 143t-61.5 39z" glyph-name="uni0205" horiz-adv-x="1095" unicode="ȅ"/><glyph d="M426 1581v-22h-225v43q0 162 78.5 244.5t283.5 82.5q176 0 267.5 -71.5t91.5 -255.5v-43h-226v22q0 72 -32.5 93.5t-102.5 21.5q-74 0 -104.5 -27t-30.5 -88zM582 348h442v-348h-901v1434h876v-349h-417v-167h376v-349h-376v-221z" glyph-name="uni0206" horiz-adv-x="1091" unicode="Ȇ"/><glyph d="M422 1274v-23h-225v43q0 162 78.5 245t283.5 83q176 0 267.5 -71.5t91.5 -256.5v-43h-226v23q0 72 -32.5 93.5t-102.5 21.5q-74 0 -104.5 -27t-30.5 -88zM473 449q8 -86 31.5 -119t79.5 -33q133 0 374 47l52 -295q-248 -70 -437 -69q-250 0 -387 138t-137 460 q0 166 37 279.5t109.5 176t161.5 88t210 25.5q150 0 246 -37t147.5 -116t70 -179t18.5 -252q0 -55 -7 -114h-569zM573 866q-53 0 -75.5 -39t-26.5 -143h186q-4 104 -22.5 143t-61.5 39z" glyph-name="uni0207" horiz-adv-x="1095" unicode="ȇ"/><glyph d="M-18 1604l-287 407h360l170 -407h-243zM444 1604l-284 407h360l168 -407h-244zM584 1434v-1434h-459v1434h459z" glyph-name="uni0208" horiz-adv-x="704" unicode="Ȉ"/><glyph d="M-57 1296l-287 408h360l170 -408h-243zM406 1296l-285 408h360l168 -408h-243zM535 1126v-1126h-441v1126h441z" glyph-name="uni0209" horiz-adv-x="628" unicode="ȉ"/><glyph d="M-6 1559v43q0 162 79 244.5t283 82.5q176 0 267.5 -71.5t91.5 -255.5v-43h-226v22q0 72 -32.5 93.5t-102.5 21.5q-74 0 -104.5 -27t-30.5 -88v-22h-225zM584 1434v-1434h-459v1434h459z" glyph-name="uni020A" horiz-adv-x="704" unicode="Ȋ"/><glyph d="M-45 1251v43q0 162 79 245t283 83q176 0 267.5 -71.5t91.5 -256.5v-43h-225v23q0 72 -33 93.5t-103 21.5q-74 0 -104.5 -27t-30.5 -88v-23h-225zM535 1126v-1126h-441v1126h441z" glyph-name="uni020B" horiz-adv-x="628" unicode="ȋ"/><glyph d="M338 1604l-287 407h361l170 -407h-244zM801 1604l-285 407h361l167 -407h-243zM713 -20q-186 0 -312.5 47t-197 146t-99 228t-28.5 316q0 217 41 363.5t126 227.5t196.5 113.5t273.5 32.5q188 0 314 -47t195.5 -146.5t97.5 -228.5t28 -315q0 -217 -41 -363.5t-126 -227.5 t-196.5 -113.5t-271.5 -32.5zM713 350q98 0 131 74t33 293t-33 292.5t-131 73.5q-100 0 -133 -73.5t-33 -292.5t33 -293t133 -74z" glyph-name="uni020C" horiz-adv-x="1419" unicode="Ȍ"/><glyph d="M219 1296l-287 408h361l170 -408h-244zM682 1296l-285 408h361l168 -408h-244zM592 -20q-307 0 -425 148t-118 435q0 330 138.5 457t404.5 127q305 0 423 -148.5t118 -435.5q0 -330 -138.5 -456.5t-402.5 -126.5zM592 301q51 0 68.5 52.5t17.5 210t-17.5 209.5t-68.5 52 q-53 0 -71.5 -53t-18.5 -208.5t18.5 -209t71.5 -53.5z" glyph-name="uni020D" horiz-adv-x="1179" unicode="ȍ"/><glyph d="M350 1559v43q0 162 79 244.5t284 82.5q176 0 267 -71.5t91 -255.5v-43h-225v22q0 72 -33 93.5t-102 21.5q-74 0 -105 -27t-31 -88v-22h-225zM713 -20q-186 0 -312.5 47t-197 146t-99 228t-28.5 316q0 217 41 363.5t126 227.5t196.5 113.5t273.5 32.5q188 0 314 -47 t195.5 -146.5t97.5 -228.5t28 -315q0 -217 -41 -363.5t-126 -227.5t-196.5 -113.5t-271.5 -32.5zM713 350q98 0 131 74t33 293t-33 292.5t-131 73.5q-100 0 -133 -73.5t-33 -292.5t33 -293t133 -74z" glyph-name="uni020E" horiz-adv-x="1419" unicode="Ȏ"/><glyph d="M231 1251v43q0 162 79 245t284 83q176 0 267 -71.5t91 -256.5v-43h-225v23q0 72 -32.5 93.5t-102.5 21.5q-74 0 -104.5 -27t-30.5 -88v-23h-226zM592 -20q-307 0 -425 148t-118 435q0 330 138.5 457t404.5 127q305 0 423 -148.5t118 -435.5q0 -330 -138.5 -456.5 t-402.5 -126.5zM592 301q51 0 68.5 52.5t17.5 210t-17.5 209.5t-68.5 52q-53 0 -71.5 -53t-18.5 -208.5t18.5 -209t71.5 -53.5z" glyph-name="uni020F" horiz-adv-x="1179" unicode="ȏ"/><glyph d="M532 1604h-243l-287 407h360zM995 1604h-243l-285 407h360zM840 0l-189 502h-67v-502h-459v1434h506q227 0 354 -51.5t174 -145.5t47 -256q0 -240 -176 -373l293 -608h-483zM621 1120h-37v-340h37q84 0 112.5 34t28.5 134q0 102 -28.5 137t-112.5 35z" glyph-name="uni0210" horiz-adv-x="1320" unicode="Ȑ"/><glyph d="M119 1704l170 -408h-244l-287 408h361zM752 1296h-244l-285 408h361zM821 1147q31 0 41 -2l-35 -385q-55 27 -147 26q-86 0 -112.5 -44t-26.5 -179v-563h-443v1106l406 35l24 -156h21q65 162 272 162z" glyph-name="uni0211" horiz-adv-x="868" unicode="ȑ"/><glyph d="M526 1581v-22h-225v43q0 162 79 244.5t284 82.5q176 0 267 -71.5t91 -255.5v-43h-225v22q0 72 -33 93.5t-102 21.5q-74 0 -105 -27t-31 -88zM840 0l-189 502h-67v-502h-459v1434h506q227 0 354 -51.5t174 -145.5t47 -256q0 -240 -176 -373l293 -608h-483zM621 1120h-37 v-340h37q84 0 112.5 34t28.5 134q0 102 -28.5 137t-112.5 35z" glyph-name="uni0212" horiz-adv-x="1320" unicode="Ȓ"/><glyph d="M283 1274v-23h-226v43q0 162 79 245t284 83q176 0 267 -71.5t91 -256.5v-43h-225v23q0 72 -33 93.5t-102 21.5q-74 0 -104.5 -27t-30.5 -88zM821 1147q31 0 41 -2l-35 -385q-55 27 -147 26q-86 0 -112.5 -44t-26.5 -179v-563h-443v1106l406 35l24 -156h21q65 162 272 162 z" glyph-name="uni0213" horiz-adv-x="868" unicode="ȓ"/><glyph d="M295 1604l-287 407h361l170 -407h-244zM758 1604l-285 407h361l167 -407h-243zM676 -20q-170 0 -287 37.5t-179.5 113.5t-89 170t-26.5 225v908h459v-934q0 -90 23.5 -120t91.5 -30q66 0 88 30t22 120v934h459v-908q0 -309 -142.5 -427.5t-418.5 -118.5z" glyph-name="uni0214" horiz-adv-x="1329" unicode="Ȕ"/><glyph d="M481 1296h-243l-287 408h360zM944 1296h-244l-284 408h360zM684 1126h440v-1106l-403 -34l-21 129h-18q-70 -135 -279 -135q-184 0 -250.5 95t-66.5 328v723h442v-692q0 -74 15.5 -103.5t60.5 -29.5q41 0 60.5 28.5t19.5 104.5v692z" glyph-name="uni0215" horiz-adv-x="1222" unicode="ȕ"/><glyph d="M307 1559v43q0 162 79 244.5t284 82.5q176 0 267 -71.5t91 -255.5v-43h-225v22q0 72 -33 93.5t-102 21.5q-74 0 -105 -27t-31 -88v-22h-225zM676 -20q-170 0 -287 37.5t-179.5 113.5t-89 170t-26.5 225v908h459v-934q0 -90 23.5 -120t91.5 -30q66 0 88 30t22 120v934h459 v-908q0 -309 -142.5 -427.5t-418.5 -118.5z" glyph-name="uni0216" horiz-adv-x="1329" unicode="Ȗ"/><glyph d="M475 1274v-23h-225v43q0 162 79 245t283 83q176 0 267.5 -71.5t91.5 -256.5v-43h-226v23q0 72 -32.5 93.5t-102.5 21.5q-74 0 -104.5 -27t-30.5 -88zM684 1126h440v-1106l-403 -34l-21 129h-18q-70 -135 -279 -135q-184 0 -250.5 95t-66.5 328v723h442v-692 q0 -74 15.5 -103.5t60.5 -29.5q41 0 60.5 28.5t19.5 104.5v692z" glyph-name="uni0217" horiz-adv-x="1222" unicode="ȗ"/><glyph d="M739 772q197 -184 197 -364q0 -242 -131 -335t-385 -93q-162 0 -395 40l30 347q238 -33 303 -33q106 0 107 80q0 57 -45 98l-187 176q-182 172 -182 363q0 227 130 315t384 88q129 0 342 -33l-28 -338q-111 18 -240 19q-70 0 -93.5 -15.5t-23.5 -62.5q0 -49 41 -84z M305 -432v287h328v-287l-125 -334h-170l123 334h-156z" glyph-name="Scommaaccent" horiz-adv-x="970" unicode="Ș"/><glyph d="M692 631q88 -63 129 -128t41 -167q0 -201 -110.5 -278.5t-321.5 -77.5q-176 0 -387 36l27 310q137 -25 231 -25q49 0 63.5 10.5t14.5 42.5q0 29 -31 49l-180 123q-125 84 -125 278.5t100.5 268.5t296.5 74q150 0 389 -39l-26 -311q-150 29 -234 28q-31 0 -41 -9t-10 -34 q0 -29 23 -45zM287 -432v287h327v-287l-125 -334h-170l123 334h-155z" glyph-name="scommaaccent" horiz-adv-x="884" unicode="ș"/><glyph d="M1020 1434v-349h-270v-1085h-459v1085h-275v349h1004zM354 -432v287h328v-287l-125 -334h-170l123 334h-156z" glyph-name="uni021A" horiz-adv-x="1036" unicode="Ț"/><glyph d="M752 850h-164v-444q0 -63 12 -84t51 -21q33 0 56 6l24 -307q-100 -20 -254 -20q-184 0 -255.5 82.5t-71.5 244.5v543h-138v276h138v273h438v-273h164v-276zM258 -432v287h328v-287l-125 -334h-170l123 334h-156z" glyph-name="uni021B" horiz-adv-x="798" unicode="ț"/><glyph d="M526 1595l-264 408h275l180 -215l180 215h277l-267 -408h-381zM858 1434h459v-1434h-459v569h-274v-569h-459v1434h459v-516h274v516z" glyph-name="uni021E" horiz-adv-x="1439" unicode="Ȟ"/><glyph d="M324 1647l-265 407h275l180 -215l180 215h277l-266 -407h-381zM834 1147q195 0 264 -95.5t69 -328.5v-723h-440v692q0 74 -19.5 103.5t-72.5 29.5q-49 0 -71.5 -28.5t-22.5 -104.5v-692h-443v1536h443v-496h18q76 107 275 107z" glyph-name="uni021F" horiz-adv-x="1251" unicode="ȟ"/><glyph d="M961 1898v-286h-621v286h621zM1300 1434l-428 -990v-444h-458v477l-414 957h465l174 -582h23l176 582h462z" glyph-name="uni0232" horiz-adv-x="1298" unicode="Ȳ"/><glyph d="M874 1591v-286h-620v286h620zM664 1126h460l-254 -1126q-49 -223 -173 -306t-318 -83q-127 0 -277 35l25 291q141 -20 240 -21q92 0 127.5 28.5t46.5 121.5l2 20h-316l-227 1040h461l82 -739h35z" glyph-name="uni0233" horiz-adv-x="1122" unicode="ȳ"/><glyph d="M133 -389q-158 0 -274 24l24 291q33 -8 86.5 -8t71.5 31t18 121v1056h441v-1153q0 -205 -93.5 -283.5t-273.5 -78.5z" glyph-name="uni0237" horiz-adv-x="591" unicode="ȷ"/><glyph d="M936 1288h-277l-180 215l-180 -215h-274l264 408h381z" glyph-name="circumflex" horiz-adv-x="958" unicode="ˆ"/><glyph d="M659 1696h277l-266 -408h-381l-264 408h274l180 -215z" glyph-name="caron" horiz-adv-x="958" unicode="ˇ"/><glyph d="M414 1251q-205 0 -284 83t-79 245v43h225v-25q0 -61 31 -86.5t105 -25.5q70 0 102.5 21.5t32.5 90.5v25h225v-43q0 -184 -91 -256t-267 -72z" glyph-name="breve" horiz-adv-x="821" unicode="˘"/><glyph d="M98 1604h328v-287h-328v287z" glyph-name="dotaccent" horiz-adv-x="524" unicode="˙"/><glyph d="M342 1233q-160 0 -222.5 65.5t-62.5 192.5q0 145 73 201.5t212 56.5q160 0 221.5 -65.5t61.5 -192.5q0 -145 -72 -201.5t-211 -56.5zM342 1380q55 0 82 23.5t27 87.5q0 55 -24 81.5t-85 26.5q-57 0 -84 -23.5t-27 -84.5q0 -57 24 -84t87 -27z" glyph-name="ring" horiz-adv-x="679" unicode="˚"/><glyph d="M539 -496q-59 -8 -129 -8q-365 0 -365 271q0 145 156 268l231 -31q-104 -76 -104 -158q0 -68 52 -96.5t120 -28.5z" glyph-name="ogonek" horiz-adv-x="563" unicode="˛"/><glyph d="M573 1270q-90 0 -153 49l-68 49q-29 20 -59 21q-61 0 -76 -97h-168q0 150 67.5 240t182.5 90q80 0 160 -53l65 -43q37 -25 62 -25q51 0 69 96h166q0 -160 -65.5 -243.5t-182.5 -83.5z" glyph-name="tilde" horiz-adv-x="866" unicode="˜"/><glyph d="M37 1296l170 408h360l-286 -408h-244zM502 1296l168 408h360l-285 -408h-243z" glyph-name="hungarumlaut" horiz-adv-x="1064" unicode="˝"/><glyph d="M-293 1296l-266 408h362l160 -408h-256z" glyph-name="gravecomb" unicode="̀"/><glyph d="M-559 1296l160 408h362l-266 -408h-256z" glyph-name="acutecomb" unicode="́"/><glyph d="M-25 1288h-276l-180 215l-181 -215h-274l264 408h381z" glyph-name="uni0302" unicode="̂"/><glyph d="M-299 1270q-90 0 -154 49l-67 49q-29 20 -60 21q-61 0 -75 -97h-168q0 150 67.5 240t182.5 90q80 0 159 -53l66 -43q37 -25 61 -25q51 0 70 96h166q0 -160 -65.5 -243.5t-182.5 -83.5z" glyph-name="tildecomb" unicode="̃"/><glyph d="M-719 1591h621v-286h-621v286z" glyph-name="uni0304" unicode="̄"/><glyph d="M-410 1251q-205 0 -283.5 83t-78.5 245v43h225v-25q0 -61 31 -86.5t104 -25.5q70 0 103 21.5t33 90.5v25h225v-43q0 -184 -91.5 -256t-267.5 -72z" glyph-name="uni0306" unicode="̆"/><glyph d="M-428 1604h328v-287h-328v287z" glyph-name="uni0307" unicode="̇"/><glyph d="M-911 1604h327v-287h-327v287zM-426 1604h328v-287h-328v287z" glyph-name="uni0308" unicode="̈"/><glyph d="M-399 1274q0 84 10 120t43 60l39 29q43 33 43 57q0 20 -13.5 26.5t-56.5 6.5q-53 0 -115 -6l-14 157q106 14 191 15q135 0 184 -39t49 -127t-57 -133l-78 -66q-47 -39 -47 -100h-178z" glyph-name="hookabovecomb" unicode="̉"/><glyph d="M-340 1233q-160 0 -222.5 65.5t-62.5 192.5q0 145 73 201.5t212 56.5q160 0 221.5 -65.5t61.5 -192.5q0 -145 -72 -201.5t-211 -56.5zM-340 1380q55 0 82 23.5t27 87.5q0 55 -24 81.5t-85 26.5q-57 0 -84 -23.5t-27 -84.5q0 -57 24 -84t87 -27z" glyph-name="uni030A" unicode="̊"/><glyph d="M-1030 1296l170 408h360l-286 -408h-244zM-565 1296l168 408h360l-285 -408h-243z" glyph-name="uni030B" unicode="̋"/><glyph d="M-301 1696h276l-266 -408h-381l-264 408h274l181 -215z" glyph-name="uni030C" unicode="̌"/><glyph d="M-741 1296l-287 408h360l170 -408h-243zM-279 1296l-284 408h360l168 -408h-244z" glyph-name="uni030F" unicode="̏"/><glyph d="M-770 1251v43q0 162 79 245t283 83q176 0 267.5 -71.5t91.5 -256.5v-43h-225v23q0 72 -33 93.5t-103 21.5q-74 0 -104.5 -27t-30.5 -88v-23h-225z" glyph-name="uni0311" unicode="̑"/><glyph d="M-291 1604h156v-287h-328v287l125 331h170z" glyph-name="uni0312" unicode="̒"/><glyph d="M-428 1163v189q88 0 120 25.5t32 88.5v228h225v-228q0 -178 -84 -240.5t-293 -62.5z" glyph-name="uni031B" unicode="̛"/><glyph d="M-426 -145h328v-287h-328v287z" glyph-name="dotbelowcomb" unicode="̣"/><glyph d="M-469 -145h328v-287l-125 -334h-170l123 334h-156v287z" glyph-name="uni0326" unicode="̦"/><glyph d="M-242 -86q217 -12 217 -197q0 -117 -71.5 -173t-182.5 -56q-106 0 -233 41l12 141q55 -23 109 -22q80 0 80 71q0 57 -66 58h-90l55 295h215z" glyph-name="uni0327" unicode="̧"/><glyph d="M-27 -496q-59 -8 -129 -8q-365 0 -364 271q0 145 155 268l232 -31q-104 -76 -105 -158q0 -68 52.5 -96.5t119.5 -28.5z" glyph-name="uni0328" unicode="̨"/><glyph d="M-860 719h774v-287h-774v287z" glyph-name="uni0335" unicode="̵"/><glyph d="M-1169 788h1069v-307h-1069v307z" glyph-name="uni0336" unicode="̶"/><glyph d="M-764 -102l514 1331h277l-514 -1331h-277z" glyph-name="uni0337" unicode="̷"/><glyph d="M-883 -102l633 1638h277l-633 -1638h-277z" glyph-name="uni0338" unicode="̸"/><glyph d="M825 1911v-287h-327v287h327zM1042 743q115 -35 165 -115.5t50 -226.5q0 -227 -132 -314t-388 -87h-612v1434h577q295 0 408 -87t113 -255q0 -256 -181 -332v-17zM629 1126h-45v-272h45q90 0 120.5 27.5t30.5 111.5q0 80 -30.5 106.5t-120.5 26.5zM635 326q94 0 128 28.5 t34 102.5q0 82 -36 111.5t-126 29.5h-51v-272h51z" glyph-name="uni1E02" horiz-adv-x="1323" unicode="Ḃ"/><glyph d="M963 1604v-287h-328v287h328zM750 1147q96 0 166.5 -26.5t128 -91t86 -183.5t28.5 -293q0 -283 -87 -428t-310 -145q-170 0 -225 135h-15l-22 -129l-402 34v1516h443v-469h12q62 80 197 80zM620.5 301q51.5 0 68 51t16.5 209q0 160 -16.5 212t-70.5 52q-49 0 -63 -32.5 t-14 -135.5v-188q0 -102 14 -135t65.5 -33z" glyph-name="uni1E03" horiz-adv-x="1206" unicode="ḃ"/><glyph d="M719 1911v-287h-328v287h328zM975 1085h-393v-208h356v-349h-356v-528h-459v1434h852v-349z" glyph-name="uni1E1E" horiz-adv-x="1028" unicode="Ḟ"/><glyph d="M678 1911v-287h-328v287h328zM713 1245q-55 0 -79 -25.5t-28 -93.5h182v-276h-184v-850h-440v850h-152v276h152v27q0 223 103.5 309t303.5 86q164 0 265 -22l-27 -291q-35 10 -96 10z" glyph-name="uni1E1F" horiz-adv-x="808" unicode="ḟ"/><glyph d="M1034 1911v-287h-327v287h327zM1618 1434v-1434h-412v856h-8l-158 -522h-338l-157 522h-8v-856h-412v1434h534l207 -637h11l206 637h535z" glyph-name="uni1E40" horiz-adv-x="1738" unicode="Ṁ"/><glyph d="M1075 1604v-287h-327v287h327zM1417 1147q184 0 251 -95.5t67 -328.5v-723h-441v692q0 74 -16 103.5t-61 29.5q-41 0 -60.5 -28.5t-19.5 -104.5v-692h-441v692q0 74 -16 103.5t-59 29.5q-41 0 -60.5 -28.5t-19.5 -104.5v-692h-443v1106l404 35l22 -131h15q74 137 282 137 q217 0 279 -148h16q80 148 301 148z" glyph-name="uni1E41" horiz-adv-x="1820" unicode="ṁ"/><glyph d="M803 1911v-287h-328v287h328zM672 1434q315 0 436 -120t121 -353q0 -164 -39 -271.5t-119 -163t-173 -76t-226 -20.5h-88v-430h-459v1434h547zM627 745q88 0 119.5 44.5t31.5 154.5q0 102 -33.5 138t-117.5 36h-43v-373h43z" glyph-name="uni1E56" horiz-adv-x="1269" unicode="Ṗ"/><glyph d="M768 1604v-287h-328v287h328zM762 1147q119 0 198.5 -40t122.5 -120t59.5 -177t16.5 -237q0 -174 -28.5 -292.5t-86 -183t-128 -91t-166.5 -26.5q-133 0 -193 75h-16v-424h-443v1475l402 35l20 -117h23q55 123 219 123zM618 301q53 0 70 52.5t17 211.5q0 158 -16.5 209 t-68 51t-65.5 -32.5t-14 -135.5v-188q0 -102 14 -135t63 -33z" glyph-name="uni1E57" horiz-adv-x="1206" unicode="ṗ"/><glyph d="M317 1911h328v-287h-328v287zM420 -20q-162 0 -395 40l30 347q238 -33 303 -33q106 0 107 80q0 57 -45 98l-187 176q-182 172 -182 363q0 227 130 315t384 88q129 0 342 -33l-28 -338q-111 18 -240 19q-70 0 -93.5 -15.5t-23.5 -62.5q0 -49 41 -84l176 -168 q197 -184 197 -364q0 -242 -131 -335t-385 -93z" glyph-name="uni1E60" horiz-adv-x="970" unicode="Ṡ"/><glyph d="M283 1604h327v-287h-327v287zM430 -20q-176 0 -387 36l27 310q137 -25 231 -25q49 0 63.5 10.5t14.5 42.5q0 29 -31 49l-180 123q-125 84 -125 278.5t100.5 268.5t296.5 74q150 0 389 -39l-26 -311q-150 29 -234 28q-31 0 -41 -9t-10 -34q0 -29 23 -45l151 -106 q88 -63 129 -128t41 -167q0 -201 -110.5 -278.5t-321.5 -77.5z" glyph-name="uni1E61" horiz-adv-x="884" unicode="ṡ"/><glyph d="M682 1911v-287h-328v287h328zM1020 1434v-349h-270v-1085h-459v1085h-275v349h1004z" glyph-name="uni1E6A" horiz-adv-x="1036" unicode="Ṫ"/><glyph d="M532 1767v-286h-327v286h327zM752 850h-164v-444q0 -63 12 -84t51 -21q33 0 56 6l24 -307q-100 -20 -254 -20q-184 0 -255.5 82.5t-71.5 244.5v543h-138v276h138v273h438v-273h164v-276z" glyph-name="uni1E6B" horiz-adv-x="798" unicode="ṫ"/><glyph d="M1057 1604h-256l-266 407h362zM1421 1434h465l-217 -1434h-577l-138 1085h-24l-135 -1085h-580l-215 1434h465l90 -1086h25l116 1086h494l117 -1086h24z" glyph-name="Wgrave" horiz-adv-x="1884" unicode="Ẁ"/><glyph d="M1055 1296h-256l-267 408h363zM1407 1126h463l-189 -1126h-626l-107 825h-28l-107 -825h-625l-188 1126h461l55 -825h33l108 825h553l109 -825h35z" glyph-name="wgrave" horiz-adv-x="1867" unicode="ẁ"/><glyph d="M1339 2011l-266 -407h-256l160 407h362zM1421 1434h465l-217 -1434h-577l-138 1085h-24l-135 -1085h-580l-215 1434h465l90 -1086h25l116 1086h494l117 -1086h24z" glyph-name="Wacute" horiz-adv-x="1884" unicode="Ẃ"/><glyph d="M1337 1704l-266 -408h-256l160 408h362zM1407 1126h463l-189 -1126h-626l-107 825h-28l-107 -825h-625l-188 1126h461l55 -825h33l108 825h553l109 -825h35z" glyph-name="wacute" horiz-adv-x="1867" unicode="ẃ"/><glyph d="M864 1911v-287h-327v287h327zM1350 1911v-287h-328v287h328zM1421 1434h465l-217 -1434h-577l-138 1085h-24l-135 -1085h-580l-215 1434h465l90 -1086h25l116 1086h494l117 -1086h24z" glyph-name="Wdieresis" horiz-adv-x="1884" unicode="Ẅ"/><glyph d="M862 1604v-287h-327v287h327zM1348 1604v-287h-328v287h328zM1407 1126h463l-189 -1126h-626l-107 825h-28l-107 -825h-625l-188 1126h461l55 -825h33l108 825h553l109 -825h35z" glyph-name="wdieresis" horiz-adv-x="1867" unicode="ẅ"/><glyph d="M1247 772q193 -180 193 -364q0 -240 -124 -334t-349 -94q-139 0 -215 16l30 348q49 -10 111 -10q96 0 96 76q0 59 -51 98l-158 123v223l115 223q-41 16 -109 17q-70 0 -96 -19.5t-26 -81.5v-993h-459v1049q0 231 128 318t462 87q289 0 495 -80v-321l-94 -189v-45z" glyph-name="uni1E9E" horiz-adv-x="1474" unicode="ẞ"/><glyph d="M1372 0h-465l-51 297h-340l-51 -297h-465l348 1434h676zM578 645h217l-76 440h-66zM518 -432v287h328v-287h-328z" glyph-name="uni1EA0" horiz-adv-x="1370" unicode="Ạ"/><glyph d="M698 1147q205 0 279 -95.5t74 -287.5v-744l-402 -34l-20 129h-17q-70 -135 -258 -135q-178 0 -247.5 86t-69.5 239q0 193 100.5 266.5t294.5 73.5h178v37q0 66 -23.5 91.5t-66.5 25.5q-92 0 -313 -56l-62 322q354 82 553 82zM459 356q0 -117 71 -116q80 0 80 180v55h-55 q-41 0 -68.5 -32t-27.5 -87zM422 -432v287h328v-287h-328z" glyph-name="uni1EA1" horiz-adv-x="1132" unicode="ạ"/><glyph d="M655 1907q-53 0 -114 -6l-15 157q106 14 191 15q135 0 184 -39t49 -127t-57 -133l-78 -66q-47 -39 -47 -100h-178q0 84 10 119.5t43 60.5l39 29q43 33 43 57q0 20 -13.5 26.5t-56.5 6.5zM907 0l-51 297h-340l-51 -297h-465l348 1434h676l348 -1434h-465zM578 645h217 l-76 440h-66z" glyph-name="uni1EA2" horiz-adv-x="1370" unicode="Ả"/><glyph d="M557 1599q-53 0 -115 -6l-14 158q109 14 190 14q135 0 184.5 -38.5t49.5 -127t-57 -133.5l-78 -65q-47 -39 -47 -101h-178q0 84 10 120t43 61l39 28q43 33 43 58q0 20 -13.5 26t-56.5 6zM698 1147q205 0 279 -95.5t74 -287.5v-744l-402 -34l-20 129h-17 q-70 -135 -258 -135q-178 0 -247.5 86t-69.5 239q0 193 100.5 266.5t294.5 73.5h178v37q0 66 -23.5 91.5t-66.5 25.5q-92 0 -313 -56l-62 322q354 82 553 82zM459 356q0 -117 71 -116q80 0 80 180v55h-55q-41 0 -68.5 -32t-27.5 -87z" glyph-name="uni1EA3" horiz-adv-x="1132" unicode="ả"/><glyph d="M1563 2251l-265 -408h-256l158 408h363zM682 1810l-180 -215h-275l265 408h380l267 -408h-277zM1024 1434l348 -1434h-465l-51 297h-340l-51 -297h-465l348 1434h676zM578 645h217l-76 440h-66z" glyph-name="uni1EA4" horiz-adv-x="1370" unicode="Ấ"/><glyph d="M1102 1944h362l-264 -408h-256zM584 1503l-181 -215h-274l264 408h381l266 -408h-276zM698 1147q205 0 279 -95.5t74 -287.5v-744l-402 -34l-20 129h-17q-70 -135 -258 -135q-178 0 -247.5 86t-69.5 239q0 193 100.5 266.5t294.5 73.5h178v37q0 66 -23.5 91.5t-66.5 25.5 q-92 0 -313 -56l-62 322q354 82 553 82zM459 356q0 -117 71 -116q80 0 80 180v55h-55q-41 0 -68.5 -32t-27.5 -87z" glyph-name="uni1EA5" horiz-adv-x="1132" unicode="ấ"/><glyph d="M1358 1843h-256l-264 408h362zM682 1810l-180 -215h-275l265 408h380l267 -408h-277zM907 0l-51 297h-340l-51 -297h-465l348 1434h676l348 -1434h-465zM578 645h217l-76 440h-66z" glyph-name="uni1EA6" horiz-adv-x="1370" unicode="Ầ"/><glyph d="M1260 1536h-256l-265 408h363zM584 1503l-181 -215h-274l264 408h381l266 -408h-276zM698 1147q205 0 279 -95.5t74 -287.5v-744l-402 -34l-20 129h-17q-70 -135 -258 -135q-178 0 -247.5 86t-69.5 239q0 193 100.5 266.5t294.5 73.5h178v37q0 66 -23.5 91.5t-66.5 25.5 q-92 0 -313 -56l-62 322q354 82 553 82zM459 356q0 -117 71 -116q80 0 80 180v55h-55q-41 0 -68.5 -32t-27.5 -87z" glyph-name="uni1EA7" horiz-adv-x="1132" unicode="ầ"/><glyph d="M1112 2140q-33 0 -115 -4l-14 156q123 16 191 16q135 0 184 -39t49 -129q0 -86 -57 -131l-78 -65q-47 -39 -47 -101h-178q0 84 10 120t43 60l39 27q43 33 43 57q0 20 -13.5 26.5t-56.5 6.5zM682 1810l-180 -215h-275l265 408h380l267 -408h-277zM1024 1434l348 -1434 h-465l-51 297h-340l-51 -297h-465l348 1434h676zM578 645h217l-76 440h-66z" glyph-name="uni1EA8" horiz-adv-x="1370" unicode="Ẩ"/><glyph d="M1075 2001q135 0 184.5 -39t49.5 -129q0 -86 -58 -131l-77 -66q-47 -39 -48 -100h-178q0 84 10.5 120t42.5 60l39 27q43 33 43 57q0 20 -13 26.5t-56 6.5q-33 0 -115 -4l-14 156q122 16 190 16zM584 1503l-181 -215h-274l264 408h381l266 -408h-276zM698 1147 q205 0 279 -95.5t74 -287.5v-744l-402 -34l-20 129h-17q-70 -135 -258 -135q-178 0 -247.5 86t-69.5 239q0 193 100.5 266.5t294.5 73.5h178v37q0 66 -23.5 91.5t-66.5 25.5q-92 0 -313 -56l-62 322q354 82 553 82zM459 356q0 -117 71 -116q80 0 80 180v55h-55 q-41 0 -68.5 -32t-27.5 -87z" glyph-name="uni1EA9" horiz-adv-x="1132" unicode="ẩ"/><glyph d="M537 2187q-59 0 -76 -96h-168q0 150 67.5 240t182.5 90q74 0 159 -54l66 -43q37 -25 61 -24q51 0 70 96h166q2 -160 -63.5 -244t-184.5 -84q-90 0 -153 50l-68 49q-28 20 -59 20zM682 1810l-180 -215h-275l265 408h380l267 -408h-277zM907 0l-51 297h-340l-51 -297h-465 l348 1434h676l348 -1434h-465zM578 645h217l-76 440h-66z" glyph-name="uni1EAA" horiz-adv-x="1370" unicode="Ẫ"/><glyph d="M438 1880q-59 0 -76 -96h-167q0 150 67.5 240t181.5 90q74 0 160 -54l66 -43q37 -25 61 -24q51 0 70 96h166q2 -160 -63.5 -244t-184.5 -84q-90 0 -154 49l-67 50q-29 20 -60 20zM584 1503l-181 -215h-274l264 408h381l266 -408h-276zM698 1147q205 0 279 -95.5 t74 -287.5v-744l-402 -34l-20 129h-17q-70 -135 -258 -135q-178 0 -247.5 86t-69.5 239q0 193 100.5 266.5t294.5 73.5h178v37q0 66 -23.5 91.5t-66.5 25.5q-92 0 -313 -56l-62 322q354 82 553 82zM459 356q0 -117 71 -116q80 0 80 180v55h-55q-41 0 -68.5 -32t-27.5 -87z " glyph-name="uni1EAB" horiz-adv-x="1132" unicode="ẫ"/><glyph d="M682 1810l-180 -215h-275l265 408h380l267 -408h-277zM1372 0h-465l-51 297h-340l-51 -297h-465l348 1434h676zM578 645h217l-76 440h-66zM518 -432v287h328v-287h-328z" glyph-name="uni1EAC" horiz-adv-x="1370" unicode="Ậ"/><glyph d="M584 1503l-181 -215h-274l264 408h381l266 -408h-276zM698 1147q205 0 279 -95.5t74 -287.5v-744l-402 -34l-20 129h-17q-70 -135 -258 -135q-178 0 -247.5 86t-69.5 239q0 193 100.5 266.5t294.5 73.5h178v37q0 66 -23.5 91.5t-66.5 25.5q-92 0 -313 -56l-62 322 q354 82 553 82zM459 356q0 -117 71 -116q80 0 80 180v55h-55q-41 0 -68.5 -32t-27.5 -87zM422 -432v287h328v-287h-328z" glyph-name="uni1EAD" horiz-adv-x="1132" unicode="ậ"/><glyph d="M1073 2396l-266 -407h-254l158 407h362zM684 1559q-205 0 -283.5 82.5t-78.5 244.5v43h225v-24q0 -61 30.5 -87t104.5 -26q70 0 102.5 21.5t32.5 91.5v24h225v-43q0 -184 -91 -255.5t-267 -71.5zM907 0l-51 297h-340l-51 -297h-465l348 1434h676l348 -1434h-465zM578 645 h217l-76 440h-66z" glyph-name="uni1EAE" horiz-adv-x="1370" unicode="Ắ"/><glyph d="M975 2089l-266 -408h-254l157 408h363zM586 1251q-205 0 -284 83t-79 245v43h226v-25q0 -61 30.5 -86.5t104.5 -25.5q70 0 102.5 21.5t32.5 90.5v25h225v-43q0 -184 -91 -256t-267 -72zM698 1147q205 0 279 -95.5t74 -287.5v-744l-402 -34l-20 129h-17 q-70 -135 -258 -135q-178 0 -247.5 86t-69.5 239q0 193 100.5 266.5t294.5 73.5h178v37q0 66 -23.5 91.5t-66.5 25.5q-92 0 -313 -56l-62 322q354 82 553 82zM459 356q0 -117 71 -116q80 0 80 180v55h-55q-41 0 -68.5 -32t-27.5 -87z" glyph-name="uni1EAF" horiz-adv-x="1132" unicode="ắ"/><glyph d="M813 1991h-256l-266 407h362zM682 1792q70 0 102.5 21.5t32.5 91.5v24h225v-43q0 -184 -91 -255.5t-267 -71.5q-205 0 -283.5 82.5t-78.5 244.5v43h225v-24q0 -61 30.5 -87t104.5 -26zM907 0l-51 297h-340l-51 -297h-465l348 1434h676l348 -1434h-465zM578 645h217 l-76 440h-66z" glyph-name="uni1EB0" horiz-adv-x="1370" unicode="Ằ"/><glyph d="M715 1683h-256l-266 408h362zM584 1485q70 0 102.5 21.5t32.5 90.5v25h225v-43q0 -184 -91 -256t-267 -72q-205 0 -284 83t-79 245v43h226v-25q0 -61 30.5 -86.5t104.5 -25.5zM698 1147q205 0 279 -95.5t74 -287.5v-744l-402 -34l-20 129h-17q-70 -135 -258 -135 q-178 0 -247.5 86t-69.5 239q0 193 100.5 266.5t294.5 73.5h178v37q0 66 -23.5 91.5t-66.5 25.5q-92 0 -313 -56l-62 322q354 82 553 82zM459 356q0 -117 71 -116q80 0 80 180v55h-55q-41 0 -68.5 -32t-27.5 -87z" glyph-name="uni1EB1" horiz-adv-x="1132" unicode="ằ"/><glyph d="M659 2253q-57 0 -114 -6l-15 157q123 16 191 17q135 0 184 -40t49 -128q0 -84 -57 -133l-78 -64q-47 -39 -47 -100h-178q0 84 10 118.5t43 59.5l37 29q45 33 45 57q0 20 -14.5 26.5t-55.5 6.5zM684 1559q-205 0 -283.5 82.5t-78.5 244.5v43h225v-24q0 -61 30.5 -87 t104.5 -26q70 0 102.5 21.5t32.5 91.5v24h225v-43q0 -184 -91 -255.5t-267 -71.5zM907 0l-51 297h-340l-51 -297h-465l348 1434h676l348 -1434h-465zM578 645h217l-76 440h-66z" glyph-name="uni1EB2" horiz-adv-x="1370" unicode="Ẳ"/><glyph d="M561 1946q-57 0 -115 -7l-14 158q123 16 191 17q135 0 184 -40t49 -128q0 -84 -57 -134l-78 -63q-47 -39 -47 -100h-178q0 84 10 118.5t43 59.5l37 28q45 33 45 58q0 20 -14.5 26.5t-55.5 6.5zM586 1251q-205 0 -284 83t-79 245v43h226v-25q0 -61 30.5 -86.5t104.5 -25.5 q70 0 102.5 21.5t32.5 90.5v25h225v-43q0 -184 -91 -256t-267 -72zM698 1147q205 0 279 -95.5t74 -287.5v-744l-402 -34l-20 129h-17q-70 -135 -258 -135q-178 0 -247.5 86t-69.5 239q0 193 100.5 266.5t294.5 73.5h178v37q0 66 -23.5 91.5t-66.5 25.5q-92 0 -313 -56 l-62 322q354 82 553 82zM459 356q0 -117 71 -116q80 0 80 180v55h-55q-41 0 -68.5 -32t-27.5 -87z" glyph-name="uni1EB3" horiz-adv-x="1132" unicode="ẳ"/><glyph d="M547 2122q-57 0 -76 -97h-166q0 147 66.5 237.5t181.5 90.5q82 0 160 -51l65 -43q41 -27 62 -27q53 0 69 97h168q0 -160 -65.5 -243t-182.5 -83q-92 0 -155 49l-68 49q-28 21 -59 21zM322 1929h225v-24q0 -61 30.5 -87t104.5 -26q70 0 102.5 21.5t32.5 91.5v24h225v-43 q0 -184 -91 -255.5t-267 -71.5q-205 0 -283.5 82.5t-78.5 244.5v43zM907 0l-51 297h-340l-51 -297h-465l348 1434h676l348 -1434h-465zM578 645h217l-76 440h-66z" glyph-name="uni1EB4" horiz-adv-x="1370" unicode="Ẵ"/><glyph d="M449 1815q-57 0 -76 -97h-166q0 147 66.5 237.5t181.5 90.5q82 0 159 -51l66 -43q41 -27 61 -27q53 0 70 96h168q0 -160 -65.5 -242.5t-182.5 -82.5q-92 0 -156 49l-67 49q-28 21 -59 21zM223 1622h226v-25q0 -61 30.5 -86.5t104.5 -25.5q70 0 102.5 21.5t32.5 90.5v25 h225v-43q0 -184 -91 -256t-267 -72q-205 0 -284 83t-79 245v43zM698 1147q205 0 279 -95.5t74 -287.5v-744l-402 -34l-20 129h-17q-70 -135 -258 -135q-178 0 -247.5 86t-69.5 239q0 193 100.5 266.5t294.5 73.5h178v37q0 66 -23.5 91.5t-66.5 25.5q-92 0 -313 -56l-62 322 q354 82 553 82zM459 356q0 -117 71 -116q80 0 80 180v55h-55q-41 0 -68.5 -32t-27.5 -87z" glyph-name="uni1EB5" horiz-adv-x="1132" unicode="ẵ"/><glyph d="M684 1559q-205 0 -283.5 82.5t-78.5 244.5v43h225v-24q0 -61 30.5 -87t104.5 -26q70 0 102.5 21.5t32.5 91.5v24h225v-43q0 -184 -91 -255.5t-267 -71.5zM1372 0h-465l-51 297h-340l-51 -297h-465l348 1434h676zM578 645h217l-76 440h-66zM518 -432v287h328v-287h-328z " glyph-name="uni1EB6" horiz-adv-x="1370" unicode="Ặ"/><glyph d="M586 1251q-205 0 -284 83t-79 245v43h226v-25q0 -61 30.5 -86.5t104.5 -25.5q70 0 102.5 21.5t32.5 90.5v25h225v-43q0 -184 -91 -256t-267 -72zM698 1147q205 0 279 -95.5t74 -287.5v-744l-402 -34l-20 129h-17q-70 -135 -258 -135q-178 0 -247.5 86t-69.5 239 q0 193 100.5 266.5t294.5 73.5h178v37q0 66 -23.5 91.5t-66.5 25.5q-92 0 -313 -56l-62 322q354 82 553 82zM459 356q0 -117 71 -116q80 0 80 180v55h-55q-41 0 -68.5 -32t-27.5 -87zM422 -432v287h328v-287h-328z" glyph-name="uni1EB7" horiz-adv-x="1132" unicode="ặ"/><glyph d="M582 348h442v-348h-901v1434h876v-349h-417v-167h376v-349h-376v-221zM449 -432v287h327v-287h-327z" glyph-name="uni1EB8" horiz-adv-x="1091" unicode="Ẹ"/><glyph d="M473 449q8 -86 31.5 -119t79.5 -33q133 0 374 47l52 -295q-248 -70 -437 -69q-250 0 -387 138t-137 460q0 166 37 279.5t109.5 176t161.5 88t210 25.5q150 0 246 -37t147.5 -116t70 -179t18.5 -252q0 -55 -7 -114h-569zM573 866q-53 0 -75.5 -39t-26.5 -143h186 q-4 104 -22.5 143t-61.5 39zM381 -432v287h328v-287h-328z" glyph-name="uni1EB9" horiz-adv-x="1095" unicode="ẹ"/><glyph d="M535 1907q-53 0 -115 -6l-14 157q109 14 190 15q135 0 184 -39t49 -127t-57 -133l-78 -66q-47 -39 -47 -100h-178q0 84 10 119.5t43 60.5l39 29q43 33 43 57q0 20 -13 26.5t-56 6.5zM582 348h442v-348h-901v1434h876v-349h-417v-167h376v-349h-376v-221z" glyph-name="uni1EBA" horiz-adv-x="1091" unicode="Ẻ"/><glyph d="M530 1599q-53 0 -114 -6l-15 158q109 14 191 14q135 0 184 -38.5t49 -127t-57 -133.5l-78 -65q-47 -39 -47 -101h-178q0 84 10 120t43 61l39 28q43 33 43 58q0 20 -13.5 26t-56.5 6zM473 449q8 -86 31.5 -119t79.5 -33q133 0 374 47l52 -295q-248 -70 -437 -69 q-250 0 -387 138t-137 460q0 166 37 279.5t109.5 176t161.5 88t210 25.5q150 0 246 -37t147.5 -116t70 -179t18.5 -252q0 -55 -7 -114h-569zM573 866q-53 0 -75.5 -39t-26.5 -143h186q-4 104 -22.5 143t-61.5 39z" glyph-name="uni1EBB" horiz-adv-x="1095" unicode="ẻ"/><glyph d="M426 1696q-61 0 -76 -97h-168q0 150 67.5 240t182.5 90q80 0 160 -53l65 -43q37 -25 62 -25q51 0 69 97h166q0 -160 -65.5 -244t-181.5 -84q-90 0 -154 49l-68 49q-28 21 -59 21zM582 348h442v-348h-901v1434h876v-349h-417v-167h376v-349h-376v-221z" glyph-name="uni1EBC" horiz-adv-x="1091" unicode="Ẽ"/><glyph d="M422 1389q-61 0 -76 -97h-168q0 150 67.5 240t182.5 90q80 0 160 -53l65 -43q37 -25 62 -25q51 0 69 96h166q0 -160 -65.5 -243.5t-182.5 -83.5q-90 0 -153 49l-68 49q-28 21 -59 21zM473 449q8 -86 31.5 -119t79.5 -33q133 0 374 47l52 -295q-248 -70 -437 -69 q-250 0 -387 138t-137 460q0 166 37 279.5t109.5 176t161.5 88t210 25.5q150 0 246 -37t147.5 -116t70 -179t18.5 -252q0 -55 -7 -114h-569zM573 866q-53 0 -75.5 -39t-26.5 -143h186q-4 104 -22.5 143t-61.5 39z" glyph-name="uni1EBD" horiz-adv-x="1095" unicode="ẽ"/><glyph d="M1079 2251h363l-264 -408h-256zM561 1810l-180 -215h-275l265 408h381l266 -408h-277zM582 569v-221h442v-348h-901v1434h876v-349h-417v-167h376v-349h-376z" glyph-name="uni1EBE" horiz-adv-x="1091" unicode="Ế"/><glyph d="M1075 1944h363l-264 -408h-256zM557 1503l-180 -215h-275l265 408h381l266 -408h-277zM567 1147q150 0 246 -37t147.5 -116t70 -179t18.5 -252q0 -55 -7 -114h-569q8 -86 31.5 -119t79.5 -33q133 0 374 47l52 -295q-248 -70 -437 -69q-250 0 -387 138t-137 460 q0 166 37 279.5t109.5 176t161.5 88t210 25.5zM573 866q-53 0 -75.5 -39t-26.5 -143h186q-4 104 -22.5 143t-61.5 39z" glyph-name="uni1EBF" horiz-adv-x="1095" unicode="ế"/><glyph d="M1237 1843h-256l-264 408h362zM561 1810l-180 -215h-275l265 408h381l266 -408h-277zM582 569v-221h442v-348h-901v1434h876v-349h-417v-167h376v-349h-376z" glyph-name="uni1EC0" horiz-adv-x="1091" unicode="Ề"/><glyph d="M1233 1536h-256l-264 408h362zM557 1503l-180 -215h-275l265 408h381l266 -408h-277zM567 1147q150 0 246 -37t147.5 -116t70 -179t18.5 -252q0 -55 -7 -114h-569q8 -86 31.5 -119t79.5 -33q133 0 374 47l52 -295q-248 -70 -437 -69q-250 0 -387 138t-137 460 q0 166 37 279.5t109.5 176t161.5 88t210 25.5zM573 866q-53 0 -75.5 -39t-26.5 -143h186q-4 104 -22.5 143t-61.5 39z" glyph-name="uni1EC1" horiz-adv-x="1095" unicode="ề"/><glyph d="M1053 2308q135 0 184 -39t49 -129q0 -86 -57 -131l-78 -65q-47 -39 -47 -101h-178q0 84 10 120t43 60l39 27q43 33 43 57q0 20 -13.5 26.5t-56.5 6.5q-33 0 -114 -4l-15 156q123 16 191 16zM561 1810l-180 -215h-275l265 408h381l266 -408h-277zM582 569v-221h442v-348 h-901v1434h876v-349h-417v-167h376v-349h-376z" glyph-name="uni1EC2" horiz-adv-x="1091" unicode="Ể"/><glyph d="M1049 2001q135 0 184 -39t49 -129q0 -86 -57 -131l-78 -66q-47 -39 -47 -100h-178q0 84 10 120t43 60l39 27q43 33 43 57q0 20 -13.5 26.5t-56.5 6.5q-33 0 -115 -4l-14 156q123 16 191 16zM557 1503l-180 -215h-275l265 408h381l266 -408h-277zM567 1147q150 0 246 -37 t147.5 -116t70 -179t18.5 -252q0 -55 -7 -114h-569q8 -86 31.5 -119t79.5 -33q133 0 374 47l52 -295q-248 -70 -437 -69q-250 0 -387 138t-137 460q0 166 37 279.5t109.5 176t161.5 88t210 25.5zM573 866q-53 0 -75.5 -39t-26.5 -143h186q-4 104 -22.5 143t-61.5 39z" glyph-name="uni1EC3" horiz-adv-x="1095" unicode="ể"/><glyph d="M416 2187q-59 0 -76 -96h-168q0 150 67.5 240t182.5 90q74 0 160 -54l65 -43q37 -25 62 -24q51 0 69 96h166q2 -160 -63.5 -244t-184.5 -84q-90 0 -153 50l-68 49q-28 20 -59 20zM561 1810l-180 -215h-275l265 408h381l266 -408h-277zM582 348h442v-348h-901v1434h876 v-349h-417v-167h376v-349h-376v-221z" glyph-name="uni1EC4" horiz-adv-x="1091" unicode="Ễ"/><glyph d="M412 1880q-59 0 -76 -96h-168q0 150 67.5 240t182.5 90q74 0 160 -54l65 -43q37 -25 62 -24q51 0 69 96h166q2 -160 -63.5 -244t-184.5 -84q-90 0 -153 49l-68 50q-28 20 -59 20zM557 1503l-180 -215h-275l265 408h381l266 -408h-277zM473 449q8 -86 31.5 -119t79.5 -33 q133 0 374 47l52 -295q-248 -70 -437 -69q-250 0 -387 138t-137 460q0 166 37 279.5t109.5 176t161.5 88t210 25.5q150 0 246 -37t147.5 -116t70 -179t18.5 -252q0 -55 -7 -114h-569zM573 866q-53 0 -75.5 -39t-26.5 -143h186q-4 104 -22.5 143t-61.5 39z" glyph-name="uni1EC5" horiz-adv-x="1095" unicode="ễ"/><glyph d="M561 1810l-180 -215h-275l265 408h381l266 -408h-277zM582 348h442v-348h-901v1434h876v-349h-417v-167h376v-349h-376v-221zM449 -432v287h327v-287h-327z" glyph-name="uni1EC6" horiz-adv-x="1091" unicode="Ệ"/><glyph d="M557 1503l-180 -215h-275l265 408h381l266 -408h-277zM473 449q8 -86 31.5 -119t79.5 -33q133 0 374 47l52 -295q-248 -70 -437 -69q-250 0 -387 138t-137 460q0 166 37 279.5t109.5 176t161.5 88t210 25.5q150 0 246 -37t147.5 -116t70 -179t18.5 -252q0 -55 -7 -114 h-569zM573 866q-53 0 -75.5 -39t-26.5 -143h186q-4 104 -22.5 143t-61.5 39zM381 -432v287h328v-287h-328z" glyph-name="uni1EC7" horiz-adv-x="1095" unicode="ệ"/><glyph d="M262 1608q0 84 10.5 119.5t42.5 60.5l39 29q43 33 43 57q0 20 -13 26.5t-56 6.5q-53 0 -115 -6l-14 157q109 14 190 15q135 0 184.5 -39t49.5 -127t-58 -133l-78 -66q-47 -39 -47 -100h-178zM584 1434v-1434h-459v1434h459z" glyph-name="uni1EC8" horiz-adv-x="704" unicode="Ỉ"/><glyph d="M223 1300q0 84 10.5 120t42.5 61l39 28q43 33 43 58q0 20 -13 26t-56 6q-53 0 -115 -6l-14 158q109 14 190 14q135 0 184.5 -38.5t49.5 -127t-58 -133.5l-77 -65q-47 -39 -48 -101h-178zM535 1126v-1126h-441v1126h441z" glyph-name="uni1EC9" horiz-adv-x="628" unicode="ỉ"/><glyph d="M584 1434v-1434h-459v1434h459zM188 -145h328v-287h-328v287z" glyph-name="uni1ECA" horiz-adv-x="704" unicode="Ị"/><glyph d="M82 1569h467v-332h-467v332zM535 1126v-1126h-441v1126h441zM145 -145h328v-287h-328v287z" glyph-name="uni1ECB" horiz-adv-x="628" unicode="ị"/><glyph d="M713 -20q-186 0 -312.5 47t-197 146t-99 228t-28.5 316q0 217 41 363.5t126 227.5t196.5 113.5t273.5 32.5q188 0 314 -47t195.5 -146.5t97.5 -228.5t28 -315q0 -217 -41 -363.5t-126 -227.5t-196.5 -113.5t-271.5 -32.5zM713 350q98 0 131 74t33 293t-33 292.5 t-131 73.5q-100 0 -133 -73.5t-33 -292.5t33 -293t133 -74zM547 -145h327v-287h-327v287z" glyph-name="uni1ECC" horiz-adv-x="1419" unicode="Ọ"/><glyph d="M592 -20q-307 0 -425 148t-118 435q0 330 138.5 457t404.5 127q305 0 423 -148.5t118 -435.5q0 -330 -138.5 -456.5t-402.5 -126.5zM592 301q51 0 68.5 52.5t17.5 210t-17.5 209.5t-68.5 52q-53 0 -71.5 -53t-18.5 -208.5t18.5 -209t71.5 -53.5zM428 -145h328v-287h-328 v287z" glyph-name="uni1ECD" horiz-adv-x="1179" unicode="ọ"/><glyph d="M618 1608q0 84 10.5 119.5t43.5 60.5l39 29q43 33 43 57q0 20 -13.5 26.5t-56.5 6.5q-53 0 -115 -6l-14 157q109 14 190 15q135 0 184.5 -39t49.5 -127t-57 -133l-78 -66q-47 -39 -47 -100h-179zM713 -20q-186 0 -312.5 47t-197 146t-99 228t-28.5 316q0 217 41 363.5 t126 227.5t196.5 113.5t273.5 32.5q188 0 314 -47t195.5 -146.5t97.5 -228.5t28 -315q0 -217 -41 -363.5t-126 -227.5t-196.5 -113.5t-271.5 -32.5zM713 350q98 0 131 74t33 293t-33 292.5t-131 73.5q-100 0 -133 -73.5t-33 -292.5t33 -293t133 -74z" glyph-name="uni1ECE" horiz-adv-x="1419" unicode="Ỏ"/><glyph d="M500 1300q0 84 10 120t43 61l39 28q43 33 43 58q0 20 -13.5 26t-56.5 6q-53 0 -114 -6l-15 158q109 14 191 14q135 0 184 -38.5t49 -127t-57 -133.5l-78 -65q-47 -39 -47 -101h-178zM592 -20q-307 0 -425 148t-118 435q0 330 138.5 457t404.5 127q305 0 423 -148.5 t118 -435.5q0 -330 -138.5 -456.5t-402.5 -126.5zM592 301q51 0 68.5 52.5t17.5 210t-17.5 209.5t-68.5 52q-53 0 -71.5 -53t-18.5 -208.5t18.5 -209t71.5 -53.5z" glyph-name="uni1ECF" horiz-adv-x="1179" unicode="ỏ"/><glyph d="M1591 2251l-264 -408h-256l158 408h362zM711 1810l-181 -215h-274l264 408h381l266 -408h-276zM713 1454q188 0 314 -47t195.5 -146.5t97.5 -228.5t28 -315q0 -217 -41 -363.5t-126 -227.5t-197 -113.5t-271 -32.5q-186 0 -312.5 47t-197 146t-99 228t-28.5 316 q0 217 41 363.5t126 227.5t196.5 113.5t273.5 32.5zM713 350q98 0 131 74t33 293t-33 292.5t-131 73.5q-100 0 -133 -73.5t-33 -292.5t33 -293t133 -74z" glyph-name="uni1ED0" horiz-adv-x="1419" unicode="Ố"/><glyph d="M1110 1944h363l-265 -408h-256zM592 1503l-180 -215h-275l264 408h381l267 -408h-277zM592 1147q305 0 423 -148.5t118 -435.5q0 -330 -138.5 -456.5t-402.5 -126.5q-307 0 -425 148t-118 435q0 330 138.5 457t404.5 127zM592 301q51 0 68.5 52.5t17.5 210t-17.5 209.5 t-68.5 52q-53 0 -71.5 -53t-18.5 -208.5t18.5 -209t71.5 -53.5z" glyph-name="uni1ED1" horiz-adv-x="1179" unicode="ố"/><glyph d="M1386 1843h-256l-264 408h363zM711 1810l-181 -215h-274l264 408h381l266 -408h-276zM713 1454q188 0 314 -47t195.5 -146.5t97.5 -228.5t28 -315q0 -217 -41 -363.5t-126 -227.5t-197 -113.5t-271 -32.5q-186 0 -312.5 47t-197 146t-99 228t-28.5 316q0 217 41 363.5 t126 227.5t196.5 113.5t273.5 32.5zM713 350q98 0 131 74t33 293t-33 292.5t-131 73.5q-100 0 -133 -73.5t-33 -292.5t33 -293t133 -74z" glyph-name="uni1ED2" horiz-adv-x="1419" unicode="Ồ"/><glyph d="M1268 1536h-256l-264 408h362zM592 1503l-180 -215h-275l264 408h381l267 -408h-277zM592 1147q305 0 423 -148.5t118 -435.5q0 -330 -138.5 -456.5t-402.5 -126.5q-307 0 -425 148t-118 435q0 330 138.5 457t404.5 127zM592 301q51 0 68.5 52.5t17.5 210t-17.5 209.5 t-68.5 52q-53 0 -71.5 -53t-18.5 -208.5t18.5 -209t71.5 -53.5z" glyph-name="uni1ED3" horiz-adv-x="1179" unicode="ồ"/><glyph d="M1202 2308q135 0 184.5 -39t49.5 -129q0 -86 -58 -131l-78 -65q-47 -39 -47 -101h-178q0 84 10.5 120t42.5 60l39 27q43 33 43 57q0 20 -13 26.5t-56 6.5q-33 0 -115 -4l-14 156q122 16 190 16zM711 1810l-181 -215h-274l264 408h381l266 -408h-276zM713 1454 q188 0 314 -47t195.5 -146.5t97.5 -228.5t28 -315q0 -217 -41 -363.5t-126 -227.5t-197 -113.5t-271 -32.5q-186 0 -312.5 47t-197 146t-99 228t-28.5 316q0 217 41 363.5t126 227.5t196.5 113.5t273.5 32.5zM713 350q98 0 131 74t33 293t-33 292.5t-131 73.5 q-100 0 -133 -73.5t-33 -292.5t33 -293t133 -74z" glyph-name="uni1ED4" horiz-adv-x="1419" unicode="Ổ"/><glyph d="M1083 2001q135 0 184.5 -39t49.5 -129q0 -86 -57 -131l-78 -66q-47 -39 -47 -100h-179q0 84 10.5 120t43.5 60l39 27q43 33 43 57q0 20 -13.5 26.5t-56.5 6.5q-33 0 -115 -4l-14 156q122 16 190 16zM592 1503l-180 -215h-275l264 408h381l267 -408h-277zM592 1147 q305 0 423 -148.5t118 -435.5q0 -330 -138.5 -456.5t-402.5 -126.5q-307 0 -425 148t-118 435q0 330 138.5 457t404.5 127zM592 301q51 0 68.5 52.5t17.5 210t-17.5 209.5t-68.5 52q-53 0 -71.5 -53t-18.5 -208.5t18.5 -209t71.5 -53.5z" glyph-name="uni1ED5" horiz-adv-x="1179" unicode="ổ"/><glyph d="M565 2187q-59 0 -76 -96h-167q0 150 67.5 240t181.5 90q74 0 160 -54l66 -43q37 -25 61 -24q51 0 70 96h166q2 -160 -63.5 -244t-184.5 -84q-90 0 -154 50l-67 49q-29 20 -60 20zM711 1810l-181 -215h-274l264 408h381l266 -408h-276zM713 1454q188 0 314 -47 t195.5 -146.5t97.5 -228.5t28 -315q0 -217 -41 -363.5t-126 -227.5t-197 -113.5t-271 -32.5q-186 0 -312.5 47t-197 146t-99 228t-28.5 316q0 217 41 363.5t126 227.5t196.5 113.5t273.5 32.5zM713 350q98 0 131 74t33 293t-33 292.5t-131 73.5q-100 0 -133 -73.5 t-33 -292.5t33 -293t133 -74z" glyph-name="uni1ED6" horiz-adv-x="1419" unicode="Ỗ"/><glyph d="M446 1880q-59 0 -75 -96h-168q0 150 67.5 240t182.5 90q74 0 159 -54l66 -43q37 -25 61 -24q51 0 70 96h166q2 -160 -63.5 -244t-184.5 -84q-90 0 -154 49l-67 50q-29 20 -60 20zM592 1503l-180 -215h-275l264 408h381l267 -408h-277zM592 1147q305 0 423 -148.5 t118 -435.5q0 -330 -138.5 -456.5t-402.5 -126.5q-307 0 -425 148t-118 435q0 330 138.5 457t404.5 127zM592 301q51 0 68.5 52.5t17.5 210t-17.5 209.5t-68.5 52q-53 0 -71.5 -53t-18.5 -208.5t18.5 -209t71.5 -53.5z" glyph-name="uni1ED7" horiz-adv-x="1179" unicode="ỗ"/><glyph d="M711 1810l-181 -215h-274l264 408h381l266 -408h-276zM713 1454q188 0 314 -47t195.5 -146.5t97.5 -228.5t28 -315q0 -217 -41 -363.5t-126 -227.5t-197 -113.5t-271 -32.5q-186 0 -312.5 47t-197 146t-99 228t-28.5 316q0 217 41 363.5t126 227.5t196.5 113.5 t273.5 32.5zM713 350q98 0 131 74t33 293t-33 292.5t-131 73.5q-100 0 -133 -73.5t-33 -292.5t33 -293t133 -74zM547 -432v287h327v-287h-327z" glyph-name="uni1ED8" horiz-adv-x="1419" unicode="Ộ"/><glyph d="M592 1503l-180 -215h-275l264 408h381l267 -408h-277zM592 1147q305 0 423 -148.5t118 -435.5q0 -330 -138.5 -456.5t-402.5 -126.5q-307 0 -425 148t-118 435q0 330 138.5 457t404.5 127zM592 301q51 0 68.5 52.5t17.5 210t-17.5 209.5t-68.5 52q-53 0 -71.5 -53 t-18.5 -208.5t18.5 -209t71.5 -53.5zM428 -432v287h328v-287h-328z" glyph-name="uni1ED9" horiz-adv-x="1179" unicode="ộ"/><glyph d="M1108 2011l-266 -407h-256l159 407h363zM1266 1694h225v-228q0 -139 -50 -205.5t-167 -86.5q74 -156 74 -457q0 -217 -41 -363.5t-126 -227.5t-197 -113.5t-271 -32.5q-186 0 -312.5 47t-197 146t-99 228t-28.5 316q0 217 41 363.5t126 227.5t196.5 113.5t273.5 32.5 q270 0 415 -102q80 2 109 27.5t29 86.5v228zM713 350q98 0 131 74t33 293t-33 292.5t-131 73.5q-100 0 -133 -73.5t-33 -292.5t33 -293t133 -74z" glyph-name="uni1EDA" horiz-adv-x="1419" unicode="Ớ"/><glyph d="M989 1704l-266 -408h-256l160 408h362zM1096 1370h225v-227q0 -143 -52 -209t-173 -84q37 -113 37 -287q0 -330 -138.5 -456.5t-402.5 -126.5q-307 0 -425 148t-118 435q0 330 138.5 457t404.5 127q262 0 391 -117q63 4 88 30.5t25 82.5v227zM592 301q51 0 68.5 52.5 t17.5 210t-17.5 209.5t-68.5 52q-53 0 -71.5 -53t-18.5 -208.5t18.5 -209t71.5 -53.5z" glyph-name="uni1EDB" horiz-adv-x="1179" unicode="ớ"/><glyph d="M825 1604h-256l-266 407h363zM1266 1694h225v-228q0 -139 -50 -205.5t-167 -86.5q74 -156 74 -457q0 -217 -41 -363.5t-126 -227.5t-197 -113.5t-271 -32.5q-186 0 -312.5 47t-197 146t-99 228t-28.5 316q0 217 41 363.5t126 227.5t196.5 113.5t273.5 32.5 q270 0 415 -102q80 2 109 27.5t29 86.5v228zM713 350q98 0 131 74t33 293t-33 292.5t-131 73.5q-100 0 -133 -73.5t-33 -292.5t33 -293t133 -74z" glyph-name="uni1EDC" horiz-adv-x="1419" unicode="Ờ"/><glyph d="M707 1296h-256l-267 408h363zM1096 1370h225v-227q0 -143 -52 -209t-173 -84q37 -113 37 -287q0 -330 -138.5 -456.5t-402.5 -126.5q-307 0 -425 148t-118 435q0 330 138.5 457t404.5 127q262 0 391 -117q63 4 88 30.5t25 82.5v227zM592 301q51 0 68.5 52.5t17.5 210 t-17.5 209.5t-68.5 52q-53 0 -71.5 -53t-18.5 -208.5t18.5 -209t71.5 -53.5z" glyph-name="uni1EDD" horiz-adv-x="1179" unicode="ờ"/><glyph d="M684 1907q-53 0 -115 -6l-14 157q109 14 190 15q135 0 184.5 -39t49.5 -127t-57 -133l-78 -66q-47 -39 -47 -100h-179q0 84 10.5 119.5t43.5 60.5l39 29q43 33 43 57q0 20 -13.5 26.5t-56.5 6.5zM1266 1694h225v-228q0 -139 -50 -205.5t-167 -86.5q74 -156 74 -457 q0 -217 -41 -363.5t-126 -227.5t-197 -113.5t-271 -32.5q-186 0 -312.5 47t-197 146t-99 228t-28.5 316q0 217 41 363.5t126 227.5t196.5 113.5t273.5 32.5q270 0 415 -102q80 2 109 27.5t29 86.5v228zM713 350q98 0 131 74t33 293t-33 292.5t-131 73.5q-100 0 -133 -73.5 t-33 -292.5t33 -293t133 -74z" glyph-name="uni1EDE" horiz-adv-x="1419" unicode="Ở"/><glyph d="M565 1599q-53 0 -114 -6l-15 158q109 14 191 14q135 0 184 -38.5t49 -127t-57 -133.5l-78 -65q-47 -39 -47 -101h-178q0 84 10 120t43 61l39 28q43 33 43 58q0 20 -13.5 26t-56.5 6zM1096 1370h225v-227q0 -143 -52 -209t-173 -84q37 -113 37 -287q0 -330 -138.5 -456.5 t-402.5 -126.5q-307 0 -425 148t-118 435q0 330 138.5 457t404.5 127q262 0 391 -117q63 4 88 30.5t25 82.5v227zM592 301q51 0 68.5 52.5t17.5 210t-17.5 209.5t-68.5 52q-53 0 -71.5 -53t-18.5 -208.5t18.5 -209t71.5 -53.5z" glyph-name="uni1EDF" horiz-adv-x="1179" unicode="ở"/><glyph d="M575 1696q-61 0 -75 -97h-168q0 150 67.5 240t182.5 90q80 0 159 -53l66 -43q37 -25 61 -25q51 0 70 97h166q0 -160 -65.5 -244t-182.5 -84q-90 0 -154 49l-67 49q-29 21 -60 21zM1266 1694h225v-228q0 -139 -50 -205.5t-167 -86.5q74 -156 74 -457q0 -217 -41 -363.5 t-126 -227.5t-197 -113.5t-271 -32.5q-186 0 -312.5 47t-197 146t-99 228t-28.5 316q0 217 41 363.5t126 227.5t196.5 113.5t273.5 32.5q270 0 415 -102q80 2 109 27.5t29 86.5v228zM713 350q98 0 131 74t33 293t-33 292.5t-131 73.5q-100 0 -133 -73.5t-33 -292.5t33 -293 t133 -74z" glyph-name="uni1EE0" horiz-adv-x="1419" unicode="Ỡ"/><glyph d="M457 1389q-61 0 -76 -97h-168q0 150 67.5 240t182.5 90q80 0 160 -53l65 -43q37 -25 62 -25q51 0 69 96h166q0 -160 -65.5 -243.5t-182.5 -83.5q-90 0 -153 49l-68 49q-28 21 -59 21zM1096 1370h225v-227q0 -143 -52 -209t-173 -84q37 -113 37 -287q0 -330 -138.5 -456.5 t-402.5 -126.5q-307 0 -425 148t-118 435q0 330 138.5 457t404.5 127q262 0 391 -117q63 4 88 30.5t25 82.5v227zM592 301q51 0 68.5 52.5t17.5 210t-17.5 209.5t-68.5 52q-53 0 -71.5 -53t-18.5 -208.5t18.5 -209t71.5 -53.5z" glyph-name="uni1EE1" horiz-adv-x="1179" unicode="ỡ"/><glyph d="M1266 1694h225v-228q0 -139 -50 -205.5t-167 -86.5q74 -156 74 -457q0 -217 -41 -363.5t-126 -227.5t-197 -113.5t-271 -32.5q-186 0 -312.5 47t-197 146t-99 228t-28.5 316q0 217 41 363.5t126 227.5t196.5 113.5t273.5 32.5q270 0 415 -102q80 2 109 27.5t29 86.5v228z M713 350q98 0 131 74t33 293t-33 292.5t-131 73.5q-100 0 -133 -73.5t-33 -292.5t33 -293t133 -74zM547 -432v287h327v-287h-327z" glyph-name="uni1EE2" horiz-adv-x="1419" unicode="Ợ"/><glyph d="M1096 1370h225v-227q0 -143 -52 -209t-173 -84q37 -113 37 -287q0 -330 -138.5 -456.5t-402.5 -126.5q-307 0 -425 148t-118 435q0 330 138.5 457t404.5 127q262 0 391 -117q63 4 88 30.5t25 82.5v227zM592 301q51 0 68.5 52.5t17.5 210t-17.5 209.5t-68.5 52 q-53 0 -71.5 -53t-18.5 -208.5t18.5 -209t71.5 -53.5zM428 -432v287h328v-287h-328z" glyph-name="uni1EE3" horiz-adv-x="1179" unicode="ợ"/><glyph d="M676 -20q-170 0 -287 37.5t-179.5 113.5t-89 170t-26.5 225v908h459v-934q0 -90 23.5 -120t91.5 -30q66 0 88 30t22 120v934h459v-908q0 -309 -142.5 -427.5t-418.5 -118.5zM504 -145h327v-287h-327v287z" glyph-name="uni1EE4" horiz-adv-x="1329" unicode="Ụ"/><glyph d="M684 1126h440v-1106l-403 -34l-21 129h-18q-70 -135 -279 -135q-184 0 -250.5 95t-66.5 328v723h442v-692q0 -74 15.5 -103.5t60.5 -29.5q41 0 60.5 28.5t19.5 104.5v692zM412 -432v287h327v-287h-327z" glyph-name="uni1EE5" horiz-adv-x="1222" unicode="ụ"/><glyph d="M575 1608q0 84 10.5 119.5t43.5 60.5l39 29q43 33 43 57q0 20 -13.5 26.5t-56.5 6.5q-53 0 -115 -6l-14 157q106 14 190 15q135 0 184.5 -39t49.5 -127t-57 -133l-78 -66q-47 -39 -47 -100h-179zM676 -20q-170 0 -287 37.5t-179.5 113.5t-89 170t-26.5 225v908h459v-934 q0 -90 23.5 -120t91.5 -30q66 0 88 30t22 120v934h459v-908q0 -309 -142.5 -427.5t-418.5 -118.5z" glyph-name="uni1EE6" horiz-adv-x="1329" unicode="Ủ"/><glyph d="M584 1599q-53 0 -115 -6l-14 158q106 14 190 14q135 0 184.5 -38.5t49.5 -127t-58 -133.5l-78 -65q-47 -39 -47 -101h-178q0 84 10.5 120t42.5 61l39 28q43 33 43 58q0 20 -13 26t-56 6zM684 1126h440v-1106l-403 -34l-21 129h-18q-70 -135 -279 -135q-184 0 -250.5 95 t-66.5 328v723h442v-692q0 -74 15.5 -103.5t60.5 -29.5q41 0 60.5 28.5t19.5 104.5v692z" glyph-name="uni1EE7" horiz-adv-x="1222" unicode="ủ"/><glyph d="M1065 2011l-266 -407h-256l159 407h363zM1303 1776h225v-228q0 -158 -66.5 -224.5t-224.5 -76.5v-721q0 -309 -142.5 -427.5t-418.5 -118.5q-170 0 -287 37.5t-179.5 113.5t-89 170t-26.5 225v908h459v-934q0 -90 23.5 -120t91.5 -30q66 0 88 30t22 120v934h373 q88 0 120 25.5t32 88.5v228z" glyph-name="uni1EE8" horiz-adv-x="1329" unicode="Ứ"/><glyph d="M1008 1704l-267 -408h-256l160 408h363zM1178 1468h225v-227q0 -156 -63.5 -222.5t-215.5 -76.5v-922l-403 -34l-21 129h-18q-70 -135 -279 -135q-184 0 -250.5 95t-66.5 328v723h442v-692q0 -74 15.5 -103.5t60.5 -29.5q41 0 60.5 28.5t19.5 104.5v692h342q88 0 120 26 t32 89v227z" glyph-name="uni1EE9" horiz-adv-x="1222" unicode="ứ"/><glyph d="M782 1604h-256l-266 407h363zM1303 1776h225v-228q0 -158 -66.5 -224.5t-224.5 -76.5v-721q0 -309 -142.5 -427.5t-418.5 -118.5q-170 0 -287 37.5t-179.5 113.5t-89 170t-26.5 225v908h459v-934q0 -90 23.5 -120t91.5 -30q66 0 88 30t22 120v934h373q88 0 120 25.5 t32 88.5v228z" glyph-name="uni1EEA" horiz-adv-x="1329" unicode="Ừ"/><glyph d="M725 1296h-256l-266 408h362zM1178 1468h225v-227q0 -156 -63.5 -222.5t-215.5 -76.5v-922l-403 -34l-21 129h-18q-70 -135 -279 -135q-184 0 -250.5 95t-66.5 328v723h442v-692q0 -74 15.5 -103.5t60.5 -29.5q41 0 60.5 28.5t19.5 104.5v692h342q88 0 120 26t32 89v227z " glyph-name="uni1EEB" horiz-adv-x="1222" unicode="ừ"/><glyph d="M641 1907q-53 0 -115 -6l-14 157q106 14 190 15q135 0 184.5 -39t49.5 -127t-57 -133l-78 -66q-47 -39 -47 -100h-179q0 84 10.5 119.5t43.5 60.5l39 29q43 33 43 57q0 20 -13.5 26.5t-56.5 6.5zM1303 1776h225v-228q0 -158 -66.5 -224.5t-224.5 -76.5v-721 q0 -309 -142.5 -427.5t-418.5 -118.5q-170 0 -287 37.5t-179.5 113.5t-89 170t-26.5 225v908h459v-934q0 -90 23.5 -120t91.5 -30q66 0 88 30t22 120v934h373q88 0 120 25.5t32 88.5v228z" glyph-name="uni1EEC" horiz-adv-x="1329" unicode="Ử"/><glyph d="M584 1599q-53 0 -115 -6l-14 158q106 14 190 14q135 0 184.5 -38.5t49.5 -127t-58 -133.5l-78 -65q-47 -39 -47 -101h-178q0 84 10.5 120t42.5 61l39 28q43 33 43 58q0 20 -13 26t-56 6zM1178 1468h225v-227q0 -156 -63.5 -222.5t-215.5 -76.5v-922l-403 -34l-21 129h-18 q-70 -135 -279 -135q-184 0 -250.5 95t-66.5 328v723h442v-692q0 -74 15.5 -103.5t60.5 -29.5q41 0 60.5 28.5t19.5 104.5v692h342q88 0 120 26t32 89v227z" glyph-name="uni1EED" horiz-adv-x="1222" unicode="ử"/><glyph d="M532 1696q-61 0 -75 -97h-168q0 150 67.5 240t182.5 90q80 0 159 -53l66 -43q37 -25 61 -25q51 0 70 97h166q0 -160 -65.5 -244t-182.5 -84q-90 0 -154 49l-67 49q-29 21 -60 21zM1303 1776h225v-228q0 -158 -66.5 -224.5t-224.5 -76.5v-721q0 -309 -142.5 -427.5 t-418.5 -118.5q-170 0 -287 37.5t-179.5 113.5t-89 170t-26.5 225v908h459v-934q0 -90 23.5 -120t91.5 -30q66 0 88 30t22 120v934h373q88 0 120 25.5t32 88.5v228z" glyph-name="uni1EEE" horiz-adv-x="1329" unicode="Ữ"/><glyph d="M475 1389q-61 0 -76 -97h-168q0 150 68 240t182 90q80 0 160 -53l66 -43q37 -25 61 -25q51 0 70 96h166q0 -160 -66 -243.5t-182 -83.5q-90 0 -154 49l-67 49q-29 21 -60 21zM1178 1468h225v-227q0 -156 -63.5 -222.5t-215.5 -76.5v-922l-403 -34l-21 129h-18 q-70 -135 -279 -135q-184 0 -250.5 95t-66.5 328v723h442v-692q0 -74 15.5 -103.5t60.5 -29.5q41 0 60.5 28.5t19.5 104.5v692h342q88 0 120 26t32 89v227z" glyph-name="uni1EEF" horiz-adv-x="1222" unicode="ữ"/><glyph d="M1303 1776h225v-228q0 -158 -66.5 -224.5t-224.5 -76.5v-721q0 -309 -142.5 -427.5t-418.5 -118.5q-170 0 -287 37.5t-179.5 113.5t-89 170t-26.5 225v908h459v-934q0 -90 23.5 -120t91.5 -30q66 0 88 30t22 120v934h373q88 0 120 25.5t32 88.5v228zM504 -432v287h327 v-287h-327z" glyph-name="uni1EF0" horiz-adv-x="1329" unicode="Ự"/><glyph d="M1178 1468h225v-227q0 -156 -63.5 -222.5t-215.5 -76.5v-922l-403 -34l-21 129h-18q-70 -135 -279 -135q-184 0 -250.5 95t-66.5 328v723h442v-692q0 -74 15.5 -103.5t60.5 -29.5q41 0 60.5 28.5t19.5 104.5v692h342q88 0 120 26t32 89v227zM412 -432v287h327v-287h-327z " glyph-name="uni1EF1" horiz-adv-x="1222" unicode="ự"/><glyph d="M764 1604h-256l-266 407h362zM1300 1434l-428 -990v-444h-458v477l-414 957h465l174 -582h23l176 582h462z" glyph-name="Ygrave" horiz-adv-x="1298" unicode="Ỳ"/><glyph d="M678 1296h-256l-266 408h362zM664 1126h460l-254 -1126q-49 -223 -173 -306t-318 -83q-127 0 -277 35l25 291q141 -20 240 -21q92 0 127.5 28.5t46.5 121.5l2 20h-316l-227 1040h461l82 -739h35z" glyph-name="ygrave" horiz-adv-x="1122" unicode="ỳ"/><glyph d="M1300 1434l-428 -990v-444h-458v477l-414 957h465l174 -582h23l176 582h462zM485 -432v287h328v-287h-328z" glyph-name="uni1EF4" horiz-adv-x="1298" unicode="Ỵ"/><glyph d="M664 1126h460l-254 -1126q-49 -223 -173 -306t-318 -83q-127 0 -277 35l25 291q141 -20 240 -21q92 0 127.5 28.5t46.5 121.5l2 20h-316l-227 1040h461l82 -739h35zM930 -145h327v-287h-327v287z" glyph-name="uni1EF5" horiz-adv-x="1122" unicode="ỵ"/><glyph d="M623 1907q-53 0 -115 -6l-14 157q109 14 190 15q135 0 184.5 -39t49.5 -127t-58 -133l-78 -66q-47 -39 -47 -100h-178q0 84 10.5 119.5t42.5 60.5l39 29q43 33 43 57q0 20 -13 26.5t-56 6.5zM1300 1434l-428 -990v-444h-458v477l-414 957h465l174 -582h23l176 582h462z " glyph-name="uni1EF6" horiz-adv-x="1298" unicode="Ỷ"/><glyph d="M537 1599q-53 0 -115 -6l-14 158q106 14 190 14q135 0 184 -38.5t49 -127t-57 -133.5l-78 -65q-47 -39 -47 -101h-178q0 84 10.5 120t42.5 61l39 28q43 33 43 58q0 20 -13 26t-56 6zM664 1126h460l-254 -1126q-49 -223 -173 -306t-318 -83q-127 0 -277 35l25 291 q141 -20 240 -21q92 0 127.5 28.5t46.5 121.5l2 20h-316l-227 1040h461l82 -739h35z" glyph-name="uni1EF7" horiz-adv-x="1122" unicode="ỷ"/><glyph d="M514 1696q-61 0 -76 -97h-168q0 150 68 240t182 90q80 0 160 -53l65 -43q37 -25 62 -25q51 0 70 97h165q0 -160 -65.5 -244t-181.5 -84q-90 0 -154 49l-68 49q-28 21 -59 21zM1300 1434l-428 -990v-444h-458v477l-414 957h465l174 -582h23l176 582h462z" glyph-name="uni1EF8" horiz-adv-x="1298" unicode="Ỹ"/><glyph d="M428 1389q-61 0 -76 -97h-168q0 150 67.5 240t182.5 90q80 0 160 -53l65 -43q37 -25 62 -25q51 0 70 96h165q0 -160 -65.5 -243.5t-181.5 -83.5q-90 0 -154 49l-68 49q-28 21 -59 21zM664 1126h460l-254 -1126q-49 -223 -173 -306t-318 -83q-127 0 -277 35l25 291 q141 -20 240 -21q92 0 127.5 28.5t46.5 121.5l2 20h-316l-227 1040h461l82 -739h35z" glyph-name="uni1EF9" horiz-adv-x="1122" unicode="ỹ"/><glyph glyph-name="uni2009" horiz-adv-x="204" unicode=" "/><glyph d="M98 788h1069v-307h-1069v307z" glyph-name="endash" horiz-adv-x="1265" unicode="–"/><glyph d="M98 788h1639v-307h-1639v307z" glyph-name="emdash" horiz-adv-x="1835" unicode="—"/><glyph d="M139 109h1209v-267h-1209v267zM139 -246h1209v-266h-1209v266z" glyph-name="underscoredbl" horiz-adv-x="1484" unicode="‗"/><glyph d="M422 1178h184v-424h-467v424l160 424h276z" glyph-name="quoteleft" horiz-adv-x="743" unicode="‘"/><glyph d="M139 1602h467v-424l-160 -424h-278l156 424h-185v424z" glyph-name="quoteright" horiz-adv-x="743" unicode="’"/><glyph d="M139 424h467v-424l-160 -424h-278l156 424h-185v424z" glyph-name="quotesinglbase" horiz-adv-x="743" unicode="‚"/><glyph d="M522 1602l-153 -424h184v-424h-467v424l160 424h276zM956 1178h185v-424h-467v424l160 424h276z" glyph-name="quotedblleft" horiz-adv-x="1228" unicode="“"/><glyph d="M86 1178v424h467v-424l-160 -424h-278l155 424h-184zM674 1602h467v-424l-160 -424h-279l156 424h-184v424z" glyph-name="quotedblright" horiz-adv-x="1228" unicode="”"/><glyph d="M86 0v424h467v-424l-160 -424h-278l155 424h-184zM674 424h467v-424l-160 -424h-279l156 424h-184v424z" glyph-name="quotedblbase" horiz-adv-x="1228" unicode="„"/><glyph d="M1116 1004v-328h-352v-1045h-369v1045h-352v328h352v477h369v-477h352z" glyph-name="dagger" horiz-adv-x="1155" unicode="†"/><glyph d="M1116 721h-352v-328h352v-327h-352v-435h-369v435h-352v327h352v328h-352v328h352v432h369v-432h352v-328z" glyph-name="daggerdbl" horiz-adv-x="1155" unicode="‡"/><glyph d="M440.5 342q-161.5 0 -276.5 114.5t-115 276.5t115 276.5t276.5 114.5t276 -113.5t114.5 -277.5q0 -162 -114.5 -276.5t-276 -114.5z" glyph-name="bullet" horiz-adv-x="878" unicode="•"/><glyph d="M139 0v424h467v-424h-467zM786 0v424h467v-424h-467zM1436 0v424h467v-424h-467z" glyph-name="ellipsis" horiz-adv-x="2037" unicode="…"/><glyph d="M283 -20l891 1474h278l-891 -1474h-278zM399 602q-186 0 -255.5 103.5t-69.5 318.5q0 240 79.5 331t245.5 91q184 0 254 -103.5t70 -318.5q0 -242 -79 -332t-245 -90zM399.5 797q34.5 0 47 45t12.5 182t-12.5 182t-47 45t-47 -45t-12.5 -182t12.5 -182t47 -45zM1341 -12 q-186 0 -255.5 102.5t-69.5 319.5q0 240 80 330.5t245 90.5q184 0 254 -103t70 -318q0 -242 -79 -332t-245 -90zM2052 -12q-186 0 -256 102.5t-70 319.5q0 240 80 330.5t246 90.5q184 0 254 -103t70 -318q0 -242 -79 -332t-245 -90zM1341.5 182q34.5 0 47 45t12.5 182.5 t-12.5 182.5t-47 45t-47 -45t-12.5 -182.5t12.5 -182.5t47 -45zM2052 182q35 0 47 45t12 182.5t-12 182.5t-47 45t-47 -45t-12 -182.5t12 -182.5t47 -45z" glyph-name="perthousand" horiz-adv-x="2449" unicode="‰"/><glyph d="M485 1126v-286l-235 -267l235 -266v-287l-462 373v361z" glyph-name="guilsinglleft" horiz-adv-x="534" unicode="‹"/><glyph d="M49 1126l463 -372v-361l-463 -373v287l238 266l-238 267v286z" glyph-name="guilsinglright" horiz-adv-x="534" unicode="›"/><glyph d="M37 -41l596 1516h266l-596 -1516h-266z" glyph-name="fraction" horiz-adv-x="933" unicode="⁄"/><glyph d="M1051 393l63 -358q-135 -55 -344 -55q-285 0 -424 121.5t-176 365.5h-133v205h119v35q0 47 2 69h-121v205h139q43 264 186.5 368.5t399.5 104.5q188 0 321 -49l-32 -363q-92 41 -230 41q-129 0 -166 -102h301v-205h-329v-59v-45h266v-205h-242q18 -66 59.5 -91.5 t110.5 -25.5q142 0 230 43z" glyph-name="Euro" horiz-adv-x="1157" unicode="€"/><glyph d="M1847 616q-221 0 -306 105.5t-85 308.5q0 236 100.5 325t290.5 89q219 0 305 -105.5t86 -308.5q0 -236 -100.5 -325t-290.5 -89zM909 604v830h396v-1434h-580l-188 838h-19v-838h-393v1434h584l184 -830h16zM1847 1208q-35 0 -46 -35.5t-11 -142.5q0 -109 11 -143.5 t46 -34.5q33 0 44.5 35t11.5 143q0 106 -11.5 142t-44.5 36zM1456 254v276h782v-276h-782z" glyph-name="afii61352" horiz-adv-x="2297" unicode="№"/><glyph d="M541 1434v-174h-135v-543h-230v543h-137v174h502zM1348 1434v-717h-207v428h-4l-78 -256v-6h-172v6l-78 256h-4v-428h-205v717h266l103 -318h8l102 318h269z" glyph-name="trademark" horiz-adv-x="1492" unicode="™"/><glyph d="M1059 1475h266l-596 -1516h-266zM614 557h-585v217h161v438l-145 -41l-37 211l182 52h277v-660h147v-217zM1192 877h580v-226l-283 -651h-272l278 637v22h-303v218z" glyph-name="uni2150" horiz-adv-x="1789" unicode="⅐"/><glyph d="M1059 1475h266l-596 -1516h-266zM614 557h-585v217h161v438l-145 -41l-37 211l182 52h277v-660h147v-217zM1450 891q193 0 263.5 -66.5t70.5 -220.5q0 -209 -111 -399q-68 -117 -149 -205h-293q102 115 186 244q6 8 47 80h-20q-31 -6 -70 -7q-121 0 -183.5 60.5 t-62.5 220.5q0 166 77 229.5t245 63.5zM1456 672q-33 0 -44 -17.5t-11 -66.5q0 -45 11 -60.5t42 -15.5q33 0 45 16.5t12 63.5t-12 63.5t-43 16.5z" glyph-name="uni2151" horiz-adv-x="1804" unicode="⅑"/><glyph d="M1059 1475h266l-596 -1516h-266zM614 557h-585v217h161v438l-145 -41l-37 211l182 52h277v-660h147v-217zM2171 891q195 0 267.5 -110.5t72.5 -342.5q0 -256 -83 -353t-257 -97q-195 0 -268.5 109.5t-73.5 340.5q0 256 84 354.5t258 98.5zM1622 877v-660h147v-217h-585 v217h162v438l-146 -41l-37 211l183 52h276zM2171 201q33 0 44 47t11 190.5t-11 190.5t-44 47q-35 0 -46 -47t-11 -190.5t11 -190.5t46 -47z" glyph-name="uni2152" horiz-adv-x="2551" unicode="⅒"/><glyph d="M1059 1475h266l-596 -1516h-266zM614 557h-585v217h161v438l-145 -41l-37 211l182 52h277v-660h147v-217zM1649 463q111 -39 110 -193q0 -160 -86 -221t-260 -61q-158 0 -239 32l18 222q74 -31 205 -31q80 0 80 63q0 49 -14.5 65.5t-57.5 16.5h-117v199h105q39 0 51 12.5 t12 50.5q0 35 -14.5 46.5t-55.5 11.5q-125 0 -174 -25l-18 211q59 29 209 29q170 0 253 -55.5t83 -182.5q0 -137 -90 -184v-6z" glyph-name="onethird" horiz-adv-x="1796" unicode="⅓"/><glyph d="M1051 1475h266l-596 -1516h-266zM596 774v-217h-580v178q0 90 34 151.5t136 157.5l111 105q16 16 16 38.5t-11 32t-48 9.5q-51 0 -162 -19l-20 217q129 20 215 21q309 0 309 -238q0 -109 -96 -196l-121 -113q-39 -35 -54.5 -61.5t-17.5 -65.5h289zM1640 463 q111 -39 111 -193q0 -160 -86 -221t-260 -61q-158 0 -240 32l19 222q74 -31 205 -31q80 0 79 63q0 49 -14 65.5t-57 16.5h-117v199h104q39 0 51.5 12.5t12.5 50.5q0 35 -14.5 46.5t-55.5 11.5q-125 0 -174 -25l-18 211q59 29 209 29q170 0 253 -55.5t83 -182.5 q0 -137 -91 -184v-6z" glyph-name="twothirds" horiz-adv-x="1787" unicode="⅔"/><glyph d="M1059 1475h266l-596 -1516h-266zM614 557h-585v217h161v438l-145 -41l-37 211l182 52h277v-660h147v-217zM1466 567q174 -2 236.5 -68.5t62.5 -207.5q0 -172 -93 -237.5t-273 -65.5q-166 0 -246 30l12 226q76 -27 221 -27q51 0 74 16.5t23 57.5q0 43 -16.5 58.5 t-55.5 15.5h-225l16 512h535v-218h-269z" glyph-name="uni2155" horiz-adv-x="1792" unicode="⅕"/><glyph d="M1051 1475h266l-596 -1516h-266zM596 774v-217h-580v178q0 90 34 151.5t136 157.5l111 105q16 16 16 38.5t-11 32t-48 9.5q-51 0 -162 -19l-20 217q129 20 215 21q309 0 309 -238q0 -109 -96 -196l-121 -113q-39 -35 -54.5 -61.5t-17.5 -65.5h289zM1458 567 q174 -2 236.5 -68.5t62.5 -207.5q0 -172 -93 -237.5t-273 -65.5q-166 0 -246 30l12 226q76 -27 221 -27q51 0 74 16.5t23 57.5q0 43 -16.5 58.5t-55.5 15.5h-225l16 512h535v-218h-269z" glyph-name="uni2156" horiz-adv-x="1783" unicode="⅖"/><glyph d="M1008 1475h266l-596 -1516h-266zM604 827q0 -160 -86 -221t-260 -61q-158 0 -240 33l19 221q74 -31 205 -31q80 0 80 63q0 49 -14.5 65.5t-57.5 16.5h-117v199h105q39 0 51 12.5t12 51.5q0 35 -14.5 46t-55.5 11q-125 0 -174 -25l-18 211q59 29 209 29q170 0 253 -55.5 t83 -182.5q0 -137 -90 -184v-6q110 -39 110 -193zM1415 567q174 -2 236.5 -68.5t62.5 -207.5q0 -172 -93 -237.5t-273 -65.5q-166 0 -246 30l12 226q76 -27 221 -27q51 0 74 16.5t23 57.5q0 43 -16.5 58.5t-55.5 15.5h-225l16 512h535v-218h-269z" glyph-name="uni2157" horiz-adv-x="1740" unicode="⅗"/><glyph d="M1151 1475h266l-596 -1516h-266zM653 557h-235v143h-381v240l194 494h242l-176 -494h2v-22h119v219h235v-219h74v-218h-74v-143zM1559 567q174 -2 236.5 -68.5t62.5 -207.5q0 -172 -93.5 -237.5t-273.5 -65.5q-166 0 -246 30l12 226q76 -27 222 -27q51 0 73.5 16.5 t22.5 57.5q0 43 -16.5 58.5t-55.5 15.5h-225l16 512h535v-218h-268z" glyph-name="uni2158" horiz-adv-x="1884" unicode="⅘"/><glyph d="M1059 1475h266l-596 -1516h-266zM614 557h-585v217h161v438l-145 -41l-37 211l182 52h277v-660h147v-217zM1462 559q123 0 185.5 -59.5t62.5 -218.5q0 -168 -77 -230.5t-244 -62.5q-195 0 -264.5 66.5t-69.5 219.5q0 205 108 398q59 104 150 205h295q-115 -127 -189 -242 q-33 -51 -47 -82h21q30 6 69 6zM1382 205q33 0 44.5 17.5t11.5 66.5q0 45 -11.5 61.5t-42.5 16.5q-33 0 -45 -17.5t-12 -62.5q0 -49 12 -65.5t43 -16.5z" glyph-name="uni2159" horiz-adv-x="1724" unicode="⅙"/><glyph d="M1065 1475h266l-596 -1516h-266zM672 848q0 -172 -93.5 -237.5t-273.5 -65.5q-166 0 -246 30l13 226q76 -27 221 -27q51 0 73.5 16.5t22.5 57.5q0 43 -16.5 58.5t-55.5 15.5h-225l17 512h534v-217h-268l-2 -93q174 -2 236.5 -68.5t62.5 -207.5zM1468 559 q123 0 185.5 -59.5t62.5 -218.5q0 -168 -76.5 -230.5t-244.5 -62.5q-195 0 -264.5 66.5t-69.5 219.5q0 205 108 398q59 104 150 205h295q-115 -127 -189 -242q-33 -51 -47 -82h21q30 6 69 6zM1389 205q33 0 44 17.5t11 66.5q0 45 -11.5 61.5t-41.5 16.5q-33 0 -45.5 -17.5 t-12.5 -62.5q0 -49 12.5 -65.5t43.5 -16.5z" glyph-name="uni215A" horiz-adv-x="1730" unicode="⅚"/><glyph d="M1059 1475h266l-596 -1516h-266zM614 557h-585v217h161v438l-145 -41l-37 211l182 52h277v-660h147v-217zM1661 455q145 -43 145 -207q0 -150 -85 -205t-261 -55q-199 0 -273.5 62.5t-74.5 197.5q0 162 145 207v8q-119 47 -118 190q0 135 79.5 186.5t241.5 51.5 q180 0 250 -61.5t70 -182.5q0 -139 -119 -184v-8zM1460 682q-33 0 -43 -13.5t-10 -54.5t10 -55t43 -14q31 0 41 14t10 55t-10 54.5t-41 13.5zM1460 203q39 0 52.5 15t13.5 61q0 47 -13.5 63t-52.5 16q-41 0 -54 -16t-13 -63q0 -45 13 -60.5t54 -15.5z" glyph-name="oneeighth" horiz-adv-x="1841" unicode="⅛"/><glyph d="M1008 1475h266l-596 -1516h-266zM604 827q0 -160 -86 -221t-260 -61q-158 0 -240 33l19 221q74 -31 205 -31q80 0 80 63q0 49 -14.5 65.5t-57.5 16.5h-117v199h105q39 0 51 12.5t12 51.5q0 35 -14.5 46t-55.5 11q-125 0 -174 -25l-18 211q59 29 209 29q170 0 253 -55.5 t83 -182.5q0 -137 -90 -184v-6q110 -39 110 -193zM1610 455q145 -43 145 -207q0 -150 -85 -205t-261 -55q-199 0 -273.5 62.5t-74.5 197.5q0 162 145 207v8q-119 47 -119 190q0 135 80 186.5t242 51.5q180 0 250 -61.5t70 -182.5q0 -139 -119 -184v-8zM1409 682 q-33 0 -43 -13.5t-10 -54.5t10 -55t43 -14q31 0 41 14t10 55t-10 54.5t-41 13.5zM1409 203q39 0 52.5 15t13.5 61q0 47 -13.5 63t-52.5 16q-41 0 -54.5 -16t-13.5 -63q0 -45 13.5 -60.5t54.5 -15.5z" glyph-name="threeeighths" horiz-adv-x="1789" unicode="⅜"/><glyph d="M1065 1475h266l-596 -1516h-266zM672 848q0 -172 -93.5 -237.5t-273.5 -65.5q-166 0 -246 30l13 226q76 -27 221 -27q51 0 73.5 16.5t22.5 57.5q0 43 -16.5 58.5t-55.5 15.5h-225l17 512h534v-217h-268l-2 -93q174 -2 236.5 -68.5t62.5 -207.5zM1667 455 q145 -43 145 -207q0 -150 -85 -205t-261 -55q-199 0 -273.5 62.5t-74.5 197.5q0 162 146 207v8q-119 47 -119 190q0 135 80 186.5t241 51.5q180 0 250 -61.5t70 -182.5q0 -139 -119 -184v-8zM1466 682q-33 0 -43 -13.5t-10 -54.5t10.5 -55t42.5 -14q31 0 41.5 14t10.5 55 t-10.5 54.5t-41.5 13.5zM1466 203q39 0 52.5 15t13.5 61q0 47 -13.5 63t-52.5 16q-41 0 -54 -16t-13 -63q0 -45 13 -60.5t54 -15.5z" glyph-name="fiveeighths" horiz-adv-x="1847" unicode="⅝"/><glyph d="M899 1475h266l-596 -1516h-266zM41 557l278 637v23h-303v217h580v-226l-283 -651h-272zM1501 455q145 -43 146 -207q0 -150 -85 -205t-262 -55q-199 0 -273.5 62.5t-74.5 197.5q0 162 146 207v8q-119 47 -119 190q0 135 80 186.5t241 51.5q180 0 250 -61.5t70 -182.5 q0 -139 -119 -184v-8zM1300 682q-33 0 -43 -13.5t-10 -54.5t10.5 -55t42.5 -14q31 0 41.5 14t10.5 55t-10.5 54.5t-41.5 13.5zM1300 203q39 0 52.5 15t13.5 61q0 47 -13.5 63t-52.5 16q-41 0 -54 -16t-13 -63q0 -45 13 -60.5t54 -15.5z" glyph-name="seveneighths" horiz-adv-x="1681" unicode="⅞"/><glyph d="M1059 1475h266l-596 -1516h-266zM614 557h-585v217h161v438l-145 -41l-37 211l182 52h277v-660h147v-217z" glyph-name="uni215F" horiz-adv-x="1359" unicode="⅟"/><glyph d="M121 739h1067v-327h-1067v327z" glyph-name="minus" horiz-adv-x="1310" unicode="−"/><glyph d="M350 547l-237 78q0 166 93 267t243 101q98 0 194 -57l160 -96q29 -16 57 -17q74 0 98 123l238 -78q0 -170 -96 -269t-240 -99q-100 0 -194 57l-160 96q-31 16 -57 17q-74 0 -99 -123zM350 51l-237 78q0 166 93 267.5t243 101.5q98 0 194 -58l160 -96q29 -16 57 -16 q74 0 98 123l238 -78q0 -170 -96 -269.5t-240 -99.5q-100 0 -194 57l-160 97q-31 16 -57 16q-74 0 -99 -123z" glyph-name="approxequal" horiz-adv-x="1310" unicode="≈"/><glyph d="M1188 653h-361l-45 -137h406v-328h-516l-72 -217h-297l72 217h-254v328h364l45 137h-409v328h520l68 203h297l-68 -203h250v-328z" glyph-name="notequal" horiz-adv-x="1310" unicode="≠"/><glyph d="M1116 1012l-573 -174v-35l573 -174v-344l-921 305v463l921 303v-344zM195 -115v328h921v-328h-921z" glyph-name="lessequal" horiz-adv-x="1310" unicode="≤"/><glyph d="M195 1356l921 -303v-463l-921 -305v344l573 174v35l-573 174v344zM195 -115v328h921v-328h-921z" glyph-name="greaterequal" horiz-adv-x="1310" unicode="≥"/><glyph d="M866.5 -20q-319.5 0 -527.5 206.5t-208 530t208 530.5t527.5 207t527.5 -207t208 -530.5t-208 -530t-527.5 -206.5zM866.5 135q243.5 0 401 163t157.5 419t-157.5 418.5t-401.5 162.5q-240 0 -399.5 -163.5t-159.5 -417.5q0 -256 158 -419t401.5 -163zM584 291v217h161 v438l-145 -41l-37 211l182 51h277v-659h147v-217h-585z" glyph-name="uni2460" horiz-adv-x="1730" unicode="①"/><glyph d="M866.5 -20q-319.5 0 -527.5 206.5t-208 530t208 530.5t527.5 207t527.5 -207t208 -530.5t-208 -530t-527.5 -206.5zM866.5 135q243.5 0 401 163t157.5 419t-157.5 418.5t-401.5 162.5q-240 0 -399.5 -163.5t-159.5 -417.5q0 -256 158 -419t401.5 -163zM578 291v174 q0 92 32.5 154.5t134.5 158.5l111 105q16 14 16 38.5t-10 33t-49 8.5q-47 0 -162 -19l-18 217q113 18 215 19q307 0 307 -236q0 -109 -96 -196l-121 -113q-70 -68 -70 -121v-6h287v-217h-577z" glyph-name="uni2461" horiz-adv-x="1730" unicode="②"/><glyph d="M866.5 -20q-319.5 0 -527.5 206.5t-208 530t208 530.5t527.5 207t527.5 -207t208 -530.5t-208 -530t-527.5 -206.5zM866.5 135q243.5 0 401 163t157.5 419t-157.5 418.5t-401.5 162.5q-240 0 -399.5 -163.5t-159.5 -417.5q0 -256 158 -419t401.5 -163zM834 276 q-160 0 -240 35l20 221q74 -31 205 -30q80 0 80 63q0 49 -14.5 65.5t-57.5 16.5h-118v199h106q39 0 51.5 12t12.5 51q0 35 -15.5 46.5t-54.5 11.5q-123 0 -176 -25l-19 211q55 27 211 27q170 0 253 -54.5t83 -181.5q0 -137 -90 -184v-6q111 -39 111 -193q0 -160 -87 -222.5 t-261 -62.5z" glyph-name="uni2462" horiz-adv-x="1730" unicode="③"/><glyph d="M866.5 -20q-319.5 0 -527.5 206.5t-208 530t208 530.5t527.5 207t527.5 -207t208 -530.5t-208 -530t-527.5 -206.5zM866.5 135q243.5 0 401 163t157.5 419t-157.5 418.5t-401.5 162.5q-240 0 -399.5 -163.5t-159.5 -417.5q0 -256 158 -419t401.5 -163zM889 293v143h-379 v240l195 493h241l-174 -493v-23h117v219h235v-219h74v-217h-74v-143h-235z" glyph-name="uni2463" horiz-adv-x="1730" unicode="④"/><glyph d="M866.5 -20q-319.5 0 -527.5 206.5t-208 530t208 530.5t527.5 207t527.5 -207t208 -530.5t-208 -530t-527.5 -206.5zM866.5 135q243.5 0 401 163t157.5 419t-157.5 418.5t-401.5 162.5q-240 0 -399.5 -163.5t-159.5 -417.5q0 -256 158 -419t401.5 -163zM805 276 q-158 0 -246 33l12 226q76 -27 222 -27q53 0 74.5 16.5t21.5 57.5q0 43 -15.5 58t-52.5 15h-229l16 512h535v-217h-266l-5 -92h9q168 0 230.5 -67.5t62.5 -208.5q0 -172 -94.5 -239t-274.5 -67z" glyph-name="uni2464" horiz-adv-x="1730" unicode="⑤"/><glyph d="M866.5 -20q-319.5 0 -527.5 206.5t-208 530t208 530.5t527.5 207t527.5 -207t208 -530.5t-208 -530t-527.5 -206.5zM866.5 135q243.5 0 401 163t157.5 419t-157.5 418.5t-401.5 162.5q-240 0 -399.5 -163.5t-159.5 -417.5q0 -256 158 -419t401.5 -163zM854 287 q-193 0 -262.5 66.5t-69.5 219.5q0 207 109 400q59 104 149 205h293q-111 -129 -186 -242q-27 -43 -47 -82h10q35 6 80 6q121 0 184.5 -60.5t63.5 -219.5q0 -166 -78 -229.5t-246 -63.5zM850 506q33 0 44 18.5t11 65.5q0 45 -12 60.5t-43 15.5q-33 0 -44 -16.5t-11 -61.5 q0 -49 12 -65.5t43 -16.5z" glyph-name="uni2465" horiz-adv-x="1730" unicode="⑥"/><glyph d="M866.5 -20q-319.5 0 -527.5 206.5t-208 530t208 530.5t527.5 207t527.5 -207t208 -530.5t-208 -530t-527.5 -206.5zM866.5 135q243.5 0 401 163t157.5 419t-157.5 418.5t-401.5 162.5q-240 0 -399.5 -163.5t-159.5 -417.5q0 -256 158 -419t401.5 -163zM621 264l278 637 v23h-303v217h580v-226l-283 -651h-272z" glyph-name="uni2466" horiz-adv-x="1730" unicode="⑦"/><glyph d="M866.5 -20q-319.5 0 -527.5 206.5t-208 530t208 530.5t527.5 207t527.5 -207t208 -530.5t-208 -530t-527.5 -206.5zM866.5 135q243.5 0 401 163t157.5 419t-157.5 418.5t-401.5 162.5q-240 0 -399.5 -163.5t-159.5 -417.5q0 -256 158 -419t401.5 -163zM866 279 q-197 0 -271.5 62t-74.5 198q0 162 146 206v9q-119 45 -119 190q0 135 80 186.5t239 51.5q180 0 250 -61.5t70 -182.5q0 -139 -117 -184v-9q143 -45 143 -206q0 -150 -84 -205t-262 -55zM866 836q33 0 43.5 14t10.5 55t-10.5 54.5t-43.5 13.5q-31 0 -42 -13.5t-11 -54.5 t11 -55t42 -14zM866 494q39 0 52.5 14t13.5 61t-13.5 63.5t-52.5 16.5t-52 -16.5t-13 -63.5t13 -61t52 -14z" glyph-name="uni2467" horiz-adv-x="1730" unicode="⑧"/><glyph d="M866.5 -20q-319.5 0 -527.5 206.5t-208 530t208 530.5t527.5 207t527.5 -207t208 -530.5t-208 -530t-527.5 -206.5zM866.5 135q243.5 0 401 163t157.5 419t-157.5 418.5t-401.5 162.5q-240 0 -399.5 -163.5t-159.5 -417.5q0 -256 158 -419t401.5 -163zM643 283 q78 90 184 243q23 35 47 78h-18q-41 -4 -70 -4q-121 0 -184 60.5t-63 220.5q0 166 76.5 228t244.5 62q195 0 264.5 -66.5t69.5 -219.5q0 -209 -111 -398q-66 -115 -147 -204h-293zM864 793q35 0 46.5 17t11.5 64.5t-11.5 63.5t-44 16t-44 -18t-11.5 -66q0 -45 11 -61t42 -16 z" glyph-name="uni2468" horiz-adv-x="1730" unicode="⑨"/><glyph d="M866.5 -20q-319.5 0 -527.5 206.5t-208 530t208 530.5t527.5 207t527.5 -207t208 -530.5t-208 -530t-527.5 -206.5zM866.5 135q243.5 0 401 163t157.5 419t-157.5 418.5t-401.5 162.5q-240 0 -399.5 -163.5t-159.5 -417.5q0 -256 158 -419t401.5 -163zM866 276 q-193 0 -266.5 111t-73.5 342q0 256 83 353.5t257 97.5q195 0 267.5 -109.5t72.5 -341.5q0 -258 -83 -355.5t-257 -97.5zM866 492q35 0 46.5 48t11.5 189t-11.5 189.5t-46.5 48.5t-46 -48.5t-11 -189.5t11 -189t46 -48z" glyph-name="uni24EA" horiz-adv-x="1730" unicode="⓪"/><glyph d="M866.5 -20q-319.5 0 -527.5 206.5t-208 530t208 530.5t527.5 207t527.5 -207t208 -530.5t-208 -530t-527.5 -206.5zM866 276q174 0 257 97.5t83 355.5q0 231 -72.5 341t-267.5 110q-174 0 -257 -97.5t-83 -353.5q0 -231 73.5 -342t266.5 -111zM866 492q-35 0 -46 48 t-11 189t11 189.5t46 48.5t46.5 -48.5t11.5 -189.5t-11.5 -189t-46.5 -48z" glyph-name="uni24FF" horiz-adv-x="1730" unicode="⓿"/><glyph d="M866.5 -20q-319.5 0 -527.5 206.5t-208 530t208 530.5t527.5 207t527.5 -207t208 -530.5t-208 -530t-527.5 -206.5zM584 291h585v217h-147v659h-277l-182 -51l37 -211l145 41v-438h-161v-217z" glyph-name="uni2776" horiz-adv-x="1730" unicode="❶"/><glyph d="M866.5 -20q-319.5 0 -527.5 206.5t-208 530t208 530.5t527.5 207t527.5 -207t208 -530.5t-208 -530t-527.5 -206.5zM578 291h577v217h-287v6q6 59 70 121l121 113q96 88 96 196q0 236 -307 236q-102 0 -215 -19l18 -217q115 18 162 19q39 0 49 -8.5t10 -33t-16 -38.5 l-111 -105q-102 -96 -134.5 -158.5t-32.5 -154.5v-174z" glyph-name="uni2777" horiz-adv-x="1730" unicode="❷"/><glyph d="M866.5 -20q-319.5 0 -527.5 206.5t-208 530t208 530.5t527.5 207t527.5 -207t208 -530.5t-208 -530t-527.5 -206.5zM834 276q174 0 261 62.5t87 222.5q0 154 -111 193v6q90 47 90 184q0 127 -83 181.5t-253 54.5q-156 0 -211 -27l19 -211q53 25 176 25q39 0 54.5 -11.5 t15.5 -46.5q0 -39 -12.5 -51t-51.5 -12h-106v-199h118q43 0 57.5 -16.5t14.5 -65.5q0 -63 -80 -63q-131 0 -205 30l-20 -221q80 -35 240 -35z" glyph-name="uni2778" horiz-adv-x="1730" unicode="❸"/><glyph d="M866.5 -20q-319.5 0 -527.5 206.5t-208 530t208 530.5t527.5 207t527.5 -207t208 -530.5t-208 -530t-527.5 -206.5zM889 293h235v143h74v217h-74v219h-235v-219h-117v23l174 493h-241l-195 -493v-240h379v-143z" glyph-name="uni2779" horiz-adv-x="1730" unicode="❹"/><glyph d="M866.5 -20q-319.5 0 -527.5 206.5t-208 530t208 530.5t527.5 207t527.5 -207t208 -530.5t-208 -530t-527.5 -206.5zM805 276q180 0 274.5 67t94.5 239q0 141 -62.5 208.5t-230.5 67.5h-9l5 92h266v217h-535l-16 -512h229q37 0 52.5 -15t15.5 -58q0 -41 -21.5 -57.5 t-74.5 -16.5q-145 0 -222 27l-12 -226q88 -33 246 -33z" glyph-name="uni277A" horiz-adv-x="1730" unicode="❺"/><glyph d="M866.5 -20q-319.5 0 -527.5 206.5t-208 530t208 530.5t527.5 207t527.5 -207t208 -530.5t-208 -530t-527.5 -206.5zM854 287q168 0 246 63.5t78 229.5q0 160 -63.5 220t-184.5 60q-45 0 -80 -6h-10q20 39 47 82q76 113 186 242h-293q-90 -100 -149 -205 q-109 -193 -109 -400q0 -154 69.5 -220t262.5 -66zM850 506q-31 0 -43 16.5t-12 65.5q0 45 11 61.5t44 16.5q31 0 43 -15.5t12 -60.5q0 -47 -11 -65.5t-44 -18.5z" glyph-name="uni277B" horiz-adv-x="1730" unicode="❻"/><glyph d="M866.5 -20q-319.5 0 -527.5 206.5t-208 530t208 530.5t527.5 207t527.5 -207t208 -530.5t-208 -530t-527.5 -206.5zM621 289h272l283 651v225h-580v-217h303v-22z" glyph-name="uni277C" horiz-adv-x="1730" unicode="❼"/><glyph d="M866.5 -20q-319.5 0 -527.5 206.5t-208 530t208 530.5t527.5 207t527.5 -207t208 -530.5t-208 -530t-527.5 -206.5zM866 279q178 0 262 55t84 205q0 162 -143 206v9q117 45 117 184q0 121 -69.5 182.5t-250.5 61.5q-160 0 -239.5 -51.5t-79.5 -186.5q0 -145 119 -190v-9 q-145 -45 -146 -206q0 -135 74.5 -197.5t271.5 -62.5zM866 836q-31 0 -42 14t-11 55t11.5 54.5t41.5 13.5q33 0 43.5 -13.5t10.5 -54.5t-10.5 -55t-43.5 -14zM866 494q-39 0 -52 14t-13 61t13 63.5t52 16.5t52.5 -16.5t13.5 -63.5t-13.5 -61t-52.5 -14z" glyph-name="uni277D" horiz-adv-x="1730" unicode="❽"/><glyph d="M866.5 -20q-319.5 0 -527.5 206.5t-208 530t208 530.5t527.5 207t527.5 -207t208 -530.5t-208 -530t-527.5 -206.5zM643 283h293q82 90 147 204q111 188 111 398q0 154 -69.5 220t-264.5 66q-168 0 -244.5 -62t-76.5 -228q0 -160 63.5 -220.5t183.5 -60.5q29 0 70 4h18 q-25 -43 -47 -78q-106 -153 -184 -243zM864 793q-31 0 -42 16t-11 61q0 47 11.5 65.5t44 18.5t44 -16t11.5 -63.5t-11.5 -64.5t-46.5 -17z" glyph-name="uni277E" horiz-adv-x="1730" unicode="❾"/><glyph d="M657 1126h441v-1106l-402 -34l-20 129h-14q-55 -135 -222 -135q-221 0 -306 145t-85 428q0 336 97.5 465t287.5 129q150 0 207 -103h16v82zM502 561.5q0 -153.5 17.5 -207t64.5 -53.5t60 33t13 135v188q0 104 -13 136t-60 32q-49 0 -65.5 -55t-16.5 -208.5z" glyph-name="a.ss01" horiz-adv-x="1196"/><glyph d="M963 1704l-267 -408h-256l160 408h363zM657 1126h441v-1106l-402 -34l-20 129h-14q-55 -135 -222 -135q-221 0 -306 145t-85 428q0 336 97.5 465t287.5 129q150 0 207 -103h16v82zM502 561.5q0 -153.5 17.5 -207t64.5 -53.5t60 33t13 135v188q0 104 -13 136t-60 32 q-49 0 -65.5 -55t-16.5 -208.5z" glyph-name="aacute.aalt" horiz-adv-x="1196"/><glyph d="M567 1251q-205 0 -283.5 83t-78.5 245v43h225v-25q0 -61 31 -86.5t104 -25.5q70 0 102.5 21.5t32.5 90.5v25h226v-43q0 -184 -91.5 -256t-267.5 -72zM657 1126h441v-1106l-402 -34l-20 129h-14q-55 -135 -222 -135q-221 0 -306 145t-85 428q0 336 97.5 465t287.5 129 q150 0 207 -103h16v82zM502 561.5q0 -153.5 17.5 -207t64.5 -53.5t60 33t13 135v188q0 104 -13 136t-60 32q-49 0 -65.5 -55t-16.5 -208.5z" glyph-name="abreve.aalt" horiz-adv-x="1196"/><glyph d="M956 2089l-266 -408h-254l158 408h362zM567 1251q-205 0 -283.5 83t-78.5 245v43h225v-25q0 -61 31 -86.5t104 -25.5q70 0 102.5 21.5t32.5 90.5v25h226v-43q0 -184 -91.5 -256t-267.5 -72zM657 1126h441v-1106l-402 -34l-20 129h-14q-55 -135 -222 -135q-221 0 -306 145 t-85 428q0 336 97.5 465t287.5 129q150 0 207 -103h16v82zM502 561.5q0 -153.5 17.5 -207t64.5 -53.5t60 33t13 135v188q0 104 -13 136t-60 32q-49 0 -65.5 -55t-16.5 -208.5z" glyph-name="uni1EAF.aalt" horiz-adv-x="1196"/><glyph d="M567 1251q-205 0 -283.5 83t-78.5 245v43h225v-25q0 -61 31 -86.5t104 -25.5q70 0 102.5 21.5t32.5 90.5v25h226v-43q0 -184 -91.5 -256t-267.5 -72zM657 1126h441v-1106l-402 -34l-20 129h-14q-55 -135 -222 -135q-221 0 -306 145t-85 428q0 336 97.5 465t287.5 129 q150 0 207 -103h16v82zM502 561.5q0 -153.5 17.5 -207t64.5 -53.5t60 33t13 135v188q0 104 -13 136t-60 32q-49 0 -65.5 -55t-16.5 -208.5zM401 -432v287h328v-287h-328z" glyph-name="uni1EB7.aalt" horiz-adv-x="1196"/><glyph d="M696 1683h-256l-266 408h363zM565 1485q70 0 102.5 21.5t32.5 90.5v25h226v-43q0 -184 -91.5 -256t-267.5 -72q-205 0 -283.5 83t-78.5 245v43h225v-25q0 -61 30.5 -86.5t104.5 -25.5zM657 1126h441v-1106l-402 -34l-20 129h-14q-55 -135 -222 -135q-221 0 -306 145 t-85 428q0 336 97.5 465t287.5 129q150 0 207 -103h16v82zM502 561.5q0 -153.5 17.5 -207t64.5 -53.5t60 33t13 135v188q0 104 -13 136t-60 32q-49 0 -65.5 -55t-16.5 -208.5z" glyph-name="uni1EB1.aalt" horiz-adv-x="1196"/><glyph d="M543 1946q-55 0 -115 -7l-14 158q123 16 190 17q135 0 184.5 -40t49.5 -128q0 -84 -58 -134l-78 -63q-47 -39 -47 -100h-178q0 84 10.5 118.5t42.5 59.5l37 28q45 33 45 58q0 20 -14 26.5t-55 6.5zM567 1251q-205 0 -283.5 83t-78.5 245v43h225v-25q0 -61 31 -86.5 t104 -25.5q70 0 102.5 21.5t32.5 90.5v25h226v-43q0 -184 -91.5 -256t-267.5 -72zM657 1126h441v-1106l-402 -34l-20 129h-14q-55 -135 -222 -135q-221 0 -306 145t-85 428q0 336 97.5 465t287.5 129q150 0 207 -103h16v82zM502 561.5q0 -153.5 17.5 -207t64.5 -53.5t60 33 t13 135v188q0 104 -13 136t-60 32q-49 0 -65.5 -55t-16.5 -208.5z" glyph-name="uni1EB3.aalt" horiz-adv-x="1196"/><glyph d="M430 1815q-57 0 -76 -97h-166q0 147 67 237.5t181 90.5q82 0 160 -51l66 -43q41 -27 61 -27q53 0 70 96h168q0 -160 -66 -242.5t-182 -82.5q-92 0 -156 49l-68 49q-28 21 -59 21zM205 1622h225v-25q0 -61 31 -86.5t104 -25.5q70 0 102.5 21.5t32.5 90.5v25h226v-43 q0 -184 -91.5 -256t-267.5 -72q-205 0 -283.5 83t-78.5 245v43zM657 1126h441v-1106l-402 -34l-20 129h-14q-55 -135 -222 -135q-221 0 -306 145t-85 428q0 336 97.5 465t287.5 129q150 0 207 -103h16v82zM502 561.5q0 -153.5 17.5 -207t64.5 -53.5t60 33t13 135v188 q0 104 -13 136t-60 32q-49 0 -65.5 -55t-16.5 -208.5z" glyph-name="uni1EB5.aalt" horiz-adv-x="1196"/><glyph d="M371 1288l-265 408h275l180 -215l180 215h277l-266 -408h-381zM657 1126h441v-1106l-402 -34l-20 129h-14q-55 -135 -222 -135q-221 0 -306 145t-85 428q0 336 97.5 465t287.5 129q150 0 207 -103h16v82zM502 561.5q0 -153.5 17.5 -207t64.5 -53.5t60 33t13 135v188 q0 104 -13 136t-60 32q-49 0 -65.5 -55t-16.5 -208.5z" glyph-name="uni01CE.aalt" horiz-adv-x="1196"/><glyph d="M565 1503l-180 -215h-274l264 408h381l266 -408h-277zM657 1126h441v-1106l-402 -34l-20 129h-14q-55 -135 -222 -135q-221 0 -306 145t-85 428q0 336 97.5 465t287.5 129q150 0 207 -103h16v82zM502 561.5q0 -153.5 17.5 -207t64.5 -53.5t60 33t13 135v188 q0 104 -13 136t-60 32q-49 0 -65.5 -55t-16.5 -208.5z" glyph-name="acircumflex.aalt" horiz-adv-x="1196"/><glyph d="M1083 1944h363l-264 -408h-256zM565 1503l-180 -215h-274l264 408h381l266 -408h-277zM657 1044v82h441v-1106l-402 -34l-20 129h-14q-55 -135 -222 -135q-221 0 -306 145t-85 428q0 336 97.5 465t287.5 129q150 0 207 -103h16zM502 561.5q0 -153.5 17.5 -207t64.5 -53.5 t60 33t13 135v188q0 104 -13 136t-60 32q-49 0 -65.5 -55t-16.5 -208.5z" glyph-name="uni1EA5.aalt" horiz-adv-x="1196"/><glyph d="M565 1503l-180 -215h-274l264 408h381l266 -408h-277zM657 1126h441v-1106l-402 -34l-20 129h-14q-55 -135 -222 -135q-221 0 -306 145t-85 428q0 336 97.5 465t287.5 129q150 0 207 -103h16v82zM502 561.5q0 -153.5 17.5 -207t64.5 -53.5t60 33t13 135v188 q0 104 -13 136t-60 32q-49 0 -65.5 -55t-16.5 -208.5zM401 -432v287h328v-287h-328z" glyph-name="uni1EAD.aalt" horiz-adv-x="1196"/><glyph d="M1241 1536h-256l-264 408h362zM565 1503l-180 -215h-274l264 408h381l266 -408h-277zM657 1044v82h441v-1106l-402 -34l-20 129h-14q-55 -135 -222 -135q-221 0 -306 145t-85 428q0 336 97.5 465t287.5 129q150 0 207 -103h16zM502 561.5q0 -153.5 17.5 -207t64.5 -53.5 t60 33t13 135v188q0 104 -13 136t-60 32q-49 0 -65.5 -55t-16.5 -208.5z" glyph-name="uni1EA7.aalt" horiz-adv-x="1196"/><glyph d="M1057 2001q135 0 184 -39t49 -129q0 -86 -57 -131l-78 -66q-47 -39 -47 -100h-178q0 84 10 120t43 60l39 27q43 33 43 57q0 20 -13.5 26.5t-56.5 6.5q-33 0 -114 -4l-15 156q123 16 191 16zM565 1503l-180 -215h-274l264 408h381l266 -408h-277zM657 1044v82h441v-1106 l-402 -34l-20 129h-14q-55 -135 -222 -135q-221 0 -306 145t-85 428q0 336 97.5 465t287.5 129q150 0 207 -103h16zM502 561.5q0 -153.5 17.5 -207t64.5 -53.5t60 33t13 135v188q0 104 -13 136t-60 32q-49 0 -65.5 -55t-16.5 -208.5z" glyph-name="uni1EA9.aalt" horiz-adv-x="1196"/><glyph d="M420 1880q-59 0 -76 -96h-168q0 150 67.5 240t182.5 90q74 0 160 -54l65 -43q37 -25 62 -24q51 0 69 96h166q2 -160 -63.5 -244t-184.5 -84q-90 0 -153 49l-68 50q-28 20 -59 20zM565 1503l-180 -215h-274l264 408h381l266 -408h-277zM657 1126h441v-1106l-402 -34 l-20 129h-14q-55 -135 -222 -135q-221 0 -306 145t-85 428q0 336 97.5 465t287.5 129q150 0 207 -103h16v82zM502 561.5q0 -153.5 17.5 -207t64.5 -53.5t60 33t13 135v188q0 104 -13 136t-60 32q-49 0 -65.5 -55t-16.5 -208.5z" glyph-name="uni1EAB.aalt" horiz-adv-x="1196"/><glyph d="M436 1296h-243l-287 408h360zM899 1296h-244l-284 408h360zM657 1126h441v-1106l-402 -34l-20 129h-14q-55 -135 -222 -135q-221 0 -306 145t-85 428q0 336 97.5 465t287.5 129q150 0 207 -103h16v82zM502 561.5q0 -153.5 17.5 -207t64.5 -53.5t60 33t13 135v188 q0 104 -13 136t-60 32q-49 0 -65.5 -55t-16.5 -208.5z" glyph-name="uni0201.aalt" horiz-adv-x="1196"/><glyph d="M487 1604v-287h-327v287h327zM973 1604v-287h-328v287h328zM657 1126h441v-1106l-402 -34l-20 129h-14q-55 -135 -222 -135q-221 0 -306 145t-85 428q0 336 97.5 465t287.5 129q150 0 207 -103h16v82zM502 561.5q0 -153.5 17.5 -207t64.5 -53.5t60 33t13 135v188 q0 104 -13 136t-60 32q-49 0 -65.5 -55t-16.5 -208.5z" glyph-name="adieresis.aalt" horiz-adv-x="1196"/><glyph d="M657 1126h441v-1106l-402 -34l-20 129h-14q-55 -135 -222 -135q-221 0 -306 145t-85 428q0 336 97.5 465t287.5 129q150 0 207 -103h16v82zM502 561.5q0 -153.5 17.5 -207t64.5 -53.5t60 33t13 135v188q0 104 -13 136t-60 32q-49 0 -65.5 -55t-16.5 -208.5zM401 -432v287 h328v-287h-328z" glyph-name="uni1EA1.aalt" horiz-adv-x="1196"/><glyph d="M680 1296h-256l-266 408h362zM657 1126h441v-1106l-402 -34l-20 129h-14q-55 -135 -222 -135q-221 0 -306 145t-85 428q0 336 97.5 465t287.5 129q150 0 207 -103h16v82zM502 561.5q0 -153.5 17.5 -207t64.5 -53.5t60 33t13 135v188q0 104 -13 136t-60 32 q-49 0 -65.5 -55t-16.5 -208.5z" glyph-name="agrave.aalt" horiz-adv-x="1196"/><glyph d="M539 1599q-53 0 -115 -6l-14 158q109 14 190 14q135 0 184.5 -38.5t49.5 -127t-58 -133.5l-78 -65q-47 -39 -47 -101h-178q0 84 10.5 120t42.5 61l39 28q43 33 43 58q0 20 -13 26t-56 6zM657 1126h441v-1106l-402 -34l-20 129h-14q-55 -135 -222 -135q-221 0 -306 145 t-85 428q0 336 97.5 465t287.5 129q150 0 207 -103h16v82zM502 561.5q0 -153.5 17.5 -207t64.5 -53.5t60 33t13 135v188q0 104 -13 136t-60 32q-49 0 -65.5 -55t-16.5 -208.5z" glyph-name="uni1EA3.aalt" horiz-adv-x="1196"/><glyph d="M430 1274v-23h-225v43q0 162 78.5 245t283.5 83q176 0 267.5 -71.5t91.5 -256.5v-43h-226v23q0 72 -32.5 93.5t-102.5 21.5q-74 0 -104.5 -27t-30.5 -88zM657 1126h441v-1106l-402 -34l-20 129h-14q-55 -135 -222 -135q-221 0 -306 145t-85 428q0 336 97.5 465t287.5 129 q150 0 207 -103h16v82zM502 561.5q0 -153.5 17.5 -207t64.5 -53.5t60 33t13 135v188q0 104 -13 136t-60 32q-49 0 -65.5 -55t-16.5 -208.5z" glyph-name="uni0203.aalt" horiz-adv-x="1196"/><glyph d="M877 1591v-286h-621v286h621zM657 1126h441v-1106l-402 -34l-20 129h-14q-55 -135 -222 -135q-221 0 -306 145t-85 428q0 336 97.5 465t287.5 129q150 0 207 -103h16v82zM502 561.5q0 -153.5 17.5 -207t64.5 -53.5t60 33t13 135v188q0 104 -13 136t-60 32 q-49 0 -65.5 -55t-16.5 -208.5z" glyph-name="amacron.aalt" horiz-adv-x="1196"/><glyph d="M1104 -279l39 -217q-59 -8 -129 -8q-365 0 -365 271q0 125 105 223l-58 -4l-20 129h-14q-55 -135 -222 -135q-221 0 -306 145t-85 428q0 336 97.5 465t287.5 129q150 0 207 -103h16v82h441v-1106l-113 -10l51 -6q-104 -76 -104 -158q0 -68 52 -96.5t120 -28.5zM502 561.5 q0 -153.5 17.5 -207t64.5 -53.5t60 33t13 135v188q0 104 -13 136t-60 32q-49 0 -65.5 -55t-16.5 -208.5z" glyph-name="aogonek.aalt" horiz-adv-x="1196"/><glyph d="M565 1233q-160 0 -222 65.5t-62 192.5q0 145 72.5 201.5t211.5 56.5q160 0 221.5 -65.5t61.5 -192.5q0 -145 -72 -201.5t-211 -56.5zM565 1599q-57 0 -83.5 -23.5t-26.5 -84.5q0 -57 23.5 -84t86.5 -27q55 0 82 23.5t27 87.5q0 55 -24 81.5t-85 26.5zM657 1126h441v-1106 l-402 -34l-20 129h-14q-55 -135 -222 -135q-221 0 -306 145t-85 428q0 336 97.5 465t287.5 129q150 0 207 -103h16v82zM502 561.5q0 -153.5 17.5 -207t64.5 -53.5t60 33t13 135v188q0 104 -13 136t-60 32q-49 0 -65.5 -55t-16.5 -208.5z" glyph-name="aring.aalt" horiz-adv-x="1196"/><glyph d="M958 2226l-266 -407h-256l160 407h362zM565 1233q-160 0 -222 65.5t-62 192.5q0 145 72.5 201.5t211.5 56.5q160 0 221.5 -65.5t61.5 -192.5q0 -145 -72 -201.5t-211 -56.5zM565 1599q-57 0 -83.5 -23.5t-26.5 -84.5q0 -57 23.5 -84t86.5 -27q55 0 82 23.5t27 87.5 q0 55 -24 81.5t-85 26.5zM657 1126h441v-1106l-402 -34l-20 129h-14q-55 -135 -222 -135q-221 0 -306 145t-85 428q0 336 97.5 465t287.5 129q150 0 207 -103h16v82zM502 561.5q0 -153.5 17.5 -207t64.5 -53.5t60 33t13 135v188q0 104 -13 136t-60 32q-49 0 -65.5 -55 t-16.5 -208.5z" glyph-name="aringacute.aalt" horiz-adv-x="1196"/><glyph d="M430 1389q-61 0 -76 -97h-168q0 150 68 240t182 90q80 0 160 -53l66 -43q37 -25 61 -25q51 0 70 96h165q0 -160 -65.5 -243.5t-181.5 -83.5q-90 0 -154 49l-68 49q-28 21 -59 21zM657 1126h441v-1106l-402 -34l-20 129h-14q-55 -135 -222 -135q-221 0 -306 145t-85 428 q0 336 97.5 465t287.5 129q150 0 207 -103h16v82zM502 561.5q0 -153.5 17.5 -207t64.5 -53.5t60 33t13 135v188q0 104 -13 136t-60 32q-49 0 -65.5 -55t-16.5 -208.5z" glyph-name="atilde.aalt" horiz-adv-x="1196"/><glyph d="M696 1141l402 -35v-1051q0 -252 -127 -348t-375 -96q-240 0 -512 86l27 313q266 -61 432 -61q70 0 92 21.5t22 84.5v88h-22q-57 -61 -182 -61q-231 0 -317.5 116.5t-86.5 374.5q0 283 85 428.5t304 145.5q166 0 221 -135h17zM502 565q0 -96 16.5 -127.5t65.5 -31.5 q45 0 59 28.5t14 118.5v104q0 102 -14 135t-61 33t-63.5 -52t-16.5 -208z" glyph-name="g.aalt" horiz-adv-x="1193"/><glyph d="M995 1704l-266 -408h-256l160 408h362zM696 1141l402 -35v-1051q0 -252 -127 -348t-375 -96q-240 0 -512 86l27 313q266 -61 432 -61q70 0 92 21.5t22 84.5v88h-22q-57 -61 -182 -61q-231 0 -317.5 116.5t-86.5 374.5q0 283 85 428.5t304 145.5q166 0 221 -135h17z M502 565q0 -96 16.5 -127.5t65.5 -31.5q45 0 59 28.5t14 118.5v104q0 102 -14 135t-61 33t-63.5 -52t-16.5 -208z" glyph-name="uni01F5.aalt" horiz-adv-x="1193"/><glyph d="M600 1251q-205 0 -283.5 83t-78.5 245v43h225v-25q0 -61 30.5 -86.5t104.5 -25.5q70 0 102.5 21.5t32.5 90.5v25h225v-43q0 -184 -91 -256t-267 -72zM696 1141l402 -35v-1051q0 -252 -127 -348t-375 -96q-240 0 -512 86l27 313q266 -61 432 -61q70 0 92 21.5t22 84.5v88 h-22q-57 -61 -182 -61q-231 0 -317.5 116.5t-86.5 374.5q0 283 85 428.5t304 145.5q166 0 221 -135h17zM502 565q0 -96 16.5 -127.5t65.5 -31.5q45 0 59 28.5t14 118.5v104q0 102 -14 135t-61 33t-63.5 -52t-16.5 -208z" glyph-name="gbreve.aalt" horiz-adv-x="1193"/><glyph d="M403 1288l-264 408h275l180 -215l180 215h277l-267 -408h-381zM696 1141l402 -35v-1051q0 -252 -127 -348t-375 -96q-240 0 -512 86l27 313q266 -61 432 -61q70 0 92 21.5t22 84.5v88h-22q-57 -61 -182 -61q-231 0 -317.5 116.5t-86.5 374.5q0 283 85 428.5t304 145.5 q166 0 221 -135h17zM502 565q0 -96 16.5 -127.5t65.5 -31.5q45 0 59 28.5t14 118.5v104q0 102 -14 135t-61 33t-63.5 -52t-16.5 -208z" glyph-name="gcaron.aalt" horiz-adv-x="1193"/><glyph d="M598 1503l-180 -215h-275l265 408h380l267 -408h-277zM696 1141l402 -35v-1051q0 -252 -127 -348t-375 -96q-240 0 -512 86l27 313q266 -61 432 -61q70 0 92 21.5t22 84.5v88h-22q-57 -61 -182 -61q-231 0 -317.5 116.5t-86.5 374.5q0 283 85 428.5t304 145.5 q166 0 221 -135h17zM502 565q0 -96 16.5 -127.5t65.5 -31.5q45 0 59 28.5t14 118.5v104q0 102 -14 135t-61 33t-63.5 -52t-16.5 -208z" glyph-name="gcircumflex.aalt" horiz-adv-x="1193"/><glyph d="M762 1604v-287h-328v287l125 331h170l-123 -331h156zM696 1141l402 -35v-1051q0 -252 -127 -348t-375 -96q-240 0 -512 86l27 313q266 -61 432 -61q70 0 92 21.5t22 84.5v88h-22q-57 -61 -182 -61q-231 0 -317.5 116.5t-86.5 374.5q0 283 85 428.5t304 145.5 q166 0 221 -135h17zM502 565q0 -96 16.5 -127.5t65.5 -31.5q45 0 59 28.5t14 118.5v104q0 102 -14 135t-61 33t-63.5 -52t-16.5 -208z" glyph-name="gcommaaccent.aalt" horiz-adv-x="1193"/><glyph d="M762 1604v-287h-328v287h328zM696 1141l402 -35v-1051q0 -252 -127 -348t-375 -96q-240 0 -512 86l27 313q266 -61 432 -61q70 0 92 21.5t22 84.5v88h-22q-57 -61 -182 -61q-231 0 -317.5 116.5t-86.5 374.5q0 283 85 428.5t304 145.5q166 0 221 -135h17zM502 565 q0 -96 16.5 -127.5t65.5 -31.5q45 0 59 28.5t14 118.5v104q0 102 -14 135t-61 33t-63.5 -52t-16.5 -208z" glyph-name="gdotaccent.aalt" horiz-adv-x="1193"/><glyph d="M82 1569h467v-332h-467v332zM535 1126v-1126h-441v1126h441z" glyph-name="i.locl" horiz-adv-x="628"/><glyph d="M152 1604h327v-287h-327v287zM535 1126v-1126h-441v1126h441z" glyph-name="glyph627" horiz-adv-x="628"/><glyph d="M385 -381q-195 0 -268.5 109.5t-73.5 341.5q0 256 84 354t258 98q195 0 267.5 -110.5t72.5 -341.5q0 -256 -83 -353.5t-257 -97.5zM385 -168q33 0 44 47t11 190.5t-11 190.5t-44 47q-35 0 -46 -47t-11 -190.5t11 -190.5t46 -47z" glyph-name="zero.sinf" horiz-adv-x="765"/><glyph d="M467 -152h147v-217h-585v217h161v439l-145 -41l-37 211l182 51h277v-660z" glyph-name="one.sinf" horiz-adv-x="630"/><glyph d="M379 -25q-39 -35 -54.5 -61.5t-17.5 -65.5h289v-217h-580v179q0 90 34 151.5t136 157.5l111 104q16 16 16 39t-11 32t-48 9q-51 0 -162 -18l-20 217q129 20 215 20q309 0 309 -237q0 -109 -96 -197z" glyph-name="two.sinf" horiz-adv-x="622"/><glyph d="M494 94q111 -39 110 -192q0 -160 -86 -221.5t-260 -61.5q-158 0 -240 33l19 221q74 -31 205 -31q80 0 80 64q0 49 -14.5 65.5t-57.5 16.5h-117v198h105q39 0 51 12.5t12 51.5q0 35 -14.5 46t-55.5 11q-125 0 -174 -24l-18 211q59 29 209 28q170 0 253 -55t83 -182 q0 -137 -90 -185v-6z" glyph-name="three.sinf" horiz-adv-x="641"/><glyph d="M727 -8v-217h-74v-144h-235v144h-381v239l194 494h242l-176 -494h2v-22h119v219h235v-219h74z" glyph-name="four.sinf" horiz-adv-x="743"/><glyph d="M373 199q174 -2 236.5 -69t62.5 -208q0 -172 -93.5 -237.5t-273.5 -65.5q-166 0 -246 31l13 225q76 -27 221 -27q51 0 73.5 16.5t22.5 57.5q0 43 -16.5 58.5t-55.5 15.5h-225l17 512h534v-217h-268z" glyph-name="five.sinf" horiz-adv-x="698"/><glyph d="M430 190q123 0 185.5 -59t62.5 -219q0 -168 -77 -230.5t-245 -62.5q-195 0 -264 66.5t-69 220.5q0 205 108 397q59 104 150 205h294q-115 -127 -188 -242q-33 -51 -47 -82h20q31 6 70 6zM350 -164q33 0 44.5 17.5t11.5 66.5q0 45 -11.5 61.5t-42.5 16.5q-33 0 -45 -17.5 t-12 -62.5q0 -49 12 -65.5t43 -16.5z" glyph-name="six.sinf" horiz-adv-x="692"/><glyph d="M16 508h580v-225l-283 -652h-272l278 637v23h-303v217z" glyph-name="seven.sinf" horiz-adv-x="614"/><glyph d="M588 86q145 -43 145 -207q0 -150 -85 -205t-261 -55q-199 0 -273.5 62.5t-74.5 197.5q0 162 145 207v8q-119 47 -118 191q0 135 79.5 186t241.5 51q180 0 250 -61.5t70 -181.5q0 -139 -119 -185v-8zM387 313q-33 0 -43 -13t-10 -54t10 -55.5t43 -14.5q31 0 41 14.5 t10 55.5t-10 54t-41 13zM387 -166q39 0 52.5 15.5t13.5 60.5q0 47 -13.5 63.5t-52.5 16.5q-41 0 -54.5 -16.5t-13.5 -63.5q0 -45 13.5 -60.5t54.5 -15.5z" glyph-name="eight.sinf" horiz-adv-x="768"/><glyph d="M336 522q193 0 263.5 -66.5t70.5 -219.5q0 -209 -111 -400q-68 -117 -149 -205h-293q102 115 186 244q6 8 47 80h-20q-31 -6 -70 -6q-121 0 -183.5 60.5t-62.5 219.5q0 166 77 229.5t245 63.5zM342 303q-33 0 -44 -17.5t-11 -66.5q0 -45 11 -60.5t42 -15.5q33 0 45 16.5 t12 63.5t-12 63.5t-43 16.5z" glyph-name="nine.sinf" horiz-adv-x="690"/><glyph d="M602 -20q-313 0 -433 179t-120 556q0 217 36 363.5t109.5 228.5t171 114.5t236.5 32.5q315 0 433 -180t118 -559q0 -217 -36 -362.5t-109.5 -226.5t-170 -113.5t-235.5 -32.5zM602 311q59 0 79.5 81t20.5 323q0 244 -20 325.5t-80 81.5q-61 0 -81.5 -82t-20.5 -325 q0 -242 20.5 -323t81.5 -81z" glyph-name="zero.case" horiz-adv-x="1200"/><glyph d="M733 348h232v-348h-922v348h252v717l-223 -64l-62 353l285 80h438v-1086z" glyph-name="one.case" horiz-adv-x="993"/><glyph d="M494 350v-2h495v-348h-964v303q0 109 43 185.5t174 197.5l247 232q49 43 50 86q0 63 -33 84.5t-129 21.5q-88 0 -256 -25l-31 336q215 33 369 33q299 0 414.5 -99.5t115.5 -295.5q0 -104 -40 -178t-128 -154l-270 -250q-35 -31 -46 -57.5t-11 -69.5z" glyph-name="two.case" horiz-adv-x="1028"/><glyph d="M827 760q86 -37 121 -108.5t35 -188.5q0 -276 -138 -379.5t-431 -103.5q-260 0 -389 57l30 354q127 -55 363 -55q66 0 90 27.5t24 97.5q0 78 -25.5 105.5t-84.5 27.5h-238v301h205q66 0 88.5 21.5t22.5 82.5q0 74 -24.5 98.5t-92.5 24.5q-209 0 -295 -43l-29 328 q109 47 353 47q295 0 416.5 -91t121.5 -296q0 -209 -123 -287v-20z" glyph-name="three.case" horiz-adv-x="1021"/><glyph d="M1176 569v-350h-107v-219h-414v219h-592v381l295 834h398l-271 -836v-29h170v361h414v-361h107z" glyph-name="four.case" horiz-adv-x="1210"/><glyph d="M559 897q279 -8 381 -106.5t102 -331.5q0 -139 -40.5 -235.5t-120.5 -148.5t-180.5 -73.5t-237.5 -21.5q-262 0 -389 51l12 360q121 -41 358 -41q88 0 118 24.5t30 96.5q0 70 -27.5 92.5t-111.5 22.5h-347l29 848h848v-349h-420z" glyph-name="five.case" horiz-adv-x="1079"/><glyph d="M723 936q209 0 288 -118t79 -351q0 -276 -126 -381.5t-389 -105.5q-305 0 -418.5 114.5t-113.5 362.5q0 365 178 671q92 158 228 306h489q-158 -170 -291 -371q-47 -70 -88 -148h8q62 21 156 21zM565 319q61 0 82 36t21 141q0 94 -20.5 125.5t-80.5 31.5 q-61 0 -81.5 -32.5t-20.5 -133t20.5 -134.5t79.5 -34z" glyph-name="six.case" horiz-adv-x="1122"/><glyph d="M25 1434h933v-361l-448 -1073h-438l448 1065v20h-495v349z" glyph-name="seven.case" horiz-adv-x="993"/><glyph d="M905 741q231 -72 232 -335q0 -240 -140.5 -333t-406.5 -93q-311 0 -431 108.5t-120 317.5q0 266 235 337v11q-193 76 -192 313q0 217 130 302t378 85q285 0 395.5 -101.5t110.5 -295.5q0 -229 -191 -305v-11zM590 1137q-63 0 -86 -29t-23 -102q0 -80 24.5 -109t84.5 -29 q61 0 83.5 31t22.5 106.5t-24.5 103.5t-81.5 28zM590 315q61 0 82.5 31t21.5 107q0 82 -24.5 112.5t-79.5 30.5q-61 0 -84 -32t-23 -111.5t24 -108.5t83 -29z" glyph-name="eight.case" horiz-adv-x="1173"/><glyph d="M549 1454q305 0 418.5 -114.5t113.5 -364.5q0 -373 -178 -672q-94 -158 -227 -303h-490q170 186 291 369q55 86 86 145h-20q-61 -16 -142 -16q-209 0 -287.5 116.5t-78.5 350.5q0 279 126 384t388 105zM457 938q0 -94 19.5 -126t78.5 -32q63 0 83.5 33t20.5 133.5 t-20.5 134t-81.5 33.5q-59 0 -79.5 -36t-20.5 -140z" glyph-name="nine.case" horiz-adv-x="1122"/><glyph d="M602 1454q315 0 433 -180t118 -559q0 -217 -36 -362.5t-109.5 -226.5t-170 -113.5t-235.5 -32.5q-313 0 -433 179t-120 556q0 217 36 363.5t109.5 228.5t171 114.5t236.5 32.5zM602 1122q-61 0 -81.5 -82t-20.5 -325v-92l180 424q-19 75 -78 75zM602 311q59 0 79.5 79 t20.5 310l-157 -364q18 -25 57 -25z" glyph-name="zero.case.zero" horiz-adv-x="1200"/><glyph d="M602 -20q-313 0 -433 179t-120 556q0 217 36 363.5t109.5 228.5t171 114.5t236.5 32.5q315 0 433 -180t118 -559q0 -217 -36 -362.5t-109.5 -226.5t-170 -113.5t-235.5 -32.5zM602 311q59 0 79.5 81t20.5 323q0 244 -20 325.5t-80 81.5q-61 0 -81.5 -82t-20.5 -325 q0 -242 20.5 -323t81.5 -81zM541 575v281h121v-281h-121z" glyph-name="zero.case.ss03" horiz-adv-x="1200"/><glyph d="M602 -20q-315 0 -434 142t-119 441q0 332 135 458t418 126q315 0 433 -142.5t118 -441.5q0 -334 -134 -458.5t-417 -124.5zM602 301q59 0 79.5 53.5t20.5 210.5q0 156 -20 208t-80 52q-61 0 -81.5 -52t-20.5 -208q0 -160 20.5 -212t81.5 -52z" glyph-name="zero.oldstyle" horiz-adv-x="1200"/><glyph d="M733 344h232v-344h-922v344h252v414l-223 -49l-62 358l285 59h438v-782z" glyph-name="one.oldstyle" horiz-adv-x="993"/><glyph d="M547 369q-29 -20 -33 -25h475v-344h-964v289q0 63 36.5 110t149.5 127l278 199q49 37 50 59q0 25 -33 33t-129 8q-123 0 -256 -18l-31 313q188 27 369 27q530 0 530 -324q0 -86 -40 -145.5t-132 -122.5z" glyph-name="two.oldstyle" horiz-adv-x="1028"/><glyph d="M827 475q86 -37 121 -106.5t35 -182.5q0 -270 -138 -371.5t-431 -101.5q-258 0 -389 56l30 354q121 -53 363 -53q66 0 90 25.5t24 88.5q0 72 -25.5 97.5t-84.5 25.5h-238v299h205q66 0 88.5 20.5t22.5 75.5q0 68 -24.5 91.5t-92.5 23.5q-209 0 -295 -43l-29 328 q111 45 353 45q295 0 416.5 -88t121.5 -289t-123 -278v-17z" glyph-name="three.oldstyle" horiz-adv-x="1021"/><glyph d="M1176 289v-348h-107v-207h-414v207h-592v376l295 809h398l-271 -813v-24h170v346h414v-346h107z" glyph-name="four.oldstyle" horiz-adv-x="1210"/><glyph d="M559 606q281 -8 382 -103t101 -323q0 -262 -147 -364.5t-432 -102.5q-258 0 -389 49l12 361q123 -39 358 -39q88 0 118 22.5t30 86t-27.5 84t-111.5 20.5h-347l29 829h848v-348h-420z" glyph-name="five.oldstyle" horiz-adv-x="1079"/><glyph d="M723 913q209 0 288 -115.5t79 -340.5q0 -272 -126 -374.5t-389 -102.5q-158 0 -263 29.5t-163.5 91t-82 143.5t-23.5 202q0 365 178 656q88 141 228 291h489q-178 -186 -291 -355q-43 -61 -88 -143h12q66 18 152 18zM565 319q61 0 82 33t21 131q0 90 -20.5 120t-80.5 30 q-61 0 -81.5 -31t-20.5 -125t20.5 -126t79.5 -32z" glyph-name="six.oldstyle" horiz-adv-x="1122"/><glyph d="M25 1126h933v-358l-448 -1034h-438l448 1026v18h-495v348z" glyph-name="seven.oldstyle" horiz-adv-x="993"/><glyph d="M905 721q231 -72 232 -328q0 -233 -139.5 -323t-407.5 -90q-309 0 -430 105t-121 308q0 258 235 330v10q-193 72 -192 303q0 213 130 295t378 82q285 0 395.5 -98t110.5 -289q0 -223 -191 -295v-10zM590 1098q-63 0 -86 -28t-23 -95q0 -74 24.5 -101.5t84.5 -27.5 q61 0 83.5 28.5t22.5 100.5t-24.5 97.5t-81.5 25.5zM590 313q61 0 82.5 29t21.5 100q0 78 -24.5 105.5t-79.5 27.5q-61 0 -84 -29.5t-23 -103t24 -101.5t83 -28z" glyph-name="eight.oldstyle" horiz-adv-x="1173"/><glyph d="M549 1147q158 0 263.5 -30t163.5 -91t81.5 -143t23.5 -203q0 -365 -178 -655q-88 -141 -227 -291h-490q174 186 291 354q49 74 86 141h-18q-66 -16 -144 -16q-209 0 -287.5 115.5t-78.5 341.5q0 272 126 374.5t388 102.5zM457 643q0 -88 19.5 -118.5t78.5 -30.5 q63 0 83.5 30.5t20.5 124.5t-20.5 126t-81.5 32q-59 0 -79.5 -33t-20.5 -131z" glyph-name="nine.oldstyle" horiz-adv-x="1122"/><glyph d="M602 1147q315 0 433 -142.5t118 -441.5q0 -334 -134 -458.5t-417 -124.5q-315 0 -434 142t-119 441q0 332 135 458t418 126zM602 825q-61 0 -81.5 -52t-20.5 -208v-59l141 313q-14 6 -39 6zM602 301q59 0 79.5 53.5t20.5 210.5v33l-133 -293q17 -4 33 -4z" glyph-name="zero.oldstyle.zero" horiz-adv-x="1200"/><glyph d="M602 -20q-315 0 -434 142t-119 441q0 332 135 458t418 126q315 0 433 -142.5t118 -441.5q0 -334 -134 -458.5t-417 -124.5zM602 301q59 0 79.5 53.5t20.5 210.5q0 156 -20 208t-80 52q-61 0 -81.5 -52t-20.5 -208q0 -160 20.5 -212t81.5 -52zM541 424v281h121v-281h-121z " glyph-name="zero.oldstyle.ss03" horiz-adv-x="1200"/><glyph d="M385 1114q-195 0 -268.5 109.5t-73.5 341.5q0 256 84 354t258 98q195 0 267.5 -110.5t72.5 -341.5q0 -256 -83 -353.5t-257 -97.5zM385 1327q33 0 44 47t11 190.5t-11 190.5t-44 47q-35 0 -46 -47t-11 -190.5t11 -190.5t46 -47z" glyph-name="zero.superior" horiz-adv-x="765"/><glyph d="M467 1343h147v-217h-585v217h161v439l-145 -41l-37 211l182 51h277v-660z" glyph-name="one.superior" horiz-adv-x="630"/></font>
</defs>
</svg>
