<?xml version="1.0" standalone="no"?>
<!DOCTYPE svg PUBLIC "-//W3C//DTD SVG 1.1//EN" "http://www.w3.org/Graphics/SVG/1.1/DTD/svg11.dtd">
<svg xmlns="http://www.w3.org/2000/svg"><metadata>This SVG WebFont was generated by YouWorkForThem.
Copyright Â© 2017 by Jonathan Hill. All rights reserved.</metadata><defs><font horiz-adv-x="0" id="ywftsvg"><font-face ascent="1604" bbox="-1184 -766 3269 2533" cap-height="1434" descent="-444" font-family="" font-stretch="normal" font-weight="900" panose-1="0 0 10 0 0 0 0 0 0 0" underline-position="0" underline-thickness="0" unicode-range="U+0020-277E" units-per-em="2048" x-height="1126"/><missing-glyph d="M205 61v1229h819v-1229h-819zM348 205h533v942h-533v-942z" horiz-adv-x="1228"/><glyph d="M1559 1245q-59 0 -93 -27.5t-55 -91.5h178l-49 -276h-182l-150 -850h-440l150 850h-263l-149 -850h-440l149 850h-152l50 276h151l8 43q39 221 147.5 300t301.5 79q160 0 274 -26l-55 -283q-51 6 -82 6q-59 0 -94 -27.5t-55 -91.5h258l8 43q39 221 146.5 300t299.5 79 q160 0 275 -26l-54 -283q-38 6 -83 6z" glyph-name="f_f.liga" horiz-adv-x="1509" unicode="ff"/><glyph d="M1745 1569h440l-57 -332h-440zM2107 1126l-198 -1126h-441l150 850h-260l-150 -850h-440l150 850h-263l-149 -850h-440l149 850h-152l50 276h151l8 43q39 221 147.5 300t301.5 79q160 0 274 -26l-55 -283q-43 6 -82 6q-59 0 -94 -27.5t-55 -91.5h258l8 43 q39 221 146.5 300t299.5 79q150 0 265 -26l-54 -283q-37 6 -73 6q-59 0 -93 -27.5t-55 -91.5h696z" glyph-name="f_f_i.liga" horiz-adv-x="2086" unicode="ffi"/><glyph d="M2005 338q0 -37 35 -37t69 10l-2 -313q-98 -18 -256 -18q-301 0 -301 243q0 43 11 101l92 526h-295l-150 -850h-440l150 850h-263l-149 -850h-440l149 850h-152l50 276h151l8 43q39 221 147.5 300t301.5 79q160 0 274 -26l-55 -283q-35 6 -82 6q-59 0 -94 -27.5 t-55 -91.5h258l8 43q39 221 146.5 300t299.5 79q160 0 275 -26l-54 -283q-37 6 -83 6q-59 0 -93 -27.5t-55 -91.5h291l72 410h440l-201 -1141q-8 -41 -8 -57z" glyph-name="f_f_l.liga" horiz-adv-x="2199" unicode="ffl"/><glyph d="M1044 1569h441l-58 -332h-440zM1407 1126l-199 -1126h-440l150 850h-263l-149 -850h-440l149 850h-152l50 276h151l8 43q39 221 147.5 300t301.5 79q150 0 264 -26l-55 -283q-33 6 -72 6q-59 0 -94 -27.5t-55 -91.5h698z" glyph-name="f_i.liga" horiz-adv-x="1386" unicode="fi"/><glyph d="M1305 338q0 -37 34 -37q33 0 70 10l-2 -311q-109 -20 -256 -20q-301 0 -301 243q0 43 10 101l92 526h-297l-149 -850h-440l149 850h-152l50 276h151l8 43q39 221 147.5 300t301.5 79q160 0 274 -26l-55 -283q-37 6 -82 6q-59 0 -94 -27.5t-55 -91.5h292l72 410h440 l-200 -1141q-8 -41 -8 -57z" glyph-name="f_l.liga" horiz-adv-x="1497" unicode="fl"/><glyph d="M205 61v1229h819v-1229h-819zM348 205h533v942h-533v-942z" glyph-name=".notdef" horiz-adv-x="1228"/><glyph glyph-name="glyph1"/><glyph glyph-name="glyph2" horiz-adv-x="681"/><glyph glyph-name="space" horiz-adv-x="563" unicode=" "/><glyph d="M160 545l104 889h508l-211 -889h-401zM31 0l67 387h467l-67 -387h-467z" glyph-name="exclam" horiz-adv-x="722" unicode="!"/><glyph d="M621 1536l-146 -575h-246l60 575h332zM1053 1536l-146 -575h-245l57 575h334z" glyph-name="quotedbl" horiz-adv-x="991" unicode="&quot;"/><glyph d="M1307 881h-187l-110 -314h186l-94 -266h-187l-106 -301h-299l106 301h-167l-107 -301h-299l107 301h-181l94 266h181l110 314h-180l94 266h181l100 287h299l-100 -287h167l101 287h299l-101 -287h187zM711 567l110 314h-168l-110 -314h168z" glyph-name="numbersign" horiz-adv-x="1310" unicode="#"/><glyph d="M791 1102q-201 0 -201 -119q0 -33 20 -55l150 -166q143 -158 143 -342q0 -352 -377 -424l-41 -229h-247l36 215q-133 6 -337 41l65 342q195 -31 295 -31q68 0 105.5 34.5t37.5 92.5q0 41 -30 74l-148 163q-133 145 -133 330q0 356 403 414l41 225h248l-39 -215 q76 -2 260 -33l-65 -334q-92 17 -186 17z" glyph-name="dollar" horiz-adv-x="950" unicode="$"/><glyph d="M176 -20l1151 1474h287l-1151 -1474h-287zM440 602q-160 0 -228.5 70.5t-68.5 212.5q0 106 32 238t85 208q80 115 264 115q158 0 225.5 -69.5t67.5 -209.5q0 -106 -31.5 -241t-85.5 -211q-78 -113 -260 -113zM436 797q29 0 47 24q27 39 53.5 174t26.5 203q0 53 -35 53 q-31 0 -47 -24q-29 -41 -55.5 -173t-26.5 -202q0 -55 37 -55zM1274 -12q-160 0 -228.5 70.5t-68.5 211.5q0 106 31.5 238.5t85.5 208.5q80 115 264 114q158 0 225.5 -69.5t67.5 -208.5q0 -106 -32 -241.5t-85 -211.5q-78 -112 -260 -112zM1270 182q29 0 47 25 q27 39 53.5 174t26.5 203q0 53 -35 53q-31 0 -47 -25q-29 -41 -55.5 -173t-26.5 -201q0 -56 37 -56z" glyph-name="percent" horiz-adv-x="1738" unicode="%"/><glyph d="M1436 825l-340 -454l301 -371h-484l-57 80q-123 -100 -362 -100q-276 0 -393 74.5t-117 230.5q0 74 21.5 160.5t57.5 140.5q35 51 93 86l188 116l-33 48q-94 102 -94 239q0 131 64 225q106 154 430 154q246 0 348 -67.5t102 -192.5q0 -250 -194 -354l-176 -95l79 -98 l166 178h400zM623 1141q-29 -41 -29 -115q0 -41 27 -72l16 -20l82 82q57 57 57 114q0 45 -69 46q-61 0 -84 -35zM606 362l27 29l-117 160l-55 -66q-18 -20 -41 -51q-20 -27 -21 -69q0 -63 84 -64q43 0 66.5 13t56.5 48z" glyph-name="ampersand" horiz-adv-x="1497" unicode="&amp;"/><glyph d="M621 1536l-146 -575h-246l60 575h332z" glyph-name="quotesingle" horiz-adv-x="559" unicode="'"/><glyph d="M55 276q0 188 47.5 430t116.5 408q102 240 255 361.5t378 162.5l-27 -295q-201 -70 -309 -362q-51 -137 -93 -366.5t-42 -372.5q0 -137 40 -217t128 -115l-25 -277q-250 49 -359.5 211t-109.5 432z" glyph-name="parenleft" horiz-adv-x="684" unicode="("/><glyph d="M655 995q0 -188 -47 -429.5t-116 -407.5q-100 -240 -254 -362t-379 -163l26 295q201 70 310 363q51 137 93 366.5t42 372.5q0 137 -40 217t-128 115l24 276q250 -49 359.5 -211t109.5 -432z" glyph-name="parenright" horiz-adv-x="684" unicode=")"/><glyph d="M1063 1104l-291 -55l160 -209l-250 -166l-98 248l-178 -248l-209 166l227 211l-268 53l133 270l241 -121l17 283h284l-81 -279l270 117z" glyph-name="asterisk" horiz-adv-x="1028" unicode="*"/><glyph d="M1221 739l-60 -327h-368l-66 -371h-328l66 371h-371l60 327h368l64 369h327l-63 -369h371z" glyph-name="plus" horiz-adv-x="1310" unicode="+"/><glyph d="M115 424h467l-74 -424l-236 -424h-284l229 424h-176z" glyph-name="comma" horiz-adv-x="743" unicode=","/><glyph d="M139 788h676l-55 -307h-676z" glyph-name="hyphen" horiz-adv-x="872" unicode="-"/><glyph d="M41 0l74 424h467l-74 -424h-467z" glyph-name="period" horiz-adv-x="743" unicode="."/><glyph d="M-145 -102l921 1638h285l-922 -1638h-284z" glyph-name="slash" horiz-adv-x="856" unicode="/"/><glyph d="M537 -20q-262 0 -375 114.5t-113 345.5q0 186 57.5 416.5t155.5 364.5q141 193 455 192q262 0 373.5 -113.5t111.5 -345.5q0 -182 -54 -408.5t-147 -359.5q-145 -206 -464 -206zM559 309q47 0 72 37q43 66 87 297t44 342q0 98 -68 98q-49 0 -76 -41q-41 -68 -85 -297 t-44 -335q0 -101 70 -101z" glyph-name="zero" horiz-adv-x="1200" unicode="0"/><glyph d="M696 348h232l-62 -348h-921l61 348h252l119 674l-227 -59v354l292 76h439z" glyph-name="one" horiz-adv-x="993" unicode="1"/><glyph d="M541 453q-70 -51 -84 -105h495l-61 -348h-965l49 301q18 109 73.5 188.5t201.5 190.5l291 221q78 57 77 115q0 31 -26.5 42t-95.5 11q-106 0 -275 -25l2 340q209 29 355 29q274 0 386.5 -84t112.5 -254q0 -121 -51 -209t-166 -174z" glyph-name="two" horiz-adv-x="1028" unicode="2"/><glyph d="M858 731q111 -59 111 -209q0 -84 -28 -183t-75 -169q-72 -106 -198.5 -148t-319.5 -42q-236 0 -403 61l69 342q129 -47 280.5 -47t192.5 59q37 51 37 121q0 33 -19.5 45t-68.5 12h-250l54 299h192q88 0 121 54q29 47 29 102q0 33 -21.5 44t-79.5 11q-129 0 -297 -51 l9 342q152 39 342 39q266 0 384.5 -73.5t118.5 -233.5q0 -168 -71 -272q-39 -57 -105 -89z" glyph-name="three" horiz-adv-x="1021" unicode="3"/><glyph d="M1174 555l-62 -348h-104l-37 -207h-414l37 207h-592l66 377l436 809h405l-424 -832v-6h170l62 346h413l-61 -346h105z" glyph-name="four" horiz-adv-x="1210" unicode="4"/><glyph d="M1069 1044h-420l-35 -174q227 -8 322.5 -82.5t95.5 -234.5q0 -219 -102 -373q-76 -113 -209 -156.5t-330 -43.5q-260 0 -397 55l49 350q104 -35 307 -35q96 0 140.5 13.5t64.5 48.5q27 45 27 92q0 35 -27 47t-90 12h-359l177 830h847z" glyph-name="five" horiz-adv-x="1079" unicode="5"/><glyph d="M760 913q174 0 249.5 -81.5t75.5 -237.5q0 -109 -30.5 -231.5t-85.5 -204.5q-68 -98 -180.5 -138t-280.5 -40q-272 0 -384 89t-112 275q0 176 77 389t198 367q96 125 303 293h502q-205 -182 -363 -379l-82 -107h25q41 6 88 6zM612 354q20 29 35 94.5t15 110.5 q0 43 -19.5 58.5t-64.5 15.5q-61 0 -84 -29q-25 -29 -40.5 -96.5t-15.5 -114.5q0 -43 19.5 -58.5t64.5 -15.5q63 0 90 35z" glyph-name="six" horiz-adv-x="1122" unicode="6"/><glyph d="M172 1393h934l-62 -349l-628 -1044h-447l633 1044h-491z" glyph-name="seven" horiz-adv-x="993" unicode="7"/><glyph d="M934 713q176 -70 176 -267q0 -106 -44 -209.5t-132 -164.5q-129 -92 -406 -92q-287 0 -405.5 88t-118.5 258q0 238 154 344q55 39 147 61l2 10q-145 68 -145 246q0 98 40 191.5t120 150.5q121 84 374 84q266 0 377 -82t111 -241q0 -217 -142 -318q-47 -31 -106 -49z M608 1081q-29 -20 -43 -67t-14 -88q0 -45 21.5 -62.5t68.5 -17.5q51 0 78 18q57 39 57 158q0 45 -20.5 60.5t-67.5 15.5q-57 -1 -80 -17zM623 332q29 20 44 72.5t15 95.5t-21.5 59t-64.5 16q-51 0 -78 -18q-59 -41 -59 -160q0 -47 20.5 -65.5t67.5 -18.5q51 1 76 19z" glyph-name="eight" horiz-adv-x="1173" unicode="8"/><glyph d="M664 1413q272 0 383.5 -89t111.5 -275q0 -176 -76.5 -389.5t-197.5 -366.5q-96 -125 -303 -293h-502q223 199 362 379l82 106h-24q-39 -6 -88 -6q-174 0 -250 82t-76 238q0 109 30.5 231.5t86.5 204.5q68 98 180.5 138t280.5 40zM677.5 788.5q22.5 28.5 39 97t16.5 113.5 q0 43 -19.5 58.5t-64.5 15.5q-63 0 -90 -35q-20 -29 -34.5 -93t-14.5 -111q0 -43 19.5 -58.5t64.5 -15.5q61 0 83.5 28.5z" glyph-name="nine" horiz-adv-x="1122" unicode="9"/><glyph d="M162 702l74 424h466l-73 -424h-467zM41 0l74 424h467l-74 -424h-467z" glyph-name="colon" horiz-adv-x="743" unicode=":"/><glyph d="M236 1126h466l-73 -424h-467zM41 0l74 424h467l-74 -424l-236 -424h-284l229 424h-176z" glyph-name="semicolon" horiz-adv-x="743" unicode=";"/><glyph d="M1159 793l-608 -193l-10 -59l538 -191l-59 -344l-862 334l80 463l979 334z" glyph-name="less" horiz-adv-x="1310" unicode="&lt;"/><glyph d="M137 653l58 328h1067l-58 -328h-1067zM55 188l58 328h1067l-58 -328h-1067z" glyph-name="equal" horiz-adv-x="1310" unicode="="/><glyph d="M293 1137l864 -334l-78 -463l-983 -334l60 344l610 197l10 53l-540 193z" glyph-name="greater" horiz-adv-x="1310" unicode=">"/><glyph d="M186 545l11 69q16 100 47.5 152.5t109.5 103.5l117 76q70 47 70 94q0 27 -22.5 35t-84.5 8q-88 0 -258 -18l8 358q219 31 367 31q260 0 367.5 -81t107.5 -240q0 -115 -47 -194t-158 -157l-86 -61q-74 -53 -104.5 -86t-36.5 -68l-4 -22h-404zM57 0l68 387h467l-68 -387 h-467z" glyph-name="question" horiz-adv-x="950" unicode="?"/><glyph d="M1047 1454q401 0 577 -164t176 -475q0 -166 -41 -356.5t-119 -302.5q-109 -156 -329 -156q-213 0 -381 158l2 82h-6q-47 -86 -158 -86q-240 0 -240 264q0 104 32 234t83 208q70 106 217 107q125 0 164 -76h8l12 76h308l-131 -748q25 -6 45 -6q72 0 114 59q53 74 89 266.5 t36 327.5q0 184 -98 265t-324 81q-365 0 -512 -217q-88 -131 -144 -349t-56 -390q0 -213 98 -308t315 -95q164 0 312 61l-6 -264q-127 -39 -299 -39q-387 0 -553 175t-166 490q0 213 63.5 456t175.5 405q123 174 305.5 245.5t430.5 71.5zM842 428q0 -31 9 -41t32 -10 q35 0 51 20.5t24 69.5l35 201q4 33 4 39q0 35 -41 34q-45 -2 -65.5 -45t-38.5 -170q-10 -75 -10 -98z" glyph-name="at" horiz-adv-x="1875" unicode="@"/><glyph d="M1272 0h-461v297h-338l-104 -297h-469l600 1434h676zM594 645h217l2 440h-63z" glyph-name="A" horiz-adv-x="1370" unicode="A"/><glyph d="M1075 733q160 -61 160 -262q0 -109 -39 -206t-104 -154q-125 -111 -441 -111h-624l252 1434h565q475 0 475 -316q0 -193 -131 -307q-45 -41 -111 -61zM807 893q57 57 57 156q0 43 -26.5 60t-96.5 17h-57l-49 -272h41q92 0 131 39zM741 377q47 47 47 131q0 53 -27.5 71.5 t-107.5 18.5h-63l-47 -272h39q108 0 159 51z" glyph-name="B" horiz-adv-x="1323" unicode="B"/><glyph d="M651 -20q-301 0 -436 123.5t-135 402.5q0 248 89 488.5t226 346.5q143 113 434 113q199 0 342 -55l-71 -350q-80 35 -211 34q-143 0 -197 -59q-55 -59 -100 -219t-45 -289q0 -94 35.5 -130t128.5 -36q135 0 250 49l22 -370q-135 -49 -332 -49z" glyph-name="C" horiz-adv-x="1103" unicode="C"/><glyph d="M864 1434q242 0 359.5 -127t117.5 -392q0 -225 -74.5 -446t-191.5 -332q-143 -137 -438 -137h-610l252 1434h585zM741 403q47 61 94.5 246t47.5 303q0 72 -24.5 101.5t-82.5 29.5h-100l-129 -733h76q77 0 118 53z" glyph-name="D" horiz-adv-x="1363" unicode="D"/><glyph d="M1092 1085h-418l-29 -167h377l-61 -349h-377l-39 -221h442l-61 -348h-901l251 1434h877z" glyph-name="E" horiz-adv-x="1091" unicode="E"/><glyph d="M1067 1085h-393l-37 -208h356l-61 -349h-357l-92 -528h-458l251 1434h852z" glyph-name="F" horiz-adv-x="1028" unicode="F"/><glyph d="M772 868h516l-151 -852l-363 -30l2 135h-6q-119 -141 -303 -141q-193 0 -292 117.5t-99 346.5q0 283 82 532t202 343q172 135 492 135q246 0 412 -53l-76 -365q-147 49 -291 49q-147 0 -215 -73q-47 -51 -95 -230.5t-48 -306.5q0 -72 21.5 -98.5t76.5 -26.5 q154 0 188 162l6 29h-116z" glyph-name="G" horiz-adv-x="1312" unicode="G"/><glyph d="M1010 1434h458l-251 -1434h-459l100 569h-274l-101 -569h-458l251 1434h459l-90 -516h275z" glyph-name="H" horiz-adv-x="1437" unicode="H"/><glyph d="M737 1434l-252 -1434h-458l252 1434h458z" glyph-name="I" horiz-adv-x="704" unicode="I"/><glyph d="M201 -20q-137 0 -271 28l72 346q23 -4 55 -4q55 0 84 30t41 97l168 957h459l-195 -1108q-35 -203 -135 -274.5t-278 -71.5z" glyph-name="J" horiz-adv-x="765" unicode="J"/><glyph d="M1491 1434l-471 -693l240 -741h-512l-107 569h-55l-101 -569h-458l252 1434h458l-90 -516h51l299 516h494z" glyph-name="K" horiz-adv-x="1359" unicode="K"/><glyph d="M547 348h303l-62 -348h-761l252 1434h458z" glyph-name="L" horiz-adv-x="921" unicode="L"/><glyph d="M1772 1434l-252 -1434h-412l149 856h-8l-248 -522h-337l-64 522h-12l-150 -856h-411l252 1434h532l92 -637h8l316 637h545z" glyph-name="M" horiz-adv-x="1738" unicode="M"/><glyph d="M1063 1434h395l-252 -1434h-577l-41 838h-21l-147 -838h-393l252 1434h581l39 -830h19z" glyph-name="N" horiz-adv-x="1425" unicode="N"/><glyph d="M645 -20q-297 0 -430 122.5t-133 403.5q0 248 87 484.5t220 342.5q150 121 447 121t430 -122t133 -398q0 -246 -86 -484.5t-217 -347.5q-148 -122 -451 -122zM676 350q90 0 127 49q43 55 86 234.5t43 302.5q0 82 -27.5 114.5t-97.5 32.5q-90 0 -127 -47q-45 -55 -88 -233 t-43 -301q0 -86 28.5 -119t98.5 -33z" glyph-name="O" horiz-adv-x="1419" unicode="O"/><glyph d="M813 1434q256 0 376 -92.5t120 -288.5q0 -152 -61.5 -299.5t-155.5 -223.5q-127 -100 -430 -100h-101l-76 -430h-458l252 1434h534zM782 797q29 33 52.5 102.5t23.5 122.5q0 96 -121 96h-55l-66 -373h31q90 1 135 52z" glyph-name="P" horiz-adv-x="1269" unicode="P"/><glyph d="M836 1454q297 0 430 -122t133 -398q0 -246 -86 -484.5t-217 -347.5q-102 -88 -289 -112q-4 -29 -4 -37q0 -29 15.5 -40t53.5 -11q61 0 134 26v-284q-125 -33 -267 -33q-344 0 -344 272q0 43 11 105l2 16q-168 43 -247 164t-79 338q0 248 87 484.5t220 342.5 q150 121 447 121zM803 399q43 55 86 234.5t43 302.5q0 82 -27.5 114.5t-97.5 32.5q-90 0 -127 -47q-45 -55 -88 -233t-43 -301q0 -86 28.5 -119t98.5 -33q90 0 127 49z" glyph-name="Q" horiz-adv-x="1419" unicode="Q"/><glyph d="M1130 670q-39 -39 -92 -76l183 -594h-476l-100 502h-72l-88 -502h-458l252 1434h501q274 0 392 -88.5t118 -270.5q0 -237 -160 -405zM682 1120l-59 -340h24q98 0 137 47q53 66 58 191q0 102 -97 102h-63z" glyph-name="R" horiz-adv-x="1320" unicode="R"/><glyph d="M344 -20q-162 0 -401 43l65 342q195 -31 295 -31q68 0 105.5 34.5t37.5 92.5q0 41 -30 74l-148 163q-133 145 -133 330q0 426 582 426q123 0 332 -35l-66 -334q-92 16 -186 17q-201 0 -201 -119q0 -33 20 -55l150 -166q143 -158 143 -342q0 -213 -143 -326.5t-422 -113.5 z" glyph-name="S" horiz-adv-x="970" unicode="S"/><glyph d="M1174 1434l-62 -349h-270l-191 -1085h-458l190 1085h-274l61 349h1004z" glyph-name="T" horiz-adv-x="1036" unicode="T"/><glyph d="M606 -20q-285 0 -406.5 100t-121.5 289q0 88 20 211l150 854h459l-166 -951q-6 -29 -6 -53q0 -80 94 -80q63 0 94 34t47 132l162 918h459l-162 -924q-53 -303 -205 -416.5t-418 -113.5z" glyph-name="U" horiz-adv-x="1329" unicode="U"/><glyph d="M979 1434h469l-561 -1434h-676l-53 1434h460l-34 -1086h45z" glyph-name="V" horiz-adv-x="1288" unicode="V"/><glyph d="M1575 1434h467l-469 -1434h-578l56 1085h-27l-326 -1085h-579l37 1434h462l-100 -1086h23l309 1086h493l-75 -1086h26z" glyph-name="W" horiz-adv-x="1884" unicode="W"/><glyph d="M1450 1434l-442 -691l200 -743h-479l-84 414h-20l-230 -414h-497l475 762l-197 672h479l68 -416h20l218 416h489z" glyph-name="X" horiz-adv-x="1308" unicode="X"/><glyph d="M1458 1434l-608 -1006l-76 -428h-459l86 494l-243 940h458l74 -582h23l276 582h469z" glyph-name="Y" horiz-adv-x="1298" unicode="Y"/><glyph d="M246 1434h911l-61 -349l-6 -38l-639 -682l-5 -17h508l-61 -348h-967l64 348l6 41l639 676l2 20h-453z" glyph-name="Z" horiz-adv-x="1052" unicode="Z"/><glyph d="M801 1331h-209l-242 -1382h207l-49 -277h-545l340 1936h545z" glyph-name="bracketleft" horiz-adv-x="673" unicode="["/><glyph d="M764 -102h-268l-344 1638h268z" glyph-name="backslash" horiz-adv-x="856" unicode="\"/><glyph d="M741 1608l-340 -1936h-544l49 277h207l241 1382h-204l47 277h544z" glyph-name="bracketright" horiz-adv-x="673" unicode="]"/><glyph d="M731 567l-82 604h-22l-295 -604h-334l508 906h358l189 -906h-322z" glyph-name="asciicircum" horiz-adv-x="1052" unicode="^"/><glyph d="M27 -76h1208l-45 -266h-1208z" glyph-name="underscore" horiz-adv-x="1484" unicode="_"/><glyph d="M426 1296l-195 408h355l88 -408h-248z" glyph-name="grave" horiz-adv-x="581" unicode="`"/><glyph d="M780 1147q162 0 239 -65.5t77 -202.5q0 -57 -13 -131l-127 -728l-405 -34v129h-8q-86 -135 -275 -135q-281 0 -280 266q0 106 39 196t106 138q92 66 303 65h191l8 53q6 31 6 52q0 29 -12.5 39t-44.5 10q-86 0 -330 -60l-31 330q358 78 557 78zM414 287q0 -47 47 -47 q96 0 123 163l12 72h-43q-68 0 -92 -31q-18 -23 -32.5 -72.5t-14.5 -84.5z" glyph-name="a" horiz-adv-x="1132" unicode="a"/><glyph d="M842 1147q172 0 254 -97.5t82 -301.5q0 -186 -57.5 -377t-141.5 -283q-98 -109 -282.5 -108.5t-229.5 135.5h-21l-45 -129l-397 34l266 1516h443l-82 -465q70 76 211 76zM639 342q29 47 61.5 193.5t32.5 224.5q0 37 -12 51t-43 14q-47 0 -73.5 -31.5t-39.5 -103.5 l-43 -248q-8 -41 -8 -80q0 -61 51 -61q49 0 74 41z" glyph-name="b" horiz-adv-x="1206" unicode="b"/><glyph d="M535 -20q-262 0 -380 97t-118 314q0 209 70.5 392.5t181.5 269.5q121 94 385 94q133 0 246 -31l-60 -303q-41 12 -98 12q-139 0 -187 -65q-35 -49 -64.5 -160t-29.5 -194q0 -61 23.5 -83t93.5 -22q90 0 164 23l-6 -322q-86 -22 -221 -22z" glyph-name="c" horiz-adv-x="878" unicode="c"/><glyph d="M840 1536h440l-266 -1516l-406 -34l2 129h-8q-39 -72 -95 -103.5t-151 -31.5q-328 0 -327 385q0 190 63.5 389.5t153.5 289.5q102 102 278 103q152 0 207 -80h27zM692 688q8 43 8 84q0 23 -14 38t-37 15q-51 0 -82 -51q-29 -51 -57.5 -179t-28.5 -210q0 -47 14.5 -65.5 t49.5 -18.5q45 0 66.5 29.5t35.5 103.5z" glyph-name="d" horiz-adv-x="1206" unicode="d"/><glyph d="M643 1147q225 0 328.5 -88t103.5 -281q0 -109 -41 -293l-8 -36h-573q-4 -49 -4 -66q0 -51 19 -69.5t77 -18.5q137 0 362 53l25 -303q-244 -66 -434 -65q-459 0 -459 454q0 188 67.5 360.5t174.5 254.5q124 98 362 98zM496 684h184q10 72 10 111q0 41 -13 56t-46 15 q-66 0 -94 -59q-25 -51 -41 -123z" glyph-name="e" horiz-adv-x="1095" unicode="e"/><glyph d="M858 1245q-68 0 -99.5 -24.5t-51.5 -94.5h182l-49 -276h-185l-149 -850h-440l149 850h-152l50 276h151l8 43q39 221 147.5 300t301.5 79q160 0 274 -26l-55 -283q-31 6 -82 6z" glyph-name="f" horiz-adv-x="808" unicode="f"/><glyph d="M1221 1126l-17 -188l-162 -29q20 -41 21 -108q0 -104 -48 -200.5t-126 -147.5q-111 -74 -342 -74q-68 0 -123 6l-25 -25q-20 -20 -20 -41q0 -29 35 -28h104q524 0 524 -287q0 -201 -148.5 -297t-455.5 -96q-553 0 -553 231q0 197 217 232l7 30q-90 59 -91 156 q0 106 138 203l12 8q-94 76 -94 227q0 121 52 226.5t140 156.5q106 66 332 66q131 0 219 -21h404zM616 657q16 23 32 76t16 94q0 35 -15.5 50.5t-50.5 15.5q-55 0 -78 -35q-14 -23 -27.5 -73t-13.5 -85q0 -68 70 -67q44 -1 67 24zM483 49q-199 0 -198 -121q0 -41 28.5 -57 t104.5 -16q219 0 219 125q0 41 -32 55t-122 14z" glyph-name="g" horiz-adv-x="1157" unicode="g"/><glyph d="M913 1147q158 0 228.5 -62.5t70.5 -201.5q0 -72 -18 -176l-125 -707h-440l125 709q6 33 6 55q0 61 -64 61q-109 0 -133 -143l-121 -682h-442l270 1536h443l-86 -496h6q87 107 280 107z" glyph-name="h" horiz-adv-x="1251" unicode="h"/><glyph d="M260 1569h467l-57 -332h-467zM635 1126l-199 -1126h-440l199 1126h440z" glyph-name="i" horiz-adv-x="628" unicode="i"/><glyph d="M166 1237l57 332h467l-57 -332h-467zM-10 -389q-152 0 -283 29l53 282q29 -4 72 -4q63 0 95 39t48 129l185 1040h440l-207 -1169q-35 -203 -133 -274.5t-270 -71.5z" glyph-name="j" horiz-adv-x="591" unicode="j"/><glyph d="M1325 1126l-367 -505l168 -621h-479l-61 481h-60l-84 -481h-442l270 1536h443l-138 -778h70l197 368h483z" glyph-name="k" horiz-adv-x="1234" unicode="k"/><glyph d="M340 -20q-301 0 -301 243q0 39 10 101l213 1212h440l-200 -1141q-8 -45 -8 -57q0 -37 41 -37q23 0 63 10l-2 -311q-104 -20 -256 -20z" glyph-name="l" horiz-adv-x="686" unicode="l"/><glyph d="M1495 1147q152 0 218.5 -62.5t66.5 -197.5q0 -78 -19 -180l-125 -707h-440l125 709q8 45 8 65q0 29 -12 40t-39 11q-94 0 -119 -139l-121 -686h-440l125 709q8 45 8 67q0 29 -11 39t-40 10q-96 0 -119 -139l-119 -686h-442l195 1106l407 35l-2 -131h8q88 137 289 137 q223 0 272 -148h15q92 148 311 148z" glyph-name="m" horiz-adv-x="1820" unicode="m"/><glyph d="M905 1147q158 0 231.5 -66.5t73.5 -206.5q0 -68 -18 -172l-123 -702h-440l125 709q6 41 6 59q0 33 -14.5 45t-53.5 12q-106 0 -131 -133l-121 -692h-440l195 1106l405 35l-2 -129h12q47 72 114.5 103.5t180.5 31.5z" glyph-name="n" horiz-adv-x="1251" unicode="n"/><glyph d="M528 -20q-252 0 -373.5 101t-121.5 310q0 199 70.5 383t179.5 270q131 102 372 103q254 0 375 -104.5t121 -327.5q0 -176 -64.5 -351.5t-162.5 -263.5q-138 -120 -396 -120zM545 301q63 0 94 82q23 57 43 166.5t20 181.5q0 53 -14 73.5t-49 20.5q-55 0 -82 -55 q-25 -53 -49.5 -182t-24.5 -201q0 -45 13.5 -65.5t48.5 -20.5z" glyph-name="o" horiz-adv-x="1179" unicode="o"/><glyph d="M852 1147q176 0 253 -94.5t77 -272.5q0 -166 -52.5 -366.5t-142.5 -307.5q-109 -127 -301 -126q-147 0 -203 75h-32l-74 -424h-443l261 1475l405 35v-117h16q70 123 236 123zM657 371q23 59 47.5 190t24.5 193q0 72 -55 71q-47 0 -75 -41t-44 -133l-35 -202 q-8 -49 -8 -72q0 -76 57 -76q63 0 88 70z" glyph-name="p" horiz-adv-x="1206" unicode="p"/><glyph d="M807 1141l397 -35l-260 -1475h-440l74 424q-66 -76 -211 -75q-158 0 -246 87t-88 295q0 158 45 349.5t123 294.5q109 141 313 141q176 0 223 -121h31zM690 692q8 49 8 74q0 59 -53 59q-66 0 -94 -71q-23 -57 -47.5 -187.5t-24.5 -193.5q0 -41 13.5 -56.5t46.5 -15.5 q45 0 68.5 32t41.5 130z" glyph-name="q" horiz-adv-x="1206" unicode="q"/><glyph d="M901 1147q25 0 53 -6l-80 -375q-39 20 -129 20t-135 -44t-65 -156l-103 -586h-442l195 1106l409 35l-4 -156h14q51 92 121 127t166 35z" glyph-name="r" horiz-adv-x="868" unicode="r"/><glyph d="M340 -20q-162 0 -381 38l57 306q121 -23 217 -23q70 0 93 16q20 14 20 57.5t-37 65.5l-135 95q-90 61 -90 210q0 94 33 185.5t100 144.5q94 72 305 72q143 0 393 -41l-57 -307q-141 27 -207 26q-57 0 -77.5 -20.5t-20.5 -52.5q0 -25 29 -45l112 -84q66 -49 97.5 -104.5 t31.5 -139.5t-29.5 -169t-88.5 -136q-105 -94 -365 -94z" glyph-name="s" horiz-adv-x="884" unicode="s"/><glyph d="M639 850l-80 -461q-8 -37 -8 -55q0 -33 31 -33q33 0 69 10l-6 -315q-90 -16 -246 -16q-301 0 -301 243q0 43 11 101l92 526h-138l50 276h137l47 273h438l-47 -273h164l-49 -276h-164z" glyph-name="t" horiz-adv-x="798" unicode="t"/><glyph d="M784 1126h441l-195 -1106l-407 -34l2 129h-11q-88 -135 -284 -135q-154 0 -220.5 63t-66.5 199q0 78 18 178l125 706h443l-125 -708q-6 -31 -6 -53q0 -63 55 -64q90 0 111 127z" glyph-name="u" horiz-adv-x="1222" unicode="u"/><glyph d="M762 1126h465l-424 -1126h-672l-29 1126h457l-61 -825h34z" glyph-name="v" horiz-adv-x="1122" unicode="v"/><glyph d="M1507 1126h465l-387 -1126h-627l39 825h-28l-252 -825h-625l10 1126h459l-90 -825h31l254 825h553l-37 -825h37z" glyph-name="w" horiz-adv-x="1867" unicode="w"/><glyph d="M1276 1126l-371 -561l172 -565h-450l-68 301h-22l-172 -301h-467l383 586l-168 540h452l64 -276h18l160 276h469z" glyph-name="x" horiz-adv-x="1177" unicode="x"/><glyph d="M762 1126h465l-455 -1142q-47 -117 -105.5 -194t-130 -114.5t-140 -51t-160.5 -13.5q-121 0 -283 39l51 284q125 -18 225 -18q98 0 148.5 36t77.5 130l2 4h-310l-45 1040h457l-47 -739h33z" glyph-name="y" horiz-adv-x="1122" unicode="y"/><glyph d="M160 1126h792l-53 -297l-6 -41l-471 -471l-4 -20h413l-53 -297h-852l54 297l6 43l477 481l2 8h-359z" glyph-name="z" horiz-adv-x="911" unicode="z"/><glyph d="M657 1608q123 0 217 -29l-49 -268q-31 10 -80 10q-55 0 -84.5 -34t-44.5 -109l-53 -308q-16 -96 -53 -147t-109 -74l-4 -20q88 -49 88 -162q0 -35 -10 -90l-53 -307q-8 -39 -8 -68q0 -43 43 -43q47 0 110 23l-2 -289q-74 -20 -200 -21q-299 0 -299 248q0 49 8 96l65 369 q8 57 8 78q0 45 -25.5 59.5t-88.5 14.5l37 206q74 0 110.5 41t55.5 144l65 368q31 184 116.5 248t239.5 64z" glyph-name="braceleft" horiz-adv-x="716" unicode="{"/><glyph d="M618 1653l-360 -2042h-276l360 2042h276z" glyph-name="bar" horiz-adv-x="571" unicode="|"/><glyph d="M596 817q0 -45 25.5 -59.5t89.5 -14.5l-37 -206q-74 0 -111 -41t-55 -144l-66 -368q-33 -184 -117.5 -248t-238.5 -64q-123 0 -217 29l49 268q31 -10 80 -10q55 0 85 34t44 109l53 308q16 96 53 147t109 74l4 20q-88 49 -88 162q0 35 10 90l54 307q8 57 8 68q0 43 -43 43 q-47 0 -111 -23l2 289q74 20 201 21q299 0 299 -248q0 -49 -8 -96l-66 -369q-8 -58 -8 -78z" glyph-name="braceright" horiz-adv-x="716" unicode="}"/><glyph d="M326 420l-224 78q29 166 139.5 267t260.5 101q98 0 184 -57l143 -96q27 -16 56 -17q74 0 119 123l223 -78q-31 -170 -143.5 -269t-256.5 -99q-100 0 -184 57l-143 96q-27 16 -56 17q-73 0 -118 -123z" glyph-name="asciitilde" horiz-adv-x="1310" unicode="~"/><glyph glyph-name="uni00A0" horiz-adv-x="563" unicode=" "/><glyph d="M219 1065h467l-70 -387h-466zM154 520h401l-102 -889h-508z" glyph-name="exclamdown" horiz-adv-x="722" unicode="¡"/><glyph d="M748 1143q63 -4 147 -27l-59 -303q-41 12 -99 12q-139 0 -186 -65q-35 -49 -64.5 -160t-29.5 -194q0 -61 23.5 -83t92.5 -22q90 0 164 23l-6 -322q-78 -20 -190 -22l-33 -197h-236l37 215q-154 33 -225.5 128t-71.5 265q0 209 71 392.5t181 269.5q88 70 248 88l37 202 h235z" glyph-name="cent" horiz-adv-x="821" unicode="¢"/><glyph d="M924 1083q-86 0 -130 -44t-69 -158h279l-50 -277h-286q-43 -162 -111 -246l-2 -10h508l-62 -348h-1052l61 348q133 51 207 256h-149l49 277h164l26 163q23 123 67 206t111.5 126t143.5 60.5t178 17.5q160 0 379 -35l-76 -358q-114 22 -186 22z" glyph-name="sterling" horiz-adv-x="1148" unicode="£"/><glyph d="M1430 1434l-558 -725h285l-37 -205h-286l-19 -103h289l-37 -204h-287l-35 -197h-438l35 197h-287l37 204h285l18 103h-286l36 205h287l4 26l-276 699h448l97 -410h22l238 410h465z" glyph-name="yen" horiz-adv-x="1267" unicode="¥"/><glyph d="M195 813l147 840h276l-147 -840h-276zM-18 -389l149 840h277l-150 -840h-276z" glyph-name="brokenbar" horiz-adv-x="571" unicode="¦"/><glyph d="M836 1147q-160 0 -193 -49q-23 -33 -22 -74q0 -29 34 -53l185 -123q152 -100 151 -275q0 -168 -78 -276q-41 -59 -110 -94q18 -55 18 -115q0 -174 -88 -301q-123 -176 -457 -176q-178 0 -393 35l51 301q207 -27 275 -27q137 0 182 66q25 35 25 82q0 31 -37 55l-203 133 q-131 84 -131 252q0 174 72 274q41 57 116 95q-18 45 -18 110q0 184 84 305q115 162 451 162q154 0 340 -27l-50 -294q-104 14 -204 14zM424 565q0 -31 31 -53l127 -88q35 51 34 96q0 33 -47 66l-108 73q-37 -51 -37 -94z" glyph-name="section" horiz-adv-x="1034" unicode="§"/><glyph d="M283 1604h327l-51 -287h-328zM768 1604h328l-52 -287h-327z" glyph-name="dieresis" horiz-adv-x="1007" unicode="¨"/><glyph d="M745 -20q-295 0 -473 184t-178 473q0 338 233.5 577.5t575.5 239.5q295 0 473 -184.5t178 -472.5q0 -338 -232.5 -577.5t-576.5 -239.5zM768 162q256 0 425 182t169 436q0 221 -133 356.5t-348 135.5q-256 0 -424 -182.5t-168 -436.5q0 -221 132 -356t347 -135zM825 330 q-160 0 -229.5 67.5t-69.5 200.5q0 94 28 210t75 183q78 113 274 113q111 0 189 -31l-27 -180q-72 16 -139 16q-57 0 -88 -41q-29 -41 -48.5 -122.5t-19.5 -139.5q0 -47 19.5 -64.5t68.5 -17.5q61 0 123 31l23 -201q-70 -24 -179 -24z" glyph-name="copyright" horiz-adv-x="1597" unicode="©"/><glyph d="M647 1444q223 0 223 -193q0 -47 -8 -88l-86 -495l-280 -25l2 80h-9q-51 -84 -170 -84q-115 0 -161.5 52t-46.5 157q0 135 73.5 192.5t229.5 57.5h135l6 41q4 20 4 30q0 35 -47 35q-51 0 -217 -43l-27 230q232 53 379 53zM401 858q0 -41 35 -41q63 0 80 92l12 70h-45 q-41 0 -61.5 -40t-20.5 -81z" glyph-name="ordfeminine" horiz-adv-x="864" unicode="ª"/><glyph d="M541 840l-287 -271l184 -262l-43 -287l-395 373l23 148l32 213l529 372zM1114 1126l-43 -286l-289 -271l187 -262l-43 -287l-396 373l25 164l31 197z" glyph-name="guillemotleft" horiz-adv-x="1067" unicode="«"/><glyph d="M645 1444q197 0 315.5 -126t118.5 -317q0 -225 -156.5 -390t-385.5 -165q-197 0 -316 126t-119 319q0 225 158 389t385 164zM553 569q170 0 282.5 125t112.5 295q0 147 -88 240.5t-231 93.5q-170 0 -283 -125t-113 -297q0 -147 88.5 -239.5t231.5 -92.5zM743 934 q-16 -20 -43 -33l62 -201h-162l-35 177h-28l-31 -177h-162l90 502h166q100 0 143 -33.5t43 -105.5q0 -78 -43 -129zM575 1094l-20 -119h20q33 0 46 26q14 29 14 62q0 18 -11.5 24.5t-39.5 6.5h-9z" glyph-name="registered" horiz-adv-x="1044" unicode="®"/><glyph d="M281 1591h620l-51 -286h-621z" glyph-name="macron" horiz-adv-x="815" unicode="¯"/><glyph d="M512 846q-152 0 -243 92t-91 233q0 168 122 284t294 116q152 0 244 -93.5t92 -234.5q0 -166 -123 -281.5t-295 -115.5zM539 1065q66 0 109.5 47t43.5 113q0 55 -33.5 91t-89.5 36q-66 0 -110.5 -48.5t-44.5 -111.5q0 -55 35 -91t90 -36z" glyph-name="degree" horiz-adv-x="882" unicode="°"/><glyph d="M885 932h370l-57 -328h-371l-53 -297h-328l54 297h-371l57 328h371l53 295h328zM2 -121l57 328h1069l-57 -328h-1069z" glyph-name="plusminus" horiz-adv-x="1310" unicode="±"/><glyph d="M416 924q-39 -33 -54 -62h306l-39 -217h-602l34 191q14 76 48 127t118 114l185 142q53 41 53 73.5t-74 32.5q-66 0 -172 -18l-8 217q129 16 223 16q313 0 314 -205q0 -154 -130 -254z" glyph-name="uni00B2" horiz-adv-x="643" unicode="²"/><glyph d="M614 1102q68 -41 68 -137q0 -131 -64 -226q-45 -63 -121.5 -87.5t-199.5 -24.5q-164 0 -250 43l35 209q61 -29 215 -29q63 0 82 29q23 33 22 82q0 45 -75 45h-129l32 190h117q55 0 78 31q20 31 20 69q0 37 -55 37q-119 0 -188 -35l-4 220q61 23 227 22q301 0 301 -201 q0 -111 -45 -176q-23 -33 -66 -53v-8z" glyph-name="uni00B3" horiz-adv-x="643" unicode="³"/><glyph d="M152 1296l231 408h371l-338 -408h-264z" glyph-name="acute" horiz-adv-x="581" unicode="´"/><glyph d="M1423 1434l-317 -1803h-279l273 1545h-127l-273 -1545h-278l141 799q-233 4 -349 98.5t-116 300.5q0 117 31 245t88 200q129 160 510 160h696z" glyph-name="paragraph" horiz-adv-x="1417" unicode="¶"/><glyph d="M121 403l74 424h467l-74 -424h-467z" glyph-name="periodcentered" horiz-adv-x="759" unicode="·"/><glyph d="M193 -86q180 -20 180 -176q0 -119 -70 -184q-72 -66 -199 -66q-117 0 -239 45l14 131q35 -16 92 -16q68 0 97 26q27 23 26 66q0 37 -57 37h-96l106 295h221z" glyph-name="cedilla" horiz-adv-x="544" unicode="¸"/><glyph d="M520 862h142l-37 -217h-576l37 217h160l76 443l-140 -37v221l180 47h275z" glyph-name="uni00B9" horiz-adv-x="618" unicode="¹"/><glyph d="M569 639q-188 0 -268 77t-80 222q0 94 27.5 200.5t77.5 174.5q94 131 313 131q188 0 268 -77t80 -222q0 -92 -26.5 -197.5t-73.5 -171.5q-99 -137 -318 -137zM567 860q35 0 49 25q25 35 44.5 133t19.5 153q0 51 -37 52q-33 0 -49 -25q-25 -35 -45.5 -133t-20.5 -154 q0 -51 39 -51z" glyph-name="ordmasculine" horiz-adv-x="1038" unicode="º"/><glyph d="M543 754l-31 -199l-25 -162l-528 -373l41 287l289 273l-185 260l41 286zM676 1126l397 -372l-31 -197l-24 -164l-529 -373l41 287l287 273l-182 260z" glyph-name="guillemotright" horiz-adv-x="1067" unicode="»"/><glyph d="M1217 1475h274l-864 -1516h-273zM614 557h-585l39 217h161l76 436l-145 -39v211l184 52h277l-115 -660h147zM1718 360l-39 -217h-73l-25 -143h-235l24 143h-381l43 240l279 494h248l-269 -510v-7h119l39 220h235l-38 -220h73z" glyph-name="onequarter" horiz-adv-x="1769" unicode="¼"/><glyph d="M1217 1475h274l-864 -1516h-273zM614 557h-585l39 217h161l76 436l-145 -39v211l184 52h277l-115 -660h147zM1468 334q-82 -66 -98 -117h287l-39 -217h-580l33 186q18 98 52 153.5t132 133.5l162 127q33 27 33 45q0 23 -53 23q-68 0 -154 -21l-8 225q121 18 207 19 q291 0 291 -221q0 -133 -119 -224z" glyph-name="onehalf" horiz-adv-x="1742" unicode="½"/><glyph d="M1165 1475h275l-865 -1516h-272zM594 653q-76 -109 -299 -108q-170 0 -260 39l33 209q68 -25 174 -25q88 0 114 37q16 23 17 59q0 29 -15.5 39t-50.5 10h-110l34 199h91q55 0 73 29q18 27 19 53q0 39 -62 39q-88 0 -170 -33l-2 225q70 23 217 23q301 0 301 -209 q0 -100 -45 -164q-33 -43 -80 -59v-4q80 -43 80 -150q0 -121 -59 -209zM1667 360l-39 -217h-74l-24 -143h-236l25 143h-381l43 240l279 494h247l-268 -510v-7h119l39 220h235l-39 -220h74z" glyph-name="threequarters" horiz-adv-x="1718" unicode="¾"/><glyph d="M352 680l68 385h467l-68 -385h-467zM758 520l-10 -69q-14 -98 -46 -151.5t-112 -104.5l-117 -76q-70 -47 -70 -94q0 -27 23 -35t84 -8q88 0 258 18l-8 -358q-219 -31 -367 -31q-260 0 -367.5 81t-107.5 240q0 115 47 194t158 157l86 61q74 53 104.5 86t36.5 68l4 22h404z " glyph-name="questiondown" horiz-adv-x="950" unicode="¿"/><glyph d="M977 1604h-248l-194 407h354zM1272 0h-461v297h-338l-104 -297h-469l600 1434h676zM594 645h217l2 440h-63z" glyph-name="Agrave" horiz-adv-x="1370" unicode="À"/><glyph d="M1339 2011l-338 -407h-264l232 407h370zM1176 1434l96 -1434h-461v297h-338l-104 -297h-469l600 1434h676zM594 645h217l2 440h-63z" glyph-name="Aacute" horiz-adv-x="1370" unicode="Á"/><glyph d="M907 1810l-219 -215h-282l335 408h381l195 -408h-268zM1176 1434l96 -1434h-461v297h-338l-104 -297h-469l600 1434h676zM594 645h217l2 440h-63z" glyph-name="Acircumflex" horiz-adv-x="1370" unicode="Â"/><glyph d="M748 1696q-63 0 -93 -97h-168q27 150 110 240t198 90q80 0 151 -53l58 -43q33 -25 57 -25q49 0 86 97h166q-27 -162 -107 -245t-198 -83q-88 0 -146 49l-59 49q-22 21 -55 21zM1176 1434l96 -1434h-461v297h-338l-104 -297h-469l600 1434h676zM594 645h217l2 440h-63z " glyph-name="Atilde" horiz-adv-x="1370" unicode="Ã"/><glyph d="M842 1911l-51 -287h-328l51 287h328zM999 1911h328l-51 -287h-328zM1176 1434l96 -1434h-461v297h-338l-104 -297h-469l600 1434h676zM594 645h217l2 440h-63z" glyph-name="Adieresis" horiz-adv-x="1370" unicode="Ä"/><glyph d="M881 1540q-145 0 -205 53.5t-60 157.5q0 127 56 205q70 100 254 100q145 0 203.5 -53t58.5 -158q0 -127 -55 -207q-70 -98 -252 -98zM815 1868q-25 -35 -24 -94q0 -45 22.5 -65.5t77.5 -20.5q70 0 96 38q27 37 27 97q0 43 -22.5 63.5t-78.5 20.5q-69 0 -98 -39zM1272 0 h-461v297h-338l-104 -297h-469l600 1434h676zM594 645h217l2 440h-63z" glyph-name="Aring" horiz-adv-x="1370" unicode="Å"/><glyph d="M1860 1085h-418l-29 -167h377l-61 -349h-377l-39 -221h442l-61 -348h-901l51 297h-312l-161 -297h-473l845 1434h1178zM905 645l78 440h-22l-240 -440h184z" glyph-name="AE" horiz-adv-x="1859" unicode="Æ"/><glyph d="M889 1083q-143 0 -197 -59q-55 -59 -100 -219t-45 -289q0 -94 35.5 -130t128.5 -36q135 0 250 49l22 -370q-135 -49 -332 -49h-16l-33 -66q180 -20 180 -176q0 -119 -69 -184q-72 -66 -199 -66q-117 0 -240 45l15 131q35 -16 92 -16q68 0 96 26q27 23 27 66q0 37 -58 37 h-96l80 223q-182 39 -266 162t-84 344q0 248 89 488.5t226 346.5q143 113 434 113q199 0 342 -55l-71 -350q-80 34 -211 34z" glyph-name="Ccedilla" horiz-adv-x="1103" unicode="Ç"/><glyph d="M858 1604h-248l-194 407h354zM1092 1085h-418l-29 -167h377l-61 -349h-377l-39 -221h442l-61 -348h-901l251 1434h877z" glyph-name="Egrave" horiz-adv-x="1091" unicode="È"/><glyph d="M1221 2011l-338 -407h-265l232 407h371zM1153 1434l-61 -349h-418l-29 -167h377l-61 -349h-377l-39 -221h442l-61 -348h-901l251 1434h877z" glyph-name="Eacute" horiz-adv-x="1091" unicode="É"/><glyph d="M788 1810l-219 -215h-282l336 408h381l194 -408h-268zM1153 1434l-61 -349h-418l-29 -167h377l-61 -349h-377l-39 -221h442l-61 -348h-901l251 1434h877z" glyph-name="Ecircumflex" horiz-adv-x="1091" unicode="Ê"/><glyph d="M723 1911l-51 -287h-328l51 287h328zM881 1911h327l-51 -287h-328zM1153 1434l-61 -349h-418l-29 -167h377l-61 -349h-377l-39 -221h442l-61 -348h-901l251 1434h877z" glyph-name="Edieresis" horiz-adv-x="1091" unicode="Ë"/><glyph d="M401 1604l-194 407h354l88 -407h-248zM737 1434l-252 -1434h-458l252 1434h458z" glyph-name="Igrave" horiz-adv-x="704" unicode="Ì"/><glyph d="M410 1604l231 407h371l-338 -407h-264zM737 1434l-252 -1434h-458l252 1434h458z" glyph-name="Iacute" horiz-adv-x="704" unicode="Í"/><glyph d="M580 1810l-220 -215h-282l336 408h381l194 -408h-268zM27 0l252 1434h458l-252 -1434h-458z" glyph-name="Icircumflex" horiz-adv-x="704" unicode="Î"/><glyph d="M186 1911h328l-51 -287h-328zM672 1911h327l-51 -287h-327zM737 1434l-252 -1434h-458l252 1434h458z" glyph-name="Idieresis" horiz-adv-x="704" unicode="Ï"/><glyph d="M864 1434q242 0 359.5 -127t117.5 -392q0 -225 -74.5 -446t-191.5 -332q-143 -137 -438 -137h-610l100 573h-174l51 287h174l101 574h585zM741 403q47 61 94.5 246t47.5 303q0 72 -24.5 101.5t-82.5 29.5h-100l-39 -223h141l-51 -287h-141l-39 -223h76q77 0 118 53z" glyph-name="Eth" horiz-adv-x="1363" unicode="Ð"/><glyph d="M780 1696q-63 0 -92 -97h-168q27 150 110 240t197 90q80 0 152 -53l57 -43q33 -25 58 -25q49 0 86 97h166q-27 -162 -107 -245t-199 -83q-88 0 -145 49l-59 49q-23 21 -56 21zM1063 1434h395l-252 -1434h-577l-41 838h-21l-147 -838h-393l252 1434h581l39 -830h19z" glyph-name="Ntilde" horiz-adv-x="1425" unicode="Ñ"/><glyph d="M758 1604l-195 407h355l88 -407h-248zM645 -20q-297 0 -430 122.5t-133 403.5q0 248 87 484.5t220 342.5q150 121 447 121t430 -122t133 -398q0 -246 -86 -484.5t-217 -347.5q-148 -122 -451 -122zM676 350q90 0 127 49q43 55 86 234.5t43 302.5q0 82 -27.5 114.5 t-97.5 32.5q-90 0 -127 -47q-45 -55 -88 -233t-43 -301q0 -86 28.5 -119t98.5 -33z" glyph-name="Ograve" horiz-adv-x="1419" unicode="Ò"/><glyph d="M766 1604l231 407h371l-338 -407h-264zM645 -20q-297 0 -430 122.5t-133 403.5q0 248 87 484.5t220 342.5q150 121 447 121t430 -122t133 -398q0 -246 -86 -484.5t-217 -347.5q-148 -122 -451 -122zM676 350q90 0 127 49q43 55 86 234.5t43 302.5q0 82 -27.5 114.5 t-97.5 32.5q-90 0 -127 -47q-45 -55 -88 -233t-43 -301q0 -86 28.5 -119t98.5 -33z" glyph-name="Oacute" horiz-adv-x="1419" unicode="Ó"/><glyph d="M936 1810l-219 -215h-283l336 408h381l195 -408h-269zM836 1454q297 0 430 -122t133 -398q0 -246 -86 -484.5t-217 -347.5q-147 -123 -451 -122q-297 0 -430 122.5t-133 403.5q0 248 87 484.5t220 342.5q150 121 447 121zM803 399q43 55 86 234.5t43 302.5 q0 82 -27.5 114.5t-97.5 32.5q-90 0 -127 -47q-45 -55 -88 -233t-43 -301q0 -86 28.5 -119t98.5 -33q90 0 127 49z" glyph-name="Ocircumflex" horiz-adv-x="1419" unicode="Ô"/><glyph d="M1036 1577q-88 0 -145 49l-60 49q-23 20 -55 21q-63 0 -92 -97h-168q27 150 110 240t197 90q80 0 152 -53l57 -43q33 -25 58 -25q49 0 86 97h165q-27 -162 -106.5 -245t-198.5 -83zM645 -20q-297 0 -430 122.5t-133 403.5q0 248 87 484.5t220 342.5q150 121 447 121 t430 -122t133 -398q0 -246 -86 -484.5t-217 -347.5q-148 -122 -451 -122zM676 350q90 0 127 49q43 55 86 234.5t43 302.5q0 82 -27.5 114.5t-97.5 32.5q-90 0 -127 -47q-45 -55 -88 -233t-43 -301q0 -86 28.5 -119t98.5 -33z" glyph-name="Otilde" horiz-adv-x="1419" unicode="Õ"/><glyph d="M543 1911h327l-51 -287h-327zM1028 1911h328l-51 -287h-328zM645 -20q-297 0 -430 122.5t-133 403.5q0 248 87 484.5t220 342.5q150 121 447 121t430 -122t133 -398q0 -246 -86 -484.5t-217 -347.5q-148 -122 -451 -122zM676 350q90 0 127 49q43 55 86 234.5t43 302.5 q0 82 -27.5 114.5t-97.5 32.5q-90 0 -127 -47q-45 -55 -88 -233t-43 -301q0 -86 28.5 -119t98.5 -33z" glyph-name="Odieresis" horiz-adv-x="1419" unicode="Ö"/><glyph d="M1241 874l-352 -301l248 -297l-265 -231l-249 299l-349 -299l-198 231l352 302l-248 296l264 232l250 -299l348 299z" glyph-name="multiply" horiz-adv-x="1310" unicode="×"/><glyph d="M1233 1360q166 -119 166 -426q0 -246 -86 -484.5t-217 -347.5q-147 -123 -451 -122q-100 0 -180 12l-53 -94h-267l101 180q-164 119 -164 428q0 248 87 484.5t220 342.5q150 121 447 121q96 0 176 -12l53 94h266zM680 1036q-35 -41 -68.5 -158.5t-52.5 -240.5l252 446h-4 q-90 0 -127 -47zM676 350q90 0 127 49q33 43 67.5 164t51.5 244l-256 -457h10z" glyph-name="Oslash" horiz-adv-x="1419" unicode="Ø"/><glyph d="M715 1604l-195 407h354l89 -407h-248zM606 -20q-285 0 -406.5 100t-121.5 289q0 88 20 211l150 854h459l-166 -951q-6 -29 -6 -53q0 -80 94 -80q63 0 94 34t47 132l162 918h459l-162 -924q-53 -303 -205 -416.5t-418 -113.5z" glyph-name="Ugrave" horiz-adv-x="1329" unicode="Ù"/><glyph d="M723 1604l231 407h371l-338 -407h-264zM606 -20q-285 0 -406.5 100t-121.5 289q0 88 20 211l150 854h459l-166 -951q-6 -29 -6 -53q0 -80 94 -80q63 0 94 34t47 132l162 918h459l-162 -924q-53 -303 -205 -416.5t-418 -113.5z" glyph-name="Uacute" horiz-adv-x="1329" unicode="Ú"/><glyph d="M893 1810l-219 -215h-283l336 408h381l195 -408h-269zM932 1434h459l-162 -924q-53 -303 -205 -416.5t-418 -113.5q-285 0 -406.5 100t-121.5 289q0 88 20 211l150 854h459l-166 -951q-6 -29 -6 -53q0 -80 94 -80q63 0 94 34t47 132z" glyph-name="Ucircumflex" horiz-adv-x="1329" unicode="Û"/><glyph d="M500 1911h327l-51 -287h-327zM985 1911h328l-51 -287h-328zM606 -20q-285 0 -406.5 100t-121.5 289q0 88 20 211l150 854h459l-166 -951q-6 -29 -6 -53q0 -80 94 -80q63 0 94 34t47 132l162 918h459l-162 -924q-53 -303 -205 -416.5t-418 -113.5z" glyph-name="Udieresis" horiz-adv-x="1329" unicode="Ü"/><glyph d="M1309 2011l-338 -407h-264l231 407h371zM1458 1434l-608 -1006l-76 -428h-459l86 494l-243 940h458l74 -582h23l276 582h469z" glyph-name="Yacute" horiz-adv-x="1298" unicode="Ý"/><glyph d="M782 1260q256 0 376 -92.5t120 -288.5q0 -152 -61.5 -299.5t-155.5 -223.5q-127 -100 -430 -100h-101l-45 -256h-458l252 1434h458l-30 -174h75zM752 623q29 35 52 104.5t23 120.5q0 96 -120 96h-56l-65 -373h30q93 1 136 52z" glyph-name="Thorn" horiz-adv-x="1269" unicode="Þ"/><glyph d="M897 -20q-160 0 -375 38l58 306q115 -23 194 -23q74 0 96 25q16 20 17 47q0 35 -29 55l-135 107q-76 59 -76 178q0 92 38 154.5t122 136.5l76 65q70 61 69 107q0 59 -106 59q-111 0 -160 -58.5t-72 -187.5l-174 -989h-440l186 1059q27 147 86.5 246.5t152.5 150.5 t197.5 71.5t247.5 20.5q305 0 428 -82t123 -247q0 -190 -153 -320l-94 -80q-66 -55 -66 -78q0 -18 25 -36l104 -84q66 -51 96.5 -105.5t30.5 -136.5q0 -90 -37 -183.5t-108 -144.5q-99 -71 -322 -71z" glyph-name="germandbls" horiz-adv-x="1441" unicode="ß"/><glyph d="M825 1296h-247l-195 408h354zM780 1147q162 0 239 -65.5t77 -202.5q0 -57 -13 -131l-127 -728l-405 -34v129h-8q-86 -135 -275 -135q-281 0 -280 266q0 106 39 196t106 138q92 66 303 65h191l8 53q6 31 6 52q0 29 -12.5 39t-44.5 10q-86 0 -330 -60l-31 330 q358 78 557 78zM414 287q0 -47 47 -47q96 0 123 163l12 72h-43q-68 0 -92 -31q-18 -23 -32.5 -72.5t-14.5 -84.5z" glyph-name="agrave" horiz-adv-x="1132" unicode="à"/><glyph d="M1188 1704l-338 -408h-264l231 408h371zM780 1147q162 0 239 -65.5t77 -202.5q0 -57 -13 -131l-127 -728l-405 -34v129h-8q-86 -135 -275 -135q-281 0 -280 266q0 106 39 196t106 138q92 66 303 65h191l8 53q6 31 6 52q0 29 -12.5 39t-44.5 10q-86 0 -330 -60l-31 330 q358 78 557 78zM414 287q0 -47 47 -47q96 0 123 163l12 72h-43q-68 0 -92 -31q-18 -23 -32.5 -72.5t-14.5 -84.5z" glyph-name="aacute" horiz-adv-x="1132" unicode="á"/><glyph d="M756 1503l-219 -215h-283l336 408h381l194 -408h-268zM780 1147q162 0 239 -65.5t77 -202.5q0 -57 -13 -131l-127 -728l-405 -34v129h-8q-86 -135 -275 -135q-281 0 -280 266q0 106 39 196t106 138q92 66 303 65h191l8 53q6 31 6 52q0 29 -12.5 39t-44.5 10 q-86 0 -330 -60l-31 330q358 78 557 78zM414 287q0 -47 47 -47q96 0 123 163l12 72h-43q-68 0 -92 -31q-18 -23 -32.5 -72.5t-14.5 -84.5z" glyph-name="acircumflex" horiz-adv-x="1132" unicode="â"/><glyph d="M596 1389q-63 0 -92 -97h-168q27 150 109.5 240t197.5 90q80 0 152 -53l57 -43q33 -25 57 -25q49 0 86 96h166q-27 -162 -106.5 -244.5t-198.5 -82.5q-88 0 -145 49l-60 49q-22 21 -55 21zM780 1147q162 0 239 -65.5t77 -202.5q0 -57 -13 -131l-127 -728l-405 -34v129h-8 q-86 -135 -275 -135q-281 0 -280 266q0 106 39 196t106 138q92 66 303 65h191l8 53q6 31 6 52q0 29 -12.5 39t-44.5 10q-86 0 -330 -60l-31 330q358 78 557 78zM414 287q0 -47 47 -47q96 0 123 163l12 72h-43q-68 0 -92 -31q-18 -23 -32.5 -72.5t-14.5 -84.5z" glyph-name="atilde" horiz-adv-x="1132" unicode="ã"/><glyph d="M690 1604l-51 -287h-328l51 287h328zM848 1604h328l-52 -287h-327zM780 1147q162 0 239 -65.5t77 -202.5q0 -57 -13 -131l-127 -728l-405 -34v129h-8q-86 -135 -275 -135q-281 0 -280 266q0 106 39 196t106 138q92 66 303 65h191l8 53q6 31 6 52q0 29 -12.5 39t-44.5 10 q-86 0 -330 -60l-31 330q358 78 557 78zM414 287q0 -47 47 -47q96 0 123 163l12 72h-43q-68 0 -92 -31q-18 -23 -32.5 -72.5t-14.5 -84.5z" glyph-name="adieresis" horiz-adv-x="1132" unicode="ä"/><glyph d="M729 1233q-145 0 -204.5 53t-59.5 158q0 127 55 205q70 100 254 100q145 0 203.5 -53.5t58.5 -157.5q0 -127 -55 -207q-70 -98 -252 -98zM664 1561q-25 -35 -25 -95q0 -45 22.5 -65.5t77.5 -20.5q70 0 97 39q27 37 26 97q0 43 -22.5 63t-77.5 20q-69 1 -98 -38zM780 1147 q162 0 239 -65.5t77 -202.5q0 -57 -13 -131l-127 -728l-405 -34v129h-8q-86 -135 -275 -135q-281 0 -280 266q0 106 39 196t106 138q92 66 303 65h191l8 53q6 31 6 52q0 29 -12.5 39t-44.5 10q-86 0 -330 -60l-31 330q358 78 557 78zM414 287q0 -47 47 -47q96 0 123 163 l12 72h-43q-68 0 -92 -31q-18 -23 -32.5 -72.5t-14.5 -84.5z" glyph-name="aring" horiz-adv-x="1132" unicode="å"/><glyph d="M1204 1147q225 0 322.5 -90t97.5 -299q0 -133 -37 -285l-6 -24h-573q-6 -51 -7 -78q0 -41 15.5 -57.5t54.5 -16.5q190 0 395 51l23 -303q-244 -66 -436 -65q-254 0 -367 135h-27q-125 -135 -346 -135q-162 0 -254 77.5t-92 216.5q0 94 40 178.5t106 129.5q90 63 299 63 h188l10 53q4 20 4 33q0 68 -79 68q-129 0 -306 -60l-30 330q358 78 555 78q127 0 196 -41q102 41 254 41zM1051 684h184q8 63 8 107q0 45 -12 60t-47 15q-51 0 -78.5 -38t-54.5 -144zM446 240q84 0 111 153l14 82h-61q-55 0 -82 -39q-37 -55 -37 -135q0 -61 55 -61z" glyph-name="ae" horiz-adv-x="1640" unicode="æ"/><glyph d="M674 1147q133 0 246 -31l-60 -303q-41 12 -98 12q-139 0 -187 -65q-35 -49 -64.5 -160t-29.5 -194q0 -61 23.5 -83t93.5 -22q90 0 164 23l-6 -322q-86 -23 -221 -22h-35l-33 -66q180 -20 180 -176q0 -119 -69 -184q-72 -66 -199 -66q-117 0 -240 45l15 131q35 -16 92 -16 q68 0 96 26q27 23 27 66q0 37 -58 37h-96l82 229q-135 37 -197.5 131t-62.5 254q0 209 70.5 392.5t181.5 269.5q121 94 385 94z" glyph-name="ccedilla" horiz-adv-x="878" unicode="ç"/><glyph d="M799 1296h-248l-195 408h355zM643 1147q225 0 328.5 -88t103.5 -281q0 -109 -41 -293l-8 -36h-573q-4 -49 -4 -66q0 -51 19 -69.5t77 -18.5q137 0 362 53l25 -303q-244 -66 -434 -65q-459 0 -459 454q0 188 67.5 360.5t174.5 254.5q124 98 362 98zM496 684h184 q10 72 10 111q0 41 -13 56t-46 15q-66 0 -94 -59q-25 -51 -41 -123z" glyph-name="egrave" horiz-adv-x="1095" unicode="è"/><glyph d="M1161 1704l-338 -408h-264l232 408h370zM643 1147q225 0 328.5 -88t103.5 -281q0 -109 -41 -293l-8 -36h-573q-4 -49 -4 -66q0 -51 19 -69.5t77 -18.5q137 0 362 53l25 -303q-244 -66 -434 -65q-459 0 -459 454q0 188 67.5 360.5t174.5 254.5q124 98 362 98zM496 684h184 q10 72 10 111q0 41 -13 56t-46 15q-66 0 -94 -59q-25 -51 -41 -123z" glyph-name="eacute" horiz-adv-x="1095" unicode="é"/><glyph d="M729 1503l-219 -215h-283l336 408h381l195 -408h-269zM643 1147q225 0 328.5 -88t103.5 -281q0 -109 -41 -293l-8 -36h-573q-4 -49 -4 -66q0 -51 19 -69.5t77 -18.5q137 0 362 53l25 -303q-244 -66 -434 -65q-459 0 -459 454q0 188 67.5 360.5t174.5 254.5q124 98 362 98 zM496 684h184q10 72 10 111q0 41 -13 56t-46 15q-66 0 -94 -59q-25 -51 -41 -123z" glyph-name="ecircumflex" horiz-adv-x="1095" unicode="ê"/><glyph d="M664 1604l-52 -287h-327l51 287h328zM821 1604h328l-51 -287h-328zM643 1147q225 0 328.5 -88t103.5 -281q0 -109 -41 -293l-8 -36h-573q-4 -49 -4 -66q0 -51 19 -69.5t77 -18.5q137 0 362 53l25 -303q-244 -66 -434 -65q-459 0 -459 454q0 188 67.5 360.5t174.5 254.5 q124 98 362 98zM496 684h184q10 72 10 111q0 41 -13 56t-46 15q-66 0 -94 -59q-25 -51 -41 -123z" glyph-name="edieresis" horiz-adv-x="1095" unicode="ë"/><glyph d="M309 1296l-194 408h354l88 -408h-248zM635 1126l-199 -1126h-440l199 1126h440z" glyph-name="igrave" horiz-adv-x="628" unicode="ì"/><glyph d="M317 1296l232 408h371l-338 -408h-265zM635 1126l-199 -1126h-440l199 1126h440z" glyph-name="iacute" horiz-adv-x="628" unicode="í"/><glyph d="M487 1503l-219 -215h-282l336 408h380l195 -408h-268zM-4 0l199 1126h440l-199 -1126h-440z" glyph-name="icircumflex" horiz-adv-x="628" unicode="î"/><glyph d="M94 1604h328l-51 -287h-328zM580 1604h327l-51 -287h-328zM635 1126l-199 -1126h-440l199 1126h440z" glyph-name="idieresis" horiz-adv-x="628" unicode="ï"/><glyph d="M1040 1264q20 -37 41 -90q76 -201 76 -412q0 -195 -52 -370t-138 -269q-131 -143 -443 -143q-264 0 -387 93t-123 292q0 184 62.5 367t152.5 261q88 76 265 76q139 0 200 -53h21q-6 49 -25 102q-12 37 -20 56l-285 -70l-43 233l207 52q-51 78 -100 147h430q25 -35 36 -57 l240 57l43 -233zM629 350q25 43 53.5 173t28.5 196q0 82 -80 82q-66 0 -96 -45q-29 -45 -56.5 -168t-27.5 -199q0 -49 17 -68.5t58 -19.5q74 0 103 49z" glyph-name="eth" horiz-adv-x="1144" unicode="ð"/><glyph d="M639 1389q-63 0 -92 -97h-168q27 150 109.5 240t197.5 90q80 0 152 -53l57 -43q33 -25 57 -25q49 0 86 96h166q-27 -162 -106.5 -244.5t-198.5 -82.5q-88 0 -145 49l-60 49q-22 21 -55 21zM905 1147q158 0 231.5 -66.5t73.5 -206.5q0 -68 -18 -172l-123 -702h-440 l125 709q6 41 6 59q0 33 -14.5 45t-53.5 12q-106 0 -131 -133l-121 -692h-440l195 1106l405 35l-2 -129h12q47 72 114.5 103.5t180.5 31.5z" glyph-name="ntilde" horiz-adv-x="1251" unicode="ñ"/><glyph d="M586 1296l-195 408h354l89 -408h-248zM528 -20q-252 0 -373.5 101t-121.5 310q0 199 70.5 383t179.5 270q131 102 372 103q254 0 375 -104.5t121 -327.5q0 -176 -64.5 -351.5t-162.5 -263.5q-138 -120 -396 -120zM545 301q63 0 94 82q23 57 43 166.5t20 181.5 q0 53 -14 73.5t-49 20.5q-55 0 -82 -55q-25 -53 -49.5 -182t-24.5 -201q0 -45 13.5 -65.5t48.5 -20.5z" glyph-name="ograve" horiz-adv-x="1179" unicode="ò"/><glyph d="M594 1296l231 408h371l-338 -408h-264zM528 -20q-252 0 -373.5 101t-121.5 310q0 199 70.5 383t179.5 270q131 102 372 103q254 0 375 -104.5t121 -327.5q0 -176 -64.5 -351.5t-162.5 -263.5q-138 -120 -396 -120zM545 301q63 0 94 82q23 57 43 166.5t20 181.5 q0 53 -14 73.5t-49 20.5q-55 0 -82 -55q-25 -53 -49.5 -182t-24.5 -201q0 -45 13.5 -65.5t48.5 -20.5z" glyph-name="oacute" horiz-adv-x="1179" unicode="ó"/><glyph d="M764 1503l-219 -215h-283l336 408h381l195 -408h-269zM655 1147q254 0 375 -104.5t121 -327.5q0 -176 -64.5 -351.5t-162.5 -263.5q-137 -121 -396 -120q-252 0 -373.5 101t-121.5 310q0 199 70.5 383t179.5 270q130 103 372 103zM639 383q23 57 43 166.5t20 181.5 q0 53 -14 73.5t-49 20.5q-55 0 -82 -55q-25 -53 -49.5 -182t-24.5 -201q0 -45 13.5 -65.5t48.5 -20.5q63 0 94 82z" glyph-name="ocircumflex" horiz-adv-x="1179" unicode="ô"/><glyph d="M864 1270q-88 0 -145 49l-60 49q-23 20 -55 21q-63 0 -92 -97h-168q27 150 110 240t197 90q80 0 152 -53l57 -43q33 -25 58 -25q49 0 86 96h165q-27 -162 -106.5 -244.5t-198.5 -82.5zM528 -20q-252 0 -373.5 101t-121.5 310q0 199 70.5 383t179.5 270q131 102 372 103 q254 0 375 -104.5t121 -327.5q0 -176 -64.5 -351.5t-162.5 -263.5q-138 -120 -396 -120zM545 301q63 0 94 82q23 57 43 166.5t20 181.5q0 53 -14 73.5t-49 20.5q-55 0 -82 -55q-25 -53 -49.5 -182t-24.5 -201q0 -45 13.5 -65.5t48.5 -20.5z" glyph-name="otilde" horiz-adv-x="1179" unicode="õ"/><glyph d="M371 1604h327l-51 -287h-328zM856 1604h328l-51 -287h-328zM528 -20q-252 0 -373.5 101t-121.5 310q0 199 70.5 383t179.5 270q131 102 372 103q254 0 375 -104.5t121 -327.5q0 -176 -64.5 -351.5t-162.5 -263.5q-138 -120 -396 -120zM545 301q63 0 94 82q23 57 43 166.5 t20 181.5q0 53 -14 73.5t-49 20.5q-55 0 -82 -55q-25 -53 -49.5 -182t-24.5 -201q0 -45 13.5 -65.5t48.5 -20.5z" glyph-name="odieresis" horiz-adv-x="1179" unicode="ö"/><glyph d="M506 850l53 303h399l-53 -303h-399zM94 412l60 327h1067l-60 -327h-1067zM356 -2l54 303h399l-53 -303h-400z" glyph-name="divide" horiz-adv-x="1310" unicode="÷"/><glyph d="M1014 1055q137 -104 137 -340q0 -176 -64.5 -351.5t-162.5 -263.5q-137 -121 -396 -120q-61 0 -116 6l-68 -121h-268l108 194q-152 96 -151 332q0 199 70.5 383t179.5 270q131 102 372 103q80 0 136 -8l69 123h268zM639 383q23 57 43 166.5t20 181.5q0 53 -14 73.5 t-49 20.5q-55 0 -82 -55q-25 -53 -49.5 -182t-24.5 -201q0 -45 13.5 -65.5t48.5 -20.5q63 0 94 82z" glyph-name="oslash" horiz-adv-x="1179" unicode="ø"/><glyph d="M852 1296h-248l-194 408h354zM784 1126h441l-195 -1106l-407 -34l2 129h-11q-88 -135 -284 -135q-154 0 -220.5 63t-66.5 199q0 78 18 178l125 706h443l-125 -708q-6 -31 -6 -53q0 -63 55 -64q90 0 111 127z" glyph-name="ugrave" horiz-adv-x="1222" unicode="ù"/><glyph d="M1214 1704l-337 -408h-265l232 408h370zM784 1126h441l-195 -1106l-407 -34l2 129h-11q-88 -135 -284 -135q-154 0 -220.5 63t-66.5 199q0 78 18 178l125 706h443l-125 -708q-6 -31 -6 -53q0 -63 55 -64q90 0 111 127z" glyph-name="uacute" horiz-adv-x="1222" unicode="ú"/><glyph d="M782 1503l-219 -215h-282l335 408h381l195 -408h-268zM784 1126h441l-195 -1106l-407 -34l2 129h-11q-88 -135 -284 -135q-154 0 -220.5 63t-66.5 199q0 78 18 178l125 706h443l-125 -708q-6 -31 -6 -53q0 -63 55 -64q90 0 111 127z" glyph-name="ucircumflex" horiz-adv-x="1222" unicode="û"/><glyph d="M717 1604l-51 -287h-328l51 287h328zM1202 1604l-51 -287h-328l51 287h328zM784 1126h441l-195 -1106l-407 -34l2 129h-11q-88 -135 -284 -135q-154 0 -220.5 63t-66.5 199q0 78 18 178l125 706h443l-125 -708q-6 -31 -6 -53q0 -63 55 -64q90 0 111 127z" glyph-name="udieresis" horiz-adv-x="1222" unicode="ü"/><glyph d="M1167 1704l-338 -408h-264l232 408h370zM762 1126h465l-455 -1142q-47 -117 -105.5 -194t-130 -114.5t-140 -51t-160.5 -13.5q-121 0 -283 39l51 284q125 -18 225 -18q98 0 148.5 36t77.5 130l2 4h-310l-45 1040h457l-47 -739h33z" glyph-name="yacute" horiz-adv-x="1122" unicode="ý"/><glyph d="M852 1147q176 0 253 -94.5t77 -272.5q0 -166 -52.5 -366.5t-142.5 -307.5q-109 -127 -301 -126q-147 0 -203 75h-32l-74 -424h-443l336 1905h443l-82 -479h6q68 90 215 90zM657 371q23 55 47.5 187t24.5 196q0 72 -55 71q-47 0 -75 -41t-44 -133l-35 -202q-8 -41 -8 -72 q0 -76 57 -76q59 0 88 70z" glyph-name="thorn" horiz-adv-x="1206" unicode="þ"/><glyph d="M670 1604l-52 -287h-327l51 287h328zM1155 1604l-51 -287h-328l51 287h328zM762 1126h465l-455 -1142q-47 -117 -105.5 -194t-130 -114.5t-140 -51t-160.5 -13.5q-121 0 -283 39l51 284q125 -18 225 -18q98 0 148.5 36t77.5 130l2 4h-310l-45 1040h457l-47 -739h33z" glyph-name="ydieresis" horiz-adv-x="1122" unicode="ÿ"/><glyph d="M1229 1898l-51 -286h-621l51 286h621zM1272 0h-461v297h-338l-104 -297h-469l600 1434h676zM594 645h217l2 440h-63z" glyph-name="Amacron" horiz-adv-x="1370" unicode="Ā"/><glyph d="M1077 1591l-51 -286h-620l51 286h620zM780 1147q162 0 239 -65.5t77 -202.5q0 -57 -13 -131l-127 -728l-405 -34v129h-8q-86 -135 -275 -135q-281 0 -280 266q0 106 39 196t106 138q92 66 303 65h191l8 53q6 31 6 52q0 29 -12.5 39t-44.5 10q-86 0 -330 -60l-31 330 q358 78 557 78zM414 287q0 -47 47 -47q96 0 123 163l12 72h-43q-68 0 -92 -31q-18 -23 -32.5 -72.5t-14.5 -84.5z" glyph-name="amacron" horiz-adv-x="1132" unicode="ā"/><glyph d="M1059 1929h225l-10 -59q-31 -176 -131.5 -243.5t-265.5 -67.5q-330 0 -330 247q0 41 10 97l6 26h225l-8 -41q-2 -10 -2 -26q0 -70 115 -70q82 0 113.5 26.5t50.5 102.5zM1176 1434l96 -1434h-461v297h-338l-104 -297h-469l600 1434h676zM594 645h217l2 440h-63z" glyph-name="Abreve" horiz-adv-x="1370" unicode="Ă"/><glyph d="M907 1622h226l-11 -59q-31 -176 -131 -244t-266 -68q-330 0 -330 248q0 41 11 96l6 27h225l-8 -41q-2 -10 -2 -27q0 -70 114 -69q82 0 114 26.5t50 102.5zM780 1147q162 0 239 -65.5t77 -202.5q0 -57 -13 -131l-127 -728l-405 -34v129h-8q-86 -135 -275 -135 q-281 0 -280 266q0 106 39 196t106 138q92 66 303 65h191l8 53q6 31 6 52q0 29 -12.5 39t-44.5 10q-86 0 -330 -60l-31 330q358 78 557 78zM414 287q0 -47 47 -47q96 0 123 163l12 72h-43q-68 0 -92 -31q-18 -23 -32.5 -72.5t-14.5 -84.5z" glyph-name="abreve" horiz-adv-x="1132" unicode="ă"/><glyph d="M1268 -279l26 -219q-47 -6 -118 -6q-154 0 -247 58.5t-93 183.5q0 147 135 262h-160v297h-338l-104 -297h-469l600 1434h676l96 -1434q-147 -94 -148 -205q1 -74 144 -74zM594 645h217l2 440h-63z" glyph-name="Aogonek" horiz-adv-x="1370" unicode="Ą"/><glyph d="M956 20q-127 -82 -149 -206q-8 -51 27.5 -72t113.5 -21l27 -219q-45 -6 -119 -6q-172 0 -266 74t-68 229q20 106 121 195l-92 -8v129h-8q-86 -135 -275 -135q-281 0 -280 266q0 106 39 196t106 138q92 66 303 65h191l8 53q6 31 6 52q0 29 -12.5 39t-44.5 10 q-86 0 -330 -60l-31 330q358 78 557 78q162 0 239 -65.5t77 -202.5q0 -57 -13 -131zM414 287q0 -47 47 -47q96 0 123 163l12 72h-43q-68 0 -92 -31q-18 -23 -32.5 -72.5t-14.5 -84.5z" glyph-name="aogonek" horiz-adv-x="1132" unicode="ą"/><glyph d="M653 1604l232 407h370l-337 -407h-265zM651 -20q-301 0 -436 123.5t-135 402.5q0 248 89 488.5t226 346.5q143 113 434 113q199 0 342 -55l-71 -350q-80 35 -211 34q-143 0 -197 -59q-55 -59 -100 -219t-45 -289q0 -94 35.5 -130t128.5 -36q135 0 250 49l22 -370 q-135 -49 -332 -49z" glyph-name="Cacute" horiz-adv-x="1103" unicode="Ć"/><glyph d="M549 1296l231 408h371l-338 -408h-264zM535 -20q-262 0 -380 97t-118 314q0 209 70.5 392.5t181.5 269.5q121 94 385 94q133 0 246 -31l-60 -303q-41 12 -98 12q-139 0 -187 -65q-35 -49 -64.5 -160t-29.5 -194q0 -61 23.5 -83t93.5 -22q90 0 164 23l-6 -322 q-86 -22 -221 -22z" glyph-name="cacute" horiz-adv-x="878" unicode="ć"/><glyph d="M672 1911h327l-51 -287h-327zM651 -20q-301 0 -436 123.5t-135 402.5q0 248 89 488.5t226 346.5q143 113 434 113q199 0 342 -55l-71 -350q-80 35 -211 34q-143 0 -197 -59q-55 -59 -100 -219t-45 -289q0 -94 35.5 -130t128.5 -36q135 0 250 49l22 -370 q-135 -49 -332 -49z" glyph-name="Cdotaccent" horiz-adv-x="1103" unicode="Ċ"/><glyph d="M567 1604h328l-51 -287h-328zM535 -20q-262 0 -380 97t-118 314q0 209 70.5 392.5t181.5 269.5q121 94 385 94q133 0 246 -31l-60 -303q-41 12 -98 12q-139 0 -187 -65q-35 -49 -64.5 -160t-29.5 -194q0 -61 23.5 -83t93.5 -22q90 0 164 23l-6 -322q-86 -22 -221 -22z " glyph-name="cdotaccent" horiz-adv-x="878" unicode="ċ"/><glyph d="M590 1595l-193 408h267l143 -215l217 215h285l-338 -408h-381zM395 1341q143 113 434 113q199 0 342 -55l-71 -350q-80 35 -211 34q-143 0 -197 -59q-55 -59 -100 -219t-45 -289q0 -94 35.5 -130t128.5 -36q135 0 250 49l22 -370q-135 -49 -332 -49q-301 0 -436 123.5 t-135 402.5q0 248 89 488.5t226 346.5z" glyph-name="Ccaron" horiz-adv-x="1103" unicode="Č"/><glyph d="M485 1288l-192 408h266l143 -215l218 215h284l-338 -408h-381zM289 1053q121 94 385 94q133 0 246 -31l-60 -303q-41 12 -98 12q-139 0 -187 -65q-35 -49 -64.5 -160t-29.5 -194q0 -61 23.5 -83t93.5 -22q90 0 164 23l-6 -322q-86 -23 -221 -22q-262 0 -380 97t-118 314 q0 209 70.5 392.5t181.5 269.5z" glyph-name="ccaron" horiz-adv-x="878" unicode="č"/><glyph d="M717 1595l-193 408h267l143 -215l217 215h285l-338 -408h-381zM864 1434q242 0 359.5 -127t117.5 -392q0 -225 -74.5 -446t-191.5 -332q-143 -137 -438 -137h-610l252 1434h585zM741 403q47 61 94.5 246t47.5 303q0 72 -24.5 101.5t-82.5 29.5h-100l-129 -733h76 q77 0 118 53z" glyph-name="Dcaron" horiz-adv-x="1363" unicode="Ď"/><glyph d="M758 1067l82 469h440l-266 -1516l-406 -34l2 129h-8q-39 -72 -95 -103.5t-151 -31.5q-328 0 -327 385q0 190 63.5 389.5t153.5 289.5q102 102 278 103q152 0 207 -80h27zM1708 1536l-49 -287h2l-182 -331h-179l183 331h-152l49 287h328zM692 688q8 43 8 84q0 23 -14 38 t-37 15q-51 0 -82 -51q-29 -51 -57.5 -179t-28.5 -210q0 -47 14.5 -65.5t49.5 -18.5q45 0 66.5 29.5t35.5 103.5z" glyph-name="dcaron" horiz-adv-x="1206" unicode="ď"/><glyph d="M864 1434q242 0 359.5 -127t117.5 -392q0 -225 -74.5 -446t-191.5 -332q-143 -137 -438 -137h-610l100 573h-174l51 287h174l101 574h585zM741 403q47 61 94.5 246t47.5 303q0 72 -24.5 101.5t-82.5 29.5h-100l-39 -223h141l-51 -287h-141l-39 -223h76q77 0 118 53z" glyph-name="Dcroat" horiz-adv-x="1363" unicode="Đ"/><glyph d="M1378 1409l-37 -215h-120l-207 -1174l-406 -34l2 129h-8q-39 -72 -95 -103.5t-151 -31.5q-328 0 -327 385q0 190 63.5 389.5t153.5 289.5q102 102 278 103q152 0 207 -80h27l22 127h-164l37 215h164l23 127h440l-23 -127h121zM692 688q8 43 8 84q0 23 -14 38t-37 15 q-51 0 -82 -51q-29 -51 -57.5 -179t-28.5 -210q0 -47 14.5 -65.5t49.5 -18.5q45 0 66.5 29.5t35.5 103.5z" glyph-name="dcroat" horiz-adv-x="1206" unicode="đ"/><glyph d="M1110 1898l-51 -286h-621l51 286h621zM1092 1085h-418l-29 -167h377l-61 -349h-377l-39 -221h442l-61 -348h-901l251 1434h877z" glyph-name="Emacron" horiz-adv-x="1091" unicode="Ē"/><glyph d="M1051 1591l-52 -286h-620l51 286h621zM643 1147q225 0 328.5 -88t103.5 -281q0 -109 -41 -293l-8 -36h-573q-4 -49 -4 -66q0 -51 19 -69.5t77 -18.5q137 0 362 53l25 -303q-244 -66 -434 -65q-459 0 -459 454q0 188 67.5 360.5t174.5 254.5q124 98 362 98zM496 684h184 q10 72 10 111q0 41 -13 56t-46 15q-66 0 -94 -59q-25 -51 -41 -123z" glyph-name="emacron" horiz-adv-x="1095" unicode="ē"/><glyph d="M965 1911l-52 -287h-327l51 287h328zM1092 1085h-418l-29 -167h377l-61 -349h-377l-39 -221h442l-61 -348h-901l251 1434h877z" glyph-name="Edotaccent" horiz-adv-x="1091" unicode="Ė"/><glyph d="M905 1604l-51 -287h-328l52 287h327zM643 1147q225 0 328.5 -88t103.5 -281q0 -109 -41 -293l-8 -36h-573q-4 -49 -4 -66q0 -51 19 -69.5t77 -18.5q137 0 362 53l25 -303q-244 -66 -434 -65q-459 0 -459 454q0 188 67.5 360.5t174.5 254.5q124 98 362 98zM496 684h184 q10 72 10 111q0 41 -13 56t-46 15q-66 0 -94 -59q-25 -51 -41 -123z" glyph-name="edotaccent" horiz-adv-x="1095" unicode="ė"/><glyph d="M1092 1085h-418l-29 -167h377l-61 -349h-377l-39 -221h442l-61 -348h-111q-147 -94 -147 -205q0 -74 143 -74l27 -219q-47 -6 -119 -6q-154 0 -247 58.5t-93 183.5q0 147 135 262h-489l251 1434h877z" glyph-name="Eogonek" horiz-adv-x="1091" unicode="Ę"/><glyph d="M643 1147q225 0 328.5 -88t103.5 -281q0 -109 -41 -293l-8 -36h-573q-4 -49 -4 -66q0 -51 19 -69.5t77 -18.5q137 0 362 53l25 -303q-12 -2 -38 -10t-40 -10q-145 -84 -162 -191q-10 -55 31 -73.5t111 -18.5l26 -219q-47 -6 -119 -6q-172 0 -267 73.5t-68 229.5 q16 82 88 160q-455 2 -455 454q0 188 67.5 360.5t174.5 254.5q124 98 362 98zM496 684h184q10 72 10 111q0 41 -13 56t-46 15q-66 0 -94 -59q-25 -51 -41 -123z" glyph-name="eogonek" horiz-adv-x="1095" unicode="ę"/><glyph d="M555 1595l-193 408h267l143 -215l217 215h285l-338 -408h-381zM1153 1434l-61 -349h-418l-29 -167h377l-61 -349h-377l-39 -221h442l-61 -348h-901l251 1434h877z" glyph-name="Ecaron" horiz-adv-x="1091" unicode="Ě"/><glyph d="M496 1288l-193 408h266l144 -215l217 215h284l-337 -408h-381zM643 1147q225 0 328.5 -88t103.5 -281q0 -109 -41 -293l-8 -36h-573q-4 -49 -4 -66q0 -51 19 -69.5t77 -18.5q137 0 362 53l25 -303q-244 -66 -434 -65q-459 0 -459 454q0 188 67.5 360.5t174.5 254.5 q124 98 362 98zM496 684h184q10 72 10 111q0 41 -13 56t-46 15q-66 0 -94 -59q-25 -51 -41 -123z" glyph-name="ecaron" horiz-adv-x="1095" unicode="ě"/><glyph d="M926 1810l-219 -215h-283l336 408h381l194 -408h-268zM715 541l57 327h516l-151 -852l-363 -30l2 135h-6q-119 -141 -303 -141q-193 0 -292 117.5t-99 346.5q0 283 82 532t202 343q172 135 492 135q246 0 412 -53l-76 -365q-147 49 -291 49q-147 0 -215 -73 q-47 -51 -95 -230.5t-48 -306.5q0 -72 21.5 -98.5t76.5 -26.5q154 0 188 162l6 29h-116z" glyph-name="Gcircumflex" horiz-adv-x="1312" unicode="Ĝ"/><glyph d="M745 1503l-219 -215h-282l336 408h381l194 -408h-268zM1221 1126l-17 -188l-162 -29q20 -41 21 -108q0 -104 -48 -200.5t-126 -147.5q-111 -74 -342 -74q-68 0 -123 6l-25 -25q-20 -20 -20 -41q0 -29 35 -28h104q524 0 524 -287q0 -201 -148.5 -297t-455.5 -96 q-553 0 -553 231q0 197 217 232l7 30q-90 59 -91 156q0 106 138 203l12 8q-94 76 -94 227q0 121 52 226.5t140 156.5q106 66 332 66q131 0 219 -21h404zM616 657q16 23 32 76t16 94q0 35 -15.5 50.5t-50.5 15.5q-55 0 -78 -35q-14 -23 -27.5 -73t-13.5 -85q0 -68 70 -67 q44 -1 67 24zM483 49q-199 0 -198 -121q0 -41 28.5 -57t104.5 -16q219 0 219 125q0 41 -32 55t-122 14z" glyph-name="gcircumflex" horiz-adv-x="1157" unicode="ĝ"/><glyph d="M1077 1929h226l-11 -59q-31 -176 -131 -243.5t-266 -67.5q-330 0 -330 247q0 41 10 97l7 26h225l-8 -41q-2 -10 -2 -26q0 -70 114 -70q82 0 114 26.5t50 102.5zM715 541l57 327h516l-151 -852l-363 -30l2 135h-6q-119 -141 -303 -141q-193 0 -292 117.5t-99 346.5 q0 283 82 532t202 343q172 135 492 135q246 0 412 -53l-76 -365q-147 49 -291 49q-147 0 -215 -73q-47 -51 -95 -230.5t-48 -306.5q0 -72 21.5 -98.5t76.5 -26.5q154 0 188 162l6 29h-116z" glyph-name="Gbreve" horiz-adv-x="1312" unicode="Ğ"/><glyph d="M715 1251q-330 0 -330 248q0 41 10 96l6 27h226l-9 -41q-2 -10 -2 -27q0 -70 115 -69q82 0 114 26.5t50 102.5l2 8h225l-10 -59q-31 -176 -131 -244t-266 -68zM1221 1126l-17 -188l-162 -29q20 -41 21 -108q0 -104 -48 -200.5t-126 -147.5q-111 -74 -342 -74 q-68 0 -123 6l-25 -25q-20 -20 -20 -41q0 -29 35 -28h104q524 0 524 -287q0 -201 -148.5 -297t-455.5 -96q-553 0 -553 231q0 197 217 232l7 30q-90 59 -91 156q0 106 138 203l12 8q-94 76 -94 227q0 121 52 226.5t140 156.5q106 66 332 66q131 0 219 -21h404zM616 657 q16 23 32 76t16 94q0 35 -15.5 50.5t-50.5 15.5q-55 0 -78 -35q-14 -23 -27.5 -73t-13.5 -85q0 -68 70 -67q44 -1 67 24zM483 49q-199 0 -198 -121q0 -41 28.5 -57t104.5 -16q219 0 219 125q0 41 -32 55t-122 14z" glyph-name="gbreve" horiz-adv-x="1157" unicode="ğ"/><glyph d="M1102 1911l-51 -287h-328l51 287h328zM772 868h516l-151 -852l-363 -30l2 135h-6q-119 -141 -303 -141q-193 0 -292 117.5t-99 346.5q0 283 82 532t202 343q172 135 492 135q246 0 412 -53l-76 -365q-147 49 -291 49q-147 0 -215 -73q-47 -51 -95 -230.5t-48 -306.5 q0 -72 21.5 -98.5t76.5 -26.5q154 0 188 162l6 29h-116z" glyph-name="Gdotaccent" horiz-adv-x="1312" unicode="Ġ"/><glyph d="M922 1604l-52 -287h-327l51 287h328zM1221 1126l-17 -188l-162 -29q20 -41 21 -108q0 -104 -48 -200.5t-126 -147.5q-111 -74 -342 -74q-68 0 -123 6l-25 -25q-20 -20 -20 -41q0 -29 35 -28h104q524 0 524 -287q0 -201 -148.5 -297t-455.5 -96q-553 0 -553 231 q0 197 217 232l7 30q-90 59 -91 156q0 106 138 203l12 8q-94 76 -94 227q0 121 52 226.5t140 156.5q106 66 332 66q131 0 219 -21h404zM616 657q16 23 32 76t16 94q0 35 -15.5 50.5t-50.5 15.5q-55 0 -78 -35q-14 -23 -27.5 -73t-13.5 -85q0 -68 70 -67q44 -1 67 24zM483 49 q-199 0 -198 -121q0 -41 28.5 -57t104.5 -16q219 0 219 125q0 41 -32 55t-122 14z" glyph-name="gdotaccent" horiz-adv-x="1157" unicode="ġ"/><glyph d="M772 868h516l-151 -852l-363 -30l2 135h-6q-119 -141 -303 -141q-193 0 -292 117.5t-99 346.5q0 283 82 532t202 343q172 135 492 135q246 0 412 -53l-76 -365q-147 49 -291 49q-147 0 -215 -73q-47 -51 -95 -230.5t-48 -306.5q0 -72 21.5 -98.5t76.5 -26.5 q154 0 188 162l6 29h-116zM360 -432l50 287h327l-49 -287l-182 -334h-178l182 334h-150z" glyph-name="Gcommaaccent" horiz-adv-x="1312" unicode="Ģ"/><glyph d="M922 1604l-52 -287h-327l51 287l184 331h176l-180 -331h148zM1221 1126l-17 -188l-162 -29q20 -41 21 -108q0 -104 -48 -200.5t-126 -147.5q-111 -74 -342 -74q-68 0 -123 6l-25 -25q-20 -20 -20 -41q0 -29 35 -28h104q524 0 524 -287q0 -201 -148.5 -297t-455.5 -96 q-553 0 -553 231q0 197 217 232l7 30q-90 59 -91 156q0 106 138 203l12 8q-94 76 -94 227q0 121 52 226.5t140 156.5q106 66 332 66q131 0 219 -21h404zM616 657q16 23 32 76t16 94q0 35 -15.5 50.5t-50.5 15.5q-55 0 -78 -35q-14 -23 -27.5 -73t-13.5 -85q0 -68 70 -67 q44 -1 67 24zM483 49q-199 0 -198 -121q0 -41 28.5 -57t104.5 -16q219 0 219 125q0 41 -32 55t-122 14z" glyph-name="gcommaaccent" horiz-adv-x="1157" unicode="ģ"/><glyph d="M944 1810l-219 -215h-283l336 408h381l195 -408h-269zM1010 1434h458l-251 -1434h-459l100 569h-274l-101 -569h-458l251 1434h459l-90 -516h275z" glyph-name="Hcircumflex" horiz-adv-x="1437" unicode="Ĥ"/><glyph d="M754 1862l-219 -215h-283l336 407h381l194 -407h-268zM913 1147q158 0 228.5 -62.5t70.5 -201.5q0 -72 -18 -176l-125 -707h-440l125 709q6 33 6 55q0 61 -64 61q-109 0 -133 -143l-121 -682h-442l270 1536h443l-86 -496h6q87 107 280 107z" glyph-name="hcircumflex" horiz-adv-x="1251" unicode="ĥ"/><glyph d="M1577 1290l-43 -246h-131l-184 -1044h-459l100 569h-274l-101 -569h-458l184 1044h-125l43 246h125l25 144h458l-24 -144h274l25 144h458l-24 -144h131zM922 918l22 126h-274l-23 -126h275z" glyph-name="Hbar" horiz-adv-x="1447" unicode="Ħ"/><glyph d="M913 1147q158 0 228.5 -62.5t70.5 -201.5q0 -72 -18 -176l-125 -707h-440l125 709q6 33 6 55q0 61 -64 61q-109 0 -133 -143l-121 -682h-442l211 1194h-121l37 215h121l22 127h443l-23 -127h250l-37 -215h-250l-26 -154h6q87 107 280 107z" glyph-name="hbar" horiz-adv-x="1251" unicode="ħ"/><glyph d="M680 1577q-88 0 -145 49l-60 49q-23 20 -55 21q-63 0 -92 -97h-168q27 150 109.5 240t197.5 90q80 0 151 -53l58 -43q33 -25 57 -25q49 0 86 97h166q-27 -162 -106.5 -245t-198.5 -83zM737 1434l-252 -1434h-458l252 1434h458z" glyph-name="Itilde" horiz-adv-x="704" unicode="Ĩ"/><glyph d="M588 1270q-88 0 -146 49l-59 49q-23 20 -55 21q-63 0 -92 -97h-168q27 150 109.5 240t197.5 90q80 0 151 -53l58 -43q33 -25 57 -25q49 0 86 96h166q-27 -162 -106.5 -244.5t-198.5 -82.5zM635 1126l-199 -1126h-440l199 1126h440z" glyph-name="itilde" horiz-adv-x="628" unicode="ĩ"/><glyph d="M281 1898h620l-51 -286h-621zM737 1434l-252 -1434h-458l252 1434h458z" glyph-name="Imacron" horiz-adv-x="704" unicode="Ī"/><glyph d="M188 1591h621l-51 -286h-621zM635 1126l-199 -1126h-440l199 1126h440z" glyph-name="imacron" horiz-adv-x="628" unicode="ī"/><glyph d="M549 1559q-330 0 -330 247q0 41 10 97l7 26h225l-8 -41q-2 -10 -2 -26q0 -70 114 -70q82 0 114 26.5t50 102.5l2 8h225l-10 -59q-31 -176 -131 -243.5t-266 -67.5zM737 1434l-252 -1434h-458l252 1434h458z" glyph-name="Ibreve" horiz-adv-x="704" unicode="Ĭ"/><glyph d="M457 1251q-330 0 -330 248q0 41 10 96l6 27h226l-9 -41q-2 -10 -2 -27q0 -70 115 -69q82 0 113.5 26.5t50.5 102.5l2 8h225l-10 -59q-31 -176 -131 -244t-266 -68zM635 1126l-199 -1126h-440l199 1126h440z" glyph-name="ibreve" horiz-adv-x="628" unicode="ĭ"/><glyph d="M338 -205q0 -74 143 -74l27 -219q-47 -6 -119 -6q-154 0 -247 58.5t-93 183.5q0 147 135 262h-157l252 1434h458l-252 -1434q-147 -94 -147 -205z" glyph-name="Iogonek" horiz-adv-x="704" unicode="Į"/><glyph d="M260 1569h467l-57 -332h-467zM436 0q-147 -94 -147 -205q0 -74 143 -74l27 -219q-47 -6 -119 -6q-154 0 -247 58.5t-93 183.5q0 147 135 262h-139l199 1126h440z" glyph-name="iogonek" horiz-adv-x="628" unicode="į"/><glyph d="M428 1911h328l-51 -287h-328zM737 1434l-252 -1434h-458l252 1434h458z" glyph-name="Idotaccent" horiz-adv-x="704" unicode="İ"/><glyph d="M635 1126l-199 -1126h-440l199 1126h440z" glyph-name="dotlessi" horiz-adv-x="628" unicode="ı"/><glyph d="M737 1434l-252 -1434h-458l252 1434h458zM905 -20q-137 0 -270 28l72 346q23 -4 55 -4q55 0 83.5 30t41.5 97l168 957h458l-194 -1108q-35 -203 -135.5 -274.5t-278.5 -71.5z" glyph-name="IJ" horiz-adv-x="1470" unicode="Ĳ"/><glyph d="M260 1569h467l-57 -332h-467zM848 1237l57 332h467l-57 -332h-467zM635 1126l-199 -1126h-440l199 1126h440zM672 -389q-152 0 -283 29l53 282q29 -4 72 -4q63 0 95 39t48 129l185 1040h440l-207 -1169q-35 -203 -133 -274.5t-270 -71.5z" glyph-name="ij" horiz-adv-x="1273" unicode="ĳ"/><glyph d="M653 1810l-219 -215h-282l335 408h381l195 -408h-268zM182 477l168 957h459l-195 -1108q-35 -203 -135 -274.5t-278 -71.5q-137 0 -271 28l72 346q23 -4 55 -4q55 0 84 29.5t41 97.5z" glyph-name="Jcircumflex" horiz-adv-x="765" unicode="Ĵ"/><glyph d="M684 1696l195 -408h-269l-141 215l-219 -215h-283l336 408h381zM-25 86l185 1040h440l-207 -1169q-35 -203 -133 -274.5t-270 -71.5q-152 0 -283 29l53 282q45 -4 90 -4q59 0 84 36t41 132z" glyph-name="jcircumflex" horiz-adv-x="591" unicode="ĵ"/><glyph d="M1491 1434l-471 -693l240 -741h-512l-107 569h-55l-101 -569h-458l252 1434h458l-90 -516h51l299 516h494zM354 -432l49 287h328l-49 -287l-182 -334h-178l182 334h-150z" glyph-name="Kcommaaccent" horiz-adv-x="1359" unicode="Ķ"/><glyph d="M1325 1126l-367 -505l168 -621h-479l-61 481h-60l-84 -481h-442l270 1536h443l-138 -778h70l197 368h483zM268 -432l49 287h328l-49 -287l-182 -334h-178l182 334h-150z" glyph-name="kcommaaccent" horiz-adv-x="1234" unicode="ķ"/><glyph d="M1014 2011l-338 -407h-264l231 407h371zM737 1434l-190 -1086h303l-62 -348h-761l252 1434h458z" glyph-name="Lacute" horiz-adv-x="921" unicode="Ĺ"/><glyph d="M387 1706l231 408h371l-338 -408h-264zM340 -20q-301 0 -301 243q0 39 10 101l213 1212h440l-200 -1141q-8 -45 -8 -57q0 -37 41 -37q23 0 63 10l-2 -311q-104 -20 -256 -20z" glyph-name="lacute" horiz-adv-x="686" unicode="ĺ"/><glyph d="M547 348h303l-62 -348h-761l252 1434h458zM203 -432l49 287h328l-50 -287l-182 -334h-178l182 334h-149z" glyph-name="Lcommaaccent" horiz-adv-x="921" unicode="Ļ"/><glyph d="M494 338q0 -37 41 -37q23 0 63 10l-2 -311q-104 -20 -256 -20q-301 0 -301 243q0 39 10 101l213 1212h440l-200 -1141q-8 -45 -8 -57zM23 -432l49 287h327l-49 -287l-182 -334h-178l182 334h-149z" glyph-name="lcommaaccent" horiz-adv-x="686" unicode="ļ"/><glyph d="M737 1434l-190 -1086h303l-62 -348h-761l252 1434h458zM883 1434h327l-49 -287l-182 -332h-178l182 332h-149z" glyph-name="Lcaron" horiz-adv-x="921" unicode="Ľ"/><glyph d="M702 1536l-200 -1141q-8 -45 -8 -57q0 -37 41 -37q23 0 63 10l-2 -311q-104 -20 -256 -20q-301 0 -301 243q0 39 10 101l213 1212h440zM799 1536h327l-49 -287l-182 -331h-176l180 331h-149z" glyph-name="lcaron" horiz-adv-x="686" unicode="ľ"/><glyph d="M737 1434l-190 -1086h303l-62 -348h-761l252 1434h458zM711 993h467l-74 -424h-467z" glyph-name="Ldot" horiz-adv-x="1148" unicode="Ŀ"/><glyph d="M340 -20q-301 0 -301 243q0 39 10 101l213 1212h440l-200 -1141q-8 -45 -8 -57q0 -37 41 -37q23 0 63 10l-2 -311q-104 -20 -256 -20zM578 569l73 424h467l-74 -424h-466z" glyph-name="ldot" horiz-adv-x="1089" unicode="ŀ"/><glyph d="M854 782l-250 -110l-57 -324h303l-62 -348h-761l79 453l-122 -54l49 301l127 56l119 678h458l-80 -459l246 108z" glyph-name="Lslash" horiz-adv-x="921" unicode="Ł"/><glyph d="M565 758l-63 -363q-8 -45 -8 -57q0 -37 41 -37q23 0 63 10l-2 -311q-104 -20 -256 -20q-301 0 -301 243q0 39 10 101l35 196l-111 -53l47 293l115 57l127 719h440l-86 -483l181 88l-47 -293z" glyph-name="lslash" horiz-adv-x="686" unicode="ł"/><glyph d="M1372 2011l-338 -407h-264l231 407h371zM1063 1434h395l-252 -1434h-577l-41 838h-21l-147 -838h-393l252 1434h581l39 -830h19z" glyph-name="Nacute" horiz-adv-x="1425" unicode="Ń"/><glyph d="M1231 1704l-338 -408h-264l231 408h371zM905 1147q158 0 231.5 -66.5t73.5 -206.5q0 -68 -18 -172l-123 -702h-440l125 709q6 41 6 59q0 33 -14.5 45t-53.5 12q-106 0 -131 -133l-121 -692h-440l195 1106l405 35l-2 -129h12q47 72 114.5 103.5t180.5 31.5z" glyph-name="nacute" horiz-adv-x="1251" unicode="ń"/><glyph d="M1063 1434h395l-252 -1434h-577l-41 838h-21l-147 -838h-393l252 1434h581l39 -830h19zM348 -432l49 287h328l-49 -287l-182 -334h-179l183 334h-150z" glyph-name="Ncommaaccent" horiz-adv-x="1425" unicode="Ņ"/><glyph d="M905 1147q158 0 231.5 -66.5t73.5 -206.5q0 -68 -18 -172l-123 -702h-440l125 709q6 41 6 59q0 33 -14.5 45t-53.5 12q-106 0 -131 -133l-121 -692h-440l195 1106l405 35l-2 -129h12q47 72 114.5 103.5t180.5 31.5zM289 -432l49 287h328l-50 -287l-182 -334h-178l182 334 h-149z" glyph-name="ncommaaccent" horiz-adv-x="1251" unicode="ņ"/><glyph d="M707 1595l-193 408h266l144 -215l217 215h284l-338 -408h-380zM1063 1434h395l-252 -1434h-577l-41 838h-21l-147 -838h-393l252 1434h581l39 -830h19z" glyph-name="Ncaron" horiz-adv-x="1425" unicode="Ň"/><glyph d="M565 1288l-192 408h266l143 -215l217 215h285l-338 -408h-381zM905 1147q158 0 231.5 -66.5t73.5 -206.5q0 -68 -18 -172l-123 -702h-440l125 709q6 41 6 59q0 33 -14.5 45t-53.5 12q-106 0 -131 -133l-121 -692h-440l195 1106l405 35l-2 -129h12q47 72 114.5 103.5 t180.5 31.5z" glyph-name="ncaron" horiz-adv-x="1251" unicode="ň"/><glyph d="M1063 1434h395l-268 -1528q-31 -174 -116 -234.5t-236 -60.5q-117 0 -234 22l43 248q29 -4 68 -4q45 0 63.5 24.5t30.5 86.5l2 12h-182l-41 838h-21l-147 -838h-393l252 1434h581l39 -830h19z" glyph-name="Eng" horiz-adv-x="1425" unicode="Ŋ"/><glyph d="M905 1147q158 0 231.5 -66.5t73.5 -206.5q0 -68 -18 -172l-131 -745q-35 -205 -132.5 -275.5t-269.5 -70.5q-156 0 -282 29l53 282q12 -4 84 -4q57 0 84 32t41 109l115 650q6 41 6 59q0 33 -14.5 45t-53.5 12q-106 0 -131 -133l-121 -692h-440l195 1106l405 35l-2 -129 h12q47 72 114.5 103.5t180.5 31.5z" glyph-name="eng" horiz-adv-x="1251" unicode="ŋ"/><glyph d="M637 1898h620l-51 -286h-620zM645 -20q-297 0 -430 122.5t-133 403.5q0 248 87 484.5t220 342.5q150 121 447 121t430 -122t133 -398q0 -246 -86 -484.5t-217 -347.5q-148 -122 -451 -122zM676 350q90 0 127 49q43 55 86 234.5t43 302.5q0 82 -27.5 114.5t-97.5 32.5 q-90 0 -127 -47q-45 -55 -88 -233t-43 -301q0 -86 28.5 -119t98.5 -33z" glyph-name="Omacron" horiz-adv-x="1419" unicode="Ō"/><glyph d="M465 1591h620l-51 -286h-620zM528 -20q-252 0 -373.5 101t-121.5 310q0 199 70.5 383t179.5 270q131 102 372 103q254 0 375 -104.5t121 -327.5q0 -176 -64.5 -351.5t-162.5 -263.5q-138 -120 -396 -120zM545 301q63 0 94 82q23 57 43 166.5t20 181.5q0 53 -14 73.5 t-49 20.5q-55 0 -82 -55q-25 -53 -49.5 -182t-24.5 -201q0 -45 13.5 -65.5t48.5 -20.5z" glyph-name="omacron" horiz-adv-x="1179" unicode="ō"/><glyph d="M905 1559q-330 0 -330 247q0 41 11 97l6 26h225l-8 -41q-2 -10 -2 -26q0 -70 115 -70q82 0 113.5 26.5t49.5 102.5l2 8h226l-10 -59q-31 -176 -131.5 -243.5t-266.5 -67.5zM645 -20q-297 0 -430 122.5t-133 403.5q0 248 87 484.5t220 342.5q150 121 447 121t430 -122 t133 -398q0 -246 -86 -484.5t-217 -347.5q-148 -122 -451 -122zM676 350q90 0 127 49q43 55 86 234.5t43 302.5q0 82 -27.5 114.5t-97.5 32.5q-90 0 -127 -47q-45 -55 -88 -233t-43 -301q0 -86 28.5 -119t98.5 -33z" glyph-name="Obreve" horiz-adv-x="1419" unicode="Ŏ"/><glyph d="M733 1251q-330 0 -330 248q0 41 11 96l6 27h225l-8 -41q-2 -10 -2 -27q0 -70 115 -69q82 0 113.5 26.5t49.5 102.5l2 8h226l-11 -59q-31 -176 -131 -244t-266 -68zM528 -20q-252 0 -373.5 101t-121.5 310q0 199 70.5 383t179.5 270q131 102 372 103q254 0 375 -104.5 t121 -327.5q0 -176 -64.5 -351.5t-162.5 -263.5q-138 -120 -396 -120zM545 301q63 0 94 82q23 57 43 166.5t20 181.5q0 53 -14 73.5t-49 20.5q-55 0 -82 -55q-25 -53 -49.5 -182t-24.5 -201q0 -45 13.5 -65.5t48.5 -20.5z" glyph-name="obreve" horiz-adv-x="1179" unicode="ŏ"/><glyph d="M557 1604l242 407h368l-358 -407h-252zM1022 1604l240 407h368l-356 -407h-252zM645 -20q-297 0 -430 122.5t-133 403.5q0 248 87 484.5t220 342.5q150 121 447 121t430 -122t133 -398q0 -246 -86 -484.5t-217 -347.5q-148 -122 -451 -122zM676 350q90 0 127 49 q43 55 86 234.5t43 302.5q0 82 -27.5 114.5t-97.5 32.5q-90 0 -127 -47q-45 -55 -88 -233t-43 -301q0 -86 28.5 -119t98.5 -33z" glyph-name="Ohungarumlaut" horiz-adv-x="1419" unicode="Ő"/><glyph d="M385 1296l242 408h368l-358 -408h-252zM850 1296l240 408h368l-356 -408h-252zM528 -20q-252 0 -373.5 101t-121.5 310q0 199 70.5 383t179.5 270q131 102 372 103q254 0 375 -104.5t121 -327.5q0 -176 -64.5 -351.5t-162.5 -263.5q-138 -120 -396 -120zM545 301 q63 0 94 82q23 57 43 166.5t20 181.5q0 53 -14 73.5t-49 20.5q-55 0 -82 -55q-25 -53 -49.5 -182t-24.5 -201q0 -45 13.5 -65.5t48.5 -20.5z" glyph-name="ohungarumlaut" horiz-adv-x="1179" unicode="ő"/><glyph d="M1843 1085h-416l-28 -167h375l-62 -349h-375l-39 -221h441l-62 -348h-819q-96 -20 -225 -20q-287 0 -418 123.5t-131 402.5q0 250 85 487.5t220 341.5q154 119 449 119q125 0 213 -20h854zM551 502q0 -86 28.5 -119t98.5 -33q90 0 127 49q49 63 89 245.5t40 291.5 q0 82 -27.5 114.5t-97.5 32.5q-49 0 -75.5 -8t-51.5 -39q-45 -55 -88 -239t-43 -295z" glyph-name="OE" horiz-adv-x="1843" unicode="Œ"/><glyph d="M1278 1147q227 0 328.5 -90t101.5 -275q0 -119 -43 -307l-6 -26h-572q-4 -49 -4 -64q0 -51 23.5 -69.5t91.5 -18.5q90 0 346 51l23 -303q-246 -66 -434 -65q-182 0 -291 67q-113 -68 -310 -67q-270 0 -382.5 108.5t-112.5 323.5q0 180 65.5 365.5t198.5 277.5t365 92 q195 0 303 -64q119 64 309 64zM1128 684h185q8 86 8 100q0 51 -13.5 66.5t-43.5 15.5q-57 0 -82 -36.5t-54 -145.5zM543 301q55 0 82 49q29 51 55.5 189.5t26.5 210.5q0 43 -14.5 59t-45.5 16q-53 0 -78 -45q-29 -51 -57.5 -191t-28.5 -212q0 -43 13.5 -59.5t46.5 -16.5z " glyph-name="oe" horiz-adv-x="1728" unicode="œ"/><glyph d="M1319 2011l-338 -407h-264l231 407h371zM1130 670q-39 -39 -92 -76l183 -594h-476l-100 502h-72l-88 -502h-458l252 1434h501q274 0 392 -88.5t118 -270.5q0 -237 -160 -405zM682 1120l-59 -340h24q98 0 137 47q53 66 58 191q0 102 -97 102h-63z" glyph-name="Racute" horiz-adv-x="1320" unicode="Ŕ"/><glyph d="M1022 1704l-338 -408h-264l231 408h371zM614 985q51 92 121 127t166 35q25 0 53 -6l-80 -375q-39 20 -129 20t-135 -44t-65 -156l-103 -586h-442l195 1106l409 35l-4 -156h14z" glyph-name="racute" horiz-adv-x="868" unicode="ŕ"/><glyph d="M1130 670q-39 -39 -92 -76l183 -594h-476l-100 502h-72l-88 -502h-458l252 1434h501q274 0 392 -88.5t118 -270.5q0 -237 -160 -405zM682 1120l-59 -340h24q98 0 137 47q53 66 58 191q0 102 -97 102h-63zM324 -432l49 287h327l-49 -287l-182 -334h-178l182 334h-149z" glyph-name="Rcommaaccent" horiz-adv-x="1320" unicode="Ŗ"/><glyph d="M901 1147q25 0 53 -6l-80 -375q-39 20 -129 20t-135 -44t-65 -156l-103 -586h-442l195 1106l409 35l-4 -156h14q51 92 121 127t166 35zM80 -432l49 287h328l-49 -287l-183 -334h-178l182 334h-149z" glyph-name="rcommaaccent" horiz-adv-x="868" unicode="ŗ"/><glyph d="M653 1595l-192 408h266l143 -215l217 215h285l-338 -408h-381zM1130 670q-39 -39 -92 -76l183 -594h-476l-100 502h-72l-88 -502h-458l252 1434h501q274 0 392 -88.5t118 -270.5q0 -237 -160 -405zM682 1120l-59 -340h24q98 0 137 47q53 66 58 191q0 102 -97 102h-63z " glyph-name="Rcaron" horiz-adv-x="1320" unicode="Ř"/><glyph d="M356 1288l-192 408h266l143 -215l218 215h284l-338 -408h-381zM614 985q51 92 121 127t166 35q25 0 53 -6l-80 -375q-39 20 -129 20t-135 -44t-65 -156l-103 -586h-442l195 1106l409 35l-4 -156h14z" glyph-name="rcaron" horiz-adv-x="868" unicode="ř"/><glyph d="M539 1604l231 407h371l-338 -407h-264zM344 -20q-162 0 -401 43l65 342q195 -31 295 -31q68 0 105.5 34.5t37.5 92.5q0 41 -30 74l-148 163q-133 145 -133 330q0 426 582 426q123 0 332 -35l-66 -334q-92 16 -186 17q-201 0 -201 -119q0 -33 20 -55l150 -166 q143 -158 143 -342q0 -213 -143 -326.5t-422 -113.5z" glyph-name="Sacute" horiz-adv-x="970" unicode="Ś"/><glyph d="M449 1296l231 408h371l-338 -408h-264zM340 -20q-162 0 -381 38l57 306q121 -23 217 -23q70 0 93 16q20 14 20 57.5t-37 65.5l-135 95q-90 61 -90 210q0 94 33 185.5t100 144.5q94 72 305 72q143 0 393 -41l-57 -307q-141 27 -207 26q-57 0 -77.5 -20.5t-20.5 -52.5 q0 -25 29 -45l112 -84q66 -49 97.5 -104.5t31.5 -139.5t-29.5 -169t-88.5 -136q-105 -94 -365 -94z" glyph-name="sacute" horiz-adv-x="884" unicode="ś"/><glyph d="M709 1810l-220 -215h-282l336 408h381l194 -408h-268zM135 1028q0 426 582 426q123 0 332 -35l-66 -334q-92 16 -186 17q-201 0 -201 -119q0 -33 20 -55l150 -166q143 -158 143 -342q0 -213 -143 -326.5t-422 -113.5q-162 0 -401 43l65 342q195 -31 295 -31 q68 0 105.5 34.5t37.5 92.5q0 41 -30 74l-148 163q-133 146 -133 330z" glyph-name="Scircumflex" horiz-adv-x="970" unicode="Ŝ"/><glyph d="M618 1503l-219 -215h-282l336 408h381l194 -408h-268zM217 1075q94 72 305 72q143 0 393 -41l-57 -307q-141 27 -207 26q-57 0 -77.5 -20.5t-20.5 -52.5q0 -25 29 -45l112 -84q66 -49 97.5 -104.5t31.5 -139.5t-29.5 -169t-88.5 -136q-104 -94 -365 -94q-162 0 -381 38 l57 306q121 -23 217 -23q70 0 93 16q20 14 20 57.5t-37 65.5l-135 95q-90 61 -90 210q0 94 32.5 185.5t100.5 144.5z" glyph-name="scircumflex" horiz-adv-x="884" unicode="ŝ"/><glyph d="M797 1102q-201 0 -201 -119q0 -33 20 -55l150 -166q143 -158 143 -342q0 -186 -111.5 -298t-328.5 -136l-35 -72q180 -20 180 -176q0 -119 -69 -184q-72 -66 -199 -66q-117 0 -240 45l15 131q35 -16 92 -16q68 0 96 26q27 23 27 66q0 37 -57 37h-97l74 205 q-125 8 -313 41l65 342q195 -31 295 -31q68 0 105.5 34.5t37.5 92.5q0 41 -30 74l-148 163q-133 145 -133 330q0 426 582 426q123 0 332 -35l-66 -334q-92 17 -186 17z" glyph-name="Scedilla" horiz-adv-x="970" unicode="Ş"/><glyph d="M651 825q-57 0 -77.5 -20.5t-20.5 -52.5q0 -25 29 -45l112 -84q66 -49 97.5 -104.5t31.5 -139.5t-29.5 -169t-88.5 -136q-82 -74 -254 -90l-35 -70q180 -20 180 -176q0 -119 -70 -184q-72 -66 -198 -66q-117 0 -240 45l14 131q35 -16 93 -16q68 0 96 26q27 23 26 66 q0 37 -57 37h-96l74 207q-104 4 -279 34l57 306q121 -23 217 -23q70 0 93 16q20 14 20 57.5t-37 65.5l-135 95q-90 61 -90 210q0 94 33 185.5t100 144.5q94 72 305 72q143 0 393 -41l-57 -307q-141 26 -207 26z" glyph-name="scedilla" horiz-adv-x="884" unicode="ş"/><glyph d="M475 1595l-192 408h266l143 -215l217 215h285l-338 -408h-381zM135 1028q0 426 582 426q123 0 332 -35l-66 -334q-92 16 -186 17q-201 0 -201 -119q0 -33 20 -55l150 -166q143 -158 143 -342q0 -213 -143 -326.5t-422 -113.5q-162 0 -401 43l65 342q195 -31 295 -31 q68 0 105.5 34.5t37.5 92.5q0 41 -30 74l-148 163q-133 146 -133 330z" glyph-name="Scaron" horiz-adv-x="970" unicode="Š"/><glyph d="M385 1288l-192 408h266l143 -215l217 215h285l-338 -408h-381zM217 1075q94 72 305 72q143 0 393 -41l-57 -307q-141 27 -207 26q-57 0 -77.5 -20.5t-20.5 -52.5q0 -25 29 -45l112 -84q66 -49 97.5 -104.5t31.5 -139.5t-29.5 -169t-88.5 -136q-104 -94 -365 -94 q-162 0 -381 38l57 306q121 -23 217 -23q70 0 93 16q20 14 20 57.5t-37 65.5l-135 95q-90 61 -90 210q0 94 32.5 185.5t100.5 144.5z" glyph-name="scaron" horiz-adv-x="884" unicode="š"/><glyph d="M651 0h-127l-41 -86q180 -20 181 -176q0 -119 -70 -184q-72 -66 -199 -66q-117 0 -239 45l14 131q35 -16 92 -16q68 0 96 26q27 23 27 66q0 37 -57 37h-97l80 223h-118l190 1085h-274l61 349h1004l-62 -349h-270z" glyph-name="Tcommaaccent" horiz-adv-x="1036" unicode="Ţ"/><glyph d="M639 850l-80 -461q-8 -37 -8 -55q0 -33 31 -33q33 0 69 10l-6 -315q-84 -16 -225 -16l-33 -66q180 -20 180 -176q0 -119 -69 -184q-72 -66 -199 -66q-117 0 -240 45l15 131q35 -16 92 -16q68 0 96 26q27 23 27 66q0 37 -58 37h-96l84 235q-121 53 -121 211q0 43 11 101 l92 526h-138l50 276h137l47 273h438l-47 -273h164l-49 -276h-164z" glyph-name="tcommaaccent" horiz-adv-x="798" unicode="ţ"/><glyph d="M510 1595l-193 408h267l143 -215l217 215h285l-338 -408h-381zM1174 1434l-62 -349h-270l-191 -1085h-458l190 1085h-274l61 349h1004z" glyph-name="Tcaron" horiz-adv-x="1036" unicode="Ť"/><glyph d="M897 1847h328l-51 -286l-185 -334h-174l178 334h-147zM735 1399l-47 -273h164l-49 -276h-164l-80 -461q-8 -37 -8 -55q0 -33 31 -33q33 0 69 10l-6 -315q-90 -16 -246 -16q-301 0 -301 243q0 43 11 101l92 526h-138l50 276h137l47 273h438z" glyph-name="tcaron" horiz-adv-x="798" unicode="ť"/><glyph d="M1112 1085h-270l-39 -225h155l-51 -287h-155l-101 -573h-458l100 573h-160l51 287h160l39 225h-274l61 349h1004z" glyph-name="Tbar" horiz-adv-x="1036" unicode="Ŧ"/><glyph d="M803 850h-164l-18 -107h147l-51 -286h-146l-12 -68q-8 -37 -8 -55q0 -33 31 -33q33 0 69 10l-6 -315q-90 -16 -246 -16q-301 0 -301 243q0 43 11 101l22 133h-119l51 286h119l19 107h-138l50 276h137l47 273h438l-47 -273h164z" glyph-name="tbar" horiz-adv-x="798" unicode="ŧ"/><glyph d="M993 1577q-88 0 -145 49l-60 49q-23 20 -55 21q-63 0 -92 -97h-168q27 150 110 240t197 90q80 0 152 -53l57 -43q33 -25 58 -25q49 0 86 97h165q-27 -162 -106.5 -245t-198.5 -83zM606 -20q-285 0 -406.5 100t-121.5 289q0 88 20 211l150 854h459l-166 -951 q-6 -29 -6 -53q0 -80 94 -80q63 0 94 34t47 132l162 918h459l-162 -924q-53 -303 -205 -416.5t-418 -113.5z" glyph-name="Utilde" horiz-adv-x="1329" unicode="Ũ"/><glyph d="M623 1389q-63 0 -93 -97h-168q27 150 110 240t198 90q80 0 151 -53l58 -43q33 -25 57 -25q49 0 86 96h166q-27 -162 -107 -244.5t-198 -82.5q-88 0 -146 49l-59 49q-22 21 -55 21zM784 1126h441l-195 -1106l-407 -34l2 129h-11q-88 -135 -284 -135q-154 0 -220.5 63 t-66.5 199q0 78 18 178l125 706h443l-125 -708q-6 -31 -6 -53q0 -63 55 -64q90 0 111 127z" glyph-name="utilde" horiz-adv-x="1222" unicode="ũ"/><glyph d="M594 1898h620l-51 -286h-620zM606 -20q-285 0 -406.5 100t-121.5 289q0 88 20 211l150 854h459l-166 -951q-6 -29 -6 -53q0 -80 94 -80q63 0 94 34t47 132l162 918h459l-162 -924q-53 -303 -205 -416.5t-418 -113.5z" glyph-name="Umacron" horiz-adv-x="1329" unicode="Ū"/><glyph d="M1104 1591l-51 -286h-621l51 286h621zM784 1126h441l-195 -1106l-407 -34l2 129h-11q-88 -135 -284 -135q-154 0 -220.5 63t-66.5 199q0 78 18 178l125 706h443l-125 -708q-6 -31 -6 -53q0 -63 55 -64q90 0 111 127z" glyph-name="umacron" horiz-adv-x="1222" unicode="ū"/><glyph d="M862 1559q-330 0 -330 247q0 41 11 97l6 26h225l-8 -41q-2 -10 -2 -26q0 -70 115 -70q82 0 113.5 26.5t49.5 102.5l2 8h226l-10 -59q-31 -176 -131.5 -243.5t-266.5 -67.5zM606 -20q-285 0 -406.5 100t-121.5 289q0 88 20 211l150 854h459l-166 -951q-6 -29 -6 -53 q0 -80 94 -80q63 0 94 34t47 132l162 918h459l-162 -924q-53 -303 -205 -416.5t-418 -113.5z" glyph-name="Ubreve" horiz-adv-x="1329" unicode="Ŭ"/><glyph d="M752 1251q-330 0 -330 248q0 41 10 96l6 27h226l-9 -41q-2 -10 -2 -27q0 -70 115 -69q82 0 113.5 26.5t50.5 102.5l2 8h225l-10 -59q-31 -176 -131 -244t-266 -68zM784 1126h441l-195 -1106l-407 -34l2 129h-11q-88 -135 -284 -135q-154 0 -220.5 63t-66.5 199 q0 78 18 178l125 706h443l-125 -708q-6 -31 -6 -53q0 -63 55 -64q90 0 111 127z" glyph-name="ubreve" horiz-adv-x="1222" unicode="ŭ"/><glyph d="M866 1540q-145 0 -204.5 53.5t-59.5 157.5q0 127 55 205q70 100 254 100q145 0 204 -53t59 -158q0 -127 -56 -207q-70 -98 -252 -98zM877 1688q70 0 96 38q27 37 26 97q0 43 -22.5 63.5t-77.5 20.5q-70 0 -98 -39q-25 -35 -25 -94q0 -45 23 -65.5t78 -20.5zM606 -20 q-285 0 -406.5 100t-121.5 289q0 88 20 211l150 854h459l-166 -951q-6 -29 -6 -53q0 -80 94 -80q63 0 94 34t47 132l162 918h459l-162 -924q-53 -303 -205 -416.5t-418 -113.5z" glyph-name="Uring" horiz-adv-x="1329" unicode="Ů"/><glyph d="M756 1233q-145 0 -204.5 53t-59.5 158q0 127 55 205q70 100 254 100q145 0 203.5 -53.5t58.5 -157.5q0 -127 -55 -207q-70 -98 -252 -98zM690 1561q-25 -35 -24 -95q0 -45 22.5 -65.5t77.5 -20.5q70 0 96 39q27 37 27 97q0 43 -22.5 63t-78.5 20q-69 1 -98 -38zM784 1126 h441l-195 -1106l-407 -34l2 129h-11q-88 -135 -284 -135q-154 0 -220.5 63t-66.5 199q0 78 18 178l125 706h443l-125 -708q-6 -31 -6 -53q0 -63 55 -64q90 0 111 127z" glyph-name="uring" horiz-adv-x="1222" unicode="ů"/><glyph d="M514 1604l242 407h368l-358 -407h-252zM979 1604l240 407h368l-356 -407h-252zM606 -20q-285 0 -406.5 100t-121.5 289q0 88 20 211l150 854h459l-166 -951q-6 -29 -6 -53q0 -80 94 -80q63 0 94 34t47 132l162 918h459l-162 -924q-53 -303 -205 -416.5t-418 -113.5z" glyph-name="Uhungarumlaut" horiz-adv-x="1329" unicode="Ű"/><glyph d="M1014 1704l-359 -408h-252l242 408h369zM1120 1296h-252l240 408h369zM664 428l120 698h441l-195 -1106l-407 -34l2 129h-11q-88 -135 -284 -135q-154 0 -220.5 63t-66.5 199q0 78 18 178l125 706h443l-125 -708q-6 -31 -6 -53q0 -63 55 -64q91 0 111 127z" glyph-name="uhungarumlaut" horiz-adv-x="1222" unicode="ű"/><glyph d="M932 1434h459l-162 -924q-43 -240 -145.5 -358.5t-272.5 -153.5q-143 -94 -143 -203q0 -74 143 -74l27 -219q-47 -6 -119 -6q-154 0 -247 58.5t-93 183.5q0 139 117 246q-225 18 -321.5 116.5t-96.5 268.5q0 88 20 211l150 854h459l-166 -951q-6 -29 -6 -53q0 -80 94 -80 q63 0 94 34t47 132z" glyph-name="Uogonek" horiz-adv-x="1329" unicode="Ų"/><glyph d="M881 -186q-8 -51 27.5 -72t113.5 -21l27 -219q-45 -6 -119 -6q-172 0 -266.5 74t-67.5 229q20 106 121 195l-94 -8l2 129h-11q-88 -135 -284 -135q-154 0 -220.5 63t-66.5 199q0 78 18 178l125 706h443l-125 -708q-6 -31 -6 -53q0 -63 55 -64q90 0 111 127l120 698h441 l-195 -1106q-126 -81 -149 -206z" glyph-name="uogonek" horiz-adv-x="1222" unicode="ų"/><glyph d="M1167 1810l-219 -215h-282l335 408h381l195 -408h-268zM1575 1434h467l-469 -1434h-578l56 1085h-27l-326 -1085h-579l37 1434h462l-100 -1086h23l309 1086h493l-75 -1086h26z" glyph-name="Wcircumflex" horiz-adv-x="1884" unicode="Ŵ"/><glyph d="M1112 1503l-219 -215h-283l336 408h381l195 -408h-269zM1507 1126h465l-387 -1126h-627l39 825h-28l-252 -825h-625l10 1126h459l-90 -825h31l254 825h553l-37 -825h37z" glyph-name="wcircumflex" horiz-adv-x="1867" unicode="ŵ"/><glyph d="M877 1810l-220 -215h-282l336 408h381l194 -408h-268zM1458 1434l-608 -1006l-76 -428h-459l86 494l-243 940h458l74 -582h23l276 582h469z" glyph-name="Ycircumflex" horiz-adv-x="1298" unicode="Ŷ"/><glyph d="M735 1503l-219 -215h-283l336 408h381l195 -408h-268zM762 1126h465l-455 -1142q-47 -117 -105.5 -194t-130 -114.5t-140 -51t-160.5 -13.5q-121 0 -283 39l51 284q125 -18 225 -18q98 0 148.5 36t77.5 130l2 4h-310l-45 1040h457l-47 -739h33z" glyph-name="ycircumflex" horiz-adv-x="1122" unicode="ŷ"/><glyph d="M811 1911l-51 -287h-328l51 287h328zM1296 1911l-51 -287h-327l51 287h327zM1458 1434l-608 -1006l-76 -428h-459l86 494l-243 940h458l74 -582h23l276 582h469z" glyph-name="Ydieresis" horiz-adv-x="1298" unicode="Ÿ"/><glyph d="M1184 2011l-338 -407h-264l231 407h371zM184 1085l62 349h911l-61 -349l-6 -38l-639 -682l-5 -17h508l-61 -348h-967l64 348l6 41l639 676l2 20h-453z" glyph-name="Zacute" horiz-adv-x="1052" unicode="Ź"/><glyph d="M1059 1704l-338 -408h-264l231 408h371zM106 829l54 297h792l-53 -297l-6 -41l-471 -471l-4 -20h413l-53 -297h-852l54 297l6 43l477 481l2 8h-359z" glyph-name="zacute" horiz-adv-x="911" unicode="ź"/><glyph d="M928 1911l-51 -287h-328l51 287h328zM246 1434h911l-61 -349l-6 -38l-639 -682l-5 -17h508l-61 -348h-967l64 348l6 41l639 676l2 20h-453z" glyph-name="Zdotaccent" horiz-adv-x="1052" unicode="Ż"/><glyph d="M803 1604l-51 -287h-328l51 287h328zM160 1126h792l-53 -297l-6 -41l-471 -471l-4 -20h413l-53 -297h-852l54 297l6 43l477 481l2 8h-359z" glyph-name="zdotaccent" horiz-adv-x="911" unicode="ż"/><glyph d="M518 1595l-192 408h266l143 -215l217 215h285l-338 -408h-381zM184 1085l62 349h911l-61 -349l-6 -38l-639 -682l-5 -17h508l-61 -348h-967l64 348l6 41l639 676l2 20h-453z" glyph-name="Zcaron" horiz-adv-x="1052" unicode="Ž"/><glyph d="M393 1288l-192 408h266l143 -215l217 215h285l-338 -408h-381zM106 829l54 297h792l-53 -297l-6 -41l-471 -471l-4 -20h413l-53 -297h-852l54 297l6 43l477 481l2 8h-359z" glyph-name="zcaron" horiz-adv-x="911" unicode="ž"/><glyph d="M721 1548q160 0 274 -26l-55 -283q-31 6 -82 6q-74 0 -110.5 -42t-55.5 -144l-186 -1059h-440l149 850h-152l50 276h151l8 43q39 221 147.5 300t301.5 79z" glyph-name="longs" horiz-adv-x="808" unicode="ſ"/><glyph d="M700 1548q162 0 277 -26l-55 -283q-31 6 -82 6q-74 0 -111 -42t-55 -144l-25 -137h185l-48 -277h-186l-121 -688q-37 -203 -133 -274.5t-268 -71.5q-123 0 -230 16l54 289h18q68 0 97.5 43t43.5 127l101 559h-131l47 277h131l45 247q39 221 146 300t300 79z" glyph-name="florin" horiz-adv-x="790" unicode="ƒ"/><glyph d="M1466 1694h226l-43 -244q-27 -147 -88.5 -207.5t-192.5 -73.5q31 -98 31 -235q0 -246 -86 -484.5t-217 -347.5q-147 -123 -451 -122q-297 0 -430 122.5t-133 403.5q0 248 87 484.5t220 342.5q150 121 447 121q272 0 407 -102q164 0 187 131zM803 399q43 55 86 234.5 t43 302.5q0 82 -27.5 114.5t-97.5 32.5q-90 0 -127 -47q-45 -55 -88 -233t-43 -301q0 -86 28.5 -119t98.5 -33q90 0 127 49z" glyph-name="Ohorn" horiz-adv-x="1419" unicode="Ơ"/><glyph d="M1239 1370h225l-43 -244q-27 -147 -89 -207.5t-193 -72.5q12 -61 12 -131q0 -176 -64.5 -351.5t-162.5 -263.5q-137 -121 -396 -120q-252 0 -373.5 101t-121.5 310q0 199 70.5 383t179.5 270q131 102 372 103q266 0 389 -117q137 8 158 129zM639 383q23 57 43 166.5 t20 181.5q0 53 -14 73.5t-49 20.5q-55 0 -82 -55q-25 -53 -49.5 -182t-24.5 -201q0 -45 13.5 -65.5t48.5 -20.5q63 0 94 82z" glyph-name="ohorn" horiz-adv-x="1179" unicode="ơ"/><glyph d="M1518 1776h225l-43 -244q-29 -162 -102.5 -220.5t-239.5 -64.5l-129 -737q-53 -303 -205 -416.5t-418 -113.5q-285 0 -406.5 100t-121.5 289q0 88 20 211l150 854h459l-166 -951q-6 -29 -6 -53q0 -80 94 -80q63 0 94 34t47 132l162 918h360q166 0 189 131z" glyph-name="Uhorn" horiz-adv-x="1329" unicode="Ư"/><glyph d="M1337 1468h226l-43 -243q-29 -158 -99.5 -217.5t-228.5 -67.5l-162 -920l-407 -34l2 129h-11q-88 -135 -284 -135q-154 0 -220.5 63t-66.5 199q0 78 18 178l125 706h443l-125 -708q-6 -31 -6 -53q0 -63 55 -64q90 0 111 127l120 698h328q166 0 188 131z" glyph-name="uhorn" horiz-adv-x="1222" unicode="ư"/><glyph d="M1872 1595l-193 408h267l143 -215l217 215h285l-338 -408h-381zM864 1434q242 0 359.5 -127t117.5 -392q0 -225 -74.5 -446t-191.5 -332q-143 -137 -438 -137h-610l252 1434h585zM1538 1085l61 349h912l-62 -349l-6 -38l-639 -682l-4 -17h508l-61 -348h-967l63 348l7 41 l639 676l2 20h-453zM741 403q47 61 94.5 246t47.5 303q0 72 -24.5 101.5t-82.5 29.5h-100l-129 -733h76q77 0 118 53z" glyph-name="uni01C4" horiz-adv-x="2406" unicode="Ǆ"/><glyph d="M1757 1288l-192 408h266l143 -215l217 215h285l-338 -408h-381zM864 1434q242 0 359.5 -127t117.5 -392q0 -225 -74.5 -446t-191.5 -332q-143 -137 -438 -137h-610l252 1434h585zM1470 829l54 297h792l-53 -297l-6 -41l-471 -471l-4 -20h413l-53 -297h-852l53 297l7 43 l477 481l2 8h-359zM741 403q47 61 94.5 246t47.5 303q0 72 -24.5 101.5t-82.5 29.5h-100l-129 -733h76q77 0 118 53z" glyph-name="uni01C5" horiz-adv-x="2275" unicode="ǅ"/><glyph d="M1630 1288l-192 408h266l143 -215l217 215h285l-338 -408h-381zM840 1536h440l-266 -1516l-406 -34l2 129h-8q-39 -72 -95 -103.5t-151 -31.5q-328 0 -327 385q0 190 63.5 389.5t153.5 289.5q102 102 278 103q152 0 207 -80h27zM1343 829l54 297h792l-53 -297l-6 -41 l-471 -471l-4 -20h413l-53 -297h-852l54 297l6 43l477 481l2 8h-359zM692 688q8 43 8 84q0 23 -14 38t-37 15q-51 0 -82 -51q-29 -51 -57.5 -179t-28.5 -210q0 -47 14.5 -65.5t49.5 -18.5q45 0 66.5 29.5t35.5 103.5z" glyph-name="uni01C6" horiz-adv-x="2148" unicode="ǆ"/><glyph d="M737 1434l-190 -1086h303l-62 -348h-761l252 1434h458zM1272 1434h459l-195 -1108q-35 -203 -135.5 -274.5t-278.5 -71.5q-137 0 -270 28l72 346q23 -4 55 -4q55 0 84 30t41 97z" glyph-name="uni01C7" horiz-adv-x="1687" unicode="Ǉ"/><glyph d="M1145 1569h467l-58 -332h-467zM850 348l-62 -348h-761l252 1434h458l-190 -1086h303zM897 86l184 1040h441l-207 -1169q-35 -203 -133.5 -274.5t-270.5 -71.5q-152 0 -282 29l53 282q29 -4 72 -4q63 0 95 39t48 129z" glyph-name="uni01C8" horiz-adv-x="1513" unicode="ǈ"/><glyph d="M852 1237l57 332h467l-57 -332h-467zM340 -20q-301 0 -301 243q0 39 10 101l213 1212h440l-200 -1141q-8 -45 -8 -57q0 -37 41 -37q23 0 63 10l-2 -311q-104 -20 -256 -20zM676 -389q-152 0 -283 29l53 282q29 -4 72 -4q63 0 95 39t49 129l184 1040h440l-207 -1169 q-35 -203 -133 -274.5t-270 -71.5z" glyph-name="uni01C9" horiz-adv-x="1277" unicode="ǉ"/><glyph d="M1063 1434h395l-252 -1434h-577l-41 838h-21l-147 -838h-393l252 1434h581l39 -830h19zM1776 1434h458l-194 -1108q-35 -203 -135.5 -274.5t-278.5 -71.5q-137 0 -270 28l71 346q23 -4 56 -4q55 0 83.5 30t41.5 97z" glyph-name="uni01CA" horiz-adv-x="2191" unicode="Ǌ"/><glyph d="M1698 1569h467l-58 -332h-467zM1458 1434l-252 -1434h-577l-41 838h-21l-147 -838h-393l252 1434h581l39 -830h19l145 830h395zM1450 86l184 1040h441l-207 -1169q-35 -203 -133.5 -274.5t-270.5 -71.5q-152 0 -282 29l53 282q29 -4 72 -4q63 0 95 39t48 129z" glyph-name="uni01CB" horiz-adv-x="2066" unicode="ǋ"/><glyph d="M1516 1569h466l-57 -332h-467zM629 0l125 709q6 41 6 59q0 33 -14.5 45t-53.5 12q-106 0 -131 -133l-121 -692h-440l195 1106l405 35l-2 -129h12q47 72 115 103.5t180 31.5q158 0 231.5 -66.5t73.5 -206.5q0 -68 -18 -172l-123 -702h-440zM1268 86l184 1040h440 l-206 -1169q-35 -203 -133.5 -274.5t-270.5 -71.5q-152 0 -283 29l54 282q29 -4 71 -4q63 0 95.5 39t48.5 129z" glyph-name="uni01CC" horiz-adv-x="1884" unicode="ǌ"/><glyph d="M674 1595l-193 408h267l143 -215l217 215h285l-338 -408h-381zM1176 1434l96 -1434h-461v297h-338l-104 -297h-469l600 1434h676zM594 645h217l2 440h-63z" glyph-name="uni01CD" horiz-adv-x="1370" unicode="Ǎ"/><glyph d="M522 1288l-192 408h266l143 -215l217 215h285l-338 -408h-381zM780 1147q162 0 239 -65.5t77 -202.5q0 -57 -13 -131l-127 -728l-405 -34v129h-8q-86 -135 -275 -135q-281 0 -280 266q0 106 39 196t106 138q92 66 303 65h191l8 53q6 31 6 52q0 29 -12.5 39t-44.5 10 q-86 0 -330 -60l-31 330q358 78 557 78zM414 287q0 -47 47 -47q96 0 123 163l12 72h-43q-68 0 -92 -31q-18 -23 -32.5 -72.5t-14.5 -84.5z" glyph-name="uni01CE" horiz-adv-x="1132" unicode="ǎ"/><glyph d="M346 1595l-192 408h266l143 -215l217 215h285l-338 -408h-381zM27 0l252 1434h458l-252 -1434h-458z" glyph-name="uni01CF" horiz-adv-x="704" unicode="Ǐ"/><glyph d="M688 1696h285l-338 -408h-381l-193 408h267l143 -215zM-4 0l199 1126h440l-199 -1126h-440z" glyph-name="uni01D0" horiz-adv-x="628" unicode="ǐ"/><glyph d="M702 1595l-192 408h266l144 -215l217 215h284l-338 -408h-381zM836 1454q297 0 430 -122t133 -398q0 -246 -86 -484.5t-217 -347.5q-147 -123 -451 -122q-297 0 -430 122.5t-133 403.5q0 248 87 484.5t220 342.5q150 121 447 121zM803 399q43 55 86 234.5t43 302.5 q0 82 -27.5 114.5t-97.5 32.5q-90 0 -127 -47q-45 -55 -88 -233t-43 -301q0 -86 28.5 -119t98.5 -33q90 0 127 49z" glyph-name="uni01D1" horiz-adv-x="1419" unicode="Ǒ"/><glyph d="M530 1288l-192 408h266l144 -215l217 215h284l-338 -408h-381zM655 1147q254 0 375 -104.5t121 -327.5q0 -176 -64.5 -351.5t-162.5 -263.5q-137 -121 -396 -120q-252 0 -373.5 101t-121.5 310q0 199 70.5 383t179.5 270q130 103 372 103zM639 383q23 57 43 166.5 t20 181.5q0 53 -14 73.5t-49 20.5q-55 0 -82 -55q-25 -53 -49.5 -182t-24.5 -201q0 -45 13.5 -65.5t48.5 -20.5q63 0 94 82z" glyph-name="uni01D2" horiz-adv-x="1179" unicode="ǒ"/><glyph d="M659 1595l-192 408h266l144 -215l217 215h284l-338 -408h-381zM932 1434h459l-162 -924q-53 -303 -205 -416.5t-418 -113.5q-285 0 -406.5 100t-121.5 289q0 88 20 211l150 854h459l-166 -951q-6 -29 -6 -53q0 -80 94 -80q63 0 94 34t47 132z" glyph-name="uni01D3" horiz-adv-x="1329" unicode="Ǔ"/><glyph d="M549 1288l-193 408h267l143 -215l217 215h285l-338 -408h-381zM664 428l120 698h441l-195 -1106l-407 -34l2 129h-11q-88 -135 -284 -135q-154 0 -220.5 63t-66.5 199q0 78 18 178l125 706h443l-125 -708q-6 -31 -6 -53q0 -63 55 -64q91 0 111 127z" glyph-name="uni01D4" horiz-adv-x="1222" unicode="ǔ"/><glyph d="M676 2370h618l-51 -287h-618zM500 1911h327l-51 -287h-327zM985 1911h328l-51 -287h-328zM606 -20q-285 0 -406.5 100t-121.5 289q0 88 20 211l150 854h459l-166 -951q-6 -29 -6 -53q0 -80 94 -80q63 0 94 34t47 132l162 918h459l-162 -924q-53 -303 -205 -416.5 t-418 -113.5z" glyph-name="uni01D5" horiz-adv-x="1329" unicode="Ǖ"/><glyph d="M1184 2062l-51 -286h-619l51 286h619zM717 1604l-51 -287h-328l51 287h328zM823 1317l51 287h328l-51 -287h-328zM784 1126h441l-195 -1106l-407 -34l2 129h-11q-88 -135 -284 -135q-154 0 -220.5 63t-66.5 199q0 78 18 178l125 706h443l-125 -708q-6 -31 -6 -53 q0 -63 55 -64q90 0 111 127z" glyph-name="uni01D6" horiz-adv-x="1222" unicode="ǖ"/><glyph d="M807 2048l231 408h371l-338 -408h-264zM500 1911h327l-51 -287h-327zM985 1911h328l-51 -287h-328zM606 -20q-285 0 -406.5 100t-121.5 289q0 88 20 211l150 854h459l-166 -951q-6 -29 -6 -53q0 -80 94 -80q63 0 94 34t47 132l162 918h459l-162 -924 q-53 -303 -205 -416.5t-418 -113.5z" glyph-name="uni01D7" horiz-adv-x="1329" unicode="Ǘ"/><glyph d="M1298 2148l-337 -407h-265l232 407h370zM717 1604l-51 -287h-328l51 287h328zM823 1317l51 287h328l-51 -287h-328zM664 428l120 698h441l-195 -1106l-407 -34l2 129h-11q-88 -135 -284 -135q-154 0 -220.5 63t-66.5 199q0 78 18 178l125 706h443l-125 -708 q-6 -31 -6 -53q0 -63 55 -64q91 0 111 127z" glyph-name="uni01D8" horiz-adv-x="1222" unicode="ǘ"/><glyph d="M741 2050l-192 408h266l143 -215l220 215h282l-336 -408h-383zM827 1911l-51 -287h-327l51 287h327zM934 1624l51 287h328l-51 -287h-328zM770 516l162 918h459l-162 -924q-53 -303 -205 -416.5t-418 -113.5q-285 0 -406.5 100t-121.5 289q0 88 20 211l150 854h459 l-166 -951q-6 -29 -6 -53q0 -80 94 -80q63 0 94 34t47 132z" glyph-name="uni01D9" horiz-adv-x="1329" unicode="Ǚ"/><glyph d="M631 1743l-193 407h267l143 -215l219 215h283l-336 -407h-383zM717 1604l-51 -287h-328l51 287h328zM823 1317l51 287h328l-51 -287h-328zM664 428l120 698h441l-195 -1106l-407 -34l2 129h-11q-88 -135 -284 -135q-154 0 -220.5 63t-66.5 199q0 78 18 178l125 706h443 l-125 -708q-6 -31 -6 -53q0 -63 55 -64q91 0 111 127z" glyph-name="uni01DA" horiz-adv-x="1222" unicode="ǚ"/><glyph d="M799 2048l-195 408h354l89 -408h-248zM449 1624l51 287h327l-51 -287h-327zM934 1624l51 287h328l-51 -287h-328zM606 -20q-285 0 -406.5 100t-121.5 289q0 88 20 211l150 854h459l-166 -951q-6 -29 -6 -53q0 -80 94 -80q63 0 94 34t47 132l162 918h459l-162 -924 q-53 -303 -205 -416.5t-418 -113.5z" glyph-name="uni01DB" horiz-adv-x="1329" unicode="Ǜ"/><glyph d="M936 1741h-248l-194 407h354zM717 1604l-51 -287h-328l51 287h328zM823 1317l51 287h328l-51 -287h-328zM784 1126h441l-195 -1106l-407 -34l2 129h-11q-88 -135 -284 -135q-154 0 -220.5 63t-66.5 199q0 78 18 178l125 706h443l-125 -708q-6 -31 -6 -53q0 -63 55 -64 q90 0 111 127z" glyph-name="uni01DC" horiz-adv-x="1222" unicode="ǜ"/><glyph d="M1585 1898l-51 -286h-621l52 286h620zM1860 1085h-418l-29 -167h377l-61 -349h-377l-39 -221h442l-61 -348h-901l51 297h-312l-161 -297h-473l845 1434h1178zM905 645l78 440h-22l-240 -440h184z" glyph-name="uni01E2" horiz-adv-x="1859" unicode="Ǣ"/><glyph d="M692 1595l-192 408h266l143 -215l217 215h285l-338 -408h-381zM715 541l57 327h516l-151 -852l-363 -30l2 135h-6q-119 -141 -303 -141q-193 0 -292 117.5t-99 346.5q0 283 82 532t202 343q172 135 492 135q246 0 412 -53l-76 -365q-147 49 -291 49q-147 0 -215 -73 q-47 -51 -95 -230.5t-48 -306.5q0 -72 21.5 -98.5t76.5 -26.5q154 0 188 162l6 29h-116z" glyph-name="Gcaron" horiz-adv-x="1312" unicode="Ǧ"/><glyph d="M512 1288l-193 408h267l143 -215l217 215h285l-338 -408h-381zM598 1147q131 0 219 -21h404l-17 -188l-162 -29q20 -41 21 -108q0 -104 -48 -200.5t-126 -147.5q-111 -74 -342 -74q-68 0 -123 6l-25 -25q-20 -20 -20 -41q0 -29 35 -28h104q524 0 524 -287 q0 -201 -148.5 -297t-455.5 -96q-553 0 -553 231q0 197 217 232l7 30q-90 59 -91 156q0 106 138 203l12 8q-94 76 -94 227q0 121 52 226.5t140 156.5q107 66 332 66zM616 657q16 23 32 76t16 94q0 35 -15.5 50.5t-50.5 15.5q-55 0 -78 -35q-14 -23 -27.5 -73t-13.5 -85 q0 -68 70 -67q44 -1 67 24zM483 49q-199 0 -198 -121q0 -41 28.5 -57t104.5 -16q219 0 219 125q0 41 -32 55t-122 14z" glyph-name="gcaron" horiz-adv-x="1157" unicode="ǧ"/><glyph d="M684 1595l-192 408h266l143 -215l217 215h285l-338 -408h-381zM1491 1434l-471 -693l240 -741h-512l-107 569h-55l-101 -569h-458l252 1434h458l-90 -516h51l299 516h494z" glyph-name="uni01E8" horiz-adv-x="1359" unicode="Ǩ"/><glyph d="M520 1647l-192 407h266l143 -215l217 215h285l-338 -407h-381zM1325 1126l-367 -505l168 -621h-479l-61 481h-60l-84 -481h-442l270 1536h443l-138 -778h70l197 368h483z" glyph-name="uni01E9" horiz-adv-x="1234" unicode="ǩ"/><glyph d="M864 1434q242 0 359.5 -127t117.5 -392q0 -225 -74.5 -446t-191.5 -332q-143 -137 -438 -137h-610l252 1434h585zM1599 1434h912l-62 -349l-6 -38l-639 -682l-4 -17h508l-61 -348h-967l63 348l7 41l639 676l2 20h-453zM741 403q47 61 94.5 246t47.5 303q0 72 -24.5 101.5 t-82.5 29.5h-100l-129 -733h76q77 0 118 53z" glyph-name="uni01F1" horiz-adv-x="2406" unicode="Ǳ"/><glyph d="M864 1434q242 0 359.5 -127t117.5 -392q0 -225 -74.5 -446t-191.5 -332q-143 -137 -438 -137h-610l252 1434h585zM1524 1126h792l-53 -297l-6 -41l-471 -471l-4 -20h413l-53 -297h-852l53 297l7 43l477 481l2 8h-359zM741 403q47 61 94.5 246t47.5 303q0 72 -24.5 101.5 t-82.5 29.5h-100l-129 -733h76q77 0 118 53z" glyph-name="uni01F2" horiz-adv-x="2275" unicode="ǲ"/><glyph d="M840 1536h440l-266 -1516l-406 -34l2 129h-8q-39 -72 -95 -103.5t-151 -31.5q-328 0 -327 385q0 190 63.5 389.5t153.5 289.5q102 102 278 103q152 0 207 -80h27zM1397 1126h792l-53 -297l-6 -41l-471 -471l-4 -20h413l-53 -297h-852l54 297l6 43l477 481l2 8h-359z M692 688q8 43 8 84q0 23 -14 38t-37 15q-51 0 -82 -51q-29 -51 -57.5 -179t-28.5 -210q0 -47 14.5 -65.5t49.5 -18.5q45 0 66.5 29.5t35.5 103.5z" glyph-name="uni01F3" horiz-adv-x="2148" unicode="ǳ"/><glyph d="M1358 2011l-338 -407h-264l231 407h371zM715 541l57 327h516l-151 -852l-363 -30l2 135h-6q-119 -141 -303 -141q-193 0 -292 117.5t-99 346.5q0 283 82 532t202 343q172 135 492 135q246 0 412 -53l-76 -365q-147 49 -291 49q-147 0 -215 -73q-47 -51 -95 -230.5 t-48 -306.5q0 -72 21.5 -98.5t76.5 -26.5q154 0 188 162l6 29h-116z" glyph-name="uni01F4" horiz-adv-x="1312" unicode="Ǵ"/><glyph d="M1178 1704l-338 -408h-265l232 408h371zM1221 1126l-17 -188l-162 -29q20 -41 21 -108q0 -104 -48 -200.5t-126 -147.5q-111 -74 -342 -74q-68 0 -123 6l-25 -25q-20 -20 -20 -41q0 -29 35 -28h104q524 0 524 -287q0 -201 -148.5 -297t-455.5 -96q-553 0 -553 231 q0 197 217 232l7 30q-90 59 -91 156q0 106 138 203l12 8q-94 76 -94 227q0 121 52 226.5t140 156.5q106 66 332 66q131 0 219 -21h404zM616 657q16 23 32 76t16 94q0 35 -15.5 50.5t-50.5 15.5q-55 0 -78 -35q-14 -23 -27.5 -73t-13.5 -85q0 -68 70 -67q44 -1 67 24zM483 49 q-199 0 -198 -121q0 -41 28.5 -57t104.5 -16q219 0 219 125q0 41 -32 55t-122 14z" glyph-name="uni01F5" horiz-adv-x="1157" unicode="ǵ"/><glyph d="M1427 2533l-337 -407h-265l232 407h370zM877 1540q-145 0 -205 53.5t-60 157.5q0 123 54 205q70 100 256 100q145 0 203.5 -53t58.5 -158q0 -129 -56 -207q-69 -98 -251 -98zM811 1870q-25 -35 -25 -96q0 -45 22.5 -65.5t78.5 -20.5q70 0 100 41q23 33 23 88 q0 47 -22.5 68.5t-80.5 21.5q-69 0 -96 -37zM1176 1434l96 -1434h-461v297h-338l-104 -297h-469l600 1434h676zM594 645h217l2 440h-63z" glyph-name="Aringacute" horiz-adv-x="1370" unicode="Ǻ"/><glyph d="M1276 2226l-338 -407h-264l231 407h371zM725 1233q-145 0 -204.5 53t-59.5 158q0 123 53 205q70 100 256 100q145 0 203.5 -53.5t58.5 -157.5q0 -129 -55 -207q-70 -98 -252 -98zM659 1563q-25 -35 -24 -97q0 -45 22.5 -65.5t77.5 -20.5q70 0 101 41q23 33 22 88 q0 47 -22.5 68.5t-79.5 21.5q-70 1 -97 -36zM780 1147q162 0 239 -65.5t77 -202.5q0 -57 -13 -131l-127 -728l-405 -34v129h-8q-86 -135 -275 -135q-281 0 -280 266q0 106 39 196t106 138q92 66 303 65h191l8 53q6 31 6 52q0 29 -12.5 39t-44.5 10q-86 0 -330 -60l-31 330 q358 78 557 78zM414 287q0 -47 47 -47q96 0 123 163l12 72h-43q-68 0 -92 -31q-18 -23 -32.5 -72.5t-14.5 -84.5z" glyph-name="aringacute" horiz-adv-x="1132" unicode="ǻ"/><glyph d="M1696 2011l-338 -407h-264l231 407h371zM1860 1085h-418l-29 -167h377l-61 -349h-377l-39 -221h442l-61 -348h-901l51 297h-312l-161 -297h-473l845 1434h1178zM905 645l78 440h-22l-240 -440h184z" glyph-name="AEacute" horiz-adv-x="1859" unicode="Ǽ"/><glyph d="M1360 2011l-338 -407h-264l231 407h371zM1233 1360q166 -119 166 -426q0 -246 -86 -484.5t-217 -347.5q-147 -123 -451 -122q-100 0 -180 12l-53 -94h-267l101 180q-164 119 -164 428q0 248 87 484.5t220 342.5q150 121 447 121q96 0 176 -12l53 94h266zM680 1036 q-35 -41 -68.5 -158.5t-52.5 -240.5l252 446h-4q-90 0 -127 -47zM676 350q90 0 127 49q33 43 67.5 164t51.5 244l-256 -457h10z" glyph-name="Oslashacute" horiz-adv-x="1419" unicode="Ǿ"/><glyph d="M1229 1704l-338 -408h-264l231 408h371zM1014 1055q137 -104 137 -340q0 -176 -64.5 -351.5t-162.5 -263.5q-137 -121 -396 -120q-61 0 -116 6l-68 -121h-268l108 194q-152 96 -151 332q0 199 70.5 383t179.5 270q131 102 372 103q80 0 136 -8l69 123h268zM639 383 q23 57 43 166.5t20 181.5q0 53 -14 73.5t-49 20.5q-55 0 -82 -55q-25 -53 -49.5 -182t-24.5 -201q0 -45 13.5 -65.5t48.5 -20.5q63 0 94 82z" glyph-name="oslashacute" horiz-adv-x="1179" unicode="ǿ"/><glyph d="M733 1604h-235l-215 407h352zM1196 1604h-235l-213 407h352zM1272 0h-461v297h-338l-104 -297h-469l600 1434h676zM594 645h217l2 440h-63z" glyph-name="uni0200" horiz-adv-x="1370" unicode="Ȁ"/><glyph d="M582 1296h-236l-215 408h352zM1044 1296h-235l-213 408h352zM780 1147q162 0 239 -65.5t77 -202.5q0 -57 -13 -131l-127 -728l-405 -34v129h-8q-86 -135 -275 -135q-281 0 -280 266q0 106 39 196t106 138q92 66 303 65h191l8 53q6 31 6 52q0 29 -12.5 39t-44.5 10 q-86 0 -330 -60l-31 330q358 78 557 78zM414 287q0 -47 47 -47q96 0 123 163l12 72h-43q-68 0 -92 -31q-18 -23 -32.5 -72.5t-14.5 -84.5z" glyph-name="uni0201" horiz-adv-x="1132" unicode="ȁ"/><glyph d="M727 1581l-4 -22h-225l10 59q29 160 113 235.5t280 75.5q160 0 245 -58.5t85 -193.5q0 -45 -8 -92l-4 -26h-226l2 16q6 37 6 51q0 39 -23.5 54.5t-80.5 15.5q-86 0 -123 -26t-47 -89zM1272 0h-461v297h-338l-104 -297h-469l600 1434h676zM594 645h217l2 440h-63z" glyph-name="uni0202" horiz-adv-x="1370" unicode="Ȃ"/><glyph d="M575 1274l-4 -23h-225l10 60q29 160 113 235.5t281 75.5q160 0 244.5 -58.5t84.5 -193.5q0 -45 -8 -92l-4 -27h-225l2 17q6 37 6 51q0 39 -23.5 54.5t-81.5 15.5q-86 0 -123 -26t-47 -89zM780 1147q162 0 239 -65.5t77 -202.5q0 -57 -13 -131l-127 -728l-405 -34v129h-8 q-86 -135 -275 -135q-281 0 -280 266q0 106 39 196t106 138q92 66 303 65h191l8 53q6 31 6 52q0 29 -12.5 39t-44.5 10q-86 0 -330 -60l-31 330q358 78 557 78zM414 287q0 -47 47 -47q96 0 123 163l12 72h-43q-68 0 -92 -31q-18 -23 -32.5 -72.5t-14.5 -84.5z" glyph-name="uni0203" horiz-adv-x="1132" unicode="ȃ"/><glyph d="M614 1604h-235l-215 407h352zM1077 1604h-235l-213 407h352zM1092 1085h-418l-29 -167h377l-61 -349h-377l-39 -221h442l-61 -348h-901l251 1434h877z" glyph-name="uni0204" horiz-adv-x="1091" unicode="Ȅ"/><glyph d="M555 1296h-236l-215 408h353zM1018 1296h-236l-213 408h353zM643 1147q225 0 328.5 -88t103.5 -281q0 -109 -41 -293l-8 -36h-573q-4 -49 -4 -66q0 -51 19 -69.5t77 -18.5q137 0 362 53l25 -303q-244 -66 -434 -65q-459 0 -459 454q0 188 67.5 360.5t174.5 254.5 q124 98 362 98zM496 684h184q10 72 10 111q0 41 -13 56t-46 15q-66 0 -94 -59q-25 -51 -41 -123z" glyph-name="uni0205" horiz-adv-x="1095" unicode="ȅ"/><glyph d="M608 1581l-4 -22h-225l10 59q29 160 113 235.5t280 75.5q160 0 245 -58.5t85 -193.5q0 -45 -8 -92l-4 -26h-226l3 16q6 37 6 51q0 39 -23.5 54.5t-81.5 15.5q-86 0 -123 -26t-47 -89zM1092 1085h-418l-29 -167h377l-61 -349h-377l-39 -221h442l-61 -348h-901l251 1434 h877z" glyph-name="uni0206" horiz-adv-x="1091" unicode="Ȇ"/><glyph d="M549 1274l-4 -23h-226l11 60q29 160 112.5 235.5t280.5 75.5q160 0 245 -58.5t85 -193.5q0 -45 -9 -92l-4 -27h-225l2 17q6 37 6 51q0 39 -23.5 54.5t-80.5 15.5q-86 0 -123 -26t-47 -89zM643 1147q225 0 328.5 -88t103.5 -281q0 -109 -41 -293l-8 -36h-573 q-4 -49 -4 -66q0 -51 19 -69.5t77 -18.5q137 0 362 53l25 -303q-244 -66 -434 -65q-459 0 -459 454q0 188 67.5 360.5t174.5 254.5q124 98 362 98zM496 684h184q10 72 10 111q0 41 -13 56t-46 15q-66 0 -94 -59q-25 -51 -41 -123z" glyph-name="uni0207" horiz-adv-x="1095" unicode="ȇ"/><glyph d="M170 1604l-215 407h352l99 -407h-236zM633 1604l-213 407h352l96 -407h-235zM737 1434l-252 -1434h-458l252 1434h458z" glyph-name="uni0208" horiz-adv-x="704" unicode="Ȉ"/><glyph d="M78 1296l-215 408h352l98 -408h-235zM541 1296l-213 408h352l96 -408h-235zM635 1126l-199 -1126h-440l199 1126h440z" glyph-name="uni0209" horiz-adv-x="628" unicode="ȉ"/><glyph d="M170 1559l10 59q29 160 113 235.5t280 75.5q160 0 245 -58.5t85 -193.5q0 -45 -8 -92l-4 -26h-225l2 16q6 37 6 51q0 39 -23.5 54.5t-81.5 15.5q-86 0 -122.5 -25.5t-47.5 -89.5l-4 -22h-225zM737 1434l-252 -1434h-458l252 1434h458z" glyph-name="uni020A" horiz-adv-x="704" unicode="Ȋ"/><glyph d="M78 1251l10 60q29 160 113 235.5t280 75.5q160 0 245 -58.5t85 -193.5q0 -45 -8 -92l-4 -27h-226l2 17q6 37 7 51q0 39 -23.5 54.5t-81.5 15.5q-86 0 -123 -26t-47 -89l-4 -23h-225zM635 1126l-199 -1126h-440l199 1126h440z" glyph-name="uni020B" horiz-adv-x="628" unicode="ȋ"/><glyph d="M526 1604l-215 407h353l98 -407h-236zM989 1604l-213 407h352l97 -407h-236zM645 -20q-297 0 -430 122.5t-133 403.5q0 248 87 484.5t220 342.5q150 121 447 121t430 -122t133 -398q0 -246 -86 -484.5t-217 -347.5q-148 -122 -451 -122zM676 350q90 0 127 49 q43 55 86 234.5t43 302.5q0 82 -27.5 114.5t-97.5 32.5q-90 0 -127 -47q-45 -55 -88 -233t-43 -301q0 -86 28.5 -119t98.5 -33z" glyph-name="uni020C" horiz-adv-x="1419" unicode="Ȍ"/><glyph d="M354 1296l-215 408h353l98 -408h-236zM817 1296l-213 408h352l97 -408h-236zM528 -20q-252 0 -373.5 101t-121.5 310q0 199 70.5 383t179.5 270q131 102 372 103q254 0 375 -104.5t121 -327.5q0 -176 -64.5 -351.5t-162.5 -263.5q-138 -120 -396 -120zM545 301 q63 0 94 82q23 57 43 166.5t20 181.5q0 53 -14 73.5t-49 20.5q-55 0 -82 -55q-25 -53 -49.5 -182t-24.5 -201q0 -45 13.5 -65.5t48.5 -20.5z" glyph-name="uni020D" horiz-adv-x="1179" unicode="ȍ"/><glyph d="M526 1559l11 59q29 160 112.5 235.5t280.5 75.5q160 0 245 -58.5t85 -193.5q0 -45 -9 -92l-4 -26h-225l2 16q6 37 6 51q0 39 -23.5 54.5t-80.5 15.5q-86 0 -123 -25.5t-47 -89.5l-4 -22h-226zM645 -20q-297 0 -430 122.5t-133 403.5q0 248 87 484.5t220 342.5 q150 121 447 121t430 -122t133 -398q0 -246 -86 -484.5t-217 -347.5q-148 -122 -451 -122zM676 350q90 0 127 49q43 55 86 234.5t43 302.5q0 82 -27.5 114.5t-97.5 32.5q-90 0 -127 -47q-45 -55 -88 -233t-43 -301q0 -86 28.5 -119t98.5 -33z" glyph-name="uni020E" horiz-adv-x="1419" unicode="Ȏ"/><glyph d="M354 1251l11 60q29 160 112.5 235.5t280.5 75.5q160 0 244.5 -58.5t84.5 -193.5q0 -45 -8 -92l-4 -27h-225l2 17q6 37 6 51q0 39 -23.5 54.5t-80.5 15.5q-86 0 -123 -26t-47 -89l-4 -23h-226zM528 -20q-252 0 -373.5 101t-121.5 310q0 199 70.5 383t179.5 270 q131 102 372 103q254 0 375 -104.5t121 -327.5q0 -176 -64.5 -351.5t-162.5 -263.5q-138 -120 -396 -120zM545 301q63 0 94 82q23 57 43 166.5t20 181.5q0 53 -14 73.5t-49 20.5q-55 0 -82 -55q-25 -53 -49.5 -182t-24.5 -201q0 -45 13.5 -65.5t48.5 -20.5z" glyph-name="uni020F" horiz-adv-x="1179" unicode="ȏ"/><glyph d="M713 1604h-236l-215 407h352zM1176 1604h-236l-213 407h352zM1130 670q-39 -39 -92 -76l183 -594h-476l-100 502h-72l-88 -502h-458l252 1434h501q274 0 392 -88.5t118 -270.5q0 -237 -160 -405zM682 1120l-59 -340h24q98 0 137 47q53 66 58 191q0 102 -97 102h-63z" glyph-name="uni0210" horiz-adv-x="1320" unicode="Ȑ"/><glyph d="M416 1296h-236l-215 408h352zM879 1296h-236l-213 408h352zM901 1147q25 0 53 -6l-80 -375q-39 20 -129 20t-135 -44t-65 -156l-103 -586h-442l195 1106l409 35l-4 -156h14q51 92 121 127t166 35z" glyph-name="uni0211" horiz-adv-x="868" unicode="ȑ"/><glyph d="M707 1581l-5 -22h-225l10 59q29 160 113 235.5t281 75.5q160 0 244.5 -58.5t84.5 -193.5q0 -45 -8 -92l-4 -26h-225l2 16q6 37 6 51q0 39 -23.5 54.5t-80.5 15.5q-86 0 -123 -26t-47 -89zM1130 670q-39 -39 -92 -76l183 -594h-476l-100 502h-72l-88 -502h-458l252 1434 h501q274 0 392 -88.5t118 -270.5q0 -237 -160 -405zM682 1120l-59 -340h24q98 0 137 47q53 66 58 191q0 102 -97 102h-63z" glyph-name="uni0212" horiz-adv-x="1320" unicode="Ȓ"/><glyph d="M410 1274l-4 -23h-226l10 60q29 160 113 235.5t281 75.5q160 0 244.5 -58.5t84.5 -193.5q0 -45 -8 -92l-4 -27h-225l2 17q6 37 6 51q0 39 -23.5 54.5t-80.5 15.5q-86 0 -123 -26t-47 -89zM901 1147q25 0 53 -6l-80 -375q-39 20 -129 20t-135 -44t-65 -156l-103 -586h-442 l195 1106l409 35l-4 -156h14q51 92 121 127t166 35z" glyph-name="uni0213" horiz-adv-x="868" unicode="ȓ"/><glyph d="M483 1604l-215 407h353l98 -407h-236zM946 1604l-213 407h352l97 -407h-236zM606 -20q-285 0 -406.5 100t-121.5 289q0 88 20 211l150 854h459l-166 -951q-6 -29 -6 -53q0 -80 94 -80q63 0 94 34t47 132l162 918h459l-162 -924q-53 -303 -205 -416.5t-418 -113.5z" glyph-name="uni0214" horiz-adv-x="1329" unicode="Ȕ"/><glyph d="M608 1296h-235l-215 408h352zM1071 1296h-235l-213 408h352zM784 1126h441l-195 -1106l-407 -34l2 129h-11q-88 -135 -284 -135q-154 0 -220.5 63t-66.5 199q0 78 18 178l125 706h443l-125 -708q-6 -31 -6 -53q0 -63 55 -64q90 0 111 127z" glyph-name="uni0215" horiz-adv-x="1222" unicode="ȕ"/><glyph d="M483 1559l11 59q29 160 112.5 235.5t280.5 75.5q160 0 245 -58.5t85 -193.5q0 -45 -9 -92l-4 -26h-225l2 16q6 37 6 51q0 39 -23.5 54.5t-80.5 15.5q-86 0 -123 -25.5t-47 -89.5l-4 -22h-226zM606 -20q-285 0 -406.5 100t-121.5 289q0 88 20 211l150 854h459l-166 -951 q-6 -29 -6 -53q0 -80 94 -80q63 0 94 34t47 132l162 918h459l-162 -924q-53 -303 -205 -416.5t-418 -113.5z" glyph-name="uni0216" horiz-adv-x="1329" unicode="Ȗ"/><glyph d="M602 1274l-4 -23h-225l10 60q29 160 113 235.5t280 75.5q160 0 245 -58.5t85 -193.5q0 -45 -8 -92l-4 -27h-226l2 17q6 37 7 51q0 39 -24 54.5t-81 15.5q-86 0 -123 -26t-47 -89zM784 1126h441l-195 -1106l-407 -34l2 129h-11q-88 -135 -284 -135q-154 0 -220.5 63 t-66.5 199q0 78 18 178l125 706h443l-125 -708q-6 -31 -6 -53q0 -63 55 -64q90 0 111 127z" glyph-name="uni0217" horiz-adv-x="1222" unicode="ȗ"/><glyph d="M797 1102q-201 0 -201 -119q0 -33 20 -55l150 -166q143 -158 143 -342q0 -213 -143 -326.5t-422 -113.5q-162 0 -401 43l65 342q195 -31 295 -31q68 0 105.5 34.5t37.5 92.5q0 41 -30 74l-148 163q-133 145 -133 330q0 426 582 426q123 0 332 -35l-66 -334 q-92 17 -186 17zM131 -432l49 287h328l-49 -287l-183 -334h-178l183 334h-150z" glyph-name="Scommaaccent" horiz-adv-x="970" unicode="Ș"/><glyph d="M651 825q-57 0 -77.5 -20.5t-20.5 -52.5q0 -25 29 -45l112 -84q66 -49 97.5 -104.5t31.5 -139.5t-29.5 -169t-88.5 -136q-104 -94 -365 -94q-162 0 -381 38l57 306q121 -23 217 -23q70 0 93 16q20 14 20 57.5t-37 65.5l-135 95q-90 61 -90 210q0 94 33 185.5t100 144.5 q94 72 305 72q143 0 393 -41l-57 -307q-141 26 -207 26zM113 -432l49 287h327l-49 -287l-182 -334h-178l182 334h-149z" glyph-name="scommaaccent" horiz-adv-x="884" unicode="ș"/><glyph d="M1174 1434l-62 -349h-270l-191 -1085h-458l190 1085h-274l61 349h1004zM180 -432l49 287h328l-49 -287l-182 -334h-179l183 334h-150z" glyph-name="uni021A" horiz-adv-x="1036" unicode="Ț"/><glyph d="M639 850l-80 -461q-8 -37 -8 -55q0 -33 31 -33q33 0 69 10l-6 -315q-90 -16 -246 -16q-301 0 -301 243q0 43 11 101l92 526h-138l50 276h137l47 273h438l-47 -273h164l-49 -276h-164zM84 -432l49 287h328l-49 -287l-183 -334h-178l182 334h-149z" glyph-name="uni021B" horiz-adv-x="798" unicode="ț"/><glyph d="M711 1595l-193 408h266l144 -215l217 215h285l-338 -408h-381zM1010 1434h458l-251 -1434h-459l100 569h-274l-101 -569h-458l251 1434h459l-90 -516h275z" glyph-name="uni021E" horiz-adv-x="1437" unicode="Ȟ"/><glyph d="M520 1647l-192 407h266l143 -215l217 215h285l-338 -407h-381zM913 1147q158 0 228.5 -62.5t70.5 -201.5q0 -72 -18 -176l-125 -707h-440l125 709q6 33 6 55q0 61 -64 61q-109 0 -133 -143l-121 -682h-442l270 1536h443l-86 -496h6q87 107 280 107z" glyph-name="uni021F" horiz-adv-x="1251" unicode="ȟ"/><glyph d="M1198 1898l-51 -286h-621l52 286h620zM1458 1434l-608 -1006l-76 -428h-459l86 494l-243 940h458l74 -582h23l276 582h469z" glyph-name="uni0232" horiz-adv-x="1298" unicode="Ȳ"/><glyph d="M1057 1591l-51 -286h-621l51 286h621zM762 1126h465l-455 -1142q-47 -117 -105.5 -194t-130 -114.5t-140 -51t-160.5 -13.5q-121 0 -283 39l51 284q125 -18 225 -18q98 0 148.5 36t77.5 130l2 4h-310l-45 1040h457l-47 -739h33z" glyph-name="uni0233" horiz-adv-x="1122" unicode="ȳ"/><glyph d="M-10 -389q-152 0 -283 29l53 282q45 -4 90 -4q59 0 84 36t41 132l185 1040h440l-207 -1169q-35 -203 -133 -274.5t-270 -71.5z" glyph-name="uni0237" horiz-adv-x="591" unicode="ȷ"/><glyph d="M1061 1288h-268l-142 215l-219 -215h-282l335 408h381z" glyph-name="circumflex" horiz-adv-x="958" unicode="ˆ"/><glyph d="M856 1696h285l-338 -408h-381l-193 408h267l143 -215z" glyph-name="caron" horiz-adv-x="958" unicode="ˇ"/><glyph d="M553 1251q-330 0 -330 248q0 41 10 96l7 27h225l-8 -41q-2 -10 -2 -27q0 -70 114 -69q82 0 114 26.5t50 102.5l2 8h226l-11 -59q-31 -176 -131 -244t-266 -68z" glyph-name="breve" horiz-adv-x="821" unicode="˘"/><glyph d="M283 1604h327l-51 -287h-328z" glyph-name="dotaccent" horiz-adv-x="524" unicode="˙"/><glyph d="M487 1233q-145 0 -204.5 53t-59.5 158q0 127 56 205q70 100 253 100q145 0 204 -53.5t59 -157.5q0 -127 -56 -207q-70 -98 -252 -98zM498 1380q70 0 96 39q27 37 27 97q0 43 -23 63t-78 20q-70 0 -98 -38q-25 -35 -25 -95q0 -45 23 -65.5t78 -20.5z" glyph-name="ring" horiz-adv-x="679" unicode="˚"/><glyph d="M365 -498q-47 -6 -119 -6q-154 0 -247 58.5t-93 183.5q0 174 194 307l242 -45q-147 -94 -147 -205q0 -74 143 -74z" glyph-name="ogonek" horiz-adv-x="563" unicode="˛"/><glyph d="M700 1270q-88 0 -145 49l-59 49q-23 20 -56 21q-63 0 -92 -97h-168q27 150 110 240t197 90q80 0 152 -53l57 -43q33 -25 58 -25q49 0 86 96h166q-27 -162 -107 -244.5t-199 -82.5z" glyph-name="tilde" horiz-adv-x="866" unicode="˜"/><glyph d="M164 1296l242 408h368l-358 -408h-252zM629 1296l239 408h369l-356 -408h-252z" glyph-name="hungarumlaut" horiz-adv-x="1064" unicode="˝"/><glyph d="M-158 1296l-194 408h354l88 -408h-248z" glyph-name="gravecomb" unicode="̀"/><glyph d="M-432 1296l231 408h371l-338 -408h-264z" glyph-name="acutecomb" unicode="́"/><glyph d="M100 1288h-268l-141 215l-219 -215h-283l336 408h381z" glyph-name="uni0302" unicode="̂"/><glyph d="M-172 1270q-88 0 -145 49l-60 49q-23 20 -55 21q-63 0 -92 -97h-168q27 150 109.5 240t197.5 90q80 0 152 -53l57 -43q33 -25 57 -25q49 0 86 96h166q-27 -162 -106.5 -244.5t-198.5 -82.5z" glyph-name="tildecomb" unicode="̃"/><glyph d="M-537 1591h621l-51 -286h-621z" glyph-name="uni0304" unicode="̄"/><glyph d="M-270 1251q-330 0 -330 248q0 41 10 96l6 27h226l-9 -41q-2 -10 -2 -27q0 -70 115 -69q82 0 113.5 26.5t50.5 102.5l2 8h225l-10 -59q-31 -176 -131 -244t-266 -68z" glyph-name="uni0306" unicode="̆"/><glyph d="M-244 1604h328l-51 -287h-328z" glyph-name="uni0307" unicode="̇"/><glyph d="M-727 1604h328l-52 -287h-327zM-242 1604h328l-51 -287h-328z" glyph-name="uni0308" unicode="̈"/><glyph d="M-270 1274q14 96 32.5 137t55.5 64l47 28q31 20 37 27q10 10 10 24q0 18 -43 19q-47 0 -125 -8l-12 161q88 12 180 13q125 0 177 -35t52 -109q0 -59 -18 -102q-16 -39 -51 -63l-95 -66q-61 -43 -75 -90h-172z" glyph-name="hookabovecomb" unicode="̉"/><glyph d="M-195 1233q-145 0 -204.5 53t-59.5 158q0 127 56 205q70 100 253 100q145 0 204 -53.5t59 -157.5q0 -127 -56 -207q-70 -98 -252 -98zM-184 1380q70 0 96 39q27 37 27 97q0 43 -22.5 63t-78.5 20q-70 0 -98 -38q-25 -35 -25 -95q0 -45 23 -65.5t78 -20.5z" glyph-name="uni030A" unicode="̊"/><glyph d="M-903 1296l241 408h369l-358 -408h-252zM-438 1296l239 408h369l-356 -408h-252z" glyph-name="uni030B" unicode="̋"/><glyph d="M-104 1696h284l-338 -408h-381l-192 408h266l143 -215z" glyph-name="uni030C" unicode="̌"/><glyph d="M-606 1296l-215 408h352l98 -408h-235zM-143 1296l-213 408h352l96 -408h-235z" glyph-name="uni030F" unicode="̏"/><glyph d="M-647 1251l10 60q29 160 113 235.5t280 75.5q160 0 245 -58.5t85 -193.5q0 -45 -8 -92l-4 -27h-226l2 17q6 37 7 51q0 39 -23.5 54.5t-81.5 15.5q-86 0 -123 -26t-47 -89l-4 -23h-225z" glyph-name="uni0311" unicode="̑"/><glyph d="M82 1935l-180 -331h147l-51 -287h-328l51 287l185 331h176z" glyph-name="uni0312" unicode="̒"/><glyph d="M-309 1163l8 189q166 0 188 131l37 211h226l-44 -244q-31 -176 -117.5 -231.5t-297.5 -55.5z" glyph-name="uni031B" unicode="̛"/><glyph d="M-551 -145h328l-49 -287h-328z" glyph-name="dotbelowcomb" unicode="̣"/><glyph d="M-594 -145h328l-49 -287l-183 -334h-178l182 334h-149z" glyph-name="uni0326" unicode="̦"/><glyph d="M-354 -86q180 -20 180 -176q0 -119 -70 -184q-72 -66 -198 -66q-117 0 -240 45l14 131q35 -16 93 -16q68 0 96 26q27 23 26 66q0 37 -57 37h-96l106 295h221z" glyph-name="uni0327" unicode="̧"/><glyph d="M-201 -498q-47 -6 -118 -6q-154 0 -247 58.5t-93 183.5q0 174 194 307l242 -45q-147 -94 -148 -205q0 -74 144 -74z" glyph-name="uni0328" unicode="̨"/><glyph d="M-831 719h774l-52 -287h-774z" glyph-name="uni0335" unicode="̵"/><glyph d="M-1128 788h1069l-56 -307h-1069z" glyph-name="uni0336" unicode="̶"/><glyph d="M-885 -102l750 1331h285l-750 -1331h-285z" glyph-name="uni0337" unicode="̷"/><glyph d="M-1004 -102l922 1638h285l-922 -1638h-285z" glyph-name="uni0338" unicode="̸"/><glyph d="M1063 1911l-51 -287h-328l51 287h328zM1075 733q160 -61 160 -262q0 -109 -39 -206t-104 -154q-125 -111 -441 -111h-624l252 1434h565q475 0 475 -316q0 -193 -131 -307q-45 -41 -111 -61zM807 893q57 57 57 156q0 43 -26.5 60t-96.5 17h-57l-49 -272h41q92 0 131 39z M741 377q47 47 47 131q0 53 -27.5 71.5t-107.5 18.5h-63l-47 -272h39q108 0 159 51z" glyph-name="uni1E02" horiz-adv-x="1323" unicode="Ḃ"/><glyph d="M1147 1604l-51 -287h-328l51 287h328zM842 1147q172 0 254 -97.5t82 -301.5q0 -186 -57.5 -377t-141.5 -283q-98 -109 -282.5 -108.5t-229.5 135.5h-21l-45 -129l-397 34l266 1516h443l-82 -465q70 76 211 76zM639 342q29 47 61.5 193.5t32.5 224.5q0 37 -12 51t-43 14 q-47 0 -73.5 -31.5t-39.5 -103.5l-43 -248q-8 -41 -8 -80q0 -61 51 -61q49 0 74 41z" glyph-name="uni1E03" horiz-adv-x="1206" unicode="ḃ"/><glyph d="M956 1911l-51 -287h-327l51 287h327zM1067 1085h-393l-37 -208h356l-61 -349h-357l-92 -528h-458l251 1434h852z" glyph-name="uni1E1E" horiz-adv-x="1028" unicode="Ḟ"/><glyph d="M918 1911l-52 -287h-327l51 287h328zM858 1245q-68 0 -99.5 -24.5t-51.5 -94.5h182l-49 -276h-185l-149 -850h-440l149 850h-152l50 276h151l8 43q39 221 147.5 300t301.5 79q160 0 274 -26l-55 -283q-31 6 -82 6z" glyph-name="uni1E1F" horiz-adv-x="808" unicode="ḟ"/><glyph d="M1272 1911l-51 -287h-328l51 287h328zM1772 1434l-252 -1434h-412l149 856h-8l-248 -522h-337l-64 522h-12l-150 -856h-411l252 1434h532l92 -637h8l316 637h545z" glyph-name="uni1E40" horiz-adv-x="1738" unicode="Ṁ"/><glyph d="M1260 1604l-52 -287h-327l51 287h328zM1495 1147q152 0 218.5 -62.5t66.5 -197.5q0 -78 -19 -180l-125 -707h-440l125 709q8 45 8 65q0 29 -12 40t-39 11q-94 0 -119 -139l-121 -686h-440l125 709q8 45 8 67q0 29 -11 39t-40 10q-96 0 -119 -139l-119 -686h-442l195 1106 l407 35l-2 -131h8q88 137 289 137q223 0 272 -148h15q92 148 311 148z" glyph-name="uni1E41" horiz-adv-x="1820" unicode="ṁ"/><glyph d="M1040 1911l-51 -287h-327l51 287h327zM813 1434q256 0 376 -92.5t120 -288.5q0 -152 -61.5 -299.5t-155.5 -223.5q-127 -100 -430 -100h-101l-76 -430h-458l252 1434h534zM782 797q29 33 52.5 102.5t23.5 122.5q0 96 -121 96h-55l-66 -373h31q90 1 135 52z" glyph-name="uni1E56" horiz-adv-x="1269" unicode="Ṗ"/><glyph d="M952 1604l-51 -287h-328l52 287h327zM852 1147q176 0 253 -94.5t77 -272.5q0 -166 -52.5 -366.5t-142.5 -307.5q-109 -127 -301 -126q-147 0 -203 75h-32l-74 -424h-443l261 1475l405 35v-117h16q70 123 236 123zM657 371q23 59 47.5 190t24.5 193q0 72 -55 71 q-47 0 -75 -41t-44 -133l-35 -202q-8 -49 -8 -72q0 -76 57 -76q63 0 88 70z" glyph-name="uni1E57" horiz-adv-x="1206" unicode="ṗ"/><glyph d="M557 1911h328l-51 -287h-328zM344 -20q-162 0 -401 43l65 342q195 -31 295 -31q68 0 105.5 34.5t37.5 92.5q0 41 -30 74l-148 163q-133 145 -133 330q0 426 582 426q123 0 332 -35l-66 -334q-92 16 -186 17q-201 0 -201 -119q0 -33 20 -55l150 -166q143 -158 143 -342 q0 -213 -143 -326.5t-422 -113.5z" glyph-name="uni1E60" horiz-adv-x="970" unicode="Ṡ"/><glyph d="M467 1604h328l-52 -287h-327zM340 -20q-162 0 -381 38l57 306q121 -23 217 -23q70 0 93 16q20 14 20 57.5t-37 65.5l-135 95q-90 61 -90 210q0 94 33 185.5t100 144.5q94 72 305 72q143 0 393 -41l-57 -307q-141 27 -207 26q-57 0 -77.5 -20.5t-20.5 -52.5q0 -25 29 -45 l112 -84q66 -49 97.5 -104.5t31.5 -139.5t-29.5 -169t-88.5 -136q-105 -94 -365 -94z" glyph-name="uni1E61" horiz-adv-x="884" unicode="ṡ"/><glyph d="M920 1911l-52 -287h-327l51 287h328zM1174 1434l-62 -349h-270l-191 -1085h-458l190 1085h-274l61 349h1004z" glyph-name="uni1E6A" horiz-adv-x="1036" unicode="Ṫ"/><glyph d="M745 1767l-51 -286h-327l51 286h327zM639 850l-80 -461q-8 -37 -8 -55q0 -33 31 -33q33 0 69 10l-6 -315q-90 -16 -246 -16q-301 0 -301 243q0 43 11 101l92 526h-138l50 276h137l47 273h438l-47 -273h164l-49 -276h-164z" glyph-name="uni1E6B" horiz-adv-x="798" unicode="ṫ"/><glyph d="M1237 1604h-248l-194 407h354zM1575 1434h467l-469 -1434h-578l56 1085h-27l-326 -1085h-579l37 1434h462l-100 -1086h23l309 1086h493l-75 -1086h26z" glyph-name="Wgrave" horiz-adv-x="1884" unicode="Ẁ"/><glyph d="M1182 1296h-248l-195 408h355zM1507 1126h465l-387 -1126h-627l39 825h-28l-252 -825h-625l10 1126h459l-90 -825h31l254 825h553l-37 -825h37z" glyph-name="wgrave" horiz-adv-x="1867" unicode="ẁ"/><glyph d="M1599 2011l-337 -407h-265l232 407h370zM1575 1434h467l-469 -1434h-578l56 1085h-27l-326 -1085h-579l37 1434h462l-100 -1086h23l309 1086h493l-75 -1086h26z" glyph-name="Wacute" horiz-adv-x="1884" unicode="Ẃ"/><glyph d="M1544 1704l-338 -408h-264l232 408h370zM1507 1126h465l-387 -1126h-627l39 825h-28l-252 -825h-625l10 1126h459l-90 -825h31l254 825h553l-37 -825h37z" glyph-name="wacute" horiz-adv-x="1867" unicode="ẃ"/><glyph d="M1102 1911l-51 -287h-328l51 287h328zM1587 1911l-51 -287h-328l52 287h327zM1575 1434h467l-469 -1434h-578l56 1085h-27l-326 -1085h-579l37 1434h462l-100 -1086h23l309 1086h493l-75 -1086h26z" glyph-name="Wdieresis" horiz-adv-x="1884" unicode="Ẅ"/><glyph d="M1047 1604l-52 -287h-327l51 287h328zM1532 1604l-51 -287h-328l51 287h328zM1507 1126h465l-387 -1126h-627l39 825h-28l-252 -825h-625l10 1126h459l-90 -825h31l254 825h553l-37 -825h37z" glyph-name="wdieresis" horiz-adv-x="1867" unicode="ẅ"/><glyph d="M1237 795l37 -41q141 -162 141 -301q0 -240 -140 -356.5t-386 -116.5q-129 0 -225 20l69 340q45 -6 88 -6q61 0 105.5 34.5t44.5 90.5q0 39 -33 63l-145 109l34 223l172 229q-29 10 -94 11q-147 0 -168 -117l-172 -977h-459l189 1065q41 231 173 310t460 79 q287 0 493 -86l-39 -315l-133 -197z" glyph-name="uni1E9E" horiz-adv-x="1472" unicode="ẞ"/><glyph d="M1272 0h-461v297h-338l-104 -297h-469l600 1434h676zM594 645h217l2 440h-63zM344 -432l49 287h328l-49 -287h-328z" glyph-name="uni1EA0" horiz-adv-x="1370" unicode="Ạ"/><glyph d="M780 1147q162 0 239 -65.5t77 -202.5q0 -57 -13 -131l-127 -728l-405 -34v129h-8q-86 -135 -275 -135q-281 0 -280 266q0 106 39 196t106 138q92 66 303 65h191l8 53q6 31 6 52q0 29 -12.5 39t-44.5 10q-86 0 -330 -60l-31 330q358 78 557 78zM414 287q0 -47 47 -47 q96 0 123 163l12 72h-43q-68 0 -92 -31q-18 -23 -32.5 -72.5t-14.5 -84.5zM248 -432l49 287h328l-50 -287h-327z" glyph-name="uni1EA1" horiz-adv-x="1132" unicode="ạ"/><glyph d="M911 1837q31 20 37 27q10 10 10 24q0 18 -43 19q-47 0 -124 -9l-13 162q88 12 180 13q123 0 176.5 -35t53.5 -109q0 -59 -19 -102q-16 -39 -51 -64l-94 -65q-61 -43 -76 -90h-172q14 96 32.5 137t55.5 63zM1272 0h-461v297h-338l-104 -297h-469l600 1434h676zM594 645 h217l2 440h-63z" glyph-name="uni1EA2" horiz-adv-x="1370" unicode="Ả"/><glyph d="M760 1530q31 20 37 26q10 10 10 25q0 18 -43 18q-47 0 -125 -8l-12 162q88 12 180 12q123 0 176 -34.5t53 -108.5q0 -59 -18 -102q-16 -39 -51 -64l-95 -65q-61 -43 -75 -91h-172q14 96 32.5 137.5t55.5 63.5zM780 1147q162 0 239 -65.5t77 -202.5q0 -57 -13 -131 l-127 -728l-405 -34v129h-8q-86 -135 -275 -135q-281 0 -280 266q0 106 39 196t106 138q92 66 303 65h191l8 53q6 31 6 52q0 29 -12.5 39t-44.5 10q-86 0 -330 -60l-31 330q358 78 557 78zM414 287q0 -47 47 -47q96 0 123 163l12 72h-43q-68 0 -92 -31q-18 -23 -32.5 -72.5 t-14.5 -84.5z" glyph-name="uni1EA3" horiz-adv-x="1132" unicode="ả"/><glyph d="M1493 2251h373l-336 -408h-266zM1122 2003l195 -408h-268l-142 215l-219 -215h-282l335 408h381zM1176 1434l96 -1434h-461v297h-338l-104 -297h-469l600 1434h676zM594 645h217l2 440h-63z" glyph-name="uni1EA4" horiz-adv-x="1370" unicode="Ấ"/><glyph d="M1341 1944h373l-336 -408h-266zM971 1696l194 -408h-268l-141 215l-219 -215h-283l336 408h381zM780 1147q162 0 239 -65.5t77 -202.5q0 -57 -13 -131l-127 -728l-405 -34v129h-8q-86 -135 -275 -135q-281 0 -280 266q0 106 39 196t106 138q92 66 303 65h191l8 53 q6 31 6 52q0 29 -12.5 39t-44.5 10q-86 0 -330 -60l-31 330q358 78 557 78zM414 287q0 -47 47 -47q96 0 123 163l12 72h-43q-68 0 -92 -31q-18 -23 -32.5 -72.5t-14.5 -84.5z" glyph-name="uni1EA5" horiz-adv-x="1132" unicode="ấ"/><glyph d="M1495 2251l84 -408h-246l-192 408h354zM1122 2003l195 -408h-268l-142 215l-219 -215h-282l335 408h381zM1176 1434l96 -1434h-461v297h-338l-104 -297h-469l600 1434h676zM594 645h217l2 440h-63z" glyph-name="uni1EA6" horiz-adv-x="1370" unicode="Ầ"/><glyph d="M1343 1944l84 -408h-245l-193 408h354zM971 1696l194 -408h-268l-141 215l-219 -215h-283l336 408h381zM780 1147q162 0 239 -65.5t77 -202.5q0 -57 -13 -131l-127 -728l-405 -34v129h-8q-86 -135 -275 -135q-281 0 -280 266q0 106 39 196t106 138q92 66 303 65h191l8 53 q6 31 6 52q0 29 -12.5 39t-44.5 10q-86 0 -330 -60l-31 330q358 78 557 78zM414 287q0 -47 47 -47q96 0 123 163l12 72h-43q-68 0 -92 -31q-18 -23 -32.5 -72.5t-14.5 -84.5z" glyph-name="uni1EA7" horiz-adv-x="1132" unicode="ầ"/><glyph d="M1456 2308q123 0 176.5 -35t53.5 -106q0 -49 -17 -103q-10 -35 -53 -65l-94 -66q-61 -43 -76 -90h-172q14 96 32.5 137t55.5 64l31 18q53 33 57 41q6 10 6 21q0 18 -43 18q-47 0 -125 -8l-12 162q88 12 180 12zM1122 2003l195 -408h-268l-142 215l-219 -215h-282l335 408 h381zM1176 1434l96 -1434h-461v297h-338l-104 -297h-469l600 1434h676zM594 645h217l2 440h-63z" glyph-name="uni1EA8" horiz-adv-x="1370" unicode="Ẩ"/><glyph d="M1305 2001q123 0 176 -35t53 -106q0 -49 -16 -103q-10 -35 -54 -65l-94 -66q-61 -43 -76 -90h-172q14 96 33 137t55 64l31 18q53 33 57 41q6 10 7 21q0 18 -43 18q-47 0 -125 -8l-13 162q89 12 181 12zM971 1696l194 -408h-268l-141 215l-219 -215h-283l336 408h381z M780 1147q162 0 239 -65.5t77 -202.5q0 -57 -13 -131l-127 -728l-405 -34v129h-8q-86 -135 -275 -135q-281 0 -280 266q0 106 39 196t106 138q92 66 303 65h191l8 53q6 31 6 52q0 29 -12.5 39t-44.5 10q-86 0 -330 -60l-31 330q358 78 557 78zM414 287q0 -47 47 -47 q96 0 123 163l12 72h-43q-68 0 -92 -31q-18 -23 -32.5 -72.5t-14.5 -84.5z" glyph-name="uni1EA9" horiz-adv-x="1132" unicode="ẩ"/><glyph d="M823 2187q-63 0 -92 -96h-168q27 150 110 240t197 90q80 0 152 -54l57 -43q33 -25 58 -24q49 0 86 96h166q-27 -162 -107 -245t-199 -83q-88 0 -145 50l-59 49q-23 20 -56 20zM1122 2003l195 -408h-268l-142 215l-219 -215h-282l335 408h381zM1176 1434l96 -1434h-461 v297h-338l-104 -297h-469l600 1434h676zM594 645h217l2 440h-63z" glyph-name="uni1EAA" horiz-adv-x="1370" unicode="Ẫ"/><glyph d="M672 1880q-63 0 -92 -96h-168q27 150 109.5 240t197.5 90q80 0 151 -54l58 -43q33 -25 57 -24q49 0 86 96h166q-27 -162 -106.5 -245t-198.5 -83q-88 0 -146 49l-59 50q-22 20 -55 20zM971 1696l194 -408h-268l-141 215l-219 -215h-283l336 408h381zM780 1147 q162 0 239 -65.5t77 -202.5q0 -57 -13 -131l-127 -728l-405 -34v129h-8q-86 -135 -275 -135q-281 0 -280 266q0 106 39 196t106 138q92 66 303 65h191l8 53q6 31 6 52q0 29 -12.5 39t-44.5 10q-86 0 -330 -60l-31 330q358 78 557 78zM414 287q0 -47 47 -47q96 0 123 163 l12 72h-43q-68 0 -92 -31q-18 -23 -32.5 -72.5t-14.5 -84.5z" glyph-name="uni1EAB" horiz-adv-x="1132" unicode="ẫ"/><glyph d="M907 1810l-219 -215h-282l335 408h381l195 -408h-268zM1176 1434l96 -1434h-461v297h-338l-104 -297h-469l600 1434h676zM594 645h217l2 440h-63zM344 -432l49 287h328l-49 -287h-328z" glyph-name="uni1EAC" horiz-adv-x="1370" unicode="Ậ"/><glyph d="M756 1503l-219 -215h-283l336 408h381l194 -408h-268zM780 1147q162 0 239 -65.5t77 -202.5q0 -57 -13 -131l-127 -728l-405 -34v129h-8q-86 -135 -275 -135q-281 0 -280 266q0 106 39 196t106 138q92 66 303 65h191l8 53q6 31 6 52q0 29 -12.5 39t-44.5 10 q-86 0 -330 -60l-31 330q358 78 557 78zM414 287q0 -47 47 -47q96 0 123 163l12 72h-43q-68 0 -92 -31q-18 -23 -32.5 -72.5t-14.5 -84.5zM248 -432l49 287h328l-50 -287h-327z" glyph-name="uni1EAD" horiz-adv-x="1132" unicode="ậ"/><glyph d="M1401 2396l-338 -407h-262l229 407h371zM1057 1921l2 8h225l-10 -59q-31 -176 -131.5 -243.5t-265.5 -67.5q-330 0 -330 247q0 41 10 97l6 26h225l-8 -41q-2 -10 -2 -26q0 -70 115 -70q82 0 114 26.5t50 102.5zM1176 1434l96 -1434h-461v297h-338l-104 -297h-469 l600 1434h676zM594 645h217l2 440h-63z" glyph-name="uni1EAE" horiz-adv-x="1370" unicode="Ắ"/><glyph d="M1249 2089l-338 -408h-262l230 408h370zM905 1614l2 8h226l-11 -59q-31 -176 -131 -244t-266 -68q-330 0 -330 248q0 41 11 96l6 27h225l-8 -41q-2 -10 -2 -27q0 -70 114 -69q82 0 114 26.5t50 102.5zM780 1147q162 0 239 -65.5t77 -202.5q0 -57 -13 -131l-127 -728 l-405 -34v129h-8q-86 -135 -275 -135q-281 0 -280 266q0 106 39 196t106 138q92 66 303 65h191l8 53q6 31 6 52q0 29 -12.5 39t-44.5 10q-86 0 -330 -60l-31 330q358 78 557 78zM414 287q0 -47 47 -47q96 0 123 163l12 72h-43q-68 0 -92 -31q-18 -23 -32.5 -72.5 t-14.5 -84.5z" glyph-name="uni1EAF" horiz-adv-x="1132" unicode="ắ"/><glyph d="M1061 1991h-248l-195 407h355zM1059 1929h225l-10 -59q-31 -176 -131.5 -243.5t-265.5 -67.5q-330 0 -330 247q0 41 10 97l6 26h225l-8 -41q-2 -10 -2 -26q0 -70 115 -70q82 0 113.5 26.5t50.5 102.5zM1176 1434l96 -1434h-461v297h-338l-104 -297h-469l600 1434h676z M594 645h217l2 440h-63z" glyph-name="uni1EB0" horiz-adv-x="1370" unicode="Ằ"/><glyph d="M909 1683h-247l-195 408h354zM907 1622h226l-11 -59q-31 -176 -131 -244t-266 -68q-330 0 -330 248q0 41 11 96l6 27h225l-8 -41q-2 -10 -2 -27q0 -70 114 -69q82 0 114 26.5t50 102.5zM780 1147q162 0 239 -65.5t77 -202.5q0 -57 -13 -131l-127 -728l-405 -34v129h-8 q-86 -135 -275 -135q-281 0 -280 266q0 106 39 196t106 138q92 66 303 65h191l8 53q6 31 6 52q0 29 -12.5 39t-44.5 10q-86 0 -330 -60l-31 330q358 78 557 78zM414 287q0 -47 47 -47q96 0 123 163l12 72h-43q-68 0 -92 -31q-18 -23 -32.5 -72.5t-14.5 -84.5z" glyph-name="uni1EB1" horiz-adv-x="1132" unicode="ằ"/><glyph d="M961 2175q53 33 57 41q6 8 6 20q0 18 -43 19q-47 0 -125 -8l-12 161q88 12 180 13q123 0 176 -35t53 -107q0 -49 -16 -102q-10 -35 -53 -66l-94 -65q-61 -43 -76 -90h-172q14 96 32.5 137t55.5 64zM1059 1929h225l-10 -59q-31 -176 -131.5 -243.5t-265.5 -67.5 q-330 0 -330 247q0 41 10 97l6 26h225l-8 -41q-2 -10 -2 -26q0 -70 115 -70q82 0 113.5 26.5t50.5 102.5zM1176 1434l96 -1434h-461v297h-338l-104 -297h-469l600 1434h676zM594 645h217l2 440h-63z" glyph-name="uni1EB2" horiz-adv-x="1370" unicode="Ẳ"/><glyph d="M809 1868q53 33 57 41q6 10 6 20q0 18 -43 19q-47 0 -124 -9l-13 162q88 12 180 13q123 0 176.5 -35t53.5 -107q0 -49 -17 -102q-10 -35 -53 -66l-94 -65q-61 -43 -76 -90h-172q14 96 32.5 137t55.5 63zM907 1622h226l-11 -59q-31 -176 -131 -244t-266 -68 q-330 0 -330 248q0 41 11 96l6 27h225l-8 -41q-2 -10 -2 -27q0 -70 114 -69q82 0 114 26.5t50 102.5zM780 1147q162 0 239 -65.5t77 -202.5q0 -57 -13 -131l-127 -728l-405 -34v129h-8q-86 -135 -275 -135q-281 0 -280 266q0 106 39 196t106 138q92 66 303 65h191l8 53 q6 31 6 52q0 29 -12.5 39t-44.5 10q-86 0 -330 -60l-31 330q358 78 557 78zM414 287q0 -47 47 -47q96 0 123 163l12 72h-43q-68 0 -92 -31q-18 -23 -32.5 -72.5t-14.5 -84.5z" glyph-name="uni1EB3" horiz-adv-x="1132" unicode="ẳ"/><glyph d="M825 2120q-63 0 -92 -97h-168q27 150 110 240t197 90q80 0 152 -53l57 -43q33 -25 58 -25q49 0 86 97h166q-27 -162 -107 -245t-199 -83q-88 0 -145 49l-59 49q-23 21 -56 21zM1057 1921l2 8h225l-10 -59q-31 -176 -131.5 -243.5t-265.5 -67.5q-330 0 -330 247 q0 41 10 97l6 26h225l-8 -41q-2 -10 -2 -26q0 -70 115 -70q82 0 114 26.5t50 102.5zM1176 1434l96 -1434h-461v297h-338l-104 -297h-469l600 1434h676zM594 645h217l2 440h-63z" glyph-name="uni1EB4" horiz-adv-x="1370" unicode="Ẵ"/><glyph d="M674 1812q-63 0 -92 -96h-168q27 150 109.5 240t197.5 90q80 0 151 -53l58 -43q33 -25 57 -25q49 0 86 96h166q-27 -162 -106.5 -244.5t-198.5 -82.5q-88 0 -146 49l-59 49q-22 20 -55 20zM905 1614l2 8h226l-11 -59q-31 -176 -131 -244t-266 -68q-330 0 -330 248 q0 41 11 96l6 27h225l-8 -41q-2 -10 -2 -27q0 -70 114 -69q82 0 114 26.5t50 102.5zM780 1147q162 0 239 -65.5t77 -202.5q0 -57 -13 -131l-127 -728l-405 -34v129h-8q-86 -135 -275 -135q-281 0 -280 266q0 106 39 196t106 138q92 66 303 65h191l8 53q6 31 6 52 q0 29 -12.5 39t-44.5 10q-86 0 -330 -60l-31 330q358 78 557 78zM414 287q0 -47 47 -47q96 0 123 163l12 72h-43q-68 0 -92 -31q-18 -23 -32.5 -72.5t-14.5 -84.5z" glyph-name="uni1EB5" horiz-adv-x="1132" unicode="ẵ"/><glyph d="M1059 1929h225l-10 -59q-31 -176 -131.5 -243.5t-265.5 -67.5q-330 0 -330 247q0 41 10 97l6 26h225l-8 -41q-2 -10 -2 -26q0 -70 115 -70q82 0 113.5 26.5t50.5 102.5zM1176 1434l96 -1434h-461v297h-338l-104 -297h-469l600 1434h676zM594 645h217l2 440h-63zM344 -432 l49 287h328l-49 -287h-328z" glyph-name="uni1EB6" horiz-adv-x="1370" unicode="Ặ"/><glyph d="M907 1622h226l-11 -59q-31 -176 -131 -244t-266 -68q-330 0 -330 248q0 41 11 96l6 27h225l-8 -41q-2 -10 -2 -27q0 -70 114 -69q82 0 114 26.5t50 102.5zM780 1147q162 0 239 -65.5t77 -202.5q0 -57 -13 -131l-127 -728l-405 -34v129h-8q-86 -135 -275 -135 q-281 0 -280 266q0 106 39 196t106 138q92 66 303 65h191l8 53q6 31 6 52q0 29 -12.5 39t-44.5 10q-86 0 -330 -60l-31 330q358 78 557 78zM414 287q0 -47 47 -47q96 0 123 163l12 72h-43q-68 0 -92 -31q-18 -23 -32.5 -72.5t-14.5 -84.5zM248 -432l49 287h328l-50 -287 h-327z" glyph-name="uni1EB7" horiz-adv-x="1132" unicode="ặ"/><glyph d="M1092 1085h-418l-29 -167h377l-61 -349h-377l-39 -221h442l-61 -348h-901l251 1434h877zM274 -432l50 287h327l-49 -287h-328z" glyph-name="uni1EB8" horiz-adv-x="1091" unicode="Ẹ"/><glyph d="M643 1147q225 0 328.5 -88t103.5 -281q0 -109 -41 -293l-8 -36h-573q-4 -49 -4 -66q0 -51 19 -69.5t77 -18.5q137 0 362 53l25 -303q-244 -66 -434 -65q-459 0 -459 454q0 188 67.5 360.5t174.5 254.5q124 98 362 98zM496 684h184q10 72 10 111q0 41 -13 56t-46 15 q-66 0 -94 -59q-25 -51 -41 -123zM207 -432l49 287h328l-49 -287h-328z" glyph-name="uni1EB9" horiz-adv-x="1095" unicode="ẹ"/><glyph d="M793 1837q31 20 36 27q10 10 11 24q0 18 -43 19q-47 0 -125 -9l-13 162q88 12 181 13q125 0 177 -35t52 -109q0 -59 -18 -102q-16 -39 -52 -64l-94 -65q-61 -43 -76 -90h-172q14 96 33 137t55 63zM1092 1085h-418l-29 -167h377l-61 -349h-377l-39 -221h442l-61 -348h-901 l251 1434h877z" glyph-name="uni1EBA" horiz-adv-x="1091" unicode="Ẻ"/><glyph d="M733 1530q31 20 37 26q10 10 10 25q0 18 -43 18q-47 0 -125 -8l-12 162q88 12 180 12q125 0 177.5 -34.5t52.5 -108.5q0 -59 -19 -102q-16 -39 -51 -64l-94 -65q-61 -43 -76 -91h-172q14 96 32.5 137.5t55.5 63.5zM643 1147q225 0 328.5 -88t103.5 -281q0 -109 -41 -293 l-8 -36h-573q-4 -49 -4 -66q0 -51 19 -69.5t77 -18.5q137 0 362 53l25 -303q-244 -66 -434 -65q-459 0 -459 454q0 188 67.5 360.5t174.5 254.5q124 98 362 98zM496 684h184q10 72 10 111q0 41 -13 56t-46 15q-66 0 -94 -59q-25 -51 -41 -123z" glyph-name="uni1EBB" horiz-adv-x="1095" unicode="ẻ"/><glyph d="M629 1696q-63 0 -92 -97h-168q27 150 109.5 240t197.5 90q80 0 151 -53l58 -43q33 -25 57 -25q49 0 86 97h166q-27 -162 -106.5 -245t-198.5 -83q-88 0 -146 49l-59 49q-22 21 -55 21zM1153 1434l-61 -349h-418l-29 -167h377l-61 -349h-377l-39 -221h442l-61 -348h-901 l251 1434h877z" glyph-name="uni1EBC" horiz-adv-x="1091" unicode="Ẽ"/><glyph d="M569 1389q-63 0 -92 -97h-168q27 150 110 240t197 90q80 0 152 -53l57 -43q33 -25 58 -25q49 0 86 96h166q-27 -162 -107 -244.5t-199 -82.5q-88 0 -145 49l-59 49q-23 21 -56 21zM643 1147q225 0 328.5 -88t103.5 -281q0 -109 -41 -293l-8 -36h-573q-4 -49 -4 -66 q0 -51 19 -69.5t77 -18.5q137 0 362 53l25 -303q-244 -66 -434 -65q-459 0 -459 454q0 188 67.5 360.5t174.5 254.5q124 98 362 98zM496 684h184q10 72 10 111q0 41 -13 56t-46 15q-66 0 -94 -59q-25 -51 -41 -123z" glyph-name="uni1EBD" horiz-adv-x="1095" unicode="ẽ"/><glyph d="M1374 2251h373l-336 -408h-266zM1004 2003l194 -408h-268l-142 215l-219 -215h-282l336 408h381zM1153 1434l-61 -349h-418l-29 -167h377l-61 -349h-377l-39 -221h442l-61 -348h-901l251 1434h877z" glyph-name="uni1EBE" horiz-adv-x="1091" unicode="Ế"/><glyph d="M1315 1944h373l-336 -408h-267zM944 1696l195 -408h-269l-141 215l-219 -215h-283l336 408h381zM643 1147q225 0 328.5 -88t103.5 -281q0 -109 -41 -293l-8 -36h-573q-4 -49 -4 -66q0 -51 19 -69.5t77 -18.5q137 0 362 53l25 -303q-244 -66 -434 -65q-459 0 -459 454 q0 188 67.5 360.5t174.5 254.5q124 98 362 98zM496 684h184q10 72 10 111q0 41 -13 56t-46 15q-66 0 -94 -59q-25 -51 -41 -123z" glyph-name="uni1EBF" horiz-adv-x="1095" unicode="ế"/><glyph d="M1376 2251l84 -408h-246l-192 408h354zM1004 2003l194 -408h-268l-142 215l-219 -215h-282l336 408h381zM1153 1434l-61 -349h-418l-29 -167h377l-61 -349h-377l-39 -221h442l-61 -348h-901l251 1434h877z" glyph-name="uni1EC0" horiz-adv-x="1091" unicode="Ề"/><glyph d="M1317 1944l84 -408h-246l-192 408h354zM944 1696l195 -408h-269l-141 215l-219 -215h-283l336 408h381zM643 1147q225 0 328.5 -88t103.5 -281q0 -109 -41 -293l-8 -36h-573q-4 -49 -4 -66q0 -51 19 -69.5t77 -18.5q137 0 362 53l25 -303q-244 -66 -434 -65 q-459 0 -459 454q0 188 67.5 360.5t174.5 254.5q124 98 362 98zM496 684h184q10 72 10 111q0 41 -13 56t-46 15q-66 0 -94 -59q-25 -51 -41 -123z" glyph-name="uni1EC1" horiz-adv-x="1095" unicode="ề"/><glyph d="M1337 2308q123 0 176.5 -35t53.5 -106q0 -49 -17 -103q-10 -35 -53 -65l-94 -66q-61 -43 -76 -90h-172q14 96 32.5 137t55.5 64l31 18q53 33 57 41q6 10 6 21q0 18 -43 18q-47 0 -125 -8l-12 162q88 12 180 12zM1004 2003l194 -408h-268l-142 215l-219 -215h-282l336 408 h381zM1153 1434l-61 -349h-418l-29 -167h377l-61 -349h-377l-39 -221h442l-61 -348h-901l251 1434h877z" glyph-name="uni1EC2" horiz-adv-x="1091" unicode="Ể"/><glyph d="M1278 2001q123 0 176 -35t53 -106q0 -49 -16 -103q-10 -35 -53 -65l-95 -66q-61 -43 -75 -90h-172q14 96 32.5 137t55.5 64l30 18q53 33 58 41q6 10 6 21q0 18 -43 18q-47 0 -125 -8l-12 162q88 12 180 12zM944 1696l195 -408h-269l-141 215l-219 -215h-283l336 408h381z M643 1147q225 0 328.5 -88t103.5 -281q0 -109 -41 -293l-8 -36h-573q-4 -49 -4 -66q0 -51 19 -69.5t77 -18.5q137 0 362 53l25 -303q-244 -66 -434 -65q-459 0 -459 454q0 188 67.5 360.5t174.5 254.5q124 98 362 98zM496 684h184q10 72 10 111q0 41 -13 56t-46 15 q-66 0 -94 -59q-25 -51 -41 -123z" glyph-name="uni1EC3" horiz-adv-x="1095" unicode="ể"/><glyph d="M705 2187q-63 0 -93 -96h-168q27 150 110 240t198 90q80 0 151 -54l58 -43q33 -25 57 -24q49 0 86 96h166q-27 -162 -107 -245t-198 -83q-88 0 -146 50l-59 49q-22 20 -55 20zM1004 2003l194 -408h-268l-142 215l-219 -215h-282l336 408h381zM1153 1434l-61 -349h-418 l-29 -167h377l-61 -349h-377l-39 -221h442l-61 -348h-901l251 1434h877z" glyph-name="uni1EC4" horiz-adv-x="1091" unicode="Ễ"/><glyph d="M645 1880q-63 0 -92 -96h-168q27 150 110 240t197 90q80 0 152 -54l57 -43q33 -25 57 -24q49 0 86 96h166q-27 -162 -106.5 -245t-198.5 -83q-88 0 -145 49l-60 50q-22 20 -55 20zM944 1696l195 -408h-269l-141 215l-219 -215h-283l336 408h381zM643 1147 q225 0 328.5 -88t103.5 -281q0 -109 -41 -293l-8 -36h-573q-4 -49 -4 -66q0 -51 19 -69.5t77 -18.5q137 0 362 53l25 -303q-244 -66 -434 -65q-459 0 -459 454q0 188 67.5 360.5t174.5 254.5q124 98 362 98zM496 684h184q10 72 10 111q0 41 -13 56t-46 15q-66 0 -94 -59 q-25 -51 -41 -123z" glyph-name="uni1EC5" horiz-adv-x="1095" unicode="ễ"/><glyph d="M788 1810l-219 -215h-282l336 408h381l194 -408h-268zM1153 1434l-61 -349h-418l-29 -167h377l-61 -349h-377l-39 -221h442l-61 -348h-901l251 1434h877zM274 -432l50 287h327l-49 -287h-328z" glyph-name="uni1EC6" horiz-adv-x="1091" unicode="Ệ"/><glyph d="M729 1503l-219 -215h-283l336 408h381l195 -408h-269zM643 1147q225 0 328.5 -88t103.5 -281q0 -109 -41 -293l-8 -36h-573q-4 -49 -4 -66q0 -51 19 -69.5t77 -18.5q137 0 362 53l25 -303q-244 -66 -434 -65q-459 0 -459 454q0 188 67.5 360.5t174.5 254.5q124 98 362 98 zM496 684h184q10 72 10 111q0 41 -13 56t-46 15q-66 0 -94 -59q-25 -51 -41 -123zM207 -432l49 287h328l-49 -287h-328z" glyph-name="uni1EC7" horiz-adv-x="1095" unicode="ệ"/><glyph d="M449 1608q14 96 32.5 137t55.5 63l47 29q31 20 37 27q10 10 10 24q0 18 -43 19q-47 0 -125 -9l-12 162q88 12 180 13q125 0 177 -35t52 -109q0 -59 -18 -102q-16 -39 -51 -64l-95 -65q-61 -43 -75 -90h-172zM737 1434l-252 -1434h-458l252 1434h458z" glyph-name="uni1EC8" horiz-adv-x="704" unicode="Ỉ"/><glyph d="M356 1300q14 96 33 137.5t55 63.5l48 29q31 20 36 26q10 10 11 25q0 18 -43 18q-47 0 -125 -8l-13 162q88 12 181 12q125 0 177 -34.5t52 -108.5q0 -59 -18 -102q-16 -39 -52 -64l-94 -65q-61 -43 -76 -91h-172zM635 1126l-199 -1126h-440l199 1126h440z" glyph-name="uni1EC9" horiz-adv-x="628" unicode="ỉ"/><glyph d="M737 1434l-252 -1434h-458l252 1434h458zM63 -145h328l-49 -287h-328z" glyph-name="uni1ECA" horiz-adv-x="704" unicode="Ị"/><glyph d="M260 1569h467l-57 -332h-467zM635 1126l-199 -1126h-440l199 1126h440zM20 -145h328l-49 -287h-328z" glyph-name="uni1ECB" horiz-adv-x="628" unicode="ị"/><glyph d="M645 -20q-297 0 -430 122.5t-133 403.5q0 248 87 484.5t220 342.5q150 121 447 121t430 -122t133 -398q0 -246 -86 -484.5t-217 -347.5q-148 -122 -451 -122zM676 350q90 0 127 49q43 55 86 234.5t43 302.5q0 82 -27.5 114.5t-97.5 32.5q-90 0 -127 -47q-45 -55 -88 -233 t-43 -301q0 -86 28.5 -119t98.5 -33zM422 -145h328l-50 -287h-327z" glyph-name="uni1ECC" horiz-adv-x="1419" unicode="Ọ"/><glyph d="M528 -20q-252 0 -373.5 101t-121.5 310q0 199 70.5 383t179.5 270q131 102 372 103q254 0 375 -104.5t121 -327.5q0 -176 -64.5 -351.5t-162.5 -263.5q-138 -120 -396 -120zM545 301q63 0 94 82q23 57 43 166.5t20 181.5q0 53 -14 73.5t-49 20.5q-55 0 -82 -55 q-25 -53 -49.5 -182t-24.5 -201q0 -45 13.5 -65.5t48.5 -20.5zM303 -145h328l-49 -287h-328z" glyph-name="uni1ECD" horiz-adv-x="1179" unicode="ọ"/><glyph d="M805 1608q14 96 32.5 137t55.5 63l47 29q31 20 37 27q10 10 10 24q0 18 -43 19q-47 0 -125 -9l-12 162q88 12 180 13q123 0 176.5 -35t53.5 -109q0 -59 -19 -102q-16 -39 -51 -64l-94 -65q-61 -43 -76 -90h-172zM645 -20q-297 0 -430 122.5t-133 403.5q0 248 87 484.5 t220 342.5q150 121 447 121t430 -122t133 -398q0 -246 -86 -484.5t-217 -347.5q-148 -122 -451 -122zM676 350q90 0 127 49q43 55 86 234.5t43 302.5q0 82 -27.5 114.5t-97.5 32.5q-90 0 -127 -47q-45 -55 -88 -233t-43 -301q0 -86 28.5 -119t98.5 -33z" glyph-name="uni1ECE" horiz-adv-x="1419" unicode="Ỏ"/><glyph d="M633 1300q14 96 32.5 137.5t55.5 63.5l47 29q31 20 37 26q10 10 10 25q0 18 -43 18q-47 0 -125 -8l-12 162q88 12 180 12q125 0 177 -34.5t52 -108.5q0 -59 -18 -102q-16 -39 -51 -64l-94 -65q-61 -43 -76 -91h-172zM528 -20q-252 0 -373.5 101t-121.5 310 q0 199 70.5 383t179.5 270q131 102 372 103q254 0 375 -104.5t121 -327.5q0 -176 -64.5 -351.5t-162.5 -263.5q-138 -120 -396 -120zM545 301q63 0 94 82q23 57 43 166.5t20 181.5q0 53 -14 73.5t-49 20.5q-55 0 -82 -55q-25 -53 -49.5 -182t-24.5 -201q0 -45 13.5 -65.5 t48.5 -20.5z" glyph-name="uni1ECF" horiz-adv-x="1179" unicode="ỏ"/><glyph d="M1522 2251h372l-335 -408h-267zM936 1810l-219 -215h-283l336 408h381l195 -408h-269zM836 1454q297 0 430 -122t133 -398q0 -246 -86 -484.5t-217 -347.5q-147 -123 -451 -122q-297 0 -430 122.5t-133 403.5q0 248 87 484.5t220 342.5q150 121 447 121zM803 399 q43 55 86 234.5t43 302.5q0 82 -27.5 114.5t-97.5 32.5q-90 0 -127 -47q-45 -55 -88 -233t-43 -301q0 -86 28.5 -119t98.5 -33q90 0 127 49z" glyph-name="uni1ED0" horiz-adv-x="1419" unicode="Ố"/><glyph d="M1350 1944h372l-336 -408h-266zM979 1696l195 -408h-269l-141 215l-219 -215h-283l336 408h381zM655 1147q254 0 375 -104.5t121 -327.5q0 -176 -64.5 -351.5t-162.5 -263.5q-137 -121 -396 -120q-252 0 -373.5 101t-121.5 310q0 199 70.5 383t179.5 270q130 103 372 103 zM639 383q23 57 43 166.5t20 181.5q0 53 -14 73.5t-49 20.5q-55 0 -82 -55q-25 -53 -49.5 -182t-24.5 -201q0 -45 13.5 -65.5t48.5 -20.5q63 0 94 82z" glyph-name="uni1ED1" horiz-adv-x="1179" unicode="ố"/><glyph d="M1608 1843h-246l-193 408h355zM936 1810l-219 -215h-283l336 408h381l195 -408h-269zM836 1454q297 0 430 -122t133 -398q0 -246 -86 -484.5t-217 -347.5q-147 -123 -451 -122q-297 0 -430 122.5t-133 403.5q0 248 87 484.5t220 342.5q150 121 447 121zM803 399 q43 55 86 234.5t43 302.5q0 82 -27.5 114.5t-97.5 32.5q-90 0 -127 -47q-45 -55 -88 -233t-43 -301q0 -86 28.5 -119t98.5 -33q90 0 127 49z" glyph-name="uni1ED2" horiz-adv-x="1419" unicode="Ồ"/><glyph d="M1352 1944l84 -408h-246l-193 408h355zM979 1696l195 -408h-269l-141 215l-219 -215h-283l336 408h381zM655 1147q254 0 375 -104.5t121 -327.5q0 -176 -64.5 -351.5t-162.5 -263.5q-137 -121 -396 -120q-252 0 -373.5 101t-121.5 310q0 199 70.5 383t179.5 270 q130 103 372 103zM639 383q23 57 43 166.5t20 181.5q0 53 -14 73.5t-49 20.5q-55 0 -82 -55q-25 -53 -49.5 -182t-24.5 -201q0 -45 13.5 -65.5t48.5 -20.5q63 0 94 82z" glyph-name="uni1ED3" horiz-adv-x="1179" unicode="ồ"/><glyph d="M1485 2308q123 0 176 -35t53 -106q0 -49 -16 -103q-10 -35 -53 -65l-95 -66q-61 -43 -75 -90h-172q14 96 32.5 137t55.5 64l30 18q53 33 58 41q6 10 6 21q0 18 -43 18q-47 0 -125 -8l-12 162q88 12 180 12zM936 1810l-219 -215h-283l336 408h381l195 -408h-269zM836 1454 q297 0 430 -122t133 -398q0 -246 -86 -484.5t-217 -347.5q-147 -123 -451 -122q-297 0 -430 122.5t-133 403.5q0 248 87 484.5t220 342.5q150 121 447 121zM803 399q43 55 86 234.5t43 302.5q0 82 -27.5 114.5t-97.5 32.5q-90 0 -127 -47q-45 -55 -88 -233t-43 -301 q0 -86 28.5 -119t98.5 -33q90 0 127 49z" glyph-name="uni1ED4" horiz-adv-x="1419" unicode="Ổ"/><glyph d="M1313 2001q123 0 176 -35t53 -106q0 -49 -16 -103q-10 -35 -53 -65l-95 -66q-61 -43 -75 -90h-173q14 96 33 137t56 64l30 18q53 33 58 41q6 10 6 21q0 18 -43 18q-47 0 -125 -8l-12 162q88 12 180 12zM979 1696l195 -408h-269l-141 215l-219 -215h-283l336 408h381z M655 1147q254 0 375 -104.5t121 -327.5q0 -176 -64.5 -351.5t-162.5 -263.5q-137 -121 -396 -120q-252 0 -373.5 101t-121.5 310q0 199 70.5 383t179.5 270q130 103 372 103zM639 383q23 57 43 166.5t20 181.5q0 53 -14 73.5t-49 20.5q-55 0 -82 -55q-25 -53 -49.5 -182 t-24.5 -201q0 -45 13.5 -65.5t48.5 -20.5q63 0 94 82z" glyph-name="uni1ED5" horiz-adv-x="1179" unicode="ổ"/><glyph d="M852 2187q-63 0 -92 -96h-168q27 150 109.5 240t197.5 90q80 0 152 -54l57 -43q33 -25 57 -24q49 0 86 96h166q-27 -162 -106.5 -245t-198.5 -83q-88 0 -145 50l-60 49q-22 20 -55 20zM936 1810l-219 -215h-283l336 408h381l195 -408h-269zM836 1454q297 0 430 -122 t133 -398q0 -246 -86 -484.5t-217 -347.5q-147 -123 -451 -122q-297 0 -430 122.5t-133 403.5q0 248 87 484.5t220 342.5q150 121 447 121zM803 399q43 55 86 234.5t43 302.5q0 82 -27.5 114.5t-97.5 32.5q-90 0 -127 -47q-45 -55 -88 -233t-43 -301q0 -86 28.5 -119 t98.5 -33q90 0 127 49z" glyph-name="uni1ED6" horiz-adv-x="1419" unicode="Ỗ"/><glyph d="M680 1880q-63 0 -92 -96h-168q27 150 109.5 240t197.5 90q80 0 152 -54l57 -43q33 -25 57 -24q49 0 86 96h166q-27 -162 -106.5 -245t-198.5 -83q-88 0 -145 49l-60 50q-22 20 -55 20zM979 1696l195 -408h-269l-141 215l-219 -215h-283l336 408h381zM655 1147 q254 0 375 -104.5t121 -327.5q0 -176 -64.5 -351.5t-162.5 -263.5q-137 -121 -396 -120q-252 0 -373.5 101t-121.5 310q0 199 70.5 383t179.5 270q130 103 372 103zM639 383q23 57 43 166.5t20 181.5q0 53 -14 73.5t-49 20.5q-55 0 -82 -55q-25 -53 -49.5 -182t-24.5 -201 q0 -45 13.5 -65.5t48.5 -20.5q63 0 94 82z" glyph-name="uni1ED7" horiz-adv-x="1179" unicode="ỗ"/><glyph d="M936 1810l-219 -215h-283l336 408h381l195 -408h-269zM836 1454q297 0 430 -122t133 -398q0 -246 -86 -484.5t-217 -347.5q-147 -123 -451 -122q-297 0 -430 122.5t-133 403.5q0 248 87 484.5t220 342.5q150 121 447 121zM803 399q43 55 86 234.5t43 302.5 q0 82 -27.5 114.5t-97.5 32.5q-90 0 -127 -47q-45 -55 -88 -233t-43 -301q0 -86 28.5 -119t98.5 -33q90 0 127 49zM373 -432l49 287h328l-50 -287h-327z" glyph-name="uni1ED8" horiz-adv-x="1419" unicode="Ộ"/><glyph d="M764 1503l-219 -215h-283l336 408h381l195 -408h-269zM655 1147q254 0 375 -104.5t121 -327.5q0 -176 -64.5 -351.5t-162.5 -263.5q-137 -121 -396 -120q-252 0 -373.5 101t-121.5 310q0 199 70.5 383t179.5 270q130 103 372 103zM639 383q23 57 43 166.5t20 181.5 q0 53 -14 73.5t-49 20.5q-55 0 -82 -55q-25 -53 -49.5 -182t-24.5 -201q0 -45 13.5 -65.5t48.5 -20.5q63 0 94 82zM254 -432l49 287h328l-49 -287h-328z" glyph-name="uni1ED9" horiz-adv-x="1179" unicode="ộ"/><glyph d="M1368 2011l-338 -407h-264l231 407h371zM1466 1694h226l-43 -244q-27 -147 -88.5 -207.5t-192.5 -73.5q31 -98 31 -235q0 -246 -86 -484.5t-217 -347.5q-147 -123 -451 -122q-297 0 -430 122.5t-133 403.5q0 248 87 484.5t220 342.5q150 121 447 121q272 0 407 -102 q164 0 187 131zM803 399q43 55 86 234.5t43 302.5q0 82 -27.5 114.5t-97.5 32.5q-90 0 -127 -47q-45 -55 -88 -233t-43 -301q0 -86 28.5 -119t98.5 -33q90 0 127 49z" glyph-name="uni1EDA" horiz-adv-x="1419" unicode="Ớ"/><glyph d="M1196 1704l-338 -408h-264l231 408h371zM1239 1370h225l-43 -244q-27 -147 -89 -207.5t-193 -72.5q12 -61 12 -131q0 -176 -64.5 -351.5t-162.5 -263.5q-137 -121 -396 -120q-252 0 -373.5 101t-121.5 310q0 199 70.5 383t179.5 270q131 102 372 103q266 0 389 -117 q137 8 158 129zM639 383q23 57 43 166.5t20 181.5q0 53 -14 73.5t-49 20.5q-55 0 -82 -55q-25 -53 -49.5 -182t-24.5 -201q0 -45 13.5 -65.5t48.5 -20.5q63 0 94 82z" glyph-name="uni1EDB" horiz-adv-x="1179" unicode="ớ"/><glyph d="M1006 1604h-248l-195 407h355zM1466 1694h226l-43 -244q-27 -147 -88.5 -207.5t-192.5 -73.5q31 -98 31 -235q0 -246 -86 -484.5t-217 -347.5q-147 -123 -451 -122q-297 0 -430 122.5t-133 403.5q0 248 87 484.5t220 342.5q150 121 447 121q272 0 407 -102q164 0 187 131 zM803 399q43 55 86 234.5t43 302.5q0 82 -27.5 114.5t-97.5 32.5q-90 0 -127 -47q-45 -55 -88 -233t-43 -301q0 -86 28.5 -119t98.5 -33q90 0 127 49z" glyph-name="uni1EDC" horiz-adv-x="1419" unicode="Ờ"/><glyph d="M834 1296h-248l-195 408h354zM1239 1370h225l-43 -244q-27 -147 -89 -207.5t-193 -72.5q12 -61 12 -131q0 -176 -64.5 -351.5t-162.5 -263.5q-137 -121 -396 -120q-252 0 -373.5 101t-121.5 310q0 199 70.5 383t179.5 270q131 102 372 103q266 0 389 -117q137 8 158 129z M639 383q23 57 43 166.5t20 181.5q0 53 -14 73.5t-49 20.5q-55 0 -82 -55q-25 -53 -49.5 -182t-24.5 -201q0 -45 13.5 -65.5t48.5 -20.5q63 0 94 82z" glyph-name="uni1EDD" horiz-adv-x="1179" unicode="ờ"/><glyph d="M940 1837q31 20 37 27q10 10 10 24q0 18 -43 19q-47 0 -125 -9l-12 162q88 12 180 13q123 0 176.5 -35t53.5 -109q0 -59 -19 -102q-16 -39 -51 -64l-94 -65q-61 -43 -76 -90h-172q14 96 32.5 137t55.5 63zM1466 1694h226l-43 -244q-27 -147 -88.5 -207.5t-192.5 -73.5 q31 -98 31 -235q0 -246 -86 -484.5t-217 -347.5q-147 -123 -451 -122q-297 0 -430 122.5t-133 403.5q0 248 87 484.5t220 342.5q150 121 447 121q272 0 407 -102q164 0 187 131zM803 399q43 55 86 234.5t43 302.5q0 82 -27.5 114.5t-97.5 32.5q-90 0 -127 -47 q-45 -55 -88 -233t-43 -301q0 -86 28.5 -119t98.5 -33q90 0 127 49z" glyph-name="uni1EDE" horiz-adv-x="1419" unicode="Ở"/><glyph d="M768 1530q31 20 37 26q10 10 10 25q0 18 -43 18q-47 0 -125 -8l-12 162q88 12 180 12q125 0 177 -34.5t52 -108.5q0 -59 -18 -102q-16 -39 -51 -64l-94 -65q-61 -43 -76 -91h-172q14 96 32.5 137.5t55.5 63.5zM1239 1370h225l-43 -244q-27 -147 -89 -207.5t-193 -72.5 q12 -61 12 -131q0 -176 -64.5 -351.5t-162.5 -263.5q-137 -121 -396 -120q-252 0 -373.5 101t-121.5 310q0 199 70.5 383t179.5 270q131 102 372 103q266 0 389 -117q137 8 158 129zM639 383q23 57 43 166.5t20 181.5q0 53 -14 73.5t-49 20.5q-55 0 -82 -55 q-25 -53 -49.5 -182t-24.5 -201q0 -45 13.5 -65.5t48.5 -20.5q63 0 94 82z" glyph-name="uni1EDF" horiz-adv-x="1179" unicode="ở"/><glyph d="M776 1696q-63 0 -92 -97h-168q27 150 110 240t197 90q80 0 152 -53l57 -43q33 -25 58 -25q49 0 86 97h165q-27 -162 -106.5 -245t-198.5 -83q-88 0 -145 49l-60 49q-22 21 -55 21zM1466 1694h226l-43 -244q-27 -147 -88.5 -207.5t-192.5 -73.5q31 -98 31 -235 q0 -246 -86 -484.5t-217 -347.5q-147 -123 -451 -122q-297 0 -430 122.5t-133 403.5q0 248 87 484.5t220 342.5q150 121 447 121q272 0 407 -102q164 0 187 131zM803 399q43 55 86 234.5t43 302.5q0 82 -27.5 114.5t-97.5 32.5q-90 0 -127 -47q-45 -55 -88 -233t-43 -301 q0 -86 28.5 -119t98.5 -33q90 0 127 49z" glyph-name="uni1EE0" horiz-adv-x="1419" unicode="Ỡ"/><glyph d="M604 1389q-63 0 -92 -97h-168q27 150 110 240t197 90q80 0 152 -53l57 -43q33 -25 58 -25q49 0 86 96h165q-27 -162 -106.5 -244.5t-198.5 -82.5q-88 0 -145 49l-60 49q-22 21 -55 21zM1239 1370h225l-43 -244q-27 -147 -89 -207.5t-193 -72.5q12 -61 12 -131 q0 -176 -64.5 -351.5t-162.5 -263.5q-137 -121 -396 -120q-252 0 -373.5 101t-121.5 310q0 199 70.5 383t179.5 270q131 102 372 103q266 0 389 -117q137 8 158 129zM639 383q23 57 43 166.5t20 181.5q0 53 -14 73.5t-49 20.5q-55 0 -82 -55q-25 -53 -49.5 -182t-24.5 -201 q0 -45 13.5 -65.5t48.5 -20.5q63 0 94 82z" glyph-name="uni1EE1" horiz-adv-x="1179" unicode="ỡ"/><glyph d="M1466 1694h226l-43 -244q-27 -147 -88.5 -207.5t-192.5 -73.5q31 -98 31 -235q0 -246 -86 -484.5t-217 -347.5q-147 -123 -451 -122q-297 0 -430 122.5t-133 403.5q0 248 87 484.5t220 342.5q150 121 447 121q272 0 407 -102q164 0 187 131zM803 399q43 55 86 234.5 t43 302.5q0 82 -27.5 114.5t-97.5 32.5q-90 0 -127 -47q-45 -55 -88 -233t-43 -301q0 -86 28.5 -119t98.5 -33q90 0 127 49zM373 -432l49 287h328l-50 -287h-327z" glyph-name="uni1EE2" horiz-adv-x="1419" unicode="Ợ"/><glyph d="M1239 1370h225l-43 -244q-27 -147 -89 -207.5t-193 -72.5q12 -61 12 -131q0 -176 -64.5 -351.5t-162.5 -263.5q-137 -121 -396 -120q-252 0 -373.5 101t-121.5 310q0 199 70.5 383t179.5 270q131 102 372 103q266 0 389 -117q137 8 158 129zM639 383q23 57 43 166.5 t20 181.5q0 53 -14 73.5t-49 20.5q-55 0 -82 -55q-25 -53 -49.5 -182t-24.5 -201q0 -45 13.5 -65.5t48.5 -20.5q63 0 94 82zM254 -432l49 287h328l-49 -287h-328z" glyph-name="uni1EE3" horiz-adv-x="1179" unicode="ợ"/><glyph d="M606 -20q-285 0 -406.5 100t-121.5 289q0 88 20 211l150 854h459l-166 -951q-6 -29 -6 -53q0 -80 94 -80q63 0 94 34t47 132l162 918h459l-162 -924q-53 -303 -205 -416.5t-418 -113.5zM379 -145h328l-50 -287h-327z" glyph-name="uni1EE4" horiz-adv-x="1329" unicode="Ụ"/><glyph d="M784 1126h441l-195 -1106l-407 -34l2 129h-11q-88 -135 -284 -135q-154 0 -220.5 63t-66.5 199q0 78 18 178l125 706h443l-125 -708q-6 -31 -6 -53q0 -63 55 -64q90 0 111 127zM238 -432l49 287h327l-49 -287h-327z" glyph-name="uni1EE5" horiz-adv-x="1222" unicode="ụ"/><glyph d="M762 1608q14 96 32.5 137t55.5 63l47 29q31 20 37 27q10 10 10 24q0 18 -43 19q-47 0 -125 -9l-12 162q88 12 180 13q125 0 177.5 -35t52.5 -109q0 -59 -19 -102q-16 -39 -51 -64l-94 -65q-61 -43 -76 -90h-172zM606 -20q-285 0 -406.5 100t-121.5 289q0 88 20 211 l150 854h459l-166 -951q-6 -29 -6 -53q0 -80 94 -80q63 0 94 34t47 132l162 918h459l-162 -924q-53 -303 -205 -416.5t-418 -113.5z" glyph-name="uni1EE6" horiz-adv-x="1329" unicode="Ủ"/><glyph d="M786 1530q31 20 37 26q10 10 11 25q0 18 -43 18q-47 0 -125 -8l-13 162q88 12 181 12q125 0 177 -34.5t52 -108.5q0 -59 -19 -102q-16 -39 -51 -64l-94 -65q-61 -43 -76 -91h-172q14 96 32.5 137.5t55.5 63.5zM784 1126h441l-195 -1106l-407 -34l2 129h-11 q-88 -135 -284 -135q-154 0 -220.5 63t-66.5 199q0 78 18 178l125 706h443l-125 -708q-6 -31 -6 -53q0 -63 55 -64q90 0 111 127z" glyph-name="uni1EE7" horiz-adv-x="1222" unicode="ủ"/><glyph d="M1325 2011l-338 -407h-264l231 407h371zM1518 1776h225l-43 -244q-29 -162 -102.5 -220.5t-239.5 -64.5l-129 -737q-53 -303 -205 -416.5t-418 -113.5q-285 0 -406.5 100t-121.5 289q0 88 20 211l150 854h459l-166 -951q-6 -29 -6 -53q0 -80 94 -80q63 0 94 34t47 132 l162 918h360q166 0 189 131z" glyph-name="uni1EE8" horiz-adv-x="1329" unicode="Ứ"/><glyph d="M1214 1704l-337 -408h-265l232 408h370zM1337 1468h226l-43 -243q-29 -158 -99.5 -217.5t-228.5 -67.5l-162 -920l-407 -34l2 129h-11q-88 -135 -284 -135q-154 0 -220.5 63t-66.5 199q0 78 18 178l125 706h443l-125 -708q-6 -31 -6 -53q0 -63 55 -64q90 0 111 127 l120 698h328q166 0 188 131z" glyph-name="uni1EE9" horiz-adv-x="1222" unicode="ứ"/><glyph d="M963 1604h-248l-195 407h354zM1518 1776h225l-43 -244q-29 -162 -102.5 -220.5t-239.5 -64.5l-129 -737q-53 -303 -205 -416.5t-418 -113.5q-285 0 -406.5 100t-121.5 289q0 88 20 211l150 854h459l-166 -951q-6 -29 -6 -53q0 -80 94 -80q63 0 94 34t47 132l162 918h360 q166 0 189 131z" glyph-name="uni1EEA" horiz-adv-x="1329" unicode="Ừ"/><glyph d="M852 1296h-248l-194 408h354zM1337 1468h226l-43 -243q-29 -158 -99.5 -217.5t-228.5 -67.5l-162 -920l-407 -34l2 129h-11q-88 -135 -284 -135q-154 0 -220.5 63t-66.5 199q0 78 18 178l125 706h443l-125 -708q-6 -31 -6 -53q0 -63 55 -64q90 0 111 127l120 698h328 q166 0 188 131z" glyph-name="uni1EEB" horiz-adv-x="1222" unicode="ừ"/><glyph d="M897 1837q31 20 37 27q10 10 10 24q0 18 -43 19q-47 0 -125 -9l-12 162q88 12 180 13q125 0 177.5 -35t52.5 -109q0 -59 -19 -102q-16 -39 -51 -64l-94 -65q-61 -43 -76 -90h-172q14 96 32.5 137t55.5 63zM1518 1776h225l-43 -244q-29 -162 -102.5 -220.5t-239.5 -64.5 l-129 -737q-53 -303 -205 -416.5t-418 -113.5q-285 0 -406.5 100t-121.5 289q0 88 20 211l150 854h459l-166 -951q-6 -29 -6 -53q0 -80 94 -80q63 0 94 34t47 132l162 918h360q166 0 189 131z" glyph-name="uni1EEC" horiz-adv-x="1329" unicode="Ử"/><glyph d="M786 1530q31 20 37 26q10 10 11 25q0 18 -43 18q-47 0 -125 -8l-13 162q88 12 181 12q125 0 177 -34.5t52 -108.5q0 -59 -19 -102q-16 -39 -51 -64l-94 -65q-61 -43 -76 -91h-172q14 96 32.5 137.5t55.5 63.5zM1337 1468h226l-43 -243q-29 -158 -99.5 -217.5 t-228.5 -67.5l-162 -920l-407 -34l2 129h-11q-88 -135 -284 -135q-154 0 -220.5 63t-66.5 199q0 78 18 178l125 706h443l-125 -708q-6 -31 -6 -53q0 -63 55 -64q90 0 111 127l120 698h328q166 0 188 131z" glyph-name="uni1EED" horiz-adv-x="1222" unicode="ử"/><glyph d="M733 1696q-63 0 -92 -97h-168q27 150 110 240t197 90q80 0 152 -53l57 -43q33 -25 58 -25q49 0 86 97h165q-27 -162 -106.5 -245t-198.5 -83q-88 0 -145 49l-60 49q-22 21 -55 21zM1518 1776h225l-43 -244q-29 -162 -102.5 -220.5t-239.5 -64.5l-129 -737 q-53 -303 -205 -416.5t-418 -113.5q-285 0 -406.5 100t-121.5 289q0 88 20 211l150 854h459l-166 -951q-6 -29 -6 -53q0 -80 94 -80q63 0 94 34t47 132l162 918h360q166 0 189 131z" glyph-name="uni1EEE" horiz-adv-x="1329" unicode="Ữ"/><glyph d="M623 1389q-63 0 -93 -97h-168q27 150 110 240t198 90q80 0 151 -53l58 -43q33 -25 57 -25q49 0 86 96h166q-27 -162 -107 -244.5t-198 -82.5q-88 0 -146 49l-59 49q-22 21 -55 21zM1337 1468h226l-43 -243q-29 -158 -99.5 -217.5t-228.5 -67.5l-162 -920l-407 -34l2 129 h-11q-88 -135 -284 -135q-154 0 -220.5 63t-66.5 199q0 78 18 178l125 706h443l-125 -708q-6 -31 -6 -53q0 -63 55 -64q90 0 111 127l120 698h328q166 0 188 131z" glyph-name="uni1EEF" horiz-adv-x="1222" unicode="ữ"/><glyph d="M1518 1776h225l-43 -244q-29 -162 -102.5 -220.5t-239.5 -64.5l-129 -737q-53 -303 -205 -416.5t-418 -113.5q-285 0 -406.5 100t-121.5 289q0 88 20 211l150 854h459l-166 -951q-6 -29 -6 -53q0 -80 94 -80q63 0 94 34t47 132l162 918h360q166 0 189 131zM330 -432 l49 287h328l-50 -287h-327z" glyph-name="uni1EF0" horiz-adv-x="1329" unicode="Ự"/><glyph d="M1337 1468h226l-43 -243q-29 -158 -99.5 -217.5t-228.5 -67.5l-162 -920l-407 -34l2 129h-11q-88 -135 -284 -135q-154 0 -220.5 63t-66.5 199q0 78 18 178l125 706h443l-125 -708q-6 -31 -6 -53q0 -63 55 -64q90 0 111 127l120 698h328q166 0 188 131zM238 -432l49 287 h327l-49 -287h-327z" glyph-name="uni1EF1" horiz-adv-x="1222" unicode="ự"/><glyph d="M946 1604h-248l-194 407h354zM1458 1434l-608 -1006l-76 -428h-459l86 494l-243 940h458l74 -582h23l276 582h469z" glyph-name="Ygrave" horiz-adv-x="1298" unicode="Ỳ"/><glyph d="M805 1296h-248l-195 408h355zM762 1126h465l-455 -1142q-47 -117 -105.5 -194t-130 -114.5t-140 -51t-160.5 -13.5q-121 0 -283 39l51 284q125 -18 225 -18q98 0 148.5 36t77.5 130l2 4h-310l-45 1040h457l-47 -739h33z" glyph-name="ygrave" horiz-adv-x="1122" unicode="ỳ"/><glyph d="M1458 1434l-608 -1006l-76 -428h-459l86 494l-243 940h458l74 -582h23l276 582h469zM311 -432l49 287h328l-49 -287h-328z" glyph-name="uni1EF4" horiz-adv-x="1298" unicode="Ỵ"/><glyph d="M1227 1126l-455 -1142q-47 -117 -105.5 -194t-130 -114.5t-140 -51t-160.5 -13.5q-121 0 -283 39l51 284q125 -18 225 -18q98 0 148.5 36t77.5 130l2 4h-310l-45 1040h457l-47 -739h33l217 739h465zM756 -432l49 287h328l-50 -287h-327z" glyph-name="uni1EF5" horiz-adv-x="1122" unicode="ỵ"/><glyph d="M881 1837q31 20 37 27q10 10 10 24q0 18 -43 19q-47 0 -125 -9l-12 162q88 12 180 13q125 0 177 -35t52 -109q0 -59 -18 -102q-16 -39 -52 -64l-94 -65q-61 -43 -75 -90h-173q14 96 33 137t56 63zM1458 1434l-608 -1006l-76 -428h-459l86 494l-243 940h458l74 -582h23 l276 582h469z" glyph-name="uni1EF6" horiz-adv-x="1298" unicode="Ỷ"/><glyph d="M739 1530q31 20 37 26q10 10 10 25q0 18 -43 18q-47 0 -125 -8l-12 162q88 12 180 12q123 0 176.5 -34.5t53.5 -108.5q0 -59 -19 -102q-16 -39 -51 -64l-94 -65q-61 -43 -76 -91h-172q14 96 32.5 137.5t55.5 63.5zM762 1126h465l-455 -1142q-47 -117 -105.5 -194 t-130 -114.5t-140 -51t-160.5 -13.5q-121 0 -283 39l51 284q125 -18 225 -18q98 0 148.5 36t77.5 130l2 4h-310l-45 1040h457l-47 -739h33z" glyph-name="uni1EF7" horiz-adv-x="1122" unicode="ỷ"/><glyph d="M717 1696q-63 0 -92 -97h-168q27 150 109.5 240t197.5 90q80 0 151 -53l58 -43q33 -25 57 -25q49 0 86 97h166q-27 -162 -106.5 -245t-198.5 -83q-88 0 -146 49l-59 49q-22 21 -55 21zM1458 1434l-608 -1006l-76 -428h-459l86 494l-243 940h458l74 -582h23l276 582h469z " glyph-name="uni1EF8" horiz-adv-x="1298" unicode="Ỹ"/><glyph d="M575 1389q-63 0 -92 -97h-168q27 150 110 240t198 90q80 0 151 -53l57 -43q33 -25 58 -25q49 0 86 96h166q-27 -162 -107 -244.5t-198 -82.5q-88 0 -146 49l-59 49q-23 21 -56 21zM762 1126h465l-455 -1142q-47 -117 -105.5 -194t-130 -114.5t-140 -51t-160.5 -13.5 q-121 0 -283 39l51 284q125 -18 225 -18q98 0 148.5 36t77.5 130l2 4h-310l-45 1040h457l-47 -739h33z" glyph-name="uni1EF9" horiz-adv-x="1122" unicode="ỹ"/><glyph glyph-name="uni2009" horiz-adv-x="204" unicode=" "/><glyph d="M139 788h1069l-55 -307h-1069z" glyph-name="endash" horiz-adv-x="1265" unicode="–"/><glyph d="M139 788h1639l-56 -307h-1638z" glyph-name="emdash" horiz-adv-x="1835" unicode="—"/><glyph d="M59 109h1209l-47 -267h-1209zM-2 -246h1208l-47 -266h-1208z" glyph-name="underscoredbl" horiz-adv-x="1484" unicode="‗"/><glyph d="M764 1602l-229 -424h178l-74 -424h-467l74 424l233 424h285z" glyph-name="quoteleft" horiz-adv-x="743" unicode="‘"/><glyph d="M324 1602h467l-76 -424l-234 -424h-286l229 424h-176z" glyph-name="quoteright" horiz-adv-x="743" unicode="’"/><glyph d="M115 424h467l-74 -424l-236 -424h-284l229 424h-176z" glyph-name="quotesinglbase" horiz-adv-x="743" unicode="‚"/><glyph d="M711 1602l-230 -424h178l-73 -424h-467l74 424l233 424h285zM1298 1602l-229 -424h178l-73 -424h-467l73 424l234 424h284z" glyph-name="quotedblleft" horiz-adv-x="1228" unicode="“"/><glyph d="M270 1602h467l-75 -424l-234 -424h-287l230 424h-176zM858 1602h467l-76 -424l-233 -424h-287l229 424h-176z" glyph-name="quotedblright" horiz-adv-x="1228" unicode="”"/><glyph d="M61 424h467l-73 -424l-236 -424h-285l230 424h-176zM649 424h467l-74 -424l-235 -424h-285l230 424h-177z" glyph-name="quotedblbase" horiz-adv-x="1228" unicode="„"/><glyph d="M1194 1004l-57 -328h-353l-184 -1045h-369l185 1045h-353l58 328h352l84 477h369l-84 -477h352z" glyph-name="dagger" horiz-adv-x="1155" unicode="†"/><glyph d="M1145 721h-352l-58 -328h352l-57 -327h-354l-76 -435h-369l76 435h-350l57 327h353l57 328h-352l57 328h352l76 432h369l-76 -432h352z" glyph-name="daggerdbl" horiz-adv-x="1155" unicode="‡"/><glyph d="M428 342q-150 0 -251 101.5t-101 248.5q0 174 130 303t304 129q152 0 252 -100t100 -250q0 -174 -130 -303t-304 -129z" glyph-name="bullet" horiz-adv-x="878" unicode="•"/><glyph d="M41 0l74 424h467l-74 -424h-467zM688 0l74 424h467l-74 -424h-467zM1337 0l74 424h467l-74 -424h-467z" glyph-name="ellipsis" horiz-adv-x="2037" unicode="…"/><glyph d="M176 -20l1151 1474h287l-1151 -1474h-287zM440 602q-160 0 -228.5 70.5t-68.5 212.5q0 106 32 238t85 208q80 115 264 115q158 0 225.5 -69.5t67.5 -209.5q0 -106 -31.5 -241t-85.5 -211q-78 -113 -260 -113zM436 797q29 0 47 24q27 39 53.5 174t26.5 203q0 53 -35 53 q-31 0 -47 -24q-29 -41 -55.5 -173t-26.5 -202q0 -55 37 -55zM1274 -12q-160 0 -228.5 70.5t-68.5 211.5q0 106 31.5 238.5t85.5 208.5q80 115 264 114q158 0 225.5 -69.5t67.5 -208.5q0 -106 -32 -241.5t-85 -211.5q-78 -112 -260 -112zM1987 -12q-160 0 -228.5 70.5 t-68.5 211.5q0 106 31.5 238.5t84.5 208.5q80 115 265 114q158 0 225 -69.5t67 -208.5q0 -106 -31.5 -241.5t-84.5 -211.5q-78 -112 -260 -112zM1270 182q29 0 47 25q27 39 53.5 174t26.5 203q0 53 -35 53q-31 0 -47 -25q-29 -41 -55.5 -173t-26.5 -201q0 -56 37 -56z M1982 182q29 0 48 25q27 39 53 174t26 203q0 53 -34 53q-31 0 -47 -25q-29 -41 -55.5 -173t-26.5 -201q-1 -56 36 -56z" glyph-name="perthousand" horiz-adv-x="2449" unicode="‰"/><glyph d="M582 1126l-43 -286l-287 -271l184 -262l-43 -287l-395 373l31 201l24 160z" glyph-name="guilsinglleft" horiz-adv-x="534" unicode="‹"/><glyph d="M145 1126l398 -372l-27 -164l-29 -197l-528 -373l41 287l289 273l-185 260z" glyph-name="guilsinglright" horiz-adv-x="534" unicode="›"/><glyph d="M-72 -41l863 1516h274l-864 -1516h-273z" glyph-name="fraction" horiz-adv-x="933" unicode="⁄"/><glyph d="M954 1083q-141 0 -200 -84l-13 -18h289l-35 -205h-327q-8 -35 -21 -104h266l-36 -205h-250q4 -68 34.5 -92.5t104.5 -24.5q135 0 244 49l22 -370q-131 -49 -321 -49q-297 0 -424 121.5t-127 363.5v2h-140l37 205h119l19 104h-119l35 205h139q49 156 117 252 q84 123 211 172t309 49q195 0 334 -55l-72 -350q-72 34 -195 34z" glyph-name="Euro" horiz-adv-x="1157" unicode="€"/><glyph d="M1896 616q-197 0 -280.5 79t-83.5 231q0 94 27.5 200.5t76.5 178.5q96 139 332 139q197 0 281 -79t84 -228q0 -94 -28 -202t-77 -179q-99 -140 -332 -140zM1063 1434h395l-252 -1434h-577l-41 838h-21l-147 -838h-393l252 1434h581l39 -830h19zM1921 1186 q-25 -31 -44 -131.5t-19 -155.5q0 -47 34.5 -47t49.5 25q18 35 40.5 137t22.5 149q0 45 -35 45q-33 1 -49 -22zM1403 254l49 276h782l-49 -276h-782z" glyph-name="afii61352" horiz-adv-x="2297" unicode="№"/><glyph d="M664 1260h-136l-94 -543h-229l94 543h-137l31 174h501zM1501 1434l-125 -717h-207l74 424l-121 -258h-168l-34 262h-13l-73 -428h-205l125 717h264l51 -318h6l156 318h270z" glyph-name="trademark" horiz-adv-x="1492" unicode="™"/><glyph d="M1217 1475h274l-864 -1516h-273zM614 557h-585l39 217h161l76 436l-145 -39v211l184 52h277l-115 -660h147zM1247 877h580l-39 -226l-393 -651h-281l397 653v6h-301z" glyph-name="uni2150" horiz-adv-x="1789" unicode="⅐"/><glyph d="M1217 1475h274l-864 -1516h-273zM614 557h-585l39 217h161l76 436l-145 -39v211l184 52h277l-115 -660h147zM1495 889q164 0 233.5 -55.5t69.5 -174.5q0 -190 -121 -376q-92 -141 -239 -283h-310q109 111 207 221q55 63 78 98h-22q-10 -2 -33 -2q-109 0 -167 47.5 t-58 163.5q0 162 69 263q39 55 107.5 76.5t185.5 21.5zM1495 532q25 35 25 97q0 43 -45 43q-35 0 -50 -21q-25 -33 -24 -98q0 -41 43 -41q37 0 51 20z" glyph-name="uni2151" horiz-adv-x="1804" unicode="⅑"/><glyph d="M1217 1475h274l-864 -1516h-273zM614 557h-585l39 217h161l76 436l-145 -39v211l184 52h277l-115 -660h147zM2198 891q164 0 234.5 -75t70.5 -222q0 -117 -34 -260.5t-91 -224.5q-84 -121 -275 -121q-166 0 -237.5 74.5t-71.5 224.5q0 115 34 257t91 224q86 123 279 123z M1677 877l-114 -660h147l-39 -217h-586l39 217h162l76 436l-145 -39v211l184 52h276zM2148 221q27 39 53.5 182.5t26.5 212.5q0 59 -37 60q-25 0 -39 -21q-27 -37 -53 -181t-26 -214q0 -59 36 -59q25 0 39 20z" glyph-name="uni2152" horiz-adv-x="2551" unicode="⅒"/><glyph d="M1217 1475h274l-864 -1516h-273zM614 557h-585l39 217h161l76 436l-145 -39v211l184 52h277l-115 -660h147zM1710 518q-33 -43 -80 -59v-4q80 -43 80 -150q0 -121 -59 -209q-76 -109 -299 -108q-170 0 -260 39l32 209q68 -25 174 -25q88 0 115 37q16 23 17 59 q0 29 -15.5 39t-50.5 10h-111l35 199h90q55 0 74 29q18 27 18 53q0 39 -61 39q-88 0 -170 -33l-2 225q70 23 217 23q301 0 301 -209q0 -101 -45 -164z" glyph-name="onethird" horiz-adv-x="1796" unicode="⅓"/><glyph d="M1208 1475h275l-865 -1516h-272zM635 774l-39 -217h-580l33 186q18 98 52 153.5t132 133.5l162 127q33 27 33 45q0 23 -53 23q-68 0 -154 -21l-8 226q121 18 207 18q291 0 291 -221q0 -133 -119 -223l-146 -113q-82 -66 -98 -117h287zM1702 518q-33 -43 -80 -59v-4 q80 -43 80 -150q0 -121 -60 -209q-76 -109 -299 -108q-170 0 -260 39l33 209q68 -25 174 -25q88 0 115 37q16 23 16 59q0 29 -15 39t-50 10h-111l35 199h90q55 0 74 29q18 27 18 53q0 39 -61 39q-88 0 -170 -33l-2 225q70 23 217 23q301 0 301 -209q0 -101 -45 -164z" glyph-name="twothirds" horiz-adv-x="1787" unicode="⅔"/><glyph d="M1217 1475h274l-864 -1516h-273zM614 557h-585l39 217h161l76 436l-145 -39v211l184 52h277l-115 -660h147zM1755 659h-268l-19 -92q137 -2 195.5 -56t58.5 -159q0 -147 -67 -248q-78 -117 -318 -116q-178 0 -266 37l27 213q53 -20 184 -21q113 0 141 43q20 31 21 66 q0 39 -60 39h-233l106 512h535z" glyph-name="uni2155" horiz-adv-x="1792" unicode="⅕"/><glyph d="M1208 1475h275l-865 -1516h-272zM635 774l-39 -217h-580l33 186q18 98 52 153.5t132 133.5l162 127q33 27 33 45q0 23 -53 23q-68 0 -154 -21l-8 226q121 18 207 18q291 0 291 -221q0 -133 -119 -223l-146 -113q-82 -66 -98 -117h287zM1747 659h-268l-19 -92 q137 -2 195.5 -56t58.5 -159q0 -147 -67 -248q-78 -117 -318 -116q-178 0 -266 37l27 213q53 -20 184 -21q113 0 141 43q20 31 21 66q0 39 -60 39h-233l106 512h535z" glyph-name="uni2156" horiz-adv-x="1783" unicode="⅖"/><glyph d="M1165 1475h275l-865 -1516h-272zM594 653q-76 -109 -299 -108q-170 0 -260 39l33 209q68 -25 174 -25q88 0 114 37q16 23 17 59q0 29 -15.5 39t-50.5 10h-110l34 199h91q55 0 73 29q18 27 19 53q0 39 -62 39q-88 0 -170 -33l-2 225q70 23 217 23q301 0 301 -209 q0 -100 -45 -164q-33 -43 -80 -59v-4q80 -43 80 -150q0 -121 -59 -209zM1704 659h-268l-19 -92q137 -2 195.5 -56t58.5 -159q0 -147 -67 -248q-78 -117 -318 -116q-176 0 -266 37l27 213q53 -20 184 -21q113 0 141 43q20 31 21 66q0 39 -60 39h-233l106 512h535z" glyph-name="uni2157" horiz-adv-x="1740" unicode="⅗"/><glyph d="M1309 1475h274l-864 -1516h-273zM653 557h-235l24 143h-381l43 240l279 494h248l-269 -510v-6h119l39 219h236l-39 -219h74l-39 -218h-74zM1847 659h-268l-18 -92q137 -2 195.5 -56t58.5 -159q0 -147 -68 -248q-78 -117 -317 -116q-176 0 -267 37l27 213q53 -20 184 -21 q113 0 142 43q20 31 20 66q0 39 -59 39h-234l107 512h534z" glyph-name="uni2158" horiz-adv-x="1884" unicode="⅘"/><glyph d="M1217 1475h274l-864 -1516h-273zM614 557h-585l39 217h161l76 436l-145 -39v211l184 52h277l-115 -660h147zM1440 559q109 0 167 -47t58 -164q0 -162 -70 -262q-39 -55 -107.5 -76.5t-184.5 -21.5q-164 0 -234 55t-70 174q0 190 121 377q92 141 240 283h309 q-109 -111 -207 -222q-55 -63 -78 -98h23q10 2 33 2zM1372 225q25 33 25 99q0 41 -43 41q-37 0 -51 -21q-25 -33 -25 -96q0 -43 45 -43q35 0 49 20z" glyph-name="uni2159" horiz-adv-x="1724" unicode="⅙"/><glyph d="M1223 1475h274l-864 -1516h-273zM659 662q-78 -117 -317 -117q-178 0 -266 37l26 213q53 -20 185 -21q113 0 141 43q20 31 21 66q0 39 -60 39h-233l106 512h535l-37 -217h-268l-19 -93q137 -2 195.5 -56t58.5 -159q0 -147 -68 -247zM1446 559q109 0 167 -47t58 -164 q0 -162 -69 -262q-39 -55 -108 -76.5t-185 -21.5q-164 0 -233.5 55t-69.5 174q0 190 120 377q92 141 240 283h309q-109 -111 -207 -222q-55 -63 -77 -98h22q10 2 33 2zM1378 225q25 33 25 99q0 41 -43 41q-37 0 -51 -21q-25 -33 -25 -96q0 -43 45 -43q35 0 49 20z" glyph-name="uni215A" horiz-adv-x="1730" unicode="⅚"/><glyph d="M1217 1475h274l-864 -1516h-273zM614 557h-585l39 217h161l76 436l-145 -39v211l184 52h277l-115 -660h147zM1755 524q-33 -49 -113 -71v-4q111 -45 111 -173q0 -109 -53 -186q-41 -59 -117 -80.5t-199 -21.5q-178 0 -253.5 54t-75.5 163q0 113 49 178q43 57 137 80l2 8 q-88 49 -88 158q0 100 49 170q66 92 291 92q164 0 232.5 -53.5t68.5 -155.5q0 -99 -41 -158zM1434 664q-20 -31 -21 -82q0 -37 45 -37q37 0 49 18q20 31 21 84q0 20 -10.5 27.5t-34.5 7.5q-37 0 -49 -18zM1458 225q23 33 23 90q0 25 -12.5 34t-43.5 9q-45 0 -61 -22 q-23 -33 -23 -92q0 -25 12.5 -33t43.5 -8q47 -1 61 22z" glyph-name="oneeighth" horiz-adv-x="1841" unicode="⅛"/><glyph d="M1165 1475h275l-865 -1516h-272zM594 653q-76 -109 -299 -108q-170 0 -260 39l33 209q68 -25 174 -25q88 0 114 37q16 23 17 59q0 29 -15.5 39t-50.5 10h-110l34 199h91q55 0 73 29q18 27 19 53q0 39 -62 39q-88 0 -170 -33l-2 225q70 23 217 23q301 0 301 -209 q0 -100 -45 -164q-33 -43 -80 -59v-4q80 -43 80 -150q0 -121 -59 -209zM1704 524q-33 -49 -113 -71v-4q111 -45 111 -173q0 -109 -53 -186q-41 -59 -117 -80.5t-199 -21.5q-178 0 -253.5 54t-75.5 163q0 113 49 178q43 57 137 80l2 8q-88 49 -88 158q0 100 49 170 q66 92 291 92q164 0 232.5 -53.5t68.5 -155.5q0 -99 -41 -158zM1382 664q-20 -31 -20 -82q0 -37 45 -37q37 0 49 18q20 31 21 84q0 20 -10.5 27.5t-34.5 7.5q-38 0 -50 -18zM1407 225q23 33 23 90q0 25 -12.5 34t-43.5 9q-45 0 -61 -22q-23 -33 -23 -92q0 -25 12.5 -33 t43.5 -8q47 -1 61 22z" glyph-name="threeeighths" horiz-adv-x="1789" unicode="⅜"/><glyph d="M1223 1475h274l-864 -1516h-273zM659 662q-78 -117 -317 -117q-178 0 -266 37l26 213q53 -20 185 -21q113 0 141 43q20 31 21 66q0 39 -60 39h-233l106 512h535l-37 -217h-268l-19 -93q137 -2 195.5 -56t58.5 -159q0 -147 -68 -247zM1761 524q-33 -49 -112 -71v-4 q111 -45 110 -173q0 -109 -53 -186q-41 -59 -117 -80.5t-198 -21.5q-178 0 -254 54t-76 163q0 113 49 178q43 57 137 80l2 8q-88 49 -88 158q0 100 49 170q66 92 291 92q164 0 232.5 -53.5t68.5 -155.5q0 -99 -41 -158zM1440 664q-20 -31 -21 -82q0 -37 45 -37q37 0 49 18 q20 31 21 84q0 20 -10.5 27.5t-34.5 7.5q-37 0 -49 -18zM1464 225q23 33 23 90q0 25 -12.5 34t-42.5 9q-45 0 -62 -22q-23 -33 -22 -92q0 -25 12 -33t43 -8q47 -1 61 22z" glyph-name="fiveeighths" horiz-adv-x="1847" unicode="⅝"/><glyph d="M1057 1475h274l-864 -1516h-272zM37 557l397 653v7h-301l37 217h580l-39 -226l-394 -651h-280zM1595 524q-33 -49 -112 -71v-4q111 -45 110 -173q0 -109 -53 -186q-41 -59 -116.5 -80.5t-198.5 -21.5q-178 0 -254 54t-76 163q0 113 49 178q43 57 137 80l2 8 q-88 49 -88 158q0 100 49 170q66 92 291 92q164 0 232.5 -53.5t68.5 -155.5q0 -99 -41 -158zM1274 664q-20 -31 -21 -82q0 -37 45 -37q37 0 50 18q20 31 20 84q0 20 -10 27.5t-35 7.5q-37 0 -49 -18zM1298 225q23 33 23 90q0 25 -12.5 34t-42.5 9q-45 0 -62 -22 q-23 -33 -22 -92q0 -25 12 -33t43 -8q47 -1 61 22z" glyph-name="seveneighths" horiz-adv-x="1681" unicode="⅞"/><glyph d="M1217 1475h274l-864 -1516h-273zM614 557h-585l39 217h161l76 436l-145 -39v211l184 52h277l-115 -660h147z" glyph-name="uni215F" horiz-adv-x="1359" unicode="⅟"/><glyph d="M154 739h1067l-60 -327h-1067z" glyph-name="minus" horiz-adv-x="1310" unicode="−"/><glyph d="M326 539l-224 77q29 166 139.5 267.5t260.5 101.5q98 0 184 -57l143 -97q27 -16 56 -16q74 0 119 123l223 -78q-31 -170 -143.5 -269t-256.5 -99q-100 0 -184 57l-143 96q-27 16 -56 17q-73 0 -118 -123zM326 43l-224 78q29 166 139.5 267t260.5 101q98 0 184 -57 l143 -96q27 -16 56 -17q74 0 119 123l223 -77q-31 -170 -143.5 -269.5t-256.5 -99.5q-100 0 -184 57l-143 97q-27 16 -56 16q-73 0 -118 -123z" glyph-name="approxequal" horiz-adv-x="1310" unicode="≈"/><glyph d="M1204 653h-356l-70 -137h402l-58 -328h-512l-110 -217h-303l110 217h-252l58 328h362l70 137h-408l58 328h516l104 203h305l-104 -203h246z" glyph-name="notequal" horiz-adv-x="1310" unicode="≠"/><glyph d="M1198 1012l-606 -174l-6 -37l542 -172l-59 -344l-868 305l80 463l974 303zM76 -115l57 328h922l-58 -328h-921z" glyph-name="lessequal" horiz-adv-x="1310" unicode="≤"/><glyph d="M334 1356l868 -303l-80 -463l-975 -305l60 344l604 174l6 37l-541 172zM76 -115l57 328h922l-58 -328h-921z" glyph-name="greaterequal" horiz-adv-x="1310" unicode="≥"/><glyph d="M819 -20q-297 0 -480 181t-183 476q0 342 233.5 579.5t581.5 237.5q297 0 480 -181t183 -476q0 -342 -233.5 -579.5t-581.5 -237.5zM836 135q266 0 444 191.5t178 457.5q0 229 -138 371.5t-364 142.5q-268 0 -446 -192.5t-178 -458.5q0 -229 139.5 -370.5t364.5 -141.5z M537 291l38 217h162l76 438l-154 -41l3 211l192 51h276l-116 -659h147l-39 -217h-585z" glyph-name="uni2460" horiz-adv-x="1730" unicode="①"/><glyph d="M819 -20q-297 0 -480 181t-183 476q0 342 233.5 579.5t581.5 237.5q297 0 480 -181t183 -476q0 -342 -233.5 -579.5t-581.5 -237.5zM836 135q266 0 444 191.5t178 457.5q0 229 -138 371.5t-364 142.5q-268 0 -446 -192.5t-178 -458.5q0 -229 139.5 -370.5t364.5 -141.5z M530 291l29 158q16 90 57 153.5t125 128.5l162 125q33 27 33 62q0 25 -15.5 35t-56.5 10q-51 0 -155 -17l41 213q131 20 229 21q123 0 188.5 -35t65.5 -131q0 -145 -148 -256l-145 -111q-70 -53 -78 -123l-2 -16h287l-39 -217h-578z" glyph-name="uni2461" horiz-adv-x="1730" unicode="②"/><glyph d="M819 -20q-297 0 -480 181t-183 476q0 342 233.5 579.5t581.5 237.5q297 0 480 -181t183 -476q0 -342 -233.5 -579.5t-581.5 -237.5zM836 135q266 0 444 191.5t178 457.5q0 229 -138 371.5t-364 142.5q-268 0 -446 -192.5t-178 -458.5q0 -229 139.5 -370.5t364.5 -141.5z M776 276q-176 0 -237 29l86 234q74 -37 186 -37q59 0 76 24q18 25 18 68q0 53 -74 53h-106l35 199h119q33 0 49 22q14 20 14 50q0 23 -14.5 34t-29.5 13t-42 2q-94 0 -166 -19l39 199q76 33 240 33q135 0 202.5 -35t67.5 -125q0 -100 -53 -176q-33 -49 -88 -76l-2 -8 q94 -41 94 -133q0 -119 -66 -209q-102 -142 -348 -142z" glyph-name="uni2462" horiz-adv-x="1730" unicode="③"/><glyph d="M819 -20q-297 0 -480 181t-183 476q0 342 233.5 579.5t581.5 237.5q297 0 480 -181t183 -476q0 -342 -233.5 -579.5t-581.5 -237.5zM836 135q266 0 444 191.5t178 457.5q0 229 -138 371.5t-364 142.5q-268 0 -446 -192.5t-178 -458.5q0 -229 139.5 -370.5t364.5 -141.5z M842 293l26 143h-379l46 240l282 493h234l-260 -493l-5 -23h119l39 219h236l-39 -219h73l-36 -217h-74l-27 -143h-235z" glyph-name="uni2463" horiz-adv-x="1730" unicode="④"/><glyph d="M819 -20q-297 0 -480 181t-183 476q0 342 233.5 579.5t581.5 237.5q297 0 480 -181t183 -476q0 -342 -233.5 -579.5t-581.5 -237.5zM836 135q266 0 444 191.5t178 457.5q0 229 -138 371.5t-364 142.5q-268 0 -446 -192.5t-178 -458.5q0 -229 139.5 -370.5t364.5 -141.5z M758 276q-127 0 -250 37l74 228q84 -33 184 -33q94 0 113 29q16 27 16 61q0 57 -70 57h-215l107 512h534l-39 -217h-266l-20 -92h20q135 0 191.5 -40t56.5 -122q0 -66 -26.5 -153.5t-65.5 -141.5q-90 -125 -344 -125z" glyph-name="uni2464" horiz-adv-x="1730" unicode="⑤"/><glyph d="M819 -20q-297 0 -480 181t-183 476q0 342 233.5 579.5t581.5 237.5q297 0 480 -181t183 -476q0 -342 -233.5 -579.5t-581.5 -237.5zM836 135q266 0 444 191.5t178 457.5q0 229 -138 371.5t-364 142.5q-268 0 -446 -192.5t-178 -458.5q0 -229 139.5 -370.5t364.5 -141.5z M795 285q-137 0 -209 43t-72 155q0 98 53.5 223t126.5 232q86 123 201 238h279q-70 -63 -150 -162q-61 -76 -123 -166h17q45 10 98 10q88 0 134 -33.5t46 -128.5q0 -70 -22.5 -150.5t-61.5 -135.5q-86 -125 -317 -125zM840 504q33 0 47 20q27 35 26 99q0 41 -43 41 q-37 0 -49 -19q-27 -37 -26 -100q0 -41 45 -41z" glyph-name="uni2465" horiz-adv-x="1730" unicode="⑥"/><glyph d="M819 -20q-297 0 -480 181t-183 476q0 342 233.5 579.5t581.5 237.5q297 0 480 -181t183 -476q0 -342 -233.5 -579.5t-581.5 -237.5zM836 135q266 0 444 191.5t178 457.5q0 229 -138 371.5t-364 142.5q-268 0 -446 -192.5t-178 -458.5q0 -229 139.5 -370.5t364.5 -141.5z M573 264l390 637l4 23h-305l36 217h580l-43 -226l-397 -651h-265z" glyph-name="uni2466" horiz-adv-x="1730" unicode="⑦"/><glyph d="M819 -20q-297 0 -480 181t-183 476q0 342 233.5 579.5t581.5 237.5q297 0 480 -181t183 -476q0 -342 -233.5 -579.5t-581.5 -237.5zM836 135q266 0 444 191.5t178 457.5q0 229 -138 371.5t-364 142.5q-268 0 -446 -192.5t-178 -458.5q0 -229 139.5 -370.5t364.5 -141.5z M786 279q-156 0 -218 38.5t-62 124.5q0 123 61 217q33 53 115 76l2 13q-80 35 -80 114q0 102 64 195q86 125 336 125q145 0 203.5 -39t58.5 -117q0 -102 -58 -178q-47 -63 -114 -88l-2 -12q125 -45 125 -146q0 -104 -64 -192q-95 -131 -367 -131zM918 836q35 0 47 18 q20 31 20 84q0 20 -10 27.5t-35 7.5q-37 0 -47 -17q-23 -29 -23 -84q1 -36 48 -36zM856 494q45 0 59 22q23 35 23 88q0 27 -12.5 36t-40.5 9q-47 0 -62 -20q-25 -31 -24 -94q0 -25 12 -33t45 -8z" glyph-name="uni2467" horiz-adv-x="1730" unicode="⑧"/><glyph d="M819 -20q-297 0 -480 181t-183 476q0 342 233.5 579.5t581.5 237.5q297 0 480 -181t183 -476q0 -342 -233.5 -579.5t-581.5 -237.5zM836 135q266 0 444 191.5t178 457.5q0 229 -138 371.5t-364 142.5q-268 0 -446 -192.5t-178 -458.5q0 -229 139.5 -370.5t364.5 -141.5z M602 281q70 63 150 161q61 78 122 166h-16q-47 -10 -98 -10q-88 0 -134 34t-46 128q0 70 22.5 150.5t61.5 136.5q86 125 317 124q137 0 209 -43t72 -155q0 -98 -53.5 -223t-127.5 -232q-86 -123 -200 -237h-279zM905 793q37 0 49 18q27 37 27 100q0 41 -45 41q-33 0 -47 -20 q-27 -35 -27 -98q0 -41 43 -41z" glyph-name="uni2468" horiz-adv-x="1730" unicode="⑨"/><glyph d="M819 -20q-297 0 -480 181t-183 476q0 342 233.5 579.5t581.5 237.5q297 0 480 -181t183 -476q0 -342 -233.5 -579.5t-581.5 -237.5zM836 135q266 0 444 191.5t178 457.5q0 229 -138 371.5t-364 142.5q-268 0 -446 -192.5t-178 -458.5q0 -229 139.5 -370.5t364.5 -141.5z M852 276q-166 0 -237.5 74t-71.5 221q0 117 34.5 261.5t90.5 224.5q86 123 278 123q164 0 233.5 -74t69.5 -221q0 -117 -33.5 -261.5t-91.5 -226.5q-84 -121 -272 -121zM854 492q25 0 39 20q27 39 54.5 183.5t27.5 213.5q0 57 -39 58q-25 0 -37 -19q-29 -39 -55.5 -183 t-26.5 -214q0 -59 37 -59z" glyph-name="uni24EA" horiz-adv-x="1730" unicode="⓪"/><glyph d="M819 -20q-297 0 -480 181t-183 476q0 342 233.5 579.5t581.5 237.5q297 0 480 -181t183 -476q0 -342 -233.5 -579.5t-581.5 -237.5zM795 276q225 0 325 148q63 90 102.5 240.5t39.5 267.5q0 127 -59.5 187.5t-205.5 60.5q-221 0 -325 -150q-63 -90 -101.5 -238.5 t-38.5 -267.5q0 -127 60 -187.5t203 -60.5zM856 492q-39 0 -39 57q0 70 27.5 215t54.5 182q14 20 39 21q37 0 37 -60q0 -68 -26.5 -213t-53.5 -184q-14 -18 -39 -18z" glyph-name="uni24FF" horiz-adv-x="1730" unicode="⓿"/><glyph d="M819 -20q-297 0 -480 181t-183 476q0 342 233.5 579.5t581.5 237.5q297 0 480 -181t183 -476q0 -342 -233.5 -579.5t-581.5 -237.5zM537 291h585l39 217h-147l116 659h-276l-192 -51l-3 -211l154 41l-76 -438h-162z" glyph-name="uni2776" horiz-adv-x="1730" unicode="❶"/><glyph d="M819 -20q-297 0 -480 181t-183 476q0 342 233.5 579.5t581.5 237.5q297 0 480 -181t183 -476q0 -342 -233.5 -579.5t-581.5 -237.5zM530 291h578l39 217h-287l2 14q6 68 86 131l137 105q147 111 148 256q0 96 -65.5 131t-188.5 35q-98 0 -229 -21l-41 -213q104 16 155 17 q41 0 56.5 -10.5t15.5 -34.5q0 -35 -33 -62l-112 -88q-121 -92 -168.5 -158.5t-63.5 -160.5z" glyph-name="uni2777" horiz-adv-x="1730" unicode="❷"/><glyph d="M819 -20q-297 0 -480 181t-183 476q0 342 233.5 579.5t581.5 237.5q297 0 480 -181t183 -476q0 -342 -233.5 -579.5t-581.5 -237.5zM774 276q246 0 352 146q63 88 64 205q0 92 -94 133l2 8q55 27 88 76q51 72 51 168q0 92 -67.5 130t-200.5 38q-164 0 -240 -33l-39 -199 q45 18 166 19q27 0 42 -2t29.5 -13.5t14.5 -33.5q0 -29 -14 -50q-16 -23 -49 -22h-119l-35 -199h106q74 0 74 -53q0 -43 -18 -68q-16 -25 -76 -24q-113 0 -186 37l-86 -234q61 -29 235 -29z" glyph-name="uni2778" horiz-adv-x="1730" unicode="❸"/><glyph d="M819 -20q-297 0 -480 181t-183 476q0 342 233.5 579.5t581.5 237.5q297 0 480 -181t183 -476q0 -342 -233.5 -579.5t-581.5 -237.5zM842 293h235l27 143h74l36 217h-73l39 219h-236l-39 -219h-119l5 23l260 493h-234l-282 -493l-46 -240h379z" glyph-name="uni2779" horiz-adv-x="1730" unicode="❹"/><glyph d="M819 -20q-297 0 -480 181t-183 476q0 342 233.5 579.5t581.5 237.5q297 0 480 -181t183 -476q0 -342 -233.5 -579.5t-581.5 -237.5zM758 276q186 0 276 62q74 49 117 153.5t43 196.5q0 88 -56.5 129t-191.5 41h-20l20 92h266l39 217h-534l-107 -512h215q70 0 70 -57 q0 -55 -29 -76q-18 -14 -94 -14q-106 0 -190 33l-74 -228q123 -37 250 -37z" glyph-name="uni277A" horiz-adv-x="1730" unicode="❺"/><glyph d="M819 -20q-297 0 -480 181t-183 476q0 342 233.5 579.5t581.5 237.5q297 0 480 -181t183 -476q0 -342 -233.5 -579.5t-581.5 -237.5zM788 287q164 0 254 59q74 47 112 148.5t38 197.5q0 98 -45 133t-133 35q-51 0 -99 -10h-16q51 82 123 164q78 92 154 164h-283 q-43 -47 -98 -113q-281 -334 -281 -571q0 -119 69.5 -163t204.5 -44zM838 506q-45 0 -45 45q0 78 36 106q10 8 39 9q23 0 33 -9.5t10 -33.5q0 -80 -34 -107q-12 -10 -39 -10z" glyph-name="uni277B" horiz-adv-x="1730" unicode="❻"/><glyph d="M819 -20q-297 0 -480 181t-183 476q0 342 233.5 579.5t581.5 237.5q297 0 480 -181t183 -476q0 -342 -233.5 -579.5t-581.5 -237.5zM578 289h264l397 651l43 225h-580l-36 -217h305l-4 -22z" glyph-name="uni277C" horiz-adv-x="1730" unicode="❼"/><glyph d="M819 -20q-297 0 -480 181t-183 476q0 342 233.5 579.5t581.5 237.5q297 0 480 -181t183 -476q0 -342 -233.5 -579.5t-581.5 -237.5zM791 279q201 0 292 67q59 43 96.5 113.5t37.5 136.5q0 106 -125 152l2 12q27 8 55 28q113 84 113 228q0 82 -59.5 124t-207.5 42 q-176 0 -266 -64q-57 -41 -91 -111.5t-34 -138.5q0 -86 80 -120l-2 -13q-41 -12 -70 -33q-51 -37 -75.5 -108.5t-24.5 -142.5q0 -90 61.5 -131t217.5 -41zM918 836q-47 0 -48 38q0 68 31 91q14 8 37 8q27 0 37 -7.5t10 -27.5q0 -72 -31 -94q-9 -8 -36 -8zM858 494 q-35 0 -47 8t-12 33q0 78 32 104q16 10 46 10q35 0 48 -9t13 -36q0 -76 -33 -100q-14 -10 -47 -10z" glyph-name="uni277D" horiz-adv-x="1730" unicode="❽"/><glyph d="M819 -20q-297 0 -480 181t-183 476q0 342 233.5 579.5t581.5 237.5q297 0 480 -181t183 -476q0 -342 -233.5 -579.5t-581.5 -237.5zM604 281h283q43 47 98 112q281 334 281 572q0 119 -70 162.5t-205 43.5q-164 0 -254 -59q-74 -47 -111.5 -148.5t-37.5 -197.5 q0 -98 45 -133t133 -35q53 0 98 10h17q-51 -82 -123 -164q-78 -91 -154 -163zM911 793q-23 0 -33 9t-10 34q0 80 35 106q12 10 39 10q45 0 45 -45q0 -78 -37 -106q-10 -8 -39 -8z" glyph-name="uni277E" horiz-adv-x="1730" unicode="❾"/><glyph d="M336 1604h328l-52 -287h-327zM635 1126l-199 -1126h-440l199 1126h440z" glyph-name="glyph593" horiz-adv-x="628"/><glyph d="M758 1126h440l-194 -1106l-406 -34l2 127h-10q-72 -133 -228 -133q-172 0 -252.5 93t-80.5 292q0 201 68.5 407.5t162.5 292.5q92 82 242 82q182 0 227 -137h8zM684 707q6 33 6 57q0 61 -53 61q-47 0 -72 -43q-31 -51 -58.5 -186t-27.5 -217q0 -43 13.5 -60.5t44.5 -17.5 q41 0 63.5 27.5t34.5 95.5z" glyph-name="a.ss01" horiz-adv-x="1196"/><glyph d="M1169 1704l-338 -408h-264l232 408h370zM758 1126h440l-194 -1106l-406 -34l2 127h-10q-72 -133 -228 -133q-172 0 -252.5 93t-80.5 292q0 201 68.5 407.5t162.5 292.5q92 82 242 82q182 0 227 -137h8zM684 707q6 33 6 57q0 61 -53 61q-47 0 -72 -43q-31 -51 -58.5 -186 t-27.5 -217q0 -43 13.5 -60.5t44.5 -17.5q41 0 63.5 27.5t34.5 95.5z" glyph-name="aacute.aalt" horiz-adv-x="1196"/><glyph d="M707 1251q-330 0 -330 248q0 41 10 96l6 27h225l-8 -41q-2 -10 -2 -27q0 -70 115 -69q82 0 113.5 26.5t50.5 102.5l2 8h225l-10 -59q-31 -176 -131 -244t-266 -68zM758 1126h440l-194 -1106l-406 -34l2 127h-10q-72 -133 -228 -133q-172 0 -252.5 93t-80.5 292 q0 201 68.5 407.5t162.5 292.5q92 82 242 82q182 0 227 -137h8zM684 707q6 33 6 57q0 61 -53 61q-47 0 -72 -43q-31 -51 -58.5 -186t-27.5 -217q0 -43 13.5 -60.5t44.5 -17.5q41 0 63.5 27.5t34.5 95.5z" glyph-name="abreve.aalt" horiz-adv-x="1196"/><glyph d="M1231 2089l-338 -408h-262l229 408h371zM707 1251q-330 0 -330 248q0 41 10 96l6 27h225l-8 -41q-2 -10 -2 -27q0 -70 115 -69q82 0 113.5 26.5t50.5 102.5l2 8h225l-10 -59q-31 -176 -131 -244t-266 -68zM737 1010l21 116h440l-194 -1106l-406 -34l2 127h-10 q-72 -133 -228 -133q-172 0 -252.5 93t-80.5 292q0 201 68.5 407.5t162.5 292.5q92 82 242 82q182 0 227 -137h8zM684 707q6 33 6 57q0 61 -53 61q-47 0 -72 -43q-31 -51 -58.5 -186t-27.5 -217q0 -43 13.5 -60.5t44.5 -17.5q41 0 63.5 27.5t34.5 95.5z" glyph-name="uni1EAF.aalt" horiz-adv-x="1196"/><glyph d="M707 1251q-330 0 -330 248q0 41 10 96l6 27h225l-8 -41q-2 -10 -2 -27q0 -70 115 -69q82 0 113.5 26.5t50.5 102.5l2 8h225l-10 -59q-31 -176 -131 -244t-266 -68zM758 1126h440l-194 -1106l-406 -34l2 127h-10q-72 -133 -228 -133q-172 0 -252.5 93t-80.5 292 q0 201 68.5 407.5t162.5 292.5q92 82 242 82q182 0 227 -137h8zM684 707q6 33 6 57q0 61 -53 61q-47 0 -72 -43q-31 -51 -58.5 -186t-27.5 -217q0 -43 13.5 -60.5t44.5 -17.5q41 0 63.5 27.5t34.5 95.5zM227 -432l49 287h328l-49 -287h-328z" glyph-name="uni1EB7.aalt" horiz-adv-x="1196"/><glyph d="M891 1683h-248l-194 408h354zM707 1251q-330 0 -330 248q0 41 10 96l6 27h225l-8 -41q-2 -10 -2 -27q0 -70 115 -69q82 0 113.5 26.5t50.5 102.5l2 8h225l-10 -59q-31 -176 -131 -244t-266 -68zM758 1126h440l-194 -1106l-406 -34l2 127h-10q-72 -133 -228 -133 q-172 0 -252.5 93t-80.5 292q0 201 68.5 407.5t162.5 292.5q92 82 242 82q182 0 227 -137h8zM684 707q6 33 6 57q0 61 -53 61q-47 0 -72 -43q-31 -51 -58.5 -186t-27.5 -217q0 -43 13.5 -60.5t44.5 -17.5q41 0 63.5 27.5t34.5 95.5z" glyph-name="uni1EB1.aalt" horiz-adv-x="1196"/><glyph d="M791 1868q53 33 57 41q6 10 6 20q0 18 -43 19q-47 0 -125 -9l-12 162q88 12 180 13q123 0 176 -35t53 -107q0 -49 -16 -102q-10 -35 -53 -66l-94 -65q-61 -43 -76 -90h-172q14 96 32.5 137t55.5 63zM707 1251q-330 0 -330 248q0 41 10 96l6 27h225l-8 -41q-2 -10 -2 -27 q0 -70 115 -69q82 0 113.5 26.5t50.5 102.5l2 8h225l-10 -59q-31 -176 -131 -244t-266 -68zM758 1126h440l-194 -1106l-406 -34l2 127h-10q-72 -133 -228 -133q-172 0 -252.5 93t-80.5 292q0 201 68.5 407.5t162.5 292.5q92 82 242 82q182 0 227 -137h8zM684 707q6 33 6 57 q0 61 -53 61q-47 0 -72 -43q-31 -51 -58.5 -186t-27.5 -217q0 -43 13.5 -60.5t44.5 -17.5q41 0 63.5 27.5t34.5 95.5z" glyph-name="uni1EB3.aalt" horiz-adv-x="1196"/><glyph d="M655 1812q-63 0 -92 -96h-168q27 150 110 240t197 90q80 0 152 -53l57 -43q33 -25 58 -25q49 0 86 96h166q-27 -162 -107 -244.5t-199 -82.5q-88 0 -145 49l-59 49q-23 20 -56 20zM707 1251q-330 0 -330 248q0 41 10 96l6 27h225l-8 -41q-2 -10 -2 -27q0 -70 115 -69 q82 0 113.5 26.5t50.5 102.5l2 8h225l-10 -59q-31 -176 -131 -244t-266 -68zM737 1010l21 116h440l-194 -1106l-406 -34l2 127h-10q-72 -133 -228 -133q-172 0 -252.5 93t-80.5 292q0 201 68.5 407.5t162.5 292.5q92 82 242 82q182 0 227 -137h8zM684 707q6 33 6 57 q0 61 -53 61q-47 0 -72 -43q-31 -51 -58.5 -186t-27.5 -217q0 -43 13.5 -60.5t44.5 -17.5q41 0 63.5 27.5t34.5 95.5z" glyph-name="uni1EB5.aalt" horiz-adv-x="1196"/><glyph d="M504 1288l-193 408h267l143 -215l217 215h285l-338 -408h-381zM737 1010l21 116h440l-194 -1106l-406 -34l2 127h-10q-72 -133 -228 -133q-172 0 -252.5 93t-80.5 292q0 201 68.5 407.5t162.5 292.5q92 82 242 82q182 0 227 -137h8zM684 707q6 33 6 57q0 61 -53 61 q-47 0 -72 -43q-31 -51 -58.5 -186t-27.5 -217q0 -43 13.5 -60.5t44.5 -17.5q41 0 63.5 27.5t34.5 95.5z" glyph-name="uni01CE.aalt" horiz-adv-x="1196"/><glyph d="M737 1503l-219 -215h-282l335 408h381l195 -408h-268zM758 1126h440l-194 -1106l-406 -34l2 127h-10q-72 -133 -228 -133q-172 0 -252.5 93t-80.5 292q0 201 68.5 407.5t162.5 292.5q92 82 242 82q182 0 227 -137h8zM684 707q6 33 6 57q0 61 -53 61q-47 0 -72 -43 q-31 -51 -58.5 -186t-27.5 -217q0 -43 13.5 -60.5t44.5 -17.5q41 0 63.5 27.5t34.5 95.5z" glyph-name="acircumflex.aalt" horiz-adv-x="1196"/><glyph d="M1323 1944h373l-336 -408h-266zM737 1503l-219 -215h-282l335 408h381l195 -408h-268zM737 1010l21 116h440l-194 -1106l-406 -34l2 127h-10q-72 -133 -228 -133q-172 0 -252.5 93t-80.5 292q0 201 68.5 407.5t162.5 292.5q92 82 242 82q182 0 227 -137h8zM684 707 q6 33 6 57q0 61 -53 61q-47 0 -72 -43q-31 -51 -58.5 -186t-27.5 -217q0 -43 13.5 -60.5t44.5 -17.5q41 0 63.5 27.5t34.5 95.5z" glyph-name="uni1EA5.aalt" horiz-adv-x="1196"/><glyph d="M737 1503l-219 -215h-282l335 408h381l195 -408h-268zM758 1126h440l-194 -1106l-406 -34l2 127h-10q-72 -133 -228 -133q-172 0 -252.5 93t-80.5 292q0 201 68.5 407.5t162.5 292.5q92 82 242 82q182 0 227 -137h8zM684 707q6 33 6 57q0 61 -53 61q-47 0 -72 -43 q-31 -51 -58.5 -186t-27.5 -217q0 -43 13.5 -60.5t44.5 -17.5q41 0 63.5 27.5t34.5 95.5zM227 -432l49 287h328l-49 -287h-328z" glyph-name="uni1EAD.aalt" horiz-adv-x="1196"/><glyph d="M1409 1536h-246l-192 408h354zM737 1503l-219 -215h-282l335 408h381l195 -408h-268zM737 1010l21 116h440l-194 -1106l-406 -34l2 127h-10q-72 -133 -228 -133q-172 0 -252.5 93t-80.5 292q0 201 68.5 407.5t162.5 292.5q92 82 242 82q182 0 227 -137h8zM684 707 q6 33 6 57q0 61 -53 61q-47 0 -72 -43q-31 -51 -58.5 -186t-27.5 -217q0 -43 13.5 -60.5t44.5 -17.5q41 0 63.5 27.5t34.5 95.5z" glyph-name="uni1EA7.aalt" horiz-adv-x="1196"/><glyph d="M1286 2001q123 0 176.5 -35t53.5 -106q0 -49 -17 -103q-10 -35 -53 -65l-94 -66q-61 -43 -76 -90h-172q14 96 32.5 137t55.5 64l31 18q53 33 57 41q6 10 6 21q0 18 -43 18q-47 0 -125 -8l-12 162q88 12 180 12zM737 1503l-219 -215h-282l335 408h381l195 -408h-268z M737 1010l21 116h440l-194 -1106l-406 -34l2 127h-10q-72 -133 -228 -133q-172 0 -252.5 93t-80.5 292q0 201 68.5 407.5t162.5 292.5q92 82 242 82q182 0 227 -137h8zM684 707q6 33 6 57q0 61 -53 61q-47 0 -72 -43q-31 -51 -58.5 -186t-27.5 -217q0 -43 13.5 -60.5 t44.5 -17.5q41 0 63.5 27.5t34.5 95.5z" glyph-name="uni1EA9.aalt" horiz-adv-x="1196"/><glyph d="M653 1880q-63 0 -92 -96h-168q27 150 110 240t197 90q80 0 152 -54l57 -43q33 -25 58 -24q49 0 86 96h166q-27 -162 -107 -245t-199 -83q-88 0 -145 49l-59 50q-23 20 -56 20zM737 1503l-219 -215h-282l335 408h381l195 -408h-268zM737 1010l21 116h440l-194 -1106 l-406 -34l2 127h-10q-72 -133 -228 -133q-172 0 -252.5 93t-80.5 292q0 201 68.5 407.5t162.5 292.5q92 82 242 82q182 0 227 -137h8zM684 707q6 33 6 57q0 61 -53 61q-47 0 -72 -43q-31 -51 -58.5 -186t-27.5 -217q0 -43 13.5 -60.5t44.5 -17.5q41 0 63.5 27.5t34.5 95.5z " glyph-name="uni1EAB.aalt" horiz-adv-x="1196"/><glyph d="M563 1296h-235l-215 408h352zM1026 1296h-235l-213 408h352zM758 1126h440l-194 -1106l-406 -34l2 127h-10q-72 -133 -228 -133q-172 0 -252.5 93t-80.5 292q0 201 68.5 407.5t162.5 292.5q92 82 242 82q182 0 227 -137h8zM684 707q6 33 6 57q0 61 -53 61q-47 0 -72 -43 q-31 -51 -58.5 -186t-27.5 -217q0 -43 13.5 -60.5t44.5 -17.5q41 0 63.5 27.5t34.5 95.5z" glyph-name="uni0201.aalt" horiz-adv-x="1196"/><glyph d="M672 1604l-51 -287h-328l51 287h328zM1157 1604l-51 -287h-328l51 287h328zM758 1126h440l-194 -1106l-406 -34l2 127h-10q-72 -133 -228 -133q-172 0 -252.5 93t-80.5 292q0 201 68.5 407.5t162.5 292.5q92 82 242 82q182 0 227 -137h8zM684 707q6 33 6 57q0 61 -53 61 q-47 0 -72 -43q-31 -51 -58.5 -186t-27.5 -217q0 -43 13.5 -60.5t44.5 -17.5q41 0 63.5 27.5t34.5 95.5z" glyph-name="adieresis.aalt" horiz-adv-x="1196"/><glyph d="M758 1126h440l-194 -1106l-406 -34l2 127h-10q-72 -133 -228 -133q-172 0 -252.5 93t-80.5 292q0 201 68.5 407.5t162.5 292.5q92 82 242 82q182 0 227 -137h8zM684 707q6 33 6 57q0 61 -53 61q-47 0 -72 -43q-31 -51 -58.5 -186t-27.5 -217q0 -43 13.5 -60.5t44.5 -17.5 q41 0 63.5 27.5t34.5 95.5zM227 -432l49 287h328l-49 -287h-328z" glyph-name="uni1EA1.aalt" horiz-adv-x="1196"/><glyph d="M807 1296h-248l-194 408h354zM758 1126h440l-194 -1106l-406 -34l2 127h-10q-72 -133 -228 -133q-172 0 -252.5 93t-80.5 292q0 201 68.5 407.5t162.5 292.5q92 82 242 82q182 0 227 -137h8zM684 707q6 33 6 57q0 61 -53 61q-47 0 -72 -43q-31 -51 -58.5 -186t-27.5 -217 q0 -43 13.5 -60.5t44.5 -17.5q41 0 63.5 27.5t34.5 95.5z" glyph-name="agrave.aalt" horiz-adv-x="1196"/><glyph d="M741 1530q31 20 37 26q10 10 10 25q0 18 -43 18q-47 0 -124 -8l-13 162q88 12 180 12q125 0 177.5 -34.5t52.5 -108.5q0 -59 -19 -102q-16 -39 -51 -64l-94 -65q-61 -43 -76 -91h-172q14 96 32.5 137.5t55.5 63.5zM758 1126h440l-194 -1106l-406 -34l2 127h-10 q-72 -133 -228 -133q-172 0 -252.5 93t-80.5 292q0 201 68.5 407.5t162.5 292.5q92 82 242 82q182 0 227 -137h8zM684 707q6 33 6 57q0 61 -53 61q-47 0 -72 -43q-31 -51 -58.5 -186t-27.5 -217q0 -43 13.5 -60.5t44.5 -17.5q41 0 63.5 27.5t34.5 95.5z" glyph-name="uni1EA3.aalt" horiz-adv-x="1196"/><glyph d="M557 1274l-4 -23h-225l10 60q29 160 113 235.5t280 75.5q160 0 245 -58.5t85 -193.5q0 -45 -8 -92l-4 -27h-226l2 17q6 37 6 51q0 39 -23.5 54.5t-80.5 15.5q-86 0 -123 -26t-47 -89zM758 1126h440l-194 -1106l-406 -34l2 127h-10q-72 -133 -228 -133q-172 0 -252.5 93 t-80.5 292q0 201 68.5 407.5t162.5 292.5q92 82 242 82q182 0 227 -137h8zM684 707q6 33 6 57q0 61 -53 61q-47 0 -72 -43q-31 -51 -58.5 -186t-27.5 -217q0 -43 13.5 -60.5t44.5 -17.5q41 0 63.5 27.5t34.5 95.5z" glyph-name="uni0203.aalt" horiz-adv-x="1196"/><glyph d="M1059 1591l-51 -286h-621l51 286h621zM758 1126h440l-194 -1106l-406 -34l2 127h-10q-72 -133 -228 -133q-172 0 -252.5 93t-80.5 292q0 201 68.5 407.5t162.5 292.5q92 82 242 82q182 0 227 -137h8zM684 707q6 33 6 57q0 61 -53 61q-47 0 -72 -43q-31 -51 -58.5 -186 t-27.5 -217q0 -43 13.5 -60.5t44.5 -17.5q41 0 63.5 27.5t34.5 95.5z" glyph-name="amacron.aalt" horiz-adv-x="1196"/><glyph d="M854 -186q-8 -51 28 -72t113 -21l27 -219q-43 -6 -119 -6q-172 0 -266 74t-68 229q20 106 121 195l-92 -8l2 127h-10q-72 -133 -228 -133q-172 0 -252.5 93t-80.5 292q0 201 68.5 407.5t162.5 292.5q92 82 242 82q182 0 227 -137h8l21 116h440l-194 -1106 q-127 -81 -150 -206zM684 707q6 33 6 57q0 61 -53 61q-47 0 -72 -43q-31 -51 -58.5 -186t-27.5 -217q0 -43 13.5 -60.5t44.5 -17.5q41 0 63.5 27.5t34.5 95.5z" glyph-name="aogonek.aalt" horiz-adv-x="1196"/><glyph d="M711 1233q-145 0 -205 53t-60 158q0 127 56 205q70 100 254 100q145 0 203.5 -53.5t58.5 -157.5q0 -127 -55 -207q-70 -98 -252 -98zM645 1561q-25 -35 -24 -95q0 -45 22.5 -65.5t77.5 -20.5q70 0 96 39q27 37 27 97q0 43 -22.5 63t-78.5 20q-69 1 -98 -38zM758 1126h440 l-194 -1106l-406 -34l2 127h-10q-72 -133 -228 -133q-172 0 -252.5 93t-80.5 292q0 201 68.5 407.5t162.5 292.5q92 82 242 82q182 0 227 -137h8zM684 707q6 33 6 57q0 61 -53 61q-47 0 -72 -43q-31 -51 -58.5 -186t-27.5 -217q0 -43 13.5 -60.5t44.5 -17.5q41 0 63.5 27.5 t34.5 95.5z" glyph-name="aring.aalt" horiz-adv-x="1196"/></font>
</defs>
</svg>
