<?xml version="1.0" standalone="no"?>
<!DOCTYPE svg PUBLIC "-//W3C//DTD SVG 1.1//EN" "http://www.w3.org/Graphics/SVG/1.1/DTD/svg11.dtd">
<svg xmlns="http://www.w3.org/2000/svg"><metadata>This SVG WebFont was generated by YouWorkForThem.
Copyright Â© 2017 by Jonathan Hill. All rights reserved.</metadata><defs><font horiz-adv-x="0" id="ywftsvg"><font-face ascent="1604" bbox="-1032 -643 2873 2509" cap-height="1434" descent="-444" font-family="" font-stretch="normal" font-weight="400" panose-1="0 0 5 0 0 0 0 0 0 0" underline-position="0" underline-thickness="0" unicode-range="U+0020-277E" units-per-em="2048" x-height="1126"/><missing-glyph d="M205 61v1229h819v-1229h-819zM348 205h533v942h-533v-942z" horiz-adv-x="1228"/><glyph d="M1171 1395q-92 0 -122.5 -49.5t-30.5 -192.5v-27h250v-149h-250v-977h-205v977h-397v-977h-205v977h-199v149h199v27q0 217 73.5 306t276.5 89q84 0 148 -14l-15 -154q-51 14 -125 15q-92 0 -122.5 -49.5t-30.5 -192.5v-27h397v27q0 217 74 306t276 89q82 0 148 -14 l-15 -154q-51 15 -125 15z" glyph-name="f_f.liga" horiz-adv-x="1290" unicode="ff"/><glyph d="M1403 1569h231v-232h-231v232zM1622 1126v-1126h-205v977h-399v-977h-205v977h-397v-977h-205v977h-199v149h199v27q0 217 73.5 306t276.5 89q84 0 148 -14l-15 -154q-51 14 -125 15q-92 0 -122.5 -49.5t-30.5 -192.5v-27h397v27q0 217 74 306t276 89q82 0 148 -14 l-15 -154q-51 14 -125 15q-92 0 -122.5 -49.5t-30.5 -192.5v-27h604z" glyph-name="f_f_i.liga" horiz-adv-x="1787" unicode="ffi"/><glyph d="M1810 143l13 -151q-53 -12 -129 -12q-168 0 -225.5 66.5t-57.5 260.5v670h-393v-977h-205v977h-397v-977h-205v977h-199v149h199v27q0 217 73.5 306t276.5 89q84 0 148 -14l-15 -154q-51 14 -125 15q-92 0 -122.5 -49.5t-30.5 -192.5v-27h397v27q0 217 74 306t276 89 q82 0 148 -14l-15 -154q-51 14 -125 15q-92 0 -122.5 -49.5t-30.5 -192.5v-27h393v410h205v-1233q0 -104 20.5 -137t83.5 -33q49 0 90 10z" glyph-name="f_f_l.liga" horiz-adv-x="1873" unicode="ffl"/><glyph d="M799 1569h231v-232h-231v232zM1018 1126v-1126h-205v977h-397v-977h-205v977h-199v149h199v27q0 217 73.5 306t276.5 89q84 0 148 -14l-15 -154q-51 14 -125 15q-92 0 -122.5 -49.5t-30.5 -192.5v-27h602z" glyph-name="f_i.liga" horiz-adv-x="1171" unicode="fi"/><glyph d="M1208 143l13 -151q-53 -12 -129 -12q-168 0 -225.5 66.5t-57.5 260.5v670h-393v-977h-205v977h-199v149h199v27q0 217 73.5 306t276.5 89q84 0 148 -14l-15 -154q-51 14 -125 15q-92 0 -122.5 -49.5t-30.5 -192.5v-27h393v410h205v-1233q0 -104 20.5 -137t83.5 -33 q49 0 90 10z" glyph-name="f_l.liga" horiz-adv-x="1271" unicode="fl"/><glyph d="M205 61v1229h819v-1229h-819zM348 205h533v942h-533v-942z" glyph-name=".notdef" horiz-adv-x="1228"/><glyph glyph-name="glyph1"/><glyph glyph-name="glyph2" horiz-adv-x="681"/><glyph glyph-name="space" horiz-adv-x="512" unicode=" "/><glyph d="M256 442l-35 992h234l-35 -992h-164zM221 0v231h232v-231h-232z" glyph-name="exclam" horiz-adv-x="675" unicode="!"/><glyph d="M438 1536l-28 -543h-160l-29 543h217zM774 1536l-29 -543h-159l-29 543h217z" glyph-name="quotedbl" horiz-adv-x="995" unicode="&quot;"/><glyph d="M1167 922h-182l-67 -373h188l-35 -174h-184l-66 -375h-192l65 375h-219l-65 -375h-193l66 375h-185l35 174h180l68 373h-186l34 174h183l59 338h193l-60 -338h219l60 338h192l-59 -338h186zM725 549l68 373h-220l-67 -373h219z" glyph-name="numbersign" horiz-adv-x="1298" unicode="#"/><glyph d="M977 362q0 -297 -291 -364v-231h-197v213q-147 4 -352 40l17 183q244 -43 360 -43q131 0 185.5 44t54.5 154q0 68 -19.5 106t-64.5 71l-355 264q-143 106 -143 299q0 301 317 346v223h197v-215q106 -2 260 -27l-16 -180q-188 29 -307 29q-125 0 -176.5 -42t-51.5 -128 q0 -111 68 -160l340 -252q174 -129 174 -330z" glyph-name="dollar" horiz-adv-x="1118" unicode="$"/><glyph d="M317 -20l871 1474h196l-872 -1474h-195zM428 602q-166 0 -228.5 101.5t-62.5 310.5q0 246 67.5 339t209.5 93q166 0 227 -101.5t61 -310.5q0 -248 -67.5 -340t-206.5 -92zM422 756q59 0 81.5 50t22.5 218t-22.5 218t-85.5 50q-59 0 -82 -50t-23 -218q0 -166 23 -217 t86 -51zM1298 -12q-166 0 -228 101t-62 310q0 246 67.5 339t208.5 93q166 0 227.5 -101t61.5 -310q0 -248 -67 -340t-208 -92zM1292 141q41 0 61.5 17.5t32 76t11.5 175.5q0 166 -22.5 217t-84 51t-84 -51.5t-22.5 -216.5q0 -168 22.5 -218.5t85.5 -50.5z" glyph-name="percent" horiz-adv-x="1710" unicode="%"/><glyph d="M1430 0h-285l-150 162q-55 -111 -147 -146.5t-227 -35.5q-270 0 -368.5 88t-98.5 286q0 106 22.5 163.5t83.5 107.5l172 141l-84 90q-111 119 -110 281q0 178 102 247.5t287 69.5q213 0 296 -74.5t83 -222.5q0 -193 -125 -283l-162 -116l217 -234l178 355h209l-236 -514z M625 1274q-98 0 -131 -26.5t-33 -108.5q0 -106 45 -156l102 -109l119 125q35 35 45 61.5t10 72.5q0 86 -30.5 113.5t-126.5 27.5zM797 248l41 82l-289 311l-131 -143q-41 -43 -41 -140q0 -117 46 -157.5t185 -40.5q90 0 126 17.5t63 70.5z" glyph-name="ampersand" horiz-adv-x="1492" unicode="&amp;"/><glyph d="M438 1536l-28 -543h-160l-29 543h217z" glyph-name="quotesingle" horiz-adv-x="659" unicode="'"/><glyph d="M637 -365q-150 33 -253 116t-159.5 216t-80 290t-23.5 368q0 342 62.5 558t171 317.5t282.5 139.5v-196q-160 -59 -226.5 -244.5t-66.5 -562.5q0 -375 66.5 -561.5t226.5 -245.5v-195z" glyph-name="parenleft" horiz-adv-x="686" unicode="("/><glyph d="M49 -365v195q160 59 226.5 245.5t66.5 561.5q0 377 -66.5 562t-226.5 245v196q174 -39 282.5 -140t171 -317t62.5 -558q0 -211 -23.5 -368t-79.5 -290t-159.5 -216t-253.5 -116z" glyph-name="parenright" horiz-adv-x="686" unicode=")"/><glyph d="M991 1149l-313 -84l205 -252l-152 -111l-178 273l-178 -273l-150 111l205 252l-315 84l57 178l303 -115l-16 324h188l-16 -324l303 115z" glyph-name="asterisk" horiz-adv-x="1107" unicode="*"/><glyph d="M1094 662v-175h-373v-372h-174v372h-373v175h373v374h174v-374h373z" glyph-name="plus" horiz-adv-x="1269" unicode="+"/><glyph d="M236 256h239v-256l-98 -369h-129l98 369h-110v256z" glyph-name="comma" horiz-adv-x="710" unicode=","/><glyph d="M168 721h537v-174h-537v174z" glyph-name="hyphen" horiz-adv-x="872" unicode="-"/><glyph d="M236 0v256h239v-256h-239z" glyph-name="period" horiz-adv-x="710" unicode="."/><glyph d="M-10 -102l547 1638h196l-547 -1638h-196z" glyph-name="slash" horiz-adv-x="722" unicode="/"/><glyph d="M625 -20q-274 0 -378 174t-104 540q0 211 31 353.5t95.5 221.5t149.5 111.5t206 32.5q274 0 376.5 -175t102.5 -544q0 -211 -31 -352t-95.5 -220t-148 -110.5t-204.5 -31.5zM625 160q98 0 150 44t79 159.5t27 330.5q0 315 -55.5 427t-201 112t-201.5 -110.5t-56 -428.5 q0 -311 56.5 -422.5t201.5 -111.5z" glyph-name="zero" horiz-adv-x="1247" unicode="0"/><glyph d="M555 174h279v-174h-795v174h299v1057l-289 -78l-26 156l315 84h217v-1219z" glyph-name="one" horiz-adv-x="894" unicode="1"/><glyph d="M461 496q-80 -66 -117 -133.5t-37 -188.5h623v-174h-846v174q0 156 54.5 256t191.5 211l307 248q70 55 70 166q0 100 -54.5 139t-175.5 39q-111 0 -307 -29l-14 180q188 29 317 29q457 0 457 -356q0 -182 -144 -299z" glyph-name="two" horiz-adv-x="1036" unicode="2"/><glyph d="M723 719q111 -39 155 -120t44 -212q0 -233 -123 -320t-383 -87q-231 0 -346 49l16 178q109 -47 330 -47q176 0 229 47t53 199q0 143 -51 188t-223 45h-170v174h170q150 0 192.5 38t42.5 165q0 135 -47 176t-200 41q-209 0 -303 -43l-17 178q98 45 314 45q260 0 368.5 -87 t108.5 -282q0 -238 -160 -311v-14z" glyph-name="three" horiz-adv-x="1058" unicode="3"/><glyph d="M1081 520v-174h-196v-346h-217v346h-600v238l440 809h219l-442 -815v-58h383v473h217v-473h196z" glyph-name="four" horiz-adv-x="1130" unicode="4"/><glyph d="M485 864q272 0 372.5 -104.5t100.5 -317.5q0 -264 -122.5 -363t-386.5 -99q-227 0 -343 49l17 178q109 -47 326 -47q182 0 234 51t52 211q0 166 -51 217t-223 51h-287l25 703h710v-174h-499l-13 -355h88z" glyph-name="five" horiz-adv-x="1073" unicode="5"/><glyph d="M635 850q197 0 295 -93t98 -333q0 -252 -111.5 -348t-345.5 -96q-270 0 -371.5 105t-101.5 331q0 272 189 592q117 199 293 385h235q-207 -213 -342 -435q-47 -76 -82 -149h15q88 41 229 41zM565 160q147 0 193.5 52t46.5 216q0 147 -43 194.5t-192.5 47.5t-198.5 -50.5 t-49 -204t49 -204.5t194 -51z" glyph-name="six" horiz-adv-x="1112" unicode="6"/><glyph d="M45 1393h813v-219l-541 -1174h-215l539 1165v54h-596v174z" glyph-name="seven" horiz-adv-x="909" unicode="7"/><glyph d="M930 719q113 -39 158 -120t45 -206q0 -236 -121 -324.5t-375 -88.5q-285 0 -392.5 100t-107.5 313q0 254 203 328v14q-164 72 -164 301q0 219 111.5 298t349.5 79q262 0 360.5 -95t98.5 -292q0 -219 -166 -293v-14zM637 1233q-143 0 -190.5 -41t-47.5 -166 q0 -137 41 -175t197 -38q152 0 193.5 38t41.5 175q0 125 -47 166t-188 41zM637 160q164 0 218 47t54 186q0 156 -49 201t-223 45q-176 0 -226.5 -45t-50.5 -201q0 -139 55.5 -186t221.5 -47z" glyph-name="eight" horiz-adv-x="1269" unicode="8"/><glyph d="M539 1413q270 0 371.5 -105.5t101.5 -330.5q0 -272 -189 -592q-119 -203 -295 -385h-233q207 213 342 434q49 78 80 148h-19q-80 -39 -223 -39q-197 0 -295 93t-98 333q0 252 112 348t345 96zM305 965q0 -147 43 -194.5t192.5 -47.5t198.5 50t49 203.5t-49 205t-194 51.5 q-147 0 -193.5 -52t-46.5 -216z" glyph-name="nine" horiz-adv-x="1110" unicode="9"/><glyph d="M236 870v256h239v-256h-239zM236 0v256h239v-256h-239z" glyph-name="colon" horiz-adv-x="710" unicode=":"/><glyph d="M236 1126h239v-256h-239v256zM236 0v256h239v-256l-98 -369h-129l98 369h-110z" glyph-name="semicolon" horiz-adv-x="710" unicode=";"/><glyph d="M1073 881l-704 -287v-23l704 -284v-215l-878 379v264l878 381v-215z" glyph-name="less" horiz-adv-x="1269" unicode="&lt;"/><glyph d="M188 672v174h893v-174h-893zM188 309v174h893v-174h-893z" glyph-name="equal" horiz-adv-x="1269" unicode="="/><glyph d="M195 1096l878 -381v-264l-878 -379v215l704 284v23l-704 287v215z" glyph-name="greater" horiz-adv-x="1269" unicode=">"/><glyph d="M262 442l-2 88q-4 162 22.5 234t153.5 168l94 72q63 47 64 129q0 84 -40 112.5t-157 28.5q-109 0 -286 -27l-17 180q172 27 295 27q428 0 428 -319q0 -92 -33.5 -149.5t-103.5 -113.5l-107 -84q-55 -43 -78.5 -67.5t-44 -75.5t-22.5 -129l-2 -74h-164zM227 0v231h232 v-231h-232z" glyph-name="question" horiz-adv-x="901" unicode="?"/><glyph d="M942 1454q233 0 396 -62.5t254 -185.5t130 -280.5t39 -372.5q0 -211 -45 -337t-116.5 -171t-182.5 -45q-115 0 -276 78l-15 84h-12q-61 -88 -215 -88q-184 0 -271 117.5t-87 363.5t85 366.5t281 120.5q125 0 191 -73h8v73h205v-852q57 -27 94 -26q86 0 115.5 85t29.5 306 q0 414 -128 579.5t-461 165.5q-324 0 -456 -166.5t-132 -580.5t132 -581t456 -167q184 0 313 62l12 -158q-141 -57 -338 -57q-184 0 -322.5 44t-225.5 119.5t-141 191.5t-75.5 245t-21.5 293q0 213 38 371.5t103.5 261t165.5 165t214 87t259 24.5zM934 215q92 0 131 48 t41 157v274q-2 113 -42 160t-130 47q-102 0 -143 -72.5t-41 -271.5q0 -195 39 -268.5t145 -73.5z" glyph-name="at" horiz-adv-x="1906" unicode="@"/><glyph d="M979 0l-100 383h-502l-101 -383h-229l404 1434h354l403 -1434h-229zM422 557h412l-185 703h-43z" glyph-name="A" horiz-adv-x="1255" unicode="A"/><glyph d="M911 739q109 -35 157 -114.5t48 -223.5q0 -233 -122 -317t-398 -84h-385v1434h350q293 0 406.5 -72t113.5 -270q0 -248 -170 -328v-25zM561 1274h-133v-449h133q176 0 236.5 49.5t60.5 178.5q0 131 -60.5 176t-236.5 45zM596 160q172 0 234.5 55t62.5 188 q0 152 -67.5 207.5t-229.5 55.5h-168v-506h168z" glyph-name="B" horiz-adv-x="1259" unicode="B"/><glyph d="M694 -20q-311 0 -430 178t-119 549q0 221 35 369.5t106.5 230.5t167 114.5t232.5 32.5q156 0 262 -43l-16 -178q-96 41 -236 41q-129 0 -196.5 -46t-99 -165t-31.5 -346q0 -225 31.5 -344t99 -166t196.5 -47q143 0 236 43l31 -174q-105 -49 -269 -49z" glyph-name="C" horiz-adv-x="1044" unicode="C"/><glyph d="M664 1434q281 0 411.5 -168t130.5 -549q0 -371 -127 -544t-415 -173h-453v1434h453zM664 160q174 0 246.5 125t72.5 432t-72.5 432t-246.5 125h-236v-1114h236z" glyph-name="D" horiz-adv-x="1343" unicode="D"/><glyph d="M428 174h553v-174h-770v1434h745v-174h-528v-431h498v-174h-498v-481z" glyph-name="E" horiz-adv-x="1089" unicode="E"/><glyph d="M924 1260h-496v-472h459v-174h-459v-614h-217v1434h713v-174z" glyph-name="F" horiz-adv-x="1015" unicode="F"/><glyph d="M1126 815v-815l-161 -14l-25 135h-18q-98 -141 -308 -141q-137 0 -230 52t-144.5 156.5t-73 233.5t-21.5 309q0 221 37 364.5t115 221.5t178 107.5t250 29.5q199 0 317 -39l-16 -184q-125 43 -324 43q-133 0 -200.5 -44t-100 -164t-32.5 -353q0 -332 60 -442.5 t241 -110.5q121 0 186.5 59.5t65.5 214.5v207h-236v174h440z" glyph-name="G" horiz-adv-x="1280" unicode="G"/><glyph d="M987 1434h217v-1434h-217v655h-559v-655h-217v1434h217v-605h559v605z" glyph-name="H" horiz-adv-x="1415" unicode="H"/><glyph d="M428 1434v-1434h-217v1434h217z" glyph-name="I" horiz-adv-x="638" unicode="I"/><glyph d="M176 -20q-84 0 -149 16l14 176q51 -12 117 -12q78 0 102.5 36.5t24.5 145.5v1092h217v-1092q0 -213 -64.5 -287.5t-261.5 -74.5z" glyph-name="J" horiz-adv-x="706" unicode="J"/><glyph d="M934 0l-422 655h-84v-655h-217v1434h217v-605h86l391 605h250l-477 -691l506 -743h-250z" glyph-name="K" horiz-adv-x="1214" unicode="K"/><glyph d="M428 174h455v-174h-672v1434h217v-1260z" glyph-name="L" horiz-adv-x="944" unicode="L"/><glyph d="M1456 1434v-1434h-217v1260h-20l-234 -926h-303l-236 926h-18v-1260h-217v1434h379l235 -926h17l235 926h379z" glyph-name="M" horiz-adv-x="1667" unicode="M"/><glyph d="M1004 1434h215v-1434h-402l-377 1260h-14v-1260h-215v1434h401l379 -1260h13v1260z" glyph-name="N" horiz-adv-x="1429" unicode="N"/><glyph d="M692 -20q-311 0 -429 180t-118 557q0 217 35 363.5t108.5 227.5t169 113.5t234.5 32.5q309 0 426 -179t117 -558q0 -217 -35 -363.5t-107.5 -227.5t-168 -113.5t-232.5 -32.5zM692 160q182 0 251 114.5t69 442.5q0 326 -67.5 441.5t-252.5 115.5q-186 0 -254.5 -113.5 t-68.5 -443.5q0 -326 69.5 -441.5t253.5 -115.5z" glyph-name="O" horiz-adv-x="1380" unicode="O"/><glyph d="M549 1434q205 0 320.5 -46.5t157.5 -131.5t42 -230q0 -260 -125 -372.5t-395 -112.5h-121v-541h-217v1434h338zM549 700q170 0 233.5 70t63.5 236q0 156 -60.5 212t-236.5 56h-121v-574h121z" glyph-name="P" horiz-adv-x="1163" unicode="P"/><glyph d="M926 -203q98 0 174 31l14 -152q-82 -33 -192 -32q-193 0 -257.5 68.5t-66.5 273.5q-256 29 -354.5 204t-98.5 510q0 223 35 374t106.5 233t165 114.5t226.5 32.5q166 0 276.5 -47t171 -143.5t85 -221t24.5 -305.5q0 -391 -106.5 -560t-325.5 -193q2 -115 25.5 -151 t97.5 -36zM369 716.5q0 -327.5 68.5 -442t254.5 -114.5q182 0 251 113.5t69 445.5q0 326 -69 440.5t-253 114.5t-252.5 -115t-68.5 -442.5z" glyph-name="Q" horiz-adv-x="1380" unicode="Q"/><glyph d="M1204 0h-246l-333 592q-25 -2 -76 -2h-121v-590h-217v1434h338q301 0 410.5 -95.5t109.5 -314.5q0 -317 -244 -399zM428 750h121q170 0 233.5 57t63.5 209q0 147 -62.5 202.5t-234.5 55.5h-121v-524z" glyph-name="R" horiz-adv-x="1247" unicode="R"/><glyph d="M449 -20q-152 0 -355 36l17 185q219 -41 338 -41q131 0 185 44t54 154q0 68 -19.5 106t-64.5 71l-354 264q-143 106 -144 299q0 356 457 356q129 0 318 -29l-17 -180q-188 29 -307 29q-125 0 -176 -42t-51 -128q0 -111 67 -160l340 -252q174 -129 174 -330 q0 -190 -120.5 -286t-341.5 -96z" glyph-name="S" horiz-adv-x="1015" unicode="S"/><glyph d="M913 1434v-174h-331v-1260h-217v1260h-334v174h882z" glyph-name="T" horiz-adv-x="944" unicode="T"/><glyph d="M694 -20q-295 0 -398 120.5t-103 425.5v908h217v-908q0 -219 57 -292.5t219 -73.5t218.5 73.5t56.5 292.5v908h217v-908q0 -319 -108 -432.5t-376 -113.5z" glyph-name="U" horiz-adv-x="1370" unicode="U"/><glyph d="M942 1434h227l-385 -1434h-348l-385 1434h228l319 -1260h27z" glyph-name="V" horiz-adv-x="1220" unicode="V"/><glyph d="M1559 1434h229l-246 -1434h-379l-202 1260h-46l-202 -1260h-381l-244 1434h227l195 -1260h47l203 1260h356l201 -1260h49z" glyph-name="W" horiz-adv-x="1875" unicode="W"/><glyph d="M870 0l-278 594h-27l-276 -594h-242l377 741l-352 693h241l254 -543h25l254 543h239l-352 -693l377 -741h-240z" glyph-name="X" horiz-adv-x="1157" unicode="X"/><glyph d="M1151 1434l-465 -861v-573h-217v575l-451 859h242l307 -629h25l317 629h242z" glyph-name="Y" horiz-adv-x="1169" unicode="Y"/><glyph d="M143 1434h787v-246l-633 -961v-53h616v-174h-833v252l633 960v48h-570v174z" glyph-name="Z" horiz-adv-x="1021" unicode="Z"/><glyph d="M666 1434h-246v-1588h246v-174h-463v1936h463v-174z" glyph-name="bracketleft" horiz-adv-x="708" unicode="["/><glyph d="M733 -102h-196l-547 1638h196z" glyph-name="backslash" horiz-adv-x="722" unicode="\"/><glyph d="M506 1608v-1936h-463v174h246v1588h-246v174h463z" glyph-name="bracketright" horiz-adv-x="708" unicode="]"/><glyph d="M801 567l-236 752h-28l-238 -752h-197l312 906h274l309 -906h-196z" glyph-name="asciicircum" horiz-adv-x="1099" unicode="^"/><glyph d="M236 -135h1044v-150h-1044v150z" glyph-name="underscore" horiz-adv-x="1515" unicode="_"/><glyph d="M303 1296l-256 408h217l211 -408h-172z" glyph-name="grave" horiz-adv-x="540" unicode="`"/><glyph d="M524 1147q176 0 269.5 -87t93.5 -296v-764l-164 -14l-23 129h-16q-76 -135 -268 -135q-170 0 -256 89t-86 242q0 156 85 245t249 89h274v119q0 125 -49 177t-152 52q-86 0 -309 -49l-27 150q242 53 379 53zM457 133q115 0 170 60.5t55 214.5v84h-233q-84 0 -125 -40 t-41 -140.5t43 -139.5t131 -39z" glyph-name="a" horiz-adv-x="1040" unicode="a"/><glyph d="M633 1147q213 0 323.5 -135t110.5 -459q0 -274 -94 -423.5t-326 -149.5q-203 0 -276 135h-17l-22 -129l-164 14v1536h205v-492h12q68 103 248 103zM606 133q143 0 196.5 89t53.5 339q0 254 -54 343t-198 89q-117 0 -174 -58t-57 -216v-311q0 -156 56 -215.5t177 -59.5z " glyph-name="b" horiz-adv-x="1179" unicode="b"/><glyph d="M586 -20q-242 0 -357.5 125.5t-115.5 457.5t115.5 458t359.5 126q117 0 200 -27l-14 -151q-76 25 -182 24q-162 0 -215 -85t-53 -345q0 -258 53 -344t215 -86q117 0 192 25l15 -152q-82 -26 -213 -26z" glyph-name="c" horiz-adv-x="901" unicode="c"/><glyph d="M807 1536h205v-1536l-164 -14l-23 129h-16q-74 -135 -277 -135q-231 0 -325 149.5t-94 423.5q0 324 110.5 459t323.5 135q180 0 248 -103h12v492zM573 133q121 0 177.5 59.5t56.5 215.5v311q0 158 -57.5 216t-174.5 58q-143 0 -197 -89t-54 -343q0 -250 53 -339t196 -89z " glyph-name="d" horiz-adv-x="1179" unicode="d"/><glyph d="M319 494q8 -195 77 -278t212 -83q119 0 344 60l25 -144q-221 -70 -391 -69q-479 0 -480 583q0 330 119 457t357 127q133 0 219 -37t132 -117t62.5 -179t16.5 -251q0 -47 -2 -69h-691zM582 993q-133 0 -193.5 -72.5t-69.5 -277.5h482q-4 209 -48 279.5t-171 70.5z" glyph-name="e" horiz-adv-x="1118" unicode="e"/><glyph d="M569 1395q-92 0 -122.5 -49.5t-30.5 -192.5v-27h248v-149h-248v-977h-205v977h-199v149h199v27q0 217 73.5 306t276.5 89q84 0 148 -14l-15 -154q-51 15 -125 15z" glyph-name="f" horiz-adv-x="688" unicode="f"/><glyph d="M584 252q283 0 388 -79t105 -236q0 -186 -118.5 -256t-374.5 -70q-279 0 -385.5 67.5t-106.5 217.5q0 178 156 229v12q-113 55 -113 160q0 82 96 164l5 4q-100 84 -101 287q0 225 101.5 310t312.5 85q119 0 199 -21h311l10 -133l-143 -24q55 -63 55 -197 q0 -225 -100.5 -309t-311.5 -84q-123 0 -198 20l-23 -18q-31 -25 -31 -64q0 -66 105 -65h162zM561 993q-127 0 -171 -47t-44 -184q0 -139 43 -184.5t170 -45.5t169 45.5t42 184.5t-42 185t-167 46zM590 -236q162 0 219 35t57 135q0 96 -56 130t-224 34h-70q-121 -8 -167 -53 t-46 -137q0 -80 58.5 -112t228.5 -32z" glyph-name="g" horiz-adv-x="1138" unicode="g"/><glyph d="M682 1147q203 0 276.5 -95.5t73.5 -328.5v-723h-205v719q0 152 -46 213t-175 61q-121 0 -177 -60.5t-56 -213.5v-719h-205v1536h205v-498h18q82 109 291 109z" glyph-name="h" horiz-adv-x="1187" unicode="h"/><glyph d="M154 1569h231v-232h-231v232zM373 1126v-1126h-205v1126h205z" glyph-name="i" horiz-adv-x="538" unicode="i"/><glyph d="M156 1337v232h231v-232h-231zM57 -389q-82 0 -139 14l14 152q49 -12 113 -13q76 0 99.5 40t23.5 169v1153h205v-1153q0 -215 -64 -287.5t-252 -74.5z" glyph-name="j" horiz-adv-x="559" unicode="j"/><glyph d="M838 0l-394 545h-71v-545h-205v1536h205v-842h65l369 432h246l-449 -503l469 -623h-235z" glyph-name="k" horiz-adv-x="1073" unicode="k"/><glyph d="M444 -20q-168 0 -225 66.5t-57 260.5v1229h205v-1233q0 -104 20.5 -137t83.5 -33q49 0 90 10l12 -151q-53 -12 -129 -12z" glyph-name="l" horiz-adv-x="624" unicode="l"/><glyph d="M1288 1147q195 0 264.5 -95.5t69.5 -328.5v-723h-205v719q0 152 -41 213t-162 61q-113 0 -165 -60.5t-52 -213.5v-719h-204v719q0 152 -41 213t-162 61q-113 0 -165 -60.5t-52 -213.5v-719h-205v1126l164 15l22 -129h17q74 135 293 135q225 0 290 -141h19q84 141 315 141 z" glyph-name="m" horiz-adv-x="1777" unicode="m"/><glyph d="M682 1147q203 0 276.5 -95.5t73.5 -328.5v-723h-205v719q0 152 -46 213t-175 61q-121 0 -177 -60.5t-56 -213.5v-719h-205v1126l164 15l22 -127h21q78 133 307 133z" glyph-name="n" horiz-adv-x="1187" unicode="n"/><glyph d="M590 -20q-272 0 -374.5 142t-102.5 441q0 334 115.5 459t361.5 125q272 0 373.5 -142.5t101.5 -441.5q0 -334 -115.5 -458.5t-359.5 -124.5zM590 133q158 0 211 86t53 344t-53 344t-211 86q-160 0 -213 -86t-53 -344t53 -344t213 -86z" glyph-name="o" horiz-adv-x="1177" unicode="o"/><glyph d="M647 1147q231 0 325.5 -149.5t94.5 -424.5q0 -324 -110.5 -458.5t-323.5 -134.5q-170 0 -242 92h-18v-441h-205v1495l164 15l22 -125h19q77 131 274 131zM604 133q143 0 197.5 89t54.5 343q0 250 -53 339t-197 89q-121 0 -177 -59.5t-56 -214.5v-311q0 -158 57 -216.5 t174 -58.5z" glyph-name="p" horiz-adv-x="1179" unicode="p"/><glyph d="M848 1141l164 -15v-1495h-205v441h-19q-72 -92 -241 -92q-213 0 -323.5 135t-110.5 458q0 274 94 424t325 150q197 0 275 -131h18zM324 565q0 -254 54 -343t197 -89q117 0 174.5 58.5t57.5 216.5v311q0 156 -56.5 215t-177.5 59q-143 0 -196 -89t-53 -339z" glyph-name="q" horiz-adv-x="1179" unicode="q"/><glyph d="M688 1147q35 0 47 -2l-16 -187q-45 20 -113 21q-119 0 -176 -72.5t-57 -261.5v-645h-205v1126l164 15l24 -146h19q82 152 313 152z" glyph-name="r" horiz-adv-x="745" unicode="r"/><glyph d="M377 -20q-121 0 -285 24l14 156q160 -27 265 -27q102 0 146 32t44 111q0 88 -67 138l-279 204q-115 84 -115 238q0 291 361 291q113 0 268 -27l-14 -155q-162 29 -252 28q-84 0 -118 -31.5t-34 -101.5q0 -49 13.5 -72.5t46.5 -46.5l247 -182q80 -57 117 -120.5t37 -151.5 q0 -152 -104.5 -229.5t-290.5 -77.5z" glyph-name="s" horiz-adv-x="854" unicode="s"/><glyph d="M643 977h-227v-674q0 -104 20.5 -137t83.5 -33q51 0 88 10l15 -151q-53 -12 -129 -12q-168 0 -225.5 66.5t-57.5 260.5v670h-186v149h186v273h205v-273h227v-149z" glyph-name="t" horiz-adv-x="724" unicode="t"/><glyph d="M815 1126h205v-1126l-164 -14l-22 129h-19q-78 -135 -309 -135q-203 0 -276.5 95t-73.5 328v723h204v-718q0 -152 46.5 -213.5t175.5 -61.5q121 0 177 60.5t56 214.5v718z" glyph-name="u" horiz-adv-x="1187" unicode="u"/><glyph d="M786 1126h215l-325 -1126h-330l-326 1126h216l260 -972h30z" glyph-name="v" horiz-adv-x="1021" unicode="v"/><glyph d="M1501 1126h215l-280 -1126h-312l-239 973h-19l-241 -973h-310l-280 1126h215l221 -972h23l221 972h321l219 -972h25z" glyph-name="w" horiz-adv-x="1751" unicode="w"/><glyph d="M811 0l-276 463h-27l-277 -463h-231l393 594l-352 532h231l236 -393h27l235 393h234l-353 -532l393 -594h-233z" glyph-name="x" horiz-adv-x="1044" unicode="x"/><glyph d="M782 1126h215l-348 -1202q-45 -158 -142 -235.5t-263 -77.5q-63 0 -138 12l15 152q63 -10 115 -11q96 0 149 39t86 164l8 33h-137l-317 1126h215l254 -972h26z" glyph-name="y" horiz-adv-x="1017" unicode="y"/><glyph d="M266 154h582v-154h-787v213l564 711v49h-531v153h733v-219l-561 -708v-45z" glyph-name="z" horiz-adv-x="909" unicode="z"/><glyph d="M645 -156l14 -151q-68 -25 -172 -25q-166 0 -223 67.5t-57 260.5v387q0 104 -20.5 137t-84.5 33v174q63 0 84 33t21 135v385q0 195 56 261.5t224 66.5q104 0 170 -25l-12 -149q-57 20 -129 20q-63 0 -83.5 -32.5t-20.5 -139.5v-381q0 -111 -23.5 -170t-85.5 -86v-10 q61 -29 85 -88.5t24 -167.5v-385q0 -104 20.5 -138t83.5 -34q76 -1 129 22z" glyph-name="braceleft" horiz-adv-x="698" unicode="{"/><glyph d="M436 1653v-2042h-184v2042h184z" glyph-name="bar" horiz-adv-x="688" unicode="|"/><glyph d="M492 895q0 -102 20 -135t84 -33v-174q-63 0 -83.5 -33t-20.5 -137v-387q0 -193 -57.5 -260.5t-225.5 -67.5q-102 0 -170 25l12 151q55 -23 131 -22q63 0 84 33.5t21 138.5v385q0 109 22.5 167t83.5 87v14q-59 27 -82.5 86.5t-23.5 167.5v381q0 106 -20.5 139t-84.5 33 q-70 0 -131 -20l-12 149q68 25 172 25q168 0 224.5 -66.5t56.5 -261.5v-385z" glyph-name="braceright" horiz-adv-x="698" unicode="}"/><glyph d="M315 473l-125 41q0 104 73 193.5t183 89.5q78 0 162 -49l140 -82q39 -23 73 -23q98 0 133 164l125 -41q-2 -104 -73.5 -193.5t-184.5 -89.5q-80 0 -162 49l-139 82q-37 23 -74 23q-100 0 -131 -164z" glyph-name="asciitilde" horiz-adv-x="1269" unicode="~"/><glyph glyph-name="uni00A0" horiz-adv-x="512" unicode=" "/><glyph d="M221 1065h232v-231h-232v231zM256 623h164l35 -992h-234z" glyph-name="exclamdown" horiz-adv-x="675" unicode="¡"/><glyph d="M852 6q-70 -23 -176 -26v-197h-184v209q-164 33 -245 164t-81 407.5t81 407.5t245 164v208h184v-196q90 -2 166 -27l-15 -151q-76 25 -182 24q-162 0 -215 -85t-53 -345q0 -258 53 -344t215 -86q117 0 193 25z" glyph-name="cent" horiz-adv-x="995" unicode="¢"/><glyph d="M414 174h671v-174h-925v174q102 47 143 173t43 333h-186v174h184q-4 115 -4 158q0 238 84 340t315 102q117 0 281 -29l-16 -182q-168 31 -263 31q-104 0 -141 -52.5t-37 -201.5q0 -43 4 -166h373v-174h-373q-10 -350 -153 -494v-12z" glyph-name="sterling" horiz-adv-x="1216" unicode="£"/><glyph d="M774 698v-16h328v-150h-328v-112h328v-150h-328v-270h-217v270h-328v150h328v112h-328v150h328v20l-451 732h242l320 -555l329 555h242z" glyph-name="yen" horiz-adv-x="1339" unicode="¥"/><glyph d="M252 854v799h184v-799h-184zM252 -389v799h184v-799h-184z" glyph-name="brokenbar" horiz-adv-x="688" unicode="¦"/><glyph d="M838 229q70 -55 97.5 -113.5t27.5 -150.5q0 -170 -114 -262t-331 -92q-141 0 -364 37l16 182q233 -39 344 -39q131 0 178 42t47 136q0 57 -16 88t-64 64l-335 231q-137 94 -138 264q0 174 154 240v10l-16 13q-137 94 -138 262q0 313 437 313q117 0 301 -24l-17 -183 q-178 27 -295 27q-119 0 -160.5 -27.5t-41.5 -107.5q0 -86 67 -131l309 -213q100 -70 138.5 -135.5t38.5 -167.5q0 -170 -125 -248v-15zM410 612q0 -55 16 -80.5t51 -48.5l197 -137q66 37 65 148q0 59 -17 89.5t-63 63.5l-139 96q-59 -8 -84.5 -39t-25.5 -92z" glyph-name="section" horiz-adv-x="1132" unicode="§"/><glyph d="M168 1569h229v-230h-229v230zM612 1569h230v-230h-230v230z" glyph-name="dieresis" horiz-adv-x="1009" unicode="¨"/><glyph d="M868.5 -20q-319.5 0 -522.5 210.5t-203 526t203 526.5t522.5 211t523 -211t203.5 -526.5t-203.5 -526t-523 -210.5zM868 102q256 0 423 173.5t167 441.5t-167 441t-423 173t-421.5 -172t-165.5 -442.5t165.5 -442.5t421.5 -172zM905 324q-168 0 -233.5 96t-65.5 293 q0 217 67.5 308t229.5 91q88 0 148 -27l-11 -108q-47 29 -133 29q-96 0 -129 -59.5t-33 -227.5q0 -170 34 -229.5t128 -59.5q78 0 133 29l19 -107q-62 -28 -154 -28z" glyph-name="copyright" horiz-adv-x="1738" unicode="©"/><glyph d="M422 1444q133 0 195.5 -65.5t62.5 -204.5v-533l-127 -10l-14 78h-11q-57 -82 -182 -82q-117 0 -180.5 61.5t-63.5 174t62.5 174t175.5 61.5h182v76q0 82 -30.5 116.5t-100.5 34.5q-61 0 -219 -35l-20 115q170 39 270 39zM375 745q78 0 111.5 40t35.5 130v64h-153 q-55 0 -81 -27.5t-26 -89.5q0 -63 26 -90t87 -27z" glyph-name="ordfeminine" horiz-adv-x="837" unicode="ª"/><glyph d="M70 670l419 403v-215l-270 -285l270 -284v-217l-419 405v193zM963 1073v-215l-271 -285l271 -284v-217l-420 405v193z" glyph-name="guillemotleft" horiz-adv-x="1089" unicode="«"/><glyph d="M627 1444q211 0 347 -144.5t136 -353.5q0 -211 -136 -355.5t-347 -144.5t-347.5 144.5t-136.5 355.5q0 209 136.5 353.5t347.5 144.5zM627 528q170 0 281.5 119t111.5 299t-111.5 298t-281.5 118t-280.5 -118t-110.5 -298q0 -182 110.5 -300t280.5 -118zM778 1059 q0 -113 -82 -144l133 -219h-100l-117 207h-57v-207h-90v510h125q109 0 148.5 -34.5t39.5 -112.5zM555 1143v-176h35q57 0 77.5 19.5t20.5 70.5q0 49 -20.5 67.5t-77.5 18.5h-35z" glyph-name="registered" horiz-adv-x="1253" unicode="®"/><glyph d="M168 1524h618v-150h-618v150z" glyph-name="macron" horiz-adv-x="954" unicode="¯"/><glyph d="M528.5 881q-147.5 0 -243 94t-95.5 233q0 137 95.5 232.5t243 95.5t242.5 -95t95 -233q0 -139 -95 -233t-242.5 -94zM528 1014q82 0 135.5 56t53.5 138t-52.5 137.5t-136.5 55.5q-82 0 -135 -56.5t-53 -136.5q0 -82 53 -138t135 -56z" glyph-name="degree" horiz-adv-x="1056" unicode="°"/><glyph d="M721 854h373v-174h-373v-332h-174v332h-373v174h373v332h174v-332zM174 33v174h920v-174h-920z" glyph-name="plusminus" horiz-adv-x="1269" unicode="±"/><glyph d="M309 954q-88 -68 -90 -182h389v-129h-561v119q0 96 34 159.5t126 139.5l190 156q39 33 39 96q0 55 -28.5 77.5t-98.5 22.5q-59 0 -207 -20l-12 133q123 20 215 20q303 0 303 -233q0 -117 -96 -195z" glyph-name="uni00B2" horiz-adv-x="675" unicode="²"/><glyph d="M508 1100q113 -51 113 -209q0 -143 -77 -203.5t-255 -60.5q-162 0 -234 35l13 137q59 -39 221 -39q102 0 131 25.5t29 115.5q0 88 -28 112.5t-126 24.5h-125v129h125q84 0 106.5 19.5t22.5 95.5q0 82 -24.5 104.5t-114.5 22.5q-152 0 -203 -37l-12 135q57 35 213 35 q168 0 241.5 -56t73.5 -186q0 -143 -90 -192v-8z" glyph-name="uni00B3" horiz-adv-x="710" unicode="³"/><glyph d="M66 1296l210 408h218l-256 -408h-172z" glyph-name="acute" horiz-adv-x="540" unicode="´"/><glyph d="M1180 1434v-1803h-185v1653h-141v-1653h-184v865h-13q-285 0 -415.5 117.5t-130.5 392.5q0 229 115.5 328.5t430.5 99.5h523z" glyph-name="paragraph" horiz-adv-x="1431" unicode="¶"/><glyph d="M115 487v256h239v-256h-239z" glyph-name="periodcentered" horiz-adv-x="468" unicode="·"/><glyph d="M305 -113q111 -8 158 -53t49 -123q-2 -104 -68.5 -153.5t-171.5 -49.5q-76 0 -159 33l8 107q68 -27 125 -27q98 0 100 86q-2 70 -76 70h-112l61 295h143z" glyph-name="cedilla" horiz-adv-x="608" unicode="¸"/><glyph d="M403 774h172v-129h-528v129h186v639l-176 -47l-20 117l196 53h170v-762z" glyph-name="uni00B9" horiz-adv-x="595" unicode="¹"/><glyph d="M496 627q-190 0 -264 100t-74 307q0 221 77.5 315.5t260.5 94.5q190 0 262.5 -100.5t72.5 -309.5q0 -219 -77.5 -313t-257.5 -94zM496 745q104 0 139 57.5t35 231.5q0 176 -35 233.5t-139 57.5q-106 0 -141.5 -57.5t-35.5 -233.5q0 -174 35.5 -231.5t141.5 -57.5z" glyph-name="ordmasculine" horiz-adv-x="989" unicode="º"/><glyph d="M127 858v215l420 -403v-193l-420 -405v217l270 284zM600 1073l420 -403v-193l-420 -405v217l270 284l-270 285v215z" glyph-name="guillemotright" horiz-adv-x="1089" unicode="»"/><glyph d="M979 1475h180l-596 -1516h-180zM496 688v-131h-473v131h161v608l-151 -43l-23 131l174 50h162v-746h150zM1585 322v-132h-94v-190h-152v190h-362v164l221 523h150l-218 -543v-12h209v266h152v-266h94z" glyph-name="onequarter" horiz-adv-x="1615" unicode="¼"/><glyph d="M979 1475h180l-596 -1516h-180zM496 688v-131h-473v131h161v608l-151 -43l-23 131l174 50h162v-746h150zM1225 154v-23h356v-131h-528v137q0 68 24.5 114t83.5 99l205 182q49 43 49 105q0 72 -36 97.5t-119 25.5q-76 0 -168 -15l-11 125q121 20 205 21q176 0 235.5 -60.5 t59.5 -175.5q0 -111 -92 -196l-221 -199q-43 -38 -43 -106z" glyph-name="onehalf" horiz-adv-x="1628" unicode="½"/><glyph d="M995 1475h181l-596 -1516h-181zM551 823q0 -162 -72.5 -220t-238.5 -58q-143 0 -209 33l12 133q66 -33 199 -33q84 0 113.5 33.5t29.5 115.5q0 74 -30.5 101.5t-98.5 27.5h-135v115h123q68 0 94.5 25.5t26.5 87.5q0 86 -27 112.5t-102 26.5q-117 0 -179 -29l-10 125 q70 29 197 29q170 0 228 -54.5t58 -179.5q0 -137 -75 -186v-12q96 -43 96 -193zM1602 322v-132h-95v-190h-151v190h-363v164l221 523h150l-217 -543v-12h209v266h151v-266h95z" glyph-name="threequarters" horiz-adv-x="1632" unicode="¾"/><glyph d="M440 834v231h232v-231h-232zM512 -389q-428 0 -428 319q0 92 34 149.5t103 113.5l107 83q53 43 77.5 68t45 77t22.5 128l2 74h164l2 -88q4 -162 -22.5 -234t-153.5 -168l-94 -72q-63 -47 -64 -129q0 -84 40 -112.5t157 -28.5q109 0 287 27l16 -180q-172 -27 -295 -27z " glyph-name="questiondown" horiz-adv-x="901" unicode="¿"/><glyph d="M711 1604h-172l-256 407h217zM979 0l-100 383h-502l-101 -383h-229l404 1434h354l403 -1434h-229zM422 557h412l-185 703h-43z" glyph-name="Agrave" horiz-adv-x="1255" unicode="À"/><glyph d="M969 2011l-256 -407h-172l211 407h217zM979 0l-100 383h-502l-101 -383h-229l404 1434h354l403 -1434h-229zM422 557h412l-185 703h-43z" glyph-name="Aacute" horiz-adv-x="1255" unicode="Á"/><glyph d="M627 1860l-201 -265h-172l264 408h217l266 -408h-172zM979 0l-100 383h-502l-101 -383h-229l404 1434h354l403 -1434h-229zM422 557h412l-185 703h-43z" glyph-name="Acircumflex" horiz-adv-x="1255" unicode="Â"/><glyph d="M489 1749q-66 0 -77 -119h-127q0 123 57 203t143 80q59 0 125 -47l111 -82q25 -18 49 -19q68 0 80 119h127q0 -121 -57.5 -200.5t-143.5 -79.5q-61 0 -127 47l-108 80q-29 18 -52 18zM979 0l-100 383h-502l-101 -383h-229l404 1434h354l403 -1434h-229zM422 557h412 l-185 703h-43z" glyph-name="Atilde" horiz-adv-x="1255" unicode="Ã"/><glyph d="M520 1876v-229h-229v229h229zM965 1876v-229h-230v229h230zM979 0l-100 383h-502l-101 -383h-229l404 1434h354l403 -1434h-229zM422 557h412l-185 703h-43z" glyph-name="Adieresis" horiz-adv-x="1255" unicode="Ä"/><glyph d="M629 1561q-145 0 -201.5 59t-56.5 176q0 131 65.5 182.5t192.5 51.5q143 0 199.5 -59.5t56.5 -174.5q0 -133 -65.5 -184t-190.5 -51zM629 1917q-63 0 -93 -25.5t-30 -95.5q0 -63 26.5 -93t96.5 -30q61 0 91 26.5t30 96.5q0 61 -25.5 91t-95.5 30zM979 0l-100 383h-502 l-101 -383h-229l404 1434h354l403 -1434h-229zM422 557h412l-185 703h-43z" glyph-name="Aring" horiz-adv-x="1255" unicode="Å"/><glyph d="M1104 174h551v-174h-768v383h-465l-168 -383h-229l659 1434h946v-174h-526v-431h495v-174h-495v-481zM500 557h387v703h-78z" glyph-name="AE" horiz-adv-x="1763" unicode="Æ"/><glyph d="M606 -113q111 -8 158 -53t49 -123q-2 -104 -68.5 -153.5t-171.5 -49.5q-76 0 -159 33l8 107q66 -27 125 -27q98 0 100 86q-2 70 -76 70h-112l47 223q-201 51 -281 224t-80 483q0 221 35 369.5t106.5 230.5t167 114.5t232.5 32.5q156 0 262 -43l-16 -178q-96 41 -236 41 q-129 0 -196.5 -46t-99 -165t-31.5 -346q0 -225 31.5 -344t99 -166t196.5 -47q143 0 236 43l31 -174q-104 -49 -269 -49q-41 0 -59 2z" glyph-name="Ccedilla" horiz-adv-x="1044" unicode="Ç"/><glyph d="M657 1604h-172l-256 407h217zM428 174h553v-174h-770v1434h745v-174h-528v-431h498v-174h-498v-481z" glyph-name="Egrave" horiz-adv-x="1089" unicode="È"/><glyph d="M915 2011l-256 -407h-172l211 407h217zM428 174h553v-174h-770v1434h745v-174h-528v-431h498v-174h-498v-481z" glyph-name="Eacute" horiz-adv-x="1089" unicode="É"/><glyph d="M573 1860l-200 -265h-172l264 408h217l266 -408h-172zM428 174h553v-174h-770v1434h745v-174h-528v-431h498v-174h-498v-481z" glyph-name="Ecircumflex" horiz-adv-x="1089" unicode="Ê"/><glyph d="M467 1876v-229h-229v229h229zM911 1876v-229h-229v229h229zM428 174h553v-174h-770v1434h745v-174h-528v-431h498v-174h-498v-481z" glyph-name="Edieresis" horiz-adv-x="1089" unicode="Ë"/><glyph d="M229 1604l-256 407h217l211 -407h-172zM428 1434v-1434h-217v1434h217z" glyph-name="Igrave" horiz-adv-x="638" unicode="Ì"/><glyph d="M231 1604l211 407h217l-256 -407h-172zM428 1434v-1434h-217v1434h217z" glyph-name="Iacute" horiz-adv-x="638" unicode="Í"/><glyph d="M426 2003l266 -408h-172l-203 265l-200 -265h-172l264 408h217zM211 0v1434h217v-1434h-217z" glyph-name="Icircumflex" horiz-adv-x="638" unicode="Î"/><glyph d="M-18 1876h229v-229h-229v229zM426 1876h229v-229h-229v229zM428 1434v-1434h-217v1434h217z" glyph-name="Idieresis" horiz-adv-x="638" unicode="Ï"/><glyph d="M664 1434q281 0 411.5 -168t130.5 -549q0 -371 -127 -544t-415 -173h-453v629h-127v174h127v631h453zM664 160q174 0 246.5 125t72.5 432t-72.5 432t-246.5 125h-236v-471h381v-174h-381v-469h236z" glyph-name="Eth" horiz-adv-x="1343" unicode="Ð"/><glyph d="M575 1749q-66 0 -77 -119h-127q0 123 57 203t143 80q59 0 125 -47l111 -82q25 -18 49 -19q68 0 80 119h127q0 -121 -57.5 -200.5t-143.5 -79.5q-61 0 -127 47l-108 80q-29 18 -52 18zM1004 1434h215v-1434h-402l-377 1260h-14v-1260h-215v1434h401l379 -1260h13v1260z " glyph-name="Ntilde" horiz-adv-x="1429" unicode="Ñ"/><glyph d="M600 1604l-256 407h217l211 -407h-172zM692 -20q-311 0 -429 180t-118 557q0 217 35 363.5t108.5 227.5t169 113.5t234.5 32.5q309 0 426 -179t117 -558q0 -217 -35 -363.5t-107.5 -227.5t-168 -113.5t-232.5 -32.5zM692 160q182 0 251 114.5t69 442.5q0 326 -67.5 441.5 t-252.5 115.5q-186 0 -254.5 -113.5t-68.5 -443.5q0 -326 69.5 -441.5t253.5 -115.5z" glyph-name="Ograve" horiz-adv-x="1380" unicode="Ò"/><glyph d="M602 1604l211 407h217l-256 -407h-172zM692 -20q-311 0 -429 180t-118 557q0 217 35 363.5t108.5 227.5t169 113.5t234.5 32.5q309 0 426 -179t117 -558q0 -217 -35 -363.5t-107.5 -227.5t-168 -113.5t-232.5 -32.5zM692 160q182 0 251 114.5t69 442.5q0 326 -67.5 441.5 t-252.5 115.5q-186 0 -254.5 -113.5t-68.5 -443.5q0 -326 69.5 -441.5t253.5 -115.5z" glyph-name="Oacute" horiz-adv-x="1380" unicode="Ó"/><glyph d="M688 1860l-201 -265h-172l265 408h217l266 -408h-172zM692 1454q309 0 426 -179t117 -558q0 -217 -35 -363.5t-107.5 -227.5t-168 -113.5t-232.5 -32.5q-311 0 -429 180t-118 557q0 217 35 363.5t108.5 227.5t169 113.5t234.5 32.5zM692 160q182 0 251 114.5t69 442.5 q0 326 -67.5 441.5t-252.5 115.5q-186 0 -254.5 -113.5t-68.5 -443.5q0 -326 69.5 -441.5t253.5 -115.5z" glyph-name="Ocircumflex" horiz-adv-x="1380" unicode="Ô"/><glyph d="M838 1604q-61 0 -127 47l-109 80q-29 18 -51 18q-66 0 -78 -119h-127q0 123 57.5 203t143.5 80q59 0 125 -47l110 -82q25 -18 49 -19q68 0 80 119h127q0 -121 -57 -200.5t-143 -79.5zM692 -20q-311 0 -429 180t-118 557q0 217 35 363.5t108.5 227.5t169 113.5t234.5 32.5 q309 0 426 -179t117 -558q0 -217 -35 -363.5t-107.5 -227.5t-168 -113.5t-232.5 -32.5zM692 160q182 0 251 114.5t69 442.5q0 326 -67.5 441.5t-252.5 115.5q-186 0 -254.5 -113.5t-68.5 -443.5q0 -326 69.5 -441.5t253.5 -115.5z" glyph-name="Otilde" horiz-adv-x="1380" unicode="Õ"/><glyph d="M352 1876h230v-229h-230v229zM797 1876h229v-229h-229v229zM692 -20q-311 0 -429 180t-118 557q0 217 35 363.5t108.5 227.5t169 113.5t234.5 32.5q309 0 426 -179t117 -558q0 -217 -35 -363.5t-107.5 -227.5t-168 -113.5t-232.5 -32.5zM692 160q182 0 251 114.5 t69 442.5q0 326 -67.5 441.5t-252.5 115.5q-186 0 -254.5 -113.5t-68.5 -443.5q0 -326 69.5 -441.5t253.5 -115.5z" glyph-name="Odieresis" horiz-adv-x="1380" unicode="Ö"/><glyph d="M1055 872l-297 -297l297 -296l-123 -123l-297 297l-297 -297l-123 123l297 296l-297 297l123 123l297 -297l297 297z" glyph-name="multiply" horiz-adv-x="1269" unicode="×"/><glyph d="M1036 1360q109 -82 154 -240.5t45 -402.5q0 -217 -35 -363.5t-107.5 -227.5t-168 -113.5t-232.5 -32.5q-100 0 -180 18l-39 -100h-197l68 176q-109 84 -154 241.5t-45 401.5q0 217 35 363.5t108.5 227.5t169 113.5t234.5 32.5q98 0 176 -18l39 100h197zM369 717 q0 -305 59 -424l375 971q-55 10 -111 10q-186 0 -254.5 -113.5t-68.5 -443.5zM692 160q182 0 251 114.5t69 442.5q0 307 -60 426l-372 -971q49 -12 112 -12z" glyph-name="Oslash" horiz-adv-x="1380" unicode="Ø"/><glyph d="M596 1604l-256 407h217l211 -407h-172zM694 -20q-295 0 -398 120.5t-103 425.5v908h217v-908q0 -219 57 -292.5t219 -73.5t218.5 73.5t56.5 292.5v908h217v-908q0 -319 -108 -432.5t-376 -113.5z" glyph-name="Ugrave" horiz-adv-x="1370" unicode="Ù"/><glyph d="M598 1604l211 407h217l-256 -407h-172zM694 -20q-295 0 -398 120.5t-103 425.5v908h217v-908q0 -219 57 -292.5t219 -73.5t218.5 73.5t56.5 292.5v908h217v-908q0 -319 -108 -432.5t-376 -113.5z" glyph-name="Uacute" horiz-adv-x="1370" unicode="Ú"/><glyph d="M684 1860l-201 -265h-172l264 408h218l266 -408h-172zM961 1434h217v-908q0 -319 -107.5 -432.5t-376.5 -113.5q-295 0 -398 120.5t-103 425.5v908h217v-908q0 -219 57 -292.5t219 -73.5t218.5 73.5t56.5 292.5v908z" glyph-name="Ucircumflex" horiz-adv-x="1370" unicode="Û"/><glyph d="M348 1876h230v-229h-230v229zM793 1876h229v-229h-229v229zM694 -20q-295 0 -398 120.5t-103 425.5v908h217v-908q0 -219 57 -292.5t219 -73.5t218.5 73.5t56.5 292.5v908h217v-908q0 -319 -108 -432.5t-376 -113.5z" glyph-name="Udieresis" horiz-adv-x="1370" unicode="Ü"/><glyph d="M924 2011l-256 -407h-172l211 407h217zM1151 1434l-465 -861v-573h-217v575l-451 859h242l307 -629h25l317 629h242z" glyph-name="Yacute" horiz-adv-x="1169" unicode="Ý"/><glyph d="M549 1194q205 0 320.5 -46t157.5 -131t42 -231q0 -260 -125 -371.5t-395 -111.5h-121v-303h-217v1434h217v-240h121zM549 463q170 0 233.5 68.5t63.5 234.5q0 156 -60.5 212t-236.5 56h-121v-571h121z" glyph-name="Thorn" horiz-adv-x="1155" unicode="Þ"/><glyph d="M793 -20q-115 0 -277 24l12 156q160 -27 262.5 -27t148.5 36t46 116q0 74 -67 137l-170 162q-61 57 -82 107t-21 116q0 55 21.5 100t93.5 115q68 68 86 98.5t18 89.5q0 88 -49 136.5t-170 48.5q-152 0 -209 -81t-57 -257v-1057h-211v1057q0 492 475 491q201 0 316.5 -90 t115.5 -268q0 -74 -33.5 -126t-126.5 -144q-59 -59 -59 -121q0 -57 47 -103l166 -159q72 -68 99.5 -121.5t27.5 -130.5q0 -143 -107.5 -224t-295.5 -81z" glyph-name="germandbls" horiz-adv-x="1267" unicode="ß"/><glyph d="M573 1296h-172l-256 408h217zM524 1147q176 0 269.5 -87t93.5 -296v-764l-164 -14l-23 129h-16q-76 -135 -268 -135q-170 0 -256 89t-86 242q0 156 85 245t249 89h274v119q0 125 -49 177t-152 52q-86 0 -309 -49l-27 150q242 53 379 53zM457 133q115 0 170 60.5t55 214.5 v84h-233q-84 0 -125 -40t-41 -140.5t43 -139.5t131 -39z" glyph-name="agrave" horiz-adv-x="1040" unicode="à"/><glyph d="M831 1704l-256 -408h-172l211 408h217zM524 1147q176 0 269.5 -87t93.5 -296v-764l-164 -14l-23 129h-16q-76 -135 -268 -135q-170 0 -256 89t-86 242q0 156 85 245t249 89h274v119q0 125 -49 177t-152 52q-86 0 -309 -49l-27 150q242 53 379 53zM457 133q115 0 170 60.5 t55 214.5v84h-233q-84 0 -125 -40t-41 -140.5t43 -139.5t131 -39z" glyph-name="aacute" horiz-adv-x="1040" unicode="á"/><glyph d="M489 1552l-200 -264h-172l264 408h217l266 -408h-172zM524 1147q176 0 269.5 -87t93.5 -296v-764l-164 -14l-23 129h-16q-76 -135 -268 -135q-170 0 -256 89t-86 242q0 156 85 245t249 89h274v119q0 125 -49 177t-152 52q-86 0 -309 -49l-27 150q242 53 379 53zM457 133 q115 0 170 60.5t55 214.5v84h-233q-84 0 -125 -40t-41 -140.5t43 -139.5t131 -39z" glyph-name="acircumflex" horiz-adv-x="1040" unicode="â"/><glyph d="M352 1442q-66 0 -78 -119h-127q0 123 57.5 203t143.5 80q59 0 125 -47l111 -82q25 -18 49 -19q68 0 80 119h127q0 -121 -57.5 -201t-143.5 -80q-61 0 -127 47l-109 80q-26 19 -51 19zM524 1147q176 0 269.5 -87t93.5 -296v-764l-164 -14l-23 129h-16q-76 -135 -268 -135 q-170 0 -256 89t-86 242q0 156 85 245t249 89h274v119q0 125 -49 177t-152 52q-86 0 -309 -49l-27 150q242 53 379 53zM457 133q115 0 170 60.5t55 214.5v84h-233q-84 0 -125 -40t-41 -140.5t43 -139.5t131 -39z" glyph-name="atilde" horiz-adv-x="1040" unicode="ã"/><glyph d="M383 1569v-230h-229v230h229zM827 1569v-230h-229v230h229zM524 1147q176 0 269.5 -87t93.5 -296v-764l-164 -14l-23 129h-16q-76 -135 -268 -135q-170 0 -256 89t-86 242q0 156 85 245t249 89h274v119q0 125 -49 177t-152 52q-86 0 -309 -49l-27 150q242 53 379 53z M457 133q115 0 170 60.5t55 214.5v84h-233q-84 0 -125 -40t-41 -140.5t43 -139.5t131 -39z" glyph-name="adieresis" horiz-adv-x="1040" unicode="ä"/><glyph d="M492 1253q-145 0 -202 59.5t-57 176.5q0 131 66 182t193 51q143 0 199.5 -59t56.5 -174q0 -133 -65.5 -184.5t-190.5 -51.5zM492 1610q-63 0 -93 -25.5t-30 -95.5q0 -63 26.5 -93t96.5 -30q61 0 90.5 26.5t29.5 96.5q0 61 -25 91t-95 30zM524 1147q176 0 269.5 -87 t93.5 -296v-764l-164 -14l-23 129h-16q-76 -135 -268 -135q-170 0 -256 89t-86 242q0 156 85 245t249 89h274v119q0 125 -49 177t-152 52q-86 0 -309 -49l-27 150q242 53 379 53zM457 133q115 0 170 60.5t55 214.5v84h-233q-84 0 -125 -40t-41 -140.5t43 -139.5t131 -39z " glyph-name="aring" horiz-adv-x="1040" unicode="å"/><glyph d="M895 494q10 -199 77.5 -280t209.5 -81q123 0 346 60l24 -144q-225 -70 -395 -69q-272 0 -387 190h-22q-76 -190 -322 -190q-178 0 -265 88t-87 241q0 156 85 246t249 90h274v119q0 125 -49 177t-152 52q-86 0 -309 -49l-27 150q242 53 379 53q207 0 293 -113 q111 113 334 113q135 0 223 -37t134 -118t62.5 -181t16.5 -256q0 -43 -2 -61h-690zM1157 993q-131 0 -192.5 -73.5t-69.5 -276.5h481q-4 209 -48 279.5t-171 70.5zM457 133q115 0 170 59.5t55 210.5v89h-233q-84 0 -125 -40t-41 -140.5t43 -139.5t131 -39z" glyph-name="ae" horiz-adv-x="1693" unicode="æ"/><glyph d="M514 -113q111 -8 158 -53t49 -123q-2 -104 -68.5 -153.5t-171.5 -49.5q-76 0 -159 33l8 107q68 -27 125 -27q98 0 100 86q-2 70 -76 70h-112l45 221q-150 37 -224.5 168t-74.5 397q0 332 115.5 458t359.5 126q117 0 200 -27l-14 -151q-76 25 -182 24q-162 0 -215 -85 t-53 -345q0 -258 53 -344t215 -86q117 0 192 25l15 -152q-82 -27 -213 -26h-43z" glyph-name="ccedilla" horiz-adv-x="901" unicode="ç"/><glyph d="M643 1296h-172l-256 408h217zM319 494q8 -195 77 -278t212 -83q119 0 344 60l25 -144q-221 -70 -391 -69q-479 0 -480 583q0 330 119 457t357 127q133 0 219 -37t132 -117t62.5 -179t16.5 -251q0 -47 -2 -69h-691zM582 993q-133 0 -193.5 -72.5t-69.5 -277.5h482 q-4 209 -48 279.5t-171 70.5z" glyph-name="egrave" horiz-adv-x="1118" unicode="è"/><glyph d="M901 1704l-256 -408h-172l211 408h217zM319 494q8 -195 77 -278t212 -83q119 0 344 60l25 -144q-221 -70 -391 -69q-479 0 -480 583q0 330 119 457t357 127q133 0 219 -37t132 -117t62.5 -179t16.5 -251q0 -47 -2 -69h-691zM582 993q-133 0 -193.5 -72.5t-69.5 -277.5 h482q-4 209 -48 279.5t-171 70.5z" glyph-name="eacute" horiz-adv-x="1118" unicode="é"/><glyph d="M559 1552l-201 -264h-172l265 408h217l266 -408h-172zM319 494q8 -195 77 -278t212 -83q119 0 344 60l25 -144q-221 -70 -391 -69q-479 0 -480 583q0 330 119 457t357 127q133 0 219 -37t132 -117t62.5 -179t16.5 -251q0 -47 -2 -69h-691zM582 993q-133 0 -193.5 -72.5 t-69.5 -277.5h482q-4 209 -48 279.5t-171 70.5z" glyph-name="ecircumflex" horiz-adv-x="1118" unicode="ê"/><glyph d="M453 1569v-230h-230v230h230zM897 1569v-230h-229v230h229zM319 494q8 -195 77 -278t212 -83q119 0 344 60l25 -144q-221 -70 -391 -69q-479 0 -480 583q0 330 119 457t357 127q133 0 219 -37t132 -117t62.5 -179t16.5 -251q0 -47 -2 -69h-691zM582 993 q-133 0 -193.5 -72.5t-69.5 -277.5h482q-4 209 -48 279.5t-171 70.5z" glyph-name="edieresis" horiz-adv-x="1118" unicode="ë"/><glyph d="M180 1296l-256 408h217l211 -408h-172zM373 1126v-1126h-205v1126h205z" glyph-name="igrave" horiz-adv-x="538" unicode="ì"/><glyph d="M182 1296l211 408h217l-256 -408h-172zM373 1126v-1126h-205v1126h205z" glyph-name="iacute" horiz-adv-x="538" unicode="í"/><glyph d="M377 1696l266 -408h-172l-203 264l-200 -264h-172l264 408h217zM168 0v1126h205v-1126h-205z" glyph-name="icircumflex" horiz-adv-x="538" unicode="î"/><glyph d="M-68 1569h230v-230h-230v230zM377 1569h229v-230h-229v230zM373 1126v-1126h-205v1126h205z" glyph-name="idieresis" horiz-adv-x="538" unicode="ï"/><glyph d="M856 1192q162 -287 162 -655q0 -164 -28.5 -274.5t-89 -172t-138.5 -86t-191 -24.5q-268 0 -368.5 130t-100.5 400q0 219 51.5 344t139.5 170t233 45q129 0 193 -47h8q-23 49 -49 98q-37 63 -70 111l-291 -74l-51 150l240 61q-86 109 -150 182h234q55 -63 110 -135 l242 62l51 -148l-192 -49q24 -35 55 -88zM563 133q145 0 194.5 78t49.5 326q0 131 -10 211q-20 94 -83 130.5t-171 36.5q-141 0 -185.5 -75.5t-44.5 -317.5q0 -236 51.5 -312.5t198.5 -76.5z" glyph-name="eth" horiz-adv-x="1140" unicode="ð"/><glyph d="M455 1442q-66 0 -78 -119h-127q0 123 57.5 203t143.5 80q59 0 124 -47l111 -82q25 -18 49 -19q68 0 80 119h127q0 -121 -57.5 -201t-143.5 -80q-61 0 -127 47l-108 80q-26 19 -51 19zM682 1147q203 0 276.5 -95.5t73.5 -328.5v-723h-205v719q0 152 -46 213t-175 61 q-121 0 -177 -60.5t-56 -213.5v-719h-205v1126l164 15l22 -127h21q78 133 307 133z" glyph-name="ntilde" horiz-adv-x="1187" unicode="ñ"/><glyph d="M500 1296l-256 408h217l211 -408h-172zM590 -20q-272 0 -374.5 142t-102.5 441q0 334 115.5 459t361.5 125q272 0 373.5 -142.5t101.5 -441.5q0 -334 -115.5 -458.5t-359.5 -124.5zM590 133q158 0 211 86t53 344t-53 344t-211 86q-160 0 -213 -86t-53 -344t53 -344 t213 -86z" glyph-name="ograve" horiz-adv-x="1177" unicode="ò"/><glyph d="M502 1296l211 408h217l-256 -408h-172zM590 -20q-272 0 -374.5 142t-102.5 441q0 334 115.5 459t361.5 125q272 0 373.5 -142.5t101.5 -441.5q0 -334 -115.5 -458.5t-359.5 -124.5zM590 133q158 0 211 86t53 344t-53 344t-211 86q-160 0 -213 -86t-53 -344t53 -344 t213 -86z" glyph-name="oacute" horiz-adv-x="1177" unicode="ó"/><glyph d="M588 1552l-201 -264h-172l264 408h217l267 -408h-172zM590 1147q272 0 373.5 -142.5t101.5 -441.5q0 -334 -115.5 -458.5t-359.5 -124.5q-272 0 -374.5 142t-102.5 441q0 334 115.5 459t361.5 125zM590 133q158 0 211 86t53 344t-53 344t-211 86q-160 0 -213 -86 t-53 -344t53 -344t213 -86z" glyph-name="ocircumflex" horiz-adv-x="1177" unicode="ô"/><glyph d="M737 1296q-61 0 -127 47l-108 80q-27 18 -51 19q-66 0 -78 -119h-127q0 123 57 203t143 80q59 0 125 -47l111 -82q25 -18 49 -19q68 0 80 119h127q0 -121 -57.5 -201t-143.5 -80zM590 -20q-272 0 -374.5 142t-102.5 441q0 334 115.5 459t361.5 125q272 0 373.5 -142.5 t101.5 -441.5q0 -334 -115.5 -458.5t-359.5 -124.5zM590 133q158 0 211 86t53 344t-53 344t-211 86q-160 0 -213 -86t-53 -344t53 -344t213 -86z" glyph-name="otilde" horiz-adv-x="1177" unicode="õ"/><glyph d="M252 1569h229v-230h-229v230zM696 1569h230v-230h-230v230zM590 -20q-272 0 -374.5 142t-102.5 441q0 334 115.5 459t361.5 125q272 0 373.5 -142.5t101.5 -441.5q0 -334 -115.5 -458.5t-359.5 -124.5zM590 133q158 0 211 86t53 344t-53 344t-211 86q-160 0 -213 -86 t-53 -344t53 -344t213 -86z" glyph-name="odieresis" horiz-adv-x="1177" unicode="ö"/><glyph d="M518 827v232h232v-232h-232zM174 487v175h920v-175h-920zM518 90v232h232v-232h-232z" glyph-name="divide" horiz-adv-x="1269" unicode="÷"/><glyph d="M885 1077q100 -63 140 -189t40 -325q0 -334 -115.5 -458.5t-359.5 -124.5q-76 0 -125 8l-35 -90h-194l59 151q-100 66 -141 192t-41 322q0 334 115.5 459t361.5 125q74 0 123 -8l35 90h194zM324 563q0 -240 43 -325l288 751q-41 4 -65 4q-160 0 -213 -86t-53 -344z M590 133q158 0 211 86t53 344q0 240 -43 326l-289 -752q41 -4 68 -4z" glyph-name="oslash" horiz-adv-x="1177" unicode="ø"/><glyph d="M670 1296h-172l-256 408h217zM815 1126h205v-1126l-164 -14l-22 129h-19q-78 -135 -309 -135q-203 0 -276.5 95t-73.5 328v723h204v-718q0 -152 46.5 -213.5t175.5 -61.5q121 0 177 60.5t56 214.5v718z" glyph-name="ugrave" horiz-adv-x="1187" unicode="ù"/><glyph d="M928 1704l-256 -408h-172l211 408h217zM815 1126h205v-1126l-164 -14l-22 129h-19q-78 -135 -309 -135q-203 0 -276.5 95t-73.5 328v723h204v-718q0 -152 46.5 -213.5t175.5 -61.5q121 0 177 60.5t56 214.5v718z" glyph-name="uacute" horiz-adv-x="1187" unicode="ú"/><glyph d="M586 1552l-201 -264h-172l264 408h217l267 -408h-173zM815 1126h205v-1126l-164 -14l-22 129h-19q-78 -135 -309 -135q-203 0 -276.5 95t-73.5 328v723h204v-718q0 -152 46.5 -213.5t175.5 -61.5q121 0 177 60.5t56 214.5v718z" glyph-name="ucircumflex" horiz-adv-x="1187" unicode="û"/><glyph d="M479 1569v-230h-229v230h229zM924 1569v-230h-230v230h230zM815 1126h205v-1126l-164 -14l-22 129h-19q-78 -135 -309 -135q-203 0 -276.5 95t-73.5 328v723h204v-718q0 -152 46.5 -213.5t175.5 -61.5q121 0 177 60.5t56 214.5v718z" glyph-name="udieresis" horiz-adv-x="1187" unicode="ü"/><glyph d="M852 1704l-256 -408h-172l211 408h217zM782 1126h215l-348 -1202q-45 -158 -142 -235.5t-263 -77.5q-63 0 -138 12l15 152q63 -10 115 -11q96 0 149 39t86 164l8 33h-137l-317 1126h215l254 -972h26z" glyph-name="yacute" horiz-adv-x="1017" unicode="ý"/><glyph d="M647 1147q231 0 325.5 -149.5t94.5 -424.5q0 -324 -110.5 -458.5t-323.5 -134.5q-170 0 -242 92h-18v-441h-205v1905h205v-492h18q78 103 256 103zM604 133q143 0 197.5 89t54.5 343q0 250 -53 339t-197 89q-121 0 -177 -59.5t-56 -214.5v-311q0 -158 57 -216.5 t174 -58.5z" glyph-name="thorn" horiz-adv-x="1179" unicode="þ"/><glyph d="M403 1569v-230h-229v230h229zM848 1569v-230h-230v230h230zM782 1126h215l-348 -1202q-45 -158 -142 -235.5t-263 -77.5q-63 0 -138 12l15 152q63 -10 115 -11q96 0 149 39t86 164l8 33h-137l-317 1126h215l254 -972h26z" glyph-name="ydieresis" horiz-adv-x="1017" unicode="ÿ"/><glyph d="M938 1831v-150h-619v150h619zM979 0l-100 383h-502l-101 -383h-229l404 1434h354l403 -1434h-229zM422 557h412l-185 703h-43z" glyph-name="Amacron" horiz-adv-x="1255" unicode="Ā"/><glyph d="M801 1524v-150h-619v150h619zM524 1147q176 0 269.5 -87t93.5 -296v-764l-164 -14l-23 129h-16q-76 -135 -268 -135q-170 0 -256 89t-86 242q0 156 85 245t249 89h274v119q0 125 -49 177t-152 52q-86 0 -309 -49l-27 150q242 53 379 53zM457 133q115 0 170 60.5t55 214.5 v84h-233q-84 0 -125 -40t-41 -140.5t43 -139.5t131 -39z" glyph-name="amacron" horiz-adv-x="1040" unicode="ā"/><glyph d="M631 1599q-195 0 -269.5 79t-74.5 233v31h170v-31q0 -82 40 -122t134 -40q84 0 128 36t44 126v31h170v-31q0 -174 -87 -243t-255 -69zM979 0l-100 383h-502l-101 -383h-229l404 1434h354l403 -1434h-229zM422 557h412l-185 703h-43z" glyph-name="Abreve" horiz-adv-x="1255" unicode="Ă"/><glyph d="M494 1292q-195 0 -269.5 79t-74.5 233v30h169v-30q0 -82 40 -122t135 -40q84 0 128 35.5t44 126.5v30h170v-30q0 -174 -87 -243t-255 -69zM524 1147q176 0 269.5 -87t93.5 -296v-764l-164 -14l-23 129h-16q-76 -135 -268 -135q-170 0 -256 89t-86 242q0 156 85 245 t249 89h274v119q0 125 -49 177t-152 52q-86 0 -309 -49l-27 150q242 53 379 53zM457 133q115 0 170 60.5t55 214.5v84h-233q-84 0 -125 -40t-41 -140.5t43 -139.5t131 -39z" glyph-name="abreve" horiz-adv-x="1040" unicode="ă"/><glyph d="M1282 -315l23 -123q-25 -2 -50 -2q-145 0 -231 59t-86 186q0 104 90 195h-49l-100 383h-502l-101 -383h-229l404 1434h354l403 -1434h-30q-88 -82 -88 -164q0 -63 46 -107t146 -44zM422 557h412l-185 703h-43z" glyph-name="Aogonek" horiz-adv-x="1255" unicode="Ą"/><glyph d="M985 -315l23 -123q-25 -2 -50 -2q-145 0 -231 59t-86 186q0 100 82 187l-23 123h-16q-76 -135 -268 -135q-170 0 -256 89t-86 242q0 156 85 245t249 89h274v119q0 125 -49 177t-152 52q-86 0 -309 -49l-27 150q242 53 379 53q176 0 269.5 -87t93.5 -296v-764h-8 q-86 -82 -86 -164q0 -63 46 -107t146 -44zM457 133q115 0 170 60.5t55 214.5v84h-233q-84 0 -125 -40t-41 -140.5t43 -139.5t131 -39z" glyph-name="aogonek" horiz-adv-x="1040" unicode="ą"/><glyph d="M512 1604l211 407h217l-256 -407h-172zM694 -20q-311 0 -430 178t-119 549q0 221 35 369.5t106.5 230.5t167 114.5t232.5 32.5q156 0 262 -43l-16 -178q-96 41 -236 41q-129 0 -196.5 -46t-99 -165t-31.5 -346q0 -225 31.5 -344t99 -166t196.5 -47q143 0 236 43l31 -174 q-105 -49 -269 -49z" glyph-name="Cacute" horiz-adv-x="1044" unicode="Ć"/><glyph d="M391 1296l211 408h217l-256 -408h-172zM586 -20q-242 0 -357.5 125.5t-115.5 457.5t115.5 458t359.5 126q117 0 200 -27l-14 -151q-76 25 -182 24q-162 0 -215 -85t-53 -345q0 -258 53 -344t215 -86q117 0 192 25l15 -152q-82 -26 -213 -26z" glyph-name="cacute" horiz-adv-x="901" unicode="ć"/><glyph d="M485 1876h232v-231h-232v231zM694 -20q-311 0 -430 178t-119 549q0 221 35 369.5t106.5 230.5t167 114.5t232.5 32.5q156 0 262 -43l-16 -178q-96 41 -236 41q-129 0 -196.5 -46t-99 -165t-31.5 -346q0 -225 31.5 -344t99 -166t196.5 -47q143 0 236 43l31 -174 q-105 -49 -269 -49z" glyph-name="Cdotaccent" horiz-adv-x="1044" unicode="Ċ"/><glyph d="M365 1569h231v-232h-231v232zM586 -20q-242 0 -357.5 125.5t-115.5 457.5t115.5 458t359.5 126q117 0 200 -27l-14 -151q-76 25 -182 24q-162 0 -215 -85t-53 -345q0 -258 53 -344t215 -86q117 0 192 25l15 -152q-82 -26 -213 -26z" glyph-name="cdotaccent" horiz-adv-x="901" unicode="ċ"/><glyph d="M707 1595h-218l-264 408h172l201 -264l203 264h172zM696 160q143 0 236 43l31 -174q-104 -49 -269 -49q-311 0 -430 178t-119 549q0 221 35 369.5t106.5 230.5t167 114.5t232.5 32.5q156 0 262 -43l-16 -178q-96 41 -236 41q-129 0 -196.5 -46t-99 -165t-31.5 -346 q0 -225 31.5 -344t99 -166t196.5 -47z" glyph-name="Ccaron" horiz-adv-x="1044" unicode="Č"/><glyph d="M586 1288h-217l-265 408h172l201 -264l203 264h172zM592 133q117 0 192 25l15 -152q-82 -27 -213 -26q-242 0 -357.5 125.5t-115.5 457.5t115.5 458t359.5 126q117 0 200 -27l-14 -151q-76 25 -182 24q-162 0 -215 -85t-53 -345q0 -258 53 -344t215 -86z" glyph-name="ccaron" horiz-adv-x="901" unicode="č"/><glyph d="M766 1595h-217l-264 408h172l200 -264l203 264h172zM664 1434q281 0 411.5 -168t130.5 -549q0 -371 -127 -544t-415 -173h-453v1434h453zM664 160q174 0 246.5 125t72.5 432t-72.5 432t-246.5 125h-236v-1114h236z" glyph-name="Dcaron" horiz-adv-x="1343" unicode="Ď"/><glyph d="M807 1044v492h205v-1536l-164 -14l-23 129h-16q-74 -135 -277 -135q-231 0 -325 149.5t-94 423.5q0 324 110.5 459t323.5 135q180 0 248 -103h12zM1180 1536h229v-229l-76 -281h-129l76 281h-100v229zM573 133q121 0 177.5 59.5t56.5 215.5v311q0 158 -57.5 216 t-174.5 58q-143 0 -197 -89t-54 -343q0 -250 53 -339t196 -89z" glyph-name="dcaron" horiz-adv-x="1179" unicode="ď"/><glyph d="M664 1434q281 0 411.5 -168t130.5 -549q0 -371 -127 -544t-415 -173h-453v629h-127v174h127v631h453zM664 160q174 0 246.5 125t72.5 432t-72.5 432t-246.5 125h-236v-471h381v-174h-381v-469h236z" glyph-name="Dcroat" horiz-adv-x="1343" unicode="Đ"/><glyph d="M1229 1376v-149h-217v-1227l-164 -14l-23 129h-16q-74 -135 -277 -135q-231 0 -325 149.5t-94 423.5q0 324 110.5 459t323.5 135q180 0 248 -103h12v183h-238v149h238v160h205v-160h217zM573 133q121 0 177.5 59.5t56.5 215.5v311q0 158 -57.5 216t-174.5 58 q-143 0 -197 -89t-54 -343q0 -250 53 -339t196 -89z" glyph-name="dcroat" horiz-adv-x="1179" unicode="đ"/><glyph d="M885 1831v-150h-619v150h619zM428 174h553v-174h-770v1434h745v-174h-528v-431h498v-174h-498v-481z" glyph-name="Emacron" horiz-adv-x="1089" unicode="Ē"/><glyph d="M870 1524v-150h-618v150h618zM319 494q8 -195 77 -278t212 -83q119 0 344 60l25 -144q-221 -70 -391 -69q-479 0 -480 583q0 330 119 457t357 127q133 0 219 -37t132 -117t62.5 -179t16.5 -251q0 -47 -2 -69h-691zM582 993q-133 0 -193.5 -72.5t-69.5 -277.5h482 q-4 209 -48 279.5t-171 70.5z" glyph-name="emacron" horiz-adv-x="1118" unicode="ē"/><glyph d="M692 1876v-231h-231v231h231zM428 174h553v-174h-770v1434h745v-174h-528v-431h498v-174h-498v-481z" glyph-name="Edotaccent" horiz-adv-x="1089" unicode="Ė"/><glyph d="M678 1569v-232h-232v232h232zM319 494q8 -195 77 -278t212 -83q119 0 344 60l25 -144q-221 -70 -391 -69q-479 0 -480 583q0 330 119 457t357 127q133 0 219 -37t132 -117t62.5 -179t16.5 -251q0 -47 -2 -69h-691zM582 993q-133 0 -193.5 -72.5t-69.5 -277.5h482 q-4 209 -48 279.5t-171 70.5z" glyph-name="edotaccent" horiz-adv-x="1118" unicode="ė"/><glyph d="M969 -315l22 -123q-25 -2 -49 -2q-145 0 -231 59t-86 186q0 104 90 195h-504v1434h745v-174h-528v-431h498v-174h-498v-481h553v-174h-117q-88 -82 -88 -164q0 -63 46.5 -107t146.5 -44z" glyph-name="Eogonek" horiz-adv-x="1089" unicode="Ę"/><glyph d="M319 494q8 -195 77 -278t212 -83q119 0 344 60l25 -144q-59 -18 -111 -31q-86 -80 -86 -161q0 -63 46 -107.5t147 -44.5l22 -123q-25 -2 -49 -2q-145 0 -231 59.5t-86 186.5q0 82 57 160q-51 -6 -100 -6q-479 0 -480 583q0 330 119 457t357 127q133 0 219 -37t132 -117 t62.5 -179t16.5 -251q0 -47 -2 -69h-691zM582 993q-133 0 -193.5 -72.5t-69.5 -277.5h482q-4 209 -48 279.5t-171 70.5z" glyph-name="eogonek" horiz-adv-x="1118" unicode="ę"/><glyph d="M682 1595h-217l-264 408h172l200 -264l203 264h172zM428 174h553v-174h-770v1434h745v-174h-528v-431h498v-174h-498v-481z" glyph-name="Ecaron" horiz-adv-x="1089" unicode="Ě"/><glyph d="M668 1288h-217l-265 408h172l201 -264l203 264h172zM319 494q8 -195 77 -278t212 -83q119 0 344 60l25 -144q-221 -70 -391 -69q-479 0 -480 583q0 330 119 457t357 127q133 0 219 -37t132 -117t62.5 -179t16.5 -251q0 -47 -2 -69h-691zM582 993q-133 0 -193.5 -72.5 t-69.5 -277.5h482q-4 209 -48 279.5t-171 70.5z" glyph-name="ecaron" horiz-adv-x="1118" unicode="ě"/><glyph d="M645 1860l-201 -265h-172l265 408h217l266 -408h-172zM1126 815v-815l-161 -14l-25 135h-18q-98 -141 -308 -141q-137 0 -230 52t-144.5 156.5t-73 233.5t-21.5 309q0 221 37 364.5t115 221.5t178 107.5t250 29.5q199 0 317 -39l-16 -184q-125 43 -324 43 q-133 0 -200.5 -44t-100 -164t-32.5 -353q0 -332 60 -442.5t241 -110.5q121 0 186.5 59.5t65.5 214.5v207h-236v174h440z" glyph-name="Gcircumflex" horiz-adv-x="1280" unicode="Ĝ"/><glyph d="M567 1552l-200 -264h-172l264 408h217l266 -408h-172zM584 252q283 0 388 -79t105 -236q0 -186 -118.5 -256t-374.5 -70q-279 0 -385.5 67.5t-106.5 217.5q0 178 156 229v12q-113 55 -113 160q0 82 96 164l5 4q-100 84 -101 287q0 225 101.5 310t312.5 85q119 0 199 -21 h311l10 -133l-143 -24q55 -63 55 -197q0 -225 -100.5 -309t-311.5 -84q-123 0 -198 20l-23 -18q-31 -25 -31 -64q0 -66 105 -65h162zM561 993q-127 0 -171 -47t-44 -184q0 -139 43 -184.5t170 -45.5t169 45.5t42 184.5t-42 185t-167 46zM590 -236q162 0 219 35t57 135 q0 96 -56 130t-224 34h-70q-121 -8 -167 -53t-46 -137q0 -80 58.5 -112t228.5 -32z" glyph-name="gcircumflex" horiz-adv-x="1138" unicode="ĝ"/><glyph d="M649 1599q-195 0 -269.5 79t-74.5 233v31h170v-31q0 -82 40 -122t134 -40q84 0 128 36t44 126v31h170v-31q0 -174 -87 -243t-255 -69zM1126 815v-815l-161 -14l-25 135h-18q-98 -141 -308 -141q-137 0 -230 52t-144.5 156.5t-73 233.5t-21.5 309q0 221 37 364.5 t115 221.5t178 107.5t250 29.5q199 0 317 -39l-16 -184q-125 43 -324 43q-133 0 -200.5 -44t-100 -164t-32.5 -353q0 -332 60 -442.5t241 -110.5q121 0 186.5 59.5t65.5 214.5v207h-236v174h440z" glyph-name="Gbreve" horiz-adv-x="1280" unicode="Ğ"/><glyph d="M571 1292q-195 0 -269.5 79t-74.5 233v30h170v-30q0 -82 40 -122t134 -40q84 0 128 35.5t44 126.5v30h170v-30q0 -174 -87 -243t-255 -69zM584 252q283 0 388 -79t105 -236q0 -186 -118.5 -256t-374.5 -70q-279 0 -385.5 67.5t-106.5 217.5q0 178 156 229v12 q-113 55 -113 160q0 82 96 164l5 4q-100 84 -101 287q0 225 101.5 310t312.5 85q119 0 199 -21h311l10 -133l-143 -24q55 -63 55 -197q0 -225 -100.5 -309t-311.5 -84q-123 0 -198 20l-23 -18q-31 -25 -31 -64q0 -66 105 -65h162zM561 993q-127 0 -171 -47t-44 -184 q0 -139 43 -184.5t170 -45.5t169 45.5t42 184.5t-42 185t-167 46zM590 -236q162 0 219 35t57 135q0 96 -56 130t-224 34h-70q-121 -8 -167 -53t-46 -137q0 -80 58.5 -112t228.5 -32z" glyph-name="gbreve" horiz-adv-x="1138" unicode="ğ"/><glyph d="M764 1876v-231h-232v231h232zM1126 815v-815l-161 -14l-25 135h-18q-98 -141 -308 -141q-137 0 -230 52t-144.5 156.5t-73 233.5t-21.5 309q0 221 37 364.5t115 221.5t178 107.5t250 29.5q199 0 317 -39l-16 -184q-125 43 -324 43q-133 0 -200.5 -44t-100 -164 t-32.5 -353q0 -332 60 -442.5t241 -110.5q121 0 186.5 59.5t65.5 214.5v207h-236v174h440z" glyph-name="Gdotaccent" horiz-adv-x="1280" unicode="Ġ"/><glyph d="M686 1569v-232h-231v232h231zM584 252q283 0 388 -79t105 -236q0 -186 -118.5 -256t-374.5 -70q-279 0 -385.5 67.5t-106.5 217.5q0 178 156 229v12q-113 55 -113 160q0 82 96 164l5 4q-100 84 -101 287q0 225 101.5 310t312.5 85q119 0 199 -21h311l10 -133l-143 -24 q55 -63 55 -197q0 -225 -100.5 -309t-311.5 -84q-123 0 -198 20l-23 -18q-31 -25 -31 -64q0 -66 105 -65h162zM561 993q-127 0 -171 -47t-44 -184q0 -139 43 -184.5t170 -45.5t169 45.5t42 184.5t-42 185t-167 46zM590 -236q162 0 219 35t57 135q0 96 -56 130t-224 34h-70 q-121 -8 -167 -53t-46 -137q0 -80 58.5 -112t228.5 -32z" glyph-name="gdotaccent" horiz-adv-x="1138" unicode="ġ"/><glyph d="M1126 815v-815l-161 -14l-25 135h-18q-98 -141 -308 -141q-137 0 -230 52t-144.5 156.5t-73 233.5t-21.5 309q0 221 37 364.5t115 221.5t178 107.5t250 29.5q199 0 317 -39l-16 -184q-125 43 -324 43q-133 0 -200.5 -44t-100 -164t-32.5 -353q0 -332 60 -442.5 t241 -110.5q121 0 186.5 59.5t65.5 214.5v207h-236v174h440zM532 -362v229h230v-229l-76 -281h-129l76 281h-101z" glyph-name="Gcommaaccent" horiz-adv-x="1280" unicode="Ģ"/><glyph d="M684 1567v-230h-229v230l75 280h129l-75 -280h100zM584 252q283 0 388 -79t105 -236q0 -186 -118.5 -256t-374.5 -70q-279 0 -385.5 67.5t-106.5 217.5q0 178 156 229v12q-113 55 -113 160q0 82 96 164l5 4q-100 84 -101 287q0 225 101.5 310t312.5 85q119 0 199 -21h311 l10 -133l-143 -24q55 -63 55 -197q0 -225 -100.5 -309t-311.5 -84q-123 0 -198 20l-23 -18q-31 -25 -31 -64q0 -66 105 -65h162zM561 993q-127 0 -171 -47t-44 -184q0 -139 43 -184.5t170 -45.5t169 45.5t42 184.5t-42 185t-167 46zM590 -236q162 0 219 35t57 135 q0 96 -56 130t-224 34h-70q-121 -8 -167 -53t-46 -137q0 -80 58.5 -112t228.5 -32z" glyph-name="gcommaaccent" horiz-adv-x="1138" unicode="ģ"/><glyph d="M705 1860l-201 -265h-172l264 408h217l266 -408h-172zM987 1434h217v-1434h-217v655h-559v-655h-217v1434h217v-605h559v605z" glyph-name="Hcircumflex" horiz-adv-x="1415" unicode="Ĥ"/><glyph d="M526 1647l-202 264l-201 -264h-172l264 407h217l266 -407h-172zM682 1147q203 0 276.5 -95.5t73.5 -328.5v-723h-205v719q0 152 -46 213t-175 61q-121 0 -177 -60.5t-56 -213.5v-719h-205v1536h205v-498h18q82 109 291 109z" glyph-name="hcircumflex" horiz-adv-x="1187" unicode="ĥ"/><glyph d="M1370 1214v-174h-166v-1040h-217v655h-559v-655h-217v1040h-211v174h211v220h217v-220h559v220h217v-220h166zM987 829v211h-559v-211h559z" glyph-name="Hbar" horiz-adv-x="1372" unicode="Ħ"/><glyph d="M682 1147q203 0 276.5 -95.5t73.5 -328.5v-723h-205v719q0 152 -46 213t-175 61q-121 0 -177 -60.5t-56 -213.5v-719h-205v1227h-191v149h191v160h205v-160h329v-149h-329v-189h18q82 109 291 109z" glyph-name="hbar" horiz-adv-x="1187" unicode="ħ"/><glyph d="M467 1604q-61 0 -127 47l-109 80q-29 18 -51 18q-66 0 -78 -119h-127q0 123 57.5 203t143.5 80q59 0 125 -47l111 -82q25 -18 49 -19q68 0 80 119h127q0 -121 -57.5 -200.5t-143.5 -79.5zM428 1434v-1434h-217v1434h217z" glyph-name="Itilde" horiz-adv-x="638" unicode="Ĩ"/><glyph d="M418 1296q-61 0 -127 47l-109 80q-29 18 -51 19q-66 0 -78 -119h-127q0 123 57.5 203t143.5 80q59 0 125 -47l110 -82q25 -18 50 -19q68 0 80 119h126q0 -121 -57 -201t-143 -80zM373 1126v-1126h-205v1126h205z" glyph-name="itilde" horiz-adv-x="538" unicode="ĩ"/><glyph d="M10 1831h619v-150h-619v150zM428 1434v-1434h-217v1434h217z" glyph-name="Imacron" horiz-adv-x="638" unicode="Ī"/><glyph d="M-39 1524h619v-150h-619v150zM373 1126v-1126h-205v1126h205z" glyph-name="imacron" horiz-adv-x="538" unicode="ī"/><glyph d="M322 1599q-195 0 -270 79t-75 233v31h170v-31q0 -82 40 -122t135 -40q84 0 128 36t44 126v31h170v-31q0 -174 -87 -243t-255 -69zM428 1434v-1434h-217v1434h217z" glyph-name="Ibreve" horiz-adv-x="638" unicode="Ĭ"/><glyph d="M272 1292q-195 0 -269.5 79t-74.5 233v30h170v-30q0 -82 40 -122t134 -40q84 0 128 35.5t44 126.5v30h170v-30q0 -174 -87 -243t-255 -69zM373 1126v-1126h-205v1126h205z" glyph-name="ibreve" horiz-adv-x="538" unicode="ĭ"/><glyph d="M512 -315l23 -123q-25 -2 -50 -2q-145 0 -231 59t-86 186q0 104 90 195h-47v1434h217v-1434h-20q-88 -82 -89 -164q0 -63 46.5 -107t146.5 -44z" glyph-name="Iogonek" horiz-adv-x="638" unicode="Į"/><glyph d="M385 1569v-232h-231v232h231zM465 -315l22 -123q-25 -2 -49 -2q-145 0 -231 59t-86 186q0 104 90 195h-43v1126h205v-1126h-13q-88 -82 -88 -164q0 -63 46.5 -107t146.5 -44z" glyph-name="iogonek" horiz-adv-x="538" unicode="į"/><glyph d="M205 1876h231v-231h-231v231zM428 1434v-1434h-217v1434h217z" glyph-name="Idotaccent" horiz-adv-x="638" unicode="İ"/><glyph d="M373 1126v-1126h-205v1126h205z" glyph-name="dotlessi" horiz-adv-x="538" unicode="ı"/><glyph d="M428 1434v-1434h-217v1434h217zM815 -20q-84 0 -149 16l14 176q53 -12 117 -12q78 0 102.5 36.5t24.5 145.5v1092h217v-1092q0 -213 -64.5 -287.5t-261.5 -74.5z" glyph-name="IJ" horiz-adv-x="1345" unicode="Ĳ"/><glyph d="M154 1569h231v-232h-231v232zM756 1337v232h231v-232h-231zM373 1126v-1126h-205v1126h205zM657 -389q-82 0 -139 14l14 152q49 -12 113 -13q76 0 99.5 40t23.5 169v1153h205v-1153q0 -215 -64 -287.5t-252 -74.5z" glyph-name="ij" horiz-adv-x="1159" unicode="ĳ"/><glyph d="M500 2003l266 -408h-172l-203 265l-201 -265h-172l265 408h217zM285 342v1092h217v-1092q0 -213 -64.5 -287.5t-261.5 -74.5q-84 0 -149 16l14 176q51 -12 117 -12q78 0 102.5 36.5t24.5 145.5z" glyph-name="Jcircumflex" horiz-adv-x="706" unicode="Ĵ"/><glyph d="M377 1696l266 -408h-172l-203 264l-200 -264h-172l264 408h217zM168 -27v1153h205v-1153q0 -215 -63.5 -287.5t-252.5 -74.5q-82 0 -139 14l14 152q49 -12 113 -13q76 0 99.5 40t23.5 169z" glyph-name="jcircumflex" horiz-adv-x="559" unicode="ĵ"/><glyph d="M678 743l506 -743h-250l-422 655h-84v-655h-217v1434h217v-605h86l391 605h250zM543 -362v229h229v-229l-76 -281h-129l76 281h-100z" glyph-name="Kcommaaccent" horiz-adv-x="1214" unicode="Ķ"/><glyph d="M604 623l469 -623h-235l-394 545h-71v-545h-205v1536h205v-842h65l369 432h246zM461 -362v229h229v-229l-76 -281h-129l76 281h-100z" glyph-name="kcommaaccent" horiz-adv-x="1073" unicode="ķ"/><glyph d="M664 2011l-256 -407h-172l210 407h218zM428 174h455v-174h-672v1434h217v-1260z" glyph-name="Lacute" horiz-adv-x="944" unicode="Ĺ"/><glyph d="M182 1706l211 408h217l-256 -408h-172zM444 -20q-168 0 -225 66.5t-57 260.5v1229h205v-1233q0 -104 20.5 -137t83.5 -33q49 0 90 10l12 -151q-53 -12 -129 -12z" glyph-name="lacute" horiz-adv-x="624" unicode="ĺ"/><glyph d="M428 174h455v-174h-672v1434h217v-1260zM391 -362v229h230v-229l-76 -281h-129l76 281h-101z" glyph-name="Lcommaaccent" horiz-adv-x="944" unicode="Ļ"/><glyph d="M561 143l12 -151q-53 -12 -129 -12q-168 0 -225 66.5t-57 260.5v1229h205v-1233q0 -104 20.5 -137t83.5 -33q49 0 90 10zM207 -362v229h229v-229l-76 -281h-129l76 281h-100z" glyph-name="lcommaaccent" horiz-adv-x="624" unicode="ļ"/><glyph d="M428 174h455v-174h-672v1434h217v-1260zM612 924l74 280h-100v230h229v-230l-74 -280h-129z" glyph-name="Lcaron" horiz-adv-x="944" unicode="Ľ"/><glyph d="M471 133q49 0 90 10l12 -151q-53 -12 -129 -12q-168 0 -225 66.5t-57 260.5v1229h205v-1233q0 -104 20.5 -137t83.5 -33zM537 1536h229v-229l-76 -281h-129l76 281h-100v229z" glyph-name="lcaron" horiz-adv-x="624" unicode="ľ"/><glyph d="M428 174h455v-174h-672v1434h217v-1260zM793 909v-256h-240v256h240z" glyph-name="Ldot" horiz-adv-x="944" unicode="Ŀ"/><glyph d="M444 -20q-168 0 -225 66.5t-57 260.5v1229h205v-1233q0 -104 20.5 -137t83.5 -33q49 0 90 10l12 -151q-53 -12 -129 -12zM467 653v256h240v-256h-240z" glyph-name="ldot" horiz-adv-x="759" unicode="ŀ"/><glyph d="M428 174h455v-174h-672v545l-168 -80v188l168 80v701h217v-596l307 145v-188l-307 -146v-475z" glyph-name="Lslash" horiz-adv-x="944" unicode="Ł"/><glyph d="M582 860l-215 -117v-440q0 -104 20.5 -137t83.5 -33q49 0 90 10l12 -151q-53 -12 -129 -12q-168 0 -225 66.5t-57 260.5v328l-162 -88v180l162 86v723h205v-612l215 114v-178z" glyph-name="lslash" horiz-adv-x="624" unicode="ł"/><glyph d="M1055 2011l-256 -407h-172l211 407h217zM1004 1434h215v-1434h-402l-377 1260h-14v-1260h-215v1434h401l379 -1260h13v1260z" glyph-name="Nacute" horiz-adv-x="1429" unicode="Ń"/><glyph d="M934 1704l-256 -408h-172l211 408h217zM682 1147q203 0 276.5 -95.5t73.5 -328.5v-723h-205v719q0 152 -46 213t-175 61q-121 0 -177 -60.5t-56 -213.5v-719h-205v1126l164 15l22 -127h21q78 133 307 133z" glyph-name="nacute" horiz-adv-x="1187" unicode="ń"/><glyph d="M1004 1434h215v-1434h-402l-377 1260h-14v-1260h-215v1434h401l379 -1260h13v1260zM600 -362v229h229v-229l-75 -281h-129l75 281h-100z" glyph-name="Ncommaaccent" horiz-adv-x="1429" unicode="Ņ"/><glyph d="M682 1147q203 0 276.5 -95.5t73.5 -328.5v-723h-205v719q0 152 -46 213t-175 61q-121 0 -177 -60.5t-56 -213.5v-719h-205v1126l164 15l22 -127h21q78 133 307 133zM481 -362v229h230v-229l-76 -281h-129l76 281h-101z" glyph-name="ncommaaccent" horiz-adv-x="1187" unicode="ņ"/><glyph d="M821 1595h-217l-264 408h172l201 -264l202 264h172zM1004 1434h215v-1434h-402l-377 1260h-14v-1260h-215v1434h401l379 -1260h13v1260z" glyph-name="Ncaron" horiz-adv-x="1429" unicode="Ň"/><glyph d="M700 1288h-217l-264 408h172l201 -264l203 264h172zM682 1147q203 0 276.5 -95.5t73.5 -328.5v-723h-205v719q0 152 -46 213t-175 61q-121 0 -177 -60.5t-56 -213.5v-719h-205v1126l164 15l22 -127h21q78 133 307 133z" glyph-name="ncaron" horiz-adv-x="1187" unicode="ň"/><glyph d="M1004 1434h215v-1461q0 -213 -62.5 -287.5t-259.5 -74.5q-84 0 -149 16l14 176q53 -12 117 -12q78 0 101.5 37t23.5 145v27h-187l-377 1260h-14v-1260h-215v1434h401l379 -1260h13v1260z" glyph-name="Eng" horiz-adv-x="1429" unicode="Ŋ"/><glyph d="M682 1147q203 0 276.5 -95.5t73.5 -328.5v-750q0 -215 -63.5 -288.5t-251.5 -73.5q-82 0 -139 14l12 152q53 -12 115 -13q76 0 99 40t23 169v746q0 152 -46 213t-175 61q-121 0 -177 -60.5t-56 -213.5v-719h-205v1126l164 15l22 -127h21q78 133 307 133z" glyph-name="eng" horiz-adv-x="1187" unicode="ŋ"/><glyph d="M381 1831h618v-150h-618v150zM692 -20q-311 0 -429 180t-118 557q0 217 35 363.5t108.5 227.5t169 113.5t234.5 32.5q309 0 426 -179t117 -558q0 -217 -35 -363.5t-107.5 -227.5t-168 -113.5t-232.5 -32.5zM692 160q182 0 251 114.5t69 442.5q0 326 -67.5 441.5 t-252.5 115.5q-186 0 -254.5 -113.5t-68.5 -443.5q0 -326 69.5 -441.5t253.5 -115.5z" glyph-name="Omacron" horiz-adv-x="1380" unicode="Ō"/><glyph d="M281 1524h618v-150h-618v150zM590 -20q-272 0 -374.5 142t-102.5 441q0 334 115.5 459t361.5 125q272 0 373.5 -142.5t101.5 -441.5q0 -334 -115.5 -458.5t-359.5 -124.5zM590 133q158 0 211 86t53 344t-53 344t-211 86q-160 0 -213 -86t-53 -344t53 -344t213 -86z" glyph-name="omacron" horiz-adv-x="1177" unicode="ō"/><glyph d="M692 1599q-195 0 -269.5 79t-74.5 233v31h170v-31q0 -82 40 -122t134 -40q84 0 128 36t44 126v31h170v-31q0 -174 -87 -243t-255 -69zM692 -20q-311 0 -429 180t-118 557q0 217 35 363.5t108.5 227.5t169 113.5t234.5 32.5q309 0 426 -179t117 -558q0 -217 -35 -363.5 t-107.5 -227.5t-168 -113.5t-232.5 -32.5zM692 160q182 0 251 114.5t69 442.5q0 326 -67.5 441.5t-252.5 115.5q-186 0 -254.5 -113.5t-68.5 -443.5q0 -326 69.5 -441.5t253.5 -115.5z" glyph-name="Obreve" horiz-adv-x="1380" unicode="Ŏ"/><glyph d="M592 1292q-195 0 -269.5 79t-74.5 233v30h170v-30q0 -82 40 -122t134 -40q84 0 128 35.5t44 126.5v30h170v-30q0 -174 -87 -243t-255 -69zM590 -20q-272 0 -374.5 142t-102.5 441q0 334 115.5 459t361.5 125q272 0 373.5 -142.5t101.5 -441.5q0 -334 -115.5 -458.5 t-359.5 -124.5zM590 133q158 0 211 86t53 344t-53 344t-211 86q-160 0 -213 -86t-53 -344t53 -344t213 -86z" glyph-name="obreve" horiz-adv-x="1177" unicode="ŏ"/><glyph d="M418 1593l211 428h217l-256 -428h-172zM803 1593l211 428h217l-256 -428h-172zM692 -20q-311 0 -429 180t-118 557q0 217 35 363.5t108.5 227.5t169 113.5t234.5 32.5q309 0 426 -179t117 -558q0 -217 -35 -363.5t-107.5 -227.5t-168 -113.5t-232.5 -32.5zM692 160 q182 0 251 114.5t69 442.5q0 326 -67.5 441.5t-252.5 115.5q-186 0 -254.5 -113.5t-68.5 -443.5q0 -326 69.5 -441.5t253.5 -115.5z" glyph-name="Ohungarumlaut" horiz-adv-x="1380" unicode="Ő"/><glyph d="M317 1286l211 428h217l-256 -428h-172zM702 1286l211 428h217l-256 -428h-172zM590 -20q-272 0 -374.5 142t-102.5 441q0 334 115.5 459t361.5 125q272 0 373.5 -142.5t101.5 -441.5q0 -334 -115.5 -458.5t-359.5 -124.5zM590 133q158 0 211 86t53 344t-53 344t-211 86 q-160 0 -213 -86t-53 -344t53 -344t213 -86z" glyph-name="ohungarumlaut" horiz-adv-x="1177" unicode="ő"/><glyph d="M1229 172h551v-174h-768v61q-111 -80 -320 -79q-311 0 -429 180t-118 557q0 217 35 363.5t108.5 227.5t169 113.5t234.5 32.5q205 0 320 -80v58h743v-175h-526v-430h495v-174h-495v-481zM692 160q182 0 251 114.5t69 442.5q0 326 -67.5 441.5t-252.5 115.5 q-186 0 -254.5 -113.5t-68.5 -443.5q0 -326 69.5 -441.5t253.5 -115.5z" glyph-name="OE" horiz-adv-x="1886" unicode="Œ"/><glyph d="M1067 494q8 -195 76.5 -278t212.5 -83q119 0 344 60l24 -144q-221 -70 -391 -69q-246 0 -364 151q-106 -152 -379 -151.5t-375 142.5t-102 441q0 334 115.5 459t361.5 125q262 0 373 -141q109 141 366 141q133 0 219 -37t132 -117t62.5 -179t16.5 -251q0 -47 -2 -69h-690 zM590 133q158 0 211 86t53 344t-53 344t-211 86q-160 0 -213 -86t-53 -344t53 -344t213 -86zM1329 993q-133 0 -193.5 -72.5t-68.5 -277.5h481q-4 209 -48 279.5t-171 70.5z" glyph-name="oe" horiz-adv-x="1865" unicode="œ"/><glyph d="M963 2011l-256 -407h-172l210 407h218zM1204 0h-246l-333 592q-25 -2 -76 -2h-121v-590h-217v1434h338q301 0 410.5 -95.5t109.5 -314.5q0 -317 -244 -399zM428 750h121q170 0 233.5 57t63.5 209q0 147 -62.5 202.5t-234.5 55.5h-121v-524z" glyph-name="Racute" horiz-adv-x="1247" unicode="Ŕ"/><glyph d="M750 1704l-256 -408h-172l210 408h218zM375 995q82 152 313 152q35 0 47 -2l-16 -187q-45 20 -113 21q-119 0 -176 -72.5t-57 -261.5v-645h-205v1126l164 15l24 -146h19z" glyph-name="racute" horiz-adv-x="745" unicode="ŕ"/><glyph d="M825 625l379 -625h-246l-333 592q-25 -2 -76 -2h-121v-590h-217v1434h338q301 0 410.5 -95.5t109.5 -314.5q0 -317 -244 -399zM428 750h121q170 0 233.5 57t63.5 209q0 147 -62.5 202.5t-234.5 55.5h-121v-524zM508 -362v229h229v-229l-75 -281h-130l76 281h-100z" glyph-name="Rcommaaccent" horiz-adv-x="1247" unicode="Ŗ"/><glyph d="M688 1147q35 0 47 -2l-16 -187q-45 20 -113 21q-119 0 -176 -72.5t-57 -261.5v-645h-205v1126l164 15l24 -146h19q82 152 313 152zM295 -362v229h229v-229l-75 -281h-130l76 281h-100z" glyph-name="rcommaaccent" horiz-adv-x="745" unicode="ŗ"/><glyph d="M729 1595h-217l-264 408h172l201 -264l202 264h172zM1204 0h-246l-333 592q-25 -2 -76 -2h-121v-590h-217v1434h338q301 0 410.5 -95.5t109.5 -314.5q0 -317 -244 -399zM428 750h121q170 0 233.5 57t63.5 209q0 147 -62.5 202.5t-234.5 55.5h-121v-524z" glyph-name="Rcaron" horiz-adv-x="1247" unicode="Ř"/><glyph d="M516 1288h-217l-264 408h172l201 -264l202 264h172zM375 995q82 152 313 152q35 0 47 -2l-16 -187q-45 20 -113 21q-119 0 -176 -72.5t-57 -261.5v-645h-205v1126l164 15l24 -146h19z" glyph-name="rcaron" horiz-adv-x="745" unicode="ř"/><glyph d="M403 1604l211 407h217l-256 -407h-172zM449 -20q-152 0 -355 36l17 185q219 -41 338 -41q131 0 185 44t54 154q0 68 -19.5 106t-64.5 71l-354 264q-143 106 -144 299q0 356 457 356q129 0 318 -29l-17 -180q-188 29 -307 29q-125 0 -176 -42t-51 -128q0 -111 67 -160 l340 -252q174 -129 174 -330q0 -190 -120.5 -286t-341.5 -96z" glyph-name="Sacute" horiz-adv-x="1015" unicode="Ś"/><glyph d="M344 1296l211 408h217l-256 -408h-172zM377 -20q-121 0 -285 24l14 156q160 -27 265 -27q102 0 146 32t44 111q0 88 -67 138l-279 204q-115 84 -115 238q0 291 361 291q113 0 268 -27l-14 -155q-162 29 -252 28q-84 0 -118 -31.5t-34 -101.5q0 -49 13.5 -72.5t46.5 -46.5 l247 -182q80 -57 117 -120.5t37 -151.5q0 -152 -104.5 -229.5t-290.5 -77.5z" glyph-name="sacute" horiz-adv-x="854" unicode="ś"/><glyph d="M489 1860l-200 -265h-172l264 408h217l266 -408h-172zM737 692q174 -129 174 -330q0 -190 -120.5 -286t-341.5 -96q-152 0 -355 36l17 185q219 -41 338 -41q131 0 185 44t54 154q0 68 -19.5 106t-64.5 71l-354 264q-143 106 -144 299q0 356 457 356q129 0 318 -29 l-17 -180q-188 29 -307 29q-125 0 -176 -42t-51 -128q0 -111 67 -160z" glyph-name="Scircumflex" horiz-adv-x="1015" unicode="Ŝ"/><glyph d="M430 1552l-201 -264h-172l265 408h217l266 -408h-172zM618 559q80 -57 117 -120.5t37 -151.5q0 -152 -104.5 -229.5t-290.5 -77.5q-121 0 -285 24l14 156q160 -27 265 -27q102 0 146 32t44 111q0 88 -67 138l-279 204q-115 84 -115 238q0 291 361 291q113 0 268 -27 l-14 -155q-162 29 -252 28q-84 0 -118 -31.5t-34 -101.5q0 -49 13.5 -72.5t46.5 -46.5z" glyph-name="scircumflex" horiz-adv-x="854" unicode="ŝ"/><glyph d="M911 362q0 -166 -92 -260t-262 -116l-31 -99q111 -8 158 -53t49 -123q-2 -104 -68.5 -153.5t-170.5 -49.5q-76 0 -160 33l8 107q68 -27 125 -27q98 0 100 86q-2 70 -75 70h-113l43 203q-145 4 -328 36l17 185q219 -41 338 -41q131 0 185 44t54 154q0 68 -19.5 106 t-64.5 71l-354 264q-143 106 -144 299q0 356 457 356q129 0 318 -29l-17 -180q-188 29 -307 29q-125 0 -176 -42t-51 -128q0 -111 67 -160l340 -252q174 -129 174 -330z" glyph-name="Scedilla" horiz-adv-x="1015" unicode="Ş"/><glyph d="M772 287q0 -125 -71.5 -200t-202.5 -97l-31 -103q111 -8 158 -53t49 -123q-2 -104 -68.5 -153.5t-171.5 -49.5q-76 0 -160 33l9 107q66 -27 125 -27q98 0 100 86q-2 70 -76 70h-113l43 203q-123 4 -270 24l14 156q160 -27 265 -27q102 0 146 32t44 111q0 88 -67 138 l-279 204q-115 84 -115 238q0 291 361 291q113 0 268 -27l-14 -155q-162 29 -252 28q-84 0 -118 -31.5t-34 -101.5q0 -49 13.5 -72.5t46.5 -46.5l247 -182q80 -57 117 -120.5t37 -151.5z" glyph-name="scedilla" horiz-adv-x="854" unicode="ş"/><glyph d="M598 1595h-217l-264 408h172l200 -264l203 264h172zM737 692q174 -129 174 -330q0 -190 -120.5 -286t-341.5 -96q-152 0 -355 36l17 185q219 -41 338 -41q131 0 185 44t54 154q0 68 -19.5 106t-64.5 71l-354 264q-143 106 -144 299q0 356 457 356q129 0 318 -29l-17 -180 q-188 29 -307 29q-125 0 -176 -42t-51 -128q0 -111 67 -160z" glyph-name="Scaron" horiz-adv-x="1015" unicode="Š"/><glyph d="M539 1288h-217l-265 408h172l201 -264l203 264h172zM618 559q80 -57 117 -120.5t37 -151.5q0 -152 -104.5 -229.5t-290.5 -77.5q-121 0 -285 24l14 156q160 -27 265 -27q102 0 146 32t44 111q0 88 -67 138l-279 204q-115 84 -115 238q0 291 361 291q113 0 268 -27 l-14 -155q-162 29 -252 28q-84 0 -118 -31.5t-34 -101.5q0 -49 13.5 -72.5t46.5 -46.5z" glyph-name="scaron" horiz-adv-x="854" unicode="š"/><glyph d="M582 0h-41l-35 -113q111 -8 158 -53t49 -123q-2 -104 -68.5 -153.5t-171.5 -49.5q-76 0 -160 33l9 107q68 -27 124 -27q98 0 101 86q-2 70 -76 70h-113l48 223h-41v1260h-334v174h882v-174h-331v-1260z" glyph-name="Tcommaaccent" horiz-adv-x="944" unicode="Ţ"/><glyph d="M643 977h-227v-674q0 -104 20.5 -137t83.5 -33q51 0 88 10l15 -151q-53 -12 -129 -12q-45 0 -66 2l-29 -95q111 -8 158 -53t49 -123q-2 -104 -68.5 -153.5t-170.5 -49.5q-76 0 -160 33l8 107q68 -27 125 -27q98 0 100 86q-2 70 -75 70h-113l49 239q-90 59 -90 291v670 h-186v149h186v273h205v-273h227v-149z" glyph-name="tcommaaccent" horiz-adv-x="724" unicode="ţ"/><glyph d="M578 1595h-218l-264 408h172l201 -264l203 264h172zM913 1434v-174h-331v-1260h-217v1260h-334v174h882z" glyph-name="Tcaron" horiz-adv-x="944" unicode="Ť"/><glyph d="M553 1739h229v-230l-75 -280h-129l75 280h-100v230zM416 1399v-273h227v-149h-227v-674q0 -104 20.5 -137t83.5 -33q51 0 88 10l15 -151q-53 -12 -129 -12q-168 0 -225.5 66.5t-57.5 260.5v670h-186v149h186v273h205z" glyph-name="tcaron" horiz-adv-x="724" unicode="ť"/><glyph d="M913 1260h-331v-457h252v-174h-252v-629h-217v629h-256v174h256v457h-334v174h882v-174z" glyph-name="Tbar" horiz-adv-x="944" unicode="Ŧ"/><glyph d="M643 977h-227v-256h227v-174h-227v-244q0 -104 20.5 -137t83.5 -33q51 0 88 10l15 -151q-53 -12 -129 -12q-168 0 -225.5 66.5t-57.5 260.5v240h-186v174h186v256h-186v149h186v273h205v-273h227v-149z" glyph-name="tbar" horiz-adv-x="724" unicode="ŧ"/><glyph d="M834 1604q-61 0 -127 47l-109 80q-29 18 -51 18q-66 0 -78 -119h-127q0 123 57.5 203t143.5 80q59 0 125 -47l110 -82q25 -18 49 -19q68 0 80 119h127q0 -121 -57 -200.5t-143 -79.5zM694 -20q-295 0 -398 120.5t-103 425.5v908h217v-908q0 -219 57 -292.5t219 -73.5 t218.5 73.5t56.5 292.5v908h217v-908q0 -319 -108 -432.5t-376 -113.5z" glyph-name="Utilde" horiz-adv-x="1370" unicode="Ũ"/><glyph d="M449 1442q-66 0 -78 -119h-127q0 123 57 203t143 80q59 0 125 -47l111 -82q25 -18 49 -19q68 0 80 119h127q0 -121 -57.5 -201t-143.5 -80q-61 0 -127 47l-108 80q-26 19 -51 19zM815 1126h205v-1126l-164 -14l-22 129h-19q-78 -135 -309 -135q-203 0 -276.5 95 t-73.5 328v723h204v-718q0 -152 46.5 -213.5t175.5 -61.5q121 0 177 60.5t56 214.5v718z" glyph-name="utilde" horiz-adv-x="1187" unicode="ũ"/><glyph d="M377 1831h618v-150h-618v150zM694 -20q-295 0 -398 120.5t-103 425.5v908h217v-908q0 -219 57 -292.5t219 -73.5t218.5 73.5t56.5 292.5v908h217v-908q0 -319 -108 -432.5t-376 -113.5z" glyph-name="Umacron" horiz-adv-x="1370" unicode="Ū"/><glyph d="M897 1524v-150h-618v150h618zM815 1126h205v-1126l-164 -14l-22 129h-19q-78 -135 -309 -135q-203 0 -276.5 95t-73.5 328v723h204v-718q0 -152 46.5 -213.5t175.5 -61.5q121 0 177 60.5t56 214.5v718z" glyph-name="umacron" horiz-adv-x="1187" unicode="ū"/><glyph d="M688 1599q-195 0 -269.5 79t-74.5 233v31h170v-31q0 -82 40 -122t134 -40q84 0 128 36t44 126v31h170v-31q0 -174 -87 -243t-255 -69zM694 -20q-295 0 -398 120.5t-103 425.5v908h217v-908q0 -219 57 -292.5t219 -73.5t218.5 73.5t56.5 292.5v908h217v-908 q0 -319 -108 -432.5t-376 -113.5z" glyph-name="Ubreve" horiz-adv-x="1370" unicode="Ŭ"/><glyph d="M590 1292q-195 0 -269.5 79t-74.5 233v30h170v-30q0 -82 40 -122t134 -40q84 0 128 35.5t44 126.5v30h170v-30q0 -174 -87 -243t-255 -69zM815 1126h205v-1126l-164 -14l-22 129h-19q-78 -135 -309 -135q-203 0 -276.5 95t-73.5 328v723h204v-718q0 -152 46.5 -213.5 t175.5 -61.5q121 0 177 60.5t56 214.5v718z" glyph-name="ubreve" horiz-adv-x="1187" unicode="ŭ"/><glyph d="M686 1561q-145 0 -201.5 59t-56.5 176q0 131 65.5 182.5t192.5 51.5q143 0 199.5 -59.5t56.5 -174.5q0 -133 -65.5 -184t-190.5 -51zM686 1673q61 0 91 26.5t30 96.5q0 61 -25.5 91t-95.5 30q-63 0 -93 -25.5t-30 -95.5q0 -63 26.5 -93t96.5 -30zM694 -20 q-295 0 -398 120.5t-103 425.5v908h217v-908q0 -219 57 -292.5t219 -73.5t218.5 73.5t56.5 292.5v908h217v-908q0 -319 -108 -432.5t-376 -113.5z" glyph-name="Uring" horiz-adv-x="1370" unicode="Ů"/><glyph d="M588 1253q-145 0 -201.5 59.5t-56.5 176.5q0 131 65.5 182t192.5 51q143 0 199.5 -59t56.5 -174q0 -133 -65.5 -184.5t-190.5 -51.5zM588 1610q-63 0 -93 -25.5t-30 -95.5q0 -63 26.5 -93t96.5 -30q61 0 91 26.5t30 96.5q0 61 -25.5 91t-95.5 30zM815 1126h205v-1126 l-164 -14l-22 129h-19q-78 -135 -309 -135q-203 0 -276.5 95t-73.5 328v723h204v-718q0 -152 46.5 -213.5t175.5 -61.5q121 0 177 60.5t56 214.5v718z" glyph-name="uring" horiz-adv-x="1187" unicode="ů"/><glyph d="M414 1593l211 428h217l-256 -428h-172zM799 1593l211 428h217l-256 -428h-172zM694 -20q-295 0 -398 120.5t-103 425.5v908h217v-908q0 -219 57 -292.5t219 -73.5t218.5 73.5t56.5 292.5v908h217v-908q0 -319 -108 -432.5t-376 -113.5z" glyph-name="Uhungarumlaut" horiz-adv-x="1370" unicode="Ű"/><glyph d="M743 1714l-256 -428h-172l211 428h217zM872 1286h-172l211 428h217zM815 408v718h205v-1126l-164 -14l-22 129h-19q-78 -135 -309 -135q-203 0 -276.5 95t-73.5 328v723h204v-718q0 -152 46.5 -213.5t175.5 -61.5q121 0 177 60.5t56 214.5z" glyph-name="uhungarumlaut" horiz-adv-x="1187" unicode="ű"/><glyph d="M961 1434h217v-908q0 -291 -89.5 -408.5t-302.5 -133.5q-70 -74 -69 -148q0 -63 46 -107t146 -44l23 -123q-25 -2 -49 -2q-145 0 -231.5 59t-86.5 186q0 94 72 177q-260 10 -352 132t-92 412v908h217v-908q0 -219 57 -292.5t219 -73.5t218.5 73.5t56.5 292.5v908z" glyph-name="Uogonek" horiz-adv-x="1370" unicode="Ų"/><glyph d="M1112 -315l23 -123q-25 -2 -50 -2q-145 0 -231 59t-86 186q0 104 86 191l-20 119h-19q-78 -135 -309 -135q-203 0 -276.5 95t-73.5 328v723h204v-718q0 -152 46.5 -213.5t175.5 -61.5q121 0 177 60.5t56 214.5v718h205v-1126l-14 -2q-86 -76 -86 -162q0 -63 46 -107 t146 -44z" glyph-name="uogonek" horiz-adv-x="1187" unicode="ų"/><glyph d="M936 1860l-201 -265h-172l264 408h217l267 -408h-172zM1559 1434h229l-246 -1434h-379l-202 1260h-46l-202 -1260h-381l-244 1434h227l195 -1260h47l203 1260h356l201 -1260h49z" glyph-name="Wcircumflex" horiz-adv-x="1875" unicode="Ŵ"/><glyph d="M872 1552l-200 -264h-172l264 408h217l266 -408h-172zM1501 1126h215l-280 -1126h-312l-239 973h-19l-241 -973h-310l-280 1126h215l221 -972h23l221 972h321l219 -972h25z" glyph-name="wcircumflex" horiz-adv-x="1751" unicode="ŵ"/><glyph d="M582 1860l-201 -265h-172l264 408h217l266 -408h-172zM1151 1434l-465 -861v-573h-217v575l-451 859h242l307 -629h25l317 629h242z" glyph-name="Ycircumflex" horiz-adv-x="1169" unicode="Ŷ"/><glyph d="M510 1552l-201 -264h-172l264 408h217l267 -408h-172zM782 1126h215l-348 -1202q-45 -158 -142 -235.5t-263 -77.5q-63 0 -138 12l15 152q63 -10 115 -11q96 0 149 39t86 164l8 33h-137l-317 1126h215l254 -972h26z" glyph-name="ycircumflex" horiz-adv-x="1017" unicode="ŷ"/><glyph d="M475 1876v-229h-229v229h229zM920 1876v-229h-230v229h230zM1151 1434l-465 -861v-573h-217v575l-451 859h242l307 -629h25l317 629h242z" glyph-name="Ydieresis" horiz-adv-x="1169" unicode="Ÿ"/><glyph d="M852 2011l-256 -407h-172l211 407h217zM143 1434h787v-246l-633 -961v-53h616v-174h-833v252l633 960v48h-570v174z" glyph-name="Zacute" horiz-adv-x="1021" unicode="Ź"/><glyph d="M795 1704l-256 -408h-172l211 408h217zM266 154h582v-154h-787v213l564 711v49h-531v153h733v-219l-561 -708v-45z" glyph-name="zacute" horiz-adv-x="909" unicode="ź"/><glyph d="M629 1876v-231h-232v231h232zM143 1434h787v-246l-633 -961v-53h616v-174h-833v252l633 960v48h-570v174z" glyph-name="Zdotaccent" horiz-adv-x="1021" unicode="Ż"/><glyph d="M571 1569v-232h-231v232h231zM266 154h582v-154h-787v213l564 711v49h-531v153h733v-219l-561 -708v-45z" glyph-name="zdotaccent" horiz-adv-x="909" unicode="ż"/><glyph d="M618 1595h-217l-264 408h172l201 -264l203 264h172zM143 1434h787v-246l-633 -961v-53h616v-174h-833v252l633 960v48h-570v174z" glyph-name="Zcaron" horiz-adv-x="1021" unicode="Ž"/><glyph d="M561 1288h-217l-264 408h172l201 -264l202 264h172zM266 154h582v-154h-787v213l564 711v49h-531v153h733v-219l-561 -708v-45z" glyph-name="zcaron" horiz-adv-x="909" unicode="ž"/><glyph d="M561 1548q84 0 148 -14l-15 -154q-51 14 -125 15q-92 0 -122.5 -49.5t-30.5 -192.5v-1153h-205v977h-199v149h199v27q0 217 73.5 306t276.5 89z" glyph-name="longs" horiz-adv-x="688" unicode="ſ"/><glyph d="M686 1395q-92 0 -123 -49.5t-31 -192.5v-289h248v-149h-248v-742q0 -213 -63 -287.5t-246 -74.5q-63 0 -100 6l14 152q16 -4 68 -5q74 -2 98.5 41t24.5 166v744h-199v149h199v289q0 217 73.5 306t276.5 89q84 0 147 -14l-14 -154q-51 15 -125 15z" glyph-name="florin" horiz-adv-x="929" unicode="ƒ"/><glyph d="M1221 1665h168v-184q0 -262 -220 -301q66 -158 66 -463q0 -217 -35 -363.5t-107.5 -227.5t-168 -113.5t-232.5 -32.5q-311 0 -429 180t-118 557q0 217 35 363.5t108.5 227.5t169 113.5t234.5 32.5q262 0 391 -135q68 6 103 43t35 119v184zM692 160q182 0 251 114.5 t69 442.5q0 326 -67.5 441.5t-252.5 115.5q-186 0 -254.5 -113.5t-68.5 -443.5q0 -326 69.5 -441.5t253.5 -115.5z" glyph-name="Ohorn" horiz-adv-x="1380" unicode="Ơ"/><glyph d="M1110 1343h168v-184q0 -147 -62.5 -218t-181.5 -87q31 -113 31 -291q0 -334 -115.5 -458.5t-359.5 -124.5q-272 0 -374.5 142t-102.5 441q0 334 115.5 459t361.5 125q270 0 379 -150q141 10 141 162v184zM590 133q158 0 211 86t53 344t-53 344t-211 86q-160 0 -213 -86 t-53 -344t53 -344t213 -86z" glyph-name="ohorn" horiz-adv-x="1177" unicode="ơ"/><glyph d="M1292 1782h168v-185q0 -160 -71.5 -229.5t-210.5 -79.5v-762q0 -319 -107.5 -432.5t-376.5 -113.5q-295 0 -398 120.5t-103 425.5v908h217v-908q0 -219 57 -292.5t219 -73.5t218.5 73.5t56.5 292.5v908h157q86 0 130 35.5t44 127.5v185z" glyph-name="Uhorn" horiz-adv-x="1370" unicode="Ư"/><glyph d="M1128 1475h168v-185q0 -158 -70.5 -227.5t-205.5 -81.5v-981l-164 -14l-22 129h-19q-78 -135 -309 -135q-203 0 -276.5 95t-73.5 328v723h204v-718q0 -152 46.5 -213.5t175.5 -61.5q121 0 177 60.5t56 214.5v718h139q86 0 130 36t44 128v185z" glyph-name="uhorn" horiz-adv-x="1187" unicode="ư"/><glyph d="M1931 1595h-217l-264 408h172l201 -264l202 264h173zM664 1434q281 0 411.5 -168t130.5 -549q0 -371 -127 -544t-415 -173h-453v1434h453zM1456 1434h787v-246l-633 -961v-53h616v-174h-833v252l632 960v48h-569v174zM664 160q174 0 246.5 125t72.5 432t-72.5 432 t-246.5 125h-236v-1114h236z" glyph-name="uni01C4" horiz-adv-x="2334" unicode="Ǆ"/><glyph d="M1874 1288h-217l-264 408h172l200 -264l203 264h172zM664 1434q281 0 411.5 -168t130.5 -549q0 -371 -127 -544t-415 -173h-453v1434h453zM664 160q174 0 246.5 125t72.5 432t-72.5 432t-246.5 125h-236v-1114h236zM1579 154h582v-154h-787v213l563 711v49h-530v153h733 v-219l-561 -708v-45z" glyph-name="uni01C5" horiz-adv-x="2222" unicode="ǅ"/><glyph d="M1772 1288h-218l-264 408h172l201 -264l203 264h172zM807 1044v492h205v-1536l-164 -14l-23 129h-16q-74 -135 -277 -135q-231 0 -325 149.5t-94 423.5q0 324 110.5 459t323.5 135q180 0 248 -103h12zM1477 154h581v-154h-786v213l563 711v49h-530v153h733v-219 l-561 -708v-45zM573 133q121 0 177.5 59.5t56.5 215.5v311q0 158 -57.5 216t-174.5 58q-143 0 -197 -89t-54 -343q0 -250 53 -339t196 -89z" glyph-name="uni01C6" horiz-adv-x="2119" unicode="ǆ"/><glyph d="M428 1434v-1260h455v-174h-672v1434h217zM1229 1434h217v-1092q0 -213 -64.5 -287.5t-261.5 -74.5q-84 0 -149 16l14 176q51 -12 117 -12q78 0 102.5 36.5t24.5 145.5v1092z" glyph-name="uni01C7" horiz-adv-x="1650" unicode="Ǉ"/><glyph d="M1100 1569h231v-232h-231v232zM883 174v-174h-672v1434h217v-1260h455zM1112 -27v1153h205v-1153q0 -215 -63.5 -287.5t-252.5 -74.5q-82 0 -139 14l15 152q49 -12 112 -13q76 0 99.5 40t23.5 169z" glyph-name="uni01C8" horiz-adv-x="1503" unicode="ǈ"/><glyph d="M780 1337v232h232v-232h-232zM444 -20q-168 0 -225 66.5t-57 260.5v1229h205v-1233q0 -104 20.5 -137t83.5 -33q49 0 90 10l12 -151q-53 -12 -129 -12zM682 -389q-82 0 -139 14l14 152q49 -12 113 -13q76 0 99.5 40t23.5 169v1153h204v-1153q0 -215 -63.5 -287.5 t-251.5 -74.5z" glyph-name="uni01C9" horiz-adv-x="1183" unicode="ǉ"/><glyph d="M1004 174v1260h215v-1434h-402l-377 1260h-14v-1260h-215v1434h401l379 -1260h13zM1714 1434h217v-1092q0 -213 -64.5 -287.5t-260.5 -74.5q-84 0 -150 16l14 176q53 -12 117 -12q78 0 102.5 36.5t24.5 145.5v1092z" glyph-name="uni01CA" horiz-adv-x="2136" unicode="Ǌ"/><glyph d="M1585 1569h232v-232h-232v232zM1004 174v1260h215v-1434h-402l-377 1260h-14v-1260h-215v1434h401l379 -1260h13zM1597 -27v1153h205v-1153q0 -215 -63.5 -287.5t-251.5 -74.5q-82 0 -139 14l14 152q49 -12 113 -13q76 0 99 40t23 169z" glyph-name="uni01CB" horiz-adv-x="1988" unicode="ǋ"/><glyph d="M1409 1569h231v-232h-231v232zM682 1147q203 0 276.5 -95.5t73.5 -328.5v-723h-205v719q0 152 -46 213t-175 61q-121 0 -177 -60.5t-56 -213.5v-719h-205v1126l164 15l22 -127h21q78 133 307 133zM1421 -27v1153h205v-1153q0 -215 -63.5 -287.5t-251.5 -74.5 q-82 0 -140 14l15 152q49 -12 112 -13q76 0 99.5 40t23.5 169z" glyph-name="uni01CC" horiz-adv-x="1812" unicode="ǌ"/><glyph d="M735 1595h-217l-264 408h172l201 -264l202 264h172zM979 0l-100 383h-502l-101 -383h-229l404 1434h354l403 -1434h-229zM422 557h412l-185 703h-43z" glyph-name="uni01CD" horiz-adv-x="1255" unicode="Ǎ"/><glyph d="M598 1288h-217l-264 408h172l200 -264l203 264h172zM524 1147q176 0 269.5 -87t93.5 -296v-764l-164 -14l-23 129h-16q-76 -135 -268 -135q-170 0 -256 89t-86 242q0 156 85 245t249 89h274v119q0 125 -49 177t-152 52q-86 0 -309 -49l-27 150q242 53 379 53zM457 133 q115 0 170 60.5t55 214.5v84h-233q-84 0 -125 -40t-41 -140.5t43 -139.5t131 -39z" glyph-name="uni01CE" horiz-adv-x="1040" unicode="ǎ"/><glyph d="M692 2003l-266 -408h-217l-264 408h172l200 -264l203 264h172zM211 0v1434h217v-1434h-217z" glyph-name="uni01CF" horiz-adv-x="638" unicode="Ǐ"/><glyph d="M471 1696h172l-266 -408h-217l-264 408h172l200 -264zM168 0v1126h205v-1126h-205z" glyph-name="uni01D0" horiz-adv-x="538" unicode="ǐ"/><glyph d="M797 1595h-217l-265 408h172l201 -264l203 264h172zM692 1454q309 0 426 -179t117 -558q0 -217 -35 -363.5t-107.5 -227.5t-168 -113.5t-232.5 -32.5q-311 0 -429 180t-118 557q0 217 35 363.5t108.5 227.5t169 113.5t234.5 32.5zM692 160q182 0 251 114.5t69 442.5 q0 326 -67.5 441.5t-252.5 115.5q-186 0 -254.5 -113.5t-68.5 -443.5q0 -326 69.5 -441.5t253.5 -115.5z" glyph-name="uni01D1" horiz-adv-x="1380" unicode="Ǒ"/><glyph d="M696 1288h-217l-264 408h172l201 -264l203 264h172zM590 1147q272 0 373.5 -142.5t101.5 -441.5q0 -334 -115.5 -458.5t-359.5 -124.5q-272 0 -374.5 142t-102.5 441q0 334 115.5 459t361.5 125zM590 133q158 0 211 86t53 344t-53 344t-211 86q-160 0 -213 -86t-53 -344 t53 -344t213 -86z" glyph-name="uni01D2" horiz-adv-x="1177" unicode="ǒ"/><glyph d="M793 1595h-218l-264 408h172l201 -264l203 264h172zM961 1434h217v-908q0 -319 -107.5 -432.5t-376.5 -113.5q-295 0 -398 120.5t-103 425.5v908h217v-908q0 -219 57 -292.5t219 -73.5t218.5 73.5t56.5 292.5v908z" glyph-name="uni01D3" horiz-adv-x="1370" unicode="Ǔ"/><glyph d="M694 1288h-217l-264 408h172l201 -264l202 264h173zM815 1126h205v-1126l-164 -14l-22 129h-19q-78 -135 -309 -135q-203 0 -276.5 95t-73.5 328v723h204v-718q0 -152 46.5 -213.5t175.5 -61.5q121 0 177 60.5t56 214.5v718z" glyph-name="uni01D4" horiz-adv-x="1187" unicode="ǔ"/><glyph d="M373 2224h618v-149h-618v149zM348 1876h230v-229h-230v229zM793 1876h229v-229h-229v229zM694 -20q-295 0 -398 120.5t-103 425.5v908h217v-908q0 -219 57 -292.5t219 -73.5t218.5 73.5t56.5 292.5v908h217v-908q0 -319 -108 -432.5t-376 -113.5z" glyph-name="uni01D5" horiz-adv-x="1370" unicode="Ǖ"/><glyph d="M893 1917v-150h-619v150h619zM479 1569v-230h-229v230h229zM694 1339v230h230v-230h-230zM815 1126h205v-1126l-164 -14l-22 129h-19q-78 -135 -309 -135q-203 0 -276.5 95t-73.5 328v723h204v-718q0 -152 46.5 -213.5t175.5 -61.5q121 0 177 60.5t56 214.5v718z" glyph-name="uni01D6" horiz-adv-x="1187" unicode="ǖ"/><glyph d="M614 2007l211 408h217l-256 -408h-172zM348 1876h230v-229h-230v229zM793 1876h229v-229h-229v229zM694 -20q-295 0 -398 120.5t-103 425.5v908h217v-908q0 -219 57 -292.5t219 -73.5t218.5 73.5t56.5 292.5v908h217v-908q0 -319 -108 -432.5t-376 -113.5z" glyph-name="uni01D7" horiz-adv-x="1370" unicode="Ǘ"/><glyph d="M944 2107l-256 -407h-172l211 407h217zM479 1569v-230h-229v230h229zM924 1339h-230v230h230v-230zM815 1126h205v-1126l-164 -14l-22 129h-19q-78 -135 -309 -135q-203 0 -276.5 95t-73.5 328v723h204v-718q0 -152 46.5 -213.5t175.5 -61.5q121 0 177 60.5t56 214.5v718 z" glyph-name="uni01D8" horiz-adv-x="1187" unicode="ǘ"/><glyph d="M795 2007h-217l-265 408h172l201 -265l201 265h172zM578 1647h-230v229h230v-229zM793 1647v229h229v-229h-229zM961 1434h217v-908q0 -319 -107.5 -432.5t-376.5 -113.5q-295 0 -398 120.5t-103 425.5v908h217v-908q0 -219 57 -292.5t219 -73.5t218.5 73.5t56.5 292.5 v908z" glyph-name="uni01D9" horiz-adv-x="1370" unicode="Ǚ"/><glyph d="M696 1700h-217l-264 407h172l201 -264l200 264h173zM479 1339h-229v230h229v-230zM694 1339v230h230v-230h-230zM815 1126h205v-1126l-164 -14l-22 129h-19q-78 -135 -309 -135q-203 0 -276.5 95t-73.5 328v723h204v-718q0 -152 46.5 -213.5t175.5 -61.5q121 0 177 60.5 t56 214.5v718z" glyph-name="uni01DA" horiz-adv-x="1187" unicode="ǚ"/><glyph d="M598 2007l-256 408h217l211 -408h-172zM348 1647v229h230v-229h-230zM793 1647v229h229v-229h-229zM694 -20q-295 0 -398 120.5t-103 425.5v908h217v-908q0 -219 57 -292.5t219 -73.5t218.5 73.5t56.5 292.5v908h217v-908q0 -319 -108 -432.5t-376 -113.5z" glyph-name="uni01DB" horiz-adv-x="1370" unicode="Ǜ"/><glyph d="M672 1700h-172l-256 407h217zM479 1339h-229v230h229v-230zM924 1569v-230h-230v230h230zM815 1126h205v-1126l-164 -14l-22 129h-19q-78 -135 -309 -135q-203 0 -276.5 95t-73.5 328v723h204v-718q0 -152 46.5 -213.5t175.5 -61.5q121 0 177 60.5t56 214.5v718z" glyph-name="uni01DC" horiz-adv-x="1187" unicode="ǜ"/><glyph d="M1382 1831v-150h-618v150h618zM1104 174h551v-174h-768v383h-465l-168 -383h-229l659 1434h946v-174h-526v-431h495v-174h-495v-481zM500 557h387v703h-78z" glyph-name="uni01E2" horiz-adv-x="1763" unicode="Ǣ"/><glyph d="M754 1595h-217l-265 408h172l201 -264l203 264h172zM1126 815v-815l-161 -14l-25 135h-18q-98 -141 -308 -141q-137 0 -230 52t-144.5 156.5t-73 233.5t-21.5 309q0 221 37 364.5t115 221.5t178 107.5t250 29.5q199 0 317 -39l-16 -184q-125 43 -324 43 q-133 0 -200.5 -44t-100 -164t-32.5 -353q0 -332 60 -442.5t241 -110.5q121 0 186.5 59.5t65.5 214.5v207h-236v174h440z" glyph-name="Gcaron" horiz-adv-x="1280" unicode="Ǧ"/><glyph d="M676 1288h-217l-264 408h172l200 -264l203 264h172zM584 252q283 0 388 -79t105 -236q0 -186 -118.5 -256t-374.5 -70q-279 0 -385.5 67.5t-106.5 217.5q0 178 156 229v12q-113 55 -113 160q0 82 96 164l5 4q-100 84 -101 287q0 225 101.5 310t312.5 85q119 0 199 -21 h311l10 -133l-143 -24q55 -63 55 -197q0 -225 -100.5 -309t-311.5 -84q-123 0 -198 20l-23 -18q-31 -25 -31 -64q0 -66 105 -65h162zM561 993q-127 0 -171 -47t-44 -184q0 -139 43 -184.5t170 -45.5t169 45.5t42 184.5t-42 185t-167 46zM590 -236q162 0 219 35t57 135 q0 96 -56 130t-224 34h-70q-121 -8 -167 -53t-46 -137q0 -80 58.5 -112t228.5 -32z" glyph-name="gcaron" horiz-adv-x="1138" unicode="ǧ"/><glyph d="M764 1595h-217l-264 408h172l200 -264l203 264h172zM934 0l-422 655h-84v-655h-217v1434h217v-605h86l391 605h250l-477 -691l506 -743h-250z" glyph-name="uni01E8" horiz-adv-x="1214" unicode="Ǩ"/><glyph d="M432 1647h-217l-264 407h172l201 -264l202 264h172zM838 0l-394 545h-71v-545h-205v1536h205v-842h65l369 432h246l-449 -503l469 -623h-235z" glyph-name="uni01E9" horiz-adv-x="1073" unicode="ǩ"/><glyph d="M664 1434q281 0 411.5 -168t130.5 -549q0 -371 -127 -544t-415 -173h-453v1434h453zM1456 1434h787v-246l-633 -961v-53h616v-174h-833v252l632 960v48h-569v174zM664 160q174 0 246.5 125t72.5 432t-72.5 432t-246.5 125h-236v-1114h236z" glyph-name="uni01F1" horiz-adv-x="2334" unicode="Ǳ"/><glyph d="M664 1434q281 0 411.5 -168t130.5 -549q0 -371 -127 -544t-415 -173h-453v1434h453zM664 160q174 0 246.5 125t72.5 432t-72.5 432t-246.5 125h-236v-1114h236zM1579 154h582v-154h-787v213l563 711v49h-530v153h733v-219l-561 -708v-45z" glyph-name="uni01F2" horiz-adv-x="2222" unicode="ǲ"/><glyph d="M807 1044v492h205v-1536l-164 -14l-23 129h-16q-74 -135 -277 -135q-231 0 -325 149.5t-94 423.5q0 324 110.5 459t323.5 135q180 0 248 -103h12zM1477 154h581v-154h-786v213l563 711v49h-530v153h733v-219l-561 -708v-45zM573 133q121 0 177.5 59.5t56.5 215.5v311 q0 158 -57.5 216t-174.5 58q-143 0 -197 -89t-54 -343q0 -250 53 -339t196 -89z" glyph-name="uni01F3" horiz-adv-x="2119" unicode="ǳ"/><glyph d="M987 2011l-256 -407h-172l211 407h217zM1126 815v-815l-161 -14l-25 135h-18q-98 -141 -308 -141q-137 0 -230 52t-144.5 156.5t-73 233.5t-21.5 309q0 221 37 364.5t115 221.5t178 107.5t250 29.5q199 0 317 -39l-16 -184q-125 43 -324 43q-133 0 -200.5 -44t-100 -164 t-32.5 -353q0 -332 60 -442.5t241 -110.5q121 0 186.5 59.5t65.5 214.5v207h-236v174h440z" glyph-name="uni01F4" horiz-adv-x="1280" unicode="Ǵ"/><glyph d="M909 1704l-256 -408h-172l211 408h217zM584 252q283 0 388 -79t105 -236q0 -186 -118.5 -256t-374.5 -70q-279 0 -385.5 67.5t-106.5 217.5q0 178 156 229v12q-113 55 -113 160q0 82 96 164l5 4q-100 84 -101 287q0 225 101.5 310t312.5 85q119 0 199 -21h311l10 -133 l-143 -24q55 -63 55 -197q0 -225 -100.5 -309t-311.5 -84q-123 0 -198 20l-23 -18q-31 -25 -31 -64q0 -66 105 -65h162zM561 993q-127 0 -171 -47t-44 -184q0 -139 43 -184.5t170 -45.5t169 45.5t42 184.5t-42 185t-167 46zM590 -236q162 0 219 35t57 135q0 96 -56 130 t-224 34h-70q-121 -8 -167 -53t-46 -137q0 -80 58.5 -112t228.5 -32z" glyph-name="uni01F5" horiz-adv-x="1138" unicode="ǵ"/><glyph d="M965 2509l-256 -408h-172l211 408h217zM629 1561q-145 0 -201.5 59t-56.5 176q0 131 65.5 182.5t192.5 51.5q143 0 199.5 -59.5t56.5 -174.5q0 -133 -65.5 -184t-190.5 -51zM629 1917q-63 0 -93 -25.5t-30 -95.5q0 -63 26.5 -93t96.5 -30q61 0 91 26.5t30 96.5 q0 61 -25.5 91t-95.5 30zM979 0l-100 383h-502l-101 -383h-229l404 1434h354l403 -1434h-229zM422 557h412l-185 703h-43z" glyph-name="Aringacute" horiz-adv-x="1255" unicode="Ǻ"/><glyph d="M827 2202l-256 -408h-172l211 408h217zM492 1253q-145 0 -202 59.5t-57 176.5q0 131 66 182t193 51q143 0 199.5 -59t56.5 -174q0 -133 -65.5 -184.5t-190.5 -51.5zM492 1610q-63 0 -93 -25.5t-30 -95.5q0 -63 26.5 -93t96.5 -30q61 0 90.5 26.5t29.5 96.5q0 61 -25 91 t-95 30zM524 1147q176 0 269.5 -87t93.5 -296v-764l-164 -14l-23 129h-16q-76 -135 -268 -135q-170 0 -256 89t-86 242q0 156 85 245t249 89h274v119q0 125 -49 177t-152 52q-86 0 -309 -49l-27 150q242 53 379 53zM457 133q115 0 170 60.5t55 214.5v84h-233q-84 0 -125 -40 t-41 -140.5t43 -139.5t131 -39z" glyph-name="aringacute" horiz-adv-x="1040" unicode="ǻ"/><glyph d="M1413 2011l-256 -407h-172l211 407h217zM1104 174h551v-174h-768v383h-465l-168 -383h-229l659 1434h946v-174h-526v-431h495v-174h-495v-481zM500 557h387v703h-78z" glyph-name="AEacute" horiz-adv-x="1763" unicode="Ǽ"/><glyph d="M1030 2011l-256 -407h-172l211 407h217zM1036 1360q109 -82 154 -240.5t45 -402.5q0 -217 -35 -363.5t-107.5 -227.5t-168 -113.5t-232.5 -32.5q-100 0 -180 18l-39 -100h-197l68 176q-109 84 -154 241.5t-45 401.5q0 217 35 363.5t108.5 227.5t169 113.5t234.5 32.5 q98 0 176 -18l39 100h197zM369 717q0 -305 59 -424l375 971q-55 10 -111 10q-186 0 -254.5 -113.5t-68.5 -443.5zM692 160q182 0 251 114.5t69 442.5q0 307 -60 426l-372 -971q49 -12 112 -12z" glyph-name="Oslashacute" horiz-adv-x="1380" unicode="Ǿ"/><glyph d="M930 1704l-256 -408h-172l211 408h217zM885 1077q100 -63 140 -189t40 -325q0 -334 -115.5 -458.5t-359.5 -124.5q-76 0 -125 8l-35 -90h-194l59 151q-100 66 -141 192t-41 322q0 334 115.5 459t361.5 125q74 0 123 -8l35 90h194zM324 563q0 -240 43 -325l288 751 q-41 4 -65 4q-160 0 -213 -86t-53 -344zM590 133q158 0 211 86t53 344q0 240 -43 326l-289 -752q41 -4 68 -4z" glyph-name="oslashacute" horiz-adv-x="1177" unicode="ǿ"/><glyph d="M516 1593h-172l-256 428h217zM901 1593h-172l-256 428h217zM979 0l-100 383h-502l-101 -383h-229l404 1434h354l403 -1434h-229zM422 557h412l-185 703h-43z" glyph-name="uni0200" horiz-adv-x="1255" unicode="Ȁ"/><glyph d="M379 1286h-172l-256 428h217zM764 1286h-172l-256 428h217zM524 1147q176 0 269.5 -87t93.5 -296v-764l-164 -14l-23 129h-16q-76 -135 -268 -135q-170 0 -256 89t-86 242q0 156 85 245t249 89h274v119q0 125 -49 177t-152 52q-86 0 -309 -49l-27 150q242 53 379 53z M457 133q115 0 170 60.5t55 214.5v84h-233q-84 0 -125 -40t-41 -140.5t43 -139.5t131 -39z" glyph-name="uni0201" horiz-adv-x="1040" unicode="ȁ"/><glyph d="M457 1630v-31h-170v31q0 154 74.5 233t269.5 79q168 0 255 -68t87 -244v-31h-170v31q0 92 -44 128t-128 36q-94 0 -134 -41t-40 -123zM979 0l-100 383h-502l-101 -383h-229l404 1434h354l403 -1434h-229zM422 557h412l-185 703h-43z" glyph-name="uni0202" horiz-adv-x="1255" unicode="Ȃ"/><glyph d="M319 1323v-31h-169v31q0 154 74.5 232.5t269.5 78.5q168 0 255 -67.5t87 -243.5v-31h-170v31q0 92 -44 128t-128 36q-94 0 -134.5 -41t-40.5 -123zM524 1147q176 0 269.5 -87t93.5 -296v-764l-164 -14l-23 129h-16q-76 -135 -268 -135q-170 0 -256 89t-86 242 q0 156 85 245t249 89h274v119q0 125 -49 177t-152 52q-86 0 -309 -49l-27 150q242 53 379 53zM457 133q115 0 170 60.5t55 214.5v84h-233q-84 0 -125 -40t-41 -140.5t43 -139.5t131 -39z" glyph-name="uni0203" horiz-adv-x="1040" unicode="ȃ"/><glyph d="M463 1593h-172l-256 428h217zM848 1593h-172l-256 428h217zM428 174h553v-174h-770v1434h745v-174h-528v-431h498v-174h-498v-481z" glyph-name="uni0204" horiz-adv-x="1089" unicode="Ȅ"/><glyph d="M449 1286h-173l-256 428h218zM834 1286h-172l-256 428h217zM319 494q8 -195 77 -278t212 -83q119 0 344 60l25 -144q-221 -70 -391 -69q-479 0 -480 583q0 330 119 457t357 127q133 0 219 -37t132 -117t62.5 -179t16.5 -251q0 -47 -2 -69h-691zM582 993 q-133 0 -193.5 -72.5t-69.5 -277.5h482q-4 209 -48 279.5t-171 70.5z" glyph-name="uni0205" horiz-adv-x="1118" unicode="ȅ"/><glyph d="M403 1630v-31h-170v31q0 154 75 233t270 79q168 0 255 -68t87 -244v-31h-170v31q0 92 -44 128t-128 36q-94 0 -134.5 -41t-40.5 -123zM428 174h553v-174h-770v1434h745v-174h-528v-431h498v-174h-498v-481z" glyph-name="uni0206" horiz-adv-x="1089" unicode="Ȇ"/><glyph d="M389 1323v-31h-170v31q0 154 75 232.5t269 78.5q168 0 255 -67.5t87 -243.5v-31h-170v31q0 92 -44 128t-128 36q-94 0 -134 -41t-40 -123zM319 494q8 -195 77 -278t212 -83q119 0 344 60l25 -144q-221 -70 -391 -69q-479 0 -480 583q0 330 119 457t357 127q133 0 219 -37 t132 -117t62.5 -179t16.5 -251q0 -47 -2 -69h-691zM582 993q-133 0 -193.5 -72.5t-69.5 -277.5h482q-4 209 -48 279.5t-171 70.5z" glyph-name="uni0207" horiz-adv-x="1118" unicode="ȇ"/><glyph d="M35 1593l-256 428h217l211 -428h-172zM420 1593l-256 428h217l211 -428h-172zM428 1434v-1434h-217v1434h217z" glyph-name="uni0208" horiz-adv-x="638" unicode="Ȉ"/><glyph d="M-14 1286l-256 428h217l211 -428h-172zM371 1286l-256 428h217l211 -428h-172zM373 1126v-1126h-205v1126h205z" glyph-name="uni0209" horiz-adv-x="538" unicode="ȉ"/><glyph d="M-23 1599v31q0 154 75 233t270 79q168 0 255 -68t87 -244v-31h-170v31q0 92 -44 128t-128 36q-94 0 -134.5 -41t-40.5 -123v-31h-170zM428 1434v-1434h-217v1434h217z" glyph-name="uni020A" horiz-adv-x="638" unicode="Ȋ"/><glyph d="M-72 1292v31q0 154 75 232.5t269 78.5q168 0 255 -67.5t87 -243.5v-31h-170v31q0 92 -44 128t-128 36q-94 0 -134 -41t-40 -123v-31h-170zM373 1126v-1126h-205v1126h205z" glyph-name="uni020B" horiz-adv-x="538" unicode="ȋ"/><glyph d="M406 1593l-256 428h217l211 -428h-172zM791 1593l-256 428h217l211 -428h-172zM692 -20q-311 0 -429 180t-118 557q0 217 35 363.5t108.5 227.5t169 113.5t234.5 32.5q309 0 426 -179t117 -558q0 -217 -35 -363.5t-107.5 -227.5t-168 -113.5t-232.5 -32.5zM692 160 q182 0 251 114.5t69 442.5q0 326 -67.5 441.5t-252.5 115.5q-186 0 -254.5 -113.5t-68.5 -443.5q0 -326 69.5 -441.5t253.5 -115.5z" glyph-name="uni020C" horiz-adv-x="1380" unicode="Ȍ"/><glyph d="M305 1286l-256 428h217l211 -428h-172zM690 1286l-256 428h217l211 -428h-172zM590 -20q-272 0 -374.5 142t-102.5 441q0 334 115.5 459t361.5 125q272 0 373.5 -142.5t101.5 -441.5q0 -334 -115.5 -458.5t-359.5 -124.5zM590 133q158 0 211 86t53 344t-53 344t-211 86 q-160 0 -213 -86t-53 -344t53 -344t213 -86z" glyph-name="uni020D" horiz-adv-x="1177" unicode="ȍ"/><glyph d="M348 1599v31q0 154 75 233t269 79q168 0 255 -68t87 -244v-31h-170v31q0 92 -44 128t-128 36q-94 0 -134 -41t-40 -123v-31h-170zM692 -20q-311 0 -429 180t-118 557q0 217 35 363.5t108.5 227.5t169 113.5t234.5 32.5q309 0 426 -179t117 -558q0 -217 -35 -363.5 t-107.5 -227.5t-168 -113.5t-232.5 -32.5zM692 160q182 0 251 114.5t69 442.5q0 326 -67.5 441.5t-252.5 115.5q-186 0 -254.5 -113.5t-68.5 -443.5q0 -326 69.5 -441.5t253.5 -115.5z" glyph-name="uni020E" horiz-adv-x="1380" unicode="Ȏ"/><glyph d="M248 1292v31q0 154 74.5 232.5t269.5 78.5q168 0 255 -67.5t87 -243.5v-31h-170v31q0 92 -44 128t-128 36q-94 0 -134 -41t-40 -123v-31h-170zM590 -20q-272 0 -374.5 142t-102.5 441q0 334 115.5 459t361.5 125q272 0 373.5 -142.5t101.5 -441.5q0 -334 -115.5 -458.5 t-359.5 -124.5zM590 133q158 0 211 86t53 344t-53 344t-211 86q-160 0 -213 -86t-53 -344t53 -344t213 -86z" glyph-name="uni020F" horiz-adv-x="1177" unicode="ȏ"/><glyph d="M510 1593h-172l-256 428h217zM895 1593h-172l-256 428h217zM1204 0h-246l-333 592q-25 -2 -76 -2h-121v-590h-217v1434h338q301 0 410.5 -95.5t109.5 -314.5q0 -317 -244 -399zM428 750h121q170 0 233.5 57t63.5 209q0 147 -62.5 202.5t-234.5 55.5h-121v-524z" glyph-name="uni0210" horiz-adv-x="1247" unicode="Ȑ"/><glyph d="M86 1714l211 -428h-172l-256 428h217zM682 1286h-172l-256 428h217zM688 1147q35 0 47 -2l-16 -187q-45 20 -113 21q-119 0 -176 -72.5t-57 -261.5v-645h-205v1126l164 15l24 -146h19q82 152 313 152z" glyph-name="uni0211" horiz-adv-x="745" unicode="ȑ"/><glyph d="M451 1630v-31h-170v31q0 154 74.5 233t269.5 79q168 0 255 -68t87 -244v-31h-170v31q0 92 -44 128t-128 36q-94 0 -134 -41t-40 -123zM1204 0h-246l-333 592q-25 -2 -76 -2h-121v-590h-217v1434h338q301 0 410.5 -95.5t109.5 -314.5q0 -317 -244 -399zM428 750h121 q170 0 233.5 57t63.5 209q0 147 -62.5 202.5t-234.5 55.5h-121v-524z" glyph-name="uni0212" horiz-adv-x="1247" unicode="Ȓ"/><glyph d="M412 1634q168 0 255 -67.5t87 -243.5v-31h-170v31q0 92 -44 128t-128 36q-94 0 -134 -41t-40 -123v-31h-170v31q0 154 74.5 232.5t269.5 78.5zM375 995q82 152 313 152q35 0 47 -2l-16 -187q-45 20 -113 21q-119 0 -176 -72.5t-57 -261.5v-645h-205v1126l164 15l24 -146 h19z" glyph-name="uni0213" horiz-adv-x="745" unicode="ȓ"/><glyph d="M401 1593l-256 428h217l211 -428h-172zM786 1593l-256 428h218l210 -428h-172zM694 -20q-295 0 -398 120.5t-103 425.5v908h217v-908q0 -219 57 -292.5t219 -73.5t218.5 73.5t56.5 292.5v908h217v-908q0 -319 -108 -432.5t-376 -113.5z" glyph-name="uni0214" horiz-adv-x="1370" unicode="Ȕ"/><glyph d="M475 1286h-172l-256 428h217zM860 1286h-172l-256 428h217zM815 1126h205v-1126l-164 -14l-22 129h-19q-78 -135 -309 -135q-203 0 -276.5 95t-73.5 328v723h204v-718q0 -152 46.5 -213.5t175.5 -61.5q121 0 177 60.5t56 214.5v718z" glyph-name="uni0215" horiz-adv-x="1187" unicode="ȕ"/><glyph d="M344 1599v31q0 154 75 233t269 79q168 0 255 -68t87 -244v-31h-170v31q0 92 -44 128t-128 36q-94 0 -134 -41t-40 -123v-31h-170zM694 -20q-295 0 -398 120.5t-103 425.5v908h217v-908q0 -219 57 -292.5t219 -73.5t218.5 73.5t56.5 292.5v908h217v-908 q0 -319 -108 -432.5t-376 -113.5z" glyph-name="uni0216" horiz-adv-x="1370" unicode="Ȗ"/><glyph d="M416 1323v-31h-170v31q0 154 74.5 232.5t269.5 78.5q168 0 255 -67.5t87 -243.5v-31h-170v31q0 92 -44 128t-128 36q-94 0 -134 -41t-40 -123zM815 1126h205v-1126l-164 -14l-22 129h-19q-78 -135 -309 -135q-203 0 -276.5 95t-73.5 328v723h204v-718q0 -152 46.5 -213.5 t175.5 -61.5q121 0 177 60.5t56 214.5v718z" glyph-name="uni0217" horiz-adv-x="1187" unicode="ȗ"/><glyph d="M737 692q174 -129 174 -330q0 -190 -120.5 -286t-341.5 -96q-152 0 -355 36l17 185q219 -41 338 -41q131 0 185 44t54 154q0 68 -19.5 106t-64.5 71l-354 264q-143 106 -144 299q0 356 457 356q129 0 318 -29l-17 -180q-188 29 -307 29q-125 0 -176 -42t-51 -128 q0 -111 67 -160zM377 -362v229h229v-229l-76 -281h-129l76 281h-100z" glyph-name="Scommaaccent" horiz-adv-x="1015" unicode="Ș"/><glyph d="M618 559q80 -57 117 -120.5t37 -151.5q0 -152 -104.5 -229.5t-290.5 -77.5q-121 0 -285 24l14 156q160 -27 265 -27q102 0 146 32t44 111q0 88 -67 138l-279 204q-115 84 -115 238q0 291 361 291q113 0 268 -27l-14 -155q-162 29 -252 28q-84 0 -118 -31.5t-34 -101.5 q0 -49 13.5 -72.5t46.5 -46.5zM317 -362v229h230v-229l-76 -281h-129l76 281h-101z" glyph-name="scommaaccent" horiz-adv-x="854" unicode="ș"/><glyph d="M913 1434v-174h-331v-1260h-217v1260h-334v174h882zM356 -362v229h230v-229l-76 -281h-129l76 281h-101z" glyph-name="uni021A" horiz-adv-x="944" unicode="Ț"/><glyph d="M643 977h-227v-674q0 -104 20.5 -137t83.5 -33q51 0 88 10l15 -151q-53 -12 -129 -12q-168 0 -225.5 66.5t-57.5 260.5v670h-186v149h186v273h205v-273h227v-149zM250 -362v229h229v-229l-76 -281h-129l76 281h-100z" glyph-name="uni021B" horiz-adv-x="724" unicode="ț"/><glyph d="M813 1595h-217l-264 408h172l201 -264l202 264h172zM987 1434h217v-1434h-217v655h-559v-655h-217v1434h217v-605h559v605z" glyph-name="uni021E" horiz-adv-x="1415" unicode="Ȟ"/><glyph d="M432 1647h-217l-264 407h172l201 -264l202 264h172zM682 1147q203 0 276.5 -95.5t73.5 -328.5v-723h-205v719q0 152 -46 213t-175 61q-121 0 -177 -60.5t-56 -213.5v-719h-205v1536h205v-498h18q82 109 291 109z" glyph-name="uni021F" horiz-adv-x="1187" unicode="ȟ"/><glyph d="M893 1831v-150h-619v150h619zM1151 1434l-465 -861v-573h-217v575l-451 859h242l307 -629h25l317 629h242z" glyph-name="uni0232" horiz-adv-x="1169" unicode="Ȳ"/><glyph d="M821 1524v-150h-618v150h618zM782 1126h215l-348 -1202q-45 -158 -142 -235.5t-263 -77.5q-63 0 -138 12l15 152q63 -10 115 -11q96 0 149 39t86 164l8 33h-137l-317 1126h215l254 -972h26z" glyph-name="uni0233" horiz-adv-x="1017" unicode="ȳ"/><glyph d="M57 -389q-82 0 -139 14l14 152q49 -12 113 -13q76 0 99.5 40t23.5 169v1153h205v-1153q0 -215 -64 -287.5t-252 -74.5z" glyph-name="uni0237" horiz-adv-x="559" unicode="ȷ"/><glyph d="M788 1288h-172l-202 264l-201 -264h-172l264 408h217z" glyph-name="circumflex" horiz-adv-x="829" unicode="ˆ"/><glyph d="M618 1696h173l-267 -408h-217l-264 408h172l201 -264z" glyph-name="caron" horiz-adv-x="833" unicode="ˇ"/><glyph d="M471 1292q-195 0 -269.5 79t-74.5 233v30h170v-30q0 -82 40 -122t134 -40q84 0 128 35.5t44 126.5v30h170v-30q0 -174 -87 -243t-255 -69z" glyph-name="breve" horiz-adv-x="940" unicode="˘"/><glyph d="M168 1569h231v-232h-231v232z" glyph-name="dotaccent" horiz-adv-x="567" unicode="˙"/><glyph d="M393 1253q-145 0 -201.5 59.5t-56.5 176.5q0 131 65.5 182t192.5 51q143 0 199.5 -59t56.5 -174q0 -133 -65.5 -184.5t-190.5 -51.5zM393 1366q61 0 91 26.5t30 96.5q0 61 -25.5 91t-95.5 30q-63 0 -93 -25.5t-30 -95.5q0 -63 26.5 -93t96.5 -30z" glyph-name="ring" horiz-adv-x="784" unicode="˚"/><glyph d="M481 -438q-25 -2 -49 -2q-145 0 -231 59t-86 186q0 70 29.5 119t88.5 105l127 -23q-94 -84 -94 -170q0 -63 46 -107t147 -44z" glyph-name="ogonek" horiz-adv-x="552" unicode="˛"/><glyph d="M623 1296q-61 0 -127 47l-109 80q-27 18 -51 19q-66 0 -78 -119h-127q0 123 57.5 203t143.5 80q59 0 125 -47l110 -82q25 -18 49 -19q68 0 80 119h127q0 -121 -57 -201t-143 -80z" glyph-name="tilde" horiz-adv-x="954" unicode="˜"/><glyph d="M66 1286l210 428h218l-256 -428h-172zM451 1286l211 428h217l-256 -428h-172z" glyph-name="hungarumlaut" horiz-adv-x="925" unicode="˝"/><glyph d="M-240 1296l-256 408h217l211 -408h-172z" glyph-name="gravecomb" unicode="̀"/><glyph d="M-477 1296l211 408h217l-256 -408h-172z" glyph-name="acutecomb" unicode="́"/><glyph d="M-43 1288h-172l-203 264l-200 -264h-173l265 408h217z" glyph-name="uni0302" unicode="̂"/><glyph d="M-334 1296q-61 0 -127 47l-108 80q-29 18 -52 19q-66 0 -77 -119h-127q0 123 57 203t143 80q59 0 125 -47l111 -82q25 -18 49 -19q68 0 80 119h127q0 -121 -57.5 -201t-143.5 -80z" glyph-name="tildecomb" unicode="̃"/><glyph d="M-788 1524h618v-150h-618v150z" glyph-name="uni0304" unicode="̄"/><glyph d="M-471 1292q-195 0 -269.5 79t-74.5 233v30h170v-30q0 -82 40 -122t134 -40q84 0 128 35.5t44 126.5v30h170v-30q0 -174 -87 -243t-255 -69z" glyph-name="uni0306" unicode="̆"/><glyph d="M-401 1569h231v-232h-231v232z" glyph-name="uni0307" unicode="̇"/><glyph d="M-844 1569h230v-230h-230v230zM-399 1569h229v-230h-229v230z" glyph-name="uni0308" unicode="̈"/><glyph d="M-399 1294q0 68 11 99.5t44 58.5l39 31q35 27 35 55.5t-19.5 38.5t-68.5 10q-29 0 -91 -4l-10 119q90 14 160 14q115 0 156 -34.5t41 -116.5q0 -68 -66 -123l-65 -56q-39 -33 -39 -92h-127z" glyph-name="hookabovecomb" unicode="̉"/><glyph d="M-393 1253q-145 0 -201.5 59.5t-56.5 176.5q0 131 65.5 182t192.5 51q143 0 199.5 -59t56.5 -174q0 -133 -65.5 -184.5t-190.5 -51.5zM-393 1366q61 0 91 26.5t30 96.5q0 61 -26 91t-95 30q-63 0 -93 -25.5t-30 -95.5q0 -63 26.5 -93t96.5 -30z" glyph-name="uni030A" unicode="̊"/><glyph d="M-862 1286l211 428h217l-256 -428h-172zM-477 1286l211 428h217l-256 -428h-172z" glyph-name="uni030B" unicode="̋"/><glyph d="M-217 1696h172l-266 -408h-217l-265 408h172l201 -264z" glyph-name="uni030C" unicode="̌"/><glyph d="M-604 1286l-256 428h217l211 -428h-172zM-219 1286l-256 428h217l211 -428h-172z" glyph-name="uni030F" unicode="̏"/><glyph d="M-813 1292v31q0 154 74.5 232.5t269.5 78.5q168 0 255 -67.5t87 -243.5v-31h-170v31q0 92 -44 128t-128 36q-94 0 -134 -41t-40 -123v-31h-170z" glyph-name="uni0311" unicode="̑"/><glyph d="M-248 1567h101v-230h-230v230l76 280h129z" glyph-name="uni0312" unicode="̒"/><glyph d="M-469 1169v148q86 0 130 36t44 128v184h168v-184q0 -176 -87 -244t-255 -68z" glyph-name="uni031B" unicode="̛"/><glyph d="M-399 -133h231v-232h-231v232z" glyph-name="dotbelowcomb" unicode="̣"/><glyph d="M-373 -133h230v-229l-76 -281h-129l76 281h-101v229z" glyph-name="uni0326" unicode="̦"/><glyph d="M-305 -113q111 -8 158 -53t49 -123q-2 -104 -68.5 -153.5t-171.5 -49.5q-76 0 -160 33l9 107q66 -27 124 -27q98 0 101 86q-2 70 -76 70h-113l62 295h143z" glyph-name="uni0327" unicode="̧"/><glyph d="M-74 -438q-25 -2 -49 -2q-145 0 -231 59t-86 186q0 70 29.5 119t88.5 105l127 -23q-94 -84 -94 -170q0 -63 46 -107t147 -44z" glyph-name="uni0328" unicode="̨"/><glyph d="M-893 662h725v-175h-725v175z" glyph-name="uni0335" unicode="̵"/><glyph d="M-1032 721h864v-174h-864v174z" glyph-name="uni0336" unicode="̶"/><glyph d="M-631 -102l445 1331h196l-444 -1331h-197z" glyph-name="uni0337" unicode="̷"/><glyph d="M-733 -102l547 1638h196l-547 -1638h-196z" glyph-name="uni0338" unicode="̸"/><glyph d="M748 1876v-231h-232v231h232zM911 739q109 -35 157 -114.5t48 -223.5q0 -233 -122 -317t-398 -84h-385v1434h350q293 0 406.5 -72t113.5 -270q0 -248 -170 -328v-25zM561 1274h-133v-449h133q176 0 236.5 49.5t60.5 178.5q0 131 -60.5 176t-236.5 45zM596 160 q172 0 234.5 55t62.5 188q0 152 -67.5 207.5t-229.5 55.5h-168v-506h168z" glyph-name="uni1E02" horiz-adv-x="1259" unicode="Ḃ"/><glyph d="M756 1569v-232h-232v232h232zM633 1147q213 0 323.5 -135t110.5 -459q0 -274 -94 -423.5t-326 -149.5q-203 0 -276 135h-17l-22 -129l-164 14v1536h205v-492h12q68 103 248 103zM606 133q143 0 196.5 89t53.5 339q0 254 -54 343t-198 89q-117 0 -174 -58t-57 -216v-311 q0 -156 56 -215.5t177 -59.5z" glyph-name="uni1E03" horiz-adv-x="1179" unicode="ḃ"/><glyph d="M680 1876v-231h-231v231h231zM924 1260h-496v-472h459v-174h-459v-614h-217v1434h713v-174z" glyph-name="uni1E1E" horiz-adv-x="1015" unicode="Ḟ"/><glyph d="M575 1876v-231h-231v231h231zM569 1395q-92 0 -122.5 -49.5t-30.5 -192.5v-27h248v-149h-248v-977h-205v977h-199v149h199v27q0 217 73.5 306t276.5 89q84 0 148 -14l-15 -154q-51 15 -125 15z" glyph-name="uni1E1F" horiz-adv-x="688" unicode="ḟ"/><glyph d="M950 1876v-231h-231v231h231zM1456 1434v-1434h-217v1260h-20l-234 -926h-303l-236 926h-18v-1260h-217v1434h379l235 -926h17l235 926h379z" glyph-name="uni1E40" horiz-adv-x="1667" unicode="Ṁ"/><glyph d="M1006 1569v-232h-232v232h232zM1288 1147q195 0 264.5 -95.5t69.5 -328.5v-723h-205v719q0 152 -41 213t-162 61q-113 0 -165 -60.5t-52 -213.5v-719h-204v719q0 152 -41 213t-162 61q-113 0 -165 -60.5t-52 -213.5v-719h-205v1126l164 15l22 -129h17q74 135 293 135 q225 0 290 -141h19q84 141 315 141z" glyph-name="uni1E41" horiz-adv-x="1777" unicode="ṁ"/><glyph d="M698 1876v-231h-231v231h231zM549 1434q205 0 320.5 -46.5t157.5 -131.5t42 -230q0 -260 -125 -372.5t-395 -112.5h-121v-541h-217v1434h338zM549 700q170 0 233.5 70t63.5 236q0 156 -60.5 212t-236.5 56h-121v-574h121z" glyph-name="uni1E56" horiz-adv-x="1163" unicode="Ṗ"/><glyph d="M707 1569v-232h-232v232h232zM647 1147q231 0 325.5 -149.5t94.5 -424.5q0 -324 -110.5 -458.5t-323.5 -134.5q-170 0 -242 92h-18v-441h-205v1495l164 15l22 -125h19q77 131 274 131zM604 133q143 0 197.5 89t54.5 343q0 250 -53 339t-197 89q-121 0 -177 -59.5 t-56 -214.5v-311q0 -158 57 -216.5t174 -58.5z" glyph-name="uni1E57" horiz-adv-x="1179" unicode="ṗ"/><glyph d="M377 1876h231v-231h-231v231zM449 -20q-152 0 -355 36l17 185q219 -41 338 -41q131 0 185 44t54 154q0 68 -19.5 106t-64.5 71l-354 264q-143 106 -144 299q0 356 457 356q129 0 318 -29l-17 -180q-188 29 -307 29q-125 0 -176 -42t-51 -128q0 -111 67 -160l340 -252 q174 -129 174 -330q0 -190 -120.5 -286t-341.5 -96z" glyph-name="uni1E60" horiz-adv-x="1015" unicode="Ṡ"/><glyph d="M317 1569h232v-232h-232v232zM377 -20q-121 0 -285 24l14 156q160 -27 265 -27q102 0 146 32t44 111q0 88 -67 138l-279 204q-115 84 -115 238q0 291 361 291q113 0 268 -27l-14 -155q-162 29 -252 28q-84 0 -118 -31.5t-34 -101.5q0 -49 13.5 -72.5t46.5 -46.5l247 -182 q80 -57 117 -120.5t37 -151.5q0 -152 -104.5 -229.5t-290.5 -77.5z" glyph-name="uni1E61" horiz-adv-x="854" unicode="ṡ"/><glyph d="M588 1876v-231h-232v231h232zM913 1434v-174h-331v-1260h-217v1260h-334v174h882z" glyph-name="uni1E6A" horiz-adv-x="944" unicode="Ṫ"/><glyph d="M428 1722v-231h-231v231h231zM643 977h-227v-674q0 -104 20.5 -137t83.5 -33q51 0 88 10l15 -151q-53 -12 -129 -12q-168 0 -225.5 66.5t-57.5 260.5v670h-186v149h186v273h205v-273h227v-149z" glyph-name="uni1E6B" horiz-adv-x="724" unicode="ṫ"/><glyph d="M1020 1604h-172l-256 407h217zM1559 1434h229l-246 -1434h-379l-202 1260h-46l-202 -1260h-381l-244 1434h227l195 -1260h47l203 1260h356l201 -1260h49z" glyph-name="Wgrave" horiz-adv-x="1875" unicode="Ẁ"/><glyph d="M956 1296h-172l-256 408h217zM1501 1126h215l-280 -1126h-312l-239 973h-19l-241 -973h-310l-280 1126h215l221 -972h23l221 972h321l219 -972h25z" glyph-name="wgrave" horiz-adv-x="1751" unicode="ẁ"/><glyph d="M1278 2011l-256 -407h-172l211 407h217zM1559 1434h229l-246 -1434h-379l-202 1260h-46l-202 -1260h-381l-244 1434h227l195 -1260h47l203 1260h356l201 -1260h49z" glyph-name="Wacute" horiz-adv-x="1875" unicode="Ẃ"/><glyph d="M1214 1704l-256 -408h-172l211 408h217zM1501 1126h215l-280 -1126h-312l-239 973h-19l-241 -973h-310l-280 1126h215l221 -972h23l221 972h321l219 -972h25z" glyph-name="wacute" horiz-adv-x="1751" unicode="ẃ"/><glyph d="M829 1876v-229h-229v229h229zM1274 1876v-229h-230v229h230zM1559 1434h229l-246 -1434h-379l-202 1260h-46l-202 -1260h-381l-244 1434h227l195 -1260h47l203 1260h356l201 -1260h49z" glyph-name="Wdieresis" horiz-adv-x="1875" unicode="Ẅ"/><glyph d="M766 1569v-230h-229v230h229zM1210 1569v-230h-229v230h229zM1501 1126h215l-280 -1126h-312l-239 973h-19l-241 -973h-310l-280 1126h215l221 -972h23l221 972h321l219 -972h25z" glyph-name="wdieresis" horiz-adv-x="1751" unicode="ẅ"/><glyph d="M1075 711q47 -29 74 -48.5t59.5 -59.5t47 -99.5t14.5 -141.5q0 -188 -125 -285t-336 -97q-129 0 -279 28l17 185q166 -33 262 -33q125 0 181.5 45t56.5 153q0 131 -91 187l-311 192v129l27 35l256 332q-74 47 -246 47q-137 0 -198.5 -51t-61.5 -166v-1063h-217v1069 q0 385 481 385q274 0 451 -96v-166l-248 -315v-56z" glyph-name="uni1E9E" horiz-adv-x="1374" unicode="ẞ"/><glyph d="M1208 0h-229l-100 383h-502l-101 -383h-229l404 1434h354zM422 557h412l-185 703h-43zM514 -365v232h231v-232h-231z" glyph-name="uni1EA0" horiz-adv-x="1255" unicode="Ạ"/><glyph d="M524 1147q176 0 269.5 -87t93.5 -296v-764l-164 -14l-23 129h-16q-76 -135 -268 -135q-170 0 -256 89t-86 242q0 156 85 245t249 89h274v119q0 125 -49 177t-152 52q-86 0 -309 -49l-27 150q242 53 379 53zM457 133q115 0 170 60.5t55 214.5v84h-233q-84 0 -125 -40 t-41 -140.5t43 -139.5t131 -39zM377 -365v232h231v-232h-231z" glyph-name="uni1EA1" horiz-adv-x="1040" unicode="ạ"/><glyph d="M606 1894q-29 0 -90 -4l-10 119q90 14 160 14q115 0 155.5 -34.5t40.5 -116.5q0 -68 -65 -123l-66 -55q-39 -33 -39 -92h-127q0 68 11.5 99.5t44.5 57.5l38 31q35 27 35 55.5t-19.5 38.5t-68.5 10zM979 0l-100 383h-502l-101 -383h-229l404 1434h354l403 -1434h-229z M422 557h412l-185 703h-43z" glyph-name="uni1EA2" horiz-adv-x="1255" unicode="Ả"/><glyph d="M469 1587q-29 0 -90 -4l-10 119q90 14 159 14q115 0 156 -34.5t41 -116.5q0 -68 -66 -123l-65 -56q-39 -33 -39 -92h-127q0 68 11.5 99.5t43.5 58.5l39 31q35 27 35 55.5t-19.5 38.5t-68.5 10zM524 1147q176 0 269.5 -87t93.5 -296v-764l-164 -14l-23 129h-16 q-76 -135 -268 -135q-170 0 -256 89t-86 242q0 156 85 245t249 89h274v119q0 125 -49 177t-152 52q-86 0 -309 -49l-27 150q242 53 379 53zM457 133q115 0 170 60.5t55 214.5v84h-233q-84 0 -125 -40t-41 -140.5t43 -139.5t131 -39z" glyph-name="uni1EA3" horiz-adv-x="1040" unicode="ả"/><glyph d="M1354 2251l-256 -408h-172l211 408h217zM627 1860l-201 -265h-172l264 408h217l266 -408h-172zM805 1434l403 -1434h-229l-100 383h-502l-101 -383h-229l404 1434h354zM422 557h412l-185 703h-43z" glyph-name="uni1EA4" horiz-adv-x="1255" unicode="Ấ"/><glyph d="M999 1944h218l-256 -408h-173zM489 1552l-200 -264h-172l264 408h217l266 -408h-172zM524 1147q176 0 269.5 -87t93.5 -296v-764l-164 -14l-23 129h-16q-76 -135 -268 -135q-170 0 -256 89t-86 242q0 156 85 245t249 89h274v119q0 125 -49 177t-152 52q-86 0 -309 -49 l-27 150q242 53 379 53zM457 133q115 0 170 60.5t55 214.5v84h-233q-84 0 -125 -40t-41 -140.5t43 -139.5t131 -39z" glyph-name="uni1EA5" horiz-adv-x="1040" unicode="ấ"/><glyph d="M1151 1843h-170l-256 408h217zM627 1860l-201 -265h-172l264 408h217l266 -408h-172zM979 0l-100 383h-502l-101 -383h-229l404 1434h354l403 -1434h-229zM422 557h412l-185 703h-43z" glyph-name="uni1EA6" horiz-adv-x="1255" unicode="Ầ"/><glyph d="M1014 1536h-170l-256 408h217zM489 1552l-200 -264h-172l264 408h217l266 -408h-172zM524 1147q176 0 269.5 -87t93.5 -296v-764l-164 -14l-23 129h-16q-76 -135 -268 -135q-170 0 -256 89t-86 242q0 156 85 245t249 89h274v119q0 125 -49 177t-152 52q-86 0 -309 -49 l-27 150q242 53 379 53zM457 133q115 0 170 60.5t55 214.5v84h-233q-84 0 -125 -40t-41 -140.5t43 -139.5t131 -39z" glyph-name="uni1EA7" horiz-adv-x="1040" unicode="ầ"/><glyph d="M963 2136q-27 0 -89 -4l-10 119q90 14 160 14q113 0 155 -36t42 -115q0 -68 -66 -123l-65 -56q-39 -33 -39 -92h-127q0 68 10 99.5t43 56.5l41 33q35 27 35 55.5t-19.5 38.5t-70.5 10zM627 1860l-201 -265h-172l264 408h217l266 -408h-172zM805 1434l403 -1434h-229 l-100 383h-502l-101 -383h-229l404 1434h354zM422 557h412l-185 703h-43z" glyph-name="uni1EA8" horiz-adv-x="1255" unicode="Ẩ"/><glyph d="M887 1958q113 0 154.5 -36t41.5 -116q0 -68 -65 -123l-66 -55q-39 -33 -39 -92h-127q0 68 10.5 99.5t43.5 56.5l41 32q35 27 34.5 55.5t-19.5 39t-71 10.5q-27 0 -88 -4l-10 119q90 14 160 14zM489 1552l-200 -264h-172l264 408h217l266 -408h-172zM524 1147 q176 0 269.5 -87t93.5 -296v-764l-164 -14l-23 129h-16q-76 -135 -268 -135q-170 0 -256 89t-86 242q0 156 85 245t249 89h274v119q0 125 -49 177t-152 52q-86 0 -309 -49l-27 150q242 53 379 53zM457 133q115 0 170 60.5t55 214.5v84h-233q-84 0 -125 -40t-41 -140.5 t43 -139.5t131 -39z" glyph-name="uni1EA9" horiz-adv-x="1040" unicode="ẩ"/><glyph d="M487 2220q-63 0 -79 -121h-125q0 123 57 203t141 80q66 0 127 -47l111 -82q25 -18 49 -19q68 0 80 119h127q0 -121 -57.5 -200.5t-143.5 -79.5q-66 0 -127 47l-108 80q-27 20 -52 20zM627 1860l-201 -265h-172l264 408h217l266 -408h-172zM979 0l-100 383h-502l-101 -383 h-229l404 1434h354l403 -1434h-229zM422 557h412l-185 703h-43z" glyph-name="uni1EAA" horiz-adv-x="1255" unicode="Ẫ"/><glyph d="M350 1913q-63 0 -80 -121h-125q0 123 57.5 203t141.5 80q66 0 127 -47l111 -82q25 -18 49 -19q68 0 80 119h127q0 -121 -57.5 -201t-143.5 -80q-66 0 -127 47l-109 80q-26 21 -51 21zM489 1552l-200 -264h-172l264 408h217l266 -408h-172zM524 1147q176 0 269.5 -87 t93.5 -296v-764l-164 -14l-23 129h-16q-76 -135 -268 -135q-170 0 -256 89t-86 242q0 156 85 245t249 89h274v119q0 125 -49 177t-152 52q-86 0 -309 -49l-27 150q242 53 379 53zM457 133q115 0 170 60.5t55 214.5v84h-233q-84 0 -125 -40t-41 -140.5t43 -139.5t131 -39z " glyph-name="uni1EAB" horiz-adv-x="1040" unicode="ẫ"/><glyph d="M627 1860l-201 -265h-172l264 408h217l266 -408h-172zM1208 0h-229l-100 383h-502l-101 -383h-229l404 1434h354zM422 557h412l-185 703h-43zM514 -365v232h231v-232h-231z" glyph-name="uni1EAC" horiz-adv-x="1255" unicode="Ậ"/><glyph d="M489 1552l-200 -264h-172l264 408h217l266 -408h-172zM524 1147q176 0 269.5 -87t93.5 -296v-764l-164 -14l-23 129h-16q-76 -135 -268 -135q-170 0 -256 89t-86 242q0 156 85 245t249 89h274v119q0 125 -49 177t-152 52q-86 0 -309 -49l-27 150q242 53 379 53zM457 133 q115 0 170 60.5t55 214.5v84h-233q-84 0 -125 -40t-41 -140.5t43 -139.5t131 -39zM377 -365v232h231v-232h-231z" glyph-name="uni1EAD" horiz-adv-x="1040" unicode="ậ"/><glyph d="M961 2318l-256 -407h-173l211 407h218zM631 1599q-195 0 -269.5 79t-74.5 233v31h170v-31q0 -82 40 -122t134 -40q84 0 128 36t44 126v31h170v-31q0 -174 -87 -243t-255 -69zM979 0l-100 383h-502l-101 -383h-229l404 1434h354l403 -1434h-229zM422 557h412l-185 703h-43 z" glyph-name="uni1EAE" horiz-adv-x="1255" unicode="Ắ"/><glyph d="M823 2011l-256 -407h-172l211 407h217zM494 1292q-195 0 -269.5 79t-74.5 233v30h169v-30q0 -82 40 -122t135 -40q84 0 128 35.5t44 126.5v30h170v-30q0 -174 -87 -243t-255 -69zM524 1147q176 0 269.5 -87t93.5 -296v-764l-164 -14l-23 129h-16q-76 -135 -268 -135 q-170 0 -256 89t-86 242q0 156 85 245t249 89h274v119q0 125 -49 177t-152 52q-86 0 -309 -49l-27 150q242 53 379 53zM457 133q115 0 170 60.5t55 214.5v84h-233q-84 0 -125 -40t-41 -140.5t43 -139.5t131 -39z" glyph-name="uni1EAF" horiz-adv-x="1040" unicode="ắ"/><glyph d="M727 1911h-172l-256 407h217zM631 1599q-195 0 -269.5 79t-74.5 233v31h170v-31q0 -82 40 -122t134 -40q84 0 128 36t44 126v31h170v-31q0 -174 -87 -243t-255 -69zM979 0l-100 383h-502l-101 -383h-229l404 1434h354l403 -1434h-229zM422 557h412l-185 703h-43z" glyph-name="uni1EB0" horiz-adv-x="1255" unicode="Ằ"/><glyph d="M590 1604h-172l-256 407h217zM494 1292q-195 0 -269.5 79t-74.5 233v30h169v-30q0 -82 40 -122t135 -40q84 0 128 35.5t44 126.5v30h170v-30q0 -174 -87 -243t-255 -69zM524 1147q176 0 269.5 -87t93.5 -296v-764l-164 -14l-23 129h-16q-76 -135 -268 -135 q-170 0 -256 89t-86 242q0 156 85 245t249 89h274v119q0 125 -49 177t-152 52q-86 0 -309 -49l-27 150q242 53 379 53zM457 133q115 0 170 60.5t55 214.5v84h-233q-84 0 -125 -40t-41 -140.5t43 -139.5t131 -39z" glyph-name="uni1EB1" horiz-adv-x="1040" unicode="ằ"/><glyph d="M586 2204q-59 0 -88 -4l-13 120q109 14 162 15q113 0 155 -36t42 -116q0 -70 -66 -123l-65 -55q-39 -33 -39 -94h-127q0 70 10 100.5t43 56.5l41 33q33 25 33 56q0 29 -18.5 38t-69.5 9zM631 1599q-195 0 -269.5 79t-74.5 233v31h170v-31q0 -82 40 -122t134 -40 q84 0 128 36t44 126v31h170v-31q0 -174 -87 -243t-255 -69zM979 0l-100 383h-502l-101 -383h-229l404 1434h354l403 -1434h-229zM422 557h412l-185 703h-43z" glyph-name="uni1EB2" horiz-adv-x="1255" unicode="Ẳ"/><glyph d="M449 1896q-59 0 -89 -4l-12 121q109 14 162 15q113 0 155 -36t42 -116q0 -70 -66 -123l-66 -55q-39 -33 -38 -94h-127q0 70 10 100.5t43 56.5l41 33q33 25 33 55q0 29 -18.5 38t-69.5 9zM494 1292q-195 0 -269.5 79t-74.5 233v30h169v-30q0 -82 40 -122t135 -40 q84 0 128 35.5t44 126.5v30h170v-30q0 -174 -87 -243t-255 -69zM524 1147q176 0 269.5 -87t93.5 -296v-764l-164 -14l-23 129h-16q-76 -135 -268 -135q-170 0 -256 89t-86 242q0 156 85 245t249 89h274v119q0 125 -49 177t-152 52q-86 0 -309 -49l-27 150q242 53 379 53z M457 133q115 0 170 60.5t55 214.5v84h-233q-84 0 -125 -40t-41 -140.5t43 -139.5t131 -39z" glyph-name="uni1EB3" horiz-adv-x="1040" unicode="ẳ"/><glyph d="M487 2138q-63 0 -79 -121h-125q0 123 57 203t141 80q66 0 127 -47l111 -82q25 -18 49 -19q68 0 80 121h127q0 -123 -57.5 -202.5t-143.5 -79.5q-66 0 -127 47l-108 80q-27 20 -52 20zM285 1942h170v-31q0 -82 40 -122t134 -40q84 0 129 36t45 126v31h168v-31 q0 -174 -87 -243t-255 -69q-195 0 -269.5 79t-74.5 233v31zM979 0l-100 383h-502l-101 -383h-229l404 1434h354l403 -1434h-229zM422 557h412l-185 703h-43z" glyph-name="uni1EB4" horiz-adv-x="1255" unicode="Ẵ"/><glyph d="M350 1831q-63 0 -80 -121h-125q0 123 57.5 203t141.5 80q66 0 127 -47l111 -82q25 -18 49 -19q68 0 80 121h127q0 -123 -57.5 -203t-143.5 -80q-66 0 -127 48l-109 79q-26 21 -51 21zM147 1634h170v-30q0 -82 40 -122t135 -40q84 0 129 35.5t45 126.5v30h168v-30 q0 -174 -87.5 -243t-254.5 -69q-195 0 -270 79t-75 233v30zM524 1147q176 0 269.5 -87t93.5 -296v-764l-164 -14l-23 129h-16q-76 -135 -268 -135q-170 0 -256 89t-86 242q0 156 85 245t249 89h274v119q0 125 -49 177t-152 52q-86 0 -309 -49l-27 150q242 53 379 53z M457 133q115 0 170 60.5t55 214.5v84h-233q-84 0 -125 -40t-41 -140.5t43 -139.5t131 -39z" glyph-name="uni1EB5" horiz-adv-x="1040" unicode="ẵ"/><glyph d="M631 1599q-195 0 -269.5 79t-74.5 233v31h170v-31q0 -82 40 -122t134 -40q84 0 128 36t44 126v31h170v-31q0 -174 -87 -243t-255 -69zM1208 0h-229l-100 383h-502l-101 -383h-229l404 1434h354zM422 557h412l-185 703h-43zM514 -365v232h231v-232h-231z" glyph-name="uni1EB6" horiz-adv-x="1255" unicode="Ặ"/><glyph d="M494 1292q-195 0 -269.5 79t-74.5 233v30h169v-30q0 -82 40 -122t135 -40q84 0 128 35.5t44 126.5v30h170v-30q0 -174 -87 -243t-255 -69zM524 1147q176 0 269.5 -87t93.5 -296v-764l-164 -14l-23 129h-16q-76 -135 -268 -135q-170 0 -256 89t-86 242q0 156 85 245 t249 89h274v119q0 125 -49 177t-152 52q-86 0 -309 -49l-27 150q242 53 379 53zM457 133q115 0 170 60.5t55 214.5v84h-233q-84 0 -125 -40t-41 -140.5t43 -139.5t131 -39zM377 -365v232h231v-232h-231z" glyph-name="uni1EB7" horiz-adv-x="1040" unicode="ặ"/><glyph d="M428 174h553v-174h-770v1434h745v-174h-528v-431h498v-174h-498v-481zM461 -365v232h231v-232h-231z" glyph-name="uni1EB8" horiz-adv-x="1089" unicode="Ẹ"/><glyph d="M319 494q8 -195 77 -278t212 -83q119 0 344 60l25 -144q-221 -70 -391 -69q-479 0 -480 583q0 330 119 457t357 127q133 0 219 -37t132 -117t62.5 -179t16.5 -251q0 -47 -2 -69h-691zM582 993q-133 0 -193.5 -72.5t-69.5 -277.5h482q-4 209 -48 279.5t-171 70.5z M440 -365v232h232v-232h-232z" glyph-name="uni1EB9" horiz-adv-x="1118" unicode="ẹ"/><glyph d="M553 1894q-29 0 -90 -4l-10 119q90 14 159 14q115 0 156 -34.5t41 -116.5q0 -68 -66 -123l-65 -55q-39 -33 -39 -92h-127q0 68 11.5 99.5t43.5 57.5l39 31q35 27 35 55.5t-19.5 38.5t-68.5 10zM428 174h553v-174h-770v1434h745v-174h-528v-431h498v-174h-498v-481z" glyph-name="uni1EBA" horiz-adv-x="1089" unicode="Ẻ"/><glyph d="M539 1587q-29 0 -90 -4l-11 119q90 14 160 14q115 0 156 -34.5t41 -116.5q0 -68 -66 -123l-65 -56q-39 -33 -39 -92h-127q0 68 11 99.5t44 58.5l39 31q35 27 35 55.5t-19.5 38.5t-68.5 10zM319 494q8 -195 77 -278t212 -83q119 0 344 60l25 -144q-221 -70 -391 -69 q-479 0 -480 583q0 330 119 457t357 127q133 0 219 -37t132 -117t62.5 -179t16.5 -251q0 -47 -2 -69h-691zM582 993q-133 0 -193.5 -72.5t-69.5 -277.5h482q-4 209 -48 279.5t-171 70.5z" glyph-name="uni1EBB" horiz-adv-x="1118" unicode="ẻ"/><glyph d="M436 1749q-66 0 -78 -119h-127q0 123 57.5 203t143.5 80q59 0 125 -47l111 -82q25 -18 49 -19q68 0 80 119h127q0 -121 -57.5 -200.5t-143.5 -79.5q-61 0 -127 47l-109 80q-26 18 -51 18zM428 174h553v-174h-770v1434h745v-174h-528v-431h498v-174h-498v-481z" glyph-name="uni1EBC" horiz-adv-x="1089" unicode="Ẽ"/><glyph d="M422 1442q-66 0 -78 -119h-127q0 123 57.5 203t143.5 80q59 0 125 -47l110 -82q25 -18 49 -19q68 0 80 119h127q0 -121 -57 -201t-143 -80q-61 0 -127 47l-109 80q-26 19 -51 19zM319 494q8 -195 77 -278t212 -83q119 0 344 60l25 -144q-221 -70 -391 -69 q-479 0 -480 583q0 330 119 457t357 127q133 0 219 -37t132 -117t62.5 -179t16.5 -251q0 -47 -2 -69h-691zM582 993q-133 0 -193.5 -72.5t-69.5 -277.5h482q-4 209 -48 279.5t-171 70.5z" glyph-name="uni1EBD" horiz-adv-x="1118" unicode="ẽ"/><glyph d="M1083 2251h217l-256 -408h-172zM573 1860l-200 -265h-172l264 408h217l266 -408h-172zM428 655v-481h553v-174h-770v1434h745v-174h-528v-431h498v-174h-498z" glyph-name="uni1EBE" horiz-adv-x="1089" unicode="Ế"/><glyph d="M1069 1944h217l-256 -408h-172zM559 1552l-201 -264h-172l265 408h217l266 -408h-172zM582 1147q133 0 219 -37t132 -117t62.5 -179t16.5 -251q0 -47 -2 -69h-691q8 -195 77 -278t212 -83q119 0 344 60l25 -144q-221 -70 -391 -69q-479 0 -480 583q0 330 119 457t357 127 zM582 993q-133 0 -193.5 -72.5t-69.5 -277.5h482q-4 209 -48 279.5t-171 70.5z" glyph-name="uni1EBF" horiz-adv-x="1118" unicode="ế"/><glyph d="M1098 1843h-170l-256 408h217zM573 1860l-200 -265h-172l264 408h217l266 -408h-172zM428 655v-481h553v-174h-770v1434h745v-174h-528v-431h498v-174h-498z" glyph-name="uni1EC0" horiz-adv-x="1089" unicode="Ề"/><glyph d="M1083 1536h-170l-256 408h217zM559 1552l-201 -264h-172l265 408h217l266 -408h-172zM582 1147q133 0 219 -37t132 -117t62.5 -179t16.5 -251q0 -47 -2 -69h-691q8 -195 77 -278t212 -83q119 0 344 60l25 -144q-221 -70 -391 -69q-479 0 -480 583q0 330 119 457t357 127z M582 993q-133 0 -193.5 -72.5t-69.5 -277.5h482q-4 209 -48 279.5t-171 70.5z" glyph-name="uni1EC1" horiz-adv-x="1118" unicode="ề"/><glyph d="M971 2265q113 0 154.5 -36t41.5 -115q0 -68 -65 -123l-66 -56q-39 -33 -39 -92h-127q0 68 10.5 99.5t43.5 56.5l41 33q35 27 34.5 55.5t-19.5 38.5t-71 10q-27 0 -88 -4l-10 119q90 14 160 14zM573 1860l-200 -265h-172l264 408h217l266 -408h-172zM428 655v-481h553 v-174h-770v1434h745v-174h-528v-431h498v-174h-498z" glyph-name="uni1EC2" horiz-adv-x="1089" unicode="Ể"/><glyph d="M956 1958q113 0 155 -36t42 -116q0 -68 -66 -123l-65 -55q-39 -33 -39 -92h-127q0 68 10.5 99.5t42.5 56.5l41 32q35 27 35 55.5t-19.5 39t-70.5 10.5q-27 0 -88 -4l-10 119q89 14 159 14zM559 1552l-201 -264h-172l265 408h217l266 -408h-172zM582 1147q133 0 219 -37 t132 -117t62.5 -179t16.5 -251q0 -47 -2 -69h-691q8 -195 77 -278t212 -83q119 0 344 60l25 -144q-221 -70 -391 -69q-479 0 -480 583q0 330 119 457t357 127zM582 993q-133 0 -193.5 -72.5t-69.5 -277.5h482q-4 209 -48 279.5t-171 70.5z" glyph-name="uni1EC3" horiz-adv-x="1118" unicode="ể"/><glyph d="M434 2220q-63 0 -80 -121h-125q0 123 57.5 203t141.5 80q66 0 127 -47l111 -82q25 -18 49 -19q68 0 80 119h127q0 -121 -57.5 -200.5t-143.5 -79.5q-66 0 -127 47l-109 80q-26 20 -51 20zM573 1860l-200 -265h-172l264 408h217l266 -408h-172zM428 174h553v-174h-770 v1434h745v-174h-528v-431h498v-174h-498v-481z" glyph-name="uni1EC4" horiz-adv-x="1089" unicode="Ễ"/><glyph d="M420 1913q-63 0 -80 -121h-125q0 123 57.5 203t141.5 80q66 0 127 -47l110 -82q25 -18 49 -19q68 0 80 119h127q0 -121 -57 -201t-143 -80q-66 0 -127 47l-109 80q-26 21 -51 21zM559 1552l-201 -264h-172l265 408h217l266 -408h-172zM319 494q8 -195 77 -278t212 -83 q119 0 344 60l25 -144q-221 -70 -391 -69q-479 0 -480 583q0 330 119 457t357 127q133 0 219 -37t132 -117t62.5 -179t16.5 -251q0 -47 -2 -69h-691zM582 993q-133 0 -193.5 -72.5t-69.5 -277.5h482q-4 209 -48 279.5t-171 70.5z" glyph-name="uni1EC5" horiz-adv-x="1118" unicode="ễ"/><glyph d="M573 1860l-200 -265h-172l264 408h217l266 -408h-172zM428 174h553v-174h-770v1434h745v-174h-528v-431h498v-174h-498v-481zM461 -365v232h231v-232h-231z" glyph-name="uni1EC6" horiz-adv-x="1089" unicode="Ệ"/><glyph d="M559 1552l-201 -264h-172l265 408h217l266 -408h-172zM319 494q8 -195 77 -278t212 -83q119 0 344 60l25 -144q-221 -70 -391 -69q-479 0 -480 583q0 330 119 457t357 127q133 0 219 -37t132 -117t62.5 -179t16.5 -251q0 -47 -2 -69h-691zM582 993q-133 0 -193.5 -72.5 t-69.5 -277.5h482q-4 209 -48 279.5t-171 70.5zM440 -365v232h232v-232h-232z" glyph-name="uni1EC7" horiz-adv-x="1118" unicode="ệ"/><glyph d="M256 1602q0 68 11.5 99.5t43.5 57.5l39 31q35 27 35 55.5t-19.5 38.5t-68.5 10q-29 0 -90 -4l-10 119q90 14 159 14q115 0 156 -34.5t41 -116.5q0 -68 -66 -123l-65 -55q-39 -33 -39 -92h-127zM428 1434v-1434h-217v1434h217z" glyph-name="uni1EC8" horiz-adv-x="638" unicode="Ỉ"/><glyph d="M207 1294q0 68 11 99.5t44 58.5l39 31q35 27 35 55.5t-19.5 38.5t-68.5 10q-29 0 -90 -4l-11 119q90 14 160 14q115 0 156 -34.5t41 -116.5q0 -68 -66 -123l-65 -56q-39 -33 -39 -92h-127zM373 1126v-1126h-205v1126h205z" glyph-name="uni1EC9" horiz-adv-x="538" unicode="ỉ"/><glyph d="M428 1434v-1434h-217v1434h217zM205 -133h231v-232h-231v232z" glyph-name="uni1ECA" horiz-adv-x="638" unicode="Ị"/><glyph d="M154 1569h231v-232h-231v232zM373 1126v-1126h-205v1126h205zM158 -133h231v-232h-231v232z" glyph-name="uni1ECB" horiz-adv-x="538" unicode="ị"/><glyph d="M692 -20q-311 0 -429 180t-118 557q0 217 35 363.5t108.5 227.5t169 113.5t234.5 32.5q309 0 426 -179t117 -558q0 -217 -35 -363.5t-107.5 -227.5t-168 -113.5t-232.5 -32.5zM692 160q182 0 251 114.5t69 442.5q0 326 -67.5 441.5t-252.5 115.5q-186 0 -254.5 -113.5 t-68.5 -443.5q0 -326 69.5 -441.5t253.5 -115.5zM575 -133h232v-232h-232v232z" glyph-name="uni1ECC" horiz-adv-x="1380" unicode="Ọ"/><glyph d="M590 -20q-272 0 -374.5 142t-102.5 441q0 334 115.5 459t361.5 125q272 0 373.5 -142.5t101.5 -441.5q0 -334 -115.5 -458.5t-359.5 -124.5zM590 133q158 0 211 86t53 344t-53 344t-211 86q-160 0 -213 -86t-53 -344t53 -344t213 -86zM475 -133h232v-232h-232v232z" glyph-name="uni1ECD" horiz-adv-x="1177" unicode="ọ"/><glyph d="M627 1602q0 68 11 99.5t44 57.5l39 31q35 27 35 55.5t-19.5 38.5t-68.5 10q-29 0 -90 -4l-11 119q90 14 160 14q115 0 156 -34.5t41 -116.5q0 -68 -66 -123l-65 -55q-39 -33 -39 -92h-127zM692 -20q-311 0 -429 180t-118 557q0 217 35 363.5t108.5 227.5t169 113.5 t234.5 32.5q309 0 426 -179t117 -558q0 -217 -35 -363.5t-107.5 -227.5t-168 -113.5t-232.5 -32.5zM692 160q182 0 251 114.5t69 442.5q0 326 -67.5 441.5t-252.5 115.5q-186 0 -254.5 -113.5t-68.5 -443.5q0 -326 69.5 -441.5t253.5 -115.5z" glyph-name="uni1ECE" horiz-adv-x="1380" unicode="Ỏ"/><glyph d="M526 1294q0 68 11.5 99.5t44.5 58.5l39 31q35 27 34.5 55.5t-20 38.5t-68.5 10q-29 0 -90 -4l-10 119q90 14 160 14q115 0 155.5 -34.5t40.5 -116.5q0 -68 -65 -123l-66 -56q-39 -33 -39 -92h-127zM590 -20q-272 0 -374.5 142t-102.5 441q0 334 115.5 459t361.5 125 q272 0 373.5 -142.5t101.5 -441.5q0 -334 -115.5 -458.5t-359.5 -124.5zM590 133q158 0 211 86t53 344t-53 344t-211 86q-160 0 -213 -86t-53 -344t53 -344t213 -86z" glyph-name="uni1ECF" horiz-adv-x="1177" unicode="ỏ"/><glyph d="M1415 2251l-256 -408h-172l211 408h217zM688 1860l-201 -265h-172l265 408h217l266 -408h-172zM692 1454q309 0 426 -179t117 -558q0 -217 -35 -363.5t-107.5 -227.5t-168 -113.5t-232.5 -32.5q-311 0 -429 180t-118 557q0 217 35 363.5t108.5 227.5t169 113.5 t234.5 32.5zM692 160q182 0 251 114.5t69 442.5q0 326 -67.5 441.5t-252.5 115.5q-186 0 -254.5 -113.5t-68.5 -443.5q0 -326 69.5 -441.5t253.5 -115.5z" glyph-name="uni1ED0" horiz-adv-x="1380" unicode="Ố"/><glyph d="M1315 1944l-256 -408h-172l211 408h217zM588 1552l-201 -264h-172l264 408h217l267 -408h-172zM590 1147q272 0 373.5 -142.5t101.5 -441.5q0 -334 -115.5 -458.5t-359.5 -124.5q-272 0 -374.5 142t-102.5 441q0 334 115.5 459t361.5 125zM590 133q158 0 211 86t53 344 t-53 344t-211 86q-160 0 -213 -86t-53 -344t53 -344t213 -86z" glyph-name="uni1ED1" horiz-adv-x="1177" unicode="ố"/><glyph d="M1212 1843h-170l-256 408h218zM688 1860l-201 -265h-172l265 408h217l266 -408h-172zM692 1454q309 0 426 -179t117 -558q0 -217 -35 -363.5t-107.5 -227.5t-168 -113.5t-232.5 -32.5q-311 0 -429 180t-118 557q0 217 35 363.5t108.5 227.5t169 113.5t234.5 32.5z M692 160q182 0 251 114.5t69 442.5q0 326 -67.5 441.5t-252.5 115.5q-186 0 -254.5 -113.5t-68.5 -443.5q0 -326 69.5 -441.5t253.5 -115.5z" glyph-name="uni1ED2" horiz-adv-x="1380" unicode="Ồ"/><glyph d="M1112 1536h-170l-256 408h217zM588 1552l-201 -264h-172l264 408h217l267 -408h-172zM590 1147q272 0 373.5 -142.5t101.5 -441.5q0 -334 -115.5 -458.5t-359.5 -124.5q-272 0 -374.5 142t-102.5 441q0 334 115.5 459t361.5 125zM590 133q158 0 211 86t53 344t-53 344 t-211 86q-160 0 -213 -86t-53 -344t53 -344t213 -86z" glyph-name="uni1ED3" horiz-adv-x="1177" unicode="ồ"/><glyph d="M1085 2265q113 0 155 -36t42 -115q0 -68 -65 -123l-66 -56q-39 -33 -39 -92h-127q0 68 10.5 99.5t42.5 56.5l41 33q35 27 35 55.5t-19.5 38.5t-70.5 10q-27 0 -88 -4l-10 119q89 14 159 14zM688 1860l-201 -265h-172l265 408h217l266 -408h-172zM692 1454q309 0 426 -179 t117 -558q0 -217 -35 -363.5t-107.5 -227.5t-168 -113.5t-232.5 -32.5q-311 0 -429 180t-118 557q0 217 35 363.5t108.5 227.5t169 113.5t234.5 32.5zM692 160q182 0 251 114.5t69 442.5q0 326 -67.5 441.5t-252.5 115.5q-186 0 -254.5 -113.5t-68.5 -443.5 q0 -326 69.5 -441.5t253.5 -115.5z" glyph-name="uni1ED4" horiz-adv-x="1380" unicode="Ổ"/><glyph d="M985 1958q113 0 155 -36t42 -116q0 -68 -66 -123l-65 -55q-39 -33 -39 -92h-127q0 68 10 99.5t43 56.5l41 32q35 27 35 55.5t-19.5 39t-70.5 10.5q-27 0 -88 -4l-11 119q90 14 160 14zM588 1552l-201 -264h-172l264 408h217l267 -408h-172zM590 1147q272 0 373.5 -142.5 t101.5 -441.5q0 -334 -115.5 -458.5t-359.5 -124.5q-272 0 -374.5 142t-102.5 441q0 334 115.5 459t361.5 125zM590 133q158 0 211 86t53 344t-53 344t-211 86q-160 0 -213 -86t-53 -344t53 -344t213 -86z" glyph-name="uni1ED5" horiz-adv-x="1177" unicode="ổ"/><glyph d="M549 2220q-63 0 -80 -121h-125q0 123 57.5 203t141.5 80q66 0 127 -47l110 -82q25 -18 49 -19q68 0 80 119h127q0 -121 -57 -200.5t-143 -79.5q-66 0 -127 47l-109 80q-26 20 -51 20zM688 1860l-201 -265h-172l265 408h217l266 -408h-172zM692 1454q309 0 426 -179 t117 -558q0 -217 -35 -363.5t-107.5 -227.5t-168 -113.5t-232.5 -32.5q-311 0 -429 180t-118 557q0 217 35 363.5t108.5 227.5t169 113.5t234.5 32.5zM692 160q182 0 251 114.5t69 442.5q0 326 -67.5 441.5t-252.5 115.5q-186 0 -254.5 -113.5t-68.5 -443.5 q0 -326 69.5 -441.5t253.5 -115.5z" glyph-name="uni1ED6" horiz-adv-x="1380" unicode="Ỗ"/><glyph d="M449 1913q-63 0 -80 -121h-125q0 123 57 203t141 80q66 0 127 -47l111 -82q25 -18 49 -19q68 0 80 119h127q0 -121 -57.5 -201t-143.5 -80q-66 0 -127 47l-108 80q-26 21 -51 21zM588 1552l-201 -264h-172l264 408h217l267 -408h-172zM590 1147q272 0 373.5 -142.5 t101.5 -441.5q0 -334 -115.5 -458.5t-359.5 -124.5q-272 0 -374.5 142t-102.5 441q0 334 115.5 459t361.5 125zM590 133q158 0 211 86t53 344t-53 344t-211 86q-160 0 -213 -86t-53 -344t53 -344t213 -86z" glyph-name="uni1ED7" horiz-adv-x="1177" unicode="ỗ"/><glyph d="M688 1860l-201 -265h-172l265 408h217l266 -408h-172zM692 1454q309 0 426 -179t117 -558q0 -217 -35 -363.5t-107.5 -227.5t-168 -113.5t-232.5 -32.5q-311 0 -429 180t-118 557q0 217 35 363.5t108.5 227.5t169 113.5t234.5 32.5zM692 160q182 0 251 114.5t69 442.5 q0 326 -67.5 441.5t-252.5 115.5q-186 0 -254.5 -113.5t-68.5 -443.5q0 -326 69.5 -441.5t253.5 -115.5zM575 -365v232h232v-232h-232z" glyph-name="uni1ED8" horiz-adv-x="1380" unicode="Ộ"/><glyph d="M588 1552l-201 -264h-172l264 408h217l267 -408h-172zM590 1147q272 0 373.5 -142.5t101.5 -441.5q0 -334 -115.5 -458.5t-359.5 -124.5q-272 0 -374.5 142t-102.5 441q0 334 115.5 459t361.5 125zM590 133q158 0 211 86t53 344t-53 344t-211 86q-160 0 -213 -86 t-53 -344t53 -344t213 -86zM475 -365v232h232v-232h-232z" glyph-name="uni1ED9" horiz-adv-x="1177" unicode="ộ"/><glyph d="M1030 2011l-256 -407h-172l211 407h217zM1221 1665h168v-184q0 -262 -220 -301q66 -158 66 -463q0 -217 -35 -363.5t-107.5 -227.5t-168 -113.5t-232.5 -32.5q-311 0 -429 180t-118 557q0 217 35 363.5t108.5 227.5t169 113.5t234.5 32.5q262 0 391 -135q68 6 103 43 t35 119v184zM692 160q182 0 251 114.5t69 442.5q0 326 -67.5 441.5t-252.5 115.5q-186 0 -254.5 -113.5t-68.5 -443.5q0 -326 69.5 -441.5t253.5 -115.5z" glyph-name="uni1EDA" horiz-adv-x="1380" unicode="Ớ"/><glyph d="M930 1704l-256 -408h-172l211 408h217zM1110 1343h168v-184q0 -147 -62.5 -218t-181.5 -87q31 -113 31 -291q0 -334 -115.5 -458.5t-359.5 -124.5q-272 0 -374.5 142t-102.5 441q0 334 115.5 459t361.5 125q270 0 379 -150q141 10 141 162v184zM590 133q158 0 211 86 t53 344t-53 344t-211 86q-160 0 -213 -86t-53 -344t53 -344t213 -86z" glyph-name="uni1EDB" horiz-adv-x="1177" unicode="ớ"/><glyph d="M772 1604h-172l-256 407h217zM1221 1665h168v-184q0 -262 -220 -301q66 -158 66 -463q0 -217 -35 -363.5t-107.5 -227.5t-168 -113.5t-232.5 -32.5q-311 0 -429 180t-118 557q0 217 35 363.5t108.5 227.5t169 113.5t234.5 32.5q262 0 391 -135q68 6 103 43t35 119v184z M692 160q182 0 251 114.5t69 442.5q0 326 -67.5 441.5t-252.5 115.5q-186 0 -254.5 -113.5t-68.5 -443.5q0 -326 69.5 -441.5t253.5 -115.5z" glyph-name="uni1EDC" horiz-adv-x="1380" unicode="Ờ"/><glyph d="M672 1296h-172l-256 408h217zM1110 1343h168v-184q0 -147 -62.5 -218t-181.5 -87q31 -113 31 -291q0 -334 -115.5 -458.5t-359.5 -124.5q-272 0 -374.5 142t-102.5 441q0 334 115.5 459t361.5 125q270 0 379 -150q141 10 141 162v184zM590 133q158 0 211 86t53 344 t-53 344t-211 86q-160 0 -213 -86t-53 -344t53 -344t213 -86z" glyph-name="uni1EDD" horiz-adv-x="1177" unicode="ờ"/><glyph d="M668 1894q-29 0 -90 -4l-11 119q90 14 160 14q115 0 156 -34.5t41 -116.5q0 -68 -66 -123l-65 -55q-39 -33 -39 -92h-127q0 68 11 99.5t44 57.5l39 31q35 27 35 55.5t-19.5 38.5t-68.5 10zM1221 1665h168v-184q0 -262 -220 -301q66 -158 66 -463q0 -217 -35 -363.5 t-107.5 -227.5t-168 -113.5t-232.5 -32.5q-311 0 -429 180t-118 557q0 217 35 363.5t108.5 227.5t169 113.5t234.5 32.5q262 0 391 -135q68 6 103 43t35 119v184zM692 160q182 0 251 114.5t69 442.5q0 326 -67.5 441.5t-252.5 115.5q-186 0 -254.5 -113.5t-68.5 -443.5 q0 -326 69.5 -441.5t253.5 -115.5z" glyph-name="uni1EDE" horiz-adv-x="1380" unicode="Ở"/><glyph d="M567 1587q-29 0 -90 -4l-10 119q90 14 160 14q115 0 155.5 -34.5t40.5 -116.5q0 -68 -65 -123l-66 -56q-39 -33 -39 -92h-127q0 68 11.5 99.5t44.5 58.5l39 31q35 27 34.5 55.5t-20 38.5t-68.5 10zM1110 1343h168v-184q0 -147 -62.5 -218t-181.5 -87q31 -113 31 -291 q0 -334 -115.5 -458.5t-359.5 -124.5q-272 0 -374.5 142t-102.5 441q0 334 115.5 459t361.5 125q270 0 379 -150q141 10 141 162v184zM590 133q158 0 211 86t53 344t-53 344t-211 86q-160 0 -213 -86t-53 -344t53 -344t213 -86z" glyph-name="uni1EDF" horiz-adv-x="1177" unicode="ở"/><glyph d="M551 1749q-66 0 -78 -119h-127q0 123 57.5 203t143.5 80q59 0 125 -47l110 -82q25 -18 49 -19q68 0 80 119h127q0 -121 -57 -200.5t-143 -79.5q-61 0 -127 47l-109 80q-28 18 -51 18zM1221 1665h168v-184q0 -262 -220 -301q66 -158 66 -463q0 -217 -35 -363.5 t-107.5 -227.5t-168 -113.5t-232.5 -32.5q-311 0 -429 180t-118 557q0 217 35 363.5t108.5 227.5t169 113.5t234.5 32.5q262 0 391 -135q68 6 103 43t35 119v184zM692 160q182 0 251 114.5t69 442.5q0 326 -67.5 441.5t-252.5 115.5q-186 0 -254.5 -113.5t-68.5 -443.5 q0 -326 69.5 -441.5t253.5 -115.5z" glyph-name="uni1EE0" horiz-adv-x="1380" unicode="Ỡ"/><glyph d="M451 1442q-66 0 -78 -119h-127q0 123 57 203t143 80q59 0 125 -47l111 -82q25 -18 49 -19q68 0 80 119h127q0 -121 -57.5 -201t-143.5 -80q-61 0 -127 47l-108 80q-26 19 -51 19zM1110 1343h168v-184q0 -147 -62.5 -218t-181.5 -87q31 -113 31 -291q0 -334 -115.5 -458.5 t-359.5 -124.5q-272 0 -374.5 142t-102.5 441q0 334 115.5 459t361.5 125q270 0 379 -150q141 10 141 162v184zM590 133q158 0 211 86t53 344t-53 344t-211 86q-160 0 -213 -86t-53 -344t53 -344t213 -86z" glyph-name="uni1EE1" horiz-adv-x="1177" unicode="ỡ"/><glyph d="M1221 1665h168v-184q0 -262 -220 -301q66 -158 66 -463q0 -217 -35 -363.5t-107.5 -227.5t-168 -113.5t-232.5 -32.5q-311 0 -429 180t-118 557q0 217 35 363.5t108.5 227.5t169 113.5t234.5 32.5q262 0 391 -135q68 6 103 43t35 119v184zM692 160q182 0 251 114.5 t69 442.5q0 326 -67.5 441.5t-252.5 115.5q-186 0 -254.5 -113.5t-68.5 -443.5q0 -326 69.5 -441.5t253.5 -115.5zM575 -365v232h232v-232h-232z" glyph-name="uni1EE2" horiz-adv-x="1380" unicode="Ợ"/><glyph d="M1110 1343h168v-184q0 -147 -62.5 -218t-181.5 -87q31 -113 31 -291q0 -334 -115.5 -458.5t-359.5 -124.5q-272 0 -374.5 142t-102.5 441q0 334 115.5 459t361.5 125q270 0 379 -150q141 10 141 162v184zM590 133q158 0 211 86t53 344t-53 344t-211 86q-160 0 -213 -86 t-53 -344t53 -344t213 -86zM475 -365v232h232v-232h-232z" glyph-name="uni1EE3" horiz-adv-x="1177" unicode="ợ"/><glyph d="M694 -20q-295 0 -398 120.5t-103 425.5v908h217v-908q0 -219 57 -292.5t219 -73.5t218.5 73.5t56.5 292.5v908h217v-908q0 -319 -108 -432.5t-376 -113.5zM571 -133h232v-232h-232v232z" glyph-name="uni1EE4" horiz-adv-x="1370" unicode="Ụ"/><glyph d="M815 1126h205v-1126l-164 -14l-22 129h-19q-78 -135 -309 -135q-203 0 -276.5 95t-73.5 328v723h204v-718q0 -152 46.5 -213.5t175.5 -61.5q121 0 177 60.5t56 214.5v718zM473 -365v232h232v-232h-232z" glyph-name="uni1EE5" horiz-adv-x="1187" unicode="ụ"/><glyph d="M623 1602q0 68 11 99.5t44 57.5l39 31q35 27 35 55.5t-19.5 38.5t-68.5 10q-29 0 -91 -4l-10 119q90 14 160 14q115 0 156 -34.5t41 -116.5q0 -68 -66 -123l-66 -55q-39 -33 -38 -92h-127zM694 -20q-295 0 -398 120.5t-103 425.5v908h217v-908q0 -219 57 -292.5 t219 -73.5t218.5 73.5t56.5 292.5v908h217v-908q0 -319 -108 -432.5t-376 -113.5z" glyph-name="uni1EE6" horiz-adv-x="1370" unicode="Ủ"/><glyph d="M565 1587q-29 0 -90 -4l-10 119q90 14 160 14q115 0 155.5 -34.5t40.5 -116.5q0 -68 -65 -123l-66 -56q-39 -33 -39 -92h-127q0 68 11.5 99.5t44.5 58.5l38 31q35 27 35 55.5t-19.5 38.5t-68.5 10zM815 1126h205v-1126l-164 -14l-22 129h-19q-78 -135 -309 -135 q-203 0 -276.5 95t-73.5 328v723h204v-718q0 -152 46.5 -213.5t175.5 -61.5q121 0 177 60.5t56 214.5v718z" glyph-name="uni1EE7" horiz-adv-x="1187" unicode="ủ"/><glyph d="M1026 2011l-256 -407h-172l211 407h217zM1292 1782h168v-185q0 -160 -71.5 -229.5t-210.5 -79.5v-762q0 -319 -107.5 -432.5t-376.5 -113.5q-295 0 -398 120.5t-103 425.5v908h217v-908q0 -219 57 -292.5t219 -73.5t218.5 73.5t56.5 292.5v908h157q86 0 130 35.5 t44 127.5v185z" glyph-name="uni1EE8" horiz-adv-x="1370" unicode="Ứ"/><glyph d="M928 1704l-256 -408h-172l211 408h217zM1128 1475h168v-185q0 -158 -70.5 -227.5t-205.5 -81.5v-981l-164 -14l-22 129h-19q-78 -135 -309 -135q-203 0 -276.5 95t-73.5 328v723h204v-718q0 -152 46.5 -213.5t175.5 -61.5q121 0 177 60.5t56 214.5v718h139q86 0 130 36 t44 128v185z" glyph-name="uni1EE9" horiz-adv-x="1187" unicode="ứ"/><glyph d="M768 1604h-172l-256 407h217zM1292 1782h168v-185q0 -160 -71.5 -229.5t-210.5 -79.5v-762q0 -319 -107.5 -432.5t-376.5 -113.5q-295 0 -398 120.5t-103 425.5v908h217v-908q0 -219 57 -292.5t219 -73.5t218.5 73.5t56.5 292.5v908h157q86 0 130 35.5t44 127.5v185z" glyph-name="uni1EEA" horiz-adv-x="1370" unicode="Ừ"/><glyph d="M670 1296h-172l-256 408h217zM1128 1475h168v-185q0 -158 -70.5 -227.5t-205.5 -81.5v-981l-164 -14l-22 129h-19q-78 -135 -309 -135q-203 0 -276.5 95t-73.5 328v723h204v-718q0 -152 46.5 -213.5t175.5 -61.5q121 0 177 60.5t56 214.5v718h139q86 0 130 36t44 128v185 z" glyph-name="uni1EEB" horiz-adv-x="1187" unicode="ừ"/><glyph d="M664 1894q-29 0 -91 -4l-10 119q90 14 160 14q115 0 156 -34.5t41 -116.5q0 -68 -66 -123l-66 -55q-39 -33 -38 -92h-127q0 68 11 99.5t44 57.5l39 31q35 27 35 55.5t-19.5 38.5t-68.5 10zM1292 1782h168v-185q0 -160 -71.5 -229.5t-210.5 -79.5v-762 q0 -319 -107.5 -432.5t-376.5 -113.5q-295 0 -398 120.5t-103 425.5v908h217v-908q0 -219 57 -292.5t219 -73.5t218.5 73.5t56.5 292.5v908h157q86 0 130 35.5t44 127.5v185z" glyph-name="uni1EEC" horiz-adv-x="1370" unicode="Ử"/><glyph d="M565 1587q-29 0 -90 -4l-10 119q90 14 160 14q115 0 155.5 -34.5t40.5 -116.5q0 -68 -65 -123l-66 -56q-39 -33 -39 -92h-127q0 68 11.5 99.5t44.5 58.5l38 31q35 27 35 55.5t-19.5 38.5t-68.5 10zM1128 1475h168v-185q0 -158 -70.5 -227.5t-205.5 -81.5v-981l-164 -14 l-22 129h-19q-78 -135 -309 -135q-203 0 -276.5 95t-73.5 328v723h204v-718q0 -152 46.5 -213.5t175.5 -61.5q121 0 177 60.5t56 214.5v718h139q86 0 130 36t44 128v185z" glyph-name="uni1EED" horiz-adv-x="1187" unicode="ử"/><glyph d="M547 1749q-66 0 -78 -119h-127q0 123 57.5 203t143.5 80q59 0 125 -47l110 -82q25 -18 49 -19q68 0 80 119h127q0 -121 -57 -200.5t-143 -79.5q-61 0 -127 47l-109 80q-28 18 -51 18zM1292 1782h168v-185q0 -160 -71.5 -229.5t-210.5 -79.5v-762q0 -319 -107.5 -432.5 t-376.5 -113.5q-295 0 -398 120.5t-103 425.5v908h217v-908q0 -219 57 -292.5t219 -73.5t218.5 73.5t56.5 292.5v908h157q86 0 130 35.5t44 127.5v185z" glyph-name="uni1EEE" horiz-adv-x="1370" unicode="Ữ"/><glyph d="M449 1442q-66 0 -78 -119h-127q0 123 57 203t143 80q59 0 125 -47l111 -82q25 -18 49 -19q68 0 80 119h127q0 -121 -57.5 -201t-143.5 -80q-61 0 -127 47l-108 80q-26 19 -51 19zM1128 1475h168v-185q0 -158 -70.5 -227.5t-205.5 -81.5v-981l-164 -14l-22 129h-19 q-78 -135 -309 -135q-203 0 -276.5 95t-73.5 328v723h204v-718q0 -152 46.5 -213.5t175.5 -61.5q121 0 177 60.5t56 214.5v718h139q86 0 130 36t44 128v185z" glyph-name="uni1EEF" horiz-adv-x="1187" unicode="ữ"/><glyph d="M1292 1782h168v-185q0 -160 -71.5 -229.5t-210.5 -79.5v-762q0 -319 -107.5 -432.5t-376.5 -113.5q-295 0 -398 120.5t-103 425.5v908h217v-908q0 -219 57 -292.5t219 -73.5t218.5 73.5t56.5 292.5v908h157q86 0 130 35.5t44 127.5v185zM571 -365v232h232v-232h-232z" glyph-name="uni1EF0" horiz-adv-x="1370" unicode="Ự"/><glyph d="M1128 1475h168v-185q0 -158 -70.5 -227.5t-205.5 -81.5v-981l-164 -14l-22 129h-19q-78 -135 -309 -135q-203 0 -276.5 95t-73.5 328v723h204v-718q0 -152 46.5 -213.5t175.5 -61.5q121 0 177 60.5t56 214.5v718h139q86 0 130 36t44 128v185zM473 -365v232h232v-232h-232 z" glyph-name="uni1EF1" horiz-adv-x="1187" unicode="ự"/><glyph d="M666 1604h-172l-256 407h217zM1151 1434l-465 -861v-573h-217v575l-451 859h242l307 -629h25l317 629h242z" glyph-name="Ygrave" horiz-adv-x="1169" unicode="Ỳ"/><glyph d="M594 1296h-172l-256 408h217zM782 1126h215l-348 -1202q-45 -158 -142 -235.5t-263 -77.5q-63 0 -138 12l15 152q63 -10 115 -11q96 0 149 39t86 164l8 33h-137l-317 1126h215l254 -972h26z" glyph-name="ygrave" horiz-adv-x="1017" unicode="ỳ"/><glyph d="M469 0v575l-451 859h242l307 -629h25l317 629h242l-465 -861v-573h-217zM467 -365v232h231v-232h-231z" glyph-name="uni1EF4" horiz-adv-x="1169" unicode="Ỵ"/><glyph d="M782 1126h215l-348 -1202q-45 -158 -142 -235.5t-263 -77.5q-63 0 -138 12l15 152q63 -10 115 -11q96 0 149 39t86 164l8 33h-137l-317 1126h215l254 -972h26zM748 -365v232h231v-232h-231z" glyph-name="uni1EF5" horiz-adv-x="1017" unicode="ỵ"/><glyph d="M561 1894q-29 0 -90 -4l-10 119q90 14 160 14q115 0 155.5 -34.5t40.5 -116.5q0 -68 -65 -123l-66 -55q-39 -33 -39 -92h-127q0 68 11.5 99.5t43.5 57.5l39 31q35 27 35 55.5t-19.5 38.5t-68.5 10zM1151 1434l-465 -861v-573h-217v575l-451 859h242l307 -629h25l317 629 h242z" glyph-name="uni1EF6" horiz-adv-x="1169" unicode="Ỷ"/><glyph d="M489 1587q-29 0 -90 -4l-10 119q90 14 160 14q115 0 155.5 -34.5t40.5 -116.5q0 -68 -65 -123l-66 -56q-39 -33 -39 -92h-126q0 68 11 99.5t44 58.5l39 31q35 27 35 55.5t-20 38.5t-69 10zM782 1126h215l-348 -1202q-45 -158 -142 -235.5t-263 -77.5q-63 0 -138 12 l15 152q63 -10 115 -11q96 0 149 39t86 164l8 33h-137l-317 1126h215l254 -972h26z" glyph-name="uni1EF7" horiz-adv-x="1017" unicode="ỷ"/><glyph d="M444 1749q-66 0 -77 -119h-127q0 123 57 203t143 80q59 0 125 -47l111 -82q25 -18 49 -19q68 0 80 119h127q0 -121 -57.5 -200.5t-143.5 -79.5q-61 0 -127 47l-108 80q-27 18 -52 18zM1151 1434l-465 -861v-573h-217v575l-451 859h242l307 -629h25l317 629h242z" glyph-name="uni1EF8" horiz-adv-x="1169" unicode="Ỹ"/><glyph d="M373 1442q-66 0 -78 -119h-127q0 123 57.5 203t143.5 80q59 0 125 -47l110 -82q25 -18 49 -19q68 0 80 119h127q0 -121 -57.5 -201t-143.5 -80q-61 0 -127 47l-108 80q-26 19 -51 19zM782 1126h215l-348 -1202q-45 -158 -142 -235.5t-263 -77.5q-63 0 -138 12l15 152 q63 -10 115 -11q96 0 149 39t86 164l8 33h-137l-317 1126h215l254 -972h26z" glyph-name="uni1EF9" horiz-adv-x="1017" unicode="ỹ"/><glyph glyph-name="uni2009" horiz-adv-x="204" unicode=" "/><glyph d="M168 721h864v-174h-864v174z" glyph-name="endash" horiz-adv-x="1200" unicode="–"/><glyph d="M168 721h1454v-174h-1454v174z" glyph-name="emdash" horiz-adv-x="1789" unicode="—"/><glyph d="M236 -51h1044v-150h-1044v150zM236 -293h1044v-149h-1044v149z" glyph-name="underscoredbl" horiz-adv-x="1515" unicode="‗"/><glyph d="M365 1167h110v-256h-239v256l98 369h129z" glyph-name="quoteleft" horiz-adv-x="710" unicode="‘"/><glyph d="M236 1536h239v-256l-98 -369h-129l98 369h-110v256z" glyph-name="quoteright" horiz-adv-x="710" unicode="’"/><glyph d="M236 256h239v-256l-98 -369h-129l98 369h-110v256z" glyph-name="quotesinglbase" horiz-adv-x="710" unicode="‚"/><glyph d="M403 1536l-98 -369h111v-256h-240v256l98 369h129zM688 1167h111v-256h-240v256l98 369h129z" glyph-name="quotedblleft" horiz-adv-x="972" unicode="“"/><glyph d="M174 1280v256h240v-256l-99 -369h-129l99 369h-111zM557 1536h240v-256l-99 -369h-129l99 369h-111v256z" glyph-name="quotedblright" horiz-adv-x="972" unicode="”"/><glyph d="M174 0v256h240v-256l-99 -369h-129l99 369h-111zM557 256h240v-256l-99 -369h-129l99 369h-111v256z" glyph-name="quotedblbase" horiz-adv-x="972" unicode="„"/><glyph d="M1065 913v-149h-395v-1133h-205v1133h-393v149h393v568h205v-568h395z" glyph-name="dagger" horiz-adv-x="1136" unicode="†"/><glyph d="M1110 764h-395v-416h395v-149h-395v-568h-205v568h-393v149h393v416h-393v149h393v568h205v-568h395v-149z" glyph-name="daggerdbl" horiz-adv-x="1226" unicode="‡"/><glyph d="M498 410q-133 0 -228.5 95t-95.5 228q0 135 95.5 230.5t228.5 95.5q135 0 229 -95.5t94 -230.5q0 -133 -94 -228t-229 -95z" glyph-name="bullet" horiz-adv-x="995" unicode="•"/><glyph d="M236 0v256h239v-256h-239zM813 0v256h240v-256h-240zM1393 0v256h239v-256h-239z" glyph-name="ellipsis" horiz-adv-x="1867" unicode="…"/><glyph d="M317 -20l871 1474h196l-872 -1474h-195zM428 602q-166 0 -228.5 101.5t-62.5 310.5q0 246 67.5 339t209.5 93q166 0 227 -101.5t61 -310.5q0 -248 -67.5 -340t-206.5 -92zM422 756q59 0 81.5 50t22.5 218t-22.5 218t-85.5 50q-59 0 -82 -50t-23 -218q0 -166 23 -217 t86 -51zM1298 -12q-166 0 -228 101t-62 310q0 246 67.5 339t208.5 93q166 0 227.5 -101t61.5 -310q0 -248 -67 -340t-208 -92zM1960 -12q-166 0 -228.5 101t-62.5 310q0 246 67.5 339t209.5 93q166 0 227 -101t61 -310q0 -248 -66.5 -340t-207.5 -92zM1292 141 q41 0 61.5 17.5t32 76t11.5 175.5q0 166 -22.5 217t-84 51t-84 -51.5t-22.5 -216.5q0 -168 22.5 -218.5t85.5 -50.5zM1954 141q41 0 61.5 17.5t31.5 76t11 175.5q0 166 -22.5 217t-84 51t-84 -51.5t-22.5 -216.5q0 -168 23 -218.5t86 -50.5z" glyph-name="perthousand" horiz-adv-x="2369" unicode="‰"/><glyph d="M492 1073v-215l-271 -285l271 -284v-217l-420 405v193z" glyph-name="guilsinglleft" horiz-adv-x="618" unicode="‹"/><glyph d="M127 1073l420 -403v-193l-420 -405v217l270 284l-270 285v215z" glyph-name="guilsinglright" horiz-adv-x="618" unicode="›"/><glyph d="M61 -41l596 1516h181l-596 -1516h-181z" glyph-name="fraction" horiz-adv-x="901" unicode="⁄"/><glyph d="M1065 203l31 -174q-104 -49 -269 -49q-268 0 -391 132t-149 400h-146v150h138v45q0 59 2 86h-140v149h150q33 289 162 400.5t366 111.5q156 0 262 -43l-16 -178q-96 41 -236 41q-154 0 -226.5 -70.5t-90.5 -261.5h453v-149h-463v-76v-55h401v-150h-393q18 -203 90 -277.5 t229 -74.5q144 0 236 43z" glyph-name="Euro" horiz-adv-x="1243" unicode="€"/><glyph d="M1817 608q-203 0 -282 103.5t-79 314.5q0 225 87 321.5t274 96.5q203 0 281.5 -103.5t78.5 -314.5q0 -227 -86 -322.5t-274 -95.5zM1004 174v1260h215v-1434h-402l-377 1260h-14v-1260h-215v1434h401l379 -1260h13zM1816.5 1292q-90.5 0 -121 -53t-30.5 -213t30.5 -213 t121 -53t120 52t29.5 214q0 160 -29.5 213t-120 53zM1456 319v175h721v-175h-721z" glyph-name="afii61352" horiz-adv-x="2279" unicode="№"/><glyph d="M483 1434v-101h-159v-616h-129v616h-162v101h450zM1237 1434v-717h-125v598h-6l-113 -432h-153l-115 432h-6v-598h-125v717h203l116 -441h7l114 441h203z" glyph-name="trademark" horiz-adv-x="1359" unicode="™"/><glyph d="M979 1475h180l-596 -1516h-180zM496 688v-131h-473v131h161v608l-151 -43l-23 131l174 50h162v-746h150zM1081 877h494v-154l-295 -723h-164l299 729v16h-334v132z" glyph-name="uni2150" horiz-adv-x="1605" unicode="⅐"/><glyph d="M979 1475h180l-596 -1516h-180zM496 688v-131h-473v131h161v608l-151 -43l-23 131l174 50h162v-746h150zM1296 891q160 0 221.5 -71.5t61.5 -213.5q0 -205 -109 -395q-66 -113 -153 -211h-191q109 117 189 246q35 61 53 98h-14q-47 -23 -123 -22q-125 0 -167 71.5 t-42 206.5q0 164 68.5 227.5t205.5 63.5zM1178 588q0 -92 27.5 -125t92.5 -33q72 0 99.5 37t27.5 129q0 96 -28.5 131t-96.5 35q-72 0 -97 -39t-25 -135z" glyph-name="uni2151" horiz-adv-x="1630" unicode="⅑"/><glyph d="M979 1475h180l-596 -1516h-180zM496 688v-131h-473v131h161v608l-151 -43l-23 131l174 50h162v-746h150zM1878 891q166 0 229.5 -110.5t63.5 -342.5q0 -256 -71.5 -353t-221.5 -97q-168 0 -231.5 109.5t-63.5 340.5q0 258 71.5 355.5t223.5 97.5zM1382 877v-746h150v-131 h-473v131h162v608l-152 -43l-22 131l174 50h161zM1878 113q76 0 101.5 70.5t25.5 254.5q0 193 -27.5 260.5t-99.5 67.5q-78 0 -103.5 -70.5t-25.5 -257.5q0 -193 28.5 -259t100.5 -66z" glyph-name="uni2152" horiz-adv-x="2228" unicode="⅒"/><glyph d="M979 1475h180l-596 -1516h-180zM496 688v-131h-473v131h161v608l-151 -43l-23 131l174 50h162v-746h150zM1473 459q96 -43 96 -193q0 -162 -73 -220t-239 -58q-143 0 -208 32l12 134q66 -33 199 -33q84 0 113.5 33.5t29.5 115.5q0 74 -31 101.5t-98 27.5h-135v115h123 q70 0 95 25.5t25 87.5q0 86 -27.5 112.5t-101.5 26.5q-117 0 -178 -29l-10 125q70 29 197 29q170 0 228 -54.5t58 -179.5q0 -137 -75 -186v-12z" glyph-name="onethird" horiz-adv-x="1622" unicode="⅓"/><glyph d="M1044 1475h181l-596 -1516h-180zM565 688v-131h-528v137q0 68 24.5 114t83.5 99l205 183q49 43 49 104q0 72 -35.5 97.5t-119.5 25.5q-76 0 -168 -14l-10 124q121 20 204 21q176 0 235.5 -60.5t59.5 -175.5q0 -111 -92 -196l-221 -199q-43 -39 -43 -106v-23h356z M1538 459q96 -43 96 -193q0 -162 -72.5 -220t-238.5 -58q-143 0 -209 32l12 134q66 -33 199 -33q84 0 113.5 33.5t29.5 115.5q0 74 -30.5 101.5t-98.5 27.5h-135v115h123q70 0 95.5 25.5t25.5 87.5q0 86 -27.5 112.5t-101.5 26.5q-117 0 -178 -29l-11 125q70 29 197 29 q170 0 228.5 -54.5t58.5 -179.5q0 -137 -76 -186v-12z" glyph-name="twothirds" horiz-adv-x="1687" unicode="⅔"/><glyph d="M979 1475h180l-596 -1516h-180zM496 688v-131h-473v131h161v608l-151 -43l-23 131l174 50h162v-746h150zM1247 528q180 0 246 -57t66 -201q0 -162 -75 -222t-229 -60q-135 0 -202 28l4 138q63 -29 190 -29q82 0 114 32.5t32 110.5q0 82 -34 112t-116 30h-168l17 467h430 v-132h-273l-4 -217h2z" glyph-name="uni2155" horiz-adv-x="1607" unicode="⅕"/><glyph d="M1044 1475h181l-596 -1516h-180zM565 688v-131h-528v137q0 68 24.5 114t83.5 99l205 183q49 43 49 104q0 72 -35.5 97.5t-119.5 25.5q-76 0 -168 -14l-10 124q121 20 204 21q176 0 235.5 -60.5t59.5 -175.5q0 -111 -92 -196l-221 -199q-43 -39 -43 -106v-23h356z M1313 528q180 0 245.5 -57t65.5 -201q0 -162 -74.5 -222t-228.5 -60q-135 0 -203 28l4 138q63 -29 191 -29q82 0 113.5 32.5t31.5 110.5q0 82 -33.5 112t-115.5 30h-168l16 467h430v-132h-272l-4 -217h2z" glyph-name="uni2156" horiz-adv-x="1673" unicode="⅖"/><glyph d="M995 1475h181l-596 -1516h-181zM551 823q0 -162 -72.5 -220t-238.5 -58q-143 0 -209 33l12 133q66 -33 199 -33q84 0 113.5 33.5t29.5 115.5q0 74 -30.5 101.5t-98.5 27.5h-135v115h123q68 0 94.5 25.5t26.5 87.5q0 86 -27 112.5t-102 26.5q-117 0 -179 -29l-10 125 q70 29 197 29q170 0 228 -54.5t58 -179.5q0 -137 -75 -186v-12q96 -43 96 -193zM1264 528q180 0 245.5 -57t65.5 -201q0 -162 -75 -222t-228 -60q-135 0 -203 28l4 138q63 -29 191 -29q82 0 113.5 32.5t31.5 110.5q0 82 -34 112t-115 30h-168l16 467h430v-132h-272l-4 -217 h2z" glyph-name="uni2157" horiz-adv-x="1624" unicode="⅗"/><glyph d="M1118 1475h180l-596 -1516h-180zM555 557h-152v191h-362v163l221 523h150l-217 -543v-12h208v266h152v-266h94v-131h-94v-191zM1386 528q180 0 246 -57t66 -201q0 -162 -75 -222t-228 -60q-135 0 -203 28l4 138q63 -29 190 -29q82 0 114 32.5t32 110.5q0 82 -34 112 t-116 30h-168l17 467h430v-132h-272l-5 -217h2z" glyph-name="uni2158" horiz-adv-x="1746" unicode="⅘"/><glyph d="M979 1475h180l-596 -1516h-180zM496 688v-131h-473v131h161v608l-151 -43l-23 131l174 50h162v-746h150zM1294 557q125 0 167 -71.5t42 -206.5q0 -166 -68.5 -228.5t-205.5 -62.5q-160 0 -221.5 70.5t-61.5 213.5q0 193 111 394q61 111 151 211h191q-111 -121 -187 -246 q-41 -68 -53 -96h12q47 22 123 22zM1225 115q72 0 97.5 39t25.5 137q0 90 -29 124t-92 34q-72 0 -98.5 -37t-26.5 -129q0 -96 27.5 -132t95.5 -36z" glyph-name="uni2159" horiz-adv-x="1548" unicode="⅙"/><glyph d="M991 1475h180l-596 -1516h-180zM551 827q0 -162 -75 -222t-228 -60q-135 0 -203 28l4 138q63 -29 191 -29q82 0 113.5 33t31.5 110q0 82 -34 112t-115 30h-168l16 467h430v-131h-272l-4 -218h2q180 0 245.5 -57.5t65.5 -200.5zM1307 557q125 0 167 -71.5t42 -206.5 q0 -166 -69 -228.5t-206 -62.5q-160 0 -221.5 70.5t-61.5 213.5q0 193 111 394q61 111 152 211h190q-111 -121 -186 -246q-41 -68 -54 -96h13q47 22 123 22zM1237 115q72 0 97.5 39t25.5 137q0 90 -28.5 124t-92.5 34q-72 0 -98.5 -37t-26.5 -129q0 -96 27.5 -132t95.5 -36z " glyph-name="uni215A" horiz-adv-x="1560" unicode="⅚"/><glyph d="M979 1475h180l-596 -1516h-180zM496 688v-131h-473v131h161v608l-151 -43l-23 131l174 50h162v-746h150zM1473 455q121 -47 120 -207q0 -147 -74.5 -203.5t-215.5 -56.5q-166 0 -230.5 66.5t-64.5 193.5q0 160 122 207v8q-100 43 -100 190q0 133 68.5 185.5t204.5 52.5 q152 0 210 -61.5t58 -182.5q0 -141 -98 -186v-6zM1300 770q-74 0 -100 -29.5t-26 -101.5q0 -76 30.5 -105.5t98.5 -29.5q70 0 98.5 31.5t28.5 103.5q0 76 -30 103.5t-100 27.5zM1303 113q74 0 101.5 31.5t27.5 107.5q0 84 -31 115.5t-98 31.5q-74 0 -103 -33.5t-29 -113.5 t31 -109.5t101 -29.5z" glyph-name="oneeighth" horiz-adv-x="1646" unicode="⅛"/><glyph d="M995 1475h181l-596 -1516h-181zM551 823q0 -162 -72.5 -220t-238.5 -58q-143 0 -209 33l12 133q66 -33 199 -33q84 0 113.5 33.5t29.5 115.5q0 74 -30.5 101.5t-98.5 27.5h-135v115h123q68 0 94.5 25.5t26.5 87.5q0 86 -27 112.5t-102 26.5q-117 0 -179 -29l-10 125 q70 29 197 29q170 0 228 -54.5t58 -179.5q0 -137 -75 -186v-12q96 -43 96 -193zM1489 455q121 -47 121 -207q0 -147 -75 -203.5t-216 -56.5q-166 0 -230.5 66.5t-64.5 193.5q0 160 123 207v8q-100 43 -100 190q0 133 68.5 185.5t203.5 52.5q152 0 210 -61.5t58 -182.5 q0 -141 -98 -186v-6zM1317 770q-74 0 -100.5 -29.5t-26.5 -101.5q0 -76 30.5 -105.5t98.5 -29.5q70 0 98.5 31.5t28.5 103.5q0 76 -29.5 103.5t-99.5 27.5zM1319 113q74 0 101.5 31.5t27.5 107.5q0 84 -31 115.5t-98 31.5q-74 0 -102.5 -33.5t-28.5 -113.5t30.5 -109.5 t100.5 -29.5z" glyph-name="threeeighths" horiz-adv-x="1662" unicode="⅜"/><glyph d="M991 1475h180l-596 -1516h-180zM551 827q0 -162 -75 -222t-228 -60q-135 0 -203 28l4 138q63 -29 191 -29q82 0 113.5 33t31.5 110q0 82 -34 112t-115 30h-168l16 467h430v-131h-272l-4 -218h2q180 0 245.5 -57.5t65.5 -200.5zM1485 455q121 -47 121 -207 q0 -147 -75 -203.5t-216 -56.5q-166 0 -230.5 66.5t-64.5 193.5q0 160 123 207v8q-100 43 -101 190q0 133 69 185.5t204 52.5q152 0 210 -61.5t58 -182.5q0 -141 -98 -186v-6zM1313 770q-74 0 -100.5 -29.5t-26.5 -101.5q0 -76 30.5 -105.5t98.5 -29.5q70 0 98.5 31.5 t28.5 103.5q0 76 -29.5 103.5t-99.5 27.5zM1315 113q74 0 101.5 31.5t27.5 107.5q0 84 -31 115.5t-98 31.5q-74 0 -102.5 -33.5t-28.5 -113.5t30.5 -109.5t100.5 -29.5z" glyph-name="fiveeighths" horiz-adv-x="1658" unicode="⅝"/><glyph d="M842 1475h180l-596 -1516h-180zM516 1280l-295 -723h-164l299 729v17h-333v131h493v-154zM1335 455q121 -47 121 -207q0 -147 -74.5 -203.5t-216.5 -56.5q-166 0 -230.5 66.5t-64.5 193.5q0 160 123 207v8q-100 43 -100 190q0 133 68.5 185.5t203.5 52.5 q152 0 210.5 -61.5t58.5 -182.5q0 -141 -99 -186v-6zM1163 770q-74 0 -100.5 -29.5t-26.5 -101.5q0 -76 31 -105.5t98 -29.5q70 0 98.5 31.5t28.5 103.5q0 76 -29.5 103.5t-99.5 27.5zM1165 113q74 0 101.5 31.5t27.5 107.5q0 84 -30.5 115.5t-98.5 31.5q-74 0 -102.5 -33.5 t-28.5 -113.5t30.5 -109.5t100.5 -29.5z" glyph-name="seveneighths" horiz-adv-x="1509" unicode="⅞"/><glyph d="M979 1475h180l-596 -1516h-180zM496 688v-131h-473v131h161v608l-151 -43l-23 131l174 50h162v-746h150z" glyph-name="uni215F" horiz-adv-x="1222" unicode="⅟"/><glyph d="M174 662h920v-175h-920v175z" glyph-name="minus" horiz-adv-x="1269" unicode="−"/><glyph d="M315 596l-125 41q0 104 73 193.5t183 89.5q78 0 162 -50l140 -82q39 -23 73 -22q98 0 133 164l125 -41q-2 -104 -73.5 -193.5t-184.5 -89.5q-80 0 -162 49l-139 82q-37 23 -74 23q-100 0 -131 -164zM315 236l-125 40q0 104 73 193.5t183 89.5q78 0 162 -49l140 -82 q39 -23 73 -22q98 0 133 163l125 -41q-2 -104 -73.5 -193t-184.5 -89q-80 0 -162 49l-139 82q-37 23 -74 22q-100 1 -131 -163z" glyph-name="approxequal" horiz-adv-x="1269" unicode="≈"/><glyph d="M1081 672h-317l-62 -189h379v-174h-438l-84 -254h-197l84 254h-258v174h318l61 189h-379v174h439l84 254h196l-84 -254h258v-174z" glyph-name="notequal" horiz-adv-x="1269" unicode="≠"/><glyph d="M1073 1077l-704 -246v-26l704 -244v-215l-878 330v285l878 331v-215zM195 39v174h878v-174h-878z" glyph-name="lessequal" horiz-adv-x="1269" unicode="≤"/><glyph d="M195 1292l878 -331v-285l-878 -330v215l704 244v26l-704 246v215zM195 39v174h878v-174h-878z" glyph-name="greaterequal" horiz-adv-x="1269" unicode="≥"/><glyph d="M886.5 -20q-319.5 0 -527 206.5t-207.5 530t207.5 530.5t527 207t527.5 -207t208 -530.5t-208 -530t-527.5 -206.5zM887 94q262 0 431 174t169 448.5t-169 448.5t-431 174q-258 0 -429 -175t-171 -447q0 -274 169 -448.5t431 -174.5zM655 291v131h164v608l-151 -43 l-23 131l174 49h160v-745h149v-131h-473z" glyph-name="uni2460" horiz-adv-x="1773" unicode="①"/><glyph d="M886.5 -20q-319.5 0 -527 206.5t-207.5 530t207.5 530.5t527 207t527.5 -207t208 -530.5t-208 -530t-527.5 -206.5zM887 94q262 0 431 174t169 448.5t-169 448.5t-431 174q-258 0 -429 -175t-171 -447q0 -274 169 -448.5t431 -174.5zM623 291v137q0 68 24.5 114t83.5 99 l205 182q49 43 49 105q0 72 -36 97.5t-122 25.5q-78 0 -165 -17l-11 127q139 20 205 21q176 0 235.5 -60.5t59.5 -175.5t-92 -196l-221 -199q-43 -39 -43 -107v-22h356v-131h-528z" glyph-name="uni2461" horiz-adv-x="1773" unicode="②"/><glyph d="M886.5 -20q-319.5 0 -527 206.5t-207.5 530t207.5 530.5t527 207t527.5 -207t208 -530.5t-208 -530t-527.5 -206.5zM887 94q262 0 431 174t169 448.5t-169 448.5t-431 174q-258 0 -429 -175t-171 -447q0 -274 169 -448.5t431 -174.5zM850 279q-143 0 -211 32l12 133 q66 -33 199 -32q84 0 113.5 33.5t29.5 115.5q0 74 -30.5 100.5t-98.5 26.5h-135v117h125q70 0 94.5 25.5t24.5 87.5q0 86 -27.5 112.5t-101.5 26.5q-115 0 -176 -29l-13 125q70 29 197 29q170 0 228.5 -54.5t58.5 -179.5q0 -137 -74 -184v-14q94 -45 94 -193 q0 -162 -72.5 -220t-236.5 -58z" glyph-name="uni2462" horiz-adv-x="1773" unicode="③"/><glyph d="M886.5 -20q-319.5 0 -527 206.5t-207.5 530t207.5 530.5t527 207t527.5 -207t208 -530.5t-208 -530t-527.5 -206.5zM887 94q262 0 431 174t169 448.5t-169 448.5t-431 174q-258 0 -429 -175t-171 -447q0 -274 169 -448.5t431 -174.5zM928 297v190h-365v164l221 523h150 l-217 -541v-15h211v267h149v-267h94v-131h-94v-190h-149z" glyph-name="uni2463" horiz-adv-x="1773" unicode="④"/><glyph d="M886.5 -20q-319.5 0 -527 206.5t-207.5 530t207.5 530.5t527 207t527.5 -207t208 -530.5t-208 -530t-527.5 -206.5zM887 94q262 0 431 174t169 448.5t-169 448.5t-431 174q-258 0 -429 -175t-171 -447q0 -274 169 -448.5t431 -174.5zM838 279q-135 0 -203 28l4 135 q63 -27 190 -26q82 0 114 32.5t32 110.5q0 82 -34 111.5t-116 29.5h-168l15 467h430v-131h-271l-6 -217h4q180 0 245 -57t65 -201q0 -162 -73.5 -222t-227.5 -60z" glyph-name="uni2464" horiz-adv-x="1773" unicode="⑤"/><glyph d="M886.5 -20q-319.5 0 -527 206.5t-207.5 530t207.5 530.5t527 207t527.5 -207t208 -530.5t-208 -530t-527.5 -206.5zM887 94q262 0 431 174t169 448.5t-169 448.5t-431 174q-258 0 -429 -175t-171 -447q0 -274 169 -448.5t431 -174.5zM872 289q-160 0 -221 71.5t-61 212.5 q0 190 108 394q57 106 152 213h190q-102 -113 -186 -248q-27 -41 -53 -96h12q47 23 125 22q125 0 167 -71.5t42 -206.5q0 -164 -69 -227.5t-206 -63.5zM868 418q72 0 97.5 39t25.5 135q0 92 -27.5 125t-93.5 33q-74 0 -100.5 -37t-26.5 -129q0 -96 28.5 -131t96.5 -35z" glyph-name="uni2465" horiz-adv-x="1773" unicode="⑥"/><glyph d="M886.5 -20q-319.5 0 -527 206.5t-207.5 530t207.5 530.5t527 207t527.5 -207t208 -530.5t-208 -530t-527.5 -206.5zM887 94q262 0 431 174t169 448.5t-169 448.5t-431 174q-258 0 -429 -175t-171 -447q0 -274 169 -448.5t431 -174.5zM690 272l297 725v21h-332v131h494 v-154l-295 -723h-164z" glyph-name="uni2466" horiz-adv-x="1773" unicode="⑦"/><glyph d="M886.5 -20q-319.5 0 -527 206.5t-207.5 530t207.5 530.5t527 207t527.5 -207t208 -530.5t-208 -530t-527.5 -206.5zM887 94q262 0 431 174t169 448.5t-169 448.5t-431 174q-258 0 -429 -175t-171 -447q0 -274 169 -448.5t431 -174.5zM887 279q-166 0 -229.5 66.5 t-63.5 193.5q0 160 123 206v7q-100 45 -101 192q0 133 68 185.5t203 52.5q154 0 212 -61.5t58 -182.5q0 -143 -100 -186v-9q123 -45 123 -204q0 -147 -76 -203.5t-217 -56.5zM887 795q72 0 99.5 31.5t27.5 103.5q0 76 -29 103.5t-98 27.5q-74 0 -100.5 -30t-26.5 -101 q0 -76 30.5 -105.5t96.5 -29.5zM887 403q76 0 103.5 32t27.5 108q0 84 -32 115.5t-99 31.5q-74 0 -102.5 -34.5t-28.5 -112.5q0 -80 30.5 -110t100.5 -30z" glyph-name="uni2467" horiz-adv-x="1773" unicode="⑧"/><glyph d="M886.5 -20q-319.5 0 -527 206.5t-207.5 530t207.5 530.5t527 207t527.5 -207t208 -530.5t-208 -530t-527.5 -206.5zM887 94q262 0 431 174t169 448.5t-169 448.5t-431 174q-258 0 -429 -175t-171 -447q0 -274 169 -448.5t431 -174.5zM709 283q111 121 186 245 q35 55 53 99h-12q-47 -23 -125 -23q-125 0 -166 70.5t-41 208.5q0 164 68.5 227.5t204.5 63.5q162 0 223 -72t61 -213q0 -205 -110 -395q-63 -109 -152 -211h-190zM879 713q74 0 100.5 36.5t26.5 129.5q0 96 -29 130.5t-96 34.5q-70 0 -95.5 -38.5t-25.5 -135.5 q0 -92 28 -124.5t91 -32.5z" glyph-name="uni2468" horiz-adv-x="1773" unicode="⑨"/><glyph d="M886.5 -20q-319.5 0 -527 206.5t-207.5 530t207.5 530.5t527 207t527.5 -207t208 -530.5t-208 -530t-527.5 -206.5zM887 94q262 0 431 174t169 448.5t-169 448.5t-431 174q-258 0 -429 -175t-171 -447q0 -274 169 -448.5t431 -174.5zM887 279q-168 0 -230.5 109.5 t-62.5 340.5q0 258 70.5 355.5t222.5 97.5q168 0 230.5 -110.5t62.5 -342.5q0 -258 -70.5 -354t-222.5 -96zM887 403q78 0 103.5 71t25.5 255q0 193 -29 260.5t-100 67.5q-78 0 -103.5 -72t-25.5 -256q0 -193 28.5 -259.5t100.5 -66.5z" glyph-name="uni24EA" horiz-adv-x="1773" unicode="⓪"/><glyph d="M886.5 -20q-319.5 0 -527 206.5t-207.5 530t207.5 530.5t527 207t527.5 -207t208 -530.5t-208 -530t-527.5 -206.5zM887 279q152 0 222.5 96t70.5 354q0 231 -62.5 342t-230.5 111q-152 0 -222.5 -97.5t-70.5 -355.5q0 -231 62.5 -340.5t230.5 -109.5zM887 403 q-72 0 -100.5 67t-28.5 259q0 184 25.5 256t103.5 72q72 0 100.5 -67.5t28.5 -260.5q0 -184 -25.5 -255t-103.5 -71z" glyph-name="uni24FF" horiz-adv-x="1773" unicode="⓿"/><glyph d="M886.5 -20q-319.5 0 -527 206.5t-207.5 530t207.5 530.5t527 207t527.5 -207t208 -530.5t-208 -530t-527.5 -206.5zM655 291h473v131h-149v745h-160l-174 -49l23 -131l151 43v-608h-164v-131z" glyph-name="uni2776" horiz-adv-x="1773" unicode="❶"/><glyph d="M886.5 -20q-319.5 0 -527 206.5t-207.5 530t207.5 530.5t527 207t527.5 -207t208 -530.5t-208 -530t-527.5 -206.5zM623 291h528v131h-356v22q0 68 43 107l221 199q92 82 92 196.5t-59.5 175t-235.5 60.5q-66 0 -205 -21l11 -127q88 16 165 17q86 0 122 -26t36 -97 q0 -61 -49 -105l-205 -182q-59 -53 -83.5 -99t-24.5 -114v-137z" glyph-name="uni2777" horiz-adv-x="1773" unicode="❷"/><glyph d="M886.5 -20q-319.5 0 -527 206.5t-207.5 530t207.5 530.5t527 207t527.5 -207t208 -530.5t-208 -530t-527.5 -206.5zM850 279q164 0 236.5 58t72.5 220q0 147 -94 193v14q74 47 74 184q0 125 -58.5 179.5t-228.5 54.5q-127 0 -197 -29l13 -125q61 29 176 29 q74 0 101.5 -26.5t27.5 -112.5q0 -61 -24.5 -87t-94.5 -26h-125v-117h135q68 0 98.5 -26.5t30.5 -100.5q0 -82 -29.5 -115.5t-113.5 -33.5q-133 0 -199 32l-12 -133q68 -32 211 -32z" glyph-name="uni2778" horiz-adv-x="1773" unicode="❸"/><glyph d="M886.5 -20q-319.5 0 -527 206.5t-207.5 530t207.5 530.5t527 207t527.5 -207t208 -530.5t-208 -530t-527.5 -206.5zM928 297h149v190h94v131h-94v267h-149v-267h-211v15l217 541h-150l-221 -523v-164h365v-190z" glyph-name="uni2779" horiz-adv-x="1773" unicode="❹"/><glyph d="M886.5 -20q-319.5 0 -527 206.5t-207.5 530t207.5 530.5t527 207t527.5 -207t208 -530.5t-208 -530t-527.5 -206.5zM838 279q154 0 227.5 60t73.5 222q0 143 -64.5 200.5t-245.5 57.5h-4l6 217h271v131h-430l-15 -467h168q82 0 116 -29.5t34 -111.5q0 -78 -32 -110.5 t-114 -32.5q-127 0 -190 26l-4 -135q68 -28 203 -28z" glyph-name="uni277A" horiz-adv-x="1773" unicode="❺"/><glyph d="M886.5 -20q-319.5 0 -527 206.5t-207.5 530t207.5 530.5t527 207t527.5 -207t208 -530.5t-208 -530t-527.5 -206.5zM872 289q137 0 206 63.5t69 227.5q0 135 -42 206.5t-167 71.5q-78 0 -125 -22h-12q27 55 53 96q84 135 186 248h-190q-94 -106 -152 -213 q-109 -203 -108 -394q0 -141 61 -212.5t221 -71.5zM868 418q-68 0 -96.5 34.5t-28.5 131.5q0 92 27 129t100 37q66 0 93.5 -33t27.5 -125q0 -96 -25.5 -135t-97.5 -39z" glyph-name="uni277B" horiz-adv-x="1773" unicode="❻"/><glyph d="M886.5 -20q-319.5 0 -527 206.5t-207.5 530t207.5 530.5t527 207t527.5 -207t208 -530.5t-208 -530t-527.5 -206.5zM690 289h164l295 723v153h-494v-131h332v-20z" glyph-name="uni277C" horiz-adv-x="1773" unicode="❼"/><glyph d="M886.5 -20q-319.5 0 -527 206.5t-207.5 530t207.5 530.5t527 207t527.5 -207t208 -530.5t-208 -530t-527.5 -206.5zM887 279q141 0 217 56t76 204q0 160 -123 204v9q100 43 100 186q0 121 -58.5 182.5t-211.5 61.5q-135 0 -203 -52.5t-68 -185.5q0 -147 101 -192v-7 q-123 -47 -123 -206q0 -127 63.5 -193.5t229.5 -66.5zM887 795q-66 0 -96.5 29.5t-30.5 105.5q0 72 26.5 101.5t100.5 29.5q70 0 98.5 -27.5t28.5 -103.5q0 -72 -27.5 -103.5t-99.5 -31.5zM887 403q-70 0 -100.5 30t-30.5 110q0 78 28.5 112.5t102.5 34.5q68 0 99.5 -31.5 t31.5 -115.5q0 -76 -27.5 -108t-103.5 -32z" glyph-name="uni277D" horiz-adv-x="1773" unicode="❽"/><glyph d="M886.5 -20q-319.5 0 -527 206.5t-207.5 530t207.5 530.5t527 207t527.5 -207t208 -530.5t-208 -530t-527.5 -206.5zM709 283h190q88 102 152 211q111 190 110 395q0 141 -61.5 213t-222.5 72q-135 0 -204 -63.5t-69 -227.5q0 -137 41 -208t166 -71q78 0 125 23h12 q-18 -43 -53 -99q-75 -124 -186 -245zM879 713q-63 0 -91 32.5t-28 124.5q0 96 25.5 135t95.5 39q68 0 96.5 -34.5t28.5 -130.5q0 -92 -26.5 -129t-100.5 -37z" glyph-name="uni277E" horiz-adv-x="1773" unicode="❾"/><glyph d="M797 1126h204v-1126l-163 -14l-23 129h-16q-74 -135 -273 -135q-229 0 -321 149.5t-92 423.5q0 324 108.5 459t319.5 135q176 0 243 -103h13v82zM567 133q119 0 174.5 59.5t55.5 215.5v311q0 158 -55.5 216t-172.5 58q-141 0 -193 -89t-52 -343q0 -250 52 -339t191 -89z " glyph-name="a.ss01" horiz-adv-x="1169"/><glyph d="M911 1704l-256 -408h-172l211 408h217zM797 1126h204v-1126l-163 -14l-23 129h-16q-74 -135 -273 -135q-229 0 -321 149.5t-92 423.5q0 324 108.5 459t319.5 135q176 0 243 -103h13v82zM567 133q119 0 174.5 59.5t55.5 215.5v311q0 158 -55.5 216t-172.5 58 q-141 0 -193 -89t-52 -343q0 -250 52 -339t191 -89z" glyph-name="aacute.aalt" horiz-adv-x="1169"/><glyph d="M573 1292q-195 0 -269.5 79t-74.5 233v30h170v-30q0 -82 40 -122t134 -40q84 0 128 35.5t44 126.5v30h170v-30q0 -174 -87 -243t-255 -69zM797 1126h204v-1126l-163 -14l-23 129h-16q-74 -135 -273 -135q-229 0 -321 149.5t-92 423.5q0 324 108.5 459t319.5 135 q176 0 243 -103h13v82zM567 133q119 0 174.5 59.5t55.5 215.5v311q0 158 -55.5 216t-172.5 58q-141 0 -193 -89t-52 -343q0 -250 52 -339t191 -89z" glyph-name="abreve.aalt" horiz-adv-x="1169"/><glyph d="M903 2011l-256 -407h-172l211 407h217zM573 1292q-195 0 -269.5 79t-74.5 233v30h170v-30q0 -82 40 -122t134 -40q84 0 128 35.5t44 126.5v30h170v-30q0 -174 -87 -243t-255 -69zM797 1126h204v-1126l-163 -14l-23 129h-16q-74 -135 -273 -135q-229 0 -321 149.5 t-92 423.5q0 324 108.5 459t319.5 135q176 0 243 -103h13v82zM567 133q119 0 174.5 59.5t55.5 215.5v311q0 158 -55.5 216t-172.5 58q-141 0 -193 -89t-52 -343q0 -250 52 -339t191 -89z" glyph-name="uni1EAF.aalt" horiz-adv-x="1169"/><glyph d="M573 1292q-195 0 -269.5 79t-74.5 233v30h170v-30q0 -82 40 -122t134 -40q84 0 128 35.5t44 126.5v30h170v-30q0 -174 -87 -243t-255 -69zM797 1126h204v-1126l-163 -14l-23 129h-16q-74 -135 -273 -135q-229 0 -321 149.5t-92 423.5q0 324 108.5 459t319.5 135 q176 0 243 -103h13v82zM567 133q119 0 174.5 59.5t55.5 215.5v311q0 158 -55.5 216t-172.5 58q-141 0 -193 -89t-52 -343q0 -250 52 -339t191 -89zM457 -365v232h231v-232h-231z" glyph-name="uni1EB7.aalt" horiz-adv-x="1169"/><glyph d="M670 1604h-172l-256 407h217zM573 1292q-195 0 -269.5 79t-74.5 233v30h170v-30q0 -82 40 -122t134 -40q84 0 128 35.5t44 126.5v30h170v-30q0 -174 -87 -243t-255 -69zM797 1126h204v-1126l-163 -14l-23 129h-16q-74 -135 -273 -135q-229 0 -321 149.5t-92 423.5 q0 324 108.5 459t319.5 135q176 0 243 -103h13v82zM567 133q119 0 174.5 59.5t55.5 215.5v311q0 158 -55.5 216t-172.5 58q-141 0 -193 -89t-52 -343q0 -250 52 -339t191 -89z" glyph-name="uni1EB1.aalt" horiz-adv-x="1169"/><glyph d="M528 1896q-59 0 -88 -4l-12 121q109 14 162 15q113 0 154.5 -36t41.5 -116q0 -70 -65 -123l-66 -55q-39 -33 -39 -94h-127q0 70 10.5 100.5t43.5 56.5l41 33q33 25 32 55q0 29 -18.5 38t-69.5 9zM573 1292q-195 0 -269.5 79t-74.5 233v30h170v-30q0 -82 40 -122t134 -40 q84 0 128 35.5t44 126.5v30h170v-30q0 -174 -87 -243t-255 -69zM797 1126h204v-1126l-163 -14l-23 129h-16q-74 -135 -273 -135q-229 0 -321 149.5t-92 423.5q0 324 108.5 459t319.5 135q176 0 243 -103h13v82zM567 133q119 0 174.5 59.5t55.5 215.5v311q0 158 -55.5 216 t-172.5 58q-141 0 -193 -89t-52 -343q0 -250 52 -339t191 -89z" glyph-name="uni1EB3.aalt" horiz-adv-x="1169"/><glyph d="M430 1831q-63 0 -80 -121h-125q0 123 57.5 203t141.5 80q66 0 127 -47l111 -82q25 -18 49 -19q68 0 80 121h127q0 -123 -57.5 -203t-143.5 -80q-66 0 -127 48l-109 79q-26 21 -51 21zM227 1634h170v-30q0 -82 40 -122t134 -40q84 0 129 35.5t45 126.5v30h168v-30 q0 -174 -87 -243t-255 -69q-195 0 -269.5 79t-74.5 233v30zM797 1126h204v-1126l-163 -14l-23 129h-16q-74 -135 -273 -135q-229 0 -321 149.5t-92 423.5q0 324 108.5 459t319.5 135q176 0 243 -103h13v82zM567 133q119 0 174.5 59.5t55.5 215.5v311q0 158 -55.5 216 t-172.5 58q-141 0 -193 -89t-52 -343q0 -250 52 -339t191 -89z" glyph-name="uni1EB5.aalt" horiz-adv-x="1169"/><glyph d="M678 1288h-217l-264 408h172l200 -264l203 264h172zM797 1126h204v-1126l-163 -14l-23 129h-16q-74 -135 -273 -135q-229 0 -321 149.5t-92 423.5q0 324 108.5 459t319.5 135q176 0 243 -103h13v82zM567 133q119 0 174.5 59.5t55.5 215.5v311q0 158 -55.5 216t-172.5 58 q-141 0 -193 -89t-52 -343q0 -250 52 -339t191 -89z" glyph-name="uni01CE.aalt" horiz-adv-x="1169"/><glyph d="M569 1552l-200 -264h-172l264 408h217l266 -408h-172zM797 1126h204v-1126l-163 -14l-23 129h-16q-74 -135 -273 -135q-229 0 -321 149.5t-92 423.5q0 324 108.5 459t319.5 135q176 0 243 -103h13v82zM567 133q119 0 174.5 59.5t55.5 215.5v311q0 158 -55.5 216 t-172.5 58q-141 0 -193 -89t-52 -343q0 -250 52 -339t191 -89z" glyph-name="acircumflex.aalt" horiz-adv-x="1169"/><glyph d="M1079 1944h217l-256 -408h-172zM569 1552l-200 -264h-172l264 408h217l266 -408h-172zM797 1044v82h204v-1126l-163 -14l-23 129h-16q-74 -135 -273 -135q-229 0 -321 149.5t-92 423.5q0 324 108.5 459t319.5 135q176 0 243 -103h13zM567 133q119 0 174.5 59.5 t55.5 215.5v311q0 158 -55.5 216t-172.5 58q-141 0 -193 -89t-52 -343q0 -250 52 -339t191 -89z" glyph-name="uni1EA5.aalt" horiz-adv-x="1169"/><glyph d="M569 1552l-200 -264h-172l264 408h217l266 -408h-172zM797 1126h204v-1126l-163 -14l-23 129h-16q-74 -135 -273 -135q-229 0 -321 149.5t-92 423.5q0 324 108.5 459t319.5 135q176 0 243 -103h13v82zM567 133q119 0 174.5 59.5t55.5 215.5v311q0 158 -55.5 216 t-172.5 58q-141 0 -193 -89t-52 -343q0 -250 52 -339t191 -89zM457 -365v232h231v-232h-231z" glyph-name="uni1EAD.aalt" horiz-adv-x="1169"/><glyph d="M1094 1536h-170l-256 408h217zM569 1552l-200 -264h-172l264 408h217l266 -408h-172zM797 1044v82h204v-1126l-163 -14l-23 129h-16q-74 -135 -273 -135q-229 0 -321 149.5t-92 423.5q0 324 108.5 459t319.5 135q176 0 243 -103h13zM567 133q119 0 174.5 59.5t55.5 215.5 v311q0 158 -55.5 216t-172.5 58q-141 0 -193 -89t-52 -343q0 -250 52 -339t191 -89z" glyph-name="uni1EA7.aalt" horiz-adv-x="1169"/><glyph d="M967 1958q113 0 154.5 -36t41.5 -116q0 -68 -65 -123l-66 -55q-39 -33 -39 -92h-127q0 68 10.5 99.5t43.5 56.5l41 32q35 27 34.5 55.5t-20 39t-70.5 10.5q-27 0 -88 -4l-10 119q90 14 160 14zM569 1552l-200 -264h-172l264 408h217l266 -408h-172zM797 1044v82h204 v-1126l-163 -14l-23 129h-16q-74 -135 -273 -135q-229 0 -321 149.5t-92 423.5q0 324 108.5 459t319.5 135q176 0 243 -103h13zM567 133q119 0 174.5 59.5t55.5 215.5v311q0 158 -55.5 216t-172.5 58q-141 0 -193 -89t-52 -343q0 -250 52 -339t191 -89z" glyph-name="uni1EA9.aalt" horiz-adv-x="1169"/><glyph d="M430 1913q-63 0 -80 -121h-125q0 123 57.5 203t141.5 80q66 0 127 -47l111 -82q25 -18 49 -19q68 0 80 119h127q0 -121 -57.5 -201t-143.5 -80q-66 0 -127 47l-109 80q-26 21 -51 21zM569 1552l-200 -264h-172l264 408h217l266 -408h-172zM797 1126h204v-1126l-163 -14 l-23 129h-16q-74 -135 -273 -135q-229 0 -321 149.5t-92 423.5q0 324 108.5 459t319.5 135q176 0 243 -103h13v82zM567 133q119 0 174.5 59.5t55.5 215.5v311q0 158 -55.5 216t-172.5 58q-141 0 -193 -89t-52 -343q0 -250 52 -339t191 -89z" glyph-name="uni1EAB.aalt" horiz-adv-x="1169"/><glyph d="M459 1286h-172l-256 428h217zM844 1286h-172l-256 428h217zM797 1126h204v-1126l-163 -14l-23 129h-16q-74 -135 -273 -135q-229 0 -321 149.5t-92 423.5q0 324 108.5 459t319.5 135q176 0 243 -103h13v82zM567 133q119 0 174.5 59.5t55.5 215.5v311q0 158 -55.5 216 t-172.5 58q-141 0 -193 -89t-52 -343q0 -250 52 -339t191 -89z" glyph-name="uni0201.aalt" horiz-adv-x="1169"/><glyph d="M463 1569v-230h-230v230h230zM907 1569v-230h-229v230h229zM797 1126h204v-1126l-163 -14l-23 129h-16q-74 -135 -273 -135q-229 0 -321 149.5t-92 423.5q0 324 108.5 459t319.5 135q176 0 243 -103h13v82zM567 133q119 0 174.5 59.5t55.5 215.5v311q0 158 -55.5 216 t-172.5 58q-141 0 -193 -89t-52 -343q0 -250 52 -339t191 -89z" glyph-name="adieresis.aalt" horiz-adv-x="1169"/><glyph d="M797 1126h204v-1126l-163 -14l-23 129h-16q-74 -135 -273 -135q-229 0 -321 149.5t-92 423.5q0 324 108.5 459t319.5 135q176 0 243 -103h13v82zM567 133q119 0 174.5 59.5t55.5 215.5v311q0 158 -55.5 216t-172.5 58q-141 0 -193 -89t-52 -343q0 -250 52 -339t191 -89z M457 -365v232h231v-232h-231z" glyph-name="uni1EA1.aalt" horiz-adv-x="1169"/><glyph d="M653 1296h-172l-256 408h217zM797 1126h204v-1126l-163 -14l-23 129h-16q-74 -135 -273 -135q-229 0 -321 149.5t-92 423.5q0 324 108.5 459t319.5 135q176 0 243 -103h13v82zM567 133q119 0 174.5 59.5t55.5 215.5v311q0 158 -55.5 216t-172.5 58q-141 0 -193 -89 t-52 -343q0 -250 52 -339t191 -89z" glyph-name="agrave.aalt" horiz-adv-x="1169"/><glyph d="M549 1587q-29 0 -90 -4l-10 119q90 14 159 14q115 0 156 -34.5t41 -116.5q0 -68 -66 -123l-65 -56q-39 -33 -39 -92h-127q0 68 11 99.5t44 58.5l39 31q35 27 35 55.5t-19.5 38.5t-68.5 10zM797 1126h204v-1126l-163 -14l-23 129h-16q-74 -135 -273 -135 q-229 0 -321 149.5t-92 423.5q0 324 108.5 459t319.5 135q176 0 243 -103h13v82zM567 133q119 0 174.5 59.5t55.5 215.5v311q0 158 -55.5 216t-172.5 58q-141 0 -193 -89t-52 -343q0 -250 52 -339t191 -89z" glyph-name="uni1EA3.aalt" horiz-adv-x="1169"/><glyph d="M399 1323v-31h-170v31q0 154 75 232.5t269 78.5q168 0 255 -67.5t87 -243.5v-31h-170v31q0 92 -44 128t-128 36q-94 0 -134 -41t-40 -123zM797 1126h204v-1126l-163 -14l-23 129h-16q-74 -135 -273 -135q-229 0 -321 149.5t-92 423.5q0 324 108.5 459t319.5 135 q176 0 243 -103h13v82zM567 133q119 0 174.5 59.5t55.5 215.5v311q0 158 -55.5 216t-172.5 58q-141 0 -193 -89t-52 -343q0 -250 52 -339t191 -89z" glyph-name="uni0203.aalt" horiz-adv-x="1169"/><glyph d="M881 1524v-150h-619v150h619zM797 1126h204v-1126l-163 -14l-23 129h-16q-74 -135 -273 -135q-229 0 -321 149.5t-92 423.5q0 324 108.5 459t319.5 135q176 0 243 -103h13v82zM567 133q119 0 174.5 59.5t55.5 215.5v311q0 158 -55.5 216t-172.5 58q-141 0 -193 -89 t-52 -343q0 -250 52 -339t191 -89z" glyph-name="amacron.aalt" horiz-adv-x="1169"/><glyph d="M1100 -315l22 -123q-25 -2 -49 -2q-145 0 -231 59t-86 186q0 100 82 187l-23 123h-16q-74 -135 -273 -135q-229 0 -321 149.5t-92 423.5q0 324 108.5 459t319.5 135q176 0 243 -103h13v82h204v-1126h-8q-86 -82 -86 -164q0 -63 46.5 -107t146.5 -44zM567 133 q119 0 174.5 59.5t55.5 215.5v311q0 158 -55.5 216t-172.5 58q-141 0 -193 -89t-52 -343q0 -250 52 -339t191 -89z" glyph-name="aogonek.aalt" horiz-adv-x="1169"/><glyph d="M571 1253q-145 0 -201.5 59.5t-56.5 176.5q0 131 65.5 182t192.5 51q143 0 199.5 -59t56.5 -174q0 -133 -65.5 -184.5t-190.5 -51.5zM571 1610q-63 0 -92.5 -25.5t-29.5 -95.5q0 -63 26.5 -93t95.5 -30q61 0 91 26.5t30 96.5q0 61 -25.5 91t-95.5 30zM797 1126h204v-1126 l-163 -14l-23 129h-16q-74 -135 -273 -135q-229 0 -321 149.5t-92 423.5q0 324 108.5 459t319.5 135q176 0 243 -103h13v82zM567 133q119 0 174.5 59.5t55.5 215.5v311q0 158 -55.5 216t-172.5 58q-141 0 -193 -89t-52 -343q0 -250 52 -339t191 -89z" glyph-name="aring.aalt" horiz-adv-x="1169"/><glyph d="M907 2202l-256 -408h-172l211 408h217zM571 1253q-145 0 -201.5 59.5t-56.5 176.5q0 131 65.5 182t192.5 51q143 0 199.5 -59t56.5 -174q0 -133 -65.5 -184.5t-190.5 -51.5zM571 1610q-63 0 -92.5 -25.5t-29.5 -95.5q0 -63 26.5 -93t95.5 -30q61 0 91 26.5t30 96.5 q0 61 -25.5 91t-95.5 30zM797 1126h204v-1126l-163 -14l-23 129h-16q-74 -135 -273 -135q-229 0 -321 149.5t-92 423.5q0 324 108.5 459t319.5 135q176 0 243 -103h13v82zM567 133q119 0 174.5 59.5t55.5 215.5v311q0 158 -55.5 216t-172.5 58q-141 0 -193 -89t-52 -343 q0 -250 52 -339t191 -89z" glyph-name="aringacute.aalt" horiz-adv-x="1169"/><glyph d="M432 1442q-66 0 -78 -119h-127q0 123 57.5 203t143.5 80q59 0 125 -47l111 -82q25 -18 49 -19q68 0 80 119h127q0 -121 -57.5 -201t-143.5 -80q-61 0 -127 47l-109 80q-26 19 -51 19zM797 1126h204v-1126l-163 -14l-23 129h-16q-74 -135 -273 -135q-229 0 -321 149.5 t-92 423.5q0 324 108.5 459t319.5 135q176 0 243 -103h13v82zM567 133q119 0 174.5 59.5t55.5 215.5v311q0 158 -55.5 216t-172.5 58q-141 0 -193 -89t-52 -343q0 -250 52 -339t191 -89z" glyph-name="atilde.aalt" horiz-adv-x="1169"/><glyph d="M848 1141l164 -15v-1071q0 -242 -108.5 -343t-311.5 -101q-156 0 -440 61l26 156q285 -63 395 -64q131 0 182.5 68t51.5 199v129h-12q-68 -102 -248 -103q-246 0 -340 131t-94 385q0 274 94 424t325 150q203 0 277 -135h16zM575 211q117 0 174.5 58.5t57.5 215.5v234 q0 156 -56.5 215t-177.5 59q-143 0 -196 -89t-53 -339q0 -207 55 -280.5t196 -73.5z" glyph-name="g.aalt" horiz-adv-x="1179"/><glyph d="M930 1704l-256 -408h-172l211 408h217zM848 1141l164 -15v-1071q0 -242 -108.5 -343t-311.5 -101q-156 0 -440 61l26 156q285 -63 395 -64q131 0 182.5 68t51.5 199v129h-12q-68 -102 -248 -103q-246 0 -340 131t-94 385q0 274 94 424t325 150q203 0 277 -135h16z M575 211q117 0 174.5 58.5t57.5 215.5v234q0 156 -56.5 215t-177.5 59q-143 0 -196 -89t-53 -339q0 -207 55 -280.5t196 -73.5z" glyph-name="uni01F5.aalt" horiz-adv-x="1179"/><glyph d="M592 1292q-195 0 -269.5 79t-74.5 233v30h170v-30q0 -82 40 -122t134 -40q84 0 128 35.5t44 126.5v30h170v-30q0 -174 -87 -243t-255 -69zM848 1141l164 -15v-1071q0 -242 -108.5 -343t-311.5 -101q-156 0 -440 61l26 156q285 -63 395 -64q131 0 182.5 68t51.5 199v129 h-12q-68 -102 -248 -103q-246 0 -340 131t-94 385q0 274 94 424t325 150q203 0 277 -135h16zM575 211q117 0 174.5 58.5t57.5 215.5v234q0 156 -56.5 215t-177.5 59q-143 0 -196 -89t-53 -339q0 -207 55 -280.5t196 -73.5z" glyph-name="gbreve.aalt" horiz-adv-x="1179"/><glyph d="M696 1288h-217l-264 408h172l201 -264l203 264h172zM848 1141l164 -15v-1071q0 -242 -108.5 -343t-311.5 -101q-156 0 -440 61l26 156q285 -63 395 -64q131 0 182.5 68t51.5 199v129h-12q-68 -102 -248 -103q-246 0 -340 131t-94 385q0 274 94 424t325 150 q203 0 277 -135h16zM575 211q117 0 174.5 58.5t57.5 215.5v234q0 156 -56.5 215t-177.5 59q-143 0 -196 -89t-53 -339q0 -207 55 -280.5t196 -73.5z" glyph-name="gcaron.aalt" horiz-adv-x="1179"/><glyph d="M588 1552l-201 -264h-172l264 408h217l267 -408h-172zM848 1141l164 -15v-1071q0 -242 -108.5 -343t-311.5 -101q-156 0 -440 61l26 156q285 -63 395 -64q131 0 182.5 68t51.5 199v129h-12q-68 -102 -248 -103q-246 0 -340 131t-94 385q0 274 94 424t325 150 q203 0 277 -135h16zM575 211q117 0 174.5 58.5t57.5 215.5v234q0 156 -56.5 215t-177.5 59q-143 0 -196 -89t-53 -339q0 -207 55 -280.5t196 -73.5z" glyph-name="gcircumflex.aalt" horiz-adv-x="1179"/><glyph d="M705 1567v-230h-230v230l76 280h129l-76 -280h101zM848 1141l164 -15v-1071q0 -242 -108.5 -343t-311.5 -101q-156 0 -440 61l26 156q285 -63 395 -64q131 0 182.5 68t51.5 199v129h-12q-68 -102 -248 -103q-246 0 -340 131t-94 385q0 274 94 424t325 150q203 0 277 -135 h16zM575 211q117 0 174.5 58.5t57.5 215.5v234q0 156 -56.5 215t-177.5 59q-143 0 -196 -89t-53 -339q0 -207 55 -280.5t196 -73.5z" glyph-name="gcommaaccent.aalt" horiz-adv-x="1179"/><glyph d="M707 1569v-232h-232v232h232zM848 1141l164 -15v-1071q0 -242 -108.5 -343t-311.5 -101q-156 0 -440 61l26 156q285 -63 395 -64q131 0 182.5 68t51.5 199v129h-12q-68 -102 -248 -103q-246 0 -340 131t-94 385q0 274 94 424t325 150q203 0 277 -135h16zM575 211 q117 0 174.5 58.5t57.5 215.5v234q0 156 -56.5 215t-177.5 59q-143 0 -196 -89t-53 -339q0 -207 55 -280.5t196 -73.5z" glyph-name="gdotaccent.aalt" horiz-adv-x="1179"/><glyph d="M154 1569h231v-232h-231v232zM373 1126v-1126h-205v1126h205z" glyph-name="i.locl" horiz-adv-x="538"/><glyph d="M156 1569h231v-232h-231v232zM373 1126v-1126h-205v1126h205z" glyph-name="glyph627" horiz-adv-x="538"/><glyph d="M352 -381q-168 0 -231.5 109.5t-63.5 341.5q0 258 72 355t223 97q166 0 229.5 -110.5t63.5 -341.5q0 -256 -71.5 -353.5t-221.5 -97.5zM352 -256q76 0 101.5 70.5t25.5 255.5q0 193 -27.5 260t-99.5 67q-78 0 -103.5 -70.5t-25.5 -256.5q0 -193 28.5 -259.5t100.5 -66.5z " glyph-name="zero.sinf" horiz-adv-x="702"/><glyph d="M346 -238h150v-131h-473v131h161v609l-151 -43l-23 131l174 49h162v-746z" glyph-name="one.sinf" horiz-adv-x="526"/><glyph d="M209 -215v-23h356v-131h-528v138q0 68 24.5 113.5t83.5 99.5l205 182q49 43 49 104q0 72 -35.5 97.5t-119.5 25.5q-76 0 -168 -14l-10 125q121 20 204 20q176 0 235.5 -60.5t59.5 -174.5q0 -111 -92 -197l-221 -199q-43 -38 -43 -106z" glyph-name="two.sinf" horiz-adv-x="612"/><glyph d="M455 90q96 -43 96 -192q0 -162 -72.5 -220.5t-238.5 -58.5q-143 0 -209 33l12 133q66 -33 199 -33q84 0 113.5 34t29.5 116q0 74 -30.5 101.5t-98.5 27.5h-135v114h123q68 0 94.5 26t26.5 87q0 86 -27 112.5t-102 26.5q-117 0 -179 -28l-10 125q70 29 197 28 q170 0 228 -54t58 -179q0 -137 -75 -187v-12z" glyph-name="three.sinf" horiz-adv-x="604"/><glyph d="M649 -47v-131h-94v-191h-152v191h-362v164l221 522h150l-217 -543v-12h208v266h152v-266h94z" glyph-name="four.sinf" horiz-adv-x="679"/><glyph d="M240 160q180 0 245.5 -57.5t65.5 -200.5q0 -162 -75 -222.5t-228 -60.5q-135 0 -203 29l4 137q63 -29 191 -29q82 0 113.5 33t31.5 111q0 82 -34 111.5t-115 29.5h-168l16 467h430v-131h-272l-4 -217h2z" glyph-name="five.sinf" horiz-adv-x="600"/><glyph d="M399 188q125 0 167 -71.5t42 -206.5q0 -166 -68.5 -228.5t-205.5 -62.5q-160 0 -221.5 70.5t-61.5 214.5q0 193 111 393q61 111 151 211h191q-111 -121 -187 -246q-41 -68 -53 -96h12q47 22 123 22zM330 -254q72 0 97.5 39t25.5 137q0 90 -29 124t-92 34q-72 0 -98.5 -37 t-26.5 -129q0 -96 27.5 -132t95.5 -36z" glyph-name="six.sinf" horiz-adv-x="653"/><glyph d="M23 508h493v-154l-295 -723h-164l299 729v17h-333v131z" glyph-name="seven.sinf" horiz-adv-x="546"/><glyph d="M516 86q121 -47 121 -207q0 -147 -75 -203.5t-216 -56.5q-166 0 -230.5 66.5t-64.5 193.5q0 160 123 207v8q-100 43 -100 191q0 133 68.5 185t203.5 52q152 0 210 -61.5t58 -181.5q0 -141 -98 -187v-6zM344 401q-74 0 -100.5 -29.5t-26.5 -101.5q0 -76 31 -105.5 t98 -29.5q70 0 98.5 32t28.5 103q0 76 -29.5 103.5t-99.5 27.5zM346 -256q74 0 101.5 31.5t27.5 107.5q0 84 -30.5 116t-98.5 32q-74 0 -102.5 -34t-28.5 -114t30.5 -109.5t100.5 -29.5z" glyph-name="eight.sinf" horiz-adv-x="690"/><glyph d="M319 522q160 0 221.5 -71.5t61.5 -212.5q0 -205 -108 -396q-66 -113 -154 -211h-190q109 117 188 246q35 61 53 98h-14q-47 -23 -123 -22q-125 0 -167 71.5t-42 206.5q0 164 68.5 227.5t205.5 63.5zM201 219q0 -92 27.5 -125t93.5 -33q72 0 99.5 37t27.5 129 q0 96 -29 131t-96 35q-72 0 -97.5 -39t-25.5 -135z" glyph-name="nine.sinf" horiz-adv-x="653"/><glyph d="M625 -20q-274 0 -378 179t-104 556q0 217 31 363.5t95.5 227t149.5 114.5t206 34q141 0 236 -48t147.5 -147.5t74 -228.5t21.5 -315q0 -217 -31 -362.5t-95.5 -226.5t-148 -113.5t-204.5 -32.5zM625 160q96 0 149 46t80 166t27 343q0 326 -55.5 442.5t-200.5 116.5 q-96 0 -150.5 -47t-81 -168t-26.5 -344q0 -324 56.5 -439.5t201.5 -115.5z" glyph-name="zero.case" horiz-adv-x="1247"/><glyph d="M555 174h279v-174h-795v174h299v1096l-289 -80l-26 158l315 86h217v-1260z" glyph-name="one.case" horiz-adv-x="894"/><glyph d="M307 176v-2h623v-174h-846v178q0 158 54.5 258.5t191.5 214.5l307 258q70 59 70 174q0 106 -54.5 148.5t-175.5 42.5q-117 0 -307 -31l-14 182q188 29 317 29q457 0 457 -369q0 -188 -144 -307l-325 -274q-80 -68 -117 -137.5t-37 -190.5z" glyph-name="two.case" horiz-adv-x="1036"/><glyph d="M723 739q111 -41 155 -125t44 -217q0 -238 -123 -327.5t-383 -89.5q-231 0 -346 49l16 180q106 -49 330 -49q176 0 229 50t53 206q0 150 -51 196.5t-223 46.5h-170v177h170q150 0 194 38.5t44 169.5q0 143 -47.5 186.5t-202.5 43.5q-209 0 -303 -43l-17 178q98 45 314 45 q260 0 369.5 -89t109.5 -290q0 -246 -162 -319v-17z" glyph-name="three.case" horiz-adv-x="1058"/><glyph d="M1081 532v-174h-196v-358h-217v358h-600v240l440 836h219l-442 -840v-62h383v488h217v-488h196z" glyph-name="four.case" horiz-adv-x="1130"/><glyph d="M485 885q141 0 235.5 -29t146 -87t71.5 -133t20 -183q0 -270 -122.5 -371.5t-386.5 -101.5q-227 0 -343 49l17 180q106 -49 326 -49q180 0 233 54t53 218q0 172 -51 225.5t-223 53.5h-287l25 723h710v-174h-499l-13 -375h88z" glyph-name="five.case" horiz-adv-x="1073"/><glyph d="M635 874q197 0 295 -97t98 -341q0 -260 -111.5 -358t-345.5 -98q-270 0 -371.5 108.5t-101.5 339.5q0 283 189 608q123 213 293 398h235q-213 -229 -342 -449q-51 -86 -82 -154h12q87 43 232 43zM565 160q147 0 193.5 55t46.5 225q0 154 -43 204t-192.5 50t-198.5 -53 t-49 -213q0 -162 49 -215t194 -53z" glyph-name="six.case" horiz-adv-x="1112"/><glyph d="M45 1434h813v-222l-541 -1212h-215l539 1202v58h-596v174z" glyph-name="seven.case" horiz-adv-x="909"/><glyph d="M930 741q113 -41 158 -123.5t45 -211.5q0 -242 -121 -334t-375 -92q-285 0 -392.5 104t-107.5 322q0 262 203 335v15q-164 76 -164 311q0 223 111.5 305t349.5 82q260 0 359.5 -98.5t99.5 -300.5q0 -227 -166 -301v-13zM637 1274q-143 0 -190.5 -44t-47.5 -173 q0 -143 41 -183t197 -40q152 0 193.5 40.5t41.5 182.5q0 129 -47 173t-188 44zM637 160q164 0 218 49t54 194q0 160 -49 208t-223 48q-176 0 -226.5 -48t-50.5 -208q0 -145 55.5 -194t221.5 -49z" glyph-name="eight.case" horiz-adv-x="1269"/><glyph d="M539 1454q270 0 371.5 -109.5t101.5 -340.5q0 -283 -189 -609q-123 -213 -295 -395h-233q213 229 342 446q47 78 80 152h-15q-88 -41 -227 -41q-197 0 -295 97.5t-98 340.5q0 260 112 359.5t345 99.5zM305 991q0 -154 44 -204t192 -50q150 0 198.5 53.5t48.5 213.5 q0 162 -49 216t-194.5 54t-192.5 -56.5t-47 -226.5z" glyph-name="nine.case" horiz-adv-x="1110"/><glyph d="M625 1452q274 0 376.5 -180t102.5 -557q0 -217 -31 -362.5t-95.5 -226.5t-148.5 -113.5t-204 -32.5q-274 0 -378 179t-104 556q0 217 31 362.5t95.5 227t149.5 114.5t206 33zM625 1272q-96 0 -150.5 -46t-81 -167t-26.5 -344q0 -246 30 -361l344 895q-44 23 -116 23z M625 160q96 0 149 46t80 166t27 343q0 217 -23 327l-334 -866q40 -16 101 -16z" glyph-name="zero.case.zero" horiz-adv-x="1247"/><glyph d="M625 -20q-274 0 -378 179t-104 556q0 217 31 362.5t95.5 227t149.5 114.5t206 33q274 0 376.5 -180t102.5 -557q0 -217 -31 -362.5t-95.5 -226.5t-148 -113.5t-204.5 -32.5zM625 160q96 0 149 46t80 166t27 343q0 326 -55.5 441.5t-200.5 115.5q-96 0 -150.5 -46 t-81 -167t-26.5 -344q0 -324 56.5 -439.5t201.5 -115.5zM504 588v256h239v-256h-239z" glyph-name="zero.case.ss03" horiz-adv-x="1247"/><glyph d="M625 -20q-274 0 -378 141t-104 442q0 172 31 287t95.5 179.5t149.5 91t206 26.5q274 0 376.5 -142.5t102.5 -441.5q0 -172 -31 -287.5t-95.5 -180t-148 -90t-204.5 -25.5zM625 152q143 0 199.5 83.5t56.5 327.5q0 240 -55.5 326t-200.5 86q-143 0 -200.5 -85t-57.5 -327 q0 -240 56.5 -325.5t201.5 -85.5z" glyph-name="zero.oldstyle" horiz-adv-x="1247"/><glyph d="M555 170h279v-170h-795v170h299v791l-289 -62l-26 160l315 67h217v-956z" glyph-name="one.oldstyle" horiz-adv-x="894"/><glyph d="M307 172v-2h623v-170h-846v162q0 119 53 196.5t191 165.5l309 197q70 45 70 121q0 74 -54.5 102.5t-175.5 28.5q-109 0 -307 -23l-14 172q162 25 317 25q457 0 457 -295q0 -152 -146 -246l-325 -209q-82 -51 -117 -97t-35 -128z" glyph-name="two.oldstyle" horiz-adv-x="1036"/><glyph d="M723 453q111 -39 155 -120t44 -212q0 -233 -123 -320.5t-383 -87.5q-231 0 -346 49l16 179q109 -47 330 -47q176 0 229 47t53 198q0 143 -51 188.5t-223 45.5h-170v174h170q150 0 192.5 38t42.5 165q0 135 -47 176t-200 41q-209 0 -303 -43l-17 178q98 45 314 45 q260 0 368.5 -87t108.5 -282q0 -238 -160 -311v-14z" glyph-name="three.oldstyle" horiz-adv-x="1058"/><glyph d="M1081 254v-174h-196v-346h-217v346h-600v237l440 809h219l-442 -815v-57h383v473h217v-473h196z" glyph-name="four.oldstyle" horiz-adv-x="1130"/><glyph d="M485 598q272 0 372.5 -104.5t100.5 -317.5q0 -264 -122.5 -363.5t-386.5 -99.5q-227 0 -343 49l17 179q109 -47 326 -47q182 0 234 51t52 211q0 166 -51 217t-223 51h-287l25 702h710v-174h-499l-13 -354h88z" glyph-name="five.oldstyle" horiz-adv-x="1073"/><glyph d="M635 850q197 0 295 -93t98 -333q0 -252 -111.5 -348t-345.5 -96q-270 0 -371.5 105t-101.5 331q0 272 189 592q117 199 293 385h235q-207 -213 -342 -435q-47 -76 -82 -149h15q88 41 229 41zM565 160q147 0 193.5 52t46.5 216q0 147 -43 194.5t-192.5 47.5t-198.5 -50.5 t-49 -204t49 -204.5t194 -51z" glyph-name="six.oldstyle" horiz-adv-x="1112"/><glyph d="M45 1126h813v-219l-541 -1173h-215l539 1165v53h-596v174z" glyph-name="seven.oldstyle" horiz-adv-x="909"/><glyph d="M930 719q113 -39 158 -120t45 -206q0 -236 -121 -324.5t-375 -88.5q-285 0 -392.5 100t-107.5 313q0 254 203 328v14q-164 72 -164 301q0 219 111.5 298t349.5 79q262 0 360.5 -95t98.5 -292q0 -219 -166 -293v-14zM637 1233q-143 0 -190.5 -41t-47.5 -166 q0 -137 41 -175t197 -38q152 0 193.5 38t41.5 175q0 125 -47 166t-188 41zM637 160q164 0 218 47t54 186q0 156 -49 201t-223 45q-176 0 -226.5 -45t-50.5 -201q0 -139 55.5 -186t221.5 -47z" glyph-name="eight.oldstyle" horiz-adv-x="1269"/><glyph d="M539 1147q270 0 371.5 -105.5t101.5 -330.5q0 -272 -189 -592q-119 -203 -295 -385h-233q207 213 342 434q49 78 80 147h-19q-80 -39 -223 -39q-197 0 -295 93.5t-98 332.5q0 252 112 348.5t345 96.5zM305 698q0 -147 43 -194t192.5 -47t198.5 50t49 203.5t-49 205 t-194 51.5q-147 0 -193.5 -52.5t-46.5 -216.5z" glyph-name="nine.oldstyle" horiz-adv-x="1110"/><glyph d="M625 1147q274 0 376.5 -142.5t102.5 -441.5q0 -172 -31 -287.5t-95.5 -180t-148.5 -90t-204 -25.5q-274 0 -378 141t-104 442q0 172 31 287t95.5 179.5t149.5 91t206 26.5zM625 975q-143 0 -200.5 -85t-57.5 -327q0 -201 36 -289l275 699q-16 2 -53 2zM625 152 q143 0 199.5 83.5t56.5 327.5q0 231 -52 318l-284 -723q37 -6 80 -6z" glyph-name="zero.oldstyle.zero" horiz-adv-x="1247"/><glyph d="M625 -20q-274 0 -378 141t-104 442q0 172 31 287t95.5 179.5t149.5 91t206 26.5q274 0 376.5 -142.5t102.5 -441.5q0 -172 -31 -287.5t-95.5 -180t-148 -90t-204.5 -25.5zM625 152q143 0 199.5 83.5t56.5 327.5q0 240 -55.5 326t-200.5 86q-143 0 -200.5 -85t-57.5 -327 q0 -240 56.5 -325.5t201.5 -85.5zM504 436v256h239v-256h-239z" glyph-name="zero.oldstyle.ss03" horiz-adv-x="1247"/></font>
</defs>
</svg>
