<?xml version="1.0" standalone="no"?>
<!DOCTYPE svg PUBLIC "-//W3C//DTD SVG 1.1//EN" "http://www.w3.org/Graphics/SVG/1.1/DTD/svg11.dtd">
<svg xmlns="http://www.w3.org/2000/svg"><metadata>This SVG WebFont was generated by YouWorkForThem.
Copyright Â© 2017 by Jonathan Hill. All rights reserved.</metadata><defs><font horiz-adv-x="0" id="ywftsvg"><font-face ascent="1604" bbox="-940 -492 2896 2458" cap-height="1434" descent="-444" font-family="" font-stretch="normal" font-weight="300" panose-1="0 0 4 0 0 0 0 0 0 0" underline-position="0" underline-thickness="0" unicode-range="U+0020-277E" units-per-em="2048" x-height="1126"/><missing-glyph d="M205 61v1229h819v-1229h-819zM348 205h533v942h-533v-942z" horiz-adv-x="1228"/><glyph d="M1126 1458q-94 0 -136 -50t-68 -196l-15 -86h256l-16 -88h-256l-182 -1038h-103l182 1038h-395l-182 -1038h-102l182 1038h-205l16 88h205l17 95q35 199 99 263t226 64q68 0 115 -18l-16 -86q-49 14 -119 14q-94 0 -136 -50t-69 -196l-14 -86h395l16 95q35 199 99.5 263 t226.5 64q68 0 115 -18l-15 -86q-51 14 -121 14z" glyph-name="f_f.liga" horiz-adv-x="1079" unicode="ff"/><glyph d="M1407 1126l-199 -1126h-102l182 1038h-397l-182 -1038h-103l182 1038h-395l-182 -1038h-102l182 1038h-205l16 88h205l17 95q35 199 99 263t226 64q68 0 115 -18l-16 -86q-49 14 -119 14q-94 0 -136 -50t-69 -196l-14 -86h395l16 95q35 199 99.5 263t226.5 64 q68 0 115 -18l-15 -86q-51 14 -121 14q-94 0 -136 -50t-68 -196l-15 -86h500zM1360 1518h129l-23 -129h-129z" glyph-name="f_f_i.liga" horiz-adv-x="1478" unicode="ffi"/><glyph d="M1245 162q0 -53 20.5 -72.5t69.5 -19.5q80 0 131 12v-92q-49 -10 -116 -10q-111 0 -159 43t-48 133q0 49 12 110l135 772h-399l-182 -1038h-103l182 1038h-395l-182 -1038h-102l182 1038h-205l16 88h205l17 95q35 199 99 263t226 64q68 0 115 -18l-16 -86q-49 14 -119 14 q-94 0 -136 -50t-69 -196l-14 -86h395l16 95q35 199 99.5 263t226.5 64q68 0 115 -18l-15 -86q-51 14 -121 14q-94 0 -136 -50t-68 -196l-15 -86h400l71 410h103l-226 -1278q-10 -65 -10 -96z" glyph-name="f_f_l.liga" horiz-adv-x="1613" unicode="ffl"/><glyph d="M907 1126l-198 -1126h-103l182 1038h-395l-182 -1038h-102l182 1038h-205l16 88h205l17 95q35 199 99 263t226 64q68 0 115 -18l-16 -86q-49 14 -119 14q-94 0 -136 -50t-69 -196l-14 -86h497zM860 1518h129l-22 -129h-129z" glyph-name="f_i.liga" horiz-adv-x="966" unicode="fi"/><glyph d="M748 160q0 -51 20 -70.5t70 -19.5q80 0 129 12v-92q-45 -10 -115 -10q-111 0 -159 41.5t-48 132.5q0 47 12 112l136 772h-400l-182 -1038h-102l182 1038h-205l16 88h205l17 95q35 199 99 263t226 64q68 0 115 -18l-16 -86q-49 14 -119 14q-94 0 -136 -50t-69 -196 l-14 -86h399l72 410h102l-225 -1278q-10 -65 -10 -98z" glyph-name="f_l.liga" horiz-adv-x="1114" unicode="fl"/><glyph d="M205 61v1229h819v-1229h-819zM348 205h533v942h-533v-942z" glyph-name=".notdef" horiz-adv-x="1228"/><glyph glyph-name="glyph1"/><glyph glyph-name="glyph2" horiz-adv-x="681"/><glyph glyph-name="space" horiz-adv-x="450" unicode=" "/><glyph d="M242 442l145 992h115l-203 -992h-57zM127 0l23 129h129l-23 -129h-129z" glyph-name="exclam" horiz-adv-x="579" unicode="!"/><glyph d="M514 1536l-119 -543h-61l69 543h111zM784 1536l-118 -543h-62l70 543h110z" glyph-name="quotedbl" horiz-adv-x="843" unicode="&quot;"/><glyph d="M1059 977h-156l-164 -469h158l-29 -80h-155l-150 -428h-90l148 428h-306l-149 -428h-90l147 428h-166l27 80h168l162 469h-168l28 80h166l131 377h93l-132 -377h306l131 377h92l-131 -377h157zM649 508l162 469h-305l-164 -469h307z" glyph-name="numbersign" horiz-adv-x="1075" unicode="#"/><glyph d="M666 1360q-350 0 -351 -279q0 -86 60 -145l305 -297q59 -57 83.5 -112.5t24.5 -133.5q0 -164 -94 -273.5t-258 -133.5l-37 -207h-106l35 201q-164 2 -316 49l19 96q166 -51 303 -51q164 0 254 83t90 228q0 96 -76 172l-311 307q-86 86 -86 207q0 166 99 264.5t282 114.5 l37 205h106l-35 -201q119 -4 246 -27l-16 -92q-156 25 -258 25z" glyph-name="dollar" horiz-adv-x="931" unicode="$"/><glyph d="M399 610q-113 0 -162 57.5t-49 176.5q0 117 37 272.5t92 237.5q68 100 209 100q113 0 162 -57.5t49 -176t-35.5 -273t-93.5 -236.5q-70 -101 -209 -101zM199 -20l1130 1474h103l-1131 -1474h-102zM395 702q88 0 133 64q45 66 77 214t32 249q0 76 -25.5 105.5t-81.5 29.5 q-88 0 -131 -64q-45 -66 -77.5 -216t-32.5 -246q0 -76 25.5 -106t80.5 -30zM1112 -12q-113 0 -162 57t-49 176q0 117 37 271.5t92 238.5q68 100 209 100q113 0 162 -57t49 -176t-36 -273.5t-93 -236.5q-70 -100 -209 -100zM1108 80q88 0 133 63q47 66 78 213.5t31 249.5 q0 76 -26 105.5t-81 29.5q-86 0 -131 -63.5t-78 -214t-33 -248.5q0 -76 26 -105.5t81 -29.5z" glyph-name="percent" horiz-adv-x="1581" unicode="%"/><glyph d="M1311 879l-344 -541l260 -338h-144l-180 240l-45 -72q-70 -111 -156 -149.5t-225 -38.5q-203 0 -287 64.5t-84 203.5q0 127 39 225q41 96 117 154l225 166l-69 92q-63 82 -64 202q0 145 68 242q88 125 323 125q168 0 238 -51t70 -152q0 -190 -158 -313l-244 -190 l252 -326l295 457h113zM514 1280q-53 -76 -53 -207q0 -76 41 -131l100 -131l205 170q133 111 133 250q0 74 -45 101.5t-145 27.5q-177 0 -236 -80zM772 219l68 105l-303 403l-209 -176q-53 -47 -78 -113q-33 -88 -33 -186q0 -100 56.5 -139t177.5 -39q133 0 203.5 35.5 t117.5 109.5z" glyph-name="ampersand" horiz-adv-x="1368" unicode="&amp;"/><glyph d="M514 1536l-119 -543h-61l69 543h111z" glyph-name="quotesingle" horiz-adv-x="573" unicode="'"/><glyph d="M92 231q0 176 48 429t112 427q86 231 207 351.5t286 169.5l-6 -72q-141 -49 -235 -169t-160 -316q-55 -168 -101 -438.5t-46 -434.5q0 -195 55 -295t164 -145l-6 -62q-318 106 -318 555z" glyph-name="parenleft" horiz-adv-x="608" unicode="("/><glyph d="M545 1053q0 -176 -48 -429t-112 -427q-86 -231 -207 -351t-287 -170l7 72q141 49 235 169t160 316q55 168 101 438.5t46 434.5q0 195 -55 295t-164 145l6 62q318 -106 318 -555z" glyph-name="parenright" horiz-adv-x="608" unicode=")"/><glyph d="M1073 1186l-385 -103l186 -292l-100 -66l-153 317l-263 -317l-79 66l286 294l-346 101l51 104l332 -133l49 379h111l-84 -379l377 133z" glyph-name="asterisk" horiz-adv-x="1073" unicode="*"/><glyph d="M1042 621l-16 -93h-371l-65 -370h-92l65 370h-375l17 93h375l65 372h92l-65 -372h370z" glyph-name="plus" horiz-adv-x="1228" unicode="+"/><glyph d="M172 154h143l-26 -154l-129 -293h-78l125 293h-62z" glyph-name="comma" horiz-adv-x="630" unicode=","/><glyph d="M197 680h479l-17 -92h-479z" glyph-name="hyphen" horiz-adv-x="827" unicode="-"/><glyph d="M145 0l27 154h143l-26 -154h-144z" glyph-name="period" horiz-adv-x="630" unicode="."/><glyph d="M-104 -102l835 1638h103l-836 -1638h-102z" glyph-name="slash" horiz-adv-x="671" unicode="/"/><glyph d="M502 -20q-190 0 -273.5 99t-83.5 300t63.5 466t164.5 402q123 166 356 166q190 0 272 -98t82 -297q0 -201 -62.5 -466t-160.5 -402q-120 -170 -358 -170zM496 74q188 0 276 123q88 119 146.5 388t58.5 455q0 158 -57.5 218.5t-182.5 60.5q-186 0 -278 -123 q-88 -117 -147.5 -386t-59.5 -456q0 -158 58.5 -219t185.5 -61z" glyph-name="zero" horiz-adv-x="1181" unicode="0"/><glyph d="M356 92h279l-17 -92h-686l17 92h301l215 1215l-305 -78v82l319 82h107z" glyph-name="one" horiz-adv-x="788" unicode="1"/><glyph d="M309 401q-141 -102 -170 -264l-8 -45h686l-16 -92h-799l27 145q23 125 80 205t157 150l465 325q154 109 154 297q0 113 -68.5 155t-212.5 42q-139 0 -319 -29l2 94q188 29 317 29q213 0 302 -71.5t89 -213.5q0 -229 -196 -372z" glyph-name="two" horiz-adv-x="1021" unicode="2"/><glyph d="M715 713q133 -57 133 -226q0 -84 -27.5 -184t-72.5 -166q-59 -88 -164 -122.5t-271 -34.5q-203 0 -321 51l18 90q106 -47 297 -47q264 0 348 121q37 53 61.5 145t24.5 162q0 102 -65.5 139t-218.5 37h-197l16 92h191q213 0 278 98q33 49 52.5 132t19.5 149 q0 102 -57.5 136t-196.5 34q-182 0 -323 -47l2 98q121 43 307 43q217 0 300 -59.5t83 -186.5q0 -80 -23.5 -175t-66.5 -156q-39 -63 -123 -103z" glyph-name="three" horiz-adv-x="1017" unicode="3"/><glyph d="M989 479l-16 -92h-211l-68 -387h-106l67 387h-614l29 164l608 842h119l-625 -869l-8 -45h508l88 500h106l-88 -500h211z" glyph-name="four" horiz-adv-x="1064" unicode="4"/><glyph d="M911 1300h-497l-103 -477h88q233 0 328.5 -67.5t95.5 -214.5q0 -94 -29.5 -208t-78.5 -190q-59 -90 -160.5 -126.5t-267.5 -36.5q-172 0 -285 49l18 90q100 -45 248 -45t231 29.5t126 93.5q39 57 62.5 153t23.5 174q0 119 -68 163t-229 44h-234l139 662h609z" glyph-name="five" horiz-adv-x="968" unicode="5"/><glyph d="M637 850q172 0 242.5 -71.5t70.5 -213.5q0 -111 -33.5 -235.5t-95.5 -204.5q-111 -145 -387 -145q-188 0 -267 76.5t-79 224.5q0 340 305 733q145 190 361 379h143q-156 -139 -242 -229.5t-176 -209.5q-70 -90 -108 -155h18q101 51 248 51zM743 190q43 63 71 175t28 198 q0 109 -57.5 151t-186.5 42q-219 0 -301 -109q-47 -63 -73.5 -172.5t-26.5 -198.5q0 -117 58 -159.5t189 -42.5q219 -1 299 116z" glyph-name="six" horiz-adv-x="1073" unicode="6"/><glyph d="M199 1393h729l-27 -152l-766 -1241h-117l779 1253l8 47h-623z" glyph-name="seven" horiz-adv-x="841" unicode="7"/><glyph d="M881 715q135 -61 135 -238q0 -119 -48 -238.5t-141 -183.5q-115 -78 -350 -78q-199 0 -285 73t-86 216q0 287 162 408q33 27 90 47l2 14q-102 57 -102 209q0 111 43 224.5t129 172.5q98 70 328 70q182 0 261 -67.5t79 -208.5q0 -98 -33 -202t-102 -161q-37 -29 -80 -47z M485 1264q-61 -45 -93 -135.5t-32 -174.5q0 -109 59.5 -147.5t198.5 -38.5q178 0 252 53q63 45 96 138.5t33 177.5q0 104 -59 142t-199 38q-182 0 -256 -53zM768 129q70 49 103.5 149.5t33.5 194.5q0 119 -63.5 161t-212.5 42q-188 0 -271 -58q-74 -51 -109.5 -148 t-35.5 -200q0 -115 65.5 -156.5t217.5 -41.5q190 0 272 57z" glyph-name="eight" horiz-adv-x="1185" unicode="8"/><glyph d="M686 1413q188 0 267 -76.5t79 -224.5q0 -340 -305 -733q-145 -190 -360 -379h-144q156 139 242 229t176 209q70 90 109 156h-19q-100 -51 -248 -51q-172 0 -242.5 71.5t-70.5 212.5q0 111 34 236t95 205q111 145 387 145zM823 745q47 63 74 173t27 198q0 117 -58.5 160 t-189.5 43q-219 0 -299 -117q-43 -63 -70.5 -175t-27.5 -198q0 -109 57 -150.5t186 -41.5q219 -1 301 108z" glyph-name="nine" horiz-adv-x="1073" unicode="9"/><glyph d="M315 973l27 153h143l-26 -153h-144zM145 0l27 154h143l-26 -154h-144z" glyph-name="colon" horiz-adv-x="630" unicode=":"/><glyph d="M352 1126h144l-27 -153h-143zM145 0l27 154h143l-26 -154l-129 -293h-78l125 293h-62z" glyph-name="semicolon" horiz-adv-x="630" unicode=";"/><glyph d="M1073 885l-749 -291l-5 -31l646 -291l-15 -92l-745 340l20 117l865 342z" glyph-name="less" horiz-adv-x="1228" unicode="&lt;"/><glyph d="M233 707l17 92h813l-16 -92h-814zM172 356l16 93h813l-16 -93h-813z" glyph-name="equal" horiz-adv-x="1228" unicode="="/><glyph d="M285 979l745 -342l-20 -117l-865 -340l15 92l751 293l4 27l-647 293z" glyph-name="greater" horiz-adv-x="1228" unicode=">"/><glyph d="M256 442l10 70q16 106 52 164.5t133 126.5l184 127q145 100 145 260q0 98 -61.5 134t-194.5 36q-96 0 -268 -25l-4 92q178 27 287 27q193 0 272.5 -63.5t79.5 -192.5q0 -201 -184 -328l-222 -151q-78 -53 -110.5 -98.5t-48.5 -122.5l-13 -56h-57zM143 0l23 129h129 l-23 -129h-129z" glyph-name="question" horiz-adv-x="874" unicode="?"/><glyph d="M1022 1454q338 0 482.5 -147.5t144.5 -423.5q0 -184 -48.5 -414.5t-130.5 -347.5q-86 -121 -227 -121q-111 0 -221 78l8 117h-10q-78 -121 -254 -121q-154 0 -219.5 75.5t-65.5 221.5q0 125 38 275.5t102 242.5q104 150 315 149q162 0 205 -100h12l16 100h103l-158 -899 q74 -43 135 -43q80 0 135 78q68 98 111 320.5t43 390.5q0 262 -128 368.5t-378 106.5q-389 0 -557 -240q-106 -152 -170.5 -417t-64.5 -476q0 -270 122.5 -375.5t370.5 -105.5q178 0 309 59l-4 -98q-135 -55 -305 -55q-326 0 -464 145.5t-138 429.5q0 223 69.5 493.5 t184.5 440.5q201 293 637 293zM780 164q129 0 194.5 60.5t88.5 193.5l51 297q6 35 6 69q0 96 -44 130t-132 34q-166 0 -239 -104q-53 -76 -87 -221.5t-34 -253.5q0 -117 47 -161t149 -44z" glyph-name="at" horiz-adv-x="1757" unicode="@"/><glyph d="M897 0l-41 424h-582l-190 -424h-111l664 1434h211l160 -1434h-111zM317 516h531l-82 825h-76z" glyph-name="A" horiz-adv-x="1177" unicode="A"/><glyph d="M842 739q166 -59 166 -239q0 -125 -46.5 -234.5t-123.5 -171.5q-119 -94 -375 -94h-344l252 1434h362q358 0 359 -260q0 -195 -111 -324q-55 -59 -137 -92zM461 1343l-96 -552h186q270 0 352 106q33 45 55.5 122t22.5 148q0 96 -60.5 136t-209.5 40h-250zM786 180 q49 47 80 134t31 182q0 113 -69.5 158.5t-241.5 45.5h-238l-106 -610h229q225 0 315 90z" glyph-name="B" horiz-adv-x="1175" unicode="B"/><glyph d="M600 -20q-231 0 -342 110.5t-111 345.5q0 246 77 490.5t194 371.5q143 156 422 156q129 0 229 -41l-18 -92q-76 39 -209 39q-236 0 -353 -135q-96 -109 -164.5 -337.5t-68.5 -438.5q0 -201 81 -288t269 -87q137 0 240 47l4 -98q-94 -43 -250 -43z" glyph-name="C" horiz-adv-x="1054" unicode="C"/><glyph d="M760 1434q451 0 450 -463q0 -217 -65.5 -438.5t-165.5 -346.5q-150 -186 -459 -186h-401l252 1434h389zM895 248q88 113 147.5 319.5t59.5 395.5q0 205 -84 297t-266 92h-289l-223 -1270h286q242 0 369 166z" glyph-name="D" horiz-adv-x="1300" unicode="D"/><glyph d="M999 1341h-538l-96 -553h507l-16 -92h-508l-106 -604h563l-17 -92h-669l252 1434h645z" glyph-name="E" horiz-adv-x="995" unicode="E"/><glyph d="M979 1341h-518l-105 -593h482l-17 -93h-481l-115 -655h-106l252 1434h624z" glyph-name="F" horiz-adv-x="944" unicode="F"/><glyph d="M514 1251q-109 -102 -181.5 -334.5t-72.5 -467.5q0 -201 68.5 -290t222.5 -89q174 0 260 70.5t115 234.5l55 309h-236l17 92h338l-139 -782l-80 -8l10 137h-8q-117 -143 -332 -143q-399 0 -399 442q0 283 80.5 535.5t207.5 363.5q147 133 414 133q172 0 307 -47l-18 -94 q-141 47 -289 47q-223 0 -340 -109z" glyph-name="G" horiz-adv-x="1210" unicode="G"/><glyph d="M1147 1434h106l-252 -1434h-106l123 696h-670l-123 -696h-106l252 1434h106l-112 -646h669z" glyph-name="H" horiz-adv-x="1316" unicode="H"/><glyph d="M477 1434l-252 -1434h-106l252 1434h106z" glyph-name="I" horiz-adv-x="540" unicode="I"/><glyph d="M74 -20q-94 0 -150 16l19 94q59 -16 135 -16q80 0 126 48t68 173l201 1139h107l-201 -1147q-27 -150 -96.5 -228.5t-208.5 -78.5z" glyph-name="J" horiz-adv-x="636" unicode="J"/><glyph d="M1169 1434l-628 -689l411 -745h-116l-392 696h-96l-123 -696h-106l252 1434h106l-112 -646h88l591 646h125z" glyph-name="K" horiz-adv-x="1089" unicode="K"/><glyph d="M242 92h477l-17 -92h-583l252 1434h106z" glyph-name="L" horiz-adv-x="872" unicode="L"/><glyph d="M1499 1434l-252 -1434h-106l235 1341h-18l-527 -1007h-176l-170 1007h-24l-236 -1341h-106l252 1434h207l167 -1008h23l526 1008h205z" glyph-name="M" horiz-adv-x="1562" unicode="M"/><glyph d="M1163 1434h107l-252 -1434h-203l-326 1341h-28l-236 -1341h-106l252 1434h204l324 -1342h29z" glyph-name="N" horiz-adv-x="1333" unicode="N"/><glyph d="M594 -20q-233 0 -338.5 109.5t-105.5 355t86 506.5t204 376q133 127 387 127q233 0 338 -108.5t105 -350.5q0 -238 -81 -495.5t-194 -378.5q-131 -141 -401 -141zM588 74q250 0 362 151q84 113 146.5 348.5t62.5 434.5q0 190 -74.5 271t-250.5 81q-229 0 -340 -125 q-94 -104 -164 -345t-70 -456q0 -195 75 -277.5t253 -82.5z" glyph-name="O" horiz-adv-x="1363" unicode="O"/><glyph d="M682 1434q201 0 292 -75t91 -239q0 -117 -42 -221t-110 -170q-121 -119 -370 -119h-211l-107 -610h-106l252 1434h311zM831 784q53 53 89 147.5t36 192.5q0 123 -64.5 175.5t-217.5 52.5h-211l-117 -660h205q188 0 280 92z" glyph-name="P" horiz-adv-x="1073" unicode="P"/><glyph d="M827 1454q233 0 338 -108.5t105 -350.5q0 -238 -81 -495.5t-194 -378.5q-123 -133 -364 -141l-4 -29q-12 -66 -13 -109q0 -59 26 -83.5t89 -24.5q49 0 131 22v-94q-82 -18 -139 -18q-113 0 -165 46t-52 148q0 51 12 121l4 23q-195 16 -282.5 126.5t-87.5 335.5 q0 246 86 507t204 376q133 127 387 127zM950 225q84 113 146.5 348.5t62.5 434.5q0 190 -74.5 271t-250.5 81q-229 0 -340 -125q-94 -104 -164 -345t-70 -456q0 -195 75 -277.5t253 -82.5q249 -1 362 151z" glyph-name="Q" horiz-adv-x="1363" unicode="Q"/><glyph d="M889 715q-74 -47 -168 -66l272 -649h-119l-260 635q-66 -4 -108 -4h-170l-111 -631h-106l252 1434h317q203 0 294 -74t91 -225q0 -119 -46 -238t-138 -182zM350 713h156q223 0 315 71q70 53 107 155.5t37 197.5q0 123 -70 169t-213 46h-219z" glyph-name="R" horiz-adv-x="1144" unicode="R"/><glyph d="M346 -20q-174 0 -334 49l19 96q166 -51 303 -51q164 0 254 83t90 228q0 96 -76 172l-311 307q-86 86 -86 207q0 182 119.5 282.5t337.5 100.5q133 0 278 -27l-16 -92q-156 25 -258 25q-350 0 -351 -279q0 -86 60 -145l305 -297q59 -57 83.5 -112.5t24.5 -133.5 q0 -186 -119.5 -299.5t-322.5 -113.5z" glyph-name="S" horiz-adv-x="931" unicode="S"/><glyph d="M965 1434l-17 -93h-325l-236 -1341h-106l235 1341h-328l17 93h760z" glyph-name="T" horiz-adv-x="862" unicode="T"/><glyph d="M555 -20q-211 0 -299 72.5t-88 230.5q0 82 18 182l170 969h107l-172 -979q-18 -111 -19 -164q0 -125 68 -171t225 -46q178 0 261 85t118 287l172 988h107l-174 -994q-47 -266 -160 -363t-334 -97z" glyph-name="U" horiz-adv-x="1271" unicode="U"/><glyph d="M1067 1434h113l-645 -1434h-170l-138 1434h109l113 -1342h34z" glyph-name="V" horiz-adv-x="1095" unicode="V"/><glyph d="M1700 1434h108l-538 -1434h-168l-86 1341h-29l-561 -1341h-168l-31 1434h105l16 -1342h33l551 1342h168l78 -1342h32z" glyph-name="W" horiz-adv-x="1732" unicode="W"/><glyph d="M1135 1434l-486 -686l262 -748h-110l-228 676h-30l-463 -676h-119l531 750l-242 684h112l203 -611h37l416 611h117z" glyph-name="X" horiz-adv-x="1073" unicode="X"/><glyph d="M1196 1434l-590 -873l-98 -561h-107l99 561l-283 873h113l227 -748h31l491 748h117z" glyph-name="Y" horiz-adv-x="1101" unicode="Y"/><glyph d="M305 1434h750l-17 -93l-10 -59l-905 -1155l-6 -35h686l-17 -92h-792l16 92l10 60l906 1155l6 34h-643z" glyph-name="Z" horiz-adv-x="1003" unicode="Z"/><glyph d="M741 1487h-262l-303 -1723h262l-16 -92h-369l336 1907h369z" glyph-name="bracketleft" horiz-adv-x="628" unicode="["/><glyph d="M543 -102h-99l-258 1638h99z" glyph-name="backslash" horiz-adv-x="671" unicode="\"/><glyph d="M600 1579l-336 -1907h-368l16 92h262l303 1723h-262l16 92h369z" glyph-name="bracketright" horiz-adv-x="628" unicode="]"/><glyph d="M768 567l-129 813h-16l-418 -813h-107l488 906h119l165 -906h-102z" glyph-name="asciicircum" horiz-adv-x="968" unicode="^"/><glyph d="M117 -166h901l-17 -88h-901z" glyph-name="underscore" horiz-adv-x="1388" unicode="_"/><glyph d="M438 1296l-188 383h104l156 -383h-72z" glyph-name="grave" horiz-adv-x="446" unicode="`"/><glyph d="M584 1147q160 0 235.5 -62.5t75.5 -195.5q0 -55 -12 -129l-133 -764l-84 -8l12 143h-12q-100 -152 -328 -151q-152 0 -223.5 60t-71.5 189q0 92 34 179.5t87 140.5q96 96 301 96h295l22 123q10 51 11 109q0 98 -51.5 139t-174.5 41q-104 0 -293 -35l-6 86q207 39 316 39z M721 414l24 141h-317q-137 0 -201 -74q-33 -39 -55 -110.5t-22 -137.5q0 -86 49 -124.5t157 -38.5q158 0 246 83t119 261z" glyph-name="a" horiz-adv-x="1009" unicode="a"/><glyph d="M655 1147q182 0 266.5 -90t84.5 -285q0 -170 -51.5 -355.5t-127.5 -283.5q-117 -154 -354 -153q-213 0 -264 145h-16l-37 -139l-82 8l272 1542h103l-91 -506h17q87 117 280 117zM756 197q59 90 105 265t46 318q0 147 -60.5 212t-197.5 65q-150 0 -231.5 -76t-110.5 -244 l-65 -375q-10 -57 -11 -96q0 -102 57.5 -149t182.5 -47q201 0 285 127z" glyph-name="b" horiz-adv-x="1105" unicode="b"/><glyph d="M487 -20q-203 0 -298 88t-95 274q0 205 68.5 405.5t171.5 294.5q113 104 344 105q111 0 190 -29l-18 -86q-74 25 -186 25q-180 0 -269 -82q-80 -78 -138 -260.5t-58 -360.5q0 -158 61.5 -221t212.5 -63q127 0 217 28l-2 -94q-80 -24 -201 -24z" glyph-name="c" horiz-adv-x="890" unicode="c"/><glyph d="M1001 1536h103l-273 -1542l-81 -8l12 139h-12q-94 -145 -310 -145q-174 0 -258 88t-84 268q0 203 64.5 402.5t161.5 293.5q115 115 323 115q195 0 246 -117h18zM864 758q8 49 8 98q0 106 -54 153.5t-177 47.5q-174 0 -256 -92q-74 -80 -129 -268.5t-55 -358.5 q0 -147 56 -207.5t196 -60.5q154 0 234.5 71.5t109.5 233.5z" glyph-name="d" horiz-adv-x="1105" unicode="d"/><glyph d="M659 1147q174 0 255 -82t81 -258q0 -102 -28 -252l-6 -31h-748q-12 -80 -12 -157q0 -160 66.5 -228.5t221.5 -68.5q137 0 355 69l6 -92q-217 -68 -375 -67q-197 0 -288 94t-91 295q0 176 59.5 361t147.5 282q123 135 356 135zM231 612h643q20 129 21 205 q0 131 -54.5 185.5t-183.5 54.5q-188 0 -282 -107q-93 -105 -144 -338z" glyph-name="e" horiz-adv-x="1069" unicode="e"/><glyph d="M629 1458q-94 0 -136 -50t-69 -196l-14 -86h254l-17 -88h-254l-182 -1038h-102l182 1038h-205l16 88h205l17 95q35 199 99 263t226 64q68 0 115 -18l-16 -86q-49 14 -119 14z" glyph-name="f" horiz-adv-x="581" unicode="f"/><glyph d="M1133 1126l-9 -47l-223 -39q84 -51 84 -194q0 -96 -36 -197.5t-93 -159.5q-106 -111 -330 -110q-145 0 -225 41l-59 -47q-61 -47 -62 -101q0 -70 121 -69h201q231 0 335.5 -54.5t104.5 -175.5q0 -186 -127 -274t-397 -88q-242 0 -349.5 49t-107.5 160q0 227 211 295l2 16 q-94 35 -94 131q0 88 104 164l52 37q-68 70 -68 199q0 111 41 220t106 171q100 94 324 94q106 0 174 -21h320zM786 553q41 47 70 140t29 181q0 102 -53.5 142.5t-188.5 40.5q-182 0 -254 -66q-49 -47 -83 -143t-34 -191q0 -106 53.5 -147t190.5 -41q198 0 270 84zM483 113 q-219 0 -318 -66.5t-99 -214.5q0 -74 77.5 -102.5t274.5 -28.5q225 0 322.5 60.5t97.5 203.5q0 84 -77 116t-278 32z" glyph-name="g" horiz-adv-x="1085" unicode="g"/><glyph d="M711 1147q160 0 229.5 -58.5t69.5 -193.5q0 -72 -19 -176l-127 -719h-102l127 723q14 80 14 143q0 104 -50 147.5t-169 43.5q-170 0 -259 -82t-122 -262l-125 -713h-102l270 1536h103l-97 -545h15q100 156 344 156z" glyph-name="h" horiz-adv-x="1124" unicode="h"/><glyph d="M330 1518h129l-23 -129h-129zM377 1126l-199 -1126h-102l198 1126h103z" glyph-name="i" horiz-adv-x="448" unicode="i"/><glyph d="M307 1389l23 129h129l-23 -129h-129zM-141 -389q-61 0 -107 12l19 90q49 -12 112 -12q84 0 121 47t59 178l211 1200h101l-213 -1208q-31 -172 -91 -239.5t-212 -67.5z" glyph-name="j" horiz-adv-x="448" unicode="j"/><glyph d="M979 1126l-541 -510l379 -616h-112l-353 575h-73l-101 -575h-102l270 1536h103l-154 -872h72l493 462h119z" glyph-name="k" horiz-adv-x="917" unicode="k"/><glyph d="M322 -20q-117 0 -167.5 40.5t-50.5 133.5q0 45 13 112l223 1270h102l-225 -1278q-10 -66 -10 -98q0 -49 19.5 -69.5t70.5 -20.5q74 0 129 12v-92q-55 -10 -104 -10z" glyph-name="l" horiz-adv-x="573" unicode="l"/><glyph d="M1348 1147q150 0 218 -62.5t68 -197.5q0 -59 -18 -168l-127 -719h-103l127 723q16 98 17 149q0 98 -50 141.5t-161 43.5q-158 0 -243 -81t-115 -257l-127 -719h-103l127 723q16 98 16 149q0 100 -48 142.5t-162 42.5q-160 0 -243 -76t-114 -250l-129 -731h-102l198 1130 l84 9l-14 -162h12q51 90 129 130t203 40q248 0 283 -170h16q111 170 361 170z" glyph-name="m" horiz-adv-x="1748" unicode="m"/><glyph d="M700 1147q160 0 235 -61.5t75 -196.5q0 -66 -19 -170l-127 -719h-102l127 723q14 80 14 143q0 104 -50 147.5t-173 43.5q-170 0 -257 -81t-120 -265l-125 -711h-102l198 1130l84 9l-14 -162h14q51 90 131 130t211 40z" glyph-name="n" horiz-adv-x="1124" unicode="n"/><glyph d="M481 -20q-199 0 -290 86t-91 274q0 203 63.5 401.5t158.5 292.5q115 113 342 113q199 0 289.5 -86t90.5 -273q0 -201 -63 -399.5t-156 -294.5q-113 -114 -344 -114zM475 70q188 0 279 86q78 74 134 263t56 363q0 152 -61.5 213.5t-212.5 61.5q-190 0 -279 -86 q-78 -74 -134 -263.5t-56 -363.5q0 -152 61 -213t213 -61z" glyph-name="o" horiz-adv-x="1142" unicode="o"/><glyph d="M666 1147q184 0 264 -92t80 -271q0 -170 -56.5 -369.5t-156.5 -308.5q-119 -127 -336 -126q-193 0 -246 116h-20l-82 -465h-103l264 1502l84 8l-12 -140h12q99 146 308 146zM727 164q82 92 131 288.5t49 346.5q0 145 -60.5 201.5t-193.5 56.5q-145 0 -228 -67.5 t-116 -244.5l-63 -356q-10 -51 -10 -115q0 -115 58 -159.5t171 -44.5q176 0 262 94z" glyph-name="p" horiz-adv-x="1105" unicode="p"/><glyph d="M952 1141l80 -8l-264 -1502h-102l82 465h-15q-86 -117 -276 -116q-172 0 -263.5 83.5t-91.5 294.5q0 172 53.5 369t153.5 299q117 121 326 121q213 0 262 -146h18zM862 741q10 53 10 111q0 115 -59 160t-176 45q-176 0 -260 -99q-80 -94 -128 -288.5t-48 -341.5 q0 -135 58 -196.5t198 -61.5q141 0 226 70.5t118 250.5z" glyph-name="q" horiz-adv-x="1052" unicode="q"/><glyph d="M711 1147q29 0 43 -2l-23 -111q-41 23 -106 23q-127 0 -213 -107.5t-117 -290.5l-117 -659h-102l198 1130l84 9l-14 -162h14q117 170 353 170z" glyph-name="r" horiz-adv-x="673" unicode="r"/><glyph d="M268 -20q-102 0 -260 22l19 92q137 -25 239 -24q158 0 223 49q84 63 84 186q0 76 -59 125l-278 236q-76 68 -76 165q0 70 28.5 138.5t81.5 111.5q84 66 262 66q104 0 248 -25l-18 -90q-137 25 -234 25q-147 0 -202 -56q-63 -63 -64 -176q0 -59 53 -104l256 -213 q106 -90 107 -205q0 -70 -32 -140.5t-87 -113.5q-90 -69 -291 -69z" glyph-name="s" horiz-adv-x="817" unicode="s"/><glyph d="M401 1038l-137 -780q-10 -68 -10 -98q0 -51 20.5 -70.5t67.5 -19.5q80 0 131 12v-92q-47 -10 -111 -10q-113 0 -161.5 43t-48.5 133q0 49 12 110l135 772h-182l16 88h182l47 273h103l-47 -273h260l-16 -88h-261z" glyph-name="t" horiz-adv-x="665" unicode="t"/><glyph d="M928 1126h102l-199 -1130l-83 -8l14 162h-12q-55 -94 -137.5 -132t-204.5 -38q-158 0 -224.5 58t-66.5 191q0 78 18 179l127 718h103l-127 -723q-16 -94 -17 -149q0 -104 50.5 -144t160.5 -40q158 0 247 77.5t124 270.5z" glyph-name="u" horiz-adv-x="1103" unicode="u"/><glyph d="M891 1126h110l-546 -1126h-174l-150 1126h111l120 -1038h39z" glyph-name="v" horiz-adv-x="931" unicode="v"/><glyph d="M1538 1126h109l-486 -1126h-170l-114 1049h-3l-485 -1049h-170l-88 1126h109l67 -1048h27l483 1048h144l114 -1048h27z" glyph-name="w" horiz-adv-x="1576" unicode="w"/><glyph d="M995 1126l-438 -542l277 -584h-119l-232 518h-14l-412 -518h-127l490 590l-244 536h117l203 -467h12l362 467h125z" glyph-name="x" horiz-adv-x="964" unicode="x"/><glyph d="M901 1126h111l-633 -1249q-68 -135 -160 -200.5t-231 -65.5q-29 0 -82 4l22 86q41 -4 62 -4q104 0 176 49t129 164l53 108h-53l-164 1108h111l135 -1020h16z" glyph-name="y" horiz-adv-x="942" unicode="y"/><glyph d="M211 1126h633l-17 -88l-8 -49l-713 -870l-4 -31h576l-16 -88h-678l16 88l8 53l713 871l6 26h-532z" glyph-name="z" horiz-adv-x="841" unicode="z"/><glyph d="M694 1599q80 0 129 -20l-20 -94q-53 20 -127 20q-68 0 -98.5 -39t-51.5 -151l-82 -469q-25 -150 -88 -205l-2 -16q25 -33 25 -101q0 -57 -10 -108l-84 -469q-12 -68 -13 -105q0 -47 18.5 -63.5t63.5 -16.5q78 0 144 27l-4 -104q-49 -16 -127 -17q-109 0 -155 43t-46 133 q0 59 10 111l84 469q8 41 8 78q0 49 -23.5 66.5t-78.5 19.5l16 94q72 0 103.5 35t50.5 137l82 469q27 150 85 213t191 63z" glyph-name="braceleft" horiz-adv-x="686" unicode="{"/><glyph d="M555 1653l-360 -2042h-103l361 2042h102z" glyph-name="bar" horiz-adv-x="622" unicode="|"/><glyph d="M444 766q0 -49 24 -66.5t79 -19.5l-17 -94q-72 0 -103.5 -35t-49.5 -137l-82 -469q-27 -150 -85 -213.5t-192 -63.5q-80 0 -129 21l21 94q53 -20 127 -21q68 0 98.5 39t50.5 152l82 469q25 150 88 205l2 16q-25 33 -24 100q0 57 10 109l84 469q12 68 12 104 q0 47 -18.5 63.5t-63.5 16.5q-76 0 -143 -26l4 104q49 16 127 16q109 0 155 -43t46 -133q0 -59 -10 -110l-84 -469q-9 -41 -9 -78z" glyph-name="braceright" horiz-adv-x="686" unicode="}"/><glyph d="M266 520l-69 33q16 100 86.5 159.5t158.5 59.5q76 0 142 -45l161 -106q47 -31 82 -31q96 0 158 155l72 -34q-18 -96 -83 -152.5t-155 -56.5q-55 0 -123 41l-161 104q-59 39 -97 39q-106 0 -172 -166z" glyph-name="asciitilde" horiz-adv-x="1228" unicode="~"/><glyph glyph-name="uni00A0" horiz-adv-x="450" unicode=" "/><glyph d="M315 1065h129l-22 -129h-129zM274 623h58l-148 -992h-114z" glyph-name="exclamdown" horiz-adv-x="579" unicode="¡"/><glyph d="M395 975q-80 -78 -138 -260.5t-58 -360.5q0 -158 61.5 -221t212.5 -63q127 0 217 28l-2 -94q-80 -25 -201 -24h-4l-30 -185h-103l33 191q-289 41 -289 356q0 205 68.5 405.5t171.5 294.5q90 84 254 101l35 188h102l-33 -184q102 -4 176 -29l-18 -86q-74 25 -186 25 q-181 0 -269 -82z" glyph-name="cent" horiz-adv-x="890" unicode="¢"/><glyph d="M817 1360q-139 0 -203.5 -78t-99.5 -268l-31 -201h381l-16 -92h-379q-80 -451 -258 -623l-2 -6h706l-16 -92h-852l16 92q197 94 291 629h-180l16 92h181q8 39 19 111.5t18 105.5q43 246 141 335t289 89q117 0 254 -29l-21 -96q-164 31 -254 31z" glyph-name="sterling" horiz-adv-x="1073" unicode="£"/><glyph d="M651 676l-4 -23h324l-17 -92h-323l-29 -170h324l-17 -92h-323l-54 -299h-106l53 299h-321l16 92h322l28 170h-321l16 92h322l8 39l-295 742h113l241 -646h27l481 646h117z" glyph-name="yen" horiz-adv-x="1163" unicode="¥"/><glyph d="M317 879l136 774h102l-135 -774h-103zM92 -389l137 774h103l-137 -774h-103z" glyph-name="brokenbar" horiz-adv-x="622" unicode="¦"/><glyph d="M698 1362q-215 0 -284 -102q-43 -63 -43 -158q0 -59 59 -113l299 -262q109 -96 109 -205q0 -125 -72 -233q-35 -57 -100 -92l-2 -11q82 -82 81 -184q0 -131 -69 -235q-106 -156 -369 -156q-141 0 -311 43l18 94q197 -45 310 -45q180 0 256 104q53 76 53 185q0 74 -74 139 l-303 268q-88 76 -88 176q0 125 61 211q43 63 133 103l5 16l-19 17q-88 76 -88 174q0 125 62 213q102 145 378 145q115 0 271 -22l-19 -95q-162 25 -254 25zM725 518q0 70 -74 135l-194 172q-94 -25 -133 -84q-45 -72 -45 -157q0 -61 61 -117l244 -211q55 27 88 74 q53 75 53 188z" glyph-name="section" horiz-adv-x="1005" unicode="§"/><glyph d="M344 1518h127l-22 -127h-127zM750 1518h127l-23 -127h-127z" glyph-name="dieresis" horiz-adv-x="880" unicode="¨"/><glyph d="M803 -20q-295 0 -473 184t-178 473q0 338 232 577.5t577 239.5q295 0 473 -184.5t178 -472.5q0 -338 -233.5 -577.5t-575.5 -239.5zM817 70q297 0 491.5 213t194.5 508q0 258 -153.5 415.5t-403.5 157.5q-297 0 -492.5 -213t-195.5 -508q0 -256 154.5 -414.5 t404.5 -158.5zM883 334q-141 0 -199.5 61.5t-58.5 182.5q0 100 30.5 221t81.5 194q80 115 250 115q74 0 123 -23l-18 -92q-37 20 -88 21q-125 0 -181 -78q-41 -59 -66.5 -165.5t-25.5 -188.5q0 -88 36 -122t110 -34q66 0 114 27l6 -99q-48 -20 -114 -20z" glyph-name="copyright" horiz-adv-x="1712" unicode="©"/><glyph d="M567 1444q117 0 166 -46t49 -134q0 -45 -8 -88l-92 -527l-55 -4l6 98h-6q-66 -104 -221 -104q-113 0 -161 46t-48 142q0 127 73.5 199t214.5 72h207l15 86q8 39 8 76q0 70 -37 96t-115 26q-74 0 -207 -24l-6 59q141 27 217 27zM408 700q106 0 169.5 56.5t88.5 197.5 l14 82h-217q-98 0 -146.5 -59t-48.5 -148q0 -76 35 -102.5t105 -26.5z" glyph-name="ordfeminine" horiz-adv-x="837" unicode="ª"/><glyph d="M506 891l-377 -318l264 -313l-20 -129l-348 410l6 41l4 28l491 410zM926 1020l-21 -129l-377 -318l265 -313l-21 -129l-348 410l6 41l4 28z" glyph-name="guillemotleft" horiz-adv-x="942" unicode="«"/><glyph d="M774 1444q197 0 315.5 -126t118.5 -317q0 -225 -156.5 -390t-383.5 -165q-197 0 -316 126t-119 319q0 225 157 389t384 164zM678 508q197 0 327 145.5t130 343.5q0 172 -101.5 278.5t-267.5 106.5q-199 0 -329 -145t-130 -342q0 -172 102.5 -279.5t268.5 -107.5zM838 956 q-25 -25 -74 -34l94 -226h-78l-90 222h-61l-39 -222h-70l88 504h123q84 0 119 -25.5t35 -78.5q0 -91 -47 -140zM784 1006q31 31 31 84q0 29 -18.5 38t-63.5 9h-65l-29 -156h61q59 0 84 25z" glyph-name="registered" horiz-adv-x="1308" unicode="®"/><glyph d="M340 1493h494l-17 -88h-493z" glyph-name="macron" horiz-adv-x="841" unicode="¯"/><glyph d="M592 909q-125 0 -201 77t-76 194q0 137 100.5 231t241.5 94q125 0 201 -76.5t76 -193.5q0 -137 -100.5 -231.5t-241.5 -94.5zM602 995q96 0 164 70t68 166q0 84 -51.5 137t-135.5 53q-96 0 -163.5 -70.5t-67.5 -166.5q0 -82 51 -135.5t135 -53.5z" glyph-name="degree" horiz-adv-x="1024" unicode="°"/><glyph d="M705 813h372l-16 -92h-373l-59 -334h-92l59 334h-373l17 92h372l60 334h92zM117 115l16 92h838l-17 -92h-837z" glyph-name="plusminus" horiz-adv-x="1228" unicode="±"/><glyph d="M336 926q-92 -66 -113 -172l-4 -17h418l-12 -78h-519l17 101q12 82 51 134t115 107l268 191q88 63 88 168q0 59 -37 81.5t-114 22.5q-80 0 -207 -18l2 82q133 18 207 18q131 0 189 -46t58 -140q0 -139 -122 -230z" glyph-name="uni00B2" horiz-adv-x="714" unicode="²"/><glyph d="M573 1106q82 -37 82 -143q0 -129 -63 -218q-68 -98 -283 -98q-141 0 -207 33l17 78q53 -31 182 -31q162 0 209 68q51 76 51 184q0 57 -37 76.5t-127 19.5h-125l13 80h121q119 0 157 53q43 61 43 168q0 55 -31.5 72.5t-117.5 17.5q-125 0 -201 -32l2 88q74 27 211 26 q131 0 185.5 -40t54.5 -126q0 -123 -56 -202q-33 -41 -78 -62z" glyph-name="uni00B3" horiz-adv-x="712" unicode="³"/><glyph d="M195 1296l290 383h109l-324 -383h-75z" glyph-name="acute" horiz-adv-x="446" unicode="´"/><glyph d="M1141 1434l-318 -1803h-106l301 1710h-184l-302 -1710h-106l168 951h-16q-219 0 -326 77.5t-107 251.5q0 96 27 203t78 170q117 150 471 150h420z" glyph-name="paragraph" horiz-adv-x="1247" unicode="¶"/><glyph d="M240 539l28 153h144l-29 -153h-143z" glyph-name="periodcentered" horiz-adv-x="630" unicode="·"/><glyph d="M125 -129q170 -6 170 -127q0 -37 -14.5 -85t-34.5 -75q-55 -76 -203 -76q-57 0 -109 19l17 82q43 -16 106 -17q80 0 111 37q35 37 35 107q0 55 -74 55h-109l99 262h86z" glyph-name="cedilla" horiz-adv-x="542" unicode="¸"/><glyph d="M395 739h174l-14 -80h-459l15 80h188l127 723l-190 -49v72l202 51h97z" glyph-name="uni00B9" horiz-adv-x="587" unicode="¹"/><glyph d="M522 639q-143 0 -205.5 63.5t-62.5 190.5q0 102 31.5 228t83.5 202q84 121 270 121q145 0 205.5 -62.5t60.5 -191.5q0 -104 -30.5 -231.5t-83.5 -200.5q-85 -119 -269 -119zM510 700q160 0 223 95q45 63 74 190t29 219q0 100 -43 139t-142 39q-160 0 -225 -94 q-45 -66 -73.5 -191.5t-28.5 -217.5q0 -102 44 -140.5t142 -38.5z" glyph-name="ordmasculine" horiz-adv-x="989" unicode="º"/><glyph d="M520 584l-6 -43l-491 -410l20 129l377 318l-264 313l20 129l348 -410zM575 1020l349 -410l-6 -41l-5 -28l-491 -410l20 129l377 318l-264 313z" glyph-name="guillemotright" horiz-adv-x="942" unicode="»"/><glyph d="M1190 1475h102l-862 -1516h-102zM479 637l-14 -80h-445l15 80h180l127 723l-182 -49v71l194 52h97l-140 -797h168zM1536 313l-14 -80h-123l-41 -233h-96l41 233h-365l23 123l360 521h102l-368 -535l-6 -29h268l53 308h96l-53 -308h123z" glyph-name="onequarter" horiz-adv-x="1611" unicode="¼"/><glyph d="M1190 1475h102l-862 -1516h-102zM479 637l-14 -80h-445l15 80h180l127 723l-182 -49v71l194 52h97l-140 -797h168zM1208 276q-98 -74 -116 -182l-2 -14h391l-15 -80h-491l18 102q14 86 53 140.5t115 111.5l248 185q82 63 82 170q0 57 -34 78.5t-107.5 21.5t-190.5 -18v81 q121 18 193 19q240 0 239 -184q0 -141 -118 -232z" glyph-name="onehalf" horiz-adv-x="1634" unicode="½"/><glyph d="M1163 1475h103l-863 -1516h-102zM520 641q-68 -96 -266 -96q-137 0 -203 33l15 75q59 -27 178 -26q152 0 194 63q51 78 51 191q0 55 -33.5 74.5t-121.5 19.5h-113l15 80h104q119 0 156 53q43 61 43 168q0 53 -30 71.5t-101 18.5q-109 0 -201 -31v86q82 27 192 27 q129 0 183.5 -40t54.5 -126q0 -127 -57 -205q-27 -37 -76 -59l-4 -19q86 -39 86 -137q0 -127 -66 -221zM1509 313l-14 -80h-123l-41 -233h-96l41 233h-365l23 123l360 521h103l-369 -535l-6 -29h268l53 308h97l-54 -308h123z" glyph-name="threequarters" horiz-adv-x="1585" unicode="¾"/><glyph d="M573 936l23 129h129l-23 -129h-129zM610 623l-10 -70q-16 -106 -52 -164.5t-132 -126.5l-185 -127q-145 -100 -145 -260q0 -98 61.5 -134t194.5 -36q96 0 268 25l4 -92q-178 -27 -286 -27q-193 0 -273 63.5t-80 192.5q0 201 185 328l221 151q78 53 110.5 98t49.5 123 l12 56h57z" glyph-name="questiondown" horiz-adv-x="874" unicode="¿"/><glyph d="M811 1604h-72l-188 383h104zM897 0l-41 424h-582l-190 -424h-111l664 1434h211l160 -1434h-111zM317 516h531l-82 825h-76z" glyph-name="Agrave" horiz-adv-x="1177" unicode="À"/><glyph d="M1137 1987l-324 -383h-76l291 383h109zM848 1434l160 -1434h-111l-41 424h-582l-190 -424h-111l664 1434h211zM317 516h531l-82 825h-76z" glyph-name="Aacute" horiz-adv-x="1177" unicode="Á"/><glyph d="M899 1978l203 -383h-70l-196 320l-310 -320h-77l339 383h111zM848 1434l160 -1434h-111l-41 424h-582l-190 -424h-111l664 1434h211zM317 516h531l-82 825h-76z" glyph-name="Acircumflex" horiz-adv-x="1177" unicode="Â"/><glyph d="M1051 1864h69q-16 -94 -67.5 -149.5t-118.5 -55.5q-55 0 -111 45l-86 70q-23 16 -47 16q-80 0 -121 -131h-67q14 94 64 148.5t120 54.5q63 0 113 -41l88 -74q18 -16 43 -16q78 0 121 133zM848 1434l160 -1434h-111l-41 424h-582l-190 -424h-111l664 1434h211zM317 516 h531l-82 825h-76z" glyph-name="Atilde" horiz-adv-x="1177" unicode="Ã"/><glyph d="M678 1825l-23 -127h-127l23 127h127zM956 1825h127l-22 -127h-127zM848 1434l160 -1434h-111l-41 424h-582l-190 -424h-111l664 1434h211zM317 516h531l-82 825h-76z" glyph-name="Adieresis" horiz-adv-x="1177" unicode="Ä"/><glyph d="M795 1595q-113 0 -158 41t-45 125q0 96 41 156q57 78 198 78q113 0 158 -41t45 -123q0 -98 -43 -158q-53 -78 -196 -78zM696 1880q-29 -39 -28 -108q0 -57 29.5 -84t103.5 -27q96 0 129 49q29 39 28 111q0 57 -29.5 83.5t-103.5 26.5q-94 0 -129 -51zM848 1434l160 -1434 h-111l-41 424h-582l-190 -424h-111l664 1434h211zM317 516h531l-82 825h-76z" glyph-name="Aring" horiz-adv-x="1177" unicode="Å"/><glyph d="M1405 1341h-537l-96 -553h506l-16 -92h-506l-107 -604h561l-16 -92h-668l74 424h-367l-208 -424h-105l719 1434h782zM616 516l146 825h-74l-407 -825h335z" glyph-name="AE" horiz-adv-x="1400" unicode="Æ"/><glyph d="M842 1360q-236 0 -353 -135q-96 -109 -164.5 -337.5t-68.5 -438.5q0 -201 81 -288t269 -87q137 0 240 47l4 -98q-94 -43 -250 -43h-35l-47 -109q170 -6 170 -127q0 -37 -14.5 -85t-34.5 -75q-55 -76 -203 -76q-57 0 -108 19l16 82q43 -16 107 -17q80 0 110 37 q35 37 35 107q0 55 -74 55h-108l73 197q-172 25 -256 134t-84 314q0 246 77 490.5t194 371.5q143 156 422 156q129 0 229 -41l-18 -92q-76 39 -209 39z" glyph-name="Ccedilla" horiz-adv-x="1054" unicode="Ç"/><glyph d="M766 1604h-72l-188 383h104zM999 1341h-538l-96 -553h507l-16 -92h-508l-106 -604h563l-17 -92h-669l252 1434h645z" glyph-name="Egrave" horiz-adv-x="995" unicode="È"/><glyph d="M1092 1987l-324 -383h-76l291 383h109zM1016 1434l-17 -93h-538l-96 -553h507l-16 -92h-508l-106 -604h563l-17 -92h-669l252 1434h645z" glyph-name="Eacute" horiz-adv-x="995" unicode="É"/><glyph d="M791 1915l-310 -320h-78l340 383h111l203 -383h-70zM1016 1434l-17 -93h-538l-96 -553h507l-16 -92h-508l-106 -604h563l-17 -92h-669l252 1434h645z" glyph-name="Ecircumflex" horiz-adv-x="995" unicode="Ê"/><glyph d="M633 1825l-23 -127h-127l23 127h127zM911 1825h127l-22 -127h-127zM1016 1434l-17 -93h-538l-96 -553h507l-16 -92h-508l-106 -604h563l-17 -92h-669l252 1434h645z" glyph-name="Edieresis" horiz-adv-x="995" unicode="Ë"/><glyph d="M414 1604l-189 383h105l155 -383h-71zM477 1434l-252 -1434h-106l252 1434h106z" glyph-name="Igrave" horiz-adv-x="540" unicode="Ì"/><glyph d="M412 1604l290 383h109l-324 -383h-75zM477 1434l-252 -1434h-106l252 1434h106z" glyph-name="Iacute" horiz-adv-x="540" unicode="Í"/><glyph d="M776 1595h-69l-197 320l-309 -320h-78l340 383h110zM119 0l252 1434h106l-252 -1434h-106z" glyph-name="Icircumflex" horiz-adv-x="540" unicode="Î"/><glyph d="M225 1825h127l-22 -127h-127zM631 1825h127l-23 -127h-127zM477 1434l-252 -1434h-106l252 1434h106z" glyph-name="Idieresis" horiz-adv-x="540" unicode="Ï"/><glyph d="M760 1434q451 0 450 -463q0 -217 -65.5 -438.5t-165.5 -346.5q-150 -186 -459 -186h-401l117 670h-181l17 92h180l119 672h389zM895 248q88 113 147.5 319.5t59.5 395.5q0 205 -84 297t-266 92h-289l-105 -590h338l-16 -92h-338l-102 -588h286q242 0 369 166z" glyph-name="Eth" horiz-adv-x="1300" unicode="Ð"/><glyph d="M762 1790q-80 0 -121 -131h-68q14 94 64.5 148.5t120.5 54.5q63 0 112 -41l88 -74q18 -16 43 -16q78 0 121 133h70q-16 -94 -67.5 -149.5t-118.5 -55.5q-55 0 -111 45l-86 70q-22 16 -47 16zM1163 1434h107l-252 -1434h-203l-326 1341h-28l-236 -1341h-106l252 1434h204 l324 -1342h29z" glyph-name="Ntilde" horiz-adv-x="1333" unicode="Ñ"/><glyph d="M827 1604l-188 383h104l156 -383h-72zM594 -20q-233 0 -338.5 109.5t-105.5 355t86 506.5t204 376q133 127 387 127q233 0 338 -108.5t105 -350.5q0 -238 -81 -495.5t-194 -378.5q-131 -141 -401 -141zM588 74q250 0 362 151q84 113 146.5 348.5t62.5 434.5 q0 190 -74.5 271t-250.5 81q-229 0 -340 -125q-94 -104 -164 -345t-70 -456q0 -195 75 -277.5t253 -82.5z" glyph-name="Ograve" horiz-adv-x="1363" unicode="Ò"/><glyph d="M825 1604l291 383h109l-324 -383h-76zM594 -20q-233 0 -338.5 109.5t-105.5 355t86 506.5t204 376q133 127 387 127q233 0 338 -108.5t105 -350.5q0 -238 -81 -495.5t-194 -378.5q-131 -141 -401 -141zM588 74q250 0 362 151q84 113 146.5 348.5t62.5 434.5 q0 190 -74.5 271t-250.5 81q-229 0 -340 -125q-94 -104 -164 -345t-70 -456q0 -195 75 -277.5t253 -82.5z" glyph-name="Oacute" horiz-adv-x="1363" unicode="Ó"/><glyph d="M924 1915l-310 -320h-77l340 383h110l203 -383h-70zM827 1454q233 0 338 -108.5t105 -350.5q0 -238 -81 -495.5t-194 -378.5q-131 -141 -401 -141q-233 0 -338.5 109.5t-105.5 355t86 506.5t204 376q133 127 387 127zM950 225q84 113 146.5 348.5t62.5 434.5 q0 190 -74.5 271t-250.5 81q-229 0 -340 -125q-94 -104 -164 -345t-70 -456q0 -195 75 -277.5t253 -82.5q249 -1 362 151z" glyph-name="Ocircumflex" horiz-adv-x="1363" unicode="Ô"/><glyph d="M1022 1659q-55 0 -111 45l-86 70q-23 16 -47 16q-80 0 -121 -131h-67q14 94 64.5 148.5t119.5 54.5q63 0 113 -41l88 -74q18 -16 43 -16q78 0 121 133h69q-16 -94 -67 -149.5t-119 -55.5zM594 -20q-233 0 -338.5 109.5t-105.5 355t86 506.5t204 376q133 127 387 127 q233 0 338 -108.5t105 -350.5q0 -238 -81 -495.5t-194 -378.5q-131 -141 -401 -141zM588 74q250 0 362 151q84 113 146.5 348.5t62.5 434.5q0 190 -74.5 271t-250.5 81q-229 0 -340 -125q-94 -104 -164 -345t-70 -456q0 -195 75 -277.5t253 -82.5z" glyph-name="Otilde" horiz-adv-x="1363" unicode="Õ"/><glyph d="M639 1825h127l-23 -127h-127zM1044 1825h127l-22 -127h-127zM594 -20q-233 0 -338.5 109.5t-105.5 355t86 506.5t204 376q133 127 387 127q233 0 338 -108.5t105 -350.5q0 -238 -81 -495.5t-194 -378.5q-131 -141 -401 -141zM588 74q250 0 362 151q84 113 146.5 348.5 t62.5 434.5q0 190 -74.5 271t-250.5 81q-229 0 -340 -125q-94 -104 -164 -345t-70 -456q0 -195 75 -277.5t253 -82.5z" glyph-name="Odieresis" horiz-adv-x="1363" unicode="Ö"/><glyph d="M1028 868l-346 -295l242 -290l-74 -66l-242 293l-344 -293l-57 66l346 295l-242 290l74 66l242 -293l344 293z" glyph-name="multiply" horiz-adv-x="1228" unicode="×"/><glyph d="M1130 1376q139 -104 140 -381q0 -238 -81 -495.5t-194 -378.5q-131 -141 -401 -141q-133 0 -227 34l-66 -116h-100l90 159q-141 109 -141 387q0 246 86 507t204 376q133 127 387 127q133 0 228 -35l65 117h101zM260 434q0 -203 82 -284l664 1183q-66 27 -172 27 q-229 0 -340 -125q-94 -104 -164 -345t-70 -456zM950 225q84 113 146.5 348.5t62.5 434.5q0 197 -80 276l-663 -1184q66 -27 172 -26q249 -1 362 151z" glyph-name="Oslash" horiz-adv-x="1363" unicode="Ø"/><glyph d="M780 1604l-188 383h104l156 -383h-72zM555 -20q-211 0 -299 72.5t-88 230.5q0 82 18 182l170 969h107l-172 -979q-18 -111 -19 -164q0 -125 68 -171t225 -46q178 0 261 85t118 287l172 988h107l-174 -994q-47 -266 -160 -363t-334 -97z" glyph-name="Ugrave" horiz-adv-x="1271" unicode="Ù"/><glyph d="M778 1604l291 383h109l-324 -383h-76zM555 -20q-211 0 -299 72.5t-88 230.5q0 82 18 182l170 969h107l-172 -979q-18 -111 -19 -164q0 -125 68 -171t225 -46q178 0 261 85t118 287l172 988h107l-174 -994q-47 -266 -160 -363t-334 -97z" glyph-name="Uacute" horiz-adv-x="1271" unicode="Ú"/><glyph d="M877 1915l-310 -320h-78l340 383h111l203 -383h-70zM1116 1434h107l-174 -994q-47 -266 -160 -363t-334 -97q-211 0 -299 72.5t-88 230.5q0 82 18 182l170 969h107l-172 -979q-18 -111 -19 -164q0 -125 68 -171t225 -46q178 0 261 85t118 287z" glyph-name="Ucircumflex" horiz-adv-x="1271" unicode="Û"/><glyph d="M592 1825h127l-23 -127h-127zM997 1825h127l-22 -127h-127zM555 -20q-211 0 -299 72.5t-88 230.5q0 82 18 182l170 969h107l-172 -979q-18 -111 -19 -164q0 -125 68 -171t225 -46q178 0 261 85t118 287l172 988h107l-174 -994q-47 -266 -160 -363t-334 -97z" glyph-name="Udieresis" horiz-adv-x="1271" unicode="Ü"/><glyph d="M1092 1987l-324 -383h-76l291 383h109zM1196 1434l-590 -873l-98 -561h-107l99 561l-283 873h113l227 -748h31l491 748h117z" glyph-name="Yacute" horiz-adv-x="1101" unicode="Ý"/><glyph d="M635 1161q201 0 292 -74.5t91 -238.5q0 -117 -42 -222.5t-110 -170.5q-119 -117 -370 -117h-211l-60 -338h-106l252 1434h106l-47 -273h205zM784 512q53 53 89 147.5t36 192.5q0 123 -64.5 175t-217.5 52h-211l-117 -659h205q188 0 280 92z" glyph-name="Thorn" horiz-adv-x="1073" unicode="Þ"/><glyph d="M647 -20q-100 0 -254 22l19 92q133 -25 235 -24q168 0 230 55q68 61 67 172q0 70 -53 133l-137 160q-70 80 -70 170q0 121 121 237l53 52q70 68 98.5 113.5t28.5 115.5q0 88 -52 134t-179 46q-178 0 -264.5 -90t-116.5 -260l-195 -1108h-102l196 1116q76 432 482 432 q332 0 331 -270q0 -88 -35.5 -146.5t-121.5 -146.5l-74 -74q-72 -72 -72 -147q0 -63 41 -111l127 -145q96 -113 97 -213q0 -59 -25 -122.5t-68 -104.5q-90 -88 -307 -88z" glyph-name="germandbls" horiz-adv-x="1198" unicode="ß"/><glyph d="M682 1296h-72l-188 383h104zM584 1147q160 0 235.5 -62.5t75.5 -195.5q0 -55 -12 -129l-133 -764l-84 -8l12 143h-12q-100 -152 -328 -151q-152 0 -223.5 60t-71.5 189q0 92 34 179.5t87 140.5q96 96 301 96h295l22 123q10 51 11 109q0 98 -51.5 139t-174.5 41 q-104 0 -293 -35l-6 86q207 39 316 39zM721 414l24 141h-317q-137 0 -201 -74q-33 -39 -55 -110.5t-22 -137.5q0 -86 49 -124.5t157 -38.5q158 0 246 83t119 261z" glyph-name="agrave" horiz-adv-x="1009" unicode="à"/><glyph d="M1008 1679l-324 -383h-76l291 383h109zM584 1147q160 0 235.5 -62.5t75.5 -195.5q0 -55 -12 -129l-133 -764l-84 -8l12 143h-12q-100 -152 -328 -151q-152 0 -223.5 60t-71.5 189q0 92 34 179.5t87 140.5q96 96 301 96h295l22 123q10 51 11 109q0 98 -51.5 139t-174.5 41 q-104 0 -293 -35l-6 86q207 39 316 39zM721 414l24 141h-317q-137 0 -201 -74q-33 -39 -55 -110.5t-22 -137.5q0 -86 49 -124.5t157 -38.5q158 0 246 83t119 261z" glyph-name="aacute" horiz-adv-x="1009" unicode="á"/><glyph d="M770 1671l203 -383h-70l-196 320l-310 -320h-78l340 383h111zM584 1147q160 0 235.5 -62.5t75.5 -195.5q0 -55 -12 -129l-133 -764l-84 -8l12 143h-12q-100 -152 -328 -151q-152 0 -223.5 60t-71.5 189q0 92 34 179.5t87 140.5q96 96 301 96h295l22 123q10 51 11 109 q0 98 -51.5 139t-174.5 41q-104 0 -293 -35l-6 86q207 39 316 39zM721 414l24 141h-317q-137 0 -201 -74q-33 -39 -55 -110.5t-22 -137.5q0 -86 49 -124.5t157 -38.5q158 0 246 83t119 261z" glyph-name="acircumflex" horiz-adv-x="1009" unicode="â"/><glyph d="M922 1556h69q-16 -94 -67.5 -149t-118.5 -55q-55 0 -111 45l-86 69q-23 16 -47 17q-80 0 -121 -131h-67q14 94 64 148t120 54q63 0 113 -41l88 -73q18 -16 43 -17q78 0 121 133zM584 1147q160 0 235.5 -62.5t75.5 -195.5q0 -55 -12 -129l-133 -764l-84 -8l12 143h-12 q-100 -152 -328 -151q-152 0 -223.5 60t-71.5 189q0 92 34 179.5t87 140.5q96 96 301 96h295l22 123q10 51 11 109q0 98 -51.5 139t-174.5 41q-104 0 -293 -35l-6 86q207 39 316 39zM721 414l24 141h-317q-137 0 -201 -74q-33 -39 -55 -110.5t-22 -137.5q0 -86 49 -124.5 t157 -38.5q158 0 246 83t119 261z" glyph-name="atilde" horiz-adv-x="1009" unicode="ã"/><glyph d="M549 1518l-23 -127h-127l23 127h127zM827 1518h127l-22 -127h-127zM584 1147q160 0 235.5 -62.5t75.5 -195.5q0 -55 -12 -129l-133 -764l-84 -8l12 143h-12q-100 -152 -328 -151q-152 0 -223.5 60t-71.5 189q0 92 34 179.5t87 140.5q96 96 301 96h295l22 123 q10 51 11 109q0 98 -51.5 139t-174.5 41q-104 0 -293 -35l-6 86q207 39 316 39zM721 414l24 141h-317q-137 0 -201 -74q-33 -39 -55 -110.5t-22 -137.5q0 -86 49 -124.5t157 -38.5q158 0 246 83t119 261z" glyph-name="adieresis" horiz-adv-x="1009" unicode="ä"/><glyph d="M666 1288q-113 0 -158 41t-45 125q0 96 41 156q57 78 198 78q113 0 158 -41t45 -123q0 -98 -43 -158q-53 -78 -196 -78zM567 1573q-29 -39 -28 -109q0 -57 29.5 -83.5t103.5 -26.5q96 0 129 49q29 39 28 110q0 57 -29.5 84t-103.5 27q-94 0 -129 -51zM584 1147 q160 0 235.5 -62.5t75.5 -195.5q0 -55 -12 -129l-133 -764l-84 -8l12 143h-12q-100 -152 -328 -151q-152 0 -223.5 60t-71.5 189q0 92 34 179.5t87 140.5q96 96 301 96h295l22 123q10 51 11 109q0 98 -51.5 139t-174.5 41q-104 0 -293 -35l-6 86q207 39 316 39zM721 414 l24 141h-317q-137 0 -201 -74q-33 -39 -55 -110.5t-22 -137.5q0 -86 49 -124.5t157 -38.5q158 0 246 83t119 261z" glyph-name="aring" horiz-adv-x="1009" unicode="å"/><glyph d="M1266 1147q168 0 247.5 -81t79.5 -253q0 -98 -28 -258l-6 -31h-746q-14 -92 -14 -170q0 -152 67.5 -218t220.5 -66q137 0 355 69l6 -92q-217 -68 -375 -67q-303 0 -362 241h-17q-96 -242 -385 -241q-297 0 -297 237q0 231 133 340q106 88 289 88h297l21 123q10 53 10 109 q0 98 -51.5 139t-173.5 41q-104 0 -293 -35l-6 86q207 39 311 39q274 0 309 -201q140 201 408 201zM829 612h644q18 117 18 199q0 135 -54.5 190.5t-187.5 55.5q-178 0 -274.5 -101.5t-145.5 -343.5zM690 414l25 141h-318q-123 0 -186 -59q-39 -39 -65.5 -114t-26.5 -146 q0 -88 47 -127t153 -39q310 0 371 344z" glyph-name="ae" horiz-adv-x="1667" unicode="æ"/><glyph d="M395 975q-80 -78 -138 -260.5t-58 -360.5q0 -158 61.5 -221t212.5 -63q127 0 217 28l-2 -94q-80 -25 -201 -24q-29 0 -73 4l-49 -113q170 -6 170 -127q0 -37 -14.5 -85t-35.5 -75q-55 -76 -202 -76q-57 0 -109 19l16 82q43 -16 107 -17q80 0 111 37q35 37 34 107 q0 55 -73 55h-109l76 203q-242 57 -242 348q0 205 68.5 405.5t171.5 294.5q113 104 344 105q111 0 190 -29l-18 -86q-74 25 -186 25q-181 0 -269 -82z" glyph-name="ccedilla" horiz-adv-x="890" unicode="ç"/><glyph d="M702 1296h-71l-189 383h105zM659 1147q174 0 255 -82t81 -258q0 -102 -28 -252l-6 -31h-748q-12 -80 -12 -157q0 -160 66.5 -228.5t221.5 -68.5q137 0 355 69l6 -92q-217 -68 -375 -67q-197 0 -288 94t-91 295q0 176 59.5 361t147.5 282q123 135 356 135zM231 612h643 q20 129 21 205q0 131 -54.5 185.5t-183.5 54.5q-188 0 -282 -107q-93 -105 -144 -338z" glyph-name="egrave" horiz-adv-x="1069" unicode="è"/><glyph d="M1028 1679l-323 -383h-76l291 383h108zM659 1147q174 0 255 -82t81 -258q0 -102 -28 -252l-6 -31h-748q-12 -80 -12 -157q0 -160 66.5 -228.5t221.5 -68.5q137 0 355 69l6 -92q-217 -68 -375 -67q-197 0 -288 94t-91 295q0 176 59.5 361t147.5 282q123 135 356 135z M231 612h643q20 129 21 205q0 131 -54.5 185.5t-183.5 54.5q-188 0 -282 -107q-93 -105 -144 -338z" glyph-name="eacute" horiz-adv-x="1069" unicode="é"/><glyph d="M727 1608l-309 -320h-78l340 383h111l202 -383h-69zM659 1147q174 0 255 -82t81 -258q0 -102 -28 -252l-6 -31h-748q-12 -80 -12 -157q0 -160 66.5 -228.5t221.5 -68.5q137 0 355 69l6 -92q-217 -68 -375 -67q-197 0 -288 94t-91 295q0 176 59.5 361t147.5 282 q123 135 356 135zM231 612h643q20 129 21 205q0 131 -54.5 185.5t-183.5 54.5q-188 0 -282 -107q-93 -105 -144 -338z" glyph-name="ecircumflex" horiz-adv-x="1069" unicode="ê"/><glyph d="M569 1518l-22 -127h-127l22 127h127zM975 1518l-23 -127h-127l23 127h127zM659 1147q174 0 255 -82t81 -258q0 -102 -28 -252l-6 -31h-748q-12 -80 -12 -157q0 -160 66.5 -228.5t221.5 -68.5q137 0 355 69l6 -92q-217 -68 -375 -67q-197 0 -288 94t-91 295 q0 176 59.5 361t147.5 282q123 135 356 135zM231 612h643q20 129 21 205q0 131 -54.5 185.5t-183.5 54.5q-188 0 -282 -107q-93 -105 -144 -338z" glyph-name="edieresis" horiz-adv-x="1069" unicode="ë"/><glyph d="M317 1296l-188 383h104l156 -383h-72zM377 1126l-199 -1126h-102l198 1126h103z" glyph-name="igrave" horiz-adv-x="448" unicode="ì"/><glyph d="M315 1296l291 383h109l-324 -383h-76zM377 1126l-199 -1126h-102l198 1126h103z" glyph-name="iacute" horiz-adv-x="448" unicode="í"/><glyph d="M680 1288h-70l-196 320l-310 -320h-77l340 383h110zM76 0l198 1126h103l-199 -1126h-102z" glyph-name="icircumflex" horiz-adv-x="448" unicode="î"/><glyph d="M129 1518h127l-23 -127h-127zM535 1518h127l-23 -127h-127zM377 1126l-199 -1126h-102l198 1126h103z" glyph-name="idieresis" horiz-adv-x="448" unicode="ï"/><glyph d="M864 1303q43 -92 45 -97q76 -178 76 -385q0 -201 -51 -397.5t-129 -298.5q-111 -145 -354 -145q-195 0 -282 79.5t-87 262.5q0 176 63.5 368.5t151.5 278.5q102 100 311 100q174 0 244 -78h27q-14 82 -66 201q-18 43 -41 88l-323 -80l-15 86l293 74q-51 90 -115 176h117 q16 -27 92 -154l207 52l16 -86zM739 186q53 82 99.5 263.5t46.5 306.5q0 123 -61.5 173t-211.5 50q-176 0 -252 -72q-70 -68 -124 -250t-54 -344q0 -137 56.5 -190t207.5 -53q117 0 184.5 27.5t108.5 88.5z" glyph-name="eth" horiz-adv-x="1091" unicode="ð"/><glyph d="M604 1483q-80 0 -121 -131h-67q14 94 64 148t120 54q63 0 113 -41l88 -73q18 -16 43 -17q78 0 121 133h69q-16 -94 -67.5 -149t-118.5 -55q-55 0 -111 45l-86 69q-22 17 -47 17zM700 1147q160 0 235 -61.5t75 -196.5q0 -66 -19 -170l-127 -719h-102l127 723q14 80 14 143 q0 104 -50 147.5t-173 43.5q-170 0 -257 -81t-120 -265l-125 -711h-102l198 1130l84 9l-14 -162h14q51 90 131 130t211 40z" glyph-name="ntilde" horiz-adv-x="1124" unicode="ñ"/><glyph d="M664 1296l-189 383h105l155 -383h-71zM481 -20q-199 0 -290 86t-91 274q0 203 63.5 401.5t158.5 292.5q115 113 342 113q199 0 289.5 -86t90.5 -273q0 -201 -63 -399.5t-156 -294.5q-113 -114 -344 -114zM475 70q188 0 279 86q78 74 134 263t56 363q0 152 -61.5 213.5 t-212.5 61.5q-190 0 -279 -86q-78 -74 -134 -263.5t-56 -363.5q0 -152 61 -213t213 -61z" glyph-name="ograve" horiz-adv-x="1142" unicode="ò"/><glyph d="M662 1296l290 383h109l-324 -383h-75zM481 -20q-199 0 -290 86t-91 274q0 203 63.5 401.5t158.5 292.5q115 113 342 113q199 0 289.5 -86t90.5 -273q0 -201 -63 -399.5t-156 -294.5q-113 -114 -344 -114zM475 70q188 0 279 86q78 74 134 263t56 363q0 152 -61.5 213.5 t-212.5 61.5q-190 0 -279 -86q-78 -74 -134 -263.5t-56 -363.5q0 -152 61 -213t213 -61z" glyph-name="oacute" horiz-adv-x="1142" unicode="ó"/><glyph d="M760 1608l-309 -320h-78l340 383h110l203 -383h-70zM664 1147q199 0 289.5 -86t90.5 -273q0 -201 -63 -399.5t-156 -294.5q-113 -115 -344 -114q-199 0 -290 86t-91 274q0 203 63.5 401.5t158.5 292.5q115 113 342 113zM754 156q78 74 134 263t56 363q0 152 -61.5 213.5 t-212.5 61.5q-190 0 -279 -86q-78 -74 -134 -263.5t-56 -363.5q0 -152 61.5 -213t212.5 -61q189 0 279 86z" glyph-name="ocircumflex" horiz-adv-x="1142" unicode="ô"/><glyph d="M858 1352q-55 0 -110 45l-86 69q-23 16 -48 17q-80 0 -120 -131h-68q14 94 64.5 148t119.5 54q63 0 113 -41l88 -73q18 -16 43 -17q78 0 121 133h69q-16 -94 -67 -149t-119 -55zM481 -20q-199 0 -290 86t-91 274q0 203 63.5 401.5t158.5 292.5q115 113 342 113 q199 0 289.5 -86t90.5 -273q0 -201 -63 -399.5t-156 -294.5q-113 -114 -344 -114zM475 70q188 0 279 86q78 74 134 263t56 363q0 152 -61.5 213.5t-212.5 61.5q-190 0 -279 -86q-78 -74 -134 -263.5t-56 -363.5q0 -152 61 -213t213 -61z" glyph-name="otilde" horiz-adv-x="1142" unicode="õ"/><glyph d="M475 1518h127l-22 -127h-127zM881 1518h127l-23 -127h-127zM481 -20q-199 0 -290 86t-91 274q0 203 63.5 401.5t158.5 292.5q115 113 342 113q199 0 289.5 -86t90.5 -273q0 -201 -63 -399.5t-156 -294.5q-113 -114 -344 -114zM475 70q188 0 279 86q78 74 134 263t56 363 q0 152 -61.5 213.5t-212.5 61.5q-190 0 -279 -86q-78 -74 -134 -263.5t-56 -363.5q0 -152 61 -213t213 -61z" glyph-name="odieresis" horiz-adv-x="1142" unicode="ö"/><glyph d="M588 827l26 144h144l-27 -144h-143zM188 528l17 93h837l-16 -93h-838zM473 178l27 144h143l-27 -144h-143z" glyph-name="divide" horiz-adv-x="1228" unicode="÷"/><glyph d="M918 1090q127 -82 126 -302q0 -201 -63 -399.5t-156 -294.5q-113 -115 -344 -114q-106 0 -174 22l-57 -104h-100l77 139q-127 84 -127 303q0 203 63.5 401.5t158.5 292.5q115 113 342 113q106 0 174 -23l57 105h100zM201 344q0 -166 73 -223l519 923q-51 12 -123 13 q-190 0 -279 -86q-78 -74 -134 -263.5t-56 -363.5zM754 156q78 74 134 263t56 363q0 166 -74 224l-518 -924q53 -12 123 -12q189 0 279 86z" glyph-name="oslash" horiz-adv-x="1142" unicode="ø"/><glyph d="M715 1296h-72l-188 383h104zM928 1126h102l-199 -1130l-83 -8l14 162h-12q-55 -94 -137.5 -132t-204.5 -38q-158 0 -224.5 58t-66.5 191q0 78 18 179l127 718h103l-127 -723q-16 -94 -17 -149q0 -104 50.5 -144t160.5 -40q158 0 247 77.5t124 270.5z" glyph-name="ugrave" horiz-adv-x="1103" unicode="ù"/><glyph d="M1040 1679l-323 -383h-76l291 383h108zM803 418l125 708h102l-199 -1130l-83 -8l14 162h-12q-55 -94 -137.5 -132t-204.5 -38q-158 0 -224.5 58t-66.5 191q0 78 18 179l127 718h103l-127 -723q-16 -94 -17 -149q0 -104 50.5 -144t160.5 -40q158 0 247 77.5t124 270.5z " glyph-name="uacute" horiz-adv-x="1103" unicode="ú"/><glyph d="M739 1608l-309 -320h-78l340 383h111l203 -383h-70zM928 1126h102l-199 -1130l-83 -8l14 162h-12q-55 -94 -137.5 -132t-204.5 -38q-158 0 -224.5 58t-66.5 191q0 78 18 179l127 718h103l-127 -723q-16 -94 -17 -149q0 -104 50.5 -144t160.5 -40q158 0 247 77.5 t124 270.5z" glyph-name="ucircumflex" horiz-adv-x="1103" unicode="û"/><glyph d="M582 1518l-23 -127h-127l23 127h127zM987 1518l-22 -127h-127l22 127h127zM928 1126h102l-199 -1130l-83 -8l14 162h-12q-55 -94 -137.5 -132t-204.5 -38q-158 0 -224.5 58t-66.5 191q0 78 18 179l127 718h103l-127 -723q-16 -94 -17 -149q0 -104 50.5 -144t160.5 -40 q158 0 247 77.5t124 270.5z" glyph-name="udieresis" horiz-adv-x="1103" unicode="ü"/><glyph d="M958 1679l-323 -383h-76l291 383h108zM901 1126h111l-633 -1249q-68 -135 -160 -200.5t-231 -65.5q-29 0 -82 4l22 86q41 -4 62 -4q104 0 176 49t129 164l53 108h-53l-164 1108h111l135 -1020h16z" glyph-name="yacute" horiz-adv-x="942" unicode="ý"/><glyph d="M666 1147q184 0 264 -92t80 -271q0 -170 -56.5 -369.5t-156.5 -308.5q-119 -127 -336 -126q-193 0 -246 116h-20l-82 -465h-103l336 1905h103l-91 -516h15q96 127 293 127zM727 164q82 92 131 288.5t49 346.5q0 145 -60.5 201.5t-193.5 56.5q-145 0 -228 -67.5 t-116 -244.5l-63 -356q-10 -51 -10 -115q0 -115 58 -159.5t171 -44.5q176 0 262 94z" glyph-name="thorn" horiz-adv-x="1105" unicode="þ"/><glyph d="M500 1518l-23 -127h-127l23 127h127zM905 1518l-22 -127h-127l22 127h127zM901 1126h111l-633 -1249q-68 -135 -160 -200.5t-231 -65.5q-29 0 -82 4l22 86q41 -4 62 -4q104 0 176 49t129 164l53 108h-53l-164 1108h111l135 -1020h16z" glyph-name="ydieresis" horiz-adv-x="942" unicode="ÿ"/><glyph d="M569 1800h494l-16 -88h-494zM848 1434l160 -1434h-111l-41 424h-582l-190 -424h-111l664 1434h211zM317 516h531l-82 825h-76z" glyph-name="Amacron" horiz-adv-x="1177" unicode="Ā"/><glyph d="M440 1493h494l-16 -88h-494zM584 1147q160 0 235.5 -62.5t75.5 -195.5q0 -55 -12 -129l-133 -764l-84 -8l12 143h-12q-100 -152 -328 -151q-152 0 -223.5 60t-71.5 189q0 92 34 179.5t87 140.5q96 96 301 96h295l22 123q10 51 11 109q0 98 -51.5 139t-174.5 41 q-104 0 -293 -35l-6 86q207 39 316 39zM721 414l24 141h-317q-137 0 -201 -74q-33 -39 -55 -110.5t-22 -137.5q0 -86 49 -124.5t157 -38.5q158 0 246 83t119 261z" glyph-name="amacron" horiz-adv-x="1009" unicode="ā"/><glyph d="M1049 1942h81l-6 -31q-27 -154 -108.5 -212.5t-220.5 -58.5q-258 0 -258 197q0 25 8 82l4 23h84l-8 -41q-6 -31 -7 -58q0 -135 173 -135q215 0 251 201zM848 1434l160 -1434h-111l-41 424h-582l-190 -424h-111l664 1434h211zM317 516h531l-82 825h-76z" glyph-name="Abreve" horiz-adv-x="1177" unicode="Ă"/><glyph d="M920 1634h81l-6 -30q-27 -154 -108.5 -212.5t-220.5 -58.5q-258 0 -258 197q0 25 8 82l4 22h84l-8 -41q-6 -31 -7 -57q0 -135 173 -135q215 0 251 201zM584 1147q160 0 235.5 -62.5t75.5 -195.5q0 -55 -12 -129l-133 -764l-84 -8l12 143h-12q-100 -152 -328 -151 q-152 0 -223.5 60t-71.5 189q0 92 34 179.5t87 140.5q96 96 301 96h295l22 123q10 51 11 109q0 98 -51.5 139t-174.5 41q-104 0 -293 -35l-6 86q207 39 316 39zM721 414l24 141h-317q-137 0 -201 -74q-33 -39 -55 -110.5t-22 -137.5q0 -86 49 -124.5t157 -38.5q158 0 246 83 t119 261z" glyph-name="abreve" horiz-adv-x="1009" unicode="ă"/><glyph d="M864 -211q0 -117 166 -117l-2 -82q-84 0 -160 31q-102 41 -102 158q0 129 131 227l-41 418h-582l-190 -424h-111l664 1434h211l160 -1434q-144 -102 -144 -211zM317 516h531l-82 825h-76z" glyph-name="Aogonek" horiz-adv-x="1177" unicode="Ą"/><glyph d="M750 -4q-115 -88 -132 -180q-6 -20 -0.5 -45t18.5 -46.5t51 -37t95 -15.5l-2 -82q-84 0 -159 31q-123 51 -99 201q20 115 146 198l10 111h-12q-100 -152 -328 -151q-152 0 -223.5 60t-71.5 189q0 92 34 179.5t87 140.5q96 96 301 96h295l22 123q10 51 11 109 q0 98 -51.5 139t-174.5 41q-104 0 -293 -35l-6 86q207 39 316 39q160 0 235.5 -62.5t75.5 -195.5q0 -55 -12 -129zM356 70q158 0 246 83t119 261l24 141h-317q-137 0 -201 -74q-33 -39 -55 -110.5t-22 -137.5q0 -86 48.5 -124.5t157.5 -38.5z" glyph-name="aogonek" horiz-adv-x="1009" unicode="ą"/><glyph d="M739 1604l291 383h109l-324 -383h-76zM600 -20q-231 0 -342 110.5t-111 345.5q0 246 77 490.5t194 371.5q143 156 422 156q129 0 229 -41l-18 -92q-76 39 -209 39q-236 0 -353 -135q-96 -109 -164.5 -337.5t-68.5 -438.5q0 -201 81 -288t269 -87q137 0 240 47l4 -98 q-94 -43 -250 -43z" glyph-name="Cacute" horiz-adv-x="1054" unicode="Ć"/><glyph d="M571 1296l291 383h109l-324 -383h-76zM487 -20q-203 0 -298 88t-95 274q0 205 68.5 405.5t171.5 294.5q113 104 344 105q111 0 190 -29l-18 -86q-74 25 -186 25q-180 0 -269 -82q-80 -78 -138 -260.5t-58 -360.5q0 -158 61.5 -221t212.5 -63q127 0 217 28l-2 -94 q-80 -24 -201 -24z" glyph-name="cacute" horiz-adv-x="890" unicode="ć"/><glyph d="M758 1825h127l-23 -127h-127zM600 -20q-231 0 -342 110.5t-111 345.5q0 246 77 490.5t194 371.5q143 156 422 156q129 0 229 -41l-18 -92q-76 39 -209 39q-236 0 -353 -135q-96 -109 -164.5 -337.5t-68.5 -438.5q0 -201 81 -288t269 -87q137 0 240 47l4 -98 q-94 -43 -250 -43z" glyph-name="Cdotaccent" horiz-adv-x="1054" unicode="Ċ"/><glyph d="M590 1518h127l-23 -127h-127zM487 -20q-203 0 -298 88t-95 274q0 205 68.5 405.5t171.5 294.5q113 104 344 105q111 0 190 -29l-18 -86q-74 25 -186 25q-180 0 -269 -82q-80 -78 -138 -260.5t-58 -360.5q0 -158 61.5 -221t212.5 -63q127 0 217 28l-2 -94 q-80 -24 -201 -24z" glyph-name="cdotaccent" horiz-adv-x="890" unicode="ċ"/><glyph d="M727 1595l-207 383h72l196 -319l310 319h76l-336 -383h-111zM418 1298q143 156 422 156q129 0 229 -41l-18 -92q-76 39 -209 39q-236 0 -353 -135q-96 -109 -164.5 -337.5t-68.5 -438.5q0 -201 81 -288t269 -87q137 0 240 47l4 -98q-94 -43 -250 -43q-231 0 -342 110.5 t-111 345.5q0 246 77 490.5t194 371.5z" glyph-name="Ccaron" horiz-adv-x="1054" unicode="Č"/><glyph d="M559 1288l-207 383h72l197 -319l309 319h76l-336 -383h-111zM334 1042q113 104 344 105q111 0 190 -29l-18 -86q-74 25 -186 25q-180 0 -269 -82q-80 -78 -138 -260.5t-58 -360.5q0 -158 61.5 -221t212.5 -63q127 0 217 28l-2 -94q-80 -25 -201 -24q-203 0 -298 88 t-95 274q0 205 69 405.5t171 294.5z" glyph-name="ccaron" horiz-adv-x="890" unicode="č"/><glyph d="M737 1595l-207 383h72l197 -319l309 319h76l-336 -383h-111zM760 1434q451 0 450 -463q0 -217 -65.5 -438.5t-165.5 -346.5q-150 -186 -459 -186h-401l252 1434h389zM895 248q88 113 147.5 319.5t59.5 395.5q0 205 -84 297t-266 92h-289l-223 -1270h286q242 0 369 166z " glyph-name="Dcaron" horiz-adv-x="1300" unicode="Ď"/><glyph d="M911 1030l90 506h103l-273 -1542l-81 -8l12 139h-12q-94 -145 -310 -145q-174 0 -258 88t-84 268q0 203 64.5 402.5t161.5 293.5q115 115 323 115q195 0 246 -117h18zM1276 1536h127l-23 -127l-80 -186h-77l75 186h-45zM864 758q8 49 8 98q0 106 -54 153.5t-177 47.5 q-174 0 -256 -92q-74 -80 -129 -268.5t-55 -358.5q0 -147 56 -207.5t196 -60.5q154 0 234.5 71.5t109.5 233.5z" glyph-name="dcaron" horiz-adv-x="1105" unicode="ď"/><glyph d="M760 1434q451 0 450 -463q0 -217 -65.5 -438.5t-165.5 -346.5q-150 -186 -459 -186h-401l117 670h-181l17 92h180l119 672h389zM895 248q88 113 147.5 319.5t59.5 395.5q0 205 -84 297t-266 92h-289l-105 -590h338l-16 -92h-338l-102 -588h286q242 0 369 166z" glyph-name="Dcroat" horiz-adv-x="1300" unicode="Đ"/><glyph d="M1303 1360l-17 -88h-229l-226 -1278l-81 -8l12 139h-12q-94 -145 -310 -145q-174 0 -258 88t-84 268q0 203 64.5 402.5t161.5 293.5q115 115 323 115q195 0 246 -117h18l43 242h-245l16 88h246l30 176h103l-31 -176h230zM864 758q8 49 8 98q0 106 -54 153.5t-177 47.5 q-174 0 -256 -92q-74 -80 -129 -268.5t-55 -358.5q0 -147 56 -207.5t196 -60.5q154 0 234.5 71.5t109.5 233.5z" glyph-name="dcroat" horiz-adv-x="1105" unicode="đ"/><glyph d="M1018 1800l-17 -88h-493l16 88h494zM1016 1434l-17 -93h-538l-96 -553h507l-16 -92h-508l-106 -604h563l-17 -92h-669l252 1434h645z" glyph-name="Emacron" horiz-adv-x="995" unicode="Ē"/><glyph d="M954 1493l-16 -88h-494l17 88h493zM659 1147q174 0 255 -82t81 -258q0 -102 -28 -252l-6 -31h-748q-12 -80 -12 -157q0 -160 66.5 -228.5t221.5 -68.5q137 0 355 69l6 -92q-217 -68 -375 -67q-197 0 -288 94t-91 295q0 176 59.5 361t147.5 282q123 135 356 135zM231 612 h643q20 129 21 205q0 131 -54.5 185.5t-183.5 54.5q-188 0 -282 -107q-93 -105 -144 -338z" glyph-name="emacron" horiz-adv-x="1069" unicode="ē"/><glyph d="M838 1825l-23 -127h-127l23 127h127zM999 1341h-538l-96 -553h507l-16 -92h-508l-106 -604h563l-17 -92h-669l252 1434h645z" glyph-name="Edotaccent" horiz-adv-x="995" unicode="Ė"/><glyph d="M774 1518l-22 -127h-127l22 127h127zM659 1147q174 0 255 -82t81 -258q0 -102 -28 -252l-6 -31h-748q-12 -80 -12 -157q0 -160 66.5 -228.5t221.5 -68.5q137 0 355 69l6 -92q-217 -68 -375 -67q-197 0 -288 94t-91 295q0 176 59.5 361t147.5 282q123 135 356 135z M231 612h643q20 129 21 205q0 131 -54.5 185.5t-183.5 54.5q-188 0 -282 -107q-93 -105 -144 -338z" glyph-name="edotaccent" horiz-adv-x="1069" unicode="ė"/><glyph d="M999 1341h-538l-96 -553h507l-16 -92h-508l-106 -604h563l-17 -92h-94q-143 -102 -143 -211q0 -117 166 -117l-2 -82q-84 0 -160 31q-102 41 -102 158q0 127 122 221h-456l252 1434h645z" glyph-name="Eogonek" horiz-adv-x="995" unicode="Ę"/><glyph d="M659 1147q174 0 255 -82t81 -258q0 -102 -28 -252l-6 -31h-748q-12 -80 -12 -157q0 -160 66.5 -228.5t221.5 -68.5q137 0 355 69l6 -92q-20 -6 -102 -29q-117 -88 -132 -182q-6 -20 -0.5 -44.5t18.5 -46t51 -37t95 -15.5l-2 -82q-88 0 -160 31q-123 51 -100 200 q14 80 80 146q-57 -8 -123 -8q-197 0 -288 94t-91 295q0 176 59.5 361t147.5 282q123 135 356 135zM231 612h643q20 129 21 205q0 131 -54.5 185.5t-183.5 54.5q-188 0 -282 -107q-93 -105 -144 -338z" glyph-name="eogonek" horiz-adv-x="1069" unicode="ę"/><glyph d="M680 1595l-207 383h72l196 -319l310 319h75l-335 -383h-111zM1016 1434l-17 -93h-538l-96 -553h507l-16 -92h-508l-106 -604h563l-17 -92h-669l252 1434h645z" glyph-name="Ecaron" horiz-adv-x="995" unicode="Ě"/><glyph d="M616 1288l-206 383h71l197 -319l309 319h76l-336 -383h-111zM659 1147q174 0 255 -82t81 -258q0 -102 -28 -252l-6 -31h-748q-12 -80 -12 -157q0 -160 66.5 -228.5t221.5 -68.5q137 0 355 69l6 -92q-217 -68 -375 -67q-197 0 -288 94t-91 295q0 176 59.5 361t147.5 282 q123 135 356 135zM231 612h643q20 129 21 205q0 131 -54.5 185.5t-183.5 54.5q-188 0 -282 -107q-93 -105 -144 -338z" glyph-name="ecaron" horiz-adv-x="1069" unicode="ě"/><glyph d="M893 1915l-309 -320h-78l340 383h110l203 -383h-69zM514 1251q-109 -102 -181.5 -334.5t-72.5 -467.5q0 -201 68.5 -290t222.5 -89q174 0 260 70.5t115 234.5l55 309h-236l17 92h338l-139 -782l-80 -8l10 137h-8q-117 -143 -332 -143q-399 0 -399 442q0 283 80.5 535.5 t207.5 363.5q147 133 414 133q172 0 307 -47l-18 -94q-141 47 -289 47q-223 0 -340 -109z" glyph-name="Gcircumflex" horiz-adv-x="1210" unicode="Ĝ"/><glyph d="M729 1608l-309 -320h-78l340 383h111l202 -383h-69zM1133 1126l-9 -47l-223 -39q84 -51 84 -194q0 -96 -36 -197.5t-93 -159.5q-106 -111 -330 -110q-145 0 -225 41l-59 -47q-61 -47 -62 -101q0 -70 121 -69h201q231 0 335.5 -54.5t104.5 -175.5q0 -186 -127 -274 t-397 -88q-242 0 -349.5 49t-107.5 160q0 227 211 295l2 16q-94 35 -94 131q0 88 104 164l52 37q-68 70 -68 199q0 111 41 220t106 171q100 94 324 94q106 0 174 -21h320zM786 553q41 47 70 140t29 181q0 102 -53.5 142.5t-188.5 40.5q-182 0 -254 -66q-49 -47 -83 -143 t-34 -191q0 -106 53.5 -147t190.5 -41q198 0 270 84zM483 113q-219 0 -318 -66.5t-99 -214.5q0 -74 77.5 -102.5t274.5 -28.5q225 0 322.5 60.5t97.5 203.5q0 84 -77 116t-278 32z" glyph-name="gcircumflex" horiz-adv-x="1085" unicode="ĝ"/><glyph d="M1106 1942h82l-6 -31q-27 -154 -109 -212.5t-221 -58.5q-258 0 -258 197q0 25 8 82l4 23h84l-8 -41q-6 -31 -6 -58q0 -135 172 -135q215 0 252 201zM440 1321q147 133 414 133q172 0 307 -47l-18 -94q-141 47 -289 47q-223 0 -340 -109q-109 -102 -181.5 -334.5 t-72.5 -467.5q0 -201 68.5 -290t222.5 -89q174 0 260 70.5t115 234.5l55 309h-236l17 92h338l-139 -782l-80 -8l10 137h-8q-117 -143 -332 -143q-399 0 -399 442q0 283 80.5 535.5t207.5 363.5z" glyph-name="Gbreve" horiz-adv-x="1210" unicode="Ğ"/><glyph d="M688 1333q-258 0 -258 197q0 25 8 82l4 22h84l-8 -41q-6 -31 -6 -57q0 -135 172 -135q215 0 252 201l6 32h82l-6 -30q-27 -154 -109 -212.5t-221 -58.5zM1133 1126l-9 -47l-223 -39q84 -51 84 -194q0 -96 -36 -197.5t-93 -159.5q-106 -111 -330 -110q-145 0 -225 41 l-59 -47q-61 -47 -62 -101q0 -70 121 -69h201q231 0 335.5 -54.5t104.5 -175.5q0 -186 -127 -274t-397 -88q-242 0 -349.5 49t-107.5 160q0 227 211 295l2 16q-94 35 -94 131q0 88 104 164l52 37q-68 70 -68 199q0 111 41 220t106 171q100 94 324 94q106 0 174 -21h320z M786 553q41 47 70 140t29 181q0 102 -53.5 142.5t-188.5 40.5q-182 0 -254 -66q-49 -47 -83 -143t-34 -191q0 -106 53.5 -147t190.5 -41q198 0 270 84zM483 113q-219 0 -318 -66.5t-99 -214.5q0 -74 77.5 -102.5t274.5 -28.5q225 0 322.5 60.5t97.5 203.5q0 84 -77 116 t-278 32z" glyph-name="gbreve" horiz-adv-x="1085" unicode="ğ"/><glyph d="M940 1825l-22 -127h-127l22 127h127zM514 1251q-109 -102 -181.5 -334.5t-72.5 -467.5q0 -201 68.5 -290t222.5 -89q174 0 260 70.5t115 234.5l55 309h-236l17 92h338l-139 -782l-80 -8l10 137h-8q-117 -143 -332 -143q-399 0 -399 442q0 283 80.5 535.5t207.5 363.5 q147 133 414 133q172 0 307 -47l-18 -94q-141 47 -289 47q-223 0 -340 -109z" glyph-name="Gdotaccent" horiz-adv-x="1210" unicode="Ġ"/><glyph d="M776 1518l-22 -127h-127l22 127h127zM1133 1126l-9 -47l-223 -39q84 -51 84 -194q0 -96 -36 -197.5t-93 -159.5q-106 -111 -330 -110q-145 0 -225 41l-59 -47q-61 -47 -62 -101q0 -70 121 -69h201q231 0 335.5 -54.5t104.5 -175.5q0 -186 -127 -274t-397 -88 q-242 0 -349.5 49t-107.5 160q0 227 211 295l2 16q-94 35 -94 131q0 88 104 164l52 37q-68 70 -68 199q0 111 41 220t106 171q100 94 324 94q106 0 174 -21h320zM786 553q41 47 70 140t29 181q0 102 -53.5 142.5t-188.5 40.5q-182 0 -254 -66q-49 -47 -83 -143t-34 -191 q0 -106 53.5 -147t190.5 -41q198 0 270 84zM483 113q-219 0 -318 -66.5t-99 -214.5q0 -74 77.5 -102.5t274.5 -28.5q225 0 322.5 60.5t97.5 203.5q0 84 -77 116t-278 32z" glyph-name="gdotaccent" horiz-adv-x="1085" unicode="ġ"/><glyph d="M514 1251q-109 -102 -181.5 -334.5t-72.5 -467.5q0 -201 68.5 -290t222.5 -89q174 0 260 70.5t115 234.5l55 309h-236l17 92h338l-139 -782l-80 -8l10 137h-8q-117 -143 -332 -143q-399 0 -399 442q0 283 80.5 535.5t207.5 363.5q147 133 414 133q172 0 307 -47l-18 -94 q-141 47 -289 47q-223 0 -340 -109zM446 -279l23 127h127l-23 -127l-84 -188h-77l80 188h-46z" glyph-name="Gcommaaccent" horiz-adv-x="1210" unicode="Ģ"/><glyph d="M776 1520l-22 -127h-127l22 127l82 186h76l-76 -186h45zM1133 1126l-9 -47l-223 -39q84 -51 84 -194q0 -96 -36 -197.5t-93 -159.5q-106 -111 -330 -110q-145 0 -225 41l-59 -47q-61 -47 -62 -101q0 -70 121 -69h201q231 0 335.5 -54.5t104.5 -175.5q0 -186 -127 -274 t-397 -88q-242 0 -349.5 49t-107.5 160q0 227 211 295l2 16q-94 35 -94 131q0 88 104 164l52 37q-68 70 -68 199q0 111 41 220t106 171q100 94 324 94q106 0 174 -21h320zM786 553q41 47 70 140t29 181q0 102 -53.5 142.5t-188.5 40.5q-182 0 -254 -66q-49 -47 -83 -143 t-34 -191q0 -106 53.5 -147t190.5 -41q198 0 270 84zM483 113q-219 0 -318 -66.5t-99 -214.5q0 -74 77.5 -102.5t274.5 -28.5q225 0 322.5 60.5t97.5 203.5q0 84 -77 116t-278 32z" glyph-name="gcommaaccent" horiz-adv-x="1085" unicode="ģ"/><glyph d="M897 1915l-309 -320h-78l340 383h111l202 -383h-69zM1147 1434h106l-252 -1434h-106l123 696h-670l-123 -696h-106l252 1434h106l-112 -646h669z" glyph-name="Hcircumflex" horiz-adv-x="1316" unicode="Ĥ"/><glyph d="M492 1966l-310 -319h-78l340 383h111l203 -383h-70zM711 1147q160 0 229.5 -58.5t69.5 -193.5q0 -72 -19 -176l-127 -719h-102l127 723q14 80 14 143q0 104 -50 147.5t-169 43.5q-170 0 -259 -82t-122 -262l-125 -713h-102l270 1536h103l-97 -545h15q100 156 344 156z " glyph-name="hcircumflex" horiz-adv-x="1124" unicode="ĥ"/><glyph d="M1423 1174l-16 -93h-215l-191 -1081h-106l123 696h-670l-123 -696h-106l190 1081h-217l17 93h217l45 260h106l-45 -260h670l45 260h106l-45 -260h215zM1034 788l51 293h-669l-51 -293h669z" glyph-name="Hbar" horiz-adv-x="1316" unicode="Ħ"/><glyph d="M711 1147q160 0 229.5 -58.5t69.5 -193.5q0 -72 -19 -176l-127 -719h-102l127 723q14 80 14 143q0 104 -50 147.5t-169 43.5q-170 0 -259 -82t-122 -262l-125 -713h-102l223 1274h-193l15 88h194l31 174h103l-31 -174h327l-14 -88h-330l-49 -283h15q100 156 344 156z" glyph-name="hbar" horiz-adv-x="1124" unicode="ħ"/><glyph d="M608 1659q-55 0 -110 45l-86 70q-23 16 -47 16q-80 0 -121 -131h-68q14 94 64.5 148.5t119.5 54.5q63 0 113 -41l88 -74q18 -16 43 -16q78 0 121 133h70q-16 -94 -67.5 -149.5t-119.5 -55.5zM477 1434l-252 -1434h-106l252 1434h106z" glyph-name="Itilde" horiz-adv-x="540" unicode="Ĩ"/><glyph d="M512 1352q-55 0 -111 45l-86 69q-23 16 -47 17q-80 0 -121 -131h-67q14 94 64.5 148t119.5 54q63 0 113 -41l88 -73q18 -16 43 -17q78 0 121 133h69q-16 -94 -67 -149t-119 -55zM377 1126l-199 -1126h-102l198 1126h103z" glyph-name="itilde" horiz-adv-x="448" unicode="ĩ"/><glyph d="M244 1800h493l-16 -88h-494zM477 1434l-252 -1434h-106l252 1434h106z" glyph-name="Imacron" horiz-adv-x="540" unicode="Ī"/><glyph d="M147 1493h494l-16 -88h-494zM377 1126l-199 -1126h-102l198 1126h103z" glyph-name="imacron" horiz-adv-x="448" unicode="ī"/><glyph d="M469 1640q-258 0 -258 197q0 25 8 82l4 23h84l-8 -41q-6 -31 -6 -58q0 -135 172 -135q215 0 252 201l6 33h82l-6 -31q-27 -154 -109 -212.5t-221 -58.5zM477 1434l-252 -1434h-106l252 1434h106z" glyph-name="Ibreve" horiz-adv-x="540" unicode="Ĭ"/><glyph d="M373 1333q-258 0 -258 197q0 25 8 82l4 22h84l-8 -41q-6 -31 -6 -57q0 -135 172 -135q215 0 252 201l6 32h82l-7 -30q-27 -154 -108.5 -212.5t-220.5 -58.5zM377 1126l-199 -1126h-102l198 1126h103z" glyph-name="ibreve" horiz-adv-x="448" unicode="ĭ"/><glyph d="M82 -211q0 -117 166 -117l-2 -82q-84 0 -160 31q-102 41 -102 158q0 135 137 231l250 1424h106l-252 -1434q-143 -102 -143 -211z" glyph-name="Iogonek" horiz-adv-x="540" unicode="Į"/><glyph d="M330 1518h129l-23 -129h-129zM178 0q-143 -102 -143 -211q0 -117 166 -117l-2 -82q-84 0 -160 31q-102 41 -102 158q0 139 141 235l196 1112h103z" glyph-name="iogonek" horiz-adv-x="448" unicode="į"/><glyph d="M430 1825h127l-22 -127h-127zM477 1434l-252 -1434h-106l252 1434h106z" glyph-name="Idotaccent" horiz-adv-x="540" unicode="İ"/><glyph d="M377 1126l-199 -1126h-102l198 1126h103z" glyph-name="dotlessi" horiz-adv-x="448" unicode="ı"/><glyph d="M477 1434l-252 -1434h-106l252 1434h106zM614 -20q-94 0 -149 16l18 94q59 -16 135 -16q80 0 126.5 48t68.5 173l201 1139h106l-200 -1147q-27 -150 -97 -228.5t-209 -78.5z" glyph-name="IJ" horiz-adv-x="1177" unicode="Ĳ"/><glyph d="M330 1518h129l-23 -129h-129zM805 1389l22 129h129l-22 -129h-129zM377 1126l-199 -1126h-102l198 1126h103zM356 -389q-61 0 -106 12l18 90q49 -12 113 -12q84 0 121 47t59 178l211 1200h100l-213 -1208q-31 -172 -91 -239.5t-212 -67.5z" glyph-name="ij" horiz-adv-x="946" unicode="ĳ"/><glyph d="M881 1595h-70l-197 320l-309 -320h-78l340 383h111zM272 295l201 1139h107l-201 -1147q-27 -150 -96.5 -228.5t-208.5 -78.5q-94 0 -150 16l19 94q59 -16 135 -16q80 0 125.5 48t68.5 173z" glyph-name="Jcircumflex" horiz-adv-x="636" unicode="Ĵ"/><glyph d="M676 1288h-70l-196 320l-310 -320h-77l339 383h111zM63 -74l211 1200h101l-213 -1208q-31 -172 -91.5 -239.5t-211.5 -67.5q-61 0 -107 12l19 90q49 -12 112 -12q84 0 120.5 47t59.5 178z" glyph-name="jcircumflex" horiz-adv-x="448" unicode="ĵ"/><glyph d="M1169 1434l-628 -689l411 -745h-116l-392 696h-96l-123 -696h-106l252 1434h106l-112 -646h88l591 646h125zM401 -279l23 127h127l-23 -127l-84 -188h-77l79 188h-45z" glyph-name="Kcommaaccent" horiz-adv-x="1089" unicode="Ķ"/><glyph d="M979 1126l-541 -510l379 -616h-112l-353 575h-73l-101 -575h-102l270 1536h103l-154 -872h72l493 462h119zM324 -279l22 127h127l-22 -127l-84 -188h-78l80 188h-45z" glyph-name="kcommaaccent" horiz-adv-x="917" unicode="ķ"/><glyph d="M819 1987l-323 -383h-76l291 383h108zM477 1434l-235 -1342h477l-17 -92h-583l252 1434h106z" glyph-name="Lacute" horiz-adv-x="872" unicode="Ĺ"/><glyph d="M383 1706l291 383h108l-323 -383h-76zM322 -20q-117 0 -167.5 40.5t-50.5 133.5q0 45 13 112l223 1270h102l-225 -1278q-10 -66 -10 -98q0 -49 19.5 -69.5t70.5 -20.5q74 0 129 12v-92q-55 -10 -104 -10z" glyph-name="lacute" horiz-adv-x="573" unicode="ĺ"/><glyph d="M242 92h477l-17 -92h-583l252 1434h106zM250 -279l22 127h127l-22 -127l-84 -188h-78l80 188h-45z" glyph-name="Lcommaaccent" horiz-adv-x="872" unicode="Ļ"/><glyph d="M207 160q0 -49 19.5 -69.5t70.5 -20.5q74 0 129 12v-92q-55 -10 -104 -10q-117 0 -167.5 40.5t-50.5 133.5q0 45 13 112l223 1270h102l-225 -1278q-10 -65 -10 -98zM92 -279l23 127h127l-23 -127l-84 -188h-78l80 188h-45z" glyph-name="lcommaaccent" horiz-adv-x="573" unicode="ļ"/><glyph d="M477 1434l-235 -1342h477l-17 -92h-583l252 1434h106zM666 1434h127l-23 -127l-84 -187h-78l80 187h-45z" glyph-name="Lcaron" horiz-adv-x="872" unicode="Ľ"/><glyph d="M442 1536l-225 -1278q-10 -66 -10 -98q0 -49 19.5 -69.5t70.5 -20.5q74 0 129 12v-92q-55 -10 -104 -10q-117 0 -167.5 40.5t-50.5 133.5q0 45 13 112l223 1270h102zM621 1536h127l-23 -127l-80 -186h-78l76 186h-45z" glyph-name="lcaron" horiz-adv-x="573" unicode="ľ"/><glyph d="M242 92h477l-17 -92h-583l252 1434h106zM659 864l-28 -153h-144l29 153h143z" glyph-name="Ldot" horiz-adv-x="872" unicode="Ŀ"/><glyph d="M322 -20q-117 0 -167.5 40.5t-50.5 133.5q0 45 13 112l223 1270h102l-225 -1278q-10 -66 -10 -98q0 -49 19.5 -69.5t70.5 -20.5q74 0 129 12v-92q-55 -10 -104 -10zM408 711l28 153h144l-29 -153h-143z" glyph-name="ldot" horiz-adv-x="608" unicode="ŀ"/><glyph d="M242 92h477l-17 -92h-583l110 633l-221 -98l17 94l221 96l125 709h106l-115 -658l308 135l-15 -92l-309 -137z" glyph-name="Lslash" horiz-adv-x="872" unicode="Ł"/><glyph d="M307 770l-90 -512q-10 -66 -10 -98q0 -49 19.5 -69.5t70.5 -20.5q74 0 129 12v-92q-55 -10 -104 -10q-117 0 -167.5 40.5t-50.5 133.5q0 45 13 112l78 449l-203 -101l14 91l205 100l129 731h102l-118 -676l276 137l-16 -92z" glyph-name="lslash" horiz-adv-x="573" unicode="ł"/><glyph d="M1208 1987l-323 -383h-76l291 383h108zM1163 1434h107l-252 -1434h-203l-326 1341h-28l-236 -1341h-106l252 1434h204l324 -1342h29z" glyph-name="Nacute" horiz-adv-x="1333" unicode="Ń"/><glyph d="M1051 1679l-324 -383h-76l291 383h109zM700 1147q160 0 235 -61.5t75 -196.5q0 -66 -19 -170l-127 -719h-102l127 723q14 80 14 143q0 104 -50 147.5t-173 43.5q-170 0 -257 -81t-120 -265l-125 -711h-102l198 1130l84 9l-14 -162h14q51 90 131 130t211 40z" glyph-name="nacute" horiz-adv-x="1124" unicode="ń"/><glyph d="M1163 1434h107l-252 -1434h-203l-326 1341h-28l-236 -1341h-106l252 1434h204l324 -1342h29zM461 -279l22 127h127l-22 -127l-84 -188h-78l80 188h-45z" glyph-name="Ncommaaccent" horiz-adv-x="1333" unicode="Ņ"/><glyph d="M700 1147q160 0 235 -61.5t75 -196.5q0 -66 -19 -170l-127 -719h-102l127 723q14 80 14 143q0 104 -50 147.5t-173 43.5q-170 0 -257 -81t-120 -265l-125 -711h-102l198 1130l84 9l-14 -162h14q51 90 131 130t211 40zM356 -279l23 127h127l-23 -127l-84 -188h-77l79 188 h-45z" glyph-name="ncommaaccent" horiz-adv-x="1124" unicode="ņ"/><glyph d="M797 1595l-207 383h72l196 -319l309 319h76l-336 -383h-110zM1163 1434h107l-252 -1434h-203l-326 1341h-28l-236 -1341h-106l252 1434h204l324 -1342h29z" glyph-name="Ncaron" horiz-adv-x="1333" unicode="Ň"/><glyph d="M639 1288l-207 383h72l196 -319l310 319h75l-335 -383h-111zM700 1147q160 0 235 -61.5t75 -196.5q0 -66 -19 -170l-127 -719h-102l127 723q14 80 14 143q0 104 -50 147.5t-173 43.5q-170 0 -257 -81t-120 -265l-125 -711h-102l198 1130l84 9l-14 -162h14q51 90 131 130 t211 40z" glyph-name="ncaron" horiz-adv-x="1124" unicode="ň"/><glyph d="M1163 1434h107l-266 -1516q-27 -152 -98.5 -229.5t-215.5 -77.5q-84 0 -141 16l20 94q61 -16 133 -16q80 0 127.5 48t69.5 173l12 74h-96l-326 1341h-28l-236 -1341h-106l252 1434h204l324 -1342h29z" glyph-name="Eng" horiz-adv-x="1333" unicode="Ŋ"/><glyph d="M700 1147q160 0 235 -61.5t75 -196.5q0 -80 -19 -170l-141 -801q-31 -172 -91.5 -239.5t-211.5 -67.5q-59 0 -109 12l19 90q51 -12 114 -12q84 0 120 46t59 179l139 797q14 74 14 143q0 104 -50 147.5t-173 43.5q-170 0 -257 -81t-120 -265l-125 -711h-102l198 1130l84 9 l-14 -162h14q51 90 131 130t211 40z" glyph-name="eng" horiz-adv-x="1124" unicode="ŋ"/><glyph d="M657 1800h494l-16 -88h-494zM594 -20q-233 0 -338.5 109.5t-105.5 355t86 506.5t204 376q133 127 387 127q233 0 338 -108.5t105 -350.5q0 -238 -81 -495.5t-194 -378.5q-131 -141 -401 -141zM588 74q250 0 362 151q84 113 146.5 348.5t62.5 434.5q0 190 -74.5 271 t-250.5 81q-229 0 -340 -125q-94 -104 -164 -345t-70 -456q0 -195 75 -277.5t253 -82.5z" glyph-name="Omacron" horiz-adv-x="1363" unicode="Ō"/><glyph d="M494 1493h493l-16 -88h-494zM481 -20q-199 0 -290 86t-91 274q0 203 63.5 401.5t158.5 292.5q115 113 342 113q199 0 289.5 -86t90.5 -273q0 -201 -63 -399.5t-156 -294.5q-113 -114 -344 -114zM475 70q188 0 279 86q78 74 134 263t56 363q0 152 -61.5 213.5t-212.5 61.5 q-190 0 -279 -86q-78 -74 -134 -263.5t-56 -363.5q0 -152 61 -213t213 -61z" glyph-name="omacron" horiz-adv-x="1142" unicode="ō"/><glyph d="M883 1640q-258 0 -258 197q0 25 8 82l4 23h84l-8 -41q-6 -31 -6 -58q0 -135 172 -135q215 0 251 201l7 33h82l-7 -31q-27 -154 -108.5 -212.5t-220.5 -58.5zM594 -20q-233 0 -338.5 109.5t-105.5 355t86 506.5t204 376q133 127 387 127q233 0 338 -108.5t105 -350.5 q0 -238 -81 -495.5t-194 -378.5q-131 -141 -401 -141zM588 74q250 0 362 151q84 113 146.5 348.5t62.5 434.5q0 190 -74.5 271t-250.5 81q-229 0 -340 -125q-94 -104 -164 -345t-70 -456q0 -195 75 -277.5t253 -82.5z" glyph-name="Obreve" horiz-adv-x="1363" unicode="Ŏ"/><glyph d="M719 1333q-258 0 -258 197q0 25 8 82l4 22h84l-8 -41q-6 -31 -6 -57q0 -135 172 -135q215 0 252 201l6 32h82l-6 -30q-27 -154 -109 -212.5t-221 -58.5zM481 -20q-199 0 -290 86t-91 274q0 203 63.5 401.5t158.5 292.5q115 113 342 113q199 0 289.5 -86t90.5 -273 q0 -201 -63 -399.5t-156 -294.5q-113 -114 -344 -114zM475 70q188 0 279 86q78 74 134 263t56 363q0 152 -61.5 213.5t-212.5 61.5q-190 0 -279 -86q-78 -74 -134 -263.5t-56 -363.5q0 -152 61 -213t213 -61z" glyph-name="obreve" horiz-adv-x="1142" unicode="ŏ"/><glyph d="M678 1604l291 383h108l-323 -383h-76zM989 1604l291 383h109l-324 -383h-76zM594 -20q-233 0 -338.5 109.5t-105.5 355t86 506.5t204 376q133 127 387 127q233 0 338 -108.5t105 -350.5q0 -238 -81 -495.5t-194 -378.5q-131 -141 -401 -141zM588 74q250 0 362 151 q84 113 146.5 348.5t62.5 434.5q0 190 -74.5 271t-250.5 81q-229 0 -340 -125q-94 -104 -164 -345t-70 -456q0 -195 75 -277.5t253 -82.5z" glyph-name="Ohungarumlaut" horiz-adv-x="1363" unicode="Ő"/><glyph d="M514 1296l291 383h108l-323 -383h-76zM825 1296l291 383h109l-324 -383h-76zM481 -20q-199 0 -290 86t-91 274q0 203 63.5 401.5t158.5 292.5q115 113 342 113q199 0 289.5 -86t90.5 -273q0 -201 -63 -399.5t-156 -294.5q-113 -114 -344 -114zM475 70q188 0 279 86 q78 74 134 263t56 363q0 152 -61.5 213.5t-212.5 61.5q-190 0 -279 -86q-78 -74 -134 -263.5t-56 -363.5q0 -152 61 -213t213 -61z" glyph-name="ohungarumlaut" horiz-adv-x="1142" unicode="ő"/><glyph d="M1880 1341h-539l-96 -553h508l-16 -92h-508l-107 -604h564l-17 -92h-670l29 164q-145 -184 -442 -184q-236 0 -337.5 109.5t-101.5 328.5q0 242 80 515t211 392q143 129 387 129q305 0 396 -194l30 174h645zM946 221q100 121 155.5 354.5t55.5 432.5q0 201 -79 276.5 t-249 75.5q-215 0 -335 -123q-106 -111 -171 -361.5t-65 -459.5q0 -193 80 -267.5t252 -74.5q233 0 356 147z" glyph-name="OE" horiz-adv-x="1875" unicode="Œ"/><glyph d="M1464 1147q174 0 255 -81t81 -253q0 -104 -31 -258l-6 -31h-745q-14 -84 -14 -164q0 -156 67.5 -223t220.5 -67q139 0 355 69l6 -92q-217 -68 -375 -67q-311 0 -367 235q-68 -125 -171 -180t-259 -55q-199 0 -289 89t-90 287q0 170 54.5 357.5t136.5 287.5 q119 145 373 146q168 0 258 -59.5t114 -184.5q39 80 82 119q127 125 344 125zM811 225q55 98 95 260t40 312q0 143 -63.5 201.5t-208.5 58.5q-221 0 -309 -119q-66 -86 -114 -268.5t-48 -333.5q0 -147 62.5 -206.5t211.5 -59.5q246 -1 334 155zM1032 612h645q20 133 21 201 q0 131 -55.5 187.5t-184.5 56.5q-180 0 -274 -101q-101 -106 -152 -344z" glyph-name="oe" horiz-adv-x="1871" unicode="œ"/><glyph d="M1112 1987l-324 -383h-75l291 383h108zM1073 1135q0 -119 -46 -238t-138 -182q-74 -47 -168 -66l272 -649h-119l-260 635q-66 -4 -108 -4h-170l-111 -631h-106l252 1434h317q203 0 294 -73.5t91 -225.5zM821 784q70 53 107 155.5t37 197.5q0 123 -70 169t-213 46h-219 l-113 -639h156q223 -1 315 71z" glyph-name="Racute" horiz-adv-x="1144" unicode="Ŕ"/><glyph d="M854 1679l-324 -383h-75l290 383h109zM358 977q117 170 353 170q29 0 43 -2l-23 -111q-41 23 -106 23q-127 0 -213 -107.5t-117 -290.5l-117 -659h-102l198 1130l84 9l-14 -162h14z" glyph-name="racute" horiz-adv-x="673" unicode="ŕ"/><glyph d="M889 715q-74 -47 -168 -66l272 -649h-119l-260 635q-66 -4 -108 -4h-170l-111 -631h-106l252 1434h317q203 0 294 -74t91 -225q0 -119 -46 -238t-138 -182zM350 713h156q223 0 315 71q70 53 107 155.5t37 197.5q0 123 -70 169t-213 46h-219zM365 -279l22 127h127 l-22 -127l-84 -188h-78l80 188h-45z" glyph-name="Rcommaaccent" horiz-adv-x="1144" unicode="Ŗ"/><glyph d="M711 1147q29 0 43 -2l-23 -111q-41 23 -106 23q-127 0 -213 -107.5t-117 -290.5l-117 -659h-102l198 1130l84 9l-14 -162h14q117 170 353 170zM160 -279l22 127h127l-22 -127l-84 -188h-78l80 188h-45z" glyph-name="rcommaaccent" horiz-adv-x="673" unicode="ŗ"/><glyph d="M700 1595l-206 383h71l197 -319l309 319h76l-336 -383h-111zM1073 1135q0 -119 -46 -238t-138 -182q-74 -47 -168 -66l272 -649h-119l-260 635q-66 -4 -108 -4h-170l-111 -631h-106l252 1434h317q203 0 294 -73.5t91 -225.5zM821 784q70 53 107 155.5t37 197.5 q0 123 -70 169t-213 46h-219l-113 -639h156q223 -1 315 71z" glyph-name="Rcaron" horiz-adv-x="1144" unicode="Ř"/><glyph d="M442 1288l-206 383h71l197 -319l309 319h76l-336 -383h-111zM358 977q117 170 353 170q29 0 43 -2l-23 -111q-41 23 -106 23q-127 0 -213 -107.5t-117 -290.5l-117 -659h-102l198 1130l84 9l-14 -162h14z" glyph-name="rcaron" horiz-adv-x="673" unicode="ř"/><glyph d="M592 1604l291 383h108l-323 -383h-76zM346 -20q-174 0 -334 49l19 96q166 -51 303 -51q164 0 254 83t90 228q0 96 -76 172l-311 307q-86 86 -86 207q0 182 119.5 282.5t337.5 100.5q133 0 278 -27l-16 -92q-156 25 -258 25q-350 0 -351 -279q0 -86 60 -145l305 -297 q59 -57 83.5 -112.5t24.5 -133.5q0 -186 -119.5 -299.5t-322.5 -113.5z" glyph-name="Sacute" horiz-adv-x="931" unicode="Ś"/><glyph d="M502 1296l291 383h108l-323 -383h-76zM268 -20q-102 0 -260 22l19 92q137 -25 239 -24q158 0 223 49q84 63 84 186q0 76 -59 125l-278 236q-76 68 -76 165q0 70 28.5 138.5t81.5 111.5q84 66 262 66q104 0 248 -25l-18 -90q-137 25 -234 25q-147 0 -202 -56 q-63 -63 -64 -176q0 -59 53 -104l256 -213q106 -90 107 -205q0 -70 -32 -140.5t-87 -113.5q-90 -69 -291 -69z" glyph-name="sacute" horiz-adv-x="817" unicode="ś"/><glyph d="M690 1915l-309 -320h-78l340 383h111l202 -383h-69zM205 1071q0 182 119.5 282.5t337.5 100.5q133 0 278 -27l-16 -92q-156 25 -258 25q-350 0 -351 -279q0 -86 60 -145l305 -297q59 -57 83.5 -112.5t24.5 -133.5q0 -186 -119.5 -299.5t-322.5 -113.5q-174 0 -334 49 l19 96q166 -51 303 -51q164 0 254 83t90 228q0 96 -76 172l-311 307q-86 86 -86 207z" glyph-name="Scircumflex" horiz-adv-x="931" unicode="Ŝ"/><glyph d="M664 1671l202 -383h-69l-197 320l-309 -320h-78l340 383h111zM270 1081q84 66 262 66q104 0 248 -25l-18 -90q-137 25 -234 25q-147 0 -202 -56q-63 -63 -64 -176q0 -59 53 -104l256 -213q106 -90 107 -205q0 -70 -32 -140.5t-87 -113.5q-90 -70 -291 -69q-102 0 -260 22 l19 92q137 -25 239 -24q158 0 223 49q84 63 84 186q0 76 -59 125l-278 236q-76 68 -76 165q0 70 28.5 138.5t81.5 111.5z" glyph-name="scircumflex" horiz-adv-x="817" unicode="ŝ"/><glyph d="M666 1360q-350 0 -351 -279q0 -86 60 -145l305 -297q59 -57 83.5 -112.5t24.5 -133.5q0 -178 -111.5 -291.5t-299.5 -121.5l-47 -109q170 -6 170 -127q0 -37 -14.5 -85t-34.5 -75q-55 -76 -203 -76q-57 0 -109 19l17 82q43 -16 106 -17q80 0 111 37q35 37 35 107 q0 55 -74 55h-109l72 189q-145 6 -285 49l19 96q166 -51 303 -51q164 0 254 83t90 228q0 96 -76 172l-311 307q-86 86 -86 207q0 182 119.5 282.5t337.5 100.5q133 0 278 -27l-16 -92q-156 25 -258 25z" glyph-name="Scedilla" horiz-adv-x="931" unicode="Ş"/><glyph d="M528 1057q-147 0 -202 -56q-63 -63 -64 -176q0 -59 53 -104l256 -213q106 -90 107 -205q0 -70 -32 -140.5t-87 -113.5q-78 -57 -215 -67l-49 -111q170 -6 170 -127q0 -37 -14.5 -85t-34.5 -75q-55 -76 -203 -76q-57 0 -109 19l17 82q43 -16 106 -17q80 0 111 37 q35 37 35 107q0 55 -74 55h-109l72 189q-100 0 -254 22l19 92q137 -25 239 -24q158 0 223 49q84 63 84 186q0 76 -59 125l-278 236q-76 68 -76 165q0 70 28.5 138.5t81.5 111.5q84 66 262 66q104 0 248 -25l-18 -90q-138 25 -234 25z" glyph-name="scedilla" horiz-adv-x="817" unicode="ş"/><glyph d="M580 1595l-207 383h71l197 -319l309 319h76l-336 -383h-110zM205 1071q0 182 119.5 282.5t337.5 100.5q133 0 278 -27l-16 -92q-156 25 -258 25q-350 0 -351 -279q0 -86 60 -145l305 -297q59 -57 83.5 -112.5t24.5 -133.5q0 -186 -119.5 -299.5t-322.5 -113.5 q-174 0 -334 49l19 96q166 -51 303 -51q164 0 254 83t90 228q0 96 -76 172l-311 307q-86 86 -86 207z" glyph-name="Scaron" horiz-adv-x="931" unicode="Š"/><glyph d="M489 1288l-206 383h71l197 -319l309 319h76l-336 -383h-111zM270 1081q84 66 262 66q104 0 248 -25l-18 -90q-137 25 -234 25q-147 0 -202 -56q-63 -63 -64 -176q0 -59 53 -104l256 -213q106 -90 107 -205q0 -70 -32 -140.5t-87 -113.5q-90 -70 -291 -69q-102 0 -260 22 l19 92q137 -25 239 -24q158 0 223 49q84 63 84 186q0 76 -59 125l-278 236q-76 68 -76 165q0 70 28.5 138.5t81.5 111.5z" glyph-name="scaron" horiz-adv-x="817" unicode="š"/><glyph d="M387 0h-18l-58 -129q170 -6 170 -127q0 -37 -14 -85t-35 -75q-55 -76 -203 -76q-57 0 -108 19l16 82q43 -16 107 -17q80 0 110 37q35 37 35 107q0 55 -74 55h-108l78 209h-4l235 1341h-328l17 93h760l-17 -93h-325z" glyph-name="Tcommaaccent" horiz-adv-x="862" unicode="Ţ"/><glyph d="M401 1038l-137 -780q-10 -68 -10 -98q0 -51 20.5 -70.5t67.5 -19.5q80 0 131 12v-92q-47 -10 -111 -10q-55 0 -90 8l-51 -117q170 -6 170 -127q0 -37 -14.5 -85t-34.5 -75q-55 -76 -203 -76q-57 0 -108 19l16 82q43 -16 107 -17q80 0 110 37q35 37 35 107q0 55 -74 55 h-108l86 229q-51 39 -51 136q0 49 12 110l135 772h-182l16 88h182l47 273h103l-47 -273h260l-16 -88h-261z" glyph-name="tcommaaccent" horiz-adv-x="665" unicode="ţ"/><glyph d="M561 1595l-207 383h72l197 -319l309 319h76l-336 -383h-111zM965 1434l-17 -93h-325l-236 -1341h-106l235 1341h-328l17 93h760z" glyph-name="Tcaron" horiz-adv-x="862" unicode="Ť"/><glyph d="M666 1536h127l-23 -127l-80 -186h-78l76 186h-45zM465 1399l-47 -273h260l-16 -88h-261l-137 -780q-10 -68 -10 -98q0 -51 20.5 -70.5t67.5 -19.5q80 0 131 12v-92q-47 -10 -111 -10q-113 0 -161.5 43t-48.5 133q0 49 12 110l135 772h-182l16 88h182l47 273h103z" glyph-name="tcaron" horiz-adv-x="665" unicode="ť"/><glyph d="M948 1341h-325l-103 -579h264l-16 -92h-264l-117 -670h-106l116 670h-254l17 92h254l102 579h-328l17 93h760z" glyph-name="Tbar" horiz-adv-x="862" unicode="Ŧ"/><glyph d="M662 1038h-261l-61 -352h260l-16 -92h-260l-60 -336q-10 -68 -10 -98q0 -51 20.5 -70.5t67.5 -19.5q80 0 131 12v-92q-47 -10 -111 -10q-113 0 -161.5 43t-48.5 133q0 49 12 110l57 328h-182l16 92h183l61 352h-182l16 88h182l47 273h103l-47 -273h260z" glyph-name="tbar" horiz-adv-x="665" unicode="ŧ"/><glyph d="M975 1659q-55 0 -111 45l-86 70q-23 16 -47 16q-80 0 -121 -131h-67q14 94 64 148.5t120 54.5q63 0 113 -41l88 -74q18 -16 43 -16q78 0 121 133h69q-16 -94 -67 -149.5t-119 -55.5zM555 -20q-211 0 -299 72.5t-88 230.5q0 82 18 182l170 969h107l-172 -979 q-18 -111 -19 -164q0 -125 68 -171t225 -46q178 0 261 85t118 287l172 988h107l-174 -994q-47 -266 -160 -363t-334 -97z" glyph-name="Utilde" horiz-adv-x="1271" unicode="Ũ"/><glyph d="M594 1483q-80 0 -121 -131h-67q14 94 64 148t120 54q63 0 112 -41l89 -73q18 -16 43 -17q78 0 120 133h70q-16 -94 -67.5 -149t-118.5 -55q-55 0 -111 45l-86 69q-22 17 -47 17zM928 1126h102l-199 -1130l-83 -8l14 162h-12q-55 -94 -137.5 -132t-204.5 -38 q-158 0 -224.5 58t-66.5 191q0 78 18 179l127 718h103l-127 -723q-16 -94 -17 -149q0 -104 50.5 -144t160.5 -40q158 0 247 77.5t124 270.5z" glyph-name="utilde" horiz-adv-x="1103" unicode="ũ"/><glyph d="M610 1800h494l-17 -88h-493zM555 -20q-211 0 -299 72.5t-88 230.5q0 82 18 182l170 969h107l-172 -979q-18 -111 -19 -164q0 -125 68 -171t225 -46q178 0 261 85t118 287l172 988h107l-174 -994q-47 -266 -160 -363t-334 -97z" glyph-name="Umacron" horiz-adv-x="1271" unicode="Ū"/><glyph d="M967 1493l-17 -88h-493l16 88h494zM928 1126h102l-199 -1130l-83 -8l14 162h-12q-55 -94 -137.5 -132t-204.5 -38q-158 0 -224.5 58t-66.5 191q0 78 18 179l127 718h103l-127 -723q-16 -94 -17 -149q0 -104 50.5 -144t160.5 -40q158 0 247 77.5t124 270.5z" glyph-name="umacron" horiz-adv-x="1103" unicode="ū"/><glyph d="M836 1640q-258 0 -258 197q0 25 8 82l4 23h84l-8 -41q-6 -31 -7 -58q0 -135 172 -135q215 0 252 201l7 33h81l-6 -31q-27 -154 -108.5 -212.5t-220.5 -58.5zM555 -20q-211 0 -299 72.5t-88 230.5q0 82 18 182l170 969h107l-172 -979q-18 -111 -19 -164q0 -125 68 -171 t225 -46q178 0 261 85t118 287l172 988h107l-174 -994q-47 -266 -160 -363t-334 -97z" glyph-name="Ubreve" horiz-adv-x="1271" unicode="Ŭ"/><glyph d="M698 1333q-258 0 -258 197q0 25 9 82l4 22h84l-9 -41q-6 -31 -6 -57q0 -135 172 -135q215 0 252 201l6 32h82l-6 -30q-27 -154 -109 -212.5t-221 -58.5zM803 418l125 708h102l-199 -1130l-83 -8l14 162h-12q-55 -94 -137.5 -132t-204.5 -38q-158 0 -224.5 58t-66.5 191 q0 78 18 179l127 718h103l-127 -723q-16 -94 -17 -149q0 -104 50.5 -144t160.5 -40q158 0 247 77.5t124 270.5z" glyph-name="ubreve" horiz-adv-x="1103" unicode="ŭ"/><glyph d="M836 1595q-113 0 -158 41t-45 125q0 96 41 156q57 78 198 78q113 0 158 -41t45 -123q0 -98 -43 -158q-53 -78 -196 -78zM842 1661q96 0 129 49q29 39 28 111q0 57 -29.5 83.5t-103.5 26.5q-94 0 -129 -51q-29 -39 -28 -108q0 -57 29.5 -84t103.5 -27zM555 -20 q-211 0 -299 72.5t-88 230.5q0 82 18 182l170 969h107l-172 -979q-18 -111 -19 -164q0 -125 68 -171t225 -46q178 0 261 85t118 287l172 988h107l-174 -994q-47 -266 -160 -363t-334 -97z" glyph-name="Uring" horiz-adv-x="1271" unicode="Ů"/><glyph d="M698 1288q-113 0 -157.5 41t-44.5 125q0 96 41 156q57 78 198 78q113 0 158 -41t45 -123q0 -98 -43 -158q-54 -78 -197 -78zM600 1573q-29 -39 -29 -109q0 -57 30 -83.5t104 -26.5q96 0 129 49q29 39 28 110q0 57 -29.5 84t-103.5 27q-94 0 -129 -51zM928 1126h102 l-199 -1130l-83 -8l14 162h-12q-55 -94 -137.5 -132t-204.5 -38q-158 0 -224.5 58t-66.5 191q0 78 18 179l127 718h103l-127 -723q-16 -94 -17 -149q0 -104 50.5 -144t160.5 -40q158 0 247 77.5t124 270.5z" glyph-name="uring" horiz-adv-x="1103" unicode="ů"/><glyph d="M631 1604l291 383h108l-323 -383h-76zM942 1604l291 383h108l-323 -383h-76zM555 -20q-211 0 -299 72.5t-88 230.5q0 82 18 182l170 969h107l-172 -979q-18 -111 -19 -164q0 -125 68 -171t225 -46q178 0 261 85t118 287l172 988h107l-174 -994q-47 -266 -160 -363 t-334 -97z" glyph-name="Uhungarumlaut" horiz-adv-x="1271" unicode="Ű"/><glyph d="M893 1679l-324 -383h-75l290 383h109zM881 1296h-76l291 383h108zM803 418l125 708h102l-199 -1130l-83 -8l14 162h-12q-55 -94 -137.5 -132t-204.5 -38q-158 0 -224.5 58t-66.5 191q0 78 18 179l127 718h103l-127 -723q-16 -94 -17 -149q0 -104 50.5 -144t160.5 -40 q158 0 247 77.5t124 270.5z" glyph-name="uhungarumlaut" horiz-adv-x="1103" unicode="ű"/><glyph d="M1116 1434h107l-174 -994q-37 -211 -115 -312t-211 -132q-137 -102 -137 -207q0 -117 166 -117l-2 -82q-84 0 -160 31q-102 41 -103 158q0 111 99 201h-31q-211 0 -299 72.5t-88 230.5q0 82 18 182l170 969h107l-172 -979q-18 -111 -19 -164q0 -125 68 -171t225 -46 q178 0 261 85t118 287z" glyph-name="Uogonek" horiz-adv-x="1271" unicode="Ų"/><glyph d="M700 -184q-6 -20 -0.5 -45t18.5 -46.5t51 -37t95 -15.5l-2 -82q-84 0 -160 31q-123 51 -98 201q20 115 146 198l12 130h-12q-55 -94 -137.5 -132t-204.5 -38q-158 0 -224.5 58t-66.5 191q0 78 18 179l127 718h103l-127 -723q-16 -94 -17 -149q0 -104 50.5 -144t160.5 -40 q158 0 247 77.5t124 270.5l125 708h102l-199 -1130q-119 -90 -131 -180z" glyph-name="uogonek" horiz-adv-x="1103" unicode="ų"/><glyph d="M1106 1915l-309 -320h-78l340 383h110l203 -383h-69zM1700 1434h108l-538 -1434h-168l-86 1341h-29l-561 -1341h-168l-31 1434h105l16 -1342h33l551 1342h168l78 -1342h32z" glyph-name="Wcircumflex" horiz-adv-x="1732" unicode="Ŵ"/><glyph d="M977 1608l-309 -320h-78l340 383h110l203 -383h-69zM1538 1126h109l-486 -1126h-170l-114 1049h-3l-485 -1049h-170l-88 1126h109l67 -1048h27l483 1048h144l114 -1048h27z" glyph-name="wcircumflex" horiz-adv-x="1576" unicode="ŵ"/><glyph d="M791 1915l-310 -320h-78l340 383h111l203 -383h-70zM1196 1434l-590 -873l-98 -561h-107l99 561l-283 873h113l227 -748h31l491 748h117z" glyph-name="Ycircumflex" horiz-adv-x="1101" unicode="Ŷ"/><glyph d="M657 1608l-309 -320h-78l340 383h111l203 -383h-70zM901 1126h111l-633 -1249q-68 -135 -160 -200.5t-231 -65.5q-29 0 -82 4l22 86q41 -4 62 -4q104 0 176 49t129 164l53 108h-53l-164 1108h111l135 -1020h16z" glyph-name="ycircumflex" horiz-adv-x="942" unicode="ŷ"/><glyph d="M633 1825l-23 -127h-127l23 127h127zM1038 1825l-22 -127h-127l22 127h127zM1196 1434l-590 -873l-98 -561h-107l99 561l-283 873h113l227 -748h31l491 748h117z" glyph-name="Ydieresis" horiz-adv-x="1101" unicode="Ÿ"/><glyph d="M1042 1987l-323 -383h-76l291 383h108zM305 1434h750l-17 -93l-10 -59l-905 -1155l-6 -35h686l-17 -92h-792l16 92l10 60l906 1155l6 34h-643z" glyph-name="Zacute" horiz-adv-x="1003" unicode="Ź"/><glyph d="M909 1679l-323 -383h-76l291 383h108zM195 1038l16 88h633l-17 -88l-8 -49l-713 -870l-4 -31h576l-16 -88h-678l16 88l8 53l713 871l6 26h-532z" glyph-name="zacute" horiz-adv-x="841" unicode="ź"/><glyph d="M788 1825l-22 -127h-127l23 127h126zM305 1434h750l-17 -93l-10 -59l-905 -1155l-6 -35h686l-17 -92h-792l16 92l10 60l906 1155l6 34h-643z" glyph-name="Zdotaccent" horiz-adv-x="1003" unicode="Ż"/><glyph d="M655 1518l-22 -127h-127l22 127h127zM211 1126h633l-17 -88l-8 -49l-713 -870l-4 -31h576l-16 -88h-678l16 88l8 53l713 871l6 26h-532z" glyph-name="zdotaccent" horiz-adv-x="841" unicode="ż"/><glyph d="M631 1595l-207 383h72l196 -319l309 319h76l-336 -383h-110zM289 1341l16 93h750l-17 -93l-10 -59l-905 -1155l-6 -35h686l-17 -92h-792l16 92l10 60l906 1155l6 34h-643z" glyph-name="Zcaron" horiz-adv-x="1003" unicode="Ž"/><glyph d="M498 1288l-207 383h71l197 -319l309 319h76l-336 -383h-110zM195 1038l16 88h633l-17 -88l-8 -49l-713 -870l-4 -31h576l-16 -88h-678l16 88l8 53l713 871l6 26h-532z" glyph-name="zcaron" horiz-adv-x="841" unicode="ž"/><glyph d="M649 1548q68 0 115 -18l-16 -86q-49 14 -119 14q-94 0 -136 -50t-69 -196l-213 -1212h-102l182 1038h-205l16 88h205l17 95q35 199 99 263t226 64z" glyph-name="longs" horiz-adv-x="581" unicode="ſ"/><glyph d="M766 1548q68 0 115 -18l-17 -86q-49 14 -119 14q-94 0 -136 -50t-68 -196l-62 -348h256l-14 -88h-256l-152 -858q-31 -172 -91 -239.5t-212 -67.5q-29 0 -61 4l18 90q49 -4 68 -4q84 0 119.5 46t58.5 179l149 850h-204l14 88h205l63 357q35 199 99.5 263t226.5 64z" glyph-name="florin" horiz-adv-x="780" unicode="ƒ"/><glyph d="M1452 1628h84l-33 -184q-23 -131 -86 -192.5t-166 -73.5q18 -76 19 -183q0 -238 -81 -495.5t-194 -378.5q-131 -141 -401 -141q-233 0 -338.5 109.5t-105.5 355t86 506.5t204 376q133 127 387 127q317 0 404 -209q156 20 188 197zM950 225q84 113 146.5 348.5t62.5 434.5 q0 190 -74.5 271t-250.5 81q-229 0 -340 -125q-94 -104 -164 -345t-70 -456q0 -195 75 -277.5t253 -82.5q249 -1 362 151z" glyph-name="Ohorn" horiz-adv-x="1363" unicode="Ơ"/><glyph d="M1235 1374h84l-33 -184q-23 -131 -87 -192.5t-169 -73.5q14 -55 14 -136q0 -201 -63 -399.5t-156 -294.5q-113 -115 -344 -114q-199 0 -290 86t-91 274q0 203 63.5 401.5t158.5 292.5q115 113 342 113q264 0 342 -158q164 20 196 199zM754 156q78 74 134 263t56 363 q0 152 -61.5 213.5t-212.5 61.5q-190 0 -279 -86q-78 -74 -134 -263.5t-56 -363.5q0 -152 61.5 -213t212.5 -61q189 0 279 86z" glyph-name="ohorn" horiz-adv-x="1142" unicode="ơ"/><glyph d="M1468 1821h84l-32 -185q-27 -147 -103 -206.5t-207 -63.5l-161 -926q-47 -266 -160 -363t-334 -97q-211 0 -299 72.5t-88 230.5q0 82 18 182l170 969h107l-172 -979q-18 -111 -19 -164q0 -125 68 -171t225 -46q178 0 261 85t118 287l172 988h74q209 0 246 200z" glyph-name="Uhorn" horiz-adv-x="1271" unicode="Ư"/><glyph d="M1280 1513h84l-33 -184q-27 -150 -103.5 -208t-209.5 -62l-187 -1063l-83 -8l14 162h-12q-55 -94 -137.5 -132t-204.5 -38q-158 0 -224.5 58t-66.5 191q0 78 18 179l127 718h103l-127 -723q-16 -94 -17 -149q0 -104 50.5 -144t160.5 -40q158 0 247 77.5t124 270.5 l125 708h73q209 0 246 201z" glyph-name="uhorn" horiz-adv-x="1103" unicode="ư"/><glyph d="M1858 1595l-207 383h71l197 -319l309 319h76l-336 -383h-110zM760 1434q451 0 450 -463q0 -217 -65.5 -438.5t-165.5 -346.5q-150 -186 -459 -186h-401l252 1434h389zM1516 1341l16 93h749l-16 -93l-10 -59l-905 -1155l-7 -35h687l-17 -92h-792l16 92l10 60l905 1155 l7 34h-643zM895 248q88 113 147.5 319.5t59.5 395.5q0 205 -84 297t-266 92h-289l-223 -1270h286q242 0 369 166z" glyph-name="uni01C4" horiz-adv-x="2230" unicode="Ǆ"/><glyph d="M1767 1288l-206 383h71l197 -319l309 319h76l-336 -383h-111zM760 1434q451 0 450 -463q0 -217 -65.5 -438.5t-165.5 -346.5q-150 -186 -459 -186h-401l252 1434h389zM895 248q88 113 147.5 319.5t59.5 395.5q0 205 -84 297t-266 92h-289l-223 -1270h286q242 0 369 166z M1464 1038l17 88h633l-17 -88l-8 -49l-713 -870l-4 -31h576l-17 -88h-678l17 88l8 53l713 871l6 26h-533z" glyph-name="uni01C5" horiz-adv-x="2111" unicode="ǅ"/><glyph d="M1634 1288l-207 383h72l197 -319l309 319h76l-336 -383h-111zM911 1030l90 506h103l-273 -1542l-81 -8l12 139h-12q-94 -145 -310 -145q-174 0 -258 88t-84 268q0 203 64.5 402.5t161.5 293.5q115 115 323 115q195 0 246 -117h18zM1331 1038l17 88h632l-16 -88l-8 -49 l-713 -870l-4 -31h576l-17 -88h-678l17 88l8 53l713 871l6 26h-533zM864 758q8 49 8 98q0 106 -54 153.5t-177 47.5q-174 0 -256 -92q-74 -80 -129 -268.5t-55 -358.5q0 -147 56 -207.5t196 -60.5q154 0 234.5 71.5t109.5 233.5z" glyph-name="uni01C6" horiz-adv-x="1978" unicode="ǆ"/><glyph d="M477 1434l-235 -1342h477l-17 -92h-583l252 1434h106zM1346 1434h106l-201 -1147q-27 -150 -96.5 -228.5t-208.5 -78.5q-94 0 -149 16l18 94q59 -16 135 -16q80 0 126 48t69 173z" glyph-name="uni01C7" horiz-adv-x="1509" unicode="Ǉ"/><glyph d="M1202 1518h129l-22 -129h-129zM719 92l-17 -92h-583l252 1434h106l-235 -1342h477zM936 -74l211 1200h100l-213 -1208q-31 -172 -91 -239.5t-212 -67.5q-59 0 -106 12l18 90q49 -12 113 -12q84 0 120.5 47t59.5 178z" glyph-name="uni01C8" horiz-adv-x="1320" unicode="ǈ"/><glyph d="M322 -20q-117 0 -167.5 40.5t-50.5 133.5q0 45 13 112l223 1270h102l-225 -1278q-10 -66 -10 -98q0 -49 19.5 -69.5t70.5 -20.5q74 0 129 12v-92q-55 -10 -104 -10zM881 1389l22 129h129l-22 -129h-129zM432 -389q-59 0 -106 12l18 90q49 -12 113 -12q84 0 120.5 47 t59.5 178l211 1200h100l-213 -1208q-31 -172 -91 -239.5t-212 -67.5z" glyph-name="uni01C9" horiz-adv-x="1021" unicode="ǉ"/><glyph d="M1163 1434h107l-252 -1434h-203l-326 1341h-28l-236 -1341h-106l252 1434h204l324 -1342h29zM1806 1434h107l-201 -1147q-27 -150 -96.5 -228.5t-208.5 -78.5q-94 0 -150 16l19 94q59 -16 135 -16q80 0 126 48t69 173z" glyph-name="uni01CA" horiz-adv-x="1970" unicode="Ǌ"/><glyph d="M1663 1518h129l-23 -129h-129zM1163 1434h107l-252 -1434h-203l-326 1341h-28l-236 -1341h-106l252 1434h204l324 -1342h29zM1397 -74l211 1200h100l-213 -1208q-31 -172 -91.5 -239.5t-211.5 -67.5q-61 0 -107 12l19 90q49 -12 113 -12q84 0 120.5 47t59.5 178z" glyph-name="uni01CB" horiz-adv-x="1781" unicode="ǋ"/><glyph d="M1495 1518h129l-22 -129h-129zM1010 889q0 -66 -19 -170l-127 -719h-102l127 723q14 80 14 143q0 104 -50 147.5t-173 43.5q-170 0 -257 -81t-120 -265l-125 -711h-102l198 1130l84 9l-14 -162h14q51 90 131 130t211 40q160 0 235 -61.5t75 -196.5zM1229 -74l211 1200 h100l-213 -1208q-31 -172 -91 -239.5t-212 -67.5q-61 0 -106 12l18 90q49 -12 113 -12q84 0 120.5 47t59.5 178z" glyph-name="uni01CC" horiz-adv-x="1613" unicode="ǌ"/><glyph d="M725 1595l-207 383h72l196 -319l310 319h75l-335 -383h-111zM848 1434l160 -1434h-111l-41 424h-582l-190 -424h-111l664 1434h211zM317 516h531l-82 825h-76z" glyph-name="uni01CD" horiz-adv-x="1177" unicode="Ǎ"/><glyph d="M596 1288l-207 383h72l196 -319l310 319h75l-335 -383h-111zM584 1147q160 0 235.5 -62.5t75.5 -195.5q0 -55 -12 -129l-133 -764l-84 -8l12 143h-12q-100 -152 -328 -151q-152 0 -223.5 60t-71.5 189q0 92 34 179.5t87 140.5q96 96 301 96h295l22 123q10 51 11 109 q0 98 -51.5 139t-174.5 41q-104 0 -293 -35l-6 86q207 39 316 39zM721 414l24 141h-317q-137 0 -201 -74q-33 -39 -55 -110.5t-22 -137.5q0 -86 49 -124.5t157 -38.5q158 0 246 83t119 261z" glyph-name="uni01CE" horiz-adv-x="1009" unicode="ǎ"/><glyph d="M770 1978h76l-336 -383h-111l-206 383h71l197 -319zM119 0l252 1434h106l-252 -1434h-106z" glyph-name="uni01CF" horiz-adv-x="540" unicode="Ǐ"/><glyph d="M674 1671h76l-336 -383h-111l-207 383h72l197 -319zM76 0l198 1126h103l-199 -1126h-102z" glyph-name="uni01D0" horiz-adv-x="448" unicode="ǐ"/><glyph d="M813 1595l-207 383h72l196 -319l310 319h76l-336 -383h-111zM827 1454q233 0 338 -108.5t105 -350.5q0 -238 -81 -495.5t-194 -378.5q-131 -141 -401 -141q-233 0 -338.5 109.5t-105.5 355t86 506.5t204 376q133 127 387 127zM950 225q84 113 146.5 348.5t62.5 434.5 q0 190 -74.5 271t-250.5 81q-229 0 -340 -125q-94 -104 -164 -345t-70 -456q0 -195 75 -277.5t253 -82.5q249 -1 362 151z" glyph-name="uni01D1" horiz-adv-x="1363" unicode="Ǒ"/><glyph d="M649 1288l-207 383h72l197 -319l309 319h76l-336 -383h-111zM664 1147q199 0 289.5 -86t90.5 -273q0 -201 -63 -399.5t-156 -294.5q-113 -115 -344 -114q-199 0 -290 86t-91 274q0 203 63.5 401.5t158.5 292.5q115 113 342 113zM754 156q78 74 134 263t56 363 q0 152 -61.5 213.5t-212.5 61.5q-190 0 -279 -86q-78 -74 -134 -263.5t-56 -363.5q0 -152 61.5 -213t212.5 -61q189 0 279 86z" glyph-name="uni01D2" horiz-adv-x="1142" unicode="ǒ"/><glyph d="M766 1595l-207 383h72l196 -319l310 319h75l-335 -383h-111zM1116 1434h107l-174 -994q-47 -266 -160 -363t-334 -97q-211 0 -299 72.5t-88 230.5q0 82 18 182l170 969h107l-172 -979q-18 -111 -19 -164q0 -125 68 -171t225 -46q178 0 261 85t118 287z" glyph-name="uni01D3" horiz-adv-x="1271" unicode="Ǔ"/><glyph d="M629 1288l-207 383h72l196 -319l309 319h76l-336 -383h-110zM803 418l125 708h102l-199 -1130l-83 -8l14 162h-12q-55 -94 -137.5 -132t-204.5 -38q-158 0 -224.5 58t-66.5 191q0 78 18 179l127 718h103l-127 -723q-16 -94 -17 -149q0 -104 50.5 -144t160.5 -40 q158 0 247 77.5t124 270.5z" glyph-name="uni01D4" horiz-adv-x="1103" unicode="ǔ"/><glyph d="M659 2116h494l-16 -88h-494zM592 1825h127l-23 -127h-127zM997 1825h127l-22 -127h-127zM555 -20q-211 0 -299 72.5t-88 230.5q0 82 18 182l170 969h107l-172 -979q-18 -111 -19 -164q0 -125 68 -171t225 -46q178 0 261 85t118 287l172 988h107l-174 -994 q-47 -266 -160 -363t-334 -97z" glyph-name="uni01D5" horiz-adv-x="1271" unicode="Ǖ"/><glyph d="M1016 1808l-17 -88h-493l16 88h494zM582 1518l-23 -127h-127l23 127h127zM965 1391h-127l22 127h127zM928 1126h102l-199 -1130l-83 -8l14 162h-12q-55 -94 -137.5 -132t-204.5 -38q-158 0 -224.5 58t-66.5 191q0 78 18 179l127 718h103l-127 -723q-16 -94 -17 -149 q0 -104 50.5 -144t160.5 -40q158 0 247 77.5t124 270.5z" glyph-name="uni01D6" horiz-adv-x="1103" unicode="ǖ"/><glyph d="M846 1960l289 383h108l-321 -383h-76zM592 1825h127l-23 -127h-127zM997 1825h127l-22 -127h-127zM555 -20q-211 0 -299 72.5t-88 230.5q0 82 18 182l170 969h107l-172 -979q-18 -111 -19 -164q0 -125 68 -171t225 -46q178 0 261 85t118 287l172 988h107l-174 -994 q-47 -266 -160 -363t-334 -97z" glyph-name="uni01D7" horiz-adv-x="1271" unicode="Ǘ"/><glyph d="M1106 2036l-322 -383h-75l288 383h109zM582 1518l-23 -127h-127l23 127h127zM965 1391h-127l22 127h127zM803 418l125 708h102l-199 -1130l-83 -8l14 162h-12q-55 -94 -137.5 -132t-204.5 -38q-158 0 -224.5 58t-66.5 191q0 78 18 179l127 718h103l-127 -723 q-16 -94 -17 -149q0 -104 50.5 -144t160.5 -40q158 0 247 77.5t124 270.5z" glyph-name="uni01D8" horiz-adv-x="1103" unicode="ǘ"/><glyph d="M829 1960l-202 383h69l199 -320l309 320h76l-340 -383h-111zM719 1825l-23 -127h-127l23 127h127zM1102 1698h-127l22 127h127zM944 446l172 988h107l-174 -994q-47 -266 -160 -363t-334 -97q-211 0 -299 72.5t-88 230.5q0 82 18 182l170 969h107l-172 -979 q-18 -111 -19 -164q0 -125 68 -171t225 -46q178 0 261 84.5t118 287.5z" glyph-name="uni01D9" horiz-adv-x="1271" unicode="Ǚ"/><glyph d="M692 1653l-203 383h70l199 -320l309 320h76l-340 -383h-111zM582 1518l-23 -127h-127l23 127h127zM965 1391h-127l22 127h127zM803 418l125 708h102l-199 -1130l-83 -8l14 162h-12q-55 -94 -137.5 -132t-204.5 -38q-158 0 -224.5 58t-66.5 191q0 78 18 179l127 718h103 l-127 -723q-16 -94 -17 -149q0 -104 50.5 -144t160.5 -40q158 0 247 77.5t124 270.5z" glyph-name="uni01DA" horiz-adv-x="1103" unicode="ǚ"/><glyph d="M854 1960l-188 383h104l154 -383h-70zM569 1698l23 127h127l-23 -127h-127zM975 1698l22 127h127l-22 -127h-127zM555 -20q-211 0 -299 72.5t-88 230.5q0 82 18 182l170 969h107l-172 -979q-18 -111 -19 -164q0 -125 68 -171t225 -46q178 0 261 85t118 287l172 988h107 l-174 -994q-47 -266 -160 -363t-334 -97z" glyph-name="uni01DB" horiz-adv-x="1271" unicode="Ǜ"/><glyph d="M786 1653h-69l-189 383h105zM582 1518l-23 -127h-127l23 127h127zM987 1518l-22 -127h-127l22 127h127zM928 1126h102l-199 -1130l-83 -8l14 162h-12q-55 -94 -137.5 -132t-204.5 -38q-158 0 -224.5 58t-66.5 191q0 78 18 179l127 718h103l-127 -723q-16 -94 -17 -149 q0 -104 50.5 -144t160.5 -40q158 0 247 77.5t124 270.5z" glyph-name="uni01DC" horiz-adv-x="1103" unicode="ǜ"/><glyph d="M1272 1800l-17 -88h-493l16 88h494zM1405 1341h-537l-96 -553h506l-16 -92h-506l-107 -604h561l-16 -92h-668l74 424h-367l-208 -424h-105l719 1434h782zM616 516l146 825h-74l-407 -825h335z" glyph-name="uni01E2" horiz-adv-x="1400" unicode="Ǣ"/><glyph d="M782 1595l-207 383h72l197 -319l309 319h76l-336 -383h-111zM440 1321q147 133 414 133q172 0 307 -47l-18 -94q-141 47 -289 47q-223 0 -340 -109q-109 -102 -181.5 -334.5t-72.5 -467.5q0 -201 68.5 -290t222.5 -89q174 0 260 70.5t115 234.5l55 309h-236l17 92h338 l-139 -782l-80 -8l10 137h-8q-117 -143 -332 -143q-399 0 -399 442q0 283 80.5 535.5t207.5 363.5z" glyph-name="Gcaron" horiz-adv-x="1210" unicode="Ǧ"/><glyph d="M618 1288l-206 383h71l197 -319l309 319h76l-336 -383h-111zM1133 1126l-9 -47l-223 -39q84 -51 84 -194q0 -96 -36 -197.5t-93 -159.5q-106 -111 -330 -110q-145 0 -225 41l-59 -47q-61 -47 -62 -101q0 -70 121 -69h201q231 0 335.5 -54.5t104.5 -175.5 q0 -186 -127 -274t-397 -88q-242 0 -349.5 49t-107.5 160q0 227 211 295l2 16q-94 35 -94 131q0 88 104 164l52 37q-68 70 -68 199q0 111 41 220t106 171q100 94 324 94q106 0 174 -21h320zM786 553q41 47 70 140t29 181q0 102 -53.5 142.5t-188.5 40.5q-182 0 -254 -66 q-49 -47 -83 -143t-34 -191q0 -106 53.5 -147t190.5 -41q198 0 270 84zM483 113q-219 0 -318 -66.5t-99 -214.5q0 -74 77.5 -102.5t274.5 -28.5q225 0 322.5 60.5t97.5 203.5q0 84 -77 116t-278 32z" glyph-name="gcaron" horiz-adv-x="1085" unicode="ǧ"/><glyph d="M737 1595l-207 383h72l197 -319l309 319h76l-336 -383h-111zM1044 1434h125l-628 -689l411 -745h-116l-392 696h-96l-123 -696h-106l252 1434h106l-112 -646h88z" glyph-name="uni01E8" horiz-adv-x="1089" unicode="Ǩ"/><glyph d="M381 1647l-207 383h72l196 -320l310 320h75l-335 -383h-111zM979 1126l-541 -510l379 -616h-112l-353 575h-73l-101 -575h-102l270 1536h103l-154 -872h72l493 462h119z" glyph-name="uni01E9" horiz-adv-x="917" unicode="ǩ"/><glyph d="M760 1434q451 0 450 -463q0 -217 -65.5 -438.5t-165.5 -346.5q-150 -186 -459 -186h-401l252 1434h389zM1532 1434h749l-16 -93l-10 -59l-905 -1155l-7 -35h687l-17 -92h-792l16 92l10 60l905 1155l7 34h-643zM895 248q88 113 147.5 319.5t59.5 395.5q0 205 -84 297 t-266 92h-289l-223 -1270h286q242 0 369 166z" glyph-name="uni01F1" horiz-adv-x="2230" unicode="Ǳ"/><glyph d="M760 1434q451 0 450 -463q0 -217 -65.5 -438.5t-165.5 -346.5q-150 -186 -459 -186h-401l252 1434h389zM895 248q88 113 147.5 319.5t59.5 395.5q0 205 -84 297t-266 92h-289l-223 -1270h286q242 0 369 166zM1481 1126h633l-17 -88l-8 -49l-713 -870l-4 -31h576l-17 -88 h-678l17 88l8 53l713 871l6 26h-533z" glyph-name="uni01F2" horiz-adv-x="2111" unicode="ǲ"/><glyph d="M911 1030l90 506h103l-273 -1542l-81 -8l12 139h-12q-94 -145 -310 -145q-174 0 -258 88t-84 268q0 203 64.5 402.5t161.5 293.5q115 115 323 115q195 0 246 -117h18zM1348 1126h632l-16 -88l-8 -49l-713 -870l-4 -31h576l-17 -88h-678l17 88l8 53l713 871l6 26h-533z M864 758q8 49 8 98q0 106 -54 153.5t-177 47.5q-174 0 -256 -92q-74 -80 -129 -268.5t-55 -358.5q0 -147 56 -207.5t196 -60.5q154 0 234.5 71.5t109.5 233.5z" glyph-name="uni01F3" horiz-adv-x="1978" unicode="ǳ"/><glyph d="M1194 1987l-324 -383h-75l290 383h109zM440 1321q147 133 414 133q172 0 307 -47l-18 -94q-141 47 -289 47q-223 0 -340 -109q-109 -102 -181.5 -334.5t-72.5 -467.5q0 -201 68.5 -290t222.5 -89q174 0 260 70.5t115 234.5l55 309h-236l17 92h338l-139 -782l-80 -8 l10 137h-8q-117 -143 -332 -143q-399 0 -399 442q0 283 80.5 535.5t207.5 363.5z" glyph-name="uni01F4" horiz-adv-x="1210" unicode="Ǵ"/><glyph d="M1030 1679l-323 -383h-76l291 383h108zM1133 1126l-9 -47l-223 -39q84 -51 84 -194q0 -96 -36 -197.5t-93 -159.5q-106 -111 -330 -110q-145 0 -225 41l-59 -47q-61 -47 -62 -101q0 -70 121 -69h201q231 0 335.5 -54.5t104.5 -175.5q0 -186 -127 -274t-397 -88 q-242 0 -349.5 49t-107.5 160q0 227 211 295l2 16q-94 35 -94 131q0 88 104 164l52 37q-68 70 -68 199q0 111 41 220t106 171q100 94 324 94q106 0 174 -21h320zM786 553q41 47 70 140t29 181q0 102 -53.5 142.5t-188.5 40.5q-182 0 -254 -66q-49 -47 -83 -143t-34 -191 q0 -106 53.5 -147t190.5 -41q198 0 270 84zM483 113q-219 0 -318 -66.5t-99 -214.5q0 -74 77.5 -102.5t274.5 -28.5q225 0 322.5 60.5t97.5 203.5q0 84 -77 116t-278 32z" glyph-name="uni01F5" horiz-adv-x="1085" unicode="ǵ"/><glyph d="M1225 2458l-324 -383h-76l291 383h109zM831 1995q113 0 158 -41t45 -123q0 -98 -43 -158q-53 -78 -196 -78q-113 0 -158 41t-45 125q0 96 41 156q57 78 198 78zM928 1710q31 41 30 115q0 55 -29.5 80.5t-103.5 25.5q-94 0 -129 -51q-29 -39 -28 -108q0 -57 29.5 -84 t103.5 -27q94 0 127 49zM848 1434l160 -1434h-111l-41 424h-582l-190 -424h-111l664 1434h211zM317 516h531l-82 825h-76z" glyph-name="Aringacute" horiz-adv-x="1177" unicode="Ǻ"/><glyph d="M1096 2150l-324 -383h-76l291 383h109zM702 1688q113 0 158 -41t45 -123q0 -98 -43 -158q-53 -78 -196 -78q-113 0 -158 41t-45 125q0 96 41 156q57 78 198 78zM799 1403q31 41 30 115q0 55 -29.5 80.5t-103.5 25.5q-94 0 -129 -51q-29 -39 -28 -109q0 -57 29.5 -83.5 t103.5 -26.5q94 0 127 49zM584 1147q160 0 235.5 -62.5t75.5 -195.5q0 -55 -12 -129l-133 -764l-84 -8l12 143h-12q-100 -152 -328 -151q-152 0 -223.5 60t-71.5 189q0 92 34 179.5t87 140.5q96 96 301 96h295l22 123q10 51 11 109q0 98 -51.5 139t-174.5 41 q-104 0 -293 -35l-6 86q207 39 316 39zM721 414l24 141h-317q-137 0 -201 -74q-33 -39 -55 -110.5t-22 -137.5q0 -86 49 -124.5t157 -38.5q158 0 246 83t119 261z" glyph-name="aringacute" horiz-adv-x="1009" unicode="ǻ"/><glyph d="M1346 1987l-324 -383h-76l291 383h109zM1405 1341h-537l-96 -553h506l-16 -92h-506l-107 -604h561l-16 -92h-668l74 424h-367l-208 -424h-105l719 1434h782zM616 516l146 825h-74l-407 -825h335z" glyph-name="AEacute" horiz-adv-x="1400" unicode="Ǽ"/><glyph d="M1233 1987l-324 -383h-75l290 383h109zM1130 1376q139 -104 140 -381q0 -238 -81 -495.5t-194 -378.5q-131 -141 -401 -141q-133 0 -227 34l-66 -116h-100l90 159q-141 109 -141 387q0 246 86 507t204 376q133 127 387 127q133 0 228 -35l65 117h101zM260 434 q0 -203 82 -284l664 1183q-66 27 -172 27q-229 0 -340 -125q-94 -104 -164 -345t-70 -456zM950 225q84 113 146.5 348.5t62.5 434.5q0 197 -80 276l-663 -1184q66 -27 172 -26q249 -1 362 151z" glyph-name="Oslashacute" horiz-adv-x="1363" unicode="Ǿ"/><glyph d="M1077 1679l-323 -383h-76l291 383h108zM918 1090q127 -82 126 -302q0 -201 -63 -399.5t-156 -294.5q-113 -115 -344 -114q-106 0 -174 22l-57 -104h-100l77 139q-127 84 -127 303q0 203 63.5 401.5t158.5 292.5q115 113 342 113q106 0 174 -23l57 105h100zM201 344 q0 -166 73 -223l519 923q-51 12 -123 13q-190 0 -279 -86q-78 -74 -134 -263.5t-56 -363.5zM754 156q78 74 134 263t56 363q0 166 -74 224l-518 -924q53 -12 123 -12q189 0 279 86z" glyph-name="oslashacute" horiz-adv-x="1142" unicode="ǿ"/><glyph d="M655 1604h-71l-189 383h105zM967 1604h-72l-188 383h104zM897 0l-41 424h-582l-190 -424h-111l664 1434h211l160 -1434h-111zM317 516h531l-82 825h-76z" glyph-name="uni0200" horiz-adv-x="1177" unicode="Ȁ"/><glyph d="M526 1296h-71l-189 383h105zM838 1296h-72l-188 383h104zM584 1147q160 0 235.5 -62.5t75.5 -195.5q0 -55 -12 -129l-133 -764l-84 -8l12 143h-12q-100 -152 -328 -151q-152 0 -223.5 60t-71.5 189q0 92 34 179.5t87 140.5q96 96 301 96h295l22 123q10 51 11 109 q0 98 -51.5 139t-174.5 41q-104 0 -293 -35l-6 86q207 39 316 39zM721 414l24 141h-317q-137 0 -201 -74q-33 -39 -55 -110.5t-22 -137.5q0 -86 49 -124.5t157 -38.5q158 0 246 83t119 261z" glyph-name="uni0201" horiz-adv-x="1009" unicode="ȁ"/><glyph d="M836 1942q123 0 188.5 -44.5t65.5 -152.5q0 -41 -9 -82l-4 -23h-82l6 41q6 35 7 60q0 133 -174 133q-215 0 -248 -201l-6 -33h-84l4 31q25 135 98.5 203t237.5 68zM848 1434l160 -1434h-111l-41 424h-582l-190 -424h-111l664 1434h211zM317 516h531l-82 825h-76z" glyph-name="uni0202" horiz-adv-x="1177" unicode="Ȃ"/><glyph d="M707 1634q123 0 188.5 -44t65.5 -152q0 -41 -9 -82l-4 -23h-82l6 41q6 35 7 60q0 133 -174 133q-215 0 -248 -201l-6 -33h-84l4 31q25 135 98.5 202.5t237.5 67.5zM584 1147q160 0 235.5 -62.5t75.5 -195.5q0 -55 -12 -129l-133 -764l-84 -8l12 143h-12 q-100 -152 -328 -151q-152 0 -223.5 60t-71.5 189q0 92 34 179.5t87 140.5q96 96 301 96h295l22 123q10 51 11 109q0 98 -51.5 139t-174.5 41q-104 0 -293 -35l-6 86q207 39 316 39zM721 414l24 141h-317q-137 0 -201 -74q-33 -39 -55 -110.5t-22 -137.5q0 -86 49 -124.5 t157 -38.5q158 0 246 83t119 261z" glyph-name="uni0203" horiz-adv-x="1009" unicode="ȃ"/><glyph d="M610 1604h-71l-189 383h105zM922 1604h-72l-188 383h104zM999 1341h-538l-96 -553h507l-16 -92h-508l-106 -604h563l-17 -92h-669l252 1434h645z" glyph-name="uni0204" horiz-adv-x="995" unicode="Ȅ"/><glyph d="M547 1296h-72l-188 383h104zM858 1296h-72l-188 383h104zM659 1147q174 0 255 -82t81 -258q0 -102 -28 -252l-6 -31h-748q-12 -80 -12 -157q0 -160 66.5 -228.5t221.5 -68.5q137 0 355 69l6 -92q-217 -68 -375 -67q-197 0 -288 94t-91 295q0 176 59.5 361t147.5 282 q123 135 356 135zM231 612h643q20 129 21 205q0 131 -54.5 185.5t-183.5 54.5q-188 0 -282 -107q-93 -105 -144 -338z" glyph-name="uni0205" horiz-adv-x="1069" unicode="ȅ"/><glyph d="M791 1942q123 0 188 -44.5t65 -152.5q0 -41 -8 -82l-4 -23h-82l6 41q6 35 7 60q0 133 -175 133q-215 0 -247 -201l-6 -33h-84l4 31q25 135 98.5 203t237.5 68zM1016 1434l-17 -93h-538l-96 -553h507l-16 -92h-508l-106 -604h563l-17 -92h-669l252 1434h645z" glyph-name="uni0206" horiz-adv-x="995" unicode="Ȇ"/><glyph d="M477 1366l-6 -33h-84l4 31q25 135 98.5 202.5t237.5 67.5q123 0 188.5 -44t65.5 -152q0 -41 -8 -82l-4 -23h-82l6 41q6 35 6 60q0 133 -174 133q-215 0 -248 -201zM659 1147q174 0 255 -82t81 -258q0 -102 -28 -252l-6 -31h-748q-12 -80 -12 -157q0 -160 66.5 -228.5 t221.5 -68.5q137 0 355 69l6 -92q-217 -68 -375 -67q-197 0 -288 94t-91 295q0 176 59.5 361t147.5 282q123 135 356 135zM231 612h643q20 129 21 205q0 131 -54.5 185.5t-183.5 54.5q-188 0 -282 -107q-93 -105 -144 -338z" glyph-name="uni0207" horiz-adv-x="1069" unicode="ȇ"/><glyph d="M258 1604l-188 383h104l156 -383h-72zM569 1604l-188 383h104l156 -383h-72zM477 1434l-252 -1434h-106l252 1434h106z" glyph-name="uni0208" horiz-adv-x="540" unicode="Ȉ"/><glyph d="M162 1296l-189 383h105l155 -383h-71zM473 1296l-188 383h104l156 -383h-72zM377 1126l-199 -1126h-102l198 1126h103z" glyph-name="uni0209" horiz-adv-x="448" unicode="ȉ"/><glyph d="M170 1640l4 31q25 135 98.5 203t237.5 68q123 0 188.5 -44.5t65.5 -152.5q0 -41 -8 -82l-4 -23h-82l6 41q6 35 6 60q0 133 -174 133q-215 0 -248 -201l-6 -33h-84zM477 1434l-252 -1434h-106l252 1434h106z" glyph-name="uni020A" horiz-adv-x="540" unicode="Ȋ"/><glyph d="M74 1333l4 31q25 135 98.5 202.5t237.5 67.5q123 0 188.5 -44t65.5 -152q0 -41 -9 -82l-4 -23h-82l7 41q6 35 6 60q0 133 -174 133q-215 0 -248 -201l-6 -33h-84zM377 1126l-199 -1126h-102l198 1126h103z" glyph-name="uni020B" horiz-adv-x="448" unicode="ȋ"/><glyph d="M672 1604l-189 383h105l155 -383h-71zM983 1604l-188 383h104l156 -383h-72zM594 -20q-233 0 -338.5 109.5t-105.5 355t86 506.5t204 376q133 127 387 127q233 0 338 -108.5t105 -350.5q0 -238 -81 -495.5t-194 -378.5q-131 -141 -401 -141zM588 74q250 0 362 151 q84 113 146.5 348.5t62.5 434.5q0 190 -74.5 271t-250.5 81q-229 0 -340 -125q-94 -104 -164 -345t-70 -456q0 -195 75 -277.5t253 -82.5z" glyph-name="uni020C" horiz-adv-x="1363" unicode="Ȍ"/><glyph d="M508 1296l-189 383h105l156 -383h-72zM819 1296l-188 383h104l156 -383h-72zM481 -20q-199 0 -290 86t-91 274q0 203 63.5 401.5t158.5 292.5q115 113 342 113q199 0 289.5 -86t90.5 -273q0 -201 -63 -399.5t-156 -294.5q-113 -114 -344 -114zM475 70q188 0 279 86 q78 74 134 263t56 363q0 152 -61.5 213.5t-212.5 61.5q-190 0 -279 -86q-78 -74 -134 -263.5t-56 -363.5q0 -152 61 -213t213 -61z" glyph-name="uni020D" horiz-adv-x="1142" unicode="ȍ"/><glyph d="M584 1640l4 31q25 135 98.5 203t237.5 68q123 0 188.5 -44.5t65.5 -152.5q0 -41 -9 -82l-4 -23h-82l7 41q6 35 6 60q0 133 -174 133q-215 0 -248 -201l-6 -33h-84zM594 -20q-233 0 -338.5 109.5t-105.5 355t86 506.5t204 376q133 127 387 127q233 0 338 -108.5 t105 -350.5q0 -238 -81 -495.5t-194 -378.5q-131 -141 -401 -141zM588 74q250 0 362 151q84 113 146.5 348.5t62.5 434.5q0 190 -74.5 271t-250.5 81q-229 0 -340 -125q-94 -104 -164 -345t-70 -456q0 -195 75 -277.5t253 -82.5z" glyph-name="uni020E" horiz-adv-x="1363" unicode="Ȏ"/><glyph d="M420 1333l4 31q25 135 98.5 202.5t237.5 67.5q123 0 188.5 -44t65.5 -152q0 -41 -8 -82l-5 -23h-81l6 41q6 35 6 60q0 133 -174 133q-215 0 -248 -201l-6 -33h-84zM481 -20q-199 0 -290 86t-91 274q0 203 63.5 401.5t158.5 292.5q115 113 342 113q199 0 289.5 -86 t90.5 -273q0 -201 -63 -399.5t-156 -294.5q-113 -114 -344 -114zM475 70q188 0 279 86q78 74 134 263t56 363q0 152 -61.5 213.5t-212.5 61.5q-190 0 -279 -86q-78 -74 -134 -263.5t-56 -363.5q0 -152 61 -213t213 -61z" glyph-name="uni020F" horiz-adv-x="1142" unicode="ȏ"/><glyph d="M631 1604h-72l-188 383h104zM942 1604h-72l-188 383h104zM889 715q-74 -47 -168 -66l272 -649h-119l-260 635q-66 -4 -108 -4h-170l-111 -631h-106l252 1434h317q203 0 294 -74t91 -225q0 -119 -46 -238t-138 -182zM350 713h156q223 0 315 71q70 53 107 155.5t37 197.5 q0 123 -70 169t-213 46h-219z" glyph-name="uni0210" horiz-adv-x="1144" unicode="Ȑ"/><glyph d="M373 1296h-72l-188 383h104zM684 1296h-72l-188 383h104zM711 1147q29 0 43 -2l-23 -111q-41 23 -106 23q-127 0 -213 -107.5t-117 -290.5l-117 -659h-102l198 1130l84 9l-14 -162h14q117 170 353 170z" glyph-name="uni0211" horiz-adv-x="673" unicode="ȑ"/><glyph d="M561 1673l-6 -33h-84l4 31q25 135 98.5 203t237.5 68q123 0 188.5 -44.5t65.5 -152.5q0 -41 -8 -82l-4 -23h-82l6 41q6 35 6 60q0 133 -174 133q-215 0 -248 -201zM889 715q-74 -47 -168 -66l272 -649h-119l-260 635q-66 -4 -108 -4h-170l-111 -631h-106l252 1434h317 q203 0 294 -74t91 -225q0 -119 -46 -238t-138 -182zM350 713h156q223 0 315 71q70 53 107 155.5t37 197.5q0 123 -70 169t-213 46h-219z" glyph-name="uni0212" horiz-adv-x="1144" unicode="Ȓ"/><glyph d="M553 1634q123 0 188.5 -44t65.5 -152q0 -41 -8 -82l-4 -23h-82l6 41q6 35 6 60q0 133 -174 133q-215 0 -248 -201l-6 -33h-84l4 31q25 135 98.5 202.5t237.5 67.5zM358 977q117 170 353 170q29 0 43 -2l-23 -111q-41 23 -106 23q-127 0 -213 -107.5t-117 -290.5 l-117 -659h-102l198 1130l84 9l-14 -162h14z" glyph-name="uni0213" horiz-adv-x="673" unicode="ȓ"/><glyph d="M625 1604l-189 383h105l155 -383h-71zM936 1604l-188 383h104l156 -383h-72zM555 -20q-211 0 -299 72.5t-88 230.5q0 82 18 182l170 969h107l-172 -979q-18 -111 -19 -164q0 -125 68 -171t225 -46q178 0 261 85t118 287l172 988h107l-174 -994q-47 -266 -160 -363 t-334 -97z" glyph-name="uni0214" horiz-adv-x="1271" unicode="Ȕ"/><glyph d="M559 1296h-72l-188 383h104zM870 1296h-71l-189 383h105zM928 1126h102l-199 -1130l-83 -8l14 162h-12q-55 -94 -137.5 -132t-204.5 -38q-158 0 -224.5 58t-66.5 191q0 78 18 179l127 718h103l-127 -723q-16 -94 -17 -149q0 -104 50.5 -144t160.5 -40q158 0 247 77.5 t124 270.5z" glyph-name="uni0215" horiz-adv-x="1103" unicode="ȕ"/><glyph d="M537 1640l4 31q25 135 98.5 203t237.5 68q123 0 188 -44.5t65 -152.5q0 -41 -8 -82l-4 -23h-82l6 41q6 35 7 60q0 133 -175 133q-215 0 -247 -201l-6 -33h-84zM555 -20q-211 0 -299 72.5t-88 230.5q0 82 18 182l170 969h107l-172 -979q-18 -111 -19 -164q0 -125 68 -171 t225 -46q178 0 261 85t118 287l172 988h107l-174 -994q-47 -266 -160 -363t-334 -97z" glyph-name="uni0216" horiz-adv-x="1271" unicode="Ȗ"/><glyph d="M489 1366l-6 -33h-84l4 31q25 135 98.5 202.5t237.5 67.5q123 0 188.5 -44t65.5 -152q0 -41 -8 -82l-4 -23h-82l6 41q6 35 6 60q0 133 -174 133q-215 0 -248 -201zM928 1126h102l-199 -1130l-83 -8l14 162h-12q-55 -94 -137.5 -132t-204.5 -38q-158 0 -224.5 58 t-66.5 191q0 78 18 179l127 718h103l-127 -723q-16 -94 -17 -149q0 -104 50.5 -144t160.5 -40q158 0 247 77.5t124 270.5z" glyph-name="uni0217" horiz-adv-x="1103" unicode="ȗ"/><glyph d="M666 1360q-350 0 -351 -279q0 -86 60 -145l305 -297q59 -57 83.5 -112.5t24.5 -133.5q0 -186 -119.5 -299.5t-322.5 -113.5q-174 0 -334 49l19 96q166 -51 303 -51q164 0 254 83t90 228q0 96 -76 172l-311 307q-86 86 -86 207q0 182 119.5 282.5t337.5 100.5 q133 0 278 -27l-16 -92q-156 25 -258 25zM242 -279l22 127h127l-22 -127l-84 -188h-78l80 188h-45z" glyph-name="Scommaaccent" horiz-adv-x="931" unicode="Ș"/><glyph d="M528 1057q-147 0 -202 -56q-63 -63 -64 -176q0 -59 53 -104l256 -213q106 -90 107 -205q0 -70 -32 -140.5t-87 -113.5q-90 -70 -291 -69q-102 0 -260 22l19 92q137 -25 239 -24q158 0 223 49q84 63 84 186q0 76 -59 125l-278 236q-76 68 -76 165q0 70 28.5 138.5 t81.5 111.5q84 66 262 66q104 0 248 -25l-18 -90q-138 25 -234 25zM207 -279l22 127h127l-22 -127l-84 -188h-78l80 188h-45z" glyph-name="scommaaccent" horiz-adv-x="817" unicode="ș"/><glyph d="M965 1434l-17 -93h-325l-236 -1341h-106l235 1341h-328l17 93h760zM223 -279l23 127h127l-23 -127l-84 -188h-78l80 188h-45z" glyph-name="uni021A" horiz-adv-x="862" unicode="Ț"/><glyph d="M401 1038l-137 -780q-10 -68 -10 -98q0 -51 20.5 -70.5t67.5 -19.5q80 0 131 12v-92q-47 -10 -111 -10q-113 0 -161.5 43t-48.5 133q0 49 12 110l135 772h-182l16 88h182l47 273h103l-47 -273h260l-16 -88h-261zM133 -279l23 127h127l-23 -127l-84 -188h-78l80 188h-45z " glyph-name="uni021B" horiz-adv-x="665" unicode="ț"/><glyph d="M786 1595l-206 383h71l197 -319l309 319h76l-336 -383h-111zM1147 1434h106l-252 -1434h-106l123 696h-670l-123 -696h-106l252 1434h106l-112 -646h669z" glyph-name="uni021E" horiz-adv-x="1316" unicode="Ȟ"/><glyph d="M381 1647l-207 383h72l196 -320l310 320h75l-335 -383h-111zM711 1147q160 0 229.5 -58.5t69.5 -193.5q0 -72 -19 -176l-127 -719h-102l127 723q14 80 14 143q0 104 -50 147.5t-169 43.5q-170 0 -259 -82t-122 -262l-125 -713h-102l270 1536h103l-97 -545h15 q100 156 344 156z" glyph-name="uni021F" horiz-adv-x="1124" unicode="ȟ"/><glyph d="M1018 1800l-17 -88h-493l16 88h494zM1196 1434l-590 -873l-98 -561h-107l99 561l-283 873h113l227 -748h31l491 748h117z" glyph-name="uni0232" horiz-adv-x="1101" unicode="Ȳ"/><glyph d="M885 1493l-17 -88h-493l16 88h494zM901 1126h111l-633 -1249q-68 -135 -160 -200.5t-231 -65.5q-29 0 -82 4l22 86q41 -4 62 -4q104 0 176 49t129 164l53 108h-53l-164 1108h111l135 -1020h16z" glyph-name="uni0233" horiz-adv-x="942" unicode="ȳ"/><glyph d="M-141 -389q-61 0 -107 12l19 90q49 -12 112 -12q84 0 121 47t59 178l211 1200h101l-213 -1208q-31 -172 -91 -239.5t-212 -67.5z" glyph-name="uni0237" horiz-adv-x="448" unicode="ȷ"/><glyph d="M821 1288h-69l-197 320l-309 -320h-78l340 383h110z" glyph-name="circumflex" horiz-adv-x="735" unicode="ˆ"/><glyph d="M817 1671h76l-336 -383h-111l-206 383h71l197 -319z" glyph-name="caron" horiz-adv-x="739" unicode="ˇ"/><glyph d="M571 1333q-258 0 -258 197q0 25 9 82l4 22h84l-9 -41q-6 -31 -6 -57q0 -135 172 -135q215 0 252 201l6 32h82l-6 -30q-27 -154 -109 -212.5t-221 -58.5z" glyph-name="breve" horiz-adv-x="851" unicode="˘"/><glyph d="M344 1518h127l-22 -127h-127z" glyph-name="dotaccent" horiz-adv-x="475" unicode="˙"/><glyph d="M510 1288q-113 0 -158 41t-45 125q0 96 41 156q57 78 199 78q113 0 158 -41t45 -123q0 -98 -43 -158q-54 -78 -197 -78zM516 1354q96 0 129 49q29 39 29 110q0 57 -30 84t-103 27q-94 0 -129 -51q-29 -39 -29 -109q0 -57 29.5 -83.5t103.5 -26.5z" glyph-name="ring" horiz-adv-x="731" unicode="˚"/><glyph d="M254 -410q-84 0 -160 31q-102 41 -102 158q0 143 151 241l90 -20q-143 -102 -143 -211q0 -117 166 -117z" glyph-name="ogonek" horiz-adv-x="501" unicode="˛"/><glyph d="M717 1352q-55 0 -111 45l-86 69q-23 16 -47 17q-80 0 -121 -131h-67q14 94 64 148t120 54q63 0 113 -41l88 -73q18 -16 43 -17q78 0 121 133h69q-16 -94 -67 -149t-119 -55z" glyph-name="tilde" horiz-adv-x="870" unicode="˜"/><glyph d="M195 1296l290 383h109l-324 -383h-75zM506 1296l291 383h108l-323 -383h-76z" glyph-name="hungarumlaut" horiz-adv-x="757" unicode="˝"/><glyph d="M-10 1296l-189 383h105l155 -383h-71z" glyph-name="gravecomb" unicode="̀"/><glyph d="M-254 1296l291 383h108l-323 -383h-76z" glyph-name="acutecomb" unicode="́"/><glyph d="M84 1288h-70l-196 320l-310 -320h-77l340 383h110z" glyph-name="uni0302" unicode="̂"/><glyph d="M-160 1352q-55 0 -110 45l-86 69q-23 16 -47 17q-80 0 -121 -131h-68q14 94 64.5 148t119.5 54q63 0 113 -41l88 -73q18 -16 43 -17q78 0 121 133h70q-16 -94 -67.5 -149t-119.5 -55z" glyph-name="tildecomb" unicode="̃"/><glyph d="M-504 1493h494l-17 -88h-493z" glyph-name="uni0304" unicode="̄"/><glyph d="M-283 1333q-258 0 -258 197q0 25 9 82l4 22h84l-9 -41q-6 -31 -6 -57q0 -135 172 -135q215 0 252 201l6 32h82l-6 -30q-27 -154 -109 -212.5t-221 -58.5z" glyph-name="uni0306" unicode="̆"/><glyph d="M-133 1518h127l-23 -127h-127z" glyph-name="uni0307" unicode="̇"/><glyph d="M-539 1518h127l-22 -127h-127zM-133 1518h127l-23 -127h-127z" glyph-name="uni0308" unicode="̈"/><glyph d="M-238 1311q8 51 21.5 75.5t56.5 53.5l62 41q20 12 35 30q16 27 16 60q0 27 -19.5 36t-66.5 9q-49 0 -109 -8v65q70 10 119 10q156 0 156 -106q0 -59 -27 -94q-18 -20 -45 -39l-72 -49q-57 -41 -65 -84h-62z" glyph-name="hookabovecomb" unicode="̉"/><glyph d="M-223 1288q-113 0 -158 41t-45 125q0 96 41 156q57 78 199 78q113 0 157.5 -41t44.5 -123q0 -98 -43 -158q-53 -78 -196 -78zM-217 1354q96 0 129 49q29 39 29 110q0 57 -30 84t-104 27q-94 0 -129 -51q-29 -39 -28 -109q0 -57 29.5 -83.5t103.5 -26.5z" glyph-name="uni030A" unicode="̊"/><glyph d="M-565 1296l291 383h108l-323 -383h-76zM-254 1296l291 383h108l-323 -383h-76z" glyph-name="uni030B" unicode="̋"/><glyph d="M76 1671h76l-336 -383h-111l-207 383h72l197 -319z" glyph-name="uni030C" unicode="̌"/><glyph d="M-305 1296l-189 383h105l156 -383h-72zM6 1296l-188 383h104l156 -383h-72z" glyph-name="uni030F" unicode="̏"/><glyph d="M-580 1333l5 31q25 135 98.5 202.5t236.5 67.5q123 0 188.5 -44t65.5 -152q0 -41 -8 -82l-4 -23h-82l6 41q6 35 6 60q0 133 -174 133q-215 0 -247 -201l-7 -33h-84z" glyph-name="uni0311" unicode="̑"/><glyph d="M39 1706l-76 -186h45l-22 -127h-127l22 127l82 186h76z" glyph-name="uni0312" unicode="̒"/><glyph d="M-313 1174l4 67q209 0 246 201l32 186h84l-33 -184q-27 -154 -108.5 -212t-224.5 -58z" glyph-name="uni031B" unicode="̛"/><glyph d="M-426 -152h127l-23 -127h-127z" glyph-name="dotbelowcomb" unicode="̣"/><glyph d="M-408 -152h127l-22 -127l-84 -188h-78l80 188h-45z" glyph-name="uni0326" unicode="̦"/><glyph d="M-420 -129q170 -6 170 -127q0 -37 -14.5 -85t-34.5 -75q-55 -76 -203 -76q-57 0 -108 19l16 82q43 -16 107 -17q80 0 110 37q35 37 35 107q0 55 -74 55h-108l98 262h86z" glyph-name="uni0327" unicode="̧"/><glyph d="M-250 -410q-84 0 -160 31q-102 41 -102 158q0 143 152 241l90 -20q-143 -102 -144 -211q0 -117 166 -117z" glyph-name="uni0328" unicode="̨"/><glyph d="M-788 621h624l-16 -93h-625z" glyph-name="uni0335" unicode="̵"/><glyph d="M-924 680h772l-16 -92h-772z" glyph-name="uni0336" unicode="̶"/><glyph d="M-674 -102l678 1331h102l-677 -1331h-103z" glyph-name="uni0337" unicode="̷"/><glyph d="M-776 -102l835 1638h103l-836 -1638h-102z" glyph-name="uni0338" unicode="̸"/><glyph d="M874 1825l-22 -127h-127l23 127h126zM842 739q166 -59 166 -239q0 -125 -46.5 -234.5t-123.5 -171.5q-119 -94 -375 -94h-344l252 1434h362q358 0 359 -260q0 -195 -111 -324q-55 -59 -137 -92zM461 1343l-96 -552h186q270 0 352 106q33 45 55.5 122t22.5 148 q0 96 -60.5 136t-209.5 40h-250zM786 180q49 47 80 134t31 182q0 113 -69.5 158.5t-241.5 45.5h-238l-106 -610h229q225 0 315 90z" glyph-name="uni1E02" horiz-adv-x="1175" unicode="Ḃ"/><glyph d="M655 1147q182 0 266.5 -90t84.5 -285q0 -170 -51.5 -355.5t-127.5 -283.5q-117 -154 -354 -153q-213 0 -264 145h-16l-37 -139l-82 8l272 1542h103l-91 -506h17q87 117 280 117zM784 1518l-22 -127h-127l22 127h127zM756 197q59 90 105 265t46 318q0 147 -60.5 212 t-197.5 65q-150 0 -231.5 -76t-110.5 -244l-65 -375q-10 -57 -11 -96q0 -102 57.5 -149t182.5 -47q201 0 285 127z" glyph-name="uni1E03" horiz-adv-x="1105" unicode="ḃ"/><glyph d="M813 1825l-22 -127h-127l22 127h127zM979 1341h-518l-105 -593h482l-17 -93h-481l-115 -655h-106l252 1434h624z" glyph-name="uni1E1E" horiz-adv-x="944" unicode="Ḟ"/><glyph d="M688 1825l-22 -127h-127l22 127h127zM629 1458q-94 0 -136 -50t-69 -196l-14 -86h254l-17 -88h-254l-182 -1038h-102l182 1038h-205l16 88h205l17 95q35 199 99 263t226 64q68 0 115 -18l-16 -86q-49 14 -119 14z" glyph-name="uni1E1F" horiz-adv-x="581" unicode="ḟ"/><glyph d="M1069 1825l-22 -127h-127l22 127h127zM1499 1434l-252 -1434h-106l235 1341h-18l-527 -1007h-176l-170 1007h-24l-236 -1341h-106l252 1434h207l167 -1008h23l526 1008h205z" glyph-name="uni1E40" horiz-adv-x="1562" unicode="Ṁ"/><glyph d="M1108 1518l-23 -127h-127l23 127h127zM1348 1147q150 0 218 -62.5t68 -197.5q0 -59 -18 -168l-127 -719h-103l127 723q16 98 17 149q0 98 -50 141.5t-161 43.5q-158 0 -243 -81t-115 -257l-127 -719h-103l127 723q16 98 16 149q0 100 -48 142.5t-162 42.5 q-160 0 -243 -76t-114 -250l-129 -731h-102l198 1130l84 9l-14 -162h12q51 90 129 130t203 40q248 0 283 -170h16q111 170 361 170z" glyph-name="uni1E41" horiz-adv-x="1748" unicode="ṁ"/><glyph d="M823 1825l-22 -127h-127l22 127h127zM682 1434q201 0 292 -75t91 -239q0 -117 -42 -221t-110 -170q-121 -119 -370 -119h-211l-107 -610h-106l252 1434h311zM831 784q53 53 89 147.5t36 192.5q0 123 -64.5 175.5t-217.5 52.5h-211l-117 -660h205q188 0 280 92z" glyph-name="uni1E56" horiz-adv-x="1073" unicode="Ṗ"/><glyph d="M786 1518l-22 -127h-127l22 127h127zM666 1147q184 0 264 -92t80 -271q0 -170 -56.5 -369.5t-156.5 -308.5q-119 -127 -336 -126q-193 0 -246 116h-20l-82 -465h-103l264 1502l84 8l-12 -140h12q99 146 308 146zM727 164q82 92 131 288.5t49 346.5q0 145 -60.5 201.5 t-193.5 56.5q-145 0 -228 -67.5t-116 -244.5l-63 -356q-10 -51 -10 -115q0 -115 58 -159.5t171 -44.5q176 0 262 94z" glyph-name="uni1E57" horiz-adv-x="1105" unicode="ṗ"/><glyph d="M610 1825h127l-22 -127h-127zM346 -20q-174 0 -334 49l19 96q166 -51 303 -51q164 0 254 83t90 228q0 96 -76 172l-311 307q-86 86 -86 207q0 182 119.5 282.5t337.5 100.5q133 0 278 -27l-16 -92q-156 25 -258 25q-350 0 -351 -279q0 -86 60 -145l305 -297 q59 -57 83.5 -112.5t24.5 -133.5q0 -186 -119.5 -299.5t-322.5 -113.5z" glyph-name="uni1E60" horiz-adv-x="931" unicode="Ṡ"/><glyph d="M520 1518h127l-22 -127h-127zM268 -20q-102 0 -260 22l19 92q137 -25 239 -24q158 0 223 49q84 63 84 186q0 76 -59 125l-278 236q-76 68 -76 165q0 70 28.5 138.5t81.5 111.5q84 66 262 66q104 0 248 -25l-18 -90q-137 25 -234 25q-147 0 -202 -56q-63 -63 -64 -176 q0 -59 53 -104l256 -213q106 -90 107 -205q0 -70 -32 -140.5t-87 -113.5q-90 -69 -291 -69z" glyph-name="uni1E61" horiz-adv-x="817" unicode="ṡ"/><glyph d="M719 1825l-23 -127h-127l23 127h127zM965 1434l-17 -93h-325l-236 -1341h-106l235 1341h-328l17 93h760z" glyph-name="uni1E6A" horiz-adv-x="862" unicode="Ṫ"/><glyph d="M516 1620l-22 -127h-127l22 127h127zM401 1038l-137 -780q-10 -68 -10 -98q0 -51 20.5 -70.5t67.5 -19.5q80 0 131 12v-92q-47 -10 -111 -10q-113 0 -161.5 43t-48.5 133q0 49 12 110l135 772h-182l16 88h182l47 273h103l-47 -273h260l-16 -88h-261z" glyph-name="uni1E6B" horiz-adv-x="665" unicode="ṫ"/><glyph d="M1081 1604h-71l-189 383h105zM1700 1434h108l-538 -1434h-168l-86 1341h-29l-561 -1341h-168l-31 1434h105l16 -1342h33l551 1342h168l78 -1342h32z" glyph-name="Wgrave" horiz-adv-x="1732" unicode="Ẁ"/><glyph d="M952 1296h-71l-189 383h105zM1538 1126h109l-486 -1126h-170l-114 1049h-3l-485 -1049h-170l-88 1126h109l67 -1048h27l483 1048h144l114 -1048h27z" glyph-name="wgrave" horiz-adv-x="1576" unicode="ẁ"/><glyph d="M1407 1987l-324 -383h-75l290 383h109zM1700 1434h108l-538 -1434h-168l-86 1341h-29l-561 -1341h-168l-31 1434h105l16 -1342h33l551 1342h168l78 -1342h32z" glyph-name="Wacute" horiz-adv-x="1732" unicode="Ẃ"/><glyph d="M1278 1679l-324 -383h-75l290 383h109zM1538 1126h109l-486 -1126h-170l-114 1049h-3l-485 -1049h-170l-88 1126h109l67 -1048h27l483 1048h144l114 -1048h27z" glyph-name="wacute" horiz-adv-x="1576" unicode="ẃ"/><glyph d="M948 1825l-22 -127h-127l22 127h127zM1354 1825l-23 -127h-127l23 127h127zM1700 1434h108l-538 -1434h-168l-86 1341h-29l-561 -1341h-168l-31 1434h105l16 -1342h33l551 1342h168l78 -1342h32z" glyph-name="Wdieresis" horiz-adv-x="1732" unicode="Ẅ"/><glyph d="M819 1518l-22 -127h-127l22 127h127zM1225 1518l-23 -127h-127l23 127h127zM1538 1126h109l-486 -1126h-170l-114 1049h-3l-485 -1049h-170l-88 1126h109l67 -1048h27l483 1048h144l114 -1048h27z" glyph-name="wdieresis" horiz-adv-x="1576" unicode="ẅ"/><glyph d="M1239 1272l-387 -426l-6 -39l223 -166q72 -53 103.5 -104.5t31.5 -116.5q0 -207 -121.5 -323.5t-332.5 -116.5q-137 0 -314 49l19 96q201 -51 311 -51q158 0 243 88t85 241q0 49 -22.5 85t-80.5 77l-297 213l8 49l435 478q-121 55 -314 55q-184 0 -285.5 -67.5 t-127.5 -217.5l-191 -1075h-106l190 1083q33 193 162 282t362 89q279 0 424 -92z" glyph-name="uni1E9E" horiz-adv-x="1345" unicode="ẞ"/><glyph d="M1008 0h-111l-41 424h-582l-190 -424h-111l664 1434h211zM317 516h531l-82 825h-76zM383 -279l23 127h126l-22 -127h-127z" glyph-name="uni1EA0" horiz-adv-x="1177" unicode="Ạ"/><glyph d="M584 1147q160 0 235.5 -62.5t75.5 -195.5q0 -55 -12 -129l-133 -764l-84 -8l12 143h-12q-100 -152 -328 -151q-152 0 -223.5 60t-71.5 189q0 92 34 179.5t87 140.5q96 96 301 96h295l22 123q10 51 11 109q0 98 -51.5 139t-174.5 41q-104 0 -293 -35l-6 86q207 39 316 39z M721 414l24 141h-317q-137 0 -201 -74q-33 -39 -55 -110.5t-22 -137.5q0 -86 49 -124.5t157 -38.5q158 0 246 83t119 261zM279 -279l22 127h127l-22 -127h-127z" glyph-name="uni1EA1" horiz-adv-x="1009" unicode="ạ"/><glyph d="M942 1878q0 27 -19.5 36t-66.5 9q-49 0 -108 -8v65q70 10 118 11q156 0 156 -107q0 -59 -27 -94q-18 -20 -45 -39l-71 -49q-57 -41 -66 -84h-61q8 51 21 75.5t56 53.5l62 41q20 12 35 31q16 26 16 59zM848 1434l160 -1434h-111l-41 424h-582l-190 -424h-111l664 1434h211 zM317 516h531l-82 825h-76z" glyph-name="uni1EA2" horiz-adv-x="1177" unicode="Ả"/><glyph d="M813 1571q0 27 -19.5 36t-66.5 9q-49 0 -109 -8v65q70 10 119 10q156 0 156 -106q0 -59 -27 -94q-18 -20 -45 -39l-71 -49q-57 -41 -66 -84h-61q8 51 21 75.5t56 53.5l62 41q20 12 35 30q16 27 16 60zM584 1147q160 0 235.5 -62.5t75.5 -195.5q0 -55 -12 -129l-133 -764 l-84 -8l12 143h-12q-100 -152 -328 -151q-152 0 -223.5 60t-71.5 189q0 92 34 179.5t87 140.5q96 96 301 96h295l22 123q10 51 11 109q0 98 -51.5 139t-174.5 41q-104 0 -293 -35l-6 86q207 39 316 39zM721 414l24 141h-317q-137 0 -201 -74q-33 -39 -55 -110.5t-22 -137.5 q0 -86 49 -124.5t157 -38.5q158 0 246 83t119 261z" glyph-name="uni1EA3" horiz-adv-x="1009" unicode="ả"/><glyph d="M1364 2226h109l-324 -383h-76zM899 1978l203 -383h-70l-196 320l-310 -320h-77l339 383h111zM848 1434l160 -1434h-111l-41 424h-582l-190 -424h-111l664 1434h211zM317 516h531l-82 825h-76z" glyph-name="uni1EA4" horiz-adv-x="1177" unicode="Ấ"/><glyph d="M1235 1919h108l-323 -383h-76zM770 1671l203 -383h-70l-196 320l-310 -320h-78l340 383h111zM584 1147q160 0 235.5 -62.5t75.5 -195.5q0 -55 -12 -129l-133 -764l-84 -8l12 143h-12q-100 -152 -328 -151q-152 0 -223.5 60t-71.5 189q0 92 34 179.5t87 140.5 q96 96 301 96h295l22 123q10 51 11 109q0 98 -51.5 139t-174.5 41q-104 0 -293 -35l-6 86q207 39 316 39zM721 414l24 141h-317q-137 0 -201 -74q-33 -39 -55 -110.5t-22 -137.5q0 -86 49 -124.5t157 -38.5q158 0 246 83t119 261z" glyph-name="uni1EA5" horiz-adv-x="1009" unicode="ấ"/><glyph d="M1034 2226l156 -383h-72l-188 383h104zM899 1978l203 -383h-70l-196 320l-310 -320h-77l339 383h111zM848 1434l160 -1434h-111l-41 424h-582l-190 -424h-111l664 1434h211zM317 516h531l-82 825h-76z" glyph-name="uni1EA6" horiz-adv-x="1177" unicode="Ầ"/><glyph d="M905 1919l156 -383h-72l-188 383h104zM770 1671l203 -383h-70l-196 320l-310 -320h-78l340 383h111zM584 1147q160 0 235.5 -62.5t75.5 -195.5q0 -55 -12 -129l-133 -764l-84 -8l12 143h-12q-100 -152 -328 -151q-152 0 -223.5 60t-71.5 189q0 92 34 179.5t87 140.5 q96 96 301 96h295l22 123q10 51 11 109q0 98 -51.5 139t-174.5 41q-104 0 -293 -35l-6 86q207 39 316 39zM721 414l24 141h-317q-137 0 -201 -74q-33 -39 -55 -110.5t-22 -137.5q0 -86 49 -124.5t157 -38.5q158 0 246 83t119 261z" glyph-name="uni1EA7" horiz-adv-x="1009" unicode="ầ"/><glyph d="M1184 2216q156 0 155 -105q0 -35 -14 -69.5t-57 -65.5l-72 -49q-59 -41 -68 -84h-59q8 51 21.5 76t56.5 53l61 41q35 23 41 45q8 25 8 47q0 27 -18 36t-65 9q-33 0 -109 -10l-2 66q72 10 121 10zM899 1978l203 -383h-70l-196 320l-310 -320h-77l339 383h111zM848 1434 l160 -1434h-111l-41 424h-582l-190 -424h-111l664 1434h211zM317 516h531l-82 825h-76z" glyph-name="uni1EA8" horiz-adv-x="1177" unicode="Ẩ"/><glyph d="M1055 1909q156 0 155 -105q0 -35 -14 -69.5t-57 -65.5l-72 -49q-59 -41 -68 -84h-59q8 51 21.5 75.5t56.5 53.5l61 41q35 23 41 45q8 25 8 47q0 27 -18 36t-66 9q-33 0 -108 -10l-2 65q72 11 121 11zM770 1671l203 -383h-70l-196 320l-310 -320h-78l340 383h111z M584 1147q160 0 235.5 -62.5t75.5 -195.5q0 -55 -12 -129l-133 -764l-84 -8l12 143h-12q-100 -152 -328 -151q-152 0 -223.5 60t-71.5 189q0 92 34 179.5t87 140.5q96 96 301 96h295l22 123q10 51 11 109q0 98 -51.5 139t-174.5 41q-104 0 -293 -35l-6 86q207 39 316 39z M721 414l24 141h-317q-137 0 -201 -74q-33 -39 -55 -110.5t-22 -137.5q0 -86 49 -124.5t157 -38.5q158 0 246 83t119 261z" glyph-name="uni1EA9" horiz-adv-x="1009" unicode="ẩ"/><glyph d="M1114 2267l68 -8q-16 -92 -67.5 -146.5t-119.5 -54.5q-55 0 -110 45l-86 70q-23 16 -47 16q-76 0 -121 -137l-68 8q14 92 65.5 146.5t119.5 54.5q66 0 112 -41l88 -74q18 -16 45 -16q78 0 121 137zM899 1978l203 -383h-70l-196 320l-310 -320h-77l339 383h111zM848 1434 l160 -1434h-111l-41 424h-582l-190 -424h-111l664 1434h211zM317 516h531l-82 825h-76z" glyph-name="uni1EAA" horiz-adv-x="1177" unicode="Ẫ"/><glyph d="M985 1960l68 -8q-16 -92 -67.5 -146.5t-119.5 -54.5q-55 0 -110 45l-86 70q-23 16 -47 16q-76 0 -121 -137l-68 8q14 92 65.5 146.5t118.5 54.5q66 0 113 -41l88 -74q18 -16 45 -16q78 0 121 137zM770 1671l203 -383h-70l-196 320l-310 -320h-78l340 383h111zM584 1147 q160 0 235.5 -62.5t75.5 -195.5q0 -55 -12 -129l-133 -764l-84 -8l12 143h-12q-100 -152 -328 -151q-152 0 -223.5 60t-71.5 189q0 92 34 179.5t87 140.5q96 96 301 96h295l22 123q10 51 11 109q0 98 -51.5 139t-174.5 41q-104 0 -293 -35l-6 86q207 39 316 39zM721 414 l24 141h-317q-137 0 -201 -74q-33 -39 -55 -110.5t-22 -137.5q0 -86 49 -124.5t157 -38.5q158 0 246 83t119 261z" glyph-name="uni1EAB" horiz-adv-x="1009" unicode="ẫ"/><glyph d="M899 1978l203 -383h-70l-196 320l-310 -320h-77l339 383h111zM848 1434l160 -1434h-111l-41 424h-582l-190 -424h-111l664 1434h211zM317 516h531l-82 825h-76zM383 -279l23 127h126l-22 -127h-127z" glyph-name="uni1EAC" horiz-adv-x="1177" unicode="Ậ"/><glyph d="M770 1671l203 -383h-70l-196 320l-310 -320h-78l340 383h111zM584 1147q160 0 235.5 -62.5t75.5 -195.5q0 -55 -12 -129l-133 -764l-84 -8l12 143h-12q-100 -152 -328 -151q-152 0 -223.5 60t-71.5 189q0 92 34 179.5t87 140.5q96 96 301 96h295l22 123q10 51 11 109 q0 98 -51.5 139t-174.5 41q-104 0 -293 -35l-6 86q207 39 316 39zM721 414l24 141h-317q-137 0 -201 -74q-33 -39 -55 -110.5t-22 -137.5q0 -86 49 -124.5t157 -38.5q158 0 246 83t119 261zM279 -279l22 127h127l-22 -127h-127z" glyph-name="uni1EAD" horiz-adv-x="1009" unicode="ậ"/><glyph d="M1180 2290l-324 -383h-74l289 383h109zM1042 1909l7 33h81l-6 -31q-27 -154 -108.5 -212.5t-220.5 -58.5q-258 0 -258 197q0 25 8 82l4 23h84l-8 -41q-6 -31 -7 -58q0 -135 173 -135q214 0 251 201zM848 1434l160 -1434h-111l-41 424h-582l-190 -424h-111l664 1434h211z M317 516h531l-82 825h-76z" glyph-name="uni1EAE" horiz-adv-x="1177" unicode="Ắ"/><glyph d="M1051 1982l-324 -383h-74l289 383h109zM913 1602l7 32h81l-6 -30q-27 -154 -108.5 -212.5t-220.5 -58.5q-258 0 -258 197q0 25 8 82l4 22h84l-8 -41q-6 -31 -7 -57q0 -135 173 -135q214 0 251 201zM584 1147q160 0 235.5 -62.5t75.5 -195.5q0 -55 -12 -129l-133 -764 l-84 -8l12 143h-12q-100 -152 -328 -151q-152 0 -223.5 60t-71.5 189q0 92 34 179.5t87 140.5q96 96 301 96h295l22 123q10 51 11 109q0 98 -51.5 139t-174.5 41q-104 0 -293 -35l-6 86q207 39 316 39zM721 414l24 141h-317q-137 0 -201 -74q-33 -39 -55 -110.5t-22 -137.5 q0 -86 49 -124.5t157 -38.5q158 0 246 83t119 261z" glyph-name="uni1EAF" horiz-adv-x="1009" unicode="ắ"/><glyph d="M881 1905h-72l-188 383h104zM1049 1942h81l-6 -31q-27 -154 -108.5 -212.5t-220.5 -58.5q-258 0 -258 197q0 25 8 82l4 23h84l-8 -41q-6 -31 -7 -58q0 -135 173 -135q215 0 251 201zM848 1434l160 -1434h-111l-41 424h-582l-190 -424h-111l664 1434h211zM317 516h531 l-82 825h-76z" glyph-name="uni1EB0" horiz-adv-x="1177" unicode="Ằ"/><glyph d="M752 1597h-72l-188 383h104zM920 1634h81l-6 -30q-27 -154 -108.5 -212.5t-220.5 -58.5q-258 0 -258 197q0 25 8 82l4 22h84l-8 -41q-6 -31 -7 -57q0 -135 173 -135q215 0 251 201zM584 1147q160 0 235.5 -62.5t75.5 -195.5q0 -55 -12 -129l-133 -764l-84 -8l12 143h-12 q-100 -152 -328 -151q-152 0 -223.5 60t-71.5 189q0 92 34 179.5t87 140.5q96 96 301 96h295l22 123q10 51 11 109q0 98 -51.5 139t-174.5 41q-104 0 -293 -35l-6 86q207 39 316 39zM721 414l24 141h-317q-137 0 -201 -74q-33 -39 -55 -110.5t-22 -137.5q0 -86 49 -124.5 t157 -38.5q158 0 246 83t119 261z" glyph-name="uni1EB1" horiz-adv-x="1009" unicode="ằ"/><glyph d="M893 2212q-33 0 -109 -10l-2 65q72 10 121 10q156 0 156 -104q0 -35 -14.5 -70t-57.5 -65l-72 -49q-59 -41 -67 -84h-60q8 51 21.5 75.5t56.5 53.5l62 41q35 23 41 45q8 25 8 47q0 27 -18.5 36t-65.5 9zM1049 1942h81l-6 -31q-27 -154 -108.5 -212.5t-220.5 -58.5 q-258 0 -258 197q0 25 8 82l4 23h84l-8 -41q-6 -31 -7 -58q0 -135 173 -135q215 0 251 201zM848 1434l160 -1434h-111l-41 424h-582l-190 -424h-111l664 1434h211zM317 516h531l-82 825h-76z" glyph-name="uni1EB2" horiz-adv-x="1177" unicode="Ẳ"/><glyph d="M764 1905q-33 0 -109 -11l-2 66q72 10 121 10q156 0 156 -104q0 -35 -14.5 -70t-57.5 -65l-72 -50q-59 -41 -67 -84h-60q8 51 21.5 76t56.5 53l62 41q35 23 41 45q8 25 8 48q0 27 -18.5 36t-65.5 9zM920 1634h81l-6 -30q-27 -154 -108.5 -212.5t-220.5 -58.5 q-258 0 -258 197q0 25 8 82l4 22h84l-8 -41q-6 -31 -7 -57q0 -135 173 -135q215 0 251 201zM584 1147q160 0 235.5 -62.5t75.5 -195.5q0 -55 -12 -129l-133 -764l-84 -8l12 143h-12q-100 -152 -328 -151q-152 0 -223.5 60t-71.5 189q0 92 34 179.5t87 140.5q96 96 301 96 h295l22 123q10 51 11 109q0 98 -51.5 139t-174.5 41q-104 0 -293 -35l-6 86q207 39 316 39zM721 414l24 141h-317q-137 0 -201 -74q-33 -39 -55 -110.5t-22 -137.5q0 -86 49 -124.5t157 -38.5q158 0 246 83t119 261z" glyph-name="uni1EB3" horiz-adv-x="1009" unicode="ẳ"/><glyph d="M760 2171q-80 0 -121 -131h-68q14 94 64.5 148.5t120.5 54.5q63 0 112 -41l88 -74q18 -16 43 -17q78 0 121 134h70q-16 -94 -67.5 -149.5t-118.5 -55.5q-55 0 -111 45l-86 69q-22 17 -47 17zM1044 1909l7 33h82l-7 -31q-27 -154 -108.5 -212.5t-220.5 -58.5 q-258 0 -258 197q0 25 8 82l4 23h84l-8 -41q-6 -31 -6 -58q0 -135 172 -135q214 0 251 201zM848 1434l160 -1434h-111l-41 424h-582l-190 -424h-111l664 1434h211zM317 516h531l-82 825h-76z" glyph-name="uni1EB4" horiz-adv-x="1177" unicode="Ẵ"/><glyph d="M631 1864q-80 0 -121 -131h-68q14 94 64.5 148t120.5 54q63 0 112 -41l88 -73q18 -16 43 -17q78 0 121 133h70q-16 -94 -67.5 -149t-119.5 -55q-55 0 -110 45l-86 69q-22 17 -47 17zM915 1602l7 32h82l-7 -30q-27 -154 -108.5 -212.5t-220.5 -58.5q-258 0 -258 197 q0 25 8 82l4 22h84l-8 -41q-6 -31 -6 -57q0 -135 172 -135q214 0 251 201zM584 1147q160 0 235.5 -62.5t75.5 -195.5q0 -55 -12 -129l-133 -764l-84 -8l12 143h-12q-100 -152 -328 -151q-152 0 -223.5 60t-71.5 189q0 92 34 179.5t87 140.5q96 96 301 96h295l22 123 q10 51 11 109q0 98 -51.5 139t-174.5 41q-104 0 -293 -35l-6 86q207 39 316 39zM721 414l24 141h-317q-137 0 -201 -74q-33 -39 -55 -110.5t-22 -137.5q0 -86 49 -124.5t157 -38.5q158 0 246 83t119 261z" glyph-name="uni1EB5" horiz-adv-x="1009" unicode="ẵ"/><glyph d="M1049 1942h81l-6 -31q-27 -154 -108.5 -212.5t-220.5 -58.5q-258 0 -258 197q0 25 8 82l4 23h84l-8 -41q-6 -31 -7 -58q0 -135 173 -135q215 0 251 201zM848 1434l160 -1434h-111l-41 424h-582l-190 -424h-111l664 1434h211zM317 516h531l-82 825h-76zM383 -279l23 127 h126l-22 -127h-127z" glyph-name="uni1EB6" horiz-adv-x="1177" unicode="Ặ"/><glyph d="M920 1634h81l-6 -30q-27 -154 -108.5 -212.5t-220.5 -58.5q-258 0 -258 197q0 25 8 82l4 22h84l-8 -41q-6 -31 -7 -57q0 -135 173 -135q215 0 251 201zM584 1147q160 0 235.5 -62.5t75.5 -195.5q0 -55 -12 -129l-133 -764l-84 -8l12 143h-12q-100 -152 -328 -151 q-152 0 -223.5 60t-71.5 189q0 92 34 179.5t87 140.5q96 96 301 96h295l22 123q10 51 11 109q0 98 -51.5 139t-174.5 41q-104 0 -293 -35l-6 86q207 39 316 39zM721 414l24 141h-317q-137 0 -201 -74q-33 -39 -55 -110.5t-22 -137.5q0 -86 49 -124.5t157 -38.5q158 0 246 83 t119 261zM279 -279l22 127h127l-22 -127h-127z" glyph-name="uni1EB7" horiz-adv-x="1009" unicode="ặ"/><glyph d="M999 1341h-538l-96 -553h507l-16 -92h-508l-106 -604h563l-17 -92h-669l252 1434h645zM315 -279l23 127h127l-23 -127h-127z" glyph-name="uni1EB8" horiz-adv-x="995" unicode="Ẹ"/><glyph d="M659 1147q174 0 255 -82t81 -258q0 -102 -28 -252l-6 -31h-748q-12 -80 -12 -157q0 -160 66.5 -228.5t221.5 -68.5q137 0 355 69l6 -92q-217 -68 -375 -67q-197 0 -288 94t-91 295q0 176 59.5 361t147.5 282q123 135 356 135zM231 612h643q20 129 21 205 q0 131 -54.5 185.5t-183.5 54.5q-188 0 -282 -107q-93 -105 -144 -338zM328 -279l22 127h127l-22 -127h-127z" glyph-name="uni1EB9" horiz-adv-x="1069" unicode="ẹ"/><glyph d="M897 1878q0 27 -19.5 36t-66.5 9q-49 0 -109 -8v65q70 10 119 11q156 0 156 -107q0 -59 -27 -94q-18 -20 -45 -39l-71 -49q-57 -41 -66 -84h-61q8 51 21 75.5t56 53.5l62 41q20 12 35 31q16 26 16 59zM999 1341h-538l-96 -553h507l-16 -92h-508l-106 -604h563l-17 -92 h-669l252 1434h645z" glyph-name="uni1EBA" horiz-adv-x="995" unicode="Ẻ"/><glyph d="M834 1571q0 27 -19.5 36t-66.5 9q-49 0 -109 -8v65q70 10 119 10q156 0 155 -106q0 -59 -26 -94q-18 -20 -45 -39l-72 -49q-57 -41 -65 -84h-62q8 51 21.5 75.5t56.5 53.5l61 41q20 12 35 30q17 27 17 60zM659 1147q174 0 255 -82t81 -258q0 -102 -28 -252l-6 -31h-748 q-12 -80 -12 -157q0 -160 66.5 -228.5t221.5 -68.5q137 0 355 69l6 -92q-217 -68 -375 -67q-197 0 -288 94t-91 295q0 176 59.5 361t147.5 282q123 135 356 135zM231 612h643q20 129 21 205q0 131 -54.5 185.5t-183.5 54.5q-188 0 -282 -107q-93 -105 -144 -338z" glyph-name="uni1EBB" horiz-adv-x="1069" unicode="ẻ"/><glyph d="M645 1790q-80 0 -121 -131h-67q14 94 64 148.5t120 54.5q63 0 113 -41l88 -74q18 -16 43 -16q78 0 121 133h69q-16 -94 -67.5 -149.5t-118.5 -55.5q-55 0 -111 45l-86 70q-22 16 -47 16zM1016 1434l-17 -93h-538l-96 -553h507l-16 -92h-508l-106 -604h563l-17 -92h-669 l252 1434h645z" glyph-name="uni1EBC" horiz-adv-x="995" unicode="Ẽ"/><glyph d="M582 1483q-80 0 -121 -131h-68q14 94 64.5 148t120.5 54q63 0 112 -41l88 -73q18 -16 43 -17q78 0 121 133h70q-16 -94 -67.5 -149t-119.5 -55q-55 0 -110 45l-86 69q-22 17 -47 17zM659 1147q174 0 255 -82t81 -258q0 -102 -28 -252l-6 -31h-748q-12 -80 -12 -157 q0 -160 66.5 -228.5t221.5 -68.5q137 0 355 69l6 -92q-217 -68 -375 -67q-197 0 -288 94t-91 295q0 176 59.5 361t147.5 282q123 135 356 135zM231 612h643q20 129 21 205q0 131 -54.5 185.5t-183.5 54.5q-188 0 -282 -107q-93 -105 -144 -338z" glyph-name="uni1EBD" horiz-adv-x="1069" unicode="ẽ"/><glyph d="M1319 2226h108l-323 -383h-76zM854 1978l203 -383h-70l-196 320l-310 -320h-78l340 383h111zM1016 1434l-17 -93h-538l-96 -553h507l-16 -92h-508l-106 -604h563l-17 -92h-669l252 1434h645z" glyph-name="uni1EBE" horiz-adv-x="995" unicode="Ế"/><glyph d="M1255 1919h109l-324 -383h-75zM727 1608l-309 -320h-78l340 383h111l202 -383h-69zM659 1147q174 0 255 -82t81 -258q0 -102 -28 -252l-6 -31h-748q-12 -80 -12 -157q0 -160 66.5 -228.5t221.5 -68.5q137 0 355 69l6 -92q-217 -68 -375 -67q-197 0 -288 94t-91 295 q0 176 59.5 361t147.5 282q123 135 356 135zM231 612h643q20 129 21 205q0 131 -54.5 185.5t-183.5 54.5q-188 0 -282 -107q-93 -105 -144 -338z" glyph-name="uni1EBF" horiz-adv-x="1069" unicode="ế"/><glyph d="M989 2226l156 -383h-72l-188 383h104zM854 1978l203 -383h-70l-196 320l-310 -320h-78l340 383h111zM1016 1434l-17 -93h-538l-96 -553h507l-16 -92h-508l-106 -604h563l-17 -92h-669l252 1434h645z" glyph-name="uni1EC0" horiz-adv-x="995" unicode="Ề"/><glyph d="M926 1919l155 -383h-71l-189 383h105zM727 1608l-309 -320h-78l340 383h111l202 -383h-69zM659 1147q174 0 255 -82t81 -258q0 -102 -28 -252l-6 -31h-748q-12 -80 -12 -157q0 -160 66.5 -228.5t221.5 -68.5q137 0 355 69l6 -92q-217 -68 -375 -67q-197 0 -288 94 t-91 295q0 176 59.5 361t147.5 282q123 135 356 135zM231 612h643q20 129 21 205q0 131 -54.5 185.5t-183.5 54.5q-188 0 -282 -107q-93 -105 -144 -338z" glyph-name="uni1EC1" horiz-adv-x="1069" unicode="ề"/><glyph d="M1139 2216q156 0 155 -105q0 -35 -14 -69.5t-57 -65.5l-72 -49q-59 -41 -68 -84h-59q8 51 21.5 76t56.5 53l61 41q35 23 41 45q8 25 8 47q0 27 -18 36t-66 9q-33 0 -108 -10l-2 66q72 10 121 10zM854 1978l203 -383h-70l-196 320l-310 -320h-78l340 383h111zM1016 1434 l-17 -93h-538l-96 -553h507l-16 -92h-508l-106 -604h563l-17 -92h-669l252 1434h645z" glyph-name="uni1EC2" horiz-adv-x="995" unicode="Ể"/><glyph d="M1075 1909q156 0 156 -105q0 -35 -14.5 -69.5t-57.5 -65.5l-72 -49q-59 -41 -67 -84h-59q8 51 21 75.5t56 53.5l62 41q35 23 41 45q8 25 8 47q0 27 -18.5 36t-65.5 9q-33 0 -109 -10l-2 65q72 11 121 11zM727 1608l-309 -320h-78l340 383h111l202 -383h-69zM659 1147 q174 0 255 -82t81 -258q0 -102 -28 -252l-6 -31h-748q-12 -80 -12 -157q0 -160 66.5 -228.5t221.5 -68.5q137 0 355 69l6 -92q-217 -68 -375 -67q-197 0 -288 94t-91 295q0 176 59.5 361t147.5 282q123 135 356 135zM231 612h643q20 129 21 205q0 131 -54.5 185.5 t-183.5 54.5q-188 0 -282 -107q-93 -105 -144 -338z" glyph-name="uni1EC3" horiz-adv-x="1069" unicode="ể"/><glyph d="M1069 2267l68 -8q-16 -92 -67.5 -146.5t-119.5 -54.5q-55 0 -110 45l-86 70q-23 16 -47 16q-76 0 -121 -137l-68 8q14 92 65.5 146.5t118.5 54.5q66 0 113 -41l88 -74q18 -16 45 -16q78 0 121 137zM854 1978l203 -383h-70l-196 320l-310 -320h-78l340 383h111zM1016 1434 l-17 -93h-538l-96 -553h507l-16 -92h-508l-106 -604h563l-17 -92h-669l252 1434h645z" glyph-name="uni1EC4" horiz-adv-x="995" unicode="Ễ"/><glyph d="M1006 1960l67 -8q-16 -92 -67.5 -146.5t-118.5 -54.5q-55 0 -111 45l-86 70q-23 16 -47 16q-76 0 -121 -137l-67 8q14 92 65 146.5t119 54.5q66 0 113 -41l88 -74q18 -16 45 -16q78 0 121 137zM924 1288l-197 320l-309 -320h-78l340 383h111l202 -383h-69zM659 1147 q174 0 255 -82t81 -258q0 -102 -28 -252l-6 -31h-748q-12 -80 -12 -157q0 -160 66.5 -228.5t221.5 -68.5q137 0 355 69l6 -92q-217 -68 -375 -67q-197 0 -288 94t-91 295q0 176 59.5 361t147.5 282q123 135 356 135zM231 612h643q20 129 21 205q0 131 -54.5 185.5 t-183.5 54.5q-188 0 -282 -107q-93 -105 -144 -338z" glyph-name="uni1EC5" horiz-adv-x="1069" unicode="ễ"/><glyph d="M791 1915l-310 -320h-78l340 383h111l203 -383h-70zM1016 1434l-17 -93h-538l-96 -553h507l-16 -92h-508l-106 -604h563l-17 -92h-669l252 1434h645zM315 -279l23 127h127l-23 -127h-127z" glyph-name="uni1EC6" horiz-adv-x="995" unicode="Ệ"/><glyph d="M727 1608l-309 -320h-78l340 383h111l202 -383h-69zM659 1147q174 0 255 -82t81 -258q0 -102 -28 -252l-6 -31h-748q-12 -80 -12 -157q0 -160 66.5 -228.5t221.5 -68.5q137 0 355 69l6 -92q-217 -68 -375 -67q-197 0 -288 94t-91 295q0 176 59.5 361t147.5 282 q123 135 356 135zM231 612h643q20 129 21 205q0 131 -54.5 185.5t-183.5 54.5q-188 0 -282 -107q-93 -105 -144 -338zM328 -279l22 127h127l-22 -127h-127z" glyph-name="uni1EC7" horiz-adv-x="1069" unicode="ệ"/><glyph d="M426 1618q8 51 21.5 75.5t56.5 53.5l61 41q20 12 35 31q16 27 16 59q0 27 -19 36t-67 9q-49 0 -108 -8v65q70 10 119 11q156 0 155 -107q0 -59 -26 -94q-18 -20 -45 -39l-72 -49q-57 -41 -66 -84h-61zM477 1434l-252 -1434h-106l252 1434h106z" glyph-name="uni1EC8" horiz-adv-x="540" unicode="Ỉ"/><glyph d="M330 1311q8 51 21.5 75.5t56.5 53.5l61 41q20 12 35 30q16 27 16 60q0 27 -19.5 36t-66.5 9q-49 0 -108 -8v65q70 10 118 10q156 0 156 -106q0 -59 -27 -94q-18 -20 -45 -39l-71 -49q-57 -41 -66 -84h-61zM377 1126l-199 -1126h-102l198 1126h103z" glyph-name="uni1EC9" horiz-adv-x="448" unicode="ỉ"/><glyph d="M477 1434l-252 -1434h-106l252 1434h106zM82 -152h127l-23 -127h-127z" glyph-name="uni1ECA" horiz-adv-x="540" unicode="Ị"/><glyph d="M330 1518h129l-23 -129h-129zM377 1126l-199 -1126h-102l198 1126h103zM37 -152h127l-23 -127h-127z" glyph-name="uni1ECB" horiz-adv-x="448" unicode="ị"/><glyph d="M594 -20q-233 0 -338.5 109.5t-105.5 355t86 506.5t204 376q133 127 387 127q233 0 338 -108.5t105 -350.5q0 -238 -81 -495.5t-194 -378.5q-131 -141 -401 -141zM588 74q250 0 362 151q84 113 146.5 348.5t62.5 434.5q0 190 -74.5 271t-250.5 81q-229 0 -340 -125 q-94 -104 -164 -345t-70 -456q0 -195 75 -277.5t253 -82.5zM494 -152h127l-23 -127h-127z" glyph-name="uni1ECC" horiz-adv-x="1363" unicode="Ọ"/><glyph d="M481 -20q-199 0 -290 86t-91 274q0 203 63.5 401.5t158.5 292.5q115 113 342 113q199 0 289.5 -86t90.5 -273q0 -201 -63 -399.5t-156 -294.5q-113 -114 -344 -114zM475 70q188 0 279 86q78 74 134 263t56 363q0 152 -61.5 213.5t-212.5 61.5q-190 0 -279 -86 q-78 -74 -134 -263.5t-56 -363.5q0 -152 61 -213t213 -61zM385 -152h127l-23 -127h-127z" glyph-name="uni1ECD" horiz-adv-x="1142" unicode="ọ"/><glyph d="M840 1618q8 51 21 75.5t57 53.5l61 41q20 12 35 31q16 27 16 59q0 27 -19.5 36t-66.5 9q-49 0 -108 -8v65q70 10 118 11q156 0 156 -107q0 -59 -27 -94q-18 -20 -45 -39l-71 -49q-57 -41 -66 -84h-61zM594 -20q-233 0 -338.5 109.5t-105.5 355t86 506.5t204 376 q133 127 387 127q233 0 338 -108.5t105 -350.5q0 -238 -81 -495.5t-194 -378.5q-131 -141 -401 -141zM588 74q250 0 362 151q84 113 146.5 348.5t62.5 434.5q0 190 -74.5 271t-250.5 81q-229 0 -340 -125q-94 -104 -164 -345t-70 -456q0 -195 75 -277.5t253 -82.5z" glyph-name="uni1ECE" horiz-adv-x="1363" unicode="Ỏ"/><glyph d="M676 1311q8 51 21.5 75.5t56.5 53.5l61 41q20 12 35 30q16 27 16 60q0 27 -19.5 36t-66.5 9q-49 0 -108 -8v65q70 10 119 10q156 0 155 -106q0 -59 -26 -94q-18 -20 -46 -39l-71 -49q-57 -41 -66 -84h-61zM481 -20q-199 0 -290 86t-91 274q0 203 63.5 401.5t158.5 292.5 q115 113 342 113q199 0 289.5 -86t90.5 -273q0 -201 -63 -399.5t-156 -294.5q-113 -114 -344 -114zM475 70q188 0 279 86q78 74 134 263t56 363q0 152 -61.5 213.5t-212.5 61.5q-190 0 -279 -86q-78 -74 -134 -263.5t-56 -363.5q0 -152 61 -213t213 -61z" glyph-name="uni1ECF" horiz-adv-x="1142" unicode="ỏ"/><glyph d="M1561 2226l-324 -383h-76l291 383h109zM924 1915l-310 -320h-77l340 383h110l203 -383h-70zM827 1454q233 0 338 -108.5t105 -350.5q0 -238 -81 -495.5t-194 -378.5q-131 -141 -401 -141q-233 0 -338.5 109.5t-105.5 355t86 506.5t204 376q133 127 387 127zM950 225 q84 113 146.5 348.5t62.5 434.5q0 190 -74.5 271t-250.5 81q-229 0 -340 -125q-94 -104 -164 -345t-70 -456q0 -195 75 -277.5t253 -82.5q249 -1 362 151z" glyph-name="uni1ED0" horiz-adv-x="1363" unicode="Ố"/><glyph d="M1288 1919h109l-324 -383h-76zM760 1608l-309 -320h-78l340 383h110l203 -383h-70zM664 1147q199 0 289.5 -86t90.5 -273q0 -201 -63 -399.5t-156 -294.5q-113 -115 -344 -114q-199 0 -290 86t-91 274q0 203 63.5 401.5t158.5 292.5q115 113 342 113zM754 156 q78 74 134 263t56 363q0 152 -61.5 213.5t-212.5 61.5q-190 0 -279 -86q-78 -74 -134 -263.5t-56 -363.5q0 -152 61.5 -213t212.5 -61q189 0 279 86z" glyph-name="uni1ED1" horiz-adv-x="1142" unicode="ố"/><glyph d="M1278 1843h-72l-188 383h104zM924 1915l-310 -320h-77l340 383h110l203 -383h-70zM827 1454q233 0 338 -108.5t105 -350.5q0 -238 -81 -495.5t-194 -378.5q-131 -141 -401 -141q-233 0 -338.5 109.5t-105.5 355t86 506.5t204 376q133 127 387 127zM950 225 q84 113 146.5 348.5t62.5 434.5q0 190 -74.5 271t-250.5 81q-229 0 -340 -125q-94 -104 -164 -345t-70 -456q0 -195 75 -277.5t253 -82.5q249 -1 362 151z" glyph-name="uni1ED2" horiz-adv-x="1363" unicode="Ồ"/><glyph d="M1114 1536h-72l-188 383h104zM760 1608l-309 -320h-78l340 383h110l203 -383h-70zM664 1147q199 0 289.5 -86t90.5 -273q0 -201 -63 -399.5t-156 -294.5q-113 -115 -344 -114q-199 0 -290 86t-91 274q0 203 63.5 401.5t158.5 292.5q115 113 342 113zM754 156 q78 74 134 263t56 363q0 152 -61.5 213.5t-212.5 61.5q-190 0 -279 -86q-78 -74 -134 -263.5t-56 -363.5q0 -152 61.5 -213t212.5 -61q189 0 279 86z" glyph-name="uni1ED3" horiz-adv-x="1142" unicode="ồ"/><glyph d="M1272 2216q156 0 155 -105q0 -35 -14 -69.5t-57 -65.5l-72 -49q-59 -41 -67 -84h-60q8 51 21.5 76t56.5 53l61 41q35 23 41 45q8 25 9 47q0 27 -18.5 36t-65.5 9q-33 0 -109 -10l-2 66q72 10 121 10zM924 1915l-310 -320h-77l340 383h110l203 -383h-70zM827 1454 q233 0 338 -108.5t105 -350.5q0 -238 -81 -495.5t-194 -378.5q-131 -141 -401 -141q-233 0 -338.5 109.5t-105.5 355t86 506.5t204 376q133 127 387 127zM950 225q84 113 146.5 348.5t62.5 434.5q0 190 -74.5 271t-250.5 81q-229 0 -340 -125q-94 -104 -164 -345t-70 -456 q0 -195 75 -277.5t253 -82.5q249 -1 362 151z" glyph-name="uni1ED4" horiz-adv-x="1363" unicode="Ổ"/><glyph d="M1108 1909q156 0 156 -105q0 -35 -14.5 -69.5t-57.5 -65.5l-72 -49q-59 -41 -67 -84h-60q8 51 21.5 75.5t56.5 53.5l62 41q35 23 41 45q8 25 8 47q0 27 -18.5 36t-65.5 9q-33 0 -109 -10l-2 65q72 11 121 11zM760 1608l-309 -320h-78l340 383h110l203 -383h-70zM664 1147 q199 0 289.5 -86t90.5 -273q0 -201 -63 -399.5t-156 -294.5q-113 -115 -344 -114q-199 0 -290 86t-91 274q0 203 63.5 401.5t158.5 292.5q115 113 342 113zM754 156q78 74 134 263t56 363q0 152 -61.5 213.5t-212.5 61.5q-190 0 -279 -86q-78 -74 -134 -263.5t-56 -363.5 q0 -152 61.5 -213t212.5 -61q189 0 279 86z" glyph-name="uni1ED5" horiz-adv-x="1142" unicode="ổ"/><glyph d="M840 2189q-76 0 -121 -137l-68 8q14 92 65.5 146.5t119.5 54.5q66 0 112 -41l88 -74q18 -16 45 -16q78 0 121 137l68 -8q-16 -92 -67.5 -146.5t-119.5 -54.5q-55 0 -110 45l-86 70q-22 16 -47 16zM924 1915l-310 -320h-77l340 383h110l203 -383h-70zM827 1454 q233 0 338 -108.5t105 -350.5q0 -238 -81 -495.5t-194 -378.5q-131 -141 -401 -141q-233 0 -338.5 109.5t-105.5 355t86 506.5t204 376q133 127 387 127zM950 225q84 113 146.5 348.5t62.5 434.5q0 190 -74.5 271t-250.5 81q-229 0 -340 -125q-94 -104 -164 -345t-70 -456 q0 -195 75 -277.5t253 -82.5q249 -1 362 151z" glyph-name="uni1ED6" horiz-adv-x="1363" unicode="Ỗ"/><glyph d="M676 1882q-76 0 -121 -137l-68 8q14 92 65.5 146.5t119.5 54.5q66 0 112 -41l88 -74q18 -16 46 -16q78 0 120 137l68 -8q-16 -92 -67.5 -146.5t-118.5 -54.5q-55 0 -111 45l-86 70q-22 16 -47 16zM760 1608l-309 -320h-78l340 383h110l203 -383h-70zM664 1147 q199 0 289.5 -86t90.5 -273q0 -201 -63 -399.5t-156 -294.5q-113 -115 -344 -114q-199 0 -290 86t-91 274q0 203 63.5 401.5t158.5 292.5q115 113 342 113zM754 156q78 74 134 263t56 363q0 152 -61.5 213.5t-212.5 61.5q-190 0 -279 -86q-78 -74 -134 -263.5t-56 -363.5 q0 -152 61.5 -213t212.5 -61q189 0 279 86z" glyph-name="uni1ED7" horiz-adv-x="1142" unicode="ỗ"/><glyph d="M924 1915l-310 -320h-77l340 383h110l203 -383h-70zM827 1454q233 0 338 -108.5t105 -350.5q0 -238 -81 -495.5t-194 -378.5q-131 -141 -401 -141q-233 0 -338.5 109.5t-105.5 355t86 506.5t204 376q133 127 387 127zM950 225q84 113 146.5 348.5t62.5 434.5 q0 190 -74.5 271t-250.5 81q-229 0 -340 -125q-94 -104 -164 -345t-70 -456q0 -195 75 -277.5t253 -82.5q249 -1 362 151zM471 -279l23 127h127l-23 -127h-127z" glyph-name="uni1ED8" horiz-adv-x="1363" unicode="Ộ"/><glyph d="M760 1608l-309 -320h-78l340 383h110l203 -383h-70zM664 1147q199 0 289.5 -86t90.5 -273q0 -201 -63 -399.5t-156 -294.5q-113 -115 -344 -114q-199 0 -290 86t-91 274q0 203 63.5 401.5t158.5 292.5q115 113 342 113zM754 156q78 74 134 263t56 363q0 152 -61.5 213.5 t-212.5 61.5q-190 0 -279 -86q-78 -74 -134 -263.5t-56 -363.5q0 -152 61.5 -213t212.5 -61q189 0 279 86zM362 -279l23 127h127l-23 -127h-127z" glyph-name="uni1ED9" horiz-adv-x="1142" unicode="ộ"/><glyph d="M1225 1987l-324 -383h-76l291 383h109zM1452 1628h84l-33 -184q-23 -131 -86 -192.5t-166 -73.5q18 -76 19 -183q0 -238 -81 -495.5t-194 -378.5q-131 -141 -401 -141q-233 0 -338.5 109.5t-105.5 355t86 506.5t204 376q133 127 387 127q317 0 404 -209q156 20 188 197z M950 225q84 113 146.5 348.5t62.5 434.5q0 190 -74.5 271t-250.5 81q-229 0 -340 -125q-94 -104 -164 -345t-70 -456q0 -195 75 -277.5t253 -82.5q249 -1 362 151z" glyph-name="uni1EDA" horiz-adv-x="1363" unicode="Ớ"/><glyph d="M1061 1679l-324 -383h-75l290 383h109zM1235 1374h84l-33 -184q-23 -131 -87 -192.5t-169 -73.5q14 -55 14 -136q0 -201 -63 -399.5t-156 -294.5q-113 -115 -344 -114q-199 0 -290 86t-91 274q0 203 63.5 401.5t158.5 292.5q115 113 342 113q264 0 342 -158 q164 20 196 199zM754 156q78 74 134 263t56 363q0 152 -61.5 213.5t-212.5 61.5q-190 0 -279 -86q-78 -74 -134 -263.5t-56 -363.5q0 -152 61.5 -213t212.5 -61q189 0 279 86z" glyph-name="uni1EDB" horiz-adv-x="1142" unicode="ớ"/><glyph d="M899 1604h-72l-188 383h104zM1452 1628h84l-33 -184q-23 -131 -86 -192.5t-166 -73.5q18 -76 19 -183q0 -238 -81 -495.5t-194 -378.5q-131 -141 -401 -141q-233 0 -338.5 109.5t-105.5 355t86 506.5t204 376q133 127 387 127q317 0 404 -209q156 20 188 197zM950 225 q84 113 146.5 348.5t62.5 434.5q0 190 -74.5 271t-250.5 81q-229 0 -340 -125q-94 -104 -164 -345t-70 -456q0 -195 75 -277.5t253 -82.5q249 -1 362 151z" glyph-name="uni1EDC" horiz-adv-x="1363" unicode="Ờ"/><glyph d="M735 1296h-71l-189 383h105zM1235 1374h84l-33 -184q-23 -131 -87 -192.5t-169 -73.5q14 -55 14 -136q0 -201 -63 -399.5t-156 -294.5q-113 -115 -344 -114q-199 0 -290 86t-91 274q0 203 63.5 401.5t158.5 292.5q115 113 342 113q264 0 342 -158q164 20 196 199z M754 156q78 74 134 263t56 363q0 152 -61.5 213.5t-212.5 61.5q-190 0 -279 -86q-78 -74 -134 -263.5t-56 -363.5q0 -152 61.5 -213t212.5 -61q189 0 279 86z" glyph-name="uni1EDD" horiz-adv-x="1142" unicode="ờ"/><glyph d="M1030 1878q0 27 -19.5 36t-66.5 9q-49 0 -108 -8v65q70 10 118 11q156 0 156 -107q0 -59 -27 -94q-18 -20 -45 -39l-71 -49q-57 -41 -66 -84h-61q8 51 21 75.5t57 53.5l61 41q20 12 35 31q16 26 16 59zM1452 1628h84l-33 -184q-23 -131 -86 -192.5t-166 -73.5 q18 -76 19 -183q0 -238 -81 -495.5t-194 -378.5q-131 -141 -401 -141q-233 0 -338.5 109.5t-105.5 355t86 506.5t204 376q133 127 387 127q317 0 404 -209q156 20 188 197zM950 225q84 113 146.5 348.5t62.5 434.5q0 190 -74.5 271t-250.5 81q-229 0 -340 -125 q-94 -104 -164 -345t-70 -456q0 -195 75 -277.5t253 -82.5q249 -1 362 151z" glyph-name="uni1EDE" horiz-adv-x="1363" unicode="Ở"/><glyph d="M866 1571q0 27 -19.5 36t-66.5 9q-49 0 -108 -8v65q70 10 119 10q156 0 155 -106q0 -59 -26 -94q-18 -20 -46 -39l-71 -49q-57 -41 -66 -84h-61q8 51 21.5 75.5t56.5 53.5l61 41q20 12 35 30q16 27 16 60zM1235 1374h84l-33 -184q-23 -131 -87 -192.5t-169 -73.5 q14 -55 14 -136q0 -201 -63 -399.5t-156 -294.5q-113 -115 -344 -114q-199 0 -290 86t-91 274q0 203 63.5 401.5t158.5 292.5q115 113 342 113q264 0 342 -158q164 20 196 199zM754 156q78 74 134 263t56 363q0 152 -61.5 213.5t-212.5 61.5q-190 0 -279 -86 q-78 -74 -134 -263.5t-56 -363.5q0 -152 61.5 -213t212.5 -61q189 0 279 86z" glyph-name="uni1EDF" horiz-adv-x="1142" unicode="ở"/><glyph d="M778 1790q-80 0 -121 -131h-67q14 94 64.5 148.5t119.5 54.5q63 0 113 -41l88 -74q18 -16 43 -16q78 0 121 133h69q-16 -94 -67 -149.5t-119 -55.5q-55 0 -111 45l-86 70q-22 16 -47 16zM1452 1628h84l-33 -184q-23 -131 -86 -192.5t-166 -73.5q18 -76 19 -183 q0 -238 -81 -495.5t-194 -378.5q-131 -141 -401 -141q-233 0 -338.5 109.5t-105.5 355t86 506.5t204 376q133 127 387 127q317 0 404 -209q156 20 188 197zM950 225q84 113 146.5 348.5t62.5 434.5q0 190 -74.5 271t-250.5 81q-229 0 -340 -125q-94 -104 -164 -345t-70 -456 q0 -195 75 -277.5t253 -82.5q249 -1 362 151z" glyph-name="uni1EE0" horiz-adv-x="1363" unicode="Ỡ"/><glyph d="M614 1483q-80 0 -120 -131h-68q14 94 64.5 148t119.5 54q63 0 113 -41l88 -73q18 -16 43 -17q78 0 121 133h69q-16 -94 -67 -149t-119 -55q-55 0 -110 45l-86 69q-23 17 -48 17zM1235 1374h84l-33 -184q-23 -131 -87 -192.5t-169 -73.5q14 -55 14 -136q0 -201 -63 -399.5 t-156 -294.5q-113 -115 -344 -114q-199 0 -290 86t-91 274q0 203 63.5 401.5t158.5 292.5q115 113 342 113q264 0 342 -158q164 20 196 199zM754 156q78 74 134 263t56 363q0 152 -61.5 213.5t-212.5 61.5q-190 0 -279 -86q-78 -74 -134 -263.5t-56 -363.5q0 -152 61.5 -213 t212.5 -61q189 0 279 86z" glyph-name="uni1EE1" horiz-adv-x="1142" unicode="ỡ"/><glyph d="M1452 1628h84l-33 -184q-23 -131 -86 -192.5t-166 -73.5q18 -76 19 -183q0 -238 -81 -495.5t-194 -378.5q-131 -141 -401 -141q-233 0 -338.5 109.5t-105.5 355t86 506.5t204 376q133 127 387 127q317 0 404 -209q156 20 188 197zM950 225q84 113 146.5 348.5t62.5 434.5 q0 190 -74.5 271t-250.5 81q-229 0 -340 -125q-94 -104 -164 -345t-70 -456q0 -195 75 -277.5t253 -82.5q249 -1 362 151zM471 -279l23 127h127l-23 -127h-127z" glyph-name="uni1EE2" horiz-adv-x="1363" unicode="Ợ"/><glyph d="M1235 1374h84l-33 -184q-23 -131 -87 -192.5t-169 -73.5q14 -55 14 -136q0 -201 -63 -399.5t-156 -294.5q-113 -115 -344 -114q-199 0 -290 86t-91 274q0 203 63.5 401.5t158.5 292.5q115 113 342 113q264 0 342 -158q164 20 196 199zM754 156q78 74 134 263t56 363 q0 152 -61.5 213.5t-212.5 61.5q-190 0 -279 -86q-78 -74 -134 -263.5t-56 -363.5q0 -152 61.5 -213t212.5 -61q189 0 279 86zM362 -279l23 127h127l-23 -127h-127z" glyph-name="uni1EE3" horiz-adv-x="1142" unicode="ợ"/><glyph d="M555 -20q-211 0 -299 72.5t-88 230.5q0 82 18 182l170 969h107l-172 -979q-18 -111 -19 -164q0 -125 68 -171t225 -46q178 0 261 85t118 287l172 988h107l-174 -994q-47 -266 -160 -363t-334 -97zM449 -152h126l-22 -127h-127z" glyph-name="uni1EE4" horiz-adv-x="1271" unicode="Ụ"/><glyph d="M928 1126h102l-199 -1130l-83 -8l14 162h-12q-55 -94 -137.5 -132t-204.5 -38q-158 0 -224.5 58t-66.5 191q0 78 18 179l127 718h103l-127 -723q-16 -94 -17 -149q0 -104 50.5 -144t160.5 -40q158 0 247 77.5t124 270.5zM342 -279l23 127h127l-23 -127h-127z" glyph-name="uni1EE5" horiz-adv-x="1103" unicode="ụ"/><glyph d="M793 1618q8 51 21 75.5t56 53.5l62 41q20 12 35 31q16 27 16 59q0 27 -19.5 36t-66.5 9q-49 0 -109 -8v65q70 10 119 11q156 0 156 -107q0 -59 -27 -94q-18 -20 -45 -39l-71 -49q-57 -41 -66 -84h-61zM555 -20q-211 0 -299 72.5t-88 230.5q0 82 18 182l170 969h107 l-172 -979q-18 -111 -19 -164q0 -125 68 -171t225 -46q178 0 261 85t118 287l172 988h107l-174 -994q-47 -266 -160 -363t-334 -97z" glyph-name="uni1EE6" horiz-adv-x="1271" unicode="Ủ"/><glyph d="M846 1571q0 27 -19.5 36t-66.5 9q-49 0 -109 -8v65q70 10 119 10q156 0 156 -106q0 -59 -27 -94q-18 -20 -45 -39l-72 -49q-57 -41 -65 -84h-62q8 51 21.5 75.5t56.5 53.5l62 41q20 12 34 30q17 27 17 60zM928 1126h102l-199 -1130l-83 -8l14 162h-12 q-55 -94 -137.5 -132t-204.5 -38q-158 0 -224.5 58t-66.5 191q0 78 18 179l127 718h103l-127 -723q-16 -94 -17 -149q0 -104 50.5 -144t160.5 -40q158 0 247 77.5t124 270.5z" glyph-name="uni1EE7" horiz-adv-x="1103" unicode="ủ"/><glyph d="M1178 1987l-324 -383h-76l291 383h109zM1468 1821h84l-32 -185q-27 -147 -103 -206.5t-207 -63.5l-161 -926q-47 -266 -160 -363t-334 -97q-211 0 -299 72.5t-88 230.5q0 82 18 182l170 969h107l-172 -979q-18 -111 -19 -164q0 -125 68 -171t225 -46q178 0 261 85 t118 287l172 988h74q209 0 246 200z" glyph-name="uni1EE8" horiz-adv-x="1271" unicode="Ứ"/><glyph d="M1040 1679l-323 -383h-76l291 383h108zM1280 1513h84l-33 -184q-27 -150 -103.5 -208t-209.5 -62l-187 -1063l-83 -8l14 162h-12q-55 -94 -137.5 -132t-204.5 -38q-158 0 -224.5 58t-66.5 191q0 78 18 179l127 718h103l-127 -723q-16 -94 -17 -149q0 -104 50.5 -144 t160.5 -40q158 0 247 77.5t124 270.5l125 708h73q209 0 246 201z" glyph-name="uni1EE9" horiz-adv-x="1103" unicode="ứ"/><glyph d="M852 1604h-72l-188 383h104zM1468 1821h84l-32 -185q-27 -147 -103 -206.5t-207 -63.5l-161 -926q-47 -266 -160 -363t-334 -97q-211 0 -299 72.5t-88 230.5q0 82 18 182l170 969h107l-172 -979q-18 -111 -19 -164q0 -125 68 -171t225 -46q178 0 261 85t118 287l172 988 h74q209 0 246 200z" glyph-name="uni1EEA" horiz-adv-x="1271" unicode="Ừ"/><glyph d="M715 1296h-72l-188 383h104zM1280 1513h84l-33 -184q-27 -150 -103.5 -208t-209.5 -62l-187 -1063l-83 -8l14 162h-12q-55 -94 -137.5 -132t-204.5 -38q-158 0 -224.5 58t-66.5 191q0 78 18 179l127 718h103l-127 -723q-16 -94 -17 -149q0 -104 50.5 -144t160.5 -40 q158 0 247 77.5t124 270.5l125 708h73q209 0 246 201z" glyph-name="uni1EEB" horiz-adv-x="1103" unicode="ừ"/><glyph d="M983 1878q0 27 -19.5 36t-66.5 9q-49 0 -109 -8v65q70 10 119 11q156 0 156 -107q0 -59 -27 -94q-18 -20 -45 -39l-71 -49q-57 -41 -66 -84h-61q8 51 21 75.5t56 53.5l62 41q20 12 35 31q16 26 16 59zM1468 1821h84l-32 -185q-27 -147 -103 -206.5t-207 -63.5l-161 -926 q-47 -266 -160 -363t-334 -97q-211 0 -299 72.5t-88 230.5q0 82 18 182l170 969h107l-172 -979q-18 -111 -19 -164q0 -125 68 -171t225 -46q178 0 261 85t118 287l172 988h74q209 0 246 200z" glyph-name="uni1EEC" horiz-adv-x="1271" unicode="Ử"/><glyph d="M846 1571q0 27 -19.5 36t-66.5 9q-49 0 -109 -8v65q70 10 119 10q156 0 156 -106q0 -59 -27 -94q-18 -20 -45 -39l-72 -49q-57 -41 -65 -84h-62q8 51 21.5 75.5t56.5 53.5l62 41q20 12 34 30q17 27 17 60zM1280 1513h84l-33 -184q-27 -150 -103.5 -208t-209.5 -62 l-187 -1063l-83 -8l14 162h-12q-55 -94 -137.5 -132t-204.5 -38q-158 0 -224.5 58t-66.5 191q0 78 18 179l127 718h103l-127 -723q-16 -94 -17 -149q0 -104 50.5 -144t160.5 -40q158 0 247 77.5t124 270.5l125 708h73q209 0 246 201z" glyph-name="uni1EED" horiz-adv-x="1103" unicode="ử"/><glyph d="M731 1790q-80 0 -121 -131h-67q14 94 64 148.5t120 54.5q63 0 113 -41l88 -74q18 -16 43 -16q78 0 121 133h69q-16 -94 -67.5 -149.5t-118.5 -55.5q-55 0 -111 45l-86 70q-22 16 -47 16zM1468 1821h84l-32 -185q-27 -147 -103 -206.5t-207 -63.5l-161 -926 q-47 -266 -160 -363t-334 -97q-211 0 -299 72.5t-88 230.5q0 82 18 182l170 969h107l-172 -979q-18 -111 -19 -164q0 -125 68 -171t225 -46q178 0 261 85t118 287l172 988h74q209 0 246 200z" glyph-name="uni1EEE" horiz-adv-x="1271" unicode="Ữ"/><glyph d="M594 1483q-80 0 -121 -131h-67q14 94 64 148t120 54q63 0 112 -41l89 -73q18 -16 43 -17q78 0 120 133h70q-16 -94 -67.5 -149t-118.5 -55q-55 0 -111 45l-86 69q-22 17 -47 17zM1280 1513h84l-33 -184q-27 -150 -103.5 -208t-209.5 -62l-187 -1063l-83 -8l14 162h-12 q-55 -94 -137.5 -132t-204.5 -38q-158 0 -224.5 58t-66.5 191q0 78 18 179l127 718h103l-127 -723q-16 -94 -17 -149q0 -104 50.5 -144t160.5 -40q158 0 247 77.5t124 270.5l125 708h73q209 0 246 201z" glyph-name="uni1EEF" horiz-adv-x="1103" unicode="ữ"/><glyph d="M1468 1821h84l-32 -185q-27 -147 -103 -206.5t-207 -63.5l-161 -926q-47 -266 -160 -363t-334 -97q-211 0 -299 72.5t-88 230.5q0 82 18 182l170 969h107l-172 -979q-18 -111 -19 -164q0 -125 68 -171t225 -46q178 0 261 85t118 287l172 988h74q209 0 246 200zM426 -279 l23 127h126l-22 -127h-127z" glyph-name="uni1EF0" horiz-adv-x="1271" unicode="Ự"/><glyph d="M1280 1513h84l-33 -184q-27 -150 -103.5 -208t-209.5 -62l-187 -1063l-83 -8l14 162h-12q-55 -94 -137.5 -132t-204.5 -38q-158 0 -224.5 58t-66.5 191q0 78 18 179l127 718h103l-127 -723q-16 -94 -17 -149q0 -104 50.5 -144t160.5 -40q158 0 247 77.5t124 270.5 l125 708h73q209 0 246 201zM342 -279l23 127h127l-23 -127h-127z" glyph-name="uni1EF1" horiz-adv-x="1103" unicode="ự"/><glyph d="M766 1604h-72l-188 383h104zM1196 1434l-590 -873l-98 -561h-107l99 561l-283 873h113l227 -748h31l491 748h117z" glyph-name="Ygrave" horiz-adv-x="1101" unicode="Ỳ"/><glyph d="M633 1296h-72l-188 383h104zM901 1126h111l-633 -1249q-68 -135 -160 -200.5t-231 -65.5q-29 0 -82 4l22 86q41 -4 62 -4q104 0 176 49t129 164l53 108h-53l-164 1108h111l135 -1020h16z" glyph-name="ygrave" horiz-adv-x="942" unicode="ỳ"/><glyph d="M1196 1434l-590 -873l-98 -561h-107l99 561l-283 873h113l227 -748h31l491 748h117zM342 -279l23 127h127l-23 -127h-127z" glyph-name="uni1EF4" horiz-adv-x="1101" unicode="Ỵ"/><glyph d="M901 1126h111l-633 -1249q-68 -135 -160 -200.5t-231 -65.5q-29 0 -82 4l22 86q41 -4 62 -4q104 0 176 49t129 164l53 108h-53l-164 1108h111l135 -1020h16zM473 -279l23 127h127l-23 -127h-127z" glyph-name="uni1EF5" horiz-adv-x="942" unicode="ỵ"/><glyph d="M897 1878q0 27 -19.5 36t-66.5 9q-49 0 -109 -8v65q70 10 119 11q156 0 156 -107q0 -59 -27 -94q-18 -20 -45 -39l-71 -49q-57 -41 -66 -84h-61q8 51 21 75.5t56 53.5l62 41q20 12 35 31q16 26 16 59zM1196 1434l-590 -873l-98 -561h-107l99 561l-283 873h113l227 -748 h31l491 748h117z" glyph-name="uni1EF6" horiz-adv-x="1101" unicode="Ỷ"/><glyph d="M764 1571q0 27 -19.5 36t-66.5 9q-49 0 -109 -8v65q70 10 119 10q156 0 156 -106q0 -59 -27 -94q-18 -20 -45 -39l-72 -49q-57 -41 -65 -84h-62q8 51 21.5 75.5t56.5 53.5l62 41q20 12 35 30q16 27 16 60zM901 1126h111l-633 -1249q-68 -135 -160 -200.5t-231 -65.5 q-29 0 -82 4l22 86q41 -4 62 -4q104 0 176 49t129 164l53 108h-53l-164 1108h111l135 -1020h16z" glyph-name="uni1EF7" horiz-adv-x="942" unicode="ỷ"/><glyph d="M645 1790q-80 0 -121 -131h-67q14 94 64 148.5t120 54.5q63 0 113 -41l88 -74q18 -16 43 -16q78 0 121 133h69q-16 -94 -67.5 -149.5t-118.5 -55.5q-55 0 -111 45l-86 70q-22 16 -47 16zM1196 1434l-590 -873l-98 -561h-107l99 561l-283 873h113l227 -748h31l491 748h117 z" glyph-name="uni1EF8" horiz-adv-x="1101" unicode="Ỹ"/><glyph d="M512 1483q-80 0 -121 -131h-67q14 94 64 148t120 54q63 0 113 -41l88 -73q18 -16 43 -17q78 0 120 133h70q-16 -94 -67.5 -149t-118.5 -55q-55 0 -111 45l-86 69q-22 17 -47 17zM901 1126h111l-633 -1249q-68 -135 -160 -200.5t-231 -65.5q-29 0 -82 4l22 86q41 -4 62 -4 q104 0 176 49t129 164l53 108h-53l-164 1108h111l135 -1020h16z" glyph-name="uni1EF9" horiz-adv-x="942" unicode="ỹ"/><glyph glyph-name="uni2009" horiz-adv-x="204" unicode=" "/><glyph d="M197 680h772l-17 -92h-772z" glyph-name="endash" horiz-adv-x="1120" unicode="–"/><glyph d="M197 680h1298l-16 -92h-1299z" glyph-name="emdash" horiz-adv-x="1646" unicode="—"/><glyph d="M131 -86h901l-16 -88h-901zM92 -301h901l-16 -88h-901z" glyph-name="underscoredbl" horiz-adv-x="1388" unicode="‗"/><glyph d="M553 1495l-125 -293h61l-28 -153h-144l29 153l129 293h78z" glyph-name="quoteleft" horiz-adv-x="630" unicode="‘"/><glyph d="M410 1495h143l-29 -154l-129 -292h-78l125 292h-61z" glyph-name="quoteright" horiz-adv-x="630" unicode="’"/><glyph d="M172 154h143l-26 -154l-129 -293h-78l125 293h-62z" glyph-name="quotesinglbase" horiz-adv-x="630" unicode="‚"/><glyph d="M475 1495h78l-125 -293h61l-28 -153h-144l29 153zM809 1495l-125 -293h61l-28 -153h-144l29 153l129 293h78z" glyph-name="quotedblleft" horiz-adv-x="778" unicode="“"/><glyph d="M332 1341l28 154h144l-29 -154l-129 -292h-78l125 292h-61zM616 1495h144l-29 -154l-129 -292h-78l125 292h-61z" glyph-name="quotedblright" horiz-adv-x="778" unicode="”"/><glyph d="M96 0l27 154h143l-26 -154l-129 -293h-78l125 293h-62zM379 154h143l-26 -154l-129 -293h-78l125 293h-62z" glyph-name="quotedblbase" horiz-adv-x="778" unicode="„"/><glyph d="M1042 885l-16 -92h-399l-205 -1162h-107l205 1162h-397l16 92h398l104 596h107l-105 -596h399z" glyph-name="dagger" horiz-adv-x="1067" unicode="†"/><glyph d="M1022 811h-401l-89 -510h400l-17 -92h-399l-102 -578h-107l103 578h-398l17 92h397l88 510h-395l16 92h395l103 578h106l-102 -578h401z" glyph-name="daggerdbl" horiz-adv-x="1050" unicode="‡"/><glyph d="M461 465q-102 0 -172 68.5t-70 171.5q0 121 88 208.5t209 87.5q104 0 174 -69.5t70 -171.5q0 -117 -91 -206t-208 -89z" glyph-name="bullet" horiz-adv-x="919" unicode="•"/><glyph d="M145 0l27 154h143l-26 -154h-144zM694 0l27 154h143l-26 -154h-144zM1241 0l27 154h143l-27 -154h-143z" glyph-name="ellipsis" horiz-adv-x="1726" unicode="…"/><glyph d="M399 610q-113 0 -162 57.5t-49 176.5q0 117 37 272.5t92 237.5q68 100 209 100q113 0 162 -57.5t49 -176t-35.5 -273t-93.5 -236.5q-70 -101 -209 -101zM199 -20l1130 1474h103l-1131 -1474h-102zM395 702q88 0 133 64q45 66 77 214t32 249q0 76 -25.5 105.5t-81.5 29.5 q-88 0 -131 -64q-45 -66 -77.5 -216t-32.5 -246q0 -76 25.5 -106t80.5 -30zM1112 -12q-113 0 -162 57t-49 176q0 117 37 271.5t92 238.5q68 100 209 100q113 0 162 -57t49 -176t-36 -273.5t-93 -236.5q-70 -100 -209 -100zM1757 -12q-113 0 -162 57t-49 176q0 117 37 271.5 t92 238.5q68 100 209 100q113 0 162 -57t49 -176t-36 -273.5t-93 -236.5q-70 -100 -209 -100zM1108 80q88 0 133 63q47 66 78 213.5t31 249.5q0 76 -26 105.5t-81 29.5q-86 0 -131 -63.5t-78 -214t-33 -248.5q0 -76 26 -105.5t81 -29.5zM1753 80q88 0 133 63q47 66 78 213.5 t31 249.5q0 76 -25.5 105.5t-81.5 29.5q-86 0 -131 -63.5t-77.5 -214t-32.5 -248.5q0 -76 25.5 -105.5t80.5 -29.5z" glyph-name="perthousand" horiz-adv-x="2209" unicode="‰"/><glyph d="M526 1020l-20 -129l-377 -318l264 -313l-20 -129l-348 410l6 41l4 28z" glyph-name="guilsinglleft" horiz-adv-x="542" unicode="‹"/><glyph d="M176 1020l348 -410l-4 -26l-6 -43l-491 -410l20 129l377 318l-264 313z" glyph-name="guilsinglright" horiz-adv-x="542" unicode="›"/><glyph d="M-14 -41l862 1516h102l-862 -1516h-102z" glyph-name="fraction" horiz-adv-x="880" unicode="⁄"/><glyph d="M989 1360q-297 0 -444 -211q-61 -90 -113 -236h516l-16 -92h-526q-25 -94 -37 -188h475l-15 -92h-469q-2 -23 -2 -66q0 -225 100.5 -313t286.5 -88q137 0 242 47l4 -98q-96 -43 -229 -43q-272 0 -392 128t-120 369q0 41 2 64h-141l14 92h135q8 88 35 188h-135l16 92h143 q59 184 138 293q174 248 526 248q135 0 231 -41l-20 -92q-78 39 -205 39z" glyph-name="Euro" horiz-adv-x="1181" unicode="€"/><glyph d="M1890 1444q154 0 219.5 -65.5t65.5 -198.5q0 -109 -32 -239t-87 -208q-88 -127 -291 -127q-156 0 -222 66.5t-66 201.5q0 104 31.5 232.5t84.5 206.5q90 131 297 131zM928 92l235 1342h107l-252 -1434h-203l-326 1341h-28l-236 -1341h-106l252 1434h204l324 -1342h29z M1972 776q45 63 74 193.5t29 222.5q0 96 -42 133t-139 37q-152 0 -211 -86q-45 -63 -75.5 -194.5t-30.5 -225.5t42 -130t138 -36q156 0 215 86zM1374 354l15 92h667l-14 -92h-668z" glyph-name="afii61352" horiz-adv-x="2179" unicode="№"/><glyph d="M672 1434l-8 -56h-164l-115 -661h-68l115 661h-162l9 56h393zM1380 1434l-125 -717h-65l115 657h-11l-250 -491h-100l-74 491h-12l-115 -657h-67l125 717h123l75 -492h13l248 492h120z" glyph-name="trademark" horiz-adv-x="1486" unicode="™"/><glyph d="M1190 1475h102l-862 -1516h-102zM479 637l-14 -80h-445l15 80h180l127 723l-182 -49v71l194 52h97l-140 -797h168zM1139 877h463l-19 -113l-461 -764h-102l465 764l6 35h-365z" glyph-name="uni2150" horiz-adv-x="1581" unicode="⅐"/><glyph d="M1190 1475h102l-862 -1516h-102zM479 637l-14 -80h-445l15 80h180l127 723l-182 -49v71l194 52h97l-140 -797h168zM1333 889q129 0 178.5 -48t49.5 -151q0 -186 -156 -414q-98 -141 -248 -276h-115q154 145 254 279q49 66 64 92h-2q-57 -29 -141 -29q-104 0 -152.5 44 t-48.5 138q0 66 20.5 143.5t55.5 127.5q67 94 241 94zM1407 485q27 37 42 101.5t15 115.5q0 59 -30.5 82t-100.5 23q-119 0 -159 -59q-27 -37 -43.5 -107t-16.5 -121q0 -55 27.5 -75.5t99.5 -20.5q119 0 166 61z" glyph-name="uni2151" horiz-adv-x="1611" unicode="⅑"/><glyph d="M1190 1475h102l-862 -1516h-102zM479 637l-14 -80h-445l15 80h180l127 723l-182 -49v71l194 52h97l-140 -797h168zM1942 891q121 0 173 -62.5t52 -189.5q0 -125 -39 -291t-98 -254q-72 -106 -226 -106q-123 0 -176 63.5t-53 190.5q0 125 39 288.5t100 251.5 q76 109 228 109zM1411 877l-139 -797h168l-15 -80h-444l14 80h181l127 723l-183 -49v71l195 52h96zM1950 135q47 68 81.5 236t34.5 276q0 90 -31.5 126t-101.5 36q-96 0 -141 -66q-49 -70 -84 -236.5t-35 -275.5q0 -90 32 -125.5t101 -35.5q99 -1 144 65z" glyph-name="uni2152" horiz-adv-x="2256" unicode="⅒"/><glyph d="M1190 1475h102l-862 -1516h-102zM479 637l-14 -80h-445l15 80h180l127 723l-182 -49v71l194 52h97l-140 -797h168zM1442 442q86 -39 86 -137q0 -127 -66 -221q-68 -96 -266 -96q-137 0 -203 32l15 76q59 -27 178 -26q152 0 194 63q51 78 52 191q0 55 -34 74.5t-122 19.5 h-113l15 80h104q119 0 156 53q43 61 43 168q0 53 -30 71.5t-101 18.5q-109 0 -201 -31v86q82 27 192 27q129 0 183.5 -40t54.5 -126q0 -127 -57 -205q-27 -37 -76 -59z" glyph-name="onethird" horiz-adv-x="1662" unicode="⅓"/><glyph d="M1260 1475h102l-862 -1516h-103zM561 637l-14 -80h-492l19 102q14 86 53 140.5t115 111.5l247 185q82 63 82 170q0 57 -33.5 78.5t-107.5 21.5t-190 -18v82q121 18 192 18q240 0 240 -184q0 -141 -119 -232l-264 -198q-98 -74 -117 -183l-2 -14h391zM1511 442 q86 -39 86 -137q0 -127 -65 -221q-68 -96 -266 -96q-137 0 -203 32l14 76q59 -27 178 -26q152 0 195 63q51 78 51 191q0 55 -33.5 74.5t-121.5 19.5h-113l14 80h105q119 0 155 53q43 61 43 168q0 53 -29.5 71.5t-101.5 18.5q-109 0 -200 -31v86q82 27 192 27 q129 0 183.5 -40t54.5 -126q0 -127 -58 -205q-27 -37 -75 -59z" glyph-name="twothirds" horiz-adv-x="1732" unicode="⅔"/><glyph d="M1190 1475h102l-862 -1516h-102zM479 637l-14 -80h-445l15 80h180l127 723l-182 -49v71l194 52h97l-140 -797h168zM1546 799h-299l-57 -271h51q135 0 192.5 -44t57.5 -136q0 -61 -20.5 -137t-53.5 -125q-70 -98 -260 -98q-127 0 -192 30l14 78q51 -27 158 -26 q158 0 200 65q55 82 56 207q0 63 -36 85t-124 22h-158l88 428h396z" glyph-name="uni2155" horiz-adv-x="1607" unicode="⅕"/><glyph d="M1260 1475h102l-862 -1516h-103zM561 637l-14 -80h-492l19 102q14 86 53 140.5t115 111.5l247 185q82 63 82 170q0 57 -33.5 78.5t-107.5 21.5t-190 -18v82q121 18 192 18q240 0 240 -184q0 -141 -119 -232l-264 -198q-98 -74 -117 -183l-2 -14h391zM1616 799h-299 l-57 -271h51q135 0 192.5 -44t57.5 -136q0 -61 -20.5 -137t-53.5 -125q-70 -98 -260 -98q-127 0 -193 30l15 78q51 -27 157 -26q158 0 201 65q55 82 55 207q0 63 -35.5 85t-123.5 22h-158l88 428h395z" glyph-name="uni2156" horiz-adv-x="1677" unicode="⅖"/><glyph d="M1163 1475h103l-863 -1516h-102zM520 641q-68 -96 -266 -96q-137 0 -203 33l15 75q59 -27 178 -26q152 0 194 63q51 78 51 191q0 55 -33.5 74.5t-121.5 19.5h-113l15 80h104q119 0 156 53q43 61 43 168q0 53 -30 71.5t-101 18.5q-109 0 -201 -31v86q82 27 192 27 q129 0 183.5 -40t54.5 -126q0 -127 -57 -205q-27 -37 -76 -59l-4 -19q86 -39 86 -137q0 -127 -66 -221zM1520 799h-299l-58 -271h51q135 0 192.5 -44t57.5 -136q0 -61 -20.5 -137t-52.5 -125q-70 -98 -261 -98q-127 0 -192 30l14 78q51 -27 158 -26q158 0 201 65 q55 82 55 207q0 63 -36 85t-124 22h-157l88 428h395z" glyph-name="uni2157" horiz-adv-x="1581" unicode="⅗"/><glyph d="M1260 1475h102l-862 -1516h-103zM406 557l40 234h-364l22 122l361 521h102l-368 -535l-6 -29h268l53 308h96l-53 -308h123l-14 -79h-123l-41 -234h-96zM1616 799h-299l-57 -271h51q135 0 192.5 -44t57.5 -136q0 -61 -20.5 -137t-53.5 -125q-70 -98 -260 -98 q-127 0 -193 30l15 78q51 -27 157 -26q158 0 201 65q55 82 55 207q0 63 -35.5 85t-123.5 22h-158l88 428h395z" glyph-name="uni2158" horiz-adv-x="1677" unicode="⅘"/><glyph d="M1190 1475h102l-862 -1516h-102zM479 637l-14 -80h-445l15 80h180l127 723l-182 -49v71l194 52h97l-140 -797h168zM1227 535q104 0 152 -44.5t48 -138.5q0 -66 -20.5 -143.5t-54.5 -126.5q-68 -94 -242 -94q-129 0 -178 48t-49 150q0 186 155 414q98 141 248 277h115 q-168 -160 -254 -279q-49 -66 -64 -92h2q58 29 142 29zM1270 129q27 37 43 106.5t16 120.5q0 55 -27.5 76t-99.5 21q-121 0 -166 -62q-27 -37 -42 -101.5t-15 -115.5q0 -59 30.5 -81.5t100.5 -22.5q119 0 160 59z" glyph-name="uni2159" horiz-adv-x="1529" unicode="⅙"/><glyph d="M1171 1475h103l-862 -1516h-103zM518 643q-70 -98 -260 -98q-127 0 -192 30l14 78q51 -27 158 -26q158 0 200 65q55 82 56 207q0 63 -36 85t-124 22h-158l88 428h395l-12 -78h-299l-57 -271h51q135 0 192.5 -44t57.5 -136q0 -61 -20.5 -137t-53.5 -125zM1208 535 q104 0 152.5 -44.5t48.5 -138.5q0 -66 -20.5 -143.5t-55.5 -126.5q-68 -94 -241 -94q-129 0 -178.5 48t-49.5 150q0 186 156 414q98 141 248 277h114q-168 -160 -254 -279q-49 -66 -63 -92h2q57 29 141 29zM1251 129q27 37 43.5 106.5t16.5 120.5q0 55 -28 76t-99 21 q-119 0 -166 -62q-27 -37 -42 -101.5t-15 -115.5q0 -59 30.5 -81.5t100.5 -22.5q118 0 159 59z" glyph-name="uni215A" horiz-adv-x="1511" unicode="⅚"/><glyph d="M1190 1475h102l-862 -1516h-102zM479 637l-14 -80h-445l15 80h180l127 723l-182 -49v71l194 52h97l-140 -797h168zM1452 453q86 -39 86 -148q0 -127 -61 -213q-74 -104 -271 -104q-137 0 -191 46t-54 140q0 127 59 211q35 53 100 72v10q-63 37 -63 129q0 123 57 205 q61 90 244 90q123 0 177 -42t54 -126q0 -125 -57 -205q-29 -39 -78 -61zM1196 758q-45 -63 -45 -172q0 -51 28.5 -69.5t100.5 -18.5q129 0 168 55q45 63 45 164q0 55 -30.5 73.5t-106.5 18.5q-125 0 -160 -51zM1389 127q23 33 37 91t14 99q0 57 -34 79t-114 22 q-137 0 -186 -64q-49 -68 -49 -184q0 -57 32.5 -78.5t120.5 -21.5q138 0 179 57z" glyph-name="oneeighth" horiz-adv-x="1673" unicode="⅛"/><glyph d="M1163 1475h103l-863 -1516h-102zM520 641q-68 -96 -266 -96q-137 0 -203 33l15 75q59 -27 178 -26q152 0 194 63q51 78 51 191q0 55 -33.5 74.5t-121.5 19.5h-113l15 80h104q119 0 156 53q43 61 43 168q0 53 -30 71.5t-101 18.5q-109 0 -201 -31v86q82 27 192 27 q129 0 183.5 -40t54.5 -126q0 -127 -57 -205q-27 -37 -76 -59l-4 -19q86 -39 86 -137q0 -127 -66 -221zM1425 453q86 -39 86 -148q0 -127 -61 -213q-74 -104 -270 -104q-137 0 -191.5 46t-54.5 140q0 127 59 211q35 53 101 72v10q-63 37 -64 129q0 123 57 205q61 90 244 90 q123 0 177.5 -42t54.5 -126q0 -125 -58 -205q-29 -39 -78 -61zM1169 758q-45 -63 -45 -172q0 -51 29 -69.5t100 -18.5q129 0 168 55q45 63 45 164q0 55 -30.5 73.5t-106.5 18.5q-125 0 -160 -51zM1362 127q23 33 37 91t14 99q0 57 -33.5 79t-113.5 22q-137 0 -187 -64 q-49 -68 -49 -184q0 -57 33 -78.5t121 -21.5q137 0 178 57z" glyph-name="threeeighths" horiz-adv-x="1646" unicode="⅜"/><glyph d="M1171 1475h103l-862 -1516h-103zM518 643q-70 -98 -260 -98q-127 0 -192 30l14 78q51 -27 158 -26q158 0 200 65q55 82 56 207q0 63 -36 85t-124 22h-158l88 428h395l-12 -78h-299l-57 -271h51q135 0 192.5 -44t57.5 -136q0 -61 -20.5 -137t-53.5 -125zM1434 453 q86 -39 86 -148q0 -127 -62 -213q-74 -104 -270 -104q-137 0 -191.5 46t-54.5 140q0 127 59 211q35 53 101 72v10q-63 37 -64 129q0 123 58 205q61 90 243 90q123 0 177.5 -42t54.5 -126q0 -125 -58 -205q-29 -39 -77 -61zM1178 758q-45 -63 -45 -172q0 -51 28.5 -69.5 t100.5 -18.5q129 0 168 55q45 63 45 164q0 55 -31 73.5t-107 18.5q-124 0 -159 -51zM1370 127q23 33 37 91t14 99q0 57 -33.5 79t-113.5 22q-137 0 -187 -64q-49 -68 -49 -184q0 -57 33 -78.5t121 -21.5q137 0 178 57z" glyph-name="fiveeighths" horiz-adv-x="1654" unicode="⅝"/><glyph d="M985 1475h102l-862 -1516h-102zM63 557l465 764l7 35h-365l12 78h463l-18 -113l-461 -764h-103zM1247 453q86 -39 86 -148q0 -127 -61 -213q-74 -104 -271 -104q-137 0 -191 46t-54 140q0 127 59 211q35 53 100 72v10q-63 37 -63 129q0 123 57 205q61 90 244 90 q123 0 177 -42t54 -126q0 -125 -57 -205q-29 -39 -78 -61zM991 758q-45 -63 -45 -172q0 -51 29 -69.5t100 -18.5q129 0 168 55q45 63 45 164q0 55 -30.5 73.5t-106.5 18.5q-125 0 -160 -51zM1184 127q23 33 37 91t14 99q0 57 -34 79t-114 22q-137 0 -186 -64 q-49 -68 -49 -184q0 -57 33 -78.5t121 -21.5q137 0 178 57z" glyph-name="seveneighths" horiz-adv-x="1468" unicode="⅞"/><glyph d="M1190 1475h102l-862 -1516h-102zM479 637l-14 -80h-445l15 80h180l127 723l-182 -49v71l194 52h97l-140 -797h168z" glyph-name="uni215F" horiz-adv-x="1222" unicode="⅟"/><glyph d="M205 621h837l-16 -93h-838z" glyph-name="minus" horiz-adv-x="1228" unicode="−"/><glyph d="M266 645l-69 33q16 100 86.5 159.5t158.5 59.5q76 0 142 -45l161 -107q47 -31 82 -30q96 0 158 155l72 -34q-18 -96 -83 -152.5t-155 -56.5q-55 0 -123 41l-161 104q-59 39 -97 39q-106 0 -172 -166zM266 338l-69 33q16 100 86.5 159.5t158.5 59.5q76 0 142 -45l161 -107 q47 -31 82 -30q96 0 158 155l72 -35q-18 -96 -83 -152.5t-155 -56.5q-55 0 -123 41l-161 105q-59 39 -97 39q-106 0 -172 -166z" glyph-name="approxequal" horiz-adv-x="1228" unicode="≈"/><glyph d="M1047 707h-310l-141 -258h405l-16 -93h-440l-166 -301h-100l165 301h-272l16 93h306l143 258h-404l17 92h436l166 301h102l-166 -301h275z" glyph-name="notequal" horiz-adv-x="1228" unicode="≠"/><glyph d="M1116 1126l-749 -290l-7 -31l648 -291l-17 -94l-743 342l18 117l867 340zM133 121l17 92h804l-16 -92h-805z" glyph-name="lessequal" horiz-adv-x="1228" unicode="≤"/><glyph d="M328 1219l743 -340l-18 -117l-867 -342l17 94l749 291l6 31l-647 290zM133 121l17 92h804l-16 -92h-805z" glyph-name="greaterequal" horiz-adv-x="1228" unicode="≥"/><glyph d="M860 -20q-297 0 -480 181t-183 476q0 342 233.5 579.5t581.5 237.5q297 0 480 -181t183 -476q0 -342 -233.5 -579.5t-581.5 -237.5zM868 70q303 0 506 209.5t203 508.5q0 260 -157.5 418t-415.5 158q-303 0 -506 -212t-203 -509q0 -258 157.5 -415.5t415.5 -157.5z M643 289l14 80h179l127 723l-185 -50l2 72l197 53h96l-141 -798h168l-15 -80h-442z" glyph-name="uni2460" horiz-adv-x="1814" unicode="①"/><glyph d="M860 -20q-297 0 -480 181t-183 476q0 342 233.5 579.5t581.5 237.5q297 0 480 -181t183 -476q0 -342 -233.5 -579.5t-581.5 -237.5zM868 70q303 0 506 209.5t203 508.5q0 260 -157.5 418t-415.5 158q-303 0 -506 -212t-203 -509q0 -258 157.5 -415.5t415.5 -157.5z M614 291l17 94q14 84 54 141.5t118 114.5l250 184q74 55 73 160q0 63 -37.5 88t-115.5 25q-80 0 -180 -17l12 82q125 18 194 19q231 0 232 -170q0 -145 -127 -242l-262 -199q-92 -72 -111 -178l-4 -22h393l-14 -80h-492z" glyph-name="uni2461" horiz-adv-x="1814" unicode="②"/><glyph d="M860 -20q-297 0 -480 181t-183 476q0 342 233.5 579.5t581.5 237.5q297 0 480 -181t183 -476q0 -342 -233.5 -579.5t-581.5 -237.5zM868 70q303 0 506 209.5t203 508.5q0 260 -157.5 418t-415.5 158q-303 0 -506 -212t-203 -509q0 -258 157.5 -415.5t415.5 -157.5z M815 276q-125 0 -188 29l28 86q57 -31 189 -31q135 0 176 56q47 66 47 186q0 59 -36 82t-124 23h-104l14 79h111q117 0 151 52q39 57 39 153q0 63 -35.5 85t-130.5 22q-113 0 -170 -25l11 78q70 29 194 29q129 0 181.5 -36t52.5 -116q0 -121 -62 -209q-29 -41 -76 -63l4 -11 q82 -35 82 -137q0 -137 -65 -225q-80 -107 -289 -107z" glyph-name="uni2462" horiz-adv-x="1814" unicode="③"/><glyph d="M860 -20q-297 0 -480 181t-183 476q0 342 233.5 579.5t581.5 237.5q297 0 480 -181t183 -476q0 -342 -233.5 -579.5t-581.5 -237.5zM868 70q303 0 506 209.5t203 508.5q0 260 -157.5 418t-415.5 158q-303 0 -506 -212t-203 -509q0 -258 157.5 -415.5t415.5 -157.5z M895 291l41 233h-365l23 123l360 522h101l-367 -528l-6 -37h268l54 307h96l-53 -307h120l-14 -80h-121l-41 -233h-96z" glyph-name="uni2463" horiz-adv-x="1814" unicode="④"/><glyph d="M860 -20q-297 0 -480 181t-183 476q0 342 233.5 579.5t581.5 237.5q297 0 480 -181t183 -476q0 -342 -233.5 -579.5t-581.5 -237.5zM868 70q303 0 506 209.5t203 508.5q0 260 -157.5 418t-415.5 158q-303 0 -506 -212t-203 -509q0 -258 157.5 -415.5t415.5 -157.5z M795 279q-119 0 -174 26l28 86q55 -31 176 -31q135 0 176 58q23 33 37.5 94t14.5 109q0 68 -38 93t-126 25h-150l90 428h394l-15 -80h-299l-57 -268h57q137 0 192.5 -41t55.5 -129q0 -61 -20.5 -137t-55.5 -127q-69 -106 -286 -106z" glyph-name="uni2464" horiz-adv-x="1814" unicode="⑤"/><glyph d="M860 -20q-297 0 -480 181t-183 476q0 342 233.5 579.5t581.5 237.5q297 0 480 -181t183 -476q0 -342 -233.5 -579.5t-581.5 -237.5zM868 70q303 0 506 209.5t203 508.5q0 260 -157.5 418t-415.5 158q-303 0 -506 -212t-203 -509q0 -258 157.5 -415.5t415.5 -157.5z M838 285q-123 0 -174.5 45t-51.5 139q0 195 164 430q86 127 246 275h108q-164 -145 -256 -273q-29 -39 -65 -100h16q61 31 152 30q96 0 141 -40.5t45 -128.5q0 -158 -78 -271q-71 -106 -247 -106zM856 367q109 0 148 57q25 37 41 102.5t16 112.5q0 63 -33 87t-108 24 q-113 0 -150 -54q-25 -35 -39 -99.5t-14 -115.5q0 -66 31.5 -90t107.5 -24z" glyph-name="uni2465" horiz-adv-x="1814" unicode="⑥"/><glyph d="M860 -20q-297 0 -480 181t-183 476q0 342 233.5 579.5t581.5 237.5q297 0 480 -181t183 -476q0 -342 -233.5 -579.5t-581.5 -237.5zM868 70q303 0 506 209.5t203 508.5q0 260 -157.5 418t-415.5 158q-303 0 -506 -212t-203 -509q0 -258 157.5 -415.5t415.5 -157.5z M672 274l463 762l6 37h-367l14 78h461l-20 -113l-461 -764h-96z" glyph-name="uni2466" horiz-adv-x="1814" unicode="⑦"/><glyph d="M860 -20q-297 0 -480 181t-183 476q0 342 233.5 579.5t581.5 237.5q297 0 480 -181t183 -476q0 -342 -233.5 -579.5t-581.5 -237.5zM868 70q303 0 506 209.5t203 508.5q0 260 -157.5 418t-415.5 158q-303 0 -506 -212t-203 -509q0 -258 157.5 -415.5t415.5 -157.5z M854 279q-131 0 -187.5 43t-56.5 127q0 129 64 219q37 49 102 73l-4 11q-66 31 -65 116q0 51 18 115t47 104q68 94 242 95q125 0 177 -39t52 -119q0 -123 -55 -205q-29 -41 -82 -65l6 -9q82 -35 82 -135q0 -127 -68 -223q-75 -108 -272 -108zM958 786q113 0 148 52 q39 57 39 155q0 59 -33 82t-117 23q-111 0 -145 -45q-45 -59 -45 -166q0 -55 34.5 -78t118.5 -23zM881 360q129 0 166 52q20 29 32.5 86t12.5 100q0 61 -37 85t-127 24q-129 0 -170 -60q-43 -66 -43 -168q0 -70 37 -94.5t129 -24.5z" glyph-name="uni2467" horiz-adv-x="1814" unicode="⑧"/><glyph d="M860 -20q-297 0 -480 181t-183 476q0 342 233.5 579.5t581.5 237.5q297 0 480 -181t183 -476q0 -342 -233.5 -579.5t-581.5 -237.5zM868 70q303 0 506 209.5t203 508.5q0 260 -157.5 418t-415.5 158q-303 0 -506 -212t-203 -509q0 -258 157.5 -415.5t415.5 -157.5z M723 285q164 145 256 272q29 41 65 100h-16q-61 -31 -151 -30q-96 0 -141.5 41t-45.5 129q0 158 78 270q72 106 248 107q123 0 174 -45.5t51 -139.5q0 -195 -164 -430q-86 -127 -246 -274h-108zM934 709q113 0 149 53q25 35 39.5 99.5t14.5 115.5q0 66 -32 90.5t-108 24.5 q-109 0 -147 -58q-25 -37 -41 -102.5t-16 -112.5q0 -63 32.5 -86.5t108.5 -23.5z" glyph-name="uni2468" horiz-adv-x="1814" unicode="⑨"/><glyph d="M860 -20q-297 0 -480 181t-183 476q0 342 233.5 579.5t581.5 237.5q297 0 480 -181t183 -476q0 -342 -233.5 -579.5t-581.5 -237.5zM868 70q303 0 506 209.5t203 508.5q0 260 -157.5 418t-415.5 158q-303 0 -506 -212t-203 -509q0 -258 157.5 -415.5t415.5 -157.5z M868 279q-123 0 -175 63.5t-52 189.5q0 125 38 289t99 252q76 109 228 109q121 0 173 -62.5t52 -189.5q0 -125 -39 -291t-98 -254q-72 -106 -226 -106zM862 360q100 0 150 70q51 72 87 240t36 278q0 84 -30 117t-95 33q-102 0 -151.5 -72t-85.5 -237.5t-36 -276.5 q0 -84 29.5 -118t95.5 -34z" glyph-name="uni24EA" horiz-adv-x="1814" unicode="⓪"/><glyph d="M860 -20q-297 0 -480 181t-183 476q0 342 233.5 579.5t581.5 237.5q297 0 480 -181t183 -476q0 -342 -233.5 -579.5t-581.5 -237.5zM856 279q162 0 238 114q61 92 101 259t40 290q0 121 -49 180.5t-166 59.5q-160 0 -240 -117q-61 -90 -101 -256t-40 -291q0 -123 49 -181 t168 -58zM879 360q-72 0 -105 37t-33 129q0 109 34 274t83 234q43 63 139 64q70 0 104 -37t34 -125q0 -106 -36 -275t-83 -237q-43 -64 -137 -64z" glyph-name="uni24FF" horiz-adv-x="1814" unicode="⓿"/><glyph d="M860 -20q-297 0 -480 181t-183 476q0 342 233.5 579.5t581.5 237.5q297 0 480 -181t183 -476q0 -342 -233.5 -579.5t-581.5 -237.5zM643 289h442l15 80h-168l141 798h-96l-197 -53l-2 -72l185 50l-127 -723h-179z" glyph-name="uni2776" horiz-adv-x="1814" unicode="❶"/><glyph d="M860 -20q-297 0 -480 181t-183 476q0 342 233.5 579.5t581.5 237.5q297 0 480 -181t183 -476q0 -342 -233.5 -579.5t-581.5 -237.5zM614 291h492l14 80h-393l4 22q18 106 111 178l262 199q98 74 121 195q20 111 -35 164t-191 53q-70 0 -194 -19l-12 -82q100 16 182 17 q90 0 126 -33t21 -117q-16 -82 -69 -123l-250 -184q-78 -57 -118 -114.5t-54 -141.5z" glyph-name="uni2777" horiz-adv-x="1814" unicode="❷"/><glyph d="M860 -20q-297 0 -480 181t-183 476q0 342 233.5 579.5t581.5 237.5q297 0 480 -181t183 -476q0 -342 -233.5 -579.5t-581.5 -237.5zM838 276q193 0 266 109q66 94 65 215q0 106 -88 145l2 11q49 23 76 63q61 96 62 205q0 80 -52.5 118t-175.5 38q-131 0 -200 -29l-11 -78 q57 25 189 25q80 0 113.5 -22.5t33.5 -84.5q0 -98 -39 -155q-33 -49 -151 -50h-111l-14 -79h104q88 0 124 -22.5t36 -82.5q0 -123 -47 -188q-39 -53 -174 -54q-133 0 -191 31l-28 -86q64 -29 211 -29z" glyph-name="uni2778" horiz-adv-x="1814" unicode="❸"/><glyph d="M860 -20q-297 0 -480 181t-183 476q0 342 233.5 579.5t581.5 237.5q297 0 480 -181t183 -476q0 -342 -233.5 -579.5t-581.5 -237.5zM895 291h96l41 233h121l14 80h-120l53 307h-96l-54 -307h-268l6 37l367 528h-101l-360 -522l-23 -123h365z" glyph-name="uni2779" horiz-adv-x="1814" unicode="❹"/><glyph d="M860 -20q-297 0 -480 181t-183 476q0 342 233.5 579.5t581.5 237.5q297 0 480 -181t183 -476q0 -342 -233.5 -579.5t-581.5 -237.5zM809 279q100 0 164.5 23.5t107.5 86.5q76 109 76 254q0 90 -55 133t-193 43h-57l57 268h299l15 80h-394l-90 -428h150q90 0 127 -26.5 t37 -94.5q0 -127 -49 -198q-43 -59 -179 -60q-121 0 -176 31l-28 -86q55 -26 188 -26z" glyph-name="uni277A" horiz-adv-x="1814" unicode="❺"/><glyph d="M860 -20q-297 0 -480 181t-183 476q0 342 233.5 579.5t581.5 237.5q297 0 480 -181t183 -476q0 -342 -233.5 -579.5t-581.5 -237.5zM836 285q127 0 192.5 47t99 139t33.5 180q0 94 -44 137t-140 43q-90 0 -152 -30h-16q43 72 65 102q88 121 256 271h-108 q-143 -131 -227 -242q-180 -244 -181 -459q0 -96 49.5 -142t172.5 -46zM862 367q-80 0 -112.5 25.5t-32.5 92.5q0 63 20.5 136t59.5 102q39 27 125 27q76 0 107.5 -24t31.5 -91q0 -63 -21.5 -139t-64.5 -105q-37 -24 -113 -24z" glyph-name="uni277B" horiz-adv-x="1814" unicode="❻"/><glyph d="M860 -20q-297 0 -480 181t-183 476q0 342 233.5 579.5t581.5 237.5q297 0 480 -181t183 -476q0 -342 -233.5 -579.5t-581.5 -237.5zM674 289h96l461 764l20 112h-460l-13 -78h367l-6 -34z" glyph-name="uni277C" horiz-adv-x="1814" unicode="❼"/><glyph d="M860 -20q-297 0 -480 181t-183 476q0 342 233.5 579.5t581.5 237.5q297 0 480 -181t183 -476q0 -342 -233.5 -579.5t-581.5 -237.5zM856 279q141 0 215 53q59 41 91 116.5t32 149.5q0 104 -90 145l2 11q12 6 31 18q53 37 79.5 105.5t26.5 136.5q0 84 -53 126t-178 42 q-127 0 -191 -47q-55 -39 -83.5 -112t-28.5 -144q0 -94 69 -127l-2 -11q-37 -14 -55 -26q-53 -37 -82 -112t-29 -144q0 -180 246 -180zM958 786q-84 0 -117.5 24t-33.5 83q0 135 67 180q39 25 125 25q82 0 114 -22.5t32 -84.5q0 -131 -66 -180q-35 -25 -121 -25zM881 360 q-92 0 -129 25t-37 94q0 53 18.5 113.5t55 87.5t139.5 27q90 0 127 -25t37 -90q0 -53 -17.5 -115.5t-54.5 -89.5q-35 -27 -139 -27z" glyph-name="uni277D" horiz-adv-x="1814" unicode="❽"/><glyph d="M860 -20q-297 0 -480 181t-183 476q0 342 233.5 579.5t581.5 237.5q297 0 480 -181t183 -476q0 -342 -233.5 -579.5t-581.5 -237.5zM723 287h108q143 131 228 241q180 244 180 459q0 96 -49 142.5t-172 46.5q-127 0 -192.5 -47.5t-99.5 -139.5t-34 -180q0 -94 44 -137 t141 -43q90 0 151 30h16q-31 -55 -65 -102q-88 -120 -256 -270zM932 711q-76 0 -107.5 23.5t-31.5 90.5q0 63 21.5 139t64.5 105q37 25 112 25q80 0 113 -26t33 -93q0 -63 -20.5 -137t-59.5 -100.5t-125 -26.5z" glyph-name="uni277E" horiz-adv-x="1814" unicode="❾"/><glyph d="M334 1518h127l-23 -127h-127zM377 1126l-199 -1126h-102l198 1126h103z" glyph-name="glyph593" horiz-adv-x="448"/><glyph d="M920 1126h102l-201 -1132l-82 -8l13 139h-13q-94 -145 -305 -145q-174 0 -255 88t-81 280q0 190 70 394t166 300q104 104 309 105q199 0 248 -129h10zM852 743q12 63 12 115q0 104 -54 151.5t-173 47.5q-168 0 -248 -84q-76 -80 -132 -272.5t-56 -362.5q0 -147 54 -207.5 t185 -60.5q154 0 237 75.5t111 241.5z" glyph-name="a.ss01" horiz-adv-x="1095"/><glyph d="M1030 1679l-323 -383h-76l291 383h108zM901 1018l19 108h102l-201 -1132l-82 -8l13 139h-13q-94 -145 -305 -145q-174 0 -255 88t-81 280q0 190 70 394t166 300q104 104 309 105q199 0 248 -129h10zM852 743q12 63 12 115q0 104 -54 151.5t-173 47.5q-168 0 -248 -84 q-76 -80 -132 -272.5t-56 -362.5q0 -147 54 -207.5t185 -60.5q154 0 237 75.5t111 241.5z" glyph-name="aacute.aalt" horiz-adv-x="1095"/><glyph d="M688 1333q-258 0 -258 197q0 25 8 82l4 22h84l-8 -41q-6 -31 -6 -57q0 -135 172 -135q215 0 252 201l6 32h82l-6 -30q-27 -154 -109 -212.5t-221 -58.5zM901 1018l19 108h102l-201 -1132l-82 -8l13 139h-13q-94 -145 -305 -145q-174 0 -255 88t-81 280q0 190 70 394 t166 300q104 104 309 105q199 0 248 -129h10zM852 743q12 63 12 115q0 104 -54 151.5t-173 47.5q-168 0 -248 -84q-76 -80 -132 -272.5t-56 -362.5q0 -147 54 -207.5t185 -60.5q154 0 237 75.5t111 241.5z" glyph-name="abreve.aalt" horiz-adv-x="1095"/><glyph d="M1073 1982l-323 -383h-74l289 383h108zM936 1602l6 32h82l-6 -30q-27 -154 -109 -212.5t-221 -58.5q-258 0 -258 197q0 25 8 82l4 22h84l-8 -41q-6 -31 -6 -57q0 -135 172 -135q215 0 252 201zM901 1018l19 108h102l-201 -1132l-82 -8l13 139h-13q-94 -145 -305 -145 q-174 0 -255 88t-81 280q0 190 70 394t166 300q104 104 309 105q199 0 248 -129h10zM852 743q12 63 12 115q0 104 -54 151.5t-173 47.5q-168 0 -248 -84q-76 -80 -132 -272.5t-56 -362.5q0 -147 54 -207.5t185 -60.5q154 0 237 75.5t111 241.5z" glyph-name="uni1EAF.aalt" horiz-adv-x="1095"/><glyph d="M688 1333q-258 0 -258 197q0 25 8 82l4 22h84l-8 -41q-6 -31 -6 -57q0 -135 172 -135q215 0 252 201l6 32h82l-6 -30q-27 -154 -109 -212.5t-221 -58.5zM901 1018l19 108h102l-201 -1132l-82 -8l13 139h-13q-94 -145 -305 -145q-174 0 -255 88t-81 280q0 190 70 394 t166 300q104 104 309 105q199 0 248 -129h10zM852 743q12 63 12 115q0 104 -54 151.5t-173 47.5q-168 0 -248 -84q-76 -80 -132 -272.5t-56 -362.5q0 -147 54 -207.5t185 -60.5q154 0 237 75.5t111 241.5zM332 -279l22 127h127l-22 -127h-127z" glyph-name="uni1EB7.aalt" horiz-adv-x="1095"/><glyph d="M774 1597h-72l-188 383h104zM688 1333q-258 0 -258 197q0 25 8 82l4 22h84l-8 -41q-6 -31 -6 -57q0 -135 172 -135q215 0 252 201l6 32h82l-6 -30q-27 -154 -109 -212.5t-221 -58.5zM901 1018l19 108h102l-201 -1132l-82 -8l13 139h-13q-94 -145 -305 -145 q-174 0 -255 88t-81 280q0 190 70 394t166 300q104 104 309 105q199 0 248 -129h10zM852 743q12 63 12 115q0 104 -54 151.5t-173 47.5q-168 0 -248 -84q-76 -80 -132 -272.5t-56 -362.5q0 -147 54 -207.5t185 -60.5q154 0 237 75.5t111 241.5z" glyph-name="uni1EB1.aalt" horiz-adv-x="1095"/><glyph d="M786 1905q-33 0 -108 -11l-2 66q72 10 121 10q156 0 155 -104q0 -35 -14 -70t-57 -65l-72 -50q-59 -41 -68 -84h-59q8 51 21.5 76t56.5 53l61 41q35 23 41 45q8 25 8 48q0 27 -18.5 36t-65.5 9zM688 1333q-258 0 -258 197q0 25 8 82l4 22h84l-8 -41q-6 -31 -6 -57 q0 -135 172 -135q215 0 252 201l6 32h82l-6 -30q-27 -154 -109 -212.5t-221 -58.5zM901 1018l19 108h102l-201 -1132l-82 -8l13 139h-13q-94 -145 -305 -145q-174 0 -255 88t-81 280q0 190 70 394t166 300q104 104 309 105q199 0 248 -129h10zM852 743q12 63 12 115 q0 104 -54 151.5t-173 47.5q-168 0 -248 -84q-76 -80 -132 -272.5t-56 -362.5q0 -147 54 -207.5t185 -60.5q154 0 237 75.5t111 241.5z" glyph-name="uni1EB3.aalt" horiz-adv-x="1095"/><glyph d="M653 1864q-80 0 -121 -131h-67q14 94 64.5 148t119.5 54q63 0 113 -41l88 -73q18 -16 43 -17q78 0 121 133h69q-16 -94 -67 -149t-119 -55q-55 0 -111 45l-86 69q-22 17 -47 17zM938 1602l6 32h82l-6 -30q-27 -154 -109 -212.5t-221 -58.5q-258 0 -258 197q0 25 8 82 l4 22h84l-8 -41q-6 -31 -6 -57q0 -135 172 -135q215 0 252 201zM901 1018l19 108h102l-201 -1132l-82 -8l13 139h-13q-94 -145 -305 -145q-174 0 -255 88t-81 280q0 190 70 394t166 300q104 104 309 105q199 0 248 -129h10zM852 743q12 63 12 115q0 104 -54 151.5t-173 47.5 q-168 0 -248 -84q-76 -80 -132 -272.5t-56 -362.5q0 -147 54 -207.5t185 -60.5q154 0 237 75.5t111 241.5z" glyph-name="uni1EB5.aalt" horiz-adv-x="1095"/><glyph d="M618 1288l-206 383h71l197 -319l309 319h76l-336 -383h-111zM901 1018l19 108h102l-201 -1132l-82 -8l13 139h-13q-94 -145 -305 -145q-174 0 -255 88t-81 280q0 190 70 394t166 300q104 104 309 105q199 0 248 -129h10zM852 743q12 63 12 115q0 104 -54 151.5t-173 47.5 q-168 0 -248 -84q-76 -80 -132 -272.5t-56 -362.5q0 -147 54 -207.5t185 -60.5q154 0 237 75.5t111 241.5z" glyph-name="uni01CE.aalt" horiz-adv-x="1095"/><glyph d="M729 1608l-309 -320h-78l340 383h111l202 -383h-69zM920 1126h102l-201 -1132l-82 -8l13 139h-13q-94 -145 -305 -145q-174 0 -255 88t-81 280q0 190 70 394t166 300q104 104 309 105q199 0 248 -129h10zM852 743q12 63 12 115q0 104 -54 151.5t-173 47.5 q-168 0 -248 -84q-76 -80 -132 -272.5t-56 -362.5q0 -147 54 -207.5t185 -60.5q154 0 237 75.5t111 241.5z" glyph-name="acircumflex.aalt" horiz-adv-x="1095"/></font>
</defs>
</svg>
