<?xml version="1.0" standalone="no"?>
<!DOCTYPE svg PUBLIC "-//W3C//DTD SVG 1.1//EN" "http://www.w3.org/Graphics/SVG/1.1/DTD/svg11.dtd">
<svg xmlns="http://www.w3.org/2000/svg"><metadata>This SVG WebFont was generated by YouWorkForThem.
Copyright Â© 2017 by Jonathan Hill. All rights reserved.</metadata><defs><font horiz-adv-x="0" id="ywftsvg"><font-face ascent="1604" bbox="-1137 -735 3181 2527" cap-height="1434" descent="-444" font-family="" font-stretch="normal" font-weight="800" panose-1="0 0 9 0 0 0 0 0 0 0" underline-position="0" underline-thickness="0" unicode-range="U+0020-277E" units-per-em="2048" x-height="1126"/><missing-glyph d="M205 61v1229h819v-1229h-819zM348 205h533v942h-533v-942z" horiz-adv-x="1228"/><glyph d="M1354 1282q-66 0 -90.5 -31.5t-26.5 -124.5h199v-245h-199v-881h-383v881h-295v-881h-383v881h-164v245h164v27q0 221 96.5 308t296.5 87q139 0 236 -20l-25 -258q-47 12 -102 12q-66 0 -91.5 -31.5t-27.5 -124.5h295v27q0 221 96.5 308t294.5 87q139 0 236 -20l-23 -258 q-45 12 -104 12z" glyph-name="f_f.liga" horiz-adv-x="1456" unicode="ff"/><glyph d="M1528 1569h389v-307h-389v307zM1913 1126v-1126h-383v881h-293v-881h-383v881h-295v-881h-383v881h-164v245h164v27q0 221 96.5 308t296.5 87q139 0 236 -20l-25 -258q-47 12 -102 12q-66 0 -91.5 -31.5t-27.5 -124.5h295v27q0 221 96.5 308t294.5 87q135 0 228 -20 l-21 -258q-49 12 -98 12q-66 0 -90.5 -31.5t-26.5 -124.5h676z" glyph-name="f_f_i.liga" horiz-adv-x="2015" unicode="ffi"/><glyph d="M2081 268l22 -268q-106 -20 -231 -20q-182 0 -250 79.5t-68 247.5v574h-317v-881h-383v881h-295v-881h-383v881h-164v245h164v27q0 221 96.5 308t296.5 87q139 0 236 -20l-25 -258q-47 12 -102 12q-66 0 -91.5 -31.5t-27.5 -124.5h295v27q0 221 96.5 308t294.5 87 q139 0 236 -20l-23 -258q-45 12 -104 12q-66 0 -90.5 -31.5t-26.5 -124.5h317v410h383v-1151q0 -76 15.5 -100.5t62.5 -24.5q41 0 66 8z" glyph-name="f_f_l.liga" horiz-adv-x="2119" unicode="ffl"/><glyph d="M850 1569h389v-307h-389v307zM1237 1126v-1126h-383v881h-295v-881h-383v881h-164v245h164v27q0 221 96.5 308t296.5 87q131 0 228 -20l-23 -258q-47 12 -96 12q-66 0 -91.5 -31.5t-27.5 -124.5h678z" glyph-name="f_i.liga" horiz-adv-x="1333" unicode="fi"/><glyph d="M1403 268l24 -268q-109 -20 -231 -20q-182 0 -249.5 79.5t-67.5 247.5v574h-320v-881h-383v881h-164v245h164v27q0 221 96.5 308t296.5 87q139 0 236 -20l-25 -258q-47 12 -102 12q-66 0 -91.5 -31.5t-27.5 -124.5h320v410h383v-1151q0 -76 15 -100.5t62 -24.5q39 0 64 8 z" glyph-name="f_l.liga" horiz-adv-x="1441" unicode="fl"/><glyph d="M205 61v1229h819v-1229h-819zM348 205h533v942h-533v-942z" glyph-name=".notdef" horiz-adv-x="1228"/><glyph glyph-name="glyph1"/><glyph glyph-name="glyph2" horiz-adv-x="681"/><glyph glyph-name="space" horiz-adv-x="550" unicode=" "/><glyph d="M184 520l-49 914h443l-50 -914h-344zM152 0v350h409v-350h-409z" glyph-name="exclam" horiz-adv-x="710" unicode="!"/><glyph d="M444 1536l-38 -567h-226l-39 567h303zM854 1536l-41 -567h-223l-43 567h307z" glyph-name="quotedbl" horiz-adv-x="991" unicode="&quot;"/><glyph d="M1229 891h-187l-57 -328h186l-45 -244h-184l-57 -319h-271l58 319h-183l-57 -319h-270l57 319h-182l43 244h182l57 328h-182l45 244h180l54 299h270l-53 -299h182l53 299h271l-54 -299h187zM715 563l57 328h-182l-58 -328h183z" glyph-name="numbersign" horiz-adv-x="1308" unicode="#"/><glyph d="M942 397q0 -334 -303 -399v-231h-236v213q-172 6 -354 40l25 308q252 -37 317 -37q78 0 109.5 26.5t31.5 81.5q0 74 -55 119l-229 197q-172 156 -172 348q0 330 327 379v225h236v-215q127 -6 272 -31l-24 -299q-121 20 -254 21q-82 0 -114 -21.5t-32 -79.5q0 -61 48 -102 l217 -186q190 -173 190 -357z" glyph-name="dollar" horiz-adv-x="991" unicode="$"/><glyph d="M291 -20l887 1474h258l-887 -1474h-258zM406 602q-180 0 -248 102.5t-68 317.5q0 242 77 333t236 91q180 0 248 -102.5t68 -317.5q0 -242 -76.5 -333t-236.5 -91zM406 786q41 0 55 47.5t14 190.5t-14.5 190.5t-57.5 47.5q-41 0 -55 -46.5t-14 -191.5q0 -143 14.5 -190.5 t57.5 -47.5zM1331 -12q-180 0 -248.5 102.5t-68.5 317.5q0 242 76.5 332.5t236.5 90.5q180 0 247.5 -102t67.5 -317q0 -242 -75.5 -333t-235.5 -91zM1329 172q43 0 57.5 47t14.5 190.5t-14.5 190.5t-57.5 47q-41 0 -56.5 -48t-15.5 -189q0 -143 14.5 -190.5t57.5 -47.5z" glyph-name="percent" horiz-adv-x="1732" unicode="%"/><glyph d="M1483 0h-443l-94 102q-113 -123 -366 -122q-207 0 -324 45t-159 125.5t-42 220.5q0 193 119 282l158 121l-56 60q-129 125 -129 290q0 184 119 257t334 73q250 0 346 -77t96 -230q0 -201 -145 -295l-145 -94l131 -133l139 213h348l-256 -457zM600 1200q-61 0 -82.5 -20.5 t-21.5 -75.5q0 -76 28 -109l66 -69l76 82q35 37 34.5 94t-22 77.5t-78.5 20.5zM686 324l25 36l-193 209l-65 -71q-37 -43 -37 -103q0 -76 29.5 -102.5t119.5 -26.5q88 1 121 58z" glyph-name="ampersand" horiz-adv-x="1497" unicode="&amp;"/><glyph d="M444 1536l-38 -567h-226l-39 567h303z" glyph-name="quotesingle" horiz-adv-x="583" unicode="'"/><glyph d="M666 -365q-168 33 -284 116t-179.5 216t-90 290t-26.5 368q0 342 69.5 557t192.5 317.5t318 140.5v-264q-147 -55 -209 -225t-62 -514q0 -342 61.5 -513t209.5 -226v-263z" glyph-name="parenleft" horiz-adv-x="684" unicode="("/><glyph d="M20 -365v263q145 55 207 226t62 513q0 344 -60.5 514t-208.5 225v264q143 -29 247 -92t180.5 -180t114.5 -301t38 -442q0 -211 -26.5 -368t-90 -290t-179.5 -216t-284 -116z" glyph-name="parenright" horiz-adv-x="684" unicode=")"/><glyph d="M975 1114l-289 -61l197 -219l-211 -154l-148 254l-147 -254l-211 154l196 219l-288 61l82 248l268 -119l-31 293h262l-30 -293l268 119z" glyph-name="asterisk" horiz-adv-x="1046" unicode="*"/><glyph d="M1165 721v-291h-370v-371h-291v371h-371v291h371v369h291v-369h370z" glyph-name="plus" horiz-adv-x="1300" unicode="+"/><glyph d="M162 383h411v-383l-143 -410h-244l142 410h-166v383z" glyph-name="comma" horiz-adv-x="735" unicode=","/><glyph d="M115 772h643v-274h-643v274z" glyph-name="hyphen" horiz-adv-x="872" unicode="-"/><glyph d="M162 0v383h411v-383h-411z" glyph-name="period" horiz-adv-x="735" unicode="."/><glyph d="M-20 -102l610 1638h258l-612 -1638h-256z" glyph-name="slash" horiz-adv-x="823" unicode="/"/><glyph d="M608 -20q-305 0 -420.5 174t-115.5 540q0 211 34.5 353.5t106.5 221.5t166 111.5t229 32.5q305 0 419 -175t114 -544q0 -211 -34 -352t-105.5 -220t-165 -110.5t-228.5 -31.5zM608 272q80 0 108.5 86t28.5 338t-28.5 338t-108.5 86q-82 0 -111.5 -86t-29.5 -338 t29.5 -338t111.5 -86z" glyph-name="zero" horiz-adv-x="1212" unicode="0"/><glyph d="M690 305h242v-305h-889v305h262v768l-239 -63l-54 305l293 78h385v-1088z" glyph-name="one" horiz-adv-x="968" unicode="1"/><glyph d="M449 307v-2h526v-305h-936v270q0 117 45 197t178 197l262 227q55 47 56 100q0 70 -38 93.5t-141 23.5q-104 0 -268 -23l-27 297q209 31 357 31q279 0 395.5 -94t116.5 -285q0 -100 -38 -173t-122 -144l-287 -246q-45 -39 -62 -73t-17 -91z" glyph-name="two" horiz-adv-x="1030" unicode="2"/><glyph d="M803 735q92 -37 129 -109.5t37 -189.5q0 -260 -135.5 -358t-419.5 -98q-248 0 -379 53l28 311q121 -51 355 -51q92 0 123.5 30.5t31.5 116.5q0 88 -31.5 119t-119.5 31h-221v268h196q86 0 114 24.5t28 98.5q0 84 -31 111.5t-119 27.5q-205 0 -297 -43l-24 291 q106 45 342 45q287 0 405.5 -88t118.5 -287q0 -211 -131 -286v-17z" glyph-name="three" horiz-adv-x="1030" unicode="3"/><glyph d="M1153 547v-305h-129v-242h-367v242h-594v342l332 809h355l-314 -820v-26h221v377h367v-377h129z" glyph-name="four" horiz-adv-x="1191" unicode="4"/><glyph d="M520 870q289 -2 395.5 -99t106.5 -325q0 -264 -141.5 -365t-421.5 -101q-250 0 -377 49l12 315q127 -41 350 -41q111 0 147 29.5t36 118t-34 116t-138 27.5h-332l29 799h813v-306h-439z" glyph-name="five" horiz-adv-x="1077" unicode="5"/><glyph d="M702 897q205 0 289 -110.5t84 -337.5q0 -266 -122 -367.5t-378 -101.5q-299 0 -408.5 110.5t-109.5 347.5q0 340 181 641q88 147 243 314h426q-182 -190 -303 -373q-55 -86 -86 -146h17q71 23 167 23zM565 281q82 0 108.5 36.5t26.5 151.5q0 104 -25.5 138t-107.5 34 t-109.5 -35t-27.5 -143q0 -111 26.5 -146.5t108.5 -35.5z" glyph-name="six" horiz-adv-x="1120" unicode="6"/><glyph d="M29 1393h905v-324l-471 -1069h-383l469 1057v30h-520v306z" glyph-name="seven" horiz-adv-x="972" unicode="7"/><glyph d="M911 721q123 -39 174.5 -121t51.5 -207q0 -233 -135.5 -323t-399.5 -90q-305 0 -422 104t-117 309q0 256 228 328v12q-186 72 -187 303q0 213 126 295t372 82q279 0 386.5 -97t107.5 -290q0 -225 -185 -293v-12zM602 1130q-84 0 -112.5 -30.5t-28.5 -112.5 q0 -90 29.5 -119.5t111.5 -29.5t109.5 31.5t27.5 117.5q0 84 -29.5 113.5t-107.5 29.5zM602 276q86 0 116 33t30 121q0 96 -31 129t-115 33q-90 0 -119.5 -34t-29.5 -128q0 -90 31.5 -122t117.5 -32z" glyph-name="eight" horiz-adv-x="1196" unicode="8"/><glyph d="M547 1413q297 0 407.5 -110.5t110.5 -348.5q0 -340 -180 -641q-88 -143 -244 -313h-428q182 190 303 373q43 66 86 143h-20q-63 -20 -162 -20q-205 0 -289 110.5t-84 337.5q0 268 122 368.5t378 100.5zM420 924q0 -104 25.5 -138t105.5 -34q84 0 111.5 34.5t27.5 143.5 q0 111 -26.5 146.5t-108.5 35.5t-108.5 -37.5t-26.5 -150.5z" glyph-name="nine" horiz-adv-x="1120" unicode="9"/><glyph d="M162 743v383h411v-383h-411zM162 0v383h411v-383h-411z" glyph-name="colon" horiz-adv-x="735" unicode=":"/><glyph d="M162 1126h411v-383h-411v383zM162 0v383h411v-383l-143 -410h-244l142 410h-166z" glyph-name="semicolon" horiz-adv-x="735" unicode=";"/><glyph d="M1106 813l-606 -213v-53l606 -213v-311l-911 344v415l911 344v-313z" glyph-name="less" horiz-adv-x="1300" unicode="&lt;"/><glyph d="M137 657v291h1024v-291h-1024zM137 217v291h1024v-291h-1024z" glyph-name="equal" horiz-adv-x="1300" unicode="="/><glyph d="M193 1126l913 -344v-415l-913 -344v311l608 213v53l-608 213v313z" glyph-name="greater" horiz-adv-x="1300" unicode=">"/><glyph d="M207 520l-2 62q-2 117 19.5 169t119.5 128l96 73q49 37 49 84q0 55 -30.5 74.5t-122.5 19.5q-70 0 -254 -20l-27 313q223 31 367 31q258 0 368.5 -88t110.5 -264q0 -100 -38 -162.5t-115 -128.5l-82 -66q-68 -57 -90.5 -90.5t-22.5 -87.5l-2 -47h-344zM174 0v350h410 v-350h-410z" glyph-name="question" horiz-adv-x="937" unicode="?"/><glyph d="M924 1454q244 0 411.5 -62.5t263 -185.5t135.5 -280.5t40 -372.5q0 -162 -28 -272.5t-82 -171t-121.5 -85t-162.5 -24.5q-160 0 -346 139l-14 84h-12q-45 -88 -170 -88q-162 0 -229.5 105.5t-67.5 312.5q0 236 75.5 334t229.5 98q102 0 149 -59h11v59h282v-766 q41 -18 72 -18q80 0 105.5 72.5t25.5 281.5q0 375 -119 526.5t-428 151.5q-301 0 -424 -151.5t-123 -528.5q0 -381 125 -547t422 -166q166 0 289 58l18 -230q-133 -47 -319 -47q-190 0 -334.5 47t-235 128t-147.5 201t-78.5 252t-21.5 296q0 264 57 446.5t170 280.5 t252.5 140t329.5 42zM831 559q0 -131 18.5 -176t72.5 -45q49 0 66.5 30.5t17.5 112.5v158q0 82 -17.5 111.5t-66.5 29.5q-53 0 -72 -44t-19 -177z" glyph-name="at" horiz-adv-x="1884" unicode="@"/><glyph d="M926 0l-62 317h-383l-61 -317h-408l361 1434h598l362 -1434h-407zM541 625h262l-98 503h-66z" glyph-name="A" horiz-adv-x="1341" unicode="A"/><glyph d="M1010 743q115 -35 164 -115.5t49 -226.5q0 -227 -130 -314t-391 -87h-557v1434h523q293 0 406.5 -83t113.5 -259q0 -252 -178 -332v-17zM612 1161h-65v-313h65q113 0 150 31.5t37 128.5q0 92 -37 122.5t-150 30.5zM625 285q113 0 153.5 35.5t40.5 123.5q0 98 -43 134 t-151 36h-78v-329h78z" glyph-name="B" horiz-adv-x="1306" unicode="B"/><glyph d="M707 -20q-180 0 -302 47t-190 145t-95.5 225t-27.5 310q0 219 39 367.5t119 230t187.5 115.5t260.5 34q182 0 316 -47l-29 -317q-98 41 -239.5 40.5t-192.5 -84t-51 -329.5t51 -330t192 -84q145 0 240 43l55 -313q-130 -53 -333 -53z" glyph-name="C" horiz-adv-x="1089" unicode="C"/><glyph d="M709 1434q311 0 437 -179.5t126 -537.5q0 -268 -69.5 -430t-189.5 -224.5t-304 -62.5h-564v1434h564zM670 303q111 0 150.5 87t39.5 326.5t-40 326.5t-150 87h-123v-827h123z" glyph-name="D" horiz-adv-x="1359" unicode="D"/><glyph d="M545 305h469v-305h-871v1434h846v-306h-444v-231h405v-307h-405v-285z" glyph-name="E" horiz-adv-x="1091" unicode="E"/><glyph d="M963 1128h-418v-272h381v-307h-381v-549h-402v1434h820v-306z" glyph-name="F" horiz-adv-x="1026" unicode="F"/><glyph d="M1206 856v-844l-311 -26l-23 135h-18q-94 -141 -301 -141q-135 0 -227.5 52t-142.5 156.5t-70.5 233.5t-20.5 309q0 221 40 364.5t126 221.5t196.5 107.5t274.5 29.5q238 0 375 -43l-29 -326q-139 45 -336 45q-141 0 -189 -82.5t-48 -332.5q0 -246 39 -329t153 -83 q78 0 119 44t41 161v57h-145v291h497z" glyph-name="G" horiz-adv-x="1304" unicode="G"/><glyph d="M889 1434h401v-1434h-401v590h-342v-590h-402v1434h402v-537h342v537z" glyph-name="H" horiz-adv-x="1433" unicode="H"/><glyph d="M547 1434v-1434h-402v1434h402z" glyph-name="I" horiz-adv-x="688" unicode="I"/><glyph d="M254 -20q-125 0 -236 22l29 311q41 -10 82 -10q53 0 70.5 25.5t17.5 103.5v1002h401v-1092q0 -205 -88 -283.5t-276 -78.5z" glyph-name="J" horiz-adv-x="751" unicode="J"/><glyph d="M864 0l-254 590h-63v-590h-402v1434h402v-537h65l248 537h428l-377 -682l408 -752h-455z" glyph-name="K" horiz-adv-x="1325" unicode="K"/><glyph d="M547 305h340v-305h-742v1434h402v-1129z" glyph-name="L" horiz-adv-x="927" unicode="L"/><glyph d="M1579 1434v-1434h-365v954h-8l-180 -620l-6 4v-4h-313v6l-9 -6l-180 620h-8v-954h-365v1434h498l215 -707h8l215 707h498z" glyph-name="M" horiz-adv-x="1720" unicode="M"/><glyph d="M932 1434h352v-1434h-536l-230 940h-22v-940h-351v1434h541l223 -934h23v934z" glyph-name="N" horiz-adv-x="1425" unicode="N"/><glyph d="M709 -20q-180 0 -303 47t-191 146t-95.5 228t-27.5 316q0 217 39 363.5t122 227.5t191.5 113.5t264.5 32.5q180 0 302 -47t189.5 -146.5t94 -228.5t26.5 -315q0 -217 -39 -363.5t-122 -227.5t-189 -113.5t-262 -32.5zM709 303q117 0 158.5 84t41.5 330t-41 329.5 t-159 83.5q-121 0 -163 -83.5t-42 -329.5t42 -330t163 -84z" glyph-name="O" horiz-adv-x="1409" unicode="O"/><glyph d="M641 1434q162 0 271.5 -31t169 -93.5t84 -141t24.5 -191.5q0 -156 -37 -260.5t-113.5 -159.5t-171 -77.5t-227.5 -22.5h-94v-457h-402v1434h496zM608 735q109 0 148 50.5t39 172.5q0 115 -40 156t-147 41h-61v-420h61z" glyph-name="P" horiz-adv-x="1243" unicode="P"/><glyph d="M1319 721q0 -358 -107.5 -525t-326.5 -204q2 -82 22.5 -110.5t77.5 -28.5q78 0 143 24l21 -244q-106 -37 -254 -36q-207 0 -285 87t-78 273v37q-248 43 -344 218t-96 501q0 219 39 365.5t121 228.5t189.5 114.5t260.5 32.5q182 0 305 -47t190 -145.5t94.5 -227.5 t27.5 -313zM707 303q117 0 158.5 84t41.5 330t-41 329.5t-159 83.5q-121 0 -163 -83.5t-42 -329.5t42 -330t163 -84z" glyph-name="Q" horiz-adv-x="1409" unicode="Q"/><glyph d="M1294 0h-426l-219 522h-4h-98v-522h-402v1434h465q326 0 445 -102.5t119 -340.5q0 -258 -191 -383zM547 1157v-385h55q106 0 143 40t37 153q0 115 -36.5 153.5t-143.5 38.5h-55z" glyph-name="R" horiz-adv-x="1302" unicode="R"/><glyph d="M426 -20q-158 0 -385 40l29 306q250 -35 311 -35q76 0 106.5 26.5t30.5 81.5q0 72 -53 119l-227 197q-172 154 -172 348q0 219 126.5 305t372.5 86q127 0 336 -33l-27 -299q-119 20 -256 21q-82 0 -112.5 -21.5t-30.5 -79.5q0 -61 47 -102l217 -186q190 -172 191 -357 q0 -229 -129 -323t-375 -94z" glyph-name="S" horiz-adv-x="980" unicode="S"/><glyph d="M993 1434v-306h-284v-1128h-400v1128h-289v306h973z" glyph-name="T" horiz-adv-x="1013" unicode="T"/><glyph d="M680 -20q-319 0 -440 134t-121 412v908h399v-928q0 -121 32 -162t122 -41q88 0 119.5 41t31.5 162v928h400v-908q0 -311 -134.5 -428.5t-408.5 -117.5z" glyph-name="U" horiz-adv-x="1339" unicode="U"/><glyph d="M854 1434h408l-328 -1434h-596l-326 1434h408l192 -1129h50z" glyph-name="V" horiz-adv-x="1271" unicode="V"/><glyph d="M1454 1434h408l-224 -1434h-528l-154 1128h-30l-152 -1128h-530l-224 1434h408l113 -1129h34l138 1129h458l136 -1129h34z" glyph-name="W" horiz-adv-x="1882" unicode="W"/><glyph d="M836 0l-185 457h-28l-183 -457h-428l346 750l-327 684h426l166 -447h28l166 447h424l-326 -684l347 -750h-426z" glyph-name="X" horiz-adv-x="1271" unicode="X"/><glyph d="M1264 1434l-437 -961v-473h-399v494l-424 940h412l202 -594h27l211 594h408z" glyph-name="Y" horiz-adv-x="1267" unicode="Y"/><glyph d="M104 1434h881v-353l-547 -739v-37h535v-305h-934v356l547 734v38h-482v306z" glyph-name="Z" horiz-adv-x="1044" unicode="Z"/><glyph d="M664 1356h-215v-1432h215v-252h-525v1936h525v-252z" glyph-name="bracketleft" horiz-adv-x="681" unicode="["/><glyph d="M848 -102h-258l-610 1638h256z" glyph-name="backslash" horiz-adv-x="823" unicode="\"/><glyph d="M545 1608v-1936h-525v252h216v1432h-216v252h525z" glyph-name="bracketright" horiz-adv-x="681" unicode="]"/><glyph d="M745 567l-198 639h-27l-198 -639h-297l340 906h337l338 -906h-295z" glyph-name="asciicircum" horiz-adv-x="1064" unicode="^"/><glyph d="M162 -90h1169v-238h-1169v238z" glyph-name="underscore" horiz-adv-x="1492" unicode="_"/><glyph d="M293 1296l-262 408h325l172 -408h-235z" glyph-name="grave" horiz-adv-x="571" unicode="`"/><glyph d="M655 1147q199 0 278 -94.5t79 -288.5v-748l-344 -30l-21 129h-16q-70 -135 -262 -135q-324 0 -324 327q0 182 97.5 260t283.5 78h203v57q0 80 -31 112t-88 32q-90 0 -311 -53l-54 278q322 76 510 76zM512 213q117 0 117 205v61h-101q-51 0 -81.5 -33.5t-30.5 -99.5 q0 -133 96 -133z" glyph-name="a" horiz-adv-x="1110" unicode="a"/><glyph d="M721 1147q133 0 220 -49t141.5 -183.5t54.5 -361.5q0 -135 -18.5 -234.5t-62.5 -179.5t-125 -119.5t-198 -39.5q-176 0 -237 135h-15l-22 -129l-344 30v1520h385v-475h12q66 86 209 86zM616 260q74 0 99.5 61.5t25.5 239.5q0 182 -25.5 243.5t-101.5 61.5q-66 0 -90 -40 t-24 -154v-217q0 -115 24 -155t92 -40z" glyph-name="b" horiz-adv-x="1200" unicode="b"/><glyph d="M594 -20q-133 0 -226.5 26.5t-164 91t-104 179t-33.5 286.5q0 332 129 458t401 126q133 0 225 -27l-24 -274q-57 20 -148 20q-115 0 -152.5 -59t-37.5 -244q0 -182 38 -242.5t152 -60.5q98 0 158 21l24 -275q-92 -26 -237 -26z" glyph-name="c" horiz-adv-x="884" unicode="c"/><glyph d="M702 1536h383v-1520l-344 -30l-20 129h-14q-61 -135 -240 -135q-225 0 -313 146t-88 427q0 332 105 463t308 131q143 0 209 -86h14v475zM459 561q0 -178 25.5 -239.5t99.5 -61.5q68 0 93 41t25 154v217q0 115 -24.5 154.5t-91.5 39.5q-76 0 -101.5 -61.5t-25.5 -243.5z " glyph-name="d" horiz-adv-x="1200" unicode="d"/><glyph d="M436 459q8 -113 43 -157t111 -44q131 0 366 49l45 -258q-246 -70 -426 -69q-512 0 -512 593q0 322 130.5 448t377.5 126q145 0 239.5 -37t144 -116t67.5 -179t18 -252q0 -51 -6 -104h-598zM575 897q-74 0 -104.5 -46t-36.5 -177h258q-4 131 -30 177t-87 46z" glyph-name="e" horiz-adv-x="1101" unicode="e"/><glyph d="M678 1282q-66 0 -91.5 -31.5t-27.5 -124.5h199v-245h-199v-881h-383v881h-164v245h164v27q0 221 96.5 308t296.5 87q139 0 236 -20l-25 -258q-47 12 -102 12z" glyph-name="f" horiz-adv-x="780" unicode="f"/><glyph d="M580 281q213 0 337.5 -43t168.5 -112t44 -175q0 -190 -142 -265t-421 -75q-158 0 -265 17.5t-165.5 53t-83 80.5t-24.5 109q0 168 174 209v24q-117 57 -117 166q0 94 109 187q-127 86 -127 295q0 223 116.5 309t345.5 86q119 0 218 -21h358l16 -174l-145 -26 q37 -57 37 -154q0 -223 -116 -308t-345 -85q-72 0 -133 6l-12 -10q-23 -23 -23 -47q0 -47 76 -47h119zM543 918q-70 0 -93.5 -33t-23.5 -123q0 -92 24.5 -123t92 -31t90 32t22.5 122q0 92 -23 124t-89 32zM569 -168q113 0 156 28.5t43 88.5q0 66 -45 89t-156 23h-80 q-63 -10 -87.5 -40.5t-24.5 -88.5q0 -55 47 -77.5t147 -22.5z" glyph-name="g" horiz-adv-x="1153" unicode="g"/><glyph d="M797 1147q197 0 267.5 -95.5t70.5 -328.5v-723h-383v698q0 92 -26 130t-97 38q-66 0 -97.5 -36.5t-31.5 -131.5v-698h-385v1536h385v-496h18q80 107 279 107z" glyph-name="h" horiz-adv-x="1234" unicode="h"/><glyph d="M100 1569h410v-307h-410v307zM496 1126v-1126h-383v1126h383z" glyph-name="i" horiz-adv-x="606" unicode="i"/><glyph d="M72 1262v307h409v-307h-409zM115 -389q-145 0 -242 22l23 256q35 -8 92 -8q59 0 78.5 33t19.5 133v1079h383v-1153q0 -207 -86 -284.5t-268 -77.5z" glyph-name="j" horiz-adv-x="583" unicode="j"/><glyph d="M764 0l-201 498h-63v-498h-385v1536h385v-795h75l185 385h420l-316 -495l328 -631h-428z" glyph-name="k" horiz-adv-x="1196" unicode="k"/><glyph d="M424 -20q-180 0 -247.5 79.5t-67.5 247.5v1229h383v-1151q0 -76 14 -100.5t59 -24.5q43 0 68 8l22 -268q-106 -20 -231 -20z" glyph-name="l" horiz-adv-x="671" unicode="l"/><glyph d="M1386 1147q186 0 254 -95.5t68 -328.5v-723h-383v698q0 92 -22.5 130t-85.5 38q-59 0 -87 -36.5t-28 -131.5v-698h-383v698q0 92 -22.5 130t-84.5 38q-57 0 -84.5 -36.5t-27.5 -131.5v-698h-385v1110l346 31l22 -131h15q74 137 284 137q219 0 281 -146h18q80 146 305 146 z" glyph-name="m" horiz-adv-x="1810" unicode="m"/><glyph d="M797 1147q197 0 267.5 -95.5t70.5 -328.5v-723h-383v698q0 92 -26 130t-97 38q-68 0 -99.5 -36.5t-31.5 -131.5v-698h-383v1110l344 31l20 -129h21q76 135 297 135z" glyph-name="n" horiz-adv-x="1234" unicode="n"/><glyph d="M592 -20q-299 0 -412.5 146t-113.5 437q0 170 35.5 287t108.5 180.5t164 90t218 26.5q297 0 410.5 -146.5t113.5 -437.5q0 -330 -132 -456.5t-392 -126.5zM592 260q78 0 103.5 60.5t25.5 242.5t-25.5 242.5t-103.5 60.5q-80 0 -106.5 -60.5t-26.5 -242.5t26.5 -242.5 t106.5 -60.5z" glyph-name="o" horiz-adv-x="1179" unicode="o"/><glyph d="M733 1147q229 0 316.5 -145.5t87.5 -428.5q0 -227 -54.5 -361t-141.5 -183t-220 -49q-139 0 -203 79h-18v-428h-385v1479l344 31l20 -119h23q59 125 231 125zM614 260q76 0 101.5 61.5t25.5 243.5q0 178 -25.5 239.5t-99.5 61.5q-68 0 -92 -40t-24 -154v-217 q0 -115 24 -155t90 -40z" glyph-name="p" horiz-adv-x="1200" unicode="p"/><glyph d="M741 1141l344 -31v-1479h-383v428h-18q-66 -80 -205 -79q-203 0 -308 131t-105 462q0 137 17 235.5t60 178.5t124 120t200 40q170 0 233 -123h23zM459 565q0 -182 25.5 -243.5t101.5 -61.5q68 0 92 40t24 155v217q0 113 -25.5 153.5t-92.5 40.5q-74 0 -99.5 -61.5 t-25.5 -239.5z" glyph-name="q" horiz-adv-x="1200" unicode="q"/><glyph d="M788 1147q33 0 43 -2l-30 -336q-51 25 -139 25q-94 0 -128 -51.5t-34 -198.5v-584h-385v1110l348 31l24 -154h19q71 160 282 160z" glyph-name="r" horiz-adv-x="837" unicode="r"/><glyph d="M418 -20q-172 0 -363 34l23 271q139 -25 239 -25q63 0 85 15.5t22 60.5q0 43 -41 70l-203 143q-123 82 -123 268q0 184 99.5 257t287.5 73q135 0 361 -37l-23 -272q-154 29 -239 28q-43 0 -59.5 -14t-16.5 -51q0 -39 33 -64l174 -125q86 -61 126 -124.5t40 -163.5 q0 -188 -108.5 -266t-313.5 -78z" glyph-name="s" horiz-adv-x="876" unicode="s"/><glyph d="M725 881h-178v-500q0 -74 13 -97.5t58 -23.5q41 0 64 8l23 -270q-90 -18 -224 -18q-182 0 -249.5 79.5t-67.5 247.5v574h-150v245h150v273h383v-273h178v-245z" glyph-name="t" horiz-adv-x="780" unicode="t"/><glyph d="M717 1126h383v-1110l-346 -30l-21 129h-18q-74 -135 -287 -135q-188 0 -257 95t-69 328v723h385v-698q0 -92 24 -130t87 -38q61 0 90 37t29 131v698z" glyph-name="u" horiz-adv-x="1214" unicode="u"/><glyph d="M694 1126h400l-248 -1126h-590l-252 1126h402l122 -860h43z" glyph-name="v" horiz-adv-x="1097" unicode="v"/><glyph d="M1430 1126h403l-211 -1126h-551l-135 860h-33l-135 -860h-549l-211 1126h402l90 -860h39l133 860h495l136 -860h36z" glyph-name="w" horiz-adv-x="1839" unicode="w"/><glyph d="M743 0l-151 340h-37l-152 -340h-403l303 580l-287 546h406l137 -305h29l137 305h405l-288 -544l305 -582h-404z" glyph-name="x" horiz-adv-x="1144" unicode="x"/><glyph d="M692 1126h402l-277 -1144q-49 -207 -167 -289t-304 -82q-102 0 -244 29l23 258q127 -18 209 -19q92 0 133 31t57 131l4 25h-272l-250 1060h402l118 -796h43z" glyph-name="y" horiz-adv-x="1097" unicode="y"/><glyph d="M416 262h454v-262h-837v309l434 531v24h-399v262h778v-309l-430 -522v-33z" glyph-name="z" horiz-adv-x="911" unicode="z"/><glyph d="M569 -74q57 0 105 17l20 -246q-74 -25 -200 -25q-162 0 -239 71t-77 257v373q0 102 -22.5 135t-94.5 33v198q72 0 94.5 33t22.5 135v373q0 186 77 257t239 71q117 0 200 -25l-20 -248q-51 18 -105 19q-51 0 -67.5 -28t-16.5 -112v-323q0 -102 -25.5 -158.5t-88.5 -85.5 v-14q63 -29 88.5 -85t25.5 -159v-326q0 -82 16.5 -109.5t67.5 -27.5z" glyph-name="braceleft" horiz-adv-x="712" unicode="{"/><glyph d="M428 1653v-2042h-254v2042h254z" glyph-name="bar" horiz-adv-x="600" unicode="|"/><glyph d="M535 907q0 -102 23.5 -135t92.5 -33v-198q-70 0 -93 -33t-23 -135v-373q0 -186 -77 -257t-239 -71q-125 0 -201 25l23 246q43 -16 104 -17q51 0 67.5 28t16.5 109v326q0 100 25 156.5t88 87.5v14q-63 31 -88 87.5t-25 156.5v323q0 84 -16 112t-68 28q-51 0 -104 -19 l-23 248q88 25 203 25q162 0 238 -71t76 -257v-373z" glyph-name="braceright" horiz-adv-x="712" unicode="}"/><glyph d="M342 438l-211 70q0 150 89 249t229 99q92 0 186 -55l153 -94q29 -16 62 -17q82 0 108 133l209 -69q0 -156 -90 -252t-227 -96q-96 0 -186 55l-154 92q-35 18 -61 18q-80 0 -107 -133z" glyph-name="asciitilde" horiz-adv-x="1300" unicode="~"/><glyph glyph-name="uni00A0" horiz-adv-x="550" unicode=" "/><glyph d="M152 1065h409v-350h-409v350zM184 545h344l50 -914h-443z" glyph-name="exclamdown" horiz-adv-x="710" unicode="¡"/><glyph d="M825 6q-70 -20 -172 -24v-199h-223v207q-186 31 -278.5 163t-92.5 410.5t92.5 409.5t278.5 162v208h223v-198q82 -2 162 -25l-24 -274q-55 20 -148 20q-115 0 -152.5 -59t-37.5 -244q0 -182 37.5 -242.5t152.5 -60.5q98 0 160 21z" glyph-name="cent" horiz-adv-x="864" unicode="¢"/><glyph d="M528 305h568v-305h-1022v305q147 63 174 318h-164v251h168q0 27 -1 73t-1 65q0 246 108.5 344t331.5 98q152 0 348 -33l-30 -317q-141 27 -217 26q-88 0 -118 -44t-30 -173v-39h301v-251h-309q-23 -209 -107 -308v-10z" glyph-name="sterling" horiz-adv-x="1165" unicode="£"/><glyph d="M827 715v-13h297v-192h-297v-104h297v-191h-297v-215h-385v215h-297v191h297v104h-297v192h297v11l-415 721h403l203 -449h20l205 449h404z" glyph-name="yen" horiz-adv-x="1286" unicode="¥"/><glyph d="M174 823v830h254v-830h-254zM174 -389v829h254v-829h-254z" glyph-name="brokenbar" horiz-adv-x="600" unicode="¦"/><glyph d="M858 221v-16q76 -90 76 -236q0 -211 -121 -306t-358 -95q-174 0 -381 33l18 276q231 -33 305 -33q100 0 137 27t37 86q0 76 -65 117l-250 155q-102 61 -134 141.5t-32 180.5q0 197 141 270v4q-88 92 -88 260q0 203 122 286t353 83q152 0 324 -24l-18 -271 q-135 18 -240 19q-106 0 -142 -17.5t-36 -75.5q0 -63 51 -94l240 -149q113 -70 151.5 -153t38.5 -185q0 -201 -129 -283zM481 473l137 -90q35 27 35 92q0 43 -15 66.5t-52 48.5l-109 67q-47 -18 -47 -86q0 -39 11 -58.5t40 -39.5z" glyph-name="section" horiz-adv-x="1058" unicode="§"/><glyph d="M115 1595h305v-272h-305v272zM590 1595h305v-272h-305v272z" glyph-name="dieresis" horiz-adv-x="1007" unicode="¨"/><glyph d="M817.5 -20q-319.5 0 -523.5 210.5t-204 526t204 526.5t523.5 211t522 -211t202.5 -526.5t-202.5 -526t-522 -210.5zM817 147q238 0 392.5 160t154.5 410t-154.5 409.5t-392.5 159.5q-240 0 -393.5 -159.5t-153.5 -409.5t153.5 -410t393.5 -160zM858 328q-184 0 -255 94 t-71 289q0 223 77 309t245 86q104 0 168 -25l-16 -172q-49 23 -127 23q-74 0 -99.5 -43t-25.5 -172q0 -127 25.5 -171t99.5 -44q82 0 127 24l30 -170q-72 -28 -178 -28z" glyph-name="copyright" horiz-adv-x="1632" unicode="©"/><glyph d="M492 1444q139 0 192 -66.5t53 -199.5v-516l-239 -21l-15 86h-10q-49 -90 -180 -90q-225 0 -225 227q0 233 264 234h137v39q0 53 -18.5 74.5t-59.5 21.5q-66 0 -217 -37l-37 195q226 53 355 53zM328 891q0 -92 63 -92q74 0 78 116v64h-66q-75 0 -75 -88z" glyph-name="ordfeminine" horiz-adv-x="858" unicode="ª"/><glyph d="M35 733l452 381v-270l-243 -271l243 -270v-270l-452 381v319zM1004 1114v-270l-244 -271l244 -270v-270l-451 381v319z" glyph-name="guillemotleft" horiz-adv-x="1073" unicode="«"/><glyph d="M549 1444q211 0 347 -144.5t136 -353.5q0 -211 -136 -355.5t-347 -144.5q-213 0 -349.5 144.5t-136.5 355.5q0 209 136.5 353.5t349.5 144.5zM549 559q158 0 261 109.5t103 277.5t-103 277.5t-261 109.5t-261.5 -109.5t-103.5 -277.5t103.5 -277.5t261.5 -109.5z M719 1049q0 -90 -66 -136l109 -213h-152l-78 183h-32v-183h-146v502h166q115 0 157 -35.5t42 -117.5zM500 1106v-133h18q37 0 49.5 13t12.5 52q0 41 -12.5 54.5t-49.5 13.5h-18z" glyph-name="registered" horiz-adv-x="1095" unicode="®"/><glyph d="M115 1575h620v-254h-620v254z" glyph-name="macron" horiz-adv-x="849" unicode="¯"/><glyph d="M463 854q-160 0 -262.5 102.5t-102.5 252t102.5 252t262.5 102.5t263 -102.5t103 -252t-103 -252t-263 -102.5zM463 1053q68 0 109.5 45t41.5 110.5t-42 110.5t-109 45q-66 0 -109 -46t-43 -110q0 -66 43 -110.5t109 -44.5z" glyph-name="degree" horiz-adv-x="925" unicode="°"/><glyph d="M795 913h372v-290h-372v-306h-289v306h-373v290h373v304h289v-304zM133 -84v291h1034v-291h-1034z" glyph-name="plusminus" horiz-adv-x="1300" unicode="±"/><glyph d="M334 940q-49 -41 -49 -100h327v-197h-592v172q0 74 29 125t113 127l164 145q33 27 32 64q0 43 -21.5 57.5t-86.5 14.5q-61 0 -170 -17l-19 193q127 18 228 18q178 0 250.5 -60.5t72.5 -181.5q0 -109 -100 -198z" glyph-name="uni00B2" horiz-adv-x="651" unicode="²"/><glyph d="M514 1110q102 -43 102 -190q0 -166 -83.5 -229.5t-266.5 -63.5q-164 0 -239 37l18 200q76 -37 223 -37q55 0 74.5 18.5t19.5 74.5q0 57 -19 75.5t-71 18.5h-143v176h129q51 0 66.5 14.5t15.5 59.5q0 55 -17.5 71.5t-70.5 16.5q-137 0 -189 -29l-16 188q66 29 217 29 q182 0 256 -55t74 -184.5t-80 -182.5v-8z" glyph-name="uni00B3" horiz-adv-x="659" unicode="³"/><glyph d="M35 1296l172 408h328l-265 -408h-235z" glyph-name="acute" horiz-adv-x="571" unicode="´"/><glyph d="M1247 1434v-1803h-256v1571h-129v-1571h-256v815h-2q-285 0 -417 124t-132 413q0 162 45 255t166 144.5t338 51.5h643z" glyph-name="paragraph" horiz-adv-x="1421" unicode="¶"/><glyph d="M139 424v383h412v-383h-412z" glyph-name="periodcentered" horiz-adv-x="690" unicode="·"/><glyph d="M305 -92q215 -12 215 -193q0 -115 -70.5 -169t-181.5 -54q-90 0 -215 39l13 133q55 -23 112 -22q84 0 84 75q0 59 -67 60h-97l58 295h196z" glyph-name="cedilla" horiz-adv-x="561" unicode="¸"/><glyph d="M451 842h149v-197h-563v197h164v489l-148 -39l-35 195l183 49h250v-694z" glyph-name="uni00B9" horiz-adv-x="612" unicode="¹"/><glyph d="M514 637q-207 0 -287 101.5t-80 299.5q0 225 92.5 315.5t274.5 90.5q205 0 285 -102.5t80 -303.5q0 -223 -92.5 -312t-272.5 -89zM514 831q53 0 70.5 42t17.5 165q0 125 -17.5 167t-70.5 42t-71.5 -42t-18.5 -167q0 -123 18.5 -165t71.5 -42z" glyph-name="ordmasculine" horiz-adv-x="1026" unicode="º"/><glyph d="M68 844v270l452 -381v-319l-452 -381v270l245 270zM584 1114l452 -381v-319l-452 -381v270l243 270l-243 271v270z" glyph-name="guillemotright" horiz-adv-x="1073" unicode="»"/><glyph d="M1040 1475h246l-596 -1516h-246zM586 754v-197h-559v197h161v479l-145 -41l-35 190l180 52h250v-680h148zM1714 350v-194h-80v-156h-215v156h-377v221l203 500h219l-184 -504v-23h139v232h215v-232h80z" glyph-name="onequarter" horiz-adv-x="1732" unicode="¼"/><glyph d="M1040 1475h246l-596 -1516h-246zM586 754v-197h-559v197h161v479l-145 -41l-35 190l180 52h250v-680h148zM1444 324q-63 -57 -66 -127h305v-197h-567v166q0 86 31 143.5t125 145.5l133 123q25 25 25 55q0 35 -16.5 47t-65.5 12q-61 0 -164 -16l-19 194q129 20 213 21 q152 0 228.5 -55.5t76.5 -182.5q0 -111 -94 -196z" glyph-name="onehalf" horiz-adv-x="1716" unicode="½"/><glyph d="M1006 1475h245l-596 -1516h-245zM592 827q0 -160 -83 -221t-255 -61q-154 0 -234 33l19 200q76 -33 203 -33q51 0 73.5 19.5t22.5 66.5q0 53 -18.5 73t-67.5 20h-121v178h109q45 0 61 16.5t16 59.5q0 47 -18 62t-68 15q-117 0 -174 -26l-16 190q63 29 207 29 q170 0 246.5 -55.5t76.5 -182.5q0 -137 -88 -184v-6q109 -39 109 -193zM1679 350v-194h-80v-156h-215v156h-376v221l202 500h220l-185 -504v-23h139v232h215v-232h80z" glyph-name="threequarters" horiz-adv-x="1697" unicode="¾"/><glyph d="M356 717v348h410v-348h-410zM518 -389q-260 0 -369.5 88t-109.5 264q0 100 38 162.5t116 128.5l79 65q68 57 90.5 91t24.5 88l2 47h344l2 -62q2 -117 -19.5 -169t-119.5 -128l-96 -73q-49 -37 -49 -84q0 -55 30.5 -75t120.5 -20q72 0 256 21l27 -313q-224 -31 -367 -31z " glyph-name="questiondown" horiz-adv-x="937" unicode="¿"/><glyph d="M774 1604h-235l-263 407h326zM926 0l-62 317h-383l-61 -317h-408l361 1434h598l362 -1434h-407zM541 625h262l-98 503h-66z" glyph-name="Agrave" horiz-adv-x="1341" unicode="À"/><glyph d="M1053 2011l-265 -407h-235l172 407h328zM926 0l-62 317h-383l-61 -317h-408l361 1434h598l362 -1434h-407zM541 625h262l-98 503h-66z" glyph-name="Aacute" horiz-adv-x="1341" unicode="Á"/><glyph d="M670 1821l-187 -226h-250l265 408h342l266 -408h-252zM926 0l-62 317h-383l-61 -317h-408l361 1434h598l362 -1434h-407zM541 625h262l-98 503h-66z" glyph-name="Acircumflex" horiz-adv-x="1341" unicode="Â"/><glyph d="M532 1708q-61 0 -75 -100h-158q0 141 65.5 229t172.5 88q74 0 151 -51l76 -53q33 -23 59 -23q53 0 72 103h156q0 -150 -63.5 -234t-172.5 -84q-84 0 -147 49l-78 58q-27 18 -58 18zM926 0l-62 317h-383l-61 -317h-408l361 1434h598l362 -1434h-407zM541 625h262l-98 503 h-66z" glyph-name="Atilde" horiz-adv-x="1341" unicode="Ã"/><glyph d="M582 1903v-273h-306v273h306zM1057 1903v-273h-305v273h305zM926 0l-62 317h-383l-61 -317h-408l361 1434h598l362 -1434h-407zM541 625h262l-98 503h-66z" glyph-name="Adieresis" horiz-adv-x="1341" unicode="Ä"/><glyph d="M668 1544q-156 0 -217.5 64.5t-61.5 189.5q0 141 70.5 196.5t208.5 55.5q156 0 216 -64.5t60 -187.5q0 -143 -70.5 -198.5t-205.5 -55.5zM668 1909q-59 0 -86 -23.5t-27 -87.5q0 -59 24.5 -87t88.5 -28q55 0 83.5 26t28.5 89q0 57 -24.5 84t-87.5 27zM926 0l-62 317h-383 l-61 -317h-408l361 1434h598l362 -1434h-407zM541 625h262l-98 503h-66z" glyph-name="Aring" horiz-adv-x="1341" unicode="Å"/><glyph d="M1290 305h469v-305h-868v317h-354l-123 -317h-408l610 1434h1119v-306h-445v-231h406v-307h-406v-285zM655 625h236v503h-41z" glyph-name="AE" horiz-adv-x="1837" unicode="Æ"/><glyph d="M688 -92q215 -12 215 -193q0 -115 -70.5 -169t-181.5 -54q-90 0 -215 39l13 133q55 -23 112 -22q84 0 84 75q0 59 -67 60h-97l43 217q-242 45 -337 219t-95 494q0 219 39 367.5t119 230t187.5 115.5t260.5 34q182 0 316 -47l-29 -317q-98 41 -239.5 40.5t-192.5 -84 t-51 -329.5t51 -330t192 -84q145 0 240 43l55 -313q-131 -53 -331 -53z" glyph-name="Ccedilla" horiz-adv-x="1089" unicode="Ç"/><glyph d="M672 1604h-236l-262 407h326zM545 305h469v-305h-871v1434h846v-306h-444v-231h405v-307h-405v-285z" glyph-name="Egrave" horiz-adv-x="1091" unicode="È"/><glyph d="M950 2011l-264 -407h-235l172 407h327zM545 305h469v-305h-871v1434h846v-306h-444v-231h405v-307h-405v-285z" glyph-name="Eacute" horiz-adv-x="1091" unicode="É"/><glyph d="M567 1821l-186 -226h-250l264 408h342l267 -408h-252zM545 305h469v-305h-871v1434h846v-306h-444v-231h405v-307h-405v-285z" glyph-name="Ecircumflex" horiz-adv-x="1091" unicode="Ê"/><glyph d="M479 1903v-273h-305v273h305zM954 1903v-273h-305v273h305zM545 305h469v-305h-871v1434h846v-306h-444v-231h405v-307h-405v-285z" glyph-name="Edieresis" horiz-adv-x="1091" unicode="Ë"/><glyph d="M217 1604l-262 407h326l172 -407h-236zM547 1434v-1434h-402v1434h402z" glyph-name="Igrave" horiz-adv-x="688" unicode="Ì"/><glyph d="M231 1604l172 407h328l-264 -407h-236zM547 1434v-1434h-402v1434h402z" glyph-name="Iacute" horiz-adv-x="688" unicode="Í"/><glyph d="M348 1821l-186 -226h-250l264 408h342l266 -408h-252zM145 0v1434h402v-1434h-402z" glyph-name="Icircumflex" horiz-adv-x="688" unicode="Î"/><glyph d="M-45 1903h305v-273h-305v273zM430 1903h305v-273h-305v273zM547 1434v-1434h-402v1434h402z" glyph-name="Idieresis" horiz-adv-x="688" unicode="Ï"/><glyph d="M709 1434q311 0 437 -179.5t126 -537.5q0 -268 -69.5 -430t-189.5 -224.5t-304 -62.5h-564v588h-145v258h145v588h564zM670 303q111 0 150.5 87t39.5 326.5t-40 326.5t-150 87h-123v-284h217v-258h-217v-285h123z" glyph-name="Eth" horiz-adv-x="1359" unicode="Ð"/><glyph d="M580 1708q-61 0 -76 -100h-158q0 141 65.5 229t172.5 88q76 0 151 -51l76 -53q33 -23 59 -23q53 0 72 103h156q0 -150 -63.5 -234t-172.5 -84q-84 0 -147 49l-78 58q-26 18 -57 18zM932 1434h352v-1434h-536l-230 940h-22v-940h-351v1434h541l223 -934h23v934z" glyph-name="Ntilde" horiz-adv-x="1425" unicode="Ñ"/><glyph d="M575 1604l-262 407h326l172 -407h-236zM709 -20q-180 0 -303 47t-191 146t-95.5 228t-27.5 316q0 217 39 363.5t122 227.5t191.5 113.5t264.5 32.5q180 0 302 -47t189.5 -146.5t94 -228.5t26.5 -315q0 -217 -39 -363.5t-122 -227.5t-189 -113.5t-262 -32.5zM709 303 q117 0 158.5 84t41.5 330t-41 329.5t-159 83.5q-121 0 -163 -83.5t-42 -329.5t42 -330t163 -84z" glyph-name="Ograve" horiz-adv-x="1409" unicode="Ò"/><glyph d="M590 1604l172 407h328l-265 -407h-235zM709 -20q-180 0 -303 47t-191 146t-95.5 228t-27.5 316q0 217 39 363.5t122 227.5t191.5 113.5t264.5 32.5q180 0 302 -47t189.5 -146.5t94 -228.5t26.5 -315q0 -217 -39 -363.5t-122 -227.5t-189 -113.5t-262 -32.5zM709 303 q117 0 158.5 84t41.5 330t-41 329.5t-159 83.5q-121 0 -163 -83.5t-42 -329.5t42 -330t163 -84z" glyph-name="Oacute" horiz-adv-x="1409" unicode="Ó"/><glyph d="M707 1821l-187 -226h-250l265 408h342l266 -408h-252zM709 1454q180 0 302 -47t189.5 -146.5t94 -228.5t26.5 -315q0 -217 -39 -363.5t-122 -227.5t-189.5 -113.5t-261.5 -32.5q-180 0 -303 47t-191 146t-95.5 228t-27.5 316q0 217 39 363.5t122 227.5t191.5 113.5 t264.5 32.5zM709 303q117 0 158.5 84t41.5 330t-41 329.5t-159 83.5q-121 0 -163 -83.5t-42 -329.5t42 -330t163 -84z" glyph-name="Ocircumflex" horiz-adv-x="1409" unicode="Ô"/><glyph d="M852 1583q-84 0 -147 49l-78 58q-27 18 -58 18q-61 0 -75 -100h-158q0 141 65.5 229t171.5 88q74 0 152 -51l76 -53q33 -23 59 -23q53 0 72 103h155q0 -150 -63 -234t-172 -84zM709 -20q-180 0 -303 47t-191 146t-95.5 228t-27.5 316q0 217 39 363.5t122 227.5 t191.5 113.5t264.5 32.5q180 0 302 -47t189.5 -146.5t94 -228.5t26.5 -315q0 -217 -39 -363.5t-122 -227.5t-189 -113.5t-262 -32.5zM709 303q117 0 158.5 84t41.5 330t-41 329.5t-159 83.5q-121 0 -163 -83.5t-42 -329.5t42 -330t163 -84z" glyph-name="Otilde" horiz-adv-x="1409" unicode="Õ"/><glyph d="M313 1903h305v-273h-305v273zM788 1903h306v-273h-306v273zM709 -20q-180 0 -303 47t-191 146t-95.5 228t-27.5 316q0 217 39 363.5t122 227.5t191.5 113.5t264.5 32.5q180 0 302 -47t189.5 -146.5t94 -228.5t26.5 -315q0 -217 -39 -363.5t-122 -227.5t-189 -113.5 t-262 -32.5zM709 303q117 0 158.5 84t41.5 330t-41 329.5t-159 83.5q-121 0 -163 -83.5t-42 -329.5t42 -330t163 -84z" glyph-name="Odieresis" horiz-adv-x="1409" unicode="Ö"/><glyph d="M1153 874l-299 -299l299 -299l-205 -204l-297 299l-299 -299l-205 204l299 299l-299 299l205 205l299 -299l297 299z" glyph-name="multiply" horiz-adv-x="1300" unicode="×"/><glyph d="M1079 1370q133 -80 187.5 -239.5t54.5 -413.5q0 -217 -40 -363.5t-122 -227.5t-189.5 -113.5t-260.5 -32.5q-82 0 -160 10l-37 -92h-244l64 165q-131 82 -185.5 242t-54.5 412q0 217 39 363.5t122 227.5t191.5 113.5t264.5 32.5q78 0 155 -10l35 92h244zM504 717 q0 -121 8 -189l229 600q-10 2 -32 2q-121 0 -163 -83.5t-42 -329.5zM709 303q117 0 158.5 84t41.5 330q0 121 -8 192l-231 -604q12 -2 39 -2z" glyph-name="Oslash" horiz-adv-x="1409" unicode="Ø"/><glyph d="M543 1604l-262 407h325l172 -407h-235zM680 -20q-319 0 -440 134t-121 412v908h399v-928q0 -121 32 -162t122 -41q88 0 119.5 41t31.5 162v928h400v-908q0 -311 -134.5 -428.5t-408.5 -117.5z" glyph-name="Ugrave" horiz-adv-x="1339" unicode="Ù"/><glyph d="M557 1604l172 407h328l-264 -407h-236zM680 -20q-319 0 -440 134t-121 412v908h399v-928q0 -121 32 -162t122 -41q88 0 119.5 41t31.5 162v928h400v-908q0 -311 -134.5 -428.5t-408.5 -117.5z" glyph-name="Uacute" horiz-adv-x="1339" unicode="Ú"/><glyph d="M674 1821l-187 -226h-249l264 408h342l266 -408h-252zM823 1434h400v-908q0 -311 -134.5 -428.5t-408.5 -117.5q-319 0 -440 134t-121 412v908h399v-928q0 -121 32 -162t122 -41q88 0 119.5 41t31.5 162v928z" glyph-name="Ucircumflex" horiz-adv-x="1339" unicode="Û"/><glyph d="M281 1903h305v-273h-305v273zM756 1903h305v-273h-305v273zM680 -20q-319 0 -440 134t-121 412v908h399v-928q0 -121 32 -162t122 -41q88 0 119.5 41t31.5 162v928h400v-908q0 -311 -134.5 -428.5t-408.5 -117.5z" glyph-name="Udieresis" horiz-adv-x="1339" unicode="Ü"/><glyph d="M1018 2011l-264 -407h-236l172 407h328zM1264 1434l-437 -961v-473h-399v494l-424 940h412l202 -594h27l211 594h408z" glyph-name="Yacute" horiz-adv-x="1267" unicode="Ý"/><glyph d="M641 1243q160 0 269.5 -30.5t169 -93t84 -142.5t24.5 -191q0 -156 -37 -260t-112.5 -159.5t-169 -77t-228.5 -21.5h-96v-268h-402v1434h402v-191h96zM606 545q109 0 148 50t39 175q0 115 -40 156t-147 41h-61v-422h61z" glyph-name="Thorn" horiz-adv-x="1245" unicode="Þ"/><glyph d="M938 -20q-152 0 -354 34l24 271q133 -25 229.5 -25t96.5 78q0 41 -39 70l-170 131q-102 80 -102 217q0 78 21.5 120t98.5 119q66 66 85.5 95.5t19.5 68.5q0 61 -38 88t-118 27q-111 0 -151.5 -60.5t-40.5 -195.5v-1018h-385v1047q0 274 152.5 387.5t443.5 113.5 q299 0 419.5 -92t120.5 -274q0 -88 -34.5 -149.5t-135.5 -153.5q-61 -59 -61 -93q0 -39 27 -59l147 -119q84 -66 121 -127t37 -157q0 -186 -107.5 -265t-306.5 -79z" glyph-name="germandbls" horiz-adv-x="1398" unicode="ß"/><glyph d="M668 1296h-236l-262 408h326zM655 1147q199 0 278 -94.5t79 -288.5v-748l-344 -30l-21 129h-16q-70 -135 -262 -135q-324 0 -324 327q0 182 97.5 260t283.5 78h203v57q0 80 -31 112t-88 32q-90 0 -311 -53l-54 278q322 76 510 76zM512 213q117 0 117 205v61h-101 q-51 0 -81.5 -33.5t-30.5 -99.5q0 -133 96 -133z" glyph-name="agrave" horiz-adv-x="1110" unicode="à"/><glyph d="M946 1704l-264 -408h-236l172 408h328zM655 1147q199 0 278 -94.5t79 -288.5v-748l-344 -30l-21 129h-16q-70 -135 -262 -135q-324 0 -324 327q0 182 97.5 260t283.5 78h203v57q0 80 -31 112t-88 32q-90 0 -311 -53l-54 278q322 76 510 76zM512 213q117 0 117 205v61 h-101q-51 0 -81.5 -33.5t-30.5 -99.5q0 -133 96 -133z" glyph-name="aacute" horiz-adv-x="1110" unicode="á"/><glyph d="M563 1513l-186 -225h-250l264 408h342l266 -408h-251zM655 1147q199 0 278 -94.5t79 -288.5v-748l-344 -30l-21 129h-16q-70 -135 -262 -135q-324 0 -324 327q0 182 97.5 260t283.5 78h203v57q0 80 -31 112t-88 32q-90 0 -311 -53l-54 278q322 76 510 76zM512 213 q117 0 117 205v61h-101q-51 0 -81.5 -33.5t-30.5 -99.5q0 -133 96 -133z" glyph-name="acircumflex" horiz-adv-x="1110" unicode="â"/><glyph d="M426 1401q-61 0 -76 -101h-157q0 141 65.5 229.5t171.5 88.5q76 0 152 -51l75 -54q33 -23 60 -22q53 0 71 102h156q0 -150 -63.5 -233.5t-171.5 -83.5q-84 0 -148 49l-78 57q-26 19 -57 19zM655 1147q199 0 278 -94.5t79 -288.5v-748l-344 -30l-21 129h-16 q-70 -135 -262 -135q-324 0 -324 327q0 182 97.5 260t283.5 78h203v57q0 80 -31 112t-88 32q-90 0 -311 -53l-54 278q322 76 510 76zM512 213q117 0 117 205v61h-101q-51 0 -81.5 -33.5t-30.5 -99.5q0 -133 96 -133z" glyph-name="atilde" horiz-adv-x="1110" unicode="ã"/><glyph d="M475 1595v-272h-305v272h305zM950 1595v-272h-305v272h305zM655 1147q199 0 278 -94.5t79 -288.5v-748l-344 -30l-21 129h-16q-70 -135 -262 -135q-324 0 -324 327q0 182 97.5 260t283.5 78h203v57q0 80 -31 112t-88 32q-90 0 -311 -53l-54 278q322 76 510 76zM512 213 q117 0 117 205v61h-101q-51 0 -81.5 -33.5t-30.5 -99.5q0 -133 96 -133z" glyph-name="adieresis" horiz-adv-x="1110" unicode="ä"/><glyph d="M561 1237q-156 0 -217 64.5t-61 189.5q0 141 70.5 196.5t207.5 55.5q156 0 216.5 -64.5t60.5 -187.5q0 -143 -71 -198.5t-206 -55.5zM561 1602q-59 0 -85.5 -24t-26.5 -87q0 -59 24.5 -87t87.5 -28q55 0 84 25.5t29 89.5q0 57 -25 84t-88 27zM655 1147q199 0 278 -94.5 t79 -288.5v-748l-344 -30l-21 129h-16q-70 -135 -262 -135q-324 0 -324 327q0 182 97.5 260t283.5 78h203v57q0 80 -31 112t-88 32q-90 0 -311 -53l-54 278q322 76 510 76zM512 213q117 0 117 205v61h-101q-51 0 -81.5 -33.5t-30.5 -99.5q0 -133 96 -133z" glyph-name="aring" horiz-adv-x="1110" unicode="å"/><glyph d="M997 459q8 -113 43 -157t111 -44q133 0 369 49l43 -258q-246 -70 -426 -69q-262 0 -387 149h-17q-102 -150 -334 -149q-182 0 -277 90t-95 235q0 184 97 262t284 78h200v57q0 80 -29.5 112t-86.5 32q-94 0 -312 -53l-53 278q322 76 510 76q145 0 223 -51q109 51 270 51 q145 0 240.5 -37t145 -117t68 -179t18.5 -253q0 -57 -7 -102h-598zM1137 897q-72 0 -104 -47t-38 -176h258q-4 131 -29.5 177t-86.5 46zM494 213q115 0 114 203v63h-98q-51 0 -82 -33.5t-31 -99.5q1 -133 97 -133z" glyph-name="ae" horiz-adv-x="1652" unicode="æ"/><glyph d="M563 -92q215 -12 215 -193q0 -115 -70.5 -169t-181.5 -54q-90 0 -215 39l13 133q55 -23 112 -22q84 0 84 75q0 59 -67 60h-97l43 221q-168 37 -250.5 168t-82.5 397q0 332 129 458t401 126q133 0 225 -27l-24 -274q-57 20 -148 20q-115 0 -152.5 -59t-37.5 -244 q0 -182 38 -242.5t152 -60.5q98 0 158 21l24 -275q-92 -27 -237 -26h-10z" glyph-name="ccedilla" horiz-adv-x="884" unicode="ç"/><glyph d="M666 1296h-236l-262 408h326zM436 459q8 -113 43 -157t111 -44q131 0 366 49l45 -258q-246 -70 -426 -69q-512 0 -512 593q0 322 130.5 448t377.5 126q145 0 239.5 -37t144 -116t67.5 -179t18 -252q0 -51 -6 -104h-598zM575 897q-74 0 -104.5 -46t-36.5 -177h258 q-4 131 -30 177t-87 46z" glyph-name="egrave" horiz-adv-x="1101" unicode="è"/><glyph d="M944 1704l-264 -408h-236l172 408h328zM436 459q8 -113 43 -157t111 -44q131 0 366 49l45 -258q-246 -70 -426 -69q-512 0 -512 593q0 322 130.5 448t377.5 126q145 0 239.5 -37t144 -116t67.5 -179t18 -252q0 -51 -6 -104h-598zM575 897q-74 0 -104.5 -46t-36.5 -177 h258q-4 131 -30 177t-87 46z" glyph-name="eacute" horiz-adv-x="1101" unicode="é"/><glyph d="M561 1513l-186 -225h-250l264 408h342l266 -408h-252zM436 459q8 -113 43 -157t111 -44q131 0 366 49l45 -258q-246 -70 -426 -69q-512 0 -512 593q0 322 130.5 448t377.5 126q145 0 239.5 -37t144 -116t67.5 -179t18 -252q0 -51 -6 -104h-598zM575 897q-74 0 -104.5 -46 t-36.5 -177h258q-4 131 -30 177t-87 46z" glyph-name="ecircumflex" horiz-adv-x="1101" unicode="ê"/><glyph d="M473 1595v-272h-305v272h305zM948 1595v-272h-305v272h305zM436 459q8 -113 43 -157t111 -44q131 0 366 49l45 -258q-246 -70 -426 -69q-512 0 -512 593q0 322 130.5 448t377.5 126q145 0 239.5 -37t144 -116t67.5 -179t18 -252q0 -51 -6 -104h-598zM575 897 q-74 0 -104.5 -46t-36.5 -177h258q-4 131 -30 177t-87 46z" glyph-name="edieresis" horiz-adv-x="1101" unicode="ë"/><glyph d="M176 1296l-262 408h326l172 -408h-236zM496 1126v-1126h-383v1126h383z" glyph-name="igrave" horiz-adv-x="606" unicode="ì"/><glyph d="M190 1296l172 408h328l-264 -408h-236zM496 1126v-1126h-383v1126h383z" glyph-name="iacute" horiz-adv-x="606" unicode="í"/><glyph d="M307 1513l-186 -225h-250l264 408h342l266 -408h-251zM113 0v1126h383v-1126h-383z" glyph-name="icircumflex" horiz-adv-x="606" unicode="î"/><glyph d="M-86 1595h305v-272h-305v272zM389 1595h305v-272h-305v272zM496 1126v-1126h-383v1126h383z" glyph-name="idieresis" horiz-adv-x="606" unicode="ï"/><glyph d="M948 1192q162 -287 162 -655q0 -317 -126 -437t-390 -120q-309 0 -426 130t-117 400q0 319 98.5 439t307.5 120q111 0 172 -35h10q-20 51 -51 103q-20 37 -33 55l-264 -68l-74 213l197 52q-92 117 -131 161h399l66 -77l227 57l74 -213l-154 -39q37 -57 53 -86zM578 260 q84 0 111.5 58.5t27.5 234.5q0 55 -4 145q-10 74 -45 102.5t-97 28.5q-84 0 -110.5 -56t-26.5 -230q0 -170 29 -226.5t115 -56.5z" glyph-name="eth" horiz-adv-x="1144" unicode="ð"/><glyph d="M483 1401q-61 0 -75 -101h-158q0 141 65.5 229.5t171.5 88.5q74 0 152 -51l76 -54q33 -23 59 -22q53 0 72 102h155q0 -150 -63.5 -233.5t-171.5 -83.5q-84 0 -148 49l-77 57q-27 19 -58 19zM797 1147q197 0 267.5 -95.5t70.5 -328.5v-723h-383v698q0 92 -26 130t-97 38 q-68 0 -99.5 -36.5t-31.5 -131.5v-698h-383v1110l344 31l20 -129h21q76 135 297 135z" glyph-name="ntilde" horiz-adv-x="1234" unicode="ñ"/><glyph d="M463 1296l-262 408h325l172 -408h-235zM592 -20q-299 0 -412.5 146t-113.5 437q0 170 35.5 287t108.5 180.5t164 90t218 26.5q297 0 410.5 -146.5t113.5 -437.5q0 -330 -132 -456.5t-392 -126.5zM592 260q78 0 103.5 60.5t25.5 242.5t-25.5 242.5t-103.5 60.5 q-80 0 -106.5 -60.5t-26.5 -242.5t26.5 -242.5t106.5 -60.5z" glyph-name="ograve" horiz-adv-x="1179" unicode="ò"/><glyph d="M477 1296l172 408h328l-264 -408h-236zM592 -20q-299 0 -412.5 146t-113.5 437q0 170 35.5 287t108.5 180.5t164 90t218 26.5q297 0 410.5 -146.5t113.5 -437.5q0 -330 -132 -456.5t-392 -126.5zM592 260q78 0 103.5 60.5t25.5 242.5t-25.5 242.5t-103.5 60.5 q-80 0 -106.5 -60.5t-26.5 -242.5t26.5 -242.5t106.5 -60.5z" glyph-name="oacute" horiz-adv-x="1179" unicode="ó"/><glyph d="M594 1513l-186 -225h-250l264 408h342l266 -408h-252zM592 1147q297 0 410.5 -146.5t113.5 -437.5q0 -330 -132 -456.5t-392 -126.5q-299 0 -412.5 146t-113.5 437q0 170 35.5 287t108.5 180.5t164 90t218 26.5zM592 260q78 0 103.5 60.5t25.5 242.5t-25.5 242.5 t-103.5 60.5q-80 0 -106.5 -60.5t-26.5 -242.5t26.5 -242.5t106.5 -60.5z" glyph-name="ocircumflex" horiz-adv-x="1179" unicode="ô"/><glyph d="M739 1276q-84 0 -147 49l-78 57q-27 18 -57 19q-61 0 -76 -101h-158q0 141 65.5 229.5t172.5 88.5q76 0 151 -51l76 -54q33 -23 60 -22q53 0 71 102h156q0 -150 -63.5 -233.5t-172.5 -83.5zM592 -20q-299 0 -412.5 146t-113.5 437q0 170 35.5 287t108.5 180.5t164 90 t218 26.5q297 0 410.5 -146.5t113.5 -437.5q0 -330 -132 -456.5t-392 -126.5zM592 260q78 0 103.5 60.5t25.5 242.5t-25.5 242.5t-103.5 60.5q-80 0 -106.5 -60.5t-26.5 -242.5t26.5 -242.5t106.5 -60.5z" glyph-name="otilde" horiz-adv-x="1179" unicode="õ"/><glyph d="M201 1595h305v-272h-305v272zM676 1595h305v-272h-305v272zM592 -20q-299 0 -412.5 146t-113.5 437q0 170 35.5 287t108.5 180.5t164 90t218 26.5q297 0 410.5 -146.5t113.5 -437.5q0 -330 -132 -456.5t-392 -126.5zM592 260q78 0 103.5 60.5t25.5 242.5t-25.5 242.5 t-103.5 60.5q-80 0 -106.5 -60.5t-26.5 -242.5t26.5 -242.5t106.5 -60.5z" glyph-name="odieresis" horiz-adv-x="1179" unicode="ö"/><glyph d="M471 844v286h358v-286h-358zM133 430v291h1032v-291h-1032zM471 20v285h358v-285h-358z" glyph-name="divide" horiz-adv-x="1300" unicode="÷"/><glyph d="M911 1077q113 -68 159 -194.5t46 -319.5q0 -330 -132 -456.5t-392 -126.5q-37 0 -103 4l-43 -111h-245l69 178q-205 119 -204 512q0 170 35.5 287t108.5 180.5t164 90t218 26.5q37 0 98 -4l43 110h246zM592 260q78 0 104.5 61.5t26.5 241.5t-26.5 241.5t-104.5 61.5 q-80 0 -105.5 -60.5t-25.5 -242.5t25.5 -242.5t105.5 -60.5z" glyph-name="oslash" horiz-adv-x="1179" unicode="ø"/><glyph d="M713 1296h-236l-262 408h326zM717 1126h383v-1110l-346 -30l-21 129h-18q-74 -135 -287 -135q-188 0 -257 95t-69 328v723h385v-698q0 -92 24 -130t87 -38q61 0 90 37t29 131v698z" glyph-name="ugrave" horiz-adv-x="1214" unicode="ù"/><glyph d="M991 1704l-264 -408h-235l172 408h327zM717 1126h383v-1110l-346 -30l-21 129h-18q-74 -135 -287 -135q-188 0 -257 95t-69 328v723h385v-698q0 -92 24 -130t87 -38q61 0 90 37t29 131v698z" glyph-name="uacute" horiz-adv-x="1214" unicode="ú"/><glyph d="M608 1513l-186 -225h-250l264 408h342l266 -408h-251zM717 1126h383v-1110l-346 -30l-21 129h-18q-74 -135 -287 -135q-188 0 -257 95t-69 328v723h385v-698q0 -92 24 -130t87 -38q61 0 90 37t29 131v698z" glyph-name="ucircumflex" horiz-adv-x="1214" unicode="û"/><glyph d="M520 1595v-272h-305v272h305zM995 1595v-272h-305v272h305zM717 1126h383v-1110l-346 -30l-21 129h-18q-74 -135 -287 -135q-188 0 -257 95t-69 328v723h385v-698q0 -92 24 -130t87 -38q61 0 90 37t29 131v698z" glyph-name="udieresis" horiz-adv-x="1214" unicode="ü"/><glyph d="M936 1704l-264 -408h-236l172 408h328zM692 1126h402l-277 -1144q-49 -207 -167 -289t-304 -82q-102 0 -244 29l23 258q127 -18 209 -19q92 0 133 31t57 131l4 25h-272l-250 1060h402l118 -796h43z" glyph-name="yacute" horiz-adv-x="1097" unicode="ý"/><glyph d="M733 1147q229 0 316.5 -145.5t87.5 -428.5q0 -227 -54.5 -361t-141.5 -183t-220 -49q-139 0 -203 79h-18v-428h-385v1905h385v-489h14q65 100 219 100zM614 260q76 0 101.5 61.5t25.5 243.5q0 178 -25.5 239.5t-99.5 61.5q-68 0 -92 -40t-24 -154v-217q0 -115 24 -155 t90 -40z" glyph-name="thorn" horiz-adv-x="1200" unicode="þ"/><glyph d="M465 1595v-272h-305v272h305zM940 1595v-272h-305v272h305zM692 1126h402l-277 -1144q-49 -207 -167 -289t-304 -82q-102 0 -244 29l23 258q127 -18 209 -19q92 0 133 31t57 131l4 25h-272l-250 1060h402l118 -796h43z" glyph-name="ydieresis" horiz-adv-x="1097" unicode="ÿ"/><glyph d="M977 1882v-254h-621v254h621zM926 0l-62 317h-383l-61 -317h-408l361 1434h598l362 -1434h-407zM541 625h262l-98 503h-66z" glyph-name="Amacron" horiz-adv-x="1341" unicode="Ā"/><glyph d="M870 1575v-254h-620v254h620zM655 1147q199 0 278 -94.5t79 -288.5v-748l-344 -30l-21 129h-16q-70 -135 -262 -135q-324 0 -324 327q0 182 97.5 260t283.5 78h203v57q0 80 -31 112t-88 32q-90 0 -311 -53l-54 278q322 76 510 76zM512 213q117 0 117 205v61h-101 q-51 0 -81.5 -33.5t-30.5 -99.5q0 -133 96 -133z" glyph-name="amacron" horiz-adv-x="1110" unicode="ā"/><glyph d="M670 1569q-201 0 -280 82t-79 241v39h211v-24q0 -66 33 -95.5t113 -29.5q74 0 108.5 24.5t34.5 100.5v24h213v-39q0 -182 -90 -252.5t-264 -70.5zM926 0l-62 317h-383l-61 -317h-408l361 1434h598l362 -1434h-407zM541 625h262l-98 503h-66z" glyph-name="Abreve" horiz-adv-x="1341" unicode="Ă"/><glyph d="M563 1262q-201 0 -279.5 81.5t-78.5 241.5v39h211v-25q0 -66 32.5 -95t112.5 -29q74 0 109 24.5t35 99.5v25h213v-39q0 -182 -90.5 -252.5t-264.5 -70.5zM655 1147q199 0 278 -94.5t79 -288.5v-748l-344 -30l-21 129h-16q-70 -135 -262 -135q-324 0 -324 327 q0 182 97.5 260t283.5 78h203v57q0 80 -31 112t-88 32q-90 0 -311 -53l-54 278q322 76 510 76zM512 213q117 0 117 205v61h-101q-51 0 -81.5 -33.5t-30.5 -99.5q0 -133 96 -133z" glyph-name="abreve" horiz-adv-x="1110" unicode="ă"/><glyph d="M1346 -287l34 -194q-39 -6 -108 -6q-354 0 -354 264q0 119 108 223h-100l-62 317h-383l-61 -317h-408l361 1434h598l362 -1434h-69q-94 -74 -95 -156q0 -66 50.5 -98.5t126.5 -32.5zM541 625h262l-98 503h-66z" glyph-name="Aogonek" horiz-adv-x="1341" unicode="Ą"/><glyph d="M1044 -270l35 -195q-39 -6 -108 -6q-354 0 -355 264q0 106 82 195l-30 -2l-21 129h-16q-70 -135 -262 -135q-324 0 -324 327q0 182 97.5 260t283.5 78h203v57q0 80 -31 112t-88 32q-90 0 -311 -53l-54 278q322 76 510 76q199 0 278 -94.5t79 -288.5v-748l-56 -4 q-88 -72 -88 -151q0 -66 50 -98.5t126 -32.5zM512 213q117 0 117 205v61h-101q-51 0 -81.5 -33.5t-30.5 -99.5q0 -133 96 -133z" glyph-name="aogonek" horiz-adv-x="1110" unicode="ą"/><glyph d="M483 1604l172 407h328l-264 -407h-236zM707 -20q-180 0 -302 47t-190 145t-95.5 225t-27.5 310q0 219 39 367.5t119 230t187.5 115.5t260.5 34q182 0 316 -47l-29 -317q-98 41 -239.5 40.5t-192.5 -84t-51 -329.5t51 -330t192 -84q145 0 240 43l55 -313 q-130 -53 -333 -53z" glyph-name="Cacute" horiz-adv-x="1089" unicode="Ć"/><glyph d="M416 1296l172 408h327l-264 -408h-235zM594 -20q-133 0 -226.5 26.5t-164 91t-104 179t-33.5 286.5q0 332 129 458t401 126q133 0 225 -27l-24 -274q-57 20 -148 20q-115 0 -152.5 -59t-37.5 -244q0 -182 38 -242.5t152 -60.5q98 0 158 21l24 -275q-92 -26 -237 -26z" glyph-name="cacute" horiz-adv-x="884" unicode="ć"/><glyph d="M446 1903h306v-275h-306v275zM707 -20q-180 0 -302 47t-190 145t-95.5 225t-27.5 310q0 219 39 367.5t119 230t187.5 115.5t260.5 34q182 0 316 -47l-29 -317q-98 41 -239.5 40.5t-192.5 -84t-51 -329.5t51 -330t192 -84q145 0 240 43l55 -313q-130 -53 -333 -53z" glyph-name="Cdotaccent" horiz-adv-x="1089" unicode="Ċ"/><glyph d="M379 1595h305v-274h-305v274zM594 -20q-133 0 -226.5 26.5t-164 91t-104 179t-33.5 286.5q0 332 129 458t401 126q133 0 225 -27l-24 -274q-57 20 -148 20q-115 0 -152.5 -59t-37.5 -244q0 -182 38 -242.5t152 -60.5q98 0 158 21l24 -275q-92 -26 -237 -26z" glyph-name="cdotaccent" horiz-adv-x="884" unicode="ċ"/><glyph d="M424 1595l-264 408h250l186 -225l184 225h252l-266 -408h-342zM985 346l55 -313q-131 -53 -333 -53q-180 0 -302 47t-190 145t-95.5 225t-27.5 310q0 219 39 367.5t119 230t187.5 115.5t260.5 34q182 0 316 -47l-29 -317q-98 41 -239.5 40.5t-192.5 -84t-51 -329.5 t51 -330t192 -84q146 0 240 43z" glyph-name="Ccaron" horiz-adv-x="1089" unicode="Č"/><glyph d="M356 1288l-264 408h250l186 -226l185 226h252l-267 -408h-342zM649 260q98 0 158 21l24 -275q-92 -27 -237 -26q-133 0 -226.5 26.5t-164 91t-104 179t-33.5 286.5q0 332 129 458t401 126q133 0 225 -27l-24 -274q-57 20 -148 20q-115 0 -152.5 -59t-37.5 -244 q0 -182 37.5 -242.5t152.5 -60.5z" glyph-name="ccaron" horiz-adv-x="884" unicode="č"/><glyph d="M535 1595l-265 408h250l187 -225l184 225h252l-266 -408h-342zM709 1434q311 0 437 -179.5t126 -537.5q0 -268 -69.5 -430t-189.5 -224.5t-304 -62.5h-564v1434h564zM670 303q111 0 150.5 87t39.5 326.5t-40 326.5t-150 87h-123v-827h123z" glyph-name="Dcaron" horiz-adv-x="1359" unicode="Ď"/><glyph d="M702 1061v475h383v-1520l-344 -30l-20 129h-14q-61 -135 -240 -135q-225 0 -313 146t-88 427q0 332 105 463t308 131q143 0 209 -86h14zM1202 1536h303v-272l-112 -320h-160l110 320h-141v272zM459 561q0 -178 25.5 -239.5t99.5 -61.5q68 0 93 41t25 154v217 q0 115 -24.5 154.5t-91.5 39.5q-76 0 -101.5 -61.5t-25.5 -243.5z" glyph-name="dcaron" horiz-adv-x="1200" unicode="ď"/><glyph d="M709 1434q311 0 437 -179.5t126 -537.5q0 -268 -69.5 -430t-189.5 -224.5t-304 -62.5h-564v588h-145v258h145v588h564zM670 303q111 0 150.5 87t39.5 326.5t-40 326.5t-150 87h-123v-284h217v-258h-217v-285h123z" glyph-name="Dcroat" horiz-adv-x="1359" unicode="Đ"/><glyph d="M1229 1401v-199h-144v-1186l-344 -30l-20 129h-14q-61 -135 -240 -135q-225 0 -313 146t-88 427q0 332 105 463t308 131q143 0 209 -86h14v141h-182v199h182v135h383v-135h144zM459 561q0 -178 25.5 -239.5t99.5 -61.5q68 0 93 41t25 154v217q0 115 -24.5 154.5 t-91.5 39.5q-76 0 -101.5 -61.5t-25.5 -243.5z" glyph-name="dcroat" horiz-adv-x="1198" unicode="đ"/><glyph d="M874 1882v-254h-620v254h620zM545 305h469v-305h-871v1434h846v-306h-444v-231h405v-307h-405v-285z" glyph-name="Emacron" horiz-adv-x="1091" unicode="Ē"/><glyph d="M868 1575v-254h-620v254h620zM436 459q8 -113 43 -157t111 -44q131 0 366 49l45 -258q-246 -70 -426 -69q-512 0 -512 593q0 322 130.5 448t377.5 126q145 0 239.5 -37t144 -116t67.5 -179t18 -252q0 -51 -6 -104h-598zM575 897q-74 0 -104.5 -46t-36.5 -177h258 q-4 131 -30 177t-87 46z" glyph-name="emacron" horiz-adv-x="1101" unicode="ē"/><glyph d="M719 1903v-275h-305v275h305zM545 305h469v-305h-871v1434h846v-306h-444v-231h405v-307h-405v-285z" glyph-name="Edotaccent" horiz-adv-x="1091" unicode="Ė"/><glyph d="M713 1595v-274h-305v274h305zM436 459q8 -113 43 -157t111 -44q131 0 366 49l45 -258q-246 -70 -426 -69q-512 0 -512 593q0 322 130.5 448t377.5 126q145 0 239.5 -37t144 -116t67.5 -179t18 -252q0 -51 -6 -104h-598zM575 897q-74 0 -104.5 -46t-36.5 -177h258 q-4 131 -30 177t-87 46z" glyph-name="edotaccent" horiz-adv-x="1101" unicode="ė"/><glyph d="M995 -287l35 -194q-39 -6 -108 -6q-354 0 -355 264q0 119 109 223h-533v1434h846v-306h-444v-231h405v-307h-405v-285h469v-305h-101q-94 -74 -94 -156q0 -66 50 -98.5t126 -32.5z" glyph-name="Eogonek" horiz-adv-x="1091" unicode="Ę"/><glyph d="M436 459q8 -113 43 -157t111 -44q131 0 366 49l45 -258q-70 -18 -88 -22q-104 -78 -104 -162q0 -66 51 -98.5t127 -32.5l35 -195q-41 -6 -111 -6q-352 0 -352 264q0 94 70 185q-16 -2 -54 -2q-512 0 -512 593q0 322 130.5 448t377.5 126q145 0 239.5 -37t144 -116 t67.5 -179t18 -252q0 -51 -6 -104h-598zM575 897q-74 0 -104.5 -46t-36.5 -177h258q-4 131 -30 177t-87 46z" glyph-name="eogonek" horiz-adv-x="1101" unicode="ę"/><glyph d="M391 1595l-264 408h250l186 -225l185 225h251l-266 -408h-342zM545 305h469v-305h-871v1434h846v-306h-444v-231h405v-307h-405v-285z" glyph-name="Ecaron" horiz-adv-x="1091" unicode="Ě"/><glyph d="M385 1288l-264 408h250l186 -226l184 226h252l-266 -408h-342zM436 459q8 -113 43 -157t111 -44q131 0 366 49l45 -258q-246 -70 -426 -69q-512 0 -512 593q0 322 130.5 448t377.5 126q145 0 239.5 -37t144 -116t67.5 -179t18 -252q0 -51 -6 -104h-598zM575 897 q-74 0 -104.5 -46t-36.5 -177h258q-4 131 -30 177t-87 46z" glyph-name="ecaron" horiz-adv-x="1101" unicode="ě"/><glyph d="M688 1821l-186 -226h-250l264 408h342l266 -408h-252zM1206 856v-844l-311 -26l-23 135h-18q-94 -141 -301 -141q-135 0 -227.5 52t-142.5 156.5t-70.5 233.5t-20.5 309q0 221 40 364.5t126 221.5t196.5 107.5t274.5 29.5q238 0 375 -43l-29 -326q-139 45 -336 45 q-141 0 -189 -82.5t-48 -332.5q0 -246 39 -329t153 -83q78 0 119 44t41 161v57h-145v291h497z" glyph-name="Gcircumflex" horiz-adv-x="1304" unicode="Ĝ"/><glyph d="M575 1513l-186 -225h-250l264 408h342l267 -408h-252zM580 281q213 0 337.5 -43t168.5 -112t44 -175q0 -190 -142 -265t-421 -75q-158 0 -265 17.5t-165.5 53t-83 80.5t-24.5 109q0 168 174 209v24q-117 57 -117 166q0 94 109 187q-127 86 -127 295q0 223 116.5 309 t345.5 86q119 0 218 -21h358l16 -174l-145 -26q37 -57 37 -154q0 -223 -116 -308t-345 -85q-72 0 -133 6l-12 -10q-23 -23 -23 -47q0 -47 76 -47h119zM543 918q-70 0 -93.5 -33t-23.5 -123q0 -92 24.5 -123t92 -31t90 32t22.5 122q0 92 -23 124t-89 32zM569 -168 q113 0 156 28.5t43 88.5q0 66 -45 89t-156 23h-80q-63 -10 -87.5 -40.5t-24.5 -88.5q0 -55 47 -77.5t147 -22.5z" glyph-name="gcircumflex" horiz-adv-x="1153" unicode="ĝ"/><glyph d="M688 1569q-201 0 -279.5 82t-78.5 241v39h211v-24q0 -66 32.5 -95.5t112.5 -29.5q74 0 108.5 24.5t34.5 100.5v24h213v-39q0 -182 -90 -252.5t-264 -70.5zM1206 856v-844l-311 -26l-23 135h-18q-94 -141 -301 -141q-135 0 -227.5 52t-142.5 156.5t-70.5 233.5t-20.5 309 q0 221 40 364.5t126 221.5t196.5 107.5t274.5 29.5q238 0 375 -43l-29 -326q-139 45 -336 45q-141 0 -189 -82.5t-48 -332.5q0 -246 39 -329t153 -83q78 0 119 44t41 161v57h-145v291h497z" glyph-name="Gbreve" horiz-adv-x="1304" unicode="Ğ"/><glyph d="M575 1262q-201 0 -279.5 81.5t-78.5 241.5v39h211v-25q0 -66 33 -95t112 -29q74 0 109 24.5t35 99.5v25h213v-39q0 -182 -90.5 -252.5t-264.5 -70.5zM580 281q213 0 337.5 -43t168.5 -112t44 -175q0 -190 -142 -265t-421 -75q-158 0 -265 17.5t-165.5 53t-83 80.5 t-24.5 109q0 168 174 209v24q-117 57 -117 166q0 94 109 187q-127 86 -127 295q0 223 116.5 309t345.5 86q119 0 218 -21h358l16 -174l-145 -26q37 -57 37 -154q0 -223 -116 -308t-345 -85q-72 0 -133 6l-12 -10q-23 -23 -23 -47q0 -47 76 -47h119zM543 918q-70 0 -93.5 -33 t-23.5 -123q0 -92 24.5 -123t92 -31t90 32t22.5 122q0 92 -23 124t-89 32zM569 -168q113 0 156 28.5t43 88.5q0 66 -45 89t-156 23h-80q-63 -10 -87.5 -40.5t-24.5 -88.5q0 -55 47 -77.5t147 -22.5z" glyph-name="gbreve" horiz-adv-x="1153" unicode="ğ"/><glyph d="M840 1903v-275h-305v275h305zM1206 856v-844l-311 -26l-23 135h-18q-94 -141 -301 -141q-135 0 -227.5 52t-142.5 156.5t-70.5 233.5t-20.5 309q0 221 40 364.5t126 221.5t196.5 107.5t274.5 29.5q238 0 375 -43l-29 -326q-139 45 -336 45q-141 0 -189 -82.5t-48 -332.5 q0 -246 39 -329t153 -83q78 0 119 44t41 161v57h-145v291h497z" glyph-name="Gdotaccent" horiz-adv-x="1304" unicode="Ġ"/><glyph d="M727 1595v-274h-305v274h305zM580 281q213 0 337.5 -43t168.5 -112t44 -175q0 -190 -142 -265t-421 -75q-158 0 -265 17.5t-165.5 53t-83 80.5t-24.5 109q0 168 174 209v24q-117 57 -117 166q0 94 109 187q-127 86 -127 295q0 223 116.5 309t345.5 86q119 0 218 -21h358 l16 -174l-145 -26q37 -57 37 -154q0 -223 -116 -308t-345 -85q-72 0 -133 6l-12 -10q-23 -23 -23 -47q0 -47 76 -47h119zM543 918q-70 0 -93.5 -33t-23.5 -123q0 -92 24.5 -123t92 -31t90 32t22.5 122q0 92 -23 124t-89 32zM569 -168q113 0 156 28.5t43 88.5q0 66 -45 89 t-156 23h-80q-63 -10 -87.5 -40.5t-24.5 -88.5q0 -55 47 -77.5t147 -22.5z" glyph-name="gdotaccent" horiz-adv-x="1153" unicode="ġ"/><glyph d="M1206 856v-844l-311 -26l-23 135h-18q-94 -141 -301 -141q-135 0 -227.5 52t-142.5 156.5t-70.5 233.5t-20.5 309q0 221 40 364.5t126 221.5t196.5 107.5t274.5 29.5q238 0 375 -43l-29 -326q-139 45 -336 45q-141 0 -189 -82.5t-48 -332.5q0 -246 39 -329t153 -83 q78 0 119 44t41 161v57h-145v291h497zM535 -416v273h305v-273l-115 -319h-160l113 319h-143z" glyph-name="Gcommaaccent" horiz-adv-x="1304" unicode="Ģ"/><glyph d="M725 1595v-274h-305v274l115 320h159l-112 -320h143zM580 281q213 0 337.5 -43t168.5 -112t44 -175q0 -190 -142 -265t-421 -75q-158 0 -265 17.5t-165.5 53t-83 80.5t-24.5 109q0 168 174 209v24q-117 57 -117 166q0 94 109 187q-127 86 -127 295q0 223 116.5 309 t345.5 86q119 0 218 -21h358l16 -174l-145 -26q37 -57 37 -154q0 -223 -116 -308t-345 -85q-72 0 -133 6l-12 -10q-23 -23 -23 -47q0 -47 76 -47h119zM543 918q-70 0 -93.5 -33t-23.5 -123q0 -92 24.5 -123t92 -31t90 32t22.5 122q0 92 -23 124t-89 32zM569 -168 q113 0 156 28.5t43 88.5q0 66 -45 89t-156 23h-80q-63 -10 -87.5 -40.5t-24.5 -88.5q0 -55 47 -77.5t147 -22.5z" glyph-name="gcommaaccent" horiz-adv-x="1153" unicode="ģ"/><glyph d="M719 1821l-187 -226h-249l264 408h342l266 -408h-252zM889 1434h401v-1434h-401v590h-342v-590h-402v1434h402v-537h342v537z" glyph-name="Hcircumflex" horiz-adv-x="1433" unicode="Ĥ"/><glyph d="M473 1872l-186 -225h-250l264 407h342l266 -407h-252zM797 1147q197 0 267.5 -95.5t70.5 -328.5v-723h-383v698q0 92 -26 130t-97 38q-66 0 -97.5 -36.5t-31.5 -131.5v-698h-385v1536h385v-496h18q80 107 279 107z" glyph-name="hcircumflex" horiz-adv-x="1234" unicode="ĥ"/><glyph d="M1430 1272v-228h-140v-1044h-401v590h-342v-590h-402v1044h-145v228h145v162h402v-162h342v162h401v-162h140zM889 897v147h-342v-147h342z" glyph-name="Hbar" horiz-adv-x="1429" unicode="Ħ"/><glyph d="M797 1147q197 0 267.5 -95.5t70.5 -328.5v-723h-383v698q0 92 -26 130t-97 38q-66 0 -97.5 -36.5t-31.5 -131.5v-698h-385v1202h-138v199h138v135h385v-135h270v-199h-270v-162h18q80 107 279 107z" glyph-name="hbar" horiz-adv-x="1234" unicode="ħ"/><glyph d="M494 1583q-84 0 -148 49l-78 58q-27 18 -57 18q-61 0 -76 -100h-158q0 141 66 229t172 88q76 0 152 -51l75 -53q33 -23 60 -23q53 0 71 103h156q0 -150 -63 -234t-172 -84zM547 1434v-1434h-402v1434h402z" glyph-name="Itilde" horiz-adv-x="688" unicode="Ĩ"/><glyph d="M453 1276q-84 0 -148 49l-78 57q-27 18 -57 19q-61 0 -76 -101h-157q0 141 65.5 229.5t171.5 88.5q76 0 152 -51l75 -54q33 -23 60 -22q53 0 71 102h156q0 -150 -63 -233.5t-172 -83.5zM496 1126v-1126h-383v1126h383z" glyph-name="itilde" horiz-adv-x="606" unicode="ĩ"/><glyph d="M35 1882h620v-254h-620v254zM547 1434v-1434h-402v1434h402z" glyph-name="Imacron" horiz-adv-x="688" unicode="Ī"/><glyph d="M-6 1575h620v-254h-620v254zM496 1126v-1126h-383v1126h383z" glyph-name="imacron" horiz-adv-x="606" unicode="ī"/><glyph d="M348 1569q-201 0 -279.5 82t-78.5 241v39h211v-24q0 -66 32.5 -95.5t112.5 -29.5q74 0 108.5 24.5t34.5 100.5v24h213v-39q0 -182 -90 -252.5t-264 -70.5zM547 1434v-1434h-402v1434h402z" glyph-name="Ibreve" horiz-adv-x="688" unicode="Ĭ"/><glyph d="M307 1262q-201 0 -279.5 81.5t-78.5 241.5v39h211v-25q0 -66 32.5 -95t112.5 -29q74 0 109 24.5t35 99.5v25h213v-39q0 -182 -90.5 -252.5t-264.5 -70.5zM496 1126v-1126h-383v1126h383z" glyph-name="ibreve" horiz-adv-x="606" unicode="ĭ"/><glyph d="M551 -287l35 -194q-39 -6 -109 -6q-354 0 -354 264q0 119 108 223h-86v1434h402v-1434h-78q-94 -74 -94 -156q0 -66 50 -98.5t126 -32.5z" glyph-name="Iogonek" horiz-adv-x="688" unicode="Į"/><glyph d="M510 1569v-307h-410v307h410zM487 -287l35 -194q-39 -6 -108 -6q-354 0 -355 264q0 119 109 223h-55v1126h383v-1126h-90q-94 -74 -95 -156q0 -66 50 -98.5t126 -32.5z" glyph-name="iogonek" horiz-adv-x="606" unicode="į"/><glyph d="M195 1903h305v-275h-305v275zM547 1434v-1434h-402v1434h402z" glyph-name="Idotaccent" horiz-adv-x="688" unicode="İ"/><glyph d="M496 1126v-1126h-383v1126h383z" glyph-name="dotlessi" horiz-adv-x="606" unicode="ı"/><glyph d="M547 1434v-1434h-402v1434h402zM942 -20q-125 0 -235 22l28 311q41 -10 82 -10q53 0 70.5 25.5t17.5 103.5v1002h402v-1092q0 -205 -88.5 -283.5t-276.5 -78.5z" glyph-name="IJ" horiz-adv-x="1439" unicode="Ĳ"/><glyph d="M100 1569h410v-307h-410v307zM733 1262v307h410v-307h-410zM496 1126v-1126h-383v1126h383zM776 -389q-145 0 -241 22l22 256q35 -8 92 -8q59 0 79 33t20 133v1079h382v-1153q0 -207 -86 -284.5t-268 -77.5z" glyph-name="ij" horiz-adv-x="1245" unicode="ĳ"/><glyph d="M422 1821l-186 -226h-250l264 408h342l266 -408h-252zM217 432v1002h401v-1092q0 -205 -88 -283.5t-276 -78.5q-125 0 -236 22l29 311q41 -10 82 -10q53 0 70.5 25.5t17.5 103.5z" glyph-name="Jcircumflex" horiz-adv-x="751" unicode="Ĵ"/><glyph d="M463 1696l266 -408h-252l-184 225l-187 -225h-249l264 408h342zM86 47v1079h383v-1153q0 -207 -86 -284.5t-268 -77.5q-145 0 -242 22l23 256q35 -8 92 -8q59 0 78.5 33t19.5 133z" glyph-name="jcircumflex" horiz-adv-x="583" unicode="ĵ"/><glyph d="M911 752l408 -752h-455l-254 590h-63v-590h-402v1434h402v-537h65l248 537h428zM530 -416v273h306v-273l-115 -319h-160l113 319h-144z" glyph-name="Kcommaaccent" horiz-adv-x="1325" unicode="Ķ"/><glyph d="M864 631l328 -631h-428l-201 498h-63v-498h-385v1536h385v-795h75l185 385h420zM446 -416v273h306v-273l-115 -319h-160l113 319h-144z" glyph-name="kcommaaccent" horiz-adv-x="1196" unicode="ķ"/><glyph d="M733 2011l-264 -407h-236l173 407h327zM547 305h340v-305h-742v1434h402v-1129z" glyph-name="Lacute" horiz-adv-x="927" unicode="Ĺ"/><glyph d="M188 1706l172 408h328l-264 -408h-236zM424 -20q-180 0 -247.5 79.5t-67.5 247.5v1229h383v-1151q0 -76 14 -100.5t59 -24.5q43 0 68 8l22 -268q-106 -20 -231 -20z" glyph-name="lacute" horiz-adv-x="671" unicode="ĺ"/><glyph d="M547 305h340v-305h-742v1434h402v-1129zM381 -416v273h305v-273l-115 -319h-159l112 319h-143z" glyph-name="Lcommaaccent" horiz-adv-x="927" unicode="Ļ"/><glyph d="M655 0q-106 -20 -231 -20q-180 0 -247.5 79.5t-67.5 247.5v1229h383v-1151q0 -76 14 -100.5t59 -24.5q43 0 68 8zM199 -416v273h305v-273l-115 -319h-160l113 319h-143z" glyph-name="lcommaaccent" horiz-adv-x="671" unicode="ļ"/><glyph d="M547 1434v-1129h340v-305h-742v1434h402zM694 1434h303v-273l-112 -319h-160l111 319h-142v273z" glyph-name="Lcaron" horiz-adv-x="927" unicode="Ľ"/><glyph d="M565 260q43 0 68 8l22 -268q-106 -20 -231 -20q-180 0 -247.5 79.5t-67.5 247.5v1229h383v-1151q0 -76 14 -100.5t59 -24.5zM604 1536h305v-272l-114 -320h-158l111 320h-144v272z" glyph-name="lcaron" horiz-adv-x="671" unicode="ľ"/><glyph d="M547 1434v-1129h340v-305h-742v1434h402zM637 973h412v-383h-412v383z" glyph-name="Ldot" horiz-adv-x="1099" unicode="Ŀ"/><glyph d="M424 -20q-180 0 -247.5 79.5t-67.5 247.5v1229h383v-1151q0 -76 14 -100.5t59 -24.5q43 0 68 8l22 -268q-106 -20 -231 -20zM571 590v383h412v-383h-412z" glyph-name="ldot" horiz-adv-x="1009" unicode="ŀ"/><glyph d="M547 305h340v-305h-742v473l-135 -63v272l135 63v689h402v-496l256 121v-275l-256 -120v-359z" glyph-name="Lslash" horiz-adv-x="927" unicode="Ł"/><glyph d="M659 825l-167 -92v-348q0 -76 14 -100.5t59 -24.5q43 0 68 8l22 -268q-106 -20 -231 -20q-180 0 -247.5 79.5t-67.5 247.5v219l-109 -59v266l109 60v743h383v-537l167 91v-265z" glyph-name="lslash" horiz-adv-x="671" unicode="ł"/><glyph d="M1100 2011l-264 -407h-236l172 407h328zM932 1434h352v-1434h-536l-230 940h-22v-940h-351v1434h541l223 -934h23v934z" glyph-name="Nacute" horiz-adv-x="1425" unicode="Ń"/><glyph d="M1004 1704l-265 -408h-235l172 408h328zM797 1147q197 0 267.5 -95.5t70.5 -328.5v-723h-383v698q0 92 -26 130t-97 38q-68 0 -99.5 -36.5t-31.5 -131.5v-698h-383v1110l344 31l20 -129h21q76 135 297 135z" glyph-name="nacute" horiz-adv-x="1234" unicode="ń"/><glyph d="M932 1434h352v-1434h-536l-230 940h-22v-940h-351v1434h541l223 -934h23v934zM543 -416v273h305v-273l-115 -319h-160l113 319h-143z" glyph-name="Ncommaaccent" horiz-adv-x="1425" unicode="Ņ"/><glyph d="M797 1147q197 0 267.5 -95.5t70.5 -328.5v-723h-383v698q0 92 -26 130t-97 38q-68 0 -99.5 -36.5t-31.5 -131.5v-698h-383v1110l344 31l20 -129h21q76 135 297 135zM469 -416v273h305v-273l-115 -319h-159l112 319h-143z" glyph-name="ncommaaccent" horiz-adv-x="1234" unicode="ņ"/><glyph d="M541 1595l-265 408h250l187 -225l184 225h252l-266 -408h-342zM932 1434h352v-1434h-536l-230 940h-22v-940h-351v1434h541l223 -934h23v934z" glyph-name="Ncaron" horiz-adv-x="1425" unicode="Ň"/><glyph d="M444 1288l-264 408h250l186 -226l185 226h252l-267 -408h-342zM797 1147q197 0 267.5 -95.5t70.5 -328.5v-723h-383v698q0 92 -26 130t-97 38q-68 0 -99.5 -36.5t-31.5 -131.5v-698h-383v1110l344 31l20 -129h21q76 135 297 135z" glyph-name="ncaron" horiz-adv-x="1234" unicode="ň"/><glyph d="M932 1434h352v-1500q0 -184 -78 -253.5t-245 -69.5q-106 0 -207 20l20 234q45 -8 78 -8q49 0 64.5 22.5t15.5 91.5v29h-184l-230 940h-22v-940h-351v1434h541l223 -934h23v934z" glyph-name="Eng" horiz-adv-x="1425" unicode="Ŋ"/><glyph d="M797 1147q197 0 267.5 -95.5t70.5 -328.5v-750q0 -207 -85 -284.5t-268 -77.5q-147 0 -241 22l20 256q39 -8 92 -8q57 0 78 30t21 116v671q0 92 -26 130t-97 38q-68 0 -99.5 -36.5t-31.5 -131.5v-698h-383v1110l344 31l20 -129h21q76 135 297 135z" glyph-name="eng" horiz-adv-x="1234" unicode="ŋ"/><glyph d="M393 1882h621v-254h-621v254zM709 -20q-180 0 -303 47t-191 146t-95.5 228t-27.5 316q0 217 39 363.5t122 227.5t191.5 113.5t264.5 32.5q180 0 302 -47t189.5 -146.5t94 -228.5t26.5 -315q0 -217 -39 -363.5t-122 -227.5t-189 -113.5t-262 -32.5zM709 303 q117 0 158.5 84t41.5 330t-41 329.5t-159 83.5q-121 0 -163 -83.5t-42 -329.5t42 -330t163 -84z" glyph-name="Omacron" horiz-adv-x="1409" unicode="Ō"/><glyph d="M281 1575h620v-254h-620v254zM592 -20q-299 0 -412.5 146t-113.5 437q0 170 35.5 287t108.5 180.5t164 90t218 26.5q297 0 410.5 -146.5t113.5 -437.5q0 -330 -132 -456.5t-392 -126.5zM592 260q78 0 103.5 60.5t25.5 242.5t-25.5 242.5t-103.5 60.5q-80 0 -106.5 -60.5 t-26.5 -242.5t26.5 -242.5t106.5 -60.5z" glyph-name="omacron" horiz-adv-x="1179" unicode="ō"/><glyph d="M707 1569q-201 0 -280 82t-79 241v39h211v-24q0 -66 33 -95.5t113 -29.5q74 0 108.5 24.5t34.5 100.5v24h213v-39q0 -182 -90 -252.5t-264 -70.5zM709 -20q-180 0 -303 47t-191 146t-95.5 228t-27.5 316q0 217 39 363.5t122 227.5t191.5 113.5t264.5 32.5q180 0 302 -47 t189.5 -146.5t94 -228.5t26.5 -315q0 -217 -39 -363.5t-122 -227.5t-189 -113.5t-262 -32.5zM709 303q117 0 158.5 84t41.5 330t-41 329.5t-159 83.5q-121 0 -163 -83.5t-42 -329.5t42 -330t163 -84z" glyph-name="Obreve" horiz-adv-x="1409" unicode="Ŏ"/><glyph d="M594 1262q-201 0 -279.5 81.5t-78.5 241.5v39h210v-25q0 -66 33 -95t113 -29q74 0 108.5 24.5t34.5 99.5v25h213v-39q0 -182 -90 -252.5t-264 -70.5zM592 -20q-299 0 -412.5 146t-113.5 437q0 170 35.5 287t108.5 180.5t164 90t218 26.5q297 0 410.5 -146.5t113.5 -437.5 q0 -330 -132 -456.5t-392 -126.5zM592 260q78 0 103.5 60.5t25.5 242.5t-25.5 242.5t-103.5 60.5q-80 0 -106.5 -60.5t-26.5 -242.5t26.5 -242.5t106.5 -60.5z" glyph-name="obreve" horiz-adv-x="1179" unicode="ŏ"/><glyph d="M385 1602l180 411h326l-279 -411h-227zM831 1602l179 411h325l-278 -411h-226zM709 -20q-180 0 -303 47t-191 146t-95.5 228t-27.5 316q0 217 39 363.5t122 227.5t191.5 113.5t264.5 32.5q180 0 302 -47t189.5 -146.5t94 -228.5t26.5 -315q0 -217 -39 -363.5t-122 -227.5 t-189 -113.5t-262 -32.5zM709 303q117 0 158.5 84t41.5 330t-41 329.5t-159 83.5q-121 0 -163 -83.5t-42 -329.5t42 -330t163 -84z" glyph-name="Ohungarumlaut" horiz-adv-x="1409" unicode="Ő"/><glyph d="M272 1294l181 412h325l-278 -412h-228zM719 1294l178 412h326l-279 -412h-225zM592 -20q-299 0 -412.5 146t-113.5 437q0 170 35.5 287t108.5 180.5t164 90t218 26.5q297 0 410.5 -146.5t113.5 -437.5q0 -330 -132 -456.5t-392 -126.5zM592 260q78 0 103.5 60.5 t25.5 242.5t-25.5 242.5t-103.5 60.5q-80 0 -106.5 -60.5t-26.5 -242.5t26.5 -242.5t106.5 -60.5z" glyph-name="ohungarumlaut" horiz-adv-x="1179" unicode="ő"/><glyph d="M1286 305h467v-305h-862q-94 -20 -215 -20q-182 0 -304 47t-189.5 146t-95.5 228t-28 316q0 217 39 363.5t122 227.5t191.5 113.5t264.5 32.5q123 0 211 -20h842v-308h-443v-231h404v-305h-404v-285zM676 303q117 0 159 84t42 330t-41 329.5t-160 83.5q-121 0 -163 -83.5 t-42 -329.5t42 -330t163 -84z" glyph-name="OE" horiz-adv-x="1830" unicode="Œ"/><glyph d="M1096 459q8 -113 43 -157t110 -44q131 0 369 49l43 -258q-246 -70 -426 -69q-199 0 -322 88q-119 -88 -346 -88q-299 0 -413.5 146t-114.5 437q0 170 37 287t109.5 180.5t163.5 90t218 26.5q215 0 338 -82q115 82 326 82q145 0 238.5 -37t142.5 -116t67.5 -179t18.5 -252 q0 -72 -4 -104h-598zM1235 897q-74 0 -104.5 -46t-36.5 -177h258q-4 131 -30 177t-87 46zM567 260q78 0 104.5 61.5t26.5 241.5t-26.5 241.5t-104.5 61.5q-80 0 -105.5 -60.5t-25.5 -242.5t25.5 -242.5t105.5 -60.5z" glyph-name="oe" horiz-adv-x="1751" unicode="œ"/><glyph d="M1036 2011l-264 -407h-235l172 407h327zM1294 0h-426l-219 522h-4h-98v-522h-402v1434h465q326 0 445 -102.5t119 -340.5q0 -258 -191 -383zM547 1157v-385h55q106 0 143 40t37 153q0 115 -36.5 153.5t-143.5 38.5h-55z" glyph-name="Racute" horiz-adv-x="1302" unicode="Ŕ"/><glyph d="M801 1704l-264 -408h-236l172 408h328zM788 1147q33 0 43 -2l-30 -336q-51 25 -139 25q-94 0 -128 -51.5t-34 -198.5v-584h-385v1110l348 31l24 -154h19q71 160 282 160z" glyph-name="racute" horiz-adv-x="837" unicode="ŕ"/><glyph d="M983 608l311 -608h-426l-219 522h-4h-98v-522h-402v1434h465q326 0 445 -102.5t119 -340.5q-1 -258 -191 -383zM547 1157v-385h55q106 0 143 40t37 153q0 115 -36.5 153.5t-143.5 38.5h-55zM500 -416v273h305v-273l-115 -319h-160l113 319h-143z" glyph-name="Rcommaaccent" horiz-adv-x="1302" unicode="Ŗ"/><glyph d="M788 1147q33 0 43 -2l-30 -336q-51 25 -139 25q-94 0 -128 -51.5t-34 -198.5v-584h-385v1110l348 31l24 -154h19q71 160 282 160zM264 -416v273h305v-273l-114 -319h-160l113 319h-144z" glyph-name="rcommaaccent" horiz-adv-x="837" unicode="ŗ"/><glyph d="M477 1595l-264 408h250l186 -225l185 225h251l-266 -408h-342zM1294 0h-426l-219 522h-4h-98v-522h-402v1434h465q326 0 445 -102.5t119 -340.5q0 -258 -191 -383zM547 1157v-385h55q106 0 143 40t37 153q0 115 -36.5 153.5t-143.5 38.5h-55z" glyph-name="Rcaron" horiz-adv-x="1302" unicode="Ř"/><glyph d="M242 1288l-265 408h250l187 -226l184 226h252l-266 -408h-342zM506 987q72 160 282 160q33 0 43 -2l-30 -336q-51 25 -139 25q-94 0 -128 -51.5t-34 -198.5v-584h-385v1110l348 31l24 -154h19z" glyph-name="rcaron" horiz-adv-x="837" unicode="ř"/><glyph d="M369 1604l172 407h327l-264 -407h-235zM426 -20q-158 0 -385 40l29 306q250 -35 311 -35q76 0 106.5 26.5t30.5 81.5q0 72 -53 119l-227 197q-172 154 -172 348q0 219 126.5 305t372.5 86q127 0 336 -33l-27 -299q-119 20 -256 21q-82 0 -112.5 -21.5t-30.5 -79.5 q0 -61 47 -102l217 -186q190 -172 191 -357q0 -229 -129 -323t-375 -94z" glyph-name="Sacute" horiz-adv-x="980" unicode="Ś"/><glyph d="M328 1296l172 408h327l-264 -408h-235zM418 -20q-172 0 -363 34l23 271q139 -25 239 -25q63 0 85 15.5t22 60.5q0 43 -41 70l-203 143q-123 82 -123 268q0 184 99.5 257t287.5 73q135 0 361 -37l-23 -272q-154 29 -239 28q-43 0 -59.5 -14t-16.5 -51q0 -39 33 -64 l174 -125q86 -61 126 -124.5t40 -163.5q0 -188 -108.5 -266t-313.5 -78z" glyph-name="sacute" horiz-adv-x="876" unicode="ś"/><glyph d="M485 1821l-186 -226h-250l264 408h342l267 -408h-252zM739 754q190 -172 191 -357q0 -229 -129 -323t-375 -94q-158 0 -385 40l29 306q250 -35 311 -35q76 0 106.5 26.5t30.5 81.5q0 72 -53 119l-227 197q-172 154 -172 348q0 219 126.5 305t372.5 86q127 0 336 -33 l-27 -299q-119 20 -256 21q-82 0 -112.5 -21.5t-30.5 -79.5q0 -61 47 -102z" glyph-name="Scircumflex" horiz-adv-x="980" unicode="Ŝ"/><glyph d="M444 1513l-186 -225h-250l264 408h342l267 -408h-252zM674 612q86 -61 126 -124.5t40 -163.5q0 -188 -108.5 -266t-313.5 -78q-172 0 -363 34l23 271q139 -25 239 -25q63 0 85 15.5t22 60.5q0 43 -41 70l-203 143q-123 82 -123 268q0 184 99.5 257t287.5 73 q135 0 361 -37l-23 -272q-154 29 -239 28q-43 0 -59.5 -14t-16.5 -51q0 -39 33 -64z" glyph-name="scircumflex" horiz-adv-x="876" unicode="ŝ"/><glyph d="M930 397q0 -195 -93.5 -291t-271.5 -118l-22 -80q215 -12 215 -193q0 -115 -71 -169t-181 -54q-90 0 -215 39l12 133q55 -23 113 -22q84 0 84 75q0 59 -68 60h-96l39 205q-135 2 -334 38l29 306q250 -35 311 -35q76 0 106.5 26.5t30.5 81.5q0 72 -53 119l-227 197 q-172 154 -172 348q0 219 126.5 305t372.5 86q127 0 336 -33l-27 -299q-119 20 -256 21q-82 0 -112.5 -21.5t-30.5 -79.5q0 -61 47 -102l217 -186q191 -173 191 -357z" glyph-name="Scedilla" horiz-adv-x="980" unicode="Ş"/><glyph d="M840 324q0 -160 -78 -239t-225 -99l-23 -78q215 -12 215 -193q0 -115 -70.5 -169t-181.5 -54q-90 0 -215 39l12 133q55 -23 113 -22q84 0 84 75q0 59 -68 60h-96l39 205q-150 6 -291 32l23 271q139 -25 239 -25q63 0 85 15.5t22 60.5q0 43 -41 70l-203 143 q-123 82 -123 268q0 184 99.5 257t287.5 73q135 0 361 -37l-23 -272q-154 29 -239 28q-43 0 -59.5 -14t-16.5 -51q0 -39 33 -64l174 -125q86 -61 126 -124.5t40 -163.5z" glyph-name="scedilla" horiz-adv-x="876" unicode="ş"/><glyph d="M309 1595l-264 408h250l186 -225l185 225h252l-267 -408h-342zM739 754q190 -172 191 -357q0 -229 -129 -323t-375 -94q-158 0 -385 40l29 306q250 -35 311 -35q76 0 106.5 26.5t30.5 81.5q0 72 -53 119l-227 197q-172 154 -172 348q0 219 126.5 305t372.5 86 q127 0 336 -33l-27 -299q-119 20 -256 21q-82 0 -112.5 -21.5t-30.5 -79.5q0 -61 47 -102z" glyph-name="Scaron" horiz-adv-x="980" unicode="Š"/><glyph d="M268 1288l-264 408h250l186 -226l185 226h252l-267 -408h-342zM674 612q86 -61 126 -124.5t40 -163.5q0 -188 -108.5 -266t-313.5 -78q-172 0 -363 34l23 271q139 -25 239 -25q63 0 85 15.5t22 60.5q0 43 -41 70l-203 143q-123 82 -123 268q0 184 99.5 257t287.5 73 q135 0 361 -37l-23 -272q-154 29 -239 28q-43 0 -59.5 -14t-16.5 -51q0 -39 33 -64z" glyph-name="scaron" horiz-adv-x="876" unicode="š"/><glyph d="M709 0h-109l-27 -92q215 -12 215 -193q0 -115 -70.5 -169t-180.5 -54q-90 0 -215 39l12 133q55 -23 112 -22q84 0 84 75q0 59 -67 60h-96l43 223h-101v1128h-289v306h973v-306h-284v-1128z" glyph-name="Tcommaaccent" horiz-adv-x="1013" unicode="Ţ"/><glyph d="M725 881h-178v-500q0 -74 13 -97.5t58 -23.5q41 0 64 8l23 -270q-84 -18 -209 -18l-21 -72q215 -12 215 -193q0 -115 -70.5 -169t-181.5 -54q-90 0 -215 39l13 133q55 -23 112 -22q84 0 84 75q0 59 -67 60h-97l45 229q-84 33 -116.5 105.5t-32.5 195.5v574h-150v245h150 v273h383v-273h178v-245z" glyph-name="tcommaaccent" horiz-adv-x="780" unicode="ţ"/><glyph d="M332 1595l-264 408h249l187 -225l184 225h252l-266 -408h-342zM993 1434v-306h-284v-1128h-400v1128h-289v306h973z" glyph-name="Tcaron" horiz-adv-x="1013" unicode="Ť"/><glyph d="M641 1821h303v-273l-113 -321h-157l110 321h-143v273zM547 1399v-273h178v-245h-178v-500q0 -74 13 -97.5t58 -23.5q41 0 64 8l23 -270q-90 -18 -224 -18q-182 0 -249.5 79.5t-67.5 247.5v574h-150v245h150v273h383z" glyph-name="tcaron" horiz-adv-x="780" unicode="ť"/><glyph d="M993 1128h-284v-282h198v-258h-198v-588h-400v588h-166v258h166v282h-289v306h973v-306z" glyph-name="Tbar" horiz-adv-x="1013" unicode="Ŧ"/><glyph d="M725 881h-178v-144h166v-258h-166v-98q0 -74 13 -97.5t58 -23.5q41 0 64 8l23 -270q-90 -18 -224 -18q-182 0 -249.5 79.5t-67.5 247.5v172h-135v258h135v144h-150v245h150v273h383v-273h178v-245z" glyph-name="tbar" horiz-adv-x="780" unicode="ŧ"/><glyph d="M819 1583q-84 0 -147 49l-78 58q-27 18 -57 18q-61 0 -76 -100h-158q0 141 65.5 229t172.5 88q74 0 151 -51l76 -53q33 -23 59 -23q53 0 72 103h156q0 -150 -63.5 -234t-172.5 -84zM680 -20q-319 0 -440 134t-121 412v908h399v-928q0 -121 32 -162t122 -41q88 0 119.5 41 t31.5 162v928h400v-908q0 -311 -134.5 -428.5t-408.5 -117.5z" glyph-name="Utilde" horiz-adv-x="1339" unicode="Ũ"/><glyph d="M471 1401q-61 0 -76 -101h-157q0 141 65.5 229.5t171.5 88.5q74 0 152 -51l75 -54q33 -23 60 -22q53 0 72 102h155q0 -150 -63.5 -233.5t-171.5 -83.5q-84 0 -148 49l-78 57q-26 19 -57 19zM717 1126h383v-1110l-346 -30l-21 129h-18q-74 -135 -287 -135q-188 0 -257 95 t-69 328v723h385v-698q0 -92 24 -130t87 -38q61 0 90 37t29 131v698z" glyph-name="utilde" horiz-adv-x="1214" unicode="ũ"/><glyph d="M360 1882h621v-254h-621v254zM680 -20q-319 0 -440 134t-121 412v908h399v-928q0 -121 32 -162t122 -41q88 0 119.5 41t31.5 162v928h400v-908q0 -311 -134.5 -428.5t-408.5 -117.5z" glyph-name="Umacron" horiz-adv-x="1339" unicode="Ū"/><glyph d="M915 1575v-254h-620v254h620zM717 1126h383v-1110l-346 -30l-21 129h-18q-74 -135 -287 -135q-188 0 -257 95t-69 328v723h385v-698q0 -92 24 -130t87 -38q61 0 90 37t29 131v698z" glyph-name="umacron" horiz-adv-x="1214" unicode="ū"/><glyph d="M674 1569q-201 0 -280 82t-79 241v39h211v-24q0 -66 33 -95.5t113 -29.5q74 0 108.5 24.5t34.5 100.5v24h213v-39q0 -182 -90 -252.5t-264 -70.5zM680 -20q-319 0 -440 134t-121 412v908h399v-928q0 -121 32 -162t122 -41q88 0 119.5 41t31.5 162v928h400v-908 q0 -311 -134.5 -428.5t-408.5 -117.5z" glyph-name="Ubreve" horiz-adv-x="1339" unicode="Ŭ"/><glyph d="M608 1262q-201 0 -279.5 81.5t-78.5 241.5v39h211v-25q0 -66 32.5 -95t112.5 -29q74 0 109 24.5t35 99.5v25h213v-39q0 -182 -90.5 -252.5t-264.5 -70.5zM717 1126h383v-1110l-346 -30l-21 129h-18q-74 -135 -287 -135q-188 0 -257 95t-69 328v723h385v-698 q0 -92 24 -130t87 -38q61 0 90 37t29 131v698z" glyph-name="ubreve" horiz-adv-x="1214" unicode="ŭ"/><glyph d="M672 1544q-156 0 -217.5 64.5t-61.5 189.5q0 141 71 196.5t208 55.5q156 0 216 -64.5t60 -187.5q0 -143 -70.5 -198.5t-205.5 -55.5zM672 1683q55 0 83.5 26t28.5 89q0 57 -24.5 84t-87.5 27q-59 0 -86 -23.5t-27 -87.5q0 -59 25 -87t88 -28zM680 -20q-319 0 -440 134 t-121 412v908h399v-928q0 -121 32 -162t122 -41q88 0 119.5 41t31.5 162v928h400v-908q0 -311 -134.5 -428.5t-408.5 -117.5z" glyph-name="Uring" horiz-adv-x="1339" unicode="Ů"/><glyph d="M606 1237q-156 0 -217 64.5t-61 189.5q0 141 70.5 196.5t207.5 55.5q156 0 216.5 -64.5t60.5 -187.5q0 -143 -71 -198.5t-206 -55.5zM606 1602q-59 0 -85.5 -24t-26.5 -87q0 -59 24.5 -87t87.5 -28q55 0 84 25.5t29 89.5q0 57 -25 84t-88 27zM717 1126h383v-1110 l-346 -30l-21 129h-18q-74 -135 -287 -135q-188 0 -257 95t-69 328v723h385v-698q0 -92 24 -130t87 -38q61 0 90 37t29 131v698z" glyph-name="uring" horiz-adv-x="1214" unicode="ů"/><glyph d="M352 1602l180 411h326l-278 -411h-228zM799 1602l178 411h326l-279 -411h-225zM680 -20q-319 0 -440 134t-121 412v908h399v-928q0 -121 32 -162t122 -41q88 0 119.5 41t31.5 162v928h400v-908q0 -311 -134.5 -428.5t-408.5 -117.5z" glyph-name="Uhungarumlaut" horiz-adv-x="1339" unicode="Ű"/><glyph d="M793 1706l-279 -412h-227l180 412h326zM958 1294h-225l178 412h326zM717 428v698h383v-1110l-346 -30l-21 129h-18q-74 -135 -287 -135q-188 0 -257 95t-69 328v723h385v-698q0 -92 24 -130t87 -38q61 0 90 37t29 131z" glyph-name="uhungarumlaut" horiz-adv-x="1214" unicode="ű"/><glyph d="M823 1434h400v-908q0 -266 -98.5 -389t-295.5 -149q-80 -68 -79 -144q0 -66 50 -98.5t126 -32.5l35 -194q-39 -6 -109 -6q-354 0 -354 264q0 117 92 205q-266 18 -368.5 152t-102.5 392v908h399v-928q0 -121 32 -162t122 -41q88 0 119.5 41t31.5 162v928z" glyph-name="Uogonek" horiz-adv-x="1339" unicode="Ų"/><glyph d="M1143 -270l35 -195q-39 -6 -109 -6q-354 0 -354 264q0 109 82 197l-43 -4l-21 129h-18q-74 -135 -287 -135q-188 0 -257 95t-69 328v723h385v-698q0 -92 24 -130t87 -38q61 0 90 37t29 131v698h383v-1110l-43 -4q-90 -72 -90 -151q0 -66 50 -98.5t126 -32.5z" glyph-name="uogonek" horiz-adv-x="1214" unicode="ų"/><glyph d="M944 1821l-186 -226h-250l264 408h342l266 -408h-252zM1454 1434h408l-224 -1434h-528l-154 1128h-30l-152 -1128h-530l-224 1434h408l113 -1129h34l138 1129h458l136 -1129h34z" glyph-name="Wcircumflex" horiz-adv-x="1882" unicode="Ŵ"/><glyph d="M926 1513l-187 -225h-250l265 408h342l266 -408h-252zM1430 1126h403l-211 -1126h-551l-135 860h-33l-135 -860h-549l-211 1126h402l90 -860h39l133 860h495l136 -860h36z" glyph-name="wcircumflex" horiz-adv-x="1839" unicode="ŵ"/><glyph d="M635 1821l-186 -226h-250l264 408h342l266 -408h-252zM1264 1434l-437 -961v-473h-399v494l-424 940h412l202 -594h27l211 594h408z" glyph-name="Ycircumflex" horiz-adv-x="1267" unicode="Ŷ"/><glyph d="M553 1513l-186 -225h-250l264 408h342l266 -408h-252zM692 1126h402l-277 -1144q-49 -207 -167 -289t-304 -82q-102 0 -244 29l23 258q127 -18 209 -19q92 0 133 31t57 131l4 25h-272l-250 1060h402l118 -796h43z" glyph-name="ycircumflex" horiz-adv-x="1097" unicode="ŷ"/><glyph d="M547 1903v-273h-305v273h305zM1022 1903v-273h-305v273h305zM1264 1434l-437 -961v-473h-399v494l-424 940h412l202 -594h27l211 594h408z" glyph-name="Ydieresis" horiz-adv-x="1267" unicode="Ÿ"/><glyph d="M907 2011l-264 -407h-235l172 407h327zM104 1434h881v-353l-547 -739v-37h535v-305h-934v356l547 734v38h-482v306z" glyph-name="Zacute" horiz-adv-x="1044" unicode="Ź"/><glyph d="M840 1704l-265 -408h-235l172 408h328zM416 262h454v-262h-837v309l434 531v24h-399v262h778v-309l-430 -522v-33z" glyph-name="zacute" horiz-adv-x="911" unicode="ź"/><glyph d="M676 1903v-275h-305v275h305zM104 1434h881v-353l-547 -739v-37h535v-305h-934v356l547 734v38h-482v306z" glyph-name="Zdotaccent" horiz-adv-x="1044" unicode="Ż"/><glyph d="M608 1595v-274h-305v274h305zM416 262h454v-262h-837v309l434 531v24h-399v262h778v-309l-430 -522v-33z" glyph-name="zdotaccent" horiz-adv-x="911" unicode="ż"/><glyph d="M348 1595l-264 408h250l186 -225l185 225h251l-266 -408h-342zM104 1434h881v-353l-547 -739v-37h535v-305h-934v356l547 734v38h-482v306z" glyph-name="Zcaron" horiz-adv-x="1044" unicode="Ž"/><glyph d="M281 1288l-265 408h250l187 -226l184 226h252l-266 -408h-342zM416 295v-33h454v-262h-837v309l434 531v24h-399v262h778v-309z" glyph-name="zcaron" horiz-adv-x="911" unicode="ž"/><glyph d="M569 1548q139 0 236 -20l-25 -258q-47 12 -102 12q-72 0 -95.5 -38t-23.5 -150v-1094h-383v881h-164v245h164v27q0 221 96 308t297 87z" glyph-name="longs" horiz-adv-x="780" unicode="ſ"/><glyph d="M692 1282q-72 0 -95.5 -38t-23.5 -150v-187h199v-245h-199v-689q0 -207 -86 -284.5t-266 -77.5q-96 0 -190 12l22 260q10 -2 39 -2q57 -2 77.5 32t20.5 132v617h-147v245h147v246q0 221 96.5 308t295.5 87q141 0 237 -20l-24 -258q-46 12 -103 12z" glyph-name="florin" horiz-adv-x="825" unicode="ƒ"/><glyph d="M1255 1688h211v-218q0 -139 -52 -206.5t-165 -87.5q72 -160 72 -459q0 -217 -39 -363.5t-122 -227.5t-189.5 -113.5t-261.5 -32.5q-180 0 -303 47t-191 146t-95.5 228t-27.5 316q0 217 39 363.5t122 227.5t191.5 113.5t264.5 32.5q270 0 411 -111q76 2 105.5 32t29.5 95 v218zM709 303q117 0 158.5 84t41.5 330t-41 329.5t-159 83.5q-121 0 -163 -83.5t-42 -329.5t42 -330t163 -84z" glyph-name="Ohorn" horiz-adv-x="1409" unicode="Ơ"/><glyph d="M1100 1364h211v-217q0 -143 -54.5 -211t-175.5 -86q35 -117 35 -287q0 -330 -132 -456.5t-392 -126.5q-299 0 -412.5 146t-113.5 437q0 170 35.5 287t108.5 180.5t164 90t218 26.5q262 0 391 -125q63 4 90 33.5t27 91.5v217zM592 260q78 0 103.5 60.5t25.5 242.5 t-25.5 242.5t-103.5 60.5q-80 0 -106.5 -60.5t-26.5 -242.5t26.5 -242.5t106.5 -60.5z" glyph-name="ohorn" horiz-adv-x="1179" unicode="ơ"/><glyph d="M1300 1778h211v-217q0 -160 -67.5 -226.5t-220.5 -77.5v-731q0 -311 -134.5 -428.5t-408.5 -117.5q-319 0 -440 134t-121 412v908h399v-928q0 -121 32 -162t122 -41q88 0 119.5 41t31.5 162v928h320q88 0 122.5 28.5t34.5 98.5v217z" glyph-name="Uhorn" horiz-adv-x="1339" unicode="Ư"/><glyph d="M1165 1470h211v-217q0 -156 -64.5 -223t-211.5 -78v-936l-346 -30l-21 129h-18q-74 -135 -287 -135q-188 0 -257 95t-69 328v723h385v-698q0 -92 24 -130t87 -38q61 0 90 37t29 131v698h291q88 0 122.5 29t34.5 98v217z" glyph-name="uhorn" horiz-adv-x="1214" unicode="ư"/><glyph d="M1694 1595l-264 408h249l187 -225l184 225h252l-266 -408h-342zM709 1434q311 0 437 -179.5t126 -537.5q0 -268 -69.5 -430t-189.5 -224.5t-304 -62.5h-564v1434h564zM1450 1434h881v-353l-547 -739v-37h534v-305h-934v356l547 734v38h-481v306zM670 303q111 0 150.5 87 t39.5 326.5t-40 326.5t-150 87h-123v-827h123z" glyph-name="uni01C4" horiz-adv-x="2390" unicode="Ǆ"/><glyph d="M1632 1288l-264 408h250l186 -226l185 226h252l-267 -408h-342zM709 1434q311 0 437 -179.5t126 -537.5q0 -268 -69.5 -430t-189.5 -224.5t-304 -62.5h-564v1434h564zM670 303q111 0 150.5 87t39.5 326.5t-40 326.5t-150 87h-123v-827h123zM1767 295v-33h455v-262h-838 v309l435 531v24h-400v262h779v-309z" glyph-name="uni01C5" horiz-adv-x="2263" unicode="ǅ"/><glyph d="M1511 1288l-264 408h250l186 -226l185 226h252l-267 -408h-342zM702 1061v475h383v-1520l-344 -30l-20 129h-14q-61 -135 -240 -135q-225 0 -313 146t-88 427q0 332 105 463t308 131q143 0 209 -86h14zM1647 295v-33h454v-262h-837v309l434 531v24h-400v262h779v-309z M459 561q0 -178 25.5 -239.5t99.5 -61.5q68 0 93 41t25 154v217q0 115 -24.5 154.5t-91.5 39.5q-76 0 -101.5 -61.5t-25.5 -243.5z" glyph-name="uni01C6" horiz-adv-x="2142" unicode="ǆ"/><glyph d="M547 1434v-1129h340v-305h-742v1434h402zM1145 1434h401v-1092q0 -205 -88 -283.5t-276 -78.5q-125 0 -236 22l29 311q41 -10 82 -10q53 0 70.5 25.5t17.5 103.5v1002z" glyph-name="uni01C7" horiz-adv-x="1679" unicode="Ǉ"/><glyph d="M999 1569h410v-307h-410v307zM887 305v-305h-742v1434h402v-1129h340zM1014 47v1079h383v-1153q0 -207 -86 -284.5t-269 -77.5q-145 0 -241 22l22 256q35 -8 92 -8q59 0 79 33t20 133z" glyph-name="uni01C8" horiz-adv-x="1511" unicode="ǈ"/><glyph d="M743 1262v307h410v-307h-410zM424 -20q-180 0 -247.5 79.5t-67.5 247.5v1229h383v-1151q0 -76 14 -100.5t59 -24.5q43 0 68 8l22 -268q-106 -20 -231 -20zM786 -389q-145 0 -241 22l22 256q35 -8 92 -8q59 0 79 33t20 133v1079h383v-1153q0 -207 -86.5 -284.5 t-268.5 -77.5z" glyph-name="uni01C9" horiz-adv-x="1255" unicode="ǉ"/><glyph d="M932 500v934h352v-1434h-536l-230 940h-22v-940h-351v1434h541l223 -934h23zM1642 1434h402v-1092q0 -205 -88 -283.5t-277 -78.5q-125 0 -235 22l29 311q41 -10 81 -10q53 0 70.5 25.5t17.5 103.5v1002z" glyph-name="uni01CA" horiz-adv-x="2177" unicode="Ǌ"/><glyph d="M1534 1569h410v-307h-410v307zM932 500v934h352v-1434h-536l-230 940h-22v-940h-351v1434h541l223 -934h23zM1548 47v1079h383v-1153q0 -207 -86 -284.5t-268 -77.5q-145 0 -242 22l23 256q35 -8 92 -8q59 0 78.5 33t19.5 133z" glyph-name="uni01CB" horiz-adv-x="2045" unicode="ǋ"/><glyph d="M1409 1569h410v-307h-410v307zM797 1147q197 0 267.5 -95.5t70.5 -328.5v-723h-383v698q0 92 -26 130t-97 38q-68 0 -99.5 -36.5t-31.5 -131.5v-698h-383v1110l344 31l20 -129h21q76 135 297 135zM1423 47v1079h383v-1153q0 -207 -86 -284.5t-268 -77.5q-145 0 -242 22 l23 256q35 -8 92 -8q59 0 78.5 33t19.5 133z" glyph-name="uni01CC" horiz-adv-x="1921" unicode="ǌ"/><glyph d="M494 1595l-265 408h250l187 -225l184 225h252l-266 -408h-342zM926 0l-62 317h-383l-61 -317h-408l361 1434h598l362 -1434h-407zM541 625h262l-98 503h-66z" glyph-name="uni01CD" horiz-adv-x="1341" unicode="Ǎ"/><glyph d="M387 1288l-264 408h250l186 -226l184 226h252l-266 -408h-342zM655 1147q199 0 278 -94.5t79 -288.5v-748l-344 -30l-21 129h-16q-70 -135 -262 -135q-324 0 -324 327q0 182 97.5 260t283.5 78h203v57q0 80 -31 112t-88 32q-90 0 -311 -53l-54 278q322 76 510 76z M512 213q117 0 117 205v61h-101q-51 0 -81.5 -33.5t-30.5 -99.5q0 -133 96 -133z" glyph-name="uni01CE" horiz-adv-x="1110" unicode="ǎ"/><glyph d="M172 1595l-264 408h250l186 -225l184 225h252l-266 -408h-342zM145 0v1434h402v-1434h-402z" glyph-name="uni01CF" horiz-adv-x="688" unicode="Ǐ"/><glyph d="M131 1288l-264 408h250l186 -226l184 226h252l-266 -408h-342zM113 0v1126h383v-1126h-383z" glyph-name="uni01D0" horiz-adv-x="606" unicode="ǐ"/><glyph d="M530 1595l-264 408h250l186 -225l185 225h252l-267 -408h-342zM709 1454q180 0 302 -47t189.5 -146.5t94 -228.5t26.5 -315q0 -217 -39 -363.5t-122 -227.5t-189.5 -113.5t-261.5 -32.5q-180 0 -303 47t-191 146t-95.5 228t-27.5 316q0 217 39 363.5t122 227.5 t191.5 113.5t264.5 32.5zM709 303q117 0 158.5 84t41.5 330t-41 329.5t-159 83.5q-121 0 -163 -83.5t-42 -329.5t42 -330t163 -84z" glyph-name="uni01D1" horiz-adv-x="1409" unicode="Ǒ"/><glyph d="M418 1288l-264 408h249l187 -226l184 226h252l-266 -408h-342zM592 1147q297 0 410.5 -146.5t113.5 -437.5q0 -330 -132 -456.5t-392 -126.5q-299 0 -412.5 146t-113.5 437q0 170 35.5 287t108.5 180.5t164 90t218 26.5zM592 260q78 0 103.5 60.5t25.5 242.5t-25.5 242.5 t-103.5 60.5q-80 0 -106.5 -60.5t-26.5 -242.5t26.5 -242.5t106.5 -60.5z" glyph-name="uni01D2" horiz-adv-x="1179" unicode="ǒ"/><glyph d="M498 1595l-265 408h250l187 -225l184 225h252l-266 -408h-342zM823 1434h400v-908q0 -311 -134.5 -428.5t-408.5 -117.5q-319 0 -440 134t-121 412v908h399v-928q0 -121 32 -162t122 -41q88 0 119.5 41t31.5 162v928z" glyph-name="uni01D3" horiz-adv-x="1339" unicode="Ǔ"/><glyph d="M432 1288l-264 408h250l186 -226l184 226h252l-266 -408h-342zM717 1126h383v-1110l-346 -30l-21 129h-18q-74 -135 -287 -135q-188 0 -257 95t-69 328v723h385v-698q0 -92 24 -130t87 -38q61 0 90 37t29 131v698z" glyph-name="uni01D4" horiz-adv-x="1214" unicode="ǔ"/><glyph d="M358 2335h619v-254h-619v254zM281 1903h305v-273h-305v273zM756 1903h305v-273h-305v273zM680 -20q-319 0 -440 134t-121 412v908h399v-928q0 -121 32 -162t122 -41q88 0 119.5 41t31.5 162v928h400v-908q0 -311 -134.5 -428.5t-408.5 -117.5z" glyph-name="uni01D5" horiz-adv-x="1339" unicode="Ǖ"/><glyph d="M911 2028v-254h-618v254h618zM520 1595v-272h-305v272h305zM690 1323v272h305v-272h-305zM717 1126h383v-1110l-346 -30l-21 129h-18q-74 -135 -287 -135q-188 0 -257 95t-69 328v723h385v-698q0 -92 24 -130t87 -38q61 0 90 37t29 131v698z" glyph-name="uni01D6" horiz-adv-x="1214" unicode="ǖ"/><glyph d="M563 2038l172 407h328l-264 -407h-236zM281 1903h305v-273h-305v273zM756 1903h305v-273h-305v273zM680 -20q-319 0 -440 134t-121 412v908h399v-928q0 -121 32 -162t122 -41q88 0 119.5 41t31.5 162v928h400v-908q0 -311 -134.5 -428.5t-408.5 -117.5z" glyph-name="uni01D7" horiz-adv-x="1339" unicode="Ǘ"/><glyph d="M997 2138l-264 -407h-235l172 407h327zM520 1595v-272h-305v272h305zM690 1323v272h305v-272h-305zM717 1126h383v-1110l-346 -30l-21 129h-18q-74 -135 -287 -135q-188 0 -257 95t-69 328v723h385v-698q0 -92 24 -130t87 -38q61 0 90 37t29 131v698z" glyph-name="uni01D8" horiz-adv-x="1214" unicode="ǘ"/><glyph d="M498 2040l-265 407h250l187 -225l186 225h250l-264 -407h-344zM281 1630v273h305v-273h-305zM756 1630v273h305v-273h-305zM823 1434h400v-908q0 -311 -134.5 -428.5t-408.5 -117.5q-319 0 -440 134t-121 412v908h399v-928q0 -121 32 -162t122 -41q88 0 119.5 41 t31.5 162v928z" glyph-name="uni01D9" horiz-adv-x="1339" unicode="Ǚ"/><glyph d="M432 1733l-264 407h250l186 -225l187 225h249l-264 -407h-344zM215 1323v272h305v-272h-305zM690 1323v272h305v-272h-305zM717 1126h383v-1110l-346 -30l-21 129h-18q-74 -135 -287 -135q-188 0 -257 95t-69 328v723h385v-698q0 -92 24 -130t87 -38q61 0 90 37t29 131 v698z" glyph-name="uni01DA" horiz-adv-x="1214" unicode="ǚ"/><glyph d="M547 2038l-264 407h327l172 -407h-235zM281 1630v273h305v-273h-305zM756 1630v273h305v-273h-305zM680 -20q-319 0 -440 134t-121 412v908h399v-928q0 -121 32 -162t122 -41q88 0 119.5 41t31.5 162v928h400v-908q0 -311 -134.5 -428.5t-408.5 -117.5z" glyph-name="uni01DB" horiz-adv-x="1339" unicode="Ǜ"/><glyph d="M717 1731h-236l-264 407h328zM520 1595v-272h-305v272h305zM690 1323v272h305v-272h-305zM717 1126h383v-1110l-346 -30l-21 129h-18q-74 -135 -287 -135q-188 0 -257 95t-69 328v723h385v-698q0 -92 24 -130t87 -38q61 0 90 37t29 131v698z" glyph-name="uni01DC" horiz-adv-x="1214" unicode="ǜ"/><glyph d="M1356 1882v-254h-621v254h621zM1290 305h469v-305h-868v317h-354l-123 -317h-408l610 1434h1119v-306h-445v-231h406v-307h-406v-285zM655 625h236v503h-41z" glyph-name="uni01E2" horiz-adv-x="1837" unicode="Ǣ"/><glyph d="M512 1595l-264 408h250l186 -225l184 225h252l-266 -408h-342zM1206 856v-844l-311 -26l-23 135h-18q-94 -141 -301 -141q-135 0 -227.5 52t-142.5 156.5t-70.5 233.5t-20.5 309q0 221 40 364.5t126 221.5t196.5 107.5t274.5 29.5q238 0 375 -43l-29 -326 q-139 45 -336 45q-141 0 -189 -82.5t-48 -332.5q0 -246 39 -329t153 -83q78 0 119 44t41 161v57h-145v291h497z" glyph-name="Gcaron" horiz-adv-x="1304" unicode="Ǧ"/><glyph d="M399 1288l-264 408h250l186 -226l185 226h252l-267 -408h-342zM580 281q213 0 337.5 -43t168.5 -112t44 -175q0 -190 -142 -265t-421 -75q-158 0 -265 17.5t-165.5 53t-83 80.5t-24.5 109q0 168 174 209v24q-117 57 -117 166q0 94 109 187q-127 86 -127 295 q0 223 116.5 309t345.5 86q119 0 218 -21h358l16 -174l-145 -26q37 -57 37 -154q0 -223 -116 -308t-345 -85q-72 0 -133 6l-12 -10q-23 -23 -23 -47q0 -47 76 -47h119zM543 918q-70 0 -93.5 -33t-23.5 -123q0 -92 24.5 -123t92 -31t90 32t22.5 122q0 92 -23 124t-89 32z M569 -168q113 0 156 28.5t43 88.5q0 66 -45 89t-156 23h-80q-63 -10 -87.5 -40.5t-24.5 -88.5q0 -55 47 -77.5t147 -22.5z" glyph-name="gcaron" horiz-adv-x="1153" unicode="ǧ"/><glyph d="M508 1595l-264 408h250l186 -225l184 225h252l-266 -408h-342zM864 0l-254 590h-63v-590h-402v1434h402v-537h65l248 537h428l-377 -682l408 -752h-455z" glyph-name="uni01E8" horiz-adv-x="1325" unicode="Ǩ"/><glyph d="M297 1647l-264 407h250l186 -225l184 225h252l-266 -407h-342zM764 0l-201 498h-63v-498h-385v1536h385v-795h75l185 385h420l-316 -495l328 -631h-428z" glyph-name="uni01E9" horiz-adv-x="1196" unicode="ǩ"/><glyph d="M709 1434q311 0 437 -179.5t126 -537.5q0 -268 -69.5 -430t-189.5 -224.5t-304 -62.5h-564v1434h564zM1450 1434h881v-353l-547 -739v-37h534v-305h-934v356l547 734v38h-481v306zM670 303q111 0 150.5 87t39.5 326.5t-40 326.5t-150 87h-123v-827h123z" glyph-name="uni01F1" horiz-adv-x="2390" unicode="Ǳ"/><glyph d="M709 1434q311 0 437 -179.5t126 -537.5q0 -268 -69.5 -430t-189.5 -224.5t-304 -62.5h-564v1434h564zM670 303q111 0 150.5 87t39.5 326.5t-40 326.5t-150 87h-123v-827h123zM1767 262h455v-262h-838v309l435 531v24h-400v262h779v-309l-431 -522v-33z" glyph-name="uni01F2" horiz-adv-x="2263" unicode="ǲ"/><glyph d="M702 1061v475h383v-1520l-344 -30l-20 129h-14q-61 -135 -240 -135q-225 0 -313 146t-88 427q0 332 105 463t308 131q143 0 209 -86h14zM1647 262h454v-262h-837v309l434 531v24h-400v262h779v-309l-430 -522v-33zM459 561q0 -178 25.5 -239.5t99.5 -61.5q68 0 93 41 t25 154v217q0 115 -24.5 154.5t-91.5 39.5q-76 0 -101.5 -61.5t-25.5 -243.5z" glyph-name="uni01F3" horiz-adv-x="2142" unicode="ǳ"/><glyph d="M1071 2011l-264 -407h-236l172 407h328zM1206 856v-844l-311 -26l-23 135h-18q-94 -141 -301 -141q-135 0 -227.5 52t-142.5 156.5t-70.5 233.5t-20.5 309q0 221 40 364.5t126 221.5t196.5 107.5t274.5 29.5q238 0 375 -43l-29 -326q-139 45 -336 45q-141 0 -189 -82.5 t-48 -332.5q0 -246 39 -329t153 -83q78 0 119 44t41 161v57h-145v291h497z" glyph-name="uni01F4" horiz-adv-x="1304" unicode="Ǵ"/><glyph d="M958 1704l-264 -408h-235l172 408h327zM580 281q213 0 337.5 -43t168.5 -112t44 -175q0 -190 -142 -265t-421 -75q-158 0 -265 17.5t-165.5 53t-83 80.5t-24.5 109q0 168 174 209v24q-117 57 -117 166q0 94 109 187q-127 86 -127 295q0 223 116.5 309t345.5 86 q119 0 218 -21h358l16 -174l-145 -26q37 -57 37 -154q0 -223 -116 -308t-345 -85q-72 0 -133 6l-12 -10q-23 -23 -23 -47q0 -47 76 -47h119zM543 918q-70 0 -93.5 -33t-23.5 -123q0 -92 24.5 -123t92 -31t90 32t22.5 122q0 92 -23 124t-89 32zM569 -168q113 0 156 28.5 t43 88.5q0 66 -45 89t-156 23h-80q-63 -10 -87.5 -40.5t-24.5 -88.5q0 -55 47 -77.5t147 -22.5z" glyph-name="uni01F5" horiz-adv-x="1153" unicode="ǵ"/><glyph d="M1047 2527l-265 -407h-235l174 407h326zM668 1544q-156 0 -217.5 64.5t-61.5 189.5q0 141 70.5 196.5t208.5 55.5q156 0 216 -64.5t60 -187.5q0 -143 -70.5 -198.5t-205.5 -55.5zM668 1909q-59 0 -86 -23.5t-27 -87.5q0 -59 24.5 -87t88.5 -28q55 0 83.5 26t28.5 89 q0 57 -24.5 84t-87.5 27zM926 0l-62 317h-383l-61 -317h-408l361 1434h598l362 -1434h-407zM541 625h262l-98 503h-66z" glyph-name="Aringacute" horiz-adv-x="1341" unicode="Ǻ"/><glyph d="M940 2220l-264 -408h-236l174 408h326zM561 1237q-156 0 -217 64.5t-61 189.5q0 141 70.5 196.5t207.5 55.5q156 0 216.5 -64.5t60.5 -187.5q0 -143 -71 -198.5t-206 -55.5zM561 1602q-59 0 -85.5 -24t-26.5 -87q0 -59 24.5 -87t87.5 -28q55 0 84 25.5t29 89.5 q0 57 -25 84t-88 27zM655 1147q199 0 278 -94.5t79 -288.5v-748l-344 -30l-21 129h-16q-70 -135 -262 -135q-324 0 -324 327q0 182 97.5 260t283.5 78h203v57q0 80 -31 112t-88 32q-90 0 -311 -53l-54 278q322 76 510 76zM512 213q117 0 117 205v61h-101q-51 0 -81.5 -33.5 t-30.5 -99.5q0 -133 96 -133z" glyph-name="aringacute" horiz-adv-x="1110" unicode="ǻ"/><glyph d="M1432 2011l-265 -407h-235l172 407h328zM1290 305h469v-305h-868v317h-354l-123 -317h-408l610 1434h1119v-306h-445v-231h406v-307h-406v-285zM655 625h236v503h-41z" glyph-name="AEacute" horiz-adv-x="1837" unicode="Ǽ"/><glyph d="M1085 2011l-264 -407h-235l172 407h327zM1079 1370q133 -80 187.5 -239.5t54.5 -413.5q0 -217 -40 -363.5t-122 -227.5t-189.5 -113.5t-260.5 -32.5q-82 0 -160 10l-37 -92h-244l64 165q-131 82 -185.5 242t-54.5 412q0 217 39 363.5t122 227.5t191.5 113.5t264.5 32.5 q78 0 155 -10l35 92h244zM504 717q0 -121 8 -189l229 600q-10 2 -32 2q-121 0 -163 -83.5t-42 -329.5zM709 303q117 0 158.5 84t41.5 330q0 121 -8 192l-231 -604q12 -2 39 -2z" glyph-name="Oslashacute" horiz-adv-x="1409" unicode="Ǿ"/><glyph d="M1001 1704l-264 -408h-235l172 408h327zM911 1077q113 -68 159 -194.5t46 -319.5q0 -330 -132 -456.5t-392 -126.5q-37 0 -103 4l-43 -111h-245l69 178q-205 119 -204 512q0 170 35.5 287t108.5 180.5t164 90t218 26.5q37 0 98 -4l43 110h246zM592 260q78 0 104.5 61.5 t26.5 241.5t-26.5 241.5t-104.5 61.5q-80 0 -105.5 -60.5t-25.5 -242.5t25.5 -242.5t105.5 -60.5z" glyph-name="oslashacute" horiz-adv-x="1179" unicode="ǿ"/><glyph d="M541 1602h-226l-280 411h325zM985 1602h-225l-279 411h326zM926 0l-62 317h-383l-61 -317h-408l361 1434h598l362 -1434h-407zM541 625h262l-98 503h-66z" glyph-name="uni0200" horiz-adv-x="1341" unicode="Ȁ"/><glyph d="M434 1294h-225l-281 412h326zM879 1294h-226l-278 412h325zM655 1147q199 0 278 -94.5t79 -288.5v-748l-344 -30l-21 129h-16q-70 -135 -262 -135q-324 0 -324 327q0 182 97.5 260t283.5 78h203v57q0 80 -31 112t-88 32q-90 0 -311 -53l-54 278q322 76 510 76zM512 213 q117 0 117 205v61h-101q-51 0 -81.5 -33.5t-30.5 -99.5q0 -133 96 -133z" glyph-name="uni0201" horiz-adv-x="1110" unicode="ȁ"/><glyph d="M522 1593v-24h-211v39q0 160 79 241.5t280 81.5q174 0 264 -69.5t90 -253.5v-39h-213v24q0 76 -36 101.5t-107 25.5q-80 0 -113 -29.5t-33 -97.5zM926 0l-62 317h-383l-61 -317h-408l361 1434h598l362 -1434h-407zM541 625h262l-98 503h-66z" glyph-name="uni0202" horiz-adv-x="1341" unicode="Ȃ"/><glyph d="M416 1286v-24h-211v38q0 160 78.5 242t279.5 82q174 0 264.5 -69.5t90.5 -254.5v-38h-213v24q0 76 -36 101.5t-108 25.5q-80 0 -112.5 -29.5t-32.5 -97.5zM655 1147q199 0 278 -94.5t79 -288.5v-748l-344 -30l-21 129h-16q-70 -135 -262 -135q-324 0 -324 327 q0 182 97.5 260t283.5 78h203v57q0 80 -31 112t-88 32q-90 0 -311 -53l-54 278q322 76 510 76zM512 213q117 0 117 205v61h-101q-51 0 -81.5 -33.5t-30.5 -99.5q0 -133 96 -133z" glyph-name="uni0203" horiz-adv-x="1110" unicode="ȃ"/><glyph d="M438 1602h-225l-281 411h326zM883 1602h-226l-278 411h326zM545 305h469v-305h-871v1434h846v-306h-444v-231h405v-307h-405v-285z" glyph-name="uni0204" horiz-adv-x="1091" unicode="Ȅ"/><glyph d="M432 1294h-225l-281 412h326zM877 1294h-226l-278 412h325zM436 459q8 -113 43 -157t111 -44q131 0 366 49l45 -258q-246 -70 -426 -69q-512 0 -512 593q0 322 130.5 448t377.5 126q145 0 239.5 -37t144 -116t67.5 -179t18 -252q0 -51 -6 -104h-598zM575 897 q-74 0 -104.5 -46t-36.5 -177h258q-4 131 -30 177t-87 46z" glyph-name="uni0205" horiz-adv-x="1101" unicode="ȅ"/><glyph d="M420 1593v-24h-211v39q0 160 79 241.5t279 81.5q174 0 264.5 -69.5t90.5 -253.5v-39h-213v24q0 76 -36 101.5t-108 25.5q-80 0 -112.5 -29.5t-32.5 -97.5zM545 305h469v-305h-871v1434h846v-306h-444v-231h405v-307h-405v-285z" glyph-name="uni0206" horiz-adv-x="1091" unicode="Ȇ"/><glyph d="M414 1286v-24h-211v38q0 160 78.5 242t279.5 82q174 0 264 -69.5t90 -254.5v-38h-213v24q0 76 -35.5 101.5t-107.5 25.5q-80 0 -112.5 -29.5t-32.5 -97.5zM436 459q8 -113 43 -157t111 -44q131 0 366 49l45 -258q-246 -70 -426 -69q-512 0 -512 593q0 322 130.5 448 t377.5 126q145 0 239.5 -37t144 -116t67.5 -179t18 -252q0 -51 -6 -104h-598zM575 897q-74 0 -104.5 -46t-36.5 -177h258q-4 131 -30 177t-87 46z" glyph-name="uni0207" horiz-adv-x="1101" unicode="ȇ"/><glyph d="M-6 1602l-281 411h326l180 -411h-225zM438 1602l-278 411h325l179 -411h-226zM547 1434v-1434h-402v1434h402z" glyph-name="uni0208" horiz-adv-x="688" unicode="Ȉ"/><glyph d="M-47 1294l-281 412h326l180 -412h-225zM397 1294l-278 412h325l179 -412h-226zM496 1126v-1126h-383v1126h383z" glyph-name="uni0209" horiz-adv-x="606" unicode="ȉ"/><glyph d="M-10 1569v39q0 160 78.5 241.5t279.5 81.5q174 0 264 -69.5t90 -253.5v-39h-213v24q0 76 -35.5 101.5t-107.5 25.5q-80 0 -112.5 -29.5t-32.5 -97.5v-24h-211zM547 1434v-1434h-402v1434h402z" glyph-name="uni020A" horiz-adv-x="688" unicode="Ȋ"/><glyph d="M-51 1262v38q0 160 78.5 242t279.5 82q174 0 264.5 -69.5t90.5 -254.5v-38h-213v24q0 76 -36 101.5t-108 25.5q-80 0 -112.5 -29.5t-32.5 -97.5v-24h-211zM496 1126v-1126h-383v1126h383z" glyph-name="uni020B" horiz-adv-x="606" unicode="ȋ"/><glyph d="M352 1602l-280 411h325l181 -411h-226zM797 1602l-279 411h326l178 -411h-225zM709 -20q-180 0 -303 47t-191 146t-95.5 228t-27.5 316q0 217 39 363.5t122 227.5t191.5 113.5t264.5 32.5q180 0 302 -47t189.5 -146.5t94 -228.5t26.5 -315q0 -217 -39 -363.5t-122 -227.5 t-189 -113.5t-262 -32.5zM709 303q117 0 158.5 84t41.5 330t-41 329.5t-159 83.5q-121 0 -163 -83.5t-42 -329.5t42 -330t163 -84z" glyph-name="uni020C" horiz-adv-x="1409" unicode="Ȍ"/><glyph d="M240 1294l-281 412h326l180 -412h-225zM684 1294l-278 412h325l178 -412h-225zM592 -20q-299 0 -412.5 146t-113.5 437q0 170 35.5 287t108.5 180.5t164 90t218 26.5q297 0 410.5 -146.5t113.5 -437.5q0 -330 -132 -456.5t-392 -126.5zM592 260q78 0 103.5 60.5 t25.5 242.5t-25.5 242.5t-103.5 60.5q-80 0 -106.5 -60.5t-26.5 -242.5t26.5 -242.5t106.5 -60.5z" glyph-name="uni020D" horiz-adv-x="1179" unicode="ȍ"/><glyph d="M348 1569v39q0 160 79 241.5t280 81.5q174 0 264 -69.5t90 -253.5v-39h-213v24q0 76 -36 101.5t-107 25.5q-80 0 -113 -29.5t-33 -97.5v-24h-211zM709 -20q-180 0 -303 47t-191 146t-95.5 228t-27.5 316q0 217 39 363.5t122 227.5t191.5 113.5t264.5 32.5q180 0 302 -47 t189.5 -146.5t94 -228.5t26.5 -315q0 -217 -39 -363.5t-122 -227.5t-189 -113.5t-262 -32.5zM709 303q117 0 158.5 84t41.5 330t-41 329.5t-159 83.5q-121 0 -163 -83.5t-42 -329.5t42 -330t163 -84z" glyph-name="uni020E" horiz-adv-x="1409" unicode="Ȏ"/><glyph d="M236 1262v38q0 160 78.5 242t279.5 82q174 0 264 -69.5t90 -254.5v-38h-213v24q0 76 -35.5 101.5t-107.5 25.5q-80 0 -113 -29.5t-33 -97.5v-24h-210zM592 -20q-299 0 -412.5 146t-113.5 437q0 170 35.5 287t108.5 180.5t164 90t218 26.5q297 0 410.5 -146.5 t113.5 -437.5q0 -330 -132 -456.5t-392 -126.5zM592 260q78 0 103.5 60.5t25.5 242.5t-25.5 242.5t-103.5 60.5q-80 0 -106.5 -60.5t-26.5 -242.5t26.5 -242.5t106.5 -60.5z" glyph-name="uni020F" horiz-adv-x="1179" unicode="ȏ"/><glyph d="M524 1602h-225l-281 411h326zM969 1602h-226l-278 411h326zM1294 0h-426l-219 522h-4h-98v-522h-402v1434h465q326 0 445 -102.5t119 -340.5q0 -258 -191 -383zM547 1157v-385h55q106 0 143 40t37 153q0 115 -36.5 153.5t-143.5 38.5h-55z" glyph-name="uni0210" horiz-adv-x="1302" unicode="Ȑ"/><glyph d="M109 1706l180 -412h-226l-280 412h326zM733 1294h-225l-279 412h326zM788 1147q33 0 43 -2l-30 -336q-51 25 -139 25q-94 0 -128 -51.5t-34 -198.5v-584h-385v1110l348 31l24 -154h19q71 160 282 160z" glyph-name="uni0211" horiz-adv-x="837" unicode="ȑ"/><glyph d="M506 1593v-24h-211v39q0 160 79 241.5t279 81.5q174 0 264.5 -69.5t90.5 -253.5v-39h-213v24q0 76 -36 101.5t-108 25.5q-80 0 -112.5 -29.5t-32.5 -97.5zM1294 0h-426l-219 522h-4h-98v-522h-402v1434h465q326 0 445 -102.5t119 -340.5q0 -258 -191 -383zM547 1157v-385 h55q106 0 143 40t37 153q0 115 -36.5 153.5t-143.5 38.5h-55z" glyph-name="uni0212" horiz-adv-x="1302" unicode="Ȓ"/><glyph d="M270 1286v-24h-211v38q0 160 79 242t280 82q174 0 264 -69.5t90 -254.5v-38h-213v24q0 76 -36 101.5t-107 25.5q-80 0 -113 -29.5t-33 -97.5zM788 1147q33 0 43 -2l-30 -336q-51 25 -139 25q-94 0 -128 -51.5t-34 -198.5v-584h-385v1110l348 31l24 -154h19 q71 160 282 160z" glyph-name="uni0213" horiz-adv-x="837" unicode="ȓ"/><glyph d="M319 1602l-280 411h326l180 -411h-226zM764 1602l-279 411h326l178 -411h-225zM680 -20q-319 0 -440 134t-121 412v908h399v-928q0 -121 32 -162t122 -41q88 0 119.5 41t31.5 162v928h400v-908q0 -311 -134.5 -428.5t-408.5 -117.5z" glyph-name="uni0214" horiz-adv-x="1339" unicode="Ȕ"/><glyph d="M479 1294h-225l-281 412h326zM924 1294h-226l-278 412h325zM717 1126h383v-1110l-346 -30l-21 129h-18q-74 -135 -287 -135q-188 0 -257 95t-69 328v723h385v-698q0 -92 24 -130t87 -38q61 0 90 37t29 131v698z" glyph-name="uni0215" horiz-adv-x="1214" unicode="ȕ"/><glyph d="M315 1569v39q0 160 79 241.5t280 81.5q174 0 264 -69.5t90 -253.5v-39h-213v24q0 76 -36 101.5t-107 25.5q-80 0 -113 -29.5t-33 -97.5v-24h-211zM680 -20q-319 0 -440 134t-121 412v908h399v-928q0 -121 32 -162t122 -41q88 0 119.5 41t31.5 162v928h400v-908 q0 -311 -134.5 -428.5t-408.5 -117.5z" glyph-name="uni0216" horiz-adv-x="1339" unicode="Ȗ"/><glyph d="M461 1286v-24h-211v38q0 160 79 242t279 82q174 0 264.5 -69.5t90.5 -254.5v-38h-213v24q0 76 -36 101.5t-108 25.5q-80 0 -112.5 -29.5t-32.5 -97.5zM717 1126h383v-1110l-346 -30l-21 129h-18q-74 -135 -287 -135q-188 0 -257 95t-69 328v723h385v-698q0 -92 24 -130 t87 -38q61 0 90 37t29 131v698z" glyph-name="uni0217" horiz-adv-x="1214" unicode="ȗ"/><glyph d="M739 754q190 -172 191 -357q0 -229 -129 -323t-375 -94q-158 0 -385 40l29 306q250 -35 311 -35q76 0 106.5 26.5t30.5 81.5q0 72 -53 119l-227 197q-172 154 -172 348q0 219 126.5 305t372.5 86q127 0 336 -33l-27 -299q-119 20 -256 21q-82 0 -112.5 -21.5t-30.5 -79.5 q0 -61 47 -102zM324 -416v273h305v-273l-115 -319h-160l113 319h-143z" glyph-name="Scommaaccent" horiz-adv-x="980" unicode="Ș"/><glyph d="M674 612q86 -61 126 -124.5t40 -163.5q0 -188 -108.5 -266t-313.5 -78q-172 0 -363 34l23 271q139 -25 239 -25q63 0 85 15.5t22 60.5q0 43 -41 70l-203 143q-123 82 -123 268q0 184 99.5 257t287.5 73q135 0 361 -37l-23 -272q-154 29 -239 28q-43 0 -59.5 -14 t-16.5 -51q0 -39 33 -64zM295 -416v273h305v-273l-115 -319h-159l112 319h-143z" glyph-name="scommaaccent" horiz-adv-x="876" unicode="ș"/><glyph d="M993 1434v-306h-284v-1128h-400v1128h-289v306h973zM354 -416v273h305v-273l-114 -319h-160l113 319h-144z" glyph-name="uni021A" horiz-adv-x="1013" unicode="Ț"/><glyph d="M725 881h-178v-500q0 -74 13 -97.5t58 -23.5q41 0 64 8l23 -270q-90 -18 -224 -18q-182 0 -249.5 79.5t-67.5 247.5v574h-150v245h150v273h383v-273h178v-245zM256 -416v273h305v-273l-115 -319h-159l112 319h-143z" glyph-name="uni021B" horiz-adv-x="780" unicode="ț"/><glyph d="M543 1595l-264 408h249l187 -225l184 225h252l-266 -408h-342zM889 1434h401v-1434h-401v590h-342v-590h-402v1434h402v-537h342v537z" glyph-name="uni021E" horiz-adv-x="1433" unicode="Ȟ"/><glyph d="M297 1647l-264 407h250l186 -225l184 225h252l-266 -407h-342zM797 1147q197 0 267.5 -95.5t70.5 -328.5v-723h-383v698q0 92 -26 130t-97 38q-66 0 -97.5 -36.5t-31.5 -131.5v-698h-385v1536h385v-496h18q80 107 279 107z" glyph-name="uni021F" horiz-adv-x="1234" unicode="ȟ"/><glyph d="M942 1882v-254h-620v254h620zM1264 1434l-437 -961v-473h-399v494l-424 940h412l202 -594h27l211 594h408z" glyph-name="uni0232" horiz-adv-x="1267" unicode="Ȳ"/><glyph d="M860 1575v-254h-620v254h620zM692 1126h402l-277 -1144q-49 -207 -167 -289t-304 -82q-102 0 -244 29l23 258q127 -18 209 -19q92 0 133 31t57 131l4 25h-272l-250 1060h402l118 -796h43z" glyph-name="uni0233" horiz-adv-x="1097" unicode="ȳ"/><glyph d="M115 -389q-145 0 -242 22l23 256q35 -8 92 -8q59 0 78.5 33t19.5 133v1079h383v-1153q0 -207 -86 -284.5t-268 -77.5z" glyph-name="uni0237" horiz-adv-x="583" unicode="ȷ"/><glyph d="M901 1288h-252l-184 225l-186 -225h-250l264 408h342z" glyph-name="circumflex" horiz-adv-x="927" unicode="ˆ"/><glyph d="M649 1696h252l-266 -408h-342l-264 408h250l186 -226z" glyph-name="caron" horiz-adv-x="927" unicode="ˇ"/><glyph d="M428 1262q-201 0 -279.5 81.5t-78.5 241.5v39h211v-25q0 -66 32.5 -95t112.5 -29q74 0 108.5 24.5t34.5 99.5v25h213v-39q0 -182 -90 -252.5t-264 -70.5z" glyph-name="breve" horiz-adv-x="849" unicode="˘"/><glyph d="M115 1595h305v-274h-305v274z" glyph-name="dotaccent" horiz-adv-x="534" unicode="˙"/><glyph d="M354 1237q-156 0 -217 64.5t-61 189.5q0 141 70.5 196.5t207.5 55.5q156 0 216.5 -64.5t60.5 -187.5q0 -143 -71 -198.5t-206 -55.5zM354 1376q55 0 84 25.5t29 89.5q0 57 -24.5 84t-88.5 27q-59 0 -85.5 -24t-26.5 -87q0 -59 24.5 -87t87.5 -28z" glyph-name="ring" horiz-adv-x="704" unicode="˚"/><glyph d="M524 -481q-39 -6 -108 -6q-354 0 -355 264q0 137 148 256l205 -29q-100 -74 -101 -160q0 -66 50.5 -98.5t125.5 -32.5z" glyph-name="ogonek" horiz-adv-x="561" unicode="˛"/><glyph d="M586 1276q-84 0 -148 49l-78 57q-27 18 -57 19q-61 0 -76 -101h-157q0 141 65.5 229.5t171.5 88.5q76 0 152 -51l76 -54q33 -23 59 -22q53 0 72 102h155q0 -150 -63 -233.5t-172 -83.5z" glyph-name="tilde" horiz-adv-x="886" unicode="˜"/><glyph d="M43 1294l180 412h326l-279 -412h-227zM489 1294l179 412h325l-278 -412h-226z" glyph-name="hungarumlaut" horiz-adv-x="1030" unicode="˝"/><glyph d="M-281 1296l-262 408h326l172 -408h-236z" glyph-name="gravecomb" unicode="̀"/><glyph d="M-539 1296l172 408h328l-264 -408h-236z" glyph-name="acutecomb" unicode="́"/><glyph d="M-29 1288h-252l-184 225l-186 -225h-250l264 408h342z" glyph-name="uni0302" unicode="̂"/><glyph d="M-307 1276q-84 0 -148 49l-77 57q-27 18 -58 19q-61 0 -76 -101h-157q0 141 65.5 229.5t171.5 88.5q74 0 152 -51l76 -54q33 -23 59 -22q53 0 72 102h155q0 -150 -63 -233.5t-172 -83.5z" glyph-name="tildecomb" unicode="̃"/><glyph d="M-737 1575h620v-254h-620v254z" glyph-name="uni0304" unicode="̄"/><glyph d="M-424 1262q-201 0 -279.5 81.5t-78.5 241.5v39h211v-25q0 -66 32.5 -95t112.5 -29q74 0 108.5 24.5t34.5 99.5v25h213v-39q0 -182 -90 -252.5t-264 -70.5z" glyph-name="uni0306" unicode="̆"/><glyph d="M-422 1595h305v-274h-305v274z" glyph-name="uni0307" unicode="̇"/><glyph d="M-895 1595h305v-272h-305v272zM-420 1595h305v-272h-305v272z" glyph-name="uni0308" unicode="̈"/><glyph d="M-399 1278q0 82 10 117t43 59l39 29q41 31 41 57q0 23 -14.5 30t-59.5 7q-49 0 -109 -6l-14 147q104 14 184 15q129 0 176.5 -37t47.5 -125q0 -84 -60 -131l-73 -64q-45 -35 -45 -98h-166z" glyph-name="hookabovecomb" unicode="̉"/><glyph d="M-352 1237q-156 0 -217.5 64.5t-61.5 189.5q0 141 71 196.5t208 55.5q156 0 216 -64.5t60 -187.5q0 -143 -70.5 -198.5t-205.5 -55.5zM-352 1376q55 0 83.5 25.5t28.5 89.5q0 57 -24.5 84t-87.5 27q-59 0 -86 -24t-27 -87q0 -59 25 -87t88 -28z" glyph-name="uni030A" unicode="̊"/><glyph d="M-989 1294l180 412h326l-279 -412h-227zM-543 1294l178 412h326l-278 -412h-226z" glyph-name="uni030B" unicode="̋"/><glyph d="M-281 1696h252l-266 -408h-342l-264 408h250l186 -226z" glyph-name="uni030C" unicode="̌"/><glyph d="M-707 1294l-280 412h325l181 -412h-226zM-262 1294l-279 412h326l178 -412h-225z" glyph-name="uni030F" unicode="̏"/><glyph d="M-780 1262v38q0 160 78.5 242t279.5 82q174 0 264 -69.5t90 -254.5v-38h-213v24q0 76 -35.5 101.5t-107.5 25.5q-80 0 -112.5 -29.5t-32.5 -97.5v-24h-211z" glyph-name="uni0311" unicode="̑"/><glyph d="M-281 1595h144v-274h-305v274l114 320h160z" glyph-name="uni0312" unicode="̒"/><glyph d="M-438 1165v178q88 0 122.5 29t34.5 98v218h211v-218q0 -178 -84.5 -241.5t-283.5 -63.5z" glyph-name="uni031B" unicode="̛"/><glyph d="M-420 -143h305v-273h-305v273z" glyph-name="dotbelowcomb" unicode="̣"/><glyph d="M-446 -143h305v-273l-115 -319h-160l113 319h-143v273z" glyph-name="uni0326" unicode="̦"/><glyph d="M-258 -92q215 -12 215 -193q0 -115 -70.5 -169t-181.5 -54q-90 0 -215 39l12 133q55 -23 113 -22q84 0 84 75q0 59 -68 60h-96l57 295h197z" glyph-name="uni0327" unicode="̧"/><glyph d="M-39 -481q-39 -6 -108 -6q-354 0 -355 264q0 137 148 256l204 -29q-100 -74 -100 -160q0 -66 50 -98.5t126 -32.5z" glyph-name="uni0328" unicode="̨"/><glyph d="M-868 705h764v-259h-764v259z" glyph-name="uni0335" unicode="̵"/><glyph d="M-1137 772h1020v-274h-1020v274z" glyph-name="uni0336" unicode="̶"/><glyph d="M-731 -102l495 1331h259l-498 -1331h-256z" glyph-name="uni0337" unicode="̷"/><glyph d="M-846 -102l610 1638h259l-613 -1638h-256z" glyph-name="uni0338" unicode="̸"/><glyph d="M807 1903v-275h-305v275h305zM1010 743q115 -35 164 -115.5t49 -226.5q0 -227 -130 -314t-391 -87h-557v1434h523q293 0 406.5 -83t113.5 -259q0 -252 -178 -332v-17zM612 1161h-65v-313h65q113 0 150 31.5t37 128.5q0 92 -37 122.5t-150 30.5zM625 285q113 0 153.5 35.5 t40.5 123.5q0 98 -43 134t-151 36h-78v-329h78z" glyph-name="uni1E02" horiz-adv-x="1306" unicode="Ḃ"/><glyph d="M913 1595v-274h-305v274h305zM721 1147q133 0 220 -49t141.5 -183.5t54.5 -361.5q0 -135 -18.5 -234.5t-62.5 -179.5t-125 -119.5t-198 -39.5q-176 0 -237 135h-15l-22 -129l-344 30v1520h385v-475h12q66 86 209 86zM616 260q74 0 99.5 61.5t25.5 239.5 q0 182 -25.5 243.5t-101.5 61.5q-66 0 -90 -40t-24 -154v-217q0 -115 24 -155t92 -40z" glyph-name="uni1E03" horiz-adv-x="1200" unicode="ḃ"/><glyph d="M711 1903v-275h-305v275h305zM963 1128h-418v-272h381v-307h-381v-549h-402v1434h820v-306z" glyph-name="uni1E1E" horiz-adv-x="1026" unicode="Ḟ"/><glyph d="M655 1903v-275h-305v275h305zM678 1282q-66 0 -91.5 -31.5t-27.5 -124.5h199v-245h-199v-881h-383v881h-164v245h164v27q0 221 96.5 308t296.5 87q139 0 236 -20l-25 -258q-47 12 -102 12z" glyph-name="uni1E1F" horiz-adv-x="780" unicode="ḟ"/><glyph d="M1016 1903v-275h-305v275h305zM1579 1434v-1434h-365v954h-8l-180 -620l-6 4v-4h-313v6l-9 -6l-180 620h-8v-954h-365v1434h498l215 -707h8l215 707h498z" glyph-name="uni1E40" horiz-adv-x="1720" unicode="Ṁ"/><glyph d="M1059 1595v-274h-305v274h305zM1386 1147q186 0 254 -95.5t68 -328.5v-723h-383v698q0 92 -22.5 130t-85.5 38q-59 0 -87 -36.5t-28 -131.5v-698h-383v698q0 92 -22.5 130t-84.5 38q-57 0 -84.5 -36.5t-27.5 -131.5v-698h-385v1110l346 31l22 -131h15q74 137 284 137 q219 0 281 -146h18q80 146 305 146z" glyph-name="uni1E41" horiz-adv-x="1810" unicode="ṁ"/><glyph d="M778 1903v-275h-305v275h305zM641 1434q162 0 271.5 -31t169 -93.5t84 -141t24.5 -191.5q0 -156 -37 -260.5t-113.5 -159.5t-171 -77.5t-227.5 -22.5h-94v-457h-402v1434h496zM608 735q109 0 148 50.5t39 172.5q0 115 -40 156t-147 41h-61v-420h61z" glyph-name="uni1E56" horiz-adv-x="1243" unicode="Ṗ"/><glyph d="M754 1595v-274h-305v274h305zM733 1147q229 0 316.5 -145.5t87.5 -428.5q0 -227 -54.5 -361t-141.5 -183t-220 -49q-139 0 -203 79h-18v-428h-385v1479l344 31l20 -119h23q59 125 231 125zM614 260q76 0 101.5 61.5t25.5 243.5q0 178 -25.5 239.5t-99.5 61.5 q-68 0 -92 -40t-24 -154v-217q0 -115 24 -155t90 -40z" glyph-name="uni1E57" horiz-adv-x="1200" unicode="ṗ"/><glyph d="M332 1903h305v-275h-305v275zM426 -20q-158 0 -385 40l29 306q250 -35 311 -35q76 0 106.5 26.5t30.5 81.5q0 72 -53 119l-227 197q-172 154 -172 348q0 219 126.5 305t372.5 86q127 0 336 -33l-27 -299q-119 20 -256 21q-82 0 -112.5 -21.5t-30.5 -79.5q0 -61 47 -102 l217 -186q190 -172 191 -357q0 -229 -129 -323t-375 -94z" glyph-name="uni1E60" horiz-adv-x="980" unicode="Ṡ"/><glyph d="M291 1595h305v-274h-305v274zM418 -20q-172 0 -363 34l23 271q139 -25 239 -25q63 0 85 15.5t22 60.5q0 43 -41 70l-203 143q-123 82 -123 268q0 184 99.5 257t287.5 73q135 0 361 -37l-23 -272q-154 29 -239 28q-43 0 -59.5 -14t-16.5 -51q0 -39 33 -64l174 -125 q86 -61 126 -124.5t40 -163.5q0 -188 -108.5 -266t-313.5 -78z" glyph-name="uni1E61" horiz-adv-x="876" unicode="ṡ"/><glyph d="M659 1903v-275h-305v275h305zM993 1434v-306h-284v-1128h-400v1128h-289v306h973z" glyph-name="uni1E6A" horiz-adv-x="1013" unicode="Ṫ"/><glyph d="M508 1757v-274h-305v274h305zM725 881h-178v-500q0 -74 13 -97.5t58 -23.5q41 0 64 8l23 -270q-90 -18 -224 -18q-182 0 -249.5 79.5t-67.5 247.5v574h-150v245h150v273h383v-273h178v-245z" glyph-name="uni1E6B" horiz-adv-x="780" unicode="ṫ"/><glyph d="M1049 1604h-236l-262 407h326zM1454 1434h408l-224 -1434h-528l-154 1128h-30l-152 -1128h-530l-224 1434h408l113 -1129h34l138 1129h458l136 -1129h34z" glyph-name="Wgrave" horiz-adv-x="1882" unicode="Ẁ"/><glyph d="M1030 1296h-235l-263 408h326zM1430 1126h403l-211 -1126h-551l-135 860h-33l-135 -860h-549l-211 1126h402l90 -860h39l133 860h495l136 -860h36z" glyph-name="wgrave" horiz-adv-x="1839" unicode="ẁ"/><glyph d="M1327 2011l-264 -407h-236l172 407h328zM1454 1434h408l-224 -1434h-528l-154 1128h-30l-152 -1128h-530l-224 1434h408l113 -1129h34l138 1129h458l136 -1129h34z" glyph-name="Wacute" horiz-adv-x="1882" unicode="Ẃ"/><glyph d="M1309 1704l-265 -408h-235l172 408h328zM1430 1126h403l-211 -1126h-551l-135 860h-33l-135 -860h-549l-211 1126h402l90 -860h39l133 860h495l136 -860h36z" glyph-name="wacute" horiz-adv-x="1839" unicode="ẃ"/><glyph d="M856 1903v-273h-305v273h305zM1331 1903v-273h-305v273h305zM1454 1434h408l-224 -1434h-528l-154 1128h-30l-152 -1128h-530l-224 1434h408l113 -1129h34l138 1129h458l136 -1129h34z" glyph-name="Wdieresis" horiz-adv-x="1882" unicode="Ẅ"/><glyph d="M838 1595v-272h-306v272h306zM1313 1595v-272h-305v272h305zM1430 1126h403l-211 -1126h-551l-135 860h-33l-135 -860h-549l-211 1126h402l90 -860h39l133 860h495l136 -860h36z" glyph-name="wdieresis" horiz-adv-x="1839" unicode="ẅ"/><glyph d="M1206 758q106 -94 149.5 -176t43.5 -185q0 -227 -124 -322t-347 -95q-135 0 -230 18l27 309q80 -16 147 -16q131 0 132 106q0 78 -62 119l-194 141v199l155 258q-49 25 -141 25q-86 0 -122 -28t-36 -101v-1010h-399v1053q0 223 126 312t437 89q287 0 485 -84v-283 l-131 -229v-33z" glyph-name="uni1E9E" horiz-adv-x="1449" unicode="ẞ"/><glyph d="M1333 0h-407l-62 317h-383l-61 -317h-408l361 1434h598zM541 625h262l-98 503h-66zM514 -416v273h305v-273h-305z" glyph-name="uni1EA0" horiz-adv-x="1341" unicode="Ạ"/><glyph d="M655 1147q199 0 278 -94.5t79 -288.5v-748l-344 -30l-21 129h-16q-70 -135 -262 -135q-324 0 -324 327q0 182 97.5 260t283.5 78h203v57q0 80 -31 112t-88 32q-90 0 -311 -53l-54 278q322 76 510 76zM512 213q117 0 117 205v61h-101q-51 0 -81.5 -33.5t-30.5 -99.5 q0 -133 96 -133zM410 -416v273h305v-273h-305z" glyph-name="uni1EA1" horiz-adv-x="1110" unicode="ạ"/><glyph d="M641 1905q-51 0 -109 -7l-14 148q104 14 184 14q129 0 176.5 -36.5t47.5 -125.5q0 -84 -60 -131l-73 -63q-45 -35 -45 -98h-166q0 82 10 116.5t43 59.5l39 28q41 31 41 58q0 23 -14.5 30t-59.5 7zM926 0l-62 317h-383l-61 -317h-408l361 1434h598l362 -1434h-407z M541 625h262l-98 503h-66z" glyph-name="uni1EA2" horiz-adv-x="1341" unicode="Ả"/><glyph d="M535 1597q-51 0 -109 -6l-14 148q104 14 184 14q129 0 176 -37t47 -125q0 -84 -59 -131l-74 -63q-45 -35 -45 -99h-166q0 82 10.5 117t42.5 60l39 28q41 31 41 58q0 23 -14 29.5t-59 6.5zM655 1147q199 0 278 -94.5t79 -288.5v-748l-344 -30l-21 129h-16 q-70 -135 -262 -135q-324 0 -324 327q0 182 97.5 260t283.5 78h203v57q0 80 -31 112t-88 32q-90 0 -311 -53l-54 278q322 76 510 76zM512 213q117 0 117 205v61h-101q-51 0 -81.5 -33.5t-30.5 -99.5q0 -133 96 -133z" glyph-name="uni1EA3" horiz-adv-x="1110" unicode="ả"/><glyph d="M1511 2251l-262 -408h-235l170 408h327zM670 1821l-187 -226h-250l265 408h342l266 -408h-252zM971 1434l362 -1434h-407l-62 317h-383l-61 -317h-408l361 1434h598zM541 625h262l-98 503h-66z" glyph-name="uni1EA4" horiz-adv-x="1341" unicode="Ấ"/><glyph d="M1077 1944h328l-262 -408h-236zM563 1513l-186 -225h-250l264 408h342l266 -408h-251zM655 1147q199 0 278 -94.5t79 -288.5v-748l-344 -30l-21 129h-16q-70 -135 -262 -135q-324 0 -324 327q0 182 97.5 260t283.5 78h203v57q0 80 -31 112t-88 32q-90 0 -311 -53l-54 278 q322 76 510 76zM512 213q117 0 117 205v61h-101q-51 0 -81.5 -33.5t-30.5 -99.5q0 -133 96 -133z" glyph-name="uni1EA5" horiz-adv-x="1110" unicode="ấ"/><glyph d="M1307 1843h-236l-262 408h328zM670 1821l-187 -226h-250l265 408h342l266 -408h-252zM926 0l-62 317h-383l-61 -317h-408l361 1434h598l362 -1434h-407zM541 625h262l-98 503h-66z" glyph-name="uni1EA6" horiz-adv-x="1341" unicode="Ầ"/><glyph d="M1200 1536h-235l-263 408h328zM563 1513l-186 -225h-250l264 408h342l266 -408h-251zM655 1147q199 0 278 -94.5t79 -288.5v-748l-344 -30l-21 129h-16q-70 -135 -262 -135q-324 0 -324 327q0 182 97.5 260t283.5 78h203v57q0 80 -31 112t-88 32q-90 0 -311 -53l-54 278 q322 76 510 76zM512 213q117 0 117 205v61h-101q-51 0 -81.5 -33.5t-30.5 -99.5q0 -133 96 -133z" glyph-name="uni1EA7" horiz-adv-x="1110" unicode="ầ"/><glyph d="M1075 2140q-31 0 -108 -4l-13 145q117 16 183 17q129 0 177 -38t48 -126q0 -80 -59 -129l-76 -63q-45 -37 -45 -99h-166q0 80 10 115t43 59l39 29q41 31 41 57q0 23 -14.5 30t-59.5 7zM670 1821l-187 -226h-250l265 408h342l266 -408h-252zM971 1434l362 -1434h-407 l-62 317h-383l-61 -317h-408l361 1434h598zM541 625h262l-98 503h-66z" glyph-name="uni1EA8" horiz-adv-x="1341" unicode="Ẩ"/><glyph d="M1030 1991q129 0 177 -38t48 -126q0 -80 -59 -129l-76 -64q-45 -37 -45 -98h-166q0 80 10.5 115t43.5 59l38 29q41 31 41 57q0 23 -14 30t-59 7q-31 0 -109 -4l-12 145q116 17 182 17zM563 1513l-186 -225h-250l264 408h342l266 -408h-251zM655 1147q199 0 278 -94.5 t79 -288.5v-748l-344 -30l-21 129h-16q-70 -135 -262 -135q-324 0 -324 327q0 182 97.5 260t283.5 78h203v57q0 80 -31 112t-88 32q-90 0 -311 -53l-54 278q322 76 510 76zM512 213q117 0 117 205v61h-101q-51 0 -81.5 -33.5t-30.5 -99.5q0 -133 96 -133z" glyph-name="uni1EA9" horiz-adv-x="1110" unicode="ẩ"/><glyph d="M524 2195q-59 0 -78 -102h-155q0 141 64.5 229t170.5 88q76 0 154 -51l76 -53q33 -23 57 -22q55 0 74 102h155q2 -152 -61 -235t-174 -83q-80 0 -148 50l-77 57q-29 20 -58 20zM670 1821l-187 -226h-250l265 408h342l266 -408h-252zM926 0l-62 317h-383l-61 -317h-408 l361 1434h598l362 -1434h-407zM541 625h262l-98 503h-66z" glyph-name="uni1EAA" horiz-adv-x="1341" unicode="Ẫ"/><glyph d="M418 1888q-59 0 -78 -102h-156q0 141 64.5 229t171.5 88q76 0 153 -51l76 -53q33 -23 58 -23q55 0 73 103h156q2 -152 -61.5 -235t-174.5 -83q-80 0 -147 49l-78 58q-28 20 -57 20zM563 1513l-186 -225h-250l264 408h342l266 -408h-251zM655 1147q199 0 278 -94.5 t79 -288.5v-748l-344 -30l-21 129h-16q-70 -135 -262 -135q-324 0 -324 327q0 182 97.5 260t283.5 78h203v57q0 80 -31 112t-88 32q-90 0 -311 -53l-54 278q322 76 510 76zM512 213q117 0 117 205v61h-101q-51 0 -81.5 -33.5t-30.5 -99.5q0 -133 96 -133z" glyph-name="uni1EAB" horiz-adv-x="1110" unicode="ẫ"/><glyph d="M670 1821l-187 -226h-250l265 408h342l266 -408h-252zM1333 0h-407l-62 317h-383l-61 -317h-408l361 1434h598zM541 625h262l-98 503h-66zM514 -416v273h305v-273h-305z" glyph-name="uni1EAC" horiz-adv-x="1341" unicode="Ậ"/><glyph d="M563 1513l-186 -225h-250l264 408h342l266 -408h-251zM655 1147q199 0 278 -94.5t79 -288.5v-748l-344 -30l-21 129h-16q-70 -135 -262 -135q-324 0 -324 327q0 182 97.5 260t283.5 78h203v57q0 80 -31 112t-88 32q-90 0 -311 -53l-54 278q322 76 510 76zM512 213 q117 0 117 205v61h-101q-51 0 -81.5 -33.5t-30.5 -99.5q0 -133 96 -133zM410 -416v273h305v-273h-305z" glyph-name="uni1EAD" horiz-adv-x="1110" unicode="ậ"/><glyph d="M1044 2378l-264 -408h-233l170 408h327zM670 1569q-201 0 -280 82t-79 241v39h211v-24q0 -66 33 -95.5t113 -29.5q74 0 108.5 24.5t34.5 100.5v24h213v-39q0 -182 -90 -252.5t-264 -70.5zM926 0l-62 317h-383l-61 -317h-408l361 1434h598l362 -1434h-407zM541 625h262 l-98 503h-66z" glyph-name="uni1EAE" horiz-adv-x="1341" unicode="Ắ"/><glyph d="M938 2071l-264 -408h-234l170 408h328zM563 1262q-201 0 -279.5 81.5t-78.5 241.5v39h211v-25q0 -66 32.5 -95t112.5 -29q74 0 109 24.5t35 99.5v25h213v-39q0 -182 -90.5 -252.5t-264.5 -70.5zM655 1147q199 0 278 -94.5t79 -288.5v-748l-344 -30l-21 129h-16 q-70 -135 -262 -135q-324 0 -324 327q0 182 97.5 260t283.5 78h203v57q0 80 -31 112t-88 32q-90 0 -311 -53l-54 278q322 76 510 76zM512 213q117 0 117 205v61h-101q-51 0 -81.5 -33.5t-30.5 -99.5q0 -133 96 -133z" glyph-name="uni1EAF" horiz-adv-x="1110" unicode="ắ"/><glyph d="M791 1972h-236l-264 408h327zM668 1782q74 0 108.5 24.5t34.5 100.5v24h213v-39q0 -182 -90 -252.5t-264 -70.5q-201 0 -280 82t-79 241v39h211v-24q0 -66 33 -95.5t113 -29.5zM926 0l-62 317h-383l-61 -317h-408l361 1434h598l362 -1434h-407zM541 625h262l-98 503h-66z " glyph-name="uni1EB0" horiz-adv-x="1341" unicode="Ằ"/><glyph d="M684 1665h-235l-265 408h328zM561 1475q74 0 109 24.5t35 99.5v25h213v-39q0 -182 -90.5 -252.5t-264.5 -70.5q-201 0 -279.5 81.5t-78.5 241.5v39h211v-25q0 -66 32.5 -95t112.5 -29zM655 1147q199 0 278 -94.5t79 -288.5v-748l-344 -30l-21 129h-16q-70 -135 -262 -135 q-324 0 -324 327q0 182 97.5 260t283.5 78h203v57q0 80 -31 112t-88 32q-90 0 -311 -53l-54 278q322 76 510 76zM512 213q117 0 117 205v61h-101q-51 0 -81.5 -33.5t-30.5 -99.5q0 -133 96 -133z" glyph-name="uni1EB1" horiz-adv-x="1110" unicode="ằ"/><glyph d="M639 2241q-53 0 -107 -7l-14 150q117 16 182 16q129 0 177.5 -38t48.5 -126q0 -84 -60 -131l-75 -61q-45 -37 -46 -98h-163q0 78 10 112.5t43 59.5l37 30q43 31 43 56q0 23 -15.5 30t-60.5 7zM670 1569q-201 0 -280 82t-79 241v39h211v-24q0 -66 33 -95.5t113 -29.5 q74 0 108.5 24.5t34.5 100.5v24h213v-39q0 -182 -90 -252.5t-264 -70.5zM926 0l-62 317h-383l-61 -317h-408l361 1434h598l362 -1434h-407zM541 625h262l-98 503h-66z" glyph-name="uni1EB2" horiz-adv-x="1341" unicode="Ẳ"/><glyph d="M532 1933q-53 0 -106 -6l-14 150q117 16 182 16q129 0 177 -38t48 -126q0 -84 -59 -131l-76 -61q-45 -37 -45 -99h-164q0 78 10.5 113t42.5 59l37 31q43 31 43 55q0 23 -15.5 30t-60.5 7zM563 1262q-201 0 -279.5 81.5t-78.5 241.5v39h211v-25q0 -66 32.5 -95t112.5 -29 q74 0 109 24.5t35 99.5v25h213v-39q0 -182 -90.5 -252.5t-264.5 -70.5zM655 1147q199 0 278 -94.5t79 -288.5v-748l-344 -30l-21 129h-16q-70 -135 -262 -135q-324 0 -324 327q0 182 97.5 260t283.5 78h203v57q0 80 -31 112t-88 32q-90 0 -311 -53l-54 278q322 76 510 76z M512 213q117 0 117 205v61h-101q-51 0 -81.5 -33.5t-30.5 -99.5q0 -133 96 -133z" glyph-name="uni1EB3" horiz-adv-x="1110" unicode="ẳ"/><glyph d="M530 2126q-57 0 -75 -103h-158q0 141 64.5 229.5t173.5 88.5q76 0 151 -51l76 -52q35 -25 59 -24q57 0 72 100h158q0 -150 -63.5 -231.5t-172.5 -81.5q-84 0 -149 47l-78 57q-27 21 -58 21zM311 1931h211v-24q0 -66 33 -95.5t113 -29.5q74 0 108.5 24.5t34.5 100.5v24 h213v-39q0 -182 -90 -252.5t-264 -70.5q-203 0 -281 82t-78 241v39zM926 0l-62 317h-383l-61 -317h-408l361 1434h598l362 -1434h-407zM541 625h262l-98 503h-66z" glyph-name="uni1EB4" horiz-adv-x="1341" unicode="Ẵ"/><glyph d="M424 1819q-57 0 -76 -103h-158q0 141 64.5 229.5t173.5 88.5q76 0 152 -52l75 -51q35 -25 60 -24q57 0 71 100h158q0 -150 -63.5 -231.5t-171.5 -81.5q-84 0 -150 47l-78 57q-26 21 -57 21zM205 1624h211v-25q0 -66 32.5 -95t112.5 -29q74 0 109 24.5t35 99.5v25h213v-39 q0 -182 -90.5 -252.5t-264.5 -70.5q-203 0 -280.5 81.5t-77.5 241.5v39zM655 1147q199 0 278 -94.5t79 -288.5v-748l-344 -30l-21 129h-16q-70 -135 -262 -135q-324 0 -324 327q0 182 97.5 260t283.5 78h203v57q0 80 -31 112t-88 32q-90 0 -311 -53l-54 278q322 76 510 76z M512 213q117 0 117 205v61h-101q-51 0 -81.5 -33.5t-30.5 -99.5q0 -133 96 -133z" glyph-name="uni1EB5" horiz-adv-x="1110" unicode="ẵ"/><glyph d="M670 1569q-201 0 -280 82t-79 241v39h211v-24q0 -66 33 -95.5t113 -29.5q74 0 108.5 24.5t34.5 100.5v24h213v-39q0 -182 -90 -252.5t-264 -70.5zM1333 0h-407l-62 317h-383l-61 -317h-408l361 1434h598zM541 625h262l-98 503h-66zM514 -416v273h305v-273h-305z" glyph-name="uni1EB6" horiz-adv-x="1341" unicode="Ặ"/><glyph d="M563 1262q-201 0 -279.5 81.5t-78.5 241.5v39h211v-25q0 -66 32.5 -95t112.5 -29q74 0 109 24.5t35 99.5v25h213v-39q0 -182 -90.5 -252.5t-264.5 -70.5zM655 1147q199 0 278 -94.5t79 -288.5v-748l-344 -30l-21 129h-16q-70 -135 -262 -135q-324 0 -324 327 q0 182 97.5 260t283.5 78h203v57q0 80 -31 112t-88 32q-90 0 -311 -53l-54 278q322 76 510 76zM512 213q117 0 117 205v61h-101q-51 0 -81.5 -33.5t-30.5 -99.5q0 -133 96 -133zM410 -416v273h305v-273h-305z" glyph-name="uni1EB7" horiz-adv-x="1110" unicode="ặ"/><glyph d="M545 305h469v-305h-871v1434h846v-306h-444v-231h405v-307h-405v-285zM451 -416v273h305v-273h-305z" glyph-name="uni1EB8" horiz-adv-x="1091" unicode="Ẹ"/><glyph d="M436 459q8 -113 43 -157t111 -44q131 0 366 49l45 -258q-246 -70 -426 -69q-512 0 -512 593q0 322 130.5 448t377.5 126q145 0 239.5 -37t144 -116t67.5 -179t18 -252q0 -51 -6 -104h-598zM575 897q-74 0 -104.5 -46t-36.5 -177h258q-4 131 -30 177t-87 46zM393 -416v273 h305v-273h-305z" glyph-name="uni1EB9" horiz-adv-x="1101" unicode="ẹ"/><glyph d="M539 1905q-51 0 -109 -7l-14 148q104 14 184 14q129 0 176 -36.5t47 -125.5q0 -84 -59 -131l-74 -63q-45 -35 -45 -98h-166q0 82 10.5 116.5t42.5 59.5l39 28q41 31 41 58q0 23 -14 30t-59 7zM545 305h469v-305h-871v1434h846v-306h-444v-231h405v-307h-405v-285z" glyph-name="uni1EBA" horiz-adv-x="1091" unicode="Ẻ"/><glyph d="M532 1597q-49 0 -108 -6l-14 148q104 14 184 14q129 0 176 -37t47 -125q0 -84 -59 -131l-74 -63q-45 -35 -45 -99h-166q0 82 10.5 117t42.5 60l39 28q41 31 41 58q0 23 -14.5 29.5t-59.5 6.5zM436 459q8 -113 43 -157t111 -44q131 0 366 49l45 -258q-246 -70 -426 -69 q-512 0 -512 593q0 322 130.5 448t377.5 126q145 0 239.5 -37t144 -116t67.5 -179t18 -252q0 -51 -6 -104h-598zM575 897q-74 0 -104.5 -46t-36.5 -177h258q-4 131 -30 177t-87 46z" glyph-name="uni1EBB" horiz-adv-x="1101" unicode="ẻ"/><glyph d="M430 1708q-61 0 -76 -100h-157q0 141 65.5 229t171.5 88q74 0 152 -51l76 -53q33 -23 59 -23q53 0 72 103h155q0 -150 -63.5 -234t-171.5 -84q-84 0 -148 49l-78 58q-26 18 -57 18zM545 305h469v-305h-871v1434h846v-306h-444v-231h405v-307h-405v-285z" glyph-name="uni1EBC" horiz-adv-x="1091" unicode="Ẽ"/><glyph d="M424 1401q-61 0 -76 -101h-158q0 141 66 229.5t172 88.5q76 0 152 -51l75 -54q33 -23 60 -22q53 0 71 102h156q0 -150 -63.5 -233.5t-171.5 -83.5q-84 0 -148 49l-78 57q-26 19 -57 19zM436 459q8 -113 43 -157t111 -44q131 0 366 49l45 -258q-246 -70 -426 -69 q-512 0 -512 593q0 322 130.5 448t377.5 126q145 0 239.5 -37t144 -116t67.5 -179t18 -252q0 -51 -6 -104h-598zM575 897q-74 0 -104.5 -46t-36.5 -177h258q-4 131 -30 177t-87 46z" glyph-name="uni1EBD" horiz-adv-x="1101" unicode="ẽ"/><glyph d="M1081 2251h328l-262 -408h-236zM567 1821l-186 -226h-250l264 408h342l267 -408h-252zM545 590v-285h469v-305h-871v1434h846v-306h-444v-231h405v-307h-405z" glyph-name="uni1EBE" horiz-adv-x="1091" unicode="Ế"/><glyph d="M1075 1944h328l-262 -408h-236zM561 1513l-186 -225h-250l264 408h342l266 -408h-252zM571 1147q145 0 239.5 -37t144 -116t67.5 -179t18 -252q0 -51 -6 -104h-598q8 -113 43 -157t111 -44q131 0 366 49l45 -258q-246 -70 -426 -69q-512 0 -512 593q0 322 130 448 t378 126zM575 897q-74 0 -104.5 -46t-36.5 -177h258q-4 131 -30 177t-87 46z" glyph-name="uni1EBF" horiz-adv-x="1101" unicode="ế"/><glyph d="M1204 1843h-235l-262 408h327zM567 1821l-186 -226h-250l264 408h342l267 -408h-252zM545 590v-285h469v-305h-871v1434h846v-306h-444v-231h405v-307h-405z" glyph-name="uni1EC0" horiz-adv-x="1091" unicode="Ề"/><glyph d="M1198 1536h-235l-263 408h328zM561 1513l-186 -225h-250l264 408h342l266 -408h-252zM571 1147q145 0 239.5 -37t144 -116t67.5 -179t18 -252q0 -51 -6 -104h-598q8 -113 43 -157t111 -44q131 0 366 49l45 -258q-246 -70 -426 -69q-512 0 -512 593q0 322 130 448t378 126 zM575 897q-74 0 -104.5 -46t-36.5 -177h258q-4 131 -30 177t-87 46z" glyph-name="uni1EC1" horiz-adv-x="1101" unicode="ề"/><glyph d="M1034 2298q129 0 177.5 -38t48.5 -126q0 -80 -60 -129l-76 -63q-45 -37 -45 -99h-166q0 80 10.5 115t43.5 59l39 29q41 31 41 57q0 23 -14.5 30t-59.5 7q-31 0 -109 -4l-12 145q116 17 182 17zM567 1821l-186 -226h-250l264 408h342l267 -408h-252zM545 590v-285h469 v-305h-871v1434h846v-306h-444v-231h405v-307h-405z" glyph-name="uni1EC2" horiz-adv-x="1091" unicode="Ể"/><glyph d="M1028 1991q129 0 177 -38t48 -126q0 -80 -59 -129l-76 -64q-45 -37 -45 -98h-166q0 80 10.5 115t43.5 59l38 29q41 31 41 57q0 23 -14 30t-59 7q-31 0 -109 -4l-12 145q116 17 182 17zM561 1513l-186 -225h-250l264 408h342l266 -408h-252zM571 1147q145 0 239.5 -37 t144 -116t67.5 -179t18 -252q0 -51 -6 -104h-598q8 -113 43 -157t111 -44q131 0 366 49l45 -258q-246 -70 -426 -69q-512 0 -512 593q0 322 130 448t378 126zM575 897q-74 0 -104.5 -46t-36.5 -177h258q-4 131 -30 177t-87 46z" glyph-name="uni1EC3" horiz-adv-x="1101" unicode="ể"/><glyph d="M422 2195q-59 0 -78 -102h-156q0 141 64.5 229t171.5 88q76 0 154 -51l75 -53q33 -23 58 -22q55 0 73 102h156q2 -152 -61.5 -235t-173.5 -83q-80 0 -148 50l-78 57q-28 20 -57 20zM567 1821l-186 -226h-250l264 408h342l267 -408h-252zM545 305h469v-305h-871v1434h846 v-306h-444v-231h405v-307h-405v-285z" glyph-name="uni1EC4" horiz-adv-x="1091" unicode="Ễ"/><glyph d="M416 1888q-59 0 -78 -102h-156q0 141 64.5 229t171.5 88q78 0 153 -51l76 -53q33 -23 58 -23q55 0 73 103h156q2 -152 -61.5 -235t-174.5 -83q-80 0 -147 49l-78 58q-28 20 -57 20zM561 1513l-186 -225h-250l264 408h342l266 -408h-252zM436 459q8 -113 43 -157t111 -44 q131 0 366 49l45 -258q-246 -70 -426 -69q-512 0 -512 593q0 322 130.5 448t377.5 126q145 0 239.5 -37t144 -116t67.5 -179t18 -252q0 -51 -6 -104h-598zM575 897q-74 0 -104.5 -46t-36.5 -177h258q-4 131 -30 177t-87 46z" glyph-name="uni1EC5" horiz-adv-x="1101" unicode="ễ"/><glyph d="M567 1821l-186 -226h-250l264 408h342l267 -408h-252zM545 305h469v-305h-871v1434h846v-306h-444v-231h405v-307h-405v-285zM451 -416v273h305v-273h-305z" glyph-name="uni1EC6" horiz-adv-x="1091" unicode="Ệ"/><glyph d="M561 1513l-186 -225h-250l264 408h342l266 -408h-252zM436 459q8 -113 43 -157t111 -44q131 0 366 49l45 -258q-246 -70 -426 -69q-512 0 -512 593q0 322 130.5 448t377.5 126q145 0 239.5 -37t144 -116t67.5 -179t18 -252q0 -51 -6 -104h-598zM575 897q-74 0 -104.5 -46 t-36.5 -177h258q-4 131 -30 177t-87 46zM393 -416v273h305v-273h-305z" glyph-name="uni1EC7" horiz-adv-x="1101" unicode="ệ"/><glyph d="M260 1606q0 82 10.5 116.5t42.5 59.5l39 28q41 31 41 58q0 23 -14 30t-60 7q-49 0 -108 -7l-14 148q104 14 184 14q129 0 176 -36.5t47 -125.5q0 -84 -59 -131l-74 -63q-45 -35 -45 -98h-166zM547 1434v-1434h-402v1434h402z" glyph-name="uni1EC8" horiz-adv-x="688" unicode="Ỉ"/><glyph d="M219 1298q0 82 10.5 117t42.5 60l39 28q41 31 41 58q0 23 -14 29.5t-59 6.5q-49 0 -109 -6l-14 148q104 14 184 14q129 0 176 -37t47 -125q0 -84 -59 -131l-74 -63q-45 -35 -45 -99h-166zM496 1126v-1126h-383v1126h383z" glyph-name="uni1EC9" horiz-adv-x="606" unicode="ỉ"/><glyph d="M547 1434v-1434h-402v1434h402zM190 -143h306v-273h-306v273z" glyph-name="uni1ECA" horiz-adv-x="688" unicode="Ị"/><glyph d="M100 1569h410v-307h-410v307zM496 1126v-1126h-383v1126h383zM147 -143h306v-273h-306v273z" glyph-name="uni1ECB" horiz-adv-x="606" unicode="ị"/><glyph d="M709 -20q-180 0 -303 47t-191 146t-95.5 228t-27.5 316q0 217 39 363.5t122 227.5t191.5 113.5t264.5 32.5q180 0 302 -47t189.5 -146.5t94 -228.5t26.5 -315q0 -217 -39 -363.5t-122 -227.5t-189 -113.5t-262 -32.5zM709 303q117 0 158.5 84t41.5 330t-41 329.5 t-159 83.5q-121 0 -163 -83.5t-42 -329.5t42 -330t163 -84zM551 -143h305v-273h-305v273z" glyph-name="uni1ECC" horiz-adv-x="1409" unicode="Ọ"/><glyph d="M592 -20q-299 0 -412.5 146t-113.5 437q0 170 35.5 287t108.5 180.5t164 90t218 26.5q297 0 410.5 -146.5t113.5 -437.5q0 -330 -132 -456.5t-392 -126.5zM592 260q78 0 103.5 60.5t25.5 242.5t-25.5 242.5t-103.5 60.5q-80 0 -106.5 -60.5t-26.5 -242.5t26.5 -242.5 t106.5 -60.5zM438 -143h305v-273h-305v273z" glyph-name="uni1ECD" horiz-adv-x="1179" unicode="ọ"/><glyph d="M618 1606q0 82 10.5 116.5t43.5 59.5l39 28q41 31 41 58q0 23 -14.5 30t-59.5 7q-49 0 -109 -7l-14 148q104 14 184 14q129 0 176.5 -36.5t47.5 -125.5q0 -84 -60 -131l-74 -63q-45 -35 -45 -98h-166zM709 -20q-180 0 -303 47t-191 146t-95.5 228t-27.5 316 q0 217 39 363.5t122 227.5t191.5 113.5t264.5 32.5q180 0 302 -47t189.5 -146.5t94 -228.5t26.5 -315q0 -217 -39 -363.5t-122 -227.5t-189 -113.5t-262 -32.5zM709 303q117 0 158.5 84t41.5 330t-41 329.5t-159 83.5q-121 0 -163 -83.5t-42 -329.5t42 -330t163 -84z" glyph-name="uni1ECE" horiz-adv-x="1409" unicode="Ỏ"/><glyph d="M506 1298q0 82 10 117t43 60l39 28q41 31 41 58q0 23 -14.5 29.5t-59.5 6.5q-49 0 -108 -6l-15 148q104 14 185 14q129 0 176 -37t47 -125q0 -84 -59 -131l-74 -63q-45 -35 -45 -99h-166zM592 -20q-299 0 -412.5 146t-113.5 437q0 170 35.5 287t108.5 180.5t164 90 t218 26.5q297 0 410.5 -146.5t113.5 -437.5q0 -330 -132 -456.5t-392 -126.5zM592 260q78 0 103.5 60.5t25.5 242.5t-25.5 242.5t-103.5 60.5q-80 0 -106.5 -60.5t-26.5 -242.5t26.5 -242.5t106.5 -60.5z" glyph-name="uni1ECF" horiz-adv-x="1179" unicode="ỏ"/><glyph d="M1548 2251l-262 -408h-235l170 408h327zM707 1821l-187 -226h-250l265 408h342l266 -408h-252zM709 1454q180 0 302 -47t189.5 -146.5t94 -228.5t26.5 -315q0 -217 -39 -363.5t-122 -227.5t-189.5 -113.5t-261.5 -32.5q-180 0 -303 47t-191 146t-95.5 228t-27.5 316 q0 217 39 363.5t122 227.5t191.5 113.5t264.5 32.5zM709 303q117 0 158.5 84t41.5 330t-41 329.5t-159 83.5q-121 0 -163 -83.5t-42 -329.5t42 -330t163 -84z" glyph-name="uni1ED0" horiz-adv-x="1409" unicode="Ố"/><glyph d="M1108 1944h328l-262 -408h-236zM594 1513l-186 -225h-250l264 408h342l266 -408h-252zM592 1147q297 0 410.5 -146.5t113.5 -437.5q0 -330 -132 -456.5t-392 -126.5q-299 0 -412.5 146t-113.5 437q0 170 35.5 287t108.5 180.5t164 90t218 26.5zM592 260q78 0 103.5 60.5 t25.5 242.5t-25.5 242.5t-103.5 60.5q-80 0 -106.5 -60.5t-26.5 -242.5t26.5 -242.5t106.5 -60.5z" glyph-name="uni1ED1" horiz-adv-x="1179" unicode="ố"/><glyph d="M1343 1843h-235l-262 408h328zM707 1821l-187 -226h-250l265 408h342l266 -408h-252zM709 1454q180 0 302 -47t189.5 -146.5t94 -228.5t26.5 -315q0 -217 -39 -363.5t-122 -227.5t-189.5 -113.5t-261.5 -32.5q-180 0 -303 47t-191 146t-95.5 228t-27.5 316 q0 217 39 363.5t122 227.5t191.5 113.5t264.5 32.5zM709 303q117 0 158.5 84t41.5 330t-41 329.5t-159 83.5q-121 0 -163 -83.5t-42 -329.5t42 -330t163 -84z" glyph-name="uni1ED2" horiz-adv-x="1409" unicode="Ồ"/><glyph d="M1231 1536h-236l-262 408h328zM594 1513l-186 -225h-250l264 408h342l266 -408h-252zM592 1147q297 0 410.5 -146.5t113.5 -437.5q0 -330 -132 -456.5t-392 -126.5q-299 0 -412.5 146t-113.5 437q0 170 35.5 287t108.5 180.5t164 90t218 26.5zM592 260q78 0 103.5 60.5 t25.5 242.5t-25.5 242.5t-103.5 60.5q-80 0 -106.5 -60.5t-26.5 -242.5t26.5 -242.5t106.5 -60.5z" glyph-name="uni1ED3" horiz-adv-x="1179" unicode="ồ"/><glyph d="M1174 2298q129 0 177 -38t48 -126q0 -80 -60 -129l-75 -63q-45 -37 -45 -99h-166q0 80 10 115t43 59l39 29q41 31 41 57q0 23 -14.5 30t-59.5 7q-31 0 -108 -4l-13 145q117 17 183 17zM707 1821l-187 -226h-250l265 408h342l266 -408h-252zM709 1454q180 0 302 -47 t189.5 -146.5t94 -228.5t26.5 -315q0 -217 -39 -363.5t-122 -227.5t-189.5 -113.5t-261.5 -32.5q-180 0 -303 47t-191 146t-95.5 228t-27.5 316q0 217 39 363.5t122 227.5t191.5 113.5t264.5 32.5zM709 303q117 0 158.5 84t41.5 330t-41 329.5t-159 83.5q-121 0 -163 -83.5 t-42 -329.5t42 -330t163 -84z" glyph-name="uni1ED4" horiz-adv-x="1409" unicode="Ổ"/><glyph d="M1061 1991q129 0 177 -38t48 -126q0 -80 -59 -129l-76 -64q-45 -37 -45 -98h-166q0 80 10.5 115t42.5 59l39 29q41 31 41 57q0 23 -14.5 30t-59.5 7q-31 0 -108 -4l-12 145q116 17 182 17zM594 1513l-186 -225h-250l264 408h342l266 -408h-252zM592 1147 q297 0 410.5 -146.5t113.5 -437.5q0 -330 -132 -456.5t-392 -126.5q-299 0 -412.5 146t-113.5 437q0 170 35.5 287t108.5 180.5t164 90t218 26.5zM592 260q78 0 103.5 60.5t25.5 242.5t-25.5 242.5t-103.5 60.5q-80 0 -106.5 -60.5t-26.5 -242.5t26.5 -242.5t106.5 -60.5z " glyph-name="uni1ED5" horiz-adv-x="1179" unicode="ổ"/><glyph d="M561 2195q-59 0 -78 -102h-155q0 141 64.5 229t170.5 88q76 0 154 -51l76 -53q33 -23 57 -22q55 0 74 102h155q2 -152 -61.5 -235t-173.5 -83q-80 0 -148 50l-78 57q-28 20 -57 20zM707 1821l-187 -226h-250l265 408h342l266 -408h-252zM709 1454q180 0 302 -47 t189.5 -146.5t94 -228.5t26.5 -315q0 -217 -39 -363.5t-122 -227.5t-189.5 -113.5t-261.5 -32.5q-180 0 -303 47t-191 146t-95.5 228t-27.5 316q0 217 39 363.5t122 227.5t191.5 113.5t264.5 32.5zM709 303q117 0 158.5 84t41.5 330t-41 329.5t-159 83.5q-121 0 -163 -83.5 t-42 -329.5t42 -330t163 -84z" glyph-name="uni1ED6" horiz-adv-x="1409" unicode="Ỗ"/><glyph d="M449 1888q-59 0 -78 -102h-156q0 141 64.5 229t171.5 88q78 0 153 -51l76 -53q33 -23 57 -23q55 0 74 103h156q2 -152 -61.5 -235t-174.5 -83q-80 0 -147 49l-78 58q-28 20 -57 20zM594 1513l-186 -225h-250l264 408h342l266 -408h-252zM592 1147q297 0 410.5 -146.5 t113.5 -437.5q0 -330 -132 -456.5t-392 -126.5q-299 0 -412.5 146t-113.5 437q0 170 35.5 287t108.5 180.5t164 90t218 26.5zM592 260q78 0 103.5 60.5t25.5 242.5t-25.5 242.5t-103.5 60.5q-80 0 -106.5 -60.5t-26.5 -242.5t26.5 -242.5t106.5 -60.5z" glyph-name="uni1ED7" horiz-adv-x="1179" unicode="ỗ"/><glyph d="M707 1821l-187 -226h-250l265 408h342l266 -408h-252zM709 1454q180 0 302 -47t189.5 -146.5t94 -228.5t26.5 -315q0 -217 -39 -363.5t-122 -227.5t-189.5 -113.5t-261.5 -32.5q-180 0 -303 47t-191 146t-95.5 228t-27.5 316q0 217 39 363.5t122 227.5t191.5 113.5 t264.5 32.5zM709 303q117 0 158.5 84t41.5 330t-41 329.5t-159 83.5q-121 0 -163 -83.5t-42 -329.5t42 -330t163 -84zM551 -416v273h305v-273h-305z" glyph-name="uni1ED8" horiz-adv-x="1409" unicode="Ộ"/><glyph d="M594 1513l-186 -225h-250l264 408h342l266 -408h-252zM592 1147q297 0 410.5 -146.5t113.5 -437.5q0 -330 -132 -456.5t-392 -126.5q-299 0 -412.5 146t-113.5 437q0 170 35.5 287t108.5 180.5t164 90t218 26.5zM592 260q78 0 103.5 60.5t25.5 242.5t-25.5 242.5 t-103.5 60.5q-80 0 -106.5 -60.5t-26.5 -242.5t26.5 -242.5t106.5 -60.5zM438 -416v273h305v-273h-305z" glyph-name="uni1ED9" horiz-adv-x="1179" unicode="ộ"/><glyph d="M1090 2011l-265 -407h-235l172 407h328zM1255 1688h211v-218q0 -139 -52 -206.5t-165 -87.5q72 -160 72 -459q0 -217 -39 -363.5t-122 -227.5t-189.5 -113.5t-261.5 -32.5q-180 0 -303 47t-191 146t-95.5 228t-27.5 316q0 217 39 363.5t122 227.5t191.5 113.5t264.5 32.5 q270 0 411 -111q76 2 105.5 32t29.5 95v218zM709 303q117 0 158.5 84t41.5 330t-41 329.5t-159 83.5q-121 0 -163 -83.5t-42 -329.5t42 -330t163 -84z" glyph-name="uni1EDA" horiz-adv-x="1409" unicode="Ớ"/><glyph d="M977 1704l-264 -408h-236l172 408h328zM1100 1364h211v-217q0 -143 -54.5 -211t-175.5 -86q35 -117 35 -287q0 -330 -132 -456.5t-392 -126.5q-299 0 -412.5 146t-113.5 437q0 170 35.5 287t108.5 180.5t164 90t218 26.5q262 0 391 -125q63 4 90 33.5t27 91.5v217z M592 260q78 0 103.5 60.5t25.5 242.5t-25.5 242.5t-103.5 60.5q-80 0 -106.5 -60.5t-26.5 -242.5t26.5 -242.5t106.5 -60.5z" glyph-name="uni1EDB" horiz-adv-x="1179" unicode="ớ"/><glyph d="M811 1604h-236l-262 407h326zM1255 1688h211v-218q0 -139 -52 -206.5t-165 -87.5q72 -160 72 -459q0 -217 -39 -363.5t-122 -227.5t-189.5 -113.5t-261.5 -32.5q-180 0 -303 47t-191 146t-95.5 228t-27.5 316q0 217 39 363.5t122 227.5t191.5 113.5t264.5 32.5 q270 0 411 -111q76 2 105.5 32t29.5 95v218zM709 303q117 0 158.5 84t41.5 330t-41 329.5t-159 83.5q-121 0 -163 -83.5t-42 -329.5t42 -330t163 -84z" glyph-name="uni1EDC" horiz-adv-x="1409" unicode="Ờ"/><glyph d="M698 1296h-235l-262 408h325zM1100 1364h211v-217q0 -143 -54.5 -211t-175.5 -86q35 -117 35 -287q0 -330 -132 -456.5t-392 -126.5q-299 0 -412.5 146t-113.5 437q0 170 35.5 287t108.5 180.5t164 90t218 26.5q262 0 391 -125q63 4 90 33.5t27 91.5v217zM592 260 q78 0 103.5 60.5t25.5 242.5t-25.5 242.5t-103.5 60.5q-80 0 -106.5 -60.5t-26.5 -242.5t26.5 -242.5t106.5 -60.5z" glyph-name="uni1EDD" horiz-adv-x="1179" unicode="ờ"/><glyph d="M678 1905q-49 0 -109 -7l-14 148q104 14 184 14q129 0 176.5 -36.5t47.5 -125.5q0 -84 -60 -131l-74 -63q-45 -35 -45 -98h-166q0 82 10.5 116.5t43.5 59.5l39 28q41 31 41 58q0 23 -14.5 30t-59.5 7zM1255 1688h211v-218q0 -139 -52 -206.5t-165 -87.5q72 -160 72 -459 q0 -217 -39 -363.5t-122 -227.5t-189.5 -113.5t-261.5 -32.5q-180 0 -303 47t-191 146t-95.5 228t-27.5 316q0 217 39 363.5t122 227.5t191.5 113.5t264.5 32.5q270 0 411 -111q76 2 105.5 32t29.5 95v218zM709 303q117 0 158.5 84t41.5 330t-41 329.5t-159 83.5 q-121 0 -163 -83.5t-42 -329.5t42 -330t163 -84z" glyph-name="uni1EDE" horiz-adv-x="1409" unicode="Ở"/><glyph d="M565 1597q-49 0 -108 -6l-15 148q104 14 185 14q129 0 176 -37t47 -125q0 -84 -59 -131l-74 -63q-45 -35 -45 -99h-166q0 82 10 117t43 60l39 28q41 31 41 58q0 23 -14.5 29.5t-59.5 6.5zM1100 1364h211v-217q0 -143 -54.5 -211t-175.5 -86q35 -117 35 -287 q0 -330 -132 -456.5t-392 -126.5q-299 0 -412.5 146t-113.5 437q0 170 35.5 287t108.5 180.5t164 90t218 26.5q262 0 391 -125q63 4 90 33.5t27 91.5v217zM592 260q78 0 103.5 60.5t25.5 242.5t-25.5 242.5t-103.5 60.5q-80 0 -106.5 -60.5t-26.5 -242.5t26.5 -242.5 t106.5 -60.5z" glyph-name="uni1EDF" horiz-adv-x="1179" unicode="ở"/><glyph d="M569 1708q-61 0 -75 -100h-158q0 141 65.5 229t171.5 88q74 0 152 -51l76 -53q33 -23 59 -23q53 0 72 103h155q0 -150 -63 -234t-172 -84q-84 0 -147 49l-78 58q-27 18 -58 18zM1255 1688h211v-218q0 -139 -52 -206.5t-165 -87.5q72 -160 72 -459q0 -217 -39 -363.5 t-122 -227.5t-189.5 -113.5t-261.5 -32.5q-180 0 -303 47t-191 146t-95.5 228t-27.5 316q0 217 39 363.5t122 227.5t191.5 113.5t264.5 32.5q270 0 411 -111q76 2 105.5 32t29.5 95v218zM709 303q117 0 158.5 84t41.5 330t-41 329.5t-159 83.5q-121 0 -163 -83.5t-42 -329.5 t42 -330t163 -84z" glyph-name="uni1EE0" horiz-adv-x="1409" unicode="Ỡ"/><glyph d="M457 1401q-61 0 -76 -101h-158q0 141 65.5 229.5t172.5 88.5q76 0 151 -51l76 -54q33 -23 60 -22q53 0 71 102h156q0 -150 -63.5 -233.5t-172.5 -83.5q-84 0 -147 49l-78 57q-26 19 -57 19zM1100 1364h211v-217q0 -143 -54.5 -211t-175.5 -86q35 -117 35 -287 q0 -330 -132 -456.5t-392 -126.5q-299 0 -412.5 146t-113.5 437q0 170 35.5 287t108.5 180.5t164 90t218 26.5q262 0 391 -125q63 4 90 33.5t27 91.5v217zM592 260q78 0 103.5 60.5t25.5 242.5t-25.5 242.5t-103.5 60.5q-80 0 -106.5 -60.5t-26.5 -242.5t26.5 -242.5 t106.5 -60.5z" glyph-name="uni1EE1" horiz-adv-x="1179" unicode="ỡ"/><glyph d="M1255 1688h211v-218q0 -139 -52 -206.5t-165 -87.5q72 -160 72 -459q0 -217 -39 -363.5t-122 -227.5t-189.5 -113.5t-261.5 -32.5q-180 0 -303 47t-191 146t-95.5 228t-27.5 316q0 217 39 363.5t122 227.5t191.5 113.5t264.5 32.5q270 0 411 -111q76 2 105.5 32t29.5 95 v218zM709 303q117 0 158.5 84t41.5 330t-41 329.5t-159 83.5q-121 0 -163 -83.5t-42 -329.5t42 -330t163 -84zM551 -416v273h305v-273h-305z" glyph-name="uni1EE2" horiz-adv-x="1409" unicode="Ợ"/><glyph d="M1100 1364h211v-217q0 -143 -54.5 -211t-175.5 -86q35 -117 35 -287q0 -330 -132 -456.5t-392 -126.5q-299 0 -412.5 146t-113.5 437q0 170 35.5 287t108.5 180.5t164 90t218 26.5q262 0 391 -125q63 4 90 33.5t27 91.5v217zM592 260q78 0 103.5 60.5t25.5 242.5 t-25.5 242.5t-103.5 60.5q-80 0 -106.5 -60.5t-26.5 -242.5t26.5 -242.5t106.5 -60.5zM438 -416v273h305v-273h-305z" glyph-name="uni1EE3" horiz-adv-x="1179" unicode="ợ"/><glyph d="M680 -20q-319 0 -440 134t-121 412v908h399v-928q0 -121 32 -162t122 -41q88 0 119.5 41t31.5 162v928h400v-908q0 -311 -134.5 -428.5t-408.5 -117.5zM518 -143h305v-273h-305v273z" glyph-name="uni1EE4" horiz-adv-x="1339" unicode="Ụ"/><glyph d="M717 1126h383v-1110l-346 -30l-21 129h-18q-74 -135 -287 -135q-188 0 -257 95t-69 328v723h385v-698q0 -92 24 -130t87 -38q61 0 90 37t29 131v698zM426 -416v273h305v-273h-305z" glyph-name="uni1EE5" horiz-adv-x="1214" unicode="ụ"/><glyph d="M586 1606q0 82 10 116.5t43 59.5l39 28q41 31 41 58q0 23 -14.5 30t-59.5 7q-51 0 -108 -7l-15 148q104 14 185 14q129 0 176 -36.5t47 -125.5q0 -84 -60 -131l-73 -63q-45 -35 -45 -98h-166zM680 -20q-319 0 -440 134t-121 412v908h399v-928q0 -121 32 -162t122 -41 q88 0 119.5 41t31.5 162v928h400v-908q0 -311 -134.5 -428.5t-408.5 -117.5z" glyph-name="uni1EE6" horiz-adv-x="1339" unicode="Ủ"/><glyph d="M580 1597q-51 0 -109 -6l-14 148q104 14 184 14q129 0 176 -37t47 -125q0 -84 -59 -131l-74 -63q-45 -35 -45 -99h-166q0 82 10.5 117t42.5 60l39 28q41 31 41 58q0 23 -14 29.5t-59 6.5zM717 1126h383v-1110l-346 -30l-21 129h-18q-74 -135 -287 -135q-188 0 -257 95 t-69 328v723h385v-698q0 -92 24 -130t87 -38q61 0 90 37t29 131v698z" glyph-name="uni1EE7" horiz-adv-x="1214" unicode="ủ"/><glyph d="M1057 2011l-264 -407h-236l172 407h328zM1300 1778h211v-217q0 -160 -67.5 -226.5t-220.5 -77.5v-731q0 -311 -134.5 -428.5t-408.5 -117.5q-319 0 -440 134t-121 412v908h399v-928q0 -121 32 -162t122 -41q88 0 119.5 41t31.5 162v928h320q88 0 122.5 28.5t34.5 98.5 v217z" glyph-name="uni1EE8" horiz-adv-x="1339" unicode="Ứ"/><glyph d="M991 1704l-264 -408h-235l172 408h327zM1165 1470h211v-217q0 -156 -64.5 -223t-211.5 -78v-936l-346 -30l-21 129h-18q-74 -135 -287 -135q-188 0 -257 95t-69 328v723h385v-698q0 -92 24 -130t87 -38q61 0 90 37t29 131v698h291q88 0 122.5 29t34.5 98v217z" glyph-name="uni1EE9" horiz-adv-x="1214" unicode="ứ"/><glyph d="M778 1604h-235l-262 407h325zM1300 1778h211v-217q0 -160 -67.5 -226.5t-220.5 -77.5v-731q0 -311 -134.5 -428.5t-408.5 -117.5q-319 0 -440 134t-121 412v908h399v-928q0 -121 32 -162t122 -41q88 0 119.5 41t31.5 162v928h320q88 0 122.5 28.5t34.5 98.5v217z" glyph-name="uni1EEA" horiz-adv-x="1339" unicode="Ừ"/><glyph d="M713 1296h-236l-262 408h326zM1165 1470h211v-217q0 -156 -64.5 -223t-211.5 -78v-936l-346 -30l-21 129h-18q-74 -135 -287 -135q-188 0 -257 95t-69 328v723h385v-698q0 -92 24 -130t87 -38q61 0 90 37t29 131v698h291q88 0 122.5 29t34.5 98v217z" glyph-name="uni1EEB" horiz-adv-x="1214" unicode="ừ"/><glyph d="M645 1905q-51 0 -108 -7l-15 148q104 14 185 14q129 0 176 -36.5t47 -125.5q0 -84 -60 -131l-73 -63q-45 -35 -45 -98h-166q0 82 10 116.5t43 59.5l39 28q41 31 41 58q0 23 -14.5 30t-59.5 7zM1300 1778h211v-217q0 -160 -67.5 -226.5t-220.5 -77.5v-731 q0 -311 -134.5 -428.5t-408.5 -117.5q-319 0 -440 134t-121 412v908h399v-928q0 -121 32 -162t122 -41q88 0 119.5 41t31.5 162v928h320q88 0 122.5 28.5t34.5 98.5v217z" glyph-name="uni1EEC" horiz-adv-x="1339" unicode="Ử"/><glyph d="M580 1597q-51 0 -109 -6l-14 148q104 14 184 14q129 0 176 -37t47 -125q0 -84 -59 -131l-74 -63q-45 -35 -45 -99h-166q0 82 10.5 117t42.5 60l39 28q41 31 41 58q0 23 -14 29.5t-59 6.5zM1165 1470h211v-217q0 -156 -64.5 -223t-211.5 -78v-936l-346 -30l-21 129h-18 q-74 -135 -287 -135q-188 0 -257 95t-69 328v723h385v-698q0 -92 24 -130t87 -38q61 0 90 37t29 131v698h291q88 0 122.5 29t34.5 98v217z" glyph-name="uni1EED" horiz-adv-x="1214" unicode="ử"/><glyph d="M537 1708q-61 0 -76 -100h-158q0 141 65.5 229t172.5 88q74 0 151 -51l76 -53q33 -23 59 -23q53 0 72 103h156q0 -150 -63.5 -234t-172.5 -84q-84 0 -147 49l-78 58q-26 18 -57 18zM1300 1778h211v-217q0 -160 -67.5 -226.5t-220.5 -77.5v-731q0 -311 -134.5 -428.5 t-408.5 -117.5q-319 0 -440 134t-121 412v908h399v-928q0 -121 32 -162t122 -41q88 0 119.5 41t31.5 162v928h320q88 0 122.5 28.5t34.5 98.5v217z" glyph-name="uni1EEE" horiz-adv-x="1339" unicode="Ữ"/><glyph d="M471 1401q-61 0 -76 -101h-157q0 141 65.5 229.5t171.5 88.5q74 0 152 -51l75 -54q33 -23 60 -22q53 0 72 102h155q0 -150 -63.5 -233.5t-171.5 -83.5q-84 0 -148 49l-78 57q-26 19 -57 19zM1165 1470h211v-217q0 -156 -64.5 -223t-211.5 -78v-936l-346 -30l-21 129h-18 q-74 -135 -287 -135q-188 0 -257 95t-69 328v723h385v-698q0 -92 24 -130t87 -38q61 0 90 37t29 131v698h291q88 0 122.5 29t34.5 98v217z" glyph-name="uni1EEF" horiz-adv-x="1214" unicode="ữ"/><glyph d="M1300 1778h211v-217q0 -160 -67.5 -226.5t-220.5 -77.5v-731q0 -311 -134.5 -428.5t-408.5 -117.5q-319 0 -440 134t-121 412v908h399v-928q0 -121 32 -162t122 -41q88 0 119.5 41t31.5 162v928h320q88 0 122.5 28.5t34.5 98.5v217zM518 -416v273h305v-273h-305z" glyph-name="uni1EF0" horiz-adv-x="1339" unicode="Ự"/><glyph d="M1165 1470h211v-217q0 -156 -64.5 -223t-211.5 -78v-936l-346 -30l-21 129h-18q-74 -135 -287 -135q-188 0 -257 95t-69 328v723h385v-698q0 -92 24 -130t87 -38q61 0 90 37t29 131v698h291q88 0 122.5 29t34.5 98v217zM426 -416v273h305v-273h-305z" glyph-name="uni1EF1" horiz-adv-x="1214" unicode="ự"/><glyph d="M739 1604h-235l-262 407h325zM1264 1434l-437 -961v-473h-399v494l-424 940h412l202 -594h27l211 594h408z" glyph-name="Ygrave" horiz-adv-x="1267" unicode="Ỳ"/><glyph d="M657 1296h-235l-262 408h325zM692 1126h402l-277 -1144q-49 -207 -167 -289t-304 -82q-102 0 -244 29l23 258q127 -18 209 -19q92 0 133 31t57 131l4 25h-272l-250 1060h402l118 -796h43z" glyph-name="ygrave" horiz-adv-x="1097" unicode="ỳ"/><glyph d="M1264 1434l-437 -961v-473h-399v494l-424 940h412l202 -594h27l211 594h408zM479 -416v273h305v-273h-305z" glyph-name="uni1EF4" horiz-adv-x="1267" unicode="Ỵ"/><glyph d="M692 1126h402l-277 -1144q-49 -207 -167 -289t-304 -82q-102 0 -244 29l23 258q127 -18 209 -19q92 0 133 31t57 131l4 25h-272l-250 1060h402l118 -796h43zM885 -143h305v-273h-305v273z" glyph-name="uni1EF5" horiz-adv-x="1097" unicode="ỵ"/><glyph d="M606 1905q-49 0 -108 -7l-15 148q104 14 185 14q129 0 176 -36.5t47 -125.5q0 -84 -60 -131l-73 -63q-45 -35 -45 -98h-166q0 82 10 116.5t43 59.5l39 28q41 31 41 58q0 23 -14.5 30t-59.5 7zM1264 1434l-437 -961v-473h-399v494l-424 940h412l202 -594h27l211 594h408z " glyph-name="uni1EF6" horiz-adv-x="1267" unicode="Ỷ"/><glyph d="M524 1597q-49 0 -108 -6l-15 148q104 14 185 14q129 0 176 -37t47 -125q0 -84 -59 -131l-74 -63q-45 -35 -45 -99h-166q0 82 10 117t43 60l39 28q41 31 41 58q0 23 -14.5 29.5t-59.5 6.5zM692 1126h402l-277 -1144q-49 -207 -167 -289t-304 -82q-102 0 -244 29l23 258 q127 -18 209 -19q92 0 133 31t57 131l4 25h-272l-250 1060h402l118 -796h43z" glyph-name="uni1EF7" horiz-adv-x="1097" unicode="ỷ"/><glyph d="M498 1708q-61 0 -76 -100h-158q0 141 65.5 229t172.5 88q76 0 151 -51l76 -53q33 -23 59 -23q53 0 72 103h156q0 -150 -63.5 -234t-172.5 -84q-84 0 -147 49l-78 58q-26 18 -57 18zM1264 1434l-437 -961v-473h-399v494l-424 940h412l202 -594h27l211 594h408z" glyph-name="uni1EF8" horiz-adv-x="1267" unicode="Ỹ"/><glyph d="M416 1401q-61 0 -76 -101h-158q0 141 65.5 229.5t172.5 88.5q76 0 151 -51l76 -54q33 -23 60 -22q53 0 71 102h156q0 -150 -63.5 -233.5t-172.5 -83.5q-84 0 -147 49l-78 57q-26 19 -57 19zM692 1126h402l-277 -1144q-49 -207 -167 -289t-304 -82q-102 0 -244 29l23 258 q127 -18 209 -19q92 0 133 31t57 131l4 25h-272l-250 1060h402l118 -796h43z" glyph-name="uni1EF9" horiz-adv-x="1097" unicode="ỹ"/><glyph glyph-name="uni2009" horiz-adv-x="204" unicode=" "/><glyph d="M115 772h1020v-274h-1020v274z" glyph-name="endash" horiz-adv-x="1249" unicode="–"/><glyph d="M115 772h1593v-274h-1593v274z" glyph-name="emdash" horiz-adv-x="1824" unicode="—"/><glyph d="M162 70h1169v-238h-1169v238zM162 -258h1169v-238h-1169v238z" glyph-name="underscoredbl" horiz-adv-x="1492" unicode="‗"/><glyph d="M408 1176h165v-383h-411v383l145 409h242z" glyph-name="quoteleft" horiz-adv-x="735" unicode="‘"/><glyph d="M162 1585h411v-383l-143 -409h-244l142 409h-166v383z" glyph-name="quoteright" horiz-adv-x="735" unicode="’"/><glyph d="M162 383h411v-383l-143 -410h-244l142 410h-166v383z" glyph-name="quotesinglbase" horiz-adv-x="735" unicode="‚"/><glyph d="M494 1585l-142 -409h166v-383h-412v383l146 409h242zM891 1176h166v-383h-412v383l146 409h241z" glyph-name="quotedblleft" horiz-adv-x="1167" unicode="“"/><glyph d="M106 1202v383h412v-383l-143 -409h-244l141 409h-166zM645 1585h412v-383l-144 -409h-243l141 409h-166v383z" glyph-name="quotedblright" horiz-adv-x="1167" unicode="”"/><glyph d="M106 0v383h412v-383l-143 -410h-244l141 410h-166zM645 383h412v-383l-144 -410h-243l141 410h-166v383z" glyph-name="quotedblbase" horiz-adv-x="1167" unicode="„"/><glyph d="M1104 981v-285h-363v-1065h-329v1065h-363v285h363v500h329v-500h363z" glyph-name="dagger" horiz-adv-x="1150" unicode="†"/><glyph d="M1114 731h-362v-348h362v-285h-362v-467h-328v467h-363v285h363v348h-363v285h363v465h328v-465h362v-285z" glyph-name="daggerdbl" horiz-adv-x="1173" unicode="‡"/><glyph d="M454.5 358q-155.5 0 -265 110t-109.5 265.5t109.5 265t265 109.5t265 -109.5t109.5 -265t-109.5 -265.5t-265 -110z" glyph-name="bullet" horiz-adv-x="907" unicode="•"/><glyph d="M162 0v383h411v-383h-411zM793 0v383h411v-383h-411zM1425 0v383h412v-383h-412z" glyph-name="ellipsis" horiz-adv-x="1996" unicode="…"/><glyph d="M291 -20l887 1474h258l-887 -1474h-258zM406 602q-180 0 -248 102.5t-68 317.5q0 242 77 333t236 91q180 0 248 -102.5t68 -317.5q0 -242 -76.5 -333t-236.5 -91zM406 786q41 0 55 47.5t14 190.5t-14.5 190.5t-57.5 47.5q-41 0 -55 -46.5t-14 -191.5q0 -143 14.5 -190.5 t57.5 -47.5zM1331 -12q-180 0 -248.5 102.5t-68.5 317.5q0 242 76.5 332.5t236.5 90.5q180 0 247.5 -102t67.5 -317q0 -242 -75.5 -333t-235.5 -91zM2030 -12q-180 0 -249 102.5t-69 317.5q0 242 77 332.5t236 90.5q180 0 248 -102t68 -317q0 -242 -75.5 -333t-235.5 -91z M1329 172q43 0 57.5 47t14.5 190.5t-14.5 190.5t-57.5 47q-41 0 -56.5 -48t-15.5 -189q0 -143 14.5 -190.5t57.5 -47.5zM2028 172q43 0 57 47t14 190.5t-14 190.5t-57 47q-41 0 -55.5 -47t-14.5 -190q0 -145 14.5 -191.5t55.5 -46.5z" glyph-name="perthousand" horiz-adv-x="2430" unicode="‰"/><glyph d="M487 1114v-270l-243 -271l243 -270v-270l-452 381v319z" glyph-name="guilsinglleft" horiz-adv-x="555" unicode="‹"/><glyph d="M68 1114l452 -381v-319l-452 -381v270l245 270l-245 271v270z" glyph-name="guilsinglright" horiz-adv-x="555" unicode="›"/><glyph d="M43 -41l596 1516h246l-596 -1516h-246z" glyph-name="fraction" horiz-adv-x="925" unicode="⁄"/><glyph d="M1055 346l55 -313q-131 -53 -326 -53q-281 0 -417 123.5t-168 373.5h-138v193h125v37q0 49 2 73h-127v191h144q41 270 179 376.5t392 106.5q178 0 307 -47l-28 -317q-96 41 -232 40q-90 0 -138 -34.5t-69 -124.5h342v-191h-362v-63v-47h299v-193h-283q20 -98 69.5 -136 t141.5 -38q140 0 232 43z" glyph-name="Euro" horiz-adv-x="1177" unicode="€"/><glyph d="M1839 614q-215 0 -299 105.5t-84 310.5q0 231 97.5 322.5t285.5 91.5q215 0 300 -105.5t85 -308.5q0 -233 -97.5 -324.5t-287.5 -91.5zM932 500v934h352v-1434h-536l-230 940h-22v-940h-351v1434h541l223 -934h23zM1839 1229q-47 0 -63.5 -40t-16.5 -159 q0 -121 16.5 -161t63.5 -40t63.5 40t16.5 161q0 119 -16.5 159t-63.5 40zM1456 270v252h768v-252h-768z" glyph-name="afii61352" horiz-adv-x="2293" unicode="№"/><glyph d="M526 1434v-156h-141v-561h-205v561h-143v156h489zM1321 1434v-717h-186v469h-7l-86 -297v-6h-168v6l-86 297h-4v-469h-186v717h252l106 -349h5l108 349h252z" glyph-name="trademark" horiz-adv-x="1460" unicode="™"/><glyph d="M1040 1475h246l-596 -1516h-246zM586 754v-197h-559v197h161v479l-145 -41l-35 190l180 52h250v-680h148zM1165 877h559v-207l-286 -670h-246l283 655v25h-310v197z" glyph-name="uni2150" horiz-adv-x="1744" unicode="⅐"/><glyph d="M1040 1475h246l-596 -1516h-246zM586 754v-197h-559v197h161v479l-145 -41l-35 190l180 52h250v-680h148zM1413 891q184 0 253 -67.5t69 -219.5q0 -209 -111 -397q-66 -119 -149 -207h-269q98 106 187 244q29 45 47 84h-15q-41 -10 -86 -11q-121 0 -178 64.5t-57 216.5 q0 166 74.5 229.5t234.5 63.5zM1348 588q0 -57 15 -76.5t54 -19.5q43 0 58.5 21.5t15.5 78.5q0 61 -15.5 81.5t-56.5 20.5q-43 0 -57 -22.5t-14 -83.5z" glyph-name="uni2151" horiz-adv-x="1763" unicode="⅑"/><glyph d="M1040 1475h246l-596 -1516h-246zM586 754v-197h-559v197h161v479l-145 -41l-35 190l180 52h250v-680h148zM2101 891q186 0 258 -111.5t72 -341.5q0 -256 -81 -353t-249 -97q-188 0 -258.5 109.5t-70.5 340.5q0 256 80.5 354.5t248.5 98.5zM1565 877v-680h147v-197h-559 v197h162v479l-146 -41l-34 190l180 52h250zM2101 180q45 0 59.5 52.5t14.5 205.5q0 156 -15.5 208t-58.5 52q-45 0 -59 -52t-14 -207.5t15 -207t58 -51.5z" glyph-name="uni2152" horiz-adv-x="2473" unicode="⅒"/><glyph d="M1040 1475h246l-596 -1516h-246zM586 754v-197h-559v197h161v479l-145 -41l-35 190l180 52h250v-680h148zM1606 463q109 -39 108 -193q0 -160 -83 -221t-255 -61q-154 0 -233 32l18 201q76 -33 203 -33q51 0 73.5 19.5t22.5 66.5q0 53 -18.5 73t-67.5 20h-121v178h109 q45 0 61.5 16.5t16.5 59.5q0 47 -18.5 62t-67.5 15q-117 0 -174 -26l-17 190q63 29 207 29q170 0 247 -55.5t77 -182.5q0 -137 -88 -184v-6z" glyph-name="onethird" horiz-adv-x="1755" unicode="⅓"/><glyph d="M1051 1475h245l-596 -1516h-245zM588 754v-197h-568v166q0 86 31 143.5t125 145.5l133 123q25 25 25 55q0 35 -16.5 47t-65.5 12q-61 0 -164 -16l-18 194q129 20 213 21q152 0 228.5 -55.5t76.5 -182.5q0 -111 -94 -196l-146 -133q-63 -57 -65 -127h305zM1616 463 q109 -39 108 -193q0 -160 -82.5 -221t-255.5 -61q-154 0 -233 32l18 201q76 -33 203 -33q51 0 73.5 19.5t22.5 66.5q0 53 -18 73t-68 20h-120v178h108q45 0 61.5 16.5t16.5 59.5q0 47 -18.5 62t-67.5 15q-117 0 -174 -26l-16 190q63 29 206 29q170 0 247 -55.5t77 -182.5 q0 -137 -88 -184v-6z" glyph-name="twothirds" horiz-adv-x="1765" unicode="⅔"/><glyph d="M1040 1475h246l-596 -1516h-246zM586 754v-197h-559v197h161v479l-145 -41l-35 190l180 52h250v-680h148zM1413 557q176 0 239.5 -64.5t63.5 -205.5q0 -170 -89 -234.5t-263 -64.5q-162 0 -236 30l11 203q72 -27 215 -26q59 0 83.5 20.5t24.5 69.5q0 53 -20.5 71.5 t-71.5 18.5h-211l17 502h510v-197h-271z" glyph-name="uni2155" horiz-adv-x="1746" unicode="⅕"/><glyph d="M1051 1475h245l-596 -1516h-245zM588 754v-197h-568v166q0 86 31 143.5t125 145.5l133 123q25 25 25 55q0 35 -16.5 47t-65.5 12q-61 0 -164 -16l-18 194q129 20 213 21q152 0 228.5 -55.5t76.5 -182.5q0 -111 -94 -196l-146 -133q-63 -57 -65 -127h305zM1423 557 q176 0 239.5 -64.5t63.5 -205.5q0 -170 -89 -234.5t-263 -64.5q-162 0 -235 30l10 203q72 -27 215 -26q59 0 84 20.5t25 69.5q0 53 -20.5 71.5t-72.5 18.5h-211l17 502h510v-197h-271z" glyph-name="uni2156" horiz-adv-x="1757" unicode="⅖"/><glyph d="M1006 1475h245l-596 -1516h-245zM592 827q0 -160 -83 -221t-255 -61q-154 0 -234 33l19 200q76 -33 203 -33q51 0 73.5 19.5t22.5 66.5q0 53 -18.5 73t-67.5 20h-121v178h109q45 0 61 16.5t16 59.5q0 47 -18 62t-68 15q-117 0 -174 -26l-16 190q63 29 207 29 q170 0 246.5 -55.5t76.5 -182.5q0 -137 -88 -184v-6q109 -39 109 -193zM1378 557q176 0 239.5 -64.5t63.5 -205.5q0 -170 -89 -234.5t-263 -64.5q-162 0 -235 30l10 203q72 -27 215 -26q59 0 83.5 20.5t24.5 69.5q0 53 -20.5 71.5t-71.5 18.5h-211l17 502h510v-197h-271z " glyph-name="uni2157" horiz-adv-x="1712" unicode="⅗"/><glyph d="M1143 1475h246l-596 -1516h-246zM629 557h-215v156h-377v221l203 500h219l-185 -504v-23h140v232h215v-232h80v-194h-80v-156zM1516 557q176 0 239.5 -64.5t63.5 -205.5q0 -170 -89.5 -234.5t-263.5 -64.5q-162 0 -235 30l10 203q72 -27 215 -26q59 0 84 20.5t25 69.5 q0 53 -20.5 71.5t-71.5 18.5h-211l16 502h510v-197h-270z" glyph-name="uni2158" horiz-adv-x="1849" unicode="⅘"/><glyph d="M1040 1475h246l-596 -1516h-246zM586 754v-197h-559v197h161v479l-145 -41l-35 190l180 52h250v-680h148zM1421 559q121 0 180.5 -63.5t59.5 -214.5q0 -168 -75 -230.5t-236 -62.5q-186 0 -254 67.5t-68 218.5q0 201 111 396q57 104 149 207h268q-102 -113 -186 -242 q-41 -68 -49 -86h14q41 10 86 10zM1346 182q43 0 57 23.5t14 83.5q0 57 -15.5 77.5t-53.5 20.5q-43 0 -58.5 -21.5t-15.5 -78.5q0 -61 15.5 -83t56.5 -22z" glyph-name="uni2159" horiz-adv-x="1681" unicode="⅙"/><glyph d="M1047 1475h245l-596 -1516h-245zM643 844q0 -170 -89 -234.5t-263 -64.5q-162 0 -236 30l11 203q72 -27 215 -26q59 0 83.5 20.5t24.5 69.5q0 53 -20.5 71.5t-71.5 18.5h-211l16 502h510v-197h-270l-2 -123q176 0 239.5 -64.5t63.5 -205.5zM1427 559q121 0 180.5 -63.5 t59.5 -214.5q0 -168 -74.5 -230.5t-236.5 -62.5q-186 0 -254 67.5t-68 218.5q0 201 111 396q57 104 149 207h269q-102 -113 -187 -242q-41 -68 -49 -86h14q41 10 86 10zM1352 182q43 0 57 23.5t14 83.5q0 57 -15 77.5t-54 20.5q-43 0 -58.5 -21.5t-15.5 -78.5 q0 -61 15.5 -83t56.5 -22z" glyph-name="uni215A" horiz-adv-x="1687" unicode="⅚"/><glyph d="M1040 1475h246l-596 -1516h-246zM586 754v-197h-559v197h161v479l-145 -41l-35 190l180 52h250v-680h148zM1614 457q141 -45 141 -209q0 -147 -83 -203.5t-251 -56.5q-190 0 -263 64.5t-73 195.5q0 164 142 209v6q-115 45 -115 190q0 135 78 186.5t231 51.5 q174 0 241 -61.5t67 -182.5q0 -139 -115 -184v-6zM1421 702q-43 0 -57 -17t-14 -64q0 -49 15 -67.5t56 -18.5t55.5 18t14.5 67.5t-15.5 65.5t-54.5 16zM1421 180q47 0 64.5 19.5t17.5 72.5q0 55 -18.5 76t-63.5 21q-49 0 -65.5 -20.5t-16.5 -76t17.5 -74t64.5 -18.5z" glyph-name="oneeighth" horiz-adv-x="1794" unicode="⅛"/><glyph d="M1006 1475h245l-596 -1516h-245zM592 827q0 -160 -83 -221t-255 -61q-154 0 -234 33l19 200q76 -33 203 -33q51 0 73.5 19.5t22.5 66.5q0 53 -18.5 73t-67.5 20h-121v178h109q45 0 61 16.5t16 59.5q0 47 -18 62t-68 15q-117 0 -174 -26l-16 190q63 29 207 29 q170 0 246.5 -55.5t76.5 -182.5q0 -137 -88 -184v-6q109 -39 109 -193zM1579 457q141 -45 141 -209q0 -147 -83 -203.5t-251 -56.5q-190 0 -262.5 64.5t-72.5 195.5q0 164 141 209v6q-115 45 -115 190q0 135 78 186.5t231 51.5q174 0 241 -61.5t67 -182.5q0 -139 -115 -184 v-6zM1386 702q-43 0 -57 -17t-14 -64q0 -49 15.5 -67.5t56 -18.5t55 18t14.5 67.5t-15.5 65.5t-54.5 16zM1386.5 180q47.5 0 64.5 19.5t17 72.5q0 55 -18 76t-64 21q-49 0 -65 -20.5t-16 -76t17 -74t64.5 -18.5z" glyph-name="threeeighths" horiz-adv-x="1759" unicode="⅜"/><glyph d="M1047 1475h245l-596 -1516h-245zM643 844q0 -170 -89 -234.5t-263 -64.5q-162 0 -236 30l11 203q72 -27 215 -26q59 0 83.5 20.5t24.5 69.5q0 53 -20.5 71.5t-71.5 18.5h-211l16 502h510v-197h-270l-2 -123q176 0 239.5 -64.5t63.5 -205.5zM1620 457q141 -45 141 -209 q0 -147 -83 -203.5t-251 -56.5q-190 0 -262.5 64.5t-72.5 195.5q0 164 141 209v6q-115 45 -115 190q0 135 78 186.5t231 51.5q174 0 241 -61.5t67 -182.5q0 -139 -115 -184v-6zM1427 702q-43 0 -57 -17t-14 -64q0 -49 15 -67.5t56 -18.5t55.5 18t14.5 67.5t-15.5 65.5 t-54.5 16zM1427.5 180q47.5 0 64.5 19.5t17 72.5q0 55 -18 76t-64 21q-49 0 -65 -20.5t-16 -76t17 -74t64.5 -18.5z" glyph-name="fiveeighths" horiz-adv-x="1800" unicode="⅝"/><glyph d="M885 1475h245l-595 -1516h-246zM45 557l283 655v25h-310v197h560v-207l-287 -670h-246zM1458 457q141 -45 141 -209q0 -147 -82.5 -203.5t-250.5 -56.5q-190 0 -263 64.5t-73 195.5q0 164 141 209v6q-115 45 -115 190q0 135 78 186.5t232 51.5q174 0 240.5 -61.5 t66.5 -182.5q0 -139 -115 -184v-6zM1266 702q-43 0 -57.5 -17t-14.5 -64q0 -49 15.5 -67.5t56.5 -18.5t55 18t14 67.5t-15 65.5t-54 16zM1266 180q47 0 64.5 19.5t17.5 72.5q0 55 -18.5 76t-63.5 21q-49 0 -65.5 -20.5t-16.5 -76t17.5 -74t64.5 -18.5z" glyph-name="seveneighths" horiz-adv-x="1638" unicode="⅞"/><glyph d="M1040 1475h246l-596 -1516h-246zM586 754v-197h-559v197h161v479l-145 -41l-35 190l180 52h250v-680h148z" glyph-name="uni215F" horiz-adv-x="1327" unicode="⅟"/><glyph d="M133 721h1032v-291h-1032v291z" glyph-name="minus" horiz-adv-x="1300" unicode="−"/><glyph d="M342 557l-211 70q0 150 89 249t229 99q92 0 186 -55l153 -95q29 -16 62 -16q82 0 108 133l209 -70q0 -156 -90 -252t-227 -96q-96 0 -186 56l-154 92q-35 18 -61 18q-80 0 -107 -133zM342 96l-211 70q0 150 89 249t229 99q92 0 186 -55l153 -94q29 -16 62 -17 q82 0 108 133l209 -69q0 -156 -90 -252.5t-227 -96.5q-96 0 -186 56l-154 92q-33 18 -61 18q-80 0 -107 -133z" glyph-name="approxequal" horiz-adv-x="1300" unicode="≈"/><glyph d="M1161 657h-348l-51 -149h399v-291h-495l-76 -225h-273l76 225h-256v291h352l52 149h-404v291h500l72 215h272l-72 -215h252v-291z" glyph-name="notequal" horiz-adv-x="1300" unicode="≠"/><glyph d="M1106 1028l-606 -190v-37l606 -189v-313l-911 311v420l911 309v-311zM195 -78v291h911v-291h-911z" glyph-name="lessequal" horiz-adv-x="1300" unicode="≤"/><glyph d="M195 1339l911 -309v-420l-911 -311v313l606 189v37l-606 190v311zM195 -78v291h911v-291h-911z" glyph-name="greaterequal" horiz-adv-x="1300" unicode="≥"/><glyph d="M870.5 -20q-319.5 0 -527.5 206.5t-208 530t208 530.5t527.5 207t527.5 -207t208 -530.5t-208 -530t-527.5 -206.5zM870.5 125q247.5 0 408.5 166t161 426t-161 426t-409 166q-242 0 -404.5 -167t-162.5 -425q0 -260 160 -426t407.5 -166zM602 291v196h162v480l-148 -41 l-32 190l180 51h248v-680h147v-196h-557z" glyph-name="uni2460" horiz-adv-x="1740" unicode="①"/><glyph d="M870.5 -20q-319.5 0 -527.5 206.5t-208 530t208 530.5t527.5 207t527.5 -207t208 -530.5t-208 -530t-527.5 -206.5zM870.5 125q247.5 0 408.5 166t161 426t-161 426t-409 166q-242 0 -404.5 -167t-162.5 -425q0 -260 160 -426t407.5 -166zM588 291v166q0 86 30.5 144 t122.5 144l133 123q25 23 25 56q0 35 -16.5 47t-65.5 12q-61 0 -164 -16l-16 194q113 18 213 19q152 0 228.5 -55.5t76.5 -180.5q0 -109 -96 -196l-146 -134q-63 -61 -63 -116v-11h305v-196h-567z" glyph-name="uni2461" horiz-adv-x="1740" unicode="②"/><glyph d="M870.5 -20q-319.5 0 -527.5 206.5t-208 530t208 530.5t527.5 207t527.5 -207t208 -530.5t-208 -530t-527.5 -206.5zM870.5 125q247.5 0 408.5 166t161 426t-161 426t-409 166q-242 0 -404.5 -167t-162.5 -425q0 -260 160 -426t407.5 -166zM838 276q-156 0 -234 35l19 201 q76 -33 204 -33q51 0 73 19.5t22 66.5q0 55 -18.5 73.5t-67.5 18.5h-123v179h112q45 0 60.5 16t15.5 59q0 47 -18.5 62.5t-65.5 15.5q-115 0 -176 -26l-16 190q59 27 206 27q170 0 247 -54.5t77 -181.5q0 -137 -86 -184v-6q106 -41 107 -193q0 -160 -84 -222.5t-254 -62.5z " glyph-name="uni2462" horiz-adv-x="1740" unicode="③"/><glyph d="M870.5 -20q-319.5 0 -527.5 206.5t-208 530t208 530.5t527.5 207t527.5 -207t208 -530.5t-208 -530t-527.5 -206.5zM870.5 125q247.5 0 408.5 166t161 426t-161 426t-409 166q-242 0 -404.5 -167t-162.5 -425q0 -260 160 -426t407.5 -166zM899 293v156h-377v221l201 499 h221l-186 -503v-21h141v229h213v-229h80v-196h-80v-156h-213z" glyph-name="uni2463" horiz-adv-x="1740" unicode="④"/><glyph d="M870.5 -20q-319.5 0 -527.5 206.5t-208 530t208 530.5t527.5 207t527.5 -207t208 -530.5t-208 -530t-527.5 -206.5zM870.5 125q247.5 0 408.5 166t161 426t-161 426t-409 166q-242 0 -404.5 -167t-162.5 -425q0 -260 160 -426t407.5 -166zM813 276q-156 0 -235 33l10 203 q70 -27 213 -27q61 0 84.5 20.5t23.5 69.5q0 53 -19.5 72t-68.5 19h-213l17 501h508v-196h-267l-6 -123h8q172 0 234.5 -64.5t62.5 -205.5q0 -170 -89 -236t-263 -66z" glyph-name="uni2464" horiz-adv-x="1740" unicode="⑤"/><glyph d="M870.5 -20q-319.5 0 -527.5 206.5t-208 530t208 530.5t527.5 207t527.5 -207t208 -530.5t-208 -530t-527.5 -206.5zM870.5 125q247.5 0 408.5 166t161 426t-161 426t-409 166q-242 0 -404.5 -167t-162.5 -425q0 -260 160 -426t407.5 -166zM858 287q-184 0 -251.5 67.5 t-67.5 218.5q0 201 108 398q57 104 150 207h268q-102 -117 -186 -242q-27 -47 -50 -86h13q41 10 90 10q121 0 179 -64.5t58 -215.5q0 -166 -74.5 -229.5t-236.5 -63.5zM854 485q43 0 57.5 22.5t14.5 82.5q0 57 -16.5 76.5t-55.5 19.5q-41 0 -56.5 -21.5t-15.5 -76.5 q0 -61 15.5 -82t56.5 -21z" glyph-name="uni2465" horiz-adv-x="1740" unicode="⑥"/><glyph d="M870.5 -20q-319.5 0 -527.5 206.5t-208 530t208 530.5t527.5 207t527.5 -207t208 -530.5t-208 -530t-527.5 -206.5zM870.5 125q247.5 0 408.5 166t161 426t-161 426t-409 166q-242 0 -404.5 -167t-162.5 -425q0 -260 160 -426t407.5 -166zM637 266l283 658v22h-310v197 h559v-209l-286 -668h-246z" glyph-name="uni2466" horiz-adv-x="1740" unicode="⑦"/><glyph d="M870.5 -20q-319.5 0 -527.5 206.5t-208 530t208 530.5t527.5 207t527.5 -207t208 -530.5t-208 -530t-527.5 -206.5zM870.5 125q247.5 0 408.5 166t161 426t-161 426t-409 166q-242 0 -404.5 -167t-162.5 -425q0 -260 160 -426t407.5 -166zM870 279q-188 0 -259.5 63.5 t-71.5 196.5q0 162 139 206v9q-115 45 -115 190q0 135 77 186.5t230 51.5q174 0 242 -61.5t68 -182.5q0 -137 -113 -184v-9q137 -45 137 -206q0 -150 -82 -205t-252 -55zM870 825q43 0 57.5 18.5t14.5 68t-14.5 65.5t-57.5 16q-41 0 -55 -17.5t-14 -64.5q0 -49 15 -67.5 t54 -18.5zM870 471q49 0 65.5 19.5t16.5 72.5q0 55 -17 75.5t-64.5 20.5t-63.5 -20.5t-16 -75.5t16 -73.5t63 -18.5z" glyph-name="uni2467" horiz-adv-x="1740" unicode="⑧"/><glyph d="M870.5 -20q-319.5 0 -527.5 206.5t-208 530t208 530.5t527.5 207t527.5 -207t208 -530.5t-208 -530t-527.5 -206.5zM870.5 125q247.5 0 408.5 166t161 426t-161 426t-409 166q-242 0 -404.5 -167t-162.5 -425q0 -260 160 -426t407.5 -166zM659 283q84 94 185 243 q33 49 49 84h-19q-37 -10 -81 -10q-121 0 -179.5 64.5t-58.5 216.5q0 166 75 228t234 62q186 0 254 -67.5t68 -218.5q0 -211 -111 -396q-66 -115 -147 -206h-269zM868 774q43 0 58.5 21.5t15.5 78.5q0 59 -15.5 81t-56.5 22q-43 0 -57 -23.5t-14 -83.5q0 -57 15 -76.5 t54 -19.5z" glyph-name="uni2468" horiz-adv-x="1740" unicode="⑨"/><glyph d="M870.5 -20q-319.5 0 -527.5 206.5t-208 530t208 530.5t527.5 207t527.5 -207t208 -530.5t-208 -530t-527.5 -206.5zM870.5 125q247.5 0 408.5 166t161 426t-161 426t-409 166q-242 0 -404.5 -167t-162.5 -425q0 -260 160 -426t407.5 -166zM870 276q-186 0 -256.5 111 t-70.5 342q0 256 79.5 353.5t247.5 97.5q188 0 259 -109.5t71 -341.5q0 -258 -80 -355.5t-250 -97.5zM870 471q45 0 60.5 52t15.5 206t-16.5 207t-59.5 53q-45 0 -59 -53t-14 -207t15 -206t58 -52z" glyph-name="uni24EA" horiz-adv-x="1740" unicode="⓪"/><glyph d="M870.5 -20q-319.5 0 -527.5 206.5t-208 530t208 530.5t527.5 207t527.5 -207t208 -530.5t-208 -530t-527.5 -206.5zM870 276q170 0 250 97.5t80 355.5q0 231 -70.5 341t-259.5 110q-168 0 -247.5 -97.5t-79.5 -353.5q0 -231 70.5 -342t256.5 -111zM870 471q-43 0 -58 52 t-15 206t14 207t59 53q43 0 59.5 -53t16.5 -207t-15.5 -206t-60.5 -52z" glyph-name="uni24FF" horiz-adv-x="1740" unicode="⓿"/><glyph d="M870.5 -20q-319.5 0 -527.5 206.5t-208 530t208 530.5t527.5 207t527.5 -207t208 -530.5t-208 -530t-527.5 -206.5zM602 291h557v196h-147v680h-248l-180 -51l32 -190l148 41v-480h-162v-196z" glyph-name="uni2776" horiz-adv-x="1740" unicode="❶"/><glyph d="M870.5 -20q-319.5 0 -527.5 206.5t-208 530t208 530.5t527.5 207t527.5 -207t208 -530.5t-208 -530t-527.5 -206.5zM588 291h567v196h-305v11q6 61 63 116l146 134q96 88 96 196q0 125 -77 180.5t-228 55.5q-100 0 -213 -19l16 -194q102 16 164 16q49 0 65.5 -12.5 t16.5 -46.5q0 -33 -25 -56l-133 -123q-92 -86 -122.5 -144t-30.5 -144v-166z" glyph-name="uni2777" horiz-adv-x="1740" unicode="❷"/><glyph d="M870.5 -20q-319.5 0 -527.5 206.5t-208 530t208 530.5t527.5 207t527.5 -207t208 -530.5t-208 -530t-527.5 -206.5zM838 276q170 0 254 62.5t84 222.5q0 152 -107 193v6q86 47 86 184q0 127 -77 181.5t-247 54.5q-147 0 -206 -27l16 -190q61 27 176 26q47 0 65.5 -15.5 t18.5 -62.5q0 -43 -15.5 -59t-60.5 -16h-112v-179h123q49 0 67.5 -18t18.5 -74q0 -47 -21.5 -66.5t-73.5 -19.5q-129 0 -204 33l-19 -201q78 -35 234 -35z" glyph-name="uni2778" horiz-adv-x="1740" unicode="❸"/><glyph d="M870.5 -20q-319.5 0 -527.5 206.5t-208 530t208 530.5t527.5 207t527.5 -207t208 -530.5t-208 -530t-527.5 -206.5zM899 293h213v156h80v196h-80v229h-213v-229h-141v21l186 503h-221l-201 -499v-221h377v-156z" glyph-name="uni2779" horiz-adv-x="1740" unicode="❹"/><glyph d="M870.5 -20q-319.5 0 -527.5 206.5t-208 530t208 530.5t527.5 207t527.5 -207t208 -530.5t-208 -530t-527.5 -206.5zM813 276q174 0 263 66t89 236q0 141 -62.5 205.5t-234.5 64.5h-8l6 123h267v196h-508l-17 -501h213q49 0 68.5 -18.5t19.5 -72.5q0 -49 -23.5 -69.5 t-84.5 -20.5q-143 0 -213 27l-10 -203q79 -33 235 -33z" glyph-name="uni277A" horiz-adv-x="1740" unicode="❺"/><glyph d="M870.5 -20q-319.5 0 -527.5 206.5t-208 530t208 530.5t527.5 207t527.5 -207t208 -530.5t-208 -530t-527.5 -206.5zM858 287q162 0 236.5 63.5t74.5 229.5q0 152 -58 216t-179 64q-49 0 -90 -10h-13q23 39 50 86q84 125 186 242h-268q-92 -102 -150 -207 q-109 -197 -108 -398q0 -152 67.5 -219t251.5 -67zM854 485q-41 0 -56.5 20.5t-15.5 82.5q0 55 15.5 76.5t56.5 21.5q39 0 55.5 -19.5t16.5 -76.5q0 -59 -14.5 -82t-57.5 -23z" glyph-name="uni277B" horiz-adv-x="1740" unicode="❻"/><glyph d="M870.5 -20q-319.5 0 -527.5 206.5t-208 530t208 530.5t527.5 207t527.5 -207t208 -530.5t-208 -530t-527.5 -206.5zM637 289h246l286 669v207h-559v-196h310v-23z" glyph-name="uni277C" horiz-adv-x="1740" unicode="❼"/><glyph d="M870.5 -20q-319.5 0 -527.5 206.5t-208 530t208 530.5t527.5 207t527.5 -207t208 -530.5t-208 -530t-527.5 -206.5zM870 279q170 0 252 55t82 205q0 162 -137 206v9q113 47 113 184q0 121 -68 182.5t-242 61.5q-154 0 -230.5 -51.5t-76.5 -186.5q0 -145 115 -190v-9 q-139 -45 -139 -206q0 -133 71.5 -196.5t259.5 -63.5zM870 825q-39 0 -54 18.5t-15 67.5q0 47 14 64.5t55 17.5q43 0 57.5 -16t14.5 -65.5t-14.5 -68t-57.5 -18.5zM870 471q-47 0 -63 18.5t-16 73.5t16 75.5t63.5 20.5t64.5 -20.5t17 -75.5q0 -53 -16.5 -72.5t-65.5 -19.5z " glyph-name="uni277D" horiz-adv-x="1740" unicode="❽"/><glyph d="M870.5 -20q-319.5 0 -527.5 206.5t-208 530t208 530.5t527.5 207t527.5 -207t208 -530.5t-208 -530t-527.5 -206.5zM659 283h269q82 92 147 206q111 184 111 396q0 152 -67.5 219t-254.5 67q-160 0 -234.5 -62t-74.5 -228q0 -152 58.5 -216.5t179.5 -64.5q45 0 81 10h19 q-16 -35 -49 -84q-101 -149 -185 -243zM868 774q-39 0 -54 19.5t-15 76.5q0 59 14 83t57 24q41 0 56.5 -21.5t15.5 -81.5q0 -57 -15.5 -78.5t-58.5 -21.5z" glyph-name="uni277E" horiz-adv-x="1740" unicode="❾"/><glyph d="M692 1126h383v-1110l-344 -30l-20 129h-17q-59 -135 -233 -135q-115 0 -194 39.5t-123 119.5t-61 179.5t-17 234.5q0 332 100 463t295 131q154 0 215 -103h16v82zM459 561q0 -178 25.5 -239.5t95.5 -61.5q63 0 87.5 41t24.5 154v217q0 115 -23.5 154.5t-88.5 39.5 q-70 0 -95.5 -64.5t-25.5 -240.5z" glyph-name="a.ss01" horiz-adv-x="1189"/><glyph d="M952 1704l-264 -408h-235l172 408h327zM692 1126h383v-1110l-344 -30l-20 129h-17q-59 -135 -233 -135q-115 0 -194 39.5t-123 119.5t-61 179.5t-17 234.5q0 332 100 463t295 131q154 0 215 -103h16v82zM459 561q0 -178 25.5 -239.5t95.5 -61.5q63 0 87.5 41t24.5 154 v217q0 115 -23.5 154.5t-88.5 39.5q-70 0 -95.5 -64.5t-25.5 -240.5z" glyph-name="aacute.aalt" horiz-adv-x="1189"/><glyph d="M569 1262q-201 0 -279.5 81.5t-78.5 241.5v39h211v-25q0 -66 32.5 -95t112.5 -29q74 0 109 24.5t35 99.5v25h213v-39q0 -182 -90.5 -252.5t-264.5 -70.5zM692 1126h383v-1110l-344 -30l-20 129h-17q-59 -135 -233 -135q-115 0 -194 39.5t-123 119.5t-61 179.5t-17 234.5 q0 332 100 463t295 131q154 0 215 -103h16v82zM459 561q0 -178 25.5 -239.5t95.5 -61.5q63 0 87.5 41t24.5 154v217q0 115 -23.5 154.5t-88.5 39.5q-70 0 -95.5 -64.5t-25.5 -240.5z" glyph-name="abreve.aalt" horiz-adv-x="1189"/><glyph d="M944 2071l-264 -408h-234l170 408h328zM569 1262q-201 0 -279.5 81.5t-78.5 241.5v39h211v-25q0 -66 32.5 -95t112.5 -29q74 0 109 24.5t35 99.5v25h213v-39q0 -182 -90.5 -252.5t-264.5 -70.5zM692 1126h383v-1110l-344 -30l-20 129h-17q-59 -135 -233 -135 q-115 0 -194 39.5t-123 119.5t-61 179.5t-17 234.5q0 332 100 463t295 131q154 0 215 -103h16v82zM459 561q0 -178 25.5 -239.5t95.5 -61.5q63 0 87.5 41t24.5 154v217q0 115 -23.5 154.5t-88.5 39.5q-70 0 -95.5 -64.5t-25.5 -240.5z" glyph-name="uni1EAF.aalt" horiz-adv-x="1189"/><glyph d="M569 1262q-201 0 -279.5 81.5t-78.5 241.5v39h211v-25q0 -66 32.5 -95t112.5 -29q74 0 109 24.5t35 99.5v25h213v-39q0 -182 -90.5 -252.5t-264.5 -70.5zM692 1126h383v-1110l-344 -30l-20 129h-17q-59 -135 -233 -135q-115 0 -194 39.5t-123 119.5t-61 179.5t-17 234.5 q0 332 100 463t295 131q154 0 215 -103h16v82zM459 561q0 -178 25.5 -239.5t95.5 -61.5q63 0 87.5 41t24.5 154v217q0 115 -23.5 154.5t-88.5 39.5q-70 0 -95.5 -64.5t-25.5 -240.5zM414 -416v273h305v-273h-305z" glyph-name="uni1EB7.aalt" horiz-adv-x="1189"/><glyph d="M690 1665h-235l-265 408h328zM567 1475q74 0 109 24.5t35 99.5v25h213v-39q0 -182 -90.5 -252.5t-264.5 -70.5q-201 0 -279.5 81.5t-78.5 241.5v39h211v-25q0 -66 32.5 -95t112.5 -29zM692 1126h383v-1110l-344 -30l-20 129h-17q-59 -135 -233 -135q-115 0 -194 39.5 t-123 119.5t-61 179.5t-17 234.5q0 332 100 463t295 131q154 0 215 -103h16v82zM459 561q0 -178 25.5 -239.5t95.5 -61.5q63 0 87.5 41t24.5 154v217q0 115 -23.5 154.5t-88.5 39.5q-70 0 -95.5 -64.5t-25.5 -240.5z" glyph-name="uni1EB1.aalt" horiz-adv-x="1189"/><glyph d="M539 1933q-55 0 -107 -6l-14 150q117 16 182 16q129 0 177 -38t48 -126q0 -84 -59 -131l-76 -61q-45 -37 -45 -99h-164q0 78 10.5 113t43.5 59l36 31q43 31 43 55q0 23 -15 30t-60 7zM569 1262q-201 0 -279.5 81.5t-78.5 241.5v39h211v-25q0 -66 32.5 -95t112.5 -29 q74 0 109 24.5t35 99.5v25h213v-39q0 -182 -90.5 -252.5t-264.5 -70.5zM692 1126h383v-1110l-344 -30l-20 129h-17q-59 -135 -233 -135q-115 0 -194 39.5t-123 119.5t-61 179.5t-17 234.5q0 332 100 463t295 131q154 0 215 -103h16v82zM459 561q0 -178 25.5 -239.5 t95.5 -61.5q63 0 87.5 41t24.5 154v217q0 115 -23.5 154.5t-88.5 39.5q-70 0 -95.5 -64.5t-25.5 -240.5z" glyph-name="uni1EB3.aalt" horiz-adv-x="1189"/><glyph d="M430 1819q-57 0 -76 -103h-157q0 141 64.5 229.5t172.5 88.5q74 0 152 -52l76 -51q35 -25 59 -24q57 0 72 100h157q0 -150 -63.5 -231.5t-171.5 -81.5q-84 0 -150 47l-78 57q-24 21 -57 21zM211 1624h211v-25q0 -66 32.5 -95t112.5 -29q74 0 109 24.5t35 99.5v25h213v-39 q0 -182 -90.5 -252.5t-264.5 -70.5q-203 0 -280.5 81.5t-77.5 241.5v39zM692 1126h383v-1110l-344 -30l-20 129h-17q-59 -135 -233 -135q-115 0 -194 39.5t-123 119.5t-61 179.5t-17 234.5q0 332 100 463t295 131q154 0 215 -103h16v82zM459 561q0 -178 25.5 -239.5 t95.5 -61.5q63 0 87.5 41t24.5 154v217q0 115 -23.5 154.5t-88.5 39.5q-70 0 -95.5 -64.5t-25.5 -240.5z" glyph-name="uni1EB5.aalt" horiz-adv-x="1189"/><glyph d="M393 1288l-264 408h250l186 -226l185 226h251l-266 -408h-342zM692 1126h383v-1110l-344 -30l-20 129h-17q-59 -135 -233 -135q-115 0 -194 39.5t-123 119.5t-61 179.5t-17 234.5q0 332 100 463t295 131q154 0 215 -103h16v82zM459 561q0 -178 25.5 -239.5t95.5 -61.5 q63 0 87.5 41t24.5 154v217q0 115 -23.5 154.5t-88.5 39.5q-70 0 -95.5 -64.5t-25.5 -240.5z" glyph-name="uni01CE.aalt" horiz-adv-x="1189"/><glyph d="M569 1513l-186 -225h-250l264 408h342l267 -408h-252zM692 1126h383v-1110l-344 -30l-20 129h-17q-59 -135 -233 -135q-115 0 -194 39.5t-123 119.5t-61 179.5t-17 234.5q0 332 100 463t295 131q154 0 215 -103h16v82zM459 561q0 -178 25.5 -239.5t95.5 -61.5 q63 0 87.5 41t24.5 154v217q0 115 -23.5 154.5t-88.5 39.5q-70 0 -95.5 -64.5t-25.5 -240.5z" glyph-name="acircumflex.aalt" horiz-adv-x="1189"/><glyph d="M1083 1944h328l-262 -408h-236zM569 1513l-186 -225h-250l264 408h342l267 -408h-252zM692 1044v82h383v-1110l-344 -30l-20 129h-17q-59 -135 -233 -135q-115 0 -194 39.5t-123 119.5t-61 179.5t-17 234.5q0 332 100 463t295 131q154 0 215 -103h16zM459 561 q0 -178 25.5 -239.5t95.5 -61.5q63 0 87.5 41t24.5 154v217q0 115 -23.5 154.5t-88.5 39.5q-70 0 -95.5 -64.5t-25.5 -240.5z" glyph-name="uni1EA5.aalt" horiz-adv-x="1189"/><glyph d="M569 1513l-186 -225h-250l264 408h342l267 -408h-252zM692 1126h383v-1110l-344 -30l-20 129h-17q-59 -135 -233 -135q-115 0 -194 39.5t-123 119.5t-61 179.5t-17 234.5q0 332 100 463t295 131q154 0 215 -103h16v82zM459 561q0 -178 25.5 -239.5t95.5 -61.5 q63 0 87.5 41t24.5 154v217q0 115 -23.5 154.5t-88.5 39.5q-70 0 -95.5 -64.5t-25.5 -240.5zM414 -416v273h305v-273h-305z" glyph-name="uni1EAD.aalt" horiz-adv-x="1189"/><glyph d="M1206 1536h-235l-262 408h327zM569 1513l-186 -225h-250l264 408h342l267 -408h-252zM692 1044v82h383v-1110l-344 -30l-20 129h-17q-59 -135 -233 -135q-115 0 -194 39.5t-123 119.5t-61 179.5t-17 234.5q0 332 100 463t295 131q154 0 215 -103h16zM459 561 q0 -178 25.5 -239.5t95.5 -61.5q63 0 87.5 41t24.5 154v217q0 115 -23.5 154.5t-88.5 39.5q-70 0 -95.5 -64.5t-25.5 -240.5z" glyph-name="uni1EA7.aalt" horiz-adv-x="1189"/><glyph d="M1036 1991q129 0 177.5 -38t48.5 -126q0 -80 -60 -129l-76 -64q-45 -37 -45 -98h-166q0 80 10.5 115t43.5 59l39 29q41 31 41 57q0 23 -14.5 30t-59.5 7q-31 0 -109 -4l-12 145q116 17 182 17zM569 1513l-186 -225h-250l264 408h342l267 -408h-252zM692 1044v82h383 v-1110l-344 -30l-20 129h-17q-59 -135 -233 -135q-115 0 -194 39.5t-123 119.5t-61 179.5t-17 234.5q0 332 100 463t295 131q154 0 215 -103h16zM459 561q0 -178 25.5 -239.5t95.5 -61.5q63 0 87.5 41t24.5 154v217q0 115 -23.5 154.5t-88.5 39.5q-70 0 -95.5 -64.5 t-25.5 -240.5z" glyph-name="uni1EA9.aalt" horiz-adv-x="1189"/><glyph d="M424 1888q-59 0 -78 -102h-156q0 141 64.5 229t171.5 88q78 0 154 -51l75 -53q33 -23 58 -23q55 0 73 103h156q2 -152 -61.5 -235t-173.5 -83q-80 0 -148 49l-78 58q-28 20 -57 20zM569 1513l-186 -225h-250l264 408h342l267 -408h-252zM692 1126h383v-1110l-344 -30 l-20 129h-17q-59 -135 -233 -135q-115 0 -194 39.5t-123 119.5t-61 179.5t-17 234.5q0 332 100 463t295 131q154 0 215 -103h16v82zM459 561q0 -178 25.5 -239.5t95.5 -61.5q63 0 87.5 41t24.5 154v217q0 115 -23.5 154.5t-88.5 39.5q-70 0 -95.5 -64.5t-25.5 -240.5z" glyph-name="uni1EAB.aalt" horiz-adv-x="1189"/><glyph d="M440 1294h-225l-281 412h326zM885 1294h-226l-278 412h326zM692 1126h383v-1110l-344 -30l-20 129h-17q-59 -135 -233 -135q-115 0 -194 39.5t-123 119.5t-61 179.5t-17 234.5q0 332 100 463t295 131q154 0 215 -103h16v82zM459 561q0 -178 25.5 -239.5t95.5 -61.5 q63 0 87.5 41t24.5 154v217q0 115 -23.5 154.5t-88.5 39.5q-70 0 -95.5 -64.5t-25.5 -240.5z" glyph-name="uni0201.aalt" horiz-adv-x="1189"/><glyph d="M481 1595v-272h-305v272h305zM956 1595v-272h-305v272h305zM692 1126h383v-1110l-344 -30l-20 129h-17q-59 -135 -233 -135q-115 0 -194 39.5t-123 119.5t-61 179.5t-17 234.5q0 332 100 463t295 131q154 0 215 -103h16v82zM459 561q0 -178 25.5 -239.5t95.5 -61.5 q63 0 87.5 41t24.5 154v217q0 115 -23.5 154.5t-88.5 39.5q-70 0 -95.5 -64.5t-25.5 -240.5z" glyph-name="adieresis.aalt" horiz-adv-x="1189"/><glyph d="M692 1126h383v-1110l-344 -30l-20 129h-17q-59 -135 -233 -135q-115 0 -194 39.5t-123 119.5t-61 179.5t-17 234.5q0 332 100 463t295 131q154 0 215 -103h16v82zM459 561q0 -178 25.5 -239.5t95.5 -61.5q63 0 87.5 41t24.5 154v217q0 115 -23.5 154.5t-88.5 39.5 q-70 0 -95.5 -64.5t-25.5 -240.5zM414 -416v273h305v-273h-305z" glyph-name="uni1EA1.aalt" horiz-adv-x="1189"/><glyph d="M674 1296h-236l-262 408h326zM692 1126h383v-1110l-344 -30l-20 129h-17q-59 -135 -233 -135q-115 0 -194 39.5t-123 119.5t-61 179.5t-17 234.5q0 332 100 463t295 131q154 0 215 -103h16v82zM459 561q0 -178 25.5 -239.5t95.5 -61.5q63 0 87.5 41t24.5 154v217 q0 115 -23.5 154.5t-88.5 39.5q-70 0 -95.5 -64.5t-25.5 -240.5z" glyph-name="agrave.aalt" horiz-adv-x="1189"/><glyph d="M541 1597q-49 0 -109 -6l-14 148q104 14 184 14q129 0 176 -37t47 -125q0 -84 -59 -131l-74 -63q-45 -35 -45 -99h-166q0 82 10.5 117t43.5 60l38 28q41 31 41 58q0 23 -14 29.5t-59 6.5zM692 1126h383v-1110l-344 -30l-20 129h-17q-59 -135 -233 -135q-115 0 -194 39.5 t-123 119.5t-61 179.5t-17 234.5q0 332 100 463t295 131q154 0 215 -103h16v82zM459 561q0 -178 25.5 -239.5t95.5 -61.5q63 0 87.5 41t24.5 154v217q0 115 -23.5 154.5t-88.5 39.5q-70 0 -95.5 -64.5t-25.5 -240.5z" glyph-name="uni1EA3.aalt" horiz-adv-x="1189"/><glyph d="M422 1286v-24h-211v38q0 160 79 242t279 82q174 0 264.5 -69.5t90.5 -254.5v-38h-213v24q0 76 -36 101.5t-108 25.5q-80 0 -112.5 -29.5t-32.5 -97.5zM692 1126h383v-1110l-344 -30l-20 129h-17q-59 -135 -233 -135q-115 0 -194 39.5t-123 119.5t-61 179.5t-17 234.5 q0 332 100 463t295 131q154 0 215 -103h16v82zM459 561q0 -178 25.5 -239.5t95.5 -61.5q63 0 87.5 41t24.5 154v217q0 115 -23.5 154.5t-88.5 39.5q-70 0 -95.5 -64.5t-25.5 -240.5z" glyph-name="uni0203.aalt" horiz-adv-x="1189"/><glyph d="M877 1575v-254h-621v254h621zM692 1126h383v-1110l-344 -30l-20 129h-17q-59 -135 -233 -135q-115 0 -194 39.5t-123 119.5t-61 179.5t-17 234.5q0 332 100 463t295 131q154 0 215 -103h16v82zM459 561q0 -178 25.5 -239.5t95.5 -61.5q63 0 87.5 41t24.5 154v217 q0 115 -23.5 154.5t-88.5 39.5q-70 0 -95.5 -64.5t-25.5 -240.5z" glyph-name="amacron.aalt" horiz-adv-x="1189"/><glyph d="M1102 -287l35 -194q-39 -6 -109 -6q-354 0 -354 264q0 115 98 213l-41 -4l-20 129h-17q-59 -135 -233 -135q-115 0 -194 39.5t-123 119.5t-61 179.5t-17 234.5q0 332 100 463t295 131q154 0 215 -103h16v82h383v-1110l-84 -8l35 -4q-100 -74 -100 -160q0 -66 50 -98.5 t126 -32.5zM459 561q0 -178 25.5 -239.5t95.5 -61.5q63 0 87.5 41t24.5 154v217q0 115 -23.5 154.5t-88.5 39.5q-70 0 -95.5 -64.5t-25.5 -240.5z" glyph-name="aogonek.aalt" horiz-adv-x="1189"/><glyph d="M567 1237q-156 0 -217 64.5t-61 189.5q0 141 70.5 196.5t207.5 55.5q156 0 216.5 -64.5t60.5 -187.5q0 -143 -71 -198.5t-206 -55.5zM567 1602q-59 0 -85.5 -24t-26.5 -87q0 -59 24.5 -87t87.5 -28q55 0 84 25.5t29 89.5q0 57 -25 84t-88 27zM692 1126h383v-1110 l-344 -30l-20 129h-17q-59 -135 -233 -135q-115 0 -194 39.5t-123 119.5t-61 179.5t-17 234.5q0 332 100 463t295 131q154 0 215 -103h16v82zM459 561q0 -178 25.5 -239.5t95.5 -61.5q63 0 87.5 41t24.5 154v217q0 115 -23.5 154.5t-88.5 39.5q-70 0 -95.5 -64.5 t-25.5 -240.5z" glyph-name="aring.aalt" horiz-adv-x="1189"/><glyph d="M946 2220l-264 -408h-236l175 408h325zM567 1237q-156 0 -217 64.5t-61 189.5q0 141 70.5 196.5t207.5 55.5q156 0 216.5 -64.5t60.5 -187.5q0 -143 -71 -198.5t-206 -55.5zM567 1602q-59 0 -85.5 -24t-26.5 -87q0 -59 24.5 -87t87.5 -28q55 0 84 25.5t29 89.5 q0 57 -25 84t-88 27zM692 1126h383v-1110l-344 -30l-20 129h-17q-59 -135 -233 -135q-115 0 -194 39.5t-123 119.5t-61 179.5t-17 234.5q0 332 100 463t295 131q154 0 215 -103h16v82zM459 561q0 -178 25.5 -239.5t95.5 -61.5q63 0 87.5 41t24.5 154v217q0 115 -23.5 154.5 t-88.5 39.5q-70 0 -95.5 -64.5t-25.5 -240.5z" glyph-name="aringacute.aalt" horiz-adv-x="1189"/><glyph d="M432 1401q-61 0 -76 -101h-157q0 141 65.5 229.5t171.5 88.5q76 0 152 -51l76 -54q33 -23 59 -22q53 0 72 102h155q0 -150 -63.5 -233.5t-171.5 -83.5q-84 0 -148 49l-78 57q-26 19 -57 19zM692 1126h383v-1110l-344 -30l-20 129h-17q-59 -135 -233 -135 q-115 0 -194 39.5t-123 119.5t-61 179.5t-17 234.5q0 332 100 463t295 131q154 0 215 -103h16v82zM459 561q0 -178 25.5 -239.5t95.5 -61.5q63 0 87.5 41t24.5 154v217q0 115 -23.5 154.5t-88.5 39.5q-70 0 -95.5 -64.5t-25.5 -240.5z" glyph-name="atilde.aalt" horiz-adv-x="1189"/><glyph d="M733 1141l344 -31v-1055q0 -250 -123 -347t-358 -97q-221 0 -496 80l27 274q270 -61 424 -61q84 0 113.5 32.5t29.5 112.5v98h-20q-63 -72 -199 -71q-236 0 -322.5 119.5t-86.5 377.5q0 135 17 234.5t61 179.5t123 120t194 40q176 0 235 -135h17zM459 565 q0 -123 25.5 -165t97.5 -42q61 0 86.5 37t25.5 142v135q0 115 -24.5 154.5t-89.5 39.5q-72 0 -96.5 -61.5t-24.5 -239.5z" glyph-name="g.aalt" horiz-adv-x="1189"/><glyph d="M981 1704l-264 -408h-236l172 408h328zM733 1141l344 -31v-1055q0 -250 -123 -347t-358 -97q-221 0 -496 80l27 274q270 -61 424 -61q84 0 113.5 32.5t29.5 112.5v98h-20q-63 -72 -199 -71q-236 0 -322.5 119.5t-86.5 377.5q0 135 17 234.5t61 179.5t123 120t194 40 q176 0 235 -135h17zM459 565q0 -123 25.5 -165t97.5 -42q61 0 86.5 37t25.5 142v135q0 115 -24.5 154.5t-89.5 39.5q-72 0 -96.5 -61.5t-24.5 -239.5z" glyph-name="uni01F5.aalt" horiz-adv-x="1189"/><glyph d="M598 1262q-201 0 -279.5 81.5t-78.5 241.5v39h211v-25q0 -66 32.5 -95t112.5 -29q74 0 108.5 24.5t34.5 99.5v25h213v-39q0 -182 -90 -252.5t-264 -70.5zM733 1141l344 -31v-1055q0 -250 -123 -347t-358 -97q-221 0 -496 80l27 274q270 -61 424 -61q84 0 113.5 32.5 t29.5 112.5v98h-20q-63 -72 -199 -71q-236 0 -322.5 119.5t-86.5 377.5q0 135 17 234.5t61 179.5t123 120t194 40q176 0 235 -135h17zM459 565q0 -123 25.5 -165t97.5 -42q61 0 86.5 37t25.5 142v135q0 115 -24.5 154.5t-89.5 39.5q-72 0 -96.5 -61.5t-24.5 -239.5z" glyph-name="gbreve.aalt" horiz-adv-x="1189"/><glyph d="M422 1288l-264 408h250l186 -226l184 226h252l-266 -408h-342zM733 1141l344 -31v-1055q0 -250 -123 -347t-358 -97q-221 0 -496 80l27 274q270 -61 424 -61q84 0 113.5 32.5t29.5 112.5v98h-20q-63 -72 -199 -71q-236 0 -322.5 119.5t-86.5 377.5q0 135 17 234.5 t61 179.5t123 120t194 40q176 0 235 -135h17zM459 565q0 -123 25.5 -165t97.5 -42q61 0 86.5 37t25.5 142v135q0 115 -24.5 154.5t-89.5 39.5q-72 0 -96.5 -61.5t-24.5 -239.5z" glyph-name="gcaron.aalt" horiz-adv-x="1189"/><glyph d="M598 1513l-186 -225h-250l264 408h342l266 -408h-252zM733 1141l344 -31v-1055q0 -250 -123 -347t-358 -97q-221 0 -496 80l27 274q270 -61 424 -61q84 0 113.5 32.5t29.5 112.5v98h-20q-63 -72 -199 -71q-236 0 -322.5 119.5t-86.5 377.5q0 135 17 234.5t61 179.5 t123 120t194 40q176 0 235 -135h17zM459 565q0 -123 25.5 -165t97.5 -42q61 0 86.5 37t25.5 142v135q0 115 -24.5 154.5t-89.5 39.5q-72 0 -96.5 -61.5t-24.5 -239.5z" glyph-name="gcircumflex.aalt" horiz-adv-x="1189"/><glyph d="M748 1595v-274h-306v274l115 320h160l-113 -320h144zM733 1141l344 -31v-1055q0 -250 -123 -347t-358 -97q-221 0 -496 80l27 274q270 -61 424 -61q84 0 113.5 32.5t29.5 112.5v98h-20q-63 -72 -199 -71q-236 0 -322.5 119.5t-86.5 377.5q0 135 17 234.5t61 179.5 t123 120t194 40q176 0 235 -135h17zM459 565q0 -123 25.5 -165t97.5 -42q61 0 86.5 37t25.5 142v135q0 115 -24.5 154.5t-89.5 39.5q-72 0 -96.5 -61.5t-24.5 -239.5z" glyph-name="gcommaaccent.aalt" horiz-adv-x="1189"/><glyph d="M750 1595v-274h-306v274h306zM733 1141l344 -31v-1055q0 -250 -123 -347t-358 -97q-221 0 -496 80l27 274q270 -61 424 -61q84 0 113.5 32.5t29.5 112.5v98h-20q-63 -72 -199 -71q-236 0 -322.5 119.5t-86.5 377.5q0 135 17 234.5t61 179.5t123 120t194 40 q176 0 235 -135h17zM459 565q0 -123 25.5 -165t97.5 -42q61 0 86.5 37t25.5 142v135q0 115 -24.5 154.5t-89.5 39.5q-72 0 -96.5 -61.5t-24.5 -239.5z" glyph-name="gdotaccent.aalt" horiz-adv-x="1189"/><glyph d="M100 1569h410v-307h-410v307zM496 1126v-1126h-383v1126h383z" glyph-name="i.locl" horiz-adv-x="606"/><glyph d="M154 1595h305v-274h-305v274zM496 1126v-1126h-383v1126h383z" glyph-name="glyph627" horiz-adv-x="606"/><glyph d="M377 -381q-188 0 -259 109.5t-71 341.5q0 256 81 354t249 98q186 0 258 -111.5t72 -340.5q0 -256 -81 -353.5t-249 -97.5zM377 -188q45 0 59.5 52t14.5 206q0 156 -15.5 208t-58.5 52q-45 0 -59.5 -52.5t-14.5 -208t15.5 -206.5t58.5 -51z" glyph-name="zero.sinf" horiz-adv-x="749"/><glyph d="M438 -172h148v-197h-559v197h161v479l-145 -41l-35 191l180 51h250v-680z" glyph-name="one.sinf" horiz-adv-x="606"/><glyph d="M348 -45q-63 -57 -65 -127h305v-197h-568v166q0 86 31 143.5t125 145.5l133 123q25 25 25 55q0 35 -16.5 47.5t-65.5 12.5q-61 0 -164 -17l-18 195q129 20 213 20q152 0 228.5 -55t76.5 -182q0 -111 -94 -197z" glyph-name="two.sinf" horiz-adv-x="620"/><glyph d="M483 94q109 -39 109 -192q0 -160 -83 -221.5t-255 -61.5q-154 0 -234 33l19 201q76 -33 203 -33q51 0 73.5 19.5t22.5 66.5q0 53 -18.5 72.5t-67.5 19.5h-121v178h109q45 0 61 16.5t16 59.5q0 47 -18 62.5t-68 15.5q-117 0 -174 -27l-16 191q63 29 207 28 q170 0 246.5 -55t76.5 -182q0 -137 -88 -185v-6z" glyph-name="three.sinf" horiz-adv-x="632"/><glyph d="M709 -18v-195h-80v-156h-215v156h-377v221l203 500h219l-185 -504v-22h140v231h215v-231h80z" glyph-name="four.sinf" horiz-adv-x="727"/><glyph d="M340 188q176 0 239.5 -64.5t63.5 -205.5q0 -170 -89 -234.5t-263 -64.5q-162 0 -236 31l11 203q72 -27 215 -27q59 0 83.5 20.5t24.5 69.5q0 53 -20.5 71.5t-71.5 18.5h-211l16 502h510v-197h-270z" glyph-name="five.sinf" horiz-adv-x="673"/><glyph d="M422 190q121 0 180.5 -63.5t59.5 -214.5q0 -168 -75 -230.5t-237 -62.5q-186 0 -253.5 67.5t-67.5 219.5q0 201 110 395q57 104 150 207h268q-102 -113 -186 -242q-41 -68 -49 -86h14q41 10 86 10zM346 -186q43 0 57.5 23.5t14.5 82.5q0 57 -15.5 77.5t-54.5 20.5 q-43 0 -58.5 -21.5t-15.5 -78.5q0 -61 15.5 -82.5t56.5 -21.5z" glyph-name="six.sinf" horiz-adv-x="681"/><glyph d="M18 508h560v-207l-287 -670h-246l283 656v24h-310v197z" glyph-name="seven.sinf" horiz-adv-x="598"/><glyph d="M569 88q141 -45 142 -209q0 -147 -83 -203.5t-251 -56.5q-190 0 -263 64.5t-73 195.5q0 164 141 209v6q-115 45 -114 191q0 135 77.5 186t231.5 51q174 0 240.5 -61.5t66.5 -181.5q0 -139 -115 -185v-6zM377 334q-43 0 -57.5 -17.5t-14.5 -64.5q0 -49 15.5 -67.5 t56.5 -18.5t55 18.5t14 67.5t-15 65.5t-54 16.5zM377 -188q47 0 64.5 19t17.5 73q0 55 -18.5 75.5t-63.5 20.5q-49 0 -65.5 -20.5t-16.5 -76t17.5 -73.5t64.5 -18z" glyph-name="eight.sinf" horiz-adv-x="749"/><glyph d="M332 522q184 0 252.5 -67.5t68.5 -218.5q0 -209 -110 -398q-66 -119 -150 -207h-268q98 106 186 244q29 45 47 84h-14q-41 -10 -86 -10q-121 0 -178 64.5t-57 215.5q0 166 74.5 229.5t234.5 63.5zM266 219q0 -57 15.5 -76.5t54.5 -19.5q43 0 58.5 21.5t15.5 78.5 q0 61 -15.5 82t-56.5 21q-43 0 -57.5 -23t-14.5 -84z" glyph-name="nine.sinf" horiz-adv-x="681"/><glyph d="M608 -20q-305 0 -420.5 179t-115.5 556q0 217 34.5 363.5t106.5 228.5t166 114.5t229 32.5q305 0 419 -180t114 -559q0 -217 -34 -362.5t-105.5 -226.5t-165 -113.5t-228.5 -32.5zM608 274q80 0 108.5 89.5t28.5 351.5q0 264 -28.5 354t-108.5 90q-82 0 -111.5 -91 t-29.5 -353q0 -260 29.5 -350.5t111.5 -90.5z" glyph-name="zero.case" horiz-adv-x="1212"/><glyph d="M690 305h242v-305h-889v305h262v809l-239 -67l-54 305l293 82h385v-1129z" glyph-name="one.case" horiz-adv-x="968"/><glyph d="M449 307v-2h526v-305h-936v272q0 121 46 204t177 202l262 237q55 47 56 107q0 74 -38 100.5t-141 26.5q-90 0 -268 -25l-27 297q205 33 357 33q279 0 395.5 -96t116.5 -293q0 -102 -39 -176t-123 -150l-285 -256q-45 -39 -62 -76t-17 -100z" glyph-name="two.case" horiz-adv-x="1030"/><glyph d="M803 756q92 -39 129 -114t37 -196q0 -266 -135.5 -366t-419.5 -100q-250 0 -379 55l28 311q119 -53 355 -53q92 0 123.5 33.5t31.5 124.5q0 94 -31.5 126.5t-119.5 32.5h-221v271h196q86 0 114 25.5t28 103.5q0 90 -31 119.5t-119 29.5q-205 0 -297 -43l-24 291 q104 47 342 47q287 0 405.5 -91t118.5 -294q0 -217 -131 -295v-18z" glyph-name="three.case" horiz-adv-x="1030"/><glyph d="M1153 561v-307h-129v-254h-367v254h-594v346l332 834h355l-314 -842v-31h221v391h367v-391h129z" glyph-name="four.case" horiz-adv-x="1191"/><glyph d="M520 895q289 -2 395.5 -103.5t106.5 -334.5q0 -270 -141.5 -373.5t-421.5 -103.5q-252 0 -377 51l12 315q123 -43 350 -43q111 0 147 32t36 126t-34 124.5t-138 30.5h-332l29 818h813v-306h-439z" glyph-name="five.case" horiz-adv-x="1077"/><glyph d="M702 922q205 0 289 -114t84 -349q0 -272 -122 -375.5t-378 -103.5q-299 0 -408.5 113.5t-109.5 357.5q0 348 181 655q92 162 243 328h426q-170 -182 -303 -390q-53 -86 -86 -149h6q67 27 178 27zM565 281q82 0 108.5 39.5t26.5 160.5q0 109 -25.5 146t-107.5 37 t-109.5 -38t-27.5 -153q0 -117 26.5 -154.5t108.5 -37.5z" glyph-name="six.case" horiz-adv-x="1120"/><glyph d="M29 1434h905v-326l-471 -1108h-383l469 1094v34h-520v306z" glyph-name="seven.case" horiz-adv-x="972"/><glyph d="M911 741q123 -39 174.5 -122.5t51.5 -212.5q0 -240 -136.5 -333t-398.5 -93q-305 0 -422 107.5t-117 318.5q0 264 228 337v11q-186 74 -187 313q0 219 126 303t372 84q279 0 386.5 -100.5t107.5 -296.5q0 -231 -185 -305v-11zM602 1169q-84 0 -112.5 -32.5t-28.5 -118.5 q0 -94 29.5 -126t111.5 -32t109.5 33t27.5 125q0 88 -29.5 119.5t-107.5 31.5zM602 279q86 0 116 34.5t30 126.5q0 102 -31 137t-115 35q-90 0 -119.5 -35.5t-29.5 -136.5q0 -96 31.5 -128.5t117.5 -32.5z" glyph-name="eight.case" horiz-adv-x="1196"/><glyph d="M547 1454q297 0 407.5 -113.5t110.5 -359.5q0 -352 -180 -655q-94 -160 -244 -326h-428q178 193 303 387q49 76 86 148h-16q-72 -23 -166 -23q-205 0 -289 112.5t-84 348.5q0 272 122 376.5t378 104.5zM420 950q0 -109 25.5 -144.5t105.5 -35.5q84 0 111.5 38t27.5 152.5 t-26.5 153.5t-108.5 39t-108.5 -41t-26.5 -162z" glyph-name="nine.case" horiz-adv-x="1120"/><glyph d="M608 1454q305 0 419 -180t114 -559q0 -217 -34 -362.5t-105.5 -226.5t-165 -113.5t-228.5 -32.5q-305 0 -420.5 179t-115.5 556q0 217 34.5 363.5t106.5 228.5t166 114.5t229 32.5zM608 1159q-82 0 -111.5 -91t-29.5 -353q0 -70 4 -164l229 557q-29 51 -92 51zM608 274 q80 0 108.5 89.5t28.5 351.5v76l-206 -496q26 -21 69 -21z" glyph-name="zero.case.zero" horiz-adv-x="1212"/><glyph d="M608 -20q-305 0 -420.5 179t-115.5 556q0 217 34.5 363.5t106.5 228.5t166 114.5t229 32.5q305 0 419 -180t114 -559q0 -217 -34 -362.5t-105.5 -226.5t-165 -113.5t-228.5 -32.5zM608 274q80 0 108.5 89.5t28.5 351.5q0 264 -28.5 354t-108.5 90q-82 0 -111.5 -91 t-29.5 -353q0 -260 29.5 -350.5t111.5 -90.5zM532 578v276h150v-276h-150z" glyph-name="zero.case.ss03" horiz-adv-x="1212"/><glyph d="M608 -20q-158 0 -264 36.5t-164.5 115.5t-83 181.5t-24.5 249.5q0 332 131 458t405 126q305 0 419 -142.5t114 -441.5q0 -172 -34 -287.5t-105.5 -180t-165 -90t-228.5 -25.5zM608 264q80 0 108.5 61.5t28.5 239.5q0 176 -28.5 236.5t-108.5 60.5q-82 0 -111.5 -60.5 t-29.5 -236.5q0 -178 29.5 -239.5t111.5 -61.5z" glyph-name="zero.oldstyle" horiz-adv-x="1212"/><glyph d="M690 301h242v-301h-889v301h262v506l-239 -51l-54 309l293 61h385v-825z" glyph-name="one.oldstyle" horiz-adv-x="968"/><glyph d="M526 375q-59 -35 -73 -74h522v-301h-936v258q0 76 41 131t160 137l284 199q55 37 55.5 74t-37.5 49t-141 12q-113 0 -268 -18l-27 278q182 27 357 27q512 0 512 -318q0 -84 -39 -143t-127 -119z" glyph-name="two.oldstyle" horiz-adv-x="1030"/><glyph d="M803 469q92 -37 129 -109.5t37 -189.5q0 -260 -135.5 -358.5t-419.5 -98.5q-248 0 -379 54l28 311q121 -51 355 -51q92 0 123.5 30.5t31.5 116.5q0 88 -31.5 119t-119.5 31h-221v268h196q86 0 114 24.5t28 98.5q0 84 -31 111.5t-119 27.5q-205 0 -297 -43l-24 291 q106 45 342 45q287 0 405.5 -88t118.5 -287q0 -211 -131 -287v-16z" glyph-name="three.oldstyle" horiz-adv-x="1030"/><glyph d="M1153 281v-306h-129v-241h-367v241h-594v342l332 809h355l-314 -819v-26h221v376h367v-376h129z" glyph-name="four.oldstyle" horiz-adv-x="1191"/><glyph d="M520 604q289 -2 395.5 -99t106.5 -325q0 -264 -141.5 -365.5t-421.5 -101.5q-250 0 -377 49l12 316q127 -41 350 -41q111 0 147 29.5t36 117.5t-34 116t-138 28h-332l29 798h813v-305h-439z" glyph-name="five.oldstyle" horiz-adv-x="1077"/><glyph d="M702 897q205 0 289 -110.5t84 -337.5q0 -266 -122 -367.5t-378 -101.5q-299 0 -408.5 110.5t-109.5 347.5q0 340 181 641q88 147 243 314h426q-182 -190 -303 -373q-55 -86 -86 -146h17q71 23 167 23zM565 281q82 0 108.5 36.5t26.5 151.5q0 104 -25.5 138t-107.5 34 t-109.5 -35t-27.5 -143q0 -111 26.5 -146.5t108.5 -35.5z" glyph-name="six.oldstyle" horiz-adv-x="1120"/><glyph d="M29 1126h905v-323l-471 -1069h-383l469 1057v30h-520v305z" glyph-name="seven.oldstyle" horiz-adv-x="972"/><glyph d="M911 721q123 -39 174.5 -121t51.5 -207q0 -233 -135.5 -323t-399.5 -90q-305 0 -422 104t-117 309q0 256 228 328v12q-186 72 -187 303q0 213 126 295t372 82q279 0 386.5 -97t107.5 -290q0 -225 -185 -293v-12zM602 1130q-84 0 -112.5 -30.5t-28.5 -112.5 q0 -90 29.5 -119.5t111.5 -29.5t109.5 31.5t27.5 117.5q0 84 -29.5 113.5t-107.5 29.5zM602 276q86 0 116 33t30 121q0 96 -31 129t-115 33q-90 0 -119.5 -34t-29.5 -128q0 -90 31.5 -122t117.5 -32z" glyph-name="eight.oldstyle" horiz-adv-x="1196"/><glyph d="M547 1147q297 0 407.5 -110.5t110.5 -348.5q0 -340 -180 -641q-88 -143 -244 -313h-428q182 190 303 372q43 66 86 144h-20q-63 -20 -162 -21q-205 0 -289 111t-84 338q0 268 122 368.5t378 100.5zM420 657q0 -104 25.5 -138t105.5 -34q84 0 111.5 35t27.5 144 q0 111 -26.5 146.5t-108.5 35.5t-108.5 -38t-26.5 -151z" glyph-name="nine.oldstyle" horiz-adv-x="1120"/></font>
</defs>
</svg>
