<?xml version="1.0" standalone="no"?>
<!DOCTYPE svg PUBLIC "-//W3C//DTD SVG 1.1//EN" "http://www.w3.org/Graphics/SVG/1.1/DTD/svg11.dtd">
<svg xmlns="http://www.w3.org/2000/svg"><metadata>This SVG WebFont was generated by YouWorkForThem.
Copyright Â© 2017 by Jonathan Hill. All rights reserved.</metadata><defs><font horiz-adv-x="0" id="ywftsvg"><font-face ascent="1604" bbox="-1102 -707 3078 2521" cap-height="1434" descent="-444" font-family="" font-stretch="normal" font-weight="700" panose-1="0 0 8 0 0 0 0 0 0 0" underline-position="0" underline-thickness="0" unicode-range="U+0020-277E" units-per-em="2048" x-height="1126"/><missing-glyph d="M205 61v1229h819v-1229h-819zM348 205h533v942h-533v-942z" horiz-adv-x="1228"/><glyph d="M1296 1317q-76 0 -102.5 -38t-28.5 -153h217v-215h-217v-911h-325v911h-328v-911h-326v911h-174v215h174v27q0 219 89.5 307t291.5 88q115 0 207 -18l-20 -225q-39 12 -111 12q-76 0 -102.5 -39t-28.5 -152h328v27q0 219 89 307t290 88q117 0 208 -18l-20 -225 q-39 12 -111 12z" glyph-name="f_f.liga" horiz-adv-x="1402" unicode="ff"/><glyph d="M1487 1569h340v-283h-340v283zM1821 1126v-1126h-326v911h-330v-911h-325v911h-328v-911h-326v911h-174v215h174v27q0 219 89.5 307t291.5 88q115 0 207 -18l-20 -225q-39 12 -111 12q-76 0 -102.5 -39t-28.5 -152h328v27q0 219 89 307t290 88q111 0 202 -18l-20 -225 q-39 12 -105 12q-76 0 -102.5 -38t-28.5 -153h656z" glyph-name="f_f_i.liga" horiz-adv-x="1941" unicode="ffi"/><glyph d="M1993 227l20 -229q-80 -18 -198 -18q-176 0 -241 74.5t-65 252.5v604h-344v-911h-325v911h-328v-911h-326v911h-174v215h174v27q0 219 89.5 307t291.5 88q115 0 207 -18l-20 -225q-39 12 -111 12q-76 0 -102.5 -39t-28.5 -152h328v27q0 219 89 307t290 88q117 0 208 -18 l-20 -225q-39 12 -111 12q-76 0 -102.5 -38t-28.5 -153h344v410h326v-1178q0 -86 16.5 -112.5t69.5 -26.5q35 0 72 8z" glyph-name="f_f_l.liga" horiz-adv-x="2039" unicode="ffl"/><glyph d="M834 1569h337v-283h-337v283zM1165 1126v-1126h-325v911h-328v-911h-326v911h-174v215h174v27q0 219 89.5 307t291.5 88q113 0 201 -18l-20 -225q-39 12 -105 12q-76 0 -102.5 -39t-28.5 -152h653z" glyph-name="f_i.liga" horiz-adv-x="1282" unicode="fi"/><glyph d="M1341 227l19 -229q-80 -18 -199 -18q-176 0 -240.5 74.5t-64.5 252.5v604h-344v-911h-326v911h-174v215h174v27q0 219 89.5 307t291.5 88q115 0 207 -18l-20 -225q-39 12 -111 12q-76 0 -102.5 -39t-28.5 -152h344v410h326v-1178q0 -84 17.5 -111.5t68.5 -27.5q32 0 73 8 z" glyph-name="f_l.liga" horiz-adv-x="1388" unicode="fl"/><glyph d="M205 61v1229h819v-1229h-819zM348 205h533v942h-533v-942z" glyph-name=".notdef" horiz-adv-x="1228"/><glyph glyph-name="glyph1"/><glyph glyph-name="glyph2" horiz-adv-x="681"/><glyph glyph-name="space" horiz-adv-x="538" unicode=" "/><glyph d="M207 496l-43 938h375l-45 -938h-287zM174 0v311h352v-311h-352z" glyph-name="exclam" horiz-adv-x="700" unicode="!"/><glyph d="M442 1536l-36 -559h-203l-37 559h276zM827 1536l-34 -559h-205l-37 559h276z" glyph-name="quotedbl" horiz-adv-x="993" unicode="&quot;"/><glyph d="M1208 901h-184l-61 -342h188l-41 -223h-186l-60 -336h-246l60 336h-195l-59 -336h-246l60 336h-183l43 223h178l62 342h-182l41 221h180l55 312h246l-55 -312h194l55 312h246l-55 -312h186zM717 559l61 342h-194l-62 -342h195z" glyph-name="numbersign" horiz-adv-x="1304" unicode="#"/><glyph d="M954 385q0 -322 -299 -387v-231h-223v213q-150 4 -354 40l22 267q252 -37 330 -37q94 0 133 32.5t39 104.5q0 84 -63 135l-269 219q-164 143 -164 332q0 319 326 371v223h223v-215q109 -4 269 -29l-23 -262q-156 25 -272 25q-96 0 -134 -29t-38 -94q0 -78 55 -121 l256 -209q100 -88 143 -169t43 -179z" glyph-name="dollar" horiz-adv-x="1032" unicode="$"/><glyph d="M299 -20l881 1474h239l-882 -1474h-238zM414 602q-176 0 -243 102.5t-67 315.5q0 242 74 334t228 92q176 0 241.5 -102.5t65.5 -315.5q0 -244 -72.5 -335t-226.5 -91zM409.5 776q47.5 0 65 48t17.5 200t-17.5 200t-66.5 48q-47 0 -63.5 -48t-16.5 -200t17 -200t64.5 -48z M1321 -12q-176 0 -242.5 102.5t-66.5 315.5q0 242 73.5 333.5t227.5 91.5q176 0 241.5 -102t65.5 -315q0 -244 -72.5 -335t-226.5 -91zM1317 162q47 0 64.5 48t17.5 199.5t-16.5 199.5t-65.5 48q-47 0 -64.5 -48t-17.5 -199.5t17.5 -199.5t64.5 -48z" glyph-name="percent" horiz-adv-x="1724" unicode="%"/><glyph d="M1464 0h-389l-110 119q-63 -84 -153.5 -111.5t-217.5 -27.5q-295 0 -400.5 90t-105.5 297q0 106 26.5 168.5t88.5 109.5l162 125l-66 70q-123 123 -123 288q0 182 113.5 254t318.5 72q238 0 330 -77t92 -228q0 -197 -137 -289l-152 -102l156 -164l156 258h301l-248 -477z M608 1223q-74 0 -98.5 -22.5t-24.5 -84.5q0 -88 33 -125l78 -82l88 97q43 43 43 106q0 68 -24.5 89.5t-94.5 21.5zM721 299l31 51l-224 242l-86 -94q-39 -45 -39 -115q0 -90 36 -121t141 -31q63 0 92 14.5t49 53.5z" glyph-name="ampersand" horiz-adv-x="1495" unicode="&amp;"/><glyph d="M442 1536l-36 -559h-203l-37 559h276z" glyph-name="quotesingle" horiz-adv-x="608" unicode="'"/><glyph d="M655 -365q-162 33 -273.5 116t-173 215t-87 290t-25.5 369q0 340 67.5 557t186.5 318.5t305 139.5v-243q-150 -55 -213 -230.5t-63 -529.5q0 -352 62.5 -527.5t213.5 -232.5v-242z" glyph-name="parenleft" horiz-adv-x="684" unicode="("/><glyph d="M29 -365v242q152 57 215 233.5t63 526.5q0 354 -63.5 529t-214.5 231v243q188 -39 306 -141t185.5 -317t67.5 -557q0 -211 -25.5 -368t-87 -290t-173 -216t-273.5 -116z" glyph-name="parenright" horiz-adv-x="684" unicode=")"/><glyph d="M979 1126l-297 -69l201 -230l-193 -139l-155 262l-158 -262l-193 139l201 230l-297 69l72 226l280 -119l-26 303h239l-26 -303l280 119z" glyph-name="asterisk" horiz-adv-x="1067" unicode="*"/><glyph d="M1143 702v-253h-373v-373h-252v373h-371v253h371v371h252v-371h373z" glyph-name="plus" horiz-adv-x="1290" unicode="+"/><glyph d="M186 342h357v-342l-131 -397h-205l127 397h-148v342z" glyph-name="comma" horiz-adv-x="727" unicode=","/><glyph d="M133 756h606v-242h-606v242z" glyph-name="hyphen" horiz-adv-x="872" unicode="-"/><glyph d="M186 0v342h357v-342h-357z" glyph-name="period" horiz-adv-x="727" unicode="."/><glyph d="M-18 -102l591 1638h238l-592 -1638h-237z" glyph-name="slash" horiz-adv-x="790" unicode="/"/><glyph d="M612 -20q-295 0 -406.5 174t-111.5 540q0 170 22.5 295t64.5 206t107.5 130t142.5 68.5t181 19.5q297 0 406.5 -175t109.5 -544q0 -211 -32.5 -352t-102 -220t-160 -110.5t-221.5 -31.5zM612.5 238q102.5 0 139 93t36.5 365q0 270 -36.5 364.5t-139.5 94.5 q-100 0 -139 -93t-39 -366q0 -268 38 -363t140.5 -95z" glyph-name="zero" horiz-adv-x="1222" unicode="0"/><glyph d="M647 264h254v-264h-860v264h274v860l-254 -69l-45 258l299 80h332v-1129z" glyph-name="one" horiz-adv-x="946" unicode="1"/><glyph d="M508 479q-57 -47 -81 -92t-24 -123h558v-264h-908v240q0 129 48.5 216t183.5 199l276 236q59 49 60 121q0 80 -43 108.5t-152 28.5q-100 0 -281 -27l-22 260q203 31 342 31q258 0 377 -90t119 -281q0 -100 -37 -172.5t-119 -140.5z" glyph-name="two" horiz-adv-x="1032" unicode="2"/><glyph d="M776 729q98 -37 137 -112.5t39 -196.5q0 -252 -131 -346t-407 -94q-242 0 -367 53l23 268q117 -51 348 -51q119 0 156.5 36t37.5 142.5t-37.5 142t-152.5 35.5h-203v238h187q104 0 138 28.5t34 118.5q0 102 -36 133t-145 31q-209 0 -299 -43l-22 256q104 45 334 45 q276 0 392 -88t116 -285q0 -221 -142 -295v-16z" glyph-name="three" horiz-adv-x="1040" unicode="3"/><glyph d="M1130 539v-265h-151v-274h-317v274h-596v310l364 809h311l-354 -818v-36h275v407h317v-407h151z" glyph-name="four" horiz-adv-x="1171" unicode="4"/><glyph d="M496 868q293 0 399 -99t106 -325q0 -262 -135 -363t-409 -101q-246 0 -367 49l14 272q113 -43 342 -43q133 0 174.5 37t41.5 145q0 113 -39 149t-166 36h-318l27 768h782v-265h-461l-8 -260h17z" glyph-name="five" horiz-adv-x="1077" unicode="5"/><glyph d="M680 883q201 0 290 -105.5t89 -337.5q0 -262 -119 -361t-367 -99q-289 0 -396 109.5t-107 342.5q0 322 184 625q102 170 258 336h367q-190 -197 -316 -394q-55 -86 -86 -145h12q80 29 191 29zM565.5 242q102.5 0 136 42t33.5 173q0 117 -31.5 155.5t-136.5 38.5 q-102 0 -137 -41t-35 -163.5t34 -163.5t136.5 -41z" glyph-name="six" horiz-adv-x="1118" unicode="6"/><glyph d="M35 1393h874v-291l-493 -1102h-330l494 1096v32h-545v265z" glyph-name="seven" horiz-adv-x="952" unicode="7"/><glyph d="M918 719q119 -39 168 -120t49 -206q0 -236 -130.5 -324.5t-392.5 -88.5q-297 0 -411.5 103t-114.5 310q0 258 221 328v12q-180 72 -180 303q0 215 121 296t364 81q272 0 378 -97t106 -290q0 -221 -178 -293v-14zM612 1163q-100 0 -135 -34.5t-35 -129.5q0 -104 32 -137 t138.5 -33t138 34t31.5 136q0 96 -36 130t-134 34zM612.5 240q110.5 0 148.5 36.5t38 141.5q0 117 -36 152.5t-151 35.5q-117 0 -152.5 -37t-35.5 -151q0 -106 39 -142t149.5 -36z" glyph-name="eight" horiz-adv-x="1220" unicode="8"/><glyph d="M545 1413q289 0 395.5 -108.5t106.5 -343.5q0 -324 -183 -625q-104 -174 -260 -336h-364q188 197 315 393q39 61 84 144h-18q-72 -27 -185 -27q-201 0 -290 105.5t-89 336.5q0 262 119 361.5t369 99.5zM383 936q0 -117 31.5 -156t134.5 -39q104 0 139 41t35 164t-35 164 t-137 41t-135 -42t-33 -173z" glyph-name="nine" horiz-adv-x="1116" unicode="9"/><glyph d="M186 784v342h357v-342h-357zM186 0v342h357v-342h-357z" glyph-name="colon" horiz-adv-x="727" unicode=":"/><glyph d="M186 1126h357v-342h-357v342zM186 0v342h357v-342l-131 -397h-205l127 397h-148z" glyph-name="semicolon" horiz-adv-x="727" unicode=";"/><glyph d="M1096 836l-637 -236v-47l637 -234v-280l-901 354v367l901 356v-280z" glyph-name="less" horiz-adv-x="1290" unicode="&lt;"/><glyph d="M154 662v253h983v-253h-983zM154 248v252h983v-252h-983z" glyph-name="equal" horiz-adv-x="1290" unicode="="/><glyph d="M193 1116l903 -356v-367l-903 -354v280l638 234v47l-638 236v280z" glyph-name="greater" horiz-adv-x="1290" unicode=">"/><glyph d="M223 496l-2 69q-2 131 21.5 189.5t130.5 140.5l96 74q55 39 55 98q0 63 -34.5 86t-133.5 23q-102 0 -264 -21l-24 268q193 31 344 31q238 0 350 -84t112 -258q0 -96 -36.5 -157.5t-112.5 -123.5l-88 -71q-72 -59 -97.5 -98t-27.5 -111l-2 -55h-287zM190 0v311h353v-311 h-353z" glyph-name="question" horiz-adv-x="925" unicode="?"/><glyph d="M930 1454q240 0 406.5 -62.5t260 -185.5t133 -280.5t39.5 -372.5q0 -311 -96 -432t-280 -121q-143 0 -324 119l-14 86h-13q-49 -90 -186 -90q-170 0 -242.5 109.5t-72.5 328.5q0 240 78.5 345.5t246.5 105.5q111 0 162 -64h10v64h256v-793q45 -23 80 -23q80 0 107.5 77 t27.5 290q0 387 -121.5 543.5t-439.5 156.5q-307 0 -433 -156.5t-126 -545.5q0 -391 127 -557t432 -166q172 0 299 57l15 -206q-139 -49 -326 -50q-188 0 -330.5 46.5t-231.5 125t-145.5 197.5t-78 250t-21.5 295q0 213 39 371.5t106.5 261t170 165t219 87t266.5 24.5z M805 559.5q0 -151.5 25.5 -206t95.5 -54.5q66 0 89 37t23 131v184q0 94 -24.5 131t-87.5 37q-70 0 -95.5 -54t-25.5 -205.5z" glyph-name="at" horiz-adv-x="1890" unicode="@"/><glyph d="M942 0l-74 338h-422l-73 -338h-350l374 1434h521l374 -1434h-350zM504 602h307l-123 567h-61z" glyph-name="A" horiz-adv-x="1314" unicode="A"/><glyph d="M979 741q111 -35 160 -115.5t49 -224.5q0 -229 -127 -315t-393 -86h-502v1434h467q295 0 407.5 -80t112.5 -262q0 -250 -174 -330v-21zM596 1198h-88v-358h88q131 0 176 37.5t45 144t-44 141.5t-177 35zM616 246q133 0 180.5 41t47.5 143q0 117 -51.5 159t-176.5 42h-108 v-385h108z" glyph-name="B" horiz-adv-x="1292" unicode="B"/><glyph d="M702 -20q-174 0 -290.5 47t-183 144t-93 225t-26.5 311q0 221 36.5 368.5t115.5 229t181.5 115.5t251.5 34q172 0 299 -47l-26 -272q-96 41 -238 41q-156 0 -213 -93.5t-57 -366t57 -365.5t213 -93q145 0 238 43l49 -268q-124 -53 -314 -53z" glyph-name="C" horiz-adv-x="1075" unicode="C"/><glyph d="M694 1434q301 0 429 -176.5t128 -540.5q0 -387 -137 -552t-420 -165h-528v1434h528zM668 258q131 0 181 98.5t50 360.5t-50 360.5t-181 98.5h-160v-918h160z" glyph-name="D" horiz-adv-x="1353" unicode="D"/><glyph d="M508 264h496v-264h-838v1434h813v-265h-471v-295h434v-264h-434v-346z" glyph-name="E" horiz-adv-x="1091" unicode="E"/><glyph d="M950 1169h-442v-335h405v-265h-405v-569h-342v1434h784v-265z" glyph-name="F" horiz-adv-x="1021" unicode="F"/><glyph d="M1182 842v-834l-264 -22l-23 135h-18q-98 -141 -306 -141q-109 0 -190.5 35.5t-132.5 98t-83 159t-44 207t-12 251.5q0 221 38.5 364.5t122.5 221.5t191.5 107.5t267.5 29.5q223 0 356 -41l-26 -280q-133 43 -332 43q-158 0 -213 -91.5t-55 -369.5q0 -272 46 -364.5 t181 -92.5q92 0 141.5 48t49.5 177v107h-175v252h480z" glyph-name="G" horiz-adv-x="1296" unicode="G"/><glyph d="M922 1434h340v-1434h-340v610h-414v-610h-342v1434h342v-560h414v560z" glyph-name="H" horiz-adv-x="1427" unicode="H"/><glyph d="M508 1434v-1434h-342v1434h342z" glyph-name="I" horiz-adv-x="671" unicode="I"/><glyph d="M229 -20q-109 0 -209 20l25 268q33 -10 92 -10q61 0 82 29.5t21 115.5v1031h342v-1092q0 -207 -81.5 -284.5t-271.5 -77.5z" glyph-name="J" horiz-adv-x="737" unicode="J"/><glyph d="M887 0l-305 610h-74v-610h-342v1434h342v-560h76l290 560h371l-407 -686l438 -748h-389z" glyph-name="K" horiz-adv-x="1290" unicode="K"/><glyph d="M508 264h377v-264h-719v1434h342v-1170z" glyph-name="L" horiz-adv-x="931" unicode="L"/><glyph d="M1540 1434v-1434h-317v1053h-11l-198 -719l-17 8v-8h-286v10l-19 -10l-200 719h-9v-1053h-317v1434h459l223 -779h10l223 779h459z" glyph-name="M" horiz-adv-x="1703" unicode="M"/><glyph d="M954 1434h310v-1434h-494l-272 1042h-25v-1042h-307v1434h496l270 -1039h22v1039z" glyph-name="N" horiz-adv-x="1427" unicode="N"/><glyph d="M702 -20q-338 0 -464.5 179t-126.5 558q0 217 37.5 363.5t116.5 227.5t183.5 113.5t253.5 32.5q174 0 291 -47t181.5 -146.5t91 -228.5t26.5 -315q0 -217 -37.5 -363.5t-116.5 -227.5t-182.5 -113.5t-253.5 -32.5zM702 258q139 0 189.5 93t50.5 366q0 270 -50 364.5 t-190 94.5q-141 0 -191 -93.5t-50 -365.5q0 -270 50 -364.5t191 -94.5z" glyph-name="O" horiz-adv-x="1400" unicode="O"/><glyph d="M612 1434q160 0 266.5 -29t166 -88.5t83 -136t23.5 -187.5q0 -287 -133 -398.5t-406 -111.5h-104v-483h-342v1434h446zM590 723q127 0 174 57.5t47 194.5q0 127 -46 173t-175 46h-82v-471h82z" glyph-name="P" horiz-adv-x="1218" unicode="P"/><glyph d="M967 -164q90 0 151 25l21 -213q-98 -37 -236 -37q-205 0 -277.5 82t-72.5 278v19q-250 39 -347 215t-97 504q0 221 37.5 368.5t116.5 229.5t181.5 114.5t249.5 32.5q178 0 296 -47t183.5 -145.5t92 -225.5t26.5 -309q0 -371 -107.5 -537.5t-326.5 -199.5q2 -92 24 -123 t85 -31zM459 716.5q0 -272.5 50 -365.5t193 -93q139 0 189.5 93t50.5 366q0 270 -50 364.5t-192 94.5q-139 0 -190 -93.5t-51 -366z" glyph-name="Q" horiz-adv-x="1398" unicode="Q"/><glyph d="M1266 0h-369l-254 545h-29h-106v-545h-342v1434h426q315 0 431 -100.5t116 -332.5q0 -279 -207 -389zM508 1194v-428h78q127 0 172 44t45 171q0 125 -45 169t-172 44h-78z" glyph-name="R" horiz-adv-x="1286" unicode="R"/><glyph d="M434 -20q-147 0 -375 38l23 269q227 -37 319 -37q94 0 133 32.5t39 104.5q0 84 -63 135l-268 219q-164 143 -164 332q0 213 126 297t361 84q115 0 330 -31l-23 -262q-156 25 -272 25q-96 0 -134 -29t-38 -94q0 -80 55 -121l256 -209q100 -86 142.5 -168t42.5 -180 q0 -215 -127 -310t-363 -95z" glyph-name="S" horiz-adv-x="993" unicode="S"/><glyph d="M969 1434v-265h-301v-1169h-342v1169h-303v265h946z" glyph-name="T" horiz-adv-x="991" unicode="T"/><glyph d="M684 -20q-311 0 -427 130t-116 416v908h342v-922q0 -152 40 -203t152.5 -51t151.5 51t39 203v922h342v-908q0 -162 -32.5 -269t-102 -167.5t-162 -85t-227.5 -24.5z" glyph-name="U" horiz-adv-x="1349" unicode="U"/><glyph d="M883 1434h348l-344 -1434h-516l-346 1434h350l231 -1170h45z" glyph-name="V" horiz-adv-x="1255" unicode="V"/><glyph d="M1489 1434h350l-231 -1434h-482l-168 1169h-36l-166 -1169h-484l-229 1434h350l137 -1170h41l156 1170h428l154 -1170h43z" glyph-name="W" horiz-adv-x="1880" unicode="W"/><glyph d="M846 0l-213 502h-29l-213 -502h-368l356 748l-334 686h367l192 -478h31l192 478h365l-334 -686l354 -748h-366z" glyph-name="X" horiz-adv-x="1234" unicode="X"/><glyph d="M1229 1434l-447 -930v-504h-342v520l-432 914h357l237 -605h29l241 605h357z" glyph-name="Y" horiz-adv-x="1234" unicode="Y"/><glyph d="M117 1434h852v-318l-576 -809v-43h561v-264h-903v322l576 806v41h-510v265z" glyph-name="Z" horiz-adv-x="1038" unicode="Z"/><glyph d="M664 1380h-226v-1480h226v-228h-504v1936h504v-228z" glyph-name="bracketleft" horiz-adv-x="690" unicode="["/><glyph d="M811 -102h-238l-591 1638h237z" glyph-name="backslash" horiz-adv-x="790" unicode="\"/><glyph d="M532 1608v-1936h-505v228h227v1480h-227v228h505z" glyph-name="bracketright" horiz-adv-x="690" unicode="]"/><glyph d="M762 567l-211 676h-25l-213 -676h-264l332 906h317l328 -906h-264z" glyph-name="asciicircum" horiz-adv-x="1075" unicode="^"/><glyph d="M186 -104h1129v-209h-1129v209z" glyph-name="underscore" horiz-adv-x="1499" unicode="_"/><glyph d="M297 1296l-262 408h293l184 -408h-215z" glyph-name="grave" horiz-adv-x="561" unicode="`"/><glyph d="M614 1147q190 0 273.5 -92t83.5 -291v-754l-287 -24l-20 129h-17q-72 -135 -262 -135q-330 0 -330 327q0 338 365 338h225v76q0 96 -36 134t-107 38q-94 0 -312 -51l-45 237q301 68 469 68zM496 188q76 0 112.5 53.5t36.5 172.5v69h-141q-131 0 -131 -149 q0 -146 123 -146z" glyph-name="a" horiz-adv-x="1087" unicode="a"/><glyph d="M692 1147q207 0 314.5 -132t107.5 -462q0 -279 -90 -426t-317 -147q-186 0 -250 135h-17l-22 -129l-285 24v1526h326v-479h14q67 90 219 90zM614 219q96 0 130 70.5t34 271.5q0 205 -34.5 275.5t-131.5 70.5q-84 0 -118.5 -46t-34.5 -173v-250q0 -125 34.5 -172 t120.5 -47z" glyph-name="b" horiz-adv-x="1193" unicode="b"/><glyph d="M592 -20q-262 0 -387 125.5t-125 457.5q0 172 32.5 287t102.5 179.5t160 91t219 26.5q127 0 217 -27l-23 -235q-68 23 -157 22q-129 0 -172 -67.5t-43 -276.5q0 -207 43 -275.5t172 -68.5q100 0 170 23l20 -236q-88 -26 -229 -26z" glyph-name="c" horiz-adv-x="888" unicode="c"/><glyph d="M735 1536h326v-1526l-285 -24l-22 129h-17q-63 -135 -250 -135q-227 0 -317 147t-90 426q0 330 107.5 462t314.5 132q154 0 221 -90h12v479zM416 561q0 -203 34.5 -272.5t131.5 -69.5q84 0 118.5 47t34.5 172v250q0 127 -34.5 173t-116.5 46q-98 0 -133 -70.5t-35 -275.5 z" glyph-name="d" horiz-adv-x="1193" unicode="d"/><glyph d="M399 471q8 -141 54.5 -197.5t142.5 -56.5q121 0 360 53l37 -221q-240 -70 -413 -69q-242 0 -372 139t-130 452q0 324 126 450t369 126q141 0 233.5 -37t140.5 -117t65.5 -179t17.5 -251q0 -61 -4 -92h-627zM578 928q-92 0 -132 -55.5t-49 -208.5h330q-4 156 -34.5 210 t-114.5 54z" glyph-name="e" horiz-adv-x="1105" unicode="e"/><glyph d="M643 1317q-76 0 -102.5 -39t-28.5 -152h215v-215h-215v-911h-326v911h-174v215h174v27q0 219 89.5 307t291.5 88q115 0 207 -18l-20 -225q-39 12 -111 12z" glyph-name="f" horiz-adv-x="749" unicode="f"/><glyph d="M580 272q207 0 327.5 -43t162.5 -110.5t42 -171.5q0 -190 -134 -263t-405 -73q-297 0 -410.5 65.5t-113.5 202.5q0 172 168 215v21q-115 57 -115 164q0 92 105 178l2 2q-121 84 -121 293q0 225 112.5 310t336.5 85q115 0 206 -21h349l12 -161l-141 -25q41 -59 41 -168 q0 -223 -112 -308t-335 -85q-78 0 -154 10l-14 -12q-25 -25 -24 -53q0 -51 84 -52h131zM549 942q-88 0 -119 -37t-31 -143q0 -109 30 -143.5t118 -34.5t116.5 35.5t28.5 142.5q0 109 -28.5 144.5t-114.5 35.5zM575 -188q129 0 177.5 29.5t48.5 103.5q0 76 -49.5 102.5 t-178.5 26.5h-79q-80 -10 -111 -45t-31 -105q0 -63 50 -87.5t173 -24.5z" glyph-name="g" horiz-adv-x="1148" unicode="g"/><glyph d="M760 1147q199 0 270.5 -95.5t71.5 -328.5v-723h-326v705q0 111 -32.5 156.5t-122.5 45.5q-84 0 -123 -44t-39 -158v-705h-326v1536h326v-496h20q80 107 281 107z" glyph-name="h" horiz-adv-x="1220" unicode="h"/><glyph d="M117 1569h352v-283h-352v283zM457 1126v-1126h-328v1126h328z" glyph-name="i" horiz-adv-x="585" unicode="i"/><glyph d="M98 1286v283h353v-283h-353zM96 -389q-117 0 -209 20l21 224q35 -10 98 -11q66 0 86.5 35t20.5 144v1103h325v-1153q0 -209 -79 -285.5t-263 -76.5z" glyph-name="j" horiz-adv-x="575" unicode="j"/><glyph d="M788 0l-260 512h-69v-512h-326v1536h326v-809h76l241 399h363l-359 -499l373 -627h-365z" glyph-name="k" horiz-adv-x="1157" unicode="k"/><glyph d="M430 -20q-176 0 -240.5 74.5t-64.5 252.5v1229h326v-1178q0 -84 16 -111.5t68 -27.5q35 0 75 8l19 -229q-84 -18 -199 -18z" glyph-name="l" horiz-adv-x="655" unicode="l"/><glyph d="M1354 1147q190 0 257.5 -95.5t67.5 -328.5v-723h-325v705q0 113 -29 157.5t-108 44.5q-76 0 -112 -44t-36 -158v-705h-326v705q0 113 -28.5 157.5t-108.5 44.5q-76 0 -111.5 -44t-35.5 -158v-705h-326v1116l287 25l22 -131h15q74 137 288 137q223 0 285 -146h17 q80 146 307 146z" glyph-name="m" horiz-adv-x="1800" unicode="m"/><glyph d="M760 1147q199 0 270.5 -95.5t71.5 -328.5v-723h-326v705q0 111 -32.5 156.5t-122.5 45.5q-84 0 -123 -44t-39 -158v-705h-326v1116l285 25l22 -129h19q78 135 301 135z" glyph-name="n" horiz-adv-x="1220" unicode="n"/><glyph d="M592 -20q-291 0 -401.5 145t-110.5 438q0 332 128 458t384 126q287 0 397.5 -145.5t110.5 -438.5q0 -330 -127 -456.5t-381 -126.5zM592 219q102 0 137 68.5t35 275.5t-35 275.5t-137 68.5q-106 0 -141 -68.5t-35 -275.5t35 -275.5t141 -68.5z" glyph-name="o" horiz-adv-x="1179" unicode="o"/><glyph d="M707 1147q119 0 200.5 -40t125.5 -120t62.5 -179t18.5 -235q0 -330 -107.5 -461.5t-314.5 -131.5q-145 0 -215 83h-18v-432h-326v1485l285 25l20 -121h23q66 127 246 127zM612 219q96 0 131 70.5t35 275.5q0 201 -33.5 271.5t-130.5 70.5q-86 0 -120.5 -47t-34.5 -172 v-250q0 -127 34.5 -173t118.5 -46z" glyph-name="p" horiz-adv-x="1193" unicode="p"/><glyph d="M776 1141l285 -25v-1485h-326v432h-18q-66 -84 -215 -83q-207 0 -314.5 132t-107.5 461q0 135 18.5 234.5t62.5 179.5t126 120t200 40q178 0 246 -125h23zM416 565q0 -205 34.5 -275.5t133.5 -70.5q82 0 116.5 46t34.5 173v250q0 125 -34.5 172t-118.5 47 q-96 0 -131 -69.5t-35 -272.5z" glyph-name="q" horiz-adv-x="1193" unicode="q"/><glyph d="M756 1147q33 0 45 -2l-27 -289q-53 25 -129 25q-102 0 -144 -59.5t-42 -219.5v-602h-326v1116l287 25l24 -152h19q76 158 293 158z" glyph-name="r" horiz-adv-x="808" unicode="r"/><glyph d="M403 -20q-137 0 -335 30l20 236q154 -27 248 -27q74 0 102.5 20.5t28.5 78t-49 90.5l-228 163q-119 84 -118 258q0 176 98 247t281 71q129 0 329 -33l-20 -235q-156 29 -242 28q-57 0 -78.5 -20.5t-21.5 -67.5q0 -51 41 -80l198 -143q84 -61 123 -125.5t39 -159.5 q0 -331 -416 -331z" glyph-name="s" horiz-adv-x="870" unicode="s"/><glyph d="M698 911h-194v-555q0 -82 16.5 -109.5t67.5 -27.5q35 0 71 8l19 -231q-76 -16 -193 -16q-176 0 -240.5 74.5t-64.5 252.5v604h-162v215h162v273h324v-273h194v-215z" glyph-name="t" horiz-adv-x="763" unicode="t"/><glyph d="M748 1126h325v-1116l-287 -24l-20 129h-18q-76 -135 -295 -135q-193 0 -262.5 95t-69.5 328v723h325v-704q0 -113 31 -158t117 -45q80 0 117 44t37 159v704z" glyph-name="u" horiz-adv-x="1206" unicode="u"/><glyph d="M723 1126h342l-274 -1126h-506l-275 1126h342l164 -897h43z" glyph-name="v" horiz-adv-x="1073" unicode="v"/><glyph d="M1452 1126h344l-233 -1126h-473l-168 897h-33l-168 -897h-471l-234 1126h342l131 -897h37l160 897h440l158 -897h39z" glyph-name="w" horiz-adv-x="1810" unicode="w"/><glyph d="M764 0l-186 379h-41l-189 -379h-348l332 586l-307 540h348l168 -333h32l166 333h351l-308 -540l332 -586h-350z" glyph-name="x" horiz-adv-x="1112" unicode="x"/><glyph d="M721 1126h342l-299 -1163q-49 -193 -159.5 -272.5t-291.5 -79.5q-100 0 -209 24l21 224q109 -16 178 -17q94 0 138 34t65 142l6 27h-229l-271 1081h342l158 -852h43z" glyph-name="y" horiz-adv-x="1071" unicode="y"/><glyph d="M369 227h493v-227h-819v279l475 587v33h-442v227h764v-280l-471 -580v-39z" glyph-name="z" horiz-adv-x="911" unicode="z"/><glyph d="M664 -88l20 -217q-76 -25 -192 -25q-164 0 -234 70t-70 258v377q0 102 -21.5 136t-90.5 34v190q70 0 91 33t21 135v377q0 188 70 258t234 70q117 0 190 -25l-18 -215q-51 18 -113 18q-53 0 -71.5 -29.5t-18.5 -119.5v-344q0 -102 -24.5 -160.5t-88.5 -87.5v-10 q63 -31 88 -88.5t25 -159.5v-346q0 -90 18.5 -120t71.5 -30q62 1 113 21z" glyph-name="braceleft" horiz-adv-x="708" unicode="{"/><glyph d="M430 1653v-2042h-231v2042h231z" glyph-name="bar" horiz-adv-x="628" unicode="|"/><glyph d="M520 903q0 -100 22.5 -134t92.5 -34v-190q-70 0 -92.5 -34t-22.5 -136v-377q0 -188 -69.5 -258t-233.5 -70q-115 0 -192 25l18 217q55 -20 115 -21q53 0 71.5 30t18.5 120v346q0 100 24.5 157.5t85.5 88.5v14q-61 29 -85.5 86.5t-24.5 159.5v344q0 90 -18.5 119.5 t-71.5 29.5q-59 0 -115 -18l-18 215q78 25 192 25q164 0 233.5 -70t69.5 -258v-377z" glyph-name="braceright" horiz-adv-x="708" unicode="}"/><glyph d="M334 451l-184 59q0 135 83.5 231.5t215.5 96.5q84 0 178 -56l149 -88q35 -20 66 -20q86 0 114 143l183 -59q0 -137 -85 -232.5t-212 -95.5q-88 0 -178 53l-152 90q-31 18 -63 19q-88 0 -115 -141z" glyph-name="asciitilde" horiz-adv-x="1290" unicode="~"/><glyph glyph-name="uni00A0" horiz-adv-x="538" unicode=" "/><glyph d="M174 1065h352v-311h-352v311zM207 569h287l45 -938h-375z" glyph-name="exclamdown" horiz-adv-x="700" unicode="¡"/><glyph d="M834 6q-70 -20 -175 -24v-199h-210v209q-178 31 -266.5 162t-88.5 409.5t87 409.5t268 162v208h210v-198q84 -2 164 -25l-20 -235q-68 23 -160 22q-129 0 -172 -67.5t-43 -276.5q0 -207 43 -275.5t172 -68.5q100 0 170 23z" glyph-name="cent" horiz-adv-x="905" unicode="¢"/><glyph d="M492 264h602v-264h-992v264q160 68 181 377h-174v227h174q-4 102 -4 144q0 242 101 342t327 100q137 0 325 -31l-24 -274q-143 27 -234 27q-92 0 -125 -46.5t-33 -181.5q0 -51 2 -80h326v-227h-330q-20 -250 -122 -367v-10z" glyph-name="sterling" horiz-adv-x="1181" unicode="£"/><glyph d="M809 705v-9h307v-178h-307v-108h307v-179h-307v-231h-330v231h-307v179h307v108h-307v178h307v11l-428 727h352l240 -488h16l244 488h352z" glyph-name="yen" horiz-adv-x="1302" unicode="¥"/><glyph d="M199 834v819h231v-819h-231zM199 -389v819h231v-819h-231z" glyph-name="brokenbar" horiz-adv-x="628" unicode="¦"/><glyph d="M852 227v-10q92 -94 92 -248q0 -387 -469 -387q-168 0 -377 35l19 244q227 -33 317 -33q111 0 151 31.5t40 101.5q0 47 -14.5 73.5t-55.5 53.5l-279 180q-156 98 -155 303q0 190 145 263v2q-109 94 -108 266q0 195 119.5 273.5t340.5 78.5q152 0 318 -24l-18 -242 q-143 20 -256 20q-111 0 -149 -20.5t-38 -85.5q0 -70 57 -107l261 -170q109 -70 147.5 -146.5t38.5 -178.5q0 -187 -127 -273zM424 584q0 -45 13.5 -66.5t43.5 -42.5l156 -102q43 31 43 108q0 49 -15.5 74t-56.5 53l-119 78q-65 -22 -65 -102z" glyph-name="section" horiz-adv-x="1081" unicode="§"/><glyph d="M133 1587h279v-260h-279v260zM598 1587h279v-260h-279v260z" glyph-name="dieresis" horiz-adv-x="1007" unicode="¨"/><glyph d="M833.5 -20q-319.5 0 -522 210.5t-202.5 526t202.5 526.5t522 211t523.5 -211t204 -526.5t-204 -526t-523.5 -210.5zM833.5 133q243.5 0 402.5 164t159 420t-159 419.5t-402.5 163.5t-401.5 -163.5t-158 -419.5t158 -420t401.5 -164zM872 328q-180 0 -248.5 94t-68.5 289 q0 221 75 309t240 88q94 0 160 -27l-12 -151q-49 27 -131 26q-80 0 -107.5 -49t-27.5 -190.5t27.5 -189.5t107.5 -48t131 25l24 -148q-64 -28 -170 -28z" glyph-name="copyright" horiz-adv-x="1667" unicode="©"/><glyph d="M469 1444q137 0 193.5 -65.5t56.5 -200.5v-523l-205 -18l-14 84h-8q-51 -88 -181 -88q-231 0 -231 231q0 233 254 234h153v51q0 115 -96 115q-61 0 -217 -37l-33 168q211 49 328 49zM307 880.5q0 -98.5 80 -98.5q53 0 76.5 38t23.5 118v41h-94q-86 0 -86 -98.5z" glyph-name="ordfeminine" horiz-adv-x="851" unicode="ª"/><glyph d="M47 713l440 387v-252l-251 -275l251 -274v-254l-440 389v279zM991 1100v-252l-254 -275l254 -274v-254l-442 389v279z" glyph-name="guillemotleft" horiz-adv-x="1077" unicode="«"/><glyph d="M573 1444q211 0 347.5 -144.5t136.5 -353.5q0 -211 -136.5 -355.5t-347.5 -144.5t-347 144.5t-136 355.5q0 209 136 353.5t347 144.5zM573.5 549q161.5 0 268 112.5t106.5 284.5q0 170 -106.5 282.5t-268 112.5t-267 -112.5t-105.5 -282.5q0 -172 105.5 -284.5 t267 -112.5zM737 1051q0 -94 -69 -138l116 -215h-137l-88 191h-43v-191h-127v506h154q113 0 153.5 -35.5t40.5 -117.5zM516 1118v-147h25q43 0 58 14t15 59q0 43 -15 58.5t-58 15.5h-25z" glyph-name="registered" horiz-adv-x="1146" unicode="®"/><glyph d="M133 1559h619v-220h-619v220z" glyph-name="macron" horiz-adv-x="882" unicode="¯"/><glyph d="M483 862q-156 0 -255 99.5t-99 246.5q0 145 99.5 245.5t254.5 100.5q158 0 258.5 -100t100.5 -246q0 -147 -100.5 -246.5t-258.5 -99.5zM483 1040q72 0 118 48.5t46 119.5q0 70 -46 119t-118 49q-70 0 -115.5 -49t-45.5 -118.5t45.5 -119t115.5 -49.5z" glyph-name="degree" horiz-adv-x="966" unicode="°"/><glyph d="M772 895h371v-254h-371v-313h-254v313h-371v254h371v311h254v-311zM147 -47v254h996v-254h-996z" glyph-name="plusminus" horiz-adv-x="1290" unicode="±"/><glyph d="M326 944q-61 -53 -62 -127h348v-174h-583v154q0 82 30.5 137t116.5 131l172 147q35 33 35 76q0 45 -24.5 62.5t-90.5 17.5q-70 0 -180 -18l-16 174q123 20 223 20q170 0 243.5 -60.5t73.5 -178.5q0 -109 -100 -199z" glyph-name="uni00B2" horiz-adv-x="659" unicode="²"/><glyph d="M512 1108q106 -47 106 -199q0 -158 -81.5 -220t-262.5 -62q-164 0 -239 37l16 180q68 -37 223 -37q72 0 93.5 20.5t21.5 85.5q0 68 -21.5 88.5t-88.5 20.5h-136v160h127q61 0 79 16t18 72q0 63 -19.5 81.5t-85.5 18.5q-141 0 -192 -31l-17 170q61 31 217 31 q176 0 251 -56.5t75 -183.5q0 -135 -84 -186v-6z" glyph-name="uni00B3" horiz-adv-x="675" unicode="³"/><glyph d="M45 1296l184 408h291l-260 -408h-215z" glyph-name="acute" horiz-adv-x="561" unicode="´"/><glyph d="M1227 1434v-1803h-234v1598h-133v-1598h-233v832h-6q-285 0 -417 122t-132 404q0 238 115.5 341.5t433.5 103.5h606z" glyph-name="paragraph" horiz-adv-x="1423" unicode="¶"/><glyph d="M131 444v342h356v-342h-356z" glyph-name="periodcentered" horiz-adv-x="618" unicode="·"/><glyph d="M303 -100q117 -6 165 -54.5t50 -130.5q-2 -111 -71.5 -164t-176.5 -53q-92 0 -198 37l10 125q57 -25 117 -25q90 0 90 78q0 63 -70 64h-102l59 295h180z" glyph-name="cedilla" horiz-adv-x="575" unicode="¸"/><glyph d="M434 819h158v-174h-553v174h172v537l-158 -41l-28 172l186 49h223v-717z" glyph-name="uni00B9" horiz-adv-x="608" unicode="¹"/><glyph d="M508 633q-203 0 -279.5 101.5t-76.5 303.5q0 223 87 314.5t269 91.5q201 0 277.5 -102.5t76.5 -303.5q0 -223 -86 -314t-268 -91zM508 805q70 0 92.5 46t22.5 187.5t-22.5 187.5t-92.5 46t-93.5 -46t-23.5 -187.5t23.5 -187.5t93.5 -46z" glyph-name="ordmasculine" horiz-adv-x="1013" unicode="º"/><glyph d="M86 848v252l442 -387v-279l-442 -389v254l254 274zM590 1100l442 -387v-279l-442 -389v254l252 274l-252 275v252z" glyph-name="guillemotright" horiz-adv-x="1077" unicode="»"/><glyph d="M1020 1475h223l-596 -1516h-223zM557 733v-176h-530v176h161v520l-149 -43l-31 172l180 52h220v-701h149zM1671 342v-176h-84v-166h-194v166h-373v203l207 508h196l-194 -521v-14h164v242h194v-242h84z" glyph-name="onequarter" horiz-adv-x="1693" unicode="¼"/><glyph d="M1020 1475h223l-596 -1516h-223zM557 733v-176h-530v176h161v520l-149 -43l-31 172l180 52h220v-701h149zM1386 303q-57 -53 -57 -127h322v-176h-555v156q0 80 28.5 134t110.5 130l158 143q31 29 30 70q0 47 -22.5 64.5t-81.5 17.5q-63 0 -166 -17l-14 172q123 20 209 21 q160 0 231.5 -57.5t71.5 -180.5q0 -106 -95 -196z" glyph-name="onehalf" horiz-adv-x="1687" unicode="½"/><glyph d="M1001 1475h224l-596 -1516h-223zM578 825q0 -160 -79 -220t-249 -60q-154 0 -225 33l14 178q70 -31 203 -31q61 0 85.5 23.5t24.5 80.5q0 61 -22.5 83t-77.5 22h-125v158h113q53 0 72.5 19t19.5 69q0 57 -20.5 76.5t-78.5 19.5q-127 0 -176 -27l-14 170q63 29 203 29 q170 0 240.5 -55.5t70.5 -180.5q0 -139 -82 -184v-10q103 -39 103 -193zM1653 342v-176h-84v-166h-195v166h-373v203l207 508h197l-195 -521v-14h164v242h195v-242h84z" glyph-name="threequarters" horiz-adv-x="1675" unicode="¾"/><glyph d="M383 754v311h352v-311h-352zM516 -389q-240 0 -351.5 84t-111.5 258q0 96 37 157.5t111 122.5l88 72q72 59 98.5 98t28.5 111l2 55h284l3 -69q4 -131 -19.5 -189.5t-130.5 -140.5l-96 -74q-55 -39 -56 -98q0 -66 34 -87.5t134 -21.5q102 0 265 21l24 -268 q-192 -31 -344 -31z" glyph-name="questiondown" horiz-adv-x="925" unicode="¿"/><glyph d="M754 1604h-215l-263 407h293zM942 0l-74 338h-422l-73 -338h-350l374 1434h521l374 -1434h-350zM504 602h307l-123 567h-61z" glyph-name="Agrave" horiz-adv-x="1314" unicode="À"/><glyph d="M1024 2011l-260 -407h-215l184 407h291zM942 0l-74 338h-422l-73 -338h-350l374 1434h521l374 -1434h-350zM504 602h307l-123 567h-61z" glyph-name="Aacute" horiz-adv-x="1314" unicode="Á"/><glyph d="M655 1833l-190 -238h-225l264 408h301l266 -408h-225zM942 0l-74 338h-422l-73 -338h-350l374 1434h521l374 -1434h-350zM504 602h307l-123 567h-61z" glyph-name="Acircumflex" horiz-adv-x="1314" unicode="Â"/><glyph d="M518 1722q-61 0 -76 -108h-149q0 137 63.5 222t163.5 85q70 0 144 -49l86 -64q31 -20 55 -20q59 0 76 106h145q0 -141 -61.5 -223t-161.5 -82q-80 0 -141 49l-89 64q-28 20 -55 20zM942 0l-74 338h-422l-73 -338h-350l374 1434h521l374 -1434h-350zM504 602h307l-123 567 h-61z" glyph-name="Atilde" horiz-adv-x="1314" unicode="Ã"/><glyph d="M561 1894v-260h-278v260h278zM1026 1894v-260h-278v260h278zM942 0l-74 338h-422l-73 -338h-350l374 1434h521l374 -1434h-350zM504 602h307l-123 567h-61z" glyph-name="Adieresis" horiz-adv-x="1314" unicode="Ä"/><glyph d="M655 1550q-154 0 -213 62.5t-59 185.5q0 137 69.5 191.5t202.5 54.5q152 0 211.5 -63.5t59.5 -182.5q0 -139 -69 -193.5t-202 -54.5zM655 1911q-61 0 -88.5 -24.5t-27.5 -88.5q0 -59 25.5 -88t90.5 -29q57 0 86 25t29 92q0 57 -24.5 85t-90.5 28zM942 0l-74 338h-422 l-73 -338h-350l374 1434h521l374 -1434h-350zM504 602h307l-123 567h-61z" glyph-name="Aring" horiz-adv-x="1314" unicode="Å"/><glyph d="M1231 264h493v-264h-835v338h-391l-136 -338h-350l625 1434h1063v-265h-469v-295h434v-264h-434v-346zM604 602h285v567h-55z" glyph-name="AE" horiz-adv-x="1812" unicode="Æ"/><glyph d="M659 -100q117 -6 165 -54.5t50 -130.5q-2 -111 -71.5 -164t-175.5 -53q-92 0 -199 37l10 125q57 -25 117 -25q90 0 90 78q0 63 -70 64h-102l45 219q-227 47 -318 221t-91 490q0 221 36.5 368.5t115.5 229t181.5 115.5t251.5 34q172 0 299 -47l-26 -272q-96 41 -238 41 q-156 0 -213 -93.5t-57 -366t57 -365.5t213 -93q145 0 238 43l49 -268q-123 -53 -314 -53h-18z" glyph-name="Ccedilla" horiz-adv-x="1075" unicode="Ç"/><glyph d="M668 1604h-215l-263 407h293zM508 264h496v-264h-838v1434h813v-265h-471v-295h434v-264h-434v-346z" glyph-name="Egrave" horiz-adv-x="1091" unicode="È"/><glyph d="M938 2011l-260 -407h-215l184 407h291zM508 264h496v-264h-838v1434h813v-265h-471v-295h434v-264h-434v-346z" glyph-name="Eacute" horiz-adv-x="1091" unicode="É"/><glyph d="M569 1833l-190 -238h-225l264 408h301l266 -408h-225zM508 264h496v-264h-838v1434h813v-265h-471v-295h434v-264h-434v-346z" glyph-name="Ecircumflex" horiz-adv-x="1091" unicode="Ê"/><glyph d="M475 1894v-260h-278v260h278zM940 1894v-260h-278v260h278zM508 264h496v-264h-838v1434h813v-265h-471v-295h434v-264h-434v-346z" glyph-name="Edieresis" horiz-adv-x="1091" unicode="Ë"/><glyph d="M221 1604l-262 407h293l184 -407h-215zM508 1434v-1434h-342v1434h342z" glyph-name="Igrave" horiz-adv-x="671" unicode="Ì"/><glyph d="M231 1604l185 407h291l-261 -407h-215zM508 1434v-1434h-342v1434h342z" glyph-name="Iacute" horiz-adv-x="671" unicode="Í"/><glyph d="M487 2003l267 -408h-226l-190 238l-191 -238h-225l264 408h301zM166 0v1434h342v-1434h-342z" glyph-name="Icircumflex" horiz-adv-x="671" unicode="Î"/><glyph d="M-35 1894h279v-260h-279v260zM430 1894h279v-260h-279v260zM508 1434v-1434h-342v1434h342z" glyph-name="Idieresis" horiz-adv-x="671" unicode="Ï"/><glyph d="M694 1434q301 0 429 -176.5t128 -540.5q0 -387 -137 -552t-420 -165h-528v600h-137v231h137v603h528zM668 258q131 0 181 98.5t50 360.5t-50 360.5t-181 98.5h-160v-345h270v-231h-270v-342h160z" glyph-name="Eth" horiz-adv-x="1353" unicode="Ð"/><glyph d="M578 1722q-61 0 -76 -108h-150q0 137 63.5 222t164.5 85q70 0 143 -49l86 -64q31 -20 55 -20q59 0 76 106h145q0 -141 -61 -223t-162 -82q-80 0 -141 49l-88 64q-28 20 -55 20zM954 1434h310v-1434h-494l-272 1042h-25v-1042h-307v1434h496l270 -1039h22v1039z" glyph-name="Ntilde" horiz-adv-x="1427" unicode="Ñ"/><glyph d="M584 1604l-262 407h292l185 -407h-215zM702 -20q-338 0 -464.5 179t-126.5 558q0 217 37.5 363.5t116.5 227.5t183.5 113.5t253.5 32.5q174 0 291 -47t181.5 -146.5t91 -228.5t26.5 -315q0 -217 -37.5 -363.5t-116.5 -227.5t-182.5 -113.5t-253.5 -32.5zM702 258 q139 0 189.5 93t50.5 366q0 270 -50 364.5t-190 94.5q-141 0 -191 -93.5t-50 -365.5q0 -270 50 -364.5t191 -94.5z" glyph-name="Ograve" horiz-adv-x="1400" unicode="Ò"/><glyph d="M594 1604l184 407h291l-260 -407h-215zM702 -20q-338 0 -464.5 179t-126.5 558q0 217 37.5 363.5t116.5 227.5t183.5 113.5t253.5 32.5q174 0 291 -47t181.5 -146.5t91 -228.5t26.5 -315q0 -217 -37.5 -363.5t-116.5 -227.5t-182.5 -113.5t-253.5 -32.5zM702 258 q139 0 189.5 93t50.5 366q0 270 -50 364.5t-190 94.5q-141 0 -191 -93.5t-50 -365.5q0 -270 50 -364.5t191 -94.5z" glyph-name="Oacute" horiz-adv-x="1400" unicode="Ó"/><glyph d="M700 1833l-190 -238h-225l264 408h301l266 -408h-225zM702 1454q174 0 291 -47t181.5 -146.5t91 -228.5t26.5 -315q0 -217 -37.5 -363.5t-116.5 -227.5t-182.5 -113.5t-253.5 -32.5q-338 0 -464.5 179t-126.5 558q0 217 37.5 363.5t116.5 227.5t183 113.5t254 32.5z M702 258q139 0 189.5 93t50.5 366q0 270 -50 364.5t-190 94.5q-141 0 -191 -93.5t-50 -365.5q0 -270 50 -364.5t191 -94.5z" glyph-name="Ocircumflex" horiz-adv-x="1400" unicode="Ô"/><glyph d="M848 1589q-80 0 -141 49l-89 64q-29 20 -55 20q-61 0 -76 -108h-149q0 137 63.5 222t163.5 85q70 0 144 -49l86 -64q31 -20 55 -20q59 0 76 106h145q0 -141 -61.5 -223t-161.5 -82zM702 -20q-338 0 -464.5 179t-126.5 558q0 217 37.5 363.5t116.5 227.5t183.5 113.5 t253.5 32.5q174 0 291 -47t181.5 -146.5t91 -228.5t26.5 -315q0 -217 -37.5 -363.5t-116.5 -227.5t-182.5 -113.5t-253.5 -32.5zM702 258q139 0 189.5 93t50.5 366q0 270 -50 364.5t-190 94.5q-141 0 -191 -93.5t-50 -365.5q0 -270 50 -364.5t191 -94.5z" glyph-name="Otilde" horiz-adv-x="1400" unicode="Õ"/><glyph d="M328 1894h278v-260h-278v260zM793 1894h278v-260h-278v260zM702 -20q-338 0 -464.5 179t-126.5 558q0 217 37.5 363.5t116.5 227.5t183.5 113.5t253.5 32.5q174 0 291 -47t181.5 -146.5t91 -228.5t26.5 -315q0 -217 -37.5 -363.5t-116.5 -227.5t-182.5 -113.5 t-253.5 -32.5zM702 258q139 0 189.5 93t50.5 366q0 270 -50 364.5t-190 94.5q-141 0 -191 -93.5t-50 -365.5q0 -270 50 -364.5t191 -94.5z" glyph-name="Odieresis" horiz-adv-x="1400" unicode="Ö"/><glyph d="M1122 874l-299 -299l299 -299l-178 -178l-299 299l-297 -299l-180 178l299 299l-299 299l180 179l297 -299l299 299z" glyph-name="multiply" horiz-adv-x="1290" unicode="×"/><glyph d="M1065 1368q125 -82 176 -241.5t51 -409.5q0 -217 -37.5 -363.5t-116.5 -227.5t-182.5 -113.5t-253.5 -32.5q-92 0 -165 12l-37 -94h-230l66 170q-125 82 -175 240.5t-50 408.5q0 217 37.5 363.5t116.5 227.5t183.5 113.5t253.5 32.5q88 0 162 -12l37 94h229zM461 717 q0 -178 20 -275l279 729q-33 4 -58 5q-141 0 -191 -93.5t-50 -365.5zM702 258q139 0 189.5 93t50.5 366q0 180 -20 276l-281 -731q36 -4 61 -4z" glyph-name="Oslash" horiz-adv-x="1400" unicode="Ø"/><glyph d="M559 1604l-262 407h293l184 -407h-215zM684 -20q-311 0 -427 130t-116 416v908h342v-922q0 -152 40 -203t152.5 -51t151.5 51t39 203v922h342v-908q0 -162 -32.5 -269t-102 -167.5t-162 -85t-227.5 -24.5z" glyph-name="Ugrave" horiz-adv-x="1349" unicode="Ù"/><glyph d="M569 1604l185 407h290l-260 -407h-215zM684 -20q-311 0 -427 130t-116 416v908h342v-922q0 -152 40 -203t152.5 -51t151.5 51t39 203v922h342v-908q0 -162 -32.5 -269t-102 -167.5t-162 -85t-227.5 -24.5z" glyph-name="Uacute" horiz-adv-x="1349" unicode="Ú"/><glyph d="M676 1833l-191 -238h-225l264 408h301l267 -408h-226zM866 1434h342v-908q0 -162 -32.5 -269t-102 -167.5t-162 -85t-227.5 -24.5q-311 0 -427 130t-116 416v908h342v-922q0 -152 40 -203t152.5 -51t151.5 51t39 203v922z" glyph-name="Ucircumflex" horiz-adv-x="1349" unicode="Û"/><glyph d="M303 1894h279v-260h-279v260zM768 1894h279v-260h-279v260zM684 -20q-311 0 -427 130t-116 416v908h342v-922q0 -152 40 -203t152.5 -51t151.5 51t39 203v922h342v-908q0 -162 -32.5 -269t-102 -167.5t-162 -85t-227.5 -24.5z" glyph-name="Udieresis" horiz-adv-x="1349" unicode="Ü"/><glyph d="M987 2011l-260 -407h-215l184 407h291zM1229 1434l-447 -930v-504h-342v520l-432 914h357l237 -605h29l241 605h357z" glyph-name="Yacute" horiz-adv-x="1234" unicode="Ý"/><glyph d="M610 1227q160 0 267.5 -29t167 -88t83 -136t23.5 -188q0 -287 -133 -397t-408 -110h-102v-279h-342v1434h342v-207h102zM588 518q129 0 176 56.5t47 193.5q0 127 -47 173t-176 46h-80v-469h80z" glyph-name="Thorn" horiz-adv-x="1216" unicode="Þ"/><glyph d="M891 -20q-143 0 -328 30l19 236q152 -27 239 -27q70 0 99.5 24.5t29.5 75.5q0 53 -47 93l-172 141q-100 86 -100 219q0 72 21.5 114t97.5 118q66 66 85 96t19 76q0 137 -178 137q-123 0 -169 -66.5t-46 -216.5v-1030h-328v1049q0 264 141.5 381.5t415.5 117.5 q266 0 386 -92t120 -272q0 -84 -35 -142.5t-133 -150.5q-61 -55 -61 -100q0 -41 32 -74l156 -131q80 -68 112.5 -126.5t32.5 -148.5q1 -331 -409 -331z" glyph-name="germandbls" horiz-adv-x="1357" unicode="ß"/><glyph d="M637 1296h-215l-262 408h293zM614 1147q190 0 273.5 -92t83.5 -291v-754l-287 -24l-20 129h-17q-72 -135 -262 -135q-330 0 -330 327q0 338 365 338h225v76q0 96 -36 134t-107 38q-94 0 -312 -51l-45 237q301 68 469 68zM496 188q76 0 112.5 53.5t36.5 172.5v69h-141 q-131 0 -131 -149q0 -146 123 -146z" glyph-name="agrave" horiz-adv-x="1087" unicode="à"/><glyph d="M907 1704l-260 -408h-215l184 408h291zM614 1147q190 0 273.5 -92t83.5 -291v-754l-287 -24l-20 129h-17q-72 -135 -262 -135q-330 0 -330 327q0 338 365 338h225v76q0 96 -36 134t-107 38q-94 0 -312 -51l-45 237q301 68 469 68zM496 188q76 0 112.5 53.5t36.5 172.5v69 h-141q-131 0 -131 -149q0 -146 123 -146z" glyph-name="aacute" horiz-adv-x="1087" unicode="á"/><glyph d="M539 1526l-191 -238h-225l264 408h301l266 -408h-225zM614 1147q190 0 273.5 -92t83.5 -291v-754l-287 -24l-20 129h-17q-72 -135 -262 -135q-330 0 -330 327q0 338 365 338h225v76q0 96 -36 134t-107 38q-94 0 -312 -51l-45 237q301 68 469 68zM496 188q76 0 112.5 53.5 t36.5 172.5v69h-141q-131 0 -131 -149q0 -146 123 -146z" glyph-name="acircumflex" horiz-adv-x="1087" unicode="â"/><glyph d="M401 1415q-61 0 -75 -108h-150q0 137 63.5 222t163.5 85q70 0 144 -49l86 -64q31 -20 55 -20q59 0 76 106h145q0 -141 -61.5 -223t-161.5 -82q-80 0 -141 49l-88 64q-29 20 -56 20zM614 1147q190 0 273.5 -92t83.5 -291v-754l-287 -24l-20 129h-17q-72 -135 -262 -135 q-330 0 -330 327q0 338 365 338h225v76q0 96 -36 134t-107 38q-94 0 -312 -51l-45 237q301 68 469 68zM496 188q76 0 112.5 53.5t36.5 172.5v69h-141q-131 0 -131 -149q0 -146 123 -146z" glyph-name="atilde" horiz-adv-x="1087" unicode="ã"/><glyph d="M444 1587v-260h-278v260h278zM909 1587v-260h-278v260h278zM614 1147q190 0 273.5 -92t83.5 -291v-754l-287 -24l-20 129h-17q-72 -135 -262 -135q-330 0 -330 327q0 338 365 338h225v76q0 96 -36 134t-107 38q-94 0 -312 -51l-45 237q301 68 469 68zM496 188 q76 0 112.5 53.5t36.5 172.5v69h-141q-131 0 -131 -149q0 -146 123 -146z" glyph-name="adieresis" horiz-adv-x="1087" unicode="ä"/><glyph d="M539 1243q-154 0 -213.5 62.5t-59.5 185.5q0 137 70 191.5t203 54.5q152 0 211 -63.5t59 -182.5q0 -139 -68.5 -193.5t-201.5 -54.5zM539 1604q-61 0 -89 -25t-28 -88q0 -59 25.5 -88t91.5 -29q57 0 85.5 24.5t28.5 92.5q0 57 -24 85t-90 28zM614 1147q190 0 273.5 -92 t83.5 -291v-754l-287 -24l-20 129h-17q-72 -135 -262 -135q-330 0 -330 327q0 338 365 338h225v76q0 96 -36 134t-107 38q-94 0 -312 -51l-45 237q301 68 469 68zM496 188q76 0 112.5 53.5t36.5 172.5v69h-141q-131 0 -131 -149q0 -146 123 -146z" glyph-name="aring" horiz-adv-x="1087" unicode="å"/><glyph d="M965 471q8 -141 54 -197.5t142 -56.5q117 0 361 53l39 -221q-242 -70 -418 -69q-264 0 -387 161h-19q-94 -162 -329 -161q-180 0 -272.5 89t-92.5 238q0 338 365 338h225v76q0 96 -36 134t-108 38q-94 0 -311 -51l-45 237q301 68 469 68q160 0 244 -66q111 66 291 66 q143 0 235 -37t141.5 -117t66.5 -180t17 -254q0 -35 -4 -88h-628zM1143 928q-90 0 -131 -55.5t-49 -208.5h329q-4 156 -34.5 210t-114.5 54zM481 188q78 0 115 52.5t37 171.5v71h-141q-131 0 -132 -149q0 -146 121 -146z" glyph-name="ae" horiz-adv-x="1667" unicode="æ"/><glyph d="M545 -100q117 -6 165 -54.5t50 -130.5q-2 -111 -72 -164t-176 -53q-92 0 -199 37l11 125q57 -25 116 -25q90 0 90 78q0 63 -69 64h-103l45 221q-164 37 -243.5 168t-79.5 397q0 172 32.5 287t102.5 179.5t160 91t219 26.5q127 0 217 -27l-23 -235q-68 23 -157 22 q-129 0 -172 -67.5t-43 -276.5q0 -207 43 -275.5t172 -68.5q100 0 170 23l20 -236q-88 -27 -229 -26h-23z" glyph-name="ccedilla" horiz-adv-x="888" unicode="ç"/><glyph d="M657 1296h-215l-262 408h293zM399 471q8 -141 54.5 -197.5t142.5 -56.5q121 0 360 53l37 -221q-240 -70 -413 -69q-242 0 -372 139t-130 452q0 324 126 450t369 126q141 0 233.5 -37t140.5 -117t65.5 -179t17.5 -251q0 -61 -4 -92h-627zM578 928q-92 0 -132 -55.5 t-49 -208.5h330q-4 156 -34.5 210t-114.5 54z" glyph-name="egrave" horiz-adv-x="1105" unicode="è"/><glyph d="M928 1704l-260 -408h-215l184 408h291zM399 471q8 -141 54.5 -197.5t142.5 -56.5q121 0 360 53l37 -221q-240 -70 -413 -69q-242 0 -372 139t-130 452q0 324 126 450t369 126q141 0 233.5 -37t140.5 -117t65.5 -179t17.5 -251q0 -61 -4 -92h-627zM578 928 q-92 0 -132 -55.5t-49 -208.5h330q-4 156 -34.5 210t-114.5 54z" glyph-name="eacute" horiz-adv-x="1105" unicode="é"/><glyph d="M559 1526l-190 -238h-226l265 408h301l266 -408h-225zM399 471q8 -141 54.5 -197.5t142.5 -56.5q121 0 360 53l37 -221q-240 -70 -413 -69q-242 0 -372 139t-130 452q0 324 126 450t369 126q141 0 233.5 -37t140.5 -117t65.5 -179t17.5 -251q0 -61 -4 -92h-627zM578 928 q-92 0 -132 -55.5t-49 -208.5h330q-4 156 -34.5 210t-114.5 54z" glyph-name="ecircumflex" horiz-adv-x="1105" unicode="ê"/><glyph d="M465 1587v-260h-279v260h279zM930 1587v-260h-279v260h279zM399 471q8 -141 54.5 -197.5t142.5 -56.5q121 0 360 53l37 -221q-240 -70 -413 -69q-242 0 -372 139t-130 452q0 324 126 450t369 126q141 0 233.5 -37t140.5 -117t65.5 -179t17.5 -251q0 -61 -4 -92h-627z M578 928q-92 0 -132 -55.5t-49 -208.5h330q-4 156 -34.5 210t-114.5 54z" glyph-name="edieresis" horiz-adv-x="1105" unicode="ë"/><glyph d="M176 1296l-262 408h293l184 -408h-215zM457 1126v-1126h-328v1126h328z" glyph-name="igrave" horiz-adv-x="585" unicode="ì"/><glyph d="M186 1296l185 408h291l-261 -408h-215zM457 1126v-1126h-328v1126h328z" glyph-name="iacute" horiz-adv-x="585" unicode="í"/><glyph d="M442 1696l267 -408h-226l-190 238l-191 -238h-225l264 408h301zM129 0v1126h328v-1126h-328z" glyph-name="icircumflex" horiz-adv-x="585" unicode="î"/><glyph d="M-80 1587h279v-260h-279v260zM385 1587h279v-260h-279v260zM457 1126v-1126h-328v1126h328z" glyph-name="idieresis" horiz-adv-x="585" unicode="ï"/><glyph d="M920 1192q162 -287 161 -655q0 -317 -120.5 -437t-372.5 -120q-297 0 -408.5 130t-111.5 400q0 219 49 344t135 170t227 45q119 0 180 -39h9q-27 61 -52 100q-29 49 -45 74l-272 -69l-66 192l211 53q-29 37 -139 170h348l82 -96l230 57l67 -190l-166 -43q38 -57 54 -86z M573 219q102 0 137 64.5t35 265.5q0 88 -6 162q-12 82 -55 113.5t-123 31.5q-100 0 -133 -62.5t-33 -256.5q0 -193 36 -255.5t142 -62.5z" glyph-name="eth" horiz-adv-x="1142" unicode="ð"/><glyph d="M473 1415q-61 0 -76 -108h-149q0 137 63.5 222t163.5 85q70 0 143 -49l87 -64q31 -20 55 -20q59 0 76 106h145q0 -141 -61.5 -223t-161.5 -82q-80 0 -142 49l-88 64q-28 20 -55 20zM760 1147q199 0 270.5 -95.5t71.5 -328.5v-723h-326v705q0 111 -32.5 156.5t-122.5 45.5 q-84 0 -123 -44t-39 -158v-705h-326v1116l285 25l22 -129h19q78 135 301 135z" glyph-name="ntilde" horiz-adv-x="1220" unicode="ñ"/><glyph d="M473 1296l-262 408h293l184 -408h-215zM592 -20q-291 0 -401.5 145t-110.5 438q0 332 128 458t384 126q287 0 397.5 -145.5t110.5 -438.5q0 -330 -127 -456.5t-381 -126.5zM592 219q102 0 137 68.5t35 275.5t-35 275.5t-137 68.5q-106 0 -141 -68.5t-35 -275.5t35 -275.5 t141 -68.5z" glyph-name="ograve" horiz-adv-x="1179" unicode="ò"/><glyph d="M483 1296l185 408h290l-260 -408h-215zM592 -20q-291 0 -401.5 145t-110.5 438q0 332 128 458t384 126q287 0 397.5 -145.5t110.5 -438.5q0 -330 -127 -456.5t-381 -126.5zM592 219q102 0 137 68.5t35 275.5t-35 275.5t-137 68.5q-106 0 -141 -68.5t-35 -275.5t35 -275.5 t141 -68.5z" glyph-name="oacute" horiz-adv-x="1179" unicode="ó"/><glyph d="M590 1526l-191 -238h-225l264 408h301l267 -408h-226zM592 1147q287 0 397.5 -145.5t110.5 -438.5q0 -330 -127 -456.5t-381 -126.5q-291 0 -401.5 145t-110.5 438q0 332 128 458t384 126zM592 219q102 0 137 68.5t35 275.5t-35 275.5t-137 68.5q-106 0 -141 -68.5 t-35 -275.5t35 -275.5t141 -68.5z" glyph-name="ocircumflex" horiz-adv-x="1179" unicode="ô"/><glyph d="M737 1282q-80 0 -141 49l-88 64q-29 20 -55 20q-61 0 -76 -108h-150q0 137 63.5 222t164.5 85q70 0 143 -49l86 -64q31 -20 55 -20q59 0 76 106h146q0 -141 -62 -223t-162 -82zM592 -20q-291 0 -401.5 145t-110.5 438q0 332 128 458t384 126q287 0 397.5 -145.5 t110.5 -438.5q0 -330 -127 -456.5t-381 -126.5zM592 219q102 0 137 68.5t35 275.5t-35 275.5t-137 68.5q-106 0 -141 -68.5t-35 -275.5t35 -275.5t141 -68.5z" glyph-name="otilde" horiz-adv-x="1179" unicode="õ"/><glyph d="M217 1587h279v-260h-279v260zM682 1587h279v-260h-279v260zM592 -20q-291 0 -401.5 145t-110.5 438q0 332 128 458t384 126q287 0 397.5 -145.5t110.5 -438.5q0 -330 -127 -456.5t-381 -126.5zM592 219q102 0 137 68.5t35 275.5t-35 275.5t-137 68.5q-106 0 -141 -68.5 t-35 -275.5t35 -275.5t141 -68.5z" glyph-name="odieresis" horiz-adv-x="1179" unicode="ö"/><glyph d="M485 840v268h318v-268h-318zM147 449v253h996v-253h-996zM485 43v268h318v-268h-318z" glyph-name="divide" horiz-adv-x="1290" unicode="÷"/><glyph d="M885 1087q119 -63 167 -193t48 -331q0 -332 -127 -457.5t-381 -125.5q-76 0 -131 8l-41 -107h-187l62 160q-119 63 -167 192t-48 330q0 332 128 458t384 126q76 0 127 -8l41 106h186zM416 563q0 -125 10 -184l203 526q-12 2 -37 2q-106 0 -141 -68.5t-35 -275.5zM592 219 q102 0 137 68.5t35 275.5q0 125 -10 185l-203 -527q12 -2 41 -2z" glyph-name="oslash" horiz-adv-x="1179" unicode="ø"/><glyph d="M698 1296h-215l-262 408h293zM748 1126h325v-1116l-287 -24l-20 129h-18q-76 -135 -295 -135q-193 0 -262.5 95t-69.5 328v723h325v-704q0 -113 31 -158t117 -45q80 0 117 44t37 159v704z" glyph-name="ugrave" horiz-adv-x="1206" unicode="ù"/><glyph d="M969 1704l-260 -408h-215l184 408h291zM748 1126h325v-1116l-287 -24l-20 129h-18q-76 -135 -295 -135q-193 0 -262.5 95t-69.5 328v723h325v-704q0 -113 31 -158t117 -45q80 0 117 44t37 159v704z" glyph-name="uacute" horiz-adv-x="1206" unicode="ú"/><glyph d="M600 1526l-190 -238h-226l265 408h301l266 -408h-225zM748 1126h325v-1116l-287 -24l-20 129h-18q-76 -135 -295 -135q-193 0 -262.5 95t-69.5 328v723h325v-704q0 -113 31 -158t117 -45q80 0 117 44t37 159v704z" glyph-name="ucircumflex" horiz-adv-x="1206" unicode="û"/><glyph d="M506 1587v-260h-279v260h279zM971 1587v-260h-279v260h279zM748 1126h325v-1116l-287 -24l-20 129h-18q-76 -135 -295 -135q-193 0 -262.5 95t-69.5 328v723h325v-704q0 -113 31 -158t117 -45q80 0 117 44t37 159v704z" glyph-name="udieresis" horiz-adv-x="1206" unicode="ü"/><glyph d="M907 1704l-260 -408h-215l184 408h291zM721 1126h342l-299 -1163q-49 -193 -159.5 -272.5t-291.5 -79.5q-100 0 -209 24l21 224q109 -16 178 -17q94 0 138 34t65 142l6 27h-229l-271 1081h342l158 -852h43z" glyph-name="yacute" horiz-adv-x="1071" unicode="ý"/><glyph d="M707 1147q119 0 200.5 -40t125.5 -120t62.5 -179t18.5 -235q0 -330 -107.5 -461.5t-314.5 -131.5q-145 0 -215 83h-18v-432h-326v1905h326v-489h18q68 100 230 100zM612 219q96 0 131 70.5t35 275.5q0 201 -33.5 271.5t-130.5 70.5q-86 0 -120.5 -47t-34.5 -172v-250 q0 -127 34.5 -173t118.5 -46z" glyph-name="thorn" horiz-adv-x="1193" unicode="þ"/><glyph d="M444 1587v-260h-278v260h278zM909 1587v-260h-278v260h278zM721 1126h342l-299 -1163q-49 -193 -159.5 -272.5t-291.5 -79.5q-100 0 -209 24l21 224q109 -16 178 -17q94 0 138 34t65 142l6 27h-229l-271 1081h342l158 -852h43z" glyph-name="ydieresis" horiz-adv-x="1071" unicode="ÿ"/><glyph d="M965 1866v-219h-619v219h619zM942 0l-74 338h-422l-73 -338h-350l374 1434h521l374 -1434h-350zM504 602h307l-123 567h-61z" glyph-name="Amacron" horiz-adv-x="1314" unicode="Ā"/><glyph d="M848 1559v-220h-619v220h619zM614 1147q190 0 273.5 -92t83.5 -291v-754l-287 -24l-20 129h-17q-72 -135 -262 -135q-330 0 -330 327q0 338 365 338h225v76q0 96 -36 134t-107 38q-94 0 -312 -51l-45 237q301 68 469 68zM496 188q76 0 112.5 53.5t36.5 172.5v69h-141 q-131 0 -131 -149q0 -146 123 -146z" glyph-name="amacron" horiz-adv-x="1087" unicode="ā"/><glyph d="M657 1579q-199 0 -276.5 81t-77.5 238v37h199v-28q0 -70 34.5 -102.5t118.5 -32.5q78 0 116 27.5t38 107.5v28h199v-37q0 -180 -89.5 -249.5t-261.5 -69.5zM942 0l-74 338h-422l-73 -338h-350l374 1434h521l374 -1434h-350zM504 602h307l-123 567h-61z" glyph-name="Abreve" horiz-adv-x="1314" unicode="Ă"/><glyph d="M541 1272q-199 0 -277 81t-78 238v37h199v-29q0 -70 35 -102.5t119 -32.5q76 0 114.5 28t38.5 107v29h199v-37q0 -180 -89 -249.5t-261 -69.5zM614 1147q190 0 273.5 -92t83.5 -291v-754l-287 -24l-20 129h-17q-72 -135 -262 -135q-330 0 -330 327q0 338 365 338h225v76 q0 96 -36 134t-107 38q-94 0 -312 -51l-45 237q301 68 469 68zM496 188q76 0 112.5 53.5t36.5 172.5v69h-141q-131 0 -131 -149q0 -146 123 -146z" glyph-name="abreve" horiz-adv-x="1087" unicode="ă"/><glyph d="M1323 -297l31 -170q-51 -6 -90 -6q-156 0 -248 61.5t-92 196.5q0 119 100 215h-82l-74 338h-422l-73 -338h-350l374 1434h521l374 -1434h-57q-94 -74 -94 -158q0 -63 50 -101t132 -38zM504 602h307l-123 567h-61z" glyph-name="Aogonek" horiz-adv-x="1314" unicode="Ą"/><glyph d="M1024 -287l31 -170q-53 -6 -90 -6q-156 0 -248 61.5t-92 196.5q0 104 77 193l-18 -2l-20 129h-17q-72 -135 -262 -135q-330 0 -330 327q0 338 365 338h225v76q0 96 -36 134t-107 38q-94 0 -312 -51l-45 237q301 68 469 68q190 0 273.5 -92t83.5 -291v-754l-39 -4 q-90 -74 -90 -153q0 -63 50 -101.5t132 -38.5zM496 188q76 0 112.5 53.5t36.5 172.5v69h-141q-131 0 -131 -149q0 -146 123 -146z" glyph-name="aogonek" horiz-adv-x="1087" unicode="ą"/><glyph d="M492 1604l184 407h291l-260 -407h-215zM702 -20q-174 0 -290.5 47t-183 144t-93 225t-26.5 311q0 221 36.5 368.5t115.5 229t181.5 115.5t251.5 34q172 0 299 -47l-26 -272q-96 41 -238 41q-156 0 -213 -93.5t-57 -366t57 -365.5t213 -93q145 0 238 43l49 -268 q-124 -53 -314 -53z" glyph-name="Cacute" horiz-adv-x="1075" unicode="Ć"/><glyph d="M408 1296l184 408h291l-260 -408h-215zM592 -20q-262 0 -387 125.5t-125 457.5q0 172 32.5 287t102.5 179.5t160 91t219 26.5q127 0 217 -27l-23 -235q-68 23 -157 22q-129 0 -172 -67.5t-43 -276.5q0 -207 43 -275.5t172 -68.5q100 0 170 23l20 -236q-88 -26 -229 -26z " glyph-name="cacute" horiz-adv-x="888" unicode="ć"/><glyph d="M459 1894h280v-260h-280v260zM702 -20q-174 0 -290.5 47t-183 144t-93 225t-26.5 311q0 221 36.5 368.5t115.5 229t181.5 115.5t251.5 34q172 0 299 -47l-26 -272q-96 41 -238 41q-156 0 -213 -93.5t-57 -366t57 -365.5t213 -93q145 0 238 43l49 -268q-124 -53 -314 -53z " glyph-name="Cdotaccent" horiz-adv-x="1075" unicode="Ċ"/><glyph d="M375 1587h280v-260h-280v260zM592 -20q-262 0 -387 125.5t-125 457.5q0 172 32.5 287t102.5 179.5t160 91t219 26.5q127 0 217 -27l-23 -235q-68 23 -157 22q-129 0 -172 -67.5t-43 -276.5q0 -207 43 -275.5t172 -68.5q100 0 170 23l20 -236q-88 -26 -229 -26z" glyph-name="cdotaccent" horiz-adv-x="888" unicode="ċ"/><glyph d="M444 1595l-264 408h226l190 -238l190 238h228l-266 -408h-304zM967 301l49 -268q-123 -53 -314 -53q-174 0 -290.5 47t-183 144t-93 225t-26.5 311q0 221 36.5 368.5t115.5 229t181.5 115.5t251.5 34q172 0 299 -47l-26 -272q-96 41 -238 41q-156 0 -213 -93.5t-57 -366 t57 -365.5t213 -93q146 0 238 43z" glyph-name="Ccaron" horiz-adv-x="1075" unicode="Č"/><glyph d="M360 1288l-264 408h226l190 -238l190 238h228l-266 -408h-304zM631 219q100 0 170 23l20 -236q-88 -27 -229 -26q-262 0 -387 125.5t-125 457.5q0 172 32.5 287t102.5 179.5t160 91t219 26.5q127 0 217 -27l-23 -235q-68 23 -157 22q-129 0 -172 -67.5t-43 -276.5 q0 -207 43 -275.5t172 -68.5z" glyph-name="ccaron" horiz-adv-x="888" unicode="č"/><glyph d="M539 1595l-265 408h226l190 -238l191 238h227l-266 -408h-303zM694 1434q301 0 429 -176.5t128 -540.5q0 -387 -137 -552t-420 -165h-528v1434h528zM668 258q131 0 181 98.5t50 360.5t-50 360.5t-181 98.5h-160v-918h160z" glyph-name="Dcaron" horiz-adv-x="1353" unicode="Ď"/><glyph d="M735 1057v479h326v-1526l-285 -24l-22 129h-17q-63 -135 -250 -135q-227 0 -317 147t-90 426q0 330 107.5 462t314.5 132q154 0 221 -90h12zM1194 1536h281v-258l-101 -307h-151l100 307h-129v258zM416 561q0 -203 34.5 -272.5t131.5 -69.5q84 0 118.5 47t34.5 172v250 q0 127 -34.5 173t-116.5 46q-98 0 -133 -70.5t-35 -275.5z" glyph-name="dcaron" horiz-adv-x="1193" unicode="ď"/><glyph d="M694 1434q301 0 429 -176.5t128 -540.5q0 -387 -137 -552t-420 -165h-528v600h-137v231h137v603h528zM668 258q131 0 181 98.5t50 360.5t-50 360.5t-181 98.5h-160v-345h270v-231h-270v-342h160z" glyph-name="Dcroat" horiz-adv-x="1353" unicode="Đ"/><glyph d="M1229 1393v-183h-168v-1200l-285 -24l-22 129h-17q-63 -135 -250 -135q-227 0 -317 147t-90 426q0 330 107.5 462t314.5 132q154 0 221 -90h12v153h-198v183h198v143h326v-143h168zM416 561q0 -203 34.5 -272.5t131.5 -69.5q84 0 118.5 47t34.5 172v250q0 127 -34.5 173 t-116.5 46q-98 0 -133 -70.5t-35 -275.5z" glyph-name="dcroat" horiz-adv-x="1191" unicode="đ"/><glyph d="M879 1866v-219h-619v219h619zM508 264h496v-264h-838v1434h813v-265h-471v-295h434v-264h-434v-346z" glyph-name="Emacron" horiz-adv-x="1091" unicode="Ē"/><glyph d="M868 1559v-220h-618v220h618zM399 471q8 -141 54.5 -197.5t142.5 -56.5q121 0 360 53l37 -221q-240 -70 -413 -69q-242 0 -372 139t-130 452q0 324 126 450t369 126q141 0 233.5 -37t140.5 -117t65.5 -179t17.5 -251q0 -61 -4 -92h-627zM578 928q-92 0 -132 -55.5 t-49 -208.5h330q-4 156 -34.5 210t-114.5 54z" glyph-name="emacron" horiz-adv-x="1105" unicode="ē"/><glyph d="M711 1894v-260h-281v260h281zM508 264h496v-264h-838v1434h813v-265h-471v-295h434v-264h-434v-346z" glyph-name="Edotaccent" horiz-adv-x="1091" unicode="Ė"/><glyph d="M700 1587v-260h-280v260h280zM399 471q8 -141 54.5 -197.5t142.5 -56.5q121 0 360 53l37 -221q-240 -70 -413 -69q-242 0 -372 139t-130 452q0 324 126 450t369 126q141 0 233.5 -37t140.5 -117t65.5 -179t17.5 -251q0 -61 -4 -92h-627zM578 928q-92 0 -132 -55.5 t-49 -208.5h330q-4 156 -34.5 210t-114.5 54z" glyph-name="edotaccent" horiz-adv-x="1105" unicode="ė"/><glyph d="M985 -297l31 -170q-53 -6 -90 -6q-156 0 -248 61.5t-92 196.5q0 119 100 215h-520v1434h813v-265h-471v-295h434v-264h-434v-346h496v-264h-107q-94 -74 -94 -158q0 -63 50 -101t132 -38z" glyph-name="Eogonek" horiz-adv-x="1091" unicode="Ę"/><glyph d="M399 471q8 -141 54.5 -197.5t142.5 -56.5q121 0 360 53l37 -221q-41 -12 -96 -26q-96 -80 -96 -160q0 -63 49 -101t133 -38l31 -170q-53 -6 -90 -7q-156 0 -249 61.5t-93 196.5q0 92 65 177q-23 -2 -67 -2q-242 0 -372 139t-130 452q0 324 126 450t369 126 q141 0 233.5 -37t140.5 -117t65.5 -179t17.5 -251q0 -61 -4 -92h-627zM578 928q-92 0 -132 -55.5t-49 -208.5h330q-4 156 -34.5 210t-114.5 54z" glyph-name="eogonek" horiz-adv-x="1105" unicode="ę"/><glyph d="M416 1595l-264 408h225l190 -238l191 238h227l-266 -408h-303zM508 264h496v-264h-838v1434h813v-265h-471v-295h434v-264h-434v-346z" glyph-name="Ecaron" horiz-adv-x="1091" unicode="Ě"/><glyph d="M406 1288l-265 408h226l190 -238l191 238h227l-266 -408h-303zM399 471q8 -141 54.5 -197.5t142.5 -56.5q121 0 360 53l37 -221q-240 -70 -413 -69q-242 0 -372 139t-130 452q0 324 126 450t369 126q141 0 233.5 -37t140.5 -117t65.5 -179t17.5 -251q0 -61 -4 -92h-627z M578 928q-92 0 -132 -55.5t-49 -208.5h330q-4 156 -34.5 210t-114.5 54z" glyph-name="ecaron" horiz-adv-x="1105" unicode="ě"/><glyph d="M674 1833l-191 -238h-225l264 408h301l267 -408h-226zM1182 842v-834l-264 -22l-23 135h-18q-98 -141 -306 -141q-109 0 -190.5 35.5t-132.5 98t-83 159t-44 207t-12 251.5q0 221 38.5 364.5t122.5 221.5t191.5 107.5t267.5 29.5q223 0 356 -41l-26 -280q-133 43 -332 43 q-158 0 -213 -91.5t-55 -369.5q0 -272 46 -364.5t181 -92.5q92 0 141.5 48t49.5 177v107h-175v252h480z" glyph-name="Gcircumflex" horiz-adv-x="1296" unicode="Ĝ"/><glyph d="M571 1526l-190 -238h-225l264 408h301l266 -408h-225zM580 272q207 0 327.5 -43t162.5 -110.5t42 -171.5q0 -190 -134 -263t-405 -73q-297 0 -410.5 65.5t-113.5 202.5q0 172 168 215v21q-115 57 -115 164q0 92 105 178l2 2q-121 84 -121 293q0 225 112.5 310t336.5 85 q115 0 206 -21h349l12 -161l-141 -25q41 -59 41 -168q0 -223 -112 -308t-335 -85q-78 0 -154 10l-14 -12q-25 -25 -24 -53q0 -51 84 -52h131zM549 942q-88 0 -119 -37t-31 -143q0 -109 30 -143.5t118 -34.5t116.5 35.5t28.5 142.5q0 109 -28.5 144.5t-114.5 35.5zM575 -188 q129 0 177.5 29.5t48.5 103.5q0 76 -49.5 102.5t-178.5 26.5h-79q-80 -10 -111 -45t-31 -105q0 -63 50 -87.5t173 -24.5z" glyph-name="gcircumflex" horiz-adv-x="1148" unicode="ĝ"/><glyph d="M676 1579q-199 0 -276.5 81t-77.5 238v37h198v-28q0 -70 35 -102.5t119 -32.5q76 0 114.5 27.5t38.5 107.5v28h199v-37q0 -180 -89 -249.5t-261 -69.5zM1182 842v-834l-264 -22l-23 135h-18q-98 -141 -306 -141q-109 0 -190.5 35.5t-132.5 98t-83 159t-44 207t-12 251.5 q0 221 38.5 364.5t122.5 221.5t191.5 107.5t267.5 29.5q223 0 356 -41l-26 -280q-133 43 -332 43q-158 0 -213 -91.5t-55 -369.5q0 -272 46 -364.5t181 -92.5q92 0 141.5 48t49.5 177v107h-175v252h480z" glyph-name="Gbreve" horiz-adv-x="1296" unicode="Ğ"/><glyph d="M573 1272q-199 0 -276.5 81t-77.5 238v37h199v-29q0 -70 34.5 -102.5t118.5 -32.5q76 0 115 28t39 107v29h199v-37q0 -180 -89.5 -249.5t-261.5 -69.5zM580 272q207 0 327.5 -43t162.5 -110.5t42 -171.5q0 -190 -134 -263t-405 -73q-297 0 -410.5 65.5t-113.5 202.5 q0 172 168 215v21q-115 57 -115 164q0 92 105 178l2 2q-121 84 -121 293q0 225 112.5 310t336.5 85q115 0 206 -21h349l12 -161l-141 -25q41 -59 41 -168q0 -223 -112 -308t-335 -85q-78 0 -154 10l-14 -12q-25 -25 -24 -53q0 -51 84 -52h131zM549 942q-88 0 -119 -37 t-31 -143q0 -109 30 -143.5t118 -34.5t116.5 35.5t28.5 142.5q0 109 -28.5 144.5t-114.5 35.5zM575 -188q129 0 177.5 29.5t48.5 103.5q0 76 -49.5 102.5t-178.5 26.5h-79q-80 -10 -111 -45t-31 -105q0 -63 50 -87.5t173 -24.5z" glyph-name="gbreve" horiz-adv-x="1148" unicode="ğ"/><glyph d="M815 1894v-260h-280v260h280zM1182 842v-834l-264 -22l-23 135h-18q-98 -141 -306 -141q-109 0 -190.5 35.5t-132.5 98t-83 159t-44 207t-12 251.5q0 221 38.5 364.5t122.5 221.5t191.5 107.5t267.5 29.5q223 0 356 -41l-26 -280q-133 43 -332 43q-158 0 -213 -91.5 t-55 -369.5q0 -272 46 -364.5t181 -92.5q92 0 141.5 48t49.5 177v107h-175v252h480z" glyph-name="Gdotaccent" horiz-adv-x="1296" unicode="Ġ"/><glyph d="M713 1587v-260h-281v260h281zM580 272q207 0 327.5 -43t162.5 -110.5t42 -171.5q0 -190 -134 -263t-405 -73q-297 0 -410.5 65.5t-113.5 202.5q0 172 168 215v21q-115 57 -115 164q0 92 105 178l2 2q-121 84 -121 293q0 225 112.5 310t336.5 85q115 0 206 -21h349 l12 -161l-141 -25q41 -59 41 -168q0 -223 -112 -308t-335 -85q-78 0 -154 10l-14 -12q-25 -25 -24 -53q0 -51 84 -52h131zM549 942q-88 0 -119 -37t-31 -143q0 -109 30 -143.5t118 -34.5t116.5 35.5t28.5 142.5q0 109 -28.5 144.5t-114.5 35.5zM575 -188q129 0 177.5 29.5 t48.5 103.5q0 76 -49.5 102.5t-178.5 26.5h-79q-80 -10 -111 -45t-31 -105q0 -63 50 -87.5t173 -24.5z" glyph-name="gdotaccent" horiz-adv-x="1148" unicode="ġ"/><glyph d="M1182 842v-834l-264 -22l-23 135h-18q-98 -141 -306 -141q-109 0 -190.5 35.5t-132.5 98t-83 159t-44 207t-12 251.5q0 221 38.5 364.5t122.5 221.5t191.5 107.5t267.5 29.5q223 0 356 -41l-26 -280q-133 43 -332 43q-158 0 -213 -91.5t-55 -369.5q0 -272 46 -364.5 t181 -92.5q92 0 141.5 48t49.5 177v107h-175v252h480zM532 -397v258h281v-258l-100 -310h-152l101 310h-130z" glyph-name="Gcommaaccent" horiz-adv-x="1296" unicode="Ģ"/><glyph d="M713 1585v-258h-281v258l100 307h152l-100 -307h129zM580 272q207 0 327.5 -43t162.5 -110.5t42 -171.5q0 -190 -134 -263t-405 -73q-297 0 -410.5 65.5t-113.5 202.5q0 172 168 215v21q-115 57 -115 164q0 92 105 178l2 2q-121 84 -121 293q0 225 112.5 310t336.5 85 q115 0 206 -21h349l12 -161l-141 -25q41 -59 41 -168q0 -223 -112 -308t-335 -85q-78 0 -154 10l-14 -12q-25 -25 -24 -53q0 -51 84 -52h131zM549 942q-88 0 -119 -37t-31 -143q0 -109 30 -143.5t118 -34.5t116.5 35.5t28.5 142.5q0 109 -28.5 144.5t-114.5 35.5zM575 -188 q129 0 177.5 29.5t48.5 103.5q0 76 -49.5 102.5t-178.5 26.5h-79q-80 -10 -111 -45t-31 -105q0 -63 50 -87.5t173 -24.5z" glyph-name="gcommaaccent" horiz-adv-x="1148" unicode="ģ"/><glyph d="M715 1833l-191 -238h-225l264 408h301l266 -408h-225zM922 1434h340v-1434h-340v610h-414v-610h-342v1434h342v-560h414v560z" glyph-name="Hcircumflex" horiz-adv-x="1427" unicode="Ĥ"/><glyph d="M424 1884l-191 -237h-225l264 407h301l267 -407h-226zM760 1147q199 0 270.5 -95.5t71.5 -328.5v-723h-326v705q0 111 -32.5 156.5t-122.5 45.5q-84 0 -123 -44t-39 -158v-705h-326v1536h326v-496h20q80 107 281 107z" glyph-name="hcircumflex" horiz-adv-x="1220" unicode="ĥ"/><glyph d="M1411 1253v-211h-149v-1042h-340v610h-414v-610h-342v1042h-166v211h166v181h342v-181h414v181h340v-181h149zM922 874v168h-414v-168h414z" glyph-name="Hbar" horiz-adv-x="1411" unicode="Ħ"/><glyph d="M760 1147q199 0 270.5 -95.5t71.5 -328.5v-723h-326v705q0 111 -32.5 156.5t-122.5 45.5q-84 0 -123 -44t-39 -158v-705h-326v1210h-156v183h156v143h326v-143h289v-183h-289v-170h20q80 107 281 107z" glyph-name="hbar" horiz-adv-x="1220" unicode="ħ"/><glyph d="M485 1589q-80 0 -141 49l-88 64q-29 20 -55 20q-61 0 -76 -108h-150q0 137 63.5 222t164.5 85q70 0 143 -49l86 -64q31 -20 55 -20q59 0 76 106h146q0 -141 -62 -223t-162 -82zM508 1434v-1434h-342v1434h342z" glyph-name="Itilde" horiz-adv-x="671" unicode="Ĩ"/><glyph d="M440 1282q-80 0 -141 49l-88 64q-29 20 -55 20q-61 0 -76 -108h-150q0 137 63.5 222t164.5 85q70 0 143 -49l86 -64q31 -20 55 -20q59 0 76 106h146q0 -141 -62 -223t-162 -82zM457 1126v-1126h-328v1126h328z" glyph-name="itilde" horiz-adv-x="585" unicode="ĩ"/><glyph d="M29 1866h618v-219h-618v219zM508 1434v-1434h-342v1434h342z" glyph-name="Imacron" horiz-adv-x="671" unicode="Ī"/><glyph d="M-16 1559h618v-220h-618v220zM457 1126v-1126h-328v1126h328z" glyph-name="imacron" horiz-adv-x="585" unicode="ī"/><glyph d="M340 1579q-199 0 -276.5 81t-77.5 238v37h198v-28q0 -70 35 -102.5t119 -32.5q76 0 115 27.5t39 107.5v28h198v-37q0 -180 -89 -249.5t-261 -69.5zM508 1434v-1434h-342v1434h342z" glyph-name="Ibreve" horiz-adv-x="671" unicode="Ĭ"/><glyph d="M295 1272q-199 0 -276.5 81t-77.5 238v37h198v-29q0 -70 35 -102.5t119 -32.5q76 0 114.5 28t38.5 107v29h199v-37q0 -180 -89 -249.5t-261 -69.5zM457 1126v-1126h-328v1126h328z" glyph-name="ibreve" horiz-adv-x="585" unicode="ĭ"/><glyph d="M537 -297l30 -170q-53 -6 -90 -6q-156 0 -248 61.5t-92 196.5q0 119 101 215h-72v1434h342v-1434h-59q-94 -74 -95 -158q0 -63 50.5 -101t132.5 -38z" glyph-name="Iogonek" horiz-adv-x="671" unicode="Į"/><glyph d="M469 1569v-283h-352v283h352zM479 -297l31 -170q-51 -6 -90 -6q-156 0 -248 61.5t-92 196.5q0 119 100 215h-51v1126h328v-1126h-66q-94 -74 -94 -158q0 -63 50 -101t132 -38z" glyph-name="iogonek" horiz-adv-x="585" unicode="į"/><glyph d="M199 1894h280v-260h-280v260zM508 1434v-1434h-342v1434h342z" glyph-name="Idotaccent" horiz-adv-x="671" unicode="İ"/><glyph d="M457 1126v-1126h-328v1126h328z" glyph-name="dotlessi" horiz-adv-x="585" unicode="ı"/><glyph d="M508 1434v-1434h-342v1434h342zM901 -20q-109 0 -209 20l25 268q33 -10 92 -10q61 0 81.5 29.5t20.5 115.5v1031h342v-1092q0 -207 -81 -284.5t-271 -77.5z" glyph-name="IJ" horiz-adv-x="1409" unicode="Ĳ"/><glyph d="M117 1569h352v-283h-352v283zM741 1286v283h353v-283h-353zM457 1126v-1126h-328v1126h328zM739 -389q-117 0 -209 20l21 224q35 -10 98 -11q66 0 86.5 35t20.5 144v1103h325v-1153q0 -209 -79 -285.5t-263 -76.5z" glyph-name="ij" horiz-adv-x="1218" unicode="ĳ"/><glyph d="M561 2003l266 -408h-225l-190 238l-191 -238h-225l264 408h301zM240 403v1031h342v-1092q0 -207 -81 -284.5t-272 -77.5q-109 0 -209 20l25 268q33 -10 92 -10q61 0 82 29.5t21 115.5z" glyph-name="Jcircumflex" horiz-adv-x="737" unicode="Ĵ"/><glyph d="M434 1696l266 -408h-225l-190 238l-191 -238h-225l264 408h301zM113 23v1103h325v-1153q0 -209 -78.5 -285.5t-263.5 -76.5q-117 0 -209 20l21 224q35 -10 98 -11q66 0 86.5 35t20.5 144z" glyph-name="jcircumflex" horiz-adv-x="575" unicode="ĵ"/><glyph d="M838 748l438 -748h-389l-305 610h-74v-610h-342v1434h342v-560h76l290 560h371zM532 -397v258h281v-258l-100 -310h-152l101 310h-130z" glyph-name="Kcommaaccent" horiz-adv-x="1290" unicode="Ķ"/><glyph d="M780 627l373 -627h-365l-260 512h-69v-512h-326v1536h326v-809h76l241 399h363zM451 -397v258h280v-258l-100 -310h-152l101 310h-129z" glyph-name="kcommaaccent" horiz-adv-x="1157" unicode="ķ"/><glyph d="M709 2011l-260 -407h-216l185 407h291zM508 264h377v-264h-719v1434h342v-1170z" glyph-name="Lacute" horiz-adv-x="931" unicode="Ĺ"/><glyph d="M186 1706l185 408h291l-261 -408h-215zM430 -20q-176 0 -240.5 74.5t-64.5 252.5v1229h326v-1178q0 -84 16 -111.5t68 -27.5q35 0 75 8l19 -229q-84 -18 -199 -18z" glyph-name="lacute" horiz-adv-x="655" unicode="ĺ"/><glyph d="M508 264h377v-264h-719v1434h342v-1170zM383 -397v258h281v-258l-101 -310h-151l100 310h-129z" glyph-name="Lcommaaccent" horiz-adv-x="931" unicode="Ļ"/><glyph d="M629 -2q-84 -18 -199 -18q-176 0 -240.5 74.5t-64.5 252.5v1229h326v-1178q0 -84 16 -111.5t68 -27.5q35 0 75 8zM201 -397v258h280v-258l-100 -310h-152l101 310h-129z" glyph-name="lcommaaccent" horiz-adv-x="655" unicode="ļ"/><glyph d="M508 1434v-1170h377v-264h-719v1434h342zM659 1434h281v-258l-100 -308h-150l98 308h-129v258z" glyph-name="Lcaron" horiz-adv-x="931" unicode="Ľ"/><glyph d="M535 219q35 0 75 8l19 -229q-84 -18 -199 -18q-176 0 -240.5 74.5t-64.5 252.5v1229h326v-1178q0 -84 16.5 -111.5t67.5 -27.5zM584 1536h278v-258l-100 -307h-150l101 307h-129v258z" glyph-name="lcaron" horiz-adv-x="655" unicode="ľ"/><glyph d="M508 1434v-1170h377v-264h-719v1434h342zM610 952h357v-342h-357v342z" glyph-name="Ldot" horiz-adv-x="1048" unicode="Ŀ"/><glyph d="M430 -20q-176 0 -240.5 74.5t-64.5 252.5v1229h326v-1178q0 -84 16 -111.5t68 -27.5q35 0 75 8l19 -229q-84 -18 -199 -18zM537 610v342h356v-342h-356z" glyph-name="ldot" horiz-adv-x="929" unicode="ŀ"/><glyph d="M508 264h377v-264h-719v496l-146 -70v248l146 69v691h342v-529l272 129v-246l-272 -129v-395z" glyph-name="Lslash" horiz-adv-x="931" unicode="Ł"/><glyph d="M635 836l-184 -99v-379q0 -84 16 -111.5t68 -27.5q35 0 75 8l19 -229q-84 -18 -199 -18q-176 0 -240.5 74.5t-64.5 252.5v254l-125 -67v237l125 68v737h326v-561l184 98v-237z" glyph-name="lslash" horiz-adv-x="655" unicode="ł"/><glyph d="M1083 2011l-260 -407h-215l185 407h290zM954 1434h310v-1434h-494l-272 1042h-25v-1042h-307v1434h496l270 -1039h22v1039z" glyph-name="Nacute" horiz-adv-x="1427" unicode="Ń"/><glyph d="M979 1704l-260 -408h-215l184 408h291zM760 1147q199 0 270.5 -95.5t71.5 -328.5v-723h-326v705q0 111 -32.5 156.5t-122.5 45.5q-84 0 -123 -44t-39 -158v-705h-326v1116l285 25l22 -129h19q78 135 301 135z" glyph-name="nacute" horiz-adv-x="1220" unicode="ń"/><glyph d="M954 1434h310v-1434h-494l-272 1042h-25v-1042h-307v1434h496l270 -1039h22v1039zM559 -397v258h281v-258l-101 -310h-151l100 310h-129z" glyph-name="Ncommaaccent" horiz-adv-x="1427" unicode="Ņ"/><glyph d="M760 1147q199 0 270.5 -95.5t71.5 -328.5v-723h-326v705q0 111 -32.5 156.5t-122.5 45.5q-84 0 -123 -44t-39 -158v-705h-326v1116l285 25l22 -129h19q78 135 301 135zM471 -397v258h281v-258l-101 -310h-151l100 310h-129z" glyph-name="ncommaaccent" horiz-adv-x="1220" unicode="ņ"/><glyph d="M561 1595l-264 408h225l191 -238l190 238h227l-266 -408h-303zM954 1434h310v-1434h-494l-272 1042h-25v-1042h-307v1434h496l270 -1039h22v1039z" glyph-name="Ncaron" horiz-adv-x="1427" unicode="Ň"/><glyph d="M457 1288l-264 408h225l190 -238l191 238h227l-266 -408h-303zM760 1147q199 0 270.5 -95.5t71.5 -328.5v-723h-326v705q0 111 -32.5 156.5t-122.5 45.5q-84 0 -123 -44t-39 -158v-705h-326v1116l285 25l22 -129h19q78 135 301 135z" glyph-name="ncaron" horiz-adv-x="1220" unicode="ň"/><glyph d="M954 1434h310v-1487q0 -193 -73 -264.5t-251 -71.5q-92 0 -188 18l18 217q45 -10 90 -10q57 0 75.5 26.5t18.5 108.5v29h-184l-272 1042h-25v-1042h-307v1434h496l270 -1039h22v1039z" glyph-name="Eng" horiz-adv-x="1427" unicode="Ŋ"/><glyph d="M760 1147q199 0 270.5 -95.5t71.5 -328.5v-750q0 -209 -79 -285.5t-261 -76.5q-121 0 -209 20l18 224q35 -10 98.5 -10.5t85 32.5t21.5 131v697q0 111 -32.5 156.5t-122.5 45.5q-84 0 -123 -44t-39 -158v-705h-326v1116l285 25l22 -129h19q78 135 301 135z" glyph-name="eng" horiz-adv-x="1220" unicode="ŋ"/><glyph d="M391 1866h619v-219h-619v219zM702 -20q-338 0 -464.5 179t-126.5 558q0 217 37.5 363.5t116.5 227.5t183.5 113.5t253.5 32.5q174 0 291 -47t181.5 -146.5t91 -228.5t26.5 -315q0 -217 -37.5 -363.5t-116.5 -227.5t-182.5 -113.5t-253.5 -32.5zM702 258q139 0 189.5 93 t50.5 366q0 270 -50 364.5t-190 94.5q-141 0 -191 -93.5t-50 -365.5q0 -270 50 -364.5t191 -94.5z" glyph-name="Omacron" horiz-adv-x="1400" unicode="Ō"/><glyph d="M281 1559h618v-220h-618v220zM592 -20q-291 0 -401.5 145t-110.5 438q0 332 128 458t384 126q287 0 397.5 -145.5t110.5 -438.5q0 -330 -127 -456.5t-381 -126.5zM592 219q102 0 137 68.5t35 275.5t-35 275.5t-137 68.5q-106 0 -141 -68.5t-35 -275.5t35 -275.5 t141 -68.5z" glyph-name="omacron" horiz-adv-x="1179" unicode="ō"/><glyph d="M702 1579q-199 0 -276.5 81t-77.5 238v37h199v-28q0 -70 34.5 -102.5t118.5 -32.5q78 0 116 27.5t38 107.5v28h199v-37q0 -180 -89.5 -249.5t-261.5 -69.5zM702 -20q-338 0 -464.5 179t-126.5 558q0 217 37.5 363.5t116.5 227.5t183.5 113.5t253.5 32.5q174 0 291 -47 t181.5 -146.5t91 -228.5t26.5 -315q0 -217 -37.5 -363.5t-116.5 -227.5t-182.5 -113.5t-253.5 -32.5zM702 258q139 0 189.5 93t50.5 366q0 270 -50 364.5t-190 94.5q-141 0 -191 -93.5t-50 -365.5q0 -270 50 -364.5t191 -94.5z" glyph-name="Obreve" horiz-adv-x="1400" unicode="Ŏ"/><glyph d="M592 1272q-199 0 -276.5 81t-77.5 238v37h198v-29q0 -70 35 -102.5t119 -32.5q78 0 115.5 28t37.5 107v29h199v-37q0 -180 -89 -249.5t-261 -69.5zM592 -20q-291 0 -401.5 145t-110.5 438q0 332 128 458t384 126q287 0 397.5 -145.5t110.5 -438.5q0 -330 -127 -456.5 t-381 -126.5zM592 219q102 0 137 68.5t35 275.5t-35 275.5t-137 68.5q-106 0 -141 -68.5t-35 -275.5t35 -275.5t141 -68.5z" glyph-name="obreve" horiz-adv-x="1179" unicode="ŏ"/><glyph d="M397 1599l191 416h291l-273 -416h-209zM823 1599l189 416h291l-271 -416h-209zM702 -20q-338 0 -464.5 179t-126.5 558q0 217 37.5 363.5t116.5 227.5t183.5 113.5t253.5 32.5q174 0 291 -47t181.5 -146.5t91 -228.5t26.5 -315q0 -217 -37.5 -363.5t-116.5 -227.5 t-182.5 -113.5t-253.5 -32.5zM702 258q139 0 189.5 93t50.5 366q0 270 -50 364.5t-190 94.5q-141 0 -191 -93.5t-50 -365.5q0 -270 50 -364.5t191 -94.5z" glyph-name="Ohungarumlaut" horiz-adv-x="1400" unicode="Ő"/><glyph d="M287 1292l190 416h291l-272 -416h-209zM713 1292l188 416h291l-270 -416h-209zM592 -20q-291 0 -401.5 145t-110.5 438q0 332 128 458t384 126q287 0 397.5 -145.5t110.5 -438.5q0 -330 -127 -456.5t-381 -126.5zM592 219q102 0 137 68.5t35 275.5t-35 275.5t-137 68.5 q-106 0 -141 -68.5t-35 -275.5t35 -275.5t141 -68.5z" glyph-name="ohungarumlaut" horiz-adv-x="1179" unicode="ő"/><glyph d="M1268 262h493v-262h-835v10q-98 -31 -246 -30q-338 0 -465 179t-127 558q0 217 38 363.5t117 227.5t183 113.5t254 32.5q147 0 246 -33v13h811v-265h-469v-295h434v-264h-434v-348zM680 258q139 0 189.5 93t50.5 365.5t-49.5 366t-190.5 93.5t-191.5 -93.5t-50.5 -365.5 q0 -270 50.5 -364.5t191.5 -94.5z" glyph-name="OE" horiz-adv-x="1847" unicode="Œ"/><glyph d="M1087 471q8 -141 53.5 -197.5t143.5 -56.5q121 0 361 53l36 -221q-242 -70 -413 -69q-215 0 -336 104q-119 -104 -359 -104q-289 0 -399.5 145t-110.5 438q0 172 35 288t104.5 179.5t158 90t212.5 26.5q225 0 349 -96q115 96 340 96q141 0 233 -37t140 -117t65.5 -179 t17.5 -251q0 -35 -4 -92h-627zM1266 928q-94 0 -133 -55.5t-48 -208.5h328q-4 156 -34.5 210t-112.5 54zM573.5 219q104.5 0 139.5 68.5t35 275.5t-35 275.5t-139.5 68.5t-139.5 -68.5t-35 -275.5t35 -275.5t139.5 -68.5z" glyph-name="oe" horiz-adv-x="1787" unicode="œ"/><glyph d="M1012 2011l-260 -407h-215l184 407h291zM1266 0h-369l-254 545h-29h-106v-545h-342v1434h426q315 0 431 -100.5t116 -332.5q0 -279 -207 -389zM508 1194v-428h78q127 0 172 44t45 171q0 125 -45 169t-172 44h-78z" glyph-name="Racute" horiz-adv-x="1286" unicode="Ŕ"/><glyph d="M782 1704l-260 -408h-215l185 408h290zM756 1147q33 0 45 -2l-27 -289q-53 25 -129 25q-102 0 -144 -59.5t-42 -219.5v-602h-326v1116l287 25l24 -152h19q76 158 293 158z" glyph-name="racute" horiz-adv-x="808" unicode="ŕ"/><glyph d="M932 612l334 -612h-369l-254 545h-29h-106v-545h-342v1434h426q315 0 431 -100.5t116 -332.5q0 -278 -207 -389zM508 1194v-428h78q127 0 172 44t45 171q0 125 -45 169t-172 44h-78zM502 -397v258h280v-258l-100 -310h-152l101 310h-129z" glyph-name="Rcommaaccent" horiz-adv-x="1286" unicode="Ŗ"/><glyph d="M756 1147q33 0 45 -2l-27 -289q-53 25 -129 25q-102 0 -144 -59.5t-42 -219.5v-602h-326v1116l287 25l24 -152h19q76 158 293 158zM272 -397v258h281v-258l-100 -310h-152l100 310h-129z" glyph-name="rcommaaccent" horiz-adv-x="808" unicode="ŗ"/><glyph d="M489 1595l-264 408h226l190 -238l190 238h228l-266 -408h-304zM1266 0h-369l-254 545h-29h-106v-545h-342v1434h426q315 0 431 -100.5t116 -332.5q0 -279 -207 -389zM508 1194v-428h78q127 0 172 44t45 171q0 125 -45 169t-172 44h-78z" glyph-name="Rcaron" horiz-adv-x="1286" unicode="Ř"/><glyph d="M260 1288l-264 408h225l191 -238l190 238h227l-266 -408h-303zM463 989q76 158 293 158q33 0 45 -2l-27 -289q-53 25 -129 25q-102 0 -144 -59.5t-42 -219.5v-602h-326v1116l287 25l24 -152h19z" glyph-name="rcaron" horiz-adv-x="808" unicode="ř"/><glyph d="M379 1604l184 407h291l-260 -407h-215zM434 -20q-147 0 -375 38l23 269q227 -37 319 -37q94 0 133 32.5t39 104.5q0 84 -63 135l-268 219q-164 143 -164 332q0 213 126 297t361 84q115 0 330 -31l-23 -262q-156 25 -272 25q-96 0 -134 -29t-38 -94q0 -80 55 -121 l256 -209q100 -86 142.5 -168t42.5 -180q0 -215 -127 -310t-363 -95z" glyph-name="Sacute" horiz-adv-x="993" unicode="Ś"/><glyph d="M332 1296l184 408h291l-260 -408h-215zM403 -20q-137 0 -335 30l20 236q154 -27 248 -27q74 0 102.5 20.5t28.5 78t-49 90.5l-228 163q-119 84 -118 258q0 176 98 247t281 71q129 0 329 -33l-20 -235q-156 29 -242 28q-57 0 -78.5 -20.5t-21.5 -67.5q0 -51 41 -80 l198 -143q84 -61 123 -125.5t39 -159.5q0 -331 -416 -331z" glyph-name="sacute" horiz-adv-x="870" unicode="ś"/><glyph d="M485 1833l-190 -238h-225l264 408h301l266 -408h-225zM739 733q100 -86 142.5 -168t42.5 -180q0 -215 -127 -310t-363 -95q-147 0 -375 38l23 269q227 -37 319 -37q94 0 133 32.5t39 104.5q0 84 -63 135l-268 219q-164 143 -164 332q0 213 126 297t361 84q115 0 330 -31 l-23 -262q-156 25 -272 25q-96 0 -134 -29t-38 -94q0 -80 55 -121z" glyph-name="Scircumflex" horiz-adv-x="993" unicode="Ŝ"/><glyph d="M438 1526l-190 -238h-225l264 408h301l266 -408h-225zM657 596q84 -61 123 -125.5t39 -159.5q0 -332 -416 -331q-137 0 -335 30l20 236q154 -27 248 -27q74 0 102.5 20.5t28.5 78t-49 90.5l-228 163q-119 84 -118 258q0 176 98 247t281 71q129 0 329 -33l-20 -235 q-156 29 -242 28q-57 0 -78.5 -20.5t-21.5 -67.5q0 -51 41 -80z" glyph-name="scircumflex" horiz-adv-x="870" unicode="ŝ"/><glyph d="M924 385q0 -350 -363 -397l-26 -88q117 -6 165 -54.5t50 -130.5q-2 -111 -72 -164t-176 -53q-92 0 -199 37l10 125q59 -25 117 -25q90 0 90 78q0 63 -69 64h-103l41 203q-131 6 -330 38l23 269q227 -37 319 -37q94 0 133 32.5t39 104.5q0 84 -63 135l-268 219 q-164 143 -164 332q0 213 126 297t361 84q115 0 330 -31l-23 -262q-156 25 -272 25q-96 0 -134 -29t-38 -94q0 -80 55 -121l256 -209q100 -86 142.5 -168t42.5 -180z" glyph-name="Scedilla" horiz-adv-x="993" unicode="Ş"/><glyph d="M819 311q0 -281 -295 -323l-26 -88q117 -6 165 -54.5t50 -130.5q-2 -111 -72 -164t-176 -53q-92 0 -199 37l10 125q57 -25 117 -25q90 0 90 78q0 63 -69 64h-103l41 203q-133 6 -284 30l20 236q154 -27 248 -27q74 0 102.5 20.5t28.5 78t-49 90.5l-228 163 q-119 84 -118 258q0 176 98 247t281 71q129 0 329 -33l-20 -235q-156 29 -242 28q-57 0 -78.5 -20.5t-21.5 -67.5q0 -51 41 -80l198 -143q84 -61 123 -126t39 -159z" glyph-name="scedilla" horiz-adv-x="870" unicode="ş"/><glyph d="M332 1595l-264 408h225l190 -238l191 238h227l-266 -408h-303zM739 733q100 -86 142.5 -168t42.5 -180q0 -215 -127 -310t-363 -95q-147 0 -375 38l23 269q227 -37 319 -37q94 0 133 32.5t39 104.5q0 84 -63 135l-268 219q-164 143 -164 332q0 213 126 297t361 84 q115 0 330 -31l-23 -262q-156 25 -272 25q-96 0 -134 -29t-38 -94q0 -80 55 -121z" glyph-name="Scaron" horiz-adv-x="993" unicode="Š"/><glyph d="M285 1288l-265 408h226l190 -238l191 238h227l-266 -408h-303zM657 596q84 -61 123 -125.5t39 -159.5q0 -332 -416 -331q-137 0 -335 30l20 236q154 -27 248 -27q74 0 102.5 20.5t28.5 78t-49 90.5l-228 163q-119 84 -118 258q0 176 98 247t281 71q129 0 329 -33 l-20 -235q-156 29 -242 28q-57 0 -78.5 -20.5t-21.5 -67.5q0 -51 41 -80z" glyph-name="scaron" horiz-adv-x="870" unicode="š"/><glyph d="M668 0h-86l-31 -100q117 -6 165 -54.5t50 -130.5q-2 -111 -71.5 -164t-176.5 -53q-92 0 -199 37l11 125q59 -25 116 -25q90 0 91 78q0 63 -70 64h-102l45 223h-84v1169h-303v265h946v-265h-301v-1169z" glyph-name="Tcommaaccent" horiz-adv-x="991" unicode="Ţ"/><glyph d="M698 911h-194v-555q0 -82 16.5 -109.5t67.5 -27.5q35 0 71 8l19 -231q-76 -16 -193 -16h-10l-24 -80q117 -6 165 -54.5t50 -130.5q-2 -111 -72 -164t-176 -53q-92 0 -199 37l10 125q57 -25 117 -25q90 0 90 78q0 63 -69 64h-103l47 231q-72 31 -101.5 102.5t-29.5 196.5 v604h-162v215h162v273h324v-273h194v-215z" glyph-name="tcommaaccent" horiz-adv-x="763" unicode="ţ"/><glyph d="M342 1595l-264 408h225l191 -238l190 238h227l-266 -408h-303zM969 1434v-265h-301v-1169h-342v1169h-303v265h946z" glyph-name="Tcaron" horiz-adv-x="991" unicode="Ť"/><glyph d="M612 1794h281v-258l-100 -309h-150l98 309h-129v258zM504 1399v-273h194v-215h-194v-555q0 -82 16.5 -109.5t67.5 -27.5q35 0 71 8l19 -231q-76 -16 -193 -16q-176 0 -240.5 74.5t-64.5 252.5v604h-162v215h162v273h324z" glyph-name="tcaron" horiz-adv-x="763" unicode="ť"/><glyph d="M969 1169h-301v-338h215v-231h-215v-600h-342v600h-193v231h193v338h-303v265h946v-265z" glyph-name="Tbar" horiz-adv-x="991" unicode="Ŧ"/><glyph d="M698 911h-194v-178h186v-233h-186v-144q0 -82 16.5 -109.5t67.5 -27.5q35 0 71 8l19 -231q-76 -16 -193 -16q-176 0 -240.5 74.5t-64.5 252.5v193h-151v233h151v178h-162v215h162v273h324v-273h194v-215z" glyph-name="tbar" horiz-adv-x="763" unicode="ŧ"/><glyph d="M823 1589q-80 0 -141 49l-88 64q-29 20 -55 20q-61 0 -76 -108h-150q0 137 63.5 222t164.5 85q70 0 143 -49l86 -64q31 -20 55 -20q59 0 76 106h146q0 -141 -62 -223t-162 -82zM684 -20q-311 0 -427 130t-116 416v908h342v-922q0 -152 40 -203t152.5 -51t151.5 51t39 203 v922h342v-908q0 -162 -32.5 -269t-102 -167.5t-162 -85t-227.5 -24.5z" glyph-name="Utilde" horiz-adv-x="1349" unicode="Ũ"/><glyph d="M463 1415q-61 0 -76 -108h-149q0 137 63.5 222t163.5 85q70 0 143 -49l86 -64q31 -20 56 -20q59 0 75 106h146q0 -141 -61.5 -223t-161.5 -82q-80 0 -142 49l-88 64q-28 20 -55 20zM748 1126h325v-1116l-287 -24l-20 129h-18q-76 -135 -295 -135q-193 0 -262.5 95 t-69.5 328v723h325v-704q0 -113 31 -158t117 -45q80 0 117 44t37 159v704z" glyph-name="utilde" horiz-adv-x="1206" unicode="ũ"/><glyph d="M367 1866h618v-219h-618v219zM684 -20q-311 0 -427 130t-116 416v908h342v-922q0 -152 40 -203t152.5 -51t151.5 51t39 203v922h342v-908q0 -162 -32.5 -269t-102 -167.5t-162 -85t-227.5 -24.5z" glyph-name="Umacron" horiz-adv-x="1349" unicode="Ū"/><glyph d="M909 1559v-220h-618v220h618zM748 1126h325v-1116l-287 -24l-20 129h-18q-76 -135 -295 -135q-193 0 -262.5 95t-69.5 328v723h325v-704q0 -113 31 -158t117 -45q80 0 117 44t37 159v704z" glyph-name="umacron" horiz-adv-x="1206" unicode="ū"/><glyph d="M678 1579q-199 0 -276.5 81t-77.5 238v37h198v-28q0 -70 35 -102.5t119 -32.5q78 0 115.5 27.5t37.5 107.5v28h199v-37q0 -180 -89 -249.5t-261 -69.5zM684 -20q-311 0 -427 130t-116 416v908h342v-922q0 -152 40 -203t152.5 -51t151.5 51t39 203v922h342v-908 q0 -162 -32.5 -269t-102 -167.5t-162 -85t-227.5 -24.5z" glyph-name="Ubreve" horiz-adv-x="1349" unicode="Ŭ"/><glyph d="M602 1272q-199 0 -276.5 81t-77.5 238v37h198v-29q0 -70 35 -102.5t119 -32.5q76 0 115 28t39 107v29h198v-37q0 -180 -89 -249.5t-261 -69.5zM748 1126h325v-1116l-287 -24l-20 129h-18q-76 -135 -295 -135q-193 0 -262.5 95t-69.5 328v723h325v-704q0 -113 31 -158 t117 -45q80 0 117 44t37 159v704z" glyph-name="ubreve" horiz-adv-x="1206" unicode="ŭ"/><glyph d="M676 1550q-154 0 -213.5 62.5t-59.5 185.5q0 137 70 191.5t203 54.5q152 0 211 -63.5t59 -182.5q0 -139 -68.5 -193.5t-201.5 -54.5zM676 1681q57 0 86 25t29 92q0 57 -25 85t-90 28q-61 0 -89 -24.5t-28 -88.5q0 -59 25.5 -88t91.5 -29zM684 -20q-311 0 -427 130 t-116 416v908h342v-922q0 -152 40 -203t152.5 -51t151.5 51t39 203v922h342v-908q0 -162 -32.5 -269t-102 -167.5t-162 -85t-227.5 -24.5z" glyph-name="Uring" horiz-adv-x="1349" unicode="Ů"/><glyph d="M600 1243q-154 0 -213 62.5t-59 185.5q0 137 69.5 191.5t202.5 54.5q152 0 211 -63.5t59 -182.5q0 -139 -68.5 -193.5t-201.5 -54.5zM600 1604q-61 0 -89 -25t-28 -88q0 -59 26 -88t91 -29q57 0 86 24.5t29 92.5q0 57 -24.5 85t-90.5 28zM748 1126h325v-1116l-287 -24 l-20 129h-18q-76 -135 -295 -135q-193 0 -262.5 95t-69.5 328v723h325v-704q0 -113 31 -158t117 -45q80 0 117 44t37 159v704z" glyph-name="uring" horiz-adv-x="1206" unicode="ů"/><glyph d="M373 1599l190 416h291l-272 -416h-209zM799 1599l188 416h291l-270 -416h-209zM684 -20q-311 0 -427 130t-116 416v908h342v-922q0 -152 40 -203t152.5 -51t151.5 51t39 203v922h342v-908q0 -162 -32.5 -269t-102 -167.5t-162 -85t-227.5 -24.5z" glyph-name="Uhungarumlaut" horiz-adv-x="1349" unicode="Ű"/><glyph d="M778 1708l-272 -416h-209l190 416h291zM932 1292h-209l188 416h291zM748 422v704h325v-1116l-287 -24l-20 129h-18q-76 -135 -295 -135q-193 0 -262.5 95t-69.5 328v723h325v-704q0 -113 31 -158t117 -45q80 0 117 44t37 159z" glyph-name="uhungarumlaut" horiz-adv-x="1206" unicode="ű"/><glyph d="M866 1434h342v-908q0 -274 -95 -395t-298 -145q-78 -68 -78 -144q0 -63 50.5 -101t132.5 -38l30 -170q-53 -6 -90 -6q-156 0 -248 61.5t-92 196.5q0 109 82 197q-262 16 -361.5 146t-99.5 398v908h342v-922q0 -152 40 -203t152.5 -51t151.5 51t39 203v922z" glyph-name="Uogonek" horiz-adv-x="1349" unicode="Ų"/><glyph d="M1133 -287l30 -170q-51 -6 -90 -6q-156 0 -248 61.5t-92 196.5q0 109 80 193l-27 -2l-20 129h-18q-76 -135 -295 -135q-193 0 -262.5 95t-69.5 328v723h325v-704q0 -113 31 -158t117 -45q80 0 117 44t37 159v704h325v-1116l-31 -2q-92 -74 -92 -155q0 -63 50.5 -101.5 t132.5 -38.5z" glyph-name="uogonek" horiz-adv-x="1206" unicode="ų"/><glyph d="M940 1833l-190 -238h-226l264 408h302l266 -408h-226zM1489 1434h350l-231 -1434h-482l-168 1169h-36l-166 -1169h-484l-229 1434h350l137 -1170h41l156 1170h428l154 -1170h43z" glyph-name="Wcircumflex" horiz-adv-x="1880" unicode="Ŵ"/><glyph d="M909 1526l-190 -238h-225l264 408h301l266 -408h-225zM1452 1126h344l-233 -1126h-473l-168 897h-33l-168 -897h-471l-234 1126h342l131 -897h37l160 897h440l158 -897h39z" glyph-name="wcircumflex" horiz-adv-x="1810" unicode="ŵ"/><glyph d="M618 1833l-190 -238h-225l264 408h301l266 -408h-225zM1229 1434l-447 -930v-504h-342v520l-432 914h357l237 -605h29l241 605h357z" glyph-name="Ycircumflex" horiz-adv-x="1234" unicode="Ŷ"/><glyph d="M539 1526l-191 -238h-225l264 408h301l266 -408h-225zM721 1126h342l-299 -1163q-49 -193 -159.5 -272.5t-291.5 -79.5q-100 0 -209 24l21 224q109 -16 178 -17q94 0 138 34t65 142l6 27h-229l-271 1081h342l158 -852h43z" glyph-name="ycircumflex" horiz-adv-x="1071" unicode="ŷ"/><glyph d="M524 1894v-260h-278v260h278zM989 1894v-260h-278v260h278zM1229 1434l-447 -930v-504h-342v520l-432 914h357l237 -605h29l241 605h357z" glyph-name="Ydieresis" horiz-adv-x="1234" unicode="Ÿ"/><glyph d="M889 2011l-260 -407h-215l184 407h291zM117 1434h852v-318l-576 -809v-43h561v-264h-903v322l576 806v41h-510v265z" glyph-name="Zacute" horiz-adv-x="1038" unicode="Ź"/><glyph d="M823 1704l-260 -408h-215l184 408h291zM369 227h493v-227h-819v279l475 587v33h-442v227h764v-280l-471 -580v-39z" glyph-name="zacute" horiz-adv-x="911" unicode="ź"/><glyph d="M662 1894v-260h-281v260h281zM117 1434h852v-318l-576 -809v-43h561v-264h-903v322l576 806v41h-510v265z" glyph-name="Zdotaccent" horiz-adv-x="1038" unicode="Ż"/><glyph d="M596 1587v-260h-281v260h281zM369 227h493v-227h-819v279l475 587v33h-442v227h764v-280l-471 -580v-39z" glyph-name="zdotaccent" horiz-adv-x="911" unicode="ż"/><glyph d="M367 1595l-265 408h226l190 -238l191 238h227l-266 -408h-303zM117 1434h852v-318l-576 -809v-43h561v-264h-903v322l576 806v41h-510v265z" glyph-name="Zcaron" horiz-adv-x="1038" unicode="Ž"/><glyph d="M301 1288l-264 408h225l191 -238l190 238h227l-266 -408h-303zM369 266v-39h493v-227h-819v279l475 587v33h-442v227h764v-280z" glyph-name="zcaron" horiz-adv-x="911" unicode="ž"/><glyph d="M567 1548q115 0 207 -18l-20 -225q-39 12 -111 12q-78 0 -104.5 -41t-26.5 -164v-1112h-326v911h-174v215h174v27q0 219 89 307t292 88z" glyph-name="longs" horiz-adv-x="749" unicode="ſ"/><glyph d="M690 1317q-78 0 -104.5 -41t-26.5 -164v-219h215v-213h-215v-707q0 -207 -79 -284.5t-259 -77.5q-94 0 -162 10l21 225q10 -2 47 -2q63 -2 84.5 35t21.5 144v657h-163v213h163v260q0 219 89.5 307t289.5 88q117 0 209 -18l-20 -225q-39 12 -111 12z" glyph-name="florin" horiz-adv-x="858" unicode="ƒ"/><glyph d="M1243 1679h199v-206q0 -139 -53.5 -208t-165.5 -89q70 -162 69 -459q0 -217 -37.5 -363.5t-116.5 -227.5t-182.5 -113.5t-253.5 -32.5q-338 0 -464.5 179t-126.5 558q0 217 37.5 363.5t116.5 227.5t183.5 113.5t253.5 32.5q268 0 406 -119q72 4 103.5 35t31.5 103v206z M702 258q139 0 189.5 93t50.5 366q0 270 -50 364.5t-190 94.5q-141 0 -191 -93.5t-50 -365.5q0 -270 50 -364.5t191 -94.5z" glyph-name="Ohorn" horiz-adv-x="1400" unicode="Ơ"/><glyph d="M1102 1356h198v-207q0 -145 -57 -213t-176 -86q33 -119 33 -287q0 -330 -127 -456.5t-381 -126.5q-291 0 -401.5 145t-110.5 438q0 332 128 458t384 126q266 0 387 -133q66 4 94.5 35.5t28.5 99.5v207zM592 219q102 0 137 68.5t35 275.5t-35 275.5t-137 68.5 q-106 0 -141 -68.5t-35 -275.5t35 -275.5t141 -68.5z" glyph-name="ohorn" horiz-adv-x="1179" unicode="ơ"/><glyph d="M1298 1778h199v-207q0 -160 -69.5 -227.5t-219.5 -77.5v-740q0 -162 -32.5 -269t-102 -167.5t-162 -85t-227.5 -24.5q-311 0 -427 130t-116 416v908h342v-922q0 -152 40 -203t152.5 -51t151.5 51t39 203v922h271q86 0 123.5 30.5t37.5 106.5v207z" glyph-name="Uhorn" horiz-adv-x="1349" unicode="Ư"/><glyph d="M1153 1470h199v-206q0 -156 -67.5 -224.5t-211.5 -81.5v-948l-287 -24l-20 129h-18q-76 -135 -295 -135q-193 0 -262.5 95t-69.5 328v723h325v-704q0 -113 31 -158t117 -45q80 0 117 44t37 159v704h243q86 0 124 31t38 107v206z" glyph-name="uhorn" horiz-adv-x="1206" unicode="ư"/><glyph d="M1700 1595l-264 408h225l190 -238l191 238h227l-266 -408h-303zM694 1434q301 0 429 -176.5t128 -540.5q0 -387 -137 -552t-420 -165h-528v1434h528zM1450 1434h852v-318l-576 -809v-43h562v-264h-904v322l576 806v41h-510v265zM668 258q131 0 181 98.5t50 360.5 t-50 360.5t-181 98.5h-160v-918h160z" glyph-name="uni01C4" horiz-adv-x="2371" unicode="Ǆ"/><glyph d="M1640 1288l-264 408h226l190 -238l190 238h228l-266 -408h-304zM694 1434q301 0 429 -176.5t128 -540.5q0 -387 -137 -552t-420 -165h-528v1434h528zM668 258q131 0 181 98.5t50 360.5t-50 360.5t-181 98.5h-160v-918h160zM1708 266v-39h494v-227h-820v279l476 587v33 h-443v227h764v-280z" glyph-name="uni01C5" horiz-adv-x="2250" unicode="ǅ"/><glyph d="M1526 1288l-264 408h225l190 -238l191 238h227l-266 -408h-303zM735 1057v479h326v-1526l-285 -24l-22 129h-17q-63 -135 -250 -135q-227 0 -317 147t-90 426q0 330 107.5 462t314.5 132q154 0 221 -90h12zM1593 266v-39h494v-227h-819v279l475 587v33h-443v227h764v-280 zM416 561q0 -203 34.5 -272.5t131.5 -69.5q84 0 118.5 47t34.5 172v250q0 127 -34.5 173t-116.5 46q-98 0 -133 -70.5t-35 -275.5z" glyph-name="uni01C6" horiz-adv-x="2136" unicode="ǆ"/><glyph d="M508 1434v-1170h377v-264h-719v1434h342zM1171 1434h342v-1092q0 -207 -80.5 -284.5t-271.5 -77.5q-109 0 -209 20l25 268q33 -10 92 -10q61 0 81.5 29.5t20.5 115.5v1031z" glyph-name="uni01C7" horiz-adv-x="1669" unicode="Ǉ"/><glyph d="M1030 1569h352v-283h-352v283zM885 264v-264h-719v1434h342v-1170h377zM1044 23v1103h326v-1153q0 -209 -79 -285.5t-263 -76.5q-117 0 -209 20l21 224q37 -10 98 -11q66 0 86 35t20 144z" glyph-name="uni01C8" horiz-adv-x="1507" unicode="ǈ"/><glyph d="M754 1286v283h352v-283h-352zM430 -20q-176 0 -240.5 74.5t-64.5 252.5v1229h326v-1178q0 -84 16 -111.5t68 -27.5q35 0 75 8l19 -229q-84 -18 -199 -18zM752 -389q-117 0 -209 20l20 224q35 -10 99 -11q66 0 86 35t20 144v1103h326v-1153q0 -209 -79 -285.5t-263 -76.5z " glyph-name="uni01C9" horiz-adv-x="1230" unicode="ǉ"/><glyph d="M954 395v1039h310v-1434h-494l-272 1042h-25v-1042h-307v1434h496l270 -1039h22zM1667 1434h342v-1092q0 -207 -81 -284.5t-271 -77.5q-109 0 -209 20l25 268q33 -10 92 -10q61 0 81.5 29.5t20.5 115.5v1031z" glyph-name="uni01CA" horiz-adv-x="2164" unicode="Ǌ"/><glyph d="M1550 1569h353v-283h-353v283zM954 395v1039h310v-1434h-494l-272 1042h-25v-1042h-307v1434h496l270 -1039h22zM1565 23v1103h325v-1153q0 -209 -78.5 -285.5t-263.5 -76.5q-117 0 -209 20l21 224q37 -10 98 -11q66 0 86.5 35t20.5 144z" glyph-name="uni01CB" horiz-adv-x="2027" unicode="ǋ"/><glyph d="M1409 1569h352v-283h-352v283zM760 1147q199 0 270.5 -95.5t71.5 -328.5v-723h-326v705q0 111 -32.5 156.5t-122.5 45.5q-84 0 -123 -44t-39 -158v-705h-326v1116l285 25l22 -129h19q78 135 301 135zM1423 23v1103h326v-1153q0 -209 -79 -285.5t-263 -76.5 q-117 0 -209 20l21 224q35 -10 98 -11q66 0 86 35t20 144z" glyph-name="uni01CC" horiz-adv-x="1886" unicode="ǌ"/><glyph d="M502 1595l-264 408h225l190 -238l191 238h227l-266 -408h-303zM942 0l-74 338h-422l-73 -338h-350l374 1434h521l374 -1434h-350zM504 602h307l-123 567h-61z" glyph-name="uni01CD" horiz-adv-x="1314" unicode="Ǎ"/><glyph d="M385 1288l-264 408h225l191 -238l190 238h227l-266 -408h-303zM614 1147q190 0 273.5 -92t83.5 -291v-754l-287 -24l-20 129h-17q-72 -135 -262 -135q-330 0 -330 327q0 338 365 338h225v76q0 96 -36 134t-107 38q-94 0 -312 -51l-45 237q301 68 469 68zM496 188 q76 0 112.5 53.5t36.5 172.5v69h-141q-131 0 -131 -149q0 -146 123 -146z" glyph-name="uni01CE" horiz-adv-x="1087" unicode="ǎ"/><glyph d="M184 1595l-264 408h225l191 -238l190 238h228l-267 -408h-303zM166 0v1434h342v-1434h-342z" glyph-name="uni01CF" horiz-adv-x="671" unicode="Ǐ"/><glyph d="M139 1288l-264 408h225l191 -238l190 238h228l-267 -408h-303zM129 0v1126h328v-1126h-328z" glyph-name="uni01D0" horiz-adv-x="585" unicode="ǐ"/><glyph d="M547 1595l-264 408h225l190 -238l191 238h227l-266 -408h-303zM702 1454q174 0 291 -47t181.5 -146.5t91 -228.5t26.5 -315q0 -217 -37.5 -363.5t-116.5 -227.5t-182.5 -113.5t-253.5 -32.5q-338 0 -464.5 179t-126.5 558q0 217 37.5 363.5t116.5 227.5t183 113.5 t254 32.5zM702 258q139 0 189.5 93t50.5 366q0 270 -50 364.5t-190 94.5q-141 0 -191 -93.5t-50 -365.5q0 -270 50 -364.5t191 -94.5z" glyph-name="uni01D1" horiz-adv-x="1400" unicode="Ǒ"/><glyph d="M436 1288l-264 408h225l191 -238l190 238h228l-267 -408h-303zM592 1147q287 0 397.5 -145.5t110.5 -438.5q0 -330 -127 -456.5t-381 -126.5q-291 0 -401.5 145t-110.5 438q0 332 128 458t384 126zM592 219q102 0 137 68.5t35 275.5t-35 275.5t-137 68.5 q-106 0 -141 -68.5t-35 -275.5t35 -275.5t141 -68.5z" glyph-name="uni01D2" horiz-adv-x="1179" unicode="ǒ"/><glyph d="M522 1595l-264 408h225l191 -238l190 238h228l-267 -408h-303zM866 1434h342v-908q0 -162 -32.5 -269t-102 -167.5t-162 -85t-227.5 -24.5q-311 0 -427 130t-116 416v908h342v-922q0 -152 40 -203t152.5 -51t151.5 51t39 203v922z" glyph-name="uni01D3" horiz-adv-x="1349" unicode="Ǔ"/><glyph d="M446 1288l-264 408h226l190 -238l190 238h228l-266 -408h-304zM748 1126h325v-1116l-287 -24l-20 129h-18q-76 -135 -295 -135q-193 0 -262.5 95t-69.5 328v723h325v-704q0 -113 31 -158t117 -45q80 0 117 44t37 159v704z" glyph-name="uni01D4" horiz-adv-x="1206" unicode="ǔ"/><glyph d="M362 2300h619v-221h-619v221zM303 1894h279v-260h-279v260zM768 1894h279v-260h-279v260zM684 -20q-311 0 -427 130t-116 416v908h342v-922q0 -152 40 -203t152.5 -51t151.5 51t39 203v922h342v-908q0 -162 -32.5 -269t-102 -167.5t-162 -85t-227.5 -24.5z" glyph-name="uni01D5" horiz-adv-x="1349" unicode="Ǖ"/><glyph d="M905 1993v-221h-618v221h618zM506 1587v-260h-279v260h279zM692 1327v260h279v-260h-279zM748 1126h325v-1116l-287 -24l-20 129h-18q-76 -135 -295 -135q-193 0 -262.5 95t-69.5 328v723h325v-704q0 -113 31 -158t117 -45q80 0 117 44t37 159v704z" glyph-name="uni01D6" horiz-adv-x="1206" unicode="ǖ"/><glyph d="M580 2028l184 407h291l-260 -407h-215zM303 1894h279v-260h-279v260zM768 1894h279v-260h-279v260zM684 -20q-311 0 -427 130t-116 416v908h342v-922q0 -152 40 -203t152.5 -51t151.5 51t39 203v922h342v-908q0 -162 -32.5 -269t-102 -167.5t-162 -85t-227.5 -24.5z" glyph-name="uni01D7" horiz-adv-x="1349" unicode="Ǘ"/><glyph d="M979 2128l-260 -408h-215l184 408h291zM506 1587v-260h-279v260h279zM692 1327v260h279v-260h-279zM748 1126h325v-1116l-287 -24l-20 129h-18q-76 -135 -295 -135q-193 0 -262.5 95t-69.5 328v723h325v-704q0 -113 31 -158t117 -45q80 0 117 44t37 159v704z" glyph-name="uni01D8" horiz-adv-x="1206" unicode="ǘ"/><glyph d="M522 2030l-264 407h225l191 -237l190 237h226l-265 -407h-303zM303 1634v260h279v-260h-279zM768 1634v260h279v-260h-279zM866 1434h342v-908q0 -162 -32.5 -269t-102 -167.5t-162 -85t-227.5 -24.5q-311 0 -427 130t-116 416v908h342v-922q0 -152 40 -203t152.5 -51 t151.5 51t39 203v922z" glyph-name="uni01D9" horiz-adv-x="1349" unicode="Ǚ"/><glyph d="M446 1722l-264 408h226l190 -238l190 238h226l-264 -408h-304zM227 1327v260h279v-260h-279zM692 1327v260h279v-260h-279zM748 1126h325v-1116l-287 -24l-20 129h-18q-76 -135 -295 -135q-193 0 -262.5 95t-69.5 328v723h325v-704q0 -113 31 -158t117 -45q80 0 117 44 t37 159v704z" glyph-name="uni01DA" horiz-adv-x="1206" unicode="ǚ"/><glyph d="M563 2028l-262 407h293l184 -407h-215zM303 1634v260h279v-260h-279zM768 1634v260h279v-260h-279zM684 -20q-311 0 -427 130t-116 416v908h342v-922q0 -152 40 -203t152.5 -51t151.5 51t39 203v922h342v-908q0 -162 -32.5 -269t-102 -167.5t-162 -85t-227.5 -24.5z" glyph-name="uni01DB" horiz-adv-x="1349" unicode="Ǜ"/><glyph d="M702 1720h-215l-262 408h293zM227 1327v260h279v-260h-279zM692 1327v260h279v-260h-279zM748 1126h325v-1116l-287 -24l-20 129h-18q-76 -135 -295 -135q-193 0 -262.5 95t-69.5 328v723h325v-704q0 -113 31 -158t117 -45q80 0 117 44t37 159v704z" glyph-name="uni01DC" horiz-adv-x="1206" unicode="ǜ"/><glyph d="M1364 1866v-219h-619v219h619zM1231 264h493v-264h-835v338h-391l-136 -338h-350l625 1434h1063v-265h-469v-295h434v-264h-434v-346zM604 602h285v567h-55z" glyph-name="uni01E2" horiz-adv-x="1812" unicode="Ǣ"/><glyph d="M520 1595l-264 408h225l191 -238l190 238h228l-267 -408h-303zM1182 842v-834l-264 -22l-23 135h-18q-98 -141 -306 -141q-109 0 -190.5 35.5t-132.5 98t-83 159t-44 207t-12 251.5q0 221 38.5 364.5t122.5 221.5t191.5 107.5t267.5 29.5q223 0 356 -41l-26 -280 q-133 43 -332 43q-158 0 -213 -91.5t-55 -369.5q0 -272 46 -364.5t181 -92.5q92 0 141.5 48t49.5 177v107h-175v252h480z" glyph-name="Gcaron" horiz-adv-x="1296" unicode="Ǧ"/><glyph d="M418 1288l-264 408h225l190 -238l191 238h227l-266 -408h-303zM580 272q207 0 327.5 -43t162.5 -110.5t42 -171.5q0 -190 -134 -263t-405 -73q-297 0 -410.5 65.5t-113.5 202.5q0 172 168 215v21q-115 57 -115 164q0 92 105 178l2 2q-121 84 -121 293q0 225 112.5 310 t336.5 85q115 0 206 -21h349l12 -161l-141 -25q41 -59 41 -168q0 -223 -112 -308t-335 -85q-78 0 -154 10l-14 -12q-25 -25 -24 -53q0 -51 84 -52h131zM549 942q-88 0 -119 -37t-31 -143q0 -109 30 -143.5t118 -34.5t116.5 35.5t28.5 142.5q0 109 -28.5 144.5t-114.5 35.5z M575 -188q129 0 177.5 29.5t48.5 103.5q0 76 -49.5 102.5t-178.5 26.5h-79q-80 -10 -111 -45t-31 -105q0 -63 50 -87.5t173 -24.5z" glyph-name="gcaron" horiz-adv-x="1148" unicode="ǧ"/><glyph d="M520 1595l-264 408h225l191 -238l190 238h228l-267 -408h-303zM887 0l-305 610h-74v-610h-342v1434h342v-560h76l290 560h371l-407 -686l438 -748h-389z" glyph-name="uni01E8" horiz-adv-x="1290" unicode="Ǩ"/><glyph d="M270 1647l-264 407h225l191 -237l190 237h228l-267 -407h-303zM788 0l-260 512h-69v-512h-326v1536h326v-809h76l241 399h363l-359 -499l373 -627h-365z" glyph-name="uni01E9" horiz-adv-x="1157" unicode="ǩ"/><glyph d="M694 1434q301 0 429 -176.5t128 -540.5q0 -387 -137 -552t-420 -165h-528v1434h528zM1450 1434h852v-318l-576 -809v-43h562v-264h-904v322l576 806v41h-510v265zM668 258q131 0 181 98.5t50 360.5t-50 360.5t-181 98.5h-160v-918h160z" glyph-name="uni01F1" horiz-adv-x="2371" unicode="Ǳ"/><glyph d="M694 1434q301 0 429 -176.5t128 -540.5q0 -387 -137 -552t-420 -165h-528v1434h528zM668 258q131 0 181 98.5t50 360.5t-50 360.5t-181 98.5h-160v-918h160zM1708 227h494v-227h-820v279l476 587v33h-443v227h764v-280l-471 -580v-39z" glyph-name="uni01F2" horiz-adv-x="2250" unicode="ǲ"/><glyph d="M735 1057v479h326v-1526l-285 -24l-22 129h-17q-63 -135 -250 -135q-227 0 -317 147t-90 426q0 330 107.5 462t314.5 132q154 0 221 -90h12zM1593 227h494v-227h-819v279l475 587v33h-443v227h764v-280l-471 -580v-39zM416 561q0 -203 34.5 -272.5t131.5 -69.5 q84 0 118.5 47t34.5 172v250q0 127 -34.5 173t-116.5 46q-98 0 -133 -70.5t-35 -275.5z" glyph-name="uni01F3" horiz-adv-x="2136" unicode="ǳ"/><glyph d="M1042 2011l-260 -407h-215l185 407h290zM1182 842v-834l-264 -22l-23 135h-18q-98 -141 -306 -141q-109 0 -190.5 35.5t-132.5 98t-83 159t-44 207t-12 251.5q0 221 38.5 364.5t122.5 221.5t191.5 107.5t267.5 29.5q223 0 356 -41l-26 -280q-133 43 -332 43 q-158 0 -213 -91.5t-55 -369.5q0 -272 46 -364.5t181 -92.5q92 0 141.5 48t49.5 177v107h-175v252h480z" glyph-name="uni01F4" horiz-adv-x="1296" unicode="Ǵ"/><glyph d="M940 1704l-260 -408h-215l184 408h291zM580 272q207 0 327.5 -43t162.5 -110.5t42 -171.5q0 -190 -134 -263t-405 -73q-297 0 -410.5 65.5t-113.5 202.5q0 172 168 215v21q-115 57 -115 164q0 92 105 178l2 2q-121 84 -121 293q0 225 112.5 310t336.5 85q115 0 206 -21 h349l12 -161l-141 -25q41 -59 41 -168q0 -223 -112 -308t-335 -85q-78 0 -154 10l-14 -12q-25 -25 -24 -53q0 -51 84 -52h131zM549 942q-88 0 -119 -37t-31 -143q0 -109 30 -143.5t118 -34.5t116.5 35.5t28.5 142.5q0 109 -28.5 144.5t-114.5 35.5zM575 -188 q129 0 177.5 29.5t48.5 103.5q0 76 -49.5 102.5t-178.5 26.5h-79q-80 -10 -111 -45t-31 -105q0 -63 50 -87.5t173 -24.5z" glyph-name="uni01F5" horiz-adv-x="1148" unicode="ǵ"/><glyph d="M1022 2521l-262 -407h-215l184 407h293zM655 1550q-154 0 -213 62.5t-59 185.5q0 137 69.5 191.5t202.5 54.5q152 0 211.5 -63.5t59.5 -182.5q0 -139 -69 -193.5t-202 -54.5zM655 1911q-61 0 -88.5 -24.5t-27.5 -88.5q0 -59 25.5 -88t90.5 -29q57 0 86 25t29 92 q0 57 -24.5 85t-90.5 28zM942 0l-74 338h-422l-73 -338h-350l374 1434h521l374 -1434h-350zM504 602h307l-123 567h-61z" glyph-name="Aringacute" horiz-adv-x="1314" unicode="Ǻ"/><glyph d="M905 2214l-262 -408h-215l184 408h293zM539 1243q-154 0 -213.5 62.5t-59.5 185.5q0 137 70 191.5t203 54.5q152 0 211 -63.5t59 -182.5q0 -139 -68.5 -193.5t-201.5 -54.5zM539 1604q-61 0 -89 -25t-28 -88q0 -59 25.5 -88t91.5 -29q57 0 85.5 24.5t28.5 92.5 q0 57 -24 85t-90 28zM614 1147q190 0 273.5 -92t83.5 -291v-754l-287 -24l-20 129h-17q-72 -135 -262 -135q-330 0 -330 327q0 338 365 338h225v76q0 96 -36 134t-107 38q-94 0 -312 -51l-45 237q301 68 469 68zM496 188q76 0 112.5 53.5t36.5 172.5v69h-141 q-131 0 -131 -149q0 -146 123 -146z" glyph-name="aringacute" horiz-adv-x="1087" unicode="ǻ"/><glyph d="M1423 2011l-260 -407h-215l185 407h290zM1231 264h493v-264h-835v338h-391l-136 -338h-350l625 1434h1063v-265h-469v-295h434v-264h-434v-346zM604 602h285v567h-55z" glyph-name="AEacute" horiz-adv-x="1812" unicode="Ǽ"/><glyph d="M1065 2011l-260 -407h-215l184 407h291zM1065 1368q125 -82 176 -241.5t51 -409.5q0 -217 -37.5 -363.5t-116.5 -227.5t-182.5 -113.5t-253.5 -32.5q-92 0 -165 12l-37 -94h-230l66 170q-125 82 -175 240.5t-50 408.5q0 217 37.5 363.5t116.5 227.5t183.5 113.5 t253.5 32.5q88 0 162 -12l37 94h229zM461 717q0 -178 20 -275l279 729q-33 4 -58 5q-141 0 -191 -93.5t-50 -365.5zM702 258q139 0 189.5 93t50.5 366q0 180 -20 276l-281 -731q36 -4 61 -4z" glyph-name="Oslashacute" horiz-adv-x="1400" unicode="Ǿ"/><glyph d="M977 1704l-260 -408h-215l184 408h291zM885 1087q119 -63 167 -193t48 -331q0 -332 -127 -457.5t-381 -125.5q-76 0 -131 8l-41 -107h-187l62 160q-119 63 -167 192t-48 330q0 332 128 458t384 126q76 0 127 -8l41 106h186zM416 563q0 -125 10 -184l203 526q-12 2 -37 2 q-106 0 -141 -68.5t-35 -275.5zM592 219q102 0 137 68.5t35 275.5q0 125 -10 185l-203 -527q12 -2 41 -2z" glyph-name="oslashacute" horiz-adv-x="1179" unicode="ǿ"/><glyph d="M535 1599h-209l-273 416h291zM958 1599h-208l-271 416h291zM942 0l-74 338h-422l-73 -338h-350l374 1434h521l374 -1434h-350zM504 602h307l-123 567h-61z" glyph-name="uni0200" horiz-adv-x="1314" unicode="Ȁ"/><glyph d="M418 1292h-209l-272 416h290zM842 1292h-209l-271 416h291zM614 1147q190 0 273.5 -92t83.5 -291v-754l-287 -24l-20 129h-17q-72 -135 -262 -135q-330 0 -330 327q0 338 365 338h225v76q0 96 -36 134t-107 38q-94 0 -312 -51l-45 237q301 68 469 68zM496 188 q76 0 112.5 53.5t36.5 172.5v69h-141q-131 0 -131 -149q0 -146 123 -146z" glyph-name="uni0201" horiz-adv-x="1087" unicode="ȁ"/><glyph d="M502 1606v-27h-199v37q0 156 78 237.5t276 81.5q172 0 261.5 -69.5t89.5 -249.5v-37h-199v27q0 80 -38 108.5t-116 28.5q-84 0 -118.5 -32.5t-34.5 -104.5zM942 0l-74 338h-422l-73 -338h-350l374 1434h521l374 -1434h-350zM504 602h307l-123 567h-61z" glyph-name="uni0202" horiz-adv-x="1314" unicode="Ȃ"/><glyph d="M385 1298v-26h-199v37q0 156 78 237.5t277 81.5q172 0 261 -69.5t89 -249.5v-37h-199v26q0 80 -38 109t-115 29q-84 0 -119 -33t-35 -105zM614 1147q190 0 273.5 -92t83.5 -291v-754l-287 -24l-20 129h-17q-72 -135 -262 -135q-330 0 -330 327q0 338 365 338h225v76 q0 96 -36 134t-107 38q-94 0 -312 -51l-45 237q301 68 469 68zM496 188q76 0 112.5 53.5t36.5 172.5v69h-141q-131 0 -131 -149q0 -146 123 -146z" glyph-name="uni0203" horiz-adv-x="1087" unicode="ȃ"/><glyph d="M449 1599h-209l-273 416h291zM872 1599h-208l-271 416h291zM508 264h496v-264h-838v1434h813v-265h-471v-295h434v-264h-434v-346z" glyph-name="uni0204" horiz-adv-x="1091" unicode="Ȅ"/><glyph d="M438 1292h-209l-272 416h291zM862 1292h-209l-270 416h291zM399 471q8 -141 54.5 -197.5t142.5 -56.5q121 0 360 53l37 -221q-240 -70 -413 -69q-242 0 -372 139t-130 452q0 324 126 450t369 126q141 0 233.5 -37t140.5 -117t65.5 -179t17.5 -251q0 -61 -4 -92h-627z M578 928q-92 0 -132 -55.5t-49 -208.5h330q-4 156 -34.5 210t-114.5 54z" glyph-name="uni0205" horiz-adv-x="1105" unicode="ȅ"/><glyph d="M416 1606v-27h-199v37q0 156 78 237.5t276 81.5q172 0 261.5 -69.5t89.5 -249.5v-37h-199v27q0 80 -38 108.5t-116 28.5q-84 0 -118.5 -32.5t-34.5 -104.5zM508 264h496v-264h-838v1434h813v-265h-471v-295h434v-264h-434v-346z" glyph-name="uni0206" horiz-adv-x="1091" unicode="Ȇ"/><glyph d="M406 1298v-26h-199v37q0 156 77.5 237.5t276.5 81.5q172 0 261 -69.5t89 -249.5v-37h-198v26q0 80 -38 109t-116 29q-84 0 -118.5 -33t-34.5 -105zM399 471q8 -141 54.5 -197.5t142.5 -56.5q121 0 360 53l37 -221q-240 -70 -413 -69q-242 0 -372 139t-130 452 q0 324 126 450t369 126q141 0 233.5 -37t140.5 -117t65.5 -179t17.5 -251q0 -61 -4 -92h-627zM578 928q-92 0 -132 -55.5t-49 -208.5h330q-4 156 -34.5 210t-114.5 54z" glyph-name="uni0207" horiz-adv-x="1105" unicode="ȇ"/><glyph d="M8 1599l-272 416h291l190 -416h-209zM432 1599l-270 416h291l188 -416h-209zM508 1434v-1434h-342v1434h342z" glyph-name="uni0208" horiz-adv-x="671" unicode="Ȉ"/><glyph d="M-37 1292l-272 416h291l190 -416h-209zM387 1292l-270 416h291l188 -416h-209zM457 1126v-1126h-328v1126h328z" glyph-name="uni0209" horiz-adv-x="585" unicode="ȉ"/><glyph d="M-14 1579v37q0 156 77.5 237.5t276.5 81.5q172 0 261 -69.5t89 -249.5v-37h-198v27q0 80 -38 108.5t-116 28.5q-84 0 -119 -33t-35 -104v-27h-198zM508 1434v-1434h-342v1434h342z" glyph-name="uni020A" horiz-adv-x="671" unicode="Ȋ"/><glyph d="M-59 1272v37q0 156 77.5 237.5t276.5 81.5q172 0 261 -69.5t89 -249.5v-37h-199v26q0 80 -37.5 109t-115.5 29q-84 0 -119 -33t-35 -105v-26h-198zM457 1126v-1126h-328v1126h328z" glyph-name="uni020B" horiz-adv-x="585" unicode="ȋ"/><glyph d="M371 1599l-273 416h291l191 -416h-209zM795 1599l-271 416h291l189 -416h-209zM702 -20q-338 0 -464.5 179t-126.5 558q0 217 37.5 363.5t116.5 227.5t183.5 113.5t253.5 32.5q174 0 291 -47t181.5 -146.5t91 -228.5t26.5 -315q0 -217 -37.5 -363.5t-116.5 -227.5 t-182.5 -113.5t-253.5 -32.5zM702 258q139 0 189.5 93t50.5 366q0 270 -50 364.5t-190 94.5q-141 0 -191 -93.5t-50 -365.5q0 -270 50 -364.5t191 -94.5z" glyph-name="uni020C" horiz-adv-x="1400" unicode="Ȍ"/><glyph d="M260 1292l-272 416h291l190 -416h-209zM684 1292l-270 416h291l188 -416h-209zM592 -20q-291 0 -401.5 145t-110.5 438q0 332 128 458t384 126q287 0 397.5 -145.5t110.5 -438.5q0 -330 -127 -456.5t-381 -126.5zM592 219q102 0 137 68.5t35 275.5t-35 275.5t-137 68.5 q-106 0 -141 -68.5t-35 -275.5t35 -275.5t141 -68.5z" glyph-name="uni020D" horiz-adv-x="1179" unicode="ȍ"/><glyph d="M348 1579v37q0 156 78 237.5t276 81.5q172 0 261.5 -69.5t89.5 -249.5v-37h-199v27q0 80 -38 108.5t-116 28.5q-84 0 -118.5 -33t-34.5 -104v-27h-199zM702 -20q-338 0 -464.5 179t-126.5 558q0 217 37.5 363.5t116.5 227.5t183.5 113.5t253.5 32.5q174 0 291 -47 t181.5 -146.5t91 -228.5t26.5 -315q0 -217 -37.5 -363.5t-116.5 -227.5t-182.5 -113.5t-253.5 -32.5zM702 258q139 0 189.5 93t50.5 366q0 270 -50 364.5t-190 94.5q-141 0 -191 -93.5t-50 -365.5q0 -270 50 -364.5t191 -94.5z" glyph-name="uni020E" horiz-adv-x="1400" unicode="Ȏ"/><glyph d="M238 1272v37q0 156 77.5 237.5t276.5 81.5q172 0 261 -69.5t89 -249.5v-37h-199v26q0 80 -37.5 109t-115.5 29q-84 0 -119 -33t-35 -105v-26h-198zM592 -20q-291 0 -401.5 145t-110.5 438q0 332 128 458t384 126q287 0 397.5 -145.5t110.5 -438.5q0 -330 -127 -456.5 t-381 -126.5zM592 219q102 0 137 68.5t35 275.5t-35 275.5t-137 68.5q-106 0 -141 -68.5t-35 -275.5t35 -275.5t141 -68.5z" glyph-name="uni020F" horiz-adv-x="1179" unicode="ȏ"/><glyph d="M522 1599h-209l-272 416h291zM946 1599h-209l-270 416h291zM1266 0h-369l-254 545h-29h-106v-545h-342v1434h426q315 0 431 -100.5t116 -332.5q0 -279 -207 -389zM508 1194v-428h78q127 0 172 44t45 171q0 125 -45 169t-172 44h-78z" glyph-name="uni0210" horiz-adv-x="1286" unicode="Ȑ"/><glyph d="M102 1708l191 -416h-209l-272 416h290zM717 1292h-209l-270 416h290zM756 1147q33 0 45 -2l-27 -289q-53 25 -129 25q-102 0 -144 -59.5t-42 -219.5v-602h-326v1116l287 25l24 -152h19q76 158 293 158z" glyph-name="uni0211" horiz-adv-x="808" unicode="ȑ"/><glyph d="M489 1606v-27h-198v37q0 156 77.5 237.5t276.5 81.5q172 0 261 -69.5t89 -249.5v-37h-198v27q0 80 -38 108.5t-116 28.5q-84 0 -119 -32.5t-35 -104.5zM1266 0h-369l-254 545h-29h-106v-545h-342v1434h426q315 0 431 -100.5t116 -332.5q0 -279 -207 -389zM508 1194v-428 h78q127 0 172 44t45 171q0 125 -45 169t-172 44h-78z" glyph-name="uni0212" horiz-adv-x="1286" unicode="Ȓ"/><glyph d="M260 1298v-26h-199v37q0 156 78 237.5t277 81.5q172 0 261 -69.5t89 -249.5v-37h-199v26q0 80 -37.5 109t-115.5 29q-84 0 -119 -33t-35 -105zM756 1147q33 0 45 -2l-27 -289q-53 25 -129 25q-102 0 -144 -59.5t-42 -219.5v-602h-326v1116l287 25l24 -152h19 q76 158 293 158z" glyph-name="uni0213" horiz-adv-x="808" unicode="ȓ"/><glyph d="M346 1599l-272 416h291l190 -416h-209zM770 1599l-270 416h291l188 -416h-209zM684 -20q-311 0 -427 130t-116 416v908h342v-922q0 -152 40 -203t152.5 -51t151.5 51t39 203v922h342v-908q0 -162 -32.5 -269t-102 -167.5t-162 -85t-227.5 -24.5z" glyph-name="uni0214" horiz-adv-x="1349" unicode="Ȕ"/><glyph d="M479 1292h-209l-272 416h291zM903 1292h-209l-270 416h291zM748 1126h325v-1116l-287 -24l-20 129h-18q-76 -135 -295 -135q-193 0 -262.5 95t-69.5 328v723h325v-704q0 -113 31 -158t117 -45q80 0 117 44t37 159v704z" glyph-name="uni0215" horiz-adv-x="1206" unicode="ȕ"/><glyph d="M324 1579v37q0 156 77.5 237.5t276.5 81.5q172 0 261 -69.5t89 -249.5v-37h-199v27q0 80 -37.5 108.5t-115.5 28.5q-84 0 -119 -33t-35 -104v-27h-198zM684 -20q-311 0 -427 130t-116 416v908h342v-922q0 -152 40 -203t152.5 -51t151.5 51t39 203v922h342v-908 q0 -162 -32.5 -269t-102 -167.5t-162 -85t-227.5 -24.5z" glyph-name="uni0216" horiz-adv-x="1349" unicode="Ȗ"/><glyph d="M446 1298v-26h-198v37q0 156 77.5 237.5t276.5 81.5q172 0 261 -69.5t89 -249.5v-37h-198v26q0 80 -38 109t-116 29q-84 0 -119 -33t-35 -105zM748 1126h325v-1116l-287 -24l-20 129h-18q-76 -135 -295 -135q-193 0 -262.5 95t-69.5 328v723h325v-704q0 -113 31 -158 t117 -45q80 0 117 44t37 159v704z" glyph-name="uni0217" horiz-adv-x="1206" unicode="ȗ"/><glyph d="M739 733q100 -86 142.5 -168t42.5 -180q0 -215 -127 -310t-363 -95q-147 0 -375 38l23 269q227 -37 319 -37q94 0 133 32.5t39 104.5q0 84 -63 135l-268 219q-164 143 -164 332q0 213 126 297t361 84q115 0 330 -31l-23 -262q-156 25 -272 25q-96 0 -134 -29t-38 -94 q0 -80 55 -121zM338 -397v258h280v-258l-100 -310h-151l100 310h-129z" glyph-name="Scommaaccent" horiz-adv-x="993" unicode="Ș"/><glyph d="M657 596q84 -61 123 -125.5t39 -159.5q0 -332 -416 -331q-137 0 -335 30l20 236q154 -27 248 -27q74 0 102.5 20.5t28.5 78t-49 90.5l-228 163q-119 84 -118 258q0 176 98 247t281 71q129 0 329 -33l-20 -235q-156 29 -242 28q-57 0 -78.5 -20.5t-21.5 -67.5 q0 -51 41 -80zM301 -397v258h281v-258l-101 -310h-151l100 310h-129z" glyph-name="scommaaccent" horiz-adv-x="870" unicode="ș"/><glyph d="M969 1434v-265h-301v-1169h-342v1169h-303v265h946zM354 -397v258h281v-258l-100 -310h-152l100 310h-129z" glyph-name="uni021A" horiz-adv-x="991" unicode="Ț"/><glyph d="M698 911h-194v-555q0 -82 16.5 -109.5t67.5 -27.5q35 0 71 8l19 -231q-76 -16 -193 -16q-176 0 -240.5 74.5t-64.5 252.5v604h-162v215h162v273h324v-273h194v-215zM254 -397v258h281v-258l-101 -310h-151l100 310h-129z" glyph-name="uni021B" horiz-adv-x="763" unicode="ț"/><glyph d="M561 1595l-264 408h225l191 -238l190 238h227l-266 -408h-303zM922 1434h340v-1434h-340v610h-414v-610h-342v1434h342v-560h414v560z" glyph-name="uni021E" horiz-adv-x="1427" unicode="Ȟ"/><glyph d="M270 1647l-264 407h225l191 -237l190 237h228l-267 -407h-303zM760 1147q199 0 270.5 -95.5t71.5 -328.5v-723h-326v705q0 111 -32.5 156.5t-122.5 45.5q-84 0 -123 -44t-39 -158v-705h-326v1536h326v-496h20q80 107 281 107z" glyph-name="uni021F" horiz-adv-x="1220" unicode="ȟ"/><glyph d="M928 1866v-219h-619v219h619zM1229 1434l-447 -930v-504h-342v520l-432 914h357l237 -605h29l241 605h357z" glyph-name="uni0232" horiz-adv-x="1234" unicode="Ȳ"/><glyph d="M848 1559v-220h-619v220h619zM721 1126h342l-299 -1163q-49 -193 -159.5 -272.5t-291.5 -79.5q-100 0 -209 24l21 224q109 -16 178 -17q94 0 138 34t65 142l6 27h-229l-271 1081h342l158 -852h43z" glyph-name="uni0233" horiz-adv-x="1071" unicode="ȳ"/><glyph d="M96 -389q-117 0 -209 20l21 224q35 -10 98 -11q66 0 86.5 35t20.5 144v1103h325v-1153q0 -209 -79 -285.5t-263 -76.5z" glyph-name="uni0237" horiz-adv-x="575" unicode="ȷ"/><glyph d="M864 1288h-225l-190 238l-191 -238h-225l264 408h301z" glyph-name="circumflex" horiz-adv-x="894" unicode="ˆ"/><glyph d="M639 1696h227l-266 -408h-303l-264 408h225l191 -238z" glyph-name="caron" horiz-adv-x="897" unicode="ˇ"/><glyph d="M442 1272q-199 0 -276.5 81t-77.5 238v37h199v-29q0 -70 34.5 -102.5t118.5 -32.5q76 0 115 28t39 107v29h199v-37q0 -180 -89.5 -249.5t-261.5 -69.5z" glyph-name="breve" horiz-adv-x="878" unicode="˘"/><glyph d="M133 1587h281v-260h-281v260z" glyph-name="dotaccent" horiz-adv-x="544" unicode="˙"/><glyph d="M367 1243q-154 0 -213.5 62.5t-59.5 185.5q0 137 69.5 191.5t203.5 54.5q152 0 211 -63.5t59 -182.5q0 -139 -68.5 -193.5t-201.5 -54.5zM367 1374q57 0 85.5 24.5t28.5 92.5q0 57 -24.5 85t-89.5 28q-61 0 -89 -25t-28 -88q0 -59 25.5 -88t91.5 -29z" glyph-name="ring" horiz-adv-x="731" unicode="˚"/><glyph d="M510 -467q-51 -6 -90 -6q-156 0 -248 61.5t-92 196.5q0 133 137 248l180 -29q-100 -78 -100 -162q0 -63 50 -101t132 -38z" glyph-name="ogonek" horiz-adv-x="559" unicode="˛"/><glyph d="M598 1282q-80 0 -141 49l-88 64q-29 20 -56 20q-61 0 -75 -108h-150q0 137 63.5 222t163.5 85q70 0 144 -49l86 -64q31 -20 55 -20q59 0 76 106h145q0 -141 -61.5 -223t-161.5 -82z" glyph-name="tilde" horiz-adv-x="909" unicode="˜"/><glyph d="M51 1292l191 416h290l-272 -416h-209zM477 1292l189 416h290l-270 -416h-209z" glyph-name="hungarumlaut" horiz-adv-x="997" unicode="˝"/><glyph d="M-266 1296l-262 408h292l185 -408h-215z" glyph-name="gravecomb" unicode="̀"/><glyph d="M-518 1296l184 408h291l-260 -408h-215z" glyph-name="acutecomb" unicode="́"/><glyph d="M-33 1288h-225l-191 238l-190 -238h-225l264 408h301z" glyph-name="uni0302" unicode="̂"/><glyph d="M-315 1282q-80 0 -142 49l-88 64q-29 20 -55 20q-61 0 -76 -108h-149q0 137 63.5 222t163.5 85q70 0 143 -49l86 -64q31 -20 56 -20q59 0 75 106h146q0 -141 -61.5 -223t-161.5 -82z" glyph-name="tildecomb" unicode="̃"/><glyph d="M-752 1559h619v-220h-619v220z" glyph-name="uni0304" unicode="̄"/><glyph d="M-438 1272q-199 0 -277 81t-78 238v37h199v-29q0 -70 35 -102.5t119 -32.5q76 0 114.5 28t38.5 107v29h199v-37q0 -180 -89 -249.5t-261 -69.5z" glyph-name="uni0306" unicode="̆"/><glyph d="M-414 1587h281v-260h-281v260z" glyph-name="uni0307" unicode="̇"/><glyph d="M-877 1587h279v-260h-279v260zM-412 1587h279v-260h-279v260z" glyph-name="uni0308" unicode="̈"/><glyph d="M-399 1284q0 78 10 110.5t43 59.5l39 29q39 31 39 57q0 23 -15.5 31t-62.5 8q-33 0 -103 -4l-12 139q98 14 174 15q125 0 171 -37t46 -123q0 -78 -61 -129l-72 -60q-45 -37 -45 -96h-151z" glyph-name="hookabovecomb" unicode="̉"/><glyph d="M-367 1243q-154 0 -213 62.5t-59 185.5q0 137 69.5 191.5t202.5 54.5q152 0 211.5 -63.5t59.5 -182.5q0 -139 -69 -193.5t-202 -54.5zM-367 1374q57 0 86 24.5t29 92.5q0 57 -24.5 85t-90.5 28q-61 0 -88.5 -25t-27.5 -88q0 -59 25 -88t91 -29z" glyph-name="uni030A" unicode="̊"/><glyph d="M-948 1292l190 416h291l-272 -416h-209zM-522 1292l188 416h291l-270 -416h-209z" glyph-name="uni030B" unicode="̋"/><glyph d="M-260 1696h227l-266 -408h-303l-264 408h225l190 -238z" glyph-name="uni030C" unicode="̌"/><glyph d="M-674 1292l-272 416h291l190 -416h-209zM-250 1292l-270 416h291l188 -416h-209z" glyph-name="uni030F" unicode="̏"/><glyph d="M-791 1272v37q0 156 78 237.5t277 81.5q172 0 261 -69.5t89 -249.5v-37h-199v26q0 80 -37.5 109t-115.5 29q-84 0 -119 -33t-35 -105v-26h-199z" glyph-name="uni0311" unicode="̑"/><glyph d="M-270 1585h129v-258h-281v258l100 307h152z" glyph-name="uni0312" unicode="̒"/><glyph d="M-449 1165v170q86 0 124 31t38 107v206h199v-206q0 -176 -86.5 -242t-274.5 -66z" glyph-name="uni031B" unicode="̛"/><glyph d="M-412 -139h281v-260h-281v260z" glyph-name="dotbelowcomb" unicode="̣"/><glyph d="M-424 -139h281v-258l-101 -310h-151l100 310h-129v258z" glyph-name="uni0326" unicode="̦"/><glyph d="M-274 -100q117 -6 165 -54.5t50 -130.5q-2 -111 -72 -164t-176 -53q-92 0 -199 37l10 125q57 -25 117 -25q90 0 90 78q0 63 -69 64h-103l60 295h180z" glyph-name="uni0327" unicode="̧"/><glyph d="M-51 -467q-53 -6 -90 -6q-156 0 -248 61.5t-92 196.5q0 133 137 248l180 -29q-100 -78 -100 -162q0 -63 50 -101t132 -38z" glyph-name="uni0328" unicode="̨"/><glyph d="M-877 690h750v-231h-750v231z" glyph-name="uni0335" unicode="̵"/><glyph d="M-1102 756h969v-242h-969v242z" glyph-name="uni0336" unicode="̶"/><glyph d="M-700 -102l481 1331h237l-481 -1331h-237z" glyph-name="uni0337" unicode="̷"/><glyph d="M-811 -102l592 1638h237l-591 -1638h-238z" glyph-name="uni0338" unicode="̸"/><glyph d="M788 1894v-260h-280v260h280zM979 741q111 -35 160 -115.5t49 -224.5q0 -229 -127 -315t-393 -86h-502v1434h467q295 0 407.5 -80t112.5 -262q0 -250 -174 -330v-21zM596 1198h-88v-358h88q131 0 176 37.5t45 144t-44 141.5t-177 35zM616 246q133 0 180.5 41t47.5 143 q0 117 -51.5 159t-176.5 42h-108v-385h108z" glyph-name="uni1E02" horiz-adv-x="1292" unicode="Ḃ"/><glyph d="M862 1587v-260h-280v260h280zM692 1147q207 0 314.5 -132t107.5 -462q0 -279 -90 -426t-317 -147q-186 0 -250 135h-17l-22 -129l-285 24v1526h326v-479h14q67 90 219 90zM614 219q96 0 130 70.5t34 271.5q0 205 -34.5 275.5t-131.5 70.5q-84 0 -118.5 -46t-34.5 -173 v-250q0 -125 34.5 -172t120.5 -47z" glyph-name="uni1E03" horiz-adv-x="1193" unicode="ḃ"/><glyph d="M700 1894v-260h-280v260h280zM950 1169h-442v-335h405v-265h-405v-569h-342v1434h784v-265z" glyph-name="uni1E1E" horiz-adv-x="1021" unicode="Ḟ"/><glyph d="M629 1894v-260h-281v260h281zM643 1317q-76 0 -102.5 -39t-28.5 -152h215v-215h-215v-911h-326v911h-174v215h174v27q0 219 89.5 307t291.5 88q115 0 207 -18l-20 -225q-39 12 -111 12z" glyph-name="uni1E1F" horiz-adv-x="749" unicode="ḟ"/><glyph d="M993 1894v-260h-280v260h280zM1540 1434v-1434h-317v1053h-11l-198 -719l-17 8v-8h-286v10l-19 -10l-200 719h-9v-1053h-317v1434h459l223 -779h10l223 779h459z" glyph-name="uni1E40" horiz-adv-x="1703" unicode="Ṁ"/><glyph d="M1042 1587v-260h-280v260h280zM1354 1147q190 0 257.5 -95.5t67.5 -328.5v-723h-325v705q0 113 -29 157.5t-108 44.5q-76 0 -112 -44t-36 -158v-705h-326v705q0 113 -28.5 157.5t-108.5 44.5q-76 0 -111.5 -44t-35.5 -158v-705h-326v1116l287 25l22 -131h15 q74 137 288 137q223 0 285 -146h17q80 146 307 146z" glyph-name="uni1E41" horiz-adv-x="1800" unicode="ṁ"/><glyph d="M752 1894v-260h-281v260h281zM612 1434q160 0 266.5 -29t166 -88.5t83 -136t23.5 -187.5q0 -287 -133 -398.5t-406 -111.5h-104v-483h-342v1434h446zM590 723q127 0 174 57.5t47 194.5q0 127 -46 173t-175 46h-82v-471h82z" glyph-name="uni1E56" horiz-adv-x="1218" unicode="Ṗ"/><glyph d="M739 1587v-260h-280v260h280zM707 1147q119 0 200.5 -40t125.5 -120t62.5 -179t18.5 -235q0 -330 -107.5 -461.5t-314.5 -131.5q-145 0 -215 83h-18v-432h-326v1485l285 25l20 -121h23q66 127 246 127zM612 219q96 0 131 70.5t35 275.5q0 201 -33.5 271.5t-130.5 70.5 q-86 0 -120.5 -47t-34.5 -172v-250q0 -127 34.5 -173t118.5 -46z" glyph-name="uni1E57" horiz-adv-x="1193" unicode="ṗ"/><glyph d="M346 1894h281v-260h-281v260zM434 -20q-147 0 -375 38l23 269q227 -37 319 -37q94 0 133 32.5t39 104.5q0 84 -63 135l-268 219q-164 143 -164 332q0 213 126 297t361 84q115 0 330 -31l-23 -262q-156 25 -272 25q-96 0 -134 -29t-38 -94q0 -80 55 -121l256 -209 q100 -86 142.5 -168t42.5 -180q0 -215 -127 -310t-363 -95z" glyph-name="uni1E60" horiz-adv-x="993" unicode="Ṡ"/><glyph d="M299 1587h281v-260h-281v260zM403 -20q-137 0 -335 30l20 236q154 -27 248 -27q74 0 102.5 20.5t28.5 78t-49 90.5l-228 163q-119 84 -118 258q0 176 98 247t281 71q129 0 329 -33l-20 -235q-156 29 -242 28q-57 0 -78.5 -20.5t-21.5 -67.5q0 -51 41 -80l198 -143 q84 -61 123 -125.5t39 -159.5q0 -331 -416 -331z" glyph-name="uni1E61" horiz-adv-x="870" unicode="ṡ"/><glyph d="M637 1894v-260h-281v260h281zM969 1434v-265h-301v-1169h-342v1169h-303v265h946z" glyph-name="uni1E6A" horiz-adv-x="991" unicode="Ṫ"/><glyph d="M483 1747v-260h-280v260h280zM698 911h-194v-555q0 -82 16.5 -109.5t67.5 -27.5q35 0 71 8l19 -231q-76 -16 -193 -16q-176 0 -240.5 74.5t-64.5 252.5v604h-162v215h162v273h324v-273h194v-215z" glyph-name="uni1E6B" horiz-adv-x="763" unicode="ṫ"/><glyph d="M1038 1604h-215l-262 407h293zM1489 1434h350l-231 -1434h-482l-168 1169h-36l-166 -1169h-484l-229 1434h350l137 -1170h41l156 1170h428l154 -1170h43z" glyph-name="Wgrave" horiz-adv-x="1880" unicode="Ẁ"/><glyph d="M1008 1296h-215l-263 408h293zM1452 1126h344l-233 -1126h-473l-168 897h-33l-168 -897h-471l-234 1126h342l131 -897h37l160 897h440l158 -897h39z" glyph-name="wgrave" horiz-adv-x="1810" unicode="ẁ"/><glyph d="M1309 2011l-260 -407h-215l184 407h291zM1489 1434h350l-231 -1434h-482l-168 1169h-36l-166 -1169h-484l-229 1434h350l137 -1170h41l156 1170h428l154 -1170h43z" glyph-name="Wacute" horiz-adv-x="1880" unicode="Ẃ"/><glyph d="M1278 1704l-260 -408h-215l184 408h291zM1452 1126h344l-233 -1126h-473l-168 897h-33l-168 -897h-471l-234 1126h342l131 -897h37l160 897h440l158 -897h39z" glyph-name="wacute" horiz-adv-x="1810" unicode="ẃ"/><glyph d="M846 1894v-260h-279v260h279zM1311 1894v-260h-279v260h279zM1489 1434h350l-231 -1434h-482l-168 1169h-36l-166 -1169h-484l-229 1434h350l137 -1170h41l156 1170h428l154 -1170h43z" glyph-name="Wdieresis" horiz-adv-x="1880" unicode="Ẅ"/><glyph d="M815 1587v-260h-278v260h278zM1280 1587v-260h-279v260h279zM1452 1126h344l-233 -1126h-473l-168 897h-33l-168 -897h-471l-234 1126h342l131 -897h37l160 897h440l158 -897h39z" glyph-name="wdieresis" horiz-adv-x="1810" unicode="ẅ"/><glyph d="M1163 741q104 -82 149.5 -159.5t45.5 -196.5q0 -406 -467 -405q-133 0 -246 22l23 268q102 -20 184 -20q88 0 127 31.5t39 103.5q0 92 -72 141l-231 156v178l196 293q-55 31 -176 31q-102 0 -145 -35t-43 -121v-1028h-342v1059q0 213 124 304t412 91q281 0 476 -88v-246 l-170 -264v-29z" glyph-name="uni1E9E" horiz-adv-x="1425" unicode="ẞ"/><glyph d="M1292 0h-350l-74 338h-422l-73 -338h-350l374 1434h521zM504 602h307l-123 567h-61zM516 -399v260h281v-260h-281z" glyph-name="uni1EA0" horiz-adv-x="1314" unicode="Ạ"/><glyph d="M614 1147q190 0 273.5 -92t83.5 -291v-754l-287 -24l-20 129h-17q-72 -135 -262 -135q-330 0 -330 327q0 338 365 338h225v76q0 96 -36 134t-107 38q-94 0 -312 -51l-45 237q301 68 469 68zM496 188q76 0 112.5 53.5t36.5 172.5v69h-141q-131 0 -131 -149 q0 -146 123 -146zM401 -399v260h281v-260h-281z" glyph-name="uni1EA1" horiz-adv-x="1087" unicode="ạ"/><glyph d="M631 1901q-33 0 -103 -5l-12 140q98 14 174 14q125 0 171 -37t46 -123q0 -78 -61 -129l-72 -59q-45 -37 -45 -96h-151q0 78 10 110.5t43 59.5l39 28q39 31 39 58q0 23 -16.5 31t-61.5 8zM942 0l-74 338h-422l-73 -338h-350l374 1434h521l374 -1434h-350zM504 602h307 l-123 567h-61z" glyph-name="uni1EA2" horiz-adv-x="1314" unicode="Ả"/><glyph d="M514 1593q-33 0 -102 -4l-13 140q98 14 174 14q125 0 171.5 -37t46.5 -123q0 -78 -62 -129l-72 -59q-45 -37 -45 -97h-151q0 78 10 111t43 59l39 29q39 31 39 57q0 23 -15.5 31t-62.5 8zM614 1147q190 0 273.5 -92t83.5 -291v-754l-287 -24l-20 129h-17 q-72 -135 -262 -135q-330 0 -330 327q0 338 365 338h225v76q0 96 -36 134t-107 38q-94 0 -312 -51l-45 237q301 68 469 68zM496 188q76 0 112.5 53.5t36.5 172.5v69h-141q-131 0 -131 -149q0 -146 123 -146z" glyph-name="uni1EA3" horiz-adv-x="1087" unicode="ả"/><glyph d="M1460 2251l-260 -408h-215l184 408h291zM655 1833l-190 -238h-225l264 408h301l266 -408h-225zM918 1434l374 -1434h-350l-74 338h-422l-73 -338h-350l374 1434h521zM504 602h307l-123 567h-61z" glyph-name="uni1EA4" horiz-adv-x="1314" unicode="Ấ"/><glyph d="M1053 1944h290l-260 -408h-215zM539 1526l-191 -238h-225l264 408h301l266 -408h-225zM614 1147q190 0 273.5 -92t83.5 -291v-754l-287 -24l-20 129h-17q-72 -135 -262 -135q-330 0 -330 327q0 338 365 338h225v76q0 96 -36 134t-107 38q-94 0 -312 -51l-45 237 q301 68 469 68zM496 188q76 0 112.5 53.5t36.5 172.5v69h-141q-131 0 -131 -149q0 -146 123 -146z" glyph-name="uni1EA5" horiz-adv-x="1087" unicode="ấ"/><glyph d="M1255 1843h-213l-260 408h291zM655 1833l-190 -238h-225l264 408h301l266 -408h-225zM942 0l-74 338h-422l-73 -338h-350l374 1434h521l374 -1434h-350zM504 602h307l-123 567h-61z" glyph-name="uni1EA6" horiz-adv-x="1314" unicode="Ầ"/><glyph d="M1139 1536h-213l-260 408h290zM539 1526l-191 -238h-225l264 408h301l266 -408h-225zM614 1147q190 0 273.5 -92t83.5 -291v-754l-287 -24l-20 129h-17q-72 -135 -262 -135q-330 0 -330 327q0 338 365 338h225v76q0 96 -36 134t-107 38q-94 0 -312 -51l-45 237 q301 68 469 68zM496 188q76 0 112.5 53.5t36.5 172.5v69h-141q-131 0 -131 -149q0 -146 123 -146z" glyph-name="uni1EA7" horiz-adv-x="1087" unicode="ầ"/><glyph d="M1038 2138q-29 0 -102 -4l-12 137q115 16 176 17q125 0 170 -37t45 -123q0 -78 -62 -127l-71 -62q-43 -37 -43 -96h-154q0 76 10.5 110t42.5 58l41 31q39 29 39 55q0 25 -16.5 33t-63.5 8zM655 1833l-190 -238h-225l264 408h301l266 -408h-225zM918 1434l374 -1434h-350 l-74 338h-422l-73 -338h-350l374 1434h521zM504 602h307l-123 567h-61z" glyph-name="uni1EA8" horiz-adv-x="1314" unicode="Ẩ"/><glyph d="M983 1980q125 0 170 -36.5t45 -122.5q0 -78 -61 -127l-72 -62q-43 -37 -43 -96h-154q0 76 10.5 109.5t43.5 58.5l41 31q39 29 38 55q0 25 -16 33t-63 8q-29 0 -103 -4l-12 137q115 16 176 16zM539 1526l-191 -238h-225l264 408h301l266 -408h-225zM614 1147 q190 0 273.5 -92t83.5 -291v-754l-287 -24l-20 129h-17q-72 -135 -262 -135q-330 0 -330 327q0 338 365 338h225v76q0 96 -36 134t-107 38q-94 0 -312 -51l-45 237q301 68 469 68zM496 188q76 0 112.5 53.5t36.5 172.5v69h-141q-131 0 -131 -149q0 -146 123 -146z" glyph-name="uni1EA9" horiz-adv-x="1087" unicode="ẩ"/><glyph d="M512 2204q-63 0 -78 -109h-147q0 135 62.5 221t162.5 86q72 0 143 -51l88 -61q35 -23 56 -23q59 0 73 109h148q2 -141 -60.5 -223t-164.5 -82q-76 0 -140 47l-88 65q-28 21 -55 21zM655 1833l-190 -238h-225l264 408h301l266 -408h-225zM942 0l-74 338h-422l-73 -338 h-350l374 1434h521l374 -1434h-350zM504 602h307l-123 567h-61z" glyph-name="uni1EAA" horiz-adv-x="1314" unicode="Ẫ"/><glyph d="M395 1896q-63 0 -78 -108h-147q0 135 62.5 221t162.5 86q72 0 144 -51l88 -62q33 -23 55 -22q59 0 74 108h147q2 -141 -60.5 -223t-164.5 -82q-76 0 -139 47l-88 66q-29 20 -56 20zM539 1526l-191 -238h-225l264 408h301l266 -408h-225zM614 1147q190 0 273.5 -92 t83.5 -291v-754l-287 -24l-20 129h-17q-72 -135 -262 -135q-330 0 -330 327q0 338 365 338h225v76q0 96 -36 134t-107 38q-94 0 -312 -51l-45 237q301 68 469 68zM496 188q76 0 112.5 53.5t36.5 172.5v69h-141q-131 0 -131 -149q0 -146 123 -146z" glyph-name="uni1EAB" horiz-adv-x="1087" unicode="ẫ"/><glyph d="M655 1833l-190 -238h-225l264 408h301l266 -408h-225zM1292 0h-350l-74 338h-422l-73 -338h-350l374 1434h521zM504 602h307l-123 567h-61zM516 -399v260h281v-260h-281z" glyph-name="uni1EAC" horiz-adv-x="1314" unicode="Ậ"/><glyph d="M539 1526l-191 -238h-225l264 408h301l266 -408h-225zM614 1147q190 0 273.5 -92t83.5 -291v-754l-287 -24l-20 129h-17q-72 -135 -262 -135q-330 0 -330 327q0 338 365 338h225v76q0 96 -36 134t-107 38q-94 0 -312 -51l-45 237q301 68 469 68zM496 188q76 0 112.5 53.5 t36.5 172.5v69h-141q-131 0 -131 -149q0 -146 123 -146zM401 -399v260h281v-260h-281z" glyph-name="uni1EAD" horiz-adv-x="1087" unicode="ậ"/><glyph d="M1018 2359l-262 -407h-215l184 407h293zM657 1579q-199 0 -276.5 81t-77.5 238v37h199v-28q0 -70 34.5 -102.5t118.5 -32.5q78 0 116 27.5t38 107.5v28h199v-37q0 -180 -89.5 -249.5t-261.5 -69.5zM942 0l-74 338h-422l-73 -338h-350l374 1434h521l374 -1434h-350z M504 602h307l-123 567h-61z" glyph-name="uni1EAE" horiz-adv-x="1314" unicode="Ắ"/><glyph d="M901 2052l-262 -407h-215l184 407h293zM541 1272q-199 0 -277 81t-78 238v37h199v-29q0 -70 35 -102.5t119 -32.5q76 0 114.5 28t38.5 107v29h199v-37q0 -180 -89 -249.5t-261 -69.5zM614 1147q190 0 273.5 -92t83.5 -291v-754l-287 -24l-20 129h-17q-72 -135 -262 -135 q-330 0 -330 327q0 338 365 338h225v76q0 96 -36 134t-107 38q-94 0 -312 -51l-45 237q301 68 469 68zM496 188q76 0 112.5 53.5t36.5 172.5v69h-141q-131 0 -131 -149q0 -146 123 -146z" glyph-name="uni1EAF" horiz-adv-x="1087" unicode="ắ"/><glyph d="M770 1952h-215l-262 407h293zM502 1907q0 -70 34.5 -102.5t118.5 -32.5q78 0 116 27.5t38 107.5v28h199v-37q0 -180 -89.5 -249.5t-261.5 -69.5q-199 0 -276.5 81t-77.5 238v37h199v-28zM942 0l-74 338h-422l-73 -338h-350l374 1434h521l374 -1434h-350zM504 602h307 l-123 567h-61z" glyph-name="uni1EB0" horiz-adv-x="1314" unicode="Ằ"/><glyph d="M653 1645h-215l-262 407h293zM385 1599q0 -70 35 -102.5t119 -32.5q76 0 114.5 28t38.5 107v29h199v-37q0 -180 -89 -249.5t-261 -69.5q-199 0 -277 81t-78 238v37h199v-29zM614 1147q190 0 273.5 -92t83.5 -291v-754l-287 -24l-20 129h-17q-72 -135 -262 -135 q-330 0 -330 327q0 338 365 338h225v76q0 96 -36 134t-107 38q-94 0 -312 -51l-45 237q301 68 469 68zM496 188q76 0 112.5 53.5t36.5 172.5v69h-141q-131 0 -131 -149q0 -146 123 -146z" glyph-name="uni1EB1" horiz-adv-x="1087" unicode="ằ"/><glyph d="M623 2228q-68 0 -103 -4l-12 139q113 16 176 17q123 0 169 -38t46 -124q0 -76 -61 -127l-72 -59q-27 -23 -35 -42.5t-8 -56.5h-154q0 78 10.5 111t43.5 57l39 31q39 29 38 57q0 25 -15 32t-62 7zM657 1579q-199 0 -276.5 81t-77.5 238v37h199v-28q0 -70 34.5 -102.5 t118.5 -32.5q78 0 116 27.5t38 107.5v28h199v-37q0 -180 -89.5 -249.5t-261.5 -69.5zM942 0l-74 338h-422l-73 -338h-350l374 1434h521l374 -1434h-350zM504 602h307l-123 567h-61z" glyph-name="uni1EB2" horiz-adv-x="1314" unicode="Ẳ"/><glyph d="M506 1921q-68 0 -103 -4l-12 139q113 16 176 17q123 0 169 -38t46 -124q0 -76 -61 -127l-72 -60q-27 -23 -35 -42t-8 -56h-153q0 78 10 110.5t43 57.5l39 31q39 29 39 57q0 25 -15.5 32t-62.5 7zM541 1272q-199 0 -277 81t-78 238v37h199v-29q0 -70 35 -102.5t119 -32.5 q76 0 114.5 28t38.5 107v29h199v-37q0 -180 -89 -249.5t-261 -69.5zM614 1147q190 0 273.5 -92t83.5 -291v-754l-287 -24l-20 129h-17q-72 -135 -262 -135q-330 0 -330 327q0 338 365 338h225v76q0 96 -36 134t-107 38q-94 0 -312 -51l-45 237q301 68 469 68zM496 188 q76 0 112.5 53.5t36.5 172.5v69h-141q-131 0 -131 -149q0 -146 123 -146z" glyph-name="uni1EB3" horiz-adv-x="1087" unicode="ẳ"/><glyph d="M516 2130q-59 0 -78 -109h-145q0 135 61.5 220.5t161.5 85.5q78 0 143 -50l89 -61q35 -23 55 -23q61 0 76 109h147q0 -141 -62.5 -223t-162.5 -82q-80 0 -142 49l-88 63q-28 21 -55 21zM301 1935h199v-28q0 -70 34.5 -102.5t120.5 -32.5q76 0 115 28.5t39 106.5v28h197 v-37q0 -180 -89.5 -249.5t-261.5 -69.5q-199 0 -276.5 81t-77.5 238v37zM942 0l-74 338h-422l-73 -338h-350l374 1434h521l374 -1434h-350zM504 602h307l-123 567h-61z" glyph-name="uni1EB4" horiz-adv-x="1314" unicode="Ẵ"/><glyph d="M399 1823q-59 0 -77 -109h-146q0 135 61.5 220t161.5 85q78 0 144 -49l88 -61q35 -23 55 -23q61 0 76 109h147q0 -141 -62.5 -223t-162.5 -82q-80 0 -141 49l-88 63q-29 21 -56 21zM184 1628h199v-29q0 -70 35 -102.5t121 -32.5q76 0 114.5 29t38.5 106v29h197v-37 q0 -180 -89 -249.5t-261 -69.5q-199 0 -277 81t-78 238v37zM614 1147q190 0 273.5 -92t83.5 -291v-754l-287 -24l-20 129h-17q-72 -135 -262 -135q-330 0 -330 327q0 338 365 338h225v76q0 96 -36 134t-107 38q-94 0 -312 -51l-45 237q301 68 469 68zM496 188 q76 0 112.5 53.5t36.5 172.5v69h-141q-131 0 -131 -149q0 -146 123 -146z" glyph-name="uni1EB5" horiz-adv-x="1087" unicode="ẵ"/><glyph d="M657 1579q-199 0 -276.5 81t-77.5 238v37h199v-28q0 -70 34.5 -102.5t118.5 -32.5q78 0 116 27.5t38 107.5v28h199v-37q0 -180 -89.5 -249.5t-261.5 -69.5zM1292 0h-350l-74 338h-422l-73 -338h-350l374 1434h521zM504 602h307l-123 567h-61zM516 -399v260h281v-260h-281 z" glyph-name="uni1EB6" horiz-adv-x="1314" unicode="Ặ"/><glyph d="M541 1272q-199 0 -277 81t-78 238v37h199v-29q0 -70 35 -102.5t119 -32.5q76 0 114.5 28t38.5 107v29h199v-37q0 -180 -89 -249.5t-261 -69.5zM614 1147q190 0 273.5 -92t83.5 -291v-754l-287 -24l-20 129h-17q-72 -135 -262 -135q-330 0 -330 327q0 338 365 338h225v76 q0 96 -36 134t-107 38q-94 0 -312 -51l-45 237q301 68 469 68zM496 188q76 0 112.5 53.5t36.5 172.5v69h-141q-131 0 -131 -149q0 -146 123 -146zM401 -399v260h281v-260h-281z" glyph-name="uni1EB7" horiz-adv-x="1087" unicode="ặ"/><glyph d="M508 264h496v-264h-838v1434h813v-265h-471v-295h434v-264h-434v-346zM455 -399v260h280v-260h-280z" glyph-name="uni1EB8" horiz-adv-x="1091" unicode="Ẹ"/><glyph d="M399 471q8 -141 54.5 -197.5t142.5 -56.5q121 0 360 53l37 -221q-240 -70 -413 -69q-242 0 -372 139t-130 452q0 324 126 450t369 126q141 0 233.5 -37t140.5 -117t65.5 -179t17.5 -251q0 -61 -4 -92h-627zM578 928q-92 0 -132 -55.5t-49 -208.5h330q-4 156 -34.5 210 t-114.5 54zM410 -399v260h280v-260h-280z" glyph-name="uni1EB9" horiz-adv-x="1105" unicode="ẹ"/><glyph d="M545 1901q-33 0 -103 -5l-12 140q98 14 174 14q125 0 171 -37t46 -123q0 -78 -61 -129l-72 -59q-45 -37 -45 -96h-151q0 78 10 110.5t43 59.5l39 28q39 31 39 58q0 23 -16.5 31t-61.5 8zM508 264h496v-264h-838v1434h813v-265h-471v-295h434v-264h-434v-346z" glyph-name="uni1EBA" horiz-adv-x="1091" unicode="Ẻ"/><glyph d="M535 1593q-33 0 -103 -4l-12 140q98 14 174 14q125 0 171 -37t46 -123q0 -78 -61 -129l-72 -59q-45 -37 -45 -97h-152q0 78 10.5 111t43.5 59l38 29q39 31 39 57q0 23 -15 31t-62 8zM399 471q8 -141 54.5 -197.5t142.5 -56.5q121 0 360 53l37 -221q-240 -70 -413 -69 q-242 0 -372 139t-130 452q0 324 126 450t369 126q141 0 233.5 -37t140.5 -117t65.5 -179t17.5 -251q0 -61 -4 -92h-627zM578 928q-92 0 -132 -55.5t-49 -208.5h330q-4 156 -34.5 210t-114.5 54z" glyph-name="uni1EBB" horiz-adv-x="1105" unicode="ẻ"/><glyph d="M432 1722q-61 0 -76 -108h-149q0 137 63.5 222t163.5 85q70 0 144 -49l86 -64q31 -20 55 -20q59 0 76 106h145q0 -141 -61.5 -223t-161.5 -82q-80 0 -142 49l-88 64q-28 20 -55 20zM508 264h496v-264h-838v1434h813v-265h-471v-295h434v-264h-434v-346z" glyph-name="uni1EBC" horiz-adv-x="1091" unicode="Ẽ"/><glyph d="M422 1415q-61 0 -76 -108h-149q0 137 63.5 222t163.5 85q70 0 143 -49l86 -64q31 -20 56 -20q59 0 75 106h146q0 -141 -61.5 -223t-161.5 -82q-80 0 -142 49l-88 64q-28 20 -55 20zM399 471q8 -141 54.5 -197.5t142.5 -56.5q121 0 360 53l37 -221q-240 -70 -413 -69 q-242 0 -372 139t-130 452q0 324 126 450t369 126q141 0 233.5 -37t140.5 -117t65.5 -179t17.5 -251q0 -61 -4 -92h-627zM578 928q-92 0 -132 -55.5t-49 -208.5h330q-4 156 -34.5 210t-114.5 54z" glyph-name="uni1EBD" horiz-adv-x="1105" unicode="ẽ"/><glyph d="M1083 2251h291l-260 -408h-215zM569 1833l-190 -238h-225l264 408h301l266 -408h-225zM508 610v-346h496v-264h-838v1434h813v-265h-471v-295h434v-264h-434z" glyph-name="uni1EBE" horiz-adv-x="1091" unicode="Ế"/><glyph d="M1073 1944h291l-260 -408h-215zM559 1526l-190 -238h-226l265 408h301l266 -408h-225zM573 1147q141 0 233.5 -37t140.5 -117t65.5 -179t17.5 -251q0 -61 -4 -92h-627q8 -141 54.5 -197.5t142.5 -56.5q121 0 360 53l37 -221q-240 -70 -413 -69q-242 0 -372 139t-130 452 q0 324 125.5 450t369.5 126zM578 928q-92 0 -132 -55.5t-49 -208.5h330q-4 156 -34.5 210t-114.5 54z" glyph-name="uni1EBF" horiz-adv-x="1105" unicode="ế"/><glyph d="M1169 1843h-213l-260 408h291zM569 1833l-190 -238h-225l264 408h301l266 -408h-225zM508 610v-346h496v-264h-838v1434h813v-265h-471v-295h434v-264h-434z" glyph-name="uni1EC0" horiz-adv-x="1091" unicode="Ề"/><glyph d="M1159 1536h-213l-260 408h291zM559 1526l-190 -238h-226l265 408h301l266 -408h-225zM573 1147q141 0 233.5 -37t140.5 -117t65.5 -179t17.5 -251q0 -61 -4 -92h-627q8 -141 54.5 -197.5t142.5 -56.5q121 0 360 53l37 -221q-240 -70 -413 -69q-242 0 -372 139t-130 452 q0 324 125.5 450t369.5 126zM578 928q-92 0 -132 -55.5t-49 -208.5h330q-4 156 -34.5 210t-114.5 54z" glyph-name="uni1EC1" horiz-adv-x="1105" unicode="ề"/><glyph d="M1014 2288q125 0 170 -37t45 -123q0 -78 -62 -127l-71 -62q-43 -37 -43 -96h-154q0 76 10.5 110t42.5 58l41 31q39 29 39 55q0 25 -16.5 33t-63.5 8q-29 0 -102 -4l-12 137q115 17 176 17zM569 1833l-190 -238h-225l264 408h301l266 -408h-225zM508 610v-346h496v-264 h-838v1434h813v-265h-471v-295h434v-264h-434z" glyph-name="uni1EC2" horiz-adv-x="1091" unicode="Ể"/><glyph d="M1004 1980q125 0 170 -36.5t45 -122.5q0 -78 -62 -127l-72 -62q-43 -37 -43 -96h-153q0 76 10 109.5t43 58.5l41 31q39 29 39 55q0 25 -16.5 33t-63.5 8q-29 0 -102 -4l-13 137q116 16 177 16zM559 1526l-190 -238h-226l265 408h301l266 -408h-225zM573 1147 q141 0 233.5 -37t140.5 -117t65.5 -179t17.5 -251q0 -61 -4 -92h-627q8 -141 54.5 -197.5t142.5 -56.5q121 0 360 53l37 -221q-240 -70 -413 -69q-242 0 -372 139t-130 452q0 324 125.5 450t369.5 126zM578 928q-92 0 -132 -55.5t-49 -208.5h330q-4 156 -34.5 210t-114.5 54 z" glyph-name="uni1EC3" horiz-adv-x="1105" unicode="ể"/><glyph d="M426 2204q-63 0 -78 -109h-147q0 135 62.5 221t162.5 86q72 0 143 -51l88 -61q35 -23 56 -23q59 0 73 109h148q2 -141 -60.5 -223t-164.5 -82q-76 0 -140 47l-88 65q-28 21 -55 21zM569 1833l-190 -238h-225l264 408h301l266 -408h-225zM508 264h496v-264h-838v1434h813 v-265h-471v-295h434v-264h-434v-346z" glyph-name="uni1EC4" horiz-adv-x="1091" unicode="Ễ"/><glyph d="M416 1896q-63 0 -78 -108h-148q0 135 62.5 221t163.5 86q72 0 143 -51l88 -62q33 -23 55 -22q59 0 74 108h148q2 -141 -60.5 -223t-165.5 -82q-76 0 -139 47l-88 66q-28 20 -55 20zM559 1526l-190 -238h-226l265 408h301l266 -408h-225zM399 471q8 -141 54.5 -197.5 t142.5 -56.5q121 0 360 53l37 -221q-240 -70 -413 -69q-242 0 -372 139t-130 452q0 324 126 450t369 126q141 0 233.5 -37t140.5 -117t65.5 -179t17.5 -251q0 -61 -4 -92h-627zM578 928q-92 0 -132 -55.5t-49 -208.5h330q-4 156 -34.5 210t-114.5 54z" glyph-name="uni1EC5" horiz-adv-x="1105" unicode="ễ"/><glyph d="M569 1833l-190 -238h-225l264 408h301l266 -408h-225zM508 264h496v-264h-838v1434h813v-265h-471v-295h434v-264h-434v-346zM455 -399v260h280v-260h-280z" glyph-name="uni1EC6" horiz-adv-x="1091" unicode="Ệ"/><glyph d="M559 1526l-190 -238h-226l265 408h301l266 -408h-225zM399 471q8 -141 54.5 -197.5t142.5 -56.5q121 0 360 53l37 -221q-240 -70 -413 -69q-242 0 -372 139t-130 452q0 324 126 450t369 126q141 0 233.5 -37t140.5 -117t65.5 -179t17.5 -251q0 -61 -4 -92h-627zM578 928 q-92 0 -132 -55.5t-49 -208.5h330q-4 156 -34.5 210t-114.5 54zM410 -399v260h280v-260h-280z" glyph-name="uni1EC7" horiz-adv-x="1105" unicode="ệ"/><glyph d="M260 1606q0 78 10.5 110.5t42.5 59.5l39 28q39 31 39 58q0 23 -15.5 31t-62.5 8q-33 0 -102 -5l-12 140q98 14 174 14q125 0 171 -37t46 -123q0 -78 -62 -129l-71 -59q-45 -37 -45 -96h-152zM508 1434v-1434h-342v1434h342z" glyph-name="uni1EC8" horiz-adv-x="671" unicode="Ỉ"/><glyph d="M215 1298q0 78 10.5 111t42.5 59l39 29q39 31 39 57q0 23 -15.5 31t-62.5 8q-33 0 -102 -4l-12 140q98 14 174 14q125 0 171 -37t46 -123q0 -78 -62 -129l-71 -59q-45 -37 -45 -97h-152zM457 1126v-1126h-328v1126h328z" glyph-name="uni1EC9" horiz-adv-x="585" unicode="ỉ"/><glyph d="M508 1434v-1434h-342v1434h342zM197 -139h280v-260h-280v260z" glyph-name="uni1ECA" horiz-adv-x="671" unicode="Ị"/><glyph d="M117 1569h352v-283h-352v283zM457 1126v-1126h-328v1126h328zM152 -139h280v-260h-280v260z" glyph-name="uni1ECB" horiz-adv-x="585" unicode="ị"/><glyph d="M702 -20q-338 0 -464.5 179t-126.5 558q0 217 37.5 363.5t116.5 227.5t183.5 113.5t253.5 32.5q174 0 291 -47t181.5 -146.5t91 -228.5t26.5 -315q0 -217 -37.5 -363.5t-116.5 -227.5t-182.5 -113.5t-253.5 -32.5zM702 258q139 0 189.5 93t50.5 366q0 270 -50 364.5 t-190 94.5q-141 0 -191 -93.5t-50 -365.5q0 -270 50 -364.5t191 -94.5zM561 -139h281v-260h-281v260z" glyph-name="uni1ECC" horiz-adv-x="1400" unicode="Ọ"/><glyph d="M592 -20q-291 0 -401.5 145t-110.5 438q0 332 128 458t384 126q287 0 397.5 -145.5t110.5 -438.5q0 -330 -127 -456.5t-381 -126.5zM592 219q102 0 137 68.5t35 275.5t-35 275.5t-137 68.5q-106 0 -141 -68.5t-35 -275.5t35 -275.5t141 -68.5zM451 -139h280v-260h-280 v260z" glyph-name="uni1ECD" horiz-adv-x="1179" unicode="ọ"/><glyph d="M623 1606q0 78 10 110.5t43 59.5l39 28q39 31 39 58q0 23 -16.5 31t-61.5 8q-33 0 -103 -5l-12 140q98 14 174 14q125 0 171 -37t46 -123q0 -78 -61 -129l-72 -59q-45 -37 -45 -96h-151zM702 -20q-338 0 -464.5 179t-126.5 558q0 217 37.5 363.5t116.5 227.5t183.5 113.5 t253.5 32.5q174 0 291 -47t181.5 -146.5t91 -228.5t26.5 -315q0 -217 -37.5 -363.5t-116.5 -227.5t-182.5 -113.5t-253.5 -32.5zM702 258q139 0 189.5 93t50.5 366q0 270 -50 364.5t-190 94.5q-141 0 -191 -93.5t-50 -365.5q0 -270 50 -364.5t191 -94.5z" glyph-name="uni1ECE" horiz-adv-x="1400" unicode="Ỏ"/><glyph d="M512 1298q0 78 10 111t43 59l39 29q39 31 39 57q0 23 -16.5 31t-61.5 8q-33 0 -102 -4l-12 140q98 14 174 14q125 0 171 -37t46 -123q0 -78 -62 -129l-71 -59q-45 -37 -45 -97h-152zM592 -20q-291 0 -401.5 145t-110.5 438q0 332 128 458t384 126q287 0 397.5 -145.5 t110.5 -438.5q0 -330 -127 -456.5t-381 -126.5zM592 219q102 0 137 68.5t35 275.5t-35 275.5t-137 68.5q-106 0 -141 -68.5t-35 -275.5t35 -275.5t141 -68.5z" glyph-name="uni1ECF" horiz-adv-x="1179" unicode="ỏ"/><glyph d="M1505 2251l-260 -408h-215l184 408h291zM700 1833l-190 -238h-225l264 408h301l266 -408h-225zM702 1454q174 0 291 -47t181.5 -146.5t91 -228.5t26.5 -315q0 -217 -37.5 -363.5t-116.5 -227.5t-182.5 -113.5t-253.5 -32.5q-338 0 -464.5 179t-126.5 558 q0 217 37.5 363.5t116.5 227.5t183 113.5t254 32.5zM702 258q139 0 189.5 93t50.5 366q0 270 -50 364.5t-190 94.5q-141 0 -191 -93.5t-50 -365.5q0 -270 50 -364.5t191 -94.5z" glyph-name="uni1ED0" horiz-adv-x="1400" unicode="Ố"/><glyph d="M1104 1944h291l-260 -408h-215zM590 1526l-191 -238h-225l264 408h301l267 -408h-226zM592 1147q287 0 397.5 -145.5t110.5 -438.5q0 -330 -127 -456.5t-381 -126.5q-291 0 -401.5 145t-110.5 438q0 332 128 458t384 126zM592 219q102 0 137 68.5t35 275.5t-35 275.5 t-137 68.5q-106 0 -141 -68.5t-35 -275.5t35 -275.5t141 -68.5z" glyph-name="uni1ED1" horiz-adv-x="1179" unicode="ố"/><glyph d="M1300 1843h-213l-260 408h291zM700 1833l-190 -238h-225l264 408h301l266 -408h-225zM702 1454q174 0 291 -47t181.5 -146.5t91 -228.5t26.5 -315q0 -217 -37.5 -363.5t-116.5 -227.5t-182.5 -113.5t-253.5 -32.5q-338 0 -464.5 179t-126.5 558q0 217 37.5 363.5 t116.5 227.5t183 113.5t254 32.5zM702 258q139 0 189.5 93t50.5 366q0 270 -50 364.5t-190 94.5q-141 0 -191 -93.5t-50 -365.5q0 -270 50 -364.5t191 -94.5z" glyph-name="uni1ED2" horiz-adv-x="1400" unicode="Ồ"/><glyph d="M1190 1536h-213l-260 408h291zM590 1526l-191 -238h-225l264 408h301l267 -408h-226zM592 1147q287 0 397.5 -145.5t110.5 -438.5q0 -330 -127 -456.5t-381 -126.5q-291 0 -401.5 145t-110.5 438q0 332 128 458t384 126zM592 219q102 0 137 68.5t35 275.5t-35 275.5 t-137 68.5q-106 0 -141 -68.5t-35 -275.5t35 -275.5t141 -68.5z" glyph-name="uni1ED3" horiz-adv-x="1179" unicode="ồ"/><glyph d="M1145 2288q125 0 170 -37t45 -123q0 -78 -62 -127l-71 -62q-43 -37 -43 -96h-154q0 76 10.5 110t42.5 58l41 31q39 29 39 55q0 25 -16.5 33t-63.5 8q-29 0 -102 -4l-12 137q115 17 176 17zM700 1833l-190 -238h-225l264 408h301l266 -408h-225zM702 1454q174 0 291 -47 t181.5 -146.5t91 -228.5t26.5 -315q0 -217 -37.5 -363.5t-116.5 -227.5t-182.5 -113.5t-253.5 -32.5q-338 0 -464.5 179t-126.5 558q0 217 37.5 363.5t116.5 227.5t183 113.5t254 32.5zM702 258q139 0 189.5 93t50.5 366q0 270 -50 364.5t-190 94.5q-141 0 -191 -93.5 t-50 -365.5q0 -270 50 -364.5t191 -94.5z" glyph-name="uni1ED4" horiz-adv-x="1400" unicode="Ổ"/><glyph d="M1034 1980q125 0 170 -36.5t45 -122.5q0 -78 -61 -127l-72 -62q-43 -37 -43 -96h-153q0 76 10 109.5t43 58.5l41 31q39 29 39 55q0 25 -16.5 33t-63.5 8q-29 0 -103 -4l-12 137q115 16 176 16zM590 1526l-191 -238h-225l264 408h301l267 -408h-226zM592 1147 q287 0 397.5 -145.5t110.5 -438.5q0 -330 -127 -456.5t-381 -126.5q-291 0 -401.5 145t-110.5 438q0 332 128 458t384 126zM592 219q102 0 137 68.5t35 275.5t-35 275.5t-137 68.5q-106 0 -141 -68.5t-35 -275.5t35 -275.5t141 -68.5z" glyph-name="uni1ED5" horiz-adv-x="1179" unicode="ổ"/><glyph d="M557 2204q-63 0 -78 -109h-147q0 135 62.5 221t162.5 86q72 0 143 -51l88 -61q35 -23 56 -23q59 0 74 109h147q2 -141 -60.5 -223t-164.5 -82q-76 0 -140 47l-88 65q-28 21 -55 21zM700 1833l-190 -238h-225l264 408h301l266 -408h-225zM702 1454q174 0 291 -47 t181.5 -146.5t91 -228.5t26.5 -315q0 -217 -37.5 -363.5t-116.5 -227.5t-182.5 -113.5t-253.5 -32.5q-338 0 -464.5 179t-126.5 558q0 217 37.5 363.5t116.5 227.5t183 113.5t254 32.5zM702 258q139 0 189.5 93t50.5 366q0 270 -50 364.5t-190 94.5q-141 0 -191 -93.5 t-50 -365.5q0 -270 50 -364.5t191 -94.5z" glyph-name="uni1ED6" horiz-adv-x="1400" unicode="Ỗ"/><glyph d="M446 1896q-63 0 -77 -108h-148q0 135 62.5 221t162.5 86q72 0 144 -51l88 -62q33 -23 55 -22q59 0 74 108h147q2 -141 -60.5 -223t-164.5 -82q-76 0 -139 47l-88 66q-29 20 -56 20zM590 1526l-191 -238h-225l264 408h301l267 -408h-226zM592 1147q287 0 397.5 -145.5 t110.5 -438.5q0 -330 -127 -456.5t-381 -126.5q-291 0 -401.5 145t-110.5 438q0 332 128 458t384 126zM592 219q102 0 137 68.5t35 275.5t-35 275.5t-137 68.5q-106 0 -141 -68.5t-35 -275.5t35 -275.5t141 -68.5z" glyph-name="uni1ED7" horiz-adv-x="1179" unicode="ỗ"/><glyph d="M700 1833l-190 -238h-225l264 408h301l266 -408h-225zM702 1454q174 0 291 -47t181.5 -146.5t91 -228.5t26.5 -315q0 -217 -37.5 -363.5t-116.5 -227.5t-182.5 -113.5t-253.5 -32.5q-338 0 -464.5 179t-126.5 558q0 217 37.5 363.5t116.5 227.5t183 113.5t254 32.5z M702 258q139 0 189.5 93t50.5 366q0 270 -50 364.5t-190 94.5q-141 0 -191 -93.5t-50 -365.5q0 -270 50 -364.5t191 -94.5zM561 -399v260h281v-260h-281z" glyph-name="uni1ED8" horiz-adv-x="1400" unicode="Ộ"/><glyph d="M590 1526l-191 -238h-225l264 408h301l267 -408h-226zM592 1147q287 0 397.5 -145.5t110.5 -438.5q0 -330 -127 -456.5t-381 -126.5q-291 0 -401.5 145t-110.5 438q0 332 128 458t384 126zM592 219q102 0 137 68.5t35 275.5t-35 275.5t-137 68.5q-106 0 -141 -68.5 t-35 -275.5t35 -275.5t141 -68.5zM451 -399v260h280v-260h-280z" glyph-name="uni1ED9" horiz-adv-x="1179" unicode="ộ"/><glyph d="M1069 2011l-260 -407h-215l184 407h291zM1243 1679h199v-206q0 -139 -53.5 -208t-165.5 -89q70 -162 69 -459q0 -217 -37.5 -363.5t-116.5 -227.5t-182.5 -113.5t-253.5 -32.5q-338 0 -464.5 179t-126.5 558q0 217 37.5 363.5t116.5 227.5t183.5 113.5t253.5 32.5 q268 0 406 -119q72 4 103.5 35t31.5 103v206zM702 258q139 0 189.5 93t50.5 366q0 270 -50 364.5t-190 94.5q-141 0 -191 -93.5t-50 -365.5q0 -270 50 -364.5t191 -94.5z" glyph-name="uni1EDA" horiz-adv-x="1400" unicode="Ớ"/><glyph d="M958 1704l-260 -408h-215l185 408h290zM1102 1356h198v-207q0 -145 -57 -213t-176 -86q33 -119 33 -287q0 -330 -127 -456.5t-381 -126.5q-291 0 -401.5 145t-110.5 438q0 332 128 458t384 126q266 0 387 -133q66 4 94.5 35.5t28.5 99.5v207zM592 219q102 0 137 68.5 t35 275.5t-35 275.5t-137 68.5q-106 0 -141 -68.5t-35 -275.5t35 -275.5t141 -68.5z" glyph-name="uni1EDB" horiz-adv-x="1179" unicode="ớ"/><glyph d="M799 1604h-215l-262 407h292zM1243 1679h199v-206q0 -139 -53.5 -208t-165.5 -89q70 -162 69 -459q0 -217 -37.5 -363.5t-116.5 -227.5t-182.5 -113.5t-253.5 -32.5q-338 0 -464.5 179t-126.5 558q0 217 37.5 363.5t116.5 227.5t183.5 113.5t253.5 32.5q268 0 406 -119 q72 4 103.5 35t31.5 103v206zM702 258q139 0 189.5 93t50.5 366q0 270 -50 364.5t-190 94.5q-141 0 -191 -93.5t-50 -365.5q0 -270 50 -364.5t191 -94.5z" glyph-name="uni1EDC" horiz-adv-x="1400" unicode="Ờ"/><glyph d="M688 1296h-215l-262 408h293zM1102 1356h198v-207q0 -145 -57 -213t-176 -86q33 -119 33 -287q0 -330 -127 -456.5t-381 -126.5q-291 0 -401.5 145t-110.5 438q0 332 128 458t384 126q266 0 387 -133q66 4 94.5 35.5t28.5 99.5v207zM592 219q102 0 137 68.5t35 275.5 t-35 275.5t-137 68.5q-106 0 -141 -68.5t-35 -275.5t35 -275.5t141 -68.5z" glyph-name="uni1EDD" horiz-adv-x="1179" unicode="ờ"/><glyph d="M676 1901q-33 0 -103 -5l-12 140q98 14 174 14q125 0 171 -37t46 -123q0 -78 -61 -129l-72 -59q-45 -37 -45 -96h-151q0 78 10 110.5t43 59.5l39 28q39 31 39 58q0 23 -16.5 31t-61.5 8zM1243 1679h199v-206q0 -139 -53.5 -208t-165.5 -89q70 -162 69 -459 q0 -217 -37.5 -363.5t-116.5 -227.5t-182.5 -113.5t-253.5 -32.5q-338 0 -464.5 179t-126.5 558q0 217 37.5 363.5t116.5 227.5t183.5 113.5t253.5 32.5q268 0 406 -119q72 4 103.5 35t31.5 103v206zM702 258q139 0 189.5 93t50.5 366q0 270 -50 364.5t-190 94.5 q-141 0 -191 -93.5t-50 -365.5q0 -270 50 -364.5t191 -94.5z" glyph-name="uni1EDE" horiz-adv-x="1400" unicode="Ở"/><glyph d="M565 1593q-33 0 -102 -4l-12 140q98 14 174 14q125 0 171 -37t46 -123q0 -78 -62 -129l-71 -59q-45 -37 -45 -97h-152q0 78 10 111t43 59l39 29q39 31 39 57q0 23 -16.5 31t-61.5 8zM1102 1356h198v-207q0 -145 -57 -213t-176 -86q33 -119 33 -287q0 -330 -127 -456.5 t-381 -126.5q-291 0 -401.5 145t-110.5 438q0 332 128 458t384 126q266 0 387 -133q66 4 94.5 35.5t28.5 99.5v207zM592 219q102 0 137 68.5t35 275.5t-35 275.5t-137 68.5q-106 0 -141 -68.5t-35 -275.5t35 -275.5t141 -68.5z" glyph-name="uni1EDF" horiz-adv-x="1179" unicode="ở"/><glyph d="M563 1722q-61 0 -76 -108h-149q0 137 63.5 222t163.5 85q70 0 144 -49l86 -64q31 -20 55 -20q59 0 76 106h145q0 -141 -61.5 -223t-161.5 -82q-80 0 -141 49l-89 64q-28 20 -55 20zM1243 1679h199v-206q0 -139 -53.5 -208t-165.5 -89q70 -162 69 -459 q0 -217 -37.5 -363.5t-116.5 -227.5t-182.5 -113.5t-253.5 -32.5q-338 0 -464.5 179t-126.5 558q0 217 37.5 363.5t116.5 227.5t183.5 113.5t253.5 32.5q268 0 406 -119q72 4 103.5 35t31.5 103v206zM702 258q139 0 189.5 93t50.5 366q0 270 -50 364.5t-190 94.5 q-141 0 -191 -93.5t-50 -365.5q0 -270 50 -364.5t191 -94.5z" glyph-name="uni1EE0" horiz-adv-x="1400" unicode="Ỡ"/><glyph d="M453 1415q-61 0 -76 -108h-150q0 137 63.5 222t164.5 85q70 0 143 -49l86 -64q31 -20 55 -20q59 0 76 106h146q0 -141 -61.5 -223t-162.5 -82q-80 0 -141 49l-88 64q-28 20 -55 20zM1102 1356h198v-207q0 -145 -57 -213t-176 -86q33 -119 33 -287q0 -330 -127 -456.5 t-381 -126.5q-291 0 -401.5 145t-110.5 438q0 332 128 458t384 126q266 0 387 -133q66 4 94.5 35.5t28.5 99.5v207zM592 219q102 0 137 68.5t35 275.5t-35 275.5t-137 68.5q-106 0 -141 -68.5t-35 -275.5t35 -275.5t141 -68.5z" glyph-name="uni1EE1" horiz-adv-x="1179" unicode="ỡ"/><glyph d="M1243 1679h199v-206q0 -139 -53.5 -208t-165.5 -89q70 -162 69 -459q0 -217 -37.5 -363.5t-116.5 -227.5t-182.5 -113.5t-253.5 -32.5q-338 0 -464.5 179t-126.5 558q0 217 37.5 363.5t116.5 227.5t183.5 113.5t253.5 32.5q268 0 406 -119q72 4 103.5 35t31.5 103v206z M702 258q139 0 189.5 93t50.5 366q0 270 -50 364.5t-190 94.5q-141 0 -191 -93.5t-50 -365.5q0 -270 50 -364.5t191 -94.5zM561 -399v260h281v-260h-281z" glyph-name="uni1EE2" horiz-adv-x="1400" unicode="Ợ"/><glyph d="M1102 1356h198v-207q0 -145 -57 -213t-176 -86q33 -119 33 -287q0 -330 -127 -456.5t-381 -126.5q-291 0 -401.5 145t-110.5 438q0 332 128 458t384 126q266 0 387 -133q66 4 94.5 35.5t28.5 99.5v207zM592 219q102 0 137 68.5t35 275.5t-35 275.5t-137 68.5 q-106 0 -141 -68.5t-35 -275.5t35 -275.5t141 -68.5zM451 -399v260h280v-260h-280z" glyph-name="uni1EE3" horiz-adv-x="1179" unicode="ợ"/><glyph d="M684 -20q-311 0 -427 130t-116 416v908h342v-922q0 -152 40 -203t152.5 -51t151.5 51t39 203v922h342v-908q0 -162 -32.5 -269t-102 -167.5t-162 -85t-227.5 -24.5zM537 -139h280v-260h-280v260z" glyph-name="uni1EE4" horiz-adv-x="1349" unicode="Ụ"/><glyph d="M748 1126h325v-1116l-287 -24l-20 129h-18q-76 -135 -295 -135q-193 0 -262.5 95t-69.5 328v723h325v-704q0 -113 31 -158t117 -45q80 0 117 44t37 159v704zM442 -399v260h281v-260h-281z" glyph-name="uni1EE5" horiz-adv-x="1206" unicode="ụ"/><glyph d="M598 1606q0 78 10 110.5t43 59.5l39 28q39 31 39 58q0 23 -16.5 31t-61.5 8q-33 0 -102 -5l-12 140q98 14 174 14q125 0 171 -37t46 -123q0 -78 -62 -129l-71 -59q-45 -37 -45 -96h-152zM684 -20q-311 0 -427 130t-116 416v908h342v-922q0 -152 40 -203t152.5 -51 t151.5 51t39 203v922h342v-908q0 -162 -32.5 -269t-102 -167.5t-162 -85t-227.5 -24.5z" glyph-name="uni1EE6" horiz-adv-x="1349" unicode="Ủ"/><glyph d="M575 1593q-33 0 -102 -4l-12 140q98 14 174 14q125 0 171 -37t46 -123q0 -78 -61 -129l-72 -59q-45 -37 -45 -97h-152q0 78 10.5 111t42.5 59l39 29q39 31 39 57q0 23 -15.5 31t-62.5 8zM748 1126h325v-1116l-287 -24l-20 129h-18q-76 -135 -295 -135q-193 0 -262.5 95 t-69.5 328v723h325v-704q0 -113 31 -158t117 -45q80 0 117 44t37 159v704z" glyph-name="uni1EE7" horiz-adv-x="1206" unicode="ủ"/><glyph d="M1044 2011l-260 -407h-215l185 407h290zM1298 1778h199v-207q0 -160 -69.5 -227.5t-219.5 -77.5v-740q0 -162 -32.5 -269t-102 -167.5t-162 -85t-227.5 -24.5q-311 0 -427 130t-116 416v908h342v-922q0 -152 40 -203t152.5 -51t151.5 51t39 203v922h271q86 0 123.5 30.5 t37.5 106.5v207z" glyph-name="uni1EE8" horiz-adv-x="1349" unicode="Ứ"/><glyph d="M969 1704l-260 -408h-215l184 408h291zM1153 1470h199v-206q0 -156 -67.5 -224.5t-211.5 -81.5v-948l-287 -24l-20 129h-18q-76 -135 -295 -135q-193 0 -262.5 95t-69.5 328v723h325v-704q0 -113 31 -158t117 -45q80 0 117 44t37 159v704h243q86 0 124 31t38 107v206z " glyph-name="uni1EE9" horiz-adv-x="1206" unicode="ứ"/><glyph d="M774 1604h-215l-262 407h293zM1298 1778h199v-207q0 -160 -69.5 -227.5t-219.5 -77.5v-740q0 -162 -32.5 -269t-102 -167.5t-162 -85t-227.5 -24.5q-311 0 -427 130t-116 416v908h342v-922q0 -152 40 -203t152.5 -51t151.5 51t39 203v922h271q86 0 123.5 30.5t37.5 106.5 v207z" glyph-name="uni1EEA" horiz-adv-x="1349" unicode="Ừ"/><glyph d="M698 1296h-215l-262 408h293zM1153 1470h199v-206q0 -156 -67.5 -224.5t-211.5 -81.5v-948l-287 -24l-20 129h-18q-76 -135 -295 -135q-193 0 -262.5 95t-69.5 328v723h325v-704q0 -113 31 -158t117 -45q80 0 117 44t37 159v704h243q86 0 124 31t38 107v206z" glyph-name="uni1EEB" horiz-adv-x="1206" unicode="ừ"/><glyph d="M651 1901q-33 0 -102 -5l-12 140q98 14 174 14q125 0 171 -37t46 -123q0 -78 -62 -129l-71 -59q-45 -37 -45 -96h-152q0 78 10 110.5t43 59.5l39 28q39 31 39 58q0 23 -16.5 31t-61.5 8zM1298 1778h199v-207q0 -160 -69.5 -227.5t-219.5 -77.5v-740q0 -162 -32.5 -269 t-102 -167.5t-162 -85t-227.5 -24.5q-311 0 -427 130t-116 416v908h342v-922q0 -152 40 -203t152.5 -51t151.5 51t39 203v922h271q86 0 123.5 30.5t37.5 106.5v207z" glyph-name="uni1EEC" horiz-adv-x="1349" unicode="Ử"/><glyph d="M575 1593q-33 0 -102 -4l-12 140q98 14 174 14q125 0 171 -37t46 -123q0 -78 -61 -129l-72 -59q-45 -37 -45 -97h-152q0 78 10.5 111t42.5 59l39 29q39 31 39 57q0 23 -15.5 31t-62.5 8zM1153 1470h199v-206q0 -156 -67.5 -224.5t-211.5 -81.5v-948l-287 -24l-20 129h-18 q-76 -135 -295 -135q-193 0 -262.5 95t-69.5 328v723h325v-704q0 -113 31 -158t117 -45q80 0 117 44t37 159v704h243q86 0 124 31t38 107v206z" glyph-name="uni1EED" horiz-adv-x="1206" unicode="ử"/><glyph d="M539 1722q-61 0 -76 -108h-150q0 137 63.5 222t164.5 85q70 0 143 -49l86 -64q31 -20 55 -20q59 0 76 106h146q0 -141 -61.5 -223t-162.5 -82q-80 0 -141 49l-88 64q-28 20 -55 20zM1298 1778h199v-207q0 -160 -69.5 -227.5t-219.5 -77.5v-740q0 -162 -32.5 -269 t-102 -167.5t-162 -85t-227.5 -24.5q-311 0 -427 130t-116 416v908h342v-922q0 -152 40 -203t152.5 -51t151.5 51t39 203v922h271q86 0 123.5 30.5t37.5 106.5v207z" glyph-name="uni1EEE" horiz-adv-x="1349" unicode="Ữ"/><glyph d="M463 1415q-61 0 -76 -108h-149q0 137 63.5 222t163.5 85q70 0 143 -49l86 -64q31 -20 56 -20q59 0 75 106h146q0 -141 -61.5 -223t-161.5 -82q-80 0 -142 49l-88 64q-28 20 -55 20zM1153 1470h199v-206q0 -156 -67.5 -224.5t-211.5 -81.5v-948l-287 -24l-20 129h-18 q-76 -135 -295 -135q-193 0 -262.5 95t-69.5 328v723h325v-704q0 -113 31 -158t117 -45q80 0 117 44t37 159v704h243q86 0 124 31t38 107v206z" glyph-name="uni1EEF" horiz-adv-x="1206" unicode="ữ"/><glyph d="M1298 1778h199v-207q0 -160 -69.5 -227.5t-219.5 -77.5v-740q0 -162 -32.5 -269t-102 -167.5t-162 -85t-227.5 -24.5q-311 0 -427 130t-116 416v908h342v-922q0 -152 40 -203t152.5 -51t151.5 51t39 203v922h271q86 0 123.5 30.5t37.5 106.5v207zM537 -399v260h280v-260 h-280z" glyph-name="uni1EF0" horiz-adv-x="1349" unicode="Ự"/><glyph d="M1153 1470h199v-206q0 -156 -67.5 -224.5t-211.5 -81.5v-948l-287 -24l-20 129h-18q-76 -135 -295 -135q-193 0 -262.5 95t-69.5 328v723h325v-704q0 -113 31 -158t117 -45q80 0 117 44t37 159v704h243q86 0 124 31t38 107v206zM442 -399v260h281v-260h-281z" glyph-name="uni1EF1" horiz-adv-x="1206" unicode="ự"/><glyph d="M717 1604h-215l-262 407h292zM1229 1434l-447 -930v-504h-342v520l-432 914h357l237 -605h29l241 605h357z" glyph-name="Ygrave" horiz-adv-x="1234" unicode="Ỳ"/><glyph d="M637 1296h-215l-262 408h293zM721 1126h342l-299 -1163q-49 -193 -159.5 -272.5t-291.5 -79.5q-100 0 -209 24l21 224q109 -16 178 -17q94 0 138 34t65 142l6 27h-229l-271 1081h342l158 -852h43z" glyph-name="ygrave" horiz-adv-x="1071" unicode="ỳ"/><glyph d="M1229 1434l-447 -930v-504h-342v520l-432 914h357l237 -605h29l241 605h357zM477 -399v260h281v-260h-281z" glyph-name="uni1EF4" horiz-adv-x="1234" unicode="Ỵ"/><glyph d="M721 1126h342l-299 -1163q-49 -193 -159.5 -272.5t-291.5 -79.5q-100 0 -209 24l21 224q109 -16 178 -17q94 0 138 34t65 142l6 27h-229l-271 1081h342l158 -852h43zM842 -139h280v-260h-280v260z" glyph-name="uni1EF5" horiz-adv-x="1071" unicode="ỵ"/><glyph d="M594 1901q-33 0 -102 -5l-13 140q98 14 174 14q125 0 171 -37t46 -123q0 -78 -61 -129l-72 -59q-45 -37 -45 -96h-151q0 78 10 110.5t43 59.5l39 28q39 31 39 58q0 23 -16.5 31t-61.5 8zM1229 1434l-447 -930v-504h-342v520l-432 914h357l237 -605h29l241 605h357z" glyph-name="uni1EF6" horiz-adv-x="1234" unicode="Ỷ"/><glyph d="M514 1593q-33 0 -102 -4l-13 140q98 14 174 14q125 0 171.5 -37t46.5 -123q0 -78 -62 -129l-72 -59q-45 -37 -45 -97h-151q0 78 10 111t43 59l39 29q39 31 39 57q0 23 -15.5 31t-62.5 8zM721 1126h342l-299 -1163q-49 -193 -159.5 -272.5t-291.5 -79.5q-100 0 -209 24 l21 224q109 -16 178 -17q94 0 138 34t65 142l6 27h-229l-271 1081h342l158 -852h43z" glyph-name="uni1EF7" horiz-adv-x="1071" unicode="ỷ"/><glyph d="M481 1722q-61 0 -75 -108h-150q0 137 63.5 222t163.5 85q70 0 144 -49l86 -64q31 -20 55 -20q59 0 76 106h145q0 -141 -61.5 -223t-161.5 -82q-80 0 -141 49l-88 64q-29 20 -56 20zM1229 1434l-447 -930v-504h-342v520l-432 914h357l237 -605h29l241 605h357z" glyph-name="uni1EF8" horiz-adv-x="1234" unicode="Ỹ"/><glyph d="M401 1415q-61 0 -75 -108h-150q0 137 63.5 222t163.5 85q70 0 144 -49l86 -64q31 -20 55 -20q59 0 76 106h145q0 -141 -61.5 -223t-161.5 -82q-80 0 -141 49l-88 64q-29 20 -56 20zM721 1126h342l-299 -1163q-49 -193 -159.5 -272.5t-291.5 -79.5q-100 0 -209 24l21 224 q109 -16 178 -17q94 0 138 34t65 142l6 27h-229l-271 1081h342l158 -852h43z" glyph-name="uni1EF9" horiz-adv-x="1071" unicode="ỹ"/><glyph glyph-name="uni2009" horiz-adv-x="204" unicode=" "/><glyph d="M133 756h969v-242h-969v242z" glyph-name="endash" horiz-adv-x="1232" unicode="–"/><glyph d="M133 756h1548v-242h-1548v242z" glyph-name="emdash" horiz-adv-x="1812" unicode="—"/><glyph d="M186 31h1129v-209h-1129v209zM186 -268h1129v-209h-1129v209z" glyph-name="underscoredbl" horiz-adv-x="1499" unicode="‗"/><glyph d="M393 1174h150v-345h-357v345l129 395h205z" glyph-name="quoteleft" horiz-adv-x="727" unicode="‘"/><glyph d="M186 1569h357v-342l-131 -398h-205l127 398h-148v342z" glyph-name="quoteright" horiz-adv-x="727" unicode="’"/><glyph d="M186 342h357v-342l-131 -397h-205l127 397h-148v342z" glyph-name="quotesinglbase" horiz-adv-x="727" unicode="‚"/><glyph d="M465 1569l-127 -395h149v-345h-356v345l129 395h205zM825 1174h150v-345h-357v345l130 395h204z" glyph-name="quotedblleft" horiz-adv-x="1103" unicode="“"/><glyph d="M129 1227v342h356v-342l-131 -398h-204l126 398h-147zM616 1569h357v-342l-131 -398h-205l127 398h-148v342z" glyph-name="quotedblright" horiz-adv-x="1103" unicode="”"/><glyph d="M129 0v342h356v-342l-131 -397h-204l126 397h-147zM616 342h357v-342l-131 -397h-205l127 397h-148v342z" glyph-name="quotedblbase" horiz-adv-x="1103" unicode="„"/><glyph d="M1092 961v-242h-373v-1088h-289v1088h-373v242h373v520h289v-520h373z" glyph-name="dagger" horiz-adv-x="1146" unicode="†"/><glyph d="M1114 741h-375v-370h375v-240h-375v-500h-288v500h-373v240h373v370h-373v242h373v498h288v-498h375v-242z" glyph-name="daggerdbl" horiz-adv-x="1189" unicode="‡"/><glyph d="M468.5 375q-149.5 0 -253.5 105.5t-104 252.5q0 150 104 254.5t253.5 104.5t254 -104.5t104.5 -254.5q0 -147 -104.5 -252.5t-254 -105.5z" glyph-name="bullet" horiz-adv-x="935" unicode="•"/><glyph d="M186 0v342h357v-342h-357zM799 0v342h356v-342h-356zM1415 0v342h357v-342h-357z" glyph-name="ellipsis" horiz-adv-x="1955" unicode="…"/><glyph d="M299 -20l881 1474h239l-882 -1474h-238zM414 602q-176 0 -243 102.5t-67 315.5q0 242 74 334t228 92q176 0 241.5 -102.5t65.5 -315.5q0 -244 -72.5 -335t-226.5 -91zM409.5 776q47.5 0 65 48t17.5 200t-17.5 200t-66.5 48q-47 0 -63.5 -48t-16.5 -200t17 -200t64.5 -48z M1321 -12q-176 0 -242.5 102.5t-66.5 315.5q0 242 73.5 333.5t227.5 91.5q176 0 241.5 -102t65.5 -315q0 -244 -72.5 -335t-226.5 -91zM2007 -12q-176 0 -242.5 102.5t-66.5 315.5q0 242 74.5 333.5t228.5 91.5q174 0 239.5 -102t65.5 -315q0 -244 -72.5 -335t-226.5 -91z M1317 162q47 0 64.5 48t17.5 199.5t-16.5 199.5t-65.5 48q-47 0 -64.5 -48t-17.5 -199.5t17.5 -199.5t64.5 -48zM2005 162q47 0 63.5 48t16.5 199.5t-16.5 199.5t-65.5 48q-47 0 -64.5 -48t-17.5 -199.5t17.5 -199.5t66.5 -48z" glyph-name="perthousand" horiz-adv-x="2410" unicode="‰"/><glyph d="M487 1100v-252l-251 -275l251 -274v-254l-440 389v279z" glyph-name="guilsinglleft" horiz-adv-x="575" unicode="‹"/><glyph d="M86 1100l442 -387v-279l-442 -389v254l254 274l-254 275v252z" glyph-name="guilsinglright" horiz-adv-x="575" unicode="›"/><glyph d="M49 -41l596 1516h223l-596 -1516h-223z" glyph-name="fraction" horiz-adv-x="917" unicode="⁄"/><glyph d="M1057 301l49 -268q-123 -53 -307 -53q-279 0 -410 126.5t-162 382.5h-139v179h127v39q0 53 2 77h-129v179h143q39 276 174.5 383.5t385.5 107.5q170 0 292 -47l-26 -272q-92 41 -232 41q-111 0 -167 -46.5t-76 -166.5h379v-179h-396v-67v-49h332v-179h-319 q20 -131 76.5 -181t170.5 -50q144 0 232 43z" glyph-name="Euro" horiz-adv-x="1198" unicode="€"/><glyph d="M1833 612q-213 0 -295 104.5t-82 311.5q0 229 94.5 322.5t282.5 93.5q211 0 293 -104.5t82 -311.5q0 -231 -93.5 -323.5t-281.5 -92.5zM954 395v1039h310v-1434h-494l-272 1042h-25v-1042h-307v1434h496l270 -1039h22zM1833 1249q-63 0 -83.5 -44t-20.5 -177t20 -177 t84 -44q61 0 80.5 44t19.5 177t-20.5 177t-79.5 44zM1456 287v225h752v-225h-752z" glyph-name="afii61352" horiz-adv-x="2289" unicode="№"/><glyph d="M512 1434v-140h-145v-577h-183v577h-147v140h475zM1294 1434v-717h-168v510h-4l-96 -344h-162l-96 344h-4v-510h-166v717h233l111 -377h4l111 377h237z" glyph-name="trademark" horiz-adv-x="1427" unicode="™"/><glyph d="M1020 1475h223l-596 -1516h-223zM557 733v-176h-530v176h161v520l-149 -43l-31 172l180 52h220v-701h149zM1137 877h538v-191l-289 -686h-219l289 684v16h-319v177z" glyph-name="uni2150" horiz-adv-x="1699" unicode="⅐"/><glyph d="M1020 1475h223l-596 -1516h-223zM557 733v-176h-530v176h161v520l-149 -43l-31 172l180 52h220v-701h149zM1374 891q178 0 243.5 -68.5t65.5 -218.5q0 -207 -110 -397q-63 -113 -152 -207h-241q109 121 186 244q25 37 51 90h-12q-41 -14 -100 -15q-123 0 -176.5 67 t-53.5 212q0 166 73.5 229.5t225.5 63.5zM1292 588q0 -68 19.5 -91.5t66.5 -23.5q51 0 70.5 26.5t19.5 94.5q0 72 -19 96.5t-69 24.5q-53 0 -70.5 -26.5t-17.5 -100.5z" glyph-name="uni2151" horiz-adv-x="1718" unicode="⅑"/><glyph d="M1020 1475h223l-596 -1516h-223zM557 733v-176h-530v176h161v520l-149 -43l-31 172l180 52h220v-701h149zM2025 891q180 0 249 -110.5t69 -342.5q0 -256 -78 -353t-240 -97q-182 0 -250.5 109.5t-68.5 340.5q0 256 78.5 354.5t240.5 98.5zM1503 877v-701h150v-176h-531 v176h162v520l-149 -43l-31 172l180 52h219zM2025.5 158q53.5 0 72 58t18.5 222q0 166 -19.5 223.5t-71.5 57.5q-55 0 -73.5 -58.5t-18.5 -222.5q0 -166 19.5 -223t73 -57z" glyph-name="uni2152" horiz-adv-x="2392" unicode="⅒"/><glyph d="M1020 1475h223l-596 -1516h-223zM557 733v-176h-530v176h161v520l-149 -43l-31 172l180 52h220v-701h149zM1563 461q102 -39 102 -193q0 -160 -79 -220t-249 -60q-154 0 -225 32l14 179q70 -31 203 -31q61 0 86 23.5t25 80.5q0 61 -22.5 83t-78.5 22h-125v158h113 q53 0 72.5 19t19.5 69q0 57 -20.5 76.5t-77.5 19.5q-127 0 -176 -27l-15 170q63 29 203 29q170 0 241 -55.5t71 -180.5q0 -139 -82 -184v-10z" glyph-name="onethird" horiz-adv-x="1710" unicode="⅓"/><glyph d="M1049 1475h223l-596 -1516h-223zM582 733v-176h-555v156q0 80 28.5 134t110.5 130l158 143q31 29 30 70q0 47 -22.5 64.5t-81.5 17.5q-63 0 -166 -17l-14 172q123 20 209 21q160 0 231.5 -57.5t71.5 -180.5q0 -106 -95 -196l-170 -154q-57 -53 -57 -127h322zM1591 461 q102 -39 103 -193q0 -160 -79 -220t-249 -60q-154 0 -225 32l14 179q70 -31 203 -31q61 0 85.5 23.5t24.5 80.5q0 61 -22.5 83t-77.5 22h-125v158h113q53 0 72.5 19t19.5 69q0 57 -20.5 76.5t-77.5 19.5q-127 0 -176 -27l-15 170q63 29 203 29q170 0 240.5 -55.5 t70.5 -180.5q0 -139 -82 -184v-10z" glyph-name="twothirds" horiz-adv-x="1738" unicode="⅔"/><glyph d="M1020 1475h223l-596 -1516h-223zM557 733v-176h-530v176h161v520l-149 -43l-31 172l180 52h220v-701h149zM1356 549q178 0 242.5 -62.5t64.5 -205.5q0 -166 -84 -229.5t-252 -63.5q-152 0 -223 30l8 183q70 -29 205 -29q68 0 94.5 24.5t26.5 84.5q0 61 -24.5 83.5 t-84.5 22.5h-199l17 490h483v-177h-270z" glyph-name="uni2155" horiz-adv-x="1701" unicode="⅕"/><glyph d="M1049 1475h223l-596 -1516h-223zM582 733v-176h-555v156q0 80 28.5 134t110.5 130l158 143q31 29 30 70q0 47 -22.5 64.5t-81.5 17.5q-63 0 -166 -17l-14 172q123 20 209 21q160 0 231.5 -57.5t71.5 -180.5q0 -106 -95 -196l-170 -154q-57 -53 -57 -127h322zM1384 549 q178 0 243 -62.5t65 -205.5q0 -166 -84 -229.5t-252 -63.5q-152 0 -223 30l8 183q70 -29 205 -29q68 0 94 24.5t26 84.5q0 61 -24.5 83.5t-83.5 22.5h-199l17 490h483v-177h-270z" glyph-name="uni2156" horiz-adv-x="1730" unicode="⅖"/><glyph d="M1001 1475h224l-596 -1516h-223zM578 825q0 -160 -79 -220t-249 -60q-154 0 -225 33l14 178q70 -31 203 -31q61 0 85.5 23.5t24.5 80.5q0 61 -22.5 83t-77.5 22h-125v158h113q53 0 72.5 19t19.5 69q0 57 -20.5 76.5t-78.5 19.5q-127 0 -176 -27l-14 170q63 29 203 29 q170 0 240.5 -55.5t70.5 -180.5q0 -139 -82 -184v-10q103 -39 103 -193zM1337 549q178 0 243 -62.5t65 -205.5q0 -166 -84 -229.5t-252 -63.5q-152 0 -224 30l9 183q70 -29 204 -29q68 0 94.5 24.5t26.5 84.5q0 61 -24.5 83.5t-83.5 22.5h-199l16 490h484v-177h-271z" glyph-name="uni2157" horiz-adv-x="1683" unicode="⅗"/><glyph d="M1135 1475h223l-596 -1516h-223zM606 557h-194v166h-373v203l207 508h196l-194 -521v-14h164v242h194v-242h84v-176h-84v-166zM1470 549q178 0 243 -62.5t65 -205.5q0 -166 -84 -229.5t-252 -63.5q-152 0 -223 30l8 183q70 -29 205 -29q68 0 94 24.5t26 84.5 q0 61 -24.5 83.5t-83.5 22.5h-199l17 490h483v-177h-270z" glyph-name="uni2158" horiz-adv-x="1816" unicode="⅘"/><glyph d="M1020 1475h223l-596 -1516h-223zM557 733v-176h-530v176h161v520l-149 -43l-31 172l180 52h220v-701h149zM1380 559q121 0 174.5 -66.5t53.5 -211.5q0 -166 -73 -229.5t-224 -63.5q-178 0 -244 68.5t-66 217.5q0 197 109 396q63 113 152 207h243q-115 -129 -188 -244 q-31 -51 -49 -88h12q41 14 100 14zM1305 162q51 0 69.5 27.5t18.5 99.5q0 68 -19.5 92.5t-66.5 24.5q-51 0 -70.5 -27t-19.5 -94q0 -72 19.5 -97.5t68.5 -25.5z" glyph-name="uni2159" horiz-adv-x="1638" unicode="⅙"/><glyph d="M1030 1475h223l-596 -1516h-223zM612 838q0 -166 -84 -229.5t-252 -63.5q-152 0 -223 30l8 183q70 -29 205 -29q68 0 94.5 24.5t26.5 84.5q0 61 -24.5 83.5t-83.5 22.5h-199l16 490h484v-177h-271l-4 -151q178 0 242.5 -62.5t64.5 -205.5zM1391 559q121 0 174 -66.5 t53 -211.5q0 -166 -72.5 -229.5t-224.5 -63.5q-178 0 -243.5 68.5t-65.5 217.5q0 197 108 396q63 113 152 207h244q-115 -129 -189 -244q-31 -51 -49 -88h12q42 14 101 14zM1315 162q51 0 69.5 27.5t18.5 99.5q0 68 -19.5 92.5t-66.5 24.5q-51 0 -70.5 -27t-19.5 -94 q0 -72 19.5 -97.5t68.5 -25.5z" glyph-name="uni215A" horiz-adv-x="1648" unicode="⅚"/><glyph d="M1020 1475h223l-596 -1516h-223zM557 733v-176h-530v176h161v520l-149 -43l-31 172l180 52h220v-701h149zM1569 455q133 -45 133 -207q0 -147 -80 -203.5t-240 -56.5q-182 0 -251.5 64.5t-69.5 195.5q0 162 135 207v8q-111 45 -111 190q0 135 75 186.5t222 51.5 q168 0 231.5 -61.5t63.5 -182.5q0 -139 -108 -184v-8zM1382 725q-53 0 -71.5 -21.5t-18.5 -76.5q0 -57 21.5 -80t68.5 -23q49 0 68.5 23.5t19.5 79.5q0 57 -19.5 77.5t-68.5 20.5zM1382.5 160q55.5 0 76 22.5t20.5 83.5q0 63 -21.5 88t-75.5 25q-55 0 -76.5 -25.5t-21.5 -87 t21.5 -84t77 -22.5z" glyph-name="oneeighth" horiz-adv-x="1746" unicode="⅛"/><glyph d="M1001 1475h224l-596 -1516h-223zM578 825q0 -160 -79 -220t-249 -60q-154 0 -225 33l14 178q70 -31 203 -31q61 0 85.5 23.5t24.5 80.5q0 61 -22.5 83t-77.5 22h-125v158h113q53 0 72.5 19t19.5 69q0 57 -20.5 76.5t-78.5 19.5q-127 0 -176 -27l-14 170q63 29 203 29 q170 0 240.5 -55.5t70.5 -180.5q0 -139 -82 -184v-10q103 -39 103 -193zM1550 455q133 -45 133 -207q0 -147 -79.5 -203.5t-239.5 -56.5q-182 0 -252 64.5t-70 195.5q0 162 136 207v8q-111 45 -111 190q0 135 75 186.5t222 51.5q168 0 231.5 -61.5t63.5 -182.5 q0 -139 -109 -184v-8zM1364 725q-53 0 -71.5 -21.5t-18.5 -76.5q0 -57 21.5 -80t68.5 -23q49 0 68.5 23.5t19.5 79.5q0 57 -19.5 77.5t-68.5 20.5zM1364 160q55 0 75.5 22.5t20.5 83.5q0 63 -21.5 88t-74.5 25q-55 0 -76.5 -25.5t-21.5 -87t22.5 -84t75.5 -22.5z" glyph-name="threeeighths" horiz-adv-x="1728" unicode="⅜"/><glyph d="M1030 1475h223l-596 -1516h-223zM612 838q0 -166 -84 -229.5t-252 -63.5q-152 0 -223 30l8 183q70 -29 205 -29q68 0 94.5 24.5t26.5 84.5q0 61 -24.5 83.5t-83.5 22.5h-199l16 490h484v-177h-271l-4 -151q178 0 242.5 -62.5t64.5 -205.5zM1579 455q133 -45 133 -207 q0 -147 -80 -203.5t-239 -56.5q-182 0 -252 64.5t-70 195.5q0 162 135 207v8q-111 45 -110 190q0 135 74.5 186.5t222.5 51.5q168 0 231.5 -61.5t63.5 -182.5q0 -139 -109 -184v-8zM1393 725q-53 0 -71.5 -21.5t-18.5 -76.5q0 -57 21.5 -80t68.5 -23q49 0 68.5 23.5 t19.5 79.5q0 57 -19.5 77.5t-68.5 20.5zM1393 160q55 0 75.5 22.5t20.5 83.5q0 63 -21.5 88t-74.5 25q-55 0 -77 -25.5t-22 -87t23 -84t76 -22.5z" glyph-name="fiveeighths" horiz-adv-x="1757" unicode="⅝"/><glyph d="M872 1475h224l-596 -1516h-224zM557 1243l-289 -686h-219l289 684v16h-320v177h539v-191zM1421 455q133 -45 133 -207q0 -147 -79.5 -203.5t-239.5 -56.5q-182 0 -252 64.5t-70 195.5q0 162 136 207v8q-111 45 -111 190q0 135 74.5 186.5t222.5 51.5q168 0 231.5 -61.5 t63.5 -182.5q0 -139 -109 -184v-8zM1235 725q-53 0 -71.5 -21.5t-18.5 -76.5q0 -57 21.5 -80t68.5 -23q49 0 68.5 23.5t19.5 79.5q0 57 -19.5 77.5t-68.5 20.5zM1235 160q55 0 75.5 22.5t20.5 83.5q0 63 -21.5 88t-74.5 25q-55 0 -76.5 -25.5t-21.5 -87t21.5 -84t76.5 -22.5 z" glyph-name="seveneighths" horiz-adv-x="1599" unicode="⅞"/><glyph d="M1020 1475h223l-596 -1516h-223zM557 733v-176h-530v176h161v520l-149 -43l-31 172l180 52h220v-701h149z" glyph-name="uni215F" horiz-adv-x="1292" unicode="⅟"/><glyph d="M147 702h996v-253h-996v253z" glyph-name="minus" horiz-adv-x="1290" unicode="−"/><glyph d="M334 571l-184 60q0 135 83.5 231t215.5 96q84 0 178 -55l149 -88q35 -20 66 -20q86 0 114 143l183 -59q0 -137 -85 -232.5t-212 -95.5q-88 0 -178 53l-152 90q-31 18 -63 19q-88 -1 -115 -142zM334 141l-184 60q0 135 83.5 231t215.5 96q84 0 178 -55l149 -88 q35 -20 66 -20q86 0 114 143l183 -59q0 -137 -85 -232.5t-212 -95.5q-88 0 -178 53l-152 90q-31 18 -63 19q-88 -1 -115 -142z" glyph-name="approxequal" horiz-adv-x="1290" unicode="≈"/><glyph d="M1137 662h-340l-54 -162h394v-252h-478l-79 -236h-248l78 236h-256v252h340l55 162h-395v253h479l76 228h249l-75 -228h254v-253z" glyph-name="notequal" horiz-adv-x="1290" unicode="≠"/><glyph d="M1096 1044l-637 -206v-37l637 -205v-281l-901 316v377l901 317v-281zM195 -41v254h901v-254h-901z" glyph-name="lessequal" horiz-adv-x="1290" unicode="≤"/><glyph d="M195 1325l901 -317v-377l-901 -316v281l636 205v37l-636 206v281zM195 -41v254h901v-254h-901z" glyph-name="greaterequal" horiz-adv-x="1290" unicode="≥"/><glyph d="M876.5 -20q-319.5 0 -527.5 206.5t-208 530t208 530.5t527.5 207t527.5 -207t208 -530.5t-208 -530t-527.5 -206.5zM876.5 115q251.5 0 415.5 169t164 433t-164 433t-415 169q-248 0 -414 -169t-166 -433t164 -433t415.5 -169zM618 291v176h162v520l-147 -43l-31 172 l178 51h221v-700h148v-176h-531z" glyph-name="uni2460" horiz-adv-x="1751" unicode="①"/><glyph d="M876.5 -20q-319.5 0 -527.5 206.5t-208 530t208 530.5t527.5 207t527.5 -207t208 -530.5t-208 -530t-527.5 -206.5zM876.5 115q251.5 0 415.5 169t164 433t-164 433t-415 169q-248 0 -414 -169t-166 -433t164 -433t415.5 -169zM600 291v155q0 82 28.5 136.5t110.5 128.5 l156 143q33 29 33 70q0 47 -23.5 64.5t-85.5 17.5q-66 0 -164 -19l-14 174q111 18 211 19q158 0 229.5 -57.5t71.5 -178.5q0 -111 -94 -196l-170 -154q-55 -53 -55 -115v-12h319v-176h-553z" glyph-name="uni2461" horiz-adv-x="1751" unicode="②"/><glyph d="M876.5 -20q-319.5 0 -527.5 206.5t-208 530t208 530.5t527.5 207t527.5 -207t208 -530.5t-208 -530t-527.5 -206.5zM876.5 115q251.5 0 415.5 169t164 433t-164 433t-415 169q-248 0 -414 -169t-166 -433t164 -433t415.5 -169zM842 276q-150 0 -226 35l17 178 q68 -31 201 -30q61 0 85.5 23.5t24.5 80.5q0 61 -21.5 83t-76.5 22h-127v157h115q53 0 71.5 19.5t18.5 68.5q0 57 -20.5 77t-78.5 20q-123 0 -176 -27l-14 170q59 27 203 27q170 0 241.5 -54.5t71.5 -179.5q0 -137 -82 -184v-10q102 -43 102 -193q0 -162 -79.5 -222.5 t-249.5 -60.5z" glyph-name="uni2462" horiz-adv-x="1751" unicode="③"/><glyph d="M876.5 -20q-319.5 0 -527.5 206.5t-208 530t208 530.5t527.5 207t527.5 -207t208 -530.5t-208 -530t-527.5 -206.5zM876.5 115q251.5 0 415.5 169t164 433t-164 433t-415 169q-248 0 -414 -169t-166 -433t164 -433t415.5 -169zM907 295v166h-370v203l206 507h197 l-195 -516v-18h162v242h195v-242h84v-176h-84v-166h-195z" glyph-name="uni2463" horiz-adv-x="1751" unicode="④"/><glyph d="M876.5 -20q-319.5 0 -527.5 206.5t-208 530t208 530.5t527.5 207t527.5 -207t208 -530.5t-208 -530t-527.5 -206.5zM876.5 115q251.5 0 415.5 169t164 433t-164 433t-415 169q-248 0 -414 -169t-166 -433t164 -433t415.5 -169zM821 276q-145 0 -225 33l8 180 q74 -27 207 -26q68 0 93.5 24.5t25.5 83.5q0 61 -23.5 84t-83.5 23h-198l14 489h483v-176h-268l-4 -151h6q174 0 237.5 -62.5t63.5 -206.5q0 -166 -85 -230.5t-251 -64.5z" glyph-name="uni2464" horiz-adv-x="1751" unicode="⑤"/><glyph d="M876.5 -20q-319.5 0 -527.5 206.5t-208 530t208 530.5t527.5 207t527.5 -207t208 -530.5t-208 -530t-527.5 -206.5zM876.5 115q251.5 0 415.5 169t164 433t-164 433t-415 169q-248 0 -414 -169t-166 -433t164 -433t415.5 -169zM862 287q-176 0 -241.5 69.5t-65.5 216.5 q0 199 109 398q57 102 151 207h242q-104 -121 -187 -244q-31 -51 -49 -88h10q41 14 103 14q121 0 175 -67.5t54 -212.5q0 -166 -73.5 -229.5t-227.5 -63.5zM858 463q51 0 69.5 27.5t18.5 99.5q0 68 -19.5 92.5t-66.5 24.5q-53 0 -71.5 -26t-18.5 -95q0 -72 19.5 -97.5 t68.5 -25.5z" glyph-name="uni2465" horiz-adv-x="1751" unicode="⑥"/><glyph d="M876.5 -20q-319.5 0 -527.5 206.5t-208 530t208 530.5t527.5 207t527.5 -207t208 -530.5t-208 -530t-527.5 -206.5zM876.5 115q251.5 0 415.5 169t164 433t-164 433t-415 169q-248 0 -414 -169t-166 -433t164 -433t415.5 -169zM655 268l287 680v21h-317v176h538v-191 l-289 -686h-219z" glyph-name="uni2466" horiz-adv-x="1751" unicode="⑦"/><glyph d="M876.5 -20q-319.5 0 -527.5 206.5t-208 530t208 530.5t527.5 207t527.5 -207t208 -530.5t-208 -530t-527.5 -206.5zM876.5 115q251.5 0 415.5 169t164 433t-164 433t-415 169q-248 0 -414 -169t-166 -433t164 -433t415.5 -169zM877 279q-182 0 -252 64.5t-70 195.5 q0 160 135 206v9q-109 45 -108 190q0 135 73.5 186.5t221.5 51.5q168 0 231 -61.5t63 -182.5q0 -143 -108 -184v-9q133 -45 133 -206q0 -147 -79.5 -203.5t-239.5 -56.5zM877 815q51 0 69.5 22.5t18.5 80t-19.5 78t-68.5 20.5q-53 0 -72 -21.5t-19 -76.5q0 -57 22 -80 t69 -23zM877 451q57 0 76.5 22.5t19.5 83.5q0 63 -21.5 88t-74.5 25q-55 0 -77 -26t-22 -87t23 -83.5t76 -22.5z" glyph-name="uni2467" horiz-adv-x="1751" unicode="⑧"/><glyph d="M876.5 -20q-319.5 0 -527.5 206.5t-208 530t208 530.5t527.5 207t527.5 -207t208 -530.5t-208 -530t-527.5 -206.5zM876.5 115q251.5 0 415.5 169t164 433t-164 433t-415 169q-248 0 -414 -169t-166 -433t164 -433t415.5 -169zM676 283q102 117 184 243q20 31 49 88h-14 q-39 -12 -96 -12q-121 0 -174.5 66.5t-53.5 212.5q0 166 73 228t224 62q178 0 244 -67.5t66 -216.5q0 -209 -111 -398q-61 -109 -149 -206h-242zM870 754q53 0 73 26.5t20 96t-19.5 95t-71.5 25.5q-49 0 -67.5 -27.5t-18.5 -99.5q0 -68 18.5 -92t65.5 -24z" glyph-name="uni2468" horiz-adv-x="1751" unicode="⑨"/><glyph d="M876.5 -20q-319.5 0 -527.5 206.5t-208 530t208 530.5t527.5 207t527.5 -207t208 -530.5t-208 -530t-527.5 -206.5zM876.5 115q251.5 0 415.5 169t164 433t-164 433t-415 169q-248 0 -414 -169t-166 -433t164 -433t415.5 -169zM877 276q-180 0 -249 111t-69 342 q0 256 78 353.5t240 97.5q182 0 249.5 -109.5t67.5 -341.5q0 -258 -77.5 -355.5t-239.5 -97.5zM877 449q55 0 73.5 59t18.5 221q0 166 -19.5 223.5t-72.5 57.5q-55 0 -74 -58.5t-19 -222.5q0 -166 20 -223t73 -57z" glyph-name="uni24EA" horiz-adv-x="1751" unicode="⓪"/><glyph d="M876.5 -20q-319.5 0 -527.5 206.5t-208 530t208 530.5t527.5 207t527.5 -207t208 -530.5t-208 -530t-527.5 -206.5zM877 276q162 0 239.5 97.5t77.5 355.5q0 231 -67.5 341t-249.5 110q-162 0 -240 -97.5t-78 -353.5q0 -231 69 -342t249 -111zM877 449q-53 0 -73 57 t-20 223q0 164 18.5 222.5t74.5 58.5q53 0 72.5 -57.5t19.5 -223.5q0 -162 -18.5 -221t-73.5 -59z" glyph-name="uni24FF" horiz-adv-x="1751" unicode="⓿"/><glyph d="M876.5 -20q-319.5 0 -527.5 206.5t-208 530t208 530.5t527.5 207t527.5 -207t208 -530.5t-208 -530t-527.5 -206.5zM618 291h531v176h-148v700h-221l-178 -51l31 -172l147 43v-520h-162v-176z" glyph-name="uni2776" horiz-adv-x="1751" unicode="❶"/><glyph d="M876.5 -20q-319.5 0 -527.5 206.5t-208 530t208 530.5t527.5 207t527.5 -207t208 -530.5t-208 -530t-527.5 -206.5zM600 291h553v176h-319v12q4 66 55 115l170 154q94 86 94 196q0 121 -71.5 178.5t-229.5 57.5q-100 0 -211 -19l14 -174q98 18 164 19q61 0 85 -17.5 t24 -64.5q0 -41 -33 -70l-156 -143q-82 -74 -110.5 -128.5t-28.5 -136.5v-155z" glyph-name="uni2777" horiz-adv-x="1751" unicode="❷"/><glyph d="M876.5 -20q-319.5 0 -527.5 206.5t-208 530t208 530.5t527.5 207t527.5 -207t208 -530.5t-208 -530t-527.5 -206.5zM842 276q170 0 249.5 60.5t79.5 222.5q0 150 -102 193v10q82 47 82 184q0 125 -71.5 179.5t-241.5 54.5q-143 0 -203 -27l14 -170q53 27 176 27 q57 0 78 -19.5t21 -77.5q0 -49 -18.5 -68.5t-71.5 -19.5h-115v-157h127q55 0 76.5 -21.5t21.5 -83.5q0 -57 -24.5 -80.5t-85.5 -23.5q-133 0 -201 30l-17 -178q76 -35 226 -35z" glyph-name="uni2778" horiz-adv-x="1751" unicode="❸"/><glyph d="M876.5 -20q-319.5 0 -527.5 206.5t-208 530t208 530.5t527.5 207t527.5 -207t208 -530.5t-208 -530t-527.5 -206.5zM907 295h195v166h84v176h-84v242h-195v-242h-162v18l195 516h-197l-206 -507v-203h370v-166z" glyph-name="uni2779" horiz-adv-x="1751" unicode="❹"/><glyph d="M876.5 -20q-319.5 0 -527.5 206.5t-208 530t208 530.5t527.5 207t527.5 -207t208 -530.5t-208 -530t-527.5 -206.5zM821 276q166 0 251 65t85 230q0 143 -63.5 206t-237.5 63h-6l4 151h268v176h-483l-14 -489h198q59 0 83 -22.5t24 -84.5q0 -59 -25.5 -83.5t-93.5 -24.5 q-133 0 -207 26l-8 -180q80 -33 225 -33z" glyph-name="uni277A" horiz-adv-x="1751" unicode="❺"/><glyph d="M876.5 -20q-319.5 0 -527.5 206.5t-208 530t208 530.5t527.5 207t527.5 -207t208 -530.5t-208 -530t-527.5 -206.5zM862 287q154 0 227.5 63.5t73.5 229.5q0 145 -54 212.5t-175 67.5q-61 0 -103 -14h-10q18 37 49 88q82 123 187 244h-242q-94 -104 -151 -207 q-109 -199 -109 -398q0 -147 65.5 -216.5t241.5 -69.5zM858 463q-49 0 -68.5 25.5t-19.5 97.5q0 70 18.5 95.5t71.5 25.5q47 0 66.5 -25t19.5 -92q0 -72 -18.5 -99.5t-69.5 -27.5z" glyph-name="uni277B" horiz-adv-x="1751" unicode="❻"/><glyph d="M876.5 -20q-319.5 0 -527.5 206.5t-208 530t208 530.5t527.5 207t527.5 -207t208 -530.5t-208 -530t-527.5 -206.5zM655 289h219l289 686v190h-538v-176h317v-20z" glyph-name="uni277C" horiz-adv-x="1751" unicode="❼"/><glyph d="M876.5 -20q-319.5 0 -527.5 206.5t-208 530t208 530.5t527.5 207t527.5 -207t208 -530.5t-208 -530t-527.5 -206.5zM877 279q160 0 239.5 56t79.5 204q0 162 -133 206v9q109 41 108 184q0 121 -63.5 182.5t-230.5 61.5q-147 0 -221 -51.5t-74 -186.5q0 -145 108 -190v-9 q-135 -47 -135 -206q0 -131 70 -195.5t252 -64.5zM877 815q-47 0 -69 22.5t-22 80.5q0 55 18.5 76.5t72.5 21.5q49 0 68.5 -20.5t19.5 -78t-18.5 -80t-69.5 -22.5zM877 451q-53 0 -76 22.5t-23 83.5t21.5 87t77.5 26q53 0 74.5 -24.5t21.5 -88.5q0 -61 -19.5 -83.5 t-76.5 -22.5z" glyph-name="uni277D" horiz-adv-x="1751" unicode="❽"/><glyph d="M876.5 -20q-319.5 0 -527.5 206.5t-208 530t208 530.5t527.5 207t527.5 -207t208 -530.5t-208 -530t-527.5 -206.5zM676 283h242q88 98 149 206q111 188 111 398q0 150 -65.5 217t-244.5 67q-152 0 -224.5 -62t-72.5 -228q0 -145 53.5 -212t174.5 -67q57 0 96 12h14 q-29 -57 -49 -88q-82 -126 -184 -243zM870 754q-47 0 -65.5 24.5t-18.5 91.5q0 72 18.5 99.5t67.5 27.5q51 0 71 -25.5t20 -95t-20 -96t-73 -26.5z" glyph-name="uni277E" horiz-adv-x="1751" unicode="❾"/><glyph d="M725 1126h326v-1116l-285 -24l-23 129h-16q-63 -135 -246 -135q-225 0 -313 147t-88 426q0 330 102.5 462t302.5 132q162 0 224 -103h16v82zM416 561q0 -201 33.5 -271.5t125.5 -70.5q82 0 116 47t34 172v250q0 127 -34 173t-113 46q-94 0 -128 -71.5t-34 -274.5z" glyph-name="a.ss01" horiz-adv-x="1183"/><glyph d="M938 1704l-260 -408h-215l184 408h291zM725 1126h326v-1116l-285 -24l-23 129h-16q-63 -135 -246 -135q-225 0 -313 147t-88 426q0 330 102.5 462t302.5 132q162 0 224 -103h16v82zM416 561q0 -201 33.5 -271.5t125.5 -70.5q82 0 116 47t34 172v250q0 127 -34 173 t-113 46q-94 0 -128 -71.5t-34 -274.5z" glyph-name="aacute.aalt" horiz-adv-x="1183"/><glyph d="M571 1272q-199 0 -276.5 81t-77.5 238v37h199v-29q0 -70 34.5 -102.5t118.5 -32.5q78 0 116 28t38 107v29h199v-37q0 -180 -89.5 -249.5t-261.5 -69.5zM725 1126h326v-1116l-285 -24l-23 129h-16q-63 -135 -246 -135q-225 0 -313 147t-88 426q0 330 102.5 462t302.5 132 q162 0 224 -103h16v82zM416 561q0 -201 33.5 -271.5t125.5 -70.5q82 0 116 47t34 172v250q0 127 -34 173t-113 46q-94 0 -128 -71.5t-34 -274.5z" glyph-name="abreve.aalt" horiz-adv-x="1183"/><glyph d="M932 2052l-262 -407h-215l184 407h293zM571 1272q-199 0 -276.5 81t-77.5 238v37h199v-29q0 -70 34.5 -102.5t118.5 -32.5q78 0 116 28t38 107v29h199v-37q0 -180 -89.5 -249.5t-261.5 -69.5zM725 1126h326v-1116l-285 -24l-23 129h-16q-63 -135 -246 -135 q-225 0 -313 147t-88 426q0 330 102.5 462t302.5 132q162 0 224 -103h16v82zM416 561q0 -201 33.5 -271.5t125.5 -70.5q82 0 116 47t34 172v250q0 127 -34 173t-113 46q-94 0 -128 -71.5t-34 -274.5z" glyph-name="uni1EAF.aalt" horiz-adv-x="1183"/><glyph d="M571 1272q-199 0 -276.5 81t-77.5 238v37h199v-29q0 -70 34.5 -102.5t118.5 -32.5q78 0 116 28t38 107v29h199v-37q0 -180 -89.5 -249.5t-261.5 -69.5zM725 1126h326v-1116l-285 -24l-23 129h-16q-63 -135 -246 -135q-225 0 -313 147t-88 426q0 330 102.5 462t302.5 132 q162 0 224 -103h16v82zM416 561q0 -201 33.5 -271.5t125.5 -70.5q82 0 116 47t34 172v250q0 127 -34 173t-113 46q-94 0 -128 -71.5t-34 -274.5zM430 -399v260h281v-260h-281z" glyph-name="uni1EB7.aalt" horiz-adv-x="1183"/><glyph d="M684 1645h-215l-262 407h293zM416 1599q0 -70 34.5 -102.5t118.5 -32.5q78 0 116 28t38 107v29h199v-37q0 -180 -89.5 -249.5t-261.5 -69.5q-199 0 -276.5 81t-77.5 238v37h199v-29zM725 1126h326v-1116l-285 -24l-23 129h-16q-63 -135 -246 -135q-225 0 -313 147 t-88 426q0 330 102.5 462t302.5 132q162 0 224 -103h16v82zM416 561q0 -201 33.5 -271.5t125.5 -70.5q82 0 116 47t34 172v250q0 127 -34 173t-113 46q-94 0 -128 -71.5t-34 -274.5z" glyph-name="uni1EB1.aalt" horiz-adv-x="1183"/><glyph d="M537 1921q-68 0 -103 -4l-12 139q113 16 176 17q123 0 169 -38t46 -124q0 -76 -61 -127l-72 -60q-27 -23 -35 -42t-8 -56h-154q0 78 10.5 110.5t43.5 57.5l38 31q39 29 39 57q0 25 -15 32t-62 7zM571 1272q-199 0 -276.5 81t-77.5 238v37h199v-29q0 -70 34.5 -102.5 t118.5 -32.5q78 0 116 28t38 107v29h199v-37q0 -180 -89.5 -249.5t-261.5 -69.5zM725 1126h326v-1116l-285 -24l-23 129h-16q-63 -135 -246 -135q-225 0 -313 147t-88 426q0 330 102.5 462t302.5 132q162 0 224 -103h16v82zM416 561q0 -201 33.5 -271.5t125.5 -70.5 q82 0 116 47t34 172v250q0 127 -34 173t-113 46q-94 0 -128 -71.5t-34 -274.5z" glyph-name="uni1EB3.aalt" horiz-adv-x="1183"/><glyph d="M430 1823q-59 0 -78 -109h-145q0 135 61.5 220t161.5 85q78 0 143 -49l89 -61q35 -23 55 -23q61 0 76 109h147q0 -141 -62.5 -223t-162.5 -82q-80 0 -142 49l-88 63q-28 21 -55 21zM215 1628h199v-29q0 -70 34.5 -102.5t120.5 -32.5q76 0 115 29t39 106v29h197v-37 q0 -180 -89.5 -249.5t-261.5 -69.5q-199 0 -276.5 81t-77.5 238v37zM725 1126h326v-1116l-285 -24l-23 129h-16q-63 -135 -246 -135q-225 0 -313 147t-88 426q0 330 102.5 462t302.5 132q162 0 224 -103h16v82zM416 561q0 -201 33.5 -271.5t125.5 -70.5q82 0 116 47t34 172 v250q0 127 -34 173t-113 46q-94 0 -128 -71.5t-34 -274.5z" glyph-name="uni1EB5.aalt" horiz-adv-x="1183"/><glyph d="M416 1288l-264 408h225l190 -238l191 238h227l-266 -408h-303zM725 1126h326v-1116l-285 -24l-23 129h-16q-63 -135 -246 -135q-225 0 -313 147t-88 426q0 330 102.5 462t302.5 132q162 0 224 -103h16v82zM416 561q0 -201 33.5 -271.5t125.5 -70.5q82 0 116 47t34 172 v250q0 127 -34 173t-113 46q-94 0 -128 -71.5t-34 -274.5z" glyph-name="uni01CE.aalt" horiz-adv-x="1183"/><glyph d="M569 1526l-190 -238h-225l264 408h301l266 -408h-225zM725 1126h326v-1116l-285 -24l-23 129h-16q-63 -135 -246 -135q-225 0 -313 147t-88 426q0 330 102.5 462t302.5 132q162 0 224 -103h16v82zM416 561q0 -201 33.5 -271.5t125.5 -70.5q82 0 116 47t34 172v250 q0 127 -34 173t-113 46q-94 0 -128 -71.5t-34 -274.5z" glyph-name="acircumflex.aalt" horiz-adv-x="1183"/><glyph d="M1083 1944h291l-260 -408h-215zM569 1526l-190 -238h-225l264 408h301l266 -408h-225zM725 1044v82h326v-1116l-285 -24l-23 129h-16q-63 -135 -246 -135q-225 0 -313 147t-88 426q0 330 102.5 462t302.5 132q162 0 224 -103h16zM416 561q0 -201 33.5 -271.5t125.5 -70.5 q82 0 116 47t34 172v250q0 127 -34 173t-113 46q-94 0 -128 -71.5t-34 -274.5z" glyph-name="uni1EA5.aalt" horiz-adv-x="1183"/><glyph d="M569 1526l-190 -238h-225l264 408h301l266 -408h-225zM725 1126h326v-1116l-285 -24l-23 129h-16q-63 -135 -246 -135q-225 0 -313 147t-88 426q0 330 102.5 462t302.5 132q162 0 224 -103h16v82zM416 561q0 -201 33.5 -271.5t125.5 -70.5q82 0 116 47t34 172v250 q0 127 -34 173t-113 46q-94 0 -128 -71.5t-34 -274.5zM430 -399v260h281v-260h-281z" glyph-name="uni1EAD.aalt" horiz-adv-x="1183"/><glyph d="M1169 1536h-213l-260 408h291zM569 1526l-190 -238h-225l264 408h301l266 -408h-225zM725 1044v82h326v-1116l-285 -24l-23 129h-16q-63 -135 -246 -135q-225 0 -313 147t-88 426q0 330 102.5 462t302.5 132q162 0 224 -103h16zM416 561q0 -201 33.5 -271.5t125.5 -70.5 q82 0 116 47t34 172v250q0 127 -34 173t-113 46q-94 0 -128 -71.5t-34 -274.5z" glyph-name="uni1EA7.aalt" horiz-adv-x="1183"/><glyph d="M1014 1980q125 0 170 -36.5t45 -122.5q0 -78 -62 -127l-71 -62q-43 -37 -43 -96h-154q0 76 10.5 109.5t42.5 58.5l41 31q39 29 39 55q0 25 -16.5 33t-63.5 8q-29 0 -102 -4l-12 137q115 16 176 16zM569 1526l-190 -238h-225l264 408h301l266 -408h-225zM725 1044v82h326 v-1116l-285 -24l-23 129h-16q-63 -135 -246 -135q-225 0 -313 147t-88 426q0 330 102.5 462t302.5 132q162 0 224 -103h16zM416 561q0 -201 33.5 -271.5t125.5 -70.5q82 0 116 47t34 172v250q0 127 -34 173t-113 46q-94 0 -128 -71.5t-34 -274.5z" glyph-name="uni1EA9.aalt" horiz-adv-x="1183"/><glyph d="M426 1896q-63 0 -78 -108h-147q0 135 62.5 221t162.5 86q72 0 143 -51l88 -62q35 -23 56 -22q59 0 73 108h148q2 -141 -60.5 -223t-164.5 -82q-76 0 -140 47l-88 66q-28 20 -55 20zM569 1526l-190 -238h-225l264 408h301l266 -408h-225zM725 1126h326v-1116l-285 -24 l-23 129h-16q-63 -135 -246 -135q-225 0 -313 147t-88 426q0 330 102.5 462t302.5 132q162 0 224 -103h16v82zM416 561q0 -201 33.5 -271.5t125.5 -70.5q82 0 116 47t34 172v250q0 127 -34 173t-113 46q-94 0 -128 -71.5t-34 -274.5z" glyph-name="uni1EAB.aalt" horiz-adv-x="1183"/><glyph d="M449 1292h-209l-273 416h291zM872 1292h-208l-271 416h291zM725 1126h326v-1116l-285 -24l-23 129h-16q-63 -135 -246 -135q-225 0 -313 147t-88 426q0 330 102.5 462t302.5 132q162 0 224 -103h16v82zM416 561q0 -201 33.5 -271.5t125.5 -70.5q82 0 116 47t34 172v250 q0 127 -34 173t-113 46q-94 0 -128 -71.5t-34 -274.5z" glyph-name="uni0201.aalt" horiz-adv-x="1183"/><glyph d="M475 1587v-260h-278v260h278zM940 1587v-260h-278v260h278zM725 1126h326v-1116l-285 -24l-23 129h-16q-63 -135 -246 -135q-225 0 -313 147t-88 426q0 330 102.5 462t302.5 132q162 0 224 -103h16v82zM416 561q0 -201 33.5 -271.5t125.5 -70.5q82 0 116 47t34 172v250 q0 127 -34 173t-113 46q-94 0 -128 -71.5t-34 -274.5z" glyph-name="adieresis.aalt" horiz-adv-x="1183"/><glyph d="M725 1126h326v-1116l-285 -24l-23 129h-16q-63 -135 -246 -135q-225 0 -313 147t-88 426q0 330 102.5 462t302.5 132q162 0 224 -103h16v82zM416 561q0 -201 33.5 -271.5t125.5 -70.5q82 0 116 47t34 172v250q0 127 -34 173t-113 46q-94 0 -128 -71.5t-34 -274.5z M430 -399v260h281v-260h-281z" glyph-name="uni1EA1.aalt" horiz-adv-x="1183"/><glyph d="M668 1296h-215l-263 408h293zM725 1126h326v-1116l-285 -24l-23 129h-16q-63 -135 -246 -135q-225 0 -313 147t-88 426q0 330 102.5 462t302.5 132q162 0 224 -103h16v82zM416 561q0 -201 33.5 -271.5t125.5 -70.5q82 0 116 47t34 172v250q0 127 -34 173t-113 46 q-94 0 -128 -71.5t-34 -274.5z" glyph-name="agrave.aalt" horiz-adv-x="1183"/><glyph d="M545 1593q-33 0 -103 -4l-12 140q98 14 174 14q125 0 171 -37t46 -123q0 -78 -61 -129l-72 -59q-45 -37 -45 -97h-151q0 78 10 111t43 59l39 29q39 31 39 57q0 23 -16.5 31t-61.5 8zM725 1126h326v-1116l-285 -24l-23 129h-16q-63 -135 -246 -135q-225 0 -313 147 t-88 426q0 330 102.5 462t302.5 132q162 0 224 -103h16v82zM416 561q0 -201 33.5 -271.5t125.5 -70.5q82 0 116 47t34 172v250q0 127 -34 173t-113 46q-94 0 -128 -71.5t-34 -274.5z" glyph-name="uni1EA3.aalt" horiz-adv-x="1183"/><glyph d="M416 1298v-26h-199v37q0 156 78 237.5t276 81.5q172 0 261.5 -69.5t89.5 -249.5v-37h-199v26q0 80 -38 109t-116 29q-84 0 -118.5 -33t-34.5 -105zM725 1126h326v-1116l-285 -24l-23 129h-16q-63 -135 -246 -135q-225 0 -313 147t-88 426q0 330 102.5 462t302.5 132 q162 0 224 -103h16v82zM416 561q0 -201 33.5 -271.5t125.5 -70.5q82 0 116 47t34 172v250q0 127 -34 173t-113 46q-94 0 -128 -71.5t-34 -274.5z" glyph-name="uni0203.aalt" horiz-adv-x="1183"/><glyph d="M879 1559v-220h-619v220h619zM725 1126h326v-1116l-285 -24l-23 129h-16q-63 -135 -246 -135q-225 0 -313 147t-88 426q0 330 102.5 462t302.5 132q162 0 224 -103h16v82zM416 561q0 -201 33.5 -271.5t125.5 -70.5q82 0 116 47t34 172v250q0 127 -34 173t-113 46 q-94 0 -128 -71.5t-34 -274.5z" glyph-name="amacron.aalt" horiz-adv-x="1183"/><glyph d="M1100 -297l30 -170q-53 -6 -90 -6q-156 0 -248 61.5t-92 196.5q0 109 88 203l-22 -2l-23 129h-16q-63 -135 -246 -135q-225 0 -313 147t-88 426q0 330 102.5 462t302.5 132q162 0 224 -103h16v82h326v-1116l-47 -4l14 -2q-100 -78 -100 -162q0 -63 50 -101t132 -38z M416 561q0 -201 33.5 -271.5t125.5 -70.5q82 0 116 47t34 172v250q0 127 -34 173t-113 46q-94 0 -128 -71.5t-34 -274.5z" glyph-name="aogonek.aalt" horiz-adv-x="1183"/><glyph d="M569 1243q-154 0 -213 62.5t-59 185.5q0 137 69.5 191.5t202.5 54.5q152 0 211.5 -63.5t59.5 -182.5q0 -139 -69 -193.5t-202 -54.5zM569 1604q-61 0 -88.5 -25t-27.5 -88q0 -59 25.5 -88t90.5 -29q57 0 86 24.5t29 92.5q0 57 -24.5 85t-90.5 28zM725 1126h326v-1116 l-285 -24l-23 129h-16q-63 -135 -246 -135q-225 0 -313 147t-88 426q0 330 102.5 462t302.5 132q162 0 224 -103h16v82zM416 561q0 -201 33.5 -271.5t125.5 -70.5q82 0 116 47t34 172v250q0 127 -34 173t-113 46q-94 0 -128 -71.5t-34 -274.5z" glyph-name="aring.aalt" horiz-adv-x="1183"/><glyph d="M936 2214l-262 -408h-215l184 408h293zM569 1243q-154 0 -213 62.5t-59 185.5q0 137 69.5 191.5t202.5 54.5q152 0 211.5 -63.5t59.5 -182.5q0 -139 -69 -193.5t-202 -54.5zM569 1604q-61 0 -88.5 -25t-27.5 -88q0 -59 25.5 -88t90.5 -29q57 0 86 24.5t29 92.5 q0 57 -24.5 85t-90.5 28zM725 1126h326v-1116l-285 -24l-23 129h-16q-63 -135 -246 -135q-225 0 -313 147t-88 426q0 330 102.5 462t302.5 132q162 0 224 -103h16v82zM416 561q0 -201 33.5 -271.5t125.5 -70.5q82 0 116 47t34 172v250q0 127 -34 173t-113 46 q-94 0 -128 -71.5t-34 -274.5z" glyph-name="aringacute.aalt" horiz-adv-x="1183"/><glyph d="M432 1415q-61 0 -76 -108h-149q0 137 63.5 222t163.5 85q70 0 144 -49l86 -64q31 -20 55 -20q59 0 76 106h145q0 -141 -61.5 -223t-161.5 -82q-80 0 -142 49l-88 64q-28 20 -55 20zM725 1126h326v-1116l-285 -24l-23 129h-16q-63 -135 -246 -135q-225 0 -313 147t-88 426 q0 330 102.5 462t302.5 132q162 0 224 -103h16v82zM416 561q0 -201 33.5 -271.5t125.5 -70.5q82 0 116 47t34 172v250q0 127 -34 173t-113 46q-94 0 -128 -71.5t-34 -274.5z" glyph-name="atilde.aalt" horiz-adv-x="1183"/><glyph d="M770 1141l287 -25v-1061q0 -246 -119 -345t-344 -99q-201 0 -477 74l26 237q272 -63 414 -63q100 0 136 44t36 140v109h-16q-63 -82 -215 -82q-238 0 -328 123.5t-90 379.5q0 279 89 426.5t314 147.5q184 0 250 -135h15zM416 565q0 -150 34.5 -202t129.5 -52 q80 0 114.5 44t34.5 165v168q0 125 -35 172t-116 47q-94 0 -128 -70.5t-34 -271.5z" glyph-name="g.aalt" horiz-adv-x="1187"/><glyph d="M963 1704l-261 -408h-215l185 408h291zM770 1141l287 -25v-1061q0 -246 -119 -345t-344 -99q-201 0 -477 74l26 237q272 -63 414 -63q100 0 136 44t36 140v109h-16q-63 -82 -215 -82q-238 0 -328 123.5t-90 379.5q0 279 89 426.5t314 147.5q184 0 250 -135h15zM416 565 q0 -150 34.5 -202t129.5 -52q80 0 114.5 44t34.5 165v168q0 125 -35 172t-116 47q-94 0 -128 -70.5t-34 -271.5z" glyph-name="uni01F5.aalt" horiz-adv-x="1187"/><glyph d="M596 1272q-199 0 -276.5 81t-77.5 238v37h198v-29q0 -70 35 -102.5t119 -32.5q78 0 116 28t38 107v29h198v-37q0 -180 -89 -249.5t-261 -69.5zM770 1141l287 -25v-1061q0 -246 -119 -345t-344 -99q-201 0 -477 74l26 237q272 -63 414 -63q100 0 136 44t36 140v109h-16 q-63 -82 -215 -82q-238 0 -328 123.5t-90 379.5q0 279 89 426.5t314 147.5q184 0 250 -135h15zM416 565q0 -150 34.5 -202t129.5 -52q80 0 114.5 44t34.5 165v168q0 125 -35 172t-116 47q-94 0 -128 -70.5t-34 -271.5z" glyph-name="gbreve.aalt" horiz-adv-x="1187"/><glyph d="M440 1288l-264 408h225l191 -238l190 238h228l-267 -408h-303zM770 1141l287 -25v-1061q0 -246 -119 -345t-344 -99q-201 0 -477 74l26 237q272 -63 414 -63q100 0 136 44t36 140v109h-16q-63 -82 -215 -82q-238 0 -328 123.5t-90 379.5q0 279 89 426.5t314 147.5 q184 0 250 -135h15zM416 565q0 -150 34.5 -202t129.5 -52q80 0 114.5 44t34.5 165v168q0 125 -35 172t-116 47q-94 0 -128 -70.5t-34 -271.5z" glyph-name="gcaron.aalt" horiz-adv-x="1187"/><glyph d="M594 1526l-191 -238h-225l264 408h301l267 -408h-226zM770 1141l287 -25v-1061q0 -246 -119 -345t-344 -99q-201 0 -477 74l26 237q272 -63 414 -63q100 0 136 44t36 140v109h-16q-63 -82 -215 -82q-238 0 -328 123.5t-90 379.5q0 279 89 426.5t314 147.5q184 0 250 -135 h15zM416 565q0 -150 34.5 -202t129.5 -52q80 0 114.5 44t34.5 165v168q0 125 -35 172t-116 47q-94 0 -128 -70.5t-34 -271.5z" glyph-name="gcircumflex.aalt" horiz-adv-x="1187"/><glyph d="M735 1585v-258h-280v258l100 307h152l-101 -307h129zM770 1141l287 -25v-1061q0 -246 -119 -345t-344 -99q-201 0 -477 74l26 237q272 -63 414 -63q100 0 136 44t36 140v109h-16q-63 -82 -215 -82q-238 0 -328 123.5t-90 379.5q0 279 89 426.5t314 147.5q184 0 250 -135 h15zM416 565q0 -150 34.5 -202t129.5 -52q80 0 114.5 44t34.5 165v168q0 125 -35 172t-116 47q-94 0 -128 -70.5t-34 -271.5z" glyph-name="gcommaaccent.aalt" horiz-adv-x="1187"/><glyph d="M735 1587v-260h-280v260h280zM770 1141l287 -25v-1061q0 -246 -119 -345t-344 -99q-201 0 -477 74l26 237q272 -63 414 -63q100 0 136 44t36 140v109h-16q-63 -82 -215 -82q-238 0 -328 123.5t-90 379.5q0 279 89 426.5t314 147.5q184 0 250 -135h15zM416 565 q0 -150 34.5 -202t129.5 -52q80 0 114.5 44t34.5 165v168q0 125 -35 172t-116 47q-94 0 -128 -70.5t-34 -271.5z" glyph-name="gdotaccent.aalt" horiz-adv-x="1187"/><glyph d="M117 1569h352v-283h-352v283zM457 1126v-1126h-328v1126h328z" glyph-name="i.locl" horiz-adv-x="585"/><glyph d="M154 1587h280v-260h-280v260zM457 1126v-1126h-328v1126h328z" glyph-name="glyph627" horiz-adv-x="585"/><glyph d="M369 -381q-182 0 -251 109.5t-69 341.5q0 256 79 354t241 98q180 0 248.5 -110.5t68.5 -341.5q0 -256 -77.5 -353.5t-239.5 -97.5zM368.5 -211q53.5 0 72 58.5t18.5 222.5q0 166 -19.5 223t-70.5 57q-55 0 -74 -58.5t-19 -221.5q0 -166 19.5 -223.5t73 -57.5z" glyph-name="zero.sinf" horiz-adv-x="735"/><glyph d="M408 -193h149v-176h-530v176h161v521l-149 -43l-31 172l180 51h220v-701z" glyph-name="one.sinf" horiz-adv-x="579"/><glyph d="M317 -66q-57 -53 -57 -127h322v-176h-555v156q0 80 28.5 134t110.5 130l158 144q31 29 30 69q0 47 -22.5 64.5t-81.5 17.5q-63 0 -166 -16l-14 172q123 20 209 20q160 0 231.5 -57t71.5 -180q0 -106 -95 -197z" glyph-name="two.sinf" horiz-adv-x="618"/><glyph d="M475 92q102 -39 103 -192q0 -160 -79 -220.5t-249 -60.5q-154 0 -225 33l14 178q70 -31 203 -31q61 0 85.5 23.5t24.5 81.5q0 61 -22.5 82.5t-77.5 21.5h-125v158h113q53 0 72.5 19.5t19.5 68.5q0 57 -20.5 76.5t-78.5 19.5q-127 0 -176 -26l-14 170q63 29 203 28 q170 0 240.5 -55t70.5 -180q0 -139 -82 -185v-10z" glyph-name="three.sinf" horiz-adv-x="622"/><glyph d="M690 -27v-176h-84v-166h-194v166h-373v203l207 508h196l-194 -520v-15h164v242h194v-242h84z" glyph-name="four.sinf" horiz-adv-x="712"/><glyph d="M305 180q178 0 242.5 -62.5t64.5 -205.5q0 -166 -84 -229.5t-252 -63.5q-152 0 -223 31l8 182q70 -29 205 -29q68 0 94.5 25t26.5 84q0 61 -24.5 83.5t-83.5 22.5h-199l16 490h484v-176h-271z" glyph-name="five.sinf" horiz-adv-x="651"/><glyph d="M416 190q121 0 174 -66.5t53 -211.5q0 -166 -72.5 -229.5t-224.5 -63.5q-178 0 -243.5 68.5t-65.5 218.5q0 197 108 395q63 113 152 207h244q-115 -129 -189 -244q-31 -51 -49 -88h12q42 14 101 14zM340 -207q51 0 69.5 27.5t18.5 99.5q0 68 -19.5 92.5t-66.5 24.5 q-51 0 -70.5 -26.5t-19.5 -94.5q0 -72 19.5 -97.5t68.5 -25.5z" glyph-name="six.sinf" horiz-adv-x="673"/><glyph d="M18 508h539v-191l-289 -686h-219l289 684v17h-320v176z" glyph-name="seven.sinf" horiz-adv-x="581"/><glyph d="M553 86q133 -45 133 -207q0 -147 -80 -203.5t-239 -56.5q-182 0 -252 64.5t-70 195.5q0 162 135 207v8q-111 45 -110 191q0 135 74.5 186t222.5 51q168 0 231.5 -61.5t63.5 -181.5q0 -139 -109 -185v-8zM367 356q-53 0 -72 -21.5t-19 -76.5q0 -57 21.5 -79.5t69.5 -22.5 q49 0 68.5 23.5t19.5 78.5q0 57 -19.5 77.5t-68.5 20.5zM366.5 -209q55.5 0 76 22.5t20.5 84.5q0 63 -21.5 87.5t-74.5 24.5q-55 0 -77 -25.5t-22 -87t21.5 -84t77 -22.5z" glyph-name="eight.sinf" horiz-adv-x="731"/><glyph d="M328 522q178 0 243.5 -68.5t65.5 -217.5q0 -207 -111 -398q-63 -113 -151 -207h-242q109 121 186 244q25 37 52 90h-13q-41 -14 -100 -14q-123 0 -176 66.5t-53 211.5q0 166 73.5 229.5t225.5 63.5zM246 219q0 -68 19.5 -91.5t66.5 -23.5q51 0 70.5 27t19.5 94 q0 72 -19.5 96.5t-68.5 24.5q-53 0 -70.5 -26.5t-17.5 -100.5z" glyph-name="nine.sinf" horiz-adv-x="671"/><glyph d="M612 -20q-295 0 -406.5 179t-111.5 556q0 217 34 363.5t103.5 228.5t159.5 114.5t221 32.5q154 0 256.5 -47t158.5 -147.5t78.5 -229.5t22.5 -315q0 -217 -32.5 -362.5t-102 -226.5t-160 -113.5t-221.5 -32.5zM612.5 238q102.5 0 139 97t36.5 379.5t-36.5 382 t-139.5 99.5q-100 0 -139 -99.5t-39 -381.5q0 -281 38 -379t140.5 -98z" glyph-name="zero.case" horiz-adv-x="1222"/><glyph d="M647 264h254v-264h-860v264h274v901l-254 -71l-45 258l299 82h332v-1170z" glyph-name="one.case" horiz-adv-x="946"/><glyph d="M403 266v-2h558v-264h-908v242q0 133 48.5 221t183.5 207l276 243q59 51 60 129q0 84 -43 116t-152 32t-281 -29l-22 262q203 31 342 31q258 0 377 -93t119 -290q0 -100 -38 -175t-118 -144l-297 -263q-57 -47 -81 -94t-24 -129z" glyph-name="two.case" horiz-adv-x="1032"/><glyph d="M776 752q98 -39 137 -117t39 -205q0 -258 -131 -354t-407 -96q-242 0 -367 53l23 270q121 -53 348 -53q119 0 156.5 39t37.5 149q0 113 -37.5 151t-152.5 38h-203v239h187q106 0 139 30t33 126q0 109 -36 141.5t-145 32.5q-209 0 -299 -43l-22 254q102 47 334 47 q276 0 392 -90t116 -293q0 -227 -142 -305v-14z" glyph-name="three.case" horiz-adv-x="1040"/><glyph d="M1130 551v-264h-151v-287h-317v287h-596v313l364 834h311l-354 -842v-41h275v422h317v-422h151z" glyph-name="four.case" horiz-adv-x="1171"/><glyph d="M496 891q293 0 399 -101.5t106 -332.5q0 -270 -135 -373.5t-409 -103.5q-248 0 -367 51l14 272q111 -45 342 -45q133 0 174.5 39t41.5 156q0 119 -39 156.5t-166 37.5h-318l27 787h782v-265h-461l-8 -278h17z" glyph-name="five.case" horiz-adv-x="1077"/><glyph d="M680 905q201 0 290 -108.5t89 -343.5q0 -268 -119 -370.5t-367 -102.5q-289 0 -396 111.5t-107 350.5q0 324 184 641q106 186 258 351h367q-182 -199 -316 -408q-35 -53 -86 -152h8q76 31 195 31zM565.5 242q102.5 0 136 45t33.5 182q0 123 -31.5 164t-136.5 41 q-102 0 -137 -43t-35 -172q0 -131 34 -174t136.5 -43z" glyph-name="six.case" horiz-adv-x="1118"/><glyph d="M35 1434h874v-293l-493 -1141h-330l494 1135v34h-545v265z" glyph-name="seven.case" horiz-adv-x="952"/><glyph d="M918 741q217 -74 217 -335q0 -242 -131.5 -334t-391.5 -92q-297 0 -411.5 106.5t-114.5 319.5q0 264 221 337v11q-180 74 -180 313q0 221 121 304t364 83q272 0 378 -99.5t106 -297.5q0 -231 -178 -305v-11zM612 1204q-102 0 -136 -35.5t-34 -138.5q0 -111 32 -144.5 t138.5 -33.5t138 35t31.5 143q0 102 -36 138t-134 36zM612.5 240q110.5 0 148.5 39.5t38 148.5q0 121 -36 160t-151 39q-117 0 -152.5 -40t-35.5 -159q0 -113 39 -150.5t149.5 -37.5z" glyph-name="eight.case" horiz-adv-x="1220"/><glyph d="M545 1454q287 0 394.5 -112.5t107.5 -352.5q0 -334 -183 -641q-106 -184 -260 -348h-364q195 213 315 406q55 90 84 149h-14q-76 -29 -189 -29q-201 0 -290 108.5t-89 344.5q0 270 119 372.5t369 102.5zM383 965q0 -123 31.5 -164t134.5 -41q104 0 139 43t35 172 q0 131 -35 174t-137 43t-135 -45t-33 -182z" glyph-name="nine.case" horiz-adv-x="1116"/><glyph d="M612 1454q154 0 256.5 -47t158.5 -147.5t78.5 -229.5t22.5 -315q0 -217 -32.5 -362.5t-102 -226.5t-160 -113.5t-221.5 -32.5q-295 0 -406.5 179t-111.5 556q0 217 34 363.5t103.5 228.5t159.5 114.5t221 32.5zM612 1194q-100 0 -139 -98.5t-39 -380.5q0 -150 8 -232 l273 674q-35 37 -103 37zM612 238q102 0 139 97t37 380q0 68 -4 162l-252 -621q33 -18 80 -18z" glyph-name="zero.case.zero" horiz-adv-x="1222"/><glyph d="M612 -20q-295 0 -406.5 179t-111.5 556q0 217 34 363.5t103.5 228.5t159.5 114.5t221 32.5q154 0 256.5 -47t158.5 -147.5t78.5 -229.5t22.5 -315q0 -217 -32.5 -362.5t-102 -226.5t-160 -113.5t-221.5 -32.5zM612.5 238q102.5 0 139 97t36.5 379.5t-36.5 381 t-139.5 98.5q-100 0 -139 -98.5t-39 -380.5q0 -281 38 -379t140.5 -98zM522 582v268h178v-268h-178z" glyph-name="zero.case.ss03" horiz-adv-x="1222"/><glyph d="M612 -20q-295 0 -406.5 141t-111.5 442q0 172 34 287t103.5 179.5t159.5 91t221 26.5q295 0 405.5 -142.5t110.5 -441.5q0 -334 -126 -458.5t-390 -124.5zM612.5 229q102.5 0 139 68t36.5 268q0 197 -36.5 264.5t-139.5 67.5q-100 0 -139 -68.5t-39 -263.5 q0 -199 38 -267.5t140.5 -68.5z" glyph-name="zero.oldstyle" horiz-adv-x="1222"/><glyph d="M647 260h254v-260h-860v260h274v596l-254 -55l-45 262l299 63h332v-866z" glyph-name="one.oldstyle" horiz-adv-x="946"/><glyph d="M504 383q-49 -31 -71.5 -56.5t-26.5 -66.5h555v-260h-908v227q0 90 45 152.5t170 146.5l293 197q59 41 59.5 90t-42.5 66.5t-152 17.5q-117 0 -281 -20l-22 243q176 27 342 27q496 0 496 -309q0 -82 -38 -142.5t-122 -115.5z" glyph-name="two.oldstyle" horiz-adv-x="1032"/><glyph d="M776 463q98 -37 137 -113t39 -196q0 -252 -131 -346.5t-407 -94.5q-242 0 -367 54l23 268q117 -51 348 -51q119 0 156.5 35.5t37.5 142t-37.5 142.5t-152.5 36h-203v238h187q104 0 138 28.5t34 118.5q0 102 -36 133t-145 31q-209 0 -299 -43l-22 256q104 45 334 45 q276 0 392 -88t116 -285q0 -221 -142 -295v-16z" glyph-name="three.oldstyle" horiz-adv-x="1040"/><glyph d="M1130 272v-264h-151v-274h-317v274h-596v309l364 809h311l-354 -817v-37h275v408h317v-408h151z" glyph-name="four.oldstyle" horiz-adv-x="1171"/><glyph d="M496 602q293 0 399 -99.5t106 -324.5q0 -262 -135 -363.5t-409 -101.5q-246 0 -367 49l14 273q113 -43 342 -43q133 0 174.5 37t41.5 145q0 113 -39 148.5t-166 35.5h-318l27 768h782v-264h-461l-8 -260h17z" glyph-name="five.oldstyle" horiz-adv-x="1077"/><glyph d="M680 883q201 0 290 -105.5t89 -337.5q0 -262 -119 -361t-367 -99q-289 0 -396 109.5t-107 342.5q0 322 184 625q102 170 258 336h367q-190 -197 -316 -394q-55 -86 -86 -145h12q80 29 191 29zM565.5 242q102.5 0 136 42t33.5 173q0 117 -31.5 155.5t-136.5 38.5 q-102 0 -137 -41t-35 -163.5t34 -163.5t136.5 -41z" glyph-name="six.oldstyle" horiz-adv-x="1118"/><glyph d="M35 1126h874v-290l-493 -1102h-330l494 1095v33h-545v264z" glyph-name="seven.oldstyle" horiz-adv-x="952"/><glyph d="M918 719q119 -39 168 -120t49 -206q0 -236 -130.5 -324.5t-392.5 -88.5q-297 0 -411.5 103t-114.5 310q0 258 221 328v12q-180 72 -180 303q0 215 121 296t364 81q272 0 378 -97t106 -290q0 -221 -178 -293v-14zM612 1163q-100 0 -135 -34.5t-35 -129.5q0 -104 32 -137 t138.5 -33t138 34t31.5 136q0 96 -36 130t-134 34zM612.5 240q110.5 0 148.5 36.5t38 141.5q0 117 -36 152.5t-151 35.5q-117 0 -152.5 -37t-35.5 -151q0 -106 39 -142t149.5 -36z" glyph-name="eight.oldstyle" horiz-adv-x="1220"/><glyph d="M545 1147q289 0 395.5 -108.5t106.5 -344.5q0 -324 -183 -624q-104 -174 -260 -336h-364q188 197 315 393q39 61 84 143h-18q-72 -27 -185 -26q-201 0 -290 105.5t-89 336.5q0 262 119 361.5t369 99.5zM383 670q0 -117 31.5 -156t134.5 -39q104 0 139 41t35 164t-35 164 t-137 41t-135 -42t-33 -173z" glyph-name="nine.oldstyle" horiz-adv-x="1116"/><glyph d="M612 1147q295 0 405.5 -142.5t110.5 -441.5q0 -334 -125.5 -458.5t-390.5 -124.5q-295 0 -406.5 141t-111.5 442q0 172 34 287t103.5 179.5t159.5 91t221 26.5zM612 897q-100 0 -139 -68.5t-39 -263.5q0 -111 12 -182l213 510q-29 4 -47 4zM612 229q102 0 139 68t37 268 q0 119 -12 189l-217 -521q33 -4 53 -4z" glyph-name="zero.oldstyle.zero" horiz-adv-x="1222"/></font>
</defs>
</svg>
