<?xml version="1.0" standalone="no"?>
<!DOCTYPE svg PUBLIC "-//W3C//DTD SVG 1.1//EN" "http://www.w3.org/Graphics/SVG/1.1/DTD/svg11.dtd">
<svg xmlns="http://www.w3.org/2000/svg"><metadata>This SVG WebFont was generated by YouWorkForThem.
Copyright Â© 2017 by Jonathan Hill. All rights reserved.</metadata><defs><font horiz-adv-x="0" id="ywftsvg"><font-face ascent="1604" bbox="-1147 -735 3172 2527" cap-height="1434" descent="-444" font-family="" font-stretch="normal" font-weight="800" panose-1="0 0 9 0 0 0 0 0 0 0" underline-position="0" underline-thickness="0" unicode-range="U+0020-277E" units-per-em="2048" x-height="1126"/><missing-glyph d="M205 61v1229h819v-1229h-819zM348 205h533v942h-533v-942z" horiz-adv-x="1228"/><glyph d="M1503 1282q-70 0 -106.5 -35t-57.5 -121h197l-45 -245h-197l-155 -881h-383l153 881h-293l-155 -881h-383l153 881h-161l43 245h161l9 41q39 219 142 300t296 81q135 0 246 -24l-49 -250q-47 8 -91 8q-72 0 -108.5 -35t-56.5 -121h290l9 41q39 219 142 300t296 81 q133 0 243 -24l-47 -250q-39 8 -92 8z" glyph-name="f_f.liga" horiz-adv-x="1456" unicode="ff"/><glyph d="M1706 1569h389l-53 -307h-389zM2013 1126l-198 -1126h-383l155 881h-293l-155 -881h-383l153 881h-293l-155 -881h-383l153 881h-161l43 245h161l9 41q39 219 142 300t296 81q135 0 246 -24l-49 -250q-41 8 -91 8q-72 0 -108.5 -35t-56.5 -121h290l9 41q39 219 142 300 t296 81q125 0 235 -24l-47 -250q-35 8 -84 8q-70 0 -106.5 -35t-57.5 -121h674z" glyph-name="f_f_i.liga" horiz-adv-x="2015" unicode="ffi"/><glyph d="M1896 303q0 -43 46 -43q31 0 75 10l-2 -274q-88 -16 -223 -16q-156 0 -222.5 59t-66.5 172q0 45 10 111l99 559h-318l-155 -881h-383l153 881h-293l-155 -881h-383l153 881h-161l43 245h161l9 41q39 219 142 300t296 81q135 0 246 -24l-49 -250q-35 8 -91 8 q-72 0 -108.5 -35t-56.5 -121h290l9 41q39 219 142 300t296 81q133 0 243 -24l-47 -250q-35 8 -92 8q-70 0 -106.5 -35t-57.5 -121h316l71 410h383l-204 -1165q-9 -54 -9 -68z" glyph-name="f_f_l.liga" horiz-adv-x="2119" unicode="ffl"/><glyph d="M1028 1569h389l-53 -307h-389zM1337 1126l-198 -1126h-383l155 881h-295l-155 -881h-383l153 881h-161l43 245h161l9 41q39 219 142 300t296 81q127 0 237 -24l-49 -250q-33 8 -82 8q-72 0 -108.5 -35t-56.5 -121h675z" glyph-name="f_i.liga" horiz-adv-x="1333" unicode="fi"/><glyph d="M1219 303q0 -43 47 -43q29 0 75 10l-2 -272q-102 -18 -225 -18q-289 0 -289 231q0 51 13 111l98 559h-320l-155 -881h-383l153 881h-161l43 245h161l9 41q39 219 142 300t296 81q135 0 246 -24l-49 -250q-35 8 -91 8q-72 0 -108.5 -35t-56.5 -121h317l72 410h383 l-205 -1165q-10 -45 -10 -68z" glyph-name="f_l.liga" horiz-adv-x="1441" unicode="fl"/><glyph d="M205 61v1229h819v-1229h-819zM348 205h533v942h-533v-942z" glyph-name=".notdef" horiz-adv-x="1228"/><glyph glyph-name="glyph1"/><glyph glyph-name="glyph2" horiz-adv-x="681"/><glyph glyph-name="space" horiz-adv-x="550" unicode=" "/><glyph d="M178 520l113 914h442l-211 -914h-344zM53 0l62 350h409l-61 -350h-410z" glyph-name="exclam" horiz-adv-x="710" unicode="!"/><glyph d="M618 1536l-141 -567h-223l59 567h305zM1026 1536l-139 -567h-225l59 567h305z" glyph-name="quotedbl" horiz-adv-x="991" unicode="&quot;"/><glyph d="M1288 891h-186l-115 -328h187l-87 -244h-186l-113 -319h-274l113 319h-178l-113 -319h-275l113 319h-182l88 244h180l115 328h-180l88 244h178l106 299h275l-107 -299h178l107 299h274l-106 -299h188zM713 563l114 328h-178l-114 -328h178z" glyph-name="numbersign" horiz-adv-x="1308" unicode="#"/><glyph d="M791 1143q-225 0 -226 -144q0 -41 25 -69l186 -187q139 -147 139 -325q0 -170 -95 -278.5t-279 -143.5l-41 -229h-236l37 215q-156 6 -332 41l60 301q199 -33 303 -33q86 0 133 42t47 116q0 49 -37 86l-186 188q-127 133 -127 309q0 352 397 410l41 225h236l-39 -215 q78 -2 260 -33l-60 -295q-102 19 -206 19z" glyph-name="dollar" horiz-adv-x="991" unicode="$"/><glyph d="M184 -20l1147 1474h266l-1146 -1474h-267zM442 602q-154 0 -219 68.5t-65 206.5q0 106 32.5 242t85.5 214q80 113 256 113q152 0 216.5 -67.5t64.5 -204.5q0 -109 -32.5 -246t-86.5 -215q-76 -111 -252 -111zM440 786q35 0 56 29q31 41 57.5 176t26.5 207 q0 37 -11.5 50.5t-33.5 13.5q-39 0 -58 -29q-31 -43 -57.5 -176t-26.5 -205q0 -39 11 -52.5t36 -13.5zM1257 -12q-152 0 -217 68.5t-65 205.5q0 109 31.5 244t87.5 213q78 113 254 112q154 0 218 -67.5t64 -204.5q0 -109 -32.5 -246t-86.5 -215q-80 -110 -254 -110z M1255 172q37 0 58 29q29 41 55.5 177t26.5 206q0 37 -11.5 50t-33.5 13q-37 0 -56 -29q-31 -43 -57.5 -176t-26.5 -204q0 -66 45 -66z" glyph-name="percent" horiz-adv-x="1732" unicode="%"/><glyph d="M1423 838l-338 -469l295 -369h-434l-69 96q-76 -70 -165 -93t-210 -23q-264 0 -376 72.5t-112 223.5q0 74 20.5 161t57.5 138q37 53 90 87l195 122l-43 58q-88 102 -88 231q0 135 65 232q102 150 414 149q231 0 328.5 -64.5t97.5 -187.5q0 -113 -48 -208t-142 -146 l-181 -100l103 -127l186 217h354zM616 1159q-33 -41 -32 -127q0 -43 24 -71l33 -41l98 94q66 61 66 133q0 53 -84 53q-78 0 -105 -41zM639 336l35 39l-144 198l-81 -86q-27 -29 -39 -49q-27 -33 -27 -96q0 -43 26.5 -59.5t84.5 -16.5q55 0 83.5 15.5t61.5 54.5z" glyph-name="ampersand" horiz-adv-x="1497" unicode="&amp;"/><glyph d="M618 1536l-141 -567h-223l59 567h305z" glyph-name="quotesingle" horiz-adv-x="583" unicode="'"/><glyph d="M66 264q0 190 47 437t116 415q100 240 249 360.5t366 161.5l-25 -272q-209 -72 -319 -377q-51 -143 -93 -376.5t-42 -379.5q0 -143 40.5 -225t131.5 -119l-23 -256q-240 49 -344 208t-104 423z" glyph-name="parenleft" horiz-adv-x="684" unicode="("/><glyph d="M645 1008q0 -190 -47 -437t-117 -415q-100 -240 -248.5 -361t-365.5 -162l24 273q209 72 320 377q51 143 93 376.5t42 379t-41 226.5t-131 117l23 256q240 -49 344 -207.5t104 -422.5z" glyph-name="parenright" horiz-adv-x="684" unicode=")"/><glyph d="M1071 1114l-301 -61l162 -219l-232 -154l-106 256l-188 -256l-191 154l231 221l-276 59l123 248l254 -119l20 293h262l-81 -291l284 117z" glyph-name="asterisk" horiz-adv-x="1046" unicode="*"/><glyph d="M1194 721l-51 -291h-371l-65 -371h-291l65 371h-370l53 291h368l64 369h291l-64 -369h371z" glyph-name="plus" horiz-adv-x="1300" unicode="+"/><glyph d="M131 383h412l-68 -383l-217 -410h-248l213 410h-160z" glyph-name="comma" horiz-adv-x="735" unicode=","/><glyph d="M154 772h641l-50 -274h-641z" glyph-name="hyphen" horiz-adv-x="872" unicode="-"/><glyph d="M63 0l68 383h412l-68 -383h-412z" glyph-name="period" horiz-adv-x="735" unicode="."/><glyph d="M-141 -102l901 1638h264l-901 -1638h-264z" glyph-name="slash" horiz-adv-x="823" unicode="/"/><glyph d="M539 -20q-252 0 -360.5 111.5t-108.5 338.5q0 188 58 424t157 369q139 190 442 190q252 0 358.5 -111.5t106.5 -336.5q0 -184 -55.5 -417t-149.5 -366q-141 -202 -448 -202zM555 272q72 0 109 56q49 74 95 308t46 357q0 70 -22.5 98.5t-73.5 28.5q-70 0 -109 -53 q-51 -76 -97 -308.5t-46 -355.5q0 -72 23.5 -101.5t74.5 -29.5z" glyph-name="zero" horiz-adv-x="1212" unicode="0"/><glyph d="M645 305h244l-55 -305h-889l53 305h262l135 768l-243 -63v305l301 78h385z" glyph-name="one" horiz-adv-x="968" unicode="1"/><glyph d="M520 463q-96 -70 -112 -158h522l-53 -305h-936l45 272q20 121 78.5 205t205.5 195l308 227q86 61 86 139q0 41 -31 55.5t-109 14.5q-104 0 -286 -25l4 301q201 29 344 29q254 0 366.5 -81t112.5 -249q0 -117 -51 -206t-162 -170z" glyph-name="two" horiz-adv-x="1030" unicode="2"/><glyph d="M831 727q121 -55 121 -215q0 -82 -27.5 -179t-72.5 -167q-70 -104 -195 -145t-313 -41q-236 0 -391 59l61 301q123 -47 289 -47q170 0 215 65.5t45 157.5q0 43 -26.5 58.5t-98.5 15.5h-231l47 268h186q111 0 148 57q35 59 35 136q0 41 -27 55t-96 14q-145 0 -305 -51 l6 305q141 39 334 39q260 0 374.5 -72.5t114.5 -228.5q0 -170 -76 -278q-43 -61 -114 -95z" glyph-name="three" horiz-adv-x="1030" unicode="3"/><glyph d="M1149 547l-53 -305h-127l-43 -242h-367l43 242h-594l60 342l473 809h360l-465 -832l-2 -14h221l68 377h367l-68 -377h127z" glyph-name="four" horiz-adv-x="1191" unicode="4"/><glyph d="M1059 1087h-438l-46 -217q238 -4 337.5 -78.5t99.5 -238.5q0 -92 -28 -198.5t-79 -182.5q-74 -106 -202 -149t-318 -43q-248 0 -385 55l45 307q109 -39 309 -39q100 0 150.5 15.5t73.5 54.5q39 59 38 143q0 47 -31.5 62.5t-113.5 15.5h-342l170 799h813z" glyph-name="five" horiz-adv-x="1077" unicode="5"/><glyph d="M739 897q172 0 251 -78t79 -235q0 -106 -30.5 -228.5t-88.5 -203.5q-121 -172 -448 -172q-262 0 -369.5 86t-107.5 268q0 176 78.5 383t201.5 364q121 152 318 312h438q-209 -186 -377 -396q-57 -74 -84 -110h25q55 10 114 10zM639 330q23 33 39 105.5t16 121.5 q0 47 -24.5 65.5t-83.5 18.5q-92 0 -123 -39q-27 -35 -44.5 -107.5t-17.5 -123.5q0 -53 25 -71.5t86 -18.5q92 0 127 49z" glyph-name="six" horiz-adv-x="1120" unicode="6"/><glyph d="M176 1393h905l-55 -318l-657 -1075h-392l664 1081l2 6h-520z" glyph-name="seven" horiz-adv-x="972" unicode="7"/><glyph d="M938 713q172 -68 172 -262q0 -109 -45 -214.5t-133 -166.5q-127 -90 -404 -90q-270 0 -386.5 83.5t-116.5 253.5q0 102 38.5 199.5t118.5 155.5q55 39 140 57l2 12q-139 68 -140 240q0 98 40 195.5t120 154.5q119 82 371 82q248 0 358.5 -76.5t110.5 -238.5 q0 -225 -146 -328q-37 -27 -98 -47zM598 1110q-33 -25 -50.5 -80t-17.5 -104q0 -51 27 -69.5t90 -18.5q74 0 109 22q33 23 49 77t16 103q0 53 -26.5 71.5t-89.5 18.5q-74 0 -107 -20zM659 299q35 25 54.5 87.5t19.5 113.5q0 53 -28.5 72.5t-94.5 19.5q-78 0 -114.5 -24.5 t-54 -83t-17.5 -109.5q0 -57 28.5 -78t96.5 -21q81 0 110 23z" glyph-name="eight" horiz-adv-x="1196" unicode="8"/><glyph d="M666 1413q262 0 370.5 -86t108.5 -268q0 -176 -80 -384t-203 -364q-117 -150 -315 -311h-441q227 203 377 395q57 74 84 111h-24q-55 -10 -113 -10q-174 0 -252 77.5t-78 235.5q0 109 31 230.5t88 201.5q119 172 447 172zM705 791q27 35 45 107.5t18 123.5t-24.5 70.5 t-86.5 19.5q-94 0 -129 -49q-23 -33 -39 -105.5t-16 -122t24.5 -66.5t86.5 -17q90 0 121 39z" glyph-name="nine" horiz-adv-x="1120" unicode="9"/><glyph d="M193 743l67 383h412l-68 -383h-411zM63 0l68 383h412l-68 -383h-412z" glyph-name="colon" horiz-adv-x="735" unicode=":"/><glyph d="M260 1126h412l-68 -383h-411zM63 0l68 383h412l-68 -383l-217 -410h-248l213 410h-160z" glyph-name="semicolon" horiz-adv-x="735" unicode=";"/><glyph d="M1153 813l-645 -213l-8 -53l565 -213l-53 -311l-850 344l71 415l971 344z" glyph-name="less" horiz-adv-x="1300" unicode="&lt;"/><glyph d="M156 657l49 291h1026l-51 -291h-1024zM78 217l51 291h1024l-51 -291h-1024z" glyph-name="equal" horiz-adv-x="1300" unicode="="/><glyph d="M293 1126l850 -344l-70 -415l-973 -344l54 311l645 217l10 49l-569 213z" glyph-name="greater" horiz-adv-x="1300" unicode=">"/><glyph d="M201 520l10 76q18 115 54 173t124 118l115 74q76 51 76 114q0 33 -26 44t-95 11q-82 0 -266 -22l6 317q211 29 348 29q240 0 347 -75.5t107 -231.5q0 -113 -46 -190.5t-152 -153.5l-96 -66q-80 -55 -113 -93t-43 -91l-6 -33h-344zM76 0l59 350h410l-60 -350h-409z" glyph-name="question" horiz-adv-x="937" unicode="?"/><glyph d="M1057 1454q395 0 568 -163t173 -470q0 -168 -42 -362.5t-122 -306.5q-104 -152 -317 -152q-190 0 -356 139l2 82h-7q-51 -86 -174 -86q-254 0 -254 277q0 109 33 242.5t86 213.5q80 117 240 117q129 0 172 -78h8l12 78h283l-135 -776q27 -8 55 -8q72 0 115 61 q55 76 91 273.5t36 338.5q0 190 -100.5 274.5t-333.5 84.5q-369 0 -523 -219q-92 -133 -148.5 -358.5t-56.5 -403.5q0 -217 101.5 -314.5t324.5 -97.5q172 0 320 64l-6 -240q-135 -43 -309 -43q-195 0 -335.5 47t-220 136.5t-115.5 205t-36 264.5q0 211 64.5 456t177.5 409 q121 172 302 243.5t427 71.5zM815 414q0 -43 15.5 -59.5t50.5 -16.5q49 0 72.5 26.5t33.5 88.5l41 225q4 37 4 45q0 57 -65 57q-47 -2 -72 -38.5t-45 -141.5q-35 -88 -35 -186z" glyph-name="at" horiz-adv-x="1884" unicode="@"/><glyph d="M829 0l-6 317h-383l-116 -317h-412l612 1434h598l111 -1434h-404zM555 625h262l-10 503h-66z" glyph-name="A" horiz-adv-x="1341" unicode="A"/><glyph d="M1042 733q160 -61 160 -254q0 -109 -38 -208t-103 -158q-125 -113 -445 -113h-569l252 1434h522q463 0 463 -301q0 -205 -127 -316q-49 -43 -113 -65zM823 895q27 27 45.5 77t18.5 99q0 51 -33 70.5t-119 19.5h-84l-55 -313h61q119 0 166 47zM754 344q55 55 55 162 q0 63 -35 85.5t-129 22.5h-90l-57 -329h69q128 0 187 59z" glyph-name="B" horiz-adv-x="1306" unicode="B"/><glyph d="M637 -20q-285 0 -413 119.5t-128 383.5q0 256 88 501t215 349q147 121 430 121q190 0 324 -53l-63 -307q-80 37 -216 36q-156 0 -215 -71q-59 -68 -108 -243t-49 -324q0 -106 41 -147.5t143 -41.5q139 0 250 49l20 -323q-124 -49 -319 -49z" glyph-name="C" horiz-adv-x="1089" unicode="C"/><glyph d="M852 1434q240 0 354.5 -124t114.5 -384q0 -223 -73.5 -446.5t-188.5 -336.5q-145 -143 -438 -143h-574l252 1434h553zM766 371q55 70 105.5 261t50.5 324q0 94 -33 134t-109 40h-133l-145 -827h112q103 0 152 68z" glyph-name="D" horiz-adv-x="1359" unicode="D"/><glyph d="M1090 1128h-445l-41 -231h406l-54 -307h-405l-51 -285h469l-54 -305h-870l252 1434h846z" glyph-name="E" horiz-adv-x="1091" unicode="E"/><glyph d="M1063 1128h-418l-49 -272h381l-53 -307h-381l-97 -549h-401l252 1434h819z" glyph-name="F" horiz-adv-x="1026" unicode="F"/><glyph d="M762 856h498l-150 -844l-313 -26v135h-9q-119 -141 -309 -141q-387 0 -387 462q0 281 83 532t202 345q168 135 479 135q236 0 389 -51l-65 -320q-137 47 -295 47q-160 0 -234 -79q-53 -57 -105 -254t-52 -340q0 -86 28.5 -120t98.5 -34q186 0 223 191l12 71h-145z" glyph-name="G" horiz-adv-x="1304" unicode="G"/><glyph d="M1042 1434h400l-252 -1434h-399l104 590h-344l-105 -590h-401l252 1434h401l-94 -537h344z" glyph-name="H" horiz-adv-x="1431" unicode="H"/><glyph d="M700 1434l-251 -1434h-402l252 1434h401z" glyph-name="I" horiz-adv-x="688" unicode="I"/><glyph d="M172 -20q-115 0 -242 26l64 303q37 -6 67 -6q61 0 92 33t46 110l172 988h401l-194 -1106q-37 -205 -131.5 -276.5t-274.5 -71.5z" glyph-name="J" horiz-adv-x="751" unicode="J"/><glyph d="M1448 1434l-504 -693l273 -741h-447l-149 590h-68l-104 -590h-402l252 1434h401l-94 -537h64l342 537h436z" glyph-name="K" horiz-adv-x="1325" unicode="K"/><glyph d="M502 305h340l-54 -305h-741l252 1434h401z" glyph-name="L" horiz-adv-x="927" unicode="L"/><glyph d="M1733 1434l-252 -1434h-365l168 954h-10l-287 -620l-6 4v-4h-313l2 6l-11 -6l-69 620h-10l-168 -954h-365l252 1434h496l90 -707h6l336 707h506z" glyph-name="M" horiz-adv-x="1720" unicode="M"/><glyph d="M1085 1434h353l-252 -1434h-535l-63 940h-25l-166 -940h-350l252 1434h539l59 -934h25z" glyph-name="N" horiz-adv-x="1425" unicode="N"/><glyph d="M637 -20q-285 0 -412 120.5t-127 393.5q0 248 86 489.5t217 349.5q145 121 433 121q285 0 411.5 -118.5t126.5 -389.5q0 -246 -86 -489.5t-213 -354.5q-143 -122 -436 -122zM662 303q111 0 159 62q51 63 98.5 256.5t47.5 330.5q0 98 -36 138t-122 40q-109 0 -156 -57 q-53 -63 -101 -255.5t-48 -332.5q0 -100 36 -141t122 -41z" glyph-name="O" horiz-adv-x="1409" unicode="O"/><glyph d="M784 1434q256 0 373 -87t117 -278q0 -147 -60.5 -291.5t-154.5 -220.5q-127 -100 -424 -100h-107l-79 -457h-402l252 1434h485zM791 791q35 37 60.5 112.5t25.5 138.5q0 61 -35 87t-119 26h-72l-73 -420h51q109 1 162 56z" glyph-name="P" horiz-adv-x="1243" unicode="P"/><glyph d="M834 1454q285 0 411.5 -118.5t126.5 -389.5q0 -246 -86 -489.5t-213 -354.5q-109 -90 -291 -114q-6 -31 -6 -54q0 -31 16.5 -44t59.5 -13q70 0 143 27v-252q-115 -33 -247 -33q-176 0 -253 66.5t-77 191.5q0 45 10 117v6q-172 39 -251 157.5t-79 336.5q0 248 86 489.5 t217 349.5q146 121 433 121zM821 365q51 63 98.5 256.5t47.5 330.5q0 98 -36 138t-122 40q-109 0 -156 -57q-53 -63 -101 -255.5t-48 -332.5q0 -100 35.5 -141t122.5 -41q110 1 159 62z" glyph-name="Q" horiz-adv-x="1409" unicode="Q"/><glyph d="M1087 670q-39 -39 -98 -72l203 -598h-418l-129 522h-104l-92 -522h-402l252 1434h469q264 0 378 -85t114 -262q0 -125 -47.5 -236t-125.5 -181zM651 1157l-67 -385h47q115 0 164 51q31 35 50 99.5t19 117.5q2 66 -29.5 91.5t-95.5 25.5h-88z" glyph-name="R" horiz-adv-x="1302" unicode="R"/><glyph d="M346 -20q-158 0 -389 43l59 301q199 -33 303 -33q86 0 133.5 42t47.5 116q0 49 -37 86l-187 188q-127 133 -126 309q0 422 565 422q129 0 329 -35l-59 -295q-102 18 -207 19q-225 0 -225 -144q0 -41 25 -69l186 -187q139 -147 139 -325q0 -209 -143.5 -323.5 t-413.5 -114.5z" glyph-name="S" horiz-adv-x="980" unicode="S"/><glyph d="M1147 1434l-53 -306h-285l-199 -1128h-399l199 1128h-291l55 306h973z" glyph-name="T" horiz-adv-x="1013" unicode="T"/><glyph d="M606 -20q-274 0 -390 95t-116 281q0 86 21 219l151 859h400l-164 -942q-10 -51 -10 -82q0 -61 30.5 -83t94.5 -22q90 0 131 44t61 171l162 914h399l-162 -922q-53 -307 -197.5 -419.5t-410.5 -112.5z" glyph-name="U" horiz-adv-x="1339" unicode="U"/><glyph d="M1008 1434h409l-579 -1434h-596l-72 1434h403l-6 -1129h47z" glyph-name="V" horiz-adv-x="1271" unicode="V"/><glyph d="M1608 1434h409l-475 -1434h-530l47 1128h-31l-350 -1128h-531l29 1434h406l-86 -1129h34l336 1129h459l-63 -1129h34z" glyph-name="W" horiz-adv-x="1882" unicode="W"/><glyph d="M1399 1434l-451 -691l211 -743h-420l-102 457h-29l-262 -457h-436l483 760l-205 674h420l88 -447h27l246 447h430z" glyph-name="X" horiz-adv-x="1271" unicode="X"/><glyph d="M1421 1434l-612 -975l-80 -459h-399l90 512l-258 922h405l101 -594h28l312 594h413z" glyph-name="Y" horiz-adv-x="1267" unicode="Y"/><glyph d="M258 1434h881l-54 -306l-8 -47l-678 -749l-4 -27h533l-54 -305h-933l55 305l8 51l678 746l4 26h-481z" glyph-name="Z" horiz-adv-x="1044" unicode="Z"/><glyph d="M805 1356h-217l-250 -1432h215l-45 -252h-524l340 1936h524z" glyph-name="bracketleft" horiz-adv-x="681" unicode="["/><glyph d="M727 -102h-250l-323 1638h249z" glyph-name="backslash" horiz-adv-x="823" unicode="\"/><glyph d="M729 1608l-340 -1936h-524l43 252h217l250 1432h-213l43 252h524z" glyph-name="bracketright" horiz-adv-x="681" unicode="]"/><glyph d="M750 567l-86 639h-27l-311 -639h-303l499 906h338l178 -906h-288z" glyph-name="asciicircum" horiz-adv-x="1064" unicode="^"/><glyph d="M47 -90h1170l-41 -238h-1170z" glyph-name="underscore" horiz-adv-x="1492" unicode="_"/><glyph d="M428 1296l-192 408h321l100 -408h-229z" glyph-name="grave" horiz-adv-x="571" unicode="`"/><glyph d="M741 1147q315 0 316 -268q0 -59 -13 -129l-129 -734l-346 -30v129h-12q-86 -135 -274 -135q-287 0 -287 266q0 102 38 191t105 138q94 70 293 70h211l12 72q6 33 7 57q0 41 -18.5 56.5t-63.5 15.5q-84 0 -328 -58l-27 287q326 72 516 72zM369 276q0 -63 69 -63 q131 0 164 190l12 76h-88q-70 0 -100 -33q-23 -25 -40 -77t-17 -93z" glyph-name="a" horiz-adv-x="1110" unicode="a"/><glyph d="M813 1147q174 0 258 -97.5t84 -301.5q0 -184 -57.5 -374t-141.5 -282q-106 -113 -294.5 -112.5t-235.5 135.5h-20l-46 -129l-340 30l267 1520h385l-84 -473q75 84 225 84zM659 309q35 53 73 207t38 250q0 57 -19.5 78.5t-68.5 21.5q-66 0 -103.5 -40t-52.5 -128l-47 -268 q-8 -43 -8 -86q0 -45 18.5 -64.5t63.5 -19.5q73 0 106 49z" glyph-name="b" horiz-adv-x="1200" unicode="b"/><glyph d="M526 -20q-252 0 -363.5 94t-111.5 305q0 209 71 397.5t179 276.5q115 94 375 94q127 0 235 -31l-53 -264q-53 14 -115 14q-145 0 -194 -65q-41 -53 -77 -182.5t-36 -229.5q0 -76 29 -102.5t110 -26.5q100 0 175 25l-7 -283q-84 -22 -217 -22z" glyph-name="c" horiz-adv-x="884" unicode="c"/><glyph d="M874 1536h383l-268 -1520l-346 -30l2 129h-8q-80 -135 -260 -135q-332 0 -332 380q0 195 64.5 394.5t156.5 289.5q106 102 285 103q162 0 215 -86h25zM727 698q8 43 8 88q0 80 -82 80q-74 0 -110.5 -55t-71.5 -196.5t-35 -239.5q0 -63 20.5 -89t71.5 -26q66 0 101 39 t51 131z" glyph-name="d" horiz-adv-x="1200" unicode="d"/><glyph d="M645 1147q217 0 319.5 -89t102.5 -276q0 -100 -39 -280l-8 -43h-604q-4 -57 -4 -78q0 -70 27.5 -97.5t99.5 -27.5q137 0 362 55l21 -266q-238 -66 -424 -65q-446 0 -447 446q0 188 66.5 361.5t171.5 256.5q127 103 356 103zM457 674h256q12 78 12 127q0 53 -19.5 74.5 t-68.5 21.5q-82 0 -121 -63q-28 -45 -59 -160z" glyph-name="e" horiz-adv-x="1101" unicode="e"/><glyph d="M827 1282q-76 0 -111.5 -32.5t-56.5 -123.5h199l-43 -245h-199l-155 -881h-383l153 881h-161l43 245h161l9 41q39 219 142 300t296 81q135 0 246 -24l-49 -250q-34 8 -91 8z" glyph-name="f" horiz-adv-x="780" unicode="f"/><glyph d="M1206 1126l-16 -174l-160 -28q23 -45 23 -113q0 -102 -45 -200.5t-117 -149.5q-106 -82 -344 -82q-86 0 -141 8l-25 -22q-29 -27 -29 -48q0 -37 49 -36h119q506 0 506 -277q0 -201 -145.5 -297t-448.5 -96q-270 0 -398 56.5t-128 174.5q0 205 213 244l6 29 q-88 57 -88 151q0 104 131 197l12 8q-86 78 -86 219q0 121 52.5 229.5t136.5 159.5q102 68 325 68q129 0 211 -21h387zM649 643q18 27 34.5 87.5t16.5 107.5q0 43 -20.5 61.5t-71.5 18.5q-76 0 -104 -39q-20 -27 -35.5 -85.5t-15.5 -101.5q0 -45 21.5 -64.5t74.5 -19.5 q73 0 100 35zM489 61q-229 0 -229 -149q0 -45 35 -62.5t127 -17.5q246 0 246 152q0 45 -37.5 61t-141.5 16z" glyph-name="g" horiz-adv-x="1153" unicode="g"/><glyph d="M879 1147q158 0 229.5 -62.5t71.5 -199.5q0 -72 -19 -176l-125 -709h-383l125 713q8 39 8 71q0 45 -20.5 63.5t-69.5 18.5q-74 0 -114.5 -42t-57.5 -134l-123 -690h-385l271 1536h385l-86 -496h8q86 107 285 107z" glyph-name="h" horiz-adv-x="1234" unicode="h"/><glyph d="M279 1569h409l-53 -307h-412zM596 1126l-199 -1126h-383l199 1126h383z" glyph-name="i" horiz-adv-x="606" unicode="i"/><glyph d="M197 1262l53 307h409l-53 -307h-409zM-31 -389q-139 0 -250 27l48 249q31 -6 79 -6q68 0 102 40t50 140l188 1065h383l-207 -1167q-37 -207 -128 -277.5t-265 -70.5z" glyph-name="j" horiz-adv-x="583" unicode="j"/><glyph d="M1284 1126l-410 -505l216 -621h-420l-115 498h-66l-88 -498h-385l271 1536h385l-140 -795h72l254 385h426z" glyph-name="k" horiz-adv-x="1196" unicode="k"/><glyph d="M346 -20q-152 0 -221.5 56t-69.5 175q0 39 11 111l215 1214h383l-207 -1165q-8 -57 -8 -68q0 -43 49 -43q27 0 71 10l-2 -272q-96 -18 -221 -18z" glyph-name="l" horiz-adv-x="671" unicode="l"/><glyph d="M1464 1147q154 0 221.5 -63.5t67.5 -196.5q0 -76 -18 -178l-125 -709h-383l125 713q10 51 10 80q0 41 -17.5 57t-58.5 16q-129 0 -160 -172l-122 -694h-383l127 713q10 55 10 82q0 41 -17.5 56t-60.5 15q-63 0 -102 -40t-56 -134l-121 -692h-385l197 1110l348 31l-2 -131 h8q88 137 295 137q225 0 271 -146h18q94 146 313 146z" glyph-name="m" horiz-adv-x="1810" unicode="m"/><glyph d="M870 1147q160 0 234 -65.5t74 -204.5q0 -68 -19 -172l-123 -705h-383l125 713q8 43 8 73q0 45 -20.5 62.5t-73.5 17.5q-141 0 -170 -168l-123 -698h-383l197 1110l346 31l-2 -129h12q47 72 117.5 103.5t183.5 31.5z" glyph-name="n" horiz-adv-x="1234" unicode="n"/><glyph d="M522 -20q-242 0 -358.5 98t-116.5 303q0 207 71.5 395.5t182.5 274.5q127 96 358 96q244 0 360 -100.5t116 -315.5q0 -184 -64.5 -365.5t-163.5 -269.5q-133 -116 -385 -116zM537 260q86 0 122 78q31 59 58.5 187t27.5 218q0 70 -22.5 96.5t-77.5 26.5q-76 0 -108 -55 q-35 -55 -67 -197.5t-32 -236.5q0 -63 22 -90t77 -27z" glyph-name="o" horiz-adv-x="1179" unicode="o"/><glyph d="M825 1147q178 0 256 -94.5t78 -274.5q0 -166 -52 -364.5t-144 -304.5q-111 -129 -312 -129q-152 0 -211 79h-28l-76 -428h-385l262 1479l346 31v-119h16q76 125 250 125zM678 336q31 66 59.5 208t28.5 220q0 57 -19.5 79.5t-66.5 22.5q-68 0 -105.5 -46t-58.5 -154 l-39 -230q-8 -53 -8 -78q0 -98 88 -98t121 76z" glyph-name="p" horiz-adv-x="1200" unicode="p"/><glyph d="M842 1141l340 -31l-260 -1479h-383l73 428h-4q-72 -80 -219 -79q-162 0 -251 88t-89 297q0 162 47 354t133 295q106 133 312 133q184 0 231 -123h31zM725 702q8 53 8 80q0 47 -20.5 65.5t-63.5 18.5q-86 0 -123 -73q-33 -63 -62.5 -207t-29.5 -224q0 -59 21.5 -80.5 t70.5 -21.5q63 0 99.5 39t56.5 152z" glyph-name="q" horiz-adv-x="1200" unicode="q"/><glyph d="M872 1147q25 0 54 -6l-70 -328q-39 20 -123 21q-98 0 -150.5 -51.5t-76.5 -180.5l-105 -602h-385l197 1110l350 31l-4 -154h14q92 160 299 160z" glyph-name="r" horiz-adv-x="837" unicode="r"/><glyph d="M328 -20q-160 0 -359 36l51 267q123 -23 224 -23q88 0 114 25q29 27 29 77q0 45 -37 72l-162 121q-88 66 -88 205q0 215 129 315q94 72 299 72q131 0 365 -39l-51 -268q-139 27 -215 26q-66 0 -90 -24q-31 -25 -31 -76q0 -31 31 -51l137 -109q66 -49 96.5 -103t30.5 -134 q0 -190 -117 -293q-104 -96 -356 -96z" glyph-name="s" horiz-adv-x="876" unicode="s"/><glyph d="M602 881l-90 -514q-8 -49 -8 -68q0 -39 43 -39q37 0 74 10l-5 -276q-84 -14 -217 -14q-154 0 -220 59t-66 172q0 45 10 111l98 559h-149l43 245h149l47 273h383l-47 -273h178l-43 -245h-180z" glyph-name="t" horiz-adv-x="780" unicode="t"/><glyph d="M817 1126h383l-196 -1110l-349 -30l2 129h-12q-86 -135 -293 -135q-158 0 -225.5 63t-67.5 199q0 76 19 176l125 708h385l-125 -712q-8 -35 -8 -70q0 -47 19.5 -65.5t62.5 -18.5q68 0 105.5 38t51.5 124z" glyph-name="u" horiz-adv-x="1214" unicode="u"/><glyph d="M793 1126h403l-446 -1126h-590l-54 1126h398l-31 -860h45z" glyph-name="v" horiz-adv-x="1097" unicode="v"/><glyph d="M1530 1126h405l-409 -1126h-551l16 860h-30l-289 -860h-549l-12 1126h399l-61 -860h36l285 860h496l-17 -860h39z" glyph-name="w" horiz-adv-x="1839" unicode="w"/><glyph d="M1235 1126l-389 -553l198 -573h-397l-92 340h-35l-211 -340h-411l411 590l-188 536h397l84 -305h29l190 305h414z" glyph-name="x" horiz-adv-x="1144" unicode="x"/><glyph d="M791 1126h405l-481 -1159q-84 -205 -208 -280.5t-306 -75.5q-111 0 -250 33l47 252q111 -16 197 -17q98 0 152 38t89 138l4 11h-268l-63 1060h397l-23 -796h43z" glyph-name="y" horiz-adv-x="1097" unicode="y"/><glyph d="M168 1126h778l-47 -262l-6 -47l-524 -528l-4 -27h452l-45 -262h-838l48 262l8 47l528 539l2 16h-399z" glyph-name="z" horiz-adv-x="911" unicode="z"/><glyph d="M657 1608q125 0 207 -29l-43 -238q-39 12 -90 13q-57 0 -88 -35t-45 -119l-57 -323q-18 -102 -55 -153.5t-109 -72.5l-4 -20q90 -47 90 -162q0 -37 -10 -94l-58 -326q-10 -55 -10 -76q0 -27 11.5 -37t39.5 -10q53 0 119 23l-2 -256q-66 -20 -195 -21q-141 0 -213.5 53.5 t-72.5 180.5q0 41 10 108l68 373q8 61 8 80q0 45 -24.5 59.5t-84.5 14.5l35 198q70 0 105.5 40t54.5 143l65 372q33 186 112.5 250t235.5 64z" glyph-name="braceleft" horiz-adv-x="712" unicode="{"/><glyph d="M621 1653l-361 -2042h-254l361 2042h254z" glyph-name="bar" horiz-adv-x="600" unicode="|"/><glyph d="M582 813q0 -45 24.5 -59.5t83.5 -14.5l-35 -200q-72 0 -106.5 -40t-52.5 -143l-66 -372q-33 -184 -113.5 -248t-234.5 -64q-119 0 -207 27l43 240q33 -12 90.5 -12.5t87 33.5t45.5 118l58 325q16 100 54 152.5t109 73.5l5 20q-90 43 -91 160q0 37 11 94l57 326q8 66 8 76 q0 29 -11 39t-38 10q-53 0 -119 -23l2 256q74 20 193 21q141 0 214 -54.5t73 -179.5q0 -57 -9 -108l-67 -373q-8 -62 -8 -80z" glyph-name="braceright" horiz-adv-x="712" unicode="}"/><glyph d="M319 432l-196 70q27 152 132 250t245 98q94 0 176 -55l139 -95q27 -16 57 -16q82 0 132 133l196 -69q-27 -154 -134.5 -251.5t-242.5 -97.5q-98 0 -176 56l-139 92q-31 18 -59 18q-81 0 -130 -133z" glyph-name="asciitilde" horiz-adv-x="1300" unicode="~"/><glyph glyph-name="uni00A0" horiz-adv-x="550" unicode=" "/><glyph d="M242 1065h409l-63 -350h-410zM180 545h344l-110 -914h-443z" glyph-name="exclamdown" horiz-adv-x="710" unicode="¡"/><glyph d="M737 866q-145 0 -194 -65q-41 -53 -77 -182.5t-36 -229.5q0 -76 28.5 -102.5t110.5 -26.5q100 0 174 25l-6 -283q-74 -18 -188 -22l-33 -197h-223l37 213q-147 33 -216 125t-69 258q0 209 70.5 397.5t179.5 276.5q82 68 237 86l37 204h224l-37 -200q82 -6 149 -27 l-53 -264q-54 14 -115 14z" glyph-name="cent" horiz-adv-x="864" unicode="¢"/><glyph d="M913 1130q-96 0 -143 -53t-70 -192q0 -2 -1 -5t-1 -6h303l-45 -251h-307q-53 -211 -141 -310l-2 -8h547l-56 -305h-1022l56 305q150 59 227 318h-162l43 251h170q23 147 27 166q41 233 157.5 323.5t331.5 90.5q152 0 357 -35l-68 -313q-125 24 -201 24z" glyph-name="sterling" horiz-adv-x="1165" unicode="£"/><glyph d="M1421 1434l-567 -732h295l-35 -192h-295l-18 -104h297l-35 -191h-297l-37 -215h-385l37 215h-295l33 191h297l18 104h-297l35 192h295l4 25l-287 707h398l123 -443h28l277 443h411z" glyph-name="yen" horiz-adv-x="1286" unicode="¥"/><glyph d="M221 823l146 830h254l-146 -830h-254zM6 -389l148 829h254l-148 -829h-254z" glyph-name="brokenbar" horiz-adv-x="600" unicode="¦"/><glyph d="M815 1178q-160 0 -197 -54q-27 -41 -26 -86q0 -31 37 -59l207 -145q147 -100 147 -265q0 -158 -76 -264q-43 -57 -106 -94q31 -59 30 -137q0 -164 -83 -287q-125 -176 -451 -176q-170 0 -385 35l47 272q199 -29 289 -29q147 0 194 70q29 43 29 100q0 37 -41 64l-225 158 q-125 86 -125 241q0 158 70 254q37 57 116 94q-33 59 -33 142q0 172 78 282q113 160 443 160q150 0 331 -27l-47 -266q-114 17 -223 17zM645 528q0 39 -49 74l-119 84q-10 -6 -16 -16q-39 -51 -39 -105q0 -37 33 -61l141 -101q4 2 8 11q41 53 41 114z" glyph-name="section" horiz-adv-x="1058" unicode="§"/><glyph d="M299 1595h303l-49 -272h-303zM774 1595h303l-49 -272h-303z" glyph-name="dieresis" horiz-adv-x="1007" unicode="¨"/><glyph d="M764 -20q-295 0 -473 184t-178 473q0 338 232.5 577.5t576.5 239.5q295 0 473 -184.5t178 -472.5q0 -338 -233.5 -577.5t-575.5 -239.5zM784 147q264 0 436.5 187.5t172.5 447.5q0 225 -136.5 364.5t-357.5 139.5q-262 0 -434 -187.5t-172 -447.5q0 -227 135 -365.5 t356 -138.5zM840 328q-156 0 -223.5 66.5t-67.5 197.5q0 96 28.5 214t75.5 187q78 113 269 113q106 0 182 -31l-25 -162q-61 18 -137 19q-72 0 -102 -45q-31 -43 -52.5 -136.5t-21.5 -154.5q0 -53 22.5 -73.5t75.5 -20.5q63 0 125 30l21 -180q-72 -24 -170 -24z" glyph-name="copyright" horiz-adv-x="1632" unicode="©"/><glyph d="M627 1444q225 0 225 -195q0 -45 -8 -86l-88 -501l-242 -21v78h-8q-53 -82 -174 -82q-113 0 -162 52t-49 155q0 254 297 254h147l8 51q4 29 5 37q0 27 -13.5 37t-46.5 10q-68 0 -221 -41l-23 203q218 49 353 49zM379 850q0 -51 49 -51q84 0 107 114l10 66h-72 q-47 0 -70.5 -42t-23.5 -87z" glyph-name="ordfeminine" horiz-adv-x="858" unicode="ª"/><glyph d="M541 844l-295 -275l192 -266l-41 -270l-383 381l21 135l28 184l519 381zM1098 1114l-39 -270l-297 -275l192 -266l-41 -270l-383 381l23 147l27 172z" glyph-name="guillemotleft" horiz-adv-x="1073" unicode="«"/><glyph d="M670 1444q197 0 315.5 -126t118.5 -317q0 -225 -156.5 -390t-386.5 -165q-197 0 -315.5 126t-118.5 319q0 225 158 389t385 164zM578 559q176 0 290.5 128t114.5 302q0 154 -90 249t-238 95q-174 0 -289.5 -129t-115.5 -303q0 -154 90.5 -248t237.5 -94zM764 940 q-18 -25 -49 -37l69 -203h-147l-43 183h-37l-33 -183h-145l90 502h156q98 0 140 -31.5t42 -99.5q0 -80 -43 -131zM598 1106l-25 -133h21q45 0 59 31q16 27 17 67q0 35 -58 35h-14z" glyph-name="registered" horiz-adv-x="1095" unicode="®"/><glyph d="M295 1575h620l-47 -254h-618z" glyph-name="macron" horiz-adv-x="849" unicode="¯"/><glyph d="M535 854q-147 0 -236.5 90t-89.5 227q0 166 118.5 279t286.5 113q147 0 237.5 -91.5t90.5 -228.5q0 -164 -119.5 -276.5t-287.5 -112.5zM559 1053q72 0 120 51t48 121q0 61 -37 100t-98 39q-70 0 -119 -51t-49 -121q0 -61 37 -100t98 -39z" glyph-name="degree" horiz-adv-x="925" unicode="°"/><glyph d="M858 913h371l-51 -290h-373l-53 -306h-289l53 306h-371l52 290h372l54 304h288zM20 -84l52 291h1034l-51 -291h-1035z" glyph-name="plusminus" horiz-adv-x="1300" unicode="±"/><glyph d="M408 930q-53 -41 -70 -88h324l-35 -197h-592l33 174q14 80 51 134.5t125 121.5l188 142q59 45 60 88q0 41 -80 41q-59 0 -185 -19l-6 197q129 18 223 18q303 0 304 -205q0 -150 -130 -247z" glyph-name="uni00B2" horiz-adv-x="651" unicode="²"/><glyph d="M610 1100q72 -41 72 -142q0 -127 -64 -221q-76 -111 -317 -110q-156 0 -246 43l33 188q63 -31 209 -31q84 0 104 35q29 39 29 101q0 31 -21.5 41t-68.5 10h-129l31 176h116q66 0 91 33q25 35 24 84q0 25 -16.5 35t-55.5 10q-127 0 -192 -37l-4 201q57 25 227 24 q295 0 295 -199q0 -111 -47 -176q-18 -31 -68 -57z" glyph-name="uni00B3" horiz-adv-x="659" unicode="³"/><glyph d="M162 1296l244 408h333l-333 -408h-244z" glyph-name="acute" horiz-adv-x="571" unicode="´"/><glyph d="M1401 1434l-318 -1803h-256l277 1571h-129l-277 -1571h-256l144 815q-236 2 -352.5 95.5t-116.5 296.5q0 113 29.5 236.5t84.5 195.5q68 84 189 124t325 40h656z" glyph-name="paragraph" horiz-adv-x="1421" unicode="¶"/><glyph d="M117 424l65 383h412l-66 -383h-411z" glyph-name="periodcentered" horiz-adv-x="690" unicode="·"/><glyph d="M193 -92q178 -20 178 -168q0 -119 -70 -182q-72 -66 -197 -66q-109 0 -221 43l15 125q43 -18 96 -18q66 0 98 26q29 29 29 72q0 37 -62 37h-100l109 295h202z" glyph-name="cedilla" horiz-adv-x="561" unicode="¸"/><glyph d="M502 842h147l-33 -197h-563l33 197h166l84 489l-150 -39v195l187 49h250z" glyph-name="uni00B9" horiz-adv-x="612" unicode="¹"/><glyph d="M557 637q-180 0 -257 73.5t-77 217.5q0 96 28 206.5t79 180.5q92 129 309 129q180 0 257 -75t77 -216q0 -94 -27.5 -203.5t-75.5 -179.5q-98 -133 -313 -133zM557 831q53 0 76 35q27 39 48 144.5t21 167.5q0 39 -14 54t-47 15q-51 0 -76 -33q-27 -39 -49 -145t-22 -168 q0 -39 14 -54.5t49 -15.5z" glyph-name="ordmasculine" horiz-adv-x="1026" unicode="º"/><glyph d="M520 557l-20 -143l-520 -381l38 270l297 275l-192 266l39 270l387 -381zM678 1114l387 -381l-27 -172l-22 -147l-520 -381l39 270l296 275l-192 266z" glyph-name="guillemotright" horiz-adv-x="1073" unicode="»"/><glyph d="M1198 1475h252l-864 -1516h-250zM586 557h-559l34 197h162l84 479l-147 -41v190l182 52h250l-119 -680h148zM1677 350l-35 -194h-77l-29 -156h-215l29 156h-379l41 221l286 500h224l-279 -525v-2h141l41 232h215l-41 -232h78z" glyph-name="onequarter" horiz-adv-x="1732" unicode="¼"/><glyph d="M1198 1475h252l-864 -1516h-250zM586 557h-559l34 197h162l84 479l-147 -41v190l182 52h250l-119 -680h148zM1409 315q-76 -57 -92 -118h303l-35 -197h-567l31 176q18 90 51 144.5t123 123.5l180 140q45 37 45 69q0 37 -72 37q-68 0 -159 -20l-7 202q119 18 207 19 q285 0 285 -215q0 -137 -121 -227z" glyph-name="onehalf" horiz-adv-x="1716" unicode="½"/><glyph d="M1163 1475h252l-864 -1516h-250zM580 651q-74 -106 -295 -106q-160 0 -248 39l31 188q68 -27 176 -27q92 0 123 43q23 29 22 80q0 33 -17.5 44.5t-58.5 11.5h-118l32 178h97q61 0 84 35q23 29 22 71q0 47 -70 47q-86 0 -176 -32v202q72 23 213 23q289 0 289 -201 q0 -106 -47 -172q-29 -41 -74 -57l-2 -8q78 -43 78 -146q0 -123 -61 -213zM1642 350l-34 -194h-78l-29 -156h-215l29 156h-379l41 221l287 500h223l-279 -525v-2h142l41 232h215l-41 -232h77z" glyph-name="threequarters" horiz-adv-x="1697" unicode="¾"/><glyph d="M385 717l61 348h410l-61 -348h-410zM731 545l-10 -76q-16 -113 -53 -172t-125 -119l-115 -74q-78 -51 -78 -114q0 -33 25.5 -44.5t97.5 -11.5q82 0 266 23l-6 -317q-213 -29 -348 -29q-240 0 -347.5 75.5t-107.5 231.5q0 113 46.5 190.5t152.5 153.5l96 66q78 57 111 94 t43 90l8 33h344z" glyph-name="questiondown" horiz-adv-x="937" unicode="¿"/><glyph d="M958 1604h-229l-192 407h321zM829 0l-6 317h-383l-116 -317h-412l612 1434h598l111 -1434h-404zM555 625h262l-10 503h-66z" glyph-name="Agrave" horiz-adv-x="1341" unicode="À"/><glyph d="M1313 2011l-334 -407h-244l244 407h334zM1122 1434l111 -1434h-404l-6 317h-383l-116 -317h-412l612 1434h598zM555 625h262l-10 503h-66z" glyph-name="Aacute" horiz-adv-x="1341" unicode="Á"/><glyph d="M897 1821l-225 -226h-258l336 408h342l194 -408h-244zM1122 1434l111 -1434h-404l-6 317h-383l-116 -317h-412l612 1434h598zM555 625h262l-10 503h-66z" glyph-name="Acircumflex" horiz-adv-x="1341" unicode="Â"/><glyph d="M735 1708q-63 0 -94 -100h-158q25 141 106 229t187 88q76 0 144 -51l67 -53q27 -23 55 -23q53 0 88 103h158q-25 -154 -103.5 -236t-189.5 -82q-84 0 -139 49l-68 58q-20 18 -53 18zM1122 1434l111 -1434h-404l-6 317h-383l-116 -317h-412l612 1434h598zM555 625h262 l-10 503h-66z" glyph-name="Atilde" horiz-adv-x="1341" unicode="Ã"/><glyph d="M821 1903l-49 -273h-303l49 273h303zM993 1903h303l-49 -273h-303zM1122 1434l111 -1434h-404l-6 317h-383l-116 -317h-412l612 1434h598zM555 625h262l-10 503h-66z" glyph-name="Adieresis" horiz-adv-x="1341" unicode="Ä"/><glyph d="M868 1544q-143 0 -200.5 52.5t-57.5 154.5q0 129 54 201q72 98 247 98q141 0 198.5 -52t57.5 -155q0 -125 -53 -203q-68 -96 -246 -96zM799 1870q-25 -39 -25 -96q0 -47 23.5 -69t81.5 -22q72 0 98 41q27 37 27 99q0 45 -23 65.5t-80 20.5q-71 0 -102 -39zM829 0l-6 317 h-383l-116 -317h-412l612 1434h598l111 -1434h-404zM555 625h262l-10 503h-66z" glyph-name="Aring" horiz-adv-x="1341" unicode="Å"/><glyph d="M1833 1128h-442l-41 -231h405l-53 -307h-406l-51 -285h469l-53 -305h-868l55 317h-350l-179 -317h-415l862 1434h1122zM903 625l88 503h-39l-282 -503h233z" glyph-name="AE" horiz-adv-x="1837" unicode="Æ"/><glyph d="M874 1130q-156 0 -215 -71q-59 -68 -108 -243t-49 -324q0 -106 41 -147.5t143 -41.5q139 0 250 49l20 -323q-125 -49 -319 -49h-10l-35 -72q178 -20 178 -168q0 -119 -70 -182q-72 -66 -196 -66q-109 0 -221 43l14 125q43 -18 96 -18q66 0 99 26q29 29 28 72q0 37 -61 37 h-101l82 221q-178 37 -261 154.5t-83 330.5q0 256 88 501t215 349q147 121 430 121q190 0 324 -53l-63 -307q-81 36 -216 36z" glyph-name="Ccedilla" horiz-adv-x="1089" unicode="Ç"/><glyph d="M854 1604h-229l-193 407h322zM1090 1128h-445l-41 -231h406l-54 -307h-405l-51 -285h469l-54 -305h-870l252 1434h846z" glyph-name="Egrave" horiz-adv-x="1091" unicode="È"/><glyph d="M1208 2011l-334 -407h-243l243 407h334zM1143 1434l-53 -306h-445l-41 -231h406l-54 -307h-405l-51 -285h469l-54 -305h-870l252 1434h846z" glyph-name="Eacute" horiz-adv-x="1091" unicode="É"/><glyph d="M793 1821l-226 -226h-258l336 408h342l195 -408h-244zM1143 1434l-53 -306h-445l-41 -231h406l-54 -307h-405l-51 -285h469l-54 -305h-870l252 1434h846z" glyph-name="Ecircumflex" horiz-adv-x="1091" unicode="Ê"/><glyph d="M717 1903l-49 -273h-303l49 273h303zM889 1903h303l-49 -273h-303zM1143 1434l-53 -306h-445l-41 -231h406l-54 -307h-405l-51 -285h469l-54 -305h-870l252 1434h846z" glyph-name="Edieresis" horiz-adv-x="1091" unicode="Ë"/><glyph d="M406 1604l-193 407h322l100 -407h-229zM700 1434l-251 -1434h-402l252 1434h401z" glyph-name="Igrave" horiz-adv-x="688" unicode="Ì"/><glyph d="M412 1604l243 407h334l-334 -407h-243zM700 1434l-251 -1434h-402l252 1434h401z" glyph-name="Iacute" horiz-adv-x="688" unicode="Í"/><glyph d="M768 2003l195 -408h-244l-146 226l-225 -226h-258l336 408h342zM47 0l252 1434h401l-251 -1434h-402z" glyph-name="Icircumflex" horiz-adv-x="688" unicode="Î"/><glyph d="M195 1903h303l-49 -273h-304zM670 1903h303l-49 -273h-303zM700 1434l-251 -1434h-402l252 1434h401z" glyph-name="Idieresis" horiz-adv-x="688" unicode="Ï"/><glyph d="M852 1434q240 0 354.5 -124t114.5 -384q0 -223 -73.5 -446.5t-188.5 -336.5q-145 -143 -438 -143h-574l103 588h-168l45 258h170l102 588h553zM766 371q55 70 105.5 261t50.5 324q0 94 -33 134t-109 40h-133l-49 -284h190l-45 -258h-192l-49 -285h112q103 0 152 68z" glyph-name="Eth" horiz-adv-x="1359" unicode="Ð"/><glyph d="M780 1708q-63 0 -94 -100h-158q25 141 106 229t187 88q76 0 144 -51l67 -53q27 -23 55 -23q53 0 89 103h157q-25 -154 -103.5 -236t-189.5 -82q-84 0 -139 49l-67 58q-21 18 -54 18zM1085 1434h353l-252 -1434h-535l-63 940h-25l-166 -940h-350l252 1434h539l59 -934h25z " glyph-name="Ntilde" horiz-adv-x="1425" unicode="Ñ"/><glyph d="M766 1604l-193 407h322l100 -407h-229zM637 -20q-285 0 -412 120.5t-127 393.5q0 248 86 489.5t217 349.5q145 121 433 121q285 0 411.5 -118.5t126.5 -389.5q0 -246 -86 -489.5t-213 -354.5q-143 -122 -436 -122zM662 303q111 0 159 62q51 63 98.5 256.5t47.5 330.5 q0 98 -36 138t-122 40q-109 0 -156 -57q-53 -63 -101 -255.5t-48 -332.5q0 -100 36 -141t122 -41z" glyph-name="Ograve" horiz-adv-x="1409" unicode="Ò"/><glyph d="M772 1604l244 407h334l-334 -407h-244zM637 -20q-285 0 -412 120.5t-127 393.5q0 248 86 489.5t217 349.5q145 121 433 121q285 0 411.5 -118.5t126.5 -389.5q0 -246 -86 -489.5t-213 -354.5q-143 -122 -436 -122zM662 303q111 0 159 62q51 63 98.5 256.5t47.5 330.5 q0 98 -36 138t-122 40q-109 0 -156 -57q-53 -63 -101 -255.5t-48 -332.5q0 -100 36 -141t122 -41z" glyph-name="Oacute" horiz-adv-x="1409" unicode="Ó"/><glyph d="M934 1821l-225 -226h-258l335 408h342l195 -408h-244zM834 1454q285 0 411.5 -118.5t126.5 -389.5q0 -246 -86 -489.5t-213 -354.5q-143 -123 -436 -122q-285 0 -412 120.5t-127 393.5q0 248 86 489.5t217 349.5q146 121 433 121zM821 365q51 63 98.5 256.5t47.5 330.5 q0 98 -36 138t-122 40q-109 0 -156 -57q-53 -63 -101 -255.5t-48 -332.5q0 -100 35.5 -141t122.5 -41q110 1 159 62z" glyph-name="Ocircumflex" horiz-adv-x="1409" unicode="Ô"/><glyph d="M1032 1583q-84 0 -139 49l-68 58q-20 18 -53 18q-63 0 -94 -100h-158q25 141 106 229t187 88q76 0 143 -51l68 -53q27 -23 55 -23q53 0 88 103h158q-25 -154 -103.5 -236t-189.5 -82zM637 -20q-285 0 -412 120.5t-127 393.5q0 248 86 489.5t217 349.5q145 121 433 121 q285 0 411.5 -118.5t126.5 -389.5q0 -246 -86 -489.5t-213 -354.5q-143 -122 -436 -122zM662 303q111 0 159 62q51 63 98.5 256.5t47.5 330.5q0 98 -36 138t-122 40q-109 0 -156 -57q-53 -63 -101 -255.5t-48 -332.5q0 -100 36 -141t122 -41z" glyph-name="Otilde" horiz-adv-x="1409" unicode="Õ"/><glyph d="M555 1903h303l-49 -273h-303zM1030 1903h303l-49 -273h-303zM637 -20q-285 0 -412 120.5t-127 393.5q0 248 86 489.5t217 349.5q145 121 433 121q285 0 411.5 -118.5t126.5 -389.5q0 -246 -86 -489.5t-213 -354.5q-143 -122 -436 -122zM662 303q111 0 159 62 q51 63 98.5 256.5t47.5 330.5q0 98 -36 138t-122 40q-109 0 -156 -57q-53 -63 -101 -255.5t-48 -332.5q0 -100 36 -141t122 -41z" glyph-name="Odieresis" horiz-adv-x="1409" unicode="Ö"/><glyph d="M1208 874l-350 -301l246 -297l-234 -204l-247 299l-349 -299l-176 204l351 302l-246 296l233 205l250 -299l348 299z" glyph-name="multiply" horiz-adv-x="1300" unicode="×"/><glyph d="M1219 1358q154 -115 153 -412q0 -246 -86 -489.5t-213 -354.5q-143 -123 -436 -122q-109 0 -182 14l-56 -96h-252l103 182q-152 119 -152 414q0 248 86 489.5t217 349.5q145 121 433 121q106 0 180 -14l53 96h252zM653 1073q-47 -57 -92 -226t-55 -312l334 593 q-10 2 -31 2q-109 0 -156 -57zM662 303q111 0 159 62q45 59 90 230t54 310l-336 -600q10 -2 33 -2z" glyph-name="Oslash" horiz-adv-x="1409" unicode="Ø"/><glyph d="M731 1604l-192 407h321l101 -407h-230zM606 -20q-274 0 -390 95t-116 281q0 86 21 219l151 859h400l-164 -942q-10 -51 -10 -82q0 -61 30.5 -83t94.5 -22q90 0 131 44t61 171l162 914h399l-162 -922q-53 -307 -197.5 -419.5t-410.5 -112.5z" glyph-name="Ugrave" horiz-adv-x="1339" unicode="Ù"/><glyph d="M737 1604l244 407h334l-334 -407h-244zM606 -20q-274 0 -390 95t-116 281q0 86 21 219l151 859h400l-164 -942q-10 -51 -10 -82q0 -61 30.5 -83t94.5 -22q90 0 131 44t61 171l162 914h399l-162 -922q-53 -307 -197.5 -419.5t-410.5 -112.5z" glyph-name="Uacute" horiz-adv-x="1339" unicode="Ú"/><glyph d="M899 1821l-225 -226h-258l336 408h342l194 -408h-244zM977 1434h399l-162 -922q-53 -307 -197.5 -419.5t-410.5 -112.5q-274 0 -390 95t-116 281q0 86 21 219l151 859h400l-164 -942q-10 -51 -10 -82q0 -61 30.5 -83t94.5 -22q90 0 131 44t61 171z" glyph-name="Ucircumflex" horiz-adv-x="1339" unicode="Û"/><glyph d="M520 1903h303l-49 -273h-303zM995 1903h303l-49 -273h-303zM606 -20q-274 0 -390 95t-116 281q0 86 21 219l151 859h400l-164 -942q-10 -51 -10 -82q0 -61 30.5 -83t94.5 -22q90 0 131 44t61 171l162 914h399l-162 -922q-53 -307 -197.5 -419.5t-410.5 -112.5z" glyph-name="Udieresis" horiz-adv-x="1339" unicode="Ü"/><glyph d="M1278 2011l-334 -407h-244l244 407h334zM1421 1434l-612 -975l-80 -459h-399l90 512l-258 922h405l101 -594h28l312 594h413z" glyph-name="Yacute" horiz-adv-x="1267" unicode="Ý"/><glyph d="M752 1243q254 0 370.5 -87t116.5 -277q0 -147 -59.5 -292t-153.5 -218q-127 -100 -424 -101h-106l-47 -268h-402l252 1434h401l-32 -191h84zM756 600q35 39 61.5 115t26.5 137t-35 88t-119 27h-72l-73 -422h49q113 0 162 55z" glyph-name="Thorn" horiz-adv-x="1243" unicode="Þ"/><glyph d="M850 -20q-141 0 -352 36l51 267q117 -23 207 -23q88 0 118 33q27 31 27 69q0 37 -33 66l-137 121q-74 63 -74 178q0 86 35 146.5t113 130.5l80 69q76 68 76 123q0 78 -125 78q-123 0 -178.5 -64.5t-79.5 -205.5l-177 -1004h-385l189 1061q47 272 208.5 379.5t440.5 107.5 q276 0 394 -81t118 -244q0 -176 -154 -308l-92 -79q-66 -55 -65 -88q0 -25 26 -46l113 -102q119 -100 119 -233q0 -88 -37 -175.5t-107 -138.5q-100 -73 -319 -73z" glyph-name="germandbls" horiz-adv-x="1398" unicode="ß"/><glyph d="M797 1296h-230l-192 408h321zM741 1147q315 0 316 -268q0 -59 -13 -129l-129 -734l-346 -30v129h-12q-86 -135 -274 -135q-287 0 -287 266q0 102 38 191t105 138q94 70 293 70h211l12 72q6 33 7 57q0 41 -18.5 56.5t-63.5 15.5q-84 0 -328 -58l-27 287q326 72 516 72z M369 276q0 -63 69 -63q131 0 164 190l12 76h-88q-70 0 -100 -33q-23 -25 -40 -77t-17 -93z" glyph-name="agrave" horiz-adv-x="1110" unicode="à"/><glyph d="M1151 1704l-334 -408h-244l244 408h334zM741 1147q315 0 316 -268q0 -59 -13 -129l-129 -734l-346 -30v129h-12q-86 -135 -274 -135q-287 0 -287 266q0 102 38 191t105 138q94 70 293 70h211l12 72q6 33 7 57q0 41 -18.5 56.5t-63.5 15.5q-84 0 -328 -58l-27 287 q326 72 516 72zM369 276q0 -63 69 -63q131 0 164 190l12 76h-88q-70 0 -100 -33q-23 -25 -40 -77t-17 -93z" glyph-name="aacute" horiz-adv-x="1110" unicode="á"/><glyph d="M735 1513l-225 -225h-258l336 408h342l194 -408h-243zM741 1147q315 0 316 -268q0 -59 -13 -129l-129 -734l-346 -30v129h-12q-86 -135 -274 -135q-287 0 -287 266q0 102 38 191t105 138q94 70 293 70h211l12 72q6 33 7 57q0 41 -18.5 56.5t-63.5 15.5q-84 0 -328 -58 l-27 287q326 72 516 72zM369 276q0 -63 69 -63q131 0 164 190l12 76h-88q-70 0 -100 -33q-23 -25 -40 -77t-17 -93z" glyph-name="acircumflex" horiz-adv-x="1110" unicode="â"/><glyph d="M573 1401q-63 0 -94 -101h-157q25 141 105.5 229.5t186.5 88.5q76 0 144 -51l67 -54q27 -23 56 -22q53 0 88 102h157q-25 -154 -103.5 -235.5t-188.5 -81.5q-84 0 -140 49l-67 57q-21 19 -54 19zM741 1147q315 0 316 -268q0 -59 -13 -129l-129 -734l-346 -30v129h-12 q-86 -135 -274 -135q-287 0 -287 266q0 102 38 191t105 138q94 70 293 70h211l12 72q6 33 7 57q0 41 -18.5 56.5t-63.5 15.5q-84 0 -328 -58l-27 287q326 72 516 72zM369 276q0 -63 69 -63q131 0 164 190l12 76h-88q-70 0 -100 -33q-23 -25 -40 -77t-17 -93z" glyph-name="atilde" horiz-adv-x="1110" unicode="ã"/><glyph d="M659 1595l-49 -272h-303l49 272h303zM831 1595h304l-50 -272h-303zM741 1147q315 0 316 -268q0 -59 -13 -129l-129 -734l-346 -30v129h-12q-86 -135 -274 -135q-287 0 -287 266q0 102 38 191t105 138q94 70 293 70h211l12 72q6 33 7 57q0 41 -18.5 56.5t-63.5 15.5 q-84 0 -328 -58l-27 287q326 72 516 72zM369 276q0 -63 69 -63q131 0 164 190l12 76h-88q-70 0 -100 -33q-23 -25 -40 -77t-17 -93z" glyph-name="adieresis" horiz-adv-x="1110" unicode="ä"/><glyph d="M707 1237q-143 0 -200.5 52t-57.5 155q0 129 53 201q72 98 248 98q141 0 198.5 -52.5t57.5 -154.5q0 -125 -54 -203q-67 -96 -245 -96zM637 1563q-25 -39 -25 -97q0 -47 23.5 -68.5t81.5 -21.5q72 0 98 41q27 37 27 99q0 45 -22.5 65.5t-80.5 20.5q-71 0 -102 -39z M741 1147q315 0 316 -268q0 -59 -13 -129l-129 -734l-346 -30v129h-12q-86 -135 -274 -135q-287 0 -287 266q0 102 38 191t105 138q94 70 293 70h211l12 72q6 33 7 57q0 41 -18.5 56.5t-63.5 15.5q-84 0 -328 -58l-27 287q326 72 516 72zM369 276q0 -63 69 -63 q131 0 164 190l12 76h-88q-70 0 -100 -33q-23 -25 -40 -77t-17 -93z" glyph-name="aring" horiz-adv-x="1110" unicode="å"/><glyph d="M1217 1147q215 0 310 -87t95 -284q0 -131 -37 -293l-6 -24h-600q-8 -51 -8 -90q0 -61 23.5 -86t82.5 -25q180 0 387 53l21 -266q-240 -66 -428 -65q-260 0 -365 149h-26q-119 -150 -347 -149q-162 0 -249.5 75.5t-87.5 212.5q0 92 36.5 174t98.5 129q96 74 297 74h211 l12 72q4 29 4 45q0 84 -98 84q-131 0 -310 -58l-26 287q326 72 512 72q141 0 219 -55q111 55 279 55zM1018 674h256q10 92 10 127q0 55 -17.5 75.5t-66.5 20.5q-74 0 -112.5 -47t-69.5 -176zM426 213q123 0 156 184l14 82h-102q-61 0 -97 -41q-45 -63 -45 -147q0 -78 74 -78 z" glyph-name="ae" horiz-adv-x="1652" unicode="æ"/><glyph d="M743 866q-145 0 -194 -65q-41 -53 -77 -182.5t-36 -229.5q0 -76 29 -102.5t110 -26.5q100 0 175 25l-7 -283q-84 -23 -217 -22h-41l-34 -72q178 -20 178 -168q0 -119 -70 -182q-72 -66 -197 -66q-109 0 -221 43l15 125q43 -18 96 -18q66 0 98 26q29 29 29 72q0 37 -62 37 h-100l84 227q-129 37 -189.5 128t-60.5 247q0 209 71 397.5t179 276.5q115 94 375 94q127 0 235 -31l-53 -264q-54 14 -115 14z" glyph-name="ccedilla" horiz-adv-x="884" unicode="ç"/><glyph d="M793 1296h-230l-192 408h321zM645 1147q217 0 319.5 -89t102.5 -276q0 -100 -39 -280l-8 -43h-604q-4 -57 -4 -78q0 -70 27.5 -97.5t99.5 -27.5q137 0 362 55l21 -266q-238 -66 -424 -65q-446 0 -447 446q0 188 66.5 361.5t171.5 256.5q127 103 356 103zM457 674h256 q12 78 12 127q0 53 -19.5 74.5t-68.5 21.5q-82 0 -121 -63q-28 -45 -59 -160z" glyph-name="egrave" horiz-adv-x="1101" unicode="è"/><glyph d="M1147 1704l-334 -408h-244l244 408h334zM645 1147q217 0 319.5 -89t102.5 -276q0 -100 -39 -280l-8 -43h-604q-4 -57 -4 -78q0 -70 27.5 -97.5t99.5 -27.5q137 0 362 55l21 -266q-238 -66 -424 -65q-446 0 -447 446q0 188 66.5 361.5t171.5 256.5q127 103 356 103z M457 674h256q12 78 12 127q0 53 -19.5 74.5t-68.5 21.5q-82 0 -121 -63q-28 -45 -59 -160z" glyph-name="eacute" horiz-adv-x="1101" unicode="é"/><glyph d="M731 1513l-225 -225h-258l336 408h342l194 -408h-243zM645 1147q217 0 319.5 -89t102.5 -276q0 -100 -39 -280l-8 -43h-604q-4 -57 -4 -78q0 -70 27.5 -97.5t99.5 -27.5q137 0 362 55l21 -266q-238 -66 -424 -65q-446 0 -447 446q0 188 66.5 361.5t171.5 256.5 q127 103 356 103zM457 674h256q12 78 12 127q0 53 -19.5 74.5t-68.5 21.5q-82 0 -121 -63q-28 -45 -59 -160z" glyph-name="ecircumflex" horiz-adv-x="1101" unicode="ê"/><glyph d="M655 1595l-49 -272h-303l49 272h303zM827 1595h303l-49 -272h-303zM645 1147q217 0 319.5 -89t102.5 -276q0 -100 -39 -280l-8 -43h-604q-4 -57 -4 -78q0 -70 27.5 -97.5t99.5 -27.5q137 0 362 55l21 -266q-238 -66 -424 -65q-446 0 -447 446q0 188 66.5 361.5 t171.5 256.5q127 103 356 103zM457 674h256q12 78 12 127q0 53 -19.5 74.5t-68.5 21.5q-82 0 -121 -63q-28 -45 -59 -160z" glyph-name="edieresis" horiz-adv-x="1101" unicode="ë"/><glyph d="M311 1296l-192 408h321l101 -408h-230zM596 1126l-199 -1126h-383l199 1126h383z" glyph-name="igrave" horiz-adv-x="606" unicode="ì"/><glyph d="M317 1296l244 408h334l-334 -408h-244zM596 1126l-199 -1126h-383l199 1126h383z" glyph-name="iacute" horiz-adv-x="606" unicode="í"/><glyph d="M674 1696l194 -408h-243l-146 225l-225 -225h-258l336 408h342zM14 0l199 1126h383l-199 -1126h-383z" glyph-name="icircumflex" horiz-adv-x="606" unicode="î"/><glyph d="M100 1595h303l-49 -272h-303zM575 1595h304l-50 -272h-303zM596 1126l-199 -1126h-383l199 1126h383z" glyph-name="idieresis" horiz-adv-x="606" unicode="ï"/><glyph d="M1012 1268q16 -31 41 -92q76 -197 75 -410q0 -195 -53 -373t-137 -272q-129 -141 -424 -141q-252 0 -368.5 91t-116.5 285q0 186 64.5 371.5t154.5 263.5t270 78q141 0 201 -53h20q-4 37 -28 110q-2 6 -7.5 19.5t-9.5 24t-8 18.5l-291 -72l-39 213l219 53 q-31 49 -102 154h377l47 -74l246 60l39 -213zM649 326q31 51 61.5 188t30.5 211q0 104 -112 104q-84 0 -121 -49q-33 -49 -65.5 -183t-32.5 -224q0 -63 22.5 -88t81.5 -25q100 0 135 66z" glyph-name="eth" horiz-adv-x="1144" unicode="ð"/><glyph d="M631 1401q-63 0 -94 -101h-158q25 141 105.5 229.5t187.5 88.5q76 0 143 -51l68 -54q27 -23 55 -22q53 0 88 102h158q-25 -154 -104 -235.5t-189 -81.5q-84 0 -139 49l-68 57q-20 19 -53 19zM870 1147q160 0 234 -65.5t74 -204.5q0 -68 -19 -172l-123 -705h-383l125 713 q8 43 8 73q0 45 -20.5 62.5t-73.5 17.5q-141 0 -170 -168l-123 -698h-383l197 1110l346 31l-2 -129h12q47 72 117.5 103.5t183.5 31.5z" glyph-name="ntilde" horiz-adv-x="1234" unicode="ñ"/><glyph d="M598 1296l-192 408h321l100 -408h-229zM522 -20q-242 0 -358.5 98t-116.5 303q0 207 71.5 395.5t182.5 274.5q127 96 358 96q244 0 360 -100.5t116 -315.5q0 -184 -64.5 -365.5t-163.5 -269.5q-133 -116 -385 -116zM537 260q86 0 122 78q31 59 58.5 187t27.5 218 q0 70 -22.5 96.5t-77.5 26.5q-76 0 -108 -55q-35 -55 -67 -197.5t-32 -236.5q0 -63 22 -90t77 -27z" glyph-name="ograve" horiz-adv-x="1179" unicode="ò"/><glyph d="M604 1296l244 408h334l-334 -408h-244zM522 -20q-242 0 -358.5 98t-116.5 303q0 207 71.5 395.5t182.5 274.5q127 96 358 96q244 0 360 -100.5t116 -315.5q0 -184 -64.5 -365.5t-163.5 -269.5q-133 -116 -385 -116zM537 260q86 0 122 78q31 59 58.5 187t27.5 218 q0 70 -22.5 96.5t-77.5 26.5q-76 0 -108 -55q-35 -55 -67 -197.5t-32 -236.5q0 -63 22 -90t77 -27z" glyph-name="oacute" horiz-adv-x="1179" unicode="ó"/><glyph d="M766 1513l-225 -225h-258l335 408h343l194 -408h-244zM659 1147q244 0 360 -100.5t116 -315.5q0 -184 -64.5 -365.5t-163.5 -269.5q-133 -117 -385 -116q-242 0 -358.5 98t-116.5 303q0 207 71.5 395.5t182.5 274.5q127 96 358 96zM659 338q31 59 58.5 187t27.5 218 q0 70 -22.5 96.5t-77.5 26.5q-76 0 -108 -55q-35 -55 -67 -197.5t-32 -236.5q0 -63 21.5 -90t77.5 -27q85 0 122 78z" glyph-name="ocircumflex" horiz-adv-x="1179" unicode="ô"/><glyph d="M864 1276q-84 0 -139 49l-68 57q-20 18 -53 19q-63 0 -94 -101h-158q25 141 106 229.5t187 88.5q76 0 143 -51l68 -54q27 -23 55 -22q53 0 88 102h158q-25 -154 -103.5 -235.5t-189.5 -81.5zM522 -20q-242 0 -358.5 98t-116.5 303q0 207 71.5 395.5t182.5 274.5 q127 96 358 96q244 0 360 -100.5t116 -315.5q0 -184 -64.5 -365.5t-163.5 -269.5q-133 -116 -385 -116zM537 260q86 0 122 78q31 59 58.5 187t27.5 218q0 70 -22.5 96.5t-77.5 26.5q-76 0 -108 -55q-35 -55 -67 -197.5t-32 -236.5q0 -63 22 -90t77 -27z" glyph-name="otilde" horiz-adv-x="1179" unicode="õ"/><glyph d="M387 1595h303l-49 -272h-303zM862 1595h303l-49 -272h-303zM522 -20q-242 0 -358.5 98t-116.5 303q0 207 71.5 395.5t182.5 274.5q127 96 358 96q244 0 360 -100.5t116 -315.5q0 -184 -64.5 -365.5t-163.5 -269.5q-133 -116 -385 -116zM537 260q86 0 122 78 q31 59 58.5 187t27.5 218q0 70 -22.5 96.5t-77.5 26.5q-76 0 -108 -55q-35 -55 -67 -197.5t-32 -236.5q0 -63 22 -90t77 -27z" glyph-name="odieresis" horiz-adv-x="1179" unicode="ö"/><glyph d="M520 844l51 286h359l-51 -286h-359zM111 430l53 291h1030l-51 -291h-1032zM375 20l51 285h358l-49 -285h-360z" glyph-name="divide" horiz-adv-x="1300" unicode="÷"/><glyph d="M1004 1059q131 -100 131 -328q0 -184 -64.5 -365.5t-163.5 -269.5q-133 -117 -385 -116q-66 0 -121 6l-63 -113h-252l104 184q-143 98 -143 324q0 207 71.5 395.5t182.5 274.5q127 96 358 96q80 0 138 -8l63 114h252zM659 338q31 59 58.5 187t27.5 218q0 70 -22.5 96.5 t-77.5 26.5q-76 0 -108 -55q-35 -55 -67 -197.5t-32 -236.5q0 -63 21.5 -90t77.5 -27q85 0 122 78z" glyph-name="oslash" horiz-adv-x="1179" unicode="ø"/><glyph d="M840 1296h-230l-192 408h321zM817 1126h383l-196 -1110l-349 -30l2 129h-12q-86 -135 -293 -135q-158 0 -225.5 63t-67.5 199q0 76 19 176l125 708h385l-125 -712q-8 -35 -8 -70q0 -47 19.5 -65.5t62.5 -18.5q68 0 105.5 38t51.5 124z" glyph-name="ugrave" horiz-adv-x="1214" unicode="ù"/><glyph d="M1194 1704l-334 -408h-244l244 408h334zM817 1126h383l-196 -1110l-349 -30l2 129h-12q-86 -135 -293 -135q-158 0 -225.5 63t-67.5 199q0 76 19 176l125 708h385l-125 -712q-8 -35 -8 -70q0 -47 19.5 -65.5t62.5 -18.5q68 0 105.5 38t51.5 124z" glyph-name="uacute" horiz-adv-x="1214" unicode="ú"/><glyph d="M778 1513l-225 -225h-258l336 408h342l194 -408h-243zM817 1126h383l-196 -1110l-349 -30l2 129h-12q-86 -135 -293 -135q-158 0 -225.5 63t-67.5 199q0 76 19 176l125 708h385l-125 -712q-8 -35 -8 -70q0 -47 19.5 -65.5t62.5 -18.5q68 0 105.5 38t51.5 124z" glyph-name="ucircumflex" horiz-adv-x="1214" unicode="û"/><glyph d="M702 1595l-49 -272h-303l49 272h303zM1178 1595l-50 -272h-303l49 272h304zM817 1126h383l-196 -1110l-349 -30l2 129h-12q-86 -135 -293 -135q-158 0 -225.5 63t-67.5 199q0 76 19 176l125 708h385l-125 -712q-8 -35 -8 -70q0 -47 19.5 -65.5t62.5 -18.5q68 0 105.5 38 t51.5 124z" glyph-name="udieresis" horiz-adv-x="1214" unicode="ü"/><glyph d="M1141 1704l-334 -408h-244l244 408h334zM791 1126h405l-481 -1159q-84 -205 -208 -280.5t-306 -75.5q-111 0 -250 33l47 252q111 -16 197 -17q98 0 152 38t89 138l4 11h-268l-63 1060h397l-23 -796h43z" glyph-name="yacute" horiz-adv-x="1097" unicode="ý"/><glyph d="M825 1147q178 0 256 -94.5t78 -274.5q0 -166 -52 -364.5t-144 -304.5q-111 -129 -312 -129q-152 0 -211 79h-28l-76 -428h-385l336 1905h385l-82 -481h8q73 92 227 92zM678 336q33 61 60.5 204.5t27.5 223.5q0 57 -19.5 79.5t-66.5 22.5q-68 0 -105.5 -46t-58.5 -154 l-39 -230q-8 -43 -8 -78q0 -98 88 -98q82 0 121 76z" glyph-name="thorn" horiz-adv-x="1200" unicode="þ"/><glyph d="M649 1595l-49 -272h-303l49 272h303zM1124 1595l-49 -272h-303l49 272h303zM791 1126h405l-481 -1159q-84 -205 -208 -280.5t-306 -75.5q-111 0 -250 33l47 252q111 -16 197 -17q98 0 152 38t89 138l4 11h-268l-63 1060h397l-23 -796h43z" glyph-name="ydieresis" horiz-adv-x="1097" unicode="ÿ"/><glyph d="M1214 1882l-47 -254h-618l45 254h620zM829 0l-6 317h-383l-116 -317h-412l612 1434h598l111 -1434h-404zM555 625h262l-10 503h-66z" glyph-name="Amacron" horiz-adv-x="1341" unicode="Ā"/><glyph d="M1053 1575l-47 -254h-619l45 254h621zM741 1147q315 0 316 -268q0 -59 -13 -129l-129 -734l-346 -30v129h-12q-86 -135 -274 -135q-287 0 -287 266q0 102 38 191t105 138q94 70 293 70h211l12 72q6 33 7 57q0 41 -18.5 56.5t-63.5 15.5q-84 0 -328 -58l-27 287 q326 72 516 72zM369 276q0 -63 69 -63q131 0 164 190l12 76h-88q-70 0 -100 -33q-23 -25 -40 -77t-17 -93z" glyph-name="amacron" horiz-adv-x="1110" unicode="ā"/><glyph d="M1057 1931h211l-11 -53q-31 -176 -129 -242.5t-264 -66.5q-174 0 -248.5 63.5t-74.5 179.5q0 51 8 95l6 24h213l-8 -39q-4 -12 -4 -30q0 -80 125 -80q82 0 118.5 29.5t53.5 109.5zM1122 1434l111 -1434h-404l-6 317h-383l-116 -317h-412l612 1434h598zM555 625h262 l-10 503h-66z" glyph-name="Abreve" horiz-adv-x="1341" unicode="Ă"/><glyph d="M895 1624h211l-10 -53q-31 -176 -129.5 -242.5t-264.5 -66.5q-174 0 -248.5 63.5t-74.5 179.5q0 51 8 94l6 25h213l-8 -39q-4 -12 -4 -31q0 -80 125 -79q82 0 118.5 29.5t53.5 109.5zM741 1147q315 0 316 -268q0 -59 -13 -129l-129 -734l-346 -30v129h-12 q-86 -135 -274 -135q-287 0 -287 266q0 102 38 191t105 138q94 70 293 70h211l12 72q6 33 7 57q0 41 -18.5 56.5t-63.5 15.5q-84 0 -328 -58l-27 287q326 72 516 72zM369 276q0 -63 69 -63q131 0 164 190l12 76h-88q-70 0 -100 -33q-23 -25 -40 -77t-17 -93z" glyph-name="abreve" horiz-adv-x="1110" unicode="ă"/><glyph d="M1237 -287l25 -196q-43 -4 -101 -4q-150 0 -238.5 56t-88.5 175q0 147 129 256h-134l-6 317h-383l-116 -317h-412l612 1434h598l111 -1434q-143 -96 -143 -205q0 -82 147 -82zM555 625h262l-10 503h-66z" glyph-name="Aogonek" horiz-adv-x="1341" unicode="Ą"/><glyph d="M915 16q-123 -84 -143 -200q-8 -53 28 -78t118 -25l22 -196q-39 -4 -100 -4q-166 0 -257 70.5t-65 219.5q20 102 115 189l-64 -6v129h-12q-86 -135 -274 -135q-287 0 -287 266q0 102 38 191t105 138q94 70 293 70h211l12 72q6 33 7 57q0 41 -18.5 56.5t-63.5 15.5 q-84 0 -328 -58l-27 287q326 72 516 72q315 0 316 -268q0 -59 -13 -129zM369 276q0 -63 69 -63q131 0 164 190l12 76h-88q-70 0 -100 -33q-23 -25 -40 -77t-17 -93z" glyph-name="aogonek" horiz-adv-x="1110" unicode="ą"/><glyph d="M664 1604l243 407h334l-334 -407h-243zM637 -20q-285 0 -413 119.5t-128 383.5q0 256 88 501t215 349q147 121 430 121q190 0 324 -53l-63 -307q-80 37 -216 36q-156 0 -215 -71q-59 -68 -108 -243t-49 -324q0 -106 41 -147.5t143 -41.5q139 0 250 49l20 -323 q-124 -49 -319 -49z" glyph-name="Cacute" horiz-adv-x="1089" unicode="Ć"/><glyph d="M543 1296l243 408h334l-334 -408h-243zM526 -20q-252 0 -363.5 94t-111.5 305q0 209 71 397.5t179 276.5q115 94 375 94q127 0 235 -31l-53 -264q-53 14 -115 14q-145 0 -194 -65q-41 -53 -77 -182.5t-36 -229.5q0 -76 29 -102.5t110 -26.5q100 0 175 25l-7 -283 q-84 -22 -217 -22z" glyph-name="cacute" horiz-adv-x="884" unicode="ć"/><glyph d="M684 1903h303l-49 -275h-303zM637 -20q-285 0 -413 119.5t-128 383.5q0 256 88 501t215 349q147 121 430 121q190 0 324 -53l-63 -307q-80 37 -216 36q-156 0 -215 -71q-59 -68 -108 -243t-49 -324q0 -106 41 -147.5t143 -41.5q139 0 250 49l20 -323q-124 -49 -319 -49z " glyph-name="Cdotaccent" horiz-adv-x="1089" unicode="Ċ"/><glyph d="M563 1595h303l-49 -274h-303zM526 -20q-252 0 -363.5 94t-111.5 305q0 209 71 397.5t179 276.5q115 94 375 94q127 0 235 -31l-53 -264q-53 14 -115 14q-145 0 -194 -65q-41 -53 -77 -182.5t-36 -229.5q0 -76 29 -102.5t110 -26.5q100 0 175 25l-7 -283q-84 -22 -217 -22 z" glyph-name="cdotaccent" horiz-adv-x="884" unicode="ċ"/><glyph d="M610 1595l-192 408h241l148 -227l225 227h258l-338 -408h-342zM399 1333q147 121 430 121q190 0 324 -53l-63 -307q-80 37 -216 36q-156 0 -215 -71q-59 -68 -108 -243t-49 -324q0 -106 41 -147.5t143 -41.5q139 0 250 49l20 -323q-125 -49 -319 -49q-285 0 -413 119.5 t-128 383.5q0 256 88 501t215 349z" glyph-name="Ccaron" horiz-adv-x="1089" unicode="Č"/><glyph d="M489 1288l-192 408h242l147 -228l225 228h258l-338 -408h-342zM301 1053q115 94 375 94q127 0 235 -31l-53 -264q-53 14 -115 14q-145 0 -194 -65q-41 -53 -77 -182.5t-36 -229.5q0 -76 29 -102.5t110 -26.5q100 0 175 25l-7 -283q-84 -23 -217 -22q-252 0 -363.5 94 t-111.5 305q0 209 70.5 397.5t179.5 276.5z" glyph-name="ccaron" horiz-adv-x="884" unicode="č"/><glyph d="M721 1595l-193 408h242l148 -227l225 227h258l-338 -408h-342zM852 1434q240 0 354.5 -124t114.5 -384q0 -223 -73.5 -446.5t-188.5 -336.5q-145 -143 -438 -143h-574l252 1434h553zM766 371q55 70 105.5 261t50.5 324q0 94 -33 134t-109 40h-133l-145 -827h112 q103 0 152 68z" glyph-name="Dcaron" horiz-adv-x="1359" unicode="Ď"/><glyph d="M791 1061l83 475h383l-268 -1520l-346 -30l2 129h-8q-80 -135 -260 -135q-332 0 -332 380q0 195 64.5 394.5t156.5 289.5q106 102 285 103q162 0 215 -86h25zM1677 1536l-47 -272h2l-168 -320h-168l168 320h-137l47 272h303zM727 698q8 43 8 88q0 80 -82 80 q-74 0 -110.5 -55t-71.5 -196.5t-35 -239.5q0 -63 20.5 -89t71.5 -26q66 0 101 39t51 131z" glyph-name="dcaron" horiz-adv-x="1200" unicode="ď"/><glyph d="M852 1434q240 0 354.5 -124t114.5 -384q0 -223 -73.5 -446.5t-188.5 -336.5q-145 -143 -438 -143h-574l103 588h-168l45 258h170l102 588h553zM766 371q55 70 105.5 261t50.5 324q0 94 -33 134t-109 40h-133l-49 -284h190l-45 -258h-192l-49 -285h112q103 0 152 68z" glyph-name="Dcroat" horiz-adv-x="1359" unicode="Đ"/><glyph d="M1376 1401l-33 -199h-145l-209 -1186l-346 -30l2 129h-8q-80 -135 -260 -135q-332 0 -332 380q0 195 64.5 394.5t156.5 289.5q106 102 285 103q162 0 215 -86h25l24 141h-180l33 199h182l24 135h383l-24 -135h143zM727 698q8 43 8 88q0 80 -82 80q-74 0 -110.5 -55 t-71.5 -196.5t-35 -239.5q0 -63 20.5 -89t71.5 -26q66 0 101 39t51 131z" glyph-name="dcroat" horiz-adv-x="1200" unicode="đ"/><glyph d="M1110 1882l-47 -254h-619l45 254h621zM1090 1128h-445l-41 -231h406l-54 -307h-405l-51 -285h469l-54 -305h-870l252 1434h846z" glyph-name="Emacron" horiz-adv-x="1091" unicode="Ē"/><glyph d="M1049 1575l-48 -254h-618l45 254h621zM645 1147q217 0 319.5 -89t102.5 -276q0 -100 -39 -280l-8 -43h-604q-4 -57 -4 -78q0 -70 27.5 -97.5t99.5 -27.5q137 0 362 55l21 -266q-238 -66 -424 -65q-446 0 -447 446q0 188 66.5 361.5t171.5 256.5q127 103 356 103zM457 674 h256q12 78 12 127q0 53 -19.5 74.5t-68.5 21.5q-82 0 -121 -63q-28 -45 -59 -160z" glyph-name="emacron" horiz-adv-x="1101" unicode="ē"/><glyph d="M954 1903l-49 -275h-303l49 275h303zM1090 1128h-445l-41 -231h406l-54 -307h-405l-51 -285h469l-54 -305h-870l252 1434h846z" glyph-name="Edotaccent" horiz-adv-x="1091" unicode="Ė"/><glyph d="M893 1595l-49 -274h-303l49 274h303zM645 1147q217 0 319.5 -89t102.5 -276q0 -100 -39 -280l-8 -43h-604q-4 -57 -4 -78q0 -70 27.5 -97.5t99.5 -27.5q137 0 362 55l21 -266q-238 -66 -424 -65q-446 0 -447 446q0 188 66.5 361.5t171.5 256.5q127 103 356 103zM457 674 h256q12 78 12 127q0 53 -19.5 74.5t-68.5 21.5q-82 0 -121 -63q-28 -45 -59 -160z" glyph-name="edotaccent" horiz-adv-x="1101" unicode="ė"/><glyph d="M1090 1128h-445l-41 -231h406l-54 -307h-405l-51 -285h469l-54 -305h-114q-143 -96 -144 -205q0 -82 148 -82l24 -196q-43 -4 -100 -4q-150 0 -239 56t-89 175q0 147 129 256h-485l252 1434h846z" glyph-name="Eogonek" horiz-adv-x="1091" unicode="Ę"/><glyph d="M645 1147q217 0 319.5 -89t102.5 -276q0 -100 -39 -280l-8 -43h-604q-4 -57 -4 -78q0 -70 27.5 -97.5t99.5 -27.5q137 0 362 55l21 -266q-51 -14 -88 -22q-131 -84 -152 -187q-8 -55 33 -78.5t114 -23.5l23 -197q-41 -4 -100 -4q-166 0 -258.5 70.5t-65.5 220.5 q16 82 84 156h-14q-446 0 -447 446q0 188 66.5 361.5t171.5 256.5q127 103 356 103zM457 674h256q12 78 12 127q0 53 -19.5 74.5t-68.5 21.5q-82 0 -121 -63q-28 -45 -59 -160z" glyph-name="eogonek" horiz-adv-x="1101" unicode="ę"/><glyph d="M578 1595l-193 408h242l147 -227l225 227h258l-337 -408h-342zM1143 1434l-53 -306h-445l-41 -231h406l-54 -307h-405l-51 -285h469l-54 -305h-870l252 1434h846z" glyph-name="Ecaron" horiz-adv-x="1091" unicode="Ě"/><glyph d="M516 1288l-192 408h241l148 -228l225 228h258l-338 -408h-342zM645 1147q217 0 319.5 -89t102.5 -276q0 -100 -39 -280l-8 -43h-604q-4 -57 -4 -78q0 -70 27.5 -97.5t99.5 -27.5q137 0 362 55l21 -266q-238 -66 -424 -65q-446 0 -447 446q0 188 66.5 361.5t171.5 256.5 q127 103 356 103zM457 674h256q12 78 12 127q0 53 -19.5 74.5t-68.5 21.5q-82 0 -121 -63q-28 -45 -59 -160z" glyph-name="ecaron" horiz-adv-x="1101" unicode="ě"/><glyph d="M915 1821l-225 -226h-258l336 408h342l195 -408h-244zM711 565l51 291h498l-150 -844l-313 -26v135h-9q-119 -141 -309 -141q-387 0 -387 462q0 281 83 532t202 345q168 135 479 135q236 0 389 -51l-65 -320q-137 47 -295 47q-160 0 -234 -79q-53 -57 -105 -254t-52 -340 q0 -86 28.5 -120t98.5 -34q186 0 223 191l12 71h-145z" glyph-name="Gcircumflex" horiz-adv-x="1304" unicode="Ĝ"/><glyph d="M748 1513l-226 -225h-258l336 408h342l195 -408h-244zM1206 1126l-16 -174l-160 -28q23 -45 23 -113q0 -102 -45 -200.5t-117 -149.5q-106 -82 -344 -82q-86 0 -141 8l-25 -22q-29 -27 -29 -48q0 -37 49 -36h119q506 0 506 -277q0 -201 -145.5 -297t-448.5 -96 q-270 0 -398 56.5t-128 174.5q0 205 213 244l6 29q-88 57 -88 151q0 104 131 197l12 8q-86 78 -86 219q0 121 52.5 229.5t136.5 159.5q102 68 325 68q129 0 211 -21h387zM649 643q18 27 34.5 87.5t16.5 107.5q0 43 -20.5 61.5t-71.5 18.5q-76 0 -104 -39 q-20 -27 -35.5 -85.5t-15.5 -101.5q0 -45 21.5 -64.5t74.5 -19.5q73 0 100 35zM489 61q-229 0 -229 -149q0 -45 35 -62.5t127 -17.5q246 0 246 152q0 45 -37.5 61t-141.5 16z" glyph-name="gcircumflex" horiz-adv-x="1153" unicode="ĝ"/><glyph d="M1075 1931h211l-10 -53q-31 -176 -129 -242.5t-264 -66.5q-174 0 -249 63.5t-75 179.5q0 51 8 95l6 24h213l-8 -39q-4 -12 -4 -30q0 -80 125 -80q82 0 119 29.5t53 109.5zM711 565l51 291h498l-150 -844l-313 -26v135h-9q-119 -141 -309 -141q-387 0 -387 462 q0 281 83 532t202 345q168 135 479 135q236 0 389 -51l-65 -320q-137 47 -295 47q-160 0 -234 -79q-53 -57 -105 -254t-52 -340q0 -86 28.5 -120t98.5 -34q186 0 223 191l12 71h-145z" glyph-name="Gbreve" horiz-adv-x="1304" unicode="Ğ"/><glyph d="M715 1262q-174 0 -249 63.5t-75 179.5q0 51 8 94l7 25h212l-8 -39q-4 -12 -4 -31q0 -80 125 -79q82 0 119 29.5t53 109.5l4 10h211l-10 -53q-31 -176 -129 -242.5t-264 -66.5zM1206 1126l-16 -174l-160 -28q23 -45 23 -113q0 -102 -45 -200.5t-117 -149.5 q-106 -82 -344 -82q-86 0 -141 8l-25 -22q-29 -27 -29 -48q0 -37 49 -36h119q506 0 506 -277q0 -201 -145.5 -297t-448.5 -96q-270 0 -398 56.5t-128 174.5q0 205 213 244l6 29q-88 57 -88 151q0 104 131 197l12 8q-86 78 -86 219q0 121 52.5 229.5t136.5 159.5 q102 68 325 68q129 0 211 -21h387zM649 643q18 27 34.5 87.5t16.5 107.5q0 43 -20.5 61.5t-71.5 18.5q-76 0 -104 -39q-20 -27 -35.5 -85.5t-15.5 -101.5q0 -45 21.5 -64.5t74.5 -19.5q73 0 100 35zM489 61q-229 0 -229 -149q0 -45 35 -62.5t127 -17.5q246 0 246 152 q0 45 -37.5 61t-141.5 16z" glyph-name="gbreve" horiz-adv-x="1153" unicode="ğ"/><glyph d="M1077 1903l-49 -275h-303l49 275h303zM762 856h498l-150 -844l-313 -26v135h-9q-119 -141 -309 -141q-387 0 -387 462q0 281 83 532t202 345q168 135 479 135q236 0 389 -51l-65 -320q-137 47 -295 47q-160 0 -234 -79q-53 -57 -105 -254t-52 -340q0 -86 28.5 -120 t98.5 -34q186 0 223 191l12 71h-145z" glyph-name="Gdotaccent" horiz-adv-x="1304" unicode="Ġ"/><glyph d="M909 1595l-49 -274h-303l49 274h303zM1206 1126l-16 -174l-160 -28q23 -45 23 -113q0 -102 -45 -200.5t-117 -149.5q-106 -82 -344 -82q-86 0 -141 8l-25 -22q-29 -27 -29 -48q0 -37 49 -36h119q506 0 506 -277q0 -201 -145.5 -297t-448.5 -96q-270 0 -398 56.5 t-128 174.5q0 205 213 244l6 29q-88 57 -88 151q0 104 131 197l12 8q-86 78 -86 219q0 121 52.5 229.5t136.5 159.5q102 68 325 68q129 0 211 -21h387zM649 643q18 27 34.5 87.5t16.5 107.5q0 43 -20.5 61.5t-71.5 18.5q-76 0 -104 -39q-20 -27 -35.5 -85.5t-15.5 -101.5 q0 -45 21.5 -64.5t74.5 -19.5q73 0 100 35zM489 61q-229 0 -229 -149q0 -45 35 -62.5t127 -17.5q246 0 246 152q0 45 -37.5 61t-141.5 16z" glyph-name="gdotaccent" horiz-adv-x="1153" unicode="ġ"/><glyph d="M762 856h498l-150 -844l-313 -26v135h-9q-119 -141 -309 -141q-387 0 -387 462q0 281 83 532t202 345q168 135 479 135q236 0 389 -51l-65 -320q-137 47 -295 47q-160 0 -234 -79q-53 -57 -105 -254t-52 -340q0 -86 28.5 -120t98.5 -34q186 0 223 191l12 71h-145z M365 -416l47 273h303l-47 -273l-168 -319h-168l170 319h-137z" glyph-name="Gcommaaccent" horiz-adv-x="1304" unicode="Ģ"/><glyph d="M907 1595l-49 -274h-303l49 274l170 320h166l-168 -320h135zM1206 1126l-16 -174l-160 -28q23 -45 23 -113q0 -102 -45 -200.5t-117 -149.5q-106 -82 -344 -82q-86 0 -141 8l-25 -22q-29 -27 -29 -48q0 -37 49 -36h119q506 0 506 -277q0 -201 -145.5 -297t-448.5 -96 q-270 0 -398 56.5t-128 174.5q0 205 213 244l6 29q-88 57 -88 151q0 104 131 197l12 8q-86 78 -86 219q0 121 52.5 229.5t136.5 159.5q102 68 325 68q129 0 211 -21h387zM649 643q18 27 34.5 87.5t16.5 107.5q0 43 -20.5 61.5t-71.5 18.5q-76 0 -104 -39 q-20 -27 -35.5 -85.5t-15.5 -101.5q0 -45 21.5 -64.5t74.5 -19.5q73 0 100 35zM489 61q-229 0 -229 -149q0 -45 35 -62.5t127 -17.5q246 0 246 152q0 45 -37.5 61t-141.5 16z" glyph-name="gcommaaccent" horiz-adv-x="1153" unicode="ģ"/><glyph d="M944 1821l-225 -226h-258l336 408h342l194 -408h-243zM1042 1434h400l-252 -1434h-399l104 590h-344l-105 -590h-401l252 1434h401l-94 -537h344z" glyph-name="Hcircumflex" horiz-adv-x="1431" unicode="Ĥ"/><glyph d="M709 1872l-226 -225h-258l336 407h342l195 -407h-244zM879 1147q158 0 229.5 -62.5t71.5 -199.5q0 -72 -19 -176l-125 -709h-383l125 713q8 39 8 71q0 45 -20.5 63.5t-69.5 18.5q-74 0 -114.5 -42t-57.5 -134l-123 -690h-385l271 1536h385l-86 -496h8q86 107 285 107z " glyph-name="hcircumflex" horiz-adv-x="1234" unicode="ĥ"/><glyph d="M1554 1272l-38 -228h-140l-184 -1044h-401l104 590h-342l-104 -590h-402l184 1044h-145l41 228h143l29 162h401l-28 -162h342l28 162h402l-29 -162h139zM948 897l27 147h-342l-27 -147h342z" glyph-name="Hbar" horiz-adv-x="1429" unicode="Ħ"/><glyph d="M879 1147q158 0 229.5 -62.5t71.5 -199.5q0 -72 -19 -176l-125 -709h-383l125 713q8 39 8 71q0 45 -20.5 63.5t-69.5 18.5q-74 0 -114.5 -42t-57.5 -134l-123 -690h-385l211 1202h-135l33 199h137l25 135h385l-23 -135h269l-35 -199h-269l-28 -162h8q86 107 285 107z" glyph-name="hbar" horiz-adv-x="1234" unicode="ħ"/><glyph d="M672 1583q-84 0 -140 49l-67 58q-20 18 -53 18q-63 0 -95 -100h-157q25 141 105.5 229t187.5 88q76 0 143 -51l68 -53q27 -23 55 -23q53 0 88 103h158q-25 -154 -103.5 -236t-189.5 -82zM700 1434l-251 -1434h-402l252 1434h401z" glyph-name="Itilde" horiz-adv-x="688" unicode="Ĩ"/><glyph d="M578 1276q-84 0 -140 49l-67 57q-20 18 -54 19q-63 0 -94 -101h-157q25 141 105.5 229.5t186.5 88.5q76 0 144 -51l67 -54q27 -23 56 -22q53 0 88 102h157q-25 -154 -103 -235.5t-189 -81.5zM596 1126l-199 -1126h-383l199 1126h383z" glyph-name="itilde" horiz-adv-x="606" unicode="ĩ"/><glyph d="M270 1882h621l-47 -254h-619zM700 1434l-251 -1434h-402l252 1434h401z" glyph-name="Imacron" horiz-adv-x="688" unicode="Ī"/><glyph d="M176 1575h621l-47 -254h-619zM596 1126l-199 -1126h-383l199 1126h383z" glyph-name="imacron" horiz-adv-x="606" unicode="ī"/><glyph d="M541 1569q-174 0 -249 63.5t-75 179.5q0 51 8 95l6 24h213l-8 -39q-4 -12 -4 -30q0 -80 125 -80q82 0 119 29.5t53 109.5l4 10h211l-10 -53q-31 -176 -129 -242.5t-264 -66.5zM700 1434l-251 -1434h-402l252 1434h401z" glyph-name="Ibreve" horiz-adv-x="688" unicode="Ĭ"/><glyph d="M446 1262q-174 0 -248.5 63.5t-74.5 179.5q0 51 8 94l6 25h213l-8 -39q-4 -12 -4 -31q0 -80 125 -79q82 0 118.5 29.5t53.5 109.5l4 10h211l-10 -53q-31 -176 -129.5 -242.5t-264.5 -66.5zM596 1126l-199 -1126h-383l199 1126h383z" glyph-name="ibreve" horiz-adv-x="606" unicode="ĭ"/><glyph d="M305 -205q0 -82 148 -82l24 -196q-43 -4 -100 -4q-150 0 -239 56t-89 175q0 147 129 256h-131l252 1434h401l-251 -1434q-144 -96 -144 -205z" glyph-name="Iogonek" horiz-adv-x="688" unicode="Į"/><glyph d="M279 1569h409l-53 -307h-412zM397 0q-143 -96 -143 -205q0 -82 147 -82l25 -196q-43 -4 -100 -4q-150 0 -239 56t-89 175q0 147 129 256h-113l199 1126h383z" glyph-name="iogonek" horiz-adv-x="606" unicode="į"/><glyph d="M432 1903h303l-49 -275h-303zM700 1434l-251 -1434h-402l252 1434h401z" glyph-name="Idotaccent" horiz-adv-x="688" unicode="İ"/><glyph d="M596 1126l-199 -1126h-383l199 1126h383z" glyph-name="dotlessi" horiz-adv-x="606" unicode="ı"/><glyph d="M700 1434l-251 -1434h-402l252 1434h401zM860 -20q-115 0 -242 26l64 303q37 -6 68 -6q61 0 91.5 33t45.5 110l172 988h401l-194 -1106q-37 -205 -131.5 -276.5t-274.5 -71.5z" glyph-name="IJ" horiz-adv-x="1439" unicode="Ĳ"/><glyph d="M279 1569h409l-53 -307h-412zM858 1262l53 307h410l-53 -307h-410zM596 1126l-199 -1126h-383l199 1126h383zM631 -389q-139 0 -250 27l47 249q31 -6 80 -6q68 0 101.5 40t49.5 140l189 1065h383l-207 -1167q-37 -207 -128 -277.5t-265 -70.5z" glyph-name="ij" horiz-adv-x="1245" unicode="ĳ"/><glyph d="M842 2003l194 -408h-243l-146 226l-225 -226h-258l336 408h342zM199 446l172 988h401l-194 -1106q-37 -205 -131.5 -276.5t-274.5 -71.5q-115 0 -242 26l64 303q37 -6 67 -6q61 0 92.5 32.5t45.5 110.5z" glyph-name="Jcircumflex" horiz-adv-x="751" unicode="Ĵ"/><glyph d="M659 1696l195 -408h-244l-145 225l-225 -225h-258l335 408h342zM-2 61l188 1065h383l-207 -1167q-37 -207 -128 -277.5t-265 -70.5q-139 0 -250 27l48 249q37 -6 94 -6q66 0 92.5 38t44.5 142z" glyph-name="jcircumflex" horiz-adv-x="583" unicode="ĵ"/><glyph d="M1448 1434l-504 -693l273 -741h-447l-149 590h-68l-104 -590h-402l252 1434h401l-94 -537h64l342 537h436zM362 -416l48 273h303l-47 -273l-168 -319h-168l170 319h-138z" glyph-name="Kcommaaccent" horiz-adv-x="1325" unicode="Ķ"/><glyph d="M1284 1126l-410 -505l216 -621h-420l-115 498h-66l-88 -498h-385l271 1536h385l-140 -795h72l254 385h426zM276 -416l48 273h303l-47 -273l-168 -319h-168l170 319h-138z" glyph-name="kcommaaccent" horiz-adv-x="1196" unicode="ķ"/><glyph d="M991 2011l-334 -407h-243l243 407h334zM700 1434l-198 -1129h340l-54 -305h-741l252 1434h401z" glyph-name="Lacute" horiz-adv-x="927" unicode="Ĺ"/><glyph d="M387 1706l244 408h334l-334 -408h-244zM346 -20q-152 0 -221.5 56t-69.5 175q0 39 11 111l215 1214h383l-207 -1165q-8 -57 -8 -68q0 -43 49 -43q27 0 71 10l-2 -272q-96 -18 -221 -18z" glyph-name="lacute" horiz-adv-x="671" unicode="ĺ"/><glyph d="M502 305h340l-54 -305h-741l252 1434h401zM211 -416l47 273h303l-47 -273l-168 -319h-168l170 319h-137z" glyph-name="Lcommaaccent" horiz-adv-x="927" unicode="Ļ"/><glyph d="M449 303q0 -43 49 -43q27 0 71 10l-2 -272q-96 -18 -221 -18q-152 0 -221.5 56t-69.5 175q0 39 11 111l215 1214h383l-207 -1165q-8 -58 -8 -68zM29 -416l47 273h303l-47 -273l-168 -319h-168l170 319h-137z" glyph-name="lcommaaccent" horiz-adv-x="671" unicode="ļ"/><glyph d="M700 1434l-198 -1129h340l-54 -305h-741l252 1434h401zM848 1434h303l-45 -273l-168 -319h-168l168 319h-137z" glyph-name="Lcaron" horiz-adv-x="927" unicode="Ľ"/><glyph d="M664 1536l-207 -1165q-8 -57 -8 -68q0 -43 49 -43q27 0 71 10l-2 -272q-96 -18 -221 -18q-152 0 -221.5 56t-69.5 175q0 39 11 111l215 1214h383zM776 1536h305l-47 -272l-170 -320h-164l166 320h-137z" glyph-name="lcaron" horiz-adv-x="671" unicode="ľ"/><glyph d="M700 1434l-198 -1129h340l-54 -305h-741l252 1434h401zM680 973h412l-66 -383h-412z" glyph-name="Ldot" horiz-adv-x="1099" unicode="Ŀ"/><glyph d="M346 -20q-152 0 -221.5 56t-69.5 175q0 39 11 111l215 1214h383l-207 -1165q-8 -57 -8 -68q0 -43 49 -43q27 0 71 10l-2 -272q-96 -18 -221 -18zM549 590l65 383h412l-65 -383h-412z" glyph-name="ldot" horiz-adv-x="1009" unicode="ŀ"/><glyph d="M565 670l-63 -365h340l-54 -305h-741l84 479l-145 -63l45 272l149 66l119 680h401l-86 -488l258 113l-45 -275z" glyph-name="Lslash" horiz-adv-x="927" unicode="Ł"/><glyph d="M524 756l-67 -385q-8 -57 -8 -68q0 -43 49 -43q27 0 71 10l-2 -272q-96 -18 -221 -18q-152 0 -221.5 56t-69.5 175q0 39 11 111l40 227l-131 -64l43 267l136 65l127 719h383l-91 -512l201 98l-43 -264z" glyph-name="lslash" horiz-adv-x="671" unicode="ł"/><glyph d="M1358 2011l-334 -407h-244l244 407h334zM1085 1434h353l-252 -1434h-535l-63 940h-25l-166 -940h-350l252 1434h539l59 -934h25z" glyph-name="Nacute" horiz-adv-x="1425" unicode="Ń"/><glyph d="M1208 1704l-334 -408h-243l243 408h334zM870 1147q160 0 234 -65.5t74 -204.5q0 -68 -19 -172l-123 -705h-383l125 713q8 43 8 73q0 45 -20.5 62.5t-73.5 17.5q-141 0 -170 -168l-123 -698h-383l197 1110l346 31l-2 -129h12q47 72 117.5 103.5t183.5 31.5z" glyph-name="nacute" horiz-adv-x="1234" unicode="ń"/><glyph d="M1085 1434h353l-252 -1434h-535l-63 940h-25l-166 -940h-350l252 1434h539l59 -934h25zM371 -416l47 273h303l-47 -273l-168 -319h-168l170 319h-137z" glyph-name="Ncommaaccent" horiz-adv-x="1425" unicode="Ņ"/><glyph d="M870 1147q160 0 234 -65.5t74 -204.5q0 -68 -19 -172l-123 -705h-383l125 713q8 43 8 73q0 45 -20.5 62.5t-73.5 17.5q-141 0 -170 -168l-123 -698h-383l197 1110l346 31l-2 -129h12q47 72 117.5 103.5t183.5 31.5zM297 -416l47 273h303l-47 -273l-168 -319h-168l170 319 h-137z" glyph-name="ncommaaccent" horiz-adv-x="1234" unicode="ņ"/><glyph d="M727 1595l-192 408h241l148 -227l225 227h258l-338 -408h-342zM1085 1434h353l-252 -1434h-535l-63 940h-25l-166 -940h-350l252 1434h539l59 -934h25z" glyph-name="Ncaron" horiz-adv-x="1425" unicode="Ň"/><glyph d="M578 1288l-193 408h242l147 -228l225 228h258l-337 -408h-342zM870 1147q160 0 234 -65.5t74 -204.5q0 -68 -19 -172l-123 -705h-383l125 713q8 43 8 73q0 45 -20.5 62.5t-73.5 17.5q-141 0 -170 -168l-123 -698h-383l197 1110l346 31l-2 -129h12q47 72 117.5 103.5 t183.5 31.5z" glyph-name="ncaron" horiz-adv-x="1234" unicode="ň"/><glyph d="M1085 1434h353l-267 -1514q-33 -182 -113.5 -245.5t-242.5 -63.5q-109 0 -215 22l41 230q27 -6 78 -6q55 0 77.5 27.5t34.5 101.5l3 14h-183l-63 940h-25l-166 -940h-350l252 1434h539l59 -934h25z" glyph-name="Eng" horiz-adv-x="1425" unicode="Ŋ"/><glyph d="M870 1147q160 0 234 -65.5t74 -204.5q0 -68 -19 -172l-131 -746q-37 -207 -127 -277.5t-266 -70.5q-141 0 -248 27l47 249q18 -6 90 -6q63 0 91 35t44 125l119 672q8 43 8 73q0 45 -20.5 62.5t-73.5 17.5q-141 0 -170 -168l-123 -698h-383l197 1110l346 31l-2 -129h12 q47 72 117.5 103.5t183.5 31.5z" glyph-name="eng" horiz-adv-x="1234" unicode="ŋ"/><glyph d="M631 1882h620l-47 -254h-618zM637 -20q-285 0 -412 120.5t-127 393.5q0 248 86 489.5t217 349.5q145 121 433 121q285 0 411.5 -118.5t126.5 -389.5q0 -246 -86 -489.5t-213 -354.5q-143 -122 -436 -122zM662 303q111 0 159 62q51 63 98.5 256.5t47.5 330.5q0 98 -36 138 t-122 40q-109 0 -156 -57q-53 -63 -101 -255.5t-48 -332.5q0 -100 36 -141t122 -41z" glyph-name="Omacron" horiz-adv-x="1409" unicode="Ō"/><glyph d="M463 1575h620l-47 -254h-618zM522 -20q-242 0 -358.5 98t-116.5 303q0 207 71.5 395.5t182.5 274.5q127 96 358 96q244 0 360 -100.5t116 -315.5q0 -184 -64.5 -365.5t-163.5 -269.5q-133 -116 -385 -116zM537 260q86 0 122 78q31 59 58.5 187t27.5 218q0 70 -22.5 96.5 t-77.5 26.5q-76 0 -108 -55q-35 -55 -67 -197.5t-32 -236.5q0 -63 22 -90t77 -27z" glyph-name="omacron" horiz-adv-x="1179" unicode="ō"/><glyph d="M901 1569q-174 0 -248.5 63.5t-74.5 179.5q0 51 8 95l6 24h213l-8 -39q-4 -12 -4 -30q0 -80 125 -80q82 0 118.5 29.5t53.5 109.5l4 10h211l-11 -53q-31 -176 -129 -242.5t-264 -66.5zM637 -20q-285 0 -412 120.5t-127 393.5q0 248 86 489.5t217 349.5q145 121 433 121 q285 0 411.5 -118.5t126.5 -389.5q0 -246 -86 -489.5t-213 -354.5q-143 -122 -436 -122zM662 303q111 0 159 62q51 63 98.5 256.5t47.5 330.5q0 98 -36 138t-122 40q-109 0 -156 -57q-53 -63 -101 -255.5t-48 -332.5q0 -100 36 -141t122 -41z" glyph-name="Obreve" horiz-adv-x="1409" unicode="Ŏ"/><glyph d="M733 1262q-174 0 -248.5 63.5t-74.5 179.5q0 51 8 94l6 25h213l-8 -39q-4 -12 -4 -31q0 -80 125 -79q82 0 118.5 29.5t53.5 109.5l4 10h211l-11 -53q-31 -176 -129 -242.5t-264 -66.5zM522 -20q-242 0 -358.5 98t-116.5 303q0 207 71.5 395.5t182.5 274.5q127 96 358 96 q244 0 360 -100.5t116 -315.5q0 -184 -64.5 -365.5t-163.5 -269.5q-133 -116 -385 -116zM537 260q86 0 122 78q31 59 58.5 187t27.5 218q0 70 -22.5 96.5t-77.5 26.5q-76 0 -108 -55q-35 -55 -67 -197.5t-32 -236.5q0 -63 22 -90t77 -27z" glyph-name="obreve" horiz-adv-x="1179" unicode="ŏ"/><glyph d="M567 1602l254 411h332l-352 -411h-234zM1014 1602l252 411h331l-350 -411h-233zM637 -20q-285 0 -412 120.5t-127 393.5q0 248 86 489.5t217 349.5q145 121 433 121q285 0 411.5 -118.5t126.5 -389.5q0 -246 -86 -489.5t-213 -354.5q-143 -122 -436 -122zM662 303 q111 0 159 62q51 63 98.5 256.5t47.5 330.5q0 98 -36 138t-122 40q-109 0 -156 -57q-53 -63 -101 -255.5t-48 -332.5q0 -100 36 -141t122 -41z" glyph-name="Ohungarumlaut" horiz-adv-x="1409" unicode="Ő"/><glyph d="M399 1294l254 412h332l-352 -412h-234zM846 1294l252 412h332l-351 -412h-233zM522 -20q-242 0 -358.5 98t-116.5 303q0 207 71.5 395.5t182.5 274.5q127 96 358 96q244 0 360 -100.5t116 -315.5q0 -184 -64.5 -365.5t-163.5 -269.5q-133 -116 -385 -116zM537 260 q86 0 122 78q31 59 58.5 187t27.5 218q0 70 -22.5 96.5t-77.5 26.5q-76 0 -108 -55q-35 -55 -67 -197.5t-32 -236.5q0 -63 22 -90t77 -27z" glyph-name="ohungarumlaut" horiz-adv-x="1179" unicode="ő"/><glyph d="M1853 1126h-442l-41 -231h404l-54 -305h-403l-51 -285h467l-54 -305h-835q-94 -20 -217 -20q-276 0 -401.5 120.5t-125.5 393.5q0 254 83 493.5t220 347.5q150 119 435 119q129 0 227 -24v4h842zM666 303q109 0 157 62q57 70 101.5 268t44.5 323q0 96 -36 135t-122 39 q-106 0 -156 -57q-55 -66 -102 -260.5t-47 -327.5q0 -100 37 -141t123 -41z" glyph-name="OE" horiz-adv-x="1855" unicode="Œ"/><glyph d="M1311 1147q221 0 318 -89t97 -270q0 -125 -40 -299l-7 -30h-600q-6 -45 -6 -78q0 -70 32 -96.5t112 -26.5q100 0 348 53l20 -266q-244 -66 -426 -65q-197 0 -305 81q-117 -82 -326 -81q-260 0 -368.5 105t-108.5 314q0 180 64.5 371t193.5 285q131 92 359 92 q215 0 317 -78l2 2q115 76 324 76zM1118 674h256q10 86 10 123q0 59 -19 79.5t-65 20.5q-80 0 -116 -49q-33 -45 -66 -174zM532 260q80 0 117 55q37 57 69 209t32 238q0 59 -21.5 81.5t-73.5 22.5q-82 0 -114 -53q-37 -59 -70 -210.5t-33 -240.5q0 -57 21.5 -79.5 t72.5 -22.5z" glyph-name="oe" horiz-adv-x="1761" unicode="œ"/><glyph d="M1294 2011l-333 -407h-244l244 407h333zM1260 1087q0 -125 -47.5 -236.5t-125.5 -180.5q-39 -39 -98 -72l203 -598h-418l-129 522h-104l-92 -522h-402l252 1434h469q264 0 378 -85.5t114 -261.5zM651 1157l-67 -385h47q115 0 164 51q31 35 50 99.5t19 117.5 q2 66 -29.5 91.5t-95.5 25.5h-88z" glyph-name="Racute" horiz-adv-x="1302" unicode="Ŕ"/><glyph d="M1006 1704l-334 -408h-244l244 408h334zM573 987q92 160 299 160q25 0 54 -6l-70 -328q-39 20 -123 21q-98 0 -150.5 -51.5t-76.5 -180.5l-105 -602h-385l197 1110l350 31l-4 -154h14z" glyph-name="racute" horiz-adv-x="837" unicode="ŕ"/><glyph d="M1087 670q-39 -39 -98 -72l203 -598h-418l-129 522h-104l-92 -522h-402l252 1434h469q264 0 378 -85t114 -262q0 -125 -47.5 -236t-125.5 -181zM651 1157l-67 -385h47q115 0 164 51q31 35 50 99.5t19 117.5q2 66 -29.5 91.5t-95.5 25.5h-88zM330 -416l47 273h303 l-47 -273l-168 -319h-168l170 319h-137z" glyph-name="Rcommaaccent" horiz-adv-x="1302" unicode="Ŗ"/><glyph d="M872 1147q25 0 54 -6l-70 -328q-39 20 -123 21q-98 0 -150.5 -51.5t-76.5 -180.5l-105 -602h-385l197 1110l350 31l-4 -154h14q92 160 299 160zM94 -416l47 273h303l-47 -273l-168 -319h-168l170 319h-137z" glyph-name="rcommaaccent" horiz-adv-x="837" unicode="ŗ"/><glyph d="M664 1595l-193 408h242l147 -227l225 227h258l-337 -408h-342zM1260 1087q0 -125 -47.5 -236.5t-125.5 -180.5q-39 -39 -98 -72l203 -598h-418l-129 522h-104l-92 -522h-402l252 1434h469q264 0 378 -85.5t114 -261.5zM651 1157l-67 -385h47q115 0 164 51q31 35 50 99.5 t19 117.5q2 66 -29.5 91.5t-95.5 25.5h-88z" glyph-name="Rcaron" horiz-adv-x="1302" unicode="Ř"/><glyph d="M375 1288l-193 408h242l147 -228l226 228h258l-338 -408h-342zM573 987q92 160 299 160q25 0 54 -6l-70 -328q-39 20 -123 21q-98 0 -150.5 -51.5t-76.5 -180.5l-105 -602h-385l197 1110l350 31l-4 -154h14z" glyph-name="rcaron" horiz-adv-x="837" unicode="ř"/><glyph d="M551 1604l244 407h333l-333 -407h-244zM346 -20q-158 0 -389 43l59 301q199 -33 303 -33q86 0 133.5 42t47.5 116q0 49 -37 86l-187 188q-127 133 -126 309q0 422 565 422q129 0 329 -35l-59 -295q-102 18 -207 19q-225 0 -225 -144q0 -41 25 -69l186 -187 q139 -147 139 -325q0 -209 -143.5 -323.5t-413.5 -114.5z" glyph-name="Sacute" horiz-adv-x="980" unicode="Ś"/><glyph d="M455 1296l243 408h334l-334 -408h-243zM328 -20q-160 0 -359 36l51 267q123 -23 224 -23q88 0 114 25q29 27 29 77q0 45 -37 72l-162 121q-88 66 -88 205q0 215 129 315q94 72 299 72q131 0 365 -39l-51 -268q-139 27 -215 26q-66 0 -90 -24q-31 -25 -31 -76 q0 -31 31 -51l137 -109q66 -49 96.5 -103t30.5 -134q0 -190 -117 -293q-104 -96 -356 -96z" glyph-name="sacute" horiz-adv-x="876" unicode="ś"/><glyph d="M713 1821l-226 -226h-258l336 408h342l195 -408h-244zM150 1032q0 422 565 422q129 0 329 -35l-59 -295q-102 18 -207 19q-225 0 -225 -144q0 -41 25 -69l186 -187q139 -147 139 -325q0 -209 -143.5 -323.5t-413.5 -114.5q-158 0 -389 43l59 301q199 -33 303 -33 q86 0 133.5 42t47.5 116q0 49 -37 86l-187 188q-126 133 -126 309z" glyph-name="Scircumflex" horiz-adv-x="980" unicode="Ŝ"/><glyph d="M616 1513l-225 -225h-258l336 408h342l195 -408h-244zM229 1075q94 72 299 72q131 0 365 -39l-51 -268q-139 27 -215 26q-66 0 -90 -24q-31 -25 -31 -76q0 -31 31 -51l137 -109q66 -49 96.5 -103t30.5 -134q0 -190 -117 -293q-104 -96 -356 -96q-160 0 -359 36l51 267 q123 -23 224 -23q88 0 114 25q29 27 29 77q0 45 -37 72l-162 121q-88 66 -88 205q0 215 129 315z" glyph-name="scircumflex" horiz-adv-x="876" unicode="ŝ"/><glyph d="M778 1143q-225 0 -225 -144q0 -41 25 -69l186 -187q139 -147 139 -325q0 -184 -111.5 -296t-324.5 -136l-37 -78q178 -20 178 -168q0 -119 -69 -182q-72 -66 -197 -66q-109 0 -221 43l14 125q43 -18 96 -18q66 0 99 26q29 29 28 72q0 37 -61 37h-100l75 205 q-131 6 -315 41l59 301q199 -33 303 -33q86 0 133.5 42t47.5 116q0 49 -37 86l-187 188q-127 133 -126 309q0 422 565 422q129 0 329 -35l-59 -295q-103 19 -207 19z" glyph-name="Scedilla" horiz-adv-x="980" unicode="Ş"/><glyph d="M537 842q-31 -25 -31 -76q0 -31 31 -51l137 -109q66 -49 96.5 -103t30.5 -134q0 -190 -117 -293q-86 -76 -246 -92l-37 -76q178 -20 179 -168q0 -119 -70 -182q-72 -66 -197 -66q-109 0 -221 43l14 125q43 -18 97 -18q66 0 98 26q29 29 29 72q0 37 -62 37h-100l76 205 q-104 4 -275 34l51 267q123 -23 224 -23q88 0 114 25q29 27 29 77q0 45 -37 72l-162 121q-88 66 -88 205q0 215 129 315q94 72 299 72q131 0 365 -39l-51 -268q-139 27 -215 26q-65 1 -90 -24z" glyph-name="scedilla" horiz-adv-x="876" unicode="ş"/><glyph d="M498 1595l-193 408h242l147 -227l226 227h258l-338 -408h-342zM150 1032q0 422 565 422q129 0 329 -35l-59 -295q-102 18 -207 19q-225 0 -225 -144q0 -41 25 -69l186 -187q139 -147 139 -325q0 -209 -143.5 -323.5t-413.5 -114.5q-158 0 -389 43l59 301q199 -33 303 -33 q86 0 133.5 42t47.5 116q0 49 -37 86l-187 188q-126 133 -126 309z" glyph-name="Scaron" horiz-adv-x="980" unicode="Š"/><glyph d="M401 1288l-192 408h242l147 -228l225 228h258l-338 -408h-342zM229 1075q94 72 299 72q131 0 365 -39l-51 -268q-139 27 -215 26q-66 0 -90 -24q-31 -25 -31 -76q0 -31 31 -51l137 -109q66 -49 96.5 -103t30.5 -134q0 -190 -117 -293q-104 -96 -356 -96q-160 0 -359 36 l51 267q123 -23 224 -23q88 0 114 25q29 27 29 77q0 45 -37 72l-162 121q-88 66 -88 205q0 215 129 315z" glyph-name="scaron" horiz-adv-x="876" unicode="š"/><glyph d="M610 0h-106l-43 -92q178 -20 178 -168q0 -119 -70 -182q-72 -66 -196 -66q-109 0 -221 43l14 125q43 -18 96 -18q66 0 98 26q29 29 29 72q0 37 -61 37h-101l82 223h-98l199 1128h-291l55 306h973l-53 -306h-285z" glyph-name="Tcommaaccent" horiz-adv-x="1013" unicode="Ţ"/><glyph d="M602 881l-90 -514q-8 -49 -8 -68q0 -39 43 -39q37 0 74 10l-5 -276q-84 -14 -217 -14h-2l-35 -72q178 -20 179 -168q0 -119 -70 -182q-72 -66 -197 -66q-109 0 -221 43l15 125q43 -18 96 -18q66 0 98 26q29 29 29 72q0 37 -62 37h-100l88 237q-104 53 -104 197 q0 45 10 111l98 559h-149l43 245h149l47 273h383l-47 -273h178l-43 -245h-180z" glyph-name="tcommaaccent" horiz-adv-x="780" unicode="ţ"/><glyph d="M518 1595l-192 408h241l148 -227l225 227h258l-338 -408h-342zM1147 1434l-53 -306h-285l-199 -1128h-399l199 1128h-291l55 306h973z" glyph-name="Tcaron" horiz-adv-x="1013" unicode="Ť"/><glyph d="M864 1821h303l-47 -273l-170 -321h-164l166 321h-137zM694 1399l-47 -273h178l-43 -245h-180l-90 -514q-8 -49 -8 -68q0 -39 43 -39q37 0 74 10l-5 -276q-84 -14 -217 -14q-154 0 -220 59t-66 172q0 45 10 111l98 559h-149l43 245h149l47 273h383z" glyph-name="tcaron" horiz-adv-x="780" unicode="ť"/><glyph d="M1094 1128h-285l-49 -282h178l-45 -258h-180l-103 -588h-399l102 588h-182l45 258h184l50 282h-291l55 306h973z" glyph-name="Tbar" horiz-adv-x="1013" unicode="Ŧ"/><glyph d="M782 881h-180l-24 -144h167l-47 -258h-166l-20 -112q-8 -49 -8 -68q0 -39 43 -39q37 0 74 10l-5 -276q-84 -14 -217 -14q-154 0 -220 59t-66 172q0 45 10 111l27 157h-136l47 258h136l24 144h-149l43 245h149l47 273h383l-47 -273h178z" glyph-name="tbar" horiz-adv-x="780" unicode="ŧ"/><glyph d="M997 1583q-84 0 -139 49l-67 58q-20 18 -54 18q-63 0 -94 -100h-158q25 141 106 229t187 88q76 0 144 -51l67 -53q27 -23 55 -23q53 0 89 103h157q-25 -154 -103.5 -236t-189.5 -82zM606 -20q-274 0 -390 95t-116 281q0 86 21 219l151 859h400l-164 -942q-10 -51 -10 -82 q0 -61 30.5 -83t94.5 -22q90 0 131 44t61 171l162 914h399l-162 -922q-53 -307 -197.5 -419.5t-410.5 -112.5z" glyph-name="Utilde" horiz-adv-x="1339" unicode="Ũ"/><glyph d="M616 1401q-63 0 -94 -101h-157q25 141 105.5 229.5t186.5 88.5q76 0 144 -51l67 -54q27 -23 56 -22q53 0 88 102h157q-25 -154 -103.5 -235.5t-188.5 -81.5q-84 0 -140 49l-67 57q-21 19 -54 19zM817 1126h383l-196 -1110l-349 -30l2 129h-12q-86 -135 -293 -135 q-158 0 -225.5 63t-67.5 199q0 76 19 176l125 708h385l-125 -712q-8 -35 -8 -70q0 -47 19.5 -65.5t62.5 -18.5q68 0 105.5 38t51.5 124z" glyph-name="utilde" horiz-adv-x="1214" unicode="ũ"/><glyph d="M596 1882h621l-48 -254h-618zM606 -20q-274 0 -390 95t-116 281q0 86 21 219l151 859h400l-164 -942q-10 -51 -10 -82q0 -61 30.5 -83t94.5 -22q90 0 131 44t61 171l162 914h399l-162 -922q-53 -307 -197.5 -419.5t-410.5 -112.5z" glyph-name="Umacron" horiz-adv-x="1339" unicode="Ū"/><glyph d="M1096 1575l-47 -254h-619l45 254h621zM817 1126h383l-196 -1110l-349 -30l2 129h-12q-86 -135 -293 -135q-158 0 -225.5 63t-67.5 199q0 76 19 176l125 708h385l-125 -712q-8 -35 -8 -70q0 -47 19.5 -65.5t62.5 -18.5q68 0 105.5 38t51.5 124z" glyph-name="umacron" horiz-adv-x="1214" unicode="ū"/><glyph d="M866 1569q-174 0 -248.5 63.5t-74.5 179.5q0 51 8 95l6 24h213l-8 -39q-4 -12 -4 -30q0 -80 125 -80q82 0 118.5 29.5t53.5 109.5l4 10h211l-10 -53q-31 -176 -129.5 -242.5t-264.5 -66.5zM606 -20q-274 0 -390 95t-116 281q0 86 21 219l151 859h400l-164 -942 q-10 -51 -10 -82q0 -61 30.5 -83t94.5 -22q90 0 131 44t61 171l162 914h399l-162 -922q-53 -307 -197.5 -419.5t-410.5 -112.5z" glyph-name="Ubreve" horiz-adv-x="1339" unicode="Ŭ"/><glyph d="M745 1262q-174 0 -248.5 63.5t-74.5 179.5q0 51 8 94l6 25h213l-8 -39q-4 -12 -4 -31q0 -80 125 -79q82 0 119 29.5t53 109.5l4 10h211l-10 -53q-31 -176 -129.5 -242.5t-264.5 -66.5zM817 1126h383l-196 -1110l-349 -30l2 129h-12q-86 -135 -293 -135q-158 0 -225.5 63 t-67.5 199q0 76 19 176l125 708h385l-125 -712q-8 -35 -8 -70q0 -47 19.5 -65.5t62.5 -18.5q68 0 105.5 38t51.5 124z" glyph-name="ubreve" horiz-adv-x="1214" unicode="ŭ"/><glyph d="M870 1544q-143 0 -200.5 52.5t-57.5 154.5q0 129 54 201q72 98 247 98q141 0 198.5 -52t57.5 -155q0 -125 -53 -203q-68 -96 -246 -96zM881 1683q72 0 98 41q27 37 27 99q0 45 -22.5 65.5t-80.5 20.5q-72 0 -102 -39q-25 -39 -25 -96q0 -47 24 -69t81 -22zM606 -20 q-274 0 -390 95t-116 281q0 86 21 219l151 859h400l-164 -942q-10 -51 -10 -82q0 -61 30.5 -83t94.5 -22q90 0 131 44t61 171l162 914h399l-162 -922q-53 -307 -197.5 -419.5t-410.5 -112.5z" glyph-name="Uring" horiz-adv-x="1339" unicode="Ů"/><glyph d="M750 1237q-143 0 -200.5 52t-57.5 155q0 129 53 201q72 98 248 98q141 0 198.5 -52.5t57.5 -154.5q0 -125 -54 -203q-67 -96 -245 -96zM680 1563q-25 -39 -25 -97q0 -47 23.5 -68.5t81.5 -21.5q72 0 98 41q27 37 27 99q0 45 -22.5 65.5t-80.5 20.5q-71 0 -102 -39z M817 1126h383l-196 -1110l-349 -30l2 129h-12q-86 -135 -293 -135q-158 0 -225.5 63t-67.5 199q0 76 19 176l125 708h385l-125 -712q-8 -35 -8 -70q0 -47 19.5 -65.5t62.5 -18.5q68 0 105.5 38t51.5 124z" glyph-name="uring" horiz-adv-x="1214" unicode="ů"/><glyph d="M532 1602l254 411h332l-352 -411h-234zM979 1602l252 411h332l-351 -411h-233zM606 -20q-274 0 -390 95t-116 281q0 86 21 219l151 859h400l-164 -942q-10 -51 -10 -82q0 -61 30.5 -83t94.5 -22q90 0 131 44t61 171l162 914h399l-162 -922q-53 -307 -197.5 -419.5 t-410.5 -112.5z" glyph-name="Uhungarumlaut" horiz-adv-x="1339" unicode="Ű"/><glyph d="M997 1706l-352 -412h-233l254 412h331zM1092 1294h-234l252 412h332zM694 422l123 704h383l-196 -1110l-349 -30l2 129h-12q-86 -135 -293 -135q-158 0 -225.5 63t-67.5 199q0 76 19 176l125 708h385l-125 -712q-8 -35 -8 -70q0 -47 19.5 -65.5t62.5 -18.5q68 0 105.5 38 t51.5 124z" glyph-name="uhungarumlaut" horiz-adv-x="1214" unicode="ű"/><glyph d="M977 1434h399l-162 -922q-43 -242 -141 -360.5t-264 -153.5q-139 -94 -139 -203q0 -82 147 -82l25 -196q-43 -4 -101 -4q-150 0 -238.5 56t-88.5 175q0 135 108 238q-227 14 -324.5 108t-97.5 266q0 86 21 219l151 859h400l-164 -942q-10 -51 -10 -82q0 -61 30.5 -83 t94.5 -22q90 0 131 44t61 171z" glyph-name="Uogonek" horiz-adv-x="1339" unicode="Ų"/><glyph d="M860 -184q-8 -53 28 -78t118 -25l22 -196q-39 -4 -100 -4q-166 0 -257 70.5t-65 219.5q20 102 115 189l-66 -6l2 129h-12q-86 -135 -293 -135q-158 0 -225.5 63t-67.5 199q0 76 19 176l125 708h385l-125 -712q-8 -35 -8 -70q0 -47 19.5 -65.5t62.5 -18.5q68 0 105.5 38 t51.5 124l123 704h383l-196 -1110q-124 -83 -144 -200z" glyph-name="uogonek" horiz-adv-x="1214" unicode="ų"/><glyph d="M1169 1821l-225 -226h-258l336 408h342l195 -408h-244zM1608 1434h409l-475 -1434h-530l47 1128h-31l-350 -1128h-531l29 1434h406l-86 -1129h34l336 1129h459l-63 -1129h34z" glyph-name="Wcircumflex" horiz-adv-x="1882" unicode="Ŵ"/><glyph d="M1098 1513l-226 -225h-258l336 408h342l195 -408h-244zM1530 1126h405l-409 -1126h-551l16 860h-30l-289 -860h-549l-12 1126h399l-61 -860h36l285 860h496l-17 -860h39z" glyph-name="wcircumflex" horiz-adv-x="1839" unicode="ŵ"/><glyph d="M862 1821l-225 -226h-258l336 408h342l194 -408h-243zM1421 1434l-612 -975l-80 -459h-399l90 512l-258 922h405l101 -594h28l312 594h413z" glyph-name="Ycircumflex" horiz-adv-x="1267" unicode="Ŷ"/><glyph d="M725 1513l-225 -225h-258l336 408h342l194 -408h-244zM791 1126h405l-481 -1159q-84 -205 -208 -280.5t-306 -75.5q-111 0 -250 33l47 252q111 -16 197 -17q98 0 152 38t89 138l4 11h-268l-63 1060h397l-23 -796h43z" glyph-name="ycircumflex" horiz-adv-x="1097" unicode="ŷ"/><glyph d="M786 1903l-49 -273h-303l49 273h303zM1262 1903l-50 -273h-303l49 273h304zM1421 1434l-612 -975l-80 -459h-399l90 512l-258 922h405l101 -594h28l312 594h413z" glyph-name="Ydieresis" horiz-adv-x="1267" unicode="Ÿ"/><glyph d="M1165 2011l-334 -407h-243l243 407h334zM205 1128l53 306h881l-54 -306l-8 -47l-678 -749l-4 -27h533l-54 -305h-933l55 305l8 51l678 746l4 26h-481z" glyph-name="Zacute" horiz-adv-x="1044" unicode="Ź"/><glyph d="M1044 1704l-333 -408h-244l244 408h333zM121 864l47 262h778l-47 -262l-6 -47l-524 -528l-4 -27h452l-45 -262h-838l48 262l8 47l528 539l2 16h-399z" glyph-name="zacute" horiz-adv-x="911" unicode="ź"/><glyph d="M911 1903l-49 -275h-303l49 275h303zM258 1434h881l-54 -306l-8 -47l-678 -749l-4 -27h533l-54 -305h-933l55 305l8 51l678 746l4 26h-481z" glyph-name="Zdotaccent" horiz-adv-x="1044" unicode="Ż"/><glyph d="M791 1595l-50 -274h-303l49 274h304zM168 1126h778l-47 -262l-6 -47l-524 -528l-4 -27h452l-45 -262h-838l48 262l8 47l528 539l2 16h-399z" glyph-name="zdotaccent" horiz-adv-x="911" unicode="ż"/><glyph d="M535 1595l-193 408h242l147 -227l225 227h258l-337 -408h-342zM205 1128l53 306h881l-54 -306l-8 -47l-678 -749l-4 -27h533l-54 -305h-933l55 305l8 51l678 746l4 26h-481z" glyph-name="Zcaron" horiz-adv-x="1044" unicode="Ž"/><glyph d="M414 1288l-193 408h242l147 -228l226 228h258l-338 -408h-342zM121 864l47 262h778l-47 -262l-6 -47l-524 -528l-4 -27h452l-45 -262h-838l48 262l8 47l528 539l2 16h-399z" glyph-name="zcaron" horiz-adv-x="911" unicode="ž"/><glyph d="M721 1548q135 0 246 -24l-49 -250q-33 8 -91 8q-80 0 -117.5 -45t-58.5 -158l-190 -1079h-383l153 881h-161l43 245h161l9 41q39 219 142 300t296 81z" glyph-name="longs" horiz-adv-x="780" unicode="ſ"/><glyph d="M735 1548q135 0 246 -24l-49 -250q-33 8 -90 8q-80 0 -118 -45t-58 -158l-31 -172h199l-41 -245h-201l-125 -703q-37 -205 -128 -276.5t-263 -71.5q-94 0 -199 14l47 254h25q74 0 105.5 42t45.5 138l107 603h-146l41 245h148l47 260q39 219 142 300t296 81z" glyph-name="florin" horiz-adv-x="825" unicode="ƒ"/><glyph d="M1454 1688h211l-41 -232q-25 -147 -89.5 -208.5t-191.5 -76.5q29 -98 29 -225q0 -246 -86 -489.5t-213 -354.5q-143 -123 -436 -122q-285 0 -412 120.5t-127 393.5q0 248 86 489.5t217 349.5q145 121 433 121q276 0 401 -111q160 2 184 142zM821 365q51 63 98.5 256.5 t47.5 330.5q0 98 -36 138t-122 40q-109 0 -156 -57q-53 -63 -101 -255.5t-48 -332.5q0 -100 35.5 -141t122.5 -41q110 1 159 62z" glyph-name="Ohorn" horiz-adv-x="1409" unicode="Ơ"/><glyph d="M1241 1364h211l-41 -231q-25 -147 -90.5 -210t-196.5 -75q10 -61 11 -117q0 -184 -64.5 -365.5t-163.5 -269.5q-133 -117 -385 -116q-242 0 -358.5 98t-116.5 303q0 207 71.5 395.5t182.5 274.5q127 96 358 96q272 0 385 -125q139 12 162 139zM659 338q31 59 58.5 187 t27.5 218q0 70 -22.5 96.5t-77.5 26.5q-76 0 -108 -55q-35 -55 -67 -197.5t-32 -236.5q0 -63 21.5 -90t77.5 -27q85 0 122 78z" glyph-name="ohorn" horiz-adv-x="1179" unicode="ơ"/><glyph d="M1516 1778h210l-40 -232q-29 -162 -104 -222t-236 -67l-132 -745q-53 -307 -197.5 -419.5t-410.5 -112.5q-274 0 -390 95t-116 281q0 86 21 219l151 859h400l-164 -942q-10 -51 -10 -82q0 -61 30.5 -83t94.5 -22q90 0 131 44t61 171l162 914h309q170 0 195 141z" glyph-name="Uhorn" horiz-adv-x="1339" unicode="Ư"/><glyph d="M1327 1470h211l-41 -231q-29 -158 -101.5 -219.5t-226.5 -69.5l-165 -934l-349 -30l2 129h-12q-86 -135 -293 -135q-158 0 -225.5 63t-67.5 199q0 76 19 176l125 708h385l-125 -712q-8 -35 -8 -70q0 -47 19.5 -65.5t62.5 -18.5q68 0 105.5 38t51.5 124l123 704h281 q170 0 194 142z" glyph-name="uhorn" horiz-adv-x="1214" unicode="ư"/><glyph d="M1876 1595l-193 408h242l148 -227l225 227h258l-338 -408h-342zM852 1434q240 0 354.5 -124t114.5 -384q0 -223 -73.5 -446.5t-188.5 -336.5q-145 -143 -438 -143h-574l252 1434h553zM1546 1128l53 306h881l-53 -306l-8 -47l-678 -749l-4 -27h532l-53 -305h-934l55 305 l9 51l677 746l5 26h-482zM766 371q55 70 105.5 261t50.5 324q0 94 -33 134t-109 40h-133l-145 -827h112q103 0 152 68z" glyph-name="uni01C4" horiz-adv-x="2385" unicode="Ǆ"/><glyph d="M1763 1288l-192 408h241l148 -228l225 228h258l-338 -408h-342zM852 1434q240 0 354.5 -124t114.5 -384q0 -223 -73.5 -446.5t-188.5 -336.5q-145 -143 -438 -143h-574l252 1434h553zM766 371q55 70 105.5 261t50.5 324q0 94 -33 134t-109 40h-133l-145 -827h112 q103 0 152 68zM1470 864l48 262h778l-47 -262l-6 -47l-525 -528l-4 -27h453l-45 -262h-838l47 262l8 47l529 539l2 16h-400z" glyph-name="uni01C5" horiz-adv-x="2260" unicode="ǅ"/><glyph d="M1645 1288l-193 408h242l147 -228l225 228h258l-337 -408h-342zM874 1536h383l-268 -1520l-346 -30l2 129h-8q-80 -135 -260 -135q-332 0 -332 380q0 195 64.5 394.5t156.5 289.5q106 102 285 103q162 0 215 -86h25zM1352 864l47 262h778l-47 -262l-6 -47l-525 -528 l-4 -27h453l-45 -262h-838l47 262l9 47l528 539l2 16h-399zM727 698q8 43 8 88q0 80 -82 80q-74 0 -110.5 -55t-71.5 -196.5t-35 -239.5q0 -63 20.5 -89t71.5 -26q66 0 101 39t51 131z" glyph-name="uni01C6" horiz-adv-x="2142" unicode="ǆ"/><glyph d="M700 1434l-198 -1129h340l-54 -305h-741l252 1434h401zM1298 1434h402l-195 -1106q-37 -205 -131 -276.5t-274 -71.5q-115 0 -242 26l64 303q37 -6 67 -6q61 0 92 33t45 110z" glyph-name="uni01C7" horiz-adv-x="1679" unicode="Ǉ"/><glyph d="M1178 1569h409l-53 -307h-410zM842 305l-54 -305h-741l252 1434h401l-198 -1129h340zM926 61l188 1065h383l-207 -1167q-37 -207 -128 -277.5t-265 -70.5q-139 0 -250 27l47 249q31 -6 80 -6q68 0 102 40t50 140z" glyph-name="uni01C8" horiz-adv-x="1511" unicode="ǈ"/><glyph d="M868 1262l54 307h409l-53 -307h-410zM346 -20q-152 0 -221.5 56t-69.5 175q0 39 11 111l215 1214h383l-207 -1165q-8 -57 -8 -68q0 -43 49 -43q27 0 71 10l-2 -272q-96 -18 -221 -18zM641 -389q-139 0 -250 27l47 249q31 -6 80 -6q68 0 101.5 40t50.5 140l188 1065h383 l-207 -1167q-37 -207 -128 -277.5t-265 -70.5z" glyph-name="uni01C9" horiz-adv-x="1255" unicode="ǉ"/><glyph d="M1085 1434h353l-252 -1434h-535l-63 940h-25l-166 -940h-350l252 1434h539l59 -934h25zM1796 1434h402l-195 -1106q-37 -205 -131 -276.5t-275 -71.5q-115 0 -241 26l63 303q37 -6 68 -6q61 0 92 33t45 110z" glyph-name="uni01CA" horiz-adv-x="2177" unicode="Ǌ"/><glyph d="M1712 1569h410l-54 -307h-409zM1438 1434l-252 -1434h-535l-63 940h-25l-166 -940h-350l252 1434h539l59 -934h25l163 934h353zM1460 61l189 1065h383l-207 -1167q-37 -207 -128 -277.5t-265 -70.5q-139 0 -250 27l47 249q31 -6 80 -6q68 0 101.5 40t49.5 140z" glyph-name="uni01CB" horiz-adv-x="2045" unicode="ǋ"/><glyph d="M1516 1569h409l-53 -307h-410zM653 0l125 713q8 43 8 73q0 45 -20.5 62.5t-73.5 17.5q-141 0 -170 -168l-123 -698h-383l197 1110l346 31l-2 -129h12q47 72 118 103.5t183 31.5q160 0 234 -65.5t74 -204.5q0 -68 -19 -172l-123 -705h-383zM1264 61l188 1065h383 l-207 -1167q-37 -207 -128 -277.5t-265 -70.5q-139 0 -250 27l47 249q31 -6 80 -6q68 0 102 40t50 140z" glyph-name="uni01CC" horiz-adv-x="1849" unicode="ǌ"/><glyph d="M682 1595l-193 408h242l148 -227l225 227h258l-338 -408h-342zM1122 1434l111 -1434h-404l-6 317h-383l-116 -317h-412l612 1434h598zM555 625h262l-10 503h-66z" glyph-name="uni01CD" horiz-adv-x="1341" unicode="Ǎ"/><glyph d="M520 1288l-192 408h241l148 -228l225 228h258l-338 -408h-342zM741 1147q315 0 316 -268q0 -59 -13 -129l-129 -734l-346 -30v129h-12q-86 -135 -274 -135q-287 0 -287 266q0 102 38 191t105 138q94 70 293 70h211l12 72q6 33 7 57q0 41 -18.5 56.5t-63.5 15.5 q-84 0 -328 -58l-27 287q326 72 516 72zM369 276q0 -63 69 -63q131 0 164 190l12 76h-88q-70 0 -100 -33q-23 -25 -40 -77t-17 -93z" glyph-name="uni01CE" horiz-adv-x="1110" unicode="ǎ"/><glyph d="M780 2003h258l-338 -408h-342l-192 408h242l147 -227zM47 0l252 1434h401l-251 -1434h-402z" glyph-name="uni01CF" horiz-adv-x="688" unicode="Ǐ"/><glyph d="M686 1696h258l-338 -408h-342l-192 408h241l148 -228zM14 0l199 1126h383l-199 -1126h-383z" glyph-name="uni01D0" horiz-adv-x="606" unicode="ǐ"/><glyph d="M719 1595l-193 408h242l147 -227l226 227h258l-338 -408h-342zM834 1454q285 0 411.5 -118.5t126.5 -389.5q0 -246 -86 -489.5t-213 -354.5q-143 -123 -436 -122q-285 0 -412 120.5t-127 393.5q0 248 86 489.5t217 349.5q146 121 433 121zM821 365q51 63 98.5 256.5 t47.5 330.5q0 98 -36 138t-122 40q-109 0 -156 -57q-53 -63 -101 -255.5t-48 -332.5q0 -100 35.5 -141t122.5 -41q110 1 159 62z" glyph-name="uni01D1" horiz-adv-x="1409" unicode="Ǒ"/><glyph d="M551 1288l-193 408h242l148 -228l225 228h258l-338 -408h-342zM659 1147q244 0 360 -100.5t116 -315.5q0 -184 -64.5 -365.5t-163.5 -269.5q-133 -117 -385 -116q-242 0 -358.5 98t-116.5 303q0 207 71.5 395.5t182.5 274.5q127 96 358 96zM659 338q31 59 58.5 187 t27.5 218q0 70 -22.5 96.5t-77.5 26.5q-76 0 -108 -55q-35 -55 -67 -197.5t-32 -236.5q0 -63 21.5 -90t77.5 -27q85 0 122 78z" glyph-name="uni01D2" horiz-adv-x="1179" unicode="ǒ"/><glyph d="M684 1595l-192 408h241l148 -227l225 227h258l-338 -408h-342zM977 1434h399l-162 -922q-53 -307 -197.5 -419.5t-410.5 -112.5q-274 0 -390 95t-116 281q0 86 21 219l151 859h400l-164 -942q-10 -51 -10 -82q0 -61 30.5 -83t94.5 -22q90 0 131 44t61 171z" glyph-name="uni01D3" horiz-adv-x="1339" unicode="Ǔ"/><glyph d="M563 1288l-192 408h241l148 -228l225 228h258l-338 -408h-342zM694 422l123 704h383l-196 -1110l-349 -30l2 129h-12q-86 -135 -293 -135q-158 0 -225.5 63t-67.5 199q0 76 19 176l125 708h385l-125 -712q-8 -35 -8 -70q0 -47 19.5 -65.5t62.5 -18.5q68 0 105.5 38 t51.5 124z" glyph-name="uni01D4" horiz-adv-x="1214" unicode="ǔ"/><glyph d="M674 2335h618l-45 -254h-618zM520 1903h303l-49 -273h-303zM995 1903h303l-49 -273h-303zM606 -20q-274 0 -390 95t-116 281q0 86 21 219l151 859h400l-164 -942q-10 -51 -10 -82q0 -61 30.5 -83t94.5 -22q90 0 131 44t61 171l162 914h399l-162 -922 q-53 -307 -197.5 -419.5t-410.5 -112.5z" glyph-name="uni01D5" horiz-adv-x="1339" unicode="Ǖ"/><glyph d="M1171 2028l-45 -254h-618l45 254h618zM702 1595l-49 -272h-303l49 272h303zM825 1323l49 272h304l-50 -272h-303zM817 1126h383l-196 -1110l-349 -30l2 129h-12q-86 -135 -293 -135q-158 0 -225.5 63t-67.5 199q0 76 19 176l125 708h385l-125 -712q-8 -35 -8 -70 q0 -47 19.5 -65.5t62.5 -18.5q68 0 105.5 38t51.5 124z" glyph-name="uni01D6" horiz-adv-x="1214" unicode="ǖ"/><glyph d="M821 2038l244 407h336l-336 -407h-244zM520 1903h303l-49 -273h-303zM995 1903h303l-49 -273h-303zM606 -20q-274 0 -390 95t-116 281q0 86 21 219l151 859h400l-164 -942q-10 -51 -10 -82q0 -61 30.5 -83t94.5 -22q90 0 131 44t61 171l162 914h399l-162 -922 q-53 -307 -197.5 -419.5t-410.5 -112.5z" glyph-name="uni01D7" horiz-adv-x="1339" unicode="Ǘ"/><glyph d="M1280 2138l-336 -407h-244l244 407h336zM702 1595l-49 -272h-303l49 272h303zM825 1323l49 272h304l-50 -272h-303zM694 422l123 704h383l-196 -1110l-349 -30l2 129h-12q-86 -135 -293 -135q-158 0 -225.5 63t-67.5 199q0 76 19 176l125 708h385l-125 -712 q-8 -35 -8 -70q0 -47 19.5 -65.5t62.5 -18.5q68 0 105.5 38t51.5 124z" glyph-name="uni01D8" horiz-adv-x="1214" unicode="ǘ"/><glyph d="M764 2040l-193 407h242l148 -225l225 225h258l-338 -407h-342zM823 1903l-49 -273h-303l49 273h303zM946 1630l49 273h303l-49 -273h-303zM815 520l162 914h399l-162 -922q-53 -307 -197.5 -419.5t-410.5 -112.5q-274 0 -390 95t-116 281q0 86 21 219l151 859h400 l-164 -942q-10 -51 -10 -82q0 -61 30.5 -83t94.5 -22q90 0 131 44t61 171z" glyph-name="uni01D9" horiz-adv-x="1339" unicode="Ǚ"/><glyph d="M643 1733l-192 407h241l148 -225l225 225h258l-338 -407h-342zM702 1595l-49 -272h-303l49 272h303zM825 1323l49 272h304l-50 -272h-303zM694 422l123 704h383l-196 -1110l-349 -30l2 129h-12q-86 -135 -293 -135q-158 0 -225.5 63t-67.5 199q0 76 19 176l125 708h385 l-125 -712q-8 -35 -8 -70q0 -47 19.5 -65.5t62.5 -18.5q68 0 105.5 38t51.5 124z" glyph-name="uni01DA" horiz-adv-x="1214" unicode="ǚ"/><glyph d="M813 2038l-192 407h319l100 -407h-227zM471 1630l49 273h303l-49 -273h-303zM946 1630l49 273h303l-49 -273h-303zM606 -20q-274 0 -390 95t-116 281q0 86 21 219l151 859h400l-164 -942q-10 -51 -10 -82q0 -61 30.5 -83t94.5 -22q90 0 131 44t61 171l162 914h399 l-162 -922q-53 -307 -197.5 -419.5t-410.5 -112.5z" glyph-name="uni01DB" horiz-adv-x="1339" unicode="Ǜ"/><glyph d="M920 1731h-228l-192 407h319zM702 1595l-49 -272h-303l49 272h303zM825 1323l49 272h304l-50 -272h-303zM817 1126h383l-196 -1110l-349 -30l2 129h-12q-86 -135 -293 -135q-158 0 -225.5 63t-67.5 199q0 76 19 176l125 708h385l-125 -712q-8 -35 -8 -70 q0 -47 19.5 -65.5t62.5 -18.5q68 0 105.5 38t51.5 124z" glyph-name="uni01DC" horiz-adv-x="1214" unicode="ǜ"/><glyph d="M1591 1882l-47 -254h-618l45 254h620zM1833 1128h-442l-41 -231h405l-53 -307h-406l-51 -285h469l-53 -305h-868l55 317h-350l-179 -317h-415l862 1434h1122zM903 625l88 503h-39l-282 -503h233z" glyph-name="uni01E2" horiz-adv-x="1837" unicode="Ǣ"/><glyph d="M700 1595l-192 408h242l147 -227l225 227h258l-338 -408h-342zM711 565l51 291h498l-150 -844l-313 -26v135h-9q-119 -141 -309 -141q-387 0 -387 462q0 281 83 532t202 345q168 135 479 135q236 0 389 -51l-65 -320q-137 47 -295 47q-160 0 -234 -79q-53 -57 -105 -254 t-52 -340q0 -86 28.5 -120t98.5 -34q186 0 223 191l12 71h-145z" glyph-name="Gcaron" horiz-adv-x="1304" unicode="Ǧ"/><glyph d="M532 1288l-192 408h242l147 -228l225 228h258l-338 -408h-342zM608 1147q129 0 211 -21h387l-16 -174l-160 -28q23 -45 23 -113q0 -102 -45 -200.5t-117 -149.5q-106 -82 -344 -82q-86 0 -141 8l-25 -22q-29 -27 -29 -48q0 -37 49 -36h119q506 0 506 -277 q0 -201 -145.5 -297t-448.5 -96q-270 0 -398 56.5t-128 174.5q0 205 213 244l6 29q-88 57 -88 151q0 104 131 197l12 8q-86 78 -86 219q0 121 52.5 229.5t136.5 159.5q102 68 325 68zM649 643q18 27 34.5 87.5t16.5 107.5q0 43 -20.5 61.5t-71.5 18.5q-76 0 -104 -39 q-20 -27 -35.5 -85.5t-15.5 -101.5q0 -45 21.5 -64.5t74.5 -19.5q73 0 100 35zM489 61q-229 0 -229 -149q0 -45 35 -62.5t127 -17.5q246 0 246 152q0 45 -37.5 61t-141.5 16z" glyph-name="gcaron" horiz-adv-x="1153" unicode="ǧ"/><glyph d="M696 1595l-192 408h241l148 -227l225 227h258l-338 -408h-342zM1448 1434l-504 -693l273 -741h-447l-149 590h-68l-104 -590h-402l252 1434h401l-94 -537h64l342 537h436z" glyph-name="uni01E8" horiz-adv-x="1325" unicode="Ǩ"/><glyph d="M494 1647l-193 407h242l147 -227l225 227h259l-338 -407h-342zM1284 1126l-410 -505l216 -621h-420l-115 498h-66l-88 -498h-385l271 1536h385l-140 -795h72l254 385h426z" glyph-name="uni01E9" horiz-adv-x="1196" unicode="ǩ"/><glyph d="M852 1434q240 0 354.5 -124t114.5 -384q0 -223 -73.5 -446.5t-188.5 -336.5q-145 -143 -438 -143h-574l252 1434h553zM1599 1434h881l-53 -306l-8 -47l-678 -749l-4 -27h532l-53 -305h-934l55 305l9 51l677 746l5 26h-482zM766 371q55 70 105.5 261t50.5 324 q0 94 -33 134t-109 40h-133l-145 -827h112q103 0 152 68z" glyph-name="uni01F1" horiz-adv-x="2385" unicode="Ǳ"/><glyph d="M852 1434q240 0 354.5 -124t114.5 -384q0 -223 -73.5 -446.5t-188.5 -336.5q-145 -143 -438 -143h-574l252 1434h553zM766 371q55 70 105.5 261t50.5 324q0 94 -33 134t-109 40h-133l-145 -827h112q103 0 152 68zM1518 1126h778l-47 -262l-6 -47l-525 -528l-4 -27h453 l-45 -262h-838l47 262l8 47l529 539l2 16h-400z" glyph-name="uni01F2" horiz-adv-x="2260" unicode="ǲ"/><glyph d="M874 1536h383l-268 -1520l-346 -30l2 129h-8q-80 -135 -260 -135q-332 0 -332 380q0 195 64.5 394.5t156.5 289.5q106 102 285 103q162 0 215 -86h25zM1399 1126h778l-47 -262l-6 -47l-525 -528l-4 -27h453l-45 -262h-838l47 262l9 47l528 539l2 16h-399zM727 698 q8 43 8 88q0 80 -82 80q-74 0 -110.5 -55t-71.5 -196.5t-35 -239.5q0 -63 20.5 -89t71.5 -26q66 0 101 39t51 131z" glyph-name="uni01F3" horiz-adv-x="2142" unicode="ǳ"/><glyph d="M1331 2011l-334 -407h-243l243 407h334zM711 565l51 291h498l-150 -844l-313 -26v135h-9q-119 -141 -309 -141q-387 0 -387 462q0 281 83 532t202 345q168 135 479 135q236 0 389 -51l-65 -320q-137 47 -295 47q-160 0 -234 -79q-53 -57 -105 -254t-52 -340 q0 -86 28.5 -120t98.5 -34q186 0 223 191l12 71h-145z" glyph-name="uni01F4" horiz-adv-x="1304" unicode="Ǵ"/><glyph d="M1163 1704l-334 -408h-243l243 408h334zM1206 1126l-16 -174l-160 -28q23 -45 23 -113q0 -102 -45 -200.5t-117 -149.5q-106 -82 -344 -82q-86 0 -141 8l-25 -22q-29 -27 -29 -48q0 -37 49 -36h119q506 0 506 -277q0 -201 -145.5 -297t-448.5 -96q-270 0 -398 56.5 t-128 174.5q0 205 213 244l6 29q-88 57 -88 151q0 104 131 197l12 8q-86 78 -86 219q0 121 52.5 229.5t136.5 159.5q102 68 325 68q129 0 211 -21h387zM649 643q18 27 34.5 87.5t16.5 107.5q0 43 -20.5 61.5t-71.5 18.5q-76 0 -104 -39q-20 -27 -35.5 -85.5t-15.5 -101.5 q0 -45 21.5 -64.5t74.5 -19.5q73 0 100 35zM489 61q-229 0 -229 -149q0 -45 35 -62.5t127 -17.5q246 0 246 152q0 45 -37.5 61t-141.5 16z" glyph-name="uni01F5" horiz-adv-x="1153" unicode="ǵ"/><glyph d="M1401 2527l-336 -407h-244l244 407h336zM866 1544q-143 0 -201.5 52.5t-58.5 154.5q0 123 53 201q70 98 250 98q141 0 199.5 -52t58.5 -155q0 -125 -55 -203q-70 -96 -246 -96zM797 1872q-25 -39 -25 -100q0 -45 23.5 -67t78.5 -22q72 0 103 41q23 33 22 93 q0 49 -22.5 70.5t-81.5 21.5q-71 0 -98 -37zM1122 1434l111 -1434h-404l-6 317h-383l-116 -317h-412l612 1434h598zM555 625h262l-10 503h-66z" glyph-name="Aringacute" horiz-adv-x="1341" unicode="Ǻ"/><glyph d="M1239 2220l-336 -408h-244l244 408h336zM705 1237q-143 0 -202 52t-59 155q0 123 54 201q70 98 250 98q141 0 199.5 -52.5t58.5 -154.5q0 -125 -56 -203q-69 -96 -245 -96zM635 1565q-25 -39 -25 -101q0 -45 23.5 -66.5t79.5 -21.5q72 0 102 41q23 33 23 92 q0 49 -22.5 71t-82.5 22q-71 0 -98 -37zM741 1147q315 0 316 -268q0 -59 -13 -129l-129 -734l-346 -30v129h-12q-86 -135 -274 -135q-287 0 -287 266q0 102 38 191t105 138q94 70 293 70h211l12 72q6 33 7 57q0 41 -18.5 56.5t-63.5 15.5q-84 0 -328 -58l-27 287 q326 72 516 72zM369 276q0 -63 69 -63q131 0 164 190l12 76h-88q-70 0 -100 -33q-23 -25 -40 -77t-17 -93z" glyph-name="aringacute" horiz-adv-x="1110" unicode="ǻ"/><glyph d="M1690 2011l-334 -407h-244l244 407h334zM1833 1128h-442l-41 -231h405l-53 -307h-406l-51 -285h469l-53 -305h-868l55 317h-350l-179 -317h-415l862 1434h1122zM903 625l88 503h-39l-282 -503h233z" glyph-name="AEacute" horiz-adv-x="1837" unicode="Ǽ"/><glyph d="M1343 2011l-333 -407h-244l244 407h333zM1219 1358q154 -115 153 -412q0 -246 -86 -489.5t-213 -354.5q-143 -123 -436 -122q-109 0 -182 14l-56 -96h-252l103 182q-152 119 -152 414q0 248 86 489.5t217 349.5q145 121 433 121q106 0 180 -14l53 96h252zM653 1073 q-47 -57 -92 -226t-55 -312l334 593q-10 2 -31 2q-109 0 -156 -57zM662 303q111 0 159 62q45 59 90 230t54 310l-336 -600q10 -2 33 -2z" glyph-name="Oslashacute" horiz-adv-x="1409" unicode="Ǿ"/><glyph d="M1206 1704l-334 -408h-243l243 408h334zM1004 1059q131 -100 131 -328q0 -184 -64.5 -365.5t-163.5 -269.5q-133 -117 -385 -116q-66 0 -121 6l-63 -113h-252l104 184q-143 98 -143 324q0 207 71.5 395.5t182.5 274.5q127 96 358 96q80 0 138 -8l63 114h252zM659 338 q31 59 58.5 187t27.5 218q0 70 -22.5 96.5t-77.5 26.5q-76 0 -108 -55q-35 -55 -67 -197.5t-32 -236.5q0 -63 21.5 -90t77.5 -27q85 0 122 78z" glyph-name="oslashacute" horiz-adv-x="1179" unicode="ǿ"/><glyph d="M725 1602h-219l-207 411h319zM1169 1602h-219l-205 411h318zM829 0l-6 317h-383l-116 -317h-412l612 1434h598l111 -1434h-404zM555 625h262l-10 503h-66z" glyph-name="uni0200" horiz-adv-x="1341" unicode="Ȁ"/><glyph d="M563 1294h-219l-207 412h320zM1008 1294h-220l-204 412h317zM741 1147q315 0 316 -268q0 -59 -13 -129l-129 -734l-346 -30v129h-12q-86 -135 -274 -135q-287 0 -287 266q0 102 38 191t105 138q94 70 293 70h211l12 72q6 33 7 57q0 41 -18.5 56.5t-63.5 15.5 q-84 0 -328 -58l-27 287q326 72 516 72zM369 276q0 -63 69 -63q131 0 164 190l12 76h-88q-70 0 -100 -33q-23 -25 -40 -77t-17 -93z" glyph-name="uni0201" horiz-adv-x="1110" unicode="ȁ"/><glyph d="M707 1591l-5 -22h-210l8 53q31 160 113.5 234.5t279.5 74.5q156 0 240 -56t84 -189q0 -45 -9 -93l-4 -24h-213l4 22q6 37 6 49q0 45 -28.5 62.5t-85.5 17.5q-90 0 -129 -30.5t-51 -98.5zM829 0l-6 317h-383l-116 -317h-412l612 1434h598l111 -1434h-404zM555 625h262 l-10 503h-66z" glyph-name="uni0202" horiz-adv-x="1341" unicode="Ȃ"/><glyph d="M545 1284l-4 -22h-211l8 53q31 160 114 234.5t279 74.5q156 0 240 -56.5t84 -189.5q0 -45 -8 -92l-5 -24h-213l5 22q6 37 6 49q0 45 -29 62.5t-86 17.5q-90 0 -129 -30.5t-51 -98.5zM741 1147q315 0 316 -268q0 -59 -13 -129l-129 -734l-346 -30v129h-12 q-86 -135 -274 -135q-287 0 -287 266q0 102 38 191t105 138q94 70 293 70h211l12 72q6 33 7 57q0 41 -18.5 56.5t-63.5 15.5q-84 0 -328 -58l-27 287q326 72 516 72zM369 276q0 -63 69 -63q131 0 164 190l12 76h-88q-70 0 -100 -33q-23 -25 -40 -77t-17 -93z" glyph-name="uni0203" horiz-adv-x="1110" unicode="ȃ"/><glyph d="M621 1602h-220l-206 411h319zM1065 1602h-219l-205 411h317zM1090 1128h-445l-41 -231h406l-54 -307h-405l-51 -285h469l-54 -305h-870l252 1434h846z" glyph-name="uni0204" horiz-adv-x="1091" unicode="Ȅ"/><glyph d="M559 1294h-219l-207 412h320zM1004 1294h-220l-204 412h317zM645 1147q217 0 319.5 -89t102.5 -276q0 -100 -39 -280l-8 -43h-604q-4 -57 -4 -78q0 -70 27.5 -97.5t99.5 -27.5q137 0 362 55l21 -266q-238 -66 -424 -65q-446 0 -447 446q0 188 66.5 361.5t171.5 256.5 q127 103 356 103zM457 674h256q12 78 12 127q0 53 -19.5 74.5t-68.5 21.5q-82 0 -121 -63q-28 -45 -59 -160z" glyph-name="uni0205" horiz-adv-x="1101" unicode="ȅ"/><glyph d="M602 1591l-4 -22h-211l8 53q31 160 114 234.5t279 74.5q156 0 240 -56t84 -189q0 -45 -8 -93l-4 -24h-213l4 22q6 37 6 49q0 45 -28.5 62.5t-86.5 17.5q-90 0 -129 -30.5t-51 -98.5zM1090 1128h-445l-41 -231h406l-54 -307h-405l-51 -285h469l-54 -305h-870l252 1434h846 z" glyph-name="uni0206" horiz-adv-x="1091" unicode="Ȇ"/><glyph d="M541 1284l-4 -22h-211l8 53q31 160 113.5 234.5t279.5 74.5q156 0 240 -56.5t84 -189.5q0 -45 -9 -92l-4 -24h-213l4 22q6 37 7 49q0 45 -29 62.5t-86 17.5q-90 0 -129 -30.5t-51 -98.5zM645 1147q217 0 319.5 -89t102.5 -276q0 -100 -39 -280l-8 -43h-604q-4 -57 -4 -78 q0 -70 27.5 -97.5t99.5 -27.5q137 0 362 55l21 -266q-238 -66 -424 -65q-446 0 -447 446q0 188 66.5 361.5t171.5 256.5q127 103 356 103zM457 674h256q12 78 12 127q0 53 -19.5 74.5t-68.5 21.5q-82 0 -121 -63q-28 -45 -59 -160z" glyph-name="uni0207" horiz-adv-x="1101" unicode="ȇ"/><glyph d="M182 1602l-207 411h320l106 -411h-219zM627 1602l-205 411h317l107 -411h-219zM700 1434l-251 -1434h-402l252 1434h401z" glyph-name="uni0208" horiz-adv-x="688" unicode="Ȉ"/><glyph d="M88 1294l-207 412h320l106 -412h-219zM532 1294l-204 412h317l107 -412h-220zM596 1126l-199 -1126h-383l199 1126h383z" glyph-name="uni0209" horiz-adv-x="606" unicode="ȉ"/><glyph d="M168 1569l8 53q31 160 114 234.5t279 74.5q156 0 240 -56t84 -189q0 -45 -8 -93l-4 -24h-213l4 22q6 37 6 49q0 45 -28.5 62.5t-86.5 17.5q-90 0 -129 -30.5t-51 -98.5l-4 -22h-211zM700 1434l-251 -1434h-402l252 1434h401z" glyph-name="uni020A" horiz-adv-x="688" unicode="Ȋ"/><glyph d="M74 1262l8 53q31 160 114 234.5t279 74.5q156 0 240 -56.5t84 -189.5q0 -45 -8 -92l-5 -24h-213l5 22q6 37 6 49q0 45 -29 62.5t-86 17.5q-90 0 -129 -30.5t-51 -98.5l-4 -22h-211zM596 1126l-199 -1126h-383l199 1126h383z" glyph-name="uni020B" horiz-adv-x="606" unicode="ȋ"/><glyph d="M543 1602l-207 411h319l107 -411h-219zM987 1602l-205 411h318l106 -411h-219zM637 -20q-285 0 -412 120.5t-127 393.5q0 248 86 489.5t217 349.5q145 121 433 121q285 0 411.5 -118.5t126.5 -389.5q0 -246 -86 -489.5t-213 -354.5q-143 -122 -436 -122zM662 303 q111 0 159 62q51 63 98.5 256.5t47.5 330.5q0 98 -36 138t-122 40q-109 0 -156 -57q-53 -63 -101 -255.5t-48 -332.5q0 -100 36 -141t122 -41z" glyph-name="uni020C" horiz-adv-x="1409" unicode="Ȍ"/><glyph d="M375 1294l-207 412h319l107 -412h-219zM819 1294l-205 412h318l106 -412h-219zM522 -20q-242 0 -358.5 98t-116.5 303q0 207 71.5 395.5t182.5 274.5q127 96 358 96q244 0 360 -100.5t116 -315.5q0 -184 -64.5 -365.5t-163.5 -269.5q-133 -116 -385 -116zM537 260 q86 0 122 78q31 59 58.5 187t27.5 218q0 70 -22.5 96.5t-77.5 26.5q-76 0 -108 -55q-35 -55 -67 -197.5t-32 -236.5q0 -63 22 -90t77 -27z" glyph-name="uni020D" horiz-adv-x="1179" unicode="ȍ"/><glyph d="M528 1569l9 53q31 160 113.5 234.5t279.5 74.5q156 0 239.5 -56t83.5 -189q0 -45 -8 -93l-4 -24h-213l4 22q6 37 6 49q0 45 -28.5 62.5t-85.5 17.5q-90 0 -129 -30.5t-52 -98.5l-4 -22h-211zM637 -20q-285 0 -412 120.5t-127 393.5q0 248 86 489.5t217 349.5 q145 121 433 121q285 0 411.5 -118.5t126.5 -389.5q0 -246 -86 -489.5t-213 -354.5q-143 -122 -436 -122zM662 303q111 0 159 62q51 63 98.5 256.5t47.5 330.5q0 98 -36 138t-122 40q-109 0 -156 -57q-53 -63 -101 -255.5t-48 -332.5q0 -100 36 -141t122 -41z" glyph-name="uni020E" horiz-adv-x="1409" unicode="Ȏ"/><glyph d="M360 1262l9 53q31 160 113.5 234.5t279.5 74.5q156 0 239.5 -56.5t83.5 -189.5q0 -45 -8 -92l-4 -24h-213l4 22q6 37 6 49q0 45 -28.5 62.5t-85.5 17.5q-90 0 -129 -30.5t-52 -98.5l-4 -22h-211zM522 -20q-242 0 -358.5 98t-116.5 303q0 207 71.5 395.5t182.5 274.5 q127 96 358 96q244 0 360 -100.5t116 -315.5q0 -184 -64.5 -365.5t-163.5 -269.5q-133 -116 -385 -116zM537 260q86 0 122 78q31 59 58.5 187t27.5 218q0 70 -22.5 96.5t-77.5 26.5q-76 0 -108 -55q-35 -55 -67 -197.5t-32 -236.5q0 -63 22 -90t77 -27z" glyph-name="uni020F" horiz-adv-x="1179" unicode="ȏ"/><glyph d="M707 1602h-220l-206 411h319zM1151 1602h-219l-205 411h317zM1087 670q-39 -39 -98 -72l203 -598h-418l-129 522h-104l-92 -522h-402l252 1434h469q264 0 378 -85t114 -262q0 -125 -47.5 -236t-125.5 -181zM651 1157l-67 -385h47q115 0 164 51q31 35 50 99.5t19 117.5 q2 66 -29.5 91.5t-95.5 25.5h-88z" glyph-name="uni0210" horiz-adv-x="1302" unicode="Ȑ"/><glyph d="M418 1294h-219l-207 412h319zM862 1294h-219l-205 412h318zM872 1147q25 0 54 -6l-70 -328q-39 20 -123 21q-98 0 -150.5 -51.5t-76.5 -180.5l-105 -602h-385l197 1110l350 31l-4 -154h14q92 160 299 160z" glyph-name="uni0211" horiz-adv-x="837" unicode="ȑ"/><glyph d="M688 1591l-4 -22h-211l8 53q31 160 114 234.5t279 74.5q156 0 240 -56t84 -189q0 -45 -8 -93l-4 -24h-213l4 22q6 37 6 49q0 45 -28.5 62.5t-86.5 17.5q-90 0 -129 -30.5t-51 -98.5zM1087 670q-39 -39 -98 -72l203 -598h-418l-129 522h-104l-92 -522h-402l252 1434h469 q264 0 378 -85t114 -262q0 -125 -47.5 -236t-125.5 -181zM651 1157l-67 -385h47q115 0 164 51q31 35 50 99.5t19 117.5q2 66 -29.5 91.5t-95.5 25.5h-88z" glyph-name="uni0212" horiz-adv-x="1302" unicode="Ȓ"/><glyph d="M399 1284l-4 -22h-211l9 53q31 160 113.5 234.5t279.5 74.5q156 0 239.5 -56.5t83.5 -189.5q0 -45 -8 -92l-4 -24h-213l4 22q6 37 6 49q0 45 -28.5 62.5t-85.5 17.5q-90 0 -129.5 -30.5t-51.5 -98.5zM872 1147q25 0 54 -6l-70 -328q-39 20 -123 21q-98 0 -150.5 -51.5 t-76.5 -180.5l-105 -602h-385l197 1110l350 31l-4 -154h14q92 160 299 160z" glyph-name="uni0213" horiz-adv-x="837" unicode="ȓ"/><glyph d="M508 1602l-207 411h320l106 -411h-219zM952 1602l-204 411h317l106 -411h-219zM606 -20q-274 0 -390 95t-116 281q0 86 21 219l151 859h400l-164 -942q-10 -51 -10 -82q0 -61 30.5 -83t94.5 -22q90 0 131 44t61 171l162 914h399l-162 -922q-53 -307 -197.5 -419.5 t-410.5 -112.5z" glyph-name="uni0214" horiz-adv-x="1339" unicode="Ȕ"/><glyph d="M606 1294h-219l-207 412h320zM1051 1294h-220l-204 412h317zM817 1126h383l-196 -1110l-349 -30l2 129h-12q-86 -135 -293 -135q-158 0 -225.5 63t-67.5 199q0 76 19 176l125 708h385l-125 -712q-8 -35 -8 -70q0 -47 19.5 -65.5t62.5 -18.5q68 0 105.5 38t51.5 124z" glyph-name="uni0215" horiz-adv-x="1214" unicode="ȕ"/><glyph d="M494 1569l8 53q31 160 113.5 234.5t279.5 74.5q156 0 240 -56t84 -189q0 -45 -9 -93l-4 -24h-213l4 22q6 37 7 49q0 45 -29 62.5t-86 17.5q-90 0 -129 -30.5t-51 -98.5l-4 -22h-211zM606 -20q-274 0 -390 95t-116 281q0 86 21 219l151 859h400l-164 -942q-10 -51 -10 -82 q0 -61 30.5 -83t94.5 -22q90 0 131 44t61 171l162 914h399l-162 -922q-53 -307 -197.5 -419.5t-410.5 -112.5z" glyph-name="uni0216" horiz-adv-x="1339" unicode="Ȗ"/><glyph d="M588 1284l-4 -22h-211l8 53q31 160 114 234.5t279 74.5q156 0 240 -56.5t84 -189.5q0 -45 -8 -92l-5 -24h-213l5 22q6 37 6 49q0 45 -29 62.5t-86 17.5q-90 0 -129 -30.5t-51 -98.5zM817 1126h383l-196 -1110l-349 -30l2 129h-12q-86 -135 -293 -135q-158 0 -225.5 63 t-67.5 199q0 76 19 176l125 708h385l-125 -712q-8 -35 -8 -70q0 -47 19.5 -65.5t62.5 -18.5q68 0 105.5 38t51.5 124z" glyph-name="uni0217" horiz-adv-x="1214" unicode="ȗ"/><glyph d="M778 1143q-225 0 -225 -144q0 -41 25 -69l186 -187q139 -147 139 -325q0 -209 -143.5 -323.5t-413.5 -114.5q-158 0 -389 43l59 301q199 -33 303 -33q86 0 133.5 42t47.5 116q0 49 -37 86l-187 188q-127 133 -126 309q0 422 565 422q129 0 329 -35l-59 -295 q-103 19 -207 19zM154 -416l47 273h303l-47 -273l-168 -319h-168l170 319h-137z" glyph-name="Scommaaccent" horiz-adv-x="980" unicode="Ș"/><glyph d="M537 842q-31 -25 -31 -76q0 -31 31 -51l137 -109q66 -49 96.5 -103t30.5 -134q0 -190 -117 -293q-104 -96 -356 -96q-160 0 -359 36l51 267q123 -23 224 -23q88 0 114 25q29 27 29 77q0 45 -37 72l-162 121q-88 66 -88 205q0 215 129 315q94 72 299 72q131 0 365 -39 l-51 -268q-139 27 -215 26q-65 1 -90 -24zM125 -416l47 273h303l-47 -273l-168 -319h-168l170 319h-137z" glyph-name="scommaaccent" horiz-adv-x="876" unicode="ș"/><glyph d="M1147 1434l-53 -306h-285l-199 -1128h-399l199 1128h-291l55 306h973zM184 -416l47 273h304l-48 -273l-168 -319h-167l170 319h-138z" glyph-name="uni021A" horiz-adv-x="1013" unicode="Ț"/><glyph d="M602 881l-90 -514q-8 -49 -8 -68q0 -39 43 -39q37 0 74 10l-5 -276q-84 -14 -217 -14q-154 0 -220 59t-66 172q0 45 10 111l98 559h-149l43 245h149l47 273h383l-47 -273h178l-43 -245h-180zM86 -416l47 273h303l-47 -273l-168 -319h-168l170 319h-137z" glyph-name="uni021B" horiz-adv-x="780" unicode="ț"/><glyph d="M729 1595l-192 408h241l148 -227l225 227h258l-338 -408h-342zM1042 1434h400l-252 -1434h-399l104 590h-344l-105 -590h-401l252 1434h401l-94 -537h344z" glyph-name="uni021E" horiz-adv-x="1431" unicode="Ȟ"/><glyph d="M494 1647l-193 407h242l147 -227l225 227h259l-338 -407h-342zM879 1147q158 0 229.5 -62.5t71.5 -199.5q0 -72 -19 -176l-125 -709h-383l125 713q8 39 8 71q0 45 -20.5 63.5t-69.5 18.5q-74 0 -114.5 -42t-57.5 -134l-123 -690h-385l271 1536h385l-86 -496h8 q86 107 285 107z" glyph-name="uni021F" horiz-adv-x="1234" unicode="ȟ"/><glyph d="M1180 1882l-47 -254h-619l45 254h621zM1421 1434l-612 -975l-80 -459h-399l90 512l-258 922h405l101 -594h28l312 594h413z" glyph-name="uni0232" horiz-adv-x="1267" unicode="Ȳ"/><glyph d="M1042 1575l-47 -254h-618l45 254h620zM791 1126h405l-481 -1159q-84 -205 -208 -280.5t-306 -75.5q-111 0 -250 33l47 252q111 -16 197 -17q98 0 152 38t89 138l4 11h-268l-63 1060h397l-23 -796h43z" glyph-name="uni0233" horiz-adv-x="1097" unicode="ȳ"/><glyph d="M-31 -389q-139 0 -250 27l48 249q37 -6 94 -6q66 0 92.5 38t44.5 142l188 1065h383l-207 -1167q-37 -207 -128 -277.5t-265 -70.5z" glyph-name="uni0237" horiz-adv-x="583" unicode="ȷ"/><glyph d="M1026 1288h-244l-145 225l-225 -225h-258l335 408h342z" glyph-name="circumflex" horiz-adv-x="927" unicode="ˆ"/><glyph d="M848 1696h258l-338 -408h-342l-193 408h242l148 -228z" glyph-name="caron" horiz-adv-x="927" unicode="ˇ"/><glyph d="M567 1262q-174 0 -248.5 63.5t-74.5 179.5q0 51 8 94l6 25h213l-8 -39q-4 -12 -4 -31q0 -80 125 -79q82 0 118.5 29.5t53.5 109.5l4 10h211l-10 -53q-31 -176 -129.5 -242.5t-264.5 -66.5z" glyph-name="breve" horiz-adv-x="849" unicode="˘"/><glyph d="M299 1595h303l-49 -274h-303z" glyph-name="dotaccent" horiz-adv-x="534" unicode="˙"/><glyph d="M500 1237q-143 0 -200.5 52t-57.5 155q0 129 53 201q72 98 248 98q141 0 198.5 -52.5t57.5 -154.5q0 -125 -54 -203q-67 -96 -245 -96zM510 1376q72 0 98 41q27 37 27 99q0 45 -22.5 65.5t-80.5 20.5q-72 0 -102 -39q-25 -39 -24 -97q0 -47 23.5 -68.5t80.5 -21.5z" glyph-name="ring" horiz-adv-x="704" unicode="˚"/><glyph d="M352 -483q-43 -4 -100 -4q-150 0 -239 56t-89 175q0 168 185 299l215 -43q-143 -96 -144 -205q0 -82 148 -82z" glyph-name="ogonek" horiz-adv-x="561" unicode="˛"/><glyph d="M713 1276q-84 0 -140 49l-67 57q-20 18 -53 19q-63 0 -95 -101h-157q25 141 105.5 229.5t187.5 88.5q76 0 143 -51l68 -54q27 -23 55 -22q53 0 88 102h158q-25 -154 -103.5 -235.5t-189.5 -81.5z" glyph-name="tilde" horiz-adv-x="886" unicode="˜"/><glyph d="M170 1294l254 412h332l-353 -412h-233zM616 1294l252 412h332l-350 -412h-234z" glyph-name="hungarumlaut" horiz-adv-x="1030" unicode="˝"/><glyph d="M-145 1296l-193 408h322l100 -408h-229z" glyph-name="gravecomb" unicode="̀"/><glyph d="M-412 1296l244 408h334l-334 -408h-244z" glyph-name="acutecomb" unicode="́"/><glyph d="M96 1288h-243l-146 225l-225 -225h-258l336 408h342z" glyph-name="uni0302" unicode="̂"/><glyph d="M-180 1276q-84 0 -139 49l-68 57q-20 18 -53 19q-63 0 -95 -101h-157q25 141 105.5 229.5t187.5 88.5q76 0 143 -51l68 -54q27 -23 55 -22q53 0 88 102h158q-25 -154 -103.5 -235.5t-189.5 -81.5z" glyph-name="tildecomb" unicode="̃"/><glyph d="M-557 1575h620l-47 -254h-618z" glyph-name="uni0304" unicode="̄"/><glyph d="M-285 1262q-174 0 -248.5 63.5t-74.5 179.5q0 51 8 94l6 25h213l-8 -39q-4 -12 -4 -31q0 -80 125 -79q82 0 118.5 29.5t53.5 109.5l4 10h211l-10 -53q-31 -176 -129.5 -242.5t-264.5 -66.5z" glyph-name="uni0306" unicode="̆"/><glyph d="M-238 1595h304l-50 -274h-303z" glyph-name="uni0307" unicode="̇"/><glyph d="M-711 1595h303l-49 -272h-303zM-236 1595h304l-50 -272h-303z" glyph-name="uni0308" unicode="̈"/><glyph d="M-270 1278q14 92 32.5 131t53.5 61l47 29q29 20 37 29q10 14 10 26q0 23 -49 23q-33 0 -119 -8l-8 151q88 12 174 13q119 0 168 -34t49 -104q0 -57 -19 -100q-14 -37 -53 -63l-90 -64q-59 -43 -74 -90h-159z" glyph-name="hookabovecomb" unicode="̉"/><glyph d="M-207 1237q-143 0 -200.5 52t-57.5 155q0 129 53 201q72 98 248 98q141 0 198.5 -52.5t57.5 -154.5q0 -125 -53 -203q-68 -96 -246 -96zM-197 1376q72 0 99 41q27 37 26 99q0 45 -22.5 65.5t-79.5 20.5q-72 0 -102 -39q-25 -39 -25 -97q0 -47 23.5 -68.5t80.5 -21.5z" glyph-name="uni030A" unicode="̊"/><glyph d="M-862 1294l254 412h332l-353 -412h-233zM-416 1294l252 412h332l-350 -412h-234z" glyph-name="uni030B" unicode="̋"/><glyph d="M-82 1696h258l-338 -408h-342l-192 408h241l148 -228z" glyph-name="uni030C" unicode="̌"/><glyph d="M-573 1294l-207 412h319l107 -412h-219zM-129 1294l-205 412h318l106 -412h-219z" glyph-name="uni030F" unicode="̏"/><glyph d="M-655 1262l8 53q31 160 113.5 234.5t279.5 74.5q156 0 240 -56.5t84 -189.5q0 -45 -9 -92l-4 -24h-213l4 22q6 37 7 49q0 45 -29 62.5t-86 17.5q-90 0 -129 -30.5t-51 -98.5l-4 -22h-211z" glyph-name="uni0311" unicode="̑"/><glyph d="M78 1915l-168 -320h135l-49 -274h-303l49 274l170 320h166z" glyph-name="uni0312" unicode="̒"/><glyph d="M-322 1165l11 178q170 0 194 142l35 203h211l-41 -232q-31 -176 -119 -233.5t-291 -57.5z" glyph-name="uni031B" unicode="̛"/><glyph d="M-543 -143h303l-47 -273h-303z" glyph-name="dotbelowcomb" unicode="̣"/><glyph d="M-569 -143h303l-47 -273l-168 -319h-168l170 319h-137z" glyph-name="uni0326" unicode="̦"/><glyph d="M-371 -92q178 -20 178 -168q0 -119 -69 -182q-72 -66 -197 -66q-109 0 -221 43l14 125q43 -18 97 -18q66 0 98 26q29 29 29 72q0 37 -62 37h-100l108 295h203z" glyph-name="uni0327" unicode="̧"/><glyph d="M-211 -483q-43 -4 -100 -4q-150 0 -239 56t-89 175q0 168 184 299l215 -43q-143 -96 -143 -205q0 -82 147 -82z" glyph-name="uni0328" unicode="̨"/><glyph d="M-842 705h762l-45 -259h-762z" glyph-name="uni0335" unicode="̵"/><glyph d="M-1098 772h1020l-51 -274h-1018z" glyph-name="uni0336" unicode="̶"/><glyph d="M-852 -102l733 1331h264l-733 -1331h-264z" glyph-name="uni0337" unicode="̷"/><glyph d="M-967 -102l901 1638h265l-901 -1638h-265z" glyph-name="uni0338" unicode="̸"/><glyph d="M1042 1903l-49 -275h-303l49 275h303zM1042 733q160 -61 160 -254q0 -109 -38 -208t-103 -158q-125 -113 -445 -113h-569l252 1434h522q463 0 463 -301q0 -205 -127 -316q-49 -43 -113 -65zM823 895q27 27 45.5 77t18.5 99q0 51 -33 70.5t-119 19.5h-84l-55 -313h61 q119 0 166 47zM754 344q55 55 55 162q0 63 -35 85.5t-129 22.5h-90l-57 -329h69q128 0 187 59z" glyph-name="uni1E02" horiz-adv-x="1306" unicode="Ḃ"/><glyph d="M1096 1595l-49 -274h-304l50 274h303zM813 1147q174 0 258 -97.5t84 -301.5q0 -184 -57.5 -374t-141.5 -282q-106 -113 -294.5 -112.5t-235.5 135.5h-20l-46 -129l-340 30l267 1520h385l-84 -473q75 84 225 84zM659 309q35 53 73 207t38 250q0 57 -19.5 78.5t-68.5 21.5 q-66 0 -103.5 -40t-52.5 -128l-47 -268q-8 -43 -8 -86q0 -45 18.5 -64.5t63.5 -19.5q73 0 106 49z" glyph-name="uni1E03" horiz-adv-x="1200" unicode="ḃ"/><glyph d="M946 1903l-49 -275h-303l49 275h303zM1063 1128h-418l-49 -272h381l-53 -307h-381l-97 -549h-401l252 1434h819z" glyph-name="uni1E1E" horiz-adv-x="1026" unicode="Ḟ"/><glyph d="M891 1903l-49 -275h-303l49 275h303zM827 1282q-76 0 -111.5 -32.5t-56.5 -123.5h199l-43 -245h-199l-155 -881h-383l153 881h-161l43 245h161l9 41q39 219 142 300t296 81q135 0 246 -24l-49 -250q-34 8 -91 8z" glyph-name="uni1E1F" horiz-adv-x="780" unicode="ḟ"/><glyph d="M1251 1903l-49 -275h-303l49 275h303zM1733 1434l-252 -1434h-365l168 954h-10l-287 -620l-6 4v-4h-313l2 6l-11 -6l-69 620h-10l-168 -954h-365l252 1434h496l90 -707h6l336 707h506z" glyph-name="uni1E40" horiz-adv-x="1720" unicode="Ṁ"/><glyph d="M1241 1595l-49 -274h-303l49 274h303zM1464 1147q154 0 221.5 -63.5t67.5 -196.5q0 -76 -18 -178l-125 -709h-383l125 713q10 51 10 80q0 41 -17.5 57t-58.5 16q-129 0 -160 -172l-122 -694h-383l127 713q10 55 10 82q0 41 -17.5 56t-60.5 15q-63 0 -102 -40t-56 -134 l-121 -692h-385l197 1110l348 31l-2 -131h8q88 137 295 137q225 0 271 -146h18q94 146 313 146z" glyph-name="uni1E41" horiz-adv-x="1810" unicode="ṁ"/><glyph d="M1014 1903l-49 -275h-303l49 275h303zM784 1434q256 0 373 -87t117 -278q0 -147 -60.5 -291.5t-154.5 -220.5q-127 -100 -424 -100h-107l-79 -457h-402l252 1434h485zM791 791q35 37 60.5 112.5t25.5 138.5q0 61 -35 87t-119 26h-72l-73 -420h51q109 1 162 56z" glyph-name="uni1E56" horiz-adv-x="1243" unicode="Ṗ"/><glyph d="M936 1595l-49 -274h-303l49 274h303zM825 1147q178 0 256 -94.5t78 -274.5q0 -166 -52 -364.5t-144 -304.5q-111 -129 -312 -129q-152 0 -211 79h-28l-76 -428h-385l262 1479l346 31v-119h16q76 125 250 125zM678 336q31 66 59.5 208t28.5 220q0 57 -19.5 79.5 t-66.5 22.5q-68 0 -105.5 -46t-58.5 -154l-39 -230q-8 -53 -8 -78q0 -98 88 -98t121 76z" glyph-name="uni1E57" horiz-adv-x="1200" unicode="ṗ"/><glyph d="M571 1903h303l-49 -275h-303zM346 -20q-158 0 -389 43l59 301q199 -33 303 -33q86 0 133.5 42t47.5 116q0 49 -37 86l-187 188q-127 133 -126 309q0 422 565 422q129 0 329 -35l-59 -295q-102 18 -207 19q-225 0 -225 -144q0 -41 25 -69l186 -187q139 -147 139 -325 q0 -209 -143.5 -323.5t-413.5 -114.5z" glyph-name="uni1E60" horiz-adv-x="980" unicode="Ṡ"/><glyph d="M475 1595h303l-49 -274h-303zM328 -20q-160 0 -359 36l51 267q123 -23 224 -23q88 0 114 25q29 27 29 77q0 45 -37 72l-162 121q-88 66 -88 205q0 215 129 315q94 72 299 72q131 0 365 -39l-51 -268q-139 27 -215 26q-66 0 -90 -24q-31 -25 -31 -76q0 -31 31 -51 l137 -109q66 -49 96.5 -103t30.5 -134q0 -190 -117 -293q-104 -96 -356 -96z" glyph-name="uni1E61" horiz-adv-x="876" unicode="ṡ"/><glyph d="M895 1903l-49 -275h-303l49 275h303zM1147 1434l-53 -306h-285l-199 -1128h-399l199 1128h-291l55 306h973z" glyph-name="uni1E6A" horiz-adv-x="1013" unicode="Ṫ"/><glyph d="M719 1757l-49 -274h-303l49 274h303zM602 881l-90 -514q-8 -49 -8 -68q0 -39 43 -39q37 0 74 10l-5 -276q-84 -14 -217 -14q-154 0 -220 59t-66 172q0 45 10 111l98 559h-149l43 245h149l47 273h383l-47 -273h178l-43 -245h-180z" glyph-name="uni1E6B" horiz-adv-x="780" unicode="ṫ"/><glyph d="M1231 1604h-230l-192 407h321zM1608 1434h409l-475 -1434h-530l47 1128h-31l-350 -1128h-531l29 1434h406l-86 -1129h34l336 1129h459l-63 -1129h34z" glyph-name="Wgrave" horiz-adv-x="1882" unicode="Ẁ"/><glyph d="M1159 1296h-229l-193 408h322zM1530 1126h405l-409 -1126h-551l16 860h-30l-289 -860h-549l-12 1126h399l-61 -860h36l285 860h496l-17 -860h39z" glyph-name="wgrave" horiz-adv-x="1839" unicode="ẁ"/><glyph d="M1585 2011l-334 -407h-243l243 407h334zM1608 1434h409l-475 -1434h-530l47 1128h-31l-350 -1128h-531l29 1434h406l-86 -1129h34l336 1129h459l-63 -1129h34z" glyph-name="Wacute" horiz-adv-x="1882" unicode="Ẃ"/><glyph d="M1513 1704l-333 -408h-244l244 408h333zM1530 1126h405l-409 -1126h-551l16 860h-30l-289 -860h-549l-12 1126h399l-61 -860h36l285 860h496l-17 -860h39z" glyph-name="wacute" horiz-adv-x="1839" unicode="ẃ"/><glyph d="M1094 1903l-50 -273h-303l50 273h303zM1569 1903l-49 -273h-303l49 273h303zM1608 1434h409l-475 -1434h-530l47 1128h-31l-350 -1128h-531l29 1434h406l-86 -1129h34l336 1129h459l-63 -1129h34z" glyph-name="Wdieresis" horiz-adv-x="1882" unicode="Ẅ"/><glyph d="M1022 1595l-49 -272h-303l49 272h303zM1497 1595l-49 -272h-303l49 272h303zM1530 1126h405l-409 -1126h-551l16 860h-30l-289 -860h-549l-12 1126h399l-61 -860h36l285 860h496l-17 -860h39z" glyph-name="wdieresis" horiz-adv-x="1839" unicode="ẅ"/><glyph d="M1165 805l64 -64q76 -80 110.5 -144.5t34.5 -143.5q0 -238 -141 -355.5t-385 -117.5q-121 0 -238 22l62 301q76 -12 123 -12q82 0 135 42t53 116q0 49 -41 81l-178 127l31 199l219 264q-41 18 -129 19q-180 0 -203 -144l-176 -995h-400l189 1067q39 223 172 305t442 82 q279 0 475 -90l-34 -277l-176 -237z" glyph-name="uni1E9E" horiz-adv-x="1447" unicode="ẞ"/><glyph d="M1233 0h-404l-6 317h-383l-116 -317h-412l612 1434h598zM555 625h262l-10 503h-66zM348 -416l47 273h303l-47 -273h-303z" glyph-name="uni1EA0" horiz-adv-x="1341" unicode="Ạ"/><glyph d="M741 1147q315 0 316 -268q0 -59 -13 -129l-129 -734l-346 -30v129h-12q-86 -135 -274 -135q-287 0 -287 266q0 102 38 191t105 138q94 70 293 70h211l12 72q6 33 7 57q0 41 -18.5 56.5t-63.5 15.5q-84 0 -328 -58l-27 287q326 72 516 72zM369 276q0 -63 69 -63 q131 0 164 190l12 76h-88q-70 0 -100 -33q-23 -25 -40 -77t-17 -93zM242 -416l47 273h303l-47 -273h-303z" glyph-name="uni1EA1" horiz-adv-x="1110" unicode="ạ"/><glyph d="M903 1827q29 20 37 28q10 14 10 27q0 23 -49 23q-33 0 -119 -9l-8 152q88 12 174 12q119 0 168 -33.5t49 -103.5q0 -57 -18 -100q-14 -37 -53 -64l-90 -63q-59 -43 -74 -90h-160q14 92 32.5 131t53.5 61zM829 0l-6 317h-383l-116 -317h-412l612 1434h598l111 -1434h-404z M555 625h262l-10 503h-66z" glyph-name="uni1EA2" horiz-adv-x="1341" unicode="Ả"/><glyph d="M741 1520q29 20 37 28q10 14 10 27q0 23 -49 22q-33 0 -118 -8l-9 152q88 12 174 12q119 0 168.5 -33.5t49.5 -103.5q0 -57 -19 -100q-14 -37 -53 -64l-90 -63q-59 -43 -74 -91h-160q14 92 32.5 131t53.5 62zM741 1147q315 0 316 -268q0 -59 -13 -129l-129 -734l-346 -30 v129h-12q-86 -135 -274 -135q-287 0 -287 266q0 102 38 191t105 138q94 70 293 70h211l12 72q6 33 7 57q0 41 -18.5 56.5t-63.5 15.5q-84 0 -328 -58l-27 287q326 72 516 72zM369 276q0 -63 69 -63q131 0 164 190l12 76h-88q-70 0 -100 -33q-23 -25 -40 -77t-17 -93z" glyph-name="uni1EA3" horiz-adv-x="1110" unicode="ả"/><glyph d="M1479 2251h338l-336 -408h-244zM1092 2003l194 -408h-244l-145 226l-225 -226h-258l336 408h342zM1122 1434l111 -1434h-404l-6 317h-383l-116 -317h-412l612 1434h598zM555 625h262l-10 503h-66z" glyph-name="uni1EA4" horiz-adv-x="1341" unicode="Ấ"/><glyph d="M1317 1944h338l-336 -408h-244zM930 1696l194 -408h-243l-146 225l-225 -225h-258l336 408h342zM741 1147q315 0 316 -268q0 -59 -13 -129l-129 -734l-346 -30v129h-12q-86 -135 -274 -135q-287 0 -287 266q0 102 38 191t105 138q94 70 293 70h211l12 72q6 33 7 57 q0 41 -18.5 56.5t-63.5 15.5q-84 0 -328 -58l-27 287q326 72 516 72zM369 276q0 -63 69 -63q131 0 164 190l12 76h-88q-70 0 -100 -33q-23 -25 -40 -77t-17 -93z" glyph-name="uni1EA5" horiz-adv-x="1110" unicode="ấ"/><glyph d="M1434 2251l96 -408h-225l-191 408h320zM1092 2003l194 -408h-244l-145 226l-225 -226h-258l336 408h342zM1122 1434l111 -1434h-404l-6 317h-383l-116 -317h-412l612 1434h598zM555 625h262l-10 503h-66z" glyph-name="uni1EA6" horiz-adv-x="1341" unicode="Ầ"/><glyph d="M1272 1944l96 -408h-225l-191 408h320zM930 1696l194 -408h-243l-146 225l-225 -225h-258l336 408h342zM741 1147q315 0 316 -268q0 -59 -13 -129l-129 -734l-346 -30v129h-12q-86 -135 -274 -135q-287 0 -287 266q0 102 38 191t105 138q94 70 293 70h211l12 72 q6 33 7 57q0 41 -18.5 56.5t-63.5 15.5q-84 0 -328 -58l-27 287q326 72 516 72zM369 276q0 -63 69 -63q131 0 164 190l12 76h-88q-70 0 -100 -33q-23 -25 -40 -77t-17 -93z" glyph-name="uni1EA7" horiz-adv-x="1110" unicode="ầ"/><glyph d="M1423 2298q117 0 167 -34t50 -103q0 -47 -16 -97q-14 -37 -55 -67l-90 -64q-61 -43 -72 -90h-162q14 92 32.5 130t53.5 61l35 22q49 31 53 39q6 10 6 23q0 14 -9 18t-40 4q-53 0 -119 -6l-8 152q88 12 174 12zM1092 2003l194 -408h-244l-147 226l-225 -226h-256l336 408 h342zM1122 1434l111 -1434h-404l-6 317h-383l-116 -317h-412l612 1434h598zM555 625h262l-10 503h-66z" glyph-name="uni1EA8" horiz-adv-x="1341" unicode="Ẩ"/><glyph d="M1262 1991q117 0 167 -34t50 -104q0 -47 -17 -96q-14 -37 -55 -67l-90 -64q-61 -43 -72 -90h-162q14 92 33 130t53 60l35 23q49 31 53 39q6 10 7 22q0 14 -9.5 18.5t-40.5 4.5q-55 0 -118 -6l-9 151q89 13 175 13zM930 1696l194 -408h-243l-148 225l-225 -225h-256 l336 408h342zM741 1147q315 0 316 -268q0 -59 -13 -129l-129 -734l-346 -30v129h-12q-86 -135 -274 -135q-287 0 -287 266q0 102 38 191t105 138q94 70 293 70h211l12 72q6 33 7 57q0 41 -18.5 56.5t-63.5 15.5q-84 0 -328 -58l-27 287q326 72 516 72zM369 276q0 -63 69 -63 q131 0 164 190l12 76h-88q-70 0 -100 -33q-23 -25 -40 -77t-17 -93z" glyph-name="uni1EA9" horiz-adv-x="1110" unicode="ẩ"/><glyph d="M813 2195q-63 0 -92 -102h-158q25 143 105 230t188 87q78 0 143 -51l66 -53q31 -23 55 -22q51 0 90 102h156q-27 -152 -103.5 -235t-187.5 -83q-78 0 -139 50l-68 57q-26 20 -55 20zM1092 2003l194 -408h-244l-147 226l-225 -226h-256l336 408h342zM1122 1434l111 -1434 h-404l-6 317h-383l-116 -317h-412l612 1434h598zM555 625h262l-10 503h-66z" glyph-name="uni1EAA" horiz-adv-x="1341" unicode="Ẫ"/><glyph d="M651 1888q-63 0 -92 -102h-158q25 143 105 230t188 87q76 0 144 -51l65 -53q31 -23 55 -23q51 0 91 103h155q-27 -152 -103.5 -235t-187.5 -83q-78 0 -139 49l-67 58q-27 20 -56 20zM930 1696l194 -408h-243l-148 225l-225 -225h-256l336 408h342zM741 1147 q315 0 316 -268q0 -59 -13 -129l-129 -734l-346 -30v129h-12q-86 -135 -274 -135q-287 0 -287 266q0 102 38 191t105 138q94 70 293 70h211l12 72q6 33 7 57q0 41 -18.5 56.5t-63.5 15.5q-84 0 -328 -58l-27 287q326 72 516 72zM369 276q0 -63 69 -63q131 0 164 190l12 76 h-88q-70 0 -100 -33q-23 -25 -40 -77t-17 -93z" glyph-name="uni1EAB" horiz-adv-x="1110" unicode="ẫ"/><glyph d="M897 1821l-225 -226h-258l336 408h342l194 -408h-244zM1122 1434l111 -1434h-404l-6 317h-383l-116 -317h-412l612 1434h598zM555 625h262l-10 503h-66zM348 -416l47 273h303l-47 -273h-303z" glyph-name="uni1EAC" horiz-adv-x="1341" unicode="Ậ"/><glyph d="M735 1513l-225 -225h-258l336 408h342l194 -408h-243zM741 1147q315 0 316 -268q0 -59 -13 -129l-129 -734l-346 -30v129h-12q-86 -135 -274 -135q-287 0 -287 266q0 102 38 191t105 138q94 70 293 70h211l12 72q6 33 7 57q0 41 -18.5 56.5t-63.5 15.5q-84 0 -328 -58 l-27 287q326 72 516 72zM369 276q0 -63 69 -63q131 0 164 190l12 76h-88q-70 0 -100 -33q-23 -25 -40 -77t-17 -93zM242 -416l47 273h303l-47 -273h-303z" glyph-name="uni1EAD" horiz-adv-x="1110" unicode="ậ"/><glyph d="M1370 2378l-336 -408h-241l243 408h334zM1053 1921l4 10h211l-11 -53q-31 -176 -129 -242.5t-264 -66.5q-174 0 -248.5 63.5t-74.5 179.5q0 51 8 95l6 24h213l-8 -39q-4 -12 -4 -32q0 -78 121 -78q84 0 122 29.5t54 109.5zM1122 1434l111 -1434h-404l-6 317h-383 l-116 -317h-412l612 1434h598zM555 625h262l-10 503h-66z" glyph-name="uni1EAE" horiz-adv-x="1341" unicode="Ắ"/><glyph d="M1208 2071l-336 -408h-241l243 408h334zM891 1614l4 10h211l-10 -53q-31 -176 -129.5 -242.5t-264.5 -66.5q-174 0 -248.5 63.5t-74.5 179.5q0 51 8 94l6 25h213l-8 -39q-4 -12 -4 -33q0 -78 121 -77q84 0 122 29.5t54 109.5zM741 1147q315 0 316 -268q0 -59 -13 -129 l-129 -734l-346 -30v129h-12q-86 -135 -274 -135q-287 0 -287 266q0 102 38 191t105 138q94 70 293 70h211l12 72q6 33 7 57q0 41 -18.5 56.5t-63.5 15.5q-84 0 -328 -58l-27 287q326 72 516 72zM369 276q0 -63 69 -63q131 0 164 190l12 76h-88q-70 0 -100 -33 q-23 -25 -40 -77t-17 -93z" glyph-name="uni1EAF" horiz-adv-x="1110" unicode="ắ"/><glyph d="M1036 1972h-227l-193 408h320zM1057 1931h211l-11 -53q-31 -176 -129 -242.5t-264 -66.5q-174 0 -248.5 63.5t-74.5 179.5q0 51 8 95l6 24h213l-8 -39q-4 -12 -4 -32q0 -78 121 -78q84 0 121.5 29.5t54.5 109.5zM1122 1434l111 -1434h-404l-6 317h-383l-116 -317h-412 l612 1434h598zM555 625h262l-10 503h-66z" glyph-name="uni1EB0" horiz-adv-x="1341" unicode="Ằ"/><glyph d="M874 1665h-227l-192 408h319zM895 1624h211l-10 -53q-31 -176 -129.5 -242.5t-264.5 -66.5q-174 0 -248.5 63.5t-74.5 179.5q0 51 8 94l6 25h213l-8 -39q-4 -12 -4 -33q0 -78 121 -77q84 0 121.5 29.5t54.5 109.5zM741 1147q315 0 316 -268q0 -59 -13 -129l-129 -734 l-346 -30v129h-12q-86 -135 -274 -135q-287 0 -287 266q0 102 38 191t105 138q94 70 293 70h211l12 72q6 33 7 57q0 41 -18.5 56.5t-63.5 15.5q-84 0 -328 -58l-27 287q326 72 516 72zM369 276q0 -63 69 -63q131 0 164 190l12 76h-88q-70 0 -100 -33q-23 -25 -40 -77 t-17 -93z" glyph-name="uni1EB1" horiz-adv-x="1110" unicode="ằ"/><glyph d="M948 2159q49 31 53 39q8 12 9 22q0 23 -52 23q-53 0 -116 -7l-11 152q90 12 175 12q119 0 169 -33.5t50 -103.5q0 -45 -17 -98q-14 -37 -57 -68l-90 -61q-57 -41 -72 -90h-160q14 92 32 130t52 60zM1057 1931h211l-11 -53q-31 -176 -129 -242.5t-264 -66.5 q-174 0 -248.5 63.5t-74.5 179.5q0 51 8 95l6 24h213l-8 -39q-4 -12 -4 -32q0 -78 121 -78q84 0 121.5 29.5t54.5 109.5zM1122 1434l111 -1434h-404l-6 317h-383l-116 -317h-412l612 1434h598zM555 625h262l-10 503h-66z" glyph-name="uni1EB2" horiz-adv-x="1341" unicode="Ẳ"/><glyph d="M786 1851q49 31 54 39q8 12 8 23q0 23 -51.5 22.5t-116.5 -6.5l-10 152q90 12 174 12q119 0 169 -34t50 -103q0 -45 -16 -98q-14 -37 -58 -68l-90 -61q-57 -41 -72 -91h-159q14 92 31.5 130t52.5 61zM895 1624h211l-10 -53q-31 -176 -129.5 -242.5t-264.5 -66.5 q-174 0 -248.5 63.5t-74.5 179.5q0 51 8 94l6 25h213l-8 -39q-4 -12 -4 -33q0 -78 121 -77q84 0 121.5 29.5t54.5 109.5zM741 1147q315 0 316 -268q0 -59 -13 -129l-129 -734l-346 -30v129h-12q-86 -135 -274 -135q-287 0 -287 266q0 102 38 191t105 138q94 70 293 70h211 l12 72q6 33 7 57q0 41 -18.5 56.5t-63.5 15.5q-84 0 -328 -58l-27 287q326 72 516 72zM369 276q0 -63 69 -63q131 0 164 190l12 76h-88q-70 0 -100 -33q-23 -25 -40 -77t-17 -93z" glyph-name="uni1EB3" horiz-adv-x="1110" unicode="ẳ"/><glyph d="M811 2124q-61 0 -94 -103h-158q25 141 105.5 230.5t187.5 89.5q74 0 143 -53l68 -52q27 -23 53 -22q55 0 90 100h158q-27 -152 -104.5 -233.5t-188.5 -81.5q-84 0 -139 49l-68 55q-22 21 -53 21zM1053 1921l4 10h211l-11 -53q-31 -176 -129 -242.5t-264 -66.5 q-326 0 -325 243q0 39 10 95l6 24h211l-8 -39q-2 -12 -2 -32q0 -78 121 -78q84 0 122 29.5t54 109.5zM1122 1434l111 -1434h-404l-6 317h-383l-116 -317h-412l612 1434h598zM555 625h262l-10 503h-66z" glyph-name="uni1EB4" horiz-adv-x="1341" unicode="Ẵ"/><glyph d="M649 1817q-61 0 -94 -103h-158q25 141 106 230.5t187 89.5q74 0 144 -54l67 -51q27 -23 53 -22q55 0 90 100h158q-27 -152 -104.5 -233.5t-188.5 -81.5q-84 0 -139 49l-68 55q-22 21 -53 21zM891 1614l4 10h211l-10 -53q-31 -176 -129.5 -242.5t-264.5 -66.5 q-326 0 -325 243q0 39 10 94l6 25h211l-8 -39q-2 -12 -2 -33q0 -78 121 -77q84 0 122 29.5t54 109.5zM741 1147q315 0 316 -268q0 -59 -13 -129l-129 -734l-346 -30v129h-12q-86 -135 -274 -135q-287 0 -287 266q0 102 38 191t105 138q94 70 293 70h211l12 72q6 33 7 57 q0 41 -18.5 56.5t-63.5 15.5q-84 0 -328 -58l-27 287q326 72 516 72zM369 276q0 -63 69 -63q131 0 164 190l12 76h-88q-70 0 -100 -33q-23 -25 -40 -77t-17 -93z" glyph-name="uni1EB5" horiz-adv-x="1110" unicode="ẵ"/><glyph d="M1057 1931h211l-11 -53q-31 -176 -129 -242.5t-264 -66.5q-174 0 -248.5 63.5t-74.5 179.5q0 51 8 95l6 24h213l-8 -39q-4 -12 -4 -30q0 -80 125 -80q82 0 118.5 29.5t53.5 109.5zM1122 1434l111 -1434h-404l-6 317h-383l-116 -317h-412l612 1434h598zM555 625h262 l-10 503h-66zM348 -416l47 273h303l-47 -273h-303z" glyph-name="uni1EB6" horiz-adv-x="1341" unicode="Ặ"/><glyph d="M895 1624h211l-10 -53q-31 -176 -129.5 -242.5t-264.5 -66.5q-174 0 -248.5 63.5t-74.5 179.5q0 51 8 94l6 25h213l-8 -39q-4 -12 -4 -31q0 -80 125 -79q82 0 118.5 29.5t53.5 109.5zM741 1147q315 0 316 -268q0 -59 -13 -129l-129 -734l-346 -30v129h-12 q-86 -135 -274 -135q-287 0 -287 266q0 102 38 191t105 138q94 70 293 70h211l12 72q6 33 7 57q0 41 -18.5 56.5t-63.5 15.5q-84 0 -328 -58l-27 287q326 72 516 72zM369 276q0 -63 69 -63q131 0 164 190l12 76h-88q-70 0 -100 -33q-23 -25 -40 -77t-17 -93zM242 -416 l47 273h303l-47 -273h-303z" glyph-name="uni1EB7" horiz-adv-x="1110" unicode="ặ"/><glyph d="M1090 1128h-445l-41 -231h406l-54 -307h-405l-51 -285h469l-54 -305h-870l252 1434h846zM283 -416l47 273h303l-47 -273h-303z" glyph-name="uni1EB8" horiz-adv-x="1091" unicode="Ẹ"/><glyph d="M645 1147q217 0 319.5 -89t102.5 -276q0 -100 -39 -280l-8 -43h-604q-4 -57 -4 -78q0 -70 27.5 -97.5t99.5 -27.5q137 0 362 55l21 -266q-238 -66 -424 -65q-446 0 -447 446q0 188 66.5 361.5t171.5 256.5q127 103 356 103zM457 674h256q12 78 12 127q0 53 -19.5 74.5 t-68.5 21.5q-82 0 -121 -63q-28 -45 -59 -160zM225 -416l47 273h303l-47 -273h-303z" glyph-name="uni1EB9" horiz-adv-x="1101" unicode="ẹ"/><glyph d="M799 1827q29 20 37 28q10 14 10 27q0 23 -49 23q-33 0 -119 -9l-8 152q88 12 174 12q119 0 168 -33.5t49 -103.5q0 -57 -19 -100q-14 -37 -53 -64l-90 -63q-59 -43 -74 -90h-159q14 92 32.5 131t53.5 61zM1090 1128h-445l-41 -231h406l-54 -307h-405l-51 -285h469 l-54 -305h-870l252 1434h846z" glyph-name="uni1EBA" horiz-adv-x="1091" unicode="Ẻ"/><glyph d="M737 1520q29 20 37 28q10 14 10 27q0 23 -49 22q-33 0 -119 -8l-8 152q88 12 174 12q119 0 168 -33.5t49 -103.5q0 -57 -18 -100q-14 -37 -53 -64l-90 -63q-59 -43 -74 -91h-160q14 92 32.5 131t53.5 62zM645 1147q217 0 319.5 -89t102.5 -276q0 -100 -39 -280l-8 -43 h-604q-4 -57 -4 -78q0 -70 27.5 -97.5t99.5 -27.5q137 0 362 55l21 -266q-238 -66 -424 -65q-446 0 -447 446q0 188 66.5 361.5t171.5 256.5q127 103 356 103zM457 674h256q12 78 12 127q0 53 -19.5 74.5t-68.5 21.5q-82 0 -121 -63q-28 -45 -59 -160z" glyph-name="uni1EBB" horiz-adv-x="1101" unicode="ẻ"/><glyph d="M631 1708q-63 0 -94 -100h-158q25 141 105.5 229t187.5 88q76 0 143 -51l68 -53q27 -23 55 -23q53 0 88 103h158q-25 -154 -104 -236t-189 -82q-84 0 -139 49l-68 58q-20 18 -53 18zM1143 1434l-53 -306h-445l-41 -231h406l-54 -307h-405l-51 -285h469l-54 -305h-870 l252 1434h846z" glyph-name="uni1EBC" horiz-adv-x="1091" unicode="Ẽ"/><glyph d="M569 1401q-63 0 -94 -101h-158q25 141 106 229.5t187 88.5q76 0 144 -51l67 -54q27 -23 56 -22q53 0 88 102h157q-25 -154 -103.5 -235.5t-189.5 -81.5q-84 0 -139 49l-67 57q-21 19 -54 19zM645 1147q217 0 319.5 -89t102.5 -276q0 -100 -39 -280l-8 -43h-604 q-4 -57 -4 -78q0 -70 27.5 -97.5t99.5 -27.5q137 0 362 55l21 -266q-238 -66 -424 -65q-446 0 -447 446q0 188 66.5 361.5t171.5 256.5q127 103 356 103zM457 674h256q12 78 12 127q0 53 -19.5 74.5t-68.5 21.5q-82 0 -121 -63q-28 -45 -59 -160z" glyph-name="uni1EBD" horiz-adv-x="1101" unicode="ẽ"/><glyph d="M1374 2251h338l-336 -408h-243zM987 2003l195 -408h-244l-145 226l-226 -226h-258l336 408h342zM1143 1434l-53 -306h-445l-41 -231h406l-54 -307h-405l-51 -285h469l-54 -305h-870l252 1434h846z" glyph-name="uni1EBE" horiz-adv-x="1091" unicode="Ế"/><glyph d="M1313 1944h338l-336 -408h-244zM926 1696l194 -408h-243l-146 225l-225 -225h-258l336 408h342zM645 1147q217 0 319.5 -89t102.5 -276q0 -100 -39 -280l-8 -43h-604q-4 -57 -4 -78q0 -70 27.5 -97.5t99.5 -27.5q137 0 362 55l21 -266q-238 -66 -424 -65q-446 0 -447 446 q0 188 66.5 361.5t171.5 256.5q127 103 356 103zM457 674h256q12 78 12 127q0 53 -19.5 74.5t-68.5 21.5q-82 0 -121 -63q-28 -45 -59 -160z" glyph-name="uni1EBF" horiz-adv-x="1101" unicode="ế"/><glyph d="M1329 2251l96 -408h-225l-190 408h319zM987 2003l195 -408h-244l-145 226l-226 -226h-258l336 408h342zM1143 1434l-53 -306h-445l-41 -231h406l-54 -307h-405l-51 -285h469l-54 -305h-870l252 1434h846z" glyph-name="uni1EC0" horiz-adv-x="1091" unicode="Ề"/><glyph d="M1268 1944l96 -408h-225l-191 408h320zM926 1696l194 -408h-243l-146 225l-225 -225h-258l336 408h342zM645 1147q217 0 319.5 -89t102.5 -276q0 -100 -39 -280l-8 -43h-604q-4 -57 -4 -78q0 -70 27.5 -97.5t99.5 -27.5q137 0 362 55l21 -266q-238 -66 -424 -65 q-446 0 -447 446q0 188 66.5 361.5t171.5 256.5q127 103 356 103zM457 674h256q12 78 12 127q0 53 -19.5 74.5t-68.5 21.5q-82 0 -121 -63q-28 -45 -59 -160z" glyph-name="uni1EC1" horiz-adv-x="1101" unicode="ề"/><glyph d="M1319 2298q117 0 167 -34t50 -103q0 -47 -16 -97q-14 -37 -56 -67l-90 -64q-61 -43 -71 -90h-162q14 92 32.5 130t53.5 61l35 22q49 31 53 39q6 10 6 23q0 14 -9 18t-40 4q-55 0 -119 -6l-8 152q88 12 174 12zM987 2003l195 -408h-244l-147 226l-226 -226h-256l336 408 h342zM1143 1434l-53 -306h-445l-41 -231h406l-54 -307h-405l-51 -285h469l-54 -305h-870l252 1434h846z" glyph-name="uni1EC2" horiz-adv-x="1091" unicode="Ể"/><glyph d="M1257 1991q117 0 167.5 -34t50.5 -104q0 -47 -17 -96q-14 -37 -55 -67l-90 -64q-61 -43 -72 -90h-162q14 92 32.5 130t53.5 60l35 23q49 31 53 39q6 10 7 22q0 14 -9.5 18.5t-40.5 4.5q-55 0 -118 -6l-9 151q88 13 174 13zM926 1696l194 -408h-243l-148 225l-225 -225 h-256l336 408h342zM645 1147q217 0 319.5 -89t102.5 -276q0 -100 -39 -280l-8 -43h-604q-4 -57 -4 -78q0 -70 27.5 -97.5t99.5 -27.5q137 0 362 55l21 -266q-238 -66 -424 -65q-446 0 -447 446q0 188 66.5 361.5t171.5 256.5q127 103 356 103zM457 674h256q12 78 12 127 q0 53 -19.5 74.5t-68.5 21.5q-82 0 -121 -63q-28 -45 -59 -160z" glyph-name="uni1EC3" horiz-adv-x="1101" unicode="ể"/><glyph d="M709 2195q-63 0 -93 -102h-157q25 143 104.5 230t188.5 87q76 0 143 -51l66 -53q31 -23 55 -22q51 0 90 102h156q-27 -152 -104 -235t-187 -83q-78 0 -140 50l-67 57q-26 20 -55 20zM987 2003l195 -408h-244l-147 226l-226 -226h-256l336 408h342zM1143 1434l-53 -306 h-445l-41 -231h406l-54 -307h-405l-51 -285h469l-54 -305h-870l252 1434h846z" glyph-name="uni1EC4" horiz-adv-x="1091" unicode="Ễ"/><glyph d="M647 1888q-63 0 -92 -102h-158q25 143 105 230t188 87q76 0 144 -51l65 -53q31 -23 55 -23q51 0 90 103h156q-27 -152 -103.5 -235t-187.5 -83q-78 0 -139 49l-68 58q-26 20 -55 20zM926 1696l194 -408h-243l-148 225l-225 -225h-256l336 408h342zM645 1147 q217 0 319.5 -89t102.5 -276q0 -100 -39 -280l-8 -43h-604q-4 -57 -4 -78q0 -70 27.5 -97.5t99.5 -27.5q137 0 362 55l21 -266q-238 -66 -424 -65q-446 0 -447 446q0 188 66.5 361.5t171.5 256.5q127 103 356 103zM457 674h256q12 78 12 127q0 53 -19.5 74.5t-68.5 21.5 q-82 0 -121 -63q-28 -45 -59 -160z" glyph-name="uni1EC5" horiz-adv-x="1101" unicode="ễ"/><glyph d="M793 1821l-226 -226h-258l336 408h342l195 -408h-244zM1143 1434l-53 -306h-445l-41 -231h406l-54 -307h-405l-51 -285h469l-54 -305h-870l252 1434h846zM283 -416l47 273h303l-47 -273h-303z" glyph-name="uni1EC6" horiz-adv-x="1091" unicode="Ệ"/><glyph d="M731 1513l-225 -225h-258l336 408h342l194 -408h-243zM645 1147q217 0 319.5 -89t102.5 -276q0 -100 -39 -280l-8 -43h-604q-4 -57 -4 -78q0 -70 27.5 -97.5t99.5 -27.5q137 0 362 55l21 -266q-238 -66 -424 -65q-446 0 -447 446q0 188 66.5 361.5t171.5 256.5 q127 103 356 103zM457 674h256q12 78 12 127q0 53 -19.5 74.5t-68.5 21.5q-82 0 -121 -63q-28 -45 -59 -160zM225 -416l47 273h303l-47 -273h-303z" glyph-name="uni1EC7" horiz-adv-x="1101" unicode="ệ"/><glyph d="M446 1606q14 92 33 131t53 61l48 29q29 20 36 28q10 14 11 27q0 23 -49 23q-33 0 -119 -9l-8 152q88 12 174 12q119 0 168 -33.5t49 -103.5q0 -57 -19 -100q-14 -37 -53 -64l-90 -63q-59 -43 -74 -90h-160zM700 1434l-251 -1434h-402l252 1434h401z" glyph-name="uni1EC8" horiz-adv-x="688" unicode="Ỉ"/><glyph d="M352 1298q14 92 32.5 131t53.5 62l47 29q29 20 37 28q10 14 10 27q0 23 -49 22q-33 0 -118 -8l-9 152q88 12 174 12q119 0 168.5 -33.5t49.5 -103.5q0 -57 -19 -100q-14 -37 -53 -64l-90 -63q-59 -43 -74 -91h-160zM596 1126l-199 -1126h-383l199 1126h383z" glyph-name="uni1EC9" horiz-adv-x="606" unicode="ỉ"/><glyph d="M700 1434l-251 -1434h-402l252 1434h401zM70 -143h303l-47 -273h-303z" glyph-name="uni1ECA" horiz-adv-x="688" unicode="Ị"/><glyph d="M279 1569h409l-53 -307h-412zM596 1126l-199 -1126h-383l199 1126h383zM27 -143h303l-47 -273h-303z" glyph-name="uni1ECB" horiz-adv-x="606" unicode="ị"/><glyph d="M637 -20q-285 0 -412 120.5t-127 393.5q0 248 86 489.5t217 349.5q145 121 433 121q285 0 411.5 -118.5t126.5 -389.5q0 -246 -86 -489.5t-213 -354.5q-143 -122 -436 -122zM662 303q111 0 159 62q51 63 98.5 256.5t47.5 330.5q0 98 -36 138t-122 40q-109 0 -156 -57 q-53 -63 -101 -255.5t-48 -332.5q0 -100 36 -141t122 -41zM432 -143h303l-47 -273h-303z" glyph-name="uni1ECC" horiz-adv-x="1409" unicode="Ọ"/><glyph d="M522 -20q-242 0 -358.5 98t-116.5 303q0 207 71.5 395.5t182.5 274.5q127 96 358 96q244 0 360 -100.5t116 -315.5q0 -184 -64.5 -365.5t-163.5 -269.5q-133 -116 -385 -116zM537 260q86 0 122 78q31 59 58.5 187t27.5 218q0 70 -22.5 96.5t-77.5 26.5q-76 0 -108 -55 q-35 -55 -67 -197.5t-32 -236.5q0 -63 22 -90t77 -27zM317 -143h304l-48 -273h-303z" glyph-name="uni1ECD" horiz-adv-x="1179" unicode="ọ"/><glyph d="M807 1606q14 92 32.5 131t53.5 61l47 29q29 20 37 28q10 14 10 27q0 23 -49 23q-33 0 -119 -9l-8 152q88 12 174 12q119 0 168 -33.5t49 -103.5q0 -57 -18 -100q-14 -37 -54 -64l-90 -63q-59 -43 -73 -90h-160zM637 -20q-285 0 -412 120.5t-127 393.5q0 248 86 489.5 t217 349.5q145 121 433 121q285 0 411.5 -118.5t126.5 -389.5q0 -246 -86 -489.5t-213 -354.5q-143 -122 -436 -122zM662 303q111 0 159 62q51 63 98.5 256.5t47.5 330.5q0 98 -36 138t-122 40q-109 0 -156 -57q-53 -63 -101 -255.5t-48 -332.5q0 -100 36 -141t122 -41z" glyph-name="uni1ECE" horiz-adv-x="1409" unicode="Ỏ"/><glyph d="M639 1298q14 92 32.5 131t53.5 62l47 29q29 20 37 28q10 14 10 27q0 23 -49 22q-33 0 -119 -8l-8 152q88 12 174 12q119 0 168 -33.5t49 -103.5q0 -57 -18 -100q-14 -37 -53 -64l-91 -63q-59 -43 -73 -91h-160zM522 -20q-242 0 -358.5 98t-116.5 303q0 207 71.5 395.5 t182.5 274.5q127 96 358 96q244 0 360 -100.5t116 -315.5q0 -184 -64.5 -365.5t-163.5 -269.5q-133 -116 -385 -116zM537 260q86 0 122 78q31 59 58.5 187t27.5 218q0 70 -22.5 96.5t-77.5 26.5q-76 0 -108 -55q-35 -55 -67 -197.5t-32 -236.5q0 -63 22 -90t77 -27z" glyph-name="uni1ECF" horiz-adv-x="1179" unicode="ỏ"/><glyph d="M1516 2251h337l-335 -408h-244zM934 1821l-225 -226h-258l335 408h342l195 -408h-244zM834 1454q285 0 411.5 -118.5t126.5 -389.5q0 -246 -86 -489.5t-213 -354.5q-143 -123 -436 -122q-285 0 -412 120.5t-127 393.5q0 248 86 489.5t217 349.5q146 121 433 121zM821 365 q51 63 98.5 256.5t47.5 330.5q0 98 -36 138t-122 40q-109 0 -156 -57q-53 -63 -101 -255.5t-48 -332.5q0 -100 35.5 -141t122.5 -41q110 1 159 62z" glyph-name="uni1ED0" horiz-adv-x="1409" unicode="Ố"/><glyph d="M1348 1944h338l-336 -408h-244zM961 1696l194 -408h-244l-145 225l-225 -225h-258l335 408h343zM659 1147q244 0 360 -100.5t116 -315.5q0 -184 -64.5 -365.5t-163.5 -269.5q-133 -117 -385 -116q-242 0 -358.5 98t-116.5 303q0 207 71.5 395.5t182.5 274.5 q127 96 358 96zM659 338q31 59 58.5 187t27.5 218q0 70 -22.5 96.5t-77.5 26.5q-76 0 -108 -55q-35 -55 -67 -197.5t-32 -236.5q0 -63 21.5 -90t77.5 -27q85 0 122 78z" glyph-name="uni1ED1" horiz-adv-x="1179" unicode="ố"/><glyph d="M1567 1843h-226l-190 408h319zM934 1821l-225 -226h-258l335 408h342l195 -408h-244zM834 1454q285 0 411.5 -118.5t126.5 -389.5q0 -246 -86 -489.5t-213 -354.5q-143 -123 -436 -122q-285 0 -412 120.5t-127 393.5q0 248 86 489.5t217 349.5q146 121 433 121zM821 365 q51 63 98.5 256.5t47.5 330.5q0 98 -36 138t-122 40q-109 0 -156 -57q-53 -63 -101 -255.5t-48 -332.5q0 -100 35.5 -141t122.5 -41q110 1 159 62z" glyph-name="uni1ED2" horiz-adv-x="1409" unicode="Ồ"/><glyph d="M1303 1944l96 -408h-225l-191 408h320zM961 1696l194 -408h-244l-145 225l-225 -225h-258l335 408h343zM659 1147q244 0 360 -100.5t116 -315.5q0 -184 -64.5 -365.5t-163.5 -269.5q-133 -117 -385 -116q-242 0 -358.5 98t-116.5 303q0 207 71.5 395.5t182.5 274.5 q127 96 358 96zM659 338q31 59 58.5 187t27.5 218q0 70 -22.5 96.5t-77.5 26.5q-76 0 -108 -55q-35 -55 -67 -197.5t-32 -236.5q0 -63 21.5 -90t77.5 -27q85 0 122 78z" glyph-name="uni1ED3" horiz-adv-x="1179" unicode="ồ"/><glyph d="M1460 2298q117 0 167 -34t50 -103q0 -47 -16 -97q-14 -37 -55 -67l-90 -64q-61 -43 -72 -90h-162q14 92 32.5 130t53.5 61l35 22q49 31 53 39q6 10 6 23q0 14 -9 18t-40 4q-53 0 -119 -6l-8 152q88 12 174 12zM932 1821l-225 -226h-256l335 408h342l195 -408h-244z M834 1454q285 0 411.5 -118.5t126.5 -389.5q0 -246 -86 -489.5t-213 -354.5q-143 -123 -436 -122q-285 0 -412 120.5t-127 393.5q0 248 86 489.5t217 349.5q146 121 433 121zM821 365q51 63 98.5 256.5t47.5 330.5q0 98 -36 138t-122 40q-109 0 -156 -57 q-53 -63 -101 -255.5t-48 -332.5q0 -100 35.5 -141t122.5 -41q110 1 159 62z" glyph-name="uni1ED4" horiz-adv-x="1409" unicode="Ổ"/><glyph d="M1292 1991q117 0 167 -34t50 -104q0 -47 -16 -96q-14 -37 -55 -67l-90 -64q-61 -43 -72 -90h-162q14 92 32.5 130t53.5 60l35 23q49 31 53 39q6 10 6 22q0 14 -9 18.5t-40 4.5q-53 0 -119 -6l-8 151q88 13 174 13zM961 1696l194 -408h-244l-147 225l-225 -225h-256 l335 408h343zM659 1147q244 0 360 -100.5t116 -315.5q0 -184 -64.5 -365.5t-163.5 -269.5q-133 -117 -385 -116q-242 0 -358.5 98t-116.5 303q0 207 71.5 395.5t182.5 274.5q127 96 358 96zM659 338q31 59 58.5 187t27.5 218q0 70 -22.5 96.5t-77.5 26.5q-76 0 -108 -55 q-35 -55 -67 -197.5t-32 -236.5q0 -63 21.5 -90t77.5 -27q85 0 122 78z" glyph-name="uni1ED5" horiz-adv-x="1179" unicode="ổ"/><glyph d="M850 2195q-63 0 -92 -102h-158q25 143 104.5 230t188.5 87q78 0 143 -51l66 -53q31 -23 55 -22q51 0 90 102h156q-27 -152 -103.5 -235t-187.5 -83q-78 0 -139 50l-68 57q-26 20 -55 20zM932 1821l-225 -226h-256l335 408h342l195 -408h-244zM834 1454 q285 0 411.5 -118.5t126.5 -389.5q0 -246 -86 -489.5t-213 -354.5q-143 -123 -436 -122q-285 0 -412 120.5t-127 393.5q0 248 86 489.5t217 349.5q146 121 433 121zM821 365q51 63 98.5 256.5t47.5 330.5q0 98 -36 138t-122 40q-109 0 -156 -57q-53 -63 -101 -255.5 t-48 -332.5q0 -100 35.5 -141t122.5 -41q110 1 159 62z" glyph-name="uni1ED6" horiz-adv-x="1409" unicode="Ỗ"/><glyph d="M682 1888q-63 0 -92 -102h-158q25 143 104.5 230t188.5 87q76 0 143 -51l66 -53q31 -23 55 -23q51 0 90 103h156q-27 -152 -103.5 -235t-187.5 -83q-78 0 -139 49l-68 58q-26 20 -55 20zM961 1696l194 -408h-244l-147 225l-225 -225h-256l335 408h343zM659 1147 q244 0 360 -100.5t116 -315.5q0 -184 -64.5 -365.5t-163.5 -269.5q-133 -117 -385 -116q-242 0 -358.5 98t-116.5 303q0 207 71.5 395.5t182.5 274.5q127 96 358 96zM659 338q31 59 58.5 187t27.5 218q0 70 -22.5 96.5t-77.5 26.5q-76 0 -108 -55q-35 -55 -67 -197.5 t-32 -236.5q0 -63 21.5 -90t77.5 -27q85 0 122 78z" glyph-name="uni1ED7" horiz-adv-x="1179" unicode="ỗ"/><glyph d="M934 1821l-225 -226h-258l335 408h342l195 -408h-244zM834 1454q285 0 411.5 -118.5t126.5 -389.5q0 -246 -86 -489.5t-213 -354.5q-143 -123 -436 -122q-285 0 -412 120.5t-127 393.5q0 248 86 489.5t217 349.5q146 121 433 121zM821 365q51 63 98.5 256.5t47.5 330.5 q0 98 -36 138t-122 40q-109 0 -156 -57q-53 -63 -101 -255.5t-48 -332.5q0 -100 35.5 -141t122.5 -41q110 1 159 62zM385 -416l47 273h303l-47 -273h-303z" glyph-name="uni1ED8" horiz-adv-x="1409" unicode="Ộ"/><glyph d="M766 1513l-225 -225h-258l335 408h343l194 -408h-244zM659 1147q244 0 360 -100.5t116 -315.5q0 -184 -64.5 -365.5t-163.5 -269.5q-133 -117 -385 -116q-242 0 -358.5 98t-116.5 303q0 207 71.5 395.5t182.5 274.5q127 96 358 96zM659 338q31 59 58.5 187t27.5 218 q0 70 -22.5 96.5t-77.5 26.5q-76 0 -108 -55q-35 -55 -67 -197.5t-32 -236.5q0 -63 21.5 -90t77.5 -27q85 0 122 78zM270 -416l47 273h304l-48 -273h-303z" glyph-name="uni1ED9" horiz-adv-x="1179" unicode="ộ"/><glyph d="M1350 2011l-334 -407h-244l244 407h334zM1454 1688h211l-41 -232q-25 -147 -89.5 -208.5t-191.5 -76.5q29 -98 29 -225q0 -246 -86 -489.5t-213 -354.5q-143 -123 -436 -122q-285 0 -412 120.5t-127 393.5q0 248 86 489.5t217 349.5q145 121 433 121q276 0 401 -111 q160 2 184 142zM821 365q51 63 98.5 256.5t47.5 330.5q0 98 -36 138t-122 40q-109 0 -156 -57q-53 -63 -101 -255.5t-48 -332.5q0 -100 35.5 -141t122.5 -41q110 1 159 62z" glyph-name="uni1EDA" horiz-adv-x="1409" unicode="Ớ"/><glyph d="M1182 1704l-334 -408h-244l244 408h334zM1241 1364h211l-41 -231q-25 -147 -90.5 -210t-196.5 -75q10 -61 11 -117q0 -184 -64.5 -365.5t-163.5 -269.5q-133 -117 -385 -116q-242 0 -358.5 98t-116.5 303q0 207 71.5 395.5t182.5 274.5q127 96 358 96q272 0 385 -125 q139 12 162 139zM659 338q31 59 58.5 187t27.5 218q0 70 -22.5 96.5t-77.5 26.5q-76 0 -108 -55q-35 -55 -67 -197.5t-32 -236.5q0 -63 21.5 -90t77.5 -27q85 0 122 78z" glyph-name="uni1EDB" horiz-adv-x="1179" unicode="ớ"/><glyph d="M995 1604h-229l-193 407h322zM1454 1688h211l-41 -232q-25 -147 -89.5 -208.5t-191.5 -76.5q29 -98 29 -225q0 -246 -86 -489.5t-213 -354.5q-143 -123 -436 -122q-285 0 -412 120.5t-127 393.5q0 248 86 489.5t217 349.5q145 121 433 121q276 0 401 -111q160 2 184 142z M821 365q51 63 98.5 256.5t47.5 330.5q0 98 -36 138t-122 40q-109 0 -156 -57q-53 -63 -101 -255.5t-48 -332.5q0 -100 35.5 -141t122.5 -41q110 1 159 62z" glyph-name="uni1EDC" horiz-adv-x="1409" unicode="Ờ"/><glyph d="M827 1296h-229l-192 408h321zM1241 1364h211l-41 -231q-25 -147 -90.5 -210t-196.5 -75q10 -61 11 -117q0 -184 -64.5 -365.5t-163.5 -269.5q-133 -117 -385 -116q-242 0 -358.5 98t-116.5 303q0 207 71.5 395.5t182.5 274.5q127 96 358 96q272 0 385 -125 q139 12 162 139zM659 338q31 59 58.5 187t27.5 218q0 70 -22.5 96.5t-77.5 26.5q-76 0 -108 -55q-35 -55 -67 -197.5t-32 -236.5q0 -63 21.5 -90t77.5 -27q85 0 122 78z" glyph-name="uni1EDD" horiz-adv-x="1179" unicode="ờ"/><glyph d="M940 1827q29 20 37 28q10 14 10 27q0 23 -49 23q-33 0 -119 -9l-8 152q88 12 174 12q119 0 168 -33.5t49 -103.5q0 -57 -18 -100q-14 -37 -54 -64l-90 -63q-59 -43 -73 -90h-160q14 92 32.5 131t53.5 61zM1454 1688h211l-41 -232q-25 -147 -89.5 -208.5t-191.5 -76.5 q29 -98 29 -225q0 -246 -86 -489.5t-213 -354.5q-143 -123 -436 -122q-285 0 -412 120.5t-127 393.5q0 248 86 489.5t217 349.5q145 121 433 121q276 0 401 -111q160 2 184 142zM821 365q51 63 98.5 256.5t47.5 330.5q0 98 -36 138t-122 40q-109 0 -156 -57 q-53 -63 -101 -255.5t-48 -332.5q0 -100 35.5 -141t122.5 -41q110 1 159 62z" glyph-name="uni1EDE" horiz-adv-x="1409" unicode="Ở"/><glyph d="M772 1520q29 20 37 28q10 14 10 27q0 23 -49 22q-33 0 -119 -8l-8 152q88 12 174 12q119 0 168 -33.5t49 -103.5q0 -57 -18 -100q-14 -37 -53 -64l-91 -63q-59 -43 -73 -91h-160q14 92 32.5 131t53.5 62zM1241 1364h211l-41 -231q-25 -147 -90.5 -210t-196.5 -75 q10 -61 11 -117q0 -184 -64.5 -365.5t-163.5 -269.5q-133 -117 -385 -116q-242 0 -358.5 98t-116.5 303q0 207 71.5 395.5t182.5 274.5q127 96 358 96q272 0 385 -125q139 12 162 139zM659 338q31 59 58.5 187t27.5 218q0 70 -22.5 96.5t-77.5 26.5q-76 0 -108 -55 q-35 -55 -67 -197.5t-32 -236.5q0 -63 21.5 -90t77.5 -27q85 0 122 78z" glyph-name="uni1EDF" horiz-adv-x="1179" unicode="ở"/><glyph d="M772 1708q-63 0 -94 -100h-158q25 141 106 229t187 88q76 0 143 -51l68 -53q27 -23 55 -23q53 0 88 103h158q-25 -154 -103.5 -236t-189.5 -82q-84 0 -139 49l-68 58q-20 18 -53 18zM1454 1688h211l-41 -232q-25 -147 -89.5 -208.5t-191.5 -76.5q29 -98 29 -225 q0 -246 -86 -489.5t-213 -354.5q-143 -123 -436 -122q-285 0 -412 120.5t-127 393.5q0 248 86 489.5t217 349.5q145 121 433 121q276 0 401 -111q160 2 184 142zM821 365q51 63 98.5 256.5t47.5 330.5q0 98 -36 138t-122 40q-109 0 -156 -57q-53 -63 -101 -255.5t-48 -332.5 q0 -100 35.5 -141t122.5 -41q110 1 159 62z" glyph-name="uni1EE0" horiz-adv-x="1409" unicode="Ỡ"/><glyph d="M604 1401q-63 0 -94 -101h-158q25 141 106 229.5t187 88.5q76 0 143 -51l68 -54q27 -23 55 -22q53 0 88 102h158q-25 -154 -103.5 -235.5t-189.5 -81.5q-84 0 -139 49l-68 57q-20 19 -53 19zM1241 1364h211l-41 -231q-25 -147 -90.5 -210t-196.5 -75q10 -61 11 -117 q0 -184 -64.5 -365.5t-163.5 -269.5q-133 -117 -385 -116q-242 0 -358.5 98t-116.5 303q0 207 71.5 395.5t182.5 274.5q127 96 358 96q272 0 385 -125q139 12 162 139zM659 338q31 59 58.5 187t27.5 218q0 70 -22.5 96.5t-77.5 26.5q-76 0 -108 -55q-35 -55 -67 -197.5 t-32 -236.5q0 -63 21.5 -90t77.5 -27q85 0 122 78z" glyph-name="uni1EE1" horiz-adv-x="1179" unicode="ỡ"/><glyph d="M1454 1688h211l-41 -232q-25 -147 -89.5 -208.5t-191.5 -76.5q29 -98 29 -225q0 -246 -86 -489.5t-213 -354.5q-143 -123 -436 -122q-285 0 -412 120.5t-127 393.5q0 248 86 489.5t217 349.5q145 121 433 121q276 0 401 -111q160 2 184 142zM821 365q51 63 98.5 256.5 t47.5 330.5q0 98 -36 138t-122 40q-109 0 -156 -57q-53 -63 -101 -255.5t-48 -332.5q0 -100 35.5 -141t122.5 -41q110 1 159 62zM385 -416l47 273h303l-47 -273h-303z" glyph-name="uni1EE2" horiz-adv-x="1409" unicode="Ợ"/><glyph d="M1241 1364h211l-41 -231q-25 -147 -90.5 -210t-196.5 -75q10 -61 11 -117q0 -184 -64.5 -365.5t-163.5 -269.5q-133 -117 -385 -116q-242 0 -358.5 98t-116.5 303q0 207 71.5 395.5t182.5 274.5q127 96 358 96q272 0 385 -125q139 12 162 139zM659 338q31 59 58.5 187 t27.5 218q0 70 -22.5 96.5t-77.5 26.5q-76 0 -108 -55q-35 -55 -67 -197.5t-32 -236.5q0 -63 21.5 -90t77.5 -27q85 0 122 78zM270 -416l47 273h304l-48 -273h-303z" glyph-name="uni1EE3" horiz-adv-x="1179" unicode="ợ"/><glyph d="M606 -20q-274 0 -390 95t-116 281q0 86 21 219l151 859h400l-164 -942q-10 -51 -10 -82q0 -61 30.5 -83t94.5 -22q90 0 131 44t61 171l162 914h399l-162 -922q-53 -307 -197.5 -419.5t-410.5 -112.5zM397 -143h303l-47 -273h-303z" glyph-name="uni1EE4" horiz-adv-x="1339" unicode="Ụ"/><glyph d="M817 1126h383l-196 -1110l-349 -30l2 129h-12q-86 -135 -293 -135q-158 0 -225.5 63t-67.5 199q0 76 19 176l125 708h385l-125 -712q-8 -35 -8 -70q0 -47 19.5 -65.5t62.5 -18.5q68 0 105.5 38t51.5 124zM256 -416l47 273h303l-47 -273h-303z" glyph-name="uni1EE5" horiz-adv-x="1214" unicode="ụ"/><glyph d="M772 1606q14 92 32.5 131t53.5 61l47 29q29 20 37 28q10 14 10 27q0 23 -49 23q-33 0 -119 -9l-8 152q88 12 174 12q119 0 168 -33.5t49 -103.5q0 -57 -18 -100q-14 -37 -53 -64l-90 -63q-59 -43 -74 -90h-160zM606 -20q-274 0 -390 95t-116 281q0 86 21 219l151 859h400 l-164 -942q-10 -51 -10 -82q0 -61 30.5 -83t94.5 -22q90 0 131 44t61 171l162 914h399l-162 -922q-53 -307 -197.5 -419.5t-410.5 -112.5z" glyph-name="uni1EE6" horiz-adv-x="1339" unicode="Ủ"/><glyph d="M784 1520q29 20 37 28q10 14 10 27q0 23 -49 22q-33 0 -118 -8l-9 152q88 12 174 12q119 0 168.5 -33.5t49.5 -103.5q0 -57 -19 -100q-14 -37 -53 -64l-90 -63q-59 -43 -74 -91h-160q14 92 32.5 131t53.5 62zM817 1126h383l-196 -1110l-349 -30l2 129h-12 q-86 -135 -293 -135q-158 0 -225.5 63t-67.5 199q0 76 19 176l125 708h385l-125 -712q-8 -35 -8 -70q0 -47 19.5 -65.5t62.5 -18.5q68 0 105.5 38t51.5 124z" glyph-name="uni1EE7" horiz-adv-x="1214" unicode="ủ"/><glyph d="M1315 2011l-334 -407h-244l244 407h334zM1516 1778h210l-40 -232q-29 -162 -104 -222t-236 -67l-132 -745q-53 -307 -197.5 -419.5t-410.5 -112.5q-274 0 -390 95t-116 281q0 86 21 219l151 859h400l-164 -942q-10 -51 -10 -82q0 -61 30.5 -83t94.5 -22q90 0 131 44 t61 171l162 914h309q170 0 195 141z" glyph-name="uni1EE8" horiz-adv-x="1339" unicode="Ứ"/><glyph d="M1194 1704l-334 -408h-244l244 408h334zM1327 1470h211l-41 -231q-29 -158 -101.5 -219.5t-226.5 -69.5l-165 -934l-349 -30l2 129h-12q-86 -135 -293 -135q-158 0 -225.5 63t-67.5 199q0 76 19 176l125 708h385l-125 -712q-8 -35 -8 -70q0 -47 19.5 -65.5t62.5 -18.5 q68 0 105.5 38t51.5 124l123 704h281q170 0 194 142z" glyph-name="uni1EE9" horiz-adv-x="1214" unicode="ứ"/><glyph d="M961 1604h-230l-192 407h321zM1516 1778h210l-40 -232q-29 -162 -104 -222t-236 -67l-132 -745q-53 -307 -197.5 -419.5t-410.5 -112.5q-274 0 -390 95t-116 281q0 86 21 219l151 859h400l-164 -942q-10 -51 -10 -82q0 -61 30.5 -83t94.5 -22q90 0 131 44t61 171l162 914 h309q170 0 195 141z" glyph-name="uni1EEA" horiz-adv-x="1339" unicode="Ừ"/><glyph d="M840 1296h-230l-192 408h321zM1327 1470h211l-41 -231q-29 -158 -101.5 -219.5t-226.5 -69.5l-165 -934l-349 -30l2 129h-12q-86 -135 -293 -135q-158 0 -225.5 63t-67.5 199q0 76 19 176l125 708h385l-125 -712q-8 -35 -8 -70q0 -47 19.5 -65.5t62.5 -18.5 q68 0 105.5 38t51.5 124l123 704h281q170 0 194 142z" glyph-name="uni1EEB" horiz-adv-x="1214" unicode="ừ"/><glyph d="M905 1827q29 20 37 28q10 14 10 27q0 23 -49 23q-33 0 -119 -9l-8 152q88 12 174 12q119 0 168 -33.5t49 -103.5q0 -57 -18 -100q-14 -37 -53 -64l-90 -63q-59 -43 -74 -90h-160q14 92 32.5 131t53.5 61zM1516 1778h210l-40 -232q-29 -162 -104 -222t-236 -67l-132 -745 q-53 -307 -197.5 -419.5t-410.5 -112.5q-274 0 -390 95t-116 281q0 86 21 219l151 859h400l-164 -942q-10 -51 -10 -82q0 -61 30.5 -83t94.5 -22q90 0 131 44t61 171l162 914h309q170 0 195 141z" glyph-name="uni1EEC" horiz-adv-x="1339" unicode="Ử"/><glyph d="M784 1520q29 20 37 28q10 14 10 27q0 23 -49 22q-33 0 -118 -8l-9 152q88 12 174 12q119 0 168.5 -33.5t49.5 -103.5q0 -57 -19 -100q-14 -37 -53 -64l-90 -63q-59 -43 -74 -91h-160q14 92 32.5 131t53.5 62zM1327 1470h211l-41 -231q-29 -158 -101.5 -219.5 t-226.5 -69.5l-165 -934l-349 -30l2 129h-12q-86 -135 -293 -135q-158 0 -225.5 63t-67.5 199q0 76 19 176l125 708h385l-125 -712q-8 -35 -8 -70q0 -47 19.5 -65.5t62.5 -18.5q68 0 105.5 38t51.5 124l123 704h281q170 0 194 142z" glyph-name="uni1EED" horiz-adv-x="1214" unicode="ử"/><glyph d="M737 1708q-63 0 -94 -100h-158q25 141 106 229t187 88q76 0 144 -51l67 -53q27 -23 55 -23q53 0 89 103h157q-25 -154 -103.5 -236t-189.5 -82q-84 0 -139 49l-67 58q-21 18 -54 18zM1516 1778h210l-40 -232q-29 -162 -104 -222t-236 -67l-132 -745 q-53 -307 -197.5 -419.5t-410.5 -112.5q-274 0 -390 95t-116 281q0 86 21 219l151 859h400l-164 -942q-10 -51 -10 -82q0 -61 30.5 -83t94.5 -22q90 0 131 44t61 171l162 914h309q170 0 195 141z" glyph-name="uni1EEE" horiz-adv-x="1339" unicode="Ữ"/><glyph d="M616 1401q-63 0 -94 -101h-157q25 141 105.5 229.5t186.5 88.5q76 0 144 -51l67 -54q27 -23 56 -22q53 0 88 102h157q-25 -154 -103.5 -235.5t-188.5 -81.5q-84 0 -140 49l-67 57q-21 19 -54 19zM1327 1470h211l-41 -231q-29 -158 -101.5 -219.5t-226.5 -69.5l-165 -934 l-349 -30l2 129h-12q-86 -135 -293 -135q-158 0 -225.5 63t-67.5 199q0 76 19 176l125 708h385l-125 -712q-8 -35 -8 -70q0 -47 19.5 -65.5t62.5 -18.5q68 0 105.5 38t51.5 124l123 704h281q170 0 194 142z" glyph-name="uni1EEF" horiz-adv-x="1214" unicode="ữ"/><glyph d="M1516 1778h210l-40 -232q-29 -162 -104 -222t-236 -67l-132 -745q-53 -307 -197.5 -419.5t-410.5 -112.5q-274 0 -390 95t-116 281q0 86 21 219l151 859h400l-164 -942q-10 -51 -10 -82q0 -61 30.5 -83t94.5 -22q90 0 131 44t61 171l162 914h309q170 0 195 141zM350 -416 l47 273h303l-47 -273h-303z" glyph-name="uni1EF0" horiz-adv-x="1339" unicode="Ự"/><glyph d="M1327 1470h211l-41 -231q-29 -158 -101.5 -219.5t-226.5 -69.5l-165 -934l-349 -30l2 129h-12q-86 -135 -293 -135q-158 0 -225.5 63t-67.5 199q0 76 19 176l125 708h385l-125 -712q-8 -35 -8 -70q0 -47 19.5 -65.5t62.5 -18.5q68 0 105.5 38t51.5 124l123 704h281 q170 0 194 142zM256 -416l47 273h303l-47 -273h-303z" glyph-name="uni1EF1" horiz-adv-x="1214" unicode="ự"/><glyph d="M924 1604h-230l-192 407h321zM1421 1434l-612 -975l-80 -459h-399l90 512l-258 922h405l101 -594h28l312 594h413z" glyph-name="Ygrave" horiz-adv-x="1267" unicode="Ỳ"/><glyph d="M786 1296h-229l-192 408h321zM791 1126h405l-481 -1159q-84 -205 -208 -280.5t-306 -75.5q-111 0 -250 33l47 252q111 -16 197 -17q98 0 152 38t89 138l4 11h-268l-63 1060h397l-23 -796h43z" glyph-name="ygrave" horiz-adv-x="1097" unicode="ỳ"/><glyph d="M1421 1434l-612 -975l-80 -459h-399l90 512l-258 922h405l101 -594h28l312 594h413zM311 -416l47 273h304l-48 -273h-303z" glyph-name="uni1EF4" horiz-adv-x="1267" unicode="Ỵ"/><glyph d="M1196 1126l-481 -1159q-84 -205 -208 -280.5t-306 -75.5q-111 0 -250 33l47 252q111 -16 197 -17q98 0 152 38t89 138l4 11h-268l-63 1060h397l-23 -796h43l265 796h405zM715 -416l47 273h303l-47 -273h-303z" glyph-name="uni1EF5" horiz-adv-x="1097" unicode="ỵ"/><glyph d="M868 1827q29 20 37 28q10 14 10 27q0 23 -49 23q-33 0 -118 -9l-9 152q88 12 174 12q119 0 168 -33.5t49 -103.5q0 -57 -18 -100q-14 -37 -53 -64l-90 -63q-59 -43 -74 -90h-160q14 92 32.5 131t53.5 61zM1421 1434l-612 -975l-80 -459h-399l90 512l-258 922h405 l101 -594h28l312 594h413z" glyph-name="uni1EF6" horiz-adv-x="1267" unicode="Ỷ"/><glyph d="M731 1520q29 20 37 28q10 14 10 27q0 23 -49 22q-33 0 -119 -8l-8 152q88 12 174 12q119 0 168 -33.5t49 -103.5q0 -57 -18 -100q-14 -37 -53 -64l-91 -63q-59 -43 -73 -91h-160q14 92 32.5 131t53.5 62zM791 1126h405l-481 -1159q-84 -205 -208 -280.5t-306 -75.5 q-111 0 -250 33l47 252q111 -16 197 -17q98 0 152 38t89 138l4 11h-268l-63 1060h397l-23 -796h43z" glyph-name="uni1EF7" horiz-adv-x="1097" unicode="ỷ"/><glyph d="M700 1708q-63 0 -94 -100h-157q25 141 105.5 229t186.5 88q76 0 144 -51l67 -53q27 -23 56 -23q53 0 88 103h157q-25 -154 -103.5 -236t-188.5 -82q-84 0 -140 49l-67 58q-21 18 -54 18zM1421 1434l-612 -975l-80 -459h-399l90 512l-258 922h405l101 -594h28l312 594h413 z" glyph-name="uni1EF8" horiz-adv-x="1267" unicode="Ỹ"/><glyph d="M563 1401q-63 0 -94 -101h-158q25 141 106 229.5t187 88.5q76 0 144 -51l67 -54q27 -23 55 -22q53 0 88 102h158q-25 -154 -103.5 -235.5t-189.5 -81.5q-84 0 -139 49l-68 57q-20 19 -53 19zM791 1126h405l-481 -1159q-84 -205 -208 -280.5t-306 -75.5q-111 0 -250 33 l47 252q111 -16 197 -17q98 0 152 38t89 138l4 11h-268l-63 1060h397l-23 -796h43z" glyph-name="uni1EF9" horiz-adv-x="1097" unicode="ỹ"/><glyph glyph-name="uni2009" horiz-adv-x="204" unicode=" "/><glyph d="M154 772h1020l-52 -274h-1018z" glyph-name="endash" horiz-adv-x="1249" unicode="–"/><glyph d="M154 772h1593l-49 -274h-1594z" glyph-name="emdash" horiz-adv-x="1824" unicode="—"/><glyph d="M76 70h1169l-43 -238h-1167zM18 -258h1170l-43 -238h-1168z" glyph-name="underscoredbl" horiz-adv-x="1492" unicode="‗"/><glyph d="M733 1585l-215 -409h162l-66 -383h-411l65 383l217 409h248z" glyph-name="quoteleft" horiz-adv-x="735" unicode="‘"/><glyph d="M344 1585h412l-68 -383l-217 -409h-250l213 409h-158z" glyph-name="quoteright" horiz-adv-x="735" unicode="’"/><glyph d="M131 383h412l-68 -383l-217 -410h-248l213 410h-160z" glyph-name="quotesinglbase" horiz-adv-x="735" unicode="‚"/><glyph d="M430 1585h248l-215 -409h162l-66 -383h-412l66 383zM1217 1585l-216 -409h162l-65 -383h-412l66 383l217 409h248z" glyph-name="quotedblleft" horiz-adv-x="1167" unicode="“"/><glyph d="M221 1202l68 383h411l-67 -383l-217 -409h-250l213 409h-158zM827 1585h412l-68 -383l-217 -409h-249l213 409h-158z" glyph-name="quotedblright" horiz-adv-x="1167" unicode="”"/><glyph d="M8 0l68 383h411l-67 -383l-217 -410h-248l213 410h-160zM614 383h412l-68 -383l-217 -410h-247l213 410h-160z" glyph-name="quotedblbase" horiz-adv-x="1167" unicode="„"/><glyph d="M1178 981l-50 -285h-362l-188 -1065h-330l188 1065h-362l51 285h360l88 500h330l-88 -500h363z" glyph-name="dagger" horiz-adv-x="1150" unicode="†"/><glyph d="M1145 731h-363l-61 -348h362l-49 -285h-364l-82 -467h-328l82 467h-362l51 285h362l62 348h-363l49 285h363l82 465h327l-82 -465h365z" glyph-name="daggerdbl" horiz-adv-x="1173" unicode="‡"/><glyph d="M444 358q-143 0 -240.5 97.5t-97.5 238.5q0 166 124 290t292 124q145 0 241.5 -96.5t96.5 -239.5q0 -166 -125 -290t-291 -124z" glyph-name="bullet" horiz-adv-x="907" unicode="•"/><glyph d="M63 0l68 383h412l-68 -383h-412zM694 0l68 383h412l-68 -383h-412zM1327 0l66 383h413l-67 -383h-412z" glyph-name="ellipsis" horiz-adv-x="1996" unicode="…"/><glyph d="M184 -20l1147 1474h266l-1146 -1474h-267zM442 602q-154 0 -219 68.5t-65 206.5q0 106 32.5 242t85.5 214q80 113 256 113q152 0 216.5 -67.5t64.5 -204.5q0 -109 -32.5 -246t-86.5 -215q-76 -111 -252 -111zM440 786q35 0 56 29q31 41 57.5 176t26.5 207 q0 37 -11.5 50.5t-33.5 13.5q-39 0 -58 -29q-31 -43 -57.5 -176t-26.5 -205q0 -39 11 -52.5t36 -13.5zM1257 -12q-152 0 -217 68.5t-65 205.5q0 109 31.5 244t87.5 213q78 113 254 112q154 0 218 -67.5t64 -204.5q0 -109 -32.5 -246t-86.5 -215q-80 -110 -254 -110z M1960 -12q-154 0 -219.5 68.5t-65.5 205.5q0 109 32 244t87 213q78 113 256 112q152 0 216.5 -67.5t64.5 -204.5q0 -109 -33 -246t-86 -215q-80 -110 -252 -110zM1255 172q37 0 58 29q29 41 55.5 177t26.5 206q0 37 -11.5 50t-33.5 13q-37 0 -56 -29q-31 -43 -57.5 -176 t-26.5 -204q0 -66 45 -66zM1958 172q35 0 55 29q29 41 55.5 177t26.5 206q0 37 -11 50t-34 13q-37 0 -55 -29q-31 -43 -57.5 -176t-26.5 -204q0 -39 11 -52.5t36 -13.5z" glyph-name="perthousand" horiz-adv-x="2430" unicode="‰"/><glyph d="M582 1114l-41 -270l-295 -275l192 -266l-41 -270l-385 381l29 178l20 141z" glyph-name="guilsinglleft" horiz-adv-x="555" unicode="‹"/><glyph d="M162 1114l387 -381l-25 -145l-24 -174l-520 -381l38 270l297 275l-192 266z" glyph-name="guilsinglright" horiz-adv-x="555" unicode="›"/><glyph d="M-66 -41l863 1516h252l-865 -1516h-250z" glyph-name="fraction" horiz-adv-x="925" unicode="⁄"/><glyph d="M958 1130q-158 0 -223 -96q-18 -25 -35 -63h330l-33 -191h-360q-16 -74 -23 -110h301l-34 -193h-287v-8q0 -96 38 -131t128 -35q137 0 246 49l20 -323q-123 -49 -307 -49q-287 0 -409 118.5t-122 358.5v20h-141l35 193h123q12 74 20 110h-123l33 191h139q53 166 123 266 q82 119 206 168t302 49q188 0 318 -53l-64 -307q-78 36 -201 36z" glyph-name="Euro" horiz-adv-x="1177" unicode="€"/><glyph d="M1882 614q-190 0 -270 77t-80 227q0 96 27.5 205.5t76.5 181.5q96 139 330 139q190 0 271 -77t81 -224q0 -96 -28.5 -206t-77.5 -183q-97 -140 -330 -140zM1085 1434h353l-252 -1434h-535l-63 940h-25l-166 -940h-350l252 1434h539l59 -934h25zM1896 1200 q-27 -37 -48 -142.5t-21 -164.5q0 -63 55 -64q51 0 70 33q23 39 46 146.5t23 158.5q0 35 -13 48.5t-42 13.5q-50 0 -70 -29zM1405 270l45 252h768l-45 -252h-768z" glyph-name="afii61352" horiz-adv-x="2293" unicode="№"/><glyph d="M653 1278h-141l-98 -561h-205l98 561h-143l26 156h490zM1475 1434l-125 -717h-187l82 467l-139 -301h-166l-37 303h-8l-82 -469h-186l125 717h249l48 -349h6l166 349h254z" glyph-name="trademark" horiz-adv-x="1460" unicode="™"/><glyph d="M1198 1475h252l-864 -1516h-250zM586 557h-559l34 197h162l84 479l-147 -41v190l182 52h250l-119 -680h148zM1221 877h559l-37 -207l-400 -670h-253l407 678v2h-311z" glyph-name="uni2150" horiz-adv-x="1744" unicode="⅐"/><glyph d="M1198 1475h252l-864 -1516h-250zM586 557h-559l34 197h162l84 479l-147 -41v190l182 52h250l-119 -680h148zM1460 889q158 0 223.5 -54.5t65.5 -170.5q0 -197 -137 -402q-92 -137 -226 -262h-282q123 123 209 225q53 61 78 99h-15q-29 -6 -55 -7q-106 0 -160.5 48.5 t-54.5 156.5q0 164 74 269q67 98 280 98zM1470 520q31 43 31 121q0 53 -57 53q-43 0 -66 -28q-31 -43 -30 -123q0 -29 12 -40t41 -11q49 -1 69 28z" glyph-name="uni2151" horiz-adv-x="1763" unicode="⅑"/><glyph d="M1198 1475h252l-864 -1516h-250zM586 557h-559l34 197h162l84 479l-147 -41v190l182 52h250l-119 -680h148zM2132 891q158 0 224.5 -71.5t66.5 -217.5q0 -117 -35 -265.5t-92 -230.5q-82 -119 -266 -118q-158 0 -226.5 72.5t-68.5 218.5q0 117 34.5 263t92.5 228 q84 121 270 121zM1620 877l-119 -680h148l-35 -197h-559l35 197h161l84 479l-147 -41v190l182 52h250zM2089 205q31 43 59.5 193.5t28.5 226.5q0 74 -49 73q-39 0 -55 -28q-31 -43 -59.5 -190.5t-28.5 -223.5t53 -76q35 0 51 25z" glyph-name="uni2152" horiz-adv-x="2473" unicode="⅒"/><glyph d="M1198 1475h252l-864 -1516h-250zM586 557h-559l34 197h162l84 479l-147 -41v190l182 52h250l-119 -680h148zM1587 453q78 -43 78 -146q0 -123 -61 -213q-74 -106 -295 -106q-160 0 -248 39l31 188q68 -27 176 -27q92 0 123 43q23 29 22 80q0 33 -17.5 44.5t-58.5 11.5 h-118l32 178h97q61 0 84 35q23 29 22 71q0 47 -70 47q-86 0 -176 -32v202q72 23 213 23q289 0 289 -201q0 -106 -47 -172q-29 -41 -74 -57z" glyph-name="onethird" horiz-adv-x="1755" unicode="⅓"/><glyph d="M1208 1475h252l-864 -1516h-250zM623 754l-35 -197h-568l31 176q18 90 51 144.5t123 123.5l181 140q45 37 45 69q0 37 -72 37q-68 0 -160 -20l-6 203q119 18 207 18q285 0 285 -215q0 -137 -121 -227l-172 -134q-76 -57 -93 -118h304zM1597 453q78 -43 78 -146 q0 -123 -61 -213q-74 -106 -295 -106q-160 0 -248 39l31 188q66 -27 176 -27q92 0 123 43q23 29 22 80q0 33 -17 44.5t-58 11.5h-119l33 178h96q61 0 84 35q23 29 22 71q0 47 -69 47q-86 0 -176 -32v202q72 23 213 23q289 0 288 -201q0 -106 -47 -172q-29 -41 -74 -57z" glyph-name="twothirds" horiz-adv-x="1765" unicode="⅔"/><glyph d="M1198 1475h252l-864 -1516h-250zM586 557h-559l34 197h162l84 479l-147 -41v190l182 52h250l-119 -680h148zM1706 680h-268l-25 -123q141 -2 199.5 -53t58.5 -154q0 -150 -67 -250q-76 -113 -310 -112q-164 0 -250 35l25 194q55 -23 178 -22q117 0 148 47q27 37 26 84 q0 29 -17.5 39t-57.5 10h-220l105 502h510z" glyph-name="uni2155" horiz-adv-x="1746" unicode="⅕"/><glyph d="M1208 1475h252l-864 -1516h-250zM623 754l-35 -197h-568l31 176q18 90 51 144.5t123 123.5l181 140q45 37 45 69q0 37 -72 37q-68 0 -160 -20l-6 203q119 18 207 18q285 0 285 -215q0 -137 -121 -227l-172 -134q-76 -57 -93 -118h304zM1716 680h-268l-25 -123 q141 -2 199.5 -53t58.5 -154q0 -150 -67 -250q-78 -113 -309 -112q-164 0 -250 35l24 194q55 -23 178 -22q117 0 148 47q27 37 27 84q0 29 -17.5 39t-58.5 10h-219l104 502h510z" glyph-name="uni2156" horiz-adv-x="1757" unicode="⅖"/><glyph d="M1163 1475h252l-864 -1516h-250zM580 651q-74 -106 -295 -106q-160 0 -248 39l31 188q68 -27 176 -27q92 0 123 43q23 29 22 80q0 33 -17.5 44.5t-58.5 11.5h-118l32 178h97q61 0 84 35q23 29 22 71q0 47 -70 47q-86 0 -176 -32v202q72 23 213 23q289 0 289 -201 q0 -106 -47 -172q-29 -41 -74 -57l-2 -8q78 -43 78 -146q0 -123 -61 -213zM1671 680h-268l-25 -123q141 -2 199.5 -53t58.5 -154q0 -150 -67 -250q-78 -113 -309 -112q-164 0 -250 35l24 194q55 -23 178 -22q117 0 148 47q27 37 26 84q0 29 -17 39t-58 10h-219l104 502h510z " glyph-name="uni2157" horiz-adv-x="1712" unicode="⅗"/><glyph d="M1300 1475h252l-864 -1516h-250zM629 557h-215l28 156h-379l41 221l287 500h223l-278 -525v-2h141l41 232h215l-41 -232h78l-35 -194h-78zM1808 680h-268l-24 -123q141 -2 199.5 -53t58.5 -154q0 -150 -68 -250q-76 -113 -309 -112q-164 0 -250 35l24 194q55 -23 179 -22 q117 0 147 47q27 37 27 84q0 29 -17.5 39t-58.5 10h-219l104 502h510z" glyph-name="uni2158" horiz-adv-x="1849" unicode="⅘"/><glyph d="M1198 1475h252l-864 -1516h-250zM586 557h-559l34 197h162l84 479l-147 -41v190l182 52h250l-119 -680h148zM1401 559q106 0 160.5 -47t54.5 -158q0 -162 -72 -268q-70 -98 -282 -98q-158 0 -223.5 54t-65.5 171q0 199 139 401q90 137 225 263h281q-123 -123 -209 -226 q-57 -66 -76 -98h15q24 6 53 6zM1343 211q33 45 33 123q0 51 -53 51q-49 0 -70 -29q-33 -45 -32 -120q0 -53 57 -54q47 0 65 29z" glyph-name="uni2159" horiz-adv-x="1681" unicode="⅙"/><glyph d="M1204 1475h252l-864 -1516h-250zM629 657q-76 -113 -310 -112q-164 0 -249 35l24 194q55 -23 178 -22q117 0 148 47q27 37 26 84q0 29 -17 39t-58 10h-219l104 502h510l-35 -197h-268l-25 -123q141 -2 199.5 -53t58.5 -154q1 -150 -67 -250zM1407 559q106 0 160.5 -47 t54.5 -158q0 -162 -72 -268q-70 -98 -282 -98q-158 0 -223.5 54t-65.5 171q0 199 139 401q90 137 225 263h281q-123 -123 -209 -226q-57 -66 -76 -98h15q24 6 53 6zM1350 211q33 45 32 123q0 51 -53 51q-49 0 -69 -29q-33 -45 -33 -120q0 -53 57 -54q48 0 66 29z" glyph-name="uni215A" horiz-adv-x="1687" unicode="⅚"/><glyph d="M1198 1475h252l-864 -1516h-250zM586 557h-559l34 197h162l84 479l-147 -41v190l182 52h250l-119 -680h148zM1702 522q-29 -45 -105 -69l-2 -4q106 -45 107 -168q0 -111 -55 -191q-72 -102 -306 -102q-166 0 -239.5 52t-73.5 161q0 115 51 182q43 57 131 80l2 8 q-84 41 -84 152q0 106 52 176q63 92 280 92q154 0 220.5 -51.5t66.5 -149.5q0 -102 -45 -168zM1380 680q-25 -39 -24 -98q0 -47 59 -47q51 0 68 26q27 37 26 98q0 27 -13 35t-46 8q-52 1 -70 -22zM1430 211q27 35 26 104q0 31 -14.5 42.5t-50.5 11.5q-55 0 -78 -31 q-29 -39 -29 -107q0 -51 68 -51q62 0 78 31z" glyph-name="oneeighth" horiz-adv-x="1794" unicode="⅛"/><glyph d="M1163 1475h252l-864 -1516h-250zM580 651q-74 -106 -295 -106q-160 0 -248 39l31 188q68 -27 176 -27q92 0 123 43q23 29 22 80q0 33 -17.5 44.5t-58.5 11.5h-118l32 178h97q61 0 84 35q23 29 22 71q0 47 -70 47q-86 0 -176 -32v202q72 23 213 23q289 0 289 -201 q0 -106 -47 -172q-29 -41 -74 -57l-2 -8q78 -43 78 -146q0 -123 -61 -213zM1667 522q-29 -45 -104 -69l-2 -4q106 -45 106 -168q0 -111 -55 -191q-72 -102 -305 -102q-166 0 -240 52t-74 161q0 115 51 182q43 57 132 80l2 8q-84 41 -84 152q0 106 51 176q63 92 280 92 q154 0 220.5 -51.5t66.5 -149.5q0 -102 -45 -168zM1346 680q-25 -39 -25 -98q0 -47 59 -47q51 0 68 26q27 37 27 98q0 27 -13.5 35t-46.5 8q-51 1 -69 -22zM1395 211q27 35 26 104q0 31 -14 42.5t-51 11.5q-55 0 -78 -31q-29 -39 -29 -107q0 -51 68 -51q62 0 78 31z" glyph-name="threeeighths" horiz-adv-x="1759" unicode="⅜"/><glyph d="M1204 1475h252l-864 -1516h-250zM629 657q-76 -113 -310 -112q-164 0 -249 35l24 194q55 -23 178 -22q117 0 148 47q27 37 26 84q0 29 -17 39t-58 10h-219l104 502h510l-35 -197h-268l-25 -123q141 -2 199.5 -53t58.5 -154q1 -150 -67 -250zM1708 522q-29 -45 -104 -69 l-2 -4q106 -45 106 -168q0 -111 -55 -191q-72 -102 -305 -102q-166 0 -240 52t-74 161q0 115 51 182q43 57 132 80l2 8q-84 41 -84 152q0 106 51 176q63 92 280 92q154 0 220.5 -51.5t66.5 -149.5q0 -102 -45 -168zM1386 680q-25 -39 -24 -98q0 -47 59 -47q51 0 68 26 q27 37 27 98q0 27 -13.5 35t-46.5 8q-52 1 -70 -22zM1436 211q27 35 26 104q0 31 -14 42.5t-51 11.5q-55 0 -78 -31q-29 -39 -29 -107q0 -51 68 -51q62 0 78 31z" glyph-name="fiveeighths" horiz-adv-x="1800" unicode="⅝"/><glyph d="M1042 1475h252l-864 -1516h-250zM41 557l408 678v2h-312l35 197h559l-37 -207l-399 -670h-254zM1546 522q-29 -45 -104 -69l-2 -4q106 -45 106 -168q0 -111 -55 -191q-72 -102 -305 -102q-166 0 -240 52t-74 161q0 115 52 182q43 57 131 80l2 8q-84 41 -84 152 q0 106 51 176q63 92 281 92q154 0 220 -51.5t66 -149.5q0 -102 -45 -168zM1225 680q-25 -39 -25 -98q0 -47 60 -47q51 0 67 26q27 37 27 98q0 27 -13.5 35t-46.5 8q-51 1 -69 -22zM1274 211q27 35 26 104q0 31 -14 42.5t-51 11.5q-55 0 -78 -31q-29 -39 -29 -107 q0 -51 68 -51q62 0 78 31z" glyph-name="seveneighths" horiz-adv-x="1638" unicode="⅞"/><glyph d="M1198 1475h252l-864 -1516h-250zM586 557h-559l34 197h162l84 479l-147 -41v190l182 52h250l-119 -680h148z" glyph-name="uni215F" horiz-adv-x="1327" unicode="⅟"/><glyph d="M164 721h1030l-51 -291h-1032z" glyph-name="minus" horiz-adv-x="1300" unicode="−"/><glyph d="M319 551l-196 70q27 152 132 250t245 98q94 0 176 -56l139 -94q27 -16 57 -16q82 0 132 133l196 -70q-27 -154 -134.5 -251t-242.5 -97q-98 0 -176 55l-139 93q-31 18 -59 18q-81 0 -130 -133zM319 90l-196 70q27 152 132 250t245 98q94 0 176 -55l139 -95q27 -16 57 -16 q82 0 132 133l196 -69q-27 -154 -134.5 -251.5t-242.5 -97.5q-98 0 -176 56l-139 92q-31 18 -59 18q-81 0 -130 -133z" glyph-name="approxequal" horiz-adv-x="1300" unicode="≈"/><glyph d="M1180 657h-346l-76 -149h395l-51 -291h-494l-114 -225h-279l115 225h-252l51 291h350l76 149h-399l49 291h497l111 215h279l-111 -215h250z" glyph-name="notequal" horiz-adv-x="1300" unicode="≠"/><glyph d="M1190 1028l-641 -192l-6 -35l571 -189l-53 -313l-856 311l71 420l967 309zM82 -78l51 291h911l-51 -291h-911z" glyph-name="lessequal" horiz-adv-x="1300" unicode="≤"/><glyph d="M332 1339l856 -309l-72 -420l-966 -311l55 313l637 191l8 35l-571 190zM82 -78l51 291h911l-51 -291h-911z" glyph-name="greaterequal" horiz-adv-x="1300" unicode="≥"/><glyph d="M823 -20q-297 0 -480 181t-183 476q0 342 233.5 579.5t581.5 237.5q297 0 480 -181t183 -476q0 -342 -233.5 -579.5t-581.5 -237.5zM840 125q272 0 452.5 194.5t180.5 464.5q0 236 -140.5 380.5t-369.5 144.5q-272 0 -453.5 -197t-181.5 -467q0 -233 141.5 -376.5 t370.5 -143.5zM555 291l35 196h162l82 480l-154 -41l2 190l190 51h248l-121 -680h148l-35 -196h-557z" glyph-name="uni2460" horiz-adv-x="1740" unicode="①"/><glyph d="M823 -20q-297 0 -480 181t-183 476q0 342 233.5 579.5t581.5 237.5q297 0 480 -181t183 -476q0 -342 -233.5 -579.5t-581.5 -237.5zM840 125q272 0 452.5 194.5t180.5 464.5q0 236 -140.5 380.5t-369.5 144.5q-272 0 -453.5 -197t-181.5 -467q0 -233 141.5 -376.5 t370.5 -143.5zM541 291l28 151q27 152 174 267l181 137q41 35 41 78q0 33 -21.5 46t-73.5 13q-61 0 -153 -14l37 190q131 20 221 21q131 0 194.5 -37t63.5 -129q0 -147 -148 -256l-172 -133q-63 -49 -71 -119l-2 -19h303l-35 -196h-567z" glyph-name="uni2461" horiz-adv-x="1740" unicode="②"/><glyph d="M823 -20q-297 0 -480 181t-183 476q0 342 233.5 579.5t581.5 237.5q297 0 480 -181t183 -476q0 -342 -233.5 -579.5t-581.5 -237.5zM840 125q272 0 452.5 194.5t180.5 464.5q0 236 -140.5 380.5t-369.5 144.5q-272 0 -453.5 -197t-181.5 -467q0 -233 141.5 -376.5 t370.5 -143.5zM786 276q-166 0 -233 33l76 207q70 -37 186 -37q68 0 90 31q23 33 23 82q0 66 -84 65h-113l31 179h123q43 0 63 26q18 25 19 68q0 37 -24.5 48t-76.5 11q-88 0 -161 -20l32 178q78 33 234 33q133 0 198.5 -36t65.5 -122q0 -113 -55 -182q-33 -47 -82 -72 l-2 -8q51 -23 69.5 -54.5t18.5 -78.5q0 -125 -66 -217q-99 -134 -332 -134z" glyph-name="uni2462" horiz-adv-x="1740" unicode="③"/><glyph d="M823 -20q-297 0 -480 181t-183 476q0 342 233.5 579.5t581.5 237.5q297 0 480 -181t183 -476q0 -342 -233.5 -579.5t-581.5 -237.5zM840 125q272 0 452.5 194.5t180.5 464.5q0 236 -140.5 380.5t-369.5 144.5q-272 0 -453.5 -197t-181.5 -467q0 -233 141.5 -376.5 t370.5 -143.5zM852 293l29 156h-377l43 221l289 499h213l-273 -503l-4 -21h141l41 229h215l-41 -229h78l-32 -196h-80l-27 -156h-215z" glyph-name="uni2463" horiz-adv-x="1740" unicode="④"/><glyph d="M823 -20q-297 0 -480 181t-183 476q0 342 233.5 579.5t581.5 237.5q297 0 480 -181t183 -476q0 -342 -233.5 -579.5t-581.5 -237.5zM840 125q272 0 452.5 194.5t180.5 464.5q0 236 -140.5 380.5t-369.5 144.5q-272 0 -453.5 -197t-181.5 -467q0 -233 141.5 -376.5 t370.5 -143.5zM758 276q-121 0 -232 35l66 207q82 -33 182 -33q96 0 121 33q20 35 20 80q0 37 -19 52.5t-67 15.5h-200l104 501h508l-35 -196h-268l-27 -123h19q139 0 196.5 -39t57.5 -123q0 -66 -25.5 -148.5t-62.5 -136.5q-90 -125 -338 -125z" glyph-name="uni2464" horiz-adv-x="1740" unicode="⑤"/><glyph d="M823 -20q-297 0 -480 181t-183 476q0 342 233.5 579.5t581.5 237.5q297 0 480 -181t183 -476q0 -342 -233.5 -579.5t-581.5 -237.5zM840 125q272 0 452.5 194.5t180.5 464.5q0 236 -140.5 380.5t-369.5 144.5q-272 0 -453.5 -197t-181.5 -467q0 -233 141.5 -376.5 t370.5 -143.5zM799 285q-133 0 -201 45t-68 153q0 193 179 453q88 125 202 240h254q-74 -66 -149 -160q-59 -70 -129 -172h16q39 14 109 14q88 0 133 -36t45 -124q0 -70 -23.5 -152.5t-62.5 -137.5q-84 -123 -305 -123zM842 483q45 0 61 25q33 45 33 123q0 31 -13.5 42 t-45.5 11q-47 0 -64 -22q-31 -45 -31 -125q0 -31 13.5 -42.5t46.5 -11.5z" glyph-name="uni2465" horiz-adv-x="1740" unicode="⑥"/><glyph d="M823 -20q-297 0 -480 181t-183 476q0 342 233.5 579.5t581.5 237.5q297 0 480 -181t183 -476q0 -342 -233.5 -579.5t-581.5 -237.5zM840 125q272 0 452.5 194.5t180.5 464.5q0 236 -140.5 380.5t-369.5 144.5q-272 0 -453.5 -197t-181.5 -467q0 -233 141.5 -376.5 t370.5 -143.5zM590 266l397 658l4 22h-311l33 197h559l-39 -209l-404 -668h-239z" glyph-name="uni2466" horiz-adv-x="1740" unicode="⑦"/><glyph d="M823 -20q-297 0 -480 181t-183 476q0 342 233.5 579.5t581.5 237.5q297 0 480 -181t183 -476q0 -342 -233.5 -579.5t-581.5 -237.5zM840 125q272 0 452.5 194.5t180.5 464.5q0 236 -140.5 380.5t-369.5 144.5q-272 0 -453.5 -197t-181.5 -467q0 -233 141.5 -376.5 t370.5 -143.5zM797 279q-152 0 -212.5 39.5t-60.5 125.5q0 125 62 215q33 53 110 76l2 13q-76 35 -75 116q0 109 61 197q88 121 322 121q139 0 195 -39t56 -119q0 -102 -57 -182q-43 -59 -108 -84l-2 -10q119 -45 118 -146q0 -104 -63 -196q-90 -127 -348 -127zM920 825 q47 0 65 27q25 39 25 94q0 29 -13.5 38t-48.5 9q-49 0 -63 -22q-27 -37 -27 -97q1 -49 62 -49zM856 471q55 0 76 29q27 43 26 102q0 33 -15 45t-52 12q-59 0 -76 -28q-29 -35 -29 -107q0 -31 16.5 -42t53.5 -11z" glyph-name="uni2467" horiz-adv-x="1740" unicode="⑧"/><glyph d="M823 -20q-297 0 -480 181t-183 476q0 342 233.5 579.5t581.5 237.5q297 0 480 -181t183 -476q0 -342 -233.5 -579.5t-581.5 -237.5zM840 125q272 0 452.5 194.5t180.5 464.5q0 236 -140.5 380.5t-369.5 144.5q-272 0 -453.5 -197t-181.5 -467q0 -233 141.5 -376.5 t370.5 -143.5zM618 281q70 66 150 159q63 78 129 174h-16q-39 -14 -109 -14q-88 0 -132 35t-44 125q0 70 22.5 152.5t61.5 138.5q84 121 305 120q133 0 200.5 -44t67.5 -152q0 -199 -178 -455q-88 -123 -203 -239h-254zM907 774q49 0 64 23q31 45 30 125q0 53 -59 53 q-43 0 -61 -25q-33 -49 -33 -123q0 -53 59 -53z" glyph-name="uni2468" horiz-adv-x="1740" unicode="⑨"/><glyph d="M823 -20q-297 0 -480 181t-183 476q0 342 233.5 579.5t581.5 237.5q297 0 480 -181t183 -476q0 -342 -233.5 -579.5t-581.5 -237.5zM840 125q272 0 452.5 194.5t180.5 464.5q0 236 -140.5 380.5t-369.5 144.5q-272 0 -453.5 -197t-181.5 -467q0 -233 141.5 -376.5 t370.5 -143.5zM852 276q-158 0 -225.5 73t-67.5 216q0 117 35 264.5t92 229.5q84 121 268 121q156 0 223.5 -72t67.5 -215q0 -119 -34.5 -266.5t-94.5 -231.5q-82 -119 -264 -119zM856 471q35 0 53 27q31 43 59.5 191.5t28.5 225.5q0 74 -51 74q-35 0 -53 -26 q-33 -43 -60.5 -191.5t-27.5 -226.5q0 -74 51 -74z" glyph-name="uni24EA" horiz-adv-x="1740" unicode="⓪"/><glyph d="M823 -20q-297 0 -480 181t-183 476q0 342 233.5 579.5t581.5 237.5q297 0 480 -181t183 -476q0 -342 -233.5 -579.5t-581.5 -237.5zM803 276q213 0 309 144q63 90 103 242.5t40 271.5q0 127 -58 186.5t-198 59.5q-211 0 -311 -144q-63 -90 -101 -241.5t-38 -270.5 q0 -127 57.5 -187.5t196.5 -60.5zM856 471q-51 0 -51 72q0 78 28.5 226.5t59.5 191.5q18 29 53 28q51 0 51 -76q0 -74 -28.5 -223t-57.5 -194q-22 -25 -55 -25z" glyph-name="uni24FF" horiz-adv-x="1740" unicode="⓿"/><glyph d="M823 -20q-297 0 -480 181t-183 476q0 342 233.5 579.5t581.5 237.5q297 0 480 -181t183 -476q0 -342 -233.5 -579.5t-581.5 -237.5zM555 291h557l35 196h-148l121 680h-248l-190 -51l-2 -190l154 41l-82 -480h-162z" glyph-name="uni2776" horiz-adv-x="1740" unicode="❶"/><glyph d="M823 -20q-297 0 -480 181t-183 476q0 342 233.5 579.5t581.5 237.5q297 0 480 -181t183 -476q0 -342 -233.5 -579.5t-581.5 -237.5zM541 291h567l35 196h-303l2 19q6 68 78 123l165 129q147 111 148 256q0 92 -64.5 129t-195.5 37q-88 0 -219 -21l-37 -190q92 14 153 14 q51 0 73 -13.5t22 -45.5q0 -43 -41 -78l-144 -111q-109 -84 -152.5 -145.5t-58.5 -147.5z" glyph-name="uni2777" horiz-adv-x="1740" unicode="❷"/><glyph d="M823 -20q-297 0 -480 181t-183 476q0 342 233.5 579.5t581.5 237.5q297 0 480 -181t183 -476q0 -342 -233.5 -579.5t-581.5 -237.5zM784 276q236 0 334 138q68 90 68 213q0 92 -90 133l2 8q49 25 82 72q53 78 53 174q0 166 -262 166q-156 0 -234 -33l-32 -178 q49 20 167 20q47 0 71 -11t24 -48q0 -39 -19 -68q-20 -27 -63 -26h-123l-31 -179h113q84 0 84 -63q0 -51 -23 -84q-23 -31 -90 -31q-115 0 -186 37l-76 -207q67 -33 231 -33z" glyph-name="uni2778" horiz-adv-x="1740" unicode="❸"/><glyph d="M823 -20q-297 0 -480 181t-183 476q0 342 233.5 579.5t581.5 237.5q297 0 480 -181t183 -476q0 -342 -233.5 -579.5t-581.5 -237.5zM852 293h215l27 156h80l32 196h-78l41 229h-215l-41 -229h-141l4 21l273 503h-213l-289 -499l-43 -221h377z" glyph-name="uni2779" horiz-adv-x="1740" unicode="❹"/><glyph d="M823 -20q-297 0 -480 181t-183 476q0 342 233.5 579.5t581.5 237.5q297 0 480 -181t183 -476q0 -342 -233.5 -579.5t-581.5 -237.5zM760 276q180 0 270 62q72 49 113 150.5t41 189.5q0 90 -57.5 130t-196.5 40h-19l27 123h268l35 196h-508l-104 -501h200q47 0 66.5 -15.5 t19.5 -52.5q0 -72 -36 -96q-25 -16 -99 -17q-106 0 -188 33l-66 -207q111 -35 234 -35z" glyph-name="uni277A" horiz-adv-x="1740" unicode="❺"/><glyph d="M823 -20q-297 0 -480 181t-183 476q0 342 233.5 579.5t581.5 237.5q297 0 480 -181t183 -476q0 -342 -233.5 -579.5t-581.5 -237.5zM797 287q150 0 239 57q74 47 112 149.5t38 198.5q0 94 -44 131t-132 37q-51 0 -109 -14h-16q70 102 129 170q61 76 153 162h-258 q-25 -27 -108 -125q-270 -324 -271 -559q0 -113 68 -160t199 -47zM840 485q-33 0 -46.5 12.5t-13.5 43.5q0 102 45 135q12 10 52 10q31 0 44 -11t13 -44t-11.5 -76t-31.5 -57q-16 -13 -51 -13z" glyph-name="uni277B" horiz-adv-x="1740" unicode="❻"/><glyph d="M823 -20q-297 0 -480 181t-183 476q0 342 233.5 579.5t581.5 237.5q297 0 480 -181t183 -476q0 -342 -233.5 -579.5t-581.5 -237.5zM594 289h240l403 669l39 207h-559l-33 -196h311l-4 -23z" glyph-name="uni277C" horiz-adv-x="1740" unicode="❼"/><glyph d="M823 -20q-297 0 -480 181t-183 476q0 342 233.5 579.5t581.5 237.5q297 0 480 -181t183 -476q0 -342 -233.5 -579.5t-581.5 -237.5zM799 279q186 0 278 65q59 43 95 113.5t36 138.5q0 106 -118 152l2 10q27 8 51 28q113 80 112 228q0 84 -58 126t-200 42q-166 0 -252 -62 q-59 -39 -91.5 -110.5t-32.5 -141.5q0 -86 77 -120l-2 -13q-41 -14 -65 -30q-51 -39 -77 -110t-26 -140q0 -90 59.5 -133t211.5 -43zM920 825q-61 0 -62 52q0 80 39 106q16 10 51 10t48.5 -9t13.5 -38q0 -82 -39 -108q-18 -13 -51 -13zM858 471q-39 0 -55.5 12.5t-16.5 42.5 q0 86 41 119q20 14 58 14q41 0 57 -12t16 -45q0 -90 -40 -117q-21 -14 -60 -14z" glyph-name="uni277D" horiz-adv-x="1740" unicode="❽"/><glyph d="M823 -20q-297 0 -480 181t-183 476q0 342 233.5 579.5t581.5 237.5q297 0 480 -181t183 -476q0 -342 -233.5 -579.5t-581.5 -237.5zM621 281h256q72 78 110 127q270 324 270 559q0 113 -67.5 158.5t-198.5 45.5q-158 0 -239 -57q-74 -47 -112 -149.5t-38 -198.5 q0 -94 44 -130t132 -36q68 0 107 14h16q-53 -84 -127 -172q-92 -104 -153 -161zM911 774q-31 0 -44 11.5t-13 44t11.5 75.5t31.5 58q16 12 51 12q59 0 60 -57q0 -100 -45 -136q-17 -8 -52 -8z" glyph-name="uni277E" horiz-adv-x="1740" unicode="❾"/><glyph d="M338 1595h303l-49 -274h-303zM596 1126l-199 -1126h-383l199 1126h383z" glyph-name="glyph593" horiz-adv-x="606"/><glyph d="M793 1126h383l-197 -1110l-346 -30v127h-15q-76 -133 -237 -133q-174 0 -255 94t-81 288q0 197 66.5 402t164.5 297q96 86 256 86q180 0 228 -131h12zM719 717q8 33 8 63q0 86 -86 86q-70 0 -102 -51q-39 -57 -72 -206.5t-33 -243.5q0 -57 20.5 -81t67.5 -24q61 0 96 36 t50 124z" glyph-name="a.ss01" horiz-adv-x="1189"/><glyph d="M1157 1704l-334 -408h-243l243 408h334zM793 1126h383l-197 -1110l-346 -30v127h-15q-76 -133 -237 -133q-174 0 -255 94t-81 288q0 197 66.5 402t164.5 297q96 86 256 86q180 0 228 -131h12zM719 717q8 33 8 63q0 86 -86 86q-70 0 -102 -51q-39 -57 -72 -206.5 t-33 -243.5q0 -57 20.5 -81t67.5 -24q61 0 96 36t50 124z" glyph-name="aacute.aalt" horiz-adv-x="1189"/><glyph d="M709 1262q-174 0 -249 63.5t-75 179.5q0 51 8 94l6 25h213l-8 -39q-4 -12 -4 -31q0 -80 125 -79q82 0 119 29.5t53 109.5l4 10h211l-10 -53q-31 -176 -129 -242.5t-264 -66.5zM793 1126h383l-197 -1110l-346 -30v127h-15q-76 -133 -237 -133q-174 0 -255 94t-81 288 q0 197 66.5 402t164.5 297q96 86 256 86q180 0 228 -131h12zM719 717q8 33 8 63q0 86 -86 86q-70 0 -102 -51q-39 -57 -72 -206.5t-33 -243.5q0 -57 20.5 -81t67.5 -24q61 0 96 36t50 124z" glyph-name="abreve.aalt" horiz-adv-x="1189"/><glyph d="M1214 2071l-335 -408h-242l244 408h333zM709 1262q-174 0 -249 63.5t-75 179.5q0 51 8 94l6 25h213l-8 -39q-4 -12 -4 -33q0 -78 121 -77q84 0 122 29.5t54 109.5l4 10h211l-10 -53q-31 -176 -129 -242.5t-264 -66.5zM772 1016l21 110h383l-197 -1110l-346 -30v127h-15 q-76 -133 -237 -133q-174 0 -255 94t-81 288q0 197 66.5 402t164.5 297q96 86 256 86q180 0 228 -131h12zM719 717q8 33 8 63q0 86 -86 86q-70 0 -102 -51q-39 -57 -72 -206.5t-33 -243.5q0 -57 20.5 -81t67.5 -24q61 0 96 36t50 124z" glyph-name="uni1EAF.aalt" horiz-adv-x="1189"/><glyph d="M709 1262q-174 0 -249 63.5t-75 179.5q0 51 8 94l6 25h213l-8 -39q-4 -12 -4 -31q0 -80 125 -79q82 0 119 29.5t53 109.5l4 10h211l-10 -53q-31 -176 -129 -242.5t-264 -66.5zM793 1126h383l-197 -1110l-346 -30v127h-15q-76 -133 -237 -133q-174 0 -255 94t-81 288 q0 197 66.5 402t164.5 297q96 86 256 86q180 0 228 -131h12zM719 717q8 33 8 63q0 86 -86 86q-70 0 -102 -51q-39 -57 -72 -206.5t-33 -243.5q0 -57 20.5 -81t67.5 -24q61 0 96 36t50 124zM246 -416l47 273h303l-47 -273h-303z" glyph-name="uni1EB7.aalt" horiz-adv-x="1189"/><glyph d="M881 1665h-228l-192 408h319zM709 1262q-174 0 -249 63.5t-75 179.5q0 51 8 94l6 25h213l-8 -39q-4 -12 -4 -33q0 -78 121 -77q84 0 122 29.5t54 109.5l4 10h211l-10 -53q-31 -176 -129 -242.5t-264 -66.5zM793 1126h383l-197 -1110l-346 -30v127h-15q-76 -133 -237 -133 q-174 0 -255 94t-81 288q0 197 66.5 402t164.5 297q96 86 256 86q180 0 228 -131h12zM719 717q8 33 8 63q0 86 -86 86q-70 0 -102 -51q-39 -57 -72 -206.5t-33 -243.5q0 -57 20.5 -81t67.5 -24q61 0 96 36t50 124z" glyph-name="uni1EB1.aalt" horiz-adv-x="1189"/><glyph d="M793 1851q49 31 53 39q8 12 8 23q0 23 -51 22q-53 0 -117 -6l-10 152q90 12 174 12q119 0 169 -34t50 -103q0 -45 -16 -98q-14 -37 -58 -68l-90 -61q-57 -41 -71 -91h-160q14 92 31.5 130t52.5 61zM709 1262q-174 0 -249 63.5t-75 179.5q0 51 8 94l6 25h213l-8 -39 q-4 -12 -4 -33q0 -78 121 -77q84 0 122 29.5t54 109.5l4 10h211l-10 -53q-31 -176 -129 -242.5t-264 -66.5zM793 1126h383l-197 -1110l-346 -30v127h-15q-76 -133 -237 -133q-174 0 -255 94t-81 288q0 197 66.5 402t164.5 297q96 86 256 86q180 0 228 -131h12zM719 717 q8 33 8 63q0 86 -86 86q-70 0 -102 -51q-39 -57 -72 -206.5t-33 -243.5q0 -57 20.5 -81t67.5 -24q61 0 96 36t50 124z" glyph-name="uni1EB3.aalt" horiz-adv-x="1189"/><glyph d="M655 1817q-61 0 -94 -103h-158q25 141 106 230.5t187 89.5q74 0 144 -54l67 -51q27 -23 54 -22q55 0 90 100h157q-27 -152 -104.5 -233.5t-188.5 -81.5q-84 0 -139 49l-67 55q-23 21 -54 21zM709 1262q-326 0 -326 243q0 39 10 94l6 25h211l-8 -39q-2 -12 -2 -33 q0 -78 121 -77q84 0 122 29.5t54 109.5l4 10h211l-10 -53q-31 -176 -129 -242.5t-264 -66.5zM772 1016l21 110h383l-197 -1110l-346 -30v127h-15q-76 -133 -237 -133q-174 0 -255 94t-81 288q0 197 66.5 402t164.5 297q96 86 256 86q180 0 228 -131h12zM719 717q8 33 8 63 q0 86 -86 86q-70 0 -102 -51q-39 -57 -72 -206.5t-33 -243.5q0 -57 20.5 -81t67.5 -24q61 0 96 36t50 124z" glyph-name="uni1EB5.aalt" horiz-adv-x="1189"/><glyph d="M526 1288l-192 408h241l148 -228l225 228h258l-338 -408h-342zM772 1016l21 110h383l-197 -1110l-346 -30v127h-15q-76 -133 -237 -133q-174 0 -255 94t-81 288q0 197 66.5 402t164.5 297q96 86 256 86q180 0 228 -131h12zM719 717q8 33 8 63q0 86 -86 86q-70 0 -102 -51 q-39 -57 -72 -206.5t-33 -243.5q0 -57 20.5 -81t67.5 -24q61 0 96 36t50 124z" glyph-name="uni01CE.aalt" horiz-adv-x="1189"/><glyph d="M741 1513l-225 -225h-258l336 408h342l194 -408h-243zM793 1126h383l-197 -1110l-346 -30v127h-15q-76 -133 -237 -133q-174 0 -255 94t-81 288q0 197 66.5 402t164.5 297q96 86 256 86q180 0 228 -131h12zM719 717q8 33 8 63q0 86 -86 86q-70 0 -102 -51 q-39 -57 -72 -206.5t-33 -243.5q0 -57 20.5 -81t67.5 -24q61 0 96 36t50 124z" glyph-name="acircumflex.aalt" horiz-adv-x="1189"/><glyph d="M1323 1944h338l-336 -408h-244zM741 1513l-225 -225h-258l336 408h342l194 -408h-243zM772 1016l21 110h383l-197 -1110l-346 -30v127h-15q-76 -133 -237 -133q-174 0 -255 94t-81 288q0 197 66.5 402t164.5 297q96 86 256 86q180 0 228 -131h12zM719 717q8 33 8 63 q0 86 -86 86q-70 0 -102 -51q-39 -57 -72 -206.5t-33 -243.5q0 -57 20.5 -81t67.5 -24q61 0 96 36t50 124z" glyph-name="uni1EA5.aalt" horiz-adv-x="1189"/><glyph d="M741 1513l-225 -225h-258l336 408h342l194 -408h-243zM793 1126h383l-197 -1110l-346 -30v127h-15q-76 -133 -237 -133q-174 0 -255 94t-81 288q0 197 66.5 402t164.5 297q96 86 256 86q180 0 228 -131h12zM719 717q8 33 8 63q0 86 -86 86q-70 0 -102 -51 q-39 -57 -72 -206.5t-33 -243.5q0 -57 20.5 -81t67.5 -24q61 0 96 36t50 124zM246 -416l47 273h303l-47 -273h-303z" glyph-name="uni1EAD.aalt" horiz-adv-x="1189"/><glyph d="M1374 1536h-225l-191 408h320zM741 1513l-225 -225h-258l336 408h342l194 -408h-243zM772 1016l21 110h383l-197 -1110l-346 -30v127h-15q-76 -133 -237 -133q-174 0 -255 94t-81 288q0 197 66.5 402t164.5 297q96 86 256 86q180 0 228 -131h12zM719 717q8 33 8 63 q0 86 -86 86q-70 0 -102 -51q-39 -57 -72 -206.5t-33 -243.5q0 -57 20.5 -81t67.5 -24q61 0 96 36t50 124z" glyph-name="uni1EA7.aalt" horiz-adv-x="1189"/><glyph d="M1268 1991q117 0 167 -34t50 -104q0 -47 -17 -96q-14 -37 -55 -67l-90 -64q-61 -43 -72 -90h-161q14 92 32.5 130t53.5 60l34 23q49 31 54 39q6 10 6 22q0 14 -9.5 18.5t-39.5 4.5q-53 0 -119 -6l-8 151q88 13 174 13zM739 1513l-225 -225h-256l336 408h342l194 -408 h-243zM772 1016l21 110h383l-197 -1110l-346 -30v127h-15q-76 -133 -237 -133q-174 0 -255 94t-81 288q0 197 66.5 402t164.5 297q96 86 256 86q180 0 228 -131h12zM719 717q8 33 8 63q0 86 -86 86q-70 0 -102 -51q-39 -57 -72 -206.5t-33 -243.5q0 -57 20.5 -81t67.5 -24 q61 0 96 36t50 124z" glyph-name="uni1EA9.aalt" horiz-adv-x="1189"/><glyph d="M657 1888q-63 0 -92 -102h-157q25 143 104.5 230t187.5 87q78 0 144 -51l65 -53q31 -23 56 -23q51 0 90 103h155q-27 -152 -103.5 -235t-186.5 -83q-78 0 -140 49l-67 58q-27 20 -56 20zM739 1513l-225 -225h-256l336 408h342l194 -408h-243zM772 1016l21 110h383 l-197 -1110l-346 -30v127h-15q-76 -133 -237 -133q-174 0 -255 94t-81 288q0 197 66.5 402t164.5 297q96 86 256 86q180 0 228 -131h12zM719 717q8 33 8 63q0 86 -86 86q-70 0 -102 -51q-39 -57 -72 -206.5t-33 -243.5q0 -57 20.5 -81t67.5 -24q61 0 96 36t50 124z" glyph-name="uni1EAB.aalt" horiz-adv-x="1189"/><glyph d="M569 1294h-219l-207 412h320zM1014 1294h-219l-205 412h317zM793 1126h383l-197 -1110l-346 -30v127h-15q-76 -133 -237 -133q-174 0 -255 94t-81 288q0 197 66.5 402t164.5 297q96 86 256 86q180 0 228 -131h12zM719 717q8 33 8 63q0 86 -86 86q-70 0 -102 -51 q-39 -57 -72 -206.5t-33 -243.5q0 -57 20.5 -81t67.5 -24q61 0 96 36t50 124z" glyph-name="uni0201.aalt" horiz-adv-x="1189"/><glyph d="M666 1595l-50 -272h-303l49 272h304zM1141 1595l-49 -272h-304l50 272h303zM793 1126h383l-197 -1110l-346 -30v127h-15q-76 -133 -237 -133q-174 0 -255 94t-81 288q0 197 66.5 402t164.5 297q96 86 256 86q180 0 228 -131h12zM719 717q8 33 8 63q0 86 -86 86 q-70 0 -102 -51q-39 -57 -72 -206.5t-33 -243.5q0 -57 20.5 -81t67.5 -24q61 0 96 36t50 124z" glyph-name="adieresis.aalt" horiz-adv-x="1189"/><glyph d="M793 1126h383l-197 -1110l-346 -30v127h-15q-76 -133 -237 -133q-174 0 -255 94t-81 288q0 197 66.5 402t164.5 297q96 86 256 86q180 0 228 -131h12zM719 717q8 33 8 63q0 86 -86 86q-70 0 -102 -51q-39 -57 -72 -206.5t-33 -243.5q0 -57 20.5 -81t67.5 -24q61 0 96 36 t50 124zM246 -416l47 273h303l-47 -273h-303z" glyph-name="uni1EA1.aalt" horiz-adv-x="1189"/></font>
</defs>
</svg>
