<?xml version="1.0" standalone="no"?>
<!DOCTYPE svg PUBLIC "-//W3C//DTD SVG 1.1//EN" "http://www.w3.org/Graphics/SVG/1.1/DTD/svg11.dtd">
<svg xmlns="http://www.w3.org/2000/svg"><metadata>This SVG WebFont was generated by YouWorkForThem.
Copyright Â© 2017 by Jonathan Hill. All rights reserved.</metadata><defs><font horiz-adv-x="0" id="ywftsvg"><font-face ascent="1604" bbox="-1112 -707 3074 2521" cap-height="1434" descent="-444" font-family="" font-stretch="normal" font-weight="700" panose-1="0 0 8 0 0 0 0 0 0 0" underline-position="0" underline-thickness="0" unicode-range="U+0020-277E" units-per-em="2048" x-height="1126"/><missing-glyph d="M205 61v1229h819v-1229h-819zM348 205h533v942h-533v-942z" horiz-adv-x="1228"/><glyph d="M1448 1317q-82 0 -121 -41t-61 -150h217l-39 -215h-215l-162 -911h-326l162 911h-328l-161 -911h-326l162 911h-176l39 215h176l6 39q37 217 134 300t292 83q129 0 215 -22l-41 -217q-47 8 -100 8q-80 0 -120 -41t-63 -150h330l6 39q37 219 134.5 301t291.5 82 q125 0 215 -22l-41 -217q-41 8 -100 8z" glyph-name="f_f.liga" horiz-adv-x="1402" unicode="ff"/><glyph d="M1665 1569h340l-51 -283h-338zM1921 1126l-199 -1126h-325l159 911h-327l-162 -911h-326l162 911h-328l-161 -911h-326l162 911h-176l39 215h176l6 39q37 217 134 300t292 83q129 0 215 -22l-41 -217q-43 8 -100 8q-80 0 -120 -41t-63 -150h330l6 39q37 219 134.5 301 t291.5 82q123 0 209 -22l-41 -217q-39 8 -94 8q-82 0 -121 -41t-61 -150h655z" glyph-name="f_f_i.liga" horiz-adv-x="1941" unicode="ffi"/><glyph d="M1788 268q0 -29 12 -39t43 -10q41 0 82 12l-2 -237q-80 -14 -192 -14q-147 0 -212 53t-65 166q0 53 12 120l105 592h-342l-162 -911h-326l162 911h-328l-161 -911h-326l162 911h-176l39 215h176l6 39q37 217 134 300t292 83q129 0 215 -22l-41 -217q-39 8 -100 8 q-80 0 -120 -41t-63 -150h330l6 39q37 219 134.5 301t291.5 82q125 0 215 -22l-41 -217q-41 8 -100 8q-82 0 -121 -41t-61 -150h344l71 410h326l-209 -1190q-10 -51 -10 -78z" glyph-name="f_f_l.liga" horiz-adv-x="2041" unicode="ffl"/><glyph d="M1012 1569h338l-50 -283h-337zM1266 1126l-199 -1126h-326l160 911h-326l-161 -911h-326l162 911h-176l39 215h176l6 39q37 217 134 300t292 83q121 0 211 -22l-43 -217q-39 8 -94 8q-80 0 -120 -41t-63 -150h654z" glyph-name="f_i.liga" horiz-adv-x="1282" unicode="fi"/><glyph d="M1135 268q0 -29 12 -39t43 -10q43 0 82 12l-2 -235q-74 -16 -191 -16q-150 0 -213 53t-63 166q0 53 12 120l105 592h-345l-161 -911h-326l162 911h-176l39 215h176l6 39q37 217 134 300t292 83q129 0 215 -22l-41 -217q-41 8 -100 8q-80 0 -120 -41t-63 -150h344l72 410 h326l-209 -1190q-10 -51 -10 -78z" glyph-name="f_l.liga" horiz-adv-x="1388" unicode="fl"/><glyph d="M205 61v1229h819v-1229h-819zM348 205h533v942h-533v-942z" glyph-name=".notdef" horiz-adv-x="1228"/><glyph glyph-name="glyph1"/><glyph glyph-name="glyph2" horiz-adv-x="681"/><glyph glyph-name="space" horiz-adv-x="538" unicode=" "/><glyph d="M197 496l122 938h375l-211 -938h-286zM76 0l55 311h352l-55 -311h-352z" glyph-name="exclam" horiz-adv-x="700" unicode="!"/><glyph d="M616 1536l-135 -559h-205l64 559h276zM1001 1536l-135 -559h-204l61 559h278z" glyph-name="quotedbl" horiz-adv-x="993" unicode="&quot;"/><glyph d="M1272 901h-187l-120 -342h188l-82 -223h-184l-119 -336h-248l119 336h-193l-118 -336h-248l119 336h-183l80 223h180l121 342h-182l80 221h180l111 312h248l-111 -312h192l111 312h248l-111 -312h189zM717 559l121 342h-193l-121 -342h193z" glyph-name="numbersign" horiz-adv-x="1304" unicode="#"/><glyph d="M788 1186q-250 0 -249 -172q0 -51 30 -80l222 -207q135 -135 135 -309q0 -168 -95.5 -277.5t-273.5 -144.5l-41 -229h-223l37 213q-133 6 -328 40l51 265q188 -35 312 -35q104 0 159.5 49t55.5 139q0 59 -41 99l-228 213q-117 117 -116 286q0 348 393 408l41 223h223 l-39 -215q98 -4 254 -31l-51 -258q-128 23 -228 23z" glyph-name="dollar" horiz-adv-x="1032" unicode="$"/><glyph d="M195 -20l1140 1474h244l-1141 -1474h-243zM444 602q-145 0 -208.5 67.5t-63.5 200.5q0 109 34 248t87 217q78 111 248 111q145 0 207.5 -66.5t62.5 -197.5q0 -111 -34 -252.5t-89 -218.5q-74 -109 -244 -109zM444 776q43 0 66 31q31 45 58.5 183t27.5 210 q0 43 -13.5 57.5t-43.5 14.5q-43 0 -66 -31q-31 -45 -58.5 -181t-27.5 -210q0 -43 13 -58.5t44 -15.5zM1243 -12q-145 0 -208.5 67.5t-63.5 200.5q0 109 33.5 248t87.5 217q78 111 247 110q145 0 208 -66.5t63 -197.5q0 -109 -35 -251t-88 -220q-74 -108 -244 -108z M1243 162q43 0 66 31q31 45 58.5 183t27.5 210q0 43 -13.5 57t-44.5 14q-43 0 -65 -30q-31 -45 -58.5 -180.5t-27.5 -210.5q0 -43 13 -58.5t44 -15.5z" glyph-name="percent" horiz-adv-x="1724" unicode="%"/><glyph d="M1409 852l-336 -487l291 -365h-385l-84 115q-76 -82 -167 -108.5t-216 -26.5q-254 0 -360.5 69.5t-106.5 216.5q0 74 20.5 162t55.5 139q29 41 88 84l199 127l-52 70q-82 98 -82 225q0 139 68 234q102 147 399 147q217 0 307.5 -62.5t90.5 -181.5q0 -113 -47.5 -208 t-137.5 -148l-184 -106l125 -158l207 262h307zM608 1180q-33 -47 -33 -140q0 -49 23 -75l47 -60l113 107q76 70 76 151q0 35 -23 47.5t-78 12.5q-94 0 -125 -43zM672 309l41 53l-170 232l-107 -107q-12 -10 -37 -43q-33 -41 -32 -125q0 -51 31.5 -69.5t105.5 -18.5 q68 0 100.5 16.5t67.5 61.5z" glyph-name="ampersand" horiz-adv-x="1495" unicode="&amp;"/><glyph d="M616 1536l-135 -559h-205l64 559h276z" glyph-name="quotesingle" horiz-adv-x="608" unicode="'"/><glyph d="M74 252q0 188 48 441t118 423q98 238 242.5 359.5t355.5 162.5l-25 -249q-217 -76 -328 -392q-53 -145 -96 -384.5t-43 -389.5q0 -147 43 -232t137 -122l-22 -236q-229 49 -329.5 205t-100.5 414z" glyph-name="parenleft" horiz-adv-x="684" unicode="("/><glyph d="M637 1020q0 -188 -48 -441t-118 -423q-98 -238 -242.5 -360t-355.5 -163l25 250q217 76 327 391q53 145 96.5 385t43.5 390q0 147 -43 232t-138 122l23 235q229 -49 329.5 -204.5t100.5 -413.5z" glyph-name="parenright" horiz-adv-x="684" unicode=")"/><glyph d="M1077 1126l-309 -69l162 -230l-211 -139l-115 260l-198 -260l-175 139l238 232l-283 67l111 226l264 -119l27 303h237l-80 -303l297 119z" glyph-name="asterisk" horiz-adv-x="1067" unicode="*"/><glyph d="M1167 702l-45 -253h-370l-66 -373h-252l66 373h-373l45 253h371l65 371h252l-65 -371h372z" glyph-name="plus" horiz-adv-x="1290" unicode="+"/><glyph d="M147 342h357l-60 -342l-200 -397h-211l198 397h-143z" glyph-name="comma" horiz-adv-x="727" unicode=","/><glyph d="M168 756h608l-45 -242h-608z" glyph-name="hyphen" horiz-adv-x="872" unicode="-"/><glyph d="M88 0l59 342h357l-60 -342h-356z" glyph-name="period" horiz-adv-x="727" unicode="."/><glyph d="M-137 -102l878 1638h246l-881 -1638h-243z" glyph-name="slash" horiz-adv-x="790" unicode="/"/><glyph d="M539 -20q-240 0 -343.5 109.5t-103.5 330.5q0 193 58.5 431.5t156.5 373.5q137 188 428 188q240 0 342.5 -108.5t102.5 -329.5q0 -188 -56.5 -426t-148.5 -371q-139 -198 -436 -198zM551 238q98 0 145 71q57 84 105.5 320.5t48.5 369.5q0 86 -29.5 121t-95.5 35 q-96 0 -143 -63q-59 -84 -108.5 -322t-49.5 -373q0 -90 29.5 -124.5t97.5 -34.5z" glyph-name="zero" horiz-adv-x="1222" unicode="0"/><glyph d="M596 264h254l-47 -264h-860l47 264h274l152 860l-262 -69v258l309 80h332z" glyph-name="one" horiz-adv-x="946" unicode="1"/><glyph d="M500 471q-121 -86 -144 -207h553l-47 -264h-905l39 244q23 133 85 222t212 198l321 233q92 66 93 164q0 51 -35 69.5t-119 18.5q-100 0 -297 -29l2 264q195 29 336 29q236 0 346.5 -76.5t110.5 -242.5q0 -219 -207 -371z" glyph-name="two" horiz-adv-x="1032" unicode="2"/><glyph d="M807 723q127 -57 127 -221q0 -82 -25.5 -178.5t-70.5 -161.5q-70 -100 -191 -141t-307 -41q-227 0 -377 57l53 260q123 -47 295 -47q184 0 238 74q23 33 38 91t15 101q0 53 -33.5 71.5t-128.5 18.5h-215l43 238h178q133 0 175 61q45 74 45 168q0 49 -32 65.5t-116 16.5 q-166 0 -313 -49l6 268q129 39 324 39q252 0 362.5 -70.5t110.5 -224.5q0 -172 -76 -284q-45 -66 -123 -97z" glyph-name="three" horiz-adv-x="1040" unicode="3"/><glyph d="M1126 539l-47 -265h-149l-49 -274h-318l49 274h-596l54 310l505 809h318l-506 -834l-4 -20h276l72 407h318l-72 -407h149z" glyph-name="four" horiz-adv-x="1171" unicode="4"/><glyph d="M1049 1128h-459l-55 -260h6q246 0 348 -75.5t102 -237.5q0 -94 -28.5 -204.5t-81.5 -184.5q-129 -186 -500 -186q-244 0 -375 53l43 264q109 -39 309 -39q106 0 160.5 16.5t81.5 57.5q51 74 51 196q0 57 -38 77t-136 20h-327l163 768h783z" glyph-name="five" horiz-adv-x="1077" unicode="5"/><glyph d="M717 883q172 0 253 -75t81 -235q0 -109 -31 -229.5t-88 -200.5q-119 -164 -434 -163q-254 0 -358.5 83.5t-104.5 260t81 378t208 359.5q129 164 331 332h375q-231 -211 -389 -412q-57 -72 -88 -117h14q64 19 150 19zM666 305q27 39 44 118t17 132q0 55 -29.5 75.5 t-105.5 20.5q-121 0 -160 -51q-31 -39 -50.5 -116.5t-19.5 -135.5q0 -61 31 -83.5t107 -22.5q125 0 166 63z" glyph-name="six" horiz-adv-x="1118" unicode="6"/><glyph d="M182 1393h875l-49 -285l-686 -1108h-336l692 1116l2 12h-545z" glyph-name="seven" horiz-adv-x="952" unicode="7"/><glyph d="M944 713q166 -68 166 -258q0 -109 -46 -216.5t-134 -170.5q-125 -88 -402 -88q-254 0 -367.5 80.5t-113.5 246.5q0 106 40 206.5t122 158.5q49 39 127 57l2 12q-133 66 -133 234q0 100 42 200.5t122 157.5q115 80 362 80q231 0 342 -72.5t111 -234.5q0 -98 -36 -191.5 t-112 -146.5q-41 -29 -90 -43zM588 1139q-37 -27 -57.5 -92.5t-20.5 -120.5q0 -57 32.5 -77t112.5 -20q100 0 136 27q37 27 56 89.5t19 115.5q0 61 -31.5 81.5t-111.5 20.5q-100 1 -135 -24zM698 266q41 31 63.5 102.5t22.5 131.5q0 63 -35.5 84.5t-123.5 21.5 q-111 0 -152 -28q-43 -31 -62.5 -97.5t-19.5 -126.5q0 -68 34 -91t124 -23q110 -1 149 26z" glyph-name="eight" horiz-adv-x="1220" unicode="8"/><glyph d="M668 1413q254 0 357 -84t103 -260t-80.5 -378t-205.5 -359q-137 -170 -332 -332h-375q231 211 389 412l88 116h-14q-66 -18 -152 -18q-170 0 -251.5 74.5t-81.5 234.5q0 106 31.5 228t88.5 202q120 164 435 164zM733 793q31 39 50.5 117.5t19.5 133.5q0 61 -31 84 t-108 23q-123 0 -166 -64q-25 -39 -42.5 -117.5t-17.5 -131.5q0 -55 29 -76t104 -21q119 1 162 52z" glyph-name="nine" horiz-adv-x="1116" unicode="9"/><glyph d="M223 784l60 342h356l-59 -342h-357zM88 0l59 342h357l-60 -342h-356z" glyph-name="colon" horiz-adv-x="727" unicode=":"/><glyph d="M283 1126h356l-59 -342h-357zM88 0l59 342h357l-60 -342l-200 -397h-211l198 397h-143z" glyph-name="semicolon" horiz-adv-x="727" unicode=";"/><glyph d="M1145 836l-678 -236l-10 -47l596 -234l-47 -280l-840 354l63 367l963 356z" glyph-name="less" horiz-adv-x="1290" unicode="&lt;"/><glyph d="M172 662l45 253h981l-43 -253h-983zM98 248l45 252h983l-45 -252h-983z" glyph-name="equal" horiz-adv-x="1290" unicode="="/><glyph d="M291 1116l837 -356l-61 -367l-965 -354l50 280l679 236l9 45l-596 236z" glyph-name="greater" horiz-adv-x="1290" unicode=">"/><glyph d="M213 496l12 82q20 129 60.5 194.5t138.5 130.5l113 74q82 53 81 131q0 41 -27.5 54.5t-107.5 13.5q-106 0 -276 -23l6 272q182 29 328 29q223 0 328.5 -71.5t105.5 -221.5q0 -111 -45 -188.5t-148 -149.5l-104 -71q-82 -59 -118 -100.5t-50 -112.5l-10 -43h-287zM92 0 l55 311h353l-56 -311h-352z" glyph-name="question" horiz-adv-x="925" unicode="?"/><glyph d="M1065 1454q389 0 559 -160.5t170 -464.5q0 -170 -43 -367.5t-121 -311.5q-104 -150 -307 -150q-164 0 -332 119l2 84h-6q-59 -88 -190 -88q-270 0 -271 291q0 113 34 251t91 220q86 127 262 127q135 0 181 -80h8l14 80h258l-143 -803q37 -12 67 -13q72 0 115 62 q55 80 93 284.5t38 348.5q0 199 -104.5 285.5t-343.5 86.5q-375 0 -531 -225q-94 -137 -152.5 -368.5t-58.5 -413.5q0 -223 104.5 -320.5t336.5 -97.5q182 0 325 64l-6 -216q-133 -47 -319 -47q-373 0 -534 167t-161 472q0 211 65.5 458t178.5 411q219 315 721 315z M786 399.5q0 -57.5 21.5 -79t69.5 -21.5q63 0 96 33t45 106l43 252q4 18 4 47q0 82 -88 82q-51 -2 -80 -32.5t-49 -112.5q-27 -47 -44.5 -132t-17.5 -142.5z" glyph-name="at" horiz-adv-x="1890" unicode="@"/><glyph d="M846 0l-15 338h-421l-134 -338h-354l629 1434h518l123 -1434h-346zM514 602h307l-24 567h-62z" glyph-name="A" horiz-adv-x="1314" unicode="A"/><glyph d="M1012 735q158 -63 157 -250q0 -109 -37.5 -211t-101.5 -159q-123 -115 -450 -115h-512l251 1434h480q453 0 452 -289q0 -207 -125 -322q-47 -43 -112 -67zM641 840q143 0 201 57q29 29 48 86t19 111q0 59 -37.5 81.5t-140.5 22.5h-110l-64 -358h84zM766 311q66 66 65 195 q0 72 -41.5 98.5t-152.5 26.5h-117l-67 -385h98q152 -1 215 65z" glyph-name="B" horiz-adv-x="1292" unicode="B"/><glyph d="M623 -20q-266 0 -389 115.5t-123 365.5q0 262 87 512t205 352q150 129 426 129q180 0 304 -51l-56 -264q-78 37 -219 37q-164 0 -231 -80q-63 -76 -116.5 -265.5t-53.5 -361.5q0 -119 45 -165t160 -46q141 0 251 47l17 -278q-114 -47 -307 -47z" glyph-name="C" horiz-adv-x="1075" unicode="C"/><glyph d="M838 1434q238 0 350 -121t112 -379q0 -221 -72.5 -445.5t-185.5 -338.5q-143 -150 -438 -150h-536l251 1434h519zM791 338q63 80 116.5 277.5t53.5 345.5q0 115 -41 165t-134 50h-170l-161 -918h151q124 0 185 80z" glyph-name="D" horiz-adv-x="1353" unicode="D"/><glyph d="M1085 1169h-471l-51 -295h434l-45 -264h-436l-59 -346h495l-47 -264h-837l251 1434h814z" glyph-name="E" horiz-adv-x="1091" unicode="E"/><glyph d="M1057 1169h-443l-57 -335h404l-46 -265h-405l-100 -569h-342l251 1434h785z" glyph-name="F" horiz-adv-x="1021" unicode="F"/><glyph d="M752 842h479l-148 -834l-266 -22v135h-8q-119 -141 -317 -141q-381 0 -381 458q0 279 81.5 534t200.5 349q168 133 467 133q225 0 367 -47l-58 -274q-129 45 -295 45q-170 0 -253 -91q-57 -63 -113.5 -276t-56.5 -371q0 -102 33.5 -142t119.5 -40q219 0 258 215l21 117 h-174z" glyph-name="G" horiz-adv-x="1296" unicode="G"/><glyph d="M1073 1434h342l-252 -1434h-342l107 610h-412l-106 -610h-342l251 1434h343l-99 -560h412z" glyph-name="H" horiz-adv-x="1427" unicode="H"/><glyph d="M662 1434l-252 -1434h-342l251 1434h343z" glyph-name="I" horiz-adv-x="671" unicode="I"/><glyph d="M145 -20q-113 0 -213 24l54 260q27 -6 80 -6q68 0 100.5 35t48.5 123l178 1018h342l-194 -1104q-35 -207 -123.5 -278.5t-272.5 -71.5z" glyph-name="J" horiz-adv-x="737" unicode="J"/><glyph d="M1405 1434l-535 -693l304 -741h-383l-197 610h-78l-106 -610h-342l251 1434h343l-99 -560h72l391 560h379z" glyph-name="K" horiz-adv-x="1290" unicode="K"/><glyph d="M457 264h377l-48 -264h-718l251 1434h343z" glyph-name="L" horiz-adv-x="931" unicode="L"/><glyph d="M1694 1434l-252 -1434h-318l185 1053h-9l-325 -719l-14 8l-3 -8h-286l2 10l-21 -10l-71 719h-13l-184 -1053h-317l251 1434h459l86 -779h6l359 779h465z" glyph-name="M" horiz-adv-x="1703" unicode="M"/><glyph d="M1108 1434h309l-252 -1434h-491l-90 1042h-27l-182 -1042h-307l251 1434h496l86 -1039h25z" glyph-name="N" horiz-adv-x="1427" unicode="N"/><glyph d="M627 -20q-270 0 -392 117.5t-122 385.5q0 246 87 493t214 357q139 121 417 121q272 0 394.5 -116.5t122.5 -381.5q0 -244 -85 -492.5t-212 -359.5q-137 -124 -424 -124zM649 258q135 0 189 72q59 74 111 279.5t52 357.5q0 117 -43 163t-147 46q-125 0 -184 -66 q-61 -72 -114.5 -278.5t-53.5 -360.5q0 -119 43 -166t147 -47z" glyph-name="O" horiz-adv-x="1400" unicode="O"/><glyph d="M756 1434q254 0 367.5 -82t113.5 -267q0 -145 -59.5 -286.5t-151.5 -212.5q-129 -102 -418 -103h-114l-84 -483h-342l251 1434h437zM797 784q41 39 70.5 122t29.5 157q0 72 -41 101.5t-145 29.5h-93l-81 -471h71q128 0 189 61z" glyph-name="P" horiz-adv-x="1218" unicode="P"/><glyph d="M831 1454q272 0 394.5 -116.5t122.5 -381.5q0 -244 -85 -492.5t-212 -359.5q-102 -94 -295 -118q-8 -49 -8 -70q0 -37 18 -51.5t68 -14.5q72 0 151 31v-223q-106 -31 -229 -31q-317 0 -318 244q0 43 15 123q-178 33 -259 150.5t-81 338.5q0 246 87 493t214 357 q138 121 417 121zM838 330q59 74 111 279.5t52 357.5q0 117 -43 163t-147 46q-125 0 -184 -66q-61 -72 -114.5 -278.5t-53.5 -360.5q0 -119 43 -166t147 -47q136 0 189 72z" glyph-name="Q" horiz-adv-x="1400" unicode="Q"/><glyph d="M1042 670q-53 -43 -100 -64l221 -606h-360l-160 545h-22h-115l-96 -545h-342l251 1434h435q256 0 364.5 -82t108.5 -254q0 -125 -50.5 -242.5t-134.5 -185.5zM618 1194l-73 -428h67q139 0 193 55q39 39 61.5 111t22.5 131q0 74 -38 102.5t-118 28.5h-115z" glyph-name="R" horiz-adv-x="1286" unicode="R"/><glyph d="M348 -20q-147 0 -375 40l52 265q188 -35 311 -35q104 0 159.5 49t55.5 139q0 59 -41 99l-227 213q-117 117 -117 286q0 205 138 311.5t411 106.5q131 0 323 -33l-51 -258q-127 23 -227 23q-250 0 -250 -172q0 -51 31 -80l221 -207q135 -135 135 -309 q0 -209 -143.5 -323.5t-405.5 -114.5z" glyph-name="S" horiz-adv-x="993" unicode="S"/><glyph d="M1122 1434l-47 -265h-301l-205 -1169h-342l205 1169h-301l45 265h946z" glyph-name="T" horiz-adv-x="991" unicode="T"/><glyph d="M608 -20q-266 0 -376.5 89t-110.5 275q0 96 22 227l152 863h342l-164 -932q-12 -90 -12 -115q0 -74 37 -101.5t116 -27.5q117 0 168.5 55.5t77.5 212.5l160 908h342l-162 -920q-53 -309 -191.5 -421.5t-400.5 -112.5z" glyph-name="U" horiz-adv-x="1349" unicode="U"/><glyph d="M1036 1434h353l-598 -1434h-517l-92 1434h346l23 -1170h47z" glyph-name="V" horiz-adv-x="1255" unicode="V"/><glyph d="M1642 1434h353l-486 -1434h-479l39 1169h-39l-373 -1169h-483l25 1434h348l-68 -1170h39l363 1170h428l-52 -1170h43z" glyph-name="W" horiz-adv-x="1880" unicode="W"/><glyph d="M1348 1434l-459 -695l223 -739h-360l-125 502h-31l-299 -502h-375l492 754l-213 680h362l109 -478h28l279 478h369z" glyph-name="X" horiz-adv-x="1234" unicode="X"/><glyph d="M1386 1434l-616 -940l-86 -494h-342l94 532l-270 902h350l133 -605h29l346 605h362z" glyph-name="Y" horiz-adv-x="1234" unicode="Y"/><glyph d="M270 1434h852l-47 -265l-10 -53l-717 -817l-6 -35h559l-45 -264h-903l57 322l719 815l6 32h-512z" glyph-name="Z" horiz-adv-x="1038" unicode="Z"/><glyph d="M809 1380h-225l-262 -1480h227l-41 -228h-504l340 1936h504z" glyph-name="bracketleft" horiz-adv-x="690" unicode="["/><glyph d="M692 -102h-231l-303 1638h231z" glyph-name="backslash" horiz-adv-x="790" unicode="\"/><glyph d="M717 1608l-340 -1936h-506l41 228h225l262 1480h-227l39 228h506z" glyph-name="bracketright" horiz-adv-x="690" unicode="]"/><glyph d="M766 567l-92 676h-25l-332 -676h-268l490 906h317l170 -906h-260z" glyph-name="asciicircum" horiz-adv-x="1075" unicode="^"/><glyph d="M68 -104h1130l-37 -209h-1128z" glyph-name="underscore" horiz-adv-x="1499" unicode="_"/><glyph d="M430 1296l-188 408h284l113 -408h-209z" glyph-name="grave" horiz-adv-x="561" unicode="`"/><glyph d="M700 1147q162 0 240 -66.5t78 -203.5q0 -57 -12 -125l-132 -742l-288 -24v129h-11q-90 -135 -278 -135q-291 0 -291 266q0 100 38 188t103 137q96 74 281 74h234l14 88q6 41 6 68q0 49 -24.5 70.5t-84.5 21.5q-92 0 -321 -55l-25 243q305 66 473 66zM324 266 q0 -41 21.5 -59.5t70.5 -18.5q168 0 202 213l15 82h-133q-74 0 -109 -34q-29 -25 -48 -79.5t-19 -103.5z" glyph-name="a" horiz-adv-x="1087" unicode="a"/><glyph d="M784 1147q180 0 264.5 -97.5t84.5 -301.5q0 -184 -57.5 -372t-143.5 -280q-111 -117 -303 -116q-195 0 -242 135h-22l-46 -129l-282 24l268 1526h326l-84 -479h2q77 90 235 90zM680 274q45 57 86 220t41 278q0 76 -26.5 105.5t-92.5 29.5q-88 0 -135 -48t-66 -152 l-51 -287q-8 -47 -8 -92q0 -59 25.5 -84t87.5 -25q96 0 139 55z" glyph-name="b" horiz-adv-x="1193" unicode="b"/><glyph d="M520 -20q-242 0 -348 90t-106 297q0 211 69.5 404.5t175.5 281.5q119 94 365 94q125 0 225 -31l-45 -227q-53 18 -131 18q-150 0 -203 -65q-47 -57 -89 -206t-42 -265q0 -88 34 -120t128 -32t182 25l-4 -242q-84 -22 -211 -22z" glyph-name="c" horiz-adv-x="888" unicode="c"/><glyph d="M907 1536h326l-268 -1526l-289 -24l2 129h-10q-80 -135 -271 -135q-336 0 -336 378q0 201 64.5 398.5t161.5 287.5q109 102 291 103q166 0 223 -90h24zM762 707q10 61 10 92q0 109 -117 108q-94 0 -139 -61q-45 -59 -85 -213t-40 -271q0 -80 27.5 -111.5t95.5 -31.5 q88 0 134 48t67 159z" glyph-name="d" horiz-adv-x="1193" unicode="d"/><glyph d="M649 1147q209 0 308.5 -88t99.5 -275q0 -100 -35 -268l-8 -45h-633q-6 -49 -6 -90q0 -90 35.5 -127t124.5 -37q137 0 360 57l18 -229q-238 -66 -415 -65q-432 0 -432 440q0 184 65.5 360t167.5 262q123 105 350 105zM418 664h327q14 86 15 143q0 66 -26.5 93.5 t-90.5 27.5q-98 0 -147 -68q-39 -57 -78 -196z" glyph-name="e" horiz-adv-x="1105" unicode="e"/><glyph d="M795 1317q-82 0 -121 -40t-62 -151h215l-36 -215h-216l-161 -911h-326l162 911h-176l39 215h176l6 39q37 217 134 300t292 83q129 0 215 -22l-41 -217q-39 8 -100 8z" glyph-name="f" horiz-adv-x="749" unicode="f"/><glyph d="M1190 1126l-14 -161l-158 -27q27 -45 26 -119q0 -98 -41.5 -196.5t-109.5 -153.5q-104 -90 -344 -90q-92 0 -162 12l-25 -22q-37 -29 -36 -54q0 -43 63 -43h131q248 0 368 -65.5t120 -202.5q0 -203 -140.5 -298t-443.5 -95q-256 0 -377 56.5t-121 174.5q0 209 209 258 l6 25q-88 53 -88 145q0 106 129 193l13 8q-80 72 -80 213q0 121 51 230.5t133 162.5q98 70 319 70q123 0 203 -21h369zM682 631q23 31 40 97.5t17 117.5q0 53 -26.5 74.5t-91.5 21.5q-96 0 -134 -45q-23 -29 -42 -95.5t-19 -119.5t26.5 -75.5t96.5 -22.5q100 0 133 47z M496 74q-260 0 -260 -178q0 -47 41.5 -65.5t150.5 -18.5q141 0 205.5 41t64.5 133q0 51 -40.5 69.5t-161.5 18.5z" glyph-name="g" horiz-adv-x="1148" unicode="g"/><glyph d="M846 1147q160 0 230.5 -61.5t70.5 -200.5q0 -70 -19 -174l-124 -711h-326l127 717q8 47 8 86q0 57 -26.5 80.5t-88.5 23.5q-94 0 -144 -50t-71 -159l-123 -698h-325l270 1536h326l-86 -496h10q88 107 291 107z" glyph-name="h" horiz-adv-x="1220" unicode="h"/><glyph d="M295 1569h352l-49 -283h-352zM557 1126l-199 -1126h-327l198 1126h328z" glyph-name="i" horiz-adv-x="585" unicode="i"/><glyph d="M227 1286l49 283h353l-49 -283h-353zM-53 -389q-119 0 -213 22l41 217q33 -6 88 -6q72 0 104.5 41t50.5 150l195 1091h326l-207 -1165q-37 -209 -122 -279.5t-263 -70.5z" glyph-name="j" horiz-adv-x="575" unicode="j"/><glyph d="M1243 1126l-450 -505l260 -621h-361l-170 512h-71l-91 -512h-325l270 1536h326l-144 -809h76l309 399h371z" glyph-name="k" horiz-adv-x="1157" unicode="k"/><glyph d="M350 -20q-147 0 -212.5 52t-65.5 167q0 51 12 120l213 1217h326l-209 -1190q-10 -57 -11 -78q0 -29 12.5 -39t45.5 -10q39 0 80 12l-2 -235q-87 -16 -189 -16z" glyph-name="l" horiz-adv-x="655" unicode="l"/><glyph d="M1434 1147q154 0 223 -62.5t69 -197.5q0 -72 -18 -176l-127 -711h-326l127 717q12 74 13 96q0 51 -23.5 72.5t-77.5 21.5q-86 0 -133 -49t-65 -153l-125 -705h-326l127 717q10 68 10 96q0 51 -23.5 72.5t-78.5 21.5q-84 0 -131 -49t-68 -160l-121 -698h-325l194 1116 l291 25l-2 -131h10q90 137 299 137q227 0 275 -146h16q95 146 316 146z" glyph-name="m" horiz-adv-x="1800" unicode="m"/><glyph d="M838 1147q160 0 234.5 -64.5t74.5 -203.5q0 -66 -19 -170l-124 -709h-326l127 717q8 51 8 88q0 57 -27.5 79.5t-93.5 22.5q-92 0 -141 -48t-68 -154l-123 -705h-325l194 1116l291 25l-2 -129h12q49 72 121 103.5t187 31.5z" glyph-name="n" horiz-adv-x="1220" unicode="n"/><glyph d="M518 -20q-236 0 -345.5 95t-109.5 296q0 215 72 408.5t184 277.5q121 90 347 90q233 0 343.5 -97.5t110.5 -304.5q0 -190 -65.5 -375.5t-163.5 -275.5q-127 -114 -373 -114zM528 219q109 0 152 74q39 61 75 207.5t36 255.5q0 86 -31 118.5t-107 32.5q-96 0 -139 -55 q-43 -57 -82 -214t-39 -271q0 -82 29.5 -115t105.5 -33z" glyph-name="o" horiz-adv-x="1179" unicode="o"/><glyph d="M797 1147q180 0 260 -95.5t80 -275.5q0 -166 -52.5 -362.5t-146.5 -302.5q-115 -131 -322 -131q-158 0 -217 83h-28l-76 -432h-326l260 1485l291 25l-2 -121h17q80 127 262 127zM698 303q41 72 74 226.5t33 246.5q0 74 -27.5 102.5t-91.5 28.5q-86 0 -136 -53t-71 -176 l-45 -254q-8 -61 -8 -84q0 -68 29.5 -94.5t87.5 -26.5q110 0 155 84z" glyph-name="p" horiz-adv-x="1193" unicode="p"/><glyph d="M877 1141l282 -25l-262 -1485h-326l74 432h-4q-74 -84 -229 -83q-168 0 -258.5 88t-90.5 297q0 166 50.5 360.5t144.5 296.5q111 125 309 125q188 0 242 -125h27zM760 711q10 55 10 88q0 61 -27.5 84.5t-87.5 23.5q-104 0 -151 -76q-45 -68 -79 -225t-34 -256 q0 -76 27.5 -103.5t93.5 -27.5q84 0 131 46t70 173z" glyph-name="q" horiz-adv-x="1193" unicode="q"/><glyph d="M842 1147q31 0 53 -6l-59 -279q-37 18 -117 19q-106 0 -164.5 -58.5t-85.5 -206.5l-109 -616h-325l194 1116l293 25l-2 -152h15q92 158 307 158z" glyph-name="r" horiz-adv-x="808" unicode="r"/><glyph d="M315 -20q-129 0 -335 32l43 232q137 -25 233 -25q102 0 137 33q37 37 37 100q0 47 -41 78l-186 148q-86 63 -86 198q0 84 31.5 166t95.5 133q96 72 293 72q125 0 333 -35l-45 -231q-152 27 -221 26q-74 0 -106 -28q-39 -37 -39 -99q0 -33 33 -59l163 -131 q121 -98 121 -234q0 -178 -112 -278q-105 -98 -349 -98z" glyph-name="s" horiz-adv-x="870" unicode="s"/><glyph d="M565 911l-98 -567q-10 -51 -10 -78q0 -47 53 -47q37 0 82 12l-4 -237q-72 -14 -187 -14q-147 0 -211.5 53t-64.5 166q0 53 12 120l105 592h-162l39 215h162l47 273h323l-47 -273h195l-37 -215h-197z" glyph-name="t" horiz-adv-x="763" unicode="t"/><glyph d="M848 1126h326l-197 -1116l-289 -24v129h-12q-90 -135 -303 -135q-160 0 -228.5 62t-68.5 198q0 76 18 176l127 710h326l-127 -716q-8 -47 -8 -86q0 -57 25.5 -81t84.5 -24q168 0 203 199z" glyph-name="u" horiz-adv-x="1206" unicode="u"/><glyph d="M821 1126h346l-473 -1126h-506l-75 1126h338l4 -897h45z" glyph-name="v" horiz-adv-x="1073" unicode="v"/><glyph d="M1552 1126h346l-432 -1126h-473l-10 897h-33l-325 -897h-471l-35 1126h338l-29 -897h39l317 897h441v-897h41z" glyph-name="w" horiz-adv-x="1810" unicode="w"/><glyph d="M1194 1126l-410 -548l228 -578h-342l-121 379h-41l-254 -379h-356l440 594l-211 532h344l109 -333h32l226 333h356z" glyph-name="x" horiz-adv-x="1112" unicode="x"/><glyph d="M819 1126h346l-506 -1175q-82 -190 -200.5 -265t-294.5 -75q-84 0 -213 27l41 219q92 -14 168 -15q98 0 156.5 40t99.5 149l6 14h-227l-80 1081h338l8 -852h45z" glyph-name="y" horiz-adv-x="1071" unicode="y"/><glyph d="M176 1126h764l-41 -227l-8 -53l-576 -588l-4 -31h494l-41 -227h-819l39 227l8 52l579 593l7 27h-441z" glyph-name="z" horiz-adv-x="911" unicode="z"/><glyph d="M657 1608q115 0 197 -29l-39 -207q-37 14 -98.5 14t-92 -35.5t-44.5 -125.5l-62 -344q-18 -106 -55 -157.5t-111 -72.5l-4 -18q90 -43 90 -160q0 -41 -10 -98l-59 -346q-10 -43 -11 -84q0 -31 13.5 -42.5t46.5 -11.5q61 0 123 25l-2 -223q-70 -23 -185 -23 q-141 0 -207.5 50.5t-66.5 170.5q0 63 10 119l68 377q10 55 10 82q0 47 -23.5 61.5t-81.5 14.5l35 190q70 0 102.5 39t51.5 141l65 377q33 186 107.5 251t232.5 65z" glyph-name="braceleft" horiz-adv-x="708" unicode="{"/><glyph d="M623 1653l-361 -2042h-231l360 2042h232z" glyph-name="bar" horiz-adv-x="628" unicode="|"/><glyph d="M567 809q0 -47 23.5 -61.5t81.5 -14.5l-35 -190q-70 0 -102.5 -39t-51.5 -142l-67 -376q-33 -188 -108 -252t-232 -64q-117 0 -195 29l37 207q41 -14 100 -15q61 0 92 36t46 126l59 344q18 104 55 156.5t113 73.5l4 18q-92 43 -92 160q0 41 10 98l62 346q10 57 10 84 q0 31 -13.5 42t-46.5 11q-63 0 -124 -24l2 225q76 20 186 21q139 0 206.5 -50.5t67.5 -171.5q0 -51 -12 -118l-68 -377q-8 -66 -8 -82z" glyph-name="braceright" horiz-adv-x="708" unicode="}"/><glyph d="M315 446l-174 60q25 135 124.5 230t230.5 95q90 0 170 -53l133 -88q33 -20 63 -20q88 0 139 143l173 -59q-25 -139 -125.5 -233.5t-229.5 -94.5q-86 0 -170 53l-133 90q-31 18 -63 19q-87 -1 -138 -142z" glyph-name="asciitilde" horiz-adv-x="1290" unicode="~"/><glyph glyph-name="uni00A0" horiz-adv-x="538" unicode=" "/><glyph d="M264 1065h352l-55 -311h-352zM209 569h285l-119 -938h-375z" glyph-name="exclamdown" horiz-adv-x="700" unicode="¡"/><glyph d="M737 907q-150 0 -202 -65q-47 -57 -89.5 -206t-42.5 -265q0 -88 34 -120t128 -32t183 25l-5 -242q-78 -20 -188 -22l-33 -197h-211l37 213q-141 31 -205.5 120t-64.5 251q0 211 69.5 404.5t176.5 281.5q82 68 227 86l37 204h211l-35 -198q74 -6 149 -29l-45 -227 q-51 18 -131 18z" glyph-name="cent" horiz-adv-x="905" unicode="¢"/><glyph d="M903 1176q-100 0 -148 -54.5t-73 -197.5q0 -6 -3 -24.5t-5 -31.5h325l-41 -227h-327q-61 -262 -172 -373v-4h581l-45 -264h-991l45 264q170 66 244 377h-170l41 227h172q18 121 26 168q43 231 154 324.5t328 93.5q133 0 334 -33l-58 -270q-127 25 -217 25z" glyph-name="sterling" horiz-adv-x="1181" unicode="£"/><glyph d="M1413 1434l-577 -738h305l-31 -178h-307l-21 -108h310l-33 -179h-307l-41 -231h-330l41 231h-307l32 179h306l18 108h-305l31 178h307l4 25l-297 713h344l152 -476h28l320 476h358z" glyph-name="yen" horiz-adv-x="1302" unicode="¥"/><glyph d="M248 834l143 819h232l-144 -819h-231zM31 -389l145 819h232l-146 -819h-231z" glyph-name="brokenbar" horiz-adv-x="628" unicode="¦"/><glyph d="M795 1208q-162 0 -201 -57q-29 -39 -29 -98q0 -37 39 -66l227 -168q143 -102 144 -254q0 -150 -72 -250q-45 -61 -108 -96q47 -68 47 -158q0 -156 -80 -274q-123 -176 -445 -176q-164 0 -376 37l43 241q221 -33 301 -32q160 0 207 75q35 51 34 119q0 43 -45 72l-248 182 q-117 80 -116 232q0 141 63 231q43 63 123 98q-53 70 -53 168q0 154 74 262q111 158 434 158q145 0 323 -27l-43 -237q-126 18 -243 18zM674 537q0 43 -49 81l-123 89q-29 -12 -45 -35q-39 -51 -39 -109q0 -39 37 -67l151 -113q20 16 27 27q41 61 41 127z" glyph-name="section" horiz-adv-x="1081" unicode="§"/><glyph d="M313 1587h281l-47 -260h-281zM778 1587h281l-47 -260h-279z" glyph-name="dieresis" horiz-adv-x="1007" unicode="¨"/><glyph d="M780 -20q-295 0 -473 184t-178 473q0 338 233.5 577.5t575.5 239.5q295 0 473 -184.5t178 -472.5q0 -338 -232.5 -577.5t-576.5 -239.5zM799 133q270 0 447 192.5t177 458.5q0 231 -139 373.5t-366 142.5q-268 0 -445.5 -192.5t-177.5 -458.5q0 -231 139.5 -373.5 t364.5 -142.5zM854 328q-152 0 -216.5 65.5t-64.5 194.5q0 98 29 218t78 189q78 113 262 113q100 0 172 -31l-22 -141q-59 20 -134 20q-80 0 -116 -49q-31 -45 -54.5 -150.5t-23.5 -172.5q0 -59 24.5 -82t81.5 -23q61 0 129 31l17 -158q-62 -24 -162 -24z" glyph-name="copyright" horiz-adv-x="1667" unicode="©"/><glyph d="M606 1444q227 0 228 -195q0 -45 -9 -86l-88 -508l-207 -18v80h-6q-57 -84 -180 -84q-213 0 -213 207q0 258 291 258h160l10 61q6 25 6 45q0 59 -76 60q-61 0 -221 -41l-20 176q200 45 325 45zM358 842q0 -33 13.5 -46.5t48.5 -13.5q109 0 131 133l10 64h-100 q-51 0 -77 -43t-26 -94z" glyph-name="ordfeminine" horiz-adv-x="851" unicode="ª"/><glyph d="M543 848l-305 -279l200 -270l-39 -254l-370 389l18 121l25 158l510 387zM1083 1100l-39 -252l-305 -279l203 -270l-39 -254l-373 389l21 129l22 150z" glyph-name="guillemotleft" horiz-adv-x="1077" unicode="«"/><glyph d="M694 1444q197 0 315.5 -126t118.5 -317q0 -225 -156.5 -390t-383.5 -165q-197 0 -315.5 126t-118.5 319q0 225 156.5 389t383.5 164zM602 549q178 0 297 132t119 310q0 156 -93.5 253t-244.5 97q-178 0 -296 -131t-118 -311q0 -156 92 -253t244 -97zM784 944 q-20 -27 -55 -39l76 -207h-129l-58 191h-43l-34 -191h-127l90 506h143q178 0 178 -123q0 -86 -41 -137zM616 1118l-26 -147h24q55 0 74 33q16 33 17 73q0 25 -14.5 33t-51.5 8h-23z" glyph-name="registered" horiz-adv-x="1146" unicode="®"/><glyph d="M309 1559h619l-39 -220h-621z" glyph-name="macron" horiz-adv-x="882" unicode="¯"/><glyph d="M557 862q-143 0 -231 88t-88 224q0 160 116.5 270t280.5 110q143 0 231 -89t88 -224q0 -158 -116.5 -268.5t-280.5 -110.5zM578 1040q78 0 130 55.5t52 131.5q0 66 -40 107.5t-106 41.5q-76 0 -129 -55t-53 -131q0 -63 40 -106.5t106 -43.5z" glyph-name="degree" horiz-adv-x="966" unicode="°"/><glyph d="M831 895h371l-43 -254h-373l-55 -313h-254l55 313h-370l45 254h371l55 311h254zM41 -47l45 254h995l-45 -254h-995z" glyph-name="plusminus" horiz-adv-x="1290" unicode="±"/><glyph d="M399 936q-72 -53 -88 -117h346l-30 -174h-584l29 158q16 86 55 143.5t131 124.5l195 146q66 47 65 100q0 51 -86 51q-72 0 -194 -22l-5 180q117 16 224 16q154 0 221 -51t67 -152q0 -147 -127 -241z" glyph-name="uni00B2" horiz-adv-x="659" unicode="²"/><glyph d="M608 1100q74 -47 74 -146q0 -127 -61 -217q-78 -111 -314 -110q-152 0 -244 41l29 170q61 -31 205 -31q102 0 129 37q33 49 33 123q0 33 -22.5 44t-82.5 11h-129l29 160h117q78 0 102 35q29 47 29 100q0 29 -19.5 41t-66.5 12q-135 0 -201 -37v183q57 25 225 24 q289 0 289 -197q0 -106 -49 -178q-20 -35 -70 -57z" glyph-name="uni00B3" horiz-adv-x="675" unicode="³"/><glyph d="M172 1296l256 408h299l-334 -408h-221z" glyph-name="acute" horiz-adv-x="561" unicode="´"/><glyph d="M1380 1434l-317 -1803h-234l281 1598h-133l-281 -1598h-233l147 832q-240 0 -356.5 90t-116.5 293q0 109 28 228.5t81 191.5q66 88 187.5 128t330.5 40h616z" glyph-name="paragraph" horiz-adv-x="1423" unicode="¶"/><glyph d="M113 444l59 342h356l-59 -342h-356z" glyph-name="periodcentered" horiz-adv-x="618" unicode="·"/><glyph d="M190 -100q176 -16 177 -160q0 -117 -68 -178q-72 -63 -197 -64q-94 0 -202 39l16 119q41 -20 102 -21q63 0 97 27q31 25 30 76q0 39 -65 39h-103l111 295h184z" glyph-name="cedilla" horiz-adv-x="575" unicode="¸"/><glyph d="M481 819h158l-31 -174h-553l31 174h172l94 537l-159 -41v172l190 49h223z" glyph-name="uni00B9" horiz-adv-x="608" unicode="¹"/><glyph d="M547 633q-172 0 -248 72.5t-76 212.5q0 96 30 211.5t81 187.5q92 127 303 127q174 0 247.5 -73t73.5 -212q0 -98 -27.5 -210.5t-78.5 -182.5q-92 -133 -305 -133zM547 805q72 0 100 41q31 45 54.5 157.5t23.5 180.5q0 51 -19.5 69.5t-66.5 18.5q-72 0 -100 -41 q-31 -43 -55.5 -156.5t-24.5 -181.5q0 -51 20.5 -69.5t67.5 -18.5z" glyph-name="ordmasculine" horiz-adv-x="1013" unicode="º"/><glyph d="M530 559l-20 -125l-510 -389l37 254l307 279l-203 270l39 252l373 -387zM682 1100l375 -387l-23 -148l-20 -131l-512 -389l39 254l305 279l-201 270z" glyph-name="guillemotright" horiz-adv-x="1077" unicode="»"/><glyph d="M1178 1475h231l-864 -1516h-230zM557 557h-530l30 176h162l92 520l-151 -43v172l182 52h219l-123 -701h150zM1632 342l-33 -176h-81l-29 -166h-195l29 166h-373l37 203l293 508h203l-291 -531v-4h162l43 242h194l-43 -242h84z" glyph-name="onequarter" horiz-adv-x="1693" unicode="¼"/><glyph d="M1178 1475h231l-864 -1516h-230zM557 557h-530l30 176h162l92 520l-151 -43v172l182 52h219l-123 -701h150zM1348 297q-72 -57 -86 -121h321l-31 -176h-555l29 166q14 84 46 135t116 115l201 153q53 43 53 93q0 31 -19.5 41t-66.5 10q-61 0 -168 -19l-4 178 q117 18 205 19q281 0 280 -207q0 -141 -123 -235z" glyph-name="onehalf" horiz-adv-x="1687" unicode="½"/><glyph d="M1159 1475h232l-865 -1516h-229zM565 649q-74 -104 -289 -104q-152 0 -239 39l29 168q61 -27 180 -27q96 0 131 47q29 41 29 100q0 37 -20.5 49.5t-66.5 12.5h-124l26 158h103q70 0 98 38q27 41 27 91q0 33 -18.5 44t-61.5 11q-92 0 -183 -33v180q74 25 211 25 q279 0 279 -193q0 -109 -49 -180q-27 -35 -72 -57l-2 -10q76 -41 76 -140q-1 -125 -64 -219zM1614 342l-33 -176h-82l-29 -166h-194l29 166h-373l37 203l293 508h202l-290 -531v-4h161l43 242h195l-43 -242h84z" glyph-name="threequarters" horiz-adv-x="1675" unicode="¾"/><glyph d="M420 754l53 311h352l-53 -311h-352zM705 569l-13 -82q-18 -127 -58 -193.5t-138 -131.5l-113 -74q-84 -53 -84 -131q0 -41 27.5 -54.5t107.5 -13.5q106 0 277 23l-4 -272q-182 -29 -330 -29q-221 0 -327.5 71.5t-106.5 221.5q0 111 45 188.5t147 149.5l105 71 q82 57 117.5 99.5t52.5 113.5l8 43h287z" glyph-name="questiondown" horiz-adv-x="925" unicode="¿"/><glyph d="M934 1604h-209l-188 407h284zM846 0l-15 338h-421l-134 -338h-354l629 1434h518l123 -1434h-346zM514 602h307l-24 567h-62z" glyph-name="Agrave" horiz-adv-x="1314" unicode="À"/><glyph d="M1284 2011l-334 -407h-221l256 407h299zM1069 1434l123 -1434h-346l-15 338h-421l-134 -338h-354l629 1434h518zM514 602h307l-24 567h-62z" glyph-name="Aacute" horiz-adv-x="1314" unicode="Á"/><glyph d="M883 1835l-234 -240h-231l336 408h303l194 -408h-219zM1069 1434l123 -1434h-346l-15 338h-421l-134 -338h-354l629 1434h518zM514 602h307l-24 567h-62z" glyph-name="Acircumflex" horiz-adv-x="1314" unicode="Â"/><glyph d="M723 1722q-63 0 -94 -108h-150q25 137 102.5 222t178.5 85q70 0 135 -49l76 -64q25 -20 51 -20q57 0 94 106h148q-27 -143 -103 -224t-176 -81q-78 0 -133 49l-76 64q-26 20 -53 20zM1069 1434l123 -1434h-346l-15 338h-421l-134 -338h-354l629 1434h518zM514 602h307 l-24 567h-62z" glyph-name="Atilde" horiz-adv-x="1314" unicode="Ã"/><glyph d="M799 1894l-47 -260h-281l47 260h281zM983 1894h281l-47 -260h-279zM1069 1434l123 -1434h-346l-15 338h-421l-134 -338h-354l629 1434h518zM514 602h307l-24 567h-62z" glyph-name="Adieresis" horiz-adv-x="1314" unicode="Ä"/><glyph d="M854 1550q-139 0 -196.5 50.5t-57.5 150.5q0 123 55 197q70 96 242 96q139 0 194.5 -51t55.5 -152q0 -121 -53 -196q-66 -95 -240 -95zM782 1872q-27 -37 -26 -98q0 -47 24.5 -70t81.5 -23q78 0 103 41q27 37 26 101q0 45 -23.5 66.5t-82.5 21.5q-74 0 -103 -39zM846 0 l-15 338h-421l-134 -338h-354l629 1434h518l123 -1434h-346zM514 602h307l-24 567h-62z" glyph-name="Aring" horiz-adv-x="1314" unicode="Å"/><glyph d="M1808 1169h-471l-51 -295h434l-47 -264h-434l-59 -346h493l-47 -264h-835l59 338h-387l-197 -338h-356l878 1434h1065zM897 602l98 567h-51l-328 -567h281z" glyph-name="AE" horiz-adv-x="1812" unicode="Æ"/><glyph d="M858 1176q-164 0 -231 -80q-63 -76 -116.5 -265.5t-53.5 -361.5q0 -119 45 -165t160 -46q141 0 251 47l17 -278q-115 -47 -307 -47h-7l-36 -80q176 -16 176 -160q0 -117 -68 -178q-72 -63 -196 -64q-94 0 -203 39l16 119q41 -20 103 -21q63 0 96 27q31 25 31 76 q0 39 -66 39h-102l82 217q-174 33 -256 147.5t-82 319.5q0 262 87 512t205 352q150 129 426 129q180 0 304 -51l-56 -264q-78 37 -219 37z" glyph-name="Ccedilla" horiz-adv-x="1075" unicode="Ç"/><glyph d="M848 1604h-209l-188 407h284zM1085 1169h-471l-51 -295h434l-45 -264h-436l-59 -346h495l-47 -264h-837l251 1434h814z" glyph-name="Egrave" horiz-adv-x="1091" unicode="È"/><glyph d="M1198 2011l-334 -407h-221l256 407h299zM1133 1434l-48 -265h-471l-51 -295h434l-45 -264h-436l-59 -346h495l-47 -264h-837l251 1434h814z" glyph-name="Eacute" horiz-adv-x="1091" unicode="É"/><glyph d="M797 1835l-234 -240h-231l336 408h303l194 -408h-219zM1133 1434l-48 -265h-471l-51 -295h434l-45 -264h-436l-59 -346h495l-47 -264h-837l251 1434h814z" glyph-name="Ecircumflex" horiz-adv-x="1091" unicode="Ê"/><glyph d="M713 1894l-47 -260h-281l47 260h281zM1178 1894l-48 -260h-278l45 260h281zM1133 1434l-48 -265h-471l-51 -295h434l-45 -264h-436l-59 -346h495l-47 -264h-837l251 1434h814z" glyph-name="Edieresis" horiz-adv-x="1091" unicode="Ë"/><glyph d="M408 1604l-189 407h285l112 -407h-208zM662 1434l-252 -1434h-342l251 1434h343z" glyph-name="Igrave" horiz-adv-x="671" unicode="Ì"/><glyph d="M412 1604l256 407h299l-334 -407h-221zM662 1434l-252 -1434h-342l251 1434h343z" glyph-name="Iacute" horiz-adv-x="671" unicode="Í"/><glyph d="M739 2003l195 -408h-219l-150 240l-233 -240h-232l336 408h303zM68 0l251 1434h343l-252 -1434h-342z" glyph-name="Icircumflex" horiz-adv-x="671" unicode="Î"/><glyph d="M201 1894h280l-47 -260h-280zM666 1894h280l-47 -260h-278zM662 1434l-252 -1434h-342l251 1434h343z" glyph-name="Idieresis" horiz-adv-x="671" unicode="Ï"/><glyph d="M838 1434q238 0 350 -121t112 -379q0 -221 -72.5 -445.5t-185.5 -338.5q-143 -150 -438 -150h-536l104 600h-162l43 231h160l106 603h519zM791 338q63 80 116.5 277.5t53.5 345.5q0 115 -41 165t-134 50h-170l-61 -345h248l-41 -231h-248l-59 -342h151q124 0 185 80z" glyph-name="Eth" horiz-adv-x="1353" unicode="Ð"/><glyph d="M782 1722q-63 0 -94 -108h-149q25 137 102.5 222t177.5 85q70 0 135 -49l76 -64q27 -20 51 -20q57 0 95 106h147q-27 -143 -102.5 -224t-176.5 -81q-78 0 -133 49l-75 64q-27 20 -54 20zM1108 1434h309l-252 -1434h-491l-90 1042h-27l-182 -1042h-307l251 1434h496 l86 -1039h25z" glyph-name="Ntilde" horiz-adv-x="1427" unicode="Ñ"/><glyph d="M770 1604l-188 407h284l113 -407h-209zM627 -20q-270 0 -392 117.5t-122 385.5q0 246 87 493t214 357q139 121 417 121q272 0 394.5 -116.5t122.5 -381.5q0 -244 -85 -492.5t-212 -359.5q-137 -124 -424 -124zM649 258q135 0 189 72q59 74 111 279.5t52 357.5 q0 117 -43 163t-147 46q-125 0 -184 -66q-61 -72 -114.5 -278.5t-53.5 -360.5q0 -119 43 -166t147 -47z" glyph-name="Ograve" horiz-adv-x="1400" unicode="Ò"/><glyph d="M774 1604l256 407h299l-334 -407h-221zM627 -20q-270 0 -392 117.5t-122 385.5q0 246 87 493t214 357q139 121 417 121q272 0 394.5 -116.5t122.5 -381.5q0 -244 -85 -492.5t-212 -359.5q-137 -124 -424 -124zM649 258q135 0 189 72q59 74 111 279.5t52 357.5 q0 117 -43 163t-147 46q-125 0 -184 -66q-61 -72 -114.5 -278.5t-53.5 -360.5q0 -119 43 -166t147 -47z" glyph-name="Oacute" horiz-adv-x="1400" unicode="Ó"/><glyph d="M928 1835l-234 -240h-231l336 408h303l194 -408h-219zM831 1454q272 0 394.5 -116.5t122.5 -381.5q0 -244 -85 -492.5t-212 -359.5q-137 -125 -424 -124q-270 0 -392 117.5t-122 385.5q0 246 87 493t214 357q138 121 417 121zM838 330q59 74 111 279.5t52 357.5 q0 117 -43 163t-147 46q-125 0 -184 -66q-61 -72 -114.5 -278.5t-53.5 -360.5q0 -119 43 -166t147 -47q136 0 189 72z" glyph-name="Ocircumflex" horiz-adv-x="1400" unicode="Ô"/><glyph d="M1030 1589q-78 0 -133 49l-76 64q-27 20 -53 20q-63 0 -94 -108h-150q25 137 103 222t178 85q70 0 135 -49l76 -64q27 -20 51 -20q57 0 94 106h148q-27 -143 -103 -224t-176 -81zM627 -20q-270 0 -392 117.5t-122 385.5q0 246 87 493t214 357q139 121 417 121 q272 0 394.5 -116.5t122.5 -381.5q0 -244 -85 -492.5t-212 -359.5q-137 -124 -424 -124zM649 258q135 0 189 72q59 74 111 279.5t52 357.5q0 117 -43 163t-147 46q-125 0 -184 -66q-61 -72 -114.5 -278.5t-53.5 -360.5q0 -119 43 -166t147 -47z" glyph-name="Otilde" horiz-adv-x="1400" unicode="Õ"/><glyph d="M563 1894h281l-47 -260h-281zM1028 1894h281l-47 -260h-279zM627 -20q-270 0 -392 117.5t-122 385.5q0 246 87 493t214 357q139 121 417 121q272 0 394.5 -116.5t122.5 -381.5q0 -244 -85 -492.5t-212 -359.5q-137 -124 -424 -124zM649 258q135 0 189 72q59 74 111 279.5 t52 357.5q0 117 -43 163t-147 46q-125 0 -184 -66q-61 -72 -114.5 -278.5t-53.5 -360.5q0 -119 43 -166t147 -47z" glyph-name="Odieresis" horiz-adv-x="1400" unicode="Ö"/><glyph d="M1178 874l-351 -301l246 -297l-203 -178l-247 299l-349 -299l-155 178l352 302l-248 296l205 179l248 -299l348 299z" glyph-name="multiply" horiz-adv-x="1290" unicode="×"/><glyph d="M1204 1356q143 -113 144 -400q0 -244 -85 -492.5t-212 -359.5q-137 -125 -424 -124q-98 0 -187 16l-55 -98h-233l102 182q-141 117 -141 403q0 246 87 493t214 357q139 121 417 121q98 0 185 -16l55 98h234zM459 471v-25l407 725q-33 4 -55 5q-125 0 -184 -66 q-61 -72 -114.5 -278.5t-53.5 -360.5zM838 330q59 74 111 279.5t52 357.5v28l-411 -733q37 -4 59 -4q136 0 189 72z" glyph-name="Oslash" horiz-adv-x="1400" unicode="Ø"/><glyph d="M745 1604l-188 407h285l112 -407h-209zM608 -20q-266 0 -376.5 89t-110.5 275q0 96 22 227l152 863h342l-164 -932q-12 -90 -12 -115q0 -74 37 -101.5t116 -27.5q117 0 168.5 55.5t77.5 212.5l160 908h342l-162 -920q-53 -309 -191.5 -421.5t-400.5 -112.5z" glyph-name="Ugrave" horiz-adv-x="1349" unicode="Ù"/><glyph d="M750 1604l256 407h299l-334 -407h-221zM608 -20q-266 0 -376.5 89t-110.5 275q0 96 22 227l152 863h342l-164 -932q-12 -90 -12 -115q0 -74 37 -101.5t116 -27.5q117 0 168.5 55.5t77.5 212.5l160 908h342l-162 -920q-53 -309 -191.5 -421.5t-400.5 -112.5z" glyph-name="Uacute" horiz-adv-x="1349" unicode="Ú"/><glyph d="M903 1835l-233 -240h-232l336 408h303l195 -408h-219zM1020 1434h342l-162 -920q-53 -309 -191.5 -421.5t-400.5 -112.5q-266 0 -376.5 89t-110.5 275q0 96 22 227l152 863h342l-164 -932q-12 -90 -12 -115q0 -74 37 -101.5t116 -27.5q117 0 168.5 55.5t77.5 212.5z" glyph-name="Ucircumflex" horiz-adv-x="1349" unicode="Û"/><glyph d="M539 1894h280l-47 -260h-280zM1004 1894h280l-47 -260h-279zM608 -20q-266 0 -376.5 89t-110.5 275q0 96 22 227l152 863h342l-164 -932q-12 -90 -12 -115q0 -74 37 -101.5t116 -27.5q117 0 168.5 55.5t77.5 212.5l160 908h342l-162 -920q-53 -309 -191.5 -421.5 t-400.5 -112.5z" glyph-name="Udieresis" horiz-adv-x="1349" unicode="Ü"/><glyph d="M1247 2011l-334 -407h-221l256 407h299zM1386 1434l-616 -940l-86 -494h-342l94 532l-270 902h350l133 -605h29l346 605h362z" glyph-name="Yacute" horiz-adv-x="1234" unicode="Ý"/><glyph d="M721 1229q254 0 367.5 -82t113.5 -268q0 -143 -59.5 -283.5t-151.5 -214.5q-129 -102 -418 -102h-114l-49 -279h-342l251 1434h343l-37 -205h96zM762 580q41 41 70.5 123.5t29.5 154.5t-42 101.5t-146 29.5h-90l-84 -471h73q132 1 189 62z" glyph-name="Thorn" horiz-adv-x="1218" unicode="Þ"/><glyph d="M803 -20q-135 0 -328 32l43 232q133 -25 221 -25q98 0 140 41q35 35 34 90q0 45 -34 78l-140 133q-74 72 -73 180q0 80 32.5 139.5t106.5 123.5l82 71q82 74 82 142q0 96 -142 96q-133 0 -195.5 -72t-88.5 -223l-181 -1018h-327l186 1061q47 264 199.5 375.5t417.5 111.5 q246 0 359.5 -79.5t113.5 -239.5q0 -90 -36 -159t-118 -138l-92 -82q-61 -55 -61 -96q0 -29 24 -54l123 -120q109 -102 109 -226q0 -84 -36 -166t-104 -131q-106 -77 -317 -77z" glyph-name="germandbls" horiz-adv-x="1357" unicode="ß"/><glyph d="M764 1296h-209l-188 408h284zM700 1147q162 0 240 -66.5t78 -203.5q0 -57 -12 -125l-132 -742l-288 -24v129h-11q-90 -135 -278 -135q-291 0 -291 266q0 100 38 188t103 137q96 74 281 74h234l14 88q6 41 6 68q0 49 -24.5 70.5t-84.5 21.5q-92 0 -321 -55l-25 243 q305 66 473 66zM324 266q0 -41 21.5 -59.5t70.5 -18.5q168 0 202 213l15 82h-133q-74 0 -109 -34q-29 -25 -48 -79.5t-19 -103.5z" glyph-name="agrave" horiz-adv-x="1087" unicode="à"/><glyph d="M1114 1704l-334 -408h-221l256 408h299zM700 1147q162 0 240 -66.5t78 -203.5q0 -57 -12 -125l-132 -742l-288 -24v129h-11q-90 -135 -278 -135q-291 0 -291 266q0 100 38 188t103 137q96 74 281 74h234l14 88q6 41 6 68q0 49 -24.5 70.5t-84.5 21.5q-92 0 -321 -55 l-25 243q305 66 473 66zM324 266q0 -41 21.5 -59.5t70.5 -18.5q168 0 202 213l15 82h-133q-74 0 -109 -34q-29 -25 -48 -79.5t-19 -103.5z" glyph-name="aacute" horiz-adv-x="1087" unicode="á"/><glyph d="M713 1528l-234 -240h-231l336 408h303l194 -408h-219zM700 1147q162 0 240 -66.5t78 -203.5q0 -57 -12 -125l-132 -742l-288 -24v129h-11q-90 -135 -278 -135q-291 0 -291 266q0 100 38 188t103 137q96 74 281 74h234l14 88q6 41 6 68q0 49 -24.5 70.5t-84.5 21.5 q-92 0 -321 -55l-25 243q305 66 473 66zM324 266q0 -41 21.5 -59.5t70.5 -18.5q168 0 202 213l15 82h-133q-74 0 -109 -34q-29 -25 -48 -79.5t-19 -103.5z" glyph-name="acircumflex" horiz-adv-x="1087" unicode="â"/><glyph d="M553 1415q-63 0 -94 -108h-150q25 137 102.5 222t178.5 85q70 0 135 -49l76 -64q27 -20 51 -20q57 0 94 106h148q-27 -143 -103 -224t-176 -81q-78 0 -133 49l-76 64q-26 20 -53 20zM700 1147q162 0 240 -66.5t78 -203.5q0 -57 -12 -125l-132 -742l-288 -24v129h-11 q-90 -135 -278 -135q-291 0 -291 266q0 100 38 188t103 137q96 74 281 74h234l14 88q6 41 6 68q0 49 -24.5 70.5t-84.5 21.5q-92 0 -321 -55l-25 243q305 66 473 66zM324 266q0 -41 21.5 -59.5t70.5 -18.5q168 0 202 213l15 82h-133q-74 0 -109 -34q-29 -25 -48 -79.5 t-19 -103.5z" glyph-name="atilde" horiz-adv-x="1087" unicode="ã"/><glyph d="M629 1587l-47 -260h-281l47 260h281zM813 1587h281l-47 -260h-279zM700 1147q162 0 240 -66.5t78 -203.5q0 -57 -12 -125l-132 -742l-288 -24v129h-11q-90 -135 -278 -135q-291 0 -291 266q0 100 38 188t103 137q96 74 281 74h234l14 88q6 41 6 68q0 49 -24.5 70.5 t-84.5 21.5q-92 0 -321 -55l-25 243q305 66 473 66zM324 266q0 -41 21.5 -59.5t70.5 -18.5q168 0 202 213l15 82h-133q-74 0 -109 -34q-29 -25 -48 -79.5t-19 -103.5z" glyph-name="adieresis" horiz-adv-x="1087" unicode="ä"/><glyph d="M684 1243q-139 0 -196.5 50t-57.5 151q0 123 55 196q70 96 242 97q139 0 194.5 -51.5t55.5 -151.5q0 -121 -53 -197q-66 -94 -240 -94zM612 1565q-27 -37 -26 -99q0 -47 24.5 -69.5t81.5 -22.5q78 0 103 41q27 37 26 101q0 45 -23.5 66.5t-82.5 21.5q-74 0 -103 -39z M700 1147q162 0 240 -66.5t78 -203.5q0 -57 -12 -125l-132 -742l-288 -24v129h-11q-90 -135 -278 -135q-291 0 -291 266q0 100 38 188t103 137q96 74 281 74h234l14 88q6 41 6 68q0 49 -24.5 70.5t-84.5 21.5q-92 0 -321 -55l-25 243q305 66 473 66zM324 266 q0 -41 21.5 -59.5t70.5 -18.5q168 0 202 213l15 82h-133q-74 0 -109 -34q-29 -25 -48 -79.5t-19 -103.5z" glyph-name="aring" horiz-adv-x="1087" unicode="å"/><glyph d="M1227 1147q207 0 299 -84t92 -268q0 -117 -35 -299l-6 -25h-629q-8 -57 -8 -102q0 -82 33 -117t110 -35q158 0 379 57l17 -229q-238 -66 -420 -65q-264 0 -363 161h-26q-113 -162 -346 -161q-158 0 -243 73.5t-85 206.5q0 193 127 299q98 86 291 86h233l17 88q6 31 6 58 q0 102 -119 102q-125 0 -313 -55l-23 245q295 63 469 64q166 0 240 -72q117 72 303 72zM983 664h328q14 88 14 147q0 66 -22.5 91.5t-85.5 25.5q-94 0 -146.5 -57t-87.5 -207zM408 188q162 0 196 213l14 82h-141q-72 0 -110 -45q-53 -59 -54 -157q1 -93 95 -93z" glyph-name="ae" horiz-adv-x="1667" unicode="æ"/><glyph d="M725 907q-150 0 -203 -65q-47 -57 -89 -206t-42 -265q0 -88 34 -120t128 -32t182 25l-4 -242q-84 -23 -211 -22h-47l-39 -80q176 -16 176 -160q0 -117 -67 -178q-72 -63 -197 -64q-94 0 -203 39l17 119q41 -20 102 -21q63 0 96 27q31 25 31 76q0 39 -65 39h-103l84 227 q-125 33 -182 121t-57 242q0 211 69.5 404.5t175.5 281.5q119 94 365 94q125 0 225 -31l-45 -227q-53 18 -131 18z" glyph-name="ccedilla" horiz-adv-x="888" unicode="ç"/><glyph d="M784 1296h-209l-188 408h285zM649 1147q209 0 308.5 -88t99.5 -275q0 -100 -35 -268l-8 -45h-633q-6 -49 -6 -90q0 -90 35.5 -127t124.5 -37q137 0 360 57l18 -229q-238 -66 -415 -65q-432 0 -432 440q0 184 65.5 360t167.5 262q123 105 350 105zM418 664h327 q14 86 15 143q0 66 -26.5 93.5t-90.5 27.5q-98 0 -147 -68q-39 -57 -78 -196z" glyph-name="egrave" horiz-adv-x="1105" unicode="è"/><glyph d="M1135 1704l-334 -408h-221l256 408h299zM649 1147q209 0 308.5 -88t99.5 -275q0 -100 -35 -268l-8 -45h-633q-6 -49 -6 -90q0 -90 35.5 -127t124.5 -37q137 0 360 57l18 -229q-238 -66 -415 -65q-432 0 -432 440q0 184 65.5 360t167.5 262q123 105 350 105zM418 664h327 q14 86 15 143q0 66 -26.5 93.5t-90.5 27.5q-98 0 -147 -68q-39 -57 -78 -196z" glyph-name="eacute" horiz-adv-x="1105" unicode="é"/><glyph d="M733 1528l-233 -240h-232l336 408h303l195 -408h-219zM649 1147q209 0 308.5 -88t99.5 -275q0 -100 -35 -268l-8 -45h-633q-6 -49 -6 -90q0 -90 35.5 -127t124.5 -37q137 0 360 57l18 -229q-238 -66 -415 -65q-432 0 -432 440q0 184 65.5 360t167.5 262q123 105 350 105z M418 664h327q14 86 15 143q0 66 -26.5 93.5t-90.5 27.5q-98 0 -147 -68q-39 -57 -78 -196z" glyph-name="ecircumflex" horiz-adv-x="1105" unicode="ê"/><glyph d="M649 1587l-47 -260h-280l47 260h280zM834 1587h280l-47 -260h-279zM649 1147q209 0 308.5 -88t99.5 -275q0 -100 -35 -268l-8 -45h-633q-6 -49 -6 -90q0 -90 35.5 -127t124.5 -37q137 0 360 57l18 -229q-238 -66 -415 -65q-432 0 -432 440q0 184 65.5 360t167.5 262 q123 105 350 105zM418 664h327q14 86 15 143q0 66 -26.5 93.5t-90.5 27.5q-98 0 -147 -68q-39 -57 -78 -196z" glyph-name="edieresis" horiz-adv-x="1105" unicode="ë"/><glyph d="M309 1296l-188 408h285l112 -408h-209zM557 1126l-199 -1126h-327l198 1126h328z" glyph-name="igrave" horiz-adv-x="585" unicode="ì"/><glyph d="M313 1296l256 408h299l-333 -408h-222zM557 1126l-199 -1126h-327l198 1126h328z" glyph-name="iacute" horiz-adv-x="585" unicode="í"/><glyph d="M641 1696l195 -408h-220l-149 240l-234 -240h-231l336 408h303zM31 0l198 1126h328l-199 -1126h-327z" glyph-name="icircumflex" horiz-adv-x="585" unicode="î"/><glyph d="M102 1587h281l-47 -260h-281zM567 1587h281l-47 -260h-279zM557 1126l-199 -1126h-327l198 1126h328z" glyph-name="idieresis" horiz-adv-x="585" unicode="ï"/><glyph d="M981 1270q29 -61 41 -92q76 -197 76 -408q0 -197 -52.5 -377t-136.5 -274q-121 -139 -405 -139q-238 0 -348.5 89t-110.5 279.5t64.5 376.5t156.5 266q92 78 277 78q143 0 205 -55h18q-8 47 -35 123q-12 35 -26 65l-299 -72l-35 193l231 55q-39 61 -106 158h325 q6 -10 26.5 -42t31.5 -48l249 61l35 -192zM672 301q33 59 65.5 205.5t32.5 226.5q0 66 -32.5 94.5t-110.5 28.5q-100 0 -144 -51q-41 -51 -77.5 -197.5t-36.5 -253.5q0 -76 28.5 -105.5t102.5 -29.5q125 0 172 82z" glyph-name="eth" horiz-adv-x="1142" unicode="ð"/><glyph d="M625 1415q-63 0 -95 -108h-149q25 137 102.5 222t178.5 85q70 0 135 -49l75 -64q27 -20 52 -20q57 0 94 106h147q-27 -143 -102.5 -224t-175.5 -81q-78 0 -133 49l-76 64q-26 20 -53 20zM838 1147q160 0 234.5 -64.5t74.5 -203.5q0 -66 -19 -170l-124 -709h-326l127 717 q8 51 8 88q0 57 -27.5 79.5t-93.5 22.5q-92 0 -141 -48t-68 -154l-123 -705h-325l194 1116l291 25l-2 -129h12q49 72 121 103.5t187 31.5z" glyph-name="ntilde" horiz-adv-x="1220" unicode="ñ"/><glyph d="M608 1296l-188 408h285l112 -408h-209zM518 -20q-236 0 -345.5 95t-109.5 296q0 215 72 408.5t184 277.5q121 90 347 90q233 0 343.5 -97.5t110.5 -304.5q0 -190 -65.5 -375.5t-163.5 -275.5q-127 -114 -373 -114zM528 219q109 0 152 74q39 61 75 207.5t36 255.5 q0 86 -31 118.5t-107 32.5q-96 0 -139 -55q-43 -57 -82 -214t-39 -271q0 -82 29.5 -115t105.5 -33z" glyph-name="ograve" horiz-adv-x="1179" unicode="ò"/><glyph d="M612 1296l256 408h299l-333 -408h-222zM518 -20q-236 0 -345.5 95t-109.5 296q0 215 72 408.5t184 277.5q121 90 347 90q233 0 343.5 -97.5t110.5 -304.5q0 -190 -65.5 -375.5t-163.5 -275.5q-127 -114 -373 -114zM528 219q109 0 152 74q39 61 75 207.5t36 255.5 q0 86 -31 118.5t-107 32.5q-96 0 -139 -55q-43 -57 -82 -214t-39 -271q0 -82 29.5 -115t105.5 -33z" glyph-name="oacute" horiz-adv-x="1179" unicode="ó"/><glyph d="M766 1528l-234 -240h-231l336 408h303l195 -408h-220zM666 1147q233 0 343.5 -97.5t110.5 -304.5q0 -190 -65.5 -375.5t-163.5 -275.5q-127 -115 -373 -114q-236 0 -345.5 95t-109.5 296q0 215 72 408.5t184 277.5q122 90 347 90zM680 293q39 61 75 207.5t36 255.5 q0 86 -31 118.5t-107 32.5q-96 0 -139 -55q-43 -57 -82 -214t-39 -271q0 -82 30 -115t105 -33q109 0 152 74z" glyph-name="ocircumflex" horiz-adv-x="1179" unicode="ô"/><glyph d="M868 1282q-78 0 -133 49l-76 64q-27 20 -53 20q-63 0 -94 -108h-150q25 137 103 222t178 85q70 0 135 -49l76 -64q25 -20 51 -20q57 0 94 106h148q-27 -143 -103 -224t-176 -81zM518 -20q-236 0 -345.5 95t-109.5 296q0 215 72 408.5t184 277.5q121 90 347 90 q233 0 343.5 -97.5t110.5 -304.5q0 -190 -65.5 -375.5t-163.5 -275.5q-127 -114 -373 -114zM528 219q109 0 152 74q39 61 75 207.5t36 255.5q0 86 -31 118.5t-107 32.5q-96 0 -139 -55q-43 -57 -82 -214t-39 -271q0 -82 29.5 -115t105.5 -33z" glyph-name="otilde" horiz-adv-x="1179" unicode="õ"/><glyph d="M401 1587h281l-47 -260h-281zM866 1587h281l-47 -260h-279zM518 -20q-236 0 -345.5 95t-109.5 296q0 215 72 408.5t184 277.5q121 90 347 90q233 0 343.5 -97.5t110.5 -304.5q0 -190 -65.5 -375.5t-163.5 -275.5q-127 -114 -373 -114zM528 219q109 0 152 74 q39 61 75 207.5t36 255.5q0 86 -31 118.5t-107 32.5q-96 0 -139 -55q-43 -57 -82 -214t-39 -271q0 -82 29.5 -115t105.5 -33z" glyph-name="odieresis" horiz-adv-x="1179" unicode="ö"/><glyph d="M535 840l47 268h317l-47 -268h-317zM127 449l45 253h995l-45 -253h-995zM395 43l47 268h318l-47 -268h-318z" glyph-name="divide" horiz-adv-x="1290" unicode="÷"/><glyph d="M983 1071q137 -98 137 -326q0 -190 -65.5 -375.5t-163.5 -275.5q-127 -115 -373 -114q-72 0 -143 10l-62 -109h-213l99 174q-135 92 -136 316q0 215 72 408.5t184 277.5q121 90 347 90q70 0 141 -10l61 108h213zM514 852q-39 -51 -76 -191.5t-43 -257.5l283 504h-25 q-96 0 -139 -55zM528 219q109 0 152 74q35 57 69.5 191t41.5 243l-287 -508h24z" glyph-name="oslash" horiz-adv-x="1179" unicode="ø"/><glyph d="M825 1296h-209l-188 408h285zM848 1126h326l-197 -1116l-289 -24v129h-12q-90 -135 -303 -135q-160 0 -228.5 62t-68.5 198q0 76 18 176l127 710h326l-127 -716q-8 -47 -8 -86q0 -57 25.5 -81t84.5 -24q168 0 203 199z" glyph-name="ugrave" horiz-adv-x="1206" unicode="ù"/><glyph d="M1176 1704l-334 -408h-221l256 408h299zM725 418l123 708h326l-197 -1116l-289 -24v129h-12q-90 -135 -303 -135q-160 0 -228.5 62t-68.5 198q0 76 18 176l127 710h326l-127 -716q-8 -47 -8 -86q0 -57 25.5 -81t84.5 -24q168 0 203 199z" glyph-name="uacute" horiz-adv-x="1206" unicode="ú"/><glyph d="M774 1528l-233 -240h-232l336 408h303l195 -408h-219zM848 1126h326l-197 -1116l-289 -24v129h-12q-90 -135 -303 -135q-160 0 -228.5 62t-68.5 198q0 76 18 176l127 710h326l-127 -716q-8 -47 -8 -86q0 -57 25.5 -81t84.5 -24q168 0 203 199z" glyph-name="ucircumflex" horiz-adv-x="1206" unicode="û"/><glyph d="M690 1587l-47 -260h-281l48 260h280zM1155 1587l-47 -260h-279l45 260h281zM848 1126h326l-197 -1116l-289 -24v129h-12q-90 -135 -303 -135q-160 0 -228.5 62t-68.5 198q0 76 18 176l127 710h326l-127 -716q-8 -47 -8 -86q0 -57 25.5 -81t84.5 -24q168 0 203 199z" glyph-name="udieresis" horiz-adv-x="1206" unicode="ü"/><glyph d="M1114 1704l-334 -408h-221l256 408h299zM819 1126h346l-506 -1175q-82 -190 -200.5 -265t-294.5 -75q-84 0 -213 27l41 219q92 -14 168 -15q98 0 156.5 40t99.5 149l6 14h-227l-80 1081h338l8 -852h45z" glyph-name="yacute" horiz-adv-x="1071" unicode="ý"/><glyph d="M797 1147q180 0 260 -95.5t80 -275.5q0 -166 -52.5 -362.5t-146.5 -302.5q-115 -131 -322 -131q-158 0 -217 83h-28l-76 -432h-326l336 1905h326l-84 -485h10q78 96 240 96zM698 303q41 70 74 224.5t33 248.5q0 74 -27.5 102.5t-91.5 28.5q-86 0 -136 -53t-71 -176 l-45 -254q-8 -43 -8 -84q0 -68 29.5 -94.5t87.5 -26.5q108 0 155 84z" glyph-name="thorn" horiz-adv-x="1193" unicode="þ"/><glyph d="M629 1587l-47 -260h-281l47 260h281zM1094 1587l-47 -260h-279l45 260h281zM819 1126h346l-506 -1175q-82 -190 -200.5 -265t-294.5 -75q-84 0 -213 27l41 219q92 -14 168 -15q98 0 156.5 40t99.5 149l6 14h-227l-80 1081h338l8 -852h45z" glyph-name="ydieresis" horiz-adv-x="1071" unicode="ÿ"/><glyph d="M1194 1866l-39 -219h-620l40 219h619zM1069 1434l123 -1434h-346l-15 338h-421l-134 -338h-354l629 1434h518zM514 602h307l-24 567h-62z" glyph-name="Amacron" horiz-adv-x="1314" unicode="Ā"/><glyph d="M1024 1559l-39 -220h-620l41 220h618zM700 1147q162 0 240 -66.5t78 -203.5q0 -57 -12 -125l-132 -742l-288 -24v129h-11q-90 -135 -278 -135q-291 0 -291 266q0 100 38 188t103 137q96 74 281 74h234l14 88q6 41 6 68q0 49 -24.5 70.5t-84.5 21.5q-92 0 -321 -55 l-25 243q305 66 473 66zM324 266q0 -41 21.5 -59.5t70.5 -18.5q168 0 202 213l15 82h-133q-74 0 -109 -34q-29 -25 -48 -79.5t-19 -103.5z" glyph-name="amacron" horiz-adv-x="1087" unicode="ā"/><glyph d="M1051 1935h198l-8 -49q-31 -176 -128 -241.5t-263 -65.5q-319 0 -320 238q0 39 11 94l4 24h198l-8 -41q-4 -25 -4 -34q0 -88 133 -88q84 0 125 32.5t60 116.5zM1069 1434l123 -1434h-346l-15 338h-421l-134 -338h-354l629 1434h518zM514 602h307l-24 567h-62z" glyph-name="Abreve" horiz-adv-x="1314" unicode="Ă"/><glyph d="M881 1628h198l-8 -49q-31 -176 -128 -241.5t-263 -65.5q-319 0 -320 237q0 39 11 95l4 24h198l-8 -41q-4 -25 -4 -35q0 -88 133 -88q84 0 125 33t60 117zM700 1147q162 0 240 -66.5t78 -203.5q0 -57 -12 -125l-132 -742l-288 -24v129h-11q-90 -135 -278 -135 q-291 0 -291 266q0 100 38 188t103 137q96 74 281 74h234l14 88q6 41 6 68q0 49 -24.5 70.5t-84.5 21.5q-92 0 -321 -55l-25 243q305 66 473 66zM324 266q0 -41 21.5 -59.5t70.5 -18.5q168 0 202 213l15 82h-133q-74 0 -109 -34q-29 -25 -48 -79.5t-19 -103.5z" glyph-name="abreve" horiz-adv-x="1087" unicode="ă"/><glyph d="M1204 -297l21 -172q-35 -4 -82 -4q-143 0 -229.5 54t-86.5 169q0 139 127 250h-108l-15 338h-421l-134 -338h-354l629 1434h518l123 -1434q-139 -94 -139 -205q-1 -92 151 -92zM514 602h307l-24 567h-62z" glyph-name="Aogonek" horiz-adv-x="1314" unicode="Ą"/><glyph d="M874 10q-117 -82 -139 -192q-10 -53 27 -84t123 -31l20 -172q-35 -4 -82 -4q-160 0 -247 69.5t-60 213.5q16 100 105 178l-35 -2v129h-11q-90 -135 -278 -135q-291 0 -291 266q0 100 38 188t103 137q96 74 281 74h234l14 88q6 41 6 68q0 49 -24.5 70.5t-84.5 21.5 q-92 0 -321 -55l-25 243q305 66 473 66q162 0 240 -66.5t78 -203.5q0 -57 -12 -125zM324 266q0 -41 21.5 -59.5t70.5 -18.5q168 0 202 213l15 82h-133q-74 0 -109 -34q-29 -25 -48 -79.5t-19 -103.5z" glyph-name="aogonek" horiz-adv-x="1087" unicode="ą"/><glyph d="M672 1604l256 407h299l-334 -407h-221zM623 -20q-266 0 -389 115.5t-123 365.5q0 262 87 512t205 352q150 129 426 129q180 0 304 -51l-56 -264q-78 37 -219 37q-164 0 -231 -80q-63 -76 -116.5 -265.5t-53.5 -361.5q0 -119 45 -165t160 -46q141 0 251 47l17 -278 q-114 -47 -307 -47z" glyph-name="Cacute" horiz-adv-x="1075" unicode="Ć"/><glyph d="M535 1296l256 408h299l-334 -408h-221zM520 -20q-242 0 -348 90t-106 297q0 211 69.5 404.5t175.5 281.5q119 94 365 94q125 0 225 -31l-45 -227q-53 18 -131 18q-150 0 -203 -65q-47 -57 -89 -206t-42 -265q0 -88 34 -120t128 -32t182 25l-4 -242q-84 -22 -211 -22z" glyph-name="cacute" horiz-adv-x="888" unicode="ć"/><glyph d="M692 1894h281l-45 -260h-283zM623 -20q-266 0 -389 115.5t-123 365.5q0 262 87 512t205 352q150 129 426 129q180 0 304 -51l-56 -264q-78 37 -219 37q-164 0 -231 -80q-63 -76 -116.5 -265.5t-53.5 -361.5q0 -119 45 -165t160 -46q141 0 251 47l17 -278 q-114 -47 -307 -47z" glyph-name="Cdotaccent" horiz-adv-x="1075" unicode="Ċ"/><glyph d="M555 1587h281l-45 -260h-283zM520 -20q-242 0 -348 90t-106 297q0 211 69.5 404.5t175.5 281.5q119 94 365 94q125 0 225 -31l-45 -227q-53 18 -131 18q-150 0 -203 -65q-47 -57 -89 -206t-42 -265q0 -88 34 -120t128 -32t182 25l-4 -242q-84 -22 -211 -22z" glyph-name="cdotaccent" horiz-adv-x="888" unicode="ċ"/><glyph d="M631 1595l-193 408h219l150 -240l233 240h232l-338 -408h-303zM403 1325q150 129 426 129q180 0 304 -51l-56 -264q-78 37 -219 37q-164 0 -231 -80q-63 -76 -116.5 -265.5t-53.5 -361.5q0 -119 45 -165t160 -46q141 0 251 47l17 -278q-115 -47 -307 -47 q-266 0 -389 115.5t-123 365.5q0 262 86.5 512t205.5 352z" glyph-name="Ccaron" horiz-adv-x="1075" unicode="Č"/><glyph d="M494 1288l-193 408h219l150 -240l233 240h232l-338 -408h-303zM311 1053q119 94 365 94q125 0 225 -31l-45 -227q-53 18 -131 18q-150 0 -203 -65q-47 -57 -89 -206t-42 -265q0 -88 34 -120t128 -32t182 25l-4 -242q-84 -23 -211 -22q-242 0 -348 90t-106 297 q0 211 69.5 404.5t175.5 281.5z" glyph-name="ccaron" horiz-adv-x="888" unicode="č"/><glyph d="M725 1595l-193 408h220l149 -240l234 240h231l-338 -408h-303zM838 1434q238 0 350 -121t112 -379q0 -221 -72.5 -445.5t-185.5 -338.5q-143 -150 -438 -150h-536l251 1434h519zM791 338q63 80 116.5 277.5t53.5 345.5q0 115 -41 165t-134 50h-170l-161 -918h151 q124 0 185 80z" glyph-name="Dcaron" horiz-adv-x="1353" unicode="Ď"/><glyph d="M825 1057l82 479h326l-268 -1526l-289 -24l2 129h-10q-80 -135 -271 -135q-336 0 -336 378q0 201 64.5 398.5t161.5 287.5q109 102 291 103q166 0 223 -90h24zM1647 1536l-45 -258h2l-156 -307h-154l154 307h-127l45 258h281zM762 707q10 61 10 92q0 109 -117 108 q-94 0 -139 -61q-45 -59 -85 -213t-40 -271q0 -80 27.5 -111.5t95.5 -31.5q88 0 134 48t67 159z" glyph-name="dcaron" horiz-adv-x="1193" unicode="ď"/><glyph d="M838 1434q238 0 350 -121t112 -379q0 -221 -72.5 -445.5t-185.5 -338.5q-143 -150 -438 -150h-536l104 600h-162l43 231h160l106 603h519zM791 338q63 80 116.5 277.5t53.5 345.5q0 115 -41 165t-134 50h-170l-61 -345h248l-41 -231h-248l-59 -342h151q124 0 185 80z" glyph-name="Dcroat" horiz-adv-x="1353" unicode="Đ"/><glyph d="M1376 1393l-33 -183h-167l-211 -1200l-289 -24l2 129h-10q-80 -135 -271 -135q-336 0 -336 378q0 201 64.5 398.5t161.5 287.5q109 102 291 103q166 0 223 -90h24l27 153h-201l31 183h201l24 143h326l-25 -143h168zM762 707q10 61 10 92q0 109 -117 108q-94 0 -139 -61 q-45 -59 -85 -213t-40 -271q0 -80 27.5 -111.5t95.5 -31.5q88 0 134 48t67 159z" glyph-name="dcroat" horiz-adv-x="1193" unicode="đ"/><glyph d="M1108 1866l-39 -219h-620l40 219h619zM1085 1169h-471l-51 -295h434l-45 -264h-436l-59 -346h495l-47 -264h-837l251 1434h814z" glyph-name="Emacron" horiz-adv-x="1091" unicode="Ē"/><glyph d="M1044 1559l-38 -220h-621l41 220h618zM649 1147q209 0 308.5 -88t99.5 -275q0 -100 -35 -268l-8 -45h-633q-6 -49 -6 -90q0 -90 35.5 -127t124.5 -37q137 0 360 57l18 -229q-238 -66 -415 -65q-432 0 -432 440q0 184 65.5 360t167.5 262q123 105 350 105zM418 664h327 q14 86 15 143q0 66 -26.5 93.5t-90.5 27.5q-98 0 -147 -68q-39 -57 -78 -196z" glyph-name="emacron" horiz-adv-x="1105" unicode="ē"/><glyph d="M944 1894l-45 -260h-283l48 260h280zM1085 1169h-471l-51 -295h434l-45 -264h-436l-59 -346h495l-47 -264h-837l251 1434h814z" glyph-name="Edotaccent" horiz-adv-x="1091" unicode="Ė"/><glyph d="M881 1587l-45 -260h-283l47 260h281zM649 1147q209 0 308.5 -88t99.5 -275q0 -100 -35 -268l-8 -45h-633q-6 -49 -6 -90q0 -90 35.5 -127t124.5 -37q137 0 360 57l18 -229q-238 -66 -415 -65q-432 0 -432 440q0 184 65.5 360t167.5 262q123 105 350 105zM418 664h327 q14 86 15 143q0 66 -26.5 93.5t-90.5 27.5q-98 0 -147 -68q-39 -57 -78 -196z" glyph-name="edotaccent" horiz-adv-x="1105" unicode="ė"/><glyph d="M1085 1169h-471l-51 -295h434l-45 -264h-436l-59 -346h495l-47 -264h-117q-139 -94 -139 -205q0 -92 152 -92l20 -172q-35 -4 -82 -4q-143 0 -229 54t-86 169q0 139 127 250h-483l251 1434h814z" glyph-name="Eogonek" horiz-adv-x="1091" unicode="Ę"/><glyph d="M649 1147q209 0 308.5 -88t99.5 -275q0 -100 -35 -268l-8 -45h-633q-6 -49 -6 -90q0 -90 35.5 -127t124.5 -37q137 0 360 57l18 -229q-10 -2 -30.5 -8t-37 -10t-30.5 -7q-125 -88 -141 -182q-8 -55 30.5 -84.5t120.5 -29.5l21 -173q-35 -4 -82 -4q-162 0 -250 70t-61 213 q12 80 77 150h-32q-432 0 -432 440q0 184 65.5 360t167.5 262q123 105 350 105zM418 664h327q14 86 15 143q0 66 -26.5 93.5t-90.5 27.5q-98 0 -147 -68q-39 -57 -78 -196z" glyph-name="eogonek" horiz-adv-x="1105" unicode="ę"/><glyph d="M602 1595l-192 408h219l149 -240l234 240h231l-338 -408h-303zM1133 1434l-48 -265h-471l-51 -295h434l-45 -264h-436l-59 -346h495l-47 -264h-837l251 1434h814z" glyph-name="Ecaron" horiz-adv-x="1091" unicode="Ě"/><glyph d="M539 1288l-193 408h219l150 -240l233 240h232l-338 -408h-303zM649 1147q209 0 308.5 -88t99.5 -275q0 -100 -35 -268l-8 -45h-633q-6 -49 -6 -90q0 -90 35.5 -127t124.5 -37q137 0 360 57l18 -229q-238 -66 -415 -65q-432 0 -432 440q0 184 65.5 360t167.5 262 q123 105 350 105zM418 664h327q14 86 15 143q0 66 -26.5 93.5t-90.5 27.5q-98 0 -147 -68q-39 -57 -78 -196z" glyph-name="ecaron" horiz-adv-x="1105" unicode="ě"/><glyph d="M901 1835l-233 -240h-232l336 408h303l195 -408h-219zM709 590l43 252h479l-148 -834l-266 -22v135h-8q-119 -141 -317 -141q-381 0 -381 458q0 279 81.5 534t200.5 349q168 133 467 133q225 0 367 -47l-58 -274q-129 45 -295 45q-170 0 -253 -91q-57 -63 -113.5 -276 t-56.5 -371q0 -102 33.5 -142t119.5 -40q219 0 258 215l21 117h-174z" glyph-name="Gcircumflex" horiz-adv-x="1296" unicode="Ĝ"/><glyph d="M745 1528l-233 -240h-231l335 408h304l194 -408h-219zM1190 1126l-14 -161l-158 -27q27 -45 26 -119q0 -98 -41.5 -196.5t-109.5 -153.5q-104 -90 -344 -90q-92 0 -162 12l-25 -22q-37 -29 -36 -54q0 -43 63 -43h131q248 0 368 -65.5t120 -202.5q0 -203 -140.5 -298 t-443.5 -95q-256 0 -377 56.5t-121 174.5q0 209 209 258l6 25q-88 53 -88 145q0 106 129 193l13 8q-80 72 -80 213q0 121 51 230.5t133 162.5q98 70 319 70q123 0 203 -21h369zM682 631q23 31 40 97.5t17 117.5q0 53 -26.5 74.5t-91.5 21.5q-96 0 -134 -45 q-23 -29 -42 -95.5t-19 -119.5t26.5 -75.5t96.5 -22.5q100 0 133 47zM496 74q-260 0 -260 -178q0 -47 41.5 -65.5t150.5 -18.5q141 0 205.5 41t64.5 133q0 51 -40.5 69.5t-161.5 18.5z" glyph-name="gcircumflex" horiz-adv-x="1148" unicode="ĝ"/><glyph d="M1069 1935h199l-8 -49q-31 -176 -128.5 -241.5t-263.5 -65.5q-319 0 -319 238q0 39 10 94l4 24h199l-8 -41q-4 -25 -4 -34q0 -88 133 -88q84 0 125 32.5t59 116.5zM709 590l43 252h479l-148 -834l-266 -22v135h-8q-119 -141 -317 -141q-381 0 -381 458q0 279 81.5 534 t200.5 349q168 133 467 133q225 0 367 -47l-58 -274q-129 45 -295 45q-170 0 -253 -91q-57 -63 -113.5 -276t-56.5 -371q0 -102 33.5 -142t119.5 -40q219 0 258 215l21 117h-174z" glyph-name="Gbreve" horiz-adv-x="1296" unicode="Ğ"/><glyph d="M713 1272q-319 0 -320 237q0 39 10 95l5 24h198l-8 -41q-4 -25 -4 -35q0 -88 133 -88q84 0 125 33t59 117l2 14h199l-8 -49q-31 -176 -128 -241.5t-263 -65.5zM1190 1126l-14 -161l-158 -27q27 -45 26 -119q0 -98 -41.5 -196.5t-109.5 -153.5q-104 -90 -344 -90 q-92 0 -162 12l-25 -22q-37 -29 -36 -54q0 -43 63 -43h131q248 0 368 -65.5t120 -202.5q0 -203 -140.5 -298t-443.5 -95q-256 0 -377 56.5t-121 174.5q0 209 209 258l6 25q-88 53 -88 145q0 106 129 193l13 8q-80 72 -80 213q0 121 51 230.5t133 162.5q98 70 319 70 q123 0 203 -21h369zM682 631q23 31 40 97.5t17 117.5q0 53 -26.5 74.5t-91.5 21.5q-96 0 -134 -45q-23 -29 -42 -95.5t-19 -119.5t26.5 -75.5t96.5 -22.5q100 0 133 47zM496 74q-260 0 -260 -178q0 -47 41.5 -65.5t150.5 -18.5q141 0 205.5 41t64.5 133q0 51 -40.5 69.5 t-161.5 18.5z" glyph-name="gbreve" horiz-adv-x="1148" unicode="ğ"/><glyph d="M1049 1894l-45 -260h-283l47 260h281zM752 842h479l-148 -834l-266 -22v135h-8q-119 -141 -317 -141q-381 0 -381 458q0 279 81.5 534t200.5 349q168 133 467 133q225 0 367 -47l-58 -274q-129 45 -295 45q-170 0 -253 -91q-57 -63 -113.5 -276t-56.5 -371 q0 -102 33.5 -142t119.5 -40q219 0 258 215l21 117h-174z" glyph-name="Gdotaccent" horiz-adv-x="1296" unicode="Ġ"/><glyph d="M893 1587l-45 -260h-283l47 260h281zM1190 1126l-14 -161l-158 -27q27 -45 26 -119q0 -98 -41.5 -196.5t-109.5 -153.5q-104 -90 -344 -90q-92 0 -162 12l-25 -22q-37 -29 -36 -54q0 -43 63 -43h131q248 0 368 -65.5t120 -202.5q0 -203 -140.5 -298t-443.5 -95 q-256 0 -377 56.5t-121 174.5q0 209 209 258l6 25q-88 53 -88 145q0 106 129 193l13 8q-80 72 -80 213q0 121 51 230.5t133 162.5q98 70 319 70q123 0 203 -21h369zM682 631q23 31 40 97.5t17 117.5q0 53 -26.5 74.5t-91.5 21.5q-96 0 -134 -45q-23 -29 -42 -95.5 t-19 -119.5t26.5 -75.5t96.5 -22.5q100 0 133 47zM496 74q-260 0 -260 -178q0 -47 41.5 -65.5t150.5 -18.5q141 0 205.5 41t64.5 133q0 51 -40.5 69.5t-161.5 18.5z" glyph-name="gdotaccent" horiz-adv-x="1148" unicode="ġ"/><glyph d="M752 842h479l-148 -834l-266 -22v135h-8q-119 -141 -317 -141q-381 0 -381 458q0 279 81.5 534t200.5 349q168 133 467 133q225 0 367 -47l-58 -274q-129 45 -295 45q-170 0 -253 -91q-57 -63 -113.5 -276t-56.5 -371q0 -102 33.5 -142t119.5 -40q219 0 258 215l21 117 h-174zM365 -397l45 258h280l-45 -258l-153 -310h-156l156 310h-127z" glyph-name="Gcommaaccent" horiz-adv-x="1296" unicode="Ģ"/><glyph d="M893 1585l-45 -258h-281l45 258l156 307h156l-154 -307h123zM1190 1126l-14 -161l-158 -27q27 -45 26 -119q0 -98 -41.5 -196.5t-109.5 -153.5q-104 -90 -344 -90q-92 0 -162 12l-25 -22q-37 -29 -36 -54q0 -43 63 -43h131q248 0 368 -65.5t120 -202.5 q0 -203 -140.5 -298t-443.5 -95q-256 0 -377 56.5t-121 174.5q0 209 209 258l6 25q-88 53 -88 145q0 106 129 193l13 8q-80 72 -80 213q0 121 51 230.5t133 162.5q98 70 319 70q123 0 203 -21h369zM682 631q23 31 40 97.5t17 117.5q0 53 -26.5 74.5t-91.5 21.5 q-96 0 -134 -45q-23 -29 -42 -95.5t-19 -119.5t26.5 -75.5t96.5 -22.5q100 0 133 47zM496 74q-260 0 -260 -178q0 -47 41.5 -65.5t150.5 -18.5q141 0 205.5 41t64.5 133q0 51 -40.5 69.5t-161.5 18.5z" glyph-name="gcommaaccent" horiz-adv-x="1148" unicode="ģ"/><glyph d="M940 1835l-233 -240h-232l336 408h303l195 -408h-219zM1073 1434h342l-252 -1434h-342l107 610h-412l-106 -610h-342l251 1434h343l-99 -560h412z" glyph-name="Hcircumflex" horiz-adv-x="1427" unicode="Ĥ"/><glyph d="M662 1886l-234 -239h-231l335 407h304l194 -407h-219zM846 1147q160 0 230.5 -61.5t70.5 -200.5q0 -70 -19 -174l-124 -711h-326l127 717q8 47 8 86q0 57 -26.5 80.5t-88.5 23.5q-94 0 -144 -50t-71 -159l-123 -698h-325l270 1536h326l-86 -496h10q88 107 291 107z" glyph-name="hcircumflex" horiz-adv-x="1220" unicode="ĥ"/><glyph d="M1534 1253l-37 -211h-151l-183 -1042h-340l107 610h-414l-106 -610h-342l182 1042h-164l37 211h166l30 181h343l-31 -181h413l31 181h340l-31 -181h150zM977 874l29 168h-414l-29 -168h414z" glyph-name="Hbar" horiz-adv-x="1411" unicode="Ħ"/><glyph d="M846 1147q160 0 230.5 -61.5t70.5 -200.5q0 -70 -19 -174l-124 -711h-326l127 717q8 47 8 86q0 57 -26.5 80.5t-88.5 23.5q-94 0 -144 -50t-71 -159l-123 -698h-325l213 1210h-156l33 183h156l24 143h326l-25 -143h289l-31 -183h-289l-30 -170h10q88 107 291 107z" glyph-name="hbar" horiz-adv-x="1220" unicode="ħ"/><glyph d="M668 1589q-78 0 -133 49l-76 64q-27 20 -53 20q-63 0 -95 -108h-149q25 137 102.5 222t177.5 85q70 0 136 -49l75 -64q25 -20 52 -20q57 0 94 106h147q-27 -143 -102.5 -224t-175.5 -81zM662 1434l-252 -1434h-342l251 1434h343z" glyph-name="Itilde" horiz-adv-x="671" unicode="Ĩ"/><glyph d="M569 1282q-78 0 -133 49l-76 64q-27 20 -53 20q-63 0 -94 -108h-150q25 137 103 222t178 85q70 0 135 -49l76 -64q25 -20 51 -20q57 0 94 106h148q-27 -143 -103 -224t-176 -81zM557 1126l-199 -1126h-327l198 1126h328z" glyph-name="itilde" horiz-adv-x="585" unicode="ĩ"/><glyph d="M258 1866h619l-39 -219h-621zM662 1434l-252 -1434h-342l251 1434h343z" glyph-name="Imacron" horiz-adv-x="671" unicode="Ī"/><glyph d="M160 1559h618l-39 -220h-620zM557 1126l-199 -1126h-327l198 1126h328z" glyph-name="imacron" horiz-adv-x="585" unicode="ī"/><glyph d="M532 1579q-319 0 -319 238q0 39 10 94l4 24h199l-8 -41q-4 -25 -4 -34q0 -88 133 -88q84 0 125 32.5t59 116.5l2 14h199l-8 -49q-31 -176 -128.5 -241.5t-263.5 -65.5zM662 1434l-252 -1434h-342l251 1434h343z" glyph-name="Ibreve" horiz-adv-x="671" unicode="Ĭ"/><glyph d="M434 1272q-319 0 -319 237q0 39 10 95l4 24h199l-9 -41q-4 -25 -4 -35q0 -88 134 -88q84 0 124.5 33t59.5 117l2 14h199l-9 -49q-31 -176 -128 -241.5t-263 -65.5zM557 1126l-199 -1126h-327l198 1126h328z" glyph-name="ibreve" horiz-adv-x="585" unicode="ĭ"/><glyph d="M270 -205q0 -92 152 -92l20 -172q-35 -4 -82 -4q-143 0 -229 54t-86 169q0 139 127 250h-104l251 1434h343l-252 -1434q-140 -94 -140 -205z" glyph-name="Iogonek" horiz-adv-x="671" unicode="Į"/><glyph d="M295 1569h352l-49 -283h-352zM358 0q-139 -94 -139 -205q0 -92 152 -92l20 -172q-35 -4 -82 -4q-143 0 -229 54t-86 169q0 139 127 250h-90l198 1126h328z" glyph-name="iogonek" horiz-adv-x="585" unicode="į"/><glyph d="M432 1894h281l-45 -260h-283zM662 1434l-252 -1434h-342l251 1434h343z" glyph-name="Idotaccent" horiz-adv-x="671" unicode="İ"/><glyph d="M557 1126l-199 -1126h-327l198 1126h328z" glyph-name="dotlessi" horiz-adv-x="585" unicode="ı"/><glyph d="M662 1434l-252 -1434h-342l251 1434h343zM817 -20q-113 0 -213 24l53 260q27 -6 80 -6q68 0 100.5 35t49.5 123l178 1018h342l-195 -1104q-35 -207 -123 -278.5t-272 -71.5z" glyph-name="IJ" horiz-adv-x="1409" unicode="Ĳ"/><glyph d="M295 1569h352l-49 -283h-352zM870 1286l50 283h352l-49 -283h-353zM557 1126l-199 -1126h-327l198 1126h328zM590 -389q-119 0 -213 22l41 217q33 -6 88 -6q72 0 104.5 41t51.5 150l194 1091h326l-207 -1165q-37 -209 -122 -279.5t-263 -70.5z" glyph-name="ij" horiz-adv-x="1218" unicode="ĳ"/><glyph d="M813 2003l195 -408h-220l-149 240l-233 -240h-232l336 408h303zM215 416l178 1018h342l-194 -1104q-35 -207 -123 -278.5t-273 -71.5q-113 0 -213 24l54 260q27 -6 80 -6q68 0 100.5 35t48.5 123z" glyph-name="Jcircumflex" horiz-adv-x="737" unicode="Ĵ"/><glyph d="M633 1696l194 -408h-219l-149 240l-234 -240h-231l336 408h303zM18 35l195 1091h326l-207 -1165q-37 -209 -122 -279.5t-263 -70.5q-119 0 -213 22l41 217q39 -6 96 -6q70 0 99.5 39t47.5 152z" glyph-name="jcircumflex" horiz-adv-x="575" unicode="ĵ"/><glyph d="M1405 1434l-535 -693l304 -741h-383l-197 610h-78l-106 -610h-342l251 1434h343l-99 -560h72l391 560h379zM367 -397l45 258h280l-45 -258l-153 -310h-156l156 310h-127z" glyph-name="Kcommaaccent" horiz-adv-x="1290" unicode="Ķ"/><glyph d="M1243 1126l-450 -505l260 -621h-361l-170 512h-71l-91 -512h-325l270 1536h326l-144 -809h76l309 399h371zM283 -397l45 258h280l-45 -258l-153 -310h-156l156 310h-127z" glyph-name="kcommaaccent" horiz-adv-x="1157" unicode="ķ"/><glyph d="M969 2011l-334 -407h-221l256 407h299zM662 1434l-205 -1170h377l-48 -264h-718l251 1434h343z" glyph-name="Lacute" horiz-adv-x="931" unicode="Ĺ"/><glyph d="M385 1706l256 408h299l-334 -408h-221zM350 -20q-147 0 -212.5 52t-65.5 167q0 51 12 120l213 1217h326l-209 -1190q-10 -57 -11 -78q0 -29 12.5 -39t45.5 -10q39 0 80 12l-2 -235q-87 -16 -189 -16z" glyph-name="lacute" horiz-adv-x="655" unicode="ĺ"/><glyph d="M457 264h377l-48 -264h-718l251 1434h343zM215 -397l45 258h281l-45 -258l-154 -310h-156l156 310h-127z" glyph-name="Lcommaaccent" horiz-adv-x="931" unicode="Ļ"/><glyph d="M403 268q0 -29 12.5 -39t45.5 -10q39 0 80 12l-2 -235q-86 -16 -189 -16q-147 0 -212.5 52t-65.5 167q0 51 12 120l213 1217h326l-209 -1190q-11 -58 -11 -78zM33 -397l45 258h280l-45 -258l-153 -310h-156l156 310h-127z" glyph-name="lcommaaccent" horiz-adv-x="655" unicode="ļ"/><glyph d="M662 1434l-205 -1170h377l-48 -264h-718l251 1434h343zM813 1434h281l-45 -258l-154 -308h-156l154 308h-125z" glyph-name="Lcaron" horiz-adv-x="931" unicode="Ľ"/><glyph d="M623 1536l-209 -1190q-10 -57 -11 -78q0 -29 12.5 -39t45.5 -10q39 0 80 12l-2 -235q-86 -16 -189 -16q-147 0 -212.5 52t-65.5 167q0 51 12 120l213 1217h326zM756 1536h278l-45 -258l-153 -307h-154l152 307h-123z" glyph-name="lcaron" horiz-adv-x="655" unicode="ľ"/><glyph d="M662 1434l-205 -1170h377l-48 -264h-718l251 1434h343zM651 952h357l-60 -342h-356z" glyph-name="Ldot" horiz-adv-x="1048" unicode="Ŀ"/><glyph d="M350 -20q-147 0 -212.5 52t-65.5 167q0 51 12 120l213 1217h326l-209 -1190q-10 -57 -11 -78q0 -29 12.5 -39t45.5 -10q39 0 80 12l-2 -235q-87 -16 -189 -16zM518 610l60 342h356l-60 -342h-356z" glyph-name="ldot" horiz-adv-x="929" unicode="ŀ"/><glyph d="M526 668l-69 -404h377l-48 -264h-718l88 506l-168 -74l41 246l172 76l118 680h343l-91 -519l269 119l-39 -246z" glyph-name="Lslash" horiz-adv-x="931" unicode="Ł"/><glyph d="M485 756l-71 -410q-10 -57 -11 -78q0 -29 12.5 -39t45.5 -10q39 0 80 12l-2 -235q-86 -16 -189 -16q-147 0 -212.5 52t-65.5 167q0 51 12 120l45 261l-152 -74l39 237l156 76l125 717h326l-95 -541l222 109l-37 -238z" glyph-name="lslash" horiz-adv-x="655" unicode="ł"/><glyph d="M1343 2011l-333 -407h-222l256 407h299zM1108 1434h309l-252 -1434h-491l-90 1042h-27l-182 -1042h-307l251 1434h496l86 -1039h25z" glyph-name="Nacute" horiz-adv-x="1427" unicode="Ń"/><glyph d="M1186 1704l-334 -408h-221l256 408h299zM838 1147q160 0 234.5 -64.5t74.5 -203.5q0 -66 -19 -170l-124 -709h-326l127 717q8 51 8 88q0 57 -27.5 79.5t-93.5 22.5q-92 0 -141 -48t-68 -154l-123 -705h-325l194 1116l291 25l-2 -129h12q49 72 121 103.5t187 31.5z" glyph-name="nacute" horiz-adv-x="1220" unicode="ń"/><glyph d="M1108 1434h309l-252 -1434h-491l-90 1042h-27l-182 -1042h-307l251 1434h496l86 -1039h25zM391 -397l45 258h281l-45 -258l-154 -310h-156l156 310h-127z" glyph-name="Ncommaaccent" horiz-adv-x="1427" unicode="Ņ"/><glyph d="M838 1147q160 0 234.5 -64.5t74.5 -203.5q0 -66 -19 -170l-124 -709h-326l127 717q8 51 8 88q0 57 -27.5 79.5t-93.5 22.5q-92 0 -141 -48t-68 -154l-123 -705h-325l194 1116l291 25l-2 -129h12q49 72 121 103.5t187 31.5zM303 -397l45 258h281l-45 -258l-154 -310h-156 l156 310h-127z" glyph-name="ncommaaccent" horiz-adv-x="1220" unicode="ņ"/><glyph d="M748 1595l-193 408h219l150 -240l233 240h232l-338 -408h-303zM1108 1434h309l-252 -1434h-491l-90 1042h-27l-182 -1042h-307l251 1434h496l86 -1039h25z" glyph-name="Ncaron" horiz-adv-x="1427" unicode="Ň"/><glyph d="M590 1288l-193 408h219l150 -240l233 240h232l-338 -408h-303zM838 1147q160 0 234.5 -64.5t74.5 -203.5q0 -66 -19 -170l-124 -709h-326l127 717q8 51 8 88q0 57 -27.5 79.5t-93.5 22.5q-92 0 -141 -48t-68 -154l-123 -705h-325l194 1116l291 25l-2 -129h12 q49 72 121 103.5t187 31.5z" glyph-name="ncaron" horiz-adv-x="1220" unicode="ň"/><glyph d="M1108 1434h309l-264 -1500q-35 -190 -112.5 -256.5t-249.5 -66.5q-94 0 -193 20l37 211q37 -6 88 -6q61 0 88 33t43 117l2 14h-182l-90 1042h-27l-182 -1042h-307l251 1434h496l86 -1039h25z" glyph-name="Eng" horiz-adv-x="1427" unicode="Ŋ"/><glyph d="M838 1147q160 0 234.5 -64.5t74.5 -203.5q0 -66 -19 -170l-133 -748q-37 -209 -120.5 -279.5t-262.5 -70.5q-121 0 -215 22l41 217q29 -6 94 -6q70 0 100 37t48 142l125 694q8 51 8 88q0 57 -27.5 79.5t-93.5 22.5q-92 0 -141 -48t-68 -154l-123 -705h-325l194 1116 l291 25l-2 -129h12q49 72 121 103.5t187 31.5z" glyph-name="eng" horiz-adv-x="1220" unicode="ŋ"/><glyph d="M621 1866h618l-39 -219h-620zM627 -20q-270 0 -392 117.5t-122 385.5q0 246 87 493t214 357q139 121 417 121q272 0 394.5 -116.5t122.5 -381.5q0 -244 -85 -492.5t-212 -359.5q-137 -124 -424 -124zM649 258q135 0 189 72q59 74 111 279.5t52 357.5q0 117 -43 163 t-147 46q-125 0 -184 -66q-61 -72 -114.5 -278.5t-53.5 -360.5q0 -119 43 -166t147 -47z" glyph-name="Omacron" horiz-adv-x="1400" unicode="Ō"/><glyph d="M459 1559h618l-39 -220h-620zM518 -20q-236 0 -345.5 95t-109.5 296q0 215 72 408.5t184 277.5q121 90 347 90q233 0 343.5 -97.5t110.5 -304.5q0 -190 -65.5 -375.5t-163.5 -275.5q-127 -114 -373 -114zM528 219q109 0 152 74q39 61 75 207.5t36 255.5q0 86 -31 118.5 t-107 32.5q-96 0 -139 -55q-43 -57 -82 -214t-39 -271q0 -82 29.5 -115t105.5 -33z" glyph-name="omacron" horiz-adv-x="1179" unicode="ō"/><glyph d="M895 1579q-319 0 -320 238q0 39 11 94l4 24h198l-8 -41q-4 -25 -4 -34q0 -88 133 -88q84 0 125 32.5t60 116.5l2 14h198l-8 -49q-31 -176 -128 -241.5t-263 -65.5zM627 -20q-270 0 -392 117.5t-122 385.5q0 246 87 493t214 357q139 121 417 121q272 0 394.5 -116.5 t122.5 -381.5q0 -244 -85 -492.5t-212 -359.5q-137 -124 -424 -124zM649 258q135 0 189 72q59 74 111 279.5t52 357.5q0 117 -43 163t-147 46q-125 0 -184 -66q-61 -72 -114.5 -278.5t-53.5 -360.5q0 -119 43 -166t147 -47z" glyph-name="Obreve" horiz-adv-x="1400" unicode="Ŏ"/><glyph d="M733 1272q-319 0 -319 237q0 39 10 95l4 24h199l-9 -41q-4 -25 -4 -35q0 -88 134 -88q84 0 124.5 33t59.5 117l2 14h199l-9 -49q-31 -176 -128 -241.5t-263 -65.5zM518 -20q-236 0 -345.5 95t-109.5 296q0 215 72 408.5t184 277.5q121 90 347 90q233 0 343.5 -97.5 t110.5 -304.5q0 -190 -65.5 -375.5t-163.5 -275.5q-127 -114 -373 -114zM528 219q109 0 152 74q39 61 75 207.5t36 255.5q0 86 -31 118.5t-107 32.5q-96 0 -139 -55q-43 -57 -82 -214t-39 -271q0 -82 29.5 -115t105.5 -33z" glyph-name="obreve" horiz-adv-x="1179" unicode="ŏ"/><glyph d="M578 1599l262 416h299l-346 -416h-215zM1004 1599l262 416h297l-344 -416h-215zM627 -20q-270 0 -392 117.5t-122 385.5q0 246 87 493t214 357q139 121 417 121q272 0 394.5 -116.5t122.5 -381.5q0 -244 -85 -492.5t-212 -359.5q-137 -124 -424 -124zM649 258 q135 0 189 72q59 74 111 279.5t52 357.5q0 117 -43 163t-147 46q-125 0 -184 -66q-61 -72 -114.5 -278.5t-53.5 -360.5q0 -119 43 -166t147 -47z" glyph-name="Ohungarumlaut" horiz-adv-x="1400" unicode="Ő"/><glyph d="M416 1292l262 416h299l-346 -416h-215zM842 1292l262 416h297l-344 -416h-215zM518 -20q-236 0 -345.5 95t-109.5 296q0 215 72 408.5t184 277.5q121 90 347 90q233 0 343.5 -97.5t110.5 -304.5q0 -190 -65.5 -375.5t-163.5 -275.5q-127 -114 -373 -114zM528 219 q109 0 152 74q39 61 75 207.5t36 255.5q0 86 -31 118.5t-107 32.5q-96 0 -139 -55q-43 -57 -82 -214t-39 -271q0 -82 29.5 -115t105.5 -33z" glyph-name="ohungarumlaut" horiz-adv-x="1179" unicode="ő"/><glyph d="M1862 1169h-469l-52 -295h433l-45 -264h-435l-61 -348h496l-48 -262h-835v4q-90 -25 -225 -24q-264 0 -384 118.5t-120 384.5q0 254 82 497t217 355q145 119 424 119q152 0 256 -37l2 17h811zM651 258q127 0 189 72q68 76 116 290t48 359q0 111 -44.5 154t-144.5 43 q-70 0 -109.5 -13.5t-74.5 -52.5q-68 -76 -119 -280.5t-51 -360.5q0 -115 44 -163t146 -48z" glyph-name="OE" horiz-adv-x="1867" unicode="Œ"/><glyph d="M1343 1147q215 0 308.5 -87t93.5 -265q0 -111 -37 -291l-8 -33h-629q-6 -55 -6 -94q0 -88 38 -124t130 -36t352 57l17 -229q-238 -66 -414 -65q-211 0 -320 100q-123 -100 -346 -100q-248 0 -352 101t-104 306q0 180 63.5 375.5t188 290t352 94.5t331.5 -92q2 2 6.5 5 t9.5 6t7 5q118 76 319 76zM1106 664h328q14 109 14 145q0 72 -24.5 95.5t-86.5 23.5q-102 0 -149 -60q-43 -52 -82 -204zM522 219q104 0 152 62q47 63 83 228t36 267q0 74 -30 102.5t-99 28.5q-106 0 -154 -63q-45 -63 -82 -228t-37 -266q0 -76 29.5 -103.5t101.5 -27.5z " glyph-name="oe" horiz-adv-x="1796" unicode="œ"/><glyph d="M1272 2011l-334 -407h-221l256 407h299zM1227 1098q0 -125 -50.5 -243t-134.5 -185q-53 -43 -100 -64l221 -606h-360l-160 545h-22h-115l-96 -545h-342l251 1434h435q256 0 364.5 -82t108.5 -254zM618 1194l-73 -428h67q139 0 193 55q39 39 61.5 111t22.5 131 q0 74 -38 102.5t-118 28.5h-115z" glyph-name="Racute" horiz-adv-x="1286" unicode="Ŕ"/><glyph d="M989 1704l-334 -408h-221l256 408h299zM535 989q92 158 307 158q31 0 53 -6l-59 -279q-37 18 -117 19q-106 0 -164.5 -58.5t-85.5 -206.5l-109 -616h-325l194 1116l293 25l-2 -152h15z" glyph-name="racute" horiz-adv-x="808" unicode="ŕ"/><glyph d="M1042 670q-53 -43 -100 -64l221 -606h-360l-160 545h-22h-115l-96 -545h-342l251 1434h435q256 0 364.5 -82t108.5 -254q0 -125 -50.5 -242.5t-134.5 -185.5zM618 1194l-73 -428h67q139 0 193 55q39 39 61.5 111t22.5 131q0 74 -38 102.5t-118 28.5h-115zM334 -397 l45 258h280l-45 -258l-153 -310h-156l156 310h-127z" glyph-name="Rcommaaccent" horiz-adv-x="1286" unicode="Ŗ"/><glyph d="M842 1147q31 0 53 -6l-59 -279q-37 18 -117 19q-106 0 -164.5 -58.5t-85.5 -206.5l-109 -616h-325l194 1116l293 25l-2 -152h15q92 158 307 158zM104 -397l46 258h280l-45 -258l-154 -310h-155l155 310h-127z" glyph-name="rcommaaccent" horiz-adv-x="808" unicode="ŗ"/><glyph d="M676 1595l-193 408h219l150 -240l233 240h232l-338 -408h-303zM1227 1098q0 -125 -50.5 -243t-134.5 -185q-53 -43 -100 -64l221 -606h-360l-160 545h-22h-115l-96 -545h-342l251 1434h435q256 0 364.5 -82t108.5 -254zM618 1194l-73 -428h67q139 0 193 55 q39 39 61.5 111t22.5 131q0 74 -38 102.5t-118 28.5h-115z" glyph-name="Rcaron" horiz-adv-x="1286" unicode="Ř"/><glyph d="M393 1288l-192 408h219l149 -240l234 240h231l-338 -408h-303zM535 989q92 158 307 158q31 0 53 -6l-59 -279q-37 18 -117 19q-106 0 -164.5 -58.5t-85.5 -206.5l-109 -616h-325l194 1116l293 25l-2 -152h15z" glyph-name="rcaron" horiz-adv-x="808" unicode="ř"/><glyph d="M561 1604l256 407h299l-334 -407h-221zM348 -20q-147 0 -375 40l52 265q188 -35 311 -35q104 0 159.5 49t55.5 139q0 59 -41 99l-227 213q-117 117 -117 286q0 205 138 311.5t411 106.5q131 0 323 -33l-51 -258q-127 23 -227 23q-250 0 -250 -172q0 -51 31 -80l221 -207 q135 -135 135 -309q0 -209 -143.5 -323.5t-405.5 -114.5z" glyph-name="Sacute" horiz-adv-x="993" unicode="Ś"/><glyph d="M461 1296l256 408h299l-334 -408h-221zM315 -20q-129 0 -335 32l43 232q137 -25 233 -25q102 0 137 33q37 37 37 100q0 47 -41 78l-186 148q-86 63 -86 198q0 84 31.5 166t95.5 133q96 72 293 72q125 0 333 -35l-45 -231q-152 27 -221 26q-74 0 -106 -28q-39 -37 -39 -99 q0 -33 33 -59l163 -131q121 -98 121 -234q0 -178 -112 -278q-105 -98 -349 -98z" glyph-name="sacute" horiz-adv-x="870" unicode="ś"/><glyph d="M715 1835l-234 -240h-231l336 408h303l194 -408h-219zM166 1036q0 205 138 311.5t411 106.5q131 0 323 -33l-51 -258q-127 23 -227 23q-250 0 -250 -172q0 -51 31 -80l221 -207q135 -135 135 -309q0 -209 -143.5 -323.5t-405.5 -114.5q-147 0 -375 40l52 265 q188 -35 311 -35q104 0 159.5 49t55.5 139q0 59 -41 99l-227 213q-117 116 -117 286z" glyph-name="Scircumflex" horiz-adv-x="993" unicode="Ŝ"/><glyph d="M614 1528l-233 -240h-231l335 408h303l195 -408h-219zM244 1075q96 72 293 72q125 0 333 -35l-45 -231q-152 27 -221 26q-74 0 -106 -28q-39 -37 -39 -99q0 -33 33 -59l163 -131q121 -98 121 -234q0 -178 -112 -278q-104 -98 -349 -98q-129 0 -335 32l43 232 q137 -25 233 -25q102 0 137 33q37 37 37 100q0 47 -41 78l-186 148q-86 63 -86 198q0 84 32 166t95 133z" glyph-name="scircumflex" horiz-adv-x="870" unicode="ŝ"/><glyph d="M760 1186q-250 0 -250 -172q0 -51 31 -80l221 -207q135 -135 135 -309q0 -184 -111.5 -296t-322.5 -136l-41 -86q176 -16 176 -160q0 -117 -68 -178q-72 -63 -196 -64q-94 0 -203 39l16 119q41 -20 103 -21q63 0 96 27q31 25 31 76q0 39 -66 39h-102l76 205 q-117 6 -312 38l52 265q188 -35 311 -35q104 0 159.5 49t55.5 139q0 59 -41 99l-227 213q-117 117 -117 286q0 205 138 311.5t411 106.5q131 0 323 -33l-51 -258q-127 23 -227 23z" glyph-name="Scedilla" horiz-adv-x="993" unicode="Ş"/><glyph d="M498 879q-39 -37 -39 -99q0 -33 33 -59l163 -131q121 -98 121 -234q0 -178 -112 -278q-82 -76 -238 -92l-41 -86q176 -16 176 -160q0 -117 -67 -178q-72 -63 -197 -64q-94 0 -203 39l17 119q41 -20 102 -21q63 0 96 27q31 25 31 76q0 39 -66 39h-102l76 205 q-102 4 -268 30l43 232q137 -25 233 -25q102 0 137 33q37 37 37 100q0 47 -41 78l-186 148q-86 63 -86 198q0 84 31.5 166t95.5 133q96 72 293 72q125 0 333 -35l-45 -231q-152 27 -221 26q-73 1 -106 -28z" glyph-name="scedilla" horiz-adv-x="870" unicode="ş"/><glyph d="M520 1595l-192 408h219l149 -240l234 240h231l-338 -408h-303zM166 1036q0 205 138 311.5t411 106.5q131 0 323 -33l-51 -258q-127 23 -227 23q-250 0 -250 -172q0 -51 31 -80l221 -207q135 -135 135 -309q0 -209 -143.5 -323.5t-405.5 -114.5q-147 0 -375 40l52 265 q188 -35 311 -35q104 0 159.5 49t55.5 139q0 59 -41 99l-227 213q-117 116 -117 286z" glyph-name="Scaron" horiz-adv-x="993" unicode="Š"/><glyph d="M420 1288l-193 408h219l150 -240l233 240h232l-338 -408h-303zM244 1075q96 72 293 72q125 0 333 -35l-45 -231q-152 27 -221 26q-74 0 -106 -28q-39 -37 -39 -99q0 -33 33 -59l163 -131q121 -98 121 -234q0 -178 -112 -278q-104 -98 -349 -98q-129 0 -335 32l43 232 q137 -25 233 -25q102 0 137 33q37 37 37 100q0 47 -41 78l-186 148q-86 63 -86 198q0 84 32 166t95 133z" glyph-name="scaron" horiz-adv-x="870" unicode="š"/><glyph d="M569 0h-84l-47 -100q176 -16 176 -160q0 -117 -67 -178q-72 -63 -197 -64q-94 0 -203 39l17 119q41 -20 102 -21q63 0 96 27q31 25 31 76q0 39 -65 39h-103l84 223h-82l205 1169h-301l45 265h946l-47 -265h-301z" glyph-name="Tcommaaccent" horiz-adv-x="991" unicode="Ţ"/><glyph d="M565 911l-98 -567q-10 -51 -10 -78q0 -47 53 -47q37 0 82 12l-4 -237q-72 -14 -187 -14h-26l-39 -80q176 -16 176 -160q0 -117 -68 -178q-72 -63 -196 -64q-94 0 -203 39l16 119q41 -20 103 -21q63 0 96 27q31 25 31 76q0 39 -66 39h-102l90 239q-88 51 -88 183 q0 53 12 120l105 592h-162l39 215h162l47 273h323l-47 -273h195l-37 -215h-197z" glyph-name="tcommaaccent" horiz-adv-x="763" unicode="ţ"/><glyph d="M528 1595l-192 408h219l150 -240l233 240h231l-338 -408h-303zM1122 1434l-47 -265h-301l-205 -1169h-342l205 1169h-301l45 265h946z" glyph-name="Tcaron" horiz-adv-x="991" unicode="Ť"/><glyph d="M831 1794h281l-47 -258l-154 -309h-155l153 309h-125zM651 1399l-47 -273h195l-37 -215h-197l-98 -567q-10 -51 -10 -78q0 -47 53 -47q37 0 82 12l-4 -237q-72 -14 -187 -14q-147 0 -211.5 53t-64.5 166q0 53 12 120l105 592h-162l39 215h162l47 273h323z" glyph-name="tcaron" horiz-adv-x="763" unicode="ť"/><glyph d="M1075 1169h-301l-59 -338h207l-41 -231h-207l-105 -600h-342l105 600h-203l43 231h201l59 338h-301l45 265h946z" glyph-name="Tbar" horiz-adv-x="991" unicode="Ŧ"/><glyph d="M762 911h-197l-30 -178h186l-41 -233h-186l-27 -156q-10 -51 -10 -78q0 -47 53 -47q37 0 82 12l-4 -237q-72 -14 -187 -14q-147 0 -211.5 53t-64.5 166q0 53 12 120l33 181h-154l43 233h152l31 178h-162l39 215h162l47 273h323l-47 -273h195z" glyph-name="tbar" horiz-adv-x="763" unicode="ŧ"/><glyph d="M1006 1589q-78 0 -134 49l-75 64q-27 20 -54 20q-63 0 -94 -108h-149q25 137 102.5 222t177.5 85q70 0 135 -49l76 -64q25 -20 51 -20q57 0 95 106h147q-27 -143 -102.5 -224t-175.5 -81zM608 -20q-266 0 -376.5 89t-110.5 275q0 96 22 227l152 863h342l-164 -932 q-12 -90 -12 -115q0 -74 37 -101.5t116 -27.5q117 0 168.5 55.5t77.5 212.5l160 908h342l-162 -920q-53 -309 -191.5 -421.5t-400.5 -112.5z" glyph-name="Utilde" horiz-adv-x="1349" unicode="Ũ"/><glyph d="M614 1415q-63 0 -94 -108h-149q25 137 102.5 222t177.5 85q70 0 135 -49l76 -64q27 -20 51 -20q57 0 95 106h147q-27 -143 -102.5 -224t-175.5 -81q-78 0 -134 49l-75 64q-27 20 -54 20zM848 1126h326l-197 -1116l-289 -24v129h-12q-90 -135 -303 -135q-160 0 -228.5 62 t-68.5 198q0 76 18 176l127 710h326l-127 -716q-8 -47 -8 -86q0 -57 25.5 -81t84.5 -24q168 0 203 199z" glyph-name="utilde" horiz-adv-x="1206" unicode="ũ"/><glyph d="M596 1866h618l-38 -219h-621zM608 -20q-266 0 -376.5 89t-110.5 275q0 96 22 227l152 863h342l-164 -932q-12 -90 -12 -115q0 -74 37 -101.5t116 -27.5q117 0 168.5 55.5t77.5 212.5l160 908h342l-162 -920q-53 -309 -191.5 -421.5t-400.5 -112.5z" glyph-name="Umacron" horiz-adv-x="1349" unicode="Ū"/><glyph d="M1085 1559l-38 -220h-621l41 220h618zM848 1126h326l-197 -1116l-289 -24v129h-12q-90 -135 -303 -135q-160 0 -228.5 62t-68.5 198q0 76 18 176l127 710h326l-127 -716q-8 -47 -8 -86q0 -57 25.5 -81t84.5 -24q168 0 203 199z" glyph-name="umacron" horiz-adv-x="1206" unicode="ū"/><glyph d="M870 1579q-319 0 -319 238q0 39 10 94l4 24h199l-8 -41q-4 -25 -4 -34q0 -88 133 -88q84 0 125 32.5t59 116.5l2 14h199l-8 -49q-31 -176 -128.5 -241.5t-263.5 -65.5zM608 -20q-266 0 -376.5 89t-110.5 275q0 96 22 227l152 863h342l-164 -932q-12 -90 -12 -115 q0 -74 37 -101.5t116 -27.5q117 0 168.5 55.5t77.5 212.5l160 908h342l-162 -920q-53 -309 -191.5 -421.5t-400.5 -112.5z" glyph-name="Ubreve" horiz-adv-x="1349" unicode="Ŭ"/><glyph d="M741 1272q-319 0 -319 237q0 39 10 95l4 24h199l-8 -41q-4 -25 -4 -35q0 -88 133 -88q84 0 125 33t59 117l2 14h199l-8 -49q-31 -176 -128.5 -241.5t-263.5 -65.5zM848 1126h326l-197 -1116l-289 -24v129h-12q-90 -135 -303 -135q-160 0 -228.5 62t-68.5 198q0 76 18 176 l127 710h326l-127 -716q-8 -47 -8 -86q0 -57 25.5 -81t84.5 -24q168 0 203 199z" glyph-name="ubreve" horiz-adv-x="1206" unicode="ŭ"/><glyph d="M874 1550q-139 0 -196 50.5t-57 150.5q0 123 55 197q70 96 242 96q139 0 194 -51t55 -152q0 -121 -53 -196q-66 -95 -240 -95zM883 1681q78 0 102 41q27 37 27 101q0 45 -23.5 66.5t-83.5 21.5q-74 0 -102 -39q-27 -37 -27 -98q0 -47 25 -70t82 -23zM608 -20 q-266 0 -376.5 89t-110.5 275q0 96 22 227l152 863h342l-164 -932q-12 -90 -12 -115q0 -74 37 -101.5t116 -27.5q117 0 168.5 55.5t77.5 212.5l160 908h342l-162 -920q-53 -309 -191.5 -421.5t-400.5 -112.5z" glyph-name="Uring" horiz-adv-x="1349" unicode="Ů"/><glyph d="M745 1243q-139 0 -196 50t-57 151q0 123 55 196q70 96 241 97q139 0 194.5 -51.5t55.5 -151.5q0 -121 -53 -197q-66 -94 -240 -94zM674 1565q-27 -37 -27 -99q0 -47 24.5 -69.5t82.5 -22.5q78 0 102 41q27 37 27 101q0 45 -23.5 66.5t-83.5 21.5q-73 0 -102 -39z M848 1126h326l-197 -1116l-289 -24v129h-12q-90 -135 -303 -135q-160 0 -228.5 62t-68.5 198q0 76 18 176l127 710h326l-127 -716q-8 -47 -8 -86q0 -57 25.5 -81t84.5 -24q168 0 203 199z" glyph-name="uring" horiz-adv-x="1206" unicode="ů"/><glyph d="M553 1599l262 416h299l-346 -416h-215zM979 1599l262 416h297l-344 -416h-215zM608 -20q-266 0 -376.5 89t-110.5 275q0 96 22 227l152 863h342l-164 -932q-12 -90 -12 -115q0 -74 37 -101.5t116 -27.5q117 0 168.5 55.5t77.5 212.5l160 908h342l-162 -920 q-53 -309 -191.5 -421.5t-400.5 -112.5z" glyph-name="Uhungarumlaut" horiz-adv-x="1349" unicode="Ű"/><glyph d="M985 1708l-346 -416h-215l262 416h299zM1065 1292h-215l262 416h297zM725 418l123 708h326l-197 -1116l-289 -24v129h-12q-90 -135 -303 -135q-160 0 -228.5 62t-68.5 198q0 76 18 176l127 710h326l-127 -716q-8 -47 -8 -86q0 -57 25.5 -81t84.5 -24q168 0 203 199z" glyph-name="uhungarumlaut" horiz-adv-x="1206" unicode="ű"/><glyph d="M1020 1434h342l-162 -920q-43 -244 -137 -362.5t-254 -153.5q-135 -94 -135 -203q0 -92 151 -92l21 -172q-35 -4 -82 -4q-143 0 -229 54t-86 169q0 131 104 230q-236 10 -334 99t-98 265q0 96 22 227l152 863h342l-164 -932q-12 -90 -12 -115q0 -74 37 -101.5t116 -27.5 q117 0 168.5 55.5t77.5 212.5z" glyph-name="Uogonek" horiz-adv-x="1349" unicode="Ų"/><glyph d="M838 -182q-10 -53 26.5 -84t122.5 -31l23 -172q-37 -4 -82 -4q-162 0 -249 69.5t-61 213.5q16 100 105 178l-35 -2v129h-12q-90 -135 -303 -135q-160 0 -228.5 62t-68.5 198q0 76 18 176l127 710h326l-127 -716q-8 -47 -8 -86q0 -57 25.5 -81t84.5 -24q168 0 203 199 l123 708h326l-197 -1116q-119 -83 -139 -192z" glyph-name="uogonek" horiz-adv-x="1206" unicode="ų"/><glyph d="M1167 1835l-233 -240h-232l336 408h303l195 -408h-219zM1642 1434h353l-486 -1434h-479l39 1169h-39l-373 -1169h-483l25 1434h348l-68 -1170h39l363 1170h428l-52 -1170h43z" glyph-name="Wcircumflex" horiz-adv-x="1880" unicode="Ŵ"/><glyph d="M1081 1528l-233 -240h-232l336 408h303l195 -408h-219zM1552 1126h346l-432 -1126h-473l-10 897h-33l-325 -897h-471l-35 1126h338l-29 -897h39l317 897h441v-897h41z" glyph-name="wcircumflex" horiz-adv-x="1810" unicode="ŵ"/><glyph d="M846 1835l-234 -240h-231l336 408h303l194 -408h-219zM1386 1434l-616 -940l-86 -494h-342l94 532l-270 902h350l133 -605h29l346 605h362z" glyph-name="Ycircumflex" horiz-adv-x="1234" unicode="Ŷ"/><glyph d="M713 1528l-234 -240h-231l336 408h303l194 -408h-219zM819 1126h346l-506 -1175q-82 -190 -200.5 -265t-294.5 -75q-84 0 -213 27l41 219q92 -14 168 -15q98 0 156.5 40t99.5 149l6 14h-227l-80 1081h338l8 -852h45z" glyph-name="ycircumflex" horiz-adv-x="1071" unicode="ŷ"/><glyph d="M762 1894l-47 -260h-281l47 260h281zM1227 1894l-47 -260h-279l45 260h281zM1386 1434l-616 -940l-86 -494h-342l94 532l-270 902h350l133 -605h29l346 605h362z" glyph-name="Ydieresis" horiz-adv-x="1234" unicode="Ÿ"/><glyph d="M1149 2011l-334 -407h-221l256 407h299zM223 1169l47 265h852l-47 -265l-10 -53l-717 -817l-6 -35h559l-45 -264h-903l57 322l719 815l6 32h-512z" glyph-name="Zacute" horiz-adv-x="1038" unicode="Ź"/><glyph d="M1030 1704l-334 -408h-221l256 408h299zM137 899l39 227h764l-41 -227l-8 -53l-576 -588l-4 -31h494l-41 -227h-819l39 227l8 52l579 593l7 27h-441z" glyph-name="zacute" horiz-adv-x="911" unicode="ź"/><glyph d="M895 1894l-45 -260h-283l47 260h281zM270 1434h852l-47 -265l-10 -53l-717 -817l-6 -35h559l-45 -264h-903l57 322l719 815l6 32h-512z" glyph-name="Zdotaccent" horiz-adv-x="1038" unicode="Ż"/><glyph d="M776 1587l-45 -260h-282l47 260h280zM176 1126h764l-41 -227l-8 -53l-576 -588l-4 -31h494l-41 -227h-819l39 227l8 52l579 593l7 27h-441z" glyph-name="zdotaccent" horiz-adv-x="911" unicode="ż"/><glyph d="M553 1595l-193 408h220l149 -240l234 240h231l-338 -408h-303zM223 1169l47 265h852l-47 -265l-10 -53l-717 -817l-6 -35h559l-45 -264h-903l57 322l719 815l6 32h-512z" glyph-name="Zcaron" horiz-adv-x="1038" unicode="Ž"/><glyph d="M434 1288l-192 408h219l149 -240l234 240h231l-338 -408h-303zM137 899l39 227h764l-41 -227l-8 -53l-576 -588l-4 -31h494l-41 -227h-819l39 227l8 52l579 593l7 27h-441z" glyph-name="zcaron" horiz-adv-x="911" unicode="ž"/><glyph d="M721 1548q129 0 215 -22l-41 -217q-39 8 -100 8q-84 0 -124 -47t-63 -170l-194 -1100h-326l162 911h-176l39 215h176l6 39q37 217 134 300t292 83z" glyph-name="longs" horiz-adv-x="749" unicode="ſ"/><glyph d="M768 1548q129 0 215 -22l-41 -217q-39 8 -100 8q-84 0 -124 -47t-63 -170l-37 -207h216l-37 -213h-215l-127 -719q-37 -207 -122 -278.5t-259 -71.5q-92 0 -170 12l41 221q6 0 17 -1t15 -1q82 0 113 42t51 151l115 645h-164l37 213h164l49 272q37 219 134 301t292 82z " glyph-name="florin" horiz-adv-x="858" unicode="ƒ"/><glyph d="M1442 1679h196l-36 -219q-25 -143 -91.5 -207.5t-189.5 -81.5q27 -88 27 -215q0 -244 -85 -492.5t-212 -359.5q-137 -125 -424 -124q-270 0 -392 117.5t-122 385.5q0 246 87 493t214 357q139 121 417 121q274 0 396 -119q158 10 180 150zM838 330q59 74 111 279.5 t52 357.5q0 117 -43 163t-147 46q-125 0 -184 -66q-61 -72 -114.5 -278.5t-53.5 -360.5q0 -119 43 -166t147 -47q136 0 189 72z" glyph-name="Ohorn" horiz-adv-x="1400" unicode="Ơ"/><glyph d="M1243 1356h197l-37 -219q-25 -147 -93.5 -212t-197.5 -77q8 -43 8 -103q0 -190 -65.5 -375.5t-163.5 -275.5q-127 -115 -373 -114q-236 0 -345.5 95t-109.5 296q0 215 72 408.5t184 277.5q121 90 347 90q272 0 378 -133q141 12 164 147zM680 293q39 61 75 207.5t36 255.5 q0 86 -31 118.5t-107 32.5q-96 0 -139 -55q-43 -57 -82 -214t-39 -271q0 -82 30 -115t105 -33q109 0 152 74z" glyph-name="ohorn" horiz-adv-x="1179" unicode="ơ"/><glyph d="M1513 1778h197l-37 -219q-29 -162 -106.5 -224.5t-233.5 -68.5l-133 -752q-53 -309 -191.5 -421.5t-400.5 -112.5q-266 0 -376.5 89t-110.5 275q0 96 22 227l152 863h342l-164 -932q-12 -90 -12 -115q0 -74 37 -101.5t116 -27.5q117 0 168.5 55.5t77.5 212.5l160 908h260 q172 0 199 149z" glyph-name="Uhorn" horiz-adv-x="1349" unicode="Ư"/><glyph d="M1315 1470h196l-36 -219q-29 -158 -106 -221t-224 -72l-168 -948l-289 -24v129h-12q-90 -135 -303 -135q-160 0 -228.5 62t-68.5 198q0 76 18 176l127 710h326l-127 -716q-8 -47 -8 -86q0 -57 25.5 -81t84.5 -24q168 0 203 199l123 708h233q172 0 199 150z" glyph-name="uhorn" horiz-adv-x="1206" unicode="ư"/><glyph d="M1880 1595l-192 408h219l149 -240l234 240h231l-338 -408h-303zM838 1434q238 0 350 -121t112 -379q0 -221 -72.5 -445.5t-185.5 -338.5q-143 -150 -438 -150h-536l251 1434h519zM1550 1169l47 265h852l-47 -265l-10 -53l-717 -817l-6 -35h559l-45 -264h-903l57 322 l719 815l6 32h-512zM791 338q63 80 116.5 277.5t53.5 345.5q0 115 -41 165t-134 50h-170l-161 -918h151q124 0 185 80z" glyph-name="uni01C4" horiz-adv-x="2365" unicode="Ǆ"/><glyph d="M1767 1288l-192 408h219l150 -240l233 240h231l-337 -408h-304zM838 1434q238 0 350 -121t112 -379q0 -221 -72.5 -445.5t-185.5 -338.5q-143 -150 -438 -150h-536l251 1434h519zM791 338q63 80 116.5 277.5t53.5 345.5q0 115 -41 165t-134 50h-170l-161 -918h151 q124 0 185 80zM1470 899l39 227h764l-41 -227l-8 -53l-575 -588l-4 -31h493l-41 -227h-819l39 227l8 52l580 593l6 27h-441z" glyph-name="uni01C5" horiz-adv-x="2244" unicode="ǅ"/><glyph d="M1659 1288l-193 408h220l149 -240l233 240h232l-338 -408h-303zM907 1536h326l-268 -1526l-289 -24l2 129h-10q-80 -135 -271 -135q-336 0 -336 378q0 201 64.5 398.5t161.5 287.5q109 102 291 103q166 0 223 -90h24zM1362 899l39 227h764l-41 -227l-8 -53l-576 -588 l-4 -31h494l-41 -227h-820l39 227l9 52l579 593l6 27h-440zM762 707q10 61 10 92q0 109 -117 108q-94 0 -139 -61q-45 -59 -85 -213t-40 -271q0 -80 27.5 -111.5t95.5 -31.5q88 0 134 48t67 159z" glyph-name="uni01C6" horiz-adv-x="2136" unicode="ǆ"/><glyph d="M662 1434l-205 -1170h377l-48 -264h-718l251 1434h343zM1325 1434h342l-194 -1104q-35 -207 -123 -278.5t-273 -71.5q-111 0 -213 24l54 260q27 -6 79 -6q68 0 100.5 35t49.5 123z" glyph-name="uni01C7" horiz-adv-x="1669" unicode="Ǉ"/><glyph d="M1208 1569h353l-50 -283h-352zM834 264l-48 -264h-718l251 1434h343l-205 -1170h377zM950 35l195 1091h325l-206 -1165q-37 -209 -122 -279.5t-263 -70.5q-119 0 -213 22l41 217q33 -6 88 -6q72 0 104.5 41t50.5 150z" glyph-name="uni01C8" horiz-adv-x="1507" unicode="ǈ"/><glyph d="M883 1286l49 283h352l-49 -283h-352zM350 -20q-147 0 -212.5 52t-65.5 167q0 51 12 120l213 1217h326l-209 -1190q-10 -57 -11 -78q0 -29 12.5 -39t45.5 -10q39 0 80 12l-2 -235q-87 -16 -189 -16zM602 -389q-119 0 -213 22l41 217q33 -6 88 -6q72 0 104.5 41t51.5 150 l194 1091h326l-207 -1165q-37 -209 -122 -279.5t-263 -70.5z" glyph-name="uni01C9" horiz-adv-x="1230" unicode="ǉ"/><glyph d="M1108 1434h309l-252 -1434h-491l-90 1042h-27l-182 -1042h-307l251 1434h496l86 -1039h25zM1821 1434h342l-195 -1104q-35 -207 -123 -278.5t-272 -71.5q-111 0 -213 24l53 260q27 -6 80 -6q68 0 100.5 35t48.5 123z" glyph-name="uni01CA" horiz-adv-x="2164" unicode="Ǌ"/><glyph d="M1729 1569h352l-49 -283h-353zM1108 1434h309l-252 -1434h-491l-90 1042h-27l-182 -1042h-307l251 1434h496l86 -1039h25zM1470 35l195 1091h326l-207 -1165q-37 -209 -122 -279.5t-263 -70.5q-119 0 -213 22l41 217q33 -6 88 -6q72 0 104.5 41t50.5 150z" glyph-name="uni01CB" horiz-adv-x="2027" unicode="ǋ"/><glyph d="M1518 1569h352l-49 -283h-353zM678 0l127 717q8 51 8 88q0 57 -27.5 79.5t-93.5 22.5q-92 0 -141 -48t-68 -154l-123 -705h-325l194 1116l291 25l-2 -129h12q49 72 121 103.5t187 31.5q160 0 234.5 -64.5t74.5 -203.5q0 -66 -19 -170l-124 -709h-326zM1260 35l194 1091 h326l-207 -1165q-37 -209 -122 -279.5t-263 -70.5q-119 0 -213 22l41 217q33 -6 88 -6q72 0 105 41t51 150z" glyph-name="uni01CC" horiz-adv-x="1816" unicode="ǌ"/><glyph d="M688 1595l-192 408h219l149 -240l234 240h231l-338 -408h-303zM1069 1434l123 -1434h-346l-15 338h-421l-134 -338h-354l629 1434h518zM514 602h307l-24 567h-62z" glyph-name="uni01CD" horiz-adv-x="1314" unicode="Ǎ"/><glyph d="M518 1288l-192 408h219l149 -240l234 240h231l-338 -408h-303zM700 1147q162 0 240 -66.5t78 -203.5q0 -57 -12 -125l-132 -742l-288 -24v129h-11q-90 -135 -278 -135q-291 0 -291 266q0 100 38 188t103 137q96 74 281 74h234l14 88q6 41 6 68q0 49 -24.5 70.5 t-84.5 21.5q-92 0 -321 -55l-25 243q305 66 473 66zM324 266q0 -41 21.5 -59.5t70.5 -18.5q168 0 202 213l15 82h-133q-74 0 -109 -34q-29 -25 -48 -79.5t-19 -103.5z" glyph-name="uni01CE" horiz-adv-x="1087" unicode="ǎ"/><glyph d="M780 2003h232l-338 -408h-303l-193 408h219l150 -240zM68 0l251 1434h343l-252 -1434h-342z" glyph-name="uni01CF" horiz-adv-x="671" unicode="Ǐ"/><glyph d="M682 1696h231l-338 -408h-303l-192 408h219l150 -240zM31 0l198 1126h328l-199 -1126h-327z" glyph-name="uni01D0" horiz-adv-x="585" unicode="ǐ"/><glyph d="M733 1595l-192 408h219l149 -240l234 240h231l-338 -408h-303zM831 1454q272 0 394.5 -116.5t122.5 -381.5q0 -244 -85 -492.5t-212 -359.5q-137 -125 -424 -124q-270 0 -392 117.5t-122 385.5q0 246 87 493t214 357q138 121 417 121zM838 330q59 74 111 279.5t52 357.5 q0 117 -43 163t-147 46q-125 0 -184 -66q-61 -72 -114.5 -278.5t-53.5 -360.5q0 -119 43 -166t147 -47q136 0 189 72z" glyph-name="uni01D1" horiz-adv-x="1400" unicode="Ǒ"/><glyph d="M571 1288l-192 408h219l150 -240l233 240h231l-338 -408h-303zM666 1147q233 0 343.5 -97.5t110.5 -304.5q0 -190 -65.5 -375.5t-163.5 -275.5q-127 -115 -373 -114q-236 0 -345.5 95t-109.5 296q0 215 72 408.5t184 277.5q122 90 347 90zM680 293q39 61 75 207.5 t36 255.5q0 86 -31 118.5t-107 32.5q-96 0 -139 -55q-43 -57 -82 -214t-39 -271q0 -82 30 -115t105 -33q109 0 152 74z" glyph-name="uni01D2" horiz-adv-x="1179" unicode="ǒ"/><glyph d="M709 1595l-193 408h219l150 -240l233 240h232l-338 -408h-303zM1020 1434h342l-162 -920q-53 -309 -191.5 -421.5t-400.5 -112.5q-266 0 -376.5 89t-110.5 275q0 96 22 227l152 863h342l-164 -932q-12 -90 -12 -115q0 -74 37 -101.5t116 -27.5q117 0 168.5 55.5 t77.5 212.5z" glyph-name="uni01D3" horiz-adv-x="1349" unicode="Ǔ"/><glyph d="M580 1288l-193 408h219l150 -240l233 240h232l-338 -408h-303zM725 418l123 708h326l-197 -1116l-289 -24v129h-12q-90 -135 -303 -135q-160 0 -228.5 62t-68.5 198q0 76 18 176l127 710h326l-127 -716q-8 -47 -8 -86q0 -57 25.5 -81t84.5 -24q168 0 203 199z" glyph-name="uni01D4" horiz-adv-x="1206" unicode="ǔ"/><glyph d="M672 2300h618l-39 -221h-618zM539 1894h280l-47 -260h-280zM1004 1894h280l-47 -260h-279zM608 -20q-266 0 -376.5 89t-110.5 275q0 96 22 227l152 863h342l-164 -932q-12 -90 -12 -115q0 -74 37 -101.5t116 -27.5q117 0 168.5 55.5t77.5 212.5l160 908h342l-162 -920 q-53 -309 -191.5 -421.5t-400.5 -112.5z" glyph-name="uni01D5" horiz-adv-x="1349" unicode="Ǖ"/><glyph d="M1161 1993l-39 -221h-618l39 221h618zM690 1587l-47 -260h-281l48 260h280zM829 1327l45 260h281l-47 -260h-279zM848 1126h326l-197 -1116l-289 -24v129h-12q-90 -135 -303 -135q-160 0 -228.5 62t-68.5 198q0 76 18 176l127 710h326l-127 -716q-8 -47 -8 -86 q0 -57 25.5 -81t84.5 -24q168 0 203 199z" glyph-name="uni01D6" horiz-adv-x="1206" unicode="ǖ"/><glyph d="M836 2028l256 407h299l-334 -407h-221zM539 1894h280l-47 -260h-280zM1004 1894h280l-47 -260h-279zM608 -20q-266 0 -376.5 89t-110.5 275q0 96 22 227l152 863h342l-164 -932q-12 -90 -12 -115q0 -74 37 -101.5t116 -27.5q117 0 168.5 55.5t77.5 212.5l160 908h342 l-162 -920q-53 -309 -191.5 -421.5t-400.5 -112.5z" glyph-name="uni01D7" horiz-adv-x="1349" unicode="Ǘ"/><glyph d="M1262 2128l-334 -408h-221l256 408h299zM690 1587l-47 -260h-281l48 260h280zM829 1327l45 260h281l-47 -260h-279zM725 418l123 708h326l-197 -1116l-289 -24v129h-12q-90 -135 -303 -135q-160 0 -228.5 62t-68.5 198q0 76 18 176l127 710h326l-127 -716q-8 -47 -8 -86 q0 -57 25.5 -81t84.5 -24q168 0 203 199z" glyph-name="uni01D8" horiz-adv-x="1206" unicode="ǘ"/><glyph d="M786 2030l-192 407h219l148 -237l233 237h231l-335 -407h-304zM819 1894l-47 -260h-280l47 260h280zM958 1634l46 260h280l-47 -260h-279zM860 526l160 908h342l-162 -920q-53 -309 -191.5 -421.5t-400.5 -112.5q-266 0 -376.5 89t-110.5 275q0 96 22 227l152 863h342 l-164 -932q-12 -90 -12 -115q0 -74 37 -101.5t116 -27.5q117 0 168 55t78 213z" glyph-name="uni01D9" horiz-adv-x="1349" unicode="Ǚ"/><glyph d="M657 1722l-192 408h219l147 -238l234 238h231l-335 -408h-304zM690 1587l-47 -260h-281l48 260h280zM829 1327l45 260h281l-47 -260h-279zM725 418l123 708h326l-197 -1116l-289 -24v129h-12q-90 -135 -303 -135q-160 0 -228.5 62t-68.5 198q0 76 18 176l127 710h326 l-127 -716q-8 -47 -8 -86q0 -57 25.5 -81t84.5 -24q168 0 203 199z" glyph-name="uni01DA" horiz-adv-x="1206" unicode="ǚ"/><glyph d="M825 2028l-188 407h285l112 -407h-209zM492 1634l47 260h280l-47 -260h-280zM958 1634l46 260h280l-47 -260h-279zM608 -20q-266 0 -376.5 89t-110.5 275q0 96 22 227l152 863h342l-164 -932q-12 -90 -12 -115q0 -74 37 -101.5t116 -27.5q117 0 168.5 55.5t77.5 212.5 l160 908h342l-162 -920q-53 -309 -191.5 -421.5t-400.5 -112.5z" glyph-name="uni01DB" horiz-adv-x="1349" unicode="Ǜ"/><glyph d="M905 1720h-209l-188 408h285zM690 1587l-47 -260h-281l48 260h280zM829 1327l45 260h281l-47 -260h-279zM848 1126h326l-197 -1116l-289 -24v129h-12q-90 -135 -303 -135q-160 0 -228.5 62t-68.5 198q0 76 18 176l127 710h326l-127 -716q-8 -47 -8 -86q0 -57 25.5 -81 t84.5 -24q168 0 203 199z" glyph-name="uni01DC" horiz-adv-x="1206" unicode="ǜ"/><glyph d="M1593 1866l-39 -219h-620l41 219h618zM1808 1169h-471l-51 -295h434l-47 -264h-434l-59 -346h493l-47 -264h-835l59 338h-387l-197 -338h-356l878 1434h1065zM897 602l98 567h-51l-328 -567h281z" glyph-name="uni01E2" horiz-adv-x="1812" unicode="Ǣ"/><glyph d="M707 1595l-193 408h219l150 -240l233 240h232l-338 -408h-303zM709 590l43 252h479l-148 -834l-266 -22v135h-8q-119 -141 -317 -141q-381 0 -381 458q0 279 81.5 534t200.5 349q168 133 467 133q225 0 367 -47l-58 -274q-129 45 -295 45q-170 0 -253 -91 q-57 -63 -113.5 -276t-56.5 -371q0 -102 33.5 -142t119.5 -40q219 0 258 215l21 117h-174z" glyph-name="Gcaron" horiz-adv-x="1296" unicode="Ǧ"/><glyph d="M551 1288l-193 408h220l149 -240l234 240h231l-338 -408h-303zM618 1147q123 0 203 -21h369l-14 -161l-158 -27q27 -45 26 -119q0 -98 -41.5 -196.5t-109.5 -153.5q-104 -90 -344 -90q-92 0 -162 12l-25 -22q-37 -29 -36 -54q0 -43 63 -43h131q248 0 368 -65.5 t120 -202.5q0 -203 -140.5 -298t-443.5 -95q-256 0 -377 56.5t-121 174.5q0 209 209 258l6 25q-88 53 -88 145q0 106 129 193l13 8q-80 72 -80 213q0 121 51 230.5t133 162.5q98 70 319 70zM682 631q23 31 40 97.5t17 117.5q0 53 -26.5 74.5t-91.5 21.5q-96 0 -134 -45 q-23 -29 -42 -95.5t-19 -119.5t26.5 -75.5t96.5 -22.5q100 0 133 47zM496 74q-260 0 -260 -178q0 -47 41.5 -65.5t150.5 -18.5q141 0 205.5 41t64.5 133q0 51 -40.5 69.5t-161.5 18.5z" glyph-name="gcaron" horiz-adv-x="1148" unicode="ǧ"/><glyph d="M709 1595l-193 408h219l150 -240l233 240h232l-338 -408h-303zM1405 1434l-535 -693l304 -741h-383l-197 610h-78l-106 -610h-342l251 1434h343l-99 -560h72l391 560h379z" glyph-name="uni01E8" horiz-adv-x="1290" unicode="Ǩ"/><glyph d="M467 1647l-193 407h220l149 -239l234 239h231l-338 -407h-303zM1243 1126l-450 -505l260 -621h-361l-170 512h-71l-91 -512h-325l270 1536h326l-144 -809h76l309 399h371z" glyph-name="uni01E9" horiz-adv-x="1157" unicode="ǩ"/><glyph d="M838 1434q238 0 350 -121t112 -379q0 -221 -72.5 -445.5t-185.5 -338.5q-143 -150 -438 -150h-536l251 1434h519zM1597 1434h852l-47 -265l-10 -53l-717 -817l-6 -35h559l-45 -264h-903l57 322l719 815l6 32h-512zM791 338q63 80 116.5 277.5t53.5 345.5q0 115 -41 165 t-134 50h-170l-161 -918h151q124 0 185 80z" glyph-name="uni01F1" horiz-adv-x="2365" unicode="Ǳ"/><glyph d="M838 1434q238 0 350 -121t112 -379q0 -221 -72.5 -445.5t-185.5 -338.5q-143 -150 -438 -150h-536l251 1434h519zM791 338q63 80 116.5 277.5t53.5 345.5q0 115 -41 165t-134 50h-170l-161 -918h151q124 0 185 80zM1509 1126h764l-41 -227l-8 -53l-575 -588l-4 -31h493 l-41 -227h-819l39 227l8 52l580 593l6 27h-441z" glyph-name="uni01F2" horiz-adv-x="2244" unicode="ǲ"/><glyph d="M907 1536h326l-268 -1526l-289 -24l2 129h-10q-80 -135 -271 -135q-336 0 -336 378q0 201 64.5 398.5t161.5 287.5q109 102 291 103q166 0 223 -90h24zM1401 1126h764l-41 -227l-8 -53l-576 -588l-4 -31h494l-41 -227h-820l39 227l9 52l579 593l6 27h-440zM762 707 q10 61 10 92q0 109 -117 108q-94 0 -139 -61q-45 -59 -85 -213t-40 -271q0 -80 27.5 -111.5t95.5 -31.5q88 0 134 48t67 159z" glyph-name="uni01F3" horiz-adv-x="2136" unicode="ǳ"/><glyph d="M1303 2011l-334 -407h-221l256 407h299zM709 590l43 252h479l-148 -834l-266 -22v135h-8q-119 -141 -317 -141q-381 0 -381 458q0 279 81.5 534t200.5 349q168 133 467 133q225 0 367 -47l-58 -274q-129 45 -295 45q-170 0 -253 -91q-57 -63 -113.5 -276t-56.5 -371 q0 -102 33.5 -142t119.5 -40q219 0 258 215l21 117h-174z" glyph-name="uni01F4" horiz-adv-x="1296" unicode="Ǵ"/><glyph d="M1147 1704l-334 -408h-221l256 408h299zM1190 1126l-14 -161l-158 -27q27 -45 26 -119q0 -98 -41.5 -196.5t-109.5 -153.5q-104 -90 -344 -90q-92 0 -162 12l-25 -22q-37 -29 -36 -54q0 -43 63 -43h131q248 0 368 -65.5t120 -202.5q0 -203 -140.5 -298t-443.5 -95 q-256 0 -377 56.5t-121 174.5q0 209 209 258l6 25q-88 53 -88 145q0 106 129 193l13 8q-80 72 -80 213q0 121 51 230.5t133 162.5q98 70 319 70q123 0 203 -21h369zM682 631q23 31 40 97.5t17 117.5q0 53 -26.5 74.5t-91.5 21.5q-96 0 -134 -45q-23 -29 -42 -95.5 t-19 -119.5t26.5 -75.5t96.5 -22.5q100 0 133 47zM496 74q-260 0 -260 -178q0 -47 41.5 -65.5t150.5 -18.5q141 0 205.5 41t64.5 133q0 51 -40.5 69.5t-161.5 18.5z" glyph-name="uni01F5" horiz-adv-x="1148" unicode="ǵ"/><glyph d="M1370 2521l-332 -407h-223l256 407h299zM852 1550q-139 0 -195.5 51.5t-56.5 151.5q0 121 51 195q68 96 244 96q139 0 195.5 -51t56.5 -152q0 -121 -53 -196q-66 -95 -242 -95zM780 1872q-25 -33 -24 -100q0 -47 23.5 -69t80.5 -22q74 0 105 41q25 33 24 97 q0 47 -23.5 69.5t-82.5 22.5q-74 0 -103 -39zM1069 1434l123 -1434h-346l-15 338h-421l-134 -338h-354l629 1434h518zM514 602h307l-24 567h-62z" glyph-name="Aringacute" horiz-adv-x="1314" unicode="Ǻ"/><glyph d="M1200 2214l-332 -408h-223l256 408h299zM682 1243q-139 0 -195.5 51.5t-56.5 151.5q0 121 51 194q68 96 244 97q139 0 195.5 -51.5t56.5 -151.5q0 -121 -53 -197q-66 -94 -242 -94zM610 1565q-25 -33 -24 -101q0 -47 23.5 -68.5t80.5 -21.5q74 0 105 41q25 33 24 96 q0 47 -23.5 70t-82.5 23q-74 0 -103 -39zM700 1147q162 0 240 -66.5t78 -203.5q0 -57 -12 -125l-132 -742l-288 -24v129h-11q-90 -135 -278 -135q-291 0 -291 266q0 100 38 188t103 137q96 74 281 74h234l14 88q6 41 6 68q0 49 -24.5 70.5t-84.5 21.5q-92 0 -321 -55 l-25 243q305 66 473 66zM324 266q0 -41 21.5 -59.5t70.5 -18.5q168 0 202 213l15 82h-133q-74 0 -109 -34q-29 -25 -48 -79.5t-19 -103.5z" glyph-name="aringacute" horiz-adv-x="1087" unicode="ǻ"/><glyph d="M1683 2011l-333 -407h-222l256 407h299zM1808 1169h-471l-51 -295h434l-47 -264h-434l-59 -346h493l-47 -264h-835l59 338h-387l-197 -338h-356l878 1434h1065zM897 602l98 567h-51l-328 -567h281z" glyph-name="AEacute" horiz-adv-x="1812" unicode="Ǽ"/><glyph d="M1325 2011l-334 -407h-221l256 407h299zM1204 1356q143 -113 144 -400q0 -244 -85 -492.5t-212 -359.5q-137 -125 -424 -124q-98 0 -187 16l-55 -98h-233l102 182q-141 117 -141 403q0 246 87 493t214 357q139 121 417 121q98 0 185 -16l55 98h234zM459 471v-25l407 725 q-33 4 -55 5q-125 0 -184 -66q-61 -72 -114.5 -278.5t-53.5 -360.5zM838 330q59 74 111 279.5t52 357.5v28l-411 -733q37 -4 59 -4q136 0 189 72z" glyph-name="Oslashacute" horiz-adv-x="1400" unicode="Ǿ"/><glyph d="M1184 1704l-334 -408h-221l256 408h299zM983 1071q137 -98 137 -326q0 -190 -65.5 -375.5t-163.5 -275.5q-127 -115 -373 -114q-72 0 -143 10l-62 -109h-213l99 174q-135 92 -136 316q0 215 72 408.5t184 277.5q121 90 347 90q70 0 141 -10l61 108h213zM514 852 q-39 -51 -76 -191.5t-43 -257.5l283 504h-25q-96 0 -139 -55zM528 219q109 0 152 74q35 57 69.5 191t41.5 243l-287 -508h24z" glyph-name="oslashacute" horiz-adv-x="1179" unicode="ǿ"/><glyph d="M715 1599h-203l-199 416h285zM1139 1599h-203l-197 416h285zM846 0l-15 338h-421l-134 -338h-354l629 1434h518l123 -1434h-346zM514 602h307l-24 567h-62z" glyph-name="uni0200" horiz-adv-x="1314" unicode="Ȁ"/><glyph d="M545 1292h-203l-199 416h285zM969 1292h-203l-197 416h285zM700 1147q162 0 240 -66.5t78 -203.5q0 -57 -12 -125l-132 -742l-288 -24v129h-11q-90 -135 -278 -135q-291 0 -291 266q0 100 38 188t103 137q96 74 281 74h234l14 88q6 41 6 68q0 49 -24.5 70.5t-84.5 21.5 q-92 0 -321 -55l-25 243q305 66 473 66zM324 266q0 -41 21.5 -59.5t70.5 -18.5q168 0 202 213l15 82h-133q-74 0 -109 -34q-29 -25 -48 -79.5t-19 -103.5z" glyph-name="uni0201" horiz-adv-x="1087" unicode="ȁ"/><glyph d="M684 1602l-4 -23h-199l11 49q29 156 111.5 231.5t277.5 75.5q154 0 235.5 -55t81.5 -186q0 -47 -8 -90l-4 -25h-199l6 27q6 43 6 49q0 88 -127 88q-94 0 -135 -33.5t-53 -107.5zM1069 1434l123 -1434h-346l-15 338h-421l-134 -338h-354l629 1434h518zM514 602h307 l-24 567h-62z" glyph-name="uni0202" horiz-adv-x="1314" unicode="Ȃ"/><glyph d="M711 1628q154 0 235.5 -55t81.5 -187q0 -47 -8 -90l-4 -24h-199l6 26q6 43 6 50q0 88 -127 88q-94 0 -135 -34t-53 -108l-4 -22h-199l11 49q29 156 111.5 231.5t277.5 75.5zM700 1147q162 0 240 -66.5t78 -203.5q0 -57 -12 -125l-132 -742l-288 -24v129h-11 q-90 -135 -278 -135q-291 0 -291 266q0 100 38 188t103 137q96 74 281 74h234l14 88q6 41 6 68q0 49 -24.5 70.5t-84.5 21.5q-92 0 -321 -55l-25 243q305 66 473 66zM324 266q0 -41 21.5 -59.5t70.5 -18.5q168 0 202 213l15 82h-133q-74 0 -109 -34q-29 -25 -48 -79.5 t-19 -103.5z" glyph-name="uni0203" horiz-adv-x="1087" unicode="ȃ"/><glyph d="M629 1599h-203l-199 416h285zM1053 1599h-203l-197 416h285zM1085 1169h-471l-51 -295h434l-45 -264h-436l-59 -346h495l-47 -264h-837l251 1434h814z" glyph-name="uni0204" horiz-adv-x="1091" unicode="Ȅ"/><glyph d="M565 1292h-203l-198 416h285zM989 1292h-203l-196 416h284zM649 1147q209 0 308.5 -88t99.5 -275q0 -100 -35 -268l-8 -45h-633q-6 -49 -6 -90q0 -90 35.5 -127t124.5 -37q137 0 360 57l18 -229q-238 -66 -415 -65q-432 0 -432 440q0 184 65.5 360t167.5 262 q123 105 350 105zM418 664h327q14 86 15 143q0 66 -26.5 93.5t-90.5 27.5q-98 0 -147 -68q-39 -57 -78 -196z" glyph-name="uni0205" horiz-adv-x="1105" unicode="ȅ"/><glyph d="M598 1602l-4 -23h-199l11 49q29 156 111.5 231.5t277.5 75.5q154 0 235.5 -55t81.5 -186q0 -47 -8 -90l-4 -25h-199l6 27q6 43 6 49q0 88 -127 88q-94 0 -135 -33.5t-53 -107.5zM1085 1169h-471l-51 -295h434l-45 -264h-436l-59 -346h495l-47 -264h-837l251 1434h814z " glyph-name="uni0206" horiz-adv-x="1091" unicode="Ȇ"/><glyph d="M535 1294l-5 -22h-198l10 49q29 156 112 231.5t277 75.5q154 0 236 -55t82 -187q0 -47 -9 -90l-4 -24h-198l6 26q6 43 6 50q0 88 -127 88q-94 0 -135 -34t-53 -108zM649 1147q209 0 308.5 -88t99.5 -275q0 -100 -35 -268l-8 -45h-633q-6 -49 -6 -90q0 -90 35.5 -127 t124.5 -37q137 0 360 57l18 -229q-238 -66 -415 -65q-432 0 -432 440q0 184 65.5 360t167.5 262q123 105 350 105zM418 664h327q14 86 15 143q0 66 -26.5 93.5t-90.5 27.5q-98 0 -147 -68q-39 -57 -78 -196z" glyph-name="uni0207" horiz-adv-x="1105" unicode="ȇ"/><glyph d="M195 1599l-199 416h285l116 -416h-202zM618 1599l-196 416h285l114 -416h-203zM662 1434l-252 -1434h-342l251 1434h343z" glyph-name="uni0208" horiz-adv-x="671" unicode="Ȉ"/><glyph d="M96 1292l-198 416h284l117 -416h-203zM520 1292l-196 416h284l115 -416h-203zM557 1126l-199 -1126h-327l198 1126h328z" glyph-name="uni0209" horiz-adv-x="585" unicode="ȉ"/><glyph d="M164 1579l10 49q29 156 112 231.5t277 75.5q154 0 236 -55t82 -186q0 -47 -9 -90l-4 -25h-198l6 27q6 43 6 49q0 88 -127 88q-94 0 -135 -34t-53 -107l-5 -23h-198zM662 1434l-252 -1434h-342l251 1434h343z" glyph-name="uni020A" horiz-adv-x="671" unicode="Ȋ"/><glyph d="M66 1272l10 49q29 156 111.5 231.5t277.5 75.5q154 0 235.5 -55t81.5 -187q0 -47 -8 -90l-4 -24h-199l7 26q6 43 6 50q0 88 -127 88q-94 0 -135 -34t-54 -108l-4 -22h-198zM557 1126l-199 -1126h-327l198 1126h328z" glyph-name="uni020B" horiz-adv-x="585" unicode="ȋ"/><glyph d="M557 1599l-199 416h285l117 -416h-203zM981 1599l-197 416h285l115 -416h-203zM627 -20q-270 0 -392 117.5t-122 385.5q0 246 87 493t214 357q139 121 417 121q272 0 394.5 -116.5t122.5 -381.5q0 -244 -85 -492.5t-212 -359.5q-137 -124 -424 -124zM649 258 q135 0 189 72q59 74 111 279.5t52 357.5q0 117 -43 163t-147 46q-125 0 -184 -66q-61 -72 -114.5 -278.5t-53.5 -360.5q0 -119 43 -166t147 -47z" glyph-name="uni020C" horiz-adv-x="1400" unicode="Ȍ"/><glyph d="M395 1292l-198 416h284l117 -416h-203zM819 1292l-196 416h284l115 -416h-203zM518 -20q-236 0 -345.5 95t-109.5 296q0 215 72 408.5t184 277.5q121 90 347 90q233 0 343.5 -97.5t110.5 -304.5q0 -190 -65.5 -375.5t-163.5 -275.5q-127 -114 -373 -114zM528 219 q109 0 152 74q39 61 75 207.5t36 255.5q0 86 -31 118.5t-107 32.5q-96 0 -139 -55q-43 -57 -82 -214t-39 -271q0 -82 29.5 -115t105.5 -33z" glyph-name="uni020D" horiz-adv-x="1179" unicode="ȍ"/><glyph d="M526 1579l11 49q29 156 111.5 231.5t277.5 75.5q154 0 235.5 -55t81.5 -186q0 -47 -8 -90l-4 -25h-199l6 27q6 43 6 49q0 88 -126 88q-94 0 -135.5 -34t-53.5 -107l-4 -23h-199zM627 -20q-270 0 -392 117.5t-122 385.5q0 246 87 493t214 357q139 121 417 121 q272 0 394.5 -116.5t122.5 -381.5q0 -244 -85 -492.5t-212 -359.5q-137 -124 -424 -124zM649 258q135 0 189 72q59 74 111 279.5t52 357.5q0 117 -43 163t-147 46q-125 0 -184 -66q-61 -72 -114.5 -278.5t-53.5 -360.5q0 -119 43 -166t147 -47z" glyph-name="uni020E" horiz-adv-x="1400" unicode="Ȏ"/><glyph d="M365 1272l10 49q29 156 111.5 231.5t277.5 75.5q154 0 235.5 -55t81.5 -187q0 -47 -8 -90l-4 -24h-199l7 26q6 43 6 50q0 88 -127 88q-94 0 -135 -34t-54 -108l-4 -22h-198zM518 -20q-236 0 -345.5 95t-109.5 296q0 215 72 408.5t184 277.5q121 90 347 90 q233 0 343.5 -97.5t110.5 -304.5q0 -190 -65.5 -375.5t-163.5 -275.5q-127 -114 -373 -114zM528 219q109 0 152 74q39 61 75 207.5t36 255.5q0 86 -31 118.5t-107 32.5q-96 0 -139 -55q-43 -57 -82 -214t-39 -271q0 -82 29.5 -115t105.5 -33z" glyph-name="uni020F" horiz-adv-x="1179" unicode="ȏ"/><glyph d="M702 1599h-202l-199 416h285zM1126 1599h-202l-197 416h285zM1042 670q-53 -43 -100 -64l221 -606h-360l-160 545h-22h-115l-96 -545h-342l251 1434h435q256 0 364.5 -82t108.5 -254q0 -125 -50.5 -242.5t-134.5 -185.5zM618 1194l-73 -428h67q139 0 193 55 q39 39 61.5 111t22.5 131q0 74 -38 102.5t-118 28.5h-115z" glyph-name="uni0210" horiz-adv-x="1286" unicode="Ȑ"/><glyph d="M420 1292h-203l-199 416h285zM844 1292h-203l-197 416h285zM842 1147q31 0 53 -6l-59 -279q-37 18 -117 19q-106 0 -164.5 -58.5t-85.5 -206.5l-109 -616h-325l194 1116l293 25l-2 -152h15q92 158 307 158z" glyph-name="uni0211" horiz-adv-x="808" unicode="ȑ"/><glyph d="M672 1602l-4 -23h-199l10 49q29 156 112 231.5t277 75.5q154 0 236 -55t82 -186q0 -47 -8 -90l-4 -25h-199l6 27q6 43 6 49q0 88 -127 88q-94 0 -135 -33.5t-53 -107.5zM1042 670q-53 -43 -100 -64l221 -606h-360l-160 545h-22h-115l-96 -545h-342l251 1434h435 q256 0 364.5 -82t108.5 -254q0 -125 -50.5 -242.5t-134.5 -185.5zM618 1194l-73 -428h67q139 0 193 55q39 39 61.5 111t22.5 131q0 74 -38 102.5t-118 28.5h-115z" glyph-name="uni0212" horiz-adv-x="1286" unicode="Ȓ"/><glyph d="M586 1628q154 0 235.5 -55t81.5 -187q0 -47 -8 -90l-4 -24h-199l6 26q6 43 7 50q0 88 -127 88q-94 0 -135.5 -34t-53.5 -108l-4 -22h-199l11 49q29 156 111.5 231.5t277.5 75.5zM535 989q92 158 307 158q31 0 53 -6l-59 -279q-37 18 -117 19q-106 0 -164.5 -58.5 t-85.5 -206.5l-109 -616h-325l194 1116l293 25l-2 -152h15z" glyph-name="uni0213" horiz-adv-x="808" unicode="ȓ"/><glyph d="M532 1599l-198 416h284l117 -416h-203zM956 1599l-196 416h284l115 -416h-203zM608 -20q-266 0 -376.5 89t-110.5 275q0 96 22 227l152 863h342l-164 -932q-12 -90 -12 -115q0 -74 37 -101.5t116 -27.5q117 0 168.5 55.5t77.5 212.5l160 908h342l-162 -920 q-53 -309 -191.5 -421.5t-400.5 -112.5z" glyph-name="uni0214" horiz-adv-x="1349" unicode="Ȕ"/><glyph d="M606 1292h-203l-198 416h284zM1030 1292h-203l-196 416h284zM848 1126h326l-197 -1116l-289 -24v129h-12q-90 -135 -303 -135q-160 0 -228.5 62t-68.5 198q0 76 18 176l127 710h326l-127 -716q-8 -47 -8 -86q0 -57 25.5 -81t84.5 -24q168 0 203 199z" glyph-name="uni0215" horiz-adv-x="1206" unicode="ȕ"/><glyph d="M502 1579l10 49q29 156 112 231.5t277 75.5q154 0 236 -55t82 -186q0 -47 -9 -90l-4 -25h-198l6 27q6 43 6 49q0 88 -127 88q-94 0 -135 -34t-53 -107l-5 -23h-198zM608 -20q-266 0 -376.5 89t-110.5 275q0 96 22 227l152 863h342l-164 -932q-12 -90 -12 -115 q0 -74 37 -101.5t116 -27.5q117 0 168.5 55.5t77.5 212.5l160 908h342l-162 -920q-53 -309 -191.5 -421.5t-400.5 -112.5z" glyph-name="uni0216" horiz-adv-x="1349" unicode="Ȗ"/><glyph d="M575 1294l-4 -22h-198l10 49q29 156 112 231.5t277 75.5q154 0 236 -55t82 -187q0 -47 -9 -90l-4 -24h-198l6 26q6 43 6 50q0 88 -127 88q-94 0 -135.5 -34t-53.5 -108zM848 1126h326l-197 -1116l-289 -24v129h-12q-90 -135 -303 -135q-160 0 -228.5 62t-68.5 198 q0 76 18 176l127 710h326l-127 -716q-8 -47 -8 -86q0 -57 25.5 -81t84.5 -24q168 0 203 199z" glyph-name="uni0217" horiz-adv-x="1206" unicode="ȗ"/><glyph d="M760 1186q-250 0 -250 -172q0 -51 31 -80l221 -207q135 -135 135 -309q0 -209 -143.5 -323.5t-405.5 -114.5q-147 0 -375 40l52 265q188 -35 311 -35q104 0 159.5 49t55.5 139q0 59 -41 99l-227 213q-117 117 -117 286q0 205 138 311.5t411 106.5q131 0 323 -33l-51 -258 q-127 23 -227 23zM170 -397l45 258h281l-45 -258l-154 -310h-156l156 310h-127z" glyph-name="Scommaaccent" horiz-adv-x="993" unicode="Ș"/><glyph d="M498 879q-39 -37 -39 -99q0 -33 33 -59l163 -131q121 -98 121 -234q0 -178 -112 -278q-104 -98 -349 -98q-129 0 -335 32l43 232q137 -25 233 -25q102 0 137 33q37 37 37 100q0 47 -41 78l-186 148q-86 63 -86 198q0 84 31.5 166t95.5 133q96 72 293 72q125 0 333 -35 l-45 -231q-152 27 -221 26q-73 1 -106 -28zM133 -397l45 258h281l-45 -258l-154 -310h-156l156 310h-127z" glyph-name="scommaaccent" horiz-adv-x="870" unicode="ș"/><glyph d="M1122 1434l-47 -265h-301l-205 -1169h-342l205 1169h-301l45 265h946zM186 -397l45 258h281l-45 -258l-154 -310h-155l155 310h-127z" glyph-name="uni021A" horiz-adv-x="991" unicode="Ț"/><glyph d="M565 911l-98 -567q-10 -51 -10 -78q0 -47 53 -47q37 0 82 12l-4 -237q-72 -14 -187 -14q-147 0 -211.5 53t-64.5 166q0 53 12 120l105 592h-162l39 215h162l47 273h323l-47 -273h195l-37 -215h-197zM84 -397l45 258h281l-45 -258l-154 -310h-156l156 310h-127z" glyph-name="uni021B" horiz-adv-x="763" unicode="ț"/><glyph d="M745 1595l-192 408h219l150 -240l233 240h231l-337 -408h-304zM1073 1434h342l-252 -1434h-342l107 610h-412l-106 -610h-342l251 1434h343l-99 -560h412z" glyph-name="uni021E" horiz-adv-x="1427" unicode="Ȟ"/><glyph d="M467 1647l-193 407h220l149 -239l234 239h231l-338 -407h-303zM846 1147q160 0 230.5 -61.5t70.5 -200.5q0 -70 -19 -174l-124 -711h-326l127 717q8 47 8 86q0 57 -26.5 80.5t-88.5 23.5q-94 0 -144 -50t-71 -159l-123 -698h-325l270 1536h326l-86 -496h10 q88 107 291 107z" glyph-name="uni021F" horiz-adv-x="1220" unicode="ȟ"/><glyph d="M1157 1866l-39 -219h-620l41 219h618zM1386 1434l-616 -940l-86 -494h-342l94 532l-270 902h350l133 -605h29l346 605h362z" glyph-name="uni0232" horiz-adv-x="1234" unicode="Ȳ"/><glyph d="M1024 1559l-39 -220h-620l41 220h618zM819 1126h346l-506 -1175q-82 -190 -200.5 -265t-294.5 -75q-84 0 -213 27l41 219q92 -14 168 -15q98 0 156.5 40t99.5 149l6 14h-227l-80 1081h338l8 -852h45z" glyph-name="uni0233" horiz-adv-x="1071" unicode="ȳ"/><glyph d="M-53 -389q-119 0 -213 22l41 217q39 -6 96 -6q70 0 99.5 39t47.5 152l195 1091h326l-207 -1165q-37 -209 -122 -279.5t-263 -70.5z" glyph-name="uni0237" horiz-adv-x="575" unicode="ȷ"/><glyph d="M991 1288h-219l-149 240l-234 -240h-231l336 408h303z" glyph-name="circumflex" horiz-adv-x="894" unicode="ˆ"/><glyph d="M840 1696h231l-338 -408h-303l-192 408h219l149 -240z" glyph-name="caron" horiz-adv-x="897" unicode="ˇ"/><glyph d="M582 1272q-319 0 -320 237q0 39 10 95l4 24h199l-8 -41q-4 -25 -4 -35q0 -88 133 -88q84 0 125 33t59 117l2 14h199l-8 -49q-31 -176 -128 -241.5t-263 -65.5z" glyph-name="breve" horiz-adv-x="878" unicode="˘"/><glyph d="M313 1587h281l-45 -260h-283z" glyph-name="dotaccent" horiz-adv-x="544" unicode="˙"/><glyph d="M512 1243q-139 0 -196.5 50t-57.5 151q0 123 55 196q70 96 242 97q139 0 194.5 -51.5t55.5 -151.5q0 -121 -53 -197q-66 -94 -240 -94zM520 1374q78 0 103 41q27 37 26 101q0 45 -23.5 66.5t-82.5 21.5q-74 0 -103 -39q-27 -37 -26 -99q0 -47 24.5 -69.5t81.5 -22.5z" glyph-name="ring" horiz-adv-x="731" unicode="˚"/><glyph d="M338 -469q-35 -4 -82 -4q-143 0 -229 54t-86 169q0 94 45 159.5t133 131.5l186 -41q-139 -94 -139 -205q0 -92 151 -92z" glyph-name="ogonek" horiz-adv-x="559" unicode="˛"/><glyph d="M727 1282q-78 0 -133 49l-76 64q-27 20 -53 20q-63 0 -94 -108h-150q25 137 102.5 222t178.5 85q70 0 135 -49l76 -64q27 -20 51 -20q57 0 94 106h148q-27 -143 -103 -224t-176 -81z" glyph-name="tilde" horiz-adv-x="909" unicode="˜"/><glyph d="M178 1292l262 416h299l-346 -416h-215zM604 1292l262 416h297l-344 -416h-215z" glyph-name="hungarumlaut" horiz-adv-x="997" unicode="˝"/><glyph d="M-133 1296l-189 408h285l113 -408h-209z" glyph-name="gravecomb" unicode="̀"/><glyph d="M-391 1296l256 408h299l-334 -408h-221z" glyph-name="acutecomb" unicode="́"/><glyph d="M94 1288h-219l-149 240l-234 -240h-231l336 408h303z" glyph-name="uni0302" unicode="̂"/><glyph d="M-186 1282q-78 0 -133 49l-76 64q-27 20 -54 20q-63 0 -94 -108h-149q25 137 102.5 222t177.5 85q70 0 136 -49l75 -64q25 -20 51 -20q57 0 95 106h147q-27 -143 -102.5 -224t-175.5 -81z" glyph-name="tildecomb" unicode="̃"/><glyph d="M-575 1559h618l-39 -220h-620z" glyph-name="uni0304" unicode="̄"/><glyph d="M-299 1272q-319 0 -319 237q0 39 10 95l4 24h198l-8 -41q-4 -25 -4 -35q0 -88 133 -88q84 0 125 33t60 117l2 14h198l-8 -49q-31 -176 -128 -241.5t-263 -65.5z" glyph-name="uni0306" unicode="̆"/><glyph d="M-233 1587h280l-45 -260h-283z" glyph-name="uni0307" unicode="̇"/><glyph d="M-696 1587h280l-47 -260h-280zM-231 1587h280l-47 -260h-278z" glyph-name="uni0308" unicode="̈"/><glyph d="M-270 1284q14 86 30.5 123t51.5 59l47 29q35 27 39 31q10 10 10 28q0 14 -10.5 19.5t-44.5 5.5q-41 0 -111 -6l-8 143q94 12 168 13q113 0 160 -33t47 -101q0 -61 -19 -96q-16 -37 -57 -65l-86 -62q-57 -39 -68 -88h-149z" glyph-name="hookabovecomb" unicode="̉"/><glyph d="M-221 1243q-139 0 -196.5 50t-57.5 151q0 123 55 196q70 96 242 97q139 0 194.5 -51.5t55.5 -151.5q0 -121 -54 -197q-65 -94 -239 -94zM-213 1374q78 0 102 41q27 37 27 101q0 45 -23.5 66.5t-82.5 21.5q-74 0 -103 -39q-27 -37 -26 -99q0 -47 24.5 -69.5t81.5 -22.5z " glyph-name="uni030A" unicode="̊"/><glyph d="M-821 1292l262 416h299l-346 -416h-215zM-395 1292l262 416h297l-344 -416h-215z" glyph-name="uni030B" unicode="̋"/><glyph d="M-59 1696h231l-338 -408h-303l-193 408h220l149 -240z" glyph-name="uni030C" unicode="̌"/><glyph d="M-541 1292l-198 416h284l117 -416h-203zM-117 1292l-196 416h284l115 -416h-203z" glyph-name="uni030F" unicode="̏"/><glyph d="M-666 1272l11 49q29 156 111.5 231.5t277.5 75.5q154 0 235.5 -55t81.5 -187q0 -47 -8 -90l-4 -24h-199l6 26q6 43 7 50q0 88 -127 88q-94 0 -135.5 -34t-53.5 -108l-4 -22h-199z" glyph-name="uni0311" unicode="̑"/><glyph d="M70 1892l-154 -307h123l-45 -258h-281l45 258l156 307h156z" glyph-name="uni0312" unicode="̒"/><glyph d="M-332 1165l10 170q172 0 199 150l35 194h197l-37 -219q-31 -176 -122.5 -235.5t-281.5 -59.5z" glyph-name="uni031B" unicode="̛"/><glyph d="M-537 -139h283l-45 -260h-283z" glyph-name="dotbelowcomb" unicode="̣"/><glyph d="M-547 -139h281l-45 -258l-154 -310h-156l156 310h-127z" glyph-name="uni0326" unicode="̦"/><glyph d="M-387 -100q176 -16 176 -160q0 -117 -68 -178q-72 -63 -196 -64q-94 0 -203 39l16 119q41 -20 103 -21q63 0 96 27q31 25 31 76q0 39 -66 39h-102l111 295h184z" glyph-name="uni0327" unicode="̧"/><glyph d="M-223 -469q-35 -4 -82 -4q-143 0 -229.5 54t-86.5 169q0 94 45.5 159.5t133.5 131.5l186 -41q-139 -94 -139 -205q0 -92 151 -92z" glyph-name="uni0328" unicode="̨"/><glyph d="M-852 690h750l-41 -231h-752z" glyph-name="uni0335" unicode="̵"/><glyph d="M-1067 756h969l-43 -242h-971z" glyph-name="uni0336" unicode="̶"/><glyph d="M-819 -102l715 1331h243l-714 -1331h-244z" glyph-name="uni0337" unicode="̷"/><glyph d="M-930 -102l879 1638h246l-881 -1638h-244z" glyph-name="uni0338" unicode="̸"/><glyph d="M1022 1894l-45 -260h-283l47 260h281zM1012 735q158 -63 157 -250q0 -109 -37.5 -211t-101.5 -159q-123 -115 -450 -115h-512l251 1434h480q453 0 452 -289q0 -207 -125 -322q-47 -43 -112 -67zM641 840q143 0 201 57q29 29 48 86t19 111q0 59 -37.5 81.5t-140.5 22.5 h-110l-64 -358h84zM766 311q66 66 65 195q0 72 -41.5 98.5t-152.5 26.5h-117l-67 -385h98q152 -1 215 65z" glyph-name="uni1E02" horiz-adv-x="1292" unicode="Ḃ"/><glyph d="M1042 1587l-45 -260h-282l47 260h280zM784 1147q180 0 264.5 -97.5t84.5 -301.5q0 -184 -57.5 -372t-143.5 -280q-111 -117 -303 -116q-195 0 -242 135h-22l-46 -129l-282 24l268 1526h326l-84 -479h2q77 90 235 90zM680 274q45 57 86 220t41 278q0 76 -26.5 105.5 t-92.5 29.5q-88 0 -135 -48t-66 -152l-51 -287q-8 -47 -8 -92q0 -59 25.5 -84t87.5 -25q96 0 139 55z" glyph-name="uni1E03" horiz-adv-x="1193" unicode="ḃ"/><glyph d="M934 1894l-45 -260h-283l47 260h281zM1057 1169h-443l-57 -335h404l-46 -265h-405l-100 -569h-342l251 1434h785z" glyph-name="uni1E1E" horiz-adv-x="1021" unicode="Ḟ"/><glyph d="M862 1894l-45 -260h-282l47 260h280zM795 1317q-82 0 -121 -40t-62 -151h215l-36 -215h-216l-161 -911h-326l162 911h-176l39 215h176l6 39q37 217 134 300t292 83q129 0 215 -22l-41 -217q-39 8 -100 8z" glyph-name="uni1E1F" horiz-adv-x="749" unicode="ḟ"/><glyph d="M1227 1894l-45 -260h-283l47 260h281zM1694 1434l-252 -1434h-318l185 1053h-9l-325 -719l-14 8l-3 -8h-286l2 10l-21 -10l-71 719h-13l-184 -1053h-317l251 1434h459l86 -779h6l359 779h465z" glyph-name="uni1E40" horiz-adv-x="1703" unicode="Ṁ"/><glyph d="M1223 1587l-45 -260h-283l47 260h281zM1434 1147q154 0 223 -62.5t69 -197.5q0 -72 -18 -176l-127 -711h-326l127 717q12 74 13 96q0 51 -23.5 72.5t-77.5 21.5q-86 0 -133 -49t-65 -153l-125 -705h-326l127 717q10 68 10 96q0 51 -23.5 72.5t-78.5 21.5q-84 0 -131 -49 t-68 -160l-121 -698h-325l194 1116l291 25l-2 -131h10q90 137 299 137q227 0 275 -146h16q95 146 316 146z" glyph-name="uni1E41" horiz-adv-x="1800" unicode="ṁ"/><glyph d="M985 1894l-45 -260h-283l48 260h280zM756 1434q254 0 367.5 -82t113.5 -267q0 -145 -59.5 -286.5t-151.5 -212.5q-129 -102 -418 -103h-114l-84 -483h-342l251 1434h437zM797 784q41 39 70.5 122t29.5 157q0 72 -41 101.5t-145 29.5h-93l-81 -471h71q128 0 189 61z" glyph-name="uni1E56" horiz-adv-x="1218" unicode="Ṗ"/><glyph d="M920 1587l-46 -260h-282l47 260h281zM797 1147q180 0 260 -95.5t80 -275.5q0 -166 -52.5 -362.5t-146.5 -302.5q-115 -131 -322 -131q-158 0 -217 83h-28l-76 -432h-326l260 1485l291 25l-2 -121h17q80 127 262 127zM698 303q41 72 74 226.5t33 246.5q0 74 -27.5 102.5 t-91.5 28.5q-86 0 -136 -53t-71 -176l-45 -254q-8 -61 -8 -84q0 -68 29.5 -94.5t87.5 -26.5q110 0 155 84z" glyph-name="uni1E57" horiz-adv-x="1193" unicode="ṗ"/><glyph d="M582 1894h280l-45 -260h-282zM348 -20q-147 0 -375 40l52 265q188 -35 311 -35q104 0 159.5 49t55.5 139q0 59 -41 99l-227 213q-117 117 -117 286q0 205 138 311.5t411 106.5q131 0 323 -33l-51 -258q-127 23 -227 23q-250 0 -250 -172q0 -51 31 -80l221 -207 q135 -135 135 -309q0 -209 -143.5 -323.5t-405.5 -114.5z" glyph-name="uni1E60" horiz-adv-x="993" unicode="Ṡ"/><glyph d="M481 1587h281l-45 -260h-283zM315 -20q-129 0 -335 32l43 232q137 -25 233 -25q102 0 137 33q37 37 37 100q0 47 -41 78l-186 148q-86 63 -86 198q0 84 31.5 166t95.5 133q96 72 293 72q125 0 333 -35l-45 -231q-152 27 -221 26q-74 0 -106 -28q-39 -37 -39 -99 q0 -33 33 -59l163 -131q121 -98 121 -234q0 -178 -112 -278q-105 -98 -349 -98z" glyph-name="uni1E61" horiz-adv-x="870" unicode="ṡ"/><glyph d="M870 1894l-45 -260h-282l47 260h280zM1122 1434l-47 -265h-301l-205 -1169h-342l205 1169h-301l45 265h946z" glyph-name="uni1E6A" horiz-adv-x="991" unicode="Ṫ"/><glyph d="M690 1747l-45 -260h-283l48 260h280zM565 911l-98 -567q-10 -51 -10 -78q0 -47 53 -47q37 0 82 12l-4 -237q-72 -14 -187 -14q-147 0 -211.5 53t-64.5 166q0 53 12 120l105 592h-162l39 215h162l47 273h323l-47 -273h195l-37 -215h-197z" glyph-name="uni1E6B" horiz-adv-x="763" unicode="ṫ"/><glyph d="M1219 1604h-209l-189 407h285zM1642 1434h353l-486 -1434h-479l39 1169h-39l-373 -1169h-483l25 1434h348l-68 -1170h39l363 1170h428l-52 -1170h43z" glyph-name="Wgrave" horiz-adv-x="1880" unicode="Ẁ"/><glyph d="M1133 1296h-209l-189 408h285zM1552 1126h346l-432 -1126h-473l-10 897h-33l-325 -897h-471l-35 1126h338l-29 -897h39l317 897h441v-897h41z" glyph-name="wgrave" horiz-adv-x="1810" unicode="ẁ"/><glyph d="M1569 2011l-334 -407h-221l256 407h299zM1642 1434h353l-486 -1434h-479l39 1169h-39l-373 -1169h-483l25 1434h348l-68 -1170h39l363 1170h428l-52 -1170h43z" glyph-name="Wacute" horiz-adv-x="1880" unicode="Ẃ"/><glyph d="M1483 1704l-334 -408h-221l256 408h299zM1552 1126h346l-432 -1126h-473l-10 897h-33l-325 -897h-471l-35 1126h338l-29 -897h39l317 897h441v-897h41z" glyph-name="wacute" horiz-adv-x="1810" unicode="ẃ"/><glyph d="M1083 1894l-47 -260h-280l47 260h280zM1548 1894l-47 -260h-278l45 260h280zM1642 1434h353l-486 -1434h-479l39 1169h-39l-373 -1169h-483l25 1434h348l-68 -1170h39l363 1170h428l-52 -1170h43z" glyph-name="Wdieresis" horiz-adv-x="1880" unicode="Ẅ"/><glyph d="M997 1587l-47 -260h-280l47 260h280zM1462 1587l-47 -260h-278l45 260h280zM1552 1126h346l-432 -1126h-473l-10 897h-33l-325 -897h-471l-35 1126h338l-29 -897h39l317 897h441v-897h41z" glyph-name="wdieresis" horiz-adv-x="1810" unicode="ẅ"/><glyph d="M1186 731q74 -74 109.5 -134t35.5 -144q0 -236 -141 -354.5t-383 -118.5q-117 0 -252 24l53 264q94 -18 160 -18q104 0 165.5 48t61.5 138q0 66 -49 101l-209 145l27 178l262 299q-53 25 -162 25q-106 0 -163.5 -41t-73.5 -129l-178 -1014h-343l189 1071q39 213 172 298 t422 85q272 0 461 -92l-31 -242l-219 -268l-8 -39z" glyph-name="uni1E9E" horiz-adv-x="1423" unicode="ẞ"/><glyph d="M1192 0h-346l-15 338h-421l-134 -338h-354l629 1434h518zM514 602h307l-24 567h-62zM346 -399l45 260h283l-45 -260h-283z" glyph-name="uni1EA0" horiz-adv-x="1314" unicode="Ạ"/><glyph d="M700 1147q162 0 240 -66.5t78 -203.5q0 -57 -12 -125l-132 -742l-288 -24v129h-11q-90 -135 -278 -135q-291 0 -291 266q0 100 38 188t103 137q96 74 281 74h234l14 88q6 41 6 68q0 49 -24.5 70.5t-84.5 21.5q-92 0 -321 -55l-25 243q305 66 473 66zM324 266 q0 -41 21.5 -59.5t70.5 -18.5q168 0 202 213l15 82h-133q-74 0 -109 -34q-29 -25 -48 -79.5t-19 -103.5zM231 -399l45 260h283l-45 -260h-283z" glyph-name="uni1EA1" horiz-adv-x="1087" unicode="ạ"/><glyph d="M891 1817q35 27 39 30q10 10 10 29q0 14 -10 19.5t-45 5.5q-41 0 -111 -7l-8 144q94 12 168 12q113 0 160 -32.5t47 -100.5q0 -61 -19 -96q-16 -37 -57 -66l-86 -61q-57 -39 -68 -88h-149q14 86 30.5 122.5t51.5 59.5zM846 0l-15 338h-421l-134 -338h-354l629 1434h518 l123 -1434h-346zM514 602h307l-24 567h-62z" glyph-name="uni1EA2" horiz-adv-x="1314" unicode="Ả"/><glyph d="M721 1509q37 27 39 31q10 10 10 29q0 14 -10 19t-45 5q-39 0 -111 -6l-8 144q94 12 168 12q113 0 160 -33t47 -100q0 -61 -19 -97q-16 -37 -57 -65l-86 -62q-57 -39 -68 -88h-149q14 86 30.5 123t51.5 60zM700 1147q162 0 240 -66.5t78 -203.5q0 -57 -12 -125l-132 -742 l-288 -24v129h-11q-90 -135 -278 -135q-291 0 -291 266q0 100 38 188t103 137q96 74 281 74h234l14 88q6 41 6 68q0 49 -24.5 70.5t-84.5 21.5q-92 0 -321 -55l-25 243q305 66 473 66zM324 266q0 -41 21.5 -59.5t70.5 -18.5q168 0 202 213l15 82h-133q-74 0 -109 -34 q-29 -25 -48 -79.5t-19 -103.5z" glyph-name="uni1EA3" horiz-adv-x="1087" unicode="ả"/><glyph d="M1462 2251h299l-331 -408h-224zM1057 2003l194 -408h-219l-149 240l-234 -240h-231l336 408h303zM1069 1434l123 -1434h-346l-15 338h-421l-134 -338h-354l629 1434h518zM514 602h307l-24 567h-62z" glyph-name="uni1EA4" horiz-adv-x="1314" unicode="Ấ"/><glyph d="M1292 1944h299l-331 -408h-224zM887 1696l194 -408h-219l-149 240l-234 -240h-231l336 408h303zM700 1147q162 0 240 -66.5t78 -203.5q0 -57 -12 -125l-132 -742l-288 -24v129h-11q-90 -135 -278 -135q-291 0 -291 266q0 100 38 188t103 137q96 74 281 74h234l14 88 q6 41 6 68q0 49 -24.5 70.5t-84.5 21.5q-92 0 -321 -55l-25 243q305 66 473 66zM324 266q0 -41 21.5 -59.5t70.5 -18.5q168 0 202 213l15 82h-133q-74 0 -109 -34q-29 -25 -48 -79.5t-19 -103.5z" glyph-name="uni1EA5" horiz-adv-x="1087" unicode="ấ"/><glyph d="M1368 2251l111 -408h-207l-189 408h285zM1057 2003l194 -408h-219l-149 240l-234 -240h-231l336 408h303zM1069 1434l123 -1434h-346l-15 338h-421l-134 -338h-354l629 1434h518zM514 602h307l-24 567h-62z" glyph-name="uni1EA6" horiz-adv-x="1314" unicode="Ầ"/><glyph d="M1198 1944l111 -408h-207l-189 408h285zM887 1696l194 -408h-219l-149 240l-234 -240h-231l336 408h303zM700 1147q162 0 240 -66.5t78 -203.5q0 -57 -12 -125l-132 -742l-288 -24v129h-11q-90 -135 -278 -135q-291 0 -291 266q0 100 38 188t103 137q96 74 281 74h234 l14 88q6 41 6 68q0 49 -24.5 70.5t-84.5 21.5q-92 0 -321 -55l-25 243q305 66 473 66zM324 266q0 -41 21.5 -59.5t70.5 -18.5q168 0 202 213l15 82h-133q-74 0 -109 -34q-29 -25 -48 -79.5t-19 -103.5z" glyph-name="uni1EA7" horiz-adv-x="1087" unicode="ầ"/><glyph d="M1386 2288q113 0 159 -33t46 -98q0 -55 -16 -95q-12 -37 -59 -69l-86 -60q-53 -41 -68 -90h-150q14 86 32 123t52 59l37 25q41 23 49 37q8 8 9 27q0 16 -11.5 21t-44.5 5q-41 0 -110 -6l-8 141q93 13 169 13zM1057 2003l194 -408h-221l-149 240l-234 -240h-231l336 408 h305zM1069 1434l123 -1434h-346l-15 338h-421l-134 -338h-354l629 1434h518zM514 602h307l-24 567h-62z" glyph-name="uni1EA8" horiz-adv-x="1314" unicode="Ẩ"/><glyph d="M1217 1980q113 0 158.5 -32.5t45.5 -98.5q0 -55 -16 -94q-12 -37 -59 -69l-86 -60q-53 -41 -68 -90h-150q14 86 32 123t52 59l37 25q41 23 49 37q8 8 9 26q0 16 -11.5 21.5t-44.5 5.5q-39 0 -110 -6l-8 141q94 12 170 12zM887 1696l194 -408h-221l-149 240l-234 -240 h-231l336 408h305zM700 1147q162 0 240 -66.5t78 -203.5q0 -57 -12 -125l-132 -742l-288 -24v129h-11q-90 -135 -278 -135q-291 0 -291 266q0 100 38 188t103 137q96 74 281 74h234l14 88q6 41 6 68q0 49 -24.5 70.5t-84.5 21.5q-92 0 -321 -55l-25 243q305 66 473 66z M324 266q0 -41 21.5 -59.5t70.5 -18.5q168 0 202 213l15 82h-133q-74 0 -109 -34q-29 -25 -48 -79.5t-19 -103.5z" glyph-name="uni1EA9" horiz-adv-x="1087" unicode="ẩ"/><glyph d="M801 2202q-63 0 -96 -107h-148q25 135 102.5 221t178.5 86q68 0 133 -51l78 -61q29 -23 51 -23q57 0 92 109h147q-25 -143 -100.5 -224t-177.5 -81q-74 0 -131 47l-78 65q-20 19 -51 19zM1057 2003l194 -408h-221l-149 240l-234 -240h-231l336 408h305zM1069 1434 l123 -1434h-346l-15 338h-421l-134 -338h-354l629 1434h518zM514 602h307l-24 567h-62z" glyph-name="uni1EAA" horiz-adv-x="1314" unicode="Ẫ"/><glyph d="M631 1894q-63 0 -96 -106h-148q25 135 102.5 221t178.5 86q68 0 133 -51l78 -62q29 -23 51 -22q57 0 92 108h147q-25 -143 -100.5 -224t-177.5 -81q-74 0 -131 47l-78 66q-20 18 -51 18zM887 1696l194 -408h-221l-149 240l-234 -240h-231l336 408h305zM700 1147 q162 0 240 -66.5t78 -203.5q0 -57 -12 -125l-132 -742l-288 -24v129h-11q-90 -135 -278 -135q-291 0 -291 266q0 100 38 188t103 137q96 74 281 74h234l14 88q6 41 6 68q0 49 -24.5 70.5t-84.5 21.5q-92 0 -321 -55l-25 243q305 66 473 66zM324 266q0 -41 21.5 -59.5 t70.5 -18.5q168 0 202 213l15 82h-133q-74 0 -109 -34q-29 -25 -48 -79.5t-19 -103.5z" glyph-name="uni1EAB" horiz-adv-x="1087" unicode="ẫ"/><glyph d="M883 1835l-234 -240h-231l336 408h303l194 -408h-219zM1069 1434l123 -1434h-346l-15 338h-421l-134 -338h-354l629 1434h518zM514 602h307l-24 567h-62zM346 -399l45 260h283l-45 -260h-283z" glyph-name="uni1EAC" horiz-adv-x="1314" unicode="Ậ"/><glyph d="M713 1528l-234 -240h-231l336 408h303l194 -408h-219zM700 1147q162 0 240 -66.5t78 -203.5q0 -57 -12 -125l-132 -742l-288 -24v129h-11q-90 -135 -278 -135q-291 0 -291 266q0 100 38 188t103 137q96 74 281 74h234l14 88q6 41 6 68q0 49 -24.5 70.5t-84.5 21.5 q-92 0 -321 -55l-25 243q305 66 473 66zM324 266q0 -41 21.5 -59.5t70.5 -18.5q168 0 202 213l15 82h-133q-74 0 -109 -34q-29 -25 -48 -79.5t-19 -103.5zM231 -399l45 260h283l-45 -260h-283z" glyph-name="uni1EAD" horiz-adv-x="1087" unicode="ậ"/><glyph d="M1337 2359l-333 -407h-222l256 407h299zM1049 1921l2 14h198l-8 -49q-31 -176 -128 -241.5t-263 -65.5q-319 0 -320 238q0 39 11 94l4 24h198l-8 -41q-2 -14 -2 -36q0 -47 31 -66.5t96 -19.5q84 0 127.5 32.5t61.5 116.5zM1069 1434l123 -1434h-346l-15 338h-421 l-134 -338h-354l629 1434h518zM514 602h307l-24 567h-62z" glyph-name="uni1EAE" horiz-adv-x="1314" unicode="Ắ"/><glyph d="M1167 2052l-333 -407h-222l256 407h299zM879 1614l2 14h198l-8 -49q-31 -176 -128 -241.5t-263 -65.5q-319 0 -320 237q0 39 11 95l4 24h198l-8 -41q-2 -14 -2 -37q0 -47 31 -66.5t96 -19.5q84 0 127.5 33t61.5 117zM700 1147q162 0 240 -66.5t78 -203.5q0 -57 -12 -125 l-132 -742l-288 -24v129h-11q-90 -135 -278 -135q-291 0 -291 266q0 100 38 188t103 137q96 74 281 74h234l14 88q6 41 6 68q0 49 -24.5 70.5t-84.5 21.5q-92 0 -321 -55l-25 243q305 66 473 66zM324 266q0 -41 21.5 -59.5t70.5 -18.5q168 0 202 213l15 82h-133 q-74 0 -109 -34q-29 -25 -48 -79.5t-19 -103.5z" glyph-name="uni1EAF" horiz-adv-x="1087" unicode="ắ"/><glyph d="M1012 1952h-209l-191 407h287zM1051 1935h198l-8 -49q-31 -176 -128 -241.5t-263 -65.5q-319 0 -320 238q0 39 11 94l4 24h198l-8 -41q-2 -14 -2 -36q0 -47 31 -66.5t96 -19.5q84 0 127 32.5t62 116.5zM1069 1434l123 -1434h-346l-15 338h-421l-134 -338h-354l629 1434 h518zM514 602h307l-24 567h-62z" glyph-name="uni1EB0" horiz-adv-x="1314" unicode="Ằ"/><glyph d="M842 1645h-209l-191 407h287zM881 1628h198l-8 -49q-31 -176 -128 -241.5t-263 -65.5q-319 0 -320 237q0 39 11 95l4 24h198l-8 -41q-2 -14 -2 -37q0 -47 31 -66.5t96 -19.5q84 0 127 33t62 117zM700 1147q162 0 240 -66.5t78 -203.5q0 -57 -12 -125l-132 -742l-288 -24 v129h-11q-90 -135 -278 -135q-291 0 -291 266q0 100 38 188t103 137q96 74 281 74h234l14 88q6 41 6 68q0 49 -24.5 70.5t-84.5 21.5q-92 0 -321 -55l-25 243q305 66 473 66zM324 266q0 -41 21.5 -59.5t70.5 -18.5q168 0 202 213l15 82h-133q-74 0 -109 -34 q-29 -25 -48 -79.5t-19 -103.5z" glyph-name="uni1EB1" horiz-adv-x="1087" unicode="ằ"/><glyph d="M934 2140q41 29 49 39q8 8 8 24.5t-10 21.5t-45 5q-39 0 -111 -6l-8 143q94 12 168 13q113 0 160 -34t47 -99q0 -53 -16 -93q-12 -37 -60 -69l-86 -62q-57 -39 -67 -88h-150q14 86 30.5 123t51.5 60zM1051 1935h198l-8 -49q-31 -176 -128 -241.5t-263 -65.5 q-319 0 -320 238q0 39 11 94l4 24h198l-8 -41q-2 -14 -2 -36q0 -47 31 -66.5t96 -19.5q84 0 127 32.5t62 116.5zM1069 1434l123 -1434h-346l-15 338h-421l-134 -338h-354l629 1434h518zM514 602h307l-24 567h-62z" glyph-name="uni1EB2" horiz-adv-x="1314" unicode="Ẳ"/><glyph d="M764 1833q41 29 49 39q8 8 8 24.5t-10 21.5t-45 5q-41 0 -111 -6l-8 143q94 12 168 13q113 0 160 -34t47 -100q0 -53 -16 -92q-12 -37 -60 -69l-86 -62q-57 -39 -67 -88h-150q14 86 30.5 123t51.5 59zM881 1628h198l-8 -49q-31 -176 -128 -241.5t-263 -65.5 q-319 0 -320 237q0 39 11 95l4 24h198l-8 -41q-2 -14 -2 -37q0 -47 31 -66.5t96 -19.5q84 0 127 33t62 117zM700 1147q162 0 240 -66.5t78 -203.5q0 -57 -12 -125l-132 -742l-288 -24v129h-11q-90 -135 -278 -135q-291 0 -291 266q0 100 38 188t103 137q96 74 281 74h234 l14 88q6 41 6 68q0 49 -24.5 70.5t-84.5 21.5q-92 0 -321 -55l-25 243q305 66 473 66zM324 266q0 -41 21.5 -59.5t70.5 -18.5q168 0 202 213l15 82h-133q-74 0 -109 -34q-29 -25 -48 -79.5t-19 -103.5z" glyph-name="uni1EB3" horiz-adv-x="1087" unicode="ẳ"/><glyph d="M795 2128q-61 0 -97 -107h-147q23 135 100.5 220.5t177.5 85.5q72 0 136 -50l75 -61q29 -23 54 -23q57 0 92 107h147q-25 -141 -100.5 -222t-177.5 -81q-76 0 -133 47l-76 63q-22 21 -51 21zM1049 1921l2 14h198l-10 -49q-31 -176 -128 -241.5t-261 -65.5 q-174 0 -247 61.5t-73 176.5q0 51 9 94l6 24h198l-8 -41q-4 -14 -4 -36q0 -47 31 -66.5t96 -19.5q84 0 128.5 32.5t62.5 116.5zM1069 1434l123 -1434h-346l-15 338h-421l-134 -338h-354l629 1434h518zM514 602h307l-24 567h-62z" glyph-name="uni1EB4" horiz-adv-x="1314" unicode="Ẵ"/><glyph d="M625 1821q-61 0 -97 -107h-147q23 135 100.5 220t177.5 85q72 0 136 -49l75 -61q29 -23 54 -23q57 0 92 107h147q-25 -141 -100.5 -222t-177.5 -81q-76 0 -133 47l-76 63q-22 21 -51 21zM879 1614l2 14h198l-10 -49q-31 -176 -128 -241.5t-261 -65.5q-174 0 -247 61.5 t-73 175.5q0 51 9 95l6 24h198l-8 -41q-4 -14 -4 -37q0 -47 31 -66.5t96 -19.5q84 0 128.5 33t62.5 117zM700 1147q162 0 240 -66.5t78 -203.5q0 -57 -12 -125l-132 -742l-288 -24v129h-11q-90 -135 -278 -135q-291 0 -291 266q0 100 38 188t103 137q96 74 281 74h234l14 88 q6 41 6 68q0 49 -24.5 70.5t-84.5 21.5q-92 0 -321 -55l-25 243q305 66 473 66zM324 266q0 -41 21.5 -59.5t70.5 -18.5q168 0 202 213l15 82h-133q-74 0 -109 -34q-29 -25 -48 -79.5t-19 -103.5z" glyph-name="uni1EB5" horiz-adv-x="1087" unicode="ẵ"/><glyph d="M1051 1935h198l-8 -49q-31 -176 -128 -241.5t-263 -65.5q-319 0 -320 238q0 39 11 94l4 24h198l-8 -41q-4 -25 -4 -34q0 -88 133 -88q84 0 125 32.5t60 116.5zM1069 1434l123 -1434h-346l-15 338h-421l-134 -338h-354l629 1434h518zM514 602h307l-24 567h-62zM346 -399 l45 260h283l-45 -260h-283z" glyph-name="uni1EB6" horiz-adv-x="1314" unicode="Ặ"/><glyph d="M881 1628h198l-8 -49q-31 -176 -128 -241.5t-263 -65.5q-319 0 -320 237q0 39 11 95l4 24h198l-8 -41q-4 -25 -4 -35q0 -88 133 -88q84 0 125 33t60 117zM700 1147q162 0 240 -66.5t78 -203.5q0 -57 -12 -125l-132 -742l-288 -24v129h-11q-90 -135 -278 -135 q-291 0 -291 266q0 100 38 188t103 137q96 74 281 74h234l14 88q6 41 6 68q0 49 -24.5 70.5t-84.5 21.5q-92 0 -321 -55l-25 243q305 66 473 66zM324 266q0 -41 21.5 -59.5t70.5 -18.5q168 0 202 213l15 82h-133q-74 0 -109 -34q-29 -25 -48 -79.5t-19 -103.5zM231 -399 l45 260h283l-45 -260h-283z" glyph-name="uni1EB7" horiz-adv-x="1087" unicode="ặ"/><glyph d="M1085 1169h-471l-51 -295h434l-45 -264h-436l-59 -346h495l-47 -264h-837l251 1434h814zM285 -399l45 260h282l-45 -260h-282z" glyph-name="uni1EB8" horiz-adv-x="1091" unicode="Ẹ"/><glyph d="M649 1147q209 0 308.5 -88t99.5 -275q0 -100 -35 -268l-8 -45h-633q-6 -49 -6 -90q0 -90 35.5 -127t124.5 -37q137 0 360 57l18 -229q-238 -66 -415 -65q-432 0 -432 440q0 184 65.5 360t167.5 262q123 105 350 105zM418 664h327q14 86 15 143q0 66 -26.5 93.5 t-90.5 27.5q-98 0 -147 -68q-39 -57 -78 -196zM240 -399l45 260h282l-45 -260h-282z" glyph-name="uni1EB9" horiz-adv-x="1105" unicode="ẹ"/><glyph d="M805 1817q35 27 39 30q10 10 10 29q0 14 -10 19.5t-45 5.5q-41 0 -111 -7l-8 144q94 12 168 12q113 0 160 -32.5t47 -100.5q0 -61 -19 -96q-16 -37 -57 -66l-86 -61q-57 -39 -68 -88h-149q14 86 30.5 122.5t51.5 59.5zM1085 1169h-471l-51 -295h434l-45 -264h-436 l-59 -346h495l-47 -264h-837l251 1434h814z" glyph-name="uni1EBA" horiz-adv-x="1091" unicode="Ẻ"/><glyph d="M741 1509q37 27 39 31q10 10 11 29q0 14 -10.5 19t-45.5 5q-39 0 -110 -6l-9 144q94 12 168 12q113 0 160 -33t47 -100q0 -61 -18 -97q-16 -37 -58 -65l-86 -62q-57 -39 -67 -88h-150q14 86 30.5 123t51.5 60zM649 1147q209 0 308.5 -88t99.5 -275q0 -100 -35 -268 l-8 -45h-633q-6 -49 -6 -90q0 -90 35.5 -127t124.5 -37q137 0 360 57l18 -229q-238 -66 -415 -65q-432 0 -432 440q0 184 65.5 360t167.5 262q123 105 350 105zM418 664h327q14 86 15 143q0 66 -26.5 93.5t-90.5 27.5q-98 0 -147 -68q-39 -57 -78 -196z" glyph-name="uni1EBB" horiz-adv-x="1105" unicode="ẻ"/><glyph d="M637 1722q-63 0 -94 -108h-150q25 137 102.5 222t178.5 85q70 0 135 -49l76 -64q25 -20 51 -20q57 0 94 106h148q-27 -143 -103 -224t-176 -81q-78 0 -133 49l-76 64q-26 20 -53 20zM1133 1434l-48 -265h-471l-51 -295h434l-45 -264h-436l-59 -346h495l-47 -264h-837 l251 1434h814z" glyph-name="uni1EBC" horiz-adv-x="1091" unicode="Ẽ"/><glyph d="M573 1415q-63 0 -94 -108h-149q25 137 102.5 222t177.5 85q70 0 135 -49l76 -64q27 -20 51 -20q57 0 95 106h147q-27 -143 -102.5 -224t-175.5 -81q-78 0 -134 49l-75 64q-27 20 -54 20zM649 1147q209 0 308.5 -88t99.5 -275q0 -100 -35 -268l-8 -45h-633q-6 -49 -6 -90 q0 -90 35.5 -127t124.5 -37q137 0 360 57l18 -229q-238 -66 -415 -65q-432 0 -432 440q0 184 65.5 360t167.5 262q123 105 350 105zM418 664h327q14 86 15 143q0 66 -26.5 93.5t-90.5 27.5q-98 0 -147 -68q-39 -57 -78 -196z" glyph-name="uni1EBD" horiz-adv-x="1105" unicode="ẽ"/><glyph d="M1376 2251h299l-332 -408h-223zM971 2003l194 -408h-219l-149 240l-234 -240h-231l336 408h303zM1133 1434l-48 -265h-471l-51 -295h434l-45 -264h-436l-59 -346h495l-47 -264h-837l251 1434h814z" glyph-name="uni1EBE" horiz-adv-x="1091" unicode="Ế"/><glyph d="M1313 1944h299l-332 -408h-223zM907 1696l195 -408h-219l-150 240l-233 -240h-232l336 408h303zM649 1147q209 0 308.5 -88t99.5 -275q0 -100 -35 -268l-8 -45h-633q-6 -49 -6 -90q0 -90 35.5 -127t124.5 -37q137 0 360 57l18 -229q-238 -66 -415 -65q-432 0 -432 440 q0 184 65.5 360t167.5 262q123 105 350 105zM418 664h327q14 86 15 143q0 66 -26.5 93.5t-90.5 27.5q-98 0 -147 -68q-39 -57 -78 -196z" glyph-name="uni1EBF" horiz-adv-x="1105" unicode="ế"/><glyph d="M1282 2251l111 -408h-207l-189 408h285zM971 2003l194 -408h-219l-149 240l-234 -240h-231l336 408h303zM1133 1434l-48 -265h-471l-51 -295h434l-45 -264h-436l-59 -346h495l-47 -264h-837l251 1434h814z" glyph-name="uni1EC0" horiz-adv-x="1091" unicode="Ề"/><glyph d="M1219 1944l110 -408h-207l-188 408h285zM907 1696l195 -408h-219l-150 240l-233 -240h-232l336 408h303zM649 1147q209 0 308.5 -88t99.5 -275q0 -100 -35 -268l-8 -45h-633q-6 -49 -6 -90q0 -90 35.5 -127t124.5 -37q137 0 360 57l18 -229q-238 -66 -415 -65 q-432 0 -432 440q0 184 65.5 360t167.5 262q123 105 350 105zM418 664h327q14 86 15 143q0 66 -26.5 93.5t-90.5 27.5q-98 0 -147 -68q-39 -57 -78 -196z" glyph-name="uni1EC1" horiz-adv-x="1105" unicode="ề"/><glyph d="M1300 2288q113 0 159 -33t46 -98q0 -55 -16 -95q-12 -37 -59 -69l-87 -60q-53 -41 -67 -90h-150q14 86 32 123t52 59l37 25q41 23 49 37q8 8 9 27q0 16 -11.5 21t-44.5 5q-41 0 -110 -6l-9 141q94 13 170 13zM971 2003l194 -408h-221l-149 240l-234 -240h-231l336 408 h305zM1133 1434l-48 -265h-471l-51 -295h434l-45 -264h-436l-59 -346h495l-47 -264h-837l251 1434h814z" glyph-name="uni1EC2" horiz-adv-x="1091" unicode="Ể"/><glyph d="M1237 1980q113 0 159 -32.5t46 -98.5q0 -55 -17 -94q-12 -37 -59 -69l-86 -60q-53 -41 -68 -90h-149q14 86 31.5 123t52.5 59l37 25q41 23 49 37q8 8 8 26q0 16 -11 21.5t-44 5.5q-39 0 -111 -6l-8 141q94 12 170 12zM907 1696l195 -408h-221l-150 240l-233 -240h-232 l336 408h305zM649 1147q209 0 308.5 -88t99.5 -275q0 -100 -35 -268l-8 -45h-633q-6 -49 -6 -90q0 -90 35.5 -127t124.5 -37q137 0 360 57l18 -229q-238 -66 -415 -65q-432 0 -432 440q0 184 65.5 360t167.5 262q123 105 350 105zM418 664h327q14 86 15 143q0 66 -26.5 93.5 t-90.5 27.5q-98 0 -147 -68q-39 -57 -78 -196z" glyph-name="uni1EC3" horiz-adv-x="1105" unicode="ể"/><glyph d="M715 2202q-63 0 -97 -107h-147q25 135 102.5 221t178.5 86q68 0 133 -51l78 -61q29 -23 51 -23q57 0 92 109h147q-25 -143 -100.5 -224t-177.5 -81q-74 0 -131 47l-78 65q-20 19 -51 19zM971 2003l194 -408h-221l-149 240l-234 -240h-231l336 408h305zM1133 1434 l-48 -265h-471l-51 -295h434l-45 -264h-436l-59 -346h495l-47 -264h-837l251 1434h814z" glyph-name="uni1EC4" horiz-adv-x="1091" unicode="Ễ"/><glyph d="M651 1894q-63 0 -96 -106h-147q25 135 102.5 221t177.5 86q68 0 133 -51l78 -62q29 -23 51 -22q57 0 92 108h148q-25 -143 -100.5 -224t-178.5 -81q-74 0 -131 47l-78 66q-20 18 -51 18zM907 1696l195 -408h-221l-150 240l-233 -240h-232l336 408h305zM649 1147 q209 0 308.5 -88t99.5 -275q0 -100 -35 -268l-8 -45h-633q-6 -49 -6 -90q0 -90 35.5 -127t124.5 -37q137 0 360 57l18 -229q-238 -66 -415 -65q-432 0 -432 440q0 184 65.5 360t167.5 262q123 105 350 105zM418 664h327q14 86 15 143q0 66 -26.5 93.5t-90.5 27.5 q-98 0 -147 -68q-39 -57 -78 -196z" glyph-name="uni1EC5" horiz-adv-x="1105" unicode="ễ"/><glyph d="M797 1835l-234 -240h-231l336 408h303l194 -408h-219zM1133 1434l-48 -265h-471l-51 -295h434l-45 -264h-436l-59 -346h495l-47 -264h-837l251 1434h814zM285 -399l45 260h282l-45 -260h-282z" glyph-name="uni1EC6" horiz-adv-x="1091" unicode="Ệ"/><glyph d="M733 1528l-233 -240h-232l336 408h303l195 -408h-219zM649 1147q209 0 308.5 -88t99.5 -275q0 -100 -35 -268l-8 -45h-633q-6 -49 -6 -90q0 -90 35.5 -127t124.5 -37q137 0 360 57l18 -229q-238 -66 -415 -65q-432 0 -432 440q0 184 65.5 360t167.5 262q123 105 350 105z M418 664h327q14 86 15 143q0 66 -26.5 93.5t-90.5 27.5q-98 0 -147 -68q-39 -57 -78 -196zM240 -399l45 260h282l-45 -260h-282z" glyph-name="uni1EC7" horiz-adv-x="1105" unicode="ệ"/><glyph d="M444 1606q14 86 31 122.5t51 59.5l47 29q37 27 39 30q10 10 11 29q0 14 -10.5 19.5t-45.5 5.5q-39 0 -110 -7l-8 144q94 12 167 12q113 0 160 -32.5t47 -100.5q0 -61 -18 -96q-16 -37 -57 -66l-86 -61q-57 -39 -68 -88h-150zM662 1434l-252 -1434h-342l251 1434h343z" glyph-name="uni1EC8" horiz-adv-x="671" unicode="Ỉ"/><glyph d="M346 1298q14 86 30.5 123t51.5 60l47 28q37 27 39 31q10 10 10 29q0 14 -10 19t-45 5q-39 0 -111 -6l-8 144q94 12 168 12q113 0 160 -33t47 -100q0 -61 -18 -97q-16 -37 -58 -65l-86 -62q-57 -39 -67 -88h-150zM557 1126l-199 -1126h-327l198 1126h328z" glyph-name="uni1EC9" horiz-adv-x="585" unicode="ỉ"/><glyph d="M662 1434l-252 -1434h-342l251 1434h343zM72 -139h282l-45 -260h-282z" glyph-name="uni1ECA" horiz-adv-x="671" unicode="Ị"/><glyph d="M295 1569h352l-49 -283h-352zM557 1126l-199 -1126h-327l198 1126h328zM27 -139h282l-45 -260h-282z" glyph-name="uni1ECB" horiz-adv-x="585" unicode="ị"/><glyph d="M627 -20q-270 0 -392 117.5t-122 385.5q0 246 87 493t214 357q139 121 417 121q272 0 394.5 -116.5t122.5 -381.5q0 -244 -85 -492.5t-212 -359.5q-137 -124 -424 -124zM649 258q135 0 189 72q59 74 111 279.5t52 357.5q0 117 -43 163t-147 46q-125 0 -184 -66 q-61 -72 -114.5 -278.5t-53.5 -360.5q0 -119 43 -166t147 -47zM436 -139h283l-45 -260h-283z" glyph-name="uni1ECC" horiz-adv-x="1400" unicode="Ọ"/><glyph d="M518 -20q-236 0 -345.5 95t-109.5 296q0 215 72 408.5t184 277.5q121 90 347 90q233 0 343.5 -97.5t110.5 -304.5q0 -190 -65.5 -375.5t-163.5 -275.5q-127 -114 -373 -114zM528 219q109 0 152 74q39 61 75 207.5t36 255.5q0 86 -31 118.5t-107 32.5q-96 0 -139 -55 q-43 -57 -82 -214t-39 -271q0 -82 29.5 -115t105.5 -33zM328 -139h282l-45 -260h-282z" glyph-name="uni1ECD" horiz-adv-x="1179" unicode="ọ"/><glyph d="M807 1606q14 86 30.5 122.5t51.5 59.5l47 29q35 27 39 30q10 10 10 29q0 14 -10 19.5t-45 5.5q-41 0 -111 -7l-8 144q94 12 168 12q113 0 160 -32.5t47 -100.5q0 -61 -19 -96q-16 -37 -57 -66l-86 -61q-57 -39 -68 -88h-149zM627 -20q-270 0 -392 117.5t-122 385.5 q0 246 87 493t214 357q139 121 417 121q272 0 394.5 -116.5t122.5 -381.5q0 -244 -85 -492.5t-212 -359.5q-137 -124 -424 -124zM649 258q135 0 189 72q59 74 111 279.5t52 357.5q0 117 -43 163t-147 46q-125 0 -184 -66q-61 -72 -114.5 -278.5t-53.5 -360.5q0 -119 43 -166 t147 -47z" glyph-name="uni1ECE" horiz-adv-x="1400" unicode="Ỏ"/><glyph d="M645 1298q14 86 30.5 123t51.5 60l47 28q37 27 39 31q10 10 10 29q0 14 -10 19t-45 5q-39 0 -111 -6l-8 144q94 12 168 12q113 0 160 -33t47 -100q0 -61 -18 -97q-16 -37 -58 -65l-86 -62q-57 -39 -67 -88h-150zM518 -20q-236 0 -345.5 95t-109.5 296q0 215 72 408.5 t184 277.5q121 90 347 90q233 0 343.5 -97.5t110.5 -304.5q0 -190 -65.5 -375.5t-163.5 -275.5q-127 -114 -373 -114zM528 219q109 0 152 74q39 61 75 207.5t36 255.5q0 86 -31 118.5t-107 32.5q-96 0 -139 -55q-43 -57 -82 -214t-39 -271q0 -82 29.5 -115t105.5 -33z" glyph-name="uni1ECF" horiz-adv-x="1179" unicode="ỏ"/><glyph d="M1507 2251h299l-331 -408h-224zM928 1835l-234 -240h-231l336 408h303l194 -408h-219zM831 1454q272 0 394.5 -116.5t122.5 -381.5q0 -244 -85 -492.5t-212 -359.5q-137 -125 -424 -124q-270 0 -392 117.5t-122 385.5q0 246 87 493t214 357q138 121 417 121zM838 330 q59 74 111 279.5t52 357.5q0 117 -43 163t-147 46q-125 0 -184 -66q-61 -72 -114.5 -278.5t-53.5 -360.5q0 -119 43 -166t147 -47q136 0 189 72z" glyph-name="uni1ED0" horiz-adv-x="1400" unicode="Ố"/><glyph d="M1346 1944h299l-332 -408h-223zM940 1696l195 -408h-220l-149 240l-234 -240h-231l336 408h303zM666 1147q233 0 343.5 -97.5t110.5 -304.5q0 -190 -65.5 -375.5t-163.5 -275.5q-127 -115 -373 -114q-236 0 -345.5 95t-109.5 296q0 215 72 408.5t184 277.5q122 90 347 90 zM680 293q39 61 75 207.5t36 255.5q0 86 -31 118.5t-107 32.5q-96 0 -139 -55q-43 -57 -82 -214t-39 -271q0 -82 30 -115t105 -33q109 0 152 74z" glyph-name="uni1ED1" horiz-adv-x="1179" unicode="ố"/><glyph d="M1524 1843h-207l-189 408h285zM928 1835l-234 -240h-231l336 408h303l194 -408h-219zM831 1454q272 0 394.5 -116.5t122.5 -381.5q0 -244 -85 -492.5t-212 -359.5q-137 -125 -424 -124q-270 0 -392 117.5t-122 385.5q0 246 87 493t214 357q138 121 417 121zM838 330 q59 74 111 279.5t52 357.5q0 117 -43 163t-147 46q-125 0 -184 -66q-61 -72 -114.5 -278.5t-53.5 -360.5q0 -119 43 -166t147 -47q136 0 189 72z" glyph-name="uni1ED2" horiz-adv-x="1400" unicode="Ồ"/><glyph d="M1251 1944l111 -408h-207l-188 408h284zM940 1696l195 -408h-220l-149 240l-234 -240h-231l336 408h303zM666 1147q233 0 343.5 -97.5t110.5 -304.5q0 -190 -65.5 -375.5t-163.5 -275.5q-127 -115 -373 -114q-236 0 -345.5 95t-109.5 296q0 215 72 408.5t184 277.5 q122 90 347 90zM680 293q39 61 75 207.5t36 255.5q0 86 -31 118.5t-107 32.5q-96 0 -139 -55q-43 -57 -82 -214t-39 -271q0 -82 30 -115t105 -33q109 0 152 74z" glyph-name="uni1ED3" horiz-adv-x="1179" unicode="ồ"/><glyph d="M1432 2288q113 0 158.5 -33t45.5 -98q0 -55 -16 -95q-12 -37 -59 -69l-86 -60q-53 -41 -68 -90h-150q14 86 32 123t52 59l37 25q41 23 49 37q8 8 9 27q0 16 -11.5 21t-44.5 5q-41 0 -110 -6l-8 141q94 13 170 13zM926 1835l-234 -240h-231l336 408h305l194 -408h-221z M831 1454q272 0 394.5 -116.5t122.5 -381.5q0 -244 -85 -492.5t-212 -359.5q-137 -125 -424 -124q-270 0 -392 117.5t-122 385.5q0 246 87 493t214 357q138 121 417 121zM838 330q59 74 111 279.5t52 357.5q0 117 -43 163t-147 46q-125 0 -184 -66q-61 -72 -114.5 -278.5 t-53.5 -360.5q0 -119 43 -166t147 -47q136 0 189 72z" glyph-name="uni1ED4" horiz-adv-x="1400" unicode="Ổ"/><glyph d="M1270 1980q113 0 159 -32.5t46 -98.5q0 -55 -17 -94q-12 -37 -59 -69l-86 -60q-53 -41 -68 -90h-149q14 86 31.5 123t52.5 59l37 25q41 23 49 37q8 8 8 26q0 16 -11.5 21.5t-43.5 5.5q-39 0 -111 -6l-8 141q94 12 170 12zM940 1696l195 -408h-222l-149 240l-234 -240 h-231l336 408h305zM666 1147q233 0 343.5 -97.5t110.5 -304.5q0 -190 -65.5 -375.5t-163.5 -275.5q-127 -115 -373 -114q-236 0 -345.5 95t-109.5 296q0 215 72 408.5t184 277.5q122 90 347 90zM680 293q39 61 75 207.5t36 255.5q0 86 -31 118.5t-107 32.5q-96 0 -139 -55 q-43 -57 -82 -214t-39 -271q0 -82 30 -115t105 -33q109 0 152 74z" glyph-name="uni1ED5" horiz-adv-x="1179" unicode="ổ"/><glyph d="M846 2202q-63 0 -96 -107h-148q25 135 102.5 221t178.5 86q68 0 133 -51l78 -61q29 -23 51 -23q57 0 92 109h147q-25 -143 -100.5 -224t-177.5 -81q-74 0 -131 47l-78 65q-20 19 -51 19zM926 1835l-234 -240h-231l336 408h305l194 -408h-221zM831 1454 q272 0 394.5 -116.5t122.5 -381.5q0 -244 -85 -492.5t-212 -359.5q-137 -125 -424 -124q-270 0 -392 117.5t-122 385.5q0 246 87 493t214 357q138 121 417 121zM838 330q59 74 111 279.5t52 357.5q0 117 -43 163t-147 46q-125 0 -184 -66q-61 -72 -114.5 -278.5 t-53.5 -360.5q0 -119 43 -166t147 -47q136 0 189 72z" glyph-name="uni1ED6" horiz-adv-x="1400" unicode="Ỗ"/><glyph d="M684 1894q-63 0 -96 -106h-148q25 135 103 221t178 86q68 0 133 -51l78 -62q29 -23 51 -22q57 0 92 108h148q-25 -143 -100.5 -224t-178.5 -81q-74 0 -131 47l-78 66q-20 18 -51 18zM940 1696l195 -408h-222l-149 240l-234 -240h-231l336 408h305zM666 1147 q233 0 343.5 -97.5t110.5 -304.5q0 -190 -65.5 -375.5t-163.5 -275.5q-127 -115 -373 -114q-236 0 -345.5 95t-109.5 296q0 215 72 408.5t184 277.5q122 90 347 90zM680 293q39 61 75 207.5t36 255.5q0 86 -31 118.5t-107 32.5q-96 0 -139 -55q-43 -57 -82 -214t-39 -271 q0 -82 30 -115t105 -33q109 0 152 74z" glyph-name="uni1ED7" horiz-adv-x="1179" unicode="ỗ"/><glyph d="M928 1835l-234 -240h-231l336 408h303l194 -408h-219zM831 1454q272 0 394.5 -116.5t122.5 -381.5q0 -244 -85 -492.5t-212 -359.5q-137 -125 -424 -124q-270 0 -392 117.5t-122 385.5q0 246 87 493t214 357q138 121 417 121zM838 330q59 74 111 279.5t52 357.5 q0 117 -43 163t-147 46q-125 0 -184 -66q-61 -72 -114.5 -278.5t-53.5 -360.5q0 -119 43 -166t147 -47q136 0 189 72zM391 -399l45 260h283l-45 -260h-283z" glyph-name="uni1ED8" horiz-adv-x="1400" unicode="Ộ"/><glyph d="M766 1528l-234 -240h-231l336 408h303l195 -408h-220zM666 1147q233 0 343.5 -97.5t110.5 -304.5q0 -190 -65.5 -375.5t-163.5 -275.5q-127 -115 -373 -114q-236 0 -345.5 95t-109.5 296q0 215 72 408.5t184 277.5q122 90 347 90zM680 293q39 61 75 207.5t36 255.5 q0 86 -31 118.5t-107 32.5q-96 0 -139 -55q-43 -57 -82 -214t-39 -271q0 -82 30 -115t105 -33q109 0 152 74zM283 -399l45 260h282l-45 -260h-282z" glyph-name="uni1ED9" horiz-adv-x="1179" unicode="ộ"/><glyph d="M1329 2011l-334 -407h-221l256 407h299zM1442 1679h196l-36 -219q-25 -143 -91.5 -207.5t-189.5 -81.5q27 -88 27 -215q0 -244 -85 -492.5t-212 -359.5q-137 -125 -424 -124q-270 0 -392 117.5t-122 385.5q0 246 87 493t214 357q139 121 417 121q274 0 396 -119 q158 10 180 150zM838 330q59 74 111 279.5t52 357.5q0 117 -43 163t-147 46q-125 0 -184 -66q-61 -72 -114.5 -278.5t-53.5 -360.5q0 -119 43 -166t147 -47q136 0 189 72z" glyph-name="uni1EDA" horiz-adv-x="1400" unicode="Ớ"/><glyph d="M1167 1704l-333 -408h-222l256 408h299zM1243 1356h197l-37 -219q-25 -147 -93.5 -212t-197.5 -77q8 -43 8 -103q0 -190 -65.5 -375.5t-163.5 -275.5q-127 -115 -373 -114q-236 0 -345.5 95t-109.5 296q0 215 72 408.5t184 277.5q121 90 347 90q272 0 378 -133 q141 12 164 147zM680 293q39 61 75 207.5t36 255.5q0 86 -31 118.5t-107 32.5q-96 0 -139 -55q-43 -57 -82 -214t-39 -271q0 -82 30 -115t105 -33q109 0 152 74z" glyph-name="uni1EDB" horiz-adv-x="1179" unicode="ớ"/><glyph d="M979 1604h-209l-188 407h284zM1442 1679h196l-36 -219q-25 -143 -91.5 -207.5t-189.5 -81.5q27 -88 27 -215q0 -244 -85 -492.5t-212 -359.5q-137 -125 -424 -124q-270 0 -392 117.5t-122 385.5q0 246 87 493t214 357q139 121 417 121q274 0 396 -119q158 10 180 150z M838 330q59 74 111 279.5t52 357.5q0 117 -43 163t-147 46q-125 0 -184 -66q-61 -72 -114.5 -278.5t-53.5 -360.5q0 -119 43 -166t147 -47q136 0 189 72z" glyph-name="uni1EDC" horiz-adv-x="1400" unicode="Ờ"/><glyph d="M817 1296h-209l-188 408h285zM1243 1356h197l-37 -219q-25 -147 -93.5 -212t-197.5 -77q8 -43 8 -103q0 -190 -65.5 -375.5t-163.5 -275.5q-127 -115 -373 -114q-236 0 -345.5 95t-109.5 296q0 215 72 408.5t184 277.5q121 90 347 90q272 0 378 -133q141 12 164 147z M680 293q39 61 75 207.5t36 255.5q0 86 -31 118.5t-107 32.5q-96 0 -139 -55q-43 -57 -82 -214t-39 -271q0 -82 30 -115t105 -33q109 0 152 74z" glyph-name="uni1EDD" horiz-adv-x="1179" unicode="ờ"/><glyph d="M936 1817q35 27 39 30q10 10 10 29q0 14 -10 19.5t-45 5.5q-41 0 -111 -7l-8 144q94 12 168 12q113 0 160 -32.5t47 -100.5q0 -61 -19 -96q-16 -37 -57 -66l-86 -61q-57 -39 -68 -88h-149q14 86 30.5 122.5t51.5 59.5zM1442 1679h196l-36 -219q-25 -143 -91.5 -207.5 t-189.5 -81.5q27 -88 27 -215q0 -244 -85 -492.5t-212 -359.5q-137 -125 -424 -124q-270 0 -392 117.5t-122 385.5q0 246 87 493t214 357q139 121 417 121q274 0 396 -119q158 10 180 150zM838 330q59 74 111 279.5t52 357.5q0 117 -43 163t-147 46q-125 0 -184 -66 q-61 -72 -114.5 -278.5t-53.5 -360.5q0 -119 43 -166t147 -47q136 0 189 72z" glyph-name="uni1EDE" horiz-adv-x="1400" unicode="Ở"/><glyph d="M774 1509q37 27 39 31q10 10 10 29q0 14 -10 19t-45 5q-39 0 -111 -6l-8 144q94 12 168 12q113 0 160 -33t47 -100q0 -61 -18 -97q-16 -37 -58 -65l-86 -62q-57 -39 -67 -88h-150q14 86 30.5 123t51.5 60zM1243 1356h197l-37 -219q-25 -147 -93.5 -212t-197.5 -77 q8 -43 8 -103q0 -190 -65.5 -375.5t-163.5 -275.5q-127 -115 -373 -114q-236 0 -345.5 95t-109.5 296q0 215 72 408.5t184 277.5q121 90 347 90q272 0 378 -133q141 12 164 147zM680 293q39 61 75 207.5t36 255.5q0 86 -31 118.5t-107 32.5q-96 0 -139 -55q-43 -57 -82 -214 t-39 -271q0 -82 30 -115t105 -33q109 0 152 74z" glyph-name="uni1EDF" horiz-adv-x="1179" unicode="ở"/><glyph d="M768 1722q-63 0 -94 -108h-150q25 137 103 222t178 85q70 0 135 -49l76 -64q27 -20 51 -20q57 0 94 106h148q-27 -143 -103 -224t-176 -81q-78 0 -133 49l-76 64q-26 20 -53 20zM1442 1679h196l-36 -219q-25 -143 -91.5 -207.5t-189.5 -81.5q27 -88 27 -215 q0 -244 -85 -492.5t-212 -359.5q-137 -125 -424 -124q-270 0 -392 117.5t-122 385.5q0 246 87 493t214 357q139 121 417 121q274 0 396 -119q158 10 180 150zM838 330q59 74 111 279.5t52 357.5q0 117 -43 163t-147 46q-125 0 -184 -66q-61 -72 -114.5 -278.5t-53.5 -360.5 q0 -119 43 -166t147 -47q136 0 189 72z" glyph-name="uni1EE0" horiz-adv-x="1400" unicode="Ỡ"/><glyph d="M606 1415q-63 0 -94 -108h-150q25 137 103 222t178 85q70 0 135 -49l76 -64q25 -20 51 -20q57 0 94 106h148q-27 -143 -102.5 -224t-176.5 -81q-78 0 -133 49l-76 64q-26 20 -53 20zM1243 1356h197l-37 -219q-25 -147 -93.5 -212t-197.5 -77q8 -43 8 -103 q0 -190 -65.5 -375.5t-163.5 -275.5q-127 -115 -373 -114q-236 0 -345.5 95t-109.5 296q0 215 72 408.5t184 277.5q121 90 347 90q272 0 378 -133q141 12 164 147zM680 293q39 61 75 207.5t36 255.5q0 86 -31 118.5t-107 32.5q-96 0 -139 -55q-43 -57 -82 -214t-39 -271 q0 -82 30 -115t105 -33q109 0 152 74z" glyph-name="uni1EE1" horiz-adv-x="1179" unicode="ỡ"/><glyph d="M1442 1679h196l-36 -219q-25 -143 -91.5 -207.5t-189.5 -81.5q27 -88 27 -215q0 -244 -85 -492.5t-212 -359.5q-137 -125 -424 -124q-270 0 -392 117.5t-122 385.5q0 246 87 493t214 357q139 121 417 121q274 0 396 -119q158 10 180 150zM838 330q59 74 111 279.5 t52 357.5q0 117 -43 163t-147 46q-125 0 -184 -66q-61 -72 -114.5 -278.5t-53.5 -360.5q0 -119 43 -166t147 -47q136 0 189 72zM391 -399l45 260h283l-45 -260h-283z" glyph-name="uni1EE2" horiz-adv-x="1400" unicode="Ợ"/><glyph d="M1243 1356h197l-37 -219q-25 -147 -93.5 -212t-197.5 -77q8 -43 8 -103q0 -190 -65.5 -375.5t-163.5 -275.5q-127 -115 -373 -114q-236 0 -345.5 95t-109.5 296q0 215 72 408.5t184 277.5q121 90 347 90q272 0 378 -133q141 12 164 147zM680 293q39 61 75 207.5t36 255.5 q0 86 -31 118.5t-107 32.5q-96 0 -139 -55q-43 -57 -82 -214t-39 -271q0 -82 30 -115t105 -33q109 0 152 74zM283 -399l45 260h282l-45 -260h-282z" glyph-name="uni1EE3" horiz-adv-x="1179" unicode="ợ"/><glyph d="M608 -20q-266 0 -376.5 89t-110.5 275q0 96 22 227l152 863h342l-164 -932q-12 -90 -12 -115q0 -74 37 -101.5t116 -27.5q117 0 168.5 55.5t77.5 212.5l160 908h342l-162 -920q-53 -309 -191.5 -421.5t-400.5 -112.5zM412 -139h282l-45 -260h-282z" glyph-name="uni1EE4" horiz-adv-x="1349" unicode="Ụ"/><glyph d="M848 1126h326l-197 -1116l-289 -24v129h-12q-90 -135 -303 -135q-160 0 -228.5 62t-68.5 198q0 76 18 176l127 710h326l-127 -716q-8 -47 -8 -86q0 -57 25.5 -81t84.5 -24q168 0 203 199zM272 -399l45 260h283l-45 -260h-283z" glyph-name="uni1EE5" horiz-adv-x="1206" unicode="ụ"/><glyph d="M782 1606q14 86 30.5 122.5t51.5 59.5l47 29q35 27 39 30q10 10 11 29q0 14 -10.5 19.5t-45.5 5.5q-41 0 -110 -7l-9 144q94 12 168 12q113 0 160 -32.5t47 -100.5q0 -61 -18 -96q-16 -37 -58 -66l-86 -61q-57 -39 -67 -88h-150zM608 -20q-266 0 -376.5 89t-110.5 275 q0 96 22 227l152 863h342l-164 -932q-12 -90 -12 -115q0 -74 37 -101.5t116 -27.5q117 0 168.5 55.5t77.5 212.5l160 908h342l-162 -920q-53 -309 -191.5 -421.5t-400.5 -112.5z" glyph-name="uni1EE6" horiz-adv-x="1349" unicode="Ủ"/><glyph d="M782 1509q37 27 39 31q10 10 10 29q0 14 -10 19t-45 5q-39 0 -110 -6l-9 144q94 12 168 12q113 0 160 -33t47 -100q0 -61 -18 -97q-16 -37 -58 -65l-86 -62q-57 -39 -67 -88h-150q14 86 30.5 123t51.5 60zM848 1126h326l-197 -1116l-289 -24v129h-12q-90 -135 -303 -135 q-160 0 -228.5 62t-68.5 198q0 76 18 176l127 710h326l-127 -716q-8 -47 -8 -86q0 -57 25.5 -81t84.5 -24q168 0 203 199z" glyph-name="uni1EE7" horiz-adv-x="1206" unicode="ủ"/><glyph d="M1305 2011l-334 -407h-221l256 407h299zM1513 1778h197l-37 -219q-29 -162 -106.5 -224.5t-233.5 -68.5l-133 -752q-53 -309 -191.5 -421.5t-400.5 -112.5q-266 0 -376.5 89t-110.5 275q0 96 22 227l152 863h342l-164 -932q-12 -90 -12 -115q0 -74 37 -101.5t116 -27.5 q117 0 168.5 55.5t77.5 212.5l160 908h260q172 0 199 149z" glyph-name="uni1EE8" horiz-adv-x="1349" unicode="Ứ"/><glyph d="M1176 1704l-334 -408h-221l256 408h299zM1315 1470h196l-36 -219q-29 -158 -106 -221t-224 -72l-168 -948l-289 -24v129h-12q-90 -135 -303 -135q-160 0 -228.5 62t-68.5 198q0 76 18 176l127 710h326l-127 -716q-8 -47 -8 -86q0 -57 25.5 -81t84.5 -24q168 0 203 199 l123 708h233q172 0 199 150z" glyph-name="uni1EE9" horiz-adv-x="1206" unicode="ứ"/><glyph d="M954 1604h-209l-188 407h285zM1513 1778h197l-37 -219q-29 -162 -106.5 -224.5t-233.5 -68.5l-133 -752q-53 -309 -191.5 -421.5t-400.5 -112.5q-266 0 -376.5 89t-110.5 275q0 96 22 227l152 863h342l-164 -932q-12 -90 -12 -115q0 -74 37 -101.5t116 -27.5 q117 0 168.5 55.5t77.5 212.5l160 908h260q172 0 199 149z" glyph-name="uni1EEA" horiz-adv-x="1349" unicode="Ừ"/><glyph d="M825 1296h-209l-188 408h285zM1315 1470h196l-36 -219q-29 -158 -106 -221t-224 -72l-168 -948l-289 -24v129h-12q-90 -135 -303 -135q-160 0 -228.5 62t-68.5 198q0 76 18 176l127 710h326l-127 -716q-8 -47 -8 -86q0 -57 25.5 -81t84.5 -24q168 0 203 199l123 708h233 q172 0 199 150z" glyph-name="uni1EEB" horiz-adv-x="1206" unicode="ừ"/><glyph d="M911 1817q35 27 39 30q10 10 11 29q0 14 -10.5 19.5t-45.5 5.5q-41 0 -110 -7l-9 144q94 12 168 12q113 0 160 -32.5t47 -100.5q0 -61 -18 -96q-16 -37 -58 -66l-86 -61q-57 -39 -67 -88h-150q14 86 30.5 122.5t51.5 59.5zM1513 1778h197l-37 -219 q-29 -162 -106.5 -224.5t-233.5 -68.5l-133 -752q-53 -309 -191.5 -421.5t-400.5 -112.5q-266 0 -376.5 89t-110.5 275q0 96 22 227l152 863h342l-164 -932q-12 -90 -12 -115q0 -74 37 -101.5t116 -27.5q117 0 168.5 55.5t77.5 212.5l160 908h260q172 0 199 149z" glyph-name="uni1EEC" horiz-adv-x="1349" unicode="Ử"/><glyph d="M782 1509q37 27 39 31q10 10 10 29q0 14 -10 19t-45 5q-39 0 -110 -6l-9 144q94 12 168 12q113 0 160 -33t47 -100q0 -61 -18 -97q-16 -37 -58 -65l-86 -62q-57 -39 -67 -88h-150q14 86 30.5 123t51.5 60zM1315 1470h196l-36 -219q-29 -158 -106 -221t-224 -72l-168 -948 l-289 -24v129h-12q-90 -135 -303 -135q-160 0 -228.5 62t-68.5 198q0 76 18 176l127 710h326l-127 -716q-8 -47 -8 -86q0 -57 25.5 -81t84.5 -24q168 0 203 199l123 708h233q172 0 199 150z" glyph-name="uni1EED" horiz-adv-x="1206" unicode="ử"/><glyph d="M743 1722q-63 0 -94 -108h-149q25 137 102.5 222t177.5 85q70 0 135 -49l76 -64q25 -20 51 -20q57 0 95 106h147q-27 -143 -102.5 -224t-175.5 -81q-78 0 -134 49l-75 64q-27 20 -54 20zM1513 1778h197l-37 -219q-29 -162 -106.5 -224.5t-233.5 -68.5l-133 -752 q-53 -309 -191.5 -421.5t-400.5 -112.5q-266 0 -376.5 89t-110.5 275q0 96 22 227l152 863h342l-164 -932q-12 -90 -12 -115q0 -74 37 -101.5t116 -27.5q117 0 168.5 55.5t77.5 212.5l160 908h260q172 0 199 149z" glyph-name="uni1EEE" horiz-adv-x="1349" unicode="Ữ"/><glyph d="M614 1415q-63 0 -94 -108h-149q25 137 102.5 222t177.5 85q70 0 135 -49l76 -64q27 -20 51 -20q57 0 95 106h147q-27 -143 -102.5 -224t-175.5 -81q-78 0 -134 49l-75 64q-27 20 -54 20zM1315 1470h196l-36 -219q-29 -158 -106 -221t-224 -72l-168 -948l-289 -24v129h-12 q-90 -135 -303 -135q-160 0 -228.5 62t-68.5 198q0 76 18 176l127 710h326l-127 -716q-8 -47 -8 -86q0 -57 25.5 -81t84.5 -24q168 0 203 199l123 708h233q172 0 199 150z" glyph-name="uni1EEF" horiz-adv-x="1206" unicode="ữ"/><glyph d="M1513 1778h197l-37 -219q-29 -162 -106.5 -224.5t-233.5 -68.5l-133 -752q-53 -309 -191.5 -421.5t-400.5 -112.5q-266 0 -376.5 89t-110.5 275q0 96 22 227l152 863h342l-164 -932q-12 -90 -12 -115q0 -74 37 -101.5t116 -27.5q117 0 168.5 55.5t77.5 212.5l160 908h260 q172 0 199 149zM367 -399l45 260h282l-45 -260h-282z" glyph-name="uni1EF0" horiz-adv-x="1349" unicode="Ự"/><glyph d="M1315 1470h196l-36 -219q-29 -158 -106 -221t-224 -72l-168 -948l-289 -24v129h-12q-90 -135 -303 -135q-160 0 -228.5 62t-68.5 198q0 76 18 176l127 710h326l-127 -716q-8 -47 -8 -86q0 -57 25.5 -81t84.5 -24q168 0 203 199l123 708h233q172 0 199 150zM272 -399 l45 260h283l-45 -260h-283z" glyph-name="uni1EF1" horiz-adv-x="1206" unicode="ự"/><glyph d="M897 1604h-209l-188 407h284zM1386 1434l-616 -940l-86 -494h-342l94 532l-270 902h350l133 -605h29l346 605h362z" glyph-name="Ygrave" horiz-adv-x="1234" unicode="Ỳ"/><glyph d="M764 1296h-209l-188 408h284zM819 1126h346l-506 -1175q-82 -190 -200.5 -265t-294.5 -75q-84 0 -213 27l41 219q92 -14 168 -15q98 0 156.5 40t99.5 149l6 14h-227l-80 1081h338l8 -852h45z" glyph-name="ygrave" horiz-adv-x="1071" unicode="ỳ"/><glyph d="M1386 1434l-616 -940l-86 -494h-342l94 532l-270 902h350l133 -605h29l346 605h362zM307 -399l45 260h283l-45 -260h-283z" glyph-name="uni1EF4" horiz-adv-x="1234" unicode="Ỵ"/><glyph d="M819 1126h346l-506 -1175q-82 -190 -200.5 -265t-294.5 -75q-84 0 -213 27l41 219q92 -14 168 -15q98 0 156.5 40t99.5 149l6 14h-227l-80 1081h338l8 -852h45zM674 -399l45 260h280l-45 -260h-280z" glyph-name="uni1EF5" horiz-adv-x="1071" unicode="ỵ"/><glyph d="M854 1817q35 27 39 30q10 10 10 29q0 14 -10 19.5t-45 5.5q-41 0 -111 -7l-8 144q94 12 168 12q113 0 160 -32.5t47 -100.5q0 -61 -19 -96q-16 -37 -57 -66l-86 -61q-57 -39 -68 -88h-149q14 86 30.5 122.5t51.5 59.5zM1386 1434l-616 -940l-86 -494h-342l94 532 l-270 902h350l133 -605h29l346 605h362z" glyph-name="uni1EF6" horiz-adv-x="1234" unicode="Ỷ"/><glyph d="M721 1509q37 27 39 31q10 10 10 29q0 14 -10 19t-45 5q-39 0 -111 -6l-8 144q94 12 168 12q113 0 160 -33t47 -100q0 -61 -19 -97q-16 -37 -57 -65l-86 -62q-57 -39 -68 -88h-149q14 86 30.5 123t51.5 60zM819 1126h346l-506 -1175q-82 -190 -200.5 -265t-294.5 -75 q-84 0 -213 27l41 219q92 -14 168 -15q98 0 156.5 40t99.5 149l6 14h-227l-80 1081h338l8 -852h45z" glyph-name="uni1EF7" horiz-adv-x="1071" unicode="ỷ"/><glyph d="M686 1722q-63 0 -94 -108h-150q25 137 103 222t178 85q70 0 135 -49l76 -64q27 -20 51 -20q57 0 94 106h148q-27 -143 -102.5 -224t-176.5 -81q-78 0 -133 49l-76 64q-26 20 -53 20zM1386 1434l-616 -940l-86 -494h-342l94 532l-270 902h350l133 -605h29l346 605h362z " glyph-name="uni1EF8" horiz-adv-x="1234" unicode="Ỹ"/><glyph d="M553 1415q-63 0 -94 -108h-150q25 137 102.5 222t178.5 85q70 0 135 -49l76 -64q27 -20 51 -20q57 0 94 106h148q-27 -143 -103 -224t-176 -81q-78 0 -133 49l-76 64q-26 20 -53 20zM819 1126h346l-506 -1175q-82 -190 -200.5 -265t-294.5 -75q-84 0 -213 27l41 219 q92 -14 168 -15q98 0 156.5 40t99.5 149l6 14h-227l-80 1081h338l8 -852h45z" glyph-name="uni1EF9" horiz-adv-x="1071" unicode="ỹ"/><glyph glyph-name="uni2009" horiz-adv-x="204" unicode=" "/><glyph d="M168 756h969l-43 -242h-971z" glyph-name="endash" horiz-adv-x="1232" unicode="–"/><glyph d="M168 756h1548l-43 -242h-1550z" glyph-name="emdash" horiz-adv-x="1812" unicode="—"/><glyph d="M94 31h1129l-37 -209h-1131zM41 -268h1128l-36 -209h-1129z" glyph-name="underscoredbl" horiz-adv-x="1499" unicode="‗"/><glyph d="M702 1569l-196 -395h143l-61 -345h-357l62 345l199 395h210z" glyph-name="quoteleft" horiz-adv-x="727" unicode="‘"/><glyph d="M365 1569h356l-62 -342l-198 -398h-211l196 398h-143z" glyph-name="quoteright" horiz-adv-x="727" unicode="’"/><glyph d="M147 342h357l-60 -342l-200 -397h-211l198 397h-143z" glyph-name="quotesinglbase" horiz-adv-x="727" unicode="‚"/><glyph d="M436 1569h211l-196 -395h143l-62 -345h-356l62 345zM1135 1569l-197 -395h143l-61 -345h-356l61 345l199 395h211z" glyph-name="quotedblleft" horiz-adv-x="1103" unicode="“"/><glyph d="M246 1227l61 342h357l-62 -342l-199 -398h-210l196 398h-143zM795 1569h356l-61 -342l-199 -398h-211l197 398h-144z" glyph-name="quotedblright" horiz-adv-x="1103" unicode="”"/><glyph d="M31 0l59 342h356l-59 -342l-201 -397h-211l199 397h-143zM578 342h356l-60 -342l-200 -397h-211l199 397h-144z" glyph-name="quotedblbase" horiz-adv-x="1103" unicode="„"/><glyph d="M1161 961l-41 -242h-375l-190 -1088h-289l191 1088h-371l41 242h373l92 520h289l-93 -520h373z" glyph-name="dagger" horiz-adv-x="1146" unicode="†"/><glyph d="M1145 741h-375l-63 -370h374l-43 -240h-374l-89 -500h-288l88 500h-371l43 240h371l63 370h-370l43 242h370l88 498h289l-88 -498h375z" glyph-name="daggerdbl" horiz-adv-x="1189" unicode="‡"/><glyph d="M459 375q-137 0 -229.5 93t-92.5 228q0 158 119 277t279 119q137 0 230 -92.5t93 -227.5q0 -160 -119.5 -278.5t-279.5 -118.5z" glyph-name="bullet" horiz-adv-x="935" unicode="•"/><glyph d="M88 0l59 342h357l-60 -342h-356zM700 0l62 342h356l-61 -342h-357zM1317 0l59 342h357l-60 -342h-356z" glyph-name="ellipsis" horiz-adv-x="1955" unicode="…"/><glyph d="M195 -20l1140 1474h244l-1141 -1474h-243zM444 602q-145 0 -208.5 67.5t-63.5 200.5q0 109 34 248t87 217q78 111 248 111q145 0 207.5 -66.5t62.5 -197.5q0 -111 -34 -252.5t-89 -218.5q-74 -109 -244 -109zM444 776q43 0 66 31q31 45 58.5 183t27.5 210 q0 43 -13.5 57.5t-43.5 14.5q-43 0 -66 -31q-31 -45 -58.5 -181t-27.5 -210q0 -43 13 -58.5t44 -15.5zM1243 -12q-145 0 -208.5 67.5t-63.5 200.5q0 109 33.5 248t87.5 217q78 111 247 110q145 0 208 -66.5t63 -197.5q0 -109 -35 -251t-88 -220q-74 -108 -244 -108z M1931 -12q-145 0 -208.5 67.5t-63.5 200.5q0 109 33.5 248t87.5 217q78 111 248 110q145 0 207.5 -66.5t62.5 -197.5q0 -111 -34 -252t-87 -219q-76 -108 -246 -108zM1243 162q43 0 66 31q31 45 58.5 183t27.5 210q0 43 -13.5 57t-44.5 14q-43 0 -65 -30 q-31 -45 -58.5 -180.5t-27.5 -210.5q0 -43 13 -58.5t44 -15.5zM1931 162q43 0 66 31q31 45 58.5 183t27.5 210q0 41 -13.5 56t-41.5 15q-45 0 -68 -30q-31 -45 -57.5 -181.5t-26.5 -209.5q0 -43 13 -58.5t42 -15.5z" glyph-name="perthousand" horiz-adv-x="2410" unicode="‰"/><glyph d="M582 1100l-39 -252l-305 -279l200 -270l-39 -254l-370 389l22 156l21 123z" glyph-name="guilsinglleft" horiz-adv-x="575" unicode="‹"/><glyph d="M180 1100l373 -387l-21 -127l-22 -152l-510 -389l37 254l307 279l-203 270z" glyph-name="guilsinglright" horiz-adv-x="575" unicode="›"/><glyph d="M-59 -41l862 1516h231l-864 -1516h-229z" glyph-name="fraction" horiz-adv-x="917" unicode="⁄"/><glyph d="M961 1176q-174 0 -246 -105q-29 -45 -53 -108h368l-31 -179h-391q-10 -39 -22 -116h332l-33 -179h-322v-36q0 -113 43 -154t148 -41q143 0 250 47l16 -278q-117 -47 -291 -47q-276 0 -394 116.5t-118 352.5v40h-141l30 179h130q12 78 20 116h-129l31 179h145 q51 166 125 276q82 119 203 167t293 48q174 0 299 -51l-54 -264q-79 37 -208 37z" glyph-name="Euro" horiz-adv-x="1198" unicode="€"/><glyph d="M1870 614q-184 0 -262 75t-78 220q0 98 28.5 212t79.5 186q96 137 326 137q182 0 261 -75t79 -220q0 -98 -28.5 -212t-80.5 -185q-96 -138 -325 -138zM1108 1434h309l-252 -1434h-491l-90 1042h-27l-182 -1042h-307l251 1434h496l86 -1039h25zM1870 1212 q-29 -39 -51.5 -149.5t-22.5 -175.5q0 -45 17.5 -61.5t56.5 -16.5q66 0 90 37q27 41 51.5 152.5t24.5 172.5q0 45 -17.5 61.5t-58.5 16.5q-61 0 -90 -37zM1409 287l39 225h752l-39 -225h-752z" glyph-name="afii61352" horiz-adv-x="2289" unicode="№"/><glyph d="M643 1294h-147l-101 -577h-182l100 577h-147l24 140h476zM1448 1434l-125 -717h-168l88 510l-156 -344h-159l-39 344h-8l-88 -510h-166l125 717h233l47 -377h4l174 377h238z" glyph-name="trademark" horiz-adv-x="1427" unicode="™"/><glyph d="M1178 1475h231l-864 -1516h-230zM557 557h-530l30 176h162l92 520l-151 -43v172l182 52h219l-123 -701h150zM1192 877h539l-33 -191l-406 -686h-227l416 698v2h-318z" glyph-name="uni2150" horiz-adv-x="1699" unicode="⅐"/><glyph d="M1178 1475h231l-864 -1516h-230zM557 557h-530l30 176h162l92 520l-151 -43v172l182 52h219l-123 -701h150zM1425 889q150 0 211.5 -54.5t61.5 -168.5q0 -205 -156 -424q-82 -123 -209 -242h-256q117 115 213 227q55 68 74 99h-12q-27 -8 -70 -9q-205 0 -205 199 q0 164 76 275q69 98 272 98zM1442 508q39 55 39 145q0 61 -68 62q-59 0 -84 -35q-39 -57 -39 -148q0 -61 64 -61q59 0 88 37z" glyph-name="uni2151" horiz-adv-x="1718" unicode="⅑"/><glyph d="M1178 1475h231l-864 -1516h-230zM557 557h-530l30 176h162l92 520l-151 -43v172l182 52h219l-123 -701h150zM2060 891q147 0 213 -70.5t66 -208.5q0 -119 -36 -272.5t-95 -237.5q-80 -115 -256 -114q-152 0 -217.5 70.5t-65.5 211.5q0 119 36 269.5t95 234.5 q82 117 260 117zM1559 877l-123 -701h149l-31 -176h-530l31 176h162l92 520l-152 -43v172l182 52h220zM2025 190q35 47 64 203t29 242q0 47 -14.5 65.5t-47.5 18.5q-47 0 -71 -33q-35 -49 -64 -200.5t-29 -235.5q0 -51 15.5 -71.5t50.5 -20.5q42 -1 67 32z" glyph-name="uni2152" horiz-adv-x="2392" unicode="⅒"/><glyph d="M1178 1475h231l-864 -1516h-230zM557 557h-530l30 176h162l92 520l-151 -43v172l182 52h219l-123 -701h150zM1542 451q76 -41 76 -140q0 -125 -64 -219q-74 -104 -288 -104q-152 0 -240 39l29 168q61 -27 180 -27q96 0 131 47q29 41 29 100q0 37 -19.5 49.5t-66.5 12.5 h-125l26 158h103q70 0 98 38q27 41 27 91q0 33 -18.5 44t-61.5 11q-92 0 -182 -33v180q74 25 210 25q279 0 279 -193q0 -109 -49 -180q-27 -35 -72 -57z" glyph-name="onethird" horiz-adv-x="1710" unicode="⅓"/><glyph d="M1206 1475h232l-865 -1516h-229zM612 733l-30 -176h-555l28 166q14 84 46 135t116 115l201 153q53 43 53 93q0 31 -19.5 41t-66.5 10q-61 0 -168 -19l-4 179q117 18 205 18q281 0 280 -207q0 -141 -123 -235l-198 -152q-72 -57 -86 -121h321zM1571 451q76 -41 76 -140 q0 -125 -64 -219q-74 -104 -289 -104q-152 0 -239 39l28 168q61 -27 181 -27q96 0 131 47q29 41 28 100q0 37 -19.5 49.5t-66.5 12.5h-125l27 158h102q70 0 99 38q27 41 26 91q0 33 -18 44t-62 11q-92 0 -182 -33v180q74 25 211 25q279 0 279 -193q0 -109 -49 -180 q-27 -35 -72 -57z" glyph-name="twothirds" horiz-adv-x="1738" unicode="⅔"/><glyph d="M1178 1475h231l-864 -1516h-230zM557 557h-530l30 176h162l92 520l-151 -43v172l182 52h219l-123 -701h150zM1657 700h-271l-30 -151q143 -2 203.5 -50t60.5 -151q0 -150 -70 -250q-74 -111 -299 -110q-154 0 -233 35l20 172q55 -23 174 -23q115 0 154 51q31 45 31 103 q0 35 -21.5 48t-70.5 13h-205l102 490h484z" glyph-name="uni2155" horiz-adv-x="1701" unicode="⅕"/><glyph d="M1206 1475h232l-865 -1516h-229zM612 733l-30 -176h-555l28 166q14 84 46 135t116 115l201 153q53 43 53 93q0 31 -19.5 41t-66.5 10q-61 0 -168 -19l-4 179q117 18 205 18q281 0 280 -207q0 -141 -123 -235l-198 -152q-72 -57 -86 -121h321zM1686 700h-271l-31 -151 q143 -2 204 -50t61 -151q0 -150 -70 -250q-74 -111 -299 -110q-154 0 -233 35l20 172q55 -23 174 -23q115 0 154 51q31 45 30 103q0 35 -21.5 48t-70.5 13h-205l103 490h483z" glyph-name="uni2156" horiz-adv-x="1730" unicode="⅖"/><glyph d="M1159 1475h232l-865 -1516h-229zM565 649q-74 -104 -289 -104q-152 0 -239 39l29 168q61 -27 180 -27q96 0 131 47q29 41 29 100q0 37 -20.5 49.5t-66.5 12.5h-124l26 158h103q70 0 98 38q27 41 27 91q0 33 -18.5 44t-61.5 11q-92 0 -183 -33v180q74 25 211 25 q279 0 279 -193q0 -109 -49 -180q-27 -35 -72 -57l-2 -10q76 -41 76 -140q-1 -125 -64 -219zM1638 700h-270l-31 -151q143 -2 204 -50t61 -151q0 -150 -70 -250q-74 -111 -299 -110q-154 0 -234 35l21 172q55 -23 174 -23q115 0 154 51q31 45 30 103q0 35 -21.5 48t-70.5 13 h-205l103 490h483z" glyph-name="uni2157" horiz-adv-x="1683" unicode="⅗"/><glyph d="M1292 1475h232l-865 -1516h-229zM606 557h-194l28 166h-372l36 203l293 508h203l-291 -531v-4h162l43 242h195l-43 -242h84l-33 -176h-82zM1772 700h-271l-31 -151q143 -2 204 -50t61 -151q0 -150 -70 -250q-74 -111 -299 -110q-154 0 -233 35l20 172q55 -23 174 -23 q115 0 154 51q31 45 30 103q0 35 -21.5 48t-70.5 13h-205l103 490h483z" glyph-name="uni2158" horiz-adv-x="1816" unicode="⅘"/><glyph d="M1178 1475h231l-864 -1516h-230zM557 557h-530l30 176h162l92 520l-151 -43v172l182 52h219l-123 -701h150zM1362 559q205 0 205 -199q0 -164 -76 -274q-70 -98 -272 -98q-150 0 -212.5 54t-62.5 169q0 199 156 424q86 123 211 242h256q-117 -115 -213 -228 q-55 -68 -74 -98h12q27 8 70 8zM1315 197q39 57 39 147q0 35 -15.5 48.5t-50.5 13.5q-59 0 -88 -37q-37 -57 -37 -146q0 -61 68 -61q55 0 84 35z" glyph-name="uni2159" horiz-adv-x="1638" unicode="⅙"/><glyph d="M1188 1475h231l-864 -1516h-229zM598 655q-74 -111 -299 -110q-154 0 -233 35l20 172q55 -23 174 -23q115 0 154 51q31 45 30 103q0 35 -21.5 48t-70.5 13h-205l103 490h483l-28 -177h-271l-31 -151q143 -2 204 -50t61 -151q0 -150 -70 -250zM1372 559q205 0 205 -199 q0 -164 -76 -274q-70 -98 -272 -98q-150 0 -212.5 54t-62.5 169q0 199 156 424q86 123 211 242h256q-117 -115 -213 -228q-55 -68 -74 -98h13q26 8 69 8zM1325 197q39 57 39 147q0 35 -15.5 48.5t-50.5 13.5q-61 0 -88 -37q-37 -57 -36 -146q0 -61 67 -61q55 0 84 35z" glyph-name="uni215A" horiz-adv-x="1648" unicode="⅚"/><glyph d="M1178 1475h231l-864 -1516h-230zM557 557h-530l30 176h162l92 520l-151 -43v172l182 52h219l-123 -701h150zM1550 449q100 -43 101 -162q0 -115 -58 -197q-74 -102 -293 -102q-154 0 -226.5 49t-72.5 158q0 117 54 188q45 57 123 78l2 8q-80 43 -80 145q0 109 53 185 q66 92 270 92q145 0 210 -49t65 -146q0 -102 -49 -176q-31 -45 -99 -67v-4zM1329 694q-29 -41 -29 -112q0 -33 16.5 -45.5t53.5 -12.5q68 0 90 35q29 41 29 113q0 33 -15.5 43t-56.5 10q-65 0 -88 -31zM1403 195q31 45 31 120q0 37 -18.5 50.5t-59.5 13.5q-68 0 -94 -37 q-33 -41 -33 -123q0 -35 18.5 -47t59.5 -12q73 0 96 35z" glyph-name="oneeighth" horiz-adv-x="1746" unicode="⅛"/><glyph d="M1159 1475h232l-865 -1516h-229zM565 649q-74 -104 -289 -104q-152 0 -239 39l29 168q61 -27 180 -27q96 0 131 47q29 41 29 100q0 37 -20.5 49.5t-66.5 12.5h-124l26 158h103q70 0 98 38q27 41 27 91q0 33 -18.5 44t-61.5 11q-92 0 -183 -33v180q74 25 211 25 q279 0 279 -193q0 -109 -49 -180q-27 -35 -72 -57l-2 -10q76 -41 76 -140q-1 -125 -64 -219zM1532 449q100 -43 100 -162q0 -115 -57 -197q-74 -102 -293 -102q-154 0 -226.5 49t-72.5 158q0 117 53 188q45 57 123 78l2 8q-80 43 -80 145q0 109 54 185q66 92 270 92 q145 0 209.5 -49t64.5 -146q0 -102 -49 -176q-31 -45 -98 -67v-4zM1311 694q-29 -41 -29 -112q0 -33 16.5 -45.5t53.5 -12.5q68 0 90 35q29 41 28 113q0 33 -15 43t-56 10q-65 0 -88 -31zM1384 195q31 45 31 120q0 37 -18.5 50.5t-59.5 13.5q-68 0 -94 -37q-33 -41 -33 -123 q0 -35 18.5 -47t59.5 -12q73 0 96 35z" glyph-name="threeeighths" horiz-adv-x="1728" unicode="⅜"/><glyph d="M1188 1475h231l-864 -1516h-229zM598 655q-74 -111 -299 -110q-154 0 -233 35l20 172q55 -23 174 -23q115 0 154 51q31 45 30 103q0 35 -21.5 48t-70.5 13h-205l103 490h483l-28 -177h-271l-31 -151q143 -2 204 -50t61 -151q0 -150 -70 -250zM1561 449q100 -43 100 -162 q0 -115 -57 -197q-74 -102 -293 -102q-154 0 -226.5 49t-72.5 158q0 117 53 188q45 57 123 78l2 8q-80 43 -80 145q0 109 53 185q66 92 271 92q145 0 209.5 -49t64.5 -146q0 -102 -49 -176q-31 -45 -98 -67v-4zM1339 694q-29 -41 -28 -112q0 -33 16 -45.5t53 -12.5 q68 0 90 35q29 41 29 113q0 33 -15.5 43t-56.5 10q-65 0 -88 -31zM1413 195q31 45 31 120q0 37 -18.5 50.5t-59.5 13.5q-68 0 -94 -37q-33 -41 -33 -123q0 -35 18.5 -47t59.5 -12q73 0 96 35z" glyph-name="fiveeighths" horiz-adv-x="1757" unicode="⅝"/><glyph d="M1030 1475h232l-865 -1516h-229zM45 557l416 698v2h-318l29 177h539l-33 -191l-406 -686h-227zM1403 449q100 -43 100 -162q0 -115 -57 -197q-74 -102 -293 -102q-154 0 -226.5 49t-72.5 158q0 117 53 188q45 57 123 78l2 8q-80 43 -80 145q0 109 54 185q66 92 270 92 q145 0 209.5 -49t64.5 -146q0 -102 -49 -176q-31 -45 -98 -67v-4zM1182 694q-29 -41 -29 -112q0 -33 16.5 -45.5t53.5 -12.5q68 0 90 35q29 41 28 113q0 33 -15 43t-56 10q-65 0 -88 -31zM1255 195q31 45 31 120q0 37 -18.5 50.5t-59.5 13.5q-68 0 -94 -37q-33 -41 -33 -123 q0 -35 18.5 -47t59.5 -12q73 0 96 35z" glyph-name="seveneighths" horiz-adv-x="1599" unicode="⅞"/><glyph d="M1178 1475h231l-864 -1516h-230zM557 557h-530l30 176h162l92 520l-151 -43v172l182 52h219l-123 -701h150z" glyph-name="uni215F" horiz-adv-x="1292" unicode="⅟"/><glyph d="M172 702h995l-45 -253h-995z" glyph-name="minus" horiz-adv-x="1290" unicode="−"/><glyph d="M315 567l-174 60q25 135 124.5 230t230.5 95q90 0 170 -53l133 -88q33 -20 63 -20q88 0 139 143l173 -60q-25 -139 -125.5 -233t-229.5 -94q-86 0 -170 53l-133 90q-31 18 -63 19q-87 -1 -138 -142zM315 137l-174 60q25 135 124.5 230t230.5 95q90 0 170 -53l133 -88 q33 -20 63 -21q88 0 139 144l173 -60q-25 -139 -125.5 -233t-229.5 -94q-86 0 -170 53l-133 90q-31 18 -63 19q-87 -1 -138 -142z" glyph-name="approxequal" horiz-adv-x="1290" unicode="≈"/><glyph d="M1155 662h-336l-82 -162h389l-45 -252h-473l-121 -236h-254l121 236h-256l45 252h340l82 162h-393l45 253h477l117 228h254l-117 -228h250z" glyph-name="notequal" horiz-adv-x="1290" unicode="≠"/><glyph d="M1182 1044l-674 -206l-6 -35l600 -207l-49 -281l-844 316l63 377l957 317zM88 -41l45 254h901l-45 -254h-901z" glyph-name="lessequal" horiz-adv-x="1290" unicode="≤"/><glyph d="M330 1325l844 -317l-64 -377l-958 -316l49 281l673 207l7 33l-600 208zM88 -41l45 254h901l-45 -254h-901z" glyph-name="greaterequal" horiz-adv-x="1290" unicode="≥"/><glyph d="M829 -20q-297 0 -480 181t-183 476q0 342 233.5 579.5t581.5 237.5q297 0 480.5 -181t183.5 -476q0 -342 -234 -579.5t-582 -237.5zM844 115q276 0 460.5 197.5t184.5 473.5q0 240 -144.5 386.5t-375.5 146.5q-276 0 -461.5 -199.5t-185.5 -474.5q0 -238 144.5 -384 t377.5 -146zM571 291l31 176h164l90 520l-158 -43l2 172l189 51h221l-125 -700h148l-31 -176h-531z" glyph-name="uni2460" horiz-adv-x="1751" unicode="①"/><glyph d="M829 -20q-297 0 -480 181t-183 476q0 342 233.5 579.5t581.5 237.5q297 0 480.5 -181t183.5 -476q0 -342 -234 -579.5t-582 -237.5zM844 115q276 0 460.5 197.5t184.5 473.5q0 240 -144.5 386.5t-375.5 146.5q-276 0 -461.5 -199.5t-185.5 -474.5q0 -238 144.5 -384 t377.5 -146zM553 291l25 143q16 80 54 136.5t113 115.5l199 152q49 35 49 92q0 43 -26.5 59.5t-87.5 16.5q-66 0 -156 -17l33 170q119 20 213 21q139 0 200.5 -38t61.5 -128q0 -147 -144 -258l-200 -152q-55 -43 -66 -115l-4 -22h320l-31 -176h-553z" glyph-name="uni2461" horiz-adv-x="1751" unicode="②"/><glyph d="M829 -20q-297 0 -480 181t-183 476q0 342 233.5 579.5t581.5 237.5q297 0 480.5 -181t183.5 -476q0 -342 -234 -579.5t-582 -237.5zM844 115q276 0 460.5 197.5t184.5 473.5q0 240 -144.5 386.5t-375.5 146.5q-276 0 -461.5 -199.5t-185.5 -474.5q0 -238 144.5 -384 t377.5 -146zM797 276q-156 0 -230 37l64 183q70 -37 186 -37q82 0 107 35q25 37 24 98q0 76 -92 76h-119l29 157h125q53 0 76 29q25 35 24 90q0 39 -26.5 52.5t-85.5 13.5q-94 0 -162 -21l31 160q74 31 225 31q131 0 193.5 -37t62.5 -121q0 -115 -55 -188q-33 -43 -76 -66 l-2 -10q84 -39 84 -131q0 -129 -70 -224q-90 -127 -313 -127z" glyph-name="uni2462" horiz-adv-x="1751" unicode="③"/><glyph d="M829 -20q-297 0 -480 181t-183 476q0 342 233.5 579.5t581.5 237.5q297 0 480.5 -181t183.5 -476q0 -342 -234 -579.5t-582 -237.5zM844 115q276 0 460.5 197.5t184.5 473.5q0 240 -144.5 386.5t-375.5 146.5q-276 0 -461.5 -199.5t-185.5 -474.5q0 -238 144.5 -384 t377.5 -146zM862 295l29 166h-371l37 203l297 507h193l-287 -516l-2 -18h164l43 242h192l-43 -242h84l-29 -176h-84l-30 -166h-193z" glyph-name="uni2463" horiz-adv-x="1751" unicode="④"/><glyph d="M829 -20q-297 0 -480 181t-183 476q0 342 233.5 579.5t581.5 237.5q297 0 480.5 -181t183.5 -476q0 -342 -234 -579.5t-582 -237.5zM844 115q276 0 460.5 197.5t184.5 473.5q0 240 -144.5 386.5t-375.5 146.5q-276 0 -461.5 -199.5t-185.5 -474.5q0 -238 144.5 -384 t377.5 -146zM760 276q-119 0 -215 33l57 185q80 -31 180.5 -31t126.5 37q27 35 27 100q0 43 -22.5 60.5t-79.5 17.5h-189l103 489h483l-31 -176h-268l-33 -151h14q143 0 202 -38t59 -126q0 -63 -24 -143t-60 -132q-88 -125 -330 -125z" glyph-name="uni2464" horiz-adv-x="1751" unicode="⑤"/><glyph d="M829 -20q-297 0 -480 181t-183 476q0 342 233.5 579.5t581.5 237.5q297 0 480.5 -181t183.5 -476q0 -342 -234 -579.5t-582 -237.5zM844 115q276 0 460.5 197.5t184.5 473.5q0 240 -144.5 386.5t-375.5 146.5q-276 0 -461.5 -199.5t-185.5 -474.5q0 -238 144.5 -384 t377.5 -146zM805 287q-131 0 -194.5 45t-63.5 149q0 195 178 455q86 123 203 242h229q-88 -80 -149 -158q-47 -57 -136 -180h17q51 18 121 18q88 0 130 -37t42 -121q0 -70 -23.5 -154.5t-62.5 -139.5q-82 -119 -291 -119zM846 463q53 0 74 29q37 53 36 145q0 39 -17 53.5 t-56 14.5q-57 0 -76 -27q-39 -49 -39 -152q0 -35 18.5 -49t59.5 -14z" glyph-name="uni2465" horiz-adv-x="1751" unicode="⑥"/><glyph d="M829 -20q-297 0 -480 181t-183 476q0 342 233.5 579.5t581.5 237.5q297 0 480.5 -181t183.5 -476q0 -342 -234 -579.5t-582 -237.5zM844 115q276 0 460.5 197.5t184.5 473.5q0 240 -144.5 386.5t-375.5 146.5q-276 0 -461.5 -199.5t-185.5 -474.5q0 -238 144.5 -384 t377.5 -146zM606 268l408 680l4 21h-320l31 176h537l-35 -191l-412 -686h-213z" glyph-name="uni2466" horiz-adv-x="1751" unicode="⑦"/><glyph d="M829 -20q-297 0 -480 181t-183 476q0 342 233.5 579.5t581.5 237.5q297 0 480.5 -181t183.5 -476q0 -342 -234 -579.5t-582 -237.5zM844 115q276 0 460.5 197.5t184.5 473.5q0 240 -144.5 386.5t-375.5 146.5q-276 0 -461.5 -199.5t-185.5 -474.5q0 -238 144.5 -384 t377.5 -146zM807 279q-145 0 -205.5 40.5t-60.5 126.5q0 123 61 213q33 53 109 76l2 13q-74 35 -74 116q0 111 63 201q80 117 304 117q135 0 189 -39t54 -119q0 -111 -55 -186q-43 -59 -104 -80l-3 -13q113 -41 113 -143q0 -106 -63 -199q-92 -124 -330 -124zM922 815 q61 0 84 35q27 43 26 106q0 35 -17.5 47.5t-56.5 12.5q-63 0 -84 -29q-29 -45 -28.5 -108.5t76.5 -63.5zM856 451q66 0 92 32q31 51 31 119t-82 68q-66 0 -92 -37q-31 -41 -31 -117q0 -37 19.5 -51t62.5 -14z" glyph-name="uni2467" horiz-adv-x="1751" unicode="⑧"/><glyph d="M829 -20q-297 0 -480 181t-183 476q0 342 233.5 579.5t581.5 237.5q297 0 480.5 -181t183.5 -476q0 -342 -234 -579.5t-582 -237.5zM844 115q276 0 460.5 197.5t184.5 473.5q0 240 -144.5 386.5t-375.5 146.5q-276 0 -461.5 -199.5t-185.5 -474.5q0 -238 144.5 -384 t377.5 -146zM637 281q76 72 149 159q57 72 134 178h-17q-51 -18 -119 -18q-90 0 -132 37t-42 123q0 70 24.5 154.5t63.5 140.5q80 117 289 116q133 0 196.5 -45t63.5 -149q0 -193 -178 -453q-80 -115 -205 -243h-227zM909 754q57 0 78 26q14 23 25.5 72t11.5 80 q0 37 -17.5 51t-60.5 14q-51 0 -74 -30q-37 -53 -36 -146q0 -39 17 -53t56 -14z" glyph-name="uni2468" horiz-adv-x="1751" unicode="⑨"/><glyph d="M829 -20q-297 0 -480 181t-183 476q0 342 233.5 579.5t581.5 237.5q297 0 480.5 -181t183.5 -476q0 -342 -234 -579.5t-582 -237.5zM844 115q276 0 460.5 197.5t184.5 473.5q0 240 -144.5 386.5t-375.5 146.5q-276 0 -461.5 -199.5t-185.5 -474.5q0 -238 144.5 -384 t377.5 -146zM854 276q-152 0 -216.5 71t-64.5 210q0 119 36 270.5t93 235.5q84 117 261 117q147 0 211.5 -70t64.5 -209q0 -121 -35 -273.5t-94 -234.5q-80 -117 -256 -117zM856 449q45 0 72 34q33 49 63.5 203t30.5 236q0 88 -66 88q-45 0 -69 -33q-35 -49 -64.5 -201.5 t-29.5 -236.5q0 -90 63 -90z" glyph-name="uni24EA" horiz-adv-x="1751" unicode="⓪"/><glyph d="M829 -20q-297 0 -480 181t-183 476q0 342 233.5 579.5t581.5 237.5q297 0 480.5 -181t183.5 -476q0 -342 -234 -579.5t-582 -237.5zM811 276q201 0 295 138q63 92 102 247.5t39 274.5q0 125 -56 184.5t-192 59.5q-197 0 -294 -138q-63 -90 -101.5 -244.5t-38.5 -275.5 q0 -125 56.5 -185.5t189.5 -60.5zM856 449q-66 0 -65 90q0 84 30.5 236.5t65.5 201.5q25 33 69 33q63 0 64 -90q0 -80 -29.5 -235t-62.5 -204q-27 -32 -72 -32z" glyph-name="uni24FF" horiz-adv-x="1751" unicode="⓿"/><glyph d="M829 -20q-297 0 -480 181t-183 476q0 342 233.5 579.5t581.5 237.5q297 0 480.5 -181t183.5 -476q0 -342 -234 -579.5t-582 -237.5zM571 291h531l31 176h-148l125 700h-221l-189 -51l-2 -172l158 43l-90 -520h-164z" glyph-name="uni2776" horiz-adv-x="1751" unicode="❶"/><glyph d="M829 -20q-297 0 -480 181t-183 476q0 342 233.5 579.5t581.5 237.5q297 0 480.5 -181t183.5 -476q0 -342 -234 -579.5t-582 -237.5zM553 291h553l31 176h-320l2 22q12 72 72 117l196 150q143 111 144 260q0 88 -61.5 126t-200.5 38q-96 0 -213 -21l-33 -170q90 16 156 17 q61 0 87.5 -16.5t26.5 -59.5q0 -57 -49 -92l-174 -133q-96 -72 -137 -130.5t-55 -140.5z" glyph-name="uni2777" horiz-adv-x="1751" unicode="❷"/><glyph d="M829 -20q-297 0 -480 181t-183 476q0 342 233.5 579.5t581.5 237.5q297 0 480.5 -181t183.5 -476q0 -342 -234 -579.5t-582 -237.5zM795 276q221 0 315 130q70 90 70 221q0 92 -84 131l2 10q43 23 76 68q53 78 53 182q0 162 -254 162q-152 0 -225 -31l-31 -160 q53 20 172 21q51 0 76.5 -13.5t25.5 -54.5q0 -51 -24 -88q-20 -29 -76 -29h-125l-29 -157h119q92 0 92 -76q0 -66 -26 -100q-23 -33 -103 -33q-119 0 -188 37l-64 -183q74 -37 228 -37z" glyph-name="uni2778" horiz-adv-x="1751" unicode="❸"/><glyph d="M829 -20q-297 0 -480 181t-183 476q0 342 233.5 579.5t581.5 237.5q297 0 480.5 -181t183.5 -476q0 -342 -234 -579.5t-582 -237.5zM862 295h193l30 166h84l29 176h-84l43 242h-192l-43 -242h-164l2 18l287 516h-193l-297 -507l-37 -203h371z" glyph-name="uni2779" horiz-adv-x="1751" unicode="❹"/><glyph d="M829 -20q-297 0 -480 181t-183 476q0 342 233.5 579.5t581.5 237.5q297 0 480.5 -181t183.5 -476q0 -342 -234 -579.5t-582 -237.5zM764 276q172 0 260 62q70 49 110 145.5t40 184.5q0 92 -58.5 132t-202.5 40h-14l33 151h268l31 176h-483l-103 -489h189q57 0 79.5 -17.5 t22.5 -62.5q0 -88 -43 -117q-29 -18 -107 -18q-104 0 -184 31l-57 -185q96 -33 219 -33z" glyph-name="uni277A" horiz-adv-x="1751" unicode="❺"/><glyph d="M829 -20q-297 0 -480 181t-183 476q0 342 233.5 579.5t581.5 237.5q297 0 480.5 -181t183.5 -476q0 -342 -234 -579.5t-582 -237.5zM805 287q141 0 225 55q72 49 111 152.5t39 197.5q0 88 -43 128t-131 40q-70 0 -117 -18h-17q72 106 134 178q82 96 151 158h-229 q-76 -78 -123 -138q-258 -315 -258 -548q0 -109 63.5 -157t194.5 -48zM840 463q-39 0 -55.5 15.5t-16.5 53.5q0 41 13.5 92.5t39.5 69.5q16 12 62 13q39 0 56 -15.5t17 -54.5q0 -41 -14 -91t-39 -69q-18 -14 -63 -14z" glyph-name="uni277B" horiz-adv-x="1751" unicode="❻"/><glyph d="M829 -20q-297 0 -480 181t-183 476q0 342 233.5 579.5t581.5 237.5q297 0 480.5 -181t183.5 -476q0 -342 -234 -579.5t-582 -237.5zM610 289h213l410 686l37 190h-539l-31 -176h320l-4 -20z" glyph-name="uni277C" horiz-adv-x="1751" unicode="❼"/><glyph d="M829 -20q-297 0 -480 181t-183 476q0 342 233.5 579.5t581.5 237.5q297 0 480.5 -181t183.5 -476q0 -342 -234 -579.5t-582 -237.5zM807 279q172 0 264 63q57 41 93 113.5t36 140.5q0 109 -113 149l3 13q25 8 49 24q109 78 108 232q0 84 -55 126t-191 42q-156 0 -241 -58 q-57 -41 -89 -112.5t-32 -141.5q0 -88 74 -122l-2 -13q-31 -8 -62 -28q-51 -39 -76.5 -109t-25.5 -139q0 -90 58.5 -135t201.5 -45zM922 815q-76 0 -76 66q0 90 45 120q23 14 67 15q39 0 56.5 -13.5t17.5 -48.5q0 -92 -45 -123q-22 -16 -65 -16zM858 451q-45 0 -64.5 14 t-19.5 53q0 98 51 135q27 16 68 17q86 0 86 -70q0 -100 -47 -133q-25 -16 -74 -16z" glyph-name="uni277D" horiz-adv-x="1751" unicode="❽"/><glyph d="M829 -20q-297 0 -480 181t-183 476q0 342 233.5 579.5t581.5 237.5q297 0 480.5 -181t183.5 -476q0 -342 -234 -579.5t-582 -237.5zM637 281h231q66 72 121 139q260 317 260 549q0 109 -64.5 155.5t-195.5 46.5q-141 0 -223 -53q-74 -49 -113 -151.5t-39 -198.5 q0 -88 43 -128t131 -40q70 0 117 18h17q-59 -90 -134 -178q-81 -93 -151 -159zM911 754q-39 0 -56 14t-17 55t14 91.5t39 68.5q18 14 63 14q39 0 55.5 -15t16.5 -54q0 -41 -13.5 -92.5t-37.5 -69.5q-17 -12 -64 -12z" glyph-name="uni277E" horiz-adv-x="1751" unicode="❾"/><glyph d="M334 1587h280l-45 -260h-282zM557 1126l-199 -1126h-327l198 1126h328z" glyph-name="glyph593" horiz-adv-x="585"/><glyph d="M825 1126h326l-197 -1116l-288 -24l2 127h-19q-82 -133 -252 -133q-178 0 -258 95t-80 285.5t64.5 395.5t169.5 299q100 92 272 92q180 0 228 -123h14zM756 727q6 43 6 72q0 59 -28.5 83.5t-86.5 24.5q-90 0 -137 -59q-47 -66 -83 -227.5t-36 -268.5q0 -74 26.5 -103.5 t90.5 -29.5q80 0 128 45t66 152z" glyph-name="a.ss01" horiz-adv-x="1183"/><glyph d="M1143 1704l-334 -408h-221l256 408h299zM825 1126h326l-197 -1116l-288 -24l2 127h-19q-82 -133 -252 -133q-178 0 -258 95t-80 285.5t64.5 395.5t169.5 299q100 92 272 92q180 0 228 -123h14zM756 727q6 43 6 72q0 59 -28.5 83.5t-86.5 24.5q-90 0 -137 -59 q-47 -66 -83 -227.5t-36 -268.5q0 -74 26.5 -103.5t90.5 -29.5q80 0 128 45t66 152z" glyph-name="aacute.aalt" horiz-adv-x="1183"/><glyph d="M709 1272q-319 0 -320 237q0 39 10 95l4 24h199l-8 -41q-4 -25 -4 -35q0 -88 133 -88q84 0 125 33t59 117l2 14h199l-8 -49q-31 -176 -128 -241.5t-263 -65.5zM825 1126h326l-197 -1116l-288 -24l2 127h-19q-82 -133 -252 -133q-178 0 -258 95t-80 285.5t64.5 395.5 t169.5 299q100 92 272 92q180 0 228 -123h14zM756 727q6 43 6 72q0 59 -28.5 83.5t-86.5 24.5q-90 0 -137 -59q-47 -66 -83 -227.5t-36 -268.5q0 -74 26.5 -103.5t90.5 -29.5q80 0 128 45t66 152z" glyph-name="abreve.aalt" horiz-adv-x="1183"/><glyph d="M1196 2052l-334 -407h-221l256 407h299zM709 1272q-319 0 -320 237q0 39 10 95l4 24h199l-8 -41q-2 -14 -2 -37q0 -47 30.5 -66.5t96.5 -19.5q84 0 127 33t61 117l2 14h199l-8 -49q-31 -176 -128 -241.5t-263 -65.5zM807 1024l18 102h326l-197 -1116l-288 -24l2 127h-19 q-82 -133 -252 -133q-178 0 -258 95t-80 285.5t64.5 395.5t169.5 299q100 92 272 92q180 0 228 -123h14zM756 727q6 43 6 72q0 59 -28.5 83.5t-86.5 24.5q-90 0 -137 -59q-47 -66 -83 -227.5t-36 -268.5q0 -74 26.5 -103.5t90.5 -29.5q80 0 128 45t66 152z" glyph-name="uni1EAF.aalt" horiz-adv-x="1183"/><glyph d="M709 1272q-319 0 -320 237q0 39 10 95l4 24h199l-8 -41q-4 -25 -4 -35q0 -88 133 -88q84 0 125 33t59 117l2 14h199l-8 -49q-31 -176 -128 -241.5t-263 -65.5zM825 1126h326l-197 -1116l-288 -24l2 127h-19q-82 -133 -252 -133q-178 0 -258 95t-80 285.5t64.5 395.5 t169.5 299q100 92 272 92q180 0 228 -123h14zM756 727q6 43 6 72q0 59 -28.5 83.5t-86.5 24.5q-90 0 -137 -59q-47 -66 -83 -227.5t-36 -268.5q0 -74 26.5 -103.5t90.5 -29.5q80 0 128 45t66 152zM258 -399l45 260h283l-45 -260h-283z" glyph-name="uni1EB7.aalt" horiz-adv-x="1183"/><glyph d="M870 1645h-208l-191 407h287zM709 1272q-319 0 -320 237q0 39 10 95l4 24h199l-8 -41q-2 -14 -2 -37q0 -47 30.5 -66.5t96.5 -19.5q84 0 127 33t61 117l2 14h199l-8 -49q-31 -176 -128 -241.5t-263 -65.5zM825 1126h326l-197 -1116l-288 -24l2 127h-19 q-82 -133 -252 -133q-178 0 -258 95t-80 285.5t64.5 395.5t169.5 299q100 92 272 92q180 0 228 -123h14zM756 727q6 43 6 72q0 59 -28.5 83.5t-86.5 24.5q-90 0 -137 -59q-47 -66 -83 -227.5t-36 -268.5q0 -74 26.5 -103.5t90.5 -29.5q80 0 128 45t66 152z" glyph-name="uni1EB1.aalt" horiz-adv-x="1183"/><glyph d="M793 1833q41 29 49 39q8 8 8 24.5t-10.5 21.5t-44.5 5q-41 0 -111 -6l-8 143q94 12 168 13q113 0 160 -34t47 -100q0 -53 -17 -92q-12 -37 -59 -69l-86 -62q-57 -39 -68 -88h-149q14 86 30.5 123t51.5 59zM709 1272q-319 0 -320 237q0 39 10 95l4 24h199l-8 -41 q-2 -14 -2 -37q0 -47 30.5 -66.5t96.5 -19.5q84 0 127 33t61 117l2 14h199l-8 -49q-31 -176 -128 -241.5t-263 -65.5zM825 1126h326l-197 -1116l-288 -24l2 127h-19q-82 -133 -252 -133q-178 0 -258 95t-80 285.5t64.5 395.5t169.5 299q100 92 272 92q180 0 228 -123h14z M756 727q6 43 6 72q0 59 -28.5 83.5t-86.5 24.5q-90 0 -137 -59q-47 -66 -83 -227.5t-36 -268.5q0 -74 26.5 -103.5t90.5 -29.5q80 0 128 45t66 152z" glyph-name="uni1EB3.aalt" horiz-adv-x="1183"/><glyph d="M653 1821q-61 0 -96 -107h-147q23 135 100.5 220t177.5 85q72 0 135 -49l76 -61q29 -23 53 -23q57 0 92 107h148q-25 -141 -100.5 -222t-178.5 -81q-76 0 -133 47l-75 63q-23 21 -52 21zM709 1272q-174 0 -247 61.5t-73 175.5q0 51 8 95l6 24h199l-8 -41q-4 -14 -4 -37 q0 -47 30.5 -66.5t96.5 -19.5q84 0 128 33t62 117l2 14h199l-10 -49q-31 -176 -128 -241.5t-261 -65.5zM807 1024l18 102h326l-197 -1116l-288 -24l2 127h-19q-82 -133 -252 -133q-178 0 -258 95t-80 285.5t64.5 395.5t169.5 299q100 92 272 92q180 0 228 -123h14zM756 727 q6 43 6 72q0 59 -28.5 83.5t-86.5 24.5q-90 0 -137 -59q-47 -66 -83 -227.5t-36 -268.5q0 -74 26.5 -103.5t90.5 -29.5q80 0 128 45t66 152z" glyph-name="uni1EB5.aalt" horiz-adv-x="1183"/><glyph d="M547 1288l-193 408h219l150 -240l233 240h232l-338 -408h-303zM807 1024l18 102h326l-197 -1116l-288 -24l2 127h-19q-82 -133 -252 -133q-178 0 -258 95t-80 285.5t64.5 395.5t169.5 299q100 92 272 92q180 0 228 -123h14zM756 727q6 43 6 72q0 59 -28.5 83.5 t-86.5 24.5q-90 0 -137 -59q-47 -66 -83 -227.5t-36 -268.5q0 -74 26.5 -103.5t90.5 -29.5q80 0 128 45t66 152z" glyph-name="uni01CE.aalt" horiz-adv-x="1183"/><glyph d="M741 1528l-233 -240h-232l336 408h303l195 -408h-219zM825 1126h326l-197 -1116l-288 -24l2 127h-19q-82 -133 -252 -133q-178 0 -258 95t-80 285.5t64.5 395.5t169.5 299q100 92 272 92q180 0 228 -123h14zM756 727q6 43 6 72q0 59 -28.5 83.5t-86.5 24.5 q-90 0 -137 -59q-47 -66 -83 -227.5t-36 -268.5q0 -74 26.5 -103.5t90.5 -29.5q80 0 128 45t66 152z" glyph-name="acircumflex.aalt" horiz-adv-x="1183"/><glyph d="M1321 1944h299l-332 -408h-223zM741 1528l-233 -240h-232l336 408h303l195 -408h-219zM807 1024l18 102h326l-197 -1116l-288 -24l2 127h-19q-82 -133 -252 -133q-178 0 -258 95t-80 285.5t64.5 395.5t169.5 299q100 92 272 92q180 0 228 -123h14zM756 727q6 43 6 72 q0 59 -28.5 83.5t-86.5 24.5q-90 0 -137 -59q-47 -66 -83 -227.5t-36 -268.5q0 -74 26.5 -103.5t90.5 -29.5q80 0 128 45t66 152z" glyph-name="uni1EA5.aalt" horiz-adv-x="1183"/><glyph d="M741 1528l-233 -240h-232l336 408h303l195 -408h-219zM825 1126h326l-197 -1116l-288 -24l2 127h-19q-82 -133 -252 -133q-178 0 -258 95t-80 285.5t64.5 395.5t169.5 299q100 92 272 92q180 0 228 -123h14zM756 727q6 43 6 72q0 59 -28.5 83.5t-86.5 24.5 q-90 0 -137 -59q-47 -66 -83 -227.5t-36 -268.5q0 -74 26.5 -103.5t90.5 -29.5q80 0 128 45t66 152zM258 -399l45 260h283l-45 -260h-283z" glyph-name="uni1EAD.aalt" horiz-adv-x="1183"/><glyph d="M1337 1536h-207l-188 408h285zM741 1528l-233 -240h-232l336 408h303l195 -408h-219zM807 1024l18 102h326l-197 -1116l-288 -24l2 127h-19q-82 -133 -252 -133q-178 0 -258 95t-80 285.5t64.5 395.5t169.5 299q100 92 272 92q180 0 228 -123h14zM756 727q6 43 6 72 q0 59 -28.5 83.5t-86.5 24.5q-90 0 -137 -59q-47 -66 -83 -227.5t-36 -268.5q0 -74 26.5 -103.5t90.5 -29.5q80 0 128 45t66 152z" glyph-name="uni1EA7.aalt" horiz-adv-x="1183"/><glyph d="M1245 1980q113 0 159 -32.5t46 -98.5q0 -55 -16 -94q-12 -37 -60 -69l-86 -60q-53 -41 -67 -90h-150q14 86 31.5 123t52.5 59l37 25q41 23 49 37q8 8 8 26q0 16 -11 21.5t-44 5.5q-39 0 -111 -6l-8 141q94 12 170 12zM739 1528l-233 -240h-232l336 408h305l195 -408h-221 zM807 1024l18 102h326l-197 -1116l-288 -24l2 127h-19q-82 -133 -252 -133q-178 0 -258 95t-80 285.5t64.5 395.5t169.5 299q100 92 272 92q180 0 228 -123h14zM756 727q6 43 6 72q0 59 -28.5 83.5t-86.5 24.5q-90 0 -137 -59q-47 -66 -83 -227.5t-36 -268.5 q0 -74 26.5 -103.5t90.5 -29.5q80 0 128 45t66 152z" glyph-name="uni1EA9.aalt" horiz-adv-x="1183"/></font>
</defs>
</svg>
