<?xml version="1.0" standalone="no"?>
<!DOCTYPE svg PUBLIC "-//W3C//DTD SVG 1.1//EN" "http://www.w3.org/Graphics/SVG/1.1/DTD/svg11.dtd">
<svg xmlns="http://www.w3.org/2000/svg"><metadata>This SVG WebFont was generated by YouWorkForThem.
Copyright Â© 2018 by Jonathan Hill. All rights reserved.</metadata><defs><font horiz-adv-x="1228" id="ywftsvg"><font-face ascent="1530" bbox="-559 -545 1579 1925" cap-height="1290" descent="-518" font-family="" font-stretch="normal" font-weight="800" panose-1="0 0 9 0 0 0 0 0 0 0" underline-position="0" underline-thickness="0" unicode-range="U+0020-25CA" units-per-em="2048" x-height="1024"/><missing-glyph d="M205 61v1229h819v-1229h-819zM348 205h533v942h-533v-942z"/><glyph d="M205 61v1229h819v-1229h-819zM348 205h533v942h-533v-942z" glyph-name=".notdef"/><glyph glyph-name="glyph1" horiz-adv-x="0"/><glyph glyph-name="glyph2" horiz-adv-x="681"/><glyph glyph-name="space" unicode=" "/><glyph d="M477 465l35 491l59 334h359l-60 -334l-137 -491h-256zM348 0l64 348h350l-64 -348h-350z" glyph-name="exclam" unicode="!"/><glyph d="M696 1393l-135 -537h-229l51 537h313zM1155 1393l-135 -537h-229l51 537h313z" glyph-name="quotedbl" unicode="&quot;"/><glyph d="M1188 795h-160l-90 -281h160l-78 -235h-158l-90 -279h-252l90 279h-196l-90 -279h-250l90 279h-154l76 235h154l90 281h-156l78 235h156l84 262h251l-86 -262h197l84 262h252l-84 -262h160zM686 514l90 281h-194l-90 -281h194z" glyph-name="numbersign" unicode="#"/><glyph d="M784 991q-104 0 -146 -22.5t-42 -71.5q0 -41 45 -66l270 -167q135 -82 136 -234q0 -367 -404 -434l-51 -283h-227l47 269q-174 4 -349 32l74 277q195 -25 350 -25q197 0 197 96q0 43 -53 74l-281 172q-113 70 -112 240q0 190 103 287.5t296 124.5l41 231h227l-39 -219 q135 -2 299 -37l-78 -277q-172 33 -303 33z" glyph-name="dollar" unicode="$"/><glyph d="M291 551q-98 0 -141.5 53t-43.5 158q0 86 27 211t64 196q72 139 227 140q186 0 186 -209q0 -88 -26.5 -212t-63.5 -198q-73 -139 -229 -139zM106 0l844 1290h213l-839 -1290h-218zM393 1135q-20 0 -37 -62q-14 -51 -32.5 -164.5t-18.5 -146.5q0 -37 17 -37q20 0 36 61 q14 49 33 163t19 149q-1 37 -17 37zM854 -18q-98 0 -141 52t-43 156q0 88 26.5 212t63.5 198q72 139 227 139q186 0 187 -211q0 -86 -27 -210.5t-64 -196.5q-73 -139 -229 -139zM956 565q-20 0 -36 -61q-14 -51 -33 -165t-19 -146q0 -37 18.5 -37t35.5 61q14 49 32.5 163 t18.5 148q-1 37 -17 37z" glyph-name="percent" unicode="%"/><glyph d="M1178 758l-273 -408l228 -350h-396l-41 68q-100 -86 -282 -86q-205 0 -289 58t-84 183q0 66 20.5 150t49.5 129q29 41 84 86l135 100l-33 57q-57 98 -57 195q0 131 67 229q98 139 357 140q170 0 243.5 -52.5t73.5 -150.5q0 -100 -53 -215q-39 -84 -121 -131l-117 -74 l53 -84l117 156h318zM561 1030q-14 -49 -14 -106q0 -16 2 -21l29 -45l47 53q25 33 28 52q8 35 9 65q0 25 -9.5 33t-34.5 8q-41 0 -57 -39zM516 295l27 35l-92 153l-29 -41q-23 -33 -25 -36q-20 -53 -20 -103q0 -53 65 -53q43 0 74 45z" glyph-name="ampersand" unicode="&amp;"/><glyph d="M926 1393l-135 -537h-230l51 537h314z" glyph-name="quotesingle" unicode="'"/><glyph d="M881 -410q-354 43 -532.5 204t-178.5 480q0 1030 1001 1147l-41 -254q-602 -92 -602 -884q0 -195 91.5 -299.5t302.5 -139.5z" glyph-name="parenleft" unicode="("/><glyph d="M346 1421q354 -43 532.5 -203.5t178.5 -480.5q0 -1030 -1004 -1147l41 254q602 92 602 885q0 195 -90 299.5t-301 138.5z" glyph-name="parenright" unicode=")"/><glyph d="M1157 1008l-291 -54l158 -192l-229 -144l-115 230l-191 -230l-184 144l221 190l-278 56l119 233l254 -106l14 258h258l-68 -258l291 106z" glyph-name="asterisk" unicode="*"/><glyph d="M1083 641l-49 -272h-311l-59 -336h-269l60 336h-316l49 272h314l59 334h270l-59 -334h311z" glyph-name="plus" unicode="+"/><glyph d="M412 348h348l-64 -348l-252 -412h-219l236 412h-113z" glyph-name="comma" unicode=","/><glyph d="M188 641h895l-49 -272h-895z" glyph-name="hyphen" unicode="-"/><glyph d="M348 0l64 348h350l-64 -348h-350z" glyph-name="period" unicode="."/><glyph d="M8 -125l975 1518h274l-972 -1518h-277z" glyph-name="slash" unicode="/"/><glyph d="M535 -18q-211 0 -311.5 101t-100.5 308q0 416 165 648.5t455 232.5q406 0 406 -408q0 -416 -163.5 -649t-450.5 -233zM567 258q82 0 148.5 182.5t66.5 411.5q0 143 -82 143t-147.5 -180t-65.5 -416q0 -141 80 -141zM639 532q-41 0 -69.5 29t-28.5 68t29.5 67.5t68.5 28.5 t67.5 -28.5t28.5 -67.5t-28.5 -68t-67.5 -29z" glyph-name="zero" unicode="0"/><glyph d="M764 283h278l-49 -283h-946l51 283h303l121 678l-293 -60v283l344 69h363z" glyph-name="one" unicode="1"/><glyph d="M610 434q-72 -43 -100.5 -71.5t-40.5 -79.5h567l-49 -283h-948l45 248q20 115 87 197.5t226 179.5l303 184q47 29 61.5 51.5t14.5 61.5t-38 53t-136 14q-119 0 -295 -24l23 278q188 29 366 29q457 0 457 -283q0 -229 -176 -334z" glyph-name="two" unicode="2"/><glyph d="M915 657q137 -59 138 -241q0 -225 -164 -329.5t-449 -104.5q-152 0 -381 47l76 290q190 -45 328 -45q121 0 169 29t48 111q0 68 -33 90t-133 22h-213l43 252h199q113 0 150.5 21.5t37.5 93.5q0 53 -27.5 77.5t-105.5 24.5q-197 0 -350 -37l24 273q174 41 355 41 q485 0 485 -287q0 -217 -192 -307z" glyph-name="three" unicode="3"/><glyph d="M1126 500l-51 -287h-119l-36 -213h-345l37 213h-540l57 319l430 721h354l-413 -723l-6 -30h170l59 338h344l-59 -338h118z" glyph-name="four" unicode="4"/><glyph d="M1118 969h-477l-37 -176h27q254 0 353 -70t99 -240q0 -258 -159.5 -379.5t-440.5 -121.5q-264 0 -407 45l63 292q158 -37 371 -36q106 0 152.5 29.5t46.5 121.5q0 59 -35 78.5t-135 19.5h-326l152 721h804z" glyph-name="five" unicode="5"/><glyph d="M778 809q164 0 246 -71.5t82 -225.5q0 -276 -138.5 -403t-424.5 -127q-244 0 -345.5 79.5t-101.5 257.5q0 166 75 316.5t220 333.5q92 119 297 284h397q-240 -199 -360 -335q-49 -53 -96 -119h39q57 10 110 10zM592 262q88 0 124 52.5t36 160.5q0 53 -29 71.5t-105 18.5 q-90 0 -125.5 -49t-35.5 -160q0 -59 27.5 -76.5t107.5 -17.5z" glyph-name="six" unicode="6"/><glyph d="M1178 1071l-2 -12l-15 -90h-2l-2 -17l-684 -952h-364l690 967v2h-596l45 284h958z" glyph-name="seven" unicode="7"/><glyph d="M909 653q178 -59 178 -245q0 -215 -147 -320.5t-414 -105.5q-244 0 -342 75.5t-98 237.5q0 289 289 362q-143 53 -144 207q0 408 512 408q408 0 408 -275q0 -141 -59.5 -224t-182.5 -120zM705 1008q-82 0 -115 -39t-33 -125q0 -51 20.5 -67.5t77.5 -16.5q84 0 116 39 t32 129q0 47 -21.5 63.5t-76.5 16.5zM565 260q90 0 128 43t38 135q0 53 -25.5 71.5t-87.5 18.5q-88 0 -123.5 -42t-35.5 -132q0 -57 22.5 -75.5t83.5 -18.5z" glyph-name="eight" unicode="8"/><glyph d="M729 1272q244 0 345.5 -80t101.5 -258q0 -166 -75 -315.5t-220 -333.5q-90 -119 -295 -285h-400q248 207 361 336q49 53 96 119h-39q-55 -10 -110 -11q-164 0 -246 72t-82 225q0 276 138 403.5t425 127.5zM655 688q90 0 125 49t35 160q0 59 -26.5 76.5t-108.5 17.5 q-86 0 -123 -52t-37 -161q0 -53 28.5 -71.5t106.5 -18.5z" glyph-name="nine" unicode="9"/><glyph d="M465 659l63 349h351l-64 -349h-350zM348 0l64 348h350l-64 -348h-350z" glyph-name="colon" unicode=":"/><glyph d="M528 1008h351l-64 -349h-350zM348 0l64 348h348l-64 -348l-252 -412h-219l236 412h-113z" glyph-name="semicolon" unicode=";"/><glyph d="M1100 729l-602 -186l-13 -84l537 -185l-49 -284l-842 319l68 393l954 318z" glyph-name="less" unicode="&lt;"/><glyph d="M225 854h895l-49 -272h-895zM150 428h894l-49 -272h-895z" glyph-name="equal" unicode="="/><glyph d="M252 1020l842 -322l-68 -391l-954 -317l53 291l602 186l12 84l-536 184z" glyph-name="greater" unicode=">"/><glyph d="M342 465l12 61q25 115 58.5 167t144.5 108l139 71q47 25 59.5 38.5t12.5 39.5q0 35 -39 46.5t-145 11.5q-109 0 -310 -19l25 293q227 27 391 27q481 0 481 -267q0 -115 -55 -182t-166 -125l-110 -57q-92 -45 -131 -78t-52 -88l-10 -47h-305zM240 0l61 348h352l-63 -348 h-350z" glyph-name="question" unicode="?"/><glyph d="M739 1309q268 0 386 -130t118 -378q0 -145 -34.5 -325.5t-90.5 -289.5q-98 -186 -299 -186q-82 0 -137 29.5t-115 93.5l6 72h-20q-47 -76 -104 -76q-72 0 -103 44t-31 132q0 102 31 244.5t74 218.5q63 129 166 129q63 0 84 -49h6l8 49h238l-121 -682q16 -12 28 -12 q35 0 58.5 24.5t44.5 89.5q23 76 47.5 243t24.5 249q0 160 -65 231.5t-216 71.5q-221 0 -326 -168q-76 -115 -124 -341t-48 -396q0 -172 65.5 -252t211.5 -80q109 0 200 53l-22 -217q-100 -43 -225 -43q-256 0 -367 137t-111 387q0 225 67 481.5t179 405.5q178 240 516 240z M633 573q12 68 12 107q0 18 -12 18q-23 0 -33 -67q-47 -258 -47 -303q0 -16 14 -17q25 0 39 105z" glyph-name="at" unicode="@"/><glyph d="M715 0l-4 283h-281l-92 -283h-377l494 1290h549l83 -1290h-372zM522 561h187l-4 445h-37z" glyph-name="A" unicode="A"/><glyph d="M958 668q137 -47 138 -222q0 -446 -500 -446h-541l230 1290h506q203 0 293 -67.5t90 -221.5q0 -236 -213 -321zM682 1038h-74l-47 -270h96q143 0 144 170q0 59 -25.5 79.5t-93.5 20.5zM561 252q88 0 127 42t39 134q0 72 -28.5 96.5t-94.5 24.5h-82l-53 -297h92z" glyph-name="B" unicode="B"/><glyph d="M657 -18q-281 0 -410.5 128t-129.5 379q0 375 177 597.5t548 222.5q207 0 313 -45l-76 -293q-111 37 -219 37q-195 0 -279.5 -134.5t-84.5 -384.5q0 -115 55 -160.5t170 -45.5q131 0 233 32l15 -284q-132 -49 -312 -49z" glyph-name="C" unicode="C"/><glyph d="M772 1290q207 0 299 -105.5t92 -328.5q0 -168 -33.5 -317.5t-100 -272.5t-181.5 -194.5t-262 -71.5h-531l230 1290h487zM573 289q76 0 128.5 103.5t72 225t19.5 238.5q0 82 -17.5 113.5t-62.5 31.5h-111l-127 -712h98z" glyph-name="D" unicode="D"/><glyph d="M1141 1006h-539l-35 -197h500l-51 -285h-498l-43 -239h559l-49 -285h-930l230 1290h905z" glyph-name="E" unicode="E"/><glyph d="M1165 1006h-563l-41 -232h522l-49 -282h-522l-88 -492h-369l230 1290h932z" glyph-name="F" unicode="F"/><glyph d="M1116 776l-135 -770l-295 -24l2 127h-12q-98 -127 -256 -127q-313 0 -314 424q0 193 37 351t113 284t205 197t299 71q248 0 362 -41l-94 -305q-88 45 -229 45q-313 0 -314 -602q0 -70 23.5 -96.5t83.5 -26.5q55 0 90 37.5t53 140.5l8 43h-112l49 272h436z" glyph-name="G" unicode="G"/><glyph d="M848 1290h369l-230 -1290h-369l95 528h-195l-94 -528h-369l230 1290h368l-84 -475h195z" glyph-name="H" unicode="H"/><glyph d="M1145 1006h-262l-127 -721h260l-51 -285h-887l49 285h260l127 721h-256l49 284h887z" glyph-name="I" unicode="I"/><glyph d="M1204 1290l-164 -928q-41 -229 -163.5 -304.5t-438.5 -75.5q-131 0 -284 26l79 287q98 -12 201 -12q131 0 181.5 21.5t62.5 88.5l108 613h-380l51 284h747z" glyph-name="J" unicode="J"/><glyph d="M1309 1290l-396 -610l185 -680h-410l-80 520h-92l-92 -520h-369l230 1290h368l-84 -469h90l269 469h381z" glyph-name="K" unicode="K"/><glyph d="M475 285h598l-49 -285h-969l230 1290h368z" glyph-name="L" unicode="L"/><glyph d="M1268 1292l-230 -1292h-323l125 709l-152 -363l-6 -22h-203l2 24l-22 379l-129 -727h-322l230 1292h374l-2 -8l37 -571l242 579h379z" glyph-name="M" unicode="M"/><glyph d="M911 1292h308l-230 -1292h-428l-45 842l-149 -842h-310l230 1292h432l45 -831z" glyph-name="N" unicode="N"/><glyph d="M539 -18q-225 0 -326.5 108.5t-101.5 319.5q0 190 33.5 346.5t105.5 283.5t194.5 198t288.5 71q229 0 330.5 -108.5t101.5 -321.5q0 -188 -34.5 -346t-107.5 -284t-195.5 -196.5t-288.5 -70.5zM569 283q57 0 103.5 60t71 154.5t37 192.5t12.5 189q0 129 -91 129 q-57 0 -102 -60.5t-69.5 -155t-36 -192.5t-11.5 -190q0 -127 86 -127z" glyph-name="O" unicode="O"/><glyph d="M754 1290q207 0 298 -86t91 -258q0 -268 -132 -429t-397 -161h-127l-63 -356h-369l230 1290h469zM614 659q63 0 102.5 67t39.5 144q0 55 -27 87t-70 32h-59l-59 -330h73z" glyph-name="P" unicode="P"/><glyph d="M686 -2l-6 -39q-4 -20 -4 -61q0 -37 61 -37q68 0 117 24l-20 -229q-100 -33 -228 -33q-256 0 -256 213q0 57 10 119l9 47q-258 72 -258 408q0 190 33.5 346.5t105.5 283.5t194.5 198t288.5 71q229 0 330.5 -108.5t101.5 -321.5q0 -223 -46 -401.5t-156.5 -309.5 t-276.5 -170zM702 1008q-57 0 -102 -60.5t-69.5 -155t-36 -192.5t-11.5 -190q0 -127 86 -127q57 0 103.5 60t71 154.5t37 192.5t12.5 189q-1 129 -91 129z" glyph-name="Q" unicode="Q"/><glyph d="M1147 981q0 -313 -225 -446l155 -535h-387l-94 465h-90l-82 -465h-369l230 1290h442q420 0 420 -309zM608 1034l-59 -334h76q152 0 151 244q0 49 -22.5 69.5t-73.5 20.5h-72z" glyph-name="R" unicode="R"/><glyph d="M455 -18q-207 0 -387 36l73 287q190 -35 336 -35q207 0 207 90q0 51 -70 101l-241 182q-135 98 -135 272q0 193 148.5 293.5t430.5 100.5q156 0 350 -39l-77 -287q-172 37 -293 37q-109 0 -154 -17.5t-45 -60.5t64 -92l243 -180q76 -57 107.5 -119t31.5 -152 q0 -205 -150 -311t-439 -106z" glyph-name="S" unicode="S"/><glyph d="M1253 1290l-55 -301h-311l-176 -989h-369l176 989h-319l55 301h999z" glyph-name="T" unicode="T"/><glyph d="M561 -18q-236 0 -337 84t-101 245q0 70 16 172l142 807h368l-143 -823q-14 -72 -14 -109q0 -76 86 -75q57 0 83.5 34.5t47.5 147.5l143 825h369l-144 -823q-47 -272 -177 -378.5t-339 -106.5z" glyph-name="U" unicode="U"/><glyph d="M926 1290h385l-486 -1290h-561l-74 1290h375l4 -1007h33z" glyph-name="V" unicode="V"/><glyph d="M975 1290h354l-289 -1290h-438l31 492h-17l-127 -492h-434l119 1290h354l-161 -983h4l133 492h338l-21 -492h6z" glyph-name="W" unicode="W"/><glyph d="M1266 1290l-379 -614l176 -676h-377l-82 403h-12l-213 -403h-391l405 674l-172 616h379l68 -393h14l199 393h385z" glyph-name="X" unicode="X"/><glyph d="M1315 1290l-531 -862l-71 -428h-369l74 444l-232 846h383l82 -520h17l264 520h383z" glyph-name="Y" unicode="Y"/><glyph d="M1167 961l-684 -656l-4 -20h563l-45 -285h-940l45 285l9 49l686 663v9h-512l45 284h889l-33 -192z" glyph-name="Z" unicode="Z"/><glyph d="M1180 1149h-418l-227 -1294h417l-43 -244h-772l314 1782h772z" glyph-name="bracketleft" unicode="["/><glyph d="M1018 -125h-277l-493 1518h274z" glyph-name="backslash" unicode="\"/><glyph d="M1090 1393l-314 -1782h-774l43 244h418l227 1294h-418l43 244h775z" glyph-name="bracketright" unicode="]"/><glyph d="M840 573l-105 574h-35l-284 -574h-312l455 820h393l195 -820h-307z" glyph-name="asciicircum" unicode="^"/><glyph d="M-115 -102h1241l-32 -185h-1241z" glyph-name="underscore" unicode="_"/><glyph d="M678 1176l-246 411h408l127 -411h-289z" glyph-name="grave" unicode="`"/><glyph d="M819 1040q152 0 228.5 -68.5t76.5 -191.5q0 -37 -12 -106l-117 -662l-315 -24l-4 112h-14q-96 -119 -283 -118q-299 0 -299 258q0 170 119.5 263t328.5 93h217l9 43l2 18q2 18 2 31q0 74 -121 74q-172 0 -326 -41l-2 258q242 61 510 61zM451 281q0 -80 86 -80 q135 0 168 161l12 64h-148q-51 0 -84.5 -35.5t-33.5 -109.5z" glyph-name="a" unicode="a"/><glyph d="M805 1040q158 0 231.5 -86t73.5 -268q0 -131 -27.5 -252t-83 -225.5t-150.5 -165.5t-220 -61q-160 0 -197 120h-12l-41 -114l-311 24l243 1381h355l-76 -430h12q74 77 203 77zM582 240q84 0 126 141t42 305q0 55 -17.5 74.5t-56.5 19.5q-61 0 -95 -29.5t-49 -113.5 l-43 -242q-6 -37 -6 -63q0 -53 22 -72.5t77 -19.5z" glyph-name="b" unicode="b"/><glyph d="M668 -18q-287 0 -417 87t-130 341q0 631 713 630q141 0 260 -24l-72 -256q-96 23 -188 22q-193 0 -269 -82t-76 -290q0 -96 56.5 -133t193.5 -37q109 0 211 22l-22 -254q-104 -26 -260 -26z" glyph-name="c" unicode="c"/><glyph d="M877 1393h356l-244 -1381l-319 -24l-2 114h-13q-76 -121 -231 -120q-160 0 -231.5 88t-71.5 272q0 143 27.5 266t85 221.5t154.5 154.5t226 56q117 0 170 -77h17zM739 610q6 35 6 82q0 41 -25.5 64.5t-57.5 23.5q-88 0 -133.5 -138t-45.5 -288q0 -70 19.5 -92t68.5 -22 q102 0 125 129z" glyph-name="d" unicode="d"/><glyph d="M475 412v-27q0 -80 31 -112.5t102 -32.5q162 0 361 34l14 -235q-227 -57 -399 -57q-461 0 -461 376q0 315 148.5 498.5t441.5 183.5q403 0 403 -313q0 -61 -14.5 -165.5t-30.5 -149.5h-596zM692 805q-143 0 -192 -187h282q6 49 6 84q0 103 -96 103z" glyph-name="e" unicode="e"/><glyph d="M1055 1176q-106 0 -147.5 -31t-59.5 -121h303l-43 -244h-303l-137 -780h-355l140 780h-260l43 244h260v2q37 201 161.5 298t382.5 97q154 0 234 -16l-64 -238q-63 9 -155 9z" glyph-name="f" unicode="f"/><glyph d="M848 1034l311 -24l-178 -1012q-25 -135 -57.5 -209t-103 -122t-173 -62.5t-280.5 -14.5q-150 0 -306 19l70 252q166 -12 301 -13q96 0 136 27t55 113l12 67h-10q-74 -74 -205 -73q-150 0 -226.5 84t-76.5 282q0 135 27.5 254t83 220.5t154.5 159.5t228 58q150 0 185 -120 h10zM739 651q4 33 4 41q0 90 -92 90q-76 0 -124 -141t-48 -283q0 -70 18.5 -93t63.5 -23q57 0 86 27.5t43 109.5z" glyph-name="g" unicode="g"/><glyph d="M862 1040q127 0 191.5 -57t64.5 -162q0 -63 -16 -162l-115 -659h-356l112 639q0 6 3.5 22.5t4.5 32t1 25.5q0 63 -74 63q-63 0 -99 -27.5t-49 -95.5l-114 -659h-355l246 1393h355l-78 -445h18q90 92 260 92z" glyph-name="h" unicode="h"/><glyph d="M1020 1401l-51 -291h-355l52 291h354zM815 244h285l-43 -244h-971l43 244h330l96 536h-313l43 244h667z" glyph-name="i" unicode="i"/><glyph d="M754 1401h356l-53 -291h-355zM1042 1024l-180 -1016q-31 -182 -92 -266t-191 -118t-399 -34q-92 0 -235 21l59 254q158 -16 240 -17q147 0 197.5 32t68.5 143l133 757h-407l43 244h763z" glyph-name="j" unicode="j"/><glyph d="M1257 1024l-378 -457l206 -567h-391l-112 449h-64l-80 -449h-356l246 1393h356l-127 -719h68l243 350h389z" glyph-name="k" unicode="k"/><glyph d="M848 240q63 0 203 18l-17 -250q-137 -27 -250 -26q-244 0 -345 61t-101 213q0 55 12 133l135 760h-297l45 244h650l-185 -1043q0 -6 -1 -19.5t-1 -17.5q0 -43 33 -58t119 -15z" glyph-name="l" unicode="l"/><glyph d="M1077 1040q170 0 170 -176q0 -82 -22 -207l-117 -657h-332l125 711q4 12 4 34q0 37 -39 37q-43 0 -55 -71l-125 -711h-317l125 711q4 12 4 34q0 37 -37 37q-45 0 -58 -75l-124 -707h-332l180 1010l307 24l-6 -112h21q84 119 219 118q147 0 159 -129h21q79 129 229 129z " glyph-name="m" unicode="m"/><glyph d="M862 1040q127 0 191.5 -57t64.5 -162q0 -63 -16 -162l-115 -659h-356l112 639q0 6 3.5 22.5t4.5 32t1 25.5q0 63 -74 63q-63 0 -99 -27.5t-49 -95.5l-114 -659h-355l177 1012l325 26v-112h19q92 114 280 114z" glyph-name="n" unicode="n"/><glyph d="M539 -18q-223 0 -321.5 88t-98.5 288q0 326 151.5 504t429.5 178q215 0 312.5 -89t97.5 -285q0 -328 -148.5 -506t-422.5 -178zM551 240q88 0 144.5 120.5t56.5 305.5q0 117 -72 116q-88 0 -145.5 -118.5t-57.5 -305.5q0 -118 74 -118z" glyph-name="o" unicode="o"/><glyph d="M817 1040q147 0 219 -86t72 -268q0 -131 -27.5 -252t-83 -224.5t-150.5 -165.5t-220 -62q-137 0 -187 77h-10l-80 -448h-354l246 1399l319 24v-114h14q80 120 242 120zM580 240q57 0 97 76.5t54 173t14 196.5q0 55 -16 75.5t-55 20.5q-63 0 -96 -29.5t-48 -115.5 l-43 -246q-6 -31 -6 -59q0 -51 23 -71.5t76 -20.5z" glyph-name="p" unicode="p"/><glyph d="M856 1034l309 -24l-245 -1399h-357l80 448h-12q-72 -78 -205 -77q-162 0 -233.5 88t-71.5 272q0 143 27.5 266t85 221.5t154.5 154.5t226 56q150 0 189 -120h10zM739 612q8 41 9 80q-2 41 -28 64.5t-61 23.5q-59 0 -101 -75.5t-58.5 -169t-16.5 -181.5q0 -68 19.5 -91 t68.5 -23q102 0 125 129z" glyph-name="q" unicode="q"/><glyph d="M1186 1042q37 0 86 -4l-84 -309q-82 23 -154 23q-166 0 -249 -51.5t-107 -188.5l-92 -512h-355l140 780h-240l43 244h543l12 -121h33q141 139 424 139z" glyph-name="r" unicode="r"/><glyph d="M469 -18q-170 0 -375 32l62 252q172 -27 315 -26q104 0 142 13t38 52q0 37 -53 62l-281 137q-106 51 -106 194q0 344 522 344q145 0 373 -32l-64 -254q-188 29 -307 28q-145 0 -145 -65q0 -14 8 -22.5t39 -22.5l242 -117q88 -43 126.5 -97t38.5 -134q0 -166 -147 -255 t-428 -89z" glyph-name="s" unicode="s"/><glyph d="M770 780l-76 -430q-6 -20 -6 -41q0 -39 30 -54t99 -15q45 0 144 10l-23 -248q-113 -20 -250 -20q-190 0 -274 67.5t-84 202.5q0 61 10 113l74 415h-228l43 244h228l43 240h354l-41 -240h299l-43 -244h-299z" glyph-name="t" unicode="t"/><glyph d="M811 1024h354l-176 -1012l-325 -26v114h-17q-92 -117 -282 -116q-127 0 -191.5 58t-64.5 163q0 61 16 160l117 659h354l-113 -639q0 -6 -3 -22.5t-4 -31t-1 -24.5q0 -66 74 -65q127 0 147 123z" glyph-name="u" unicode="u"/><glyph d="M860 1024h379l-420 -1024h-551l-98 1024h377l12 -778h47z" glyph-name="v" unicode="v"/><glyph d="M1001 1024h330l-270 -1024h-473l30 451h-8l-108 -451h-471l49 1024h332l-90 -776h28l111 452h385l-29 -452h27z" glyph-name="w" unicode="w"/><glyph d="M1217 1024l-359 -498l217 -526h-381l-98 305h-49l-195 -305h-377l383 530l-204 494h378l89 -268h45l172 268h379z" glyph-name="x" unicode="x"/><glyph d="M862 1024h373l-483 -1096q-84 -188 -210 -263t-313 -75q-109 0 -215 25l64 242q113 -18 184 -19q92 0 138 28t81 120l4 10l-225 4l-84 1024h369l4 -778h29z" glyph-name="y" unicode="y"/><glyph d="M1143 1024l-41 -244l-8 -45l-631 -489l-2 -2h573l-41 -244h-936l41 244l8 45l633 473l4 18h-516l41 244h875z" glyph-name="z" unicode="z"/><glyph d="M940 1421q154 0 258 -20l-61 -232q-82 16 -185 17q-90 0 -123.5 -24.5t-48.5 -98.5l-55 -322q-16 -96 -60 -149t-133 -80l3 -14q113 -41 112 -154q0 -35 -6 -72l-55 -321q-6 -31 -6 -49q0 -45 28.5 -60.5t102.5 -15.5q113 0 192 18l-18 -229q-160 -25 -267 -25 q-215 0 -302 44t-87 167q0 57 7 93l65 370q6 35 6 62q0 49 -30.5 67.5t-110.5 18.5l33 190q100 0 138 30t54 124l62 362q31 180 136 241.5t351 61.5z" glyph-name="braceleft" unicode="{"/><glyph d="M936 1393l-313 -1782h-332l313 1782h332z" glyph-name="bar" unicode="|"/><glyph d="M918 686q0 -49 30.5 -67.5t110.5 -18.5l-33 -190q-100 0 -137 -30t-53 -124l-64 -362q-31 -180 -136.5 -242t-350.5 -62q-154 0 -258 21l63 231q82 -16 184 -16q88 0 122 24.5t48 98.5l56 321q16 96 60 149.5t132 80.5v14q-115 41 -114 156q0 33 6 69l55 322q6 31 6 49 q0 45 -28.5 60.5t-102.5 15.5q-111 0 -190 -19l16 230q160 25 266 24q215 0 303 -44t88 -167q0 -45 -8 -92l-65 -370q-6 -35 -6 -62z" glyph-name="braceright" unicode="}"/><glyph d="M328 322l-183 63q20 137 113.5 230.5t216.5 93.5q80 0 154 -54l104 -73q29 -18 51 -19q68 0 109 121l184 -63q-25 -139 -120 -230.5t-214 -91.5q-84 0 -155 51l-109 78q-18 14 -49 14q-61 1 -102 -120z" glyph-name="asciitilde" unicode="~"/><glyph glyph-name="uni00A0" unicode=" "/><glyph d="M881 1024l-64 -348h-350l63 348h351zM752 559l-35 -493l-82 -455h-359l82 455l140 493h254z" glyph-name="exclamdown" unicode="¡"/><glyph d="M1022 760q-82 18 -145 20l-95 -538q82 4 168 20l-22 -254q-80 -20 -193 -24l-45 -260h-229l47 264q-199 20 -293 113.5t-94 308.5q0 565 571 624l39 217h230l-37 -213q66 -4 170 -22zM489 410q0 -104 68 -140l86 484q-84 -35 -119 -116t-35 -228z" glyph-name="cent" unicode="¢"/><glyph d="M909 1008q-76 0 -109.5 -37t-54.5 -156q-2 -4 -3 -11t-1 -11h287l-45 -238h-293q-55 -180 -147 -264v-8h526l-51 -283h-946l51 283q147 55 211 272h-156l43 238h156q14 104 18 120q39 221 157 308.5t337 87.5q121 0 301 -27l-78 -299q-125 25 -203 25z" glyph-name="sterling" unicode="£"/><glyph d="M1063 608q0 -96 -43 -188l149 -141l-188 -187l-133 141q-98 -57 -217 -57q-113 0 -211 55l-133 -139l-189 187l148 139q-43 92 -43 190q0 115 55 215l-160 152l189 186l155 -166q90 45 189 45q100 0 194 -45l156 166l188 -186l-161 -154q55 -98 55 -213zM631 414 q82 0 138 56t56 138t-56 138.5t-138 56.5q-80 0 -136.5 -56.5t-56.5 -138.5t56.5 -138t136.5 -56z" glyph-name="currency" unicode="¤"/><glyph d="M811 651l-4 -14h250l-31 -182h-252l-14 -86h252l-31 -181h-254l-33 -188h-356l33 188h-252l31 181h253l15 86h-254l33 182h254v10l-242 643h373l96 -391h6l229 391h381z" glyph-name="yen" unicode="¥"/><glyph d="M475 666l129 727h332l-129 -727h-332zM291 -389l127 729h332l-127 -729h-332z" glyph-name="brokenbar" unicode="¦"/><glyph d="M844 1055q-55 0 -81 -2t-56.5 -9.5t-43 -28t-12.5 -52.5q0 -39 41 -62l234 -129q147 -86 147 -229q0 -227 -180 -322l-8 -39q57 -63 57 -151q0 -217 -145.5 -329t-376.5 -112q-193 0 -420 29l63 258q211 -27 347 -27q178 0 178 103q0 37 -14.5 55.5t-53.5 38.5l-235 131 q-121 66 -121 205q0 242 198 324l7 30q-74 68 -74 170q0 403 547 404q162 0 319 -25l-59 -250q-149 19 -258 19zM735 471q0 41 -53 74l-35 20q-72 -4 -107.5 -26.5t-35.5 -79.5q0 -39 41 -62l88 -49q102 23 102 123z" glyph-name="section" unicode="§"/><glyph d="M367 1516h362l-57 -314h-363zM858 1516h363l-58 -314h-360z" glyph-name="dieresis" unicode="¨"/><glyph d="M524 -18q-231 0 -367.5 147t-136.5 401q0 315 221.5 548t516.5 233q227 0 362 -148.5t135 -402.5q0 -313 -220 -545.5t-511 -232.5zM535 145q223 0 384.5 180.5t161.5 436.5q0 172 -93 278.5t-243 106.5q-225 0 -386.5 -179.5t-161.5 -437.5q0 -172 93 -278.5t245 -106.5 zM608 293q-125 0 -178 53t-53 162q0 102 30.5 215t79.5 178q80 98 240 98q86 0 145 -26l-43 -156q-35 25 -100 25q-49 0 -78 -45q-16 -31 -35.5 -129.5t-19.5 -141.5t14.5 -58t48.5 -15q70 0 109 22l4 -153q-76 -29 -164 -29z" glyph-name="copyright" unicode="©"/><glyph d="M848 1403q129 0 186.5 -39t57.5 -121q0 -61 -19 -158l-80 -460l-288 -23l2 96h-7q-68 -100 -219 -100q-223 0 -223 199q0 127 92 194.5t264 67.5h148l6 28q4 20 4 39q0 57 -82 58q-72 0 -235 -33l-11 207q232 45 404 45zM571 834q0 -68 62 -68q74 0 100 137l8 35h-84 q-37 0 -61.5 -29.5t-24.5 -74.5z" glyph-name="ordfeminine" unicode="ª"/><glyph d="M70 350l49 307l499 340l-40 -254l-277 -239l201 -242l-43 -256zM657 350l50 307l497 340l-39 -254l-278 -239l203 -242l-43 -256z" glyph-name="guillemotleft" unicode="«"/><glyph d="M225 852h895l-123 -698h-270l78 430h-627z" glyph-name="logicalnot" unicode="¬"/><glyph d="M758 1311q227 0 362 -148.5t135 -402.5q0 -313 -220 -545.5t-511 -232.5q-231 0 -367.5 147t-136.5 401q0 315 221.5 548t516.5 233zM535 145q223 0 384.5 180.5t161.5 436.5q0 172 -93 278.5t-243 106.5q-225 0 -386.5 -179.5t-161.5 -437.5q0 -172 93 -278.5 t245 -106.5zM702 991q131 0 183.5 -40t52.5 -136q0 -160 -135 -227l82 -285h-223l-48 252h-41l-45 -252h-209l123 688h260zM627 842l-27 -140h31q61 0 83.5 18.5t22.5 74.5q0 47 -80 47h-30z" glyph-name="registered" unicode="®"/><glyph d="M403 1470h750l-41 -249h-750z" glyph-name="macron" unicode="¯"/><glyph d="M360 1030q0 147 113 259t260 112q131 0 220 -89t89 -218q0 -147 -112.5 -257t-261.5 -110q-131 0 -219.5 88t-88.5 215zM565 1042q0 -49 32 -80.5t83 -31.5q63 0 111.5 46t48.5 109q0 47 -34 80t-85 33q-61 0 -108.5 -46.5t-47.5 -109.5z" glyph-name="degree" unicode="°"/><glyph d="M829 967h312l-49 -273h-312l-59 -336h-268l59 336h-315l49 273h313l59 333h271zM74 0l49 272h895l-49 -272h-895z" glyph-name="plusminus" unicode="±"/><glyph d="M780 1176h-288l260 411h407z" glyph-name="acute" unicode="´"/><glyph d="M813 1024h354l-178 -1012l-325 -26v114h-13q-80 -115 -184 -114q-25 0 -53 -6l-66 -369h-354l250 1413h354l-119 -662q-8 -43 -8 -75q0 -43 19.5 -56.5t68.5 -13.5q57 0 89 31t46 114z" glyph-name="uni00B5" unicode="µ"/><glyph d="M1288 1290l-295 -1679h-225l258 1466h-141l-258 -1466h-226l138 776h-88q-186 0 -275.5 76t-89.5 248q0 303 123 441t401 138h678z" glyph-name="paragraph" unicode="¶"/><glyph d="M408 330l63 348h350l-63 -348h-350z" glyph-name="periodcentered" unicode="·"/><glyph d="M571 -80q231 -8 232 -129q0 -102 -101.5 -151.5t-236.5 -49.5q-162 0 -248 23l35 131q49 -16 119 -16q111 0 110 59q0 16 -12 21.5t-59 5.5h-76l63 198h205z" glyph-name="cedilla" unicode="¸"/><glyph d="M639 598q-358 0 -358 285q0 520 487 520q352 0 352 -283q0 -522 -481 -522zM666 807q66 0 100.5 82t34.5 223q0 82 -62 82q-137 0 -137 -297q1 -90 64 -90z" glyph-name="ordmasculine" unicode="º"/><glyph d="M518 350l-500 -344l43 256l277 242l-201 239l39 254l391 -340zM1106 350l-500 -344l43 256l277 242l-201 239l39 254l389 -340z" glyph-name="guillemotright" unicode="»"/><glyph d="M813 1255h193l-517 -1257h-192zM459 426h-453l33 199h113l73 422l-106 -35l4 194l139 47h242l-111 -628h101zM1192 336l-37 -203h-43l-25 -133h-200l24 133h-264l41 225l197 469h209l-174 -415l-13 -76h39l37 205h201l-37 -205h45z" glyph-name="onequarter" unicode="¼"/><glyph d="M813 1255h193l-517 -1257h-192zM459 426h-453l33 199h113l73 422l-106 -35l4 194l139 47h242l-111 -628h101zM1006 330q-41 -43 -56.5 -67.5t-25.5 -63.5h204l-34 -199h-455l29 166q12 78 33.5 127t78.5 106l156 160q31 27 31 47q0 33 -33 33q-39 0 -121 -14l18 198 q113 18 187 19q76 0 131 -43t55 -131q0 -55 -16.5 -99.5t-34.5 -68t-63 -72.5z" glyph-name="onehalf" unicode="½"/><glyph d="M512 721q0 -143 -87 -225t-235 -82q-104 0 -170 30l52 201q63 -27 100 -27q39 0 65.5 29t26.5 72q0 47 -28 47h-72l33 180h61q18 0 31.5 23.5t13.5 60.5q0 27 -5 34t-28 7q-39 0 -112 -22l18 192q92 27 160 27q223 0 223 -187q0 -135 -92 -200l-4 -23q49 -37 49 -137z M813 1255h193l-517 -1257h-192zM1192 336l-37 -203h-43l-25 -133h-200l24 133h-264l41 225l197 469h209l-174 -415l-13 -76h39l37 205h201l-37 -205h45z" glyph-name="threequarters" unicode="¾"/><glyph d="M989 1024l-67 -375h-351l68 375h350zM881 520l-25 -127q-20 -113 -55 -165t-148 -109l-137 -70q-47 -27 -60.5 -41t-13.5 -41q0 -33 39 -44t148 -11q98 0 307 16l-25 -290q-227 -27 -391 -27q-481 0 -481 266q0 115 55.5 182.5t165.5 124.5l113 58q94 47 132 78.5 t48 87.5l22 112h306z" glyph-name="questiondown" unicode="¿"/><glyph d="M983 1405h-289l-245 412h407zM715 0l-4 283h-281l-92 -283h-377l494 1290h549l83 -1290h-372zM522 561h187l-4 445h-37z" glyph-name="Agrave" unicode="À"/><glyph d="M1176 1817l-379 -412h-289l260 412h408zM1004 1290l83 -1290h-372l-4 283h-281l-92 -283h-377l494 1290h549zM522 561h187l-4 445h-37z" glyph-name="Aacute" unicode="Á"/><glyph d="M780 1624l-219 -209h-311l348 412h428l221 -412h-311zM1004 1290l83 -1290h-372l-4 283h-281l-92 -283h-377l494 1290h549zM522 561h187l-4 445h-37z" glyph-name="Acircumflex" unicode="Â"/><glyph d="M1034 1733h205q-27 -170 -119 -260.5t-229 -90.5q-104 0 -164 52l-57 45q-29 20 -62 20q-63 0 -94 -90h-207q25 158 121 255t231 97q76 0 168 -55l60 -39q35 -25 63 -25q51 1 84 91zM1004 1290l83 -1290h-372l-4 283h-281l-92 -283h-377l494 1290h549zM522 561h187 l-4 445h-37z" glyph-name="Atilde" unicode="Ã"/><glyph d="M743 1745l-57 -313h-362l57 313h362zM872 1745h363l-57 -313h-361zM1004 1290l83 -1290h-372l-4 283h-281l-92 -283h-377l494 1290h549zM522 561h187l-4 445h-37z" glyph-name="Adieresis" unicode="Ä"/><glyph d="M725 1350q-283 0 -283 213q0 160 96.5 241.5t270.5 81.5q281 0 281 -207q0 -162 -94.5 -245.5t-270.5 -83.5zM784 1722q-147 0 -147 -127q0 -84 113 -84q70 0 106.5 36t36.5 93q0 82 -109 82zM1004 1290l83 -1290h-372l-4 283h-281l-92 -283h-377l494 1290h549zM522 561 h187l-4 445h-37z" glyph-name="Aring" unicode="Å"/><glyph d="M1229 1010h-258l-35 -195h225l-51 -287h-225l-45 -245h274l-49 -283h-635l49 283h-186l-129 -283h-340l622 1292h832zM422 565h108l70 396z" glyph-name="AE" unicode="Æ"/><glyph d="M860 1008q-195 0 -279.5 -134.5t-84.5 -384.5q0 -115 55 -160.5t170 -45.5q131 0 233 32l15 -284q-131 -49 -312 -49h-8l-20 -62q231 -8 231 -129q0 -102 -101.5 -151.5t-236.5 -49.5q-162 0 -248 23l35 131q49 -16 119 -16q111 0 111 59q0 16 -12.5 21.5t-59.5 5.5h-76 l62 190q-336 82 -336 485q0 375 177 597.5t548 222.5q207 0 313 -45l-76 -293q-110 37 -219 37z" glyph-name="Ccedilla" unicode="Ç"/><glyph d="M1024 1405h-289l-246 412h408zM1141 1006h-539l-35 -197h500l-51 -285h-498l-43 -239h559l-49 -285h-930l230 1290h905z" glyph-name="Egrave" unicode="È"/><glyph d="M1217 1817l-379 -412h-289l260 412h408zM1190 1290l-49 -284h-539l-35 -197h500l-51 -285h-498l-43 -239h559l-49 -285h-930l230 1290h905z" glyph-name="Eacute" unicode="É"/><glyph d="M821 1624l-219 -209h-311l348 412h428l221 -412h-311zM1190 1290l-49 -284h-539l-35 -197h500l-51 -285h-498l-43 -239h559l-49 -285h-930l230 1290h905z" glyph-name="Ecircumflex" unicode="Ê"/><glyph d="M784 1745l-57 -313h-362l57 313h362zM913 1745h363l-57 -313h-361zM1190 1290l-49 -284h-539l-35 -197h500l-51 -285h-498l-43 -239h559l-49 -285h-930l230 1290h905z" glyph-name="Edieresis" unicode="Ë"/><glyph d="M1004 1405h-289l-246 412h408zM1145 1006h-262l-127 -721h260l-51 -285h-887l49 285h260l127 721h-256l49 284h887z" glyph-name="Igrave" unicode="Ì"/><glyph d="M1196 1817l-379 -412h-289l260 412h408zM1194 1290l-49 -284h-262l-127 -721h260l-51 -285h-887l49 285h260l127 721h-256l49 284h887z" glyph-name="Iacute" unicode="Í"/><glyph d="M801 1624l-219 -209h-312l348 412h429l221 -412h-312zM1194 1290l-49 -284h-262l-127 -721h260l-51 -285h-887l49 285h260l127 721h-256l49 284h887z" glyph-name="Icircumflex" unicode="Î"/><glyph d="M764 1745l-57 -313h-363l57 313h363zM893 1745h362l-57 -313h-360zM1194 1290l-49 -284h-262l-127 -721h260l-51 -285h-887l49 285h260l127 721h-256l49 284h887z" glyph-name="Idieresis" unicode="Ï"/><glyph d="M772 1290q207 0 299 -105.5t92 -328.5q0 -168 -33.5 -317.5t-100 -272.5t-181.5 -194.5t-262 -71.5h-531l95 524h-84l51 285h82l86 481h487zM573 289q76 0 128.5 103.5t72 225t19.5 238.5q0 82 -17.5 113.5t-62.5 31.5h-111l-35 -192h164l-51 -285h-162l-43 -235h98z" glyph-name="Eth" unicode="Ð"/><glyph d="M631 1499q-63 0 -94 -90h-207q25 158 121 255t231 97q76 0 168 -55l59 -39q35 -25 64 -25q51 0 84 91h205q-27 -170 -119 -260.5t-230 -90.5q-104 0 -163 52l-58 45q-28 20 -61 20zM764 461l147 831h308l-230 -1292h-428l-45 842l-149 -842h-310l230 1292h432z" glyph-name="Ntilde" unicode="Ñ"/><glyph d="M715 1405l-246 412h408l127 -412h-289zM539 -18q-225 0 -326.5 108.5t-101.5 319.5q0 190 33.5 346.5t105.5 283.5t194.5 198t288.5 71q229 0 330.5 -108.5t101.5 -321.5q0 -188 -34.5 -346t-107.5 -284t-195.5 -196.5t-288.5 -70.5zM569 283q57 0 103.5 60t71 154.5 t37 192.5t12.5 189q0 129 -91 129q-57 0 -102 -60.5t-69.5 -155t-36 -192.5t-11.5 -190q0 -127 86 -127z" glyph-name="Ograve" unicode="Ò"/><glyph d="M817 1405h-289l260 412h408zM539 -18q-225 0 -326.5 108.5t-101.5 319.5q0 190 33.5 346.5t105.5 283.5t194.5 198t288.5 71q229 0 330.5 -108.5t101.5 -321.5q0 -188 -34.5 -346t-107.5 -284t-195.5 -196.5t-288.5 -70.5zM569 283q57 0 103.5 60t71 154.5t37 192.5 t12.5 189q0 129 -91 129q-57 0 -102 -60.5t-69.5 -155t-36 -192.5t-11.5 -190q0 -127 86 -127z" glyph-name="Oacute" unicode="Ó"/><glyph d="M801 1624l-219 -209h-312l348 412h429l221 -412h-312zM733 1309q229 0 330.5 -108.5t101.5 -321.5q0 -188 -34.5 -346t-107.5 -284t-195.5 -196.5t-288.5 -70.5q-225 0 -326.5 108.5t-101.5 319.5q0 190 33.5 346.5t105.5 283.5t194.5 198t288.5 71zM569 283 q57 0 103.5 60t71 154.5t37 192.5t12.5 189q0 129 -91 129q-57 0 -102 -60.5t-69.5 -155t-36 -192.5t-11.5 -190q0 -127 86 -127z" glyph-name="Ocircumflex" unicode="Ô"/><glyph d="M911 1382q-104 0 -163 52l-58 45q-29 20 -61 20q-63 0 -94 -90h-207q25 158 121 255t231 97q76 0 168 -55l59 -39q35 -25 64 -25q51 0 84 91h205q-27 -170 -119.5 -260.5t-229.5 -90.5zM539 -18q-225 0 -326.5 108.5t-101.5 319.5q0 190 33.5 346.5t105.5 283.5 t194.5 198t288.5 71q229 0 330.5 -108.5t101.5 -321.5q0 -188 -34.5 -346t-107.5 -284t-195.5 -196.5t-288.5 -70.5zM569 283q57 0 103.5 60t71 154.5t37 192.5t12.5 189q0 129 -91 129q-57 0 -102 -60.5t-69.5 -155t-36 -192.5t-11.5 -190q0 -127 86 -127z" glyph-name="Otilde" unicode="Õ"/><glyph d="M401 1745h363l-57 -313h-363zM893 1745h362l-57 -313h-360zM539 -18q-225 0 -326.5 108.5t-101.5 319.5q0 190 33.5 346.5t105.5 283.5t194.5 198t288.5 71q229 0 330.5 -108.5t101.5 -321.5q0 -188 -34.5 -346t-107.5 -284t-195.5 -196.5t-288.5 -70.5zM569 283 q57 0 103.5 60t71 154.5t37 192.5t12.5 189q0 129 -91 129q-57 0 -102 -60.5t-69.5 -155t-36 -192.5t-11.5 -190q0 -127 86 -127z" glyph-name="Odieresis" unicode="Ö"/><glyph d="M1098 760l-295 -254l215 -256l-221 -191l-215 254l-293 -254l-160 191l293 254l-215 256l223 190l215 -256l295 256z" glyph-name="multiply" unicode="×"/><glyph d="M1198 1393l-123 -205q90 -102 90 -309q0 -188 -34.5 -346t-107.5 -284t-195.5 -196.5t-288.5 -70.5q-100 0 -181 22l-63 -106h-217l123 204q-90 102 -90 308q0 190 33.5 346.5t105.5 283.5t194.5 198t288.5 71q104 0 185 -23l65 107h215zM702 1008q-88 0 -139 -123 t-69 -301l249 413q-16 11 -41 11zM569 283q86 0 140.5 123.5t72.5 298.5l-250 -414q14 -8 37 -8z" glyph-name="Oslash" unicode="Ø"/><glyph d="M719 1405l-246 412h408l127 -412h-289zM561 -18q-236 0 -337 84t-101 245q0 70 16 172l142 807h368l-143 -823q-14 -72 -14 -109q0 -76 86 -75q57 0 83.5 34.5t47.5 147.5l143 825h369l-144 -823q-47 -272 -177 -378.5t-339 -106.5z" glyph-name="Ugrave" unicode="Ù"/><glyph d="M821 1405h-289l261 412h407zM561 -18q-236 0 -337 84t-101 245q0 70 16 172l142 807h368l-143 -823q-14 -72 -14 -109q0 -76 86 -75q57 0 83.5 34.5t47.5 147.5l143 825h369l-144 -823q-47 -272 -177 -378.5t-339 -106.5z" glyph-name="Uacute" unicode="Ú"/><glyph d="M805 1624l-219 -209h-312l349 412h428l221 -412h-311zM709 465l143 825h369l-144 -823q-47 -272 -177 -378.5t-339 -106.5q-236 0 -337 84t-101 245q0 70 16 172l142 807h368l-143 -823q-14 -72 -14 -109q0 -76 86 -75q57 0 84 34.5t47 147.5z" glyph-name="Ucircumflex" unicode="Û"/><glyph d="M406 1745h362l-57 -313h-363zM897 1745h363l-58 -313h-360zM561 -18q-236 0 -337 84t-101 245q0 70 16 172l142 807h368l-143 -823q-14 -72 -14 -109q0 -76 86 -75q57 0 83.5 34.5t47.5 147.5l143 825h369l-144 -823q-47 -272 -177 -378.5t-339 -106.5z" glyph-name="Udieresis" unicode="Ü"/><glyph d="M1194 1817l-379 -412h-289l260 412h408zM1315 1290l-531 -862l-71 -428h-369l74 444l-232 846h383l82 -520h17l264 520h383z" glyph-name="Yacute" unicode="Ý"/><glyph d="M756 -18q-143 0 -283 32l66 252q96 -27 180 -26q27 0 40 26.5t13 55.5q0 33 -31 63l-88 96q-61 68 -61 183q0 121 137 251q45 41 63.5 60.5t35 51.5t16.5 69q0 68 -90 67q-74 0 -110 -50t-56 -173l-166 -940h-354l168 952q45 256 183 362.5t380 106.5q225 0 325.5 -66.5 t100.5 -203.5q0 -111 -37 -179.5t-113 -127.5q-100 -84 -114 -109q-6 -14 -7 -26q0 -14 29 -52l84 -96q90 -109 90 -246q0 -141 -109.5 -237t-291.5 -96z" glyph-name="germandbls" unicode="ß"/><glyph d="M997 1176h-288l-246 411h407zM819 1040q152 0 228.5 -68.5t76.5 -191.5q0 -37 -12 -106l-117 -662l-315 -24l-4 112h-14q-96 -119 -283 -118q-299 0 -299 258q0 170 119.5 263t328.5 93h217l9 43l2 18q2 18 2 31q0 74 -121 74q-172 0 -326 -41l-2 258q242 61 510 61z M451 281q0 -80 86 -80q135 0 168 161l12 64h-148q-51 0 -84.5 -35.5t-33.5 -109.5z" glyph-name="agrave" unicode="à"/><glyph d="M1190 1587l-379 -411h-289l260 411h408zM819 1040q152 0 228.5 -68.5t76.5 -191.5q0 -37 -12 -106l-117 -662l-315 -24l-4 112h-14q-96 -119 -283 -118q-299 0 -299 258q0 170 119.5 263t328.5 93h217l9 43l2 18q2 18 2 31q0 74 -121 74q-172 0 -326 -41l-2 258 q242 61 510 61zM451 281q0 -80 86 -80q135 0 168 161l12 64h-148q-51 0 -84.5 -35.5t-33.5 -109.5z" glyph-name="aacute" unicode="á"/><glyph d="M795 1395l-220 -209h-311l348 411h428l222 -411h-312zM819 1040q152 0 228.5 -68.5t76.5 -191.5q0 -37 -12 -106l-117 -662l-315 -24l-4 112h-14q-96 -119 -283 -118q-299 0 -299 258q0 170 119.5 263t328.5 93h217l9 43l2 18q2 18 2 31q0 74 -121 74q-172 0 -326 -41 l-2 258q242 61 510 61zM451 281q0 -80 86 -80q135 0 168 161l12 64h-148q-51 0 -84.5 -35.5t-33.5 -109.5z" glyph-name="acircumflex" unicode="â"/><glyph d="M1049 1503h204q-27 -170 -119 -260t-229 -90q-104 0 -164 51l-57 45q-29 20 -61 21q-63 0 -95 -90h-206q25 158 121 255t231 97q76 0 168 -55l59 -39q35 -25 64 -25q51 0 84 90zM819 1040q152 0 228.5 -68.5t76.5 -191.5q0 -37 -12 -106l-117 -662l-315 -24l-4 112h-14 q-96 -119 -283 -118q-299 0 -299 258q0 170 119.5 263t328.5 93h217l9 43l2 18q2 18 2 31q0 74 -121 74q-172 0 -326 -41l-2 258q242 61 510 61zM451 281q0 -80 86 -80q135 0 168 161l12 64h-148q-51 0 -84.5 -35.5t-33.5 -109.5z" glyph-name="atilde" unicode="ã"/><glyph d="M758 1516l-58 -314h-362l57 314h363zM887 1516h362l-57 -314h-361zM819 1040q152 0 228.5 -68.5t76.5 -191.5q0 -37 -12 -106l-117 -662l-315 -24l-4 112h-14q-96 -119 -283 -118q-299 0 -299 258q0 170 119.5 263t328.5 93h217l9 43l2 18q2 18 2 31q0 74 -121 74 q-172 0 -326 -41l-2 258q242 61 510 61zM451 281q0 -80 86 -80q135 0 168 161l12 64h-148q-51 0 -84.5 -35.5t-33.5 -109.5z" glyph-name="adieresis" unicode="ä"/><glyph d="M739 1120q-283 0 -282 213q0 160 96 242t270 82q281 0 281 -207q0 -162 -94.5 -246t-270.5 -84zM799 1493q-147 0 -148 -127q0 -84 113 -84q70 0 106.5 36t36.5 93q1 82 -108 82zM819 1040q152 0 228.5 -68.5t76.5 -191.5q0 -37 -12 -106l-117 -662l-315 -24l-4 112h-14 q-96 -119 -283 -118q-299 0 -299 258q0 170 119.5 263t328.5 93h217l9 43l2 18q2 18 2 31q0 74 -121 74q-172 0 -326 -41l-2 258q242 61 510 61zM451 281q0 -80 86 -80q135 0 168 161l12 64h-148q-51 0 -84.5 -35.5t-33.5 -109.5z" glyph-name="aring" unicode="å"/><glyph d="M934 1042q164 0 233.5 -70.5t69.5 -213.5q0 -96 -29 -250q-8 -41 -20 -86h-412q-10 -72 -10 -103q0 -80 45 -79q98 0 287 43l-2 -236q-201 -66 -320 -65q-213 0 -287 127h-4q-109 -127 -266 -127q-246 0 -246 241q0 160 98.5 264.5t272.5 104.5h109l8 49q6 74 6 80 q0 41 -45 41q-109 0 -234 -47l-4 256q233 72 420 71q92 0 150 -28q78 28 180 28zM805 592h106q18 109 19 160q0 57 -27 57q-33 0 -53 -44t-45 -173zM342 199q41 0 70 170l10 53h-25q-35 0 -57.5 -53.5t-22.5 -110.5q0 -59 25 -59z" glyph-name="ae" unicode="æ"/><glyph d="M834 782q-193 0 -269 -82t-76 -290q0 -96 56.5 -133t193.5 -37q109 0 211 22l-22 -254q-98 -27 -248 -26l-21 -62q231 -8 232 -129q0 -102 -101.5 -151.5t-236.5 -49.5q-162 0 -248 23l35 131q49 -16 119 -16q111 0 110 59q0 16 -12 21.5t-59 5.5h-76l57 178 q-182 23 -270 117t-88 301q0 631 713 630q141 0 260 -24l-72 -256q-96 22 -188 22z" glyph-name="ccedilla" unicode="ç"/><glyph d="M958 1120h-288l-246 412h407zM475 412v-27q0 -80 31 -112.5t102 -32.5q162 0 361 34l14 -235q-227 -57 -399 -57q-461 0 -461 376q0 315 148.5 498.5t441.5 183.5q403 0 403 -313q0 -61 -14.5 -165.5t-30.5 -149.5h-596zM692 805q-143 0 -192 -187h282q6 49 6 84 q0 103 -96 103z" glyph-name="egrave" unicode="è"/><glyph d="M1151 1532l-379 -412h-289l260 412h408zM713 1040q403 0 403 -313q0 -61 -14.5 -165.5t-30.5 -149.5h-596v-27q0 -80 31 -112.5t102 -32.5q162 0 361 34l14 -235q-227 -57 -399 -57q-461 0 -461 376q0 315 148.5 498.5t441.5 183.5zM500 618h282q6 49 6 84q0 102 -96 103 q-143 -1 -192 -187z" glyph-name="eacute" unicode="é"/><glyph d="M756 1339l-219 -209h-312l348 412h428l222 -412h-312zM713 1040q403 0 403 -313q0 -61 -14.5 -165.5t-30.5 -149.5h-596v-27q0 -80 31 -112.5t102 -32.5q162 0 361 34l14 -235q-227 -57 -399 -57q-461 0 -461 376q0 315 148.5 498.5t441.5 183.5zM500 618h282q6 49 6 84 q0 102 -96 103q-143 -1 -192 -187z" glyph-name="ecircumflex" unicode="ê"/><glyph d="M719 1460l-57 -313h-363l57 313h363zM848 1460h362l-57 -313h-360zM713 1040q403 0 403 -313q0 -61 -14.5 -165.5t-30.5 -149.5h-596v-27q0 -80 31 -112.5t102 -32.5q162 0 361 34l14 -235q-227 -57 -399 -57q-461 0 -461 376q0 315 148.5 498.5t441.5 183.5zM500 618 h282q6 49 6 84q0 102 -96 103q-143 -1 -192 -187z" glyph-name="edieresis" unicode="ë"/><glyph d="M958 1176h-288l-246 411h407zM815 242h285l-43 -242h-971l43 242h330l96 540h-313l43 242h669z" glyph-name="igrave" unicode="ì"/><glyph d="M1151 1587l-379 -411h-289l260 411h408zM954 1024l-139 -782h285l-43 -242h-971l43 242h330l96 540h-313l43 242h669z" glyph-name="iacute" unicode="í"/><glyph d="M756 1395l-219 -209h-312l348 411h428l222 -411h-312zM954 1024l-139 -782h285l-43 -242h-971l43 242h330l96 540h-313l43 242h669z" glyph-name="icircumflex" unicode="î"/><glyph d="M719 1516l-57 -314h-363l57 314h363zM848 1516h362l-57 -314h-360zM954 1024l-139 -782h285l-43 -242h-971l43 242h330l96 540h-313l43 242h669z" glyph-name="idieresis" unicode="ï"/><glyph d="M1180 1186l-158 -37q104 -201 104 -467q0 -342 -135 -521t-438 -179q-254 0 -359.5 84t-105.5 256q0 643 494 643q102 0 151 -29h15q-14 57 -52 137l-274 -63l-35 200l201 45q-25 37 -103 142h373l49 -68l240 55zM561 240q74 0 120 60t62.5 141t16.5 182q0 59 -22.5 88.5 t-86.5 29.5q-113 0 -156.5 -98t-43.5 -274q-1 -129 110 -129z" glyph-name="eth" unicode="ð"/><glyph d="M590 1270q-63 0 -94 -90h-207q25 158 121 255t231 97q76 0 168 -55l59 -39q35 -25 64 -25q51 0 84 90h205q-27 -170 -119 -260t-230 -90q-104 0 -163 51l-58 45q-28 21 -61 21zM862 1040q127 0 191.5 -57t64.5 -162q0 -63 -16 -162l-115 -659h-356l112 639q0 6 3.5 22.5 t4.5 32t1 25.5q0 63 -74 63q-63 0 -99 -27.5t-49 -95.5l-114 -659h-355l177 1012l325 26v-112h19q92 114 280 114z" glyph-name="ntilde" unicode="ñ"/><glyph d="M678 1176l-246 411h408l127 -411h-289zM539 -18q-223 0 -321.5 88t-98.5 288q0 326 151.5 504t429.5 178q215 0 312.5 -89t97.5 -285q0 -328 -148.5 -506t-422.5 -178zM551 240q88 0 144.5 120.5t56.5 305.5q0 117 -72 116q-88 0 -145.5 -118.5t-57.5 -305.5 q0 -118 74 -118z" glyph-name="ograve" unicode="ò"/><glyph d="M780 1176h-288l260 411h407zM539 -18q-223 0 -321.5 88t-98.5 288q0 326 151.5 504t429.5 178q215 0 312.5 -89t97.5 -285q0 -328 -148.5 -506t-422.5 -178zM551 240q88 0 144.5 120.5t56.5 305.5q0 117 -72 116q-88 0 -145.5 -118.5t-57.5 -305.5q0 -118 74 -118z" glyph-name="oacute" unicode="ó"/><glyph d="M764 1395l-219 -209h-312l349 411h428l221 -411h-311zM700 1040q215 0 312.5 -89t97.5 -285q0 -328 -148.5 -506t-422.5 -178q-223 0 -321.5 88t-98.5 288q0 326 151 504t430 178zM551 240q88 0 144.5 120.5t56.5 305.5q0 117 -72 116q-88 0 -145.5 -118.5t-57.5 -305.5 q0 -118 74 -118z" glyph-name="ocircumflex" unicode="ô"/><glyph d="M874 1153q-104 0 -163 51l-58 45q-29 20 -61 21q-63 0 -94 -90h-207q25 158 121 255t231 97q76 0 168 -55l59 -39q35 -25 64 -25q51 0 84 90h205q-27 -170 -119.5 -260t-229.5 -90zM539 -18q-223 0 -321.5 88t-98.5 288q0 326 151.5 504t429.5 178q215 0 312.5 -89 t97.5 -285q0 -328 -148.5 -506t-422.5 -178zM551 240q88 0 144.5 120.5t56.5 305.5q0 117 -72 116q-88 0 -145.5 -118.5t-57.5 -305.5q0 -118 74 -118z" glyph-name="otilde" unicode="õ"/><glyph d="M365 1516h362l-57 -314h-363zM856 1516h363l-58 -314h-360zM539 -18q-223 0 -321.5 88t-98.5 288q0 326 151.5 504t429.5 178q215 0 312.5 -89t97.5 -285q0 -328 -148.5 -506t-422.5 -178zM551 240q88 0 144.5 120.5t56.5 305.5q0 117 -72 116q-88 0 -145.5 -118.5 t-57.5 -305.5q0 -118 74 -118z" glyph-name="odieresis" unicode="ö"/><glyph d="M496 745l57 312h311l-55 -312h-313zM188 641h895l-49 -272h-895zM360 -47l56 309h313l-55 -309h-314z" glyph-name="divide" unicode="÷"/><glyph d="M965 985q145 -80 145 -319q0 -328 -148.5 -506t-422.5 -178q-57 0 -107 6l-47 -90h-205l76 143q-137 84 -137 317q0 326 151.5 504t429.5 178q33 0 86 -4l58 107h205zM649 778q-63 -16 -107 -100t-59 -213zM567 242q70 10 119 102t62 234z" glyph-name="oslash" unicode="ø"/><glyph d="M969 1176h-289l-246 411h408zM811 1024h354l-176 -1012l-325 -26v114h-17q-92 -117 -282 -116q-127 0 -191.5 58t-64.5 163q0 61 16 160l117 659h354l-113 -639q0 -6 -3 -22.5t-4 -31t-1 -24.5q0 -66 74 -65q127 0 147 123z" glyph-name="ugrave" unicode="ù"/><glyph d="M1161 1587l-379 -411h-288l260 411h407zM811 1024h354l-176 -1012l-325 -26v114h-17q-92 -117 -282 -116q-127 0 -191.5 58t-64.5 163q0 61 16 160l117 659h354l-113 -639q0 -6 -3 -22.5t-4 -31t-1 -24.5q0 -66 74 -65q127 0 147 123z" glyph-name="uacute" unicode="ú"/><glyph d="M766 1395l-219 -209h-311l348 411h428l221 -411h-311zM696 365l115 659h354l-176 -1012l-325 -26v114h-17q-92 -117 -282 -116q-127 0 -191.5 58t-64.5 163q0 61 16 160l117 659h354l-113 -639q0 -6 -3 -22.5t-4 -31t-1 -24.5q0 -66 74 -65q127 0 147 123z" glyph-name="ucircumflex" unicode="û"/><glyph d="M729 1516l-57 -314h-363l58 314h362zM1221 1516l-58 -314h-360l55 314h363zM696 365l115 659h354l-176 -1012l-325 -26v114h-17q-92 -117 -282 -116q-127 0 -191.5 58t-64.5 163q0 61 16 160l117 659h354l-113 -639q0 -6 -3 -22.5t-4 -31t-1 -24.5q0 -66 74 -65 q127 0 147 123z" glyph-name="udieresis" unicode="ü"/><glyph d="M1161 1587l-379 -411h-288l260 411h407zM862 1024h373l-483 -1096q-84 -188 -210 -263t-313 -75q-109 0 -215 25l64 242q113 -18 184 -19q92 0 138 28t81 120l4 10l-225 4l-84 1024h369l4 -778h29z" glyph-name="yacute" unicode="ý"/><glyph d="M729 1516l-57 -314h-363l58 314h362zM1221 1516l-58 -314h-360l55 314h363zM862 1024h373l-483 -1096q-84 -188 -210 -263t-313 -75q-109 0 -215 25l64 242q113 -18 184 -19q92 0 138 28t81 120l4 10l-225 4l-84 1024h369l4 -778h29z" glyph-name="ydieresis" unicode="ÿ"/><glyph d="M420 1700h749l-41 -250h-749zM1004 1290l83 -1290h-372l-4 283h-281l-92 -283h-377l494 1290h549zM522 561h187l-4 445h-37z" glyph-name="Amacron" unicode="Ā"/><glyph d="M434 1470h750l-41 -249h-750zM819 1040q152 0 228.5 -68.5t76.5 -191.5q0 -37 -12 -106l-117 -662l-315 -24l-4 112h-14q-96 -119 -283 -118q-299 0 -299 258q0 170 119.5 263t328.5 93h217l9 43l2 18q2 18 2 31q0 74 -121 74q-172 0 -326 -41l-2 258q242 61 510 61z M451 281q0 -80 86 -80q135 0 168 161l12 64h-148q-51 0 -84.5 -35.5t-33.5 -109.5z" glyph-name="amacron" unicode="ā"/><glyph d="M961 1804h251l-8 -45q-23 -152 -140.5 -245t-313.5 -93q-193 0 -283 91.5t-68 246.5l7 45h249l-2 -22q-4 -68 27 -87.5t108 -19.5q82 0 125 21.5t48 85.5v22zM1004 1290l83 -1290h-372l-4 283h-281l-92 -283h-377l494 1290h549zM522 561h187l-4 445h-37z" glyph-name="Abreve" unicode="Ă"/><glyph d="M975 1575h252l-8 -45q-23 -152 -140.5 -245t-314.5 -93q-193 0 -283 91t-67 247l6 45h250l-2 -23q-4 -68 26.5 -87t108.5 -19q82 0 125 21.5t47 84.5v23zM819 1040q152 0 228.5 -68.5t76.5 -191.5q0 -37 -12 -106l-117 -662l-315 -24l-4 112h-14q-96 -119 -283 -118 q-299 0 -299 258q0 170 119.5 263t328.5 93h217l9 43l2 18q2 18 2 31q0 74 -121 74q-172 0 -326 -41l-2 258q242 61 510 61zM451 281q0 -80 86 -80q135 0 168 161l12 64h-148q-51 0 -84.5 -35.5t-33.5 -109.5z" glyph-name="abreve" unicode="ă"/><glyph d="M1094 -205l10 -198q-74 -6 -137 -7q-352 0 -353 187q0 129 134 223h-33l-4 283h-281l-92 -283h-377l494 1290h549l83 -1290h-43q-100 -59 -100 -117q0 -47 46.5 -67.5t103.5 -20.5zM522 561h187l-4 445h-37z" glyph-name="Aogonek" unicode="Ą"/><glyph d="M995 12q-123 -66 -123 -129q0 -47 46.5 -67.5t103.5 -20.5l10 -198q-74 -6 -137 -7q-352 0 -352 187q0 127 137 225l-4 98h-14q-96 -119 -283 -118q-299 0 -299 258q0 170 119.5 263t328.5 93h217l9 43l2 18q2 18 2 31q0 74 -121 74q-172 0 -326 -41l-2 258 q242 61 510 61q152 0 228.5 -68.5t76.5 -191.5q0 -37 -12 -106zM451 281q0 -80 86 -80q135 0 168 161l12 64h-148q-51 0 -84.5 -35.5t-33.5 -109.5z" glyph-name="aogonek" unicode="ą"/><glyph d="M858 1405h-289l260 412h408zM657 -18q-281 0 -410.5 128t-129.5 379q0 375 177 597.5t548 222.5q207 0 313 -45l-76 -293q-111 37 -219 37q-195 0 -279.5 -134.5t-84.5 -384.5q0 -115 55 -160.5t170 -45.5q131 0 233 32l15 -284q-132 -49 -312 -49z" glyph-name="Cacute" unicode="Ć"/><glyph d="M868 1176h-288l260 411h407zM668 -18q-287 0 -417 87t-130 341q0 631 713 630q141 0 260 -24l-72 -256q-96 23 -188 22q-193 0 -269 -82t-76 -290q0 -96 56.5 -133t193.5 -37q109 0 211 22l-22 -254q-104 -26 -260 -26z" glyph-name="cacute" unicode="ć"/><glyph d="M842 1624l-219 -209h-312l348 412h428l222 -412h-312zM117 489q0 375 177 597.5t548 222.5q207 0 313 -45l-76 -293q-111 37 -219 37q-195 0 -279.5 -134.5t-84.5 -384.5q0 -115 55 -160.5t170 -45.5q131 0 233 32l15 -284q-131 -49 -312 -49q-281 0 -410.5 127.5 t-129.5 379.5z" glyph-name="Ccircumflex" unicode="Ĉ"/><glyph d="M852 1395l-219 -209h-311l348 411h428l221 -411h-311zM121 410q0 631 713 630q141 0 260 -24l-72 -256q-96 23 -188 22q-193 0 -269 -82t-76 -290q0 -96 56.5 -133t193.5 -37q109 0 211 22l-22 -254q-104 -27 -260 -26q-287 0 -417 87t-130 341z" glyph-name="ccircumflex" unicode="ĉ"/><glyph d="M686 1745h363l-56 -313h-362zM657 -18q-281 0 -410.5 128t-129.5 379q0 375 177 597.5t548 222.5q207 0 313 -45l-76 -293q-111 37 -219 37q-195 0 -279.5 -134.5t-84.5 -384.5q0 -115 55 -160.5t170 -45.5q131 0 233 32l15 -284q-132 -49 -312 -49z" glyph-name="Cdotaccent" unicode="Ċ"/><glyph d="M696 1516h363l-55 -314h-363zM668 -18q-287 0 -417 87t-130 341q0 631 713 630q141 0 260 -24l-72 -256q-96 23 -188 22q-193 0 -269 -82t-76 -290q0 -96 56.5 -133t193.5 -37q109 0 211 22l-22 -254q-104 -26 -260 -26z" glyph-name="cdotaccent" unicode="ċ"/><glyph d="M598 1415l-221 412h311l156 -209l221 209h309l-348 -412h-428zM117 489q0 375 177 597.5t548 222.5q207 0 313 -45l-76 -293q-111 37 -219 37q-195 0 -279.5 -134.5t-84.5 -384.5q0 -115 55 -160.5t170 -45.5q131 0 233 32l15 -284q-131 -49 -312 -49 q-281 0 -410.5 127.5t-129.5 379.5z" glyph-name="Ccaron" unicode="Č"/><glyph d="M608 1186l-221 411h311l156 -208l221 208h309l-348 -411h-428zM121 410q0 631 713 630q141 0 260 -24l-72 -256q-96 23 -188 22q-193 0 -269 -82t-76 -290q0 -96 56.5 -133t193.5 -37q109 0 211 22l-22 -254q-104 -27 -260 -26q-287 0 -417 87t-130 341z" glyph-name="ccaron" unicode="č"/><glyph d="M530 1415l-221 412h312l155 -209l221 209h310l-349 -412h-428zM772 1290q207 0 299 -105.5t92 -328.5q0 -168 -33.5 -317.5t-100 -272.5t-181.5 -194.5t-262 -71.5h-531l230 1290h487zM573 289q76 0 128.5 103.5t72 225t19.5 238.5q0 82 -17.5 113.5t-62.5 31.5h-111 l-127 -712h98z" glyph-name="Dcaron" unicode="Ď"/><glyph d="M799 1393h356l-244 -1381l-319 -24l-2 114h-12q-76 -121 -232 -120q-160 0 -231.5 88t-71.5 272q0 143 27.5 266t85 221.5t155 154.5t226.5 56q117 0 170 -77h16zM1227 1393h192l-55 -310l-162 -360h-121l152 360h-62zM662 610q6 35 6 82q0 41 -26 64.5t-58 23.5 q-88 0 -133 -138t-45 -288q0 -70 19 -92t69 -22q102 0 124 129z" glyph-name="dcaron" unicode="ď"/><glyph d="M772 1290q207 0 299 -105.5t92 -328.5q0 -168 -33.5 -317.5t-100 -272.5t-181.5 -194.5t-262 -71.5h-531l95 524h-84l51 285h82l86 481h487zM573 289q76 0 128.5 103.5t72 225t19.5 238.5q0 82 -17.5 113.5t-62.5 31.5h-111l-35 -192h164l-51 -285h-162l-43 -235h98z" glyph-name="Dcroat" unicode="Đ"/><glyph d="M1384 1335l-43 -241h-161l-191 -1082l-319 -24l-2 114h-13q-76 -121 -231 -120q-160 0 -231.5 88t-71.5 272q0 143 27.5 266t85 221.5t154.5 154.5t226 56q117 0 170 -77h17l22 131h-323l43 241h323l11 58h356l-10 -58h161zM739 610q6 35 6 82q0 41 -25.5 64.5 t-57.5 23.5q-88 0 -133.5 -138t-45.5 -288q0 -70 19.5 -92t68.5 -22q102 0 125 129z" glyph-name="dcroat" unicode="đ"/><glyph d="M1210 1700l-41 -250h-749l41 250h749zM1190 1290l-49 -284h-539l-35 -197h500l-51 -285h-498l-43 -239h559l-49 -285h-930l230 1290h905z" glyph-name="Emacron" unicode="Ē"/><glyph d="M1145 1415l-41 -250h-750l41 250h750zM713 1040q403 0 403 -313q0 -61 -14.5 -165.5t-30.5 -149.5h-596v-27q0 -80 31 -112.5t102 -32.5q162 0 361 34l14 -235q-227 -57 -399 -57q-461 0 -461 376q0 315 148.5 498.5t441.5 183.5zM500 618h282q6 49 6 84q0 102 -96 103 q-143 -1 -192 -187z" glyph-name="emacron" unicode="ē"/><glyph d="M1001 1804h252l-8 -45q-23 -152 -140.5 -245t-313.5 -93q-193 0 -283 91.5t-68 246.5l6 45h250l-2 -22q-4 -68 27 -87.5t108 -19.5q82 0 125 21.5t47 85.5v22zM1190 1290l-49 -284h-539l-35 -197h500l-51 -285h-498l-43 -239h559l-49 -285h-930l230 1290h905z" glyph-name="Ebreve" unicode="Ĕ"/><glyph d="M936 1520h252l-8 -45q-23 -152 -140.5 -245t-314.5 -93q-193 0 -283 91t-67 247l6 45h250l-2 -23q-4 -68 26.5 -87t108.5 -19q82 0 125 21.5t47 84.5v23zM713 1040q403 0 403 -313q0 -61 -14.5 -165.5t-30.5 -149.5h-596v-27q0 -80 31 -112.5t102 -32.5q162 0 361 34 l14 -235q-227 -57 -399 -57q-461 0 -461 376q0 315 148.5 498.5t441.5 183.5zM500 618h282q6 49 6 84q0 102 -96 103q-143 -1 -192 -187z" glyph-name="ebreve" unicode="ĕ"/><glyph d="M1028 1745l-55 -313h-363l56 313h362zM1141 1006h-539l-35 -197h500l-51 -285h-498l-43 -239h559l-49 -285h-930l230 1290h905z" glyph-name="Edotaccent" unicode="Ė"/><glyph d="M963 1460l-56 -313h-362l55 313h363zM475 412v-27q0 -80 31 -112.5t102 -32.5q162 0 361 34l14 -235q-227 -57 -399 -57q-461 0 -461 376q0 315 148.5 498.5t441.5 183.5q403 0 403 -313q0 -61 -14.5 -165.5t-30.5 -149.5h-596zM692 805q-143 0 -192 -187h282q6 49 6 84 q0 103 -96 103z" glyph-name="edotaccent" unicode="ė"/><glyph d="M1141 1006h-539l-35 -197h500l-51 -285h-498l-43 -239h559l-49 -285h-39q-100 -59 -100 -117q0 -47 46 -67.5t103 -20.5l11 -198q-74 -6 -138 -7q-352 0 -352 187q0 129 133 223h-594l230 1290h905z" glyph-name="Eogonek" unicode="Ę"/><glyph d="M475 412v-27q0 -80 31 -112.5t102 -32.5q162 0 361 34l14 -235q-94 -25 -178 -37q-102 -61 -103 -119q0 -47 46.5 -67.5t103.5 -20.5l10 -198q-74 -6 -137 -7q-352 0 -352 187q0 119 114 209q-365 39 -364 372q0 315 148.5 498.5t441.5 183.5q403 0 403 -313 q0 -61 -14.5 -165.5t-30.5 -149.5h-596zM692 805q-143 0 -192 -187h282q6 49 6 84q0 103 -96 103z" glyph-name="eogonek" unicode="ę"/><glyph d="M578 1415l-222 412h312l155 -209l221 209h310l-348 -412h-428zM1190 1290l-49 -284h-539l-35 -197h500l-51 -285h-498l-43 -239h559l-49 -285h-930l230 1290h905z" glyph-name="Ecaron" unicode="Ě"/><glyph d="M512 1130l-221 412h311l156 -209l221 209h309l-348 -412h-428zM713 1040q403 0 403 -313q0 -61 -14.5 -165.5t-30.5 -149.5h-596v-27q0 -80 31 -112.5t102 -32.5q162 0 361 34l14 -235q-227 -57 -399 -57q-461 0 -461 376q0 315 148.5 498.5t441.5 183.5zM500 618h282 q6 49 6 84q0 102 -96 103q-143 -1 -192 -187z" glyph-name="ecaron" unicode="ě"/><glyph d="M797 1624l-219 -209h-312l348 412h428l222 -412h-312zM799 1008q-313 0 -314 -602q0 -70 23.5 -96.5t83.5 -26.5q55 0 90 37.5t53 140.5l8 43h-112l49 272h436l-135 -770l-295 -24l2 127h-12q-98 -127 -256 -127q-313 0 -314 424q0 193 37 351t113 284t205 197t299 71 q248 0 362 -41l-94 -305q-88 45 -229 45z" glyph-name="Gcircumflex" unicode="Ĝ"/><glyph d="M752 1395l-220 -209h-311l348 411h428l222 -411h-312zM805 920l43 114l311 -24l-178 -1012q-25 -135 -57.5 -209t-103 -122t-173 -62.5t-280.5 -14.5q-150 0 -306 19l70 252q166 -12 301 -13q96 0 136 27t55 113l12 67h-10q-74 -74 -205 -73q-150 0 -226.5 84t-76.5 282 q0 135 27.5 254t83 220.5t154.5 159.5t228 58q150 0 185 -120h10zM739 651q4 33 4 41q0 90 -92 90q-76 0 -124 -141t-48 -283q0 -70 18.5 -93t63.5 -23q57 0 86 27.5t43 109.5z" glyph-name="gcircumflex" unicode="ĝ"/><glyph d="M977 1804h252l-8 -45q-23 -152 -140.5 -245t-314.5 -93q-193 0 -283 91.5t-67 246.5l6 45h250l-2 -22q-4 -68 26.5 -87.5t108.5 -19.5q82 0 125 21.5t47 85.5v22zM799 1008q-313 0 -314 -602q0 -70 23.5 -96.5t83.5 -26.5q55 0 90 37.5t53 140.5l8 43h-112l49 272h436 l-135 -770l-295 -24l2 127h-12q-98 -127 -256 -127q-313 0 -314 424q0 193 37 351t113 284t205 197t299 71q248 0 362 -41l-94 -305q-88 45 -229 45z" glyph-name="Gbreve" unicode="Ğ"/><glyph d="M932 1575h252l-8 -45q-23 -152 -140.5 -245t-314.5 -93q-193 0 -283 91t-67 247l6 45h250l-2 -23q-4 -68 26.5 -87t108.5 -19q82 0 125 21.5t47 84.5v23zM805 920l43 114l311 -24l-178 -1012q-25 -135 -57.5 -209t-103 -122t-173 -62.5t-280.5 -14.5q-150 0 -306 19 l70 252q166 -12 301 -13q96 0 136 27t55 113l12 67h-10q-74 -74 -205 -73q-150 0 -226.5 84t-76.5 282q0 135 27.5 254t83 220.5t154.5 159.5t228 58q150 0 185 -120h10zM739 651q4 33 4 41q0 90 -92 90q-76 0 -124 -141t-48 -283q0 -70 18.5 -93t63.5 -23q57 0 86 27.5 t43 109.5z" glyph-name="gbreve" unicode="ğ"/><glyph d="M1004 1745l-56 -313h-362l55 313h363zM1116 776l-135 -770l-295 -24l2 127h-12q-98 -127 -256 -127q-313 0 -314 424q0 193 37 351t113 284t205 197t299 71q248 0 362 -41l-94 -305q-88 45 -229 45q-313 0 -314 -602q0 -70 23.5 -96.5t83.5 -26.5q55 0 90 37.5t53 140.5 l8 43h-112l49 272h436z" glyph-name="Gdotaccent" unicode="Ġ"/><glyph d="M958 1516l-55 -314h-362l55 314h362zM848 1034l311 -24l-178 -1012q-25 -135 -57.5 -209t-103 -122t-173 -62.5t-280.5 -14.5q-150 0 -306 19l70 252q166 -12 301 -13q96 0 136 27t55 113l12 67h-10q-74 -74 -205 -73q-150 0 -226.5 84t-76.5 282q0 135 27.5 254 t83 220.5t154.5 159.5t228 58q150 0 185 -120h10zM739 651q4 33 4 41q0 90 -92 90q-76 0 -124 -141t-48 -283q0 -70 18.5 -93t63.5 -23q57 0 86 27.5t43 109.5z" glyph-name="gdotaccent" unicode="ġ"/><glyph d="M1116 776l-135 -770l-295 -24l2 127h-12q-98 -127 -256 -127q-313 0 -314 424q0 193 37 351t113 284t205 197t299 71q248 0 362 -41l-94 -305q-88 45 -229 45q-313 0 -314 -602q0 -70 23.5 -96.5t83.5 -26.5q55 0 90 37.5t53 140.5l8 43h-112l49 272h436zM250 -348 l41 260h305l-41 -260l-129 -197h-188l112 197h-100z" glyph-name="Gcommaaccent" unicode="Ģ"/><glyph d="M891 1440l-39 -260h-303l39 260l170 264h190l-153 -264h96zM848 1034l311 -24l-178 -1012q-25 -135 -57.5 -209t-103 -122t-173 -62.5t-280.5 -14.5q-150 0 -306 19l70 252q166 -12 301 -13q96 0 136 27t55 113l12 67h-10q-74 -74 -205 -73q-150 0 -226.5 84t-76.5 282 q0 135 27.5 254t83 220.5t154.5 159.5t228 58q150 0 185 -120h10zM739 651q4 33 4 41q0 90 -92 90q-76 0 -124 -141t-48 -283q0 -70 18.5 -93t63.5 -23q57 0 86 27.5t43 109.5z" glyph-name="gcommaaccent" unicode="ģ"/><glyph d="M803 1624l-219 -209h-312l349 412h428l221 -412h-312zM764 815l84 475h369l-230 -1290h-369l95 528h-195l-94 -528h-369l230 1290h368l-84 -475h195z" glyph-name="Hcircumflex" unicode="Ĥ"/><glyph d="M535 1722l-220 -209h-311l348 412h428l221 -412h-311zM862 1040q127 0 191.5 -57t64.5 -162q0 -63 -16 -162l-115 -659h-356l112 639q0 6 3.5 22.5t4.5 32t1 25.5q0 63 -74 63q-63 0 -99 -27.5t-49 -95.5l-114 -659h-355l246 1393h355l-78 -445h18q90 92 260 92z" glyph-name="hcircumflex" unicode="ĥ"/><glyph d="M1305 1178l-43 -246h-109l-166 -932h-369l95 528h-195l-94 -528h-369l166 932h-104l43 246h104l21 112h368l-20 -112h194l21 112h369l-21 -112h109zM764 815l20 117h-194l-21 -117h195z" glyph-name="Hbar" unicode="Ħ"/><glyph d="M862 1040q127 0 191.5 -57t64.5 -162q0 -63 -16 -162l-115 -659h-356l112 639q0 6 3.5 22.5t4.5 32t1 25.5q0 63 -74 63q-63 0 -99 -27.5t-49 -95.5l-114 -659h-355l193 1094h-162l43 241h162l10 58h355l-11 -58h328l-43 -241h-328l-24 -146h18q90 92 260 92z" glyph-name="hbar" unicode="ħ"/><glyph d="M629 1499q-63 0 -94 -90h-207q25 158 121 255t231 97q76 0 168 -55l59 -39q35 -25 64 -25q51 0 84 91h205q-27 -170 -119 -260.5t-230 -90.5q-104 0 -163 52l-58 45q-28 20 -61 20zM1194 1290l-49 -284h-262l-127 -721h260l-51 -285h-887l49 285h260l127 721h-256l49 284 h887z" glyph-name="Itilde" unicode="Ĩ"/><glyph d="M584 1270q-63 0 -95 -90h-206q25 158 121 255t231 97q76 0 168 -55l59 -39q35 -25 64 -25q51 0 84 90h204q-27 -170 -118.5 -260t-229.5 -90q-104 0 -164 51l-57 45q-28 21 -61 21zM954 1024l-139 -782h285l-43 -242h-971l43 242h330l96 540h-313l43 242h669z" glyph-name="itilde" unicode="ĩ"/><glyph d="M1190 1700l-41 -250h-750l41 250h750zM1145 1006h-262l-127 -721h260l-51 -285h-887l49 285h260l127 721h-256l49 284h887z" glyph-name="Imacron" unicode="Ī"/><glyph d="M395 1470h750l-41 -249h-750zM954 1024l-139 -782h285l-43 -242h-971l43 242h330l96 540h-313l43 242h669z" glyph-name="imacron" unicode="ī"/><glyph d="M1145 1006h-262l-127 -721h260l-51 -285h-293q-100 -59 -101 -117q0 -47 46.5 -67.5t103.5 -20.5l10 -198q-74 -6 -137 -7q-352 0 -352 187q0 129 133 223h-297l49 285h260l127 721h-256l49 284h887z" glyph-name="Iogonek" unicode="Į"/><glyph d="M1020 1401l-51 -291h-355l52 291h354zM745 0q-100 -59 -100 -117q0 -47 46 -67.5t104 -20.5l10 -198q-74 -6 -137 -7q-352 0 -353 187q0 129 134 223h-363l43 244h330l96 536h-313l43 244h667l-137 -780h285l-43 -244h-312z" glyph-name="iogonek" unicode="į"/><glyph d="M1008 1745l-56 -313h-362l55 313h363zM1145 1006h-262l-127 -721h260l-51 -285h-887l49 285h260l127 721h-256l49 284h887z" glyph-name="Idotaccent" unicode="İ"/><glyph d="M815 242h285l-43 -242h-971l43 242h330l96 540h-313l43 242h669z" glyph-name="dotlessi" unicode="ı"/><glyph d="M844 1624l-219 -209h-312l349 412h428l221 -412h-312zM1204 1290l-164 -928q-41 -229 -163.5 -304.5t-438.5 -75.5q-131 0 -284 26l79 287q98 -12 201 -12q131 0 181.5 21.5t62.5 88.5l108 613h-380l51 284h747z" glyph-name="Jcircumflex" unicode="Ĵ"/><glyph d="M692 1395l-219 -209h-311l348 411h428l221 -411h-311zM1042 1024l-180 -1016q-31 -182 -92 -266t-191 -118t-399 -34q-92 0 -235 21l59 254q158 -16 240 -17q147 0 197.5 32t68.5 143l133 757h-407l43 244h763z" glyph-name="jcircumflex" unicode="ĵ"/><glyph d="M1309 1290l-396 -610l185 -680h-410l-80 520h-92l-92 -520h-369l230 1290h368l-84 -469h90l269 469h381zM348 -348l41 260h305l-41 -260l-129 -197h-188l113 197h-101z" glyph-name="Kcommaaccent" unicode="Ķ"/><glyph d="M1257 1024l-378 -457l206 -567h-391l-112 449h-64l-80 -449h-356l246 1393h356l-127 -719h68l243 350h389zM352 -348l41 260h305l-41 -260l-129 -197h-188l113 197h-101z" glyph-name="kcommaaccent" unicode="ķ"/><glyph d="M909 1817l-379 -412h-288l260 412h407zM475 285h598l-49 -285h-969l230 1290h368z" glyph-name="Lacute" unicode="Ĺ"/><glyph d="M1163 1915l-379 -412h-288l260 412h407zM696 313q0 -43 33 -58t119 -15q63 0 203 18l-17 -250q-137 -27 -250 -26q-244 0 -345 61t-101 213q0 55 12 133l135 760h-297l45 244h650l-185 -1043q0 -6 -1 -19.5t-1 -17.5z" glyph-name="lacute" unicode="ĺ"/><glyph d="M475 285h598l-49 -285h-969l230 1290h368zM328 -348l41 260h305l-41 -260l-129 -197h-189l113 197h-100z" glyph-name="Lcommaaccent" unicode="Ļ"/><glyph d="M848 240q63 0 203 18l-17 -250q-137 -27 -250 -26q-244 0 -345 61t-101 213q0 55 12 133l135 760h-297l45 244h650l-185 -1043q0 -6 -1 -19.5t-1 -17.5q0 -43 33 -58t119 -15zM494 -348l41 260h305l-41 -260l-129 -197h-189l113 197h-100z" glyph-name="lcommaaccent" unicode="ļ"/><glyph d="M930 1393h305l-51 -310l-226 -360h-190l207 360h-103zM653 1290l-178 -1005h598l-49 -285h-969l230 1290h368z" glyph-name="Lcaron" unicode="Ľ"/><glyph d="M696 313q0 -43 33 -58t119 -15q63 0 203 18l-17 -250q-137 -27 -250 -26q-244 0 -345 61t-101 213q0 55 12 133l135 760h-297l45 244h650l-185 -1043q0 -6 -1 -19.5t-1 -17.5zM1047 1393h307l-58 -310l-219 -360h-194l209 360h-101z" glyph-name="lcaron" unicode="ľ"/><glyph d="M653 1290l-178 -1005h598l-49 -285h-969l230 1290h368zM813 815h350l-63 -348h-350z" glyph-name="Ldot" unicode="Ŀ"/><glyph d="M696 313q0 -43 33 -58t119 -15q63 0 203 18l-17 -250q-137 -27 -250 -26q-244 0 -345 61t-101 213q0 55 12 133l135 760h-297l45 244h650l-185 -1043q0 -6 -1 -19.5t-1 -17.5zM1020 883h350l-63 -348h-351z" glyph-name="ldot" unicode="ŀ"/><glyph d="M475 285h598l-49 -285h-969l51 285l-172 -146l62 350l172 146l117 655h368l-51 -286l301 253l-63 -350l-299 -254z" glyph-name="Lslash" unicode="Ł"/><glyph d="M848 240q63 0 203 18l-17 -250q-137 -27 -250 -26q-244 0 -345 61t-101 213q0 43 6 96l-264 -225l61 338l262 223l82 461h-297l45 244h650l-62 -349l217 185l-57 -336l-219 -186l-64 -357q0 -6 -1 -19.5t-1 -17.5q0 -43 33 -58t119 -15z" glyph-name="lslash" unicode="ł"/><glyph d="M1198 1817l-379 -412h-289l261 412h407zM911 1292h308l-230 -1292h-428l-45 842l-149 -842h-310l230 1292h432l45 -831z" glyph-name="Nacute" unicode="Ń"/><glyph d="M1157 1587l-379 -411h-289l261 411h407zM862 1040q127 0 191.5 -57t64.5 -162q0 -63 -16 -162l-115 -659h-356l112 639q0 6 3.5 22.5t4.5 32t1 25.5q0 63 -74 63q-63 0 -99 -27.5t-49 -95.5l-114 -659h-355l177 1012l325 26v-112h19q92 114 280 114z" glyph-name="nacute" unicode="ń"/><glyph d="M911 1292h308l-230 -1292h-428l-45 842l-149 -842h-310l230 1292h432l45 -831zM309 -348l41 260h305l-41 -260l-129 -197h-188l113 197h-101z" glyph-name="Ncommaaccent" unicode="Ņ"/><glyph d="M862 1040q127 0 191.5 -57t64.5 -162q0 -63 -16 -162l-115 -659h-356l112 639q0 6 3.5 22.5t4.5 32t1 25.5q0 63 -74 63q-63 0 -99 -27.5t-49 -95.5l-114 -659h-355l177 1012l325 26v-112h19q92 114 280 114zM313 -348l41 260h305l-41 -260l-129 -197h-188l113 197h-101z " glyph-name="ncommaaccent" unicode="ņ"/><glyph d="M559 1415l-221 412h311l156 -209l221 209h309l-348 -412h-428zM764 461l147 831h308l-230 -1292h-428l-45 842l-149 -842h-310l230 1292h432z" glyph-name="Ncaron" unicode="Ň"/><glyph d="M518 1186l-221 411h311l156 -208l221 208h309l-348 -411h-428zM862 1040q127 0 191.5 -57t64.5 -162q0 -63 -16 -162l-115 -659h-356l112 639q0 6 3.5 22.5t4.5 32t1 25.5q0 63 -74 63q-63 0 -99 -27.5t-49 -95.5l-114 -659h-355l177 1012l325 26v-112h19q92 114 280 114 z" glyph-name="ncaron" unicode="ň"/><glyph d="M440 1700h750l-41 -250h-750zM539 -18q-225 0 -326.5 108.5t-101.5 319.5q0 190 33.5 346.5t105.5 283.5t194.5 198t288.5 71q229 0 330.5 -108.5t101.5 -321.5q0 -188 -34.5 -346t-107.5 -284t-195.5 -196.5t-288.5 -70.5zM569 283q57 0 103.5 60t71 154.5t37 192.5 t12.5 189q0 129 -91 129q-57 0 -102 -60.5t-69.5 -155t-36 -192.5t-11.5 -190q0 -127 86 -127z" glyph-name="Omacron" unicode="Ō"/><glyph d="M403 1470h750l-41 -249h-750zM539 -18q-223 0 -321.5 88t-98.5 288q0 326 151.5 504t429.5 178q215 0 312.5 -89t97.5 -285q0 -328 -148.5 -506t-422.5 -178zM551 240q88 0 144.5 120.5t56.5 305.5q0 117 -72 116q-88 0 -145.5 -118.5t-57.5 -305.5q0 -118 74 -118z" glyph-name="omacron" unicode="ō"/><glyph d="M770 1421q-193 0 -283 91.5t-67 246.5l6 45h250l-2 -22q-4 -68 26.5 -87.5t108.5 -19.5q82 0 125 21.5t47 85.5v22h252l-8 -45q-23 -152 -140.5 -245t-314.5 -93zM539 -18q-225 0 -326.5 108.5t-101.5 319.5q0 190 33.5 346.5t105.5 283.5t194.5 198t288.5 71 q229 0 330.5 -108.5t101.5 -321.5q0 -188 -34.5 -346t-107.5 -284t-195.5 -196.5t-288.5 -70.5zM569 283q57 0 103.5 60t71 154.5t37 192.5t12.5 189q0 129 -91 129q-57 0 -102 -60.5t-69.5 -155t-36 -192.5t-11.5 -190q0 -127 86 -127z" glyph-name="Obreve" unicode="Ŏ"/><glyph d="M733 1192q-193 0 -283 91t-67 247l6 45h250l-2 -23q-4 -68 26.5 -87t108.5 -19q82 0 125 21.5t47 84.5v23h252l-8 -45q-23 -152 -140.5 -245t-314.5 -93zM539 -18q-223 0 -321.5 88t-98.5 288q0 326 151.5 504t429.5 178q215 0 312.5 -89t97.5 -285q0 -328 -148.5 -506 t-422.5 -178zM551 240q88 0 144.5 120.5t56.5 305.5q0 117 -72 116q-88 0 -145.5 -118.5t-57.5 -305.5q0 -118 74 -118z" glyph-name="obreve" unicode="ŏ"/><glyph d="M414 1423l248 412h403l-379 -412h-272zM926 1423l243 412h406l-377 -412h-272zM539 -18q-225 0 -326.5 108.5t-101.5 319.5q0 190 33.5 346.5t105.5 283.5t194.5 198t288.5 71q229 0 330.5 -108.5t101.5 -321.5q0 -188 -34.5 -346t-107.5 -284t-195.5 -196.5 t-288.5 -70.5zM569 283q57 0 103.5 60t71 154.5t37 192.5t12.5 189q0 129 -91 129q-57 0 -102 -60.5t-69.5 -155t-36 -192.5t-11.5 -190q0 -127 86 -127z" glyph-name="Ohungarumlaut" unicode="Ő"/><glyph d="M377 1194l248 412h403l-379 -412h-272zM889 1194l244 412h405l-377 -412h-272zM539 -18q-223 0 -321.5 88t-98.5 288q0 326 151.5 504t429.5 178q215 0 312.5 -89t97.5 -285q0 -328 -148.5 -506t-422.5 -178zM551 240q88 0 144.5 120.5t56.5 305.5q0 117 -72 116 q-88 0 -145.5 -118.5t-57.5 -305.5q0 -118 74 -118z" glyph-name="ohungarumlaut" unicode="ő"/><glyph d="M1294 1008h-280l-35 -197h248l-49 -283h-248l-43 -245h295l-49 -283h-629l4 23q-68 -37 -139 -37q-145 0 -240.5 115.5t-95.5 308.5q0 256 52 449.5t178 317t319 123.5q86 0 147 -30l4 20h613zM444 283q84 0 127 190.5t43 400.5q0 133 -65 134q-82 0 -124 -190.5 t-42 -401.5q0 -133 61 -133z" glyph-name="OE" unicode="Œ"/><glyph d="M784 412q-8 -59 -8 -105q0 -37 10.5 -52t40.5 -15q121 0 252 43l17 -248q-168 -53 -324 -53q-137 0 -223 73q-100 -74 -221 -73q-178 0 -249 73.5t-71 220.5q0 160 26.5 293t81 242t152 170t226.5 61q160 0 233 -61q94 61 207 61q164 0 231.5 -69.5t67.5 -214.5 q0 -72 -16.5 -184.5t-34.5 -161.5h-398zM903 809q-47 0 -88 -193h100q14 88 15 140q0 53 -27 53zM365 240q47 0 81.5 179t34.5 306q0 59 -22 59q-43 0 -80 -180t-37 -305q0 -59 23 -59z" glyph-name="oe" unicode="œ"/><glyph d="M1163 1817l-379 -412h-288l260 412h407zM1147 981q0 -313 -225 -446l155 -535h-387l-94 465h-90l-82 -465h-369l230 1290h442q420 0 420 -309zM608 1034l-59 -334h76q152 0 151 244q0 49 -22.5 69.5t-73.5 20.5h-72z" glyph-name="Racute" unicode="Ŕ"/><glyph d="M1245 1587l-379 -411h-288l260 411h407zM1186 1042q37 0 86 -4l-84 -309q-82 23 -154 23q-166 0 -249 -51.5t-107 -188.5l-92 -512h-355l140 780h-240l43 244h543l12 -121h33q141 139 424 139z" glyph-name="racute" unicode="ŕ"/><glyph d="M1147 981q0 -313 -225 -446l155 -535h-387l-94 465h-90l-82 -465h-369l230 1290h442q420 0 420 -309zM608 1034l-59 -334h76q152 0 151 244q0 49 -22.5 69.5t-73.5 20.5h-72zM334 -348l41 260h305l-41 -260l-129 -197h-188l112 197h-100z" glyph-name="Rcommaaccent" unicode="Ŗ"/><glyph d="M1186 1042q37 0 86 -4l-84 -309q-82 23 -154 23q-166 0 -249 -51.5t-107 -188.5l-92 -512h-355l140 780h-240l43 244h543l12 -121h33q141 139 424 139zM197 -348l41 260h305l-41 -260l-129 -197h-189l113 197h-100z" glyph-name="rcommaaccent" unicode="ŗ"/><glyph d="M524 1415l-221 412h311l156 -209l221 209h309l-348 -412h-428zM1147 981q0 -313 -225 -446l155 -535h-387l-94 465h-90l-82 -465h-369l230 1290h442q420 0 420 -309zM608 1034l-59 -334h76q152 0 151 244q0 49 -22.5 69.5t-73.5 20.5h-72z" glyph-name="Rcaron" unicode="Ř"/><glyph d="M606 1186l-221 411h311l156 -208l221 208h309l-348 -411h-428zM762 903q141 139 424 139q37 0 86 -4l-84 -309q-82 23 -154 23q-166 0 -249 -51.5t-107 -188.5l-92 -512h-355l140 780h-240l43 244h543l12 -121h33z" glyph-name="rcaron" unicode="ř"/><glyph d="M834 1405h-289l260 412h407zM455 -18q-207 0 -387 36l73 287q190 -35 336 -35q207 0 207 90q0 51 -70 101l-241 182q-135 98 -135 272q0 193 148.5 293.5t430.5 100.5q156 0 350 -39l-77 -287q-172 37 -293 37q-109 0 -154 -17.5t-45 -60.5t64 -92l243 -180 q76 -57 107.5 -119t31.5 -152q0 -205 -150 -311t-439 -106z" glyph-name="Sacute" unicode="Ś"/><glyph d="M778 1176h-289l261 411h407zM469 -18q-170 0 -375 32l62 252q172 -27 315 -26q104 0 142 13t38 52q0 37 -53 62l-281 137q-106 51 -106 194q0 344 522 344q145 0 373 -32l-64 -254q-188 29 -307 28q-145 0 -145 -65q0 -14 8 -22.5t39 -22.5l242 -117q88 -43 126.5 -97 t38.5 -134q0 -166 -147 -255t-428 -89z" glyph-name="sacute" unicode="ś"/><glyph d="M817 1624l-219 -209h-311l348 412h428l221 -412h-311zM238 915q0 193 148.5 293.5t430.5 100.5q156 0 350 -39l-77 -287q-172 37 -293 37q-109 0 -154 -17.5t-45 -60.5t64 -92l243 -180q76 -57 107.5 -119t31.5 -152q0 -205 -150.5 -311t-438.5 -106q-207 0 -387 36 l73 287q190 -35 336 -35q207 0 207 90q0 51 -70 101l-241 182q-135 98 -135 272z" glyph-name="Scircumflex" unicode="Ŝ"/><glyph d="M762 1395l-219 -209h-312l349 411h428l221 -411h-311zM735 784q-145 0 -145 -65q0 -14 8 -22.5t39 -22.5l242 -117q88 -43 126.5 -97t38.5 -134q0 -166 -147 -255t-428 -89q-170 0 -375 32l62 252q172 -27 315 -26q104 0 142 13t38 52q0 37 -53 62l-281 137 q-106 51 -106 194q0 344 522 344q145 0 373 -32l-64 -254q-188 28 -307 28z" glyph-name="scircumflex" unicode="ŝ"/><glyph d="M797 1020q-109 0 -154 -17.5t-45 -60.5t64 -92l243 -180q76 -57 107.5 -119t31.5 -152q0 -188 -128 -293.5t-373 -121.5l-21 -64q231 -8 232 -129q0 -102 -101.5 -151.5t-236.5 -49.5q-162 0 -248 23l35 131q49 -16 119 -16q111 0 110 59q0 16 -12 21.5t-60 5.5h-75 l55 172q-145 6 -272 32l73 287q190 -35 336 -35q207 0 207 90q0 51 -70 101l-241 182q-135 98 -135 272q0 193 148.5 293.5t430.5 100.5q156 0 350 -39l-77 -287q-172 37 -293 37z" glyph-name="Scedilla" unicode="Ş"/><glyph d="M879 557q88 -43 126.5 -97t38.5 -134q0 -152 -120.5 -239t-352.5 -101l-22 -66q231 -8 231 -129q0 -102 -101 -151.5t-237 -49.5q-162 0 -247 23l34 131q49 -16 119 -16q111 0 111 59q0 16 -12.5 21.5t-59.5 5.5h-76l56 170q-160 12 -273 30l62 252q172 -27 315 -26 q104 0 142 13t38 52q0 37 -53 62l-281 137q-106 51 -106 194q0 344 522 344q145 0 373 -32l-64 -254q-188 29 -307 28q-145 0 -145 -65q0 -14 8 -22.5t39 -22.5z" glyph-name="scedilla" unicode="ş"/><glyph d="M573 1415l-221 412h312l155 -209l221 209h310l-349 -412h-428zM238 915q0 193 148.5 293.5t430.5 100.5q156 0 350 -39l-77 -287q-172 37 -293 37q-109 0 -154 -17.5t-45 -60.5t64 -92l243 -180q76 -57 107.5 -119t31.5 -152q0 -205 -150.5 -311t-438.5 -106 q-207 0 -387 36l73 287q190 -35 336 -35q207 0 207 90q0 51 -70 101l-241 182q-135 98 -135 272z" glyph-name="Scaron" unicode="Š"/><glyph d="M518 1186l-221 411h311l156 -208l221 208h309l-348 -411h-428zM735 784q-145 0 -145 -65q0 -14 8 -22.5t39 -22.5l242 -117q88 -43 126.5 -97t38.5 -134q0 -166 -147 -255t-428 -89q-170 0 -375 32l62 252q172 -27 315 -26q104 0 142 13t38 52q0 37 -53 62l-281 137 q-106 51 -106 194q0 344 522 344q145 0 373 -32l-64 -254q-188 28 -307 28z" glyph-name="scaron" unicode="š"/><glyph d="M430 1415l-221 412h311l156 -209l221 209h309l-348 -412h-428zM1253 1290l-55 -301h-311l-176 -989h-369l176 989h-319l55 301h999z" glyph-name="Tcaron" unicode="Ť"/><glyph d="M979 1427h283l-37 -206l-121 -160h-174l106 160h-94zM854 1264l-41 -240h299l-43 -244h-299l-76 -430q-6 -20 -6 -41q0 -39 30 -54t99 -15q45 0 144 10l-23 -248q-113 -20 -250 -20q-190 0 -274 67.5t-84 202.5q0 61 10 113l74 415h-228l43 244h228l43 240h354z" glyph-name="tcaron" unicode="ť"/><glyph d="M1198 989h-311l-33 -180h238l-52 -285h-235l-94 -524h-369l94 524h-243l51 285h241l33 180h-319l55 301h999z" glyph-name="Tbar" unicode="Ŧ"/><glyph d="M1069 780h-299l-27 -145h299l-43 -244h-299l-6 -41q-6 -20 -6 -41q0 -39 30 -54t99 -15q45 0 144 10l-23 -248q-113 -20 -250 -20q-190 0 -274 67.5t-84 202.5q0 61 10 113l4 26h-227l43 244h227l27 145h-228l43 244h228l43 240h354l-41 -240h299z" glyph-name="tbar" unicode="ŧ"/><glyph d="M915 1382q-104 0 -163 52l-58 45q-29 20 -61 20q-63 0 -94 -90h-207q25 158 121 255t231 97q76 0 168 -55l59 -39q35 -25 64 -25q51 0 84 91h205q-27 -170 -119.5 -260.5t-229.5 -90.5zM561 -18q-236 0 -337 84t-101 245q0 70 16 172l142 807h368l-143 -823 q-14 -72 -14 -109q0 -76 86 -75q57 0 83.5 34.5t47.5 147.5l143 825h369l-144 -823q-47 -272 -177 -378.5t-339 -106.5z" glyph-name="Utilde" unicode="Ũ"/><glyph d="M594 1270q-63 0 -94 -90h-207q25 158 121 255t231 97q76 0 168 -55l59 -39q35 -25 64 -25q51 0 84 90h205q-27 -170 -119 -260t-229 -90q-104 0 -164 51l-58 45q-28 21 -61 21zM696 365l115 659h354l-176 -1012l-325 -26v114h-17q-92 -117 -282 -116q-127 0 -191.5 58 t-64.5 163q0 61 16 160l117 659h354l-113 -639q0 -6 -3 -22.5t-4 -31t-1 -24.5q0 -66 74 -65q127 0 147 123z" glyph-name="utilde" unicode="ũ"/><glyph d="M444 1700h750l-41 -250h-750zM561 -18q-236 0 -337 84t-101 245q0 70 16 172l142 807h368l-143 -823q-14 -72 -14 -109q0 -76 86 -75q57 0 83.5 34.5t47.5 147.5l143 825h369l-144 -823q-47 -272 -177 -378.5t-339 -106.5z" glyph-name="Umacron" unicode="Ū"/><glyph d="M1155 1470l-41 -249h-749l41 249h749zM811 1024h354l-176 -1012l-325 -26v114h-17q-92 -117 -282 -116q-127 0 -191.5 58t-64.5 163q0 61 16 160l117 659h354l-113 -639q0 -6 -3 -22.5t-4 -31t-1 -24.5q0 -66 74 -65q127 0 147 123z" glyph-name="umacron" unicode="ū"/><glyph d="M774 1421q-193 0 -283 91.5t-67 246.5l6 45h250l-2 -22q-4 -68 26.5 -87.5t108.5 -19.5q82 0 125 21.5t47 85.5v22h252l-8 -45q-23 -152 -140.5 -245t-314.5 -93zM561 -18q-236 0 -337 84t-101 245q0 70 16 172l142 807h368l-143 -823q-14 -72 -14 -109q0 -76 86 -75 q57 0 83.5 34.5t47.5 147.5l143 825h369l-144 -823q-47 -272 -177 -378.5t-339 -106.5z" glyph-name="Ubreve" unicode="Ŭ"/><glyph d="M946 1575h252l-8 -45q-23 -152 -140.5 -245t-314.5 -93q-193 0 -283 91t-67 247l6 45h250l-2 -23q-4 -68 26.5 -87t108.5 -19q82 0 125 21.5t47 84.5v23zM696 365l115 659h354l-176 -1012l-325 -26v114h-17q-92 -117 -282 -116q-127 0 -191.5 58t-64.5 163q0 61 16 160 l117 659h354l-113 -639q0 -6 -3 -22.5t-4 -31t-1 -24.5q0 -66 74 -65q127 0 147 123z" glyph-name="ubreve" unicode="ŭ"/><glyph d="M750 1350q-283 0 -283 213q0 160 96 241.5t271 81.5q281 0 280 -207q0 -162 -94 -245.5t-270 -83.5zM774 1511q70 0 107 36t37 93q0 82 -109 82q-147 0 -147 -127q-1 -84 112 -84zM561 -18q-236 0 -337 84t-101 245q0 70 16 172l142 807h368l-143 -823q-14 -72 -14 -109 q0 -76 86 -75q57 0 83.5 34.5t47.5 147.5l143 825h369l-144 -823q-47 -272 -177 -378.5t-339 -106.5z" glyph-name="Uring" unicode="Ů"/><glyph d="M711 1120q-283 0 -283 213q0 160 96.5 242t270.5 82q281 0 280 -207q0 -162 -94 -246t-270 -84zM770 1493q-147 0 -147 -127q0 -84 112 -84q70 0 107 36t37 93q0 82 -109 82zM811 1024h354l-176 -1012l-325 -26v114h-17q-92 -117 -282 -116q-127 0 -191.5 58t-64.5 163 q0 61 16 160l117 659h354l-113 -639q0 -6 -3 -22.5t-4 -31t-1 -24.5q0 -66 74 -65q127 0 147 123z" glyph-name="uring" unicode="ů"/><glyph d="M418 1423l248 412h403l-379 -412h-272zM930 1423l244 412h405l-377 -412h-272zM561 -18q-236 0 -337 84t-101 245q0 70 16 172l142 807h368l-143 -823q-14 -72 -14 -109q0 -76 86 -75q57 0 83.5 34.5t47.5 147.5l143 825h369l-144 -823q-47 -272 -177 -378.5t-339 -106.5 z" glyph-name="Uhungarumlaut" unicode="Ű"/><glyph d="M1030 1606l-379 -412h-272l248 412h403zM1163 1194h-272l244 412h405zM696 365l115 659h354l-176 -1012l-325 -26v114h-17q-92 -117 -282 -116q-127 0 -191.5 58t-64.5 163q0 61 16 160l117 659h354l-113 -639q0 -6 -3 -22.5t-4 -31t-1 -24.5q0 -66 74 -65q127 0 147 123 z" glyph-name="uhungarumlaut" unicode="ű"/><glyph d="M852 1290h369l-144 -823q-39 -227 -137 -338t-250 -137q-88 -57 -88 -109q0 -47 46 -67.5t104 -20.5l10 -198q-74 -6 -137 -7q-352 0 -353 187q0 127 127 217q-276 51 -276 317q0 70 16 172l142 807h368l-143 -823q-14 -72 -14 -109q0 -76 86 -75q57 0 83.5 34.5 t47.5 147.5z" glyph-name="Uogonek" unicode="Ų"/><glyph d="M868 -117q0 -47 46.5 -67.5t103.5 -20.5l10 -198q-74 -6 -137 -7q-352 0 -352 187q0 123 125 217v106h-17q-92 -117 -282 -116q-127 0 -191.5 58t-64.5 163q0 61 16 160l117 659h354l-113 -639q0 -6 -3 -22.5t-4 -31t-1 -24.5q0 -66 74 -65q127 0 147 123l115 659h354 l-176 -1012h2q-123 -66 -123 -129z" glyph-name="uogonek" unicode="ų"/><glyph d="M805 1624l-219 -209h-312l349 412h428l221 -412h-311zM975 1290h354l-289 -1290h-438l31 492h-17l-127 -492h-434l119 1290h354l-161 -983h4l133 492h338l-21 -492h6z" glyph-name="Wcircumflex" unicode="Ŵ"/><glyph d="M754 1395l-219 -209h-312l348 411h428l222 -411h-312zM1001 1024h330l-270 -1024h-473l30 451h-8l-108 -451h-471l49 1024h332l-90 -776h28l111 452h385l-29 -452h27z" glyph-name="wcircumflex" unicode="ŵ"/><glyph d="M799 1624l-219 -209h-312l348 412h428l222 -412h-312zM1315 1290l-531 -862l-71 -428h-369l74 444l-232 846h383l82 -520h17l264 520h383z" glyph-name="Ycircumflex" unicode="Ŷ"/><glyph d="M766 1395l-219 -209h-311l348 411h428l221 -411h-311zM862 1024h373l-483 -1096q-84 -188 -210 -263t-313 -75q-109 0 -215 25l64 242q113 -18 184 -19q92 0 138 28t81 120l4 10l-225 4l-84 1024h369l4 -778h29z" glyph-name="ycircumflex" unicode="ŷ"/><glyph d="M762 1745l-57 -313h-363l57 313h363zM1253 1745l-57 -313h-360l55 313h362zM1315 1290l-531 -862l-71 -428h-369l74 444l-232 846h383l82 -520h17l264 520h383z" glyph-name="Ydieresis" unicode="Ÿ"/><glyph d="M1208 1817l-379 -412h-288l260 412h407zM1167 961l-684 -656l-4 -20h563l-45 -285h-940l45 285l9 49l686 663v9h-512l45 284h889l-33 -192z" glyph-name="Zacute" unicode="Ź"/><glyph d="M1155 1587l-379 -411h-289l261 411h407zM227 780l41 244h875l-41 -244l-8 -45l-631 -489l-2 -2h573l-41 -244h-936l41 244l8 45l633 473l4 18h-516z" glyph-name="zacute" unicode="ź"/><glyph d="M1020 1745l-55 -313h-363l55 313h363zM1167 961l-684 -656l-4 -20h563l-45 -285h-940l45 285l9 49l686 663v9h-512l45 284h889l-33 -192z" glyph-name="Zdotaccent" unicode="Ż"/><glyph d="M967 1516l-56 -314h-362l55 314h363zM1143 1024l-41 -244l-8 -45l-631 -489l-2 -2h573l-41 -244h-936l41 244l8 45l633 473l4 18h-516l41 244h875z" glyph-name="zdotaccent" unicode="ż"/><glyph d="M569 1415l-221 412h311l156 -209l221 209h310l-349 -412h-428zM330 1290h889l-33 -192l-19 -137l-684 -656l-4 -20h563l-45 -285h-940l45 285l9 49l686 663v9h-512z" glyph-name="Zcaron" unicode="Ž"/><glyph d="M516 1186l-221 411h311l156 -208l221 208h309l-348 -411h-428zM227 780l41 244h875l-41 -244l-8 -45l-631 -489l-2 -2h573l-41 -244h-936l41 244l8 45l633 473l4 18h-516z" glyph-name="zcaron" unicode="ž"/><glyph d="M977 1151q-102 0 -143 -36t-60 -136l-29 -162h283l-41 -229h-280l-113 -649q-35 -197 -139.5 -263.5t-335.5 -66.5q-106 0 -174 10l67 244q45 -4 66 -4q90 0 124 28.5t50 114.5l104 586h-231l43 229h227l39 215q35 207 150.5 286t371.5 79q145 0 226 -19l-66 -237 q-67 10 -139 10z" glyph-name="florin" unicode="ƒ"/><glyph d="M797 1020q-109 0 -154 -17.5t-45 -60.5t64 -92l243 -180q76 -57 107.5 -119t31.5 -152q0 -205 -150.5 -311t-438.5 -106q-207 0 -387 36l73 287q190 -35 336 -35q207 0 207 90q0 51 -70 101l-241 182q-135 98 -135 272q0 193 148.5 293.5t430.5 100.5q156 0 350 -39 l-77 -287q-172 37 -293 37zM264 -348l41 260h305l-41 -260l-129 -197h-188l113 197h-101z" glyph-name="Scommaaccent" unicode="Ș"/><glyph d="M879 557q88 -43 126.5 -97t38.5 -134q0 -166 -147 -255t-428 -89q-170 0 -375 32l62 252q172 -27 315 -26q104 0 142 13t38 52q0 37 -53 62l-281 137q-106 51 -106 194q0 344 522 344q145 0 373 -32l-64 -254q-188 29 -307 28q-145 0 -145 -65q0 -14 8 -22.5t39 -22.5z M291 -348l41 260h305l-41 -260l-129 -197h-188l112 197h-100z" glyph-name="scommaaccent" unicode="ș"/><glyph d="M1253 1290l-55 -301h-311l-176 -989h-369l176 989h-319l55 301h999zM403 -348l41 260h306l-41 -260l-129 -197h-189l113 197h-101z" glyph-name="uni021A" unicode="Ț"/><glyph d="M770 780l-76 -430q-6 -20 -6 -41q0 -39 30 -54t99 -15q45 0 144 10l-23 -248q-113 -20 -250 -20q-190 0 -274 67.5t-84 202.5q0 61 10 113l74 415h-228l43 244h228l43 240h354l-41 -240h299l-43 -244h-299zM459 -348l41 260h305l-41 -260l-129 -197h-189l113 197h-100z " glyph-name="uni021B" unicode="ț"/><glyph d="M1042 1024l-180 -1016q-31 -182 -92 -266t-191 -118t-399 -34q-92 0 -235 21l59 254q158 -16 240 -17q147 0 197.5 32t68.5 143l133 757h-407l43 244h763z" glyph-name="uni0237" unicode="ȷ"/><glyph d="M926 1393l-135 -537h-230l51 537h314z" glyph-name="uni02B9" unicode="ʹ"/><glyph d="M696 1393l-135 -537h-229l51 537h313zM1155 1393l-135 -537h-229l51 537h313z" glyph-name="uni02BA" unicode="ʺ"/><glyph d="M1231 1186h-311l-156 209l-219 -209h-312l349 411h428z" glyph-name="circumflex" unicode="ˆ"/><glyph d="M987 1597h309l-348 -411h-428l-221 411h311l156 -208z" glyph-name="caron" unicode="ˇ"/><glyph d="M733 1192q-193 0 -283 91t-67 247l6 45h250l-2 -23q-4 -68 26.5 -87t108.5 -19q82 0 125 21.5t47 84.5v23h252l-8 -45q-23 -152 -140.5 -245t-314.5 -93z" glyph-name="breve" unicode="˘"/><glyph d="M610 1516h363l-55 -314h-363z" glyph-name="dotaccent" unicode="˙"/><glyph d="M709 1120q-283 0 -283 213q0 160 96 242t271 82q281 0 280 -207q0 -162 -94 -246t-270 -84zM733 1282q70 0 107 36t37 93q0 82 -109 82q-147 0 -147 -127q-1 -84 112 -84z" glyph-name="ring" unicode="˚"/><glyph d="M590 -410q-352 0 -352 187q0 86 51 147.5t143 114.5l258 -27q-123 -66 -123 -129q0 -47 46 -67.5t104 -20.5l10 -198q-74 -7 -137 -7z" glyph-name="ogonek" unicode="˛"/><glyph d="M874 1153q-104 0 -163 51l-58 45q-29 20 -61 21q-63 0 -94 -90h-207q25 158 121 255t231 97q76 0 168 -55l59 -39q35 -25 64 -25q51 0 84 90h205q-27 -170 -119.5 -260t-229.5 -90z" glyph-name="tilde" unicode="˜"/><glyph d="M377 1194l248 412h403l-379 -412h-272zM889 1194l244 412h405l-377 -412h-272z" glyph-name="hungarumlaut" unicode="˝"/><glyph d="M63 1176l-245 411h407l127 -411h-289z" glyph-name="gravecomb" horiz-adv-x="0" unicode="̀"/><glyph d="M166 1176h-289l260 411h408z" glyph-name="acutecomb" horiz-adv-x="0" unicode="́"/><glyph d="M616 1186h-311l-155 209l-220 -209h-311l348 411h428z" glyph-name="uni0302" horiz-adv-x="0" unicode="̂"/><glyph d="M260 1153q-104 0 -164 51l-57 45q-29 20 -62 21q-63 0 -94 -90h-207q25 158 121.5 255t231.5 97q76 0 168 -55l59 -39q35 -25 63 -25q51 0 84 90h205q-27 -170 -119 -260t-229 -90z" glyph-name="tildecomb" horiz-adv-x="0" unicode="̃"/><glyph d="M-211 1470h750l-41 -249h-750z" glyph-name="uni0304" horiz-adv-x="0" unicode="̄"/><glyph d="M119 1192q-193 0 -283 91t-67 247l6 45h250l-2 -23q-4 -68 26.5 -87t108.5 -19q82 0 125 21.5t47 84.5v23h252l-9 -45q-23 -152 -140 -245t-314 -93z" glyph-name="uni0306" horiz-adv-x="0" unicode="̆"/><glyph d="M-4 1516h362l-55 -314h-362z" glyph-name="uni0307" horiz-adv-x="0" unicode="̇"/><glyph d="M-248 1516h363l-58 -314h-362zM244 1516h362l-57 -314h-361z" glyph-name="uni0308" horiz-adv-x="0" unicode="̈"/><glyph d="M94 1120q-283 0 -282 213q0 160 96 242t270 82q281 0 281 -207q0 -162 -94.5 -246t-270.5 -84zM119 1282q70 0 106.5 36t36.5 93q0 82 -108 82q-147 0 -148 -127q0 -84 113 -84z" glyph-name="uni030A" horiz-adv-x="0" unicode="̊"/><glyph d="M-238 1194l248 412h404l-379 -412h-273zM274 1194l244 412h406l-377 -412h-273z" glyph-name="uni030B" horiz-adv-x="0" unicode="̋"/><glyph d="M373 1597h309l-348 -411h-428l-221 411h311l156 -208z" glyph-name="uni030C" horiz-adv-x="0" unicode="̌"/><glyph d="M-43 1194h-272l-244 412h403zM471 1194h-274l-246 412h403z" glyph-name="uni030F" horiz-adv-x="0" unicode="̏"/><glyph d="M178 1575q195 0 282 -92t68 -244l-6 -47h-252l4 22q10 66 -22.5 87.5t-112.5 21.5t-119.5 -20.5t-50.5 -88.5l-4 -22h-250l6 47q23 154 143.5 245t313.5 91z" glyph-name="uni0311" horiz-adv-x="0" unicode="̑"/><glyph d="M346 1704l-153 -264h96l-39 -260h-303l39 260l170 264h190z" glyph-name="uni0312" horiz-adv-x="0" unicode="̒"/><glyph d="M-293 -121h363l-50 -313h-362z" glyph-name="dotbelowcomb" horiz-adv-x="0" unicode="̣"/><glyph d="M-260 -88h305l-41 -260l-129 -197h-188l112 197h-100z" glyph-name="uni0326" horiz-adv-x="0" unicode="̦"/><glyph d="M-43 -80q231 -8 231 -129q0 -102 -101 -151.5t-237 -49.5q-162 0 -247 23l35 131q49 -16 118 -16q111 0 111 59q0 16 -12.5 21.5t-59.5 5.5h-76l64 198h205z" glyph-name="uni0327" horiz-adv-x="0" unicode="̧"/><glyph d="M-25 -410q-352 0 -352 187q0 86 51.5 147.5t143.5 114.5l258 -27q-123 -66 -123 -129q0 -47 46 -67.5t103 -20.5l11 -198q-75 -7 -138 -7z" glyph-name="uni0328" horiz-adv-x="0" unicode="̨"/><glyph d="M1010 1290l104 -1075l-35 -215h-1108l35 215l447 1075h557zM649 1006l-278 -721h383l-33 721h-72z" glyph-name="Delta" unicode="Δ"/><glyph d="M1004 313l-9 -41h117l-47 -272h-490l27 152l12 69h2v4l13 4q63 51 114.5 278.5t51.5 350.5q0 90 -20.5 120t-69.5 30q-59 0 -105.5 -68t-71 -170t-38 -202.5t-13.5 -184.5q0 -125 25 -152l14 -6l-14 -73l-4 -31l-23 -121h-489l47 272h114l11 50q-29 72 -29 184 q0 365 147.5 584t450.5 219q219 0 328.5 -99.5t109.5 -330.5q1 -365 -161 -566z" glyph-name="Omega" unicode="Ω"/><glyph d="M813 1024h354l-178 -1012l-325 -26v114h-13q-80 -115 -184 -114q-25 0 -53 -6l-66 -369h-354l250 1413h354l-119 -662q-8 -43 -8 -75q0 -43 19.5 -56.5t68.5 -13.5q57 0 89 31t46 114z" glyph-name="mu" unicode="μ"/><glyph d="M1108 780l-76 -420q-10 -66 -10 -73q0 -33 33 -33q37 0 78 10l-17 -248q-125 -37 -258 -36q-199 0 -199 210q0 74 19 160l76 430h-185l-137 -780h-356l139 780h-158l23 123l272 121h946l-43 -244h-147z" glyph-name="pi" unicode="π"/><glyph d="M1008 1405h-289l-246 412h408zM975 1290h354l-289 -1290h-438l31 492h-17l-127 -492h-434l119 1290h354l-161 -983h4l133 492h338l-21 -492h6z" glyph-name="Wgrave" unicode="Ẁ"/><glyph d="M956 1176h-288l-246 411h407zM1001 1024h330l-270 -1024h-473l30 451h-8l-108 -451h-471l49 1024h332l-90 -776h28l111 452h385l-29 -452h27z" glyph-name="wgrave" unicode="ẁ"/><glyph d="M1200 1817l-379 -412h-289l261 412h407zM975 1290h354l-289 -1290h-438l31 492h-17l-127 -492h-434l119 1290h354l-161 -983h4l133 492h338l-21 -492h6z" glyph-name="Wacute" unicode="Ẃ"/><glyph d="M1149 1587l-379 -411h-289l260 411h408zM1001 1024h330l-270 -1024h-473l30 451h-8l-108 -451h-471l49 1024h332l-90 -776h28l111 452h385l-29 -452h27z" glyph-name="wacute" unicode="ẃ"/><glyph d="M768 1745l-57 -313h-363l58 313h362zM1260 1745l-58 -313h-360l55 313h363zM975 1290h354l-289 -1290h-438l31 492h-17l-127 -492h-434l119 1290h354l-161 -983h4l133 492h338l-21 -492h6z" glyph-name="Wdieresis" unicode="Ẅ"/><glyph d="M717 1516l-58 -314h-362l57 314h363zM1208 1516l-57 -314h-360l55 314h362zM1001 1024h330l-270 -1024h-473l30 451h-8l-108 -451h-471l49 1024h332l-90 -776h28l111 452h385l-29 -452h27z" glyph-name="wdieresis" unicode="ẅ"/><glyph d="M961 717l26 -33q57 -70 84 -135.5t27 -169.5q0 -176 -105.5 -286.5t-298.5 -110.5q-156 0 -215 14l80 287q41 -10 86 -11q111 0 111 111q0 47 -41 94l-105 111l35 198l129 220q-35 12 -78 12q-49 0 -74.5 -23.5t-33.5 -79.5l-164 -915h-369l168 948q35 201 156 282 t375 81q205 0 381 -86l-48 -264l-120 -199z" glyph-name="uni1E9E" unicode="ẞ"/><glyph d="M1001 1405h-288l-246 412h407zM1315 1290l-531 -862l-71 -428h-369l74 444l-232 846h383l82 -520h17l264 520h383z" glyph-name="Ygrave" unicode="Ỳ"/><glyph d="M969 1176h-289l-246 411h408zM862 1024h373l-483 -1096q-84 -188 -210 -263t-313 -75q-109 0 -215 25l64 242q113 -18 184 -19q92 0 138 28t81 120l4 10l-225 4l-84 1024h369l4 -778h29z" glyph-name="ygrave" unicode="ỳ"/><glyph d="M188 641h895l-49 -272h-895z" glyph-name="endash" unicode="–"/><glyph d="M16 641h1241l-49 -272h-1241z" glyph-name="emdash" unicode="—"/><glyph d="M1006 1421l-236 -411h111l-60 -348h-350l61 348l254 411h220z" glyph-name="quoteleft" unicode="‘"/><glyph d="M623 1393h348l-64 -349l-252 -411h-219l236 411h-113z" glyph-name="quoteright" unicode="’"/><glyph d="M412 348h348l-64 -348l-252 -412h-219l236 412h-113z" glyph-name="quotesinglbase" unicode="‚"/><glyph d="M510 1421h219l-235 -411h110l-59 -348h-350l61 348zM1280 1421l-236 -411h111l-59 -348h-351l62 348l254 411h219z" glyph-name="quotedblleft" unicode="“"/><glyph d="M283 1044l63 349h348l-63 -349l-252 -411h-219l235 411h-112zM895 1393h348l-63 -349l-252 -411h-219l235 411h-113z" glyph-name="quotedblright" unicode="”"/><glyph d="M100 0l64 348h348l-63 -348l-252 -412h-220l236 412h-113zM713 348h348l-64 -348l-252 -412h-219l236 412h-113z" glyph-name="quotedblbase" unicode="„"/><glyph d="M1204 891l-53 -297h-356l-172 -983h-332l172 983h-354l51 297h356l70 399h332l-70 -399h356z" glyph-name="dagger" unicode="†"/><glyph d="M1151 594h-356l-50 -287h355l-53 -297h-355l-69 -399h-332l69 399h-356l53 297h357l49 287h-354l51 297h356l70 399h332l-70 -399h356z" glyph-name="daggerdbl" unicode="‡"/><glyph d="M645 367q-135 0 -232.5 98t-97.5 233q0 137 96.5 233.5t233.5 96.5t234.5 -96t97.5 -234q0 -135 -97.5 -233t-234.5 -98z" glyph-name="bullet" unicode="•"/><glyph d="M-35 0l53 295h299l-55 -295h-297zM375 0l53 295h299l-55 -295h-297zM784 0l54 295h299l-56 -295h-297z" glyph-name="ellipsis" unicode="…"/><glyph d="M219 672q-80 0 -114.5 43t-34.5 129q0 80 22.5 190.5t54.5 167.5q59 106 181 107q80 0 114.5 -43t34.5 -129q0 -80 -21.5 -191.5t-54.5 -167.5q-59 -106 -182 -106zM-41 0l776 1290h176l-776 -1290h-176zM244 819q8 0 18 33q51 215 51 289q0 20 -10 20q-8 0 -18 -33 q-10 -35 -31 -149.5t-21 -138.5q1 -21 11 -21zM549 -18q-150 0 -150 172q0 80 22.5 190.5t55.5 167.5q59 106 182 106q147 0 148 -172q0 -78 -22.5 -189.5t-53.5 -168.5q-59 -106 -182 -106zM948 -18q-80 0 -114.5 43t-34.5 129q0 78 22.5 189.5t52.5 168.5q59 106 183 106 q152 0 151 -172q0 -80 -22.5 -190.5t-55.5 -167.5q-59 -106 -182 -106zM573 129q8 0 19 33q10 41 30.5 153.5t20.5 135.5q0 20 -10 20t-19 -33q-51 -215 -51 -288q0 -21 10 -21zM973 129q8 0 18 33q10 41 30.5 153.5t20.5 135.5q0 20 -8 20q-12 0 -20 -33q-51 -215 -51 -288 q0 -21 10 -21z" glyph-name="perthousand" unicode="‰"/><glyph d="M373 352l-6 307l475 340l8 -256l-277 -237l299 -240l9 -258z" glyph-name="guilsinglleft" unicode="‹"/><glyph d="M829 352l-546 -344l43 258l325 240l-250 237l41 256l439 -340z" glyph-name="guilsinglright" unicode="›"/><glyph d="M207 465l35 491l59 334h358l-59 -334l-137 -491h-256zM748 465l34 491l60 334h358l-59 -334l-137 -491h-256zM78 0l63 348h351l-64 -348h-350zM618 0l64 348h350l-63 -348h-351z" glyph-name="exclamdbl" unicode="‼"/><glyph d="M281 -2l514 1255h192l-514 -1255h-192z" glyph-name="fraction" unicode="⁄"/><glyph d="M936 1403q123 0 175 -40t52 -136q0 -43 -12 -113l-88 -506h-309l84 473q2 8 3 15.5t1 12.5t-2 5q0 33 -29 53.5t-80 20.5q-53 0 -88 -24.5t-41 -63.5l-86 -492h-309l135 770l283 23l2 -84h30q97 86 279 86z" glyph-name="uni207F" unicode="ⁿ"/><glyph d="M1198 670q4 -49 4 -78q0 -199 -136 -336t-344 -196.5t-466 -59.5h-178l80 459l-154 -53l33 192l156 53l16 97l-156 -54l33 193l158 53l61 350h369l-37 -215l346 119l-33 -190l-348 -121l-16 -97l348 119l-37 -192l-344 -119l-53 -299q168 16 274.5 83.5t106.5 184.5 q0 23 -2 41z" glyph-name="lira" unicode="₤"/><glyph d="M1253 1059h-176q4 -20 8 -66h156l-41 -231h-153q-55 -135 -189 -217l160 -545h-393l-95 465h-249l41 231h229q86 0 131 66h-350l41 231h340q-16 66 -101 66h-229l41 231h870z" glyph-name="uni20A8" unicode="₨"/><glyph d="M872 1008q-131 0 -202 -129h315l-31 -181h-344q-6 -31 -14 -92h283l-31 -180h-260q2 -82 36.5 -112.5t118.5 -30.5q131 0 220 39v-291q-123 -49 -308 -49q-246 0 -348 110.5t-102 329.5v4h-129l30 180h107q8 61 14 92h-104l33 181h116q150 430 600 430q168 0 285 -45 l-78 -293q-103 37 -207 37z" glyph-name="Euro" unicode="€"/><glyph d="M664 336q0 -96 145 -96q111 0 231 22l-8 -252q-147 -29 -287 -28q-244 0 -343 68.5t-101 213.5q-55 -23 -162 -59l-45 237q131 41 244 93l78 442q41 229 175 336.5t312 107.5q328 0 328 -262q0 -109 -64.5 -235.5t-165.5 -229.5q-121 -129 -321 -250l-10 -53 q-6 -24 -6 -55zM776 1008l-39 -230q57 55 97 107q37 49 63.5 116.5t26.5 114.5q0 49 -47 49q-35 0 -59 -30.5t-42 -126.5z" glyph-name="afii61289" unicode="ℓ"/><glyph d="M1143 1300q180 0 180 -210q0 -90 -27.5 -215t-66.5 -193q-74 -127 -217 -127q-98 0 -139.5 52t-41.5 157q0 113 30 242t81 198q72 96 201 96zM600 1290h277l-228 -1290h-344l6 778l-137 -778h-272l227 1290h348l-12 -766zM1077 797q43 186 43 266q0 35 -14 35 q-18 0 -33 -51q-43 -215 -43 -261q0 -29 16.5 -28.5t30.5 39.5zM733 274l33 201h459l-33 -201h-459z" glyph-name="afii61352" unicode="№"/><glyph d="M549 1147h-107l-88 -504h-182l86 504h-111l25 143h401zM1206 1290l-112 -647h-162l69 399l-100 -231l-2 -16h-143l2 8l-19 223l-67 -383h-164l113 647h213l26 -311l133 311h213z" glyph-name="trademark" unicode="™"/><glyph d="M1004 313l-9 -41h117l-47 -272h-490l27 152l12 69h2v4l13 4q63 51 114.5 278.5t51.5 350.5q0 90 -20.5 120t-69.5 30q-59 0 -105.5 -68t-71 -170t-38 -202.5t-13.5 -184.5q0 -125 25 -152l14 -6l-14 -73l-4 -31l-23 -121h-489l47 272h114l11 50q-29 72 -29 184 q0 365 147.5 584t450.5 219q219 0 328.5 -99.5t109.5 -330.5q1 -365 -161 -566z" glyph-name="uni2126" unicode="Ω"/><glyph d="M813 1255h193l-517 -1257h-192zM459 426h-453l33 199h113l73 422l-106 -35l4 194l139 47h242l-111 -628h101zM842 827h444l-39 -206l-301 -621h-235l288 584l9 45h-203z" glyph-name="uni2150" unicode="⅐"/><glyph d="M801 1255h192l-514 -1257h-192zM459 426h-453l33 199h113l73 422l-106 -35l4 194l139 47h242l-111 -628h101zM1044 840q119 0 168.5 -49.5t49.5 -151.5q0 -162 -107 -375q-80 -150 -184 -264h-256q119 139 198 260q12 18 23 39h-18q-25 -4 -35 -4q-150 0 -150 186 q0 359 311 359zM981 469q25 0 37 50t12 93q0 29 -18 29q-23 0 -36 -50t-13 -93q0 -29 18 -29z" glyph-name="uni2151" unicode="⅑"/><glyph d="M813 1255h193l-517 -1257h-192zM459 426h-453l33 199h113l73 422l-106 -35l4 194l139 47h242l-111 -628h101zM1128 432q51 -37 52 -139q0 -139 -87 -222t-237 -83q-109 0 -170 30l53 201q59 -27 101 -26q39 0 65.5 28.5t26.5 73.5t-29 45h-72l31 180h64q18 0 31.5 23.5 t13.5 60.5q0 27 -5 34t-28 7q-43 0 -113 -22l19 192q92 27 162 27q219 0 219 -189q0 -133 -92 -198z" glyph-name="onethird" unicode="⅓"/><glyph d="M494 625l-35 -199h-455l29 166q12 78 33.5 127t78.5 106l158 160q31 31 31 47q0 33 -35 33q-39 0 -121 -14l19 198q117 18 186 19q76 0 131 -43t55 -131q0 -55 -16 -99.5t-34.5 -68t-63.5 -72.5l-84 -98q-41 -43 -56.5 -67.5t-25.5 -63.5h205zM813 1255h193l-517 -1257 h-192zM1128 432q51 -37 52 -139q0 -139 -87 -222t-237 -83q-109 0 -170 30l53 201q59 -27 101 -26q39 0 65.5 28.5t26.5 73.5t-29 45h-72l31 180h64q18 0 31.5 23.5t13.5 60.5q0 27 -5 34t-28 7q-43 0 -113 -22l19 192q92 27 162 27q219 0 219 -189q0 -133 -92 -198z" glyph-name="twothirds" unicode="⅔"/><glyph d="M813 1255h193l-517 -1257h-192zM459 426h-453l33 199h113l73 422l-106 -35l4 194l139 47h242l-111 -628h101zM1243 629h-223l-21 -97h11q111 0 154.5 -41.5t43.5 -138.5q0 -168 -85 -266t-259 -98q-86 0 -182 30l47 209q86 -25 150 -24q37 0 57 29.5t20 60.5q0 51 -49 51 h-143l96 483h418z" glyph-name="uni2155" unicode="⅕"/><glyph d="M494 625l-35 -199h-455l29 166q12 78 33.5 127t78.5 106l158 160q31 31 31 47q0 33 -35 33q-39 0 -121 -14l19 198q117 18 186 19q76 0 131 -43t55 -131q0 -55 -16 -99.5t-34.5 -68t-63.5 -72.5l-84 -98q-41 -43 -56.5 -67.5t-25.5 -63.5h205zM813 1255h193l-517 -1257 h-192zM1243 629h-223l-21 -97h11q111 0 154.5 -41.5t43.5 -138.5q0 -168 -85 -266t-259 -98q-86 0 -182 30l47 209q86 -25 150 -24q37 0 57 29.5t20 60.5q0 51 -49 51h-143l96 483h418z" glyph-name="uni2156" unicode="⅖"/><glyph d="M512 721q0 -143 -87 -225t-235 -82q-104 0 -170 30l52 201q63 -27 100 -27q39 0 65.5 29t26.5 72q0 47 -28 47h-72l33 180h61q18 0 31.5 23.5t13.5 60.5q0 27 -5 34t-28 7q-39 0 -112 -22l18 192q92 27 160 27q223 0 223 -187q0 -135 -92 -200l-4 -23q49 -37 49 -137z M813 1255h193l-517 -1257h-192zM1243 629h-223l-21 -97h11q111 0 154.5 -41.5t43.5 -138.5q0 -168 -85 -266t-259 -98q-86 0 -182 30l47 209q86 -25 150 -24q37 0 57 29.5t20 60.5q0 51 -49 51h-143l96 483h418z" glyph-name="uni2157" unicode="⅗"/><glyph d="M817 1255h193l-516 -1257h-193zM442 426h-200l24 133h-262l39 225l199 469h207l-170 -413l-15 -78h39l37 205h201l-37 -205h45l-37 -203h-45zM1243 629h-223l-21 -97h11q111 0 154.5 -41.5t43.5 -138.5q0 -168 -85 -266t-259 -98q-86 0 -182 30l47 209q86 -25 150 -24 q37 0 57 29.5t20 60.5q0 51 -49 51h-143l96 483h418z" glyph-name="uni2158" unicode="⅘"/><glyph d="M813 1255h193l-517 -1257h-192zM459 426h-453l33 199h113l73 422l-106 -35l4 194l139 47h242l-111 -628h101zM1028 532q150 0 150 -186q0 -358 -310 -358q-119 0 -169 49t-50 151q0 74 32 180.5t77 194.5q74 143 184 264h256q-106 -127 -199 -260l-24 -39h20q21 4 33 4z M899 186q25 0 38 50.5t13 93.5q0 29 -18 28q-25 0 -38 -51t-13 -92q0 -29 18 -29z" glyph-name="uni2159" unicode="⅙"/><glyph d="M813 1255h193l-517 -1257h-192zM539 778q0 -168 -85 -266t-261 -98q-86 0 -183 30l47 209q86 -25 150 -24q37 0 57.5 29.5t20.5 60.5q0 51 -49 51h-146l100 483h418l-37 -198h-223l-20 -97h10q113 0 157 -42t44 -138zM1028 532q150 0 150 -186q0 -358 -310 -358 q-119 0 -169 49t-50 151q0 74 32 180.5t77 194.5q74 143 184 264h256q-131 -154 -199 -260l-24 -39h20q21 4 33 4zM899 186q25 0 38 50.5t13 93.5q0 29 -18 28q-25 0 -38 -51t-13 -92q0 -29 18 -29z" glyph-name="uni215A" unicode="⅚"/><glyph d="M801 1255h192l-514 -1257h-192zM459 426h-453l33 199h113l73 422l-106 -35l4 194l139 47h242l-111 -628h101zM1114 430q78 -33 78 -129q0 -313 -309 -313q-125 0 -176.5 41t-51.5 123q0 219 152 278v10q-61 35 -62 117q0 133 74 209t217 76q113 0 159 -41t46 -127 q0 -174 -125 -232zM1001 657q-20 0 -30 -42t-10 -66q0 -37 16 -37t25.5 46t9.5 75q-1 24 -11 24zM917.5 172q22.5 0 33 42t10.5 83q0 31 -19 31q-47 0 -47 -127q0 -29 22.5 -29z" glyph-name="oneeighth" unicode="⅛"/><glyph d="M512 721q0 -143 -87 -225t-235 -82q-104 0 -170 30l52 201q63 -27 100 -27q39 0 65.5 29t26.5 72q0 47 -28 47h-72l33 180h61q18 0 31.5 23.5t13.5 60.5q0 27 -5 34t-28 7q-39 0 -112 -22l18 192q92 27 160 27q223 0 223 -187q0 -135 -92 -200l-4 -23q49 -37 49 -137z M788 1255h193l-516 -1257h-193zM1114 430q78 -33 78 -129q0 -313 -309 -313q-125 0 -176.5 41t-51.5 123q0 219 152 278v10q-61 35 -62 117q0 133 74 209t217 76q113 0 159 -41t46 -127q0 -174 -125 -232zM1001 657q-20 0 -30 -42t-10 -66q0 -37 16 -37t25.5 46t9.5 75 q-1 24 -11 24zM917.5 172q22.5 0 33 42t10.5 83q0 31 -19 31q-47 0 -47 -127q0 -29 22.5 -29z" glyph-name="threeeighths" unicode="⅜"/><glyph d="M791 1255h192l-516 -1257h-193zM539 778q0 -168 -85 -266t-261 -98q-86 0 -183 30l47 209q86 -25 150 -24q37 0 57.5 29.5t20.5 60.5q0 51 -49 51h-146l100 483h418l-37 -198h-223l-20 -97h10q113 0 157 -42t44 -138zM1114 430q78 -33 78 -129q0 -313 -309 -313 q-125 0 -176.5 41t-51.5 123q0 219 152 278v10q-61 35 -62 117q0 133 74 209t217 76q113 0 159 -41t46 -127q0 -174 -125 -232zM1001 657q-20 0 -30 -42t-10 -66q0 -37 16 -37t25.5 46t9.5 75q-1 24 -11 24zM917.5 172q22.5 0 33 42t10.5 83q0 31 -19 31q-47 0 -47 -127 q0 -29 22.5 -29z" glyph-name="fiveeighths" unicode="⅝"/><glyph d="M766 1255h195l-517 -1257h-192zM35 426l289 584l8 45h-203l37 198h444l-39 -206l-301 -621h-235zM1114 430q78 -33 78 -129q0 -313 -309 -313q-125 0 -176.5 41t-51.5 123q0 219 152 278v10q-61 35 -62 117q0 133 74 209t217 76q113 0 159 -41t46 -127q0 -174 -125 -232z M1001 657q-20 0 -30 -42t-10 -66q0 -37 16 -37t25.5 46t9.5 75q-1 24 -11 24zM917.5 172q22.5 0 33 42t10.5 83q0 31 -19 31q-47 0 -47 -127q0 -29 22.5 -29z" glyph-name="seveneighths" unicode="⅞"/><glyph d="M739 1421q215 0 334 -127t119 -393q0 -225 -82 -434t-238.5 -347t-347.5 -138q-219 0 -335.5 94t-116.5 264q0 201 145 338t354 137q141 0 267 -59q8 57 8 118q0 133 -44 200t-118 67q-82 0 -180 -80l-168 223q66 43 112 67.5t124.5 47t166.5 22.5zM530 266 q133 0 226 203q-76 61 -178 61q-74 0 -117 -38.5t-43 -102.5q0 -55 31.5 -89t80.5 -34z" glyph-name="partialdiff" unicode="∂"/><glyph d="M1217 1006l-138 -138q96 -141 97 -317q0 -231 -161 -391t-397 -160q-174 0 -313 94l-137 -137l-141 141l137 138q-98 137 -98 315q0 231 160.5 393t391.5 162q176 0 318 -96l137 137zM326 551q0 -68 28 -125l391 393q-57 29 -127 29q-121 0 -206.5 -87t-85.5 -210z M918 551q0 66 -29 127l-391 -391q59 -27 120 -27q125 0 212.5 84t87.5 207z" glyph-name="emptyset" unicode="∅"/><glyph d="M1010 1290l104 -1075l-35 -215h-1108l35 215l447 1075h557zM649 1006l-278 -721h383l-33 721h-72z" glyph-name="uni2206" unicode="∆"/><glyph d="M1311 1360l-289 -1639h-369l234 1326h-359l-233 -1326h-369l289 1639h1096z" glyph-name="product" unicode="∏"/><glyph d="M-14 -279l30 189l500 633l-276 628l28 189h944l-47 -309h-440l223 -508l-401 -512h491l-51 -310h-1001z" glyph-name="summation" unicode="∑"/><glyph d="M188 641h895l-49 -272h-895z" glyph-name="minus" unicode="−"/><glyph d="M8 -125l975 1518h274l-972 -1518h-277z" glyph-name="uni2215" unicode="∕"/><glyph d="M381 -279l-135 764l-168 -69l-62 233l488 203l43 -231l39 -418l139 413l393 979h320l-764 -1874h-293z" glyph-name="radical" unicode="√"/><glyph d="M881 829q113 0 182.5 -79.5t69.5 -194.5q0 -160 -96.5 -268.5t-243.5 -108.5q-133 0 -213 101q-100 -100 -226 -101q-121 0 -191.5 73t-70.5 185q0 168 97.5 280.5t246.5 112.5q123 0 205 -112q103 112 240 112zM381 406q37 0 102 92q-39 104 -73 104q-31 0 -51.5 -41 t-20.5 -94q0 -61 43 -61zM821 406q27 0 47.5 30.5t20.5 100.5q0 66 -35 65q-31 0 -106 -102q42 -94 73 -94z" glyph-name="infinity" unicode="∞"/><glyph d="M252 -410q-150 0 -262 58l141 233q59 -27 115 -26q100 0 121 120l192 1086q29 160 145.5 260t270.5 100q147 0 262 -57l-131 -229q-49 23 -111 22q-111 0 -129 -119l-192 -1089q-31 -166 -147.5 -262.5t-274.5 -96.5z" glyph-name="integral" unicode="∫"/><glyph d="M367 557l-183 64q20 137 113.5 230t216.5 93q80 0 154 -53l104 -74q29 -18 51 -18q68 0 109 121l184 -64q-25 -139 -120 -230t-214 -91q-84 0 -155 51l-109 78q-18 14 -49 14q-61 0 -102 -121zM285 86l-183 64q20 137 113.5 230t216.5 93q80 0 154 -53l104 -74 q29 -18 51 -18q68 0 109 121l184 -64q-25 -139 -120 -230.5t-214 -91.5q-84 0 -155 52l-109 78q-18 14 -49 14q-61 0 -102 -121z" glyph-name="approxequal" unicode="≈"/><glyph d="M1071 582h-301l-70 -154h344l-49 -272h-420l-88 -193h-251l88 193h-224l50 272h301l69 154h-344l49 272h420l90 195h250l-90 -195h225z" glyph-name="notequal" unicode="≠"/><glyph d="M1153 1055l-602 -187l-12 -84l536 -184l-49 -285l-842 320l68 393l954 318zM74 0l49 272h895l-49 -272h-895z" glyph-name="lessequal" unicode="≤"/><glyph d="M309 1346l842 -322l-68 -391l-954 -318l53 291l602 187l13 84l-537 184zM74 0l49 272h895l-49 -272h-895z" glyph-name="greaterequal" unicode="≥"/><glyph d="M895 1393l283 -697l-504 -696h-268l-289 696l512 697h266zM604 424l199 274l-111 271l-198 -277z" glyph-name="lozenge" unicode="◊"/><glyph d="M856 1036l309 -26l-176 -998l-319 -24l-2 114h-13q-76 -121 -231 -120q-160 0 -231.5 88t-71.5 272q0 143 27.5 266t85 221.5t154.5 154.5t226 56q147 0 185 -120h12zM739 610q6 35 6 82q0 41 -25.5 64.5t-57.5 23.5q-88 0 -133.5 -138t-45.5 -288q0 -70 19.5 -92 t68.5 -22q100 0 125 129z" glyph-name="a.ss02"/><glyph d="M1190 1587l-379 -411h-289l260 411h408zM811 920l45 116l309 -26l-176 -998l-319 -24l-2 114h-13q-76 -121 -231 -120q-160 0 -231.5 88t-71.5 272q0 143 27.5 266t85 221.5t154.5 154.5t226 56q147 0 185 -120h12zM739 610q6 35 6 82q0 41 -25.5 64.5t-57.5 23.5 q-88 0 -133.5 -138t-45.5 -288q0 -70 19.5 -92t68.5 -22q100 0 125 129z" glyph-name="aacute.ss02"/><glyph d="M975 1575h252l-8 -45q-23 -152 -140.5 -245t-314.5 -93q-193 0 -283 91t-67 247l6 45h250l-2 -23q-4 -68 26.5 -87t108.5 -19q82 0 125 21.5t47 84.5v23zM811 920l45 116l309 -26l-176 -998l-319 -24l-2 114h-13q-76 -121 -231 -120q-160 0 -231.5 88t-71.5 272 q0 143 27.5 266t85 221.5t154.5 154.5t226 56q147 0 185 -120h12zM739 610q6 35 6 82q0 41 -25.5 64.5t-57.5 23.5q-88 0 -133.5 -138t-45.5 -288q0 -70 19.5 -92t68.5 -22q100 0 125 129z" glyph-name="abreve.ss02"/><glyph d="M795 1395l-220 -209h-311l348 411h428l222 -411h-312zM811 920l45 116l309 -26l-176 -998l-319 -24l-2 114h-13q-76 -121 -231 -120q-160 0 -231.5 88t-71.5 272q0 143 27.5 266t85 221.5t154.5 154.5t226 56q147 0 185 -120h12zM739 610q6 35 6 82q0 41 -25.5 64.5 t-57.5 23.5q-88 0 -133.5 -138t-45.5 -288q0 -70 19.5 -92t68.5 -22q100 0 125 129z" glyph-name="acircumflex.ss02"/><glyph d="M758 1516l-58 -314h-362l57 314h363zM887 1516h362l-57 -314h-361zM811 920l45 116l309 -26l-176 -998l-319 -24l-2 114h-13q-76 -121 -231 -120q-160 0 -231.5 88t-71.5 272q0 143 27.5 266t85 221.5t154.5 154.5t226 56q147 0 185 -120h12zM739 610q6 35 6 82 q0 41 -25.5 64.5t-57.5 23.5q-88 0 -133.5 -138t-45.5 -288q0 -70 19.5 -92t68.5 -22q100 0 125 129z" glyph-name="adieresis.ss02"/><glyph d="M997 1176h-288l-246 411h407zM856 1036l309 -26l-176 -998l-319 -24l-2 114h-13q-76 -121 -231 -120q-160 0 -231.5 88t-71.5 272q0 143 27.5 266t85 221.5t154.5 154.5t226 56q147 0 185 -120h12zM739 610q6 35 6 82q0 41 -25.5 64.5t-57.5 23.5q-88 0 -133.5 -138 t-45.5 -288q0 -70 19.5 -92t68.5 -22q100 0 125 129z" glyph-name="agrave.ss02"/><glyph d="M1184 1470l-41 -249h-750l41 249h750zM811 920l45 116l309 -26l-176 -998l-319 -24l-2 114h-13q-76 -121 -231 -120q-160 0 -231.5 88t-71.5 272q0 143 27.5 266t85 221.5t154.5 154.5t226 56q147 0 185 -120h12zM739 610q6 35 6 82q0 41 -25.5 64.5t-57.5 23.5 q-88 0 -133.5 -138t-45.5 -288q0 -70 19.5 -92t68.5 -22q100 0 125 129z" glyph-name="amacron.ss02"/><glyph d="M872 -117q0 -47 46.5 -67.5t103.5 -20.5l10 -198q-74 -6 -137 -7q-352 0 -352 187q0 125 127 217l-2 108h-13q-76 -121 -231 -120q-160 0 -231.5 88t-71.5 272q0 143 27.5 266t85 221.5t154.5 154.5t226 56q147 0 185 -120h12l45 116l309 -26l-176 -998h6 q-123 -66 -123 -129zM483 354q0 -70 19.5 -92t68.5 -22q100 0 125 129l43 241q6 35 6 82q0 41 -25.5 64.5t-57.5 23.5q-88 0 -133.5 -138t-45.5 -288z" glyph-name="aogonek.ss02"/><glyph d="M739 1120q-283 0 -282 213q0 160 96 242t270 82q281 0 281 -207q0 -162 -94.5 -246t-270.5 -84zM799 1493q-147 0 -148 -127q0 -84 113 -84q70 0 106.5 36t36.5 93q1 82 -108 82zM856 1036l309 -26l-176 -998l-319 -24l-2 114h-13q-76 -121 -231 -120q-160 0 -231.5 88 t-71.5 272q0 143 27.5 266t85 221.5t154.5 154.5t226 56q147 0 185 -120h12zM739 610q6 35 6 82q0 41 -25.5 64.5t-57.5 23.5q-88 0 -133.5 -138t-45.5 -288q0 -70 19.5 -92t68.5 -22q100 0 125 129z" glyph-name="aring.ss02"/><glyph d="M623 1270q-63 0 -95 -90h-206q25 158 121 255t231 97q76 0 168 -55l59 -39q35 -25 64 -25q51 0 84 90h204q-27 -170 -119 -260t-229 -90q-104 0 -164 51l-57 45q-28 21 -61 21zM811 920l45 116l309 -26l-176 -998l-319 -24l-2 114h-13q-76 -121 -231 -120 q-160 0 -231.5 88t-71.5 272q0 143 27.5 266t85 221.5t154.5 154.5t226 56q147 0 185 -120h12zM739 610q6 35 6 82q0 41 -25.5 64.5t-57.5 23.5q-88 0 -133.5 -138t-45.5 -288q0 -70 19.5 -92t68.5 -22q100 0 125 129z" glyph-name="atilde.ss02"/><glyph d="M743 1272q406 0 406 -408q0 -416 -164 -649t-450 -233q-211 0 -311.5 101t-100.5 308q0 416 164.5 648.5t455.5 232.5zM700 995q-66 0 -123 -122.5t-79 -303.5l247 408q-18 18 -45 18zM567 258q66 0 124.5 123t80.5 303l-248 -410q16 -16 43 -16z" glyph-name="zero.ss01"/><glyph d="M666 840q307 0 307 -281q0 -571 -447 -571q-307 0 -307 272q1 580 447 580zM637 639q-53 0 -87 -79t-46 -189l166 262q-13 6 -33 6zM555 188q102 0 133 269l-164 -262q13 -7 31 -7z" glyph-name="zero.dnom.ss01"/><glyph d="M741 1266q307 0 308 -281q0 -571 -447 -571q-307 0 -307 272q0 580 446 580zM713 1065q-53 0 -87 -79t-46 -189l165 262q-12 6 -32 6zM631 614q102 0 133 269l-164 -262q13 -7 31 -7z" glyph-name="zero.numr.ss01"/><glyph d="M526 -12q-307 0 -307 272q0 580 447 580q307 0 307 -281q-1 -571 -447 -571zM555 188q70 0 104.5 123t34.5 248q0 45 -13 62.5t-44 17.5q-70 0 -104.5 -124t-34.5 -251q0 -76 57 -76zM588 352q-59 0 -60 58q0 29 25 49t53.5 20t46 -16.5t17.5 -40.5q0 -29 -25.5 -49.5 t-56.5 -20.5z" glyph-name="zero.dnom"/><glyph d="M707 205h196l-35 -205h-692l35 205h221l72 409l-211 -39l-4 205l252 47h274z" glyph-name="one.dnom"/><glyph d="M590 291q-88 -45 -101 -86h412l-37 -205h-698l31 176q12 76 60 130t165 118l219 117q49 29 49 57q0 37 -110 37q-96 0 -230 -19l15 205q162 18 268 19q176 0 260 -49.5t84 -151.5q0 -141 -154 -223z" glyph-name="two.dnom"/><glyph d="M809 434q100 -37 100 -147q0 -158 -121.5 -228.5t-316.5 -70.5q-186 0 -309 30l57 213q100 -31 268 -30q139 0 140 69q0 43 -24.5 56.5t-94.5 13.5h-158l33 182h141q76 0 103.5 11.5t27.5 56.5q0 49 -77 49q-125 0 -271 -23l19 197q174 27 303 27q164 0 240.5 -45 t76.5 -146q0 -152 -135 -205z" glyph-name="three.dnom"/><glyph d="M961 338l-37 -209h-84l-23 -129h-260l23 129h-396l41 227l299 471h271l-285 -471l-4 -18h112l37 211h260l-36 -211h82z" glyph-name="four.dnom"/><glyph d="M946 621h-356l-21 -93h37q178 0 251 -49t73 -160q0 -180 -112.5 -255.5t-321.5 -75.5q-203 0 -303 30l49 213q113 -25 262 -24q84 0 112.5 12t28.5 62q0 37 -22.5 48t-85.5 11h-256l108 487h594z" glyph-name="five.dnom"/><glyph d="M715 539q231 0 231 -199q0 -188 -105.5 -270t-312.5 -82q-172 0 -246.5 54t-74.5 167q0 104 55 221t150 215q92 98 213 182h301q-147 -106 -260 -215q-45 -43 -78 -84h26q48 11 101 11zM563 190q63 0 89 26t26 89q0 35 -16.5 45t-67.5 10q-70 0 -94.5 -23.5t-24.5 -92.5 q0 -33 18.5 -43.5t69.5 -10.5z" glyph-name="six.dnom"/><glyph d="M311 827h709l-39 -213l-502 -614h-274l500 616v5h-431z" glyph-name="seven.dnom"/><glyph d="M811 428q121 -39 121 -162q0 -154 -106.5 -216t-297.5 -62q-178 0 -254.5 50t-76.5 155q0 190 190 239v6q-94 41 -94 156q0 246 377 246q168 0 234.5 -46t66.5 -143q0 -166 -158 -215zM639 651q-53 0 -75.5 -19.5t-22.5 -70.5q0 -31 14 -40t57 -9q55 0 78 17.5t23 64.5 q0 35 -16.5 46t-57.5 11zM555 176q57 0 82 20.5t25 71.5q0 35 -16.5 46.5t-63.5 11.5q-59 0 -84 -20.5t-25 -78.5q0 -31 18.5 -41t63.5 -10z" glyph-name="eight.dnom"/><glyph d="M666 840q172 0 247.5 -54.5t75.5 -167.5q0 -102 -55 -218.5t-150 -217.5q-86 -92 -213 -182h-301q139 100 258 215q31 31 80 84h-26q-47 -10 -101 -10q-233 0 -233 198q0 188 105.5 270.5t312.5 82.5zM600 467q70 0 94.5 23.5t24.5 93.5q0 33 -18.5 43t-69.5 10 q-63 0 -88 -25.5t-25 -89.5q0 -35 16.5 -45t65.5 -10z" glyph-name="nine.dnom"/><glyph d="M602 414q-307 0 -307 272q0 580 446 580q307 0 308 -281q-1 -571 -447 -571zM631 614q70 0 104.5 123t34.5 248q0 45 -13.5 62.5t-43.5 17.5q-70 0 -105 -124t-35 -251q1 -76 58 -76zM664 778q-59 0 -60 58q0 29 24.5 49t53.5 20t46 -16.5t17 -40.5q0 -29 -25 -49.5 t-56 -20.5z" glyph-name="zero.numr"/><glyph d="M782 631h197l-35 -205h-692l35 205h221l72 409l-211 -39l-4 205l251 47h275z" glyph-name="one.numr"/><glyph d="M666 717q-88 -45 -101 -86h412l-37 -205h-698l30 176q12 76 60.5 130t165.5 118l219 117q49 29 49 57q0 37 -111 37q-98 0 -229 -19l14 205q162 18 269 19q176 0 260 -49.5t84 -151.5q0 -141 -154 -223z" glyph-name="two.numr"/><glyph d="M885 860q100 -37 100 -147q0 -158 -122 -228.5t-316 -70.5q-186 0 -309 30l57 213q100 -31 268 -30q139 0 139 69q0 43 -24.5 56.5t-93.5 13.5h-158l33 182h141q76 0 103.5 11.5t27.5 56.5q0 49 -78 49q-125 0 -270 -23l18 197q174 27 304 27q164 0 240.5 -45t76.5 -146 q0 -152 -135 -205z" glyph-name="three.numr"/><glyph d="M1036 764l-37 -209h-84l-22 -129h-260l22 129h-395l41 227l299 471h270l-284 -471l-4 -18h112l37 211h260l-37 -211h82z" glyph-name="four.numr"/><glyph d="M1022 1047h-356l-21 -93h37q178 0 251 -49t73 -160q0 -180 -113 -255.5t-322 -75.5q-203 0 -303 30l49 213q113 -25 263 -24q84 0 112.5 12t28.5 62q0 37 -22.5 48t-86.5 11h-256l109 487h594z" glyph-name="five.numr"/><glyph d="M791 965q231 0 231 -199q0 -188 -105.5 -270t-312.5 -82q-172 0 -246.5 54t-74.5 167q0 104 55 221t149 215q92 98 213 182h301q-147 -106 -260 -215q-43 -45 -77 -84h26q48 11 101 11zM639 616q63 0 89 26t26 89q0 35 -16.5 45t-67.5 10q-70 0 -94.5 -23.5t-24.5 -92.5 q0 -33 18.5 -43.5t69.5 -10.5z" glyph-name="six.numr"/><glyph d="M387 1253h709l-39 -213l-502 -614h-274l499 616v5h-430z" glyph-name="seven.numr"/><glyph d="M887 854q121 -39 121 -162q0 -154 -106.5 -216t-297.5 -62q-178 0 -255 50t-77 154q0 190 191 240v6q-94 41 -94 156q0 246 376 246q168 0 235 -46t67 -143q0 -166 -158 -215zM715 1077q-53 0 -76 -19.5t-23 -70.5q0 -31 14.5 -40t57.5 -9q55 0 77.5 17.5t22.5 64.5 q0 35 -16 46t-57 11zM631 602q57 0 81.5 20.5t24.5 71.5q0 35 -16 46.5t-64 11.5q-59 0 -83.5 -20.5t-24.5 -78.5q0 -31 18.5 -41t63.5 -10z" glyph-name="eight.numr"/><glyph d="M741 1266q172 0 248 -54.5t76 -167.5q0 -102 -55.5 -218.5t-149.5 -217.5q-86 -92 -213 -182h-301q139 100 258 215q31 31 80 84h-27q-47 -10 -100 -10q-233 0 -233 198q0 188 105 270.5t312 82.5zM676 893q70 0 94.5 23.5t24.5 93.5q0 33 -18.5 43t-69.5 10 q-63 0 -88 -25.5t-25 -89.5q0 -35 16.5 -45t65.5 -10z" glyph-name="nine.numr"/><glyph d="M494 625l-35 -199h-455l29 166q12 78 33.5 127t78.5 106l158 160q31 31 31 47q0 33 -35 33q-39 0 -121 -14l19 198q117 18 186 19q76 0 131 -43t55 -131q0 -55 -16 -99.5t-34.5 -68t-63.5 -72.5l-84 -98q-41 -43 -56.5 -67.5t-25.5 -63.5h205zM813 1255h193l-517 -1257 h-192zM842 827h444l-39 -206l-301 -621h-235l288 584l9 45h-203z" glyph-name="two.numr_fraction_seven.dnom.frac"/><glyph d="M512 721q0 -143 -87 -225t-235 -82q-104 0 -170 30l52 201q63 -27 100 -27q39 0 65.5 29t26.5 72q0 47 -28 47h-72l33 180h61q18 0 31.5 23.5t13.5 60.5q0 27 -5 34t-28 7q-39 0 -112 -22l18 192q92 27 160 27q223 0 223 -187q0 -135 -92 -200l-4 -23q49 -37 49 -137z M813 1255h193l-517 -1257h-192zM842 827h444l-39 -206l-301 -621h-235l288 584l9 45h-203z" glyph-name="three.numr_fraction_seven.dnom.frac"/><glyph d="M819 1255h193l-516 -1257h-193zM442 426h-200l24 133h-262l39 225l199 469h207l-170 -413l-15 -78h39l37 205h201l-37 -205h45l-37 -203h-45zM842 827h444l-39 -206l-301 -621h-235l288 584l9 45h-203z" glyph-name="four.numr_fraction_seven.dnom.frac"/><glyph d="M813 1255h193l-517 -1257h-192zM539 778q0 -168 -85 -266t-261 -98q-86 0 -183 30l47 209q86 -25 150 -24q37 0 57.5 29.5t20.5 60.5q0 51 -49 51h-146l100 483h418l-37 -198h-223l-20 -97h10q113 0 157 -42t44 -138zM842 827h444l-39 -206l-301 -621h-235l288 584l9 45 h-203z" glyph-name="five.numr_fraction_seven.dnom.frac"/><glyph d="M813 1255h193l-517 -1257h-192zM551 772q0 -358 -309 -358q-119 0 -169 49t-50 151q0 162 106 375q82 154 186 264h256q-117 -135 -200 -260q-12 -18 -23 -39h19q25 4 34 4q150 0 150 -186zM842 827h444l-39 -206l-301 -621h-235l288 584l9 45h-203zM272 612 q25 0 37.5 50.5t12.5 93.5q0 29 -17 28q-25 0 -38 -50t-13 -93q0 -29 18 -29z" glyph-name="six.numr_fraction_seven.dnom.frac"/><glyph d="M485 625l-36 -199h-455l29 166q12 78 33.5 127t78.5 106l158 160q31 27 31 47q0 33 -35 33q-37 0 -119 -14l16 198q117 18 189 19q76 0 130 -43t54 -131q0 -55 -16.5 -99.5t-33.5 -68t-63 -72.5l-84 -98q-31 -33 -41 -46.5t-23 -36t-19 -48.5h206zM799 1255h192 l-516 -1257h-192zM1044 840q119 0 168.5 -49.5t49.5 -151.5q0 -162 -107 -375q-80 -150 -184 -264h-256q119 139 198 260q12 18 23 39h-18q-25 -4 -35 -4q-150 0 -150 186q0 359 311 359zM981 469q25 0 37 50t12 93q0 29 -18 29q-23 0 -36 -50t-13 -93q0 -29 18 -29z" glyph-name="two.numr_fraction_nine.dnom.frac"/><glyph d="M801 1255h192l-514 -1257h-192zM442 426h-200l24 133h-262l39 225l199 469h207l-170 -413l-15 -78h39l37 205h201l-37 -205h45l-37 -203h-45zM1044 840q119 0 168.5 -49.5t49.5 -151.5q0 -162 -107 -375q-80 -150 -184 -264h-256q119 139 198 260q12 18 23 39h-18 q-25 -4 -35 -4q-150 0 -150 186q0 359 311 359zM981 469q25 0 37 50t12 93q0 29 -18 29q-23 0 -36 -50t-13 -93q0 -29 18 -29z" glyph-name="four.numr_fraction_nine.dnom.frac"/><glyph d="M791 1255h190l-514 -1257h-193zM539 778q0 -168 -85 -266t-261 -98q-86 0 -183 30l47 209q86 -25 150 -24q37 0 57.5 29.5t20.5 60.5q0 51 -49 51h-146l100 483h418l-37 -198h-223l-20 -97h10q113 0 157 -42t44 -138zM1044 840q119 0 168.5 -49.5t49.5 -151.5 q0 -162 -107 -375q-80 -150 -184 -264h-256q119 139 198 260q12 18 23 39h-18q-25 -4 -35 -4q-150 0 -150 186q0 359 311 359zM981 469q25 0 37 50t12 93q0 29 -18 29q-23 0 -36 -50t-13 -93q0 -29 18 -29z" glyph-name="five.numr_fraction_nine.dnom.frac"/><glyph d="M766 1255h195l-517 -1257h-192zM35 426l289 584l8 45h-203l37 198h444l-39 -206l-301 -621h-235zM1044 840q119 0 168.5 -49.5t49.5 -151.5q0 -162 -107 -375q-80 -150 -184 -264h-256q119 139 198 260q12 18 23 39h-18q-25 -4 -35 -4q-150 0 -150 186q0 359 311 359z M981 469q25 0 37 50t12 93q0 29 -18 29q-23 0 -36 -50t-13 -93q0 -29 18 -29z" glyph-name="seven.numr_fraction_nine.dnom.frac"/><glyph d="M545 727q0 -313 -309 -313q-125 0 -176.5 41t-51.5 123q0 223 152 278v8q-61 33 -62 119q0 133 74 209t217 76q113 0 159 -41t46 -127q0 -174 -125 -232l-2 -12q78 -33 78 -129zM807 1255h192l-516 -1257h-192zM354 1083q-20 0 -30.5 -42t-10.5 -66q0 -37 16.5 -37t26 46 t9.5 75q-1 24 -11 24zM1044 840q119 0 168.5 -49.5t49.5 -151.5q0 -162 -107 -375q-80 -150 -184 -264h-256q119 139 198 260q12 18 23 39h-18q-25 -4 -35 -4q-150 0 -150 186q0 359 311 359zM270.5 598q22.5 0 32.5 42t10 83q0 31 -18 31q-47 0 -47 -127q0 -29 22.5 -29z M981 469q25 0 37 50t12 93q0 29 -18 29q-23 0 -36 -50t-13 -93q0 -29 18 -29z" glyph-name="eight.numr_fraction_nine.dnom.frac"/></font>
</defs>
</svg>
